<?xml version="1.0" encoding="UTF-8" standalone="no"?>
<!DOCTYPE svg PUBLIC "-//W3C//DTD SVG 1.1//EN"
 "http://www.w3.org/Graphics/SVG/1.1/DTD/svg11.dtd">
<!-- Generated by graphviz version 2.43.0 (0)
 -->
<!-- Title: G Pages: 1 -->
<svg width="1151pt" height="392pt"
 viewBox="0.00 0.00 1151.00 392.00" xmlns="http://www.w3.org/2000/svg" xmlns:xlink="http://www.w3.org/1999/xlink">
<g id="graph0" class="graph" transform="scale(1 1) rotate(0) translate(4 388)">
<title>G</title>
<polygon fill="#fffacd" stroke="transparent" points="-4,4 -4,-388 1147,-388 1147,4 -4,4"/>
<g id="clust1" class="cluster">
<title>cluster_1</title>
<polygon fill="#fffacd" stroke="black" points="577,-166 577,-305 1055,-305 1055,-166 577,-166"/>
</g>
<g id="clust2" class="cluster">
<title>cluster_2</title>
<polygon fill="#fffacd" stroke="black" points="8,-166 8,-305 431,-305 431,-166 8,-166"/>
</g>
<!-- Node1_3 -->
<g id="node1" class="node">
<title>Node1_3</title>
<ellipse fill="#40e0d0" stroke="#40e0d0" cx="922" cy="-192" rx="124.58" ry="18"/>
<text text-anchor="middle" x="922" y="-188.3" font-family="Times,serif" font-size="14.00">अन्तरस्थेन(1.3)</text>
</g>
<!-- Node4_1 -->
<g id="node2" class="node">
<title>Node4_1</title>
<ellipse fill="#40e0d0" stroke="#40e0d0" cx="685" cy="-279" rx="78.79" ry="18"/>
<text text-anchor="middle" x="685" y="-275.3" font-family="Times,serif" font-size="14.00">पणवेन(4.1)</text>
</g>
<!-- Node1_3&#45;&gt;Node4_1 -->
<g id="edge3" class="edge">
<title>Node1_3&#45;&gt;Node4_1</title>
<path fill="none" stroke="black" d="M877.18,-213.42C855.34,-223.01 828.55,-234.22 804,-243 781.39,-251.08 755.9,-258.77 734.33,-264.86"/>
<polygon fill="black" stroke="black" points="878.8,-216.53 886.53,-209.29 875.97,-210.13 878.8,-216.53"/>
<text text-anchor="middle" x="897.5" y="-231.8" font-family="Times,serif" font-size="14.00">विशेषणम्</text>
</g>
<!-- Node7_1 -->
<g id="node9" class="node">
<title>Node7_1</title>
<ellipse fill="#00bfff" stroke="#00bfff" cx="531" cy="-366" rx="87.99" ry="18"/>
<text text-anchor="middle" x="531" y="-362.3" font-family="Times,serif" font-size="14.00">सुप्ता(7.1)</text>
</g>
<!-- Node4_1&#45;&gt;Node7_1 -->
<g id="edge6" class="edge">
<title>Node4_1&#45;&gt;Node7_1</title>
<path fill="none" stroke="black" d="M647.62,-300.63C620.66,-315.51 584.78,-335.32 559.97,-349.01"/>
<polygon fill="black" stroke="black" points="649.33,-303.69 656.39,-295.79 645.95,-297.56 649.33,-303.69"/>
<text text-anchor="middle" x="667" y="-318.8" font-family="Times,serif" font-size="14.00">सहार्थः</text>
</g>
<!-- Node2_1 -->
<g id="node3" class="node">
<title>Node2_1</title>
<ellipse fill="#40e0d0" stroke="#40e0d0" cx="682" cy="-192" rx="96.68" ry="18"/>
<text text-anchor="middle" x="682" y="-188.3" font-family="Times,serif" font-size="14.00">कक्षगेन(2.1)</text>
</g>
<!-- Node2_1&#45;&gt;Node4_1 -->
<g id="edge4" class="edge">
<title>Node2_1&#45;&gt;Node4_1</title>
<path fill="none" stroke="black" d="M684.55,-220.12C684.74,-222.78 684.89,-225.44 685,-228 685.47,-238.93 685.47,-251.21 685.36,-260.87"/>
<polygon fill="black" stroke="black" points="688.04,-219.76 683.76,-210.07 681.06,-220.32 688.04,-219.76"/>
<text text-anchor="middle" x="742.5" y="-231.8" font-family="Times,serif" font-size="14.00">विशेषणम्</text>
</g>
<!-- Node6_1 -->
<g id="node4" class="node">
<title>Node6_1</title>
<ellipse fill="#00bfff" stroke="#00bfff" cx="307" cy="-192" rx="115.88" ry="18"/>
<text text-anchor="middle" x="307" y="-188.3" font-family="Times,serif" font-size="14.00">अनिन्द्या(6.1)</text>
</g>
<!-- Node3_1 -->
<g id="node5" class="node">
<title>Node3_1</title>
<ellipse fill="#00bfff" stroke="#00bfff" cx="307" cy="-279" rx="96.68" ry="18"/>
<text text-anchor="middle" x="307" y="-275.3" font-family="Times,serif" font-size="14.00">कृशोदरी(3.1)</text>
</g>
<!-- Node6_1&#45;&gt;Node3_1 -->
<g id="edge8" class="edge">
<title>Node6_1&#45;&gt;Node3_1</title>
<path fill="none" stroke="black" d="M307,-220.27C307,-233.58 307,-249.19 307,-260.82"/>
<polygon fill="black" stroke="black" points="310.5,-220.2 307,-210.2 303.5,-220.2 310.5,-220.2"/>
<text text-anchor="middle" x="364.5" y="-231.8" font-family="Times,serif" font-size="14.00">विशेषणम्</text>
</g>
<!-- Node3_1&#45;&gt;Node7_1 -->
<g id="edge5" class="edge">
<title>Node3_1&#45;&gt;Node7_1</title>
<path fill="none" stroke="black" d="M356.97,-298.96C397.42,-314.31 453.64,-335.64 491.11,-349.86"/>
<polygon fill="black" stroke="black" points="358.16,-295.67 347.56,-295.39 355.67,-302.21 358.16,-295.67"/>
<text text-anchor="middle" x="468" y="-318.8" font-family="Times,serif" font-size="14.00">कर्ता</text>
</g>
<!-- Node8_2 -->
<g id="node6" class="node">
<title>Node8_2</title>
<ellipse fill="#00bfff" stroke="#00bfff" cx="95" cy="-192" rx="78.79" ry="18"/>
<text text-anchor="middle" x="95" y="-188.3" font-family="Times,serif" font-size="14.00">श्रमा(8.2)</text>
</g>
<!-- Node8_2&#45;&gt;Node3_1 -->
<g id="edge10" class="edge">
<title>Node8_2&#45;&gt;Node3_1</title>
<path fill="none" stroke="black" d="M130.55,-214.36C147.54,-223.98 168.4,-234.95 188,-243 208.22,-251.3 231.11,-258.52 251.38,-264.22"/>
<polygon fill="black" stroke="black" points="131.96,-211.13 121.54,-209.18 128.47,-217.2 131.96,-211.13"/>
<text text-anchor="middle" x="245.5" y="-231.8" font-family="Times,serif" font-size="14.00">विशेषणम्</text>
</g>
<!-- Node1_1 -->
<g id="node7" class="node">
<title>Node1_1</title>
<ellipse fill="#ffff00" stroke="#ffff00" cx="922" cy="-18" rx="63.09" ry="18"/>
<text text-anchor="middle" x="922" y="-14.3" font-family="Times,serif" font-size="14.00">भुज&#45;(1.1)</text>
</g>
<!-- Node1_2 -->
<g id="node8" class="node">
<title>Node1_2</title>
<ellipse fill="#ffff00" stroke="#ffff00" cx="922" cy="-105" rx="63.09" ry="18"/>
<text text-anchor="middle" x="922" y="-101.3" font-family="Times,serif" font-size="14.00">पाश&#45;(1.2)</text>
</g>
<!-- Node1_1&#45;&gt;Node1_2 -->
<g id="edge1" class="edge">
<title>Node1_1&#45;&gt;Node1_2</title>
<path fill="none" stroke="black" d="M922,-46.27C922,-59.58 922,-75.19 922,-86.82"/>
<polygon fill="black" stroke="black" points="925.5,-46.2 922,-36.2 918.5,-46.2 925.5,-46.2"/>
<text text-anchor="middle" x="986.5" y="-57.8" font-family="Times,serif" font-size="14.00">कर्मधारयः</text>
</g>
<!-- Node1_2&#45;&gt;Node1_3 -->
<g id="edge2" class="edge">
<title>Node1_2&#45;&gt;Node1_3</title>
<path fill="none" stroke="black" d="M922,-133.27C922,-146.58 922,-162.19 922,-173.82"/>
<polygon fill="black" stroke="black" points="925.5,-133.2 922,-123.2 918.5,-133.2 925.5,-133.2"/>
<text text-anchor="middle" x="1032.5" y="-144.8" font-family="Times,serif" font-size="14.00">सप्तमी_तत्पुरुषः</text>
</g>
<!-- Node5_1 -->
<g id="node10" class="node">
<title>Node5_1</title>
<ellipse fill="#ff99ff" stroke="#ff99ff" cx="491" cy="-192" rx="50.89" ry="18"/>
<text text-anchor="middle" x="491" y="-188.3" font-family="Times,serif" font-size="14.00">सह(5.1)</text>
</g>
<!-- Node5_1&#45;&gt;Node4_1 -->
<g id="edge7" class="edge">
<title>Node5_1&#45;&gt;Node4_1</title>
<path fill="none" stroke="black" d="M482.61,-220.14C481.75,-228.29 482.74,-236.72 488,-243 503.51,-261.5 560.25,-270.23 608.88,-274.35"/>
<polygon fill="black" stroke="black" points="486.08,-220.63 484.51,-210.16 479.21,-219.33 486.08,-220.63"/>
<text text-anchor="middle" x="584.5" y="-231.8" font-family="Times,serif" font-size="14.00">सहार्थ_द्योतकः</text>
</g>
<!-- Node8_1 -->
<g id="node11" class="node">
<title>Node8_1</title>
<ellipse fill="#ffff00" stroke="#ffff00" cx="95" cy="-105" rx="81.49" ry="18"/>
<text text-anchor="middle" x="95" y="-101.3" font-family="Times,serif" font-size="14.00">मदकृत&#45;(8.1)</text>
</g>
<!-- Node8_1&#45;&gt;Node8_2 -->
<g id="edge9" class="edge">
<title>Node8_1&#45;&gt;Node8_2</title>
<path fill="none" stroke="black" d="M95,-133.27C95,-146.58 95,-162.19 95,-173.82"/>
<polygon fill="black" stroke="black" points="98.5,-133.2 95,-123.2 91.5,-133.2 98.5,-133.2"/>
<text text-anchor="middle" x="166.5" y="-144.8" font-family="Times,serif" font-size="14.00">बहुव्रीहिः</text>
</g>
</g>
</svg>
