<?xml version="1.0" encoding="UTF-8" standalone="no"?>
<!DOCTYPE svg PUBLIC "-//W3C//DTD SVG 1.1//EN"
 "http://www.w3.org/Graphics/SVG/1.1/DTD/svg11.dtd">
<!-- Generated by graphviz version 2.43.0 (0)
 -->
<!-- Title: G Pages: 1 -->
<svg width="1101pt" height="392pt"
 viewBox="0.00 0.00 1100.59 392.00" xmlns="http://www.w3.org/2000/svg" xmlns:xlink="http://www.w3.org/1999/xlink">
<g id="graph0" class="graph" transform="scale(1 1) rotate(0) translate(4 388)">
<title>G</title>
<polygon fill="#fffacd" stroke="transparent" points="-4,4 -4,-388 1096.59,-388 1096.59,4 -4,4"/>
<g id="clust1" class="cluster">
<title>cluster_1</title>
<polygon fill="#fffacd" stroke="black" points="524.59,-166 524.59,-305 1084.59,-305 1084.59,-166 524.59,-166"/>
</g>
<!-- Node1_1 -->
<g id="node1" class="node">
<title>Node1_1</title>
<ellipse fill="#00bfff" stroke="#00bfff" cx="988.59" cy="-192" rx="87.99" ry="18"/>
<text text-anchor="middle" x="988.59" y="-188.3" font-family="Times,serif" font-size="14.00">काचित्(1.1)</text>
</g>
<!-- Node3_1 -->
<g id="node2" class="node">
<title>Node3_1</title>
<ellipse fill="#00bfff" stroke="#00bfff" cx="691.59" cy="-279" rx="69.59" ry="18"/>
<text text-anchor="middle" x="691.59" y="-275.3" font-family="Times,serif" font-size="14.00">नारी(3.1)</text>
</g>
<!-- Node1_1&#45;&gt;Node3_1 -->
<g id="edge1" class="edge">
<title>Node1_1&#45;&gt;Node3_1</title>
<path fill="none" stroke="black" d="M954.23,-214.44C936.67,-224.51 914.63,-235.84 893.59,-243 848.95,-258.19 796.4,-267.04 756.1,-272.03"/>
<polygon fill="black" stroke="black" points="956.11,-217.39 962.97,-209.32 952.57,-211.35 956.11,-217.39"/>
<text text-anchor="middle" x="986.09" y="-231.8" font-family="Times,serif" font-size="14.00">विशेषणम्</text>
</g>
<!-- Node7_1 -->
<g id="node7" class="node">
<title>Node7_1</title>
<ellipse fill="#00bfff" stroke="#00bfff" cx="449.59" cy="-366" rx="115.88" ry="18"/>
<text text-anchor="middle" x="449.59" y="-362.3" font-family="Times,serif" font-size="14.00">प्रसुप्ता(7.1)</text>
</g>
<!-- Node3_1&#45;&gt;Node7_1 -->
<g id="edge3" class="edge">
<title>Node3_1&#45;&gt;Node7_1</title>
<path fill="none" stroke="black" d="M642.68,-297.18C599.28,-312.42 536.43,-334.5 494.34,-349.28"/>
<polygon fill="black" stroke="black" points="643.9,-300.46 652.17,-293.85 641.58,-293.86 643.9,-300.46"/>
<text text-anchor="middle" x="620.59" y="-318.8" font-family="Times,serif" font-size="14.00">कर्ता</text>
</g>
<!-- Node6_3 -->
<g id="node3" class="node">
<title>Node6_3</title>
<ellipse fill="#00bfff" stroke="#00bfff" cx="611.59" cy="-192" rx="78.79" ry="18"/>
<text text-anchor="middle" x="611.59" y="-188.3" font-family="Times,serif" font-size="14.00">अक्षी(6.3)</text>
</g>
<!-- Node6_3&#45;&gt;Node3_1 -->
<g id="edge10" class="edge">
<title>Node6_3&#45;&gt;Node3_1</title>
<path fill="none" stroke="black" d="M627.4,-218.68C632.98,-226.85 639.62,-235.67 646.59,-243 653,-249.74 660.77,-256.25 668.04,-261.79"/>
<polygon fill="black" stroke="black" points="630.21,-216.58 621.78,-210.16 624.36,-220.44 630.21,-216.58"/>
<text text-anchor="middle" x="704.09" y="-231.8" font-family="Times,serif" font-size="14.00">विशेषणम्</text>
</g>
<!-- Node8_2 -->
<g id="node4" class="node">
<title>Node8_2</title>
<ellipse fill="#00bfff" stroke="#00bfff" cx="795.59" cy="-192" rx="87.99" ry="18"/>
<text text-anchor="middle" x="795.59" y="-188.3" font-family="Times,serif" font-size="14.00">मोहिता(8.2)</text>
</g>
<!-- Node8_2&#45;&gt;Node3_1 -->
<g id="edge12" class="edge">
<title>Node8_2&#45;&gt;Node3_1</title>
<path fill="none" stroke="black" d="M781.81,-218.51C776.33,-227.05 769.45,-236.13 761.59,-243 752.08,-251.32 740.24,-258.21 729.02,-263.62"/>
<polygon fill="black" stroke="black" points="784.82,-220.3 787,-209.93 778.83,-216.68 784.82,-220.3"/>
<text text-anchor="middle" x="832.09" y="-231.8" font-family="Times,serif" font-size="14.00">विशेषणम्</text>
</g>
<!-- Node2_1 -->
<g id="node5" class="node">
<title>Node2_1</title>
<ellipse fill="#93db70" stroke="#93db70" cx="106.59" cy="-192" rx="106.68" ry="18"/>
<text text-anchor="middle" x="106.59" y="-188.3" font-family="Times,serif" font-size="14.00">आडम्बरम्(2.1)</text>
</g>
<!-- Node5_1 -->
<g id="node6" class="node">
<title>Node5_1</title>
<ellipse fill="#ff99ff" stroke="#ff99ff" cx="287.59" cy="-279" rx="87.99" ry="18"/>
<text text-anchor="middle" x="287.59" y="-275.3" font-family="Times,serif" font-size="14.00">कृत्वा(5.1)</text>
</g>
<!-- Node2_1&#45;&gt;Node5_1 -->
<g id="edge2" class="edge">
<title>Node2_1&#45;&gt;Node5_1</title>
<path fill="none" stroke="black" d="M150.19,-213.47C182.15,-228.48 224.89,-248.55 254.17,-262.3"/>
<polygon fill="black" stroke="black" points="151.6,-210.27 141.06,-209.19 148.63,-216.61 151.6,-210.27"/>
<text text-anchor="middle" x="237.59" y="-231.8" font-family="Times,serif" font-size="14.00">कर्म</text>
</g>
<!-- Node5_1&#45;&gt;Node7_1 -->
<g id="edge7" class="edge">
<title>Node5_1&#45;&gt;Node7_1</title>
<path fill="none" stroke="black" d="M327.21,-300.79C355.29,-315.52 392.45,-335.02 418.43,-348.65"/>
<polygon fill="black" stroke="black" points="328.54,-297.53 318.06,-295.99 325.29,-303.73 328.54,-297.53"/>
<text text-anchor="middle" x="443.09" y="-318.8" font-family="Times,serif" font-size="14.00">पूर्वकालः</text>
</g>
<!-- Node4_1 -->
<g id="node8" class="node">
<title>Node4_1</title>
<ellipse fill="#ffff00" stroke="#ffff00" cx="327.59" cy="-18" rx="63.09" ry="18"/>
<text text-anchor="middle" x="327.59" y="-14.3" font-family="Times,serif" font-size="14.00">भुज&#45;(4.1)</text>
</g>
<!-- Node4_2 -->
<g id="node9" class="node">
<title>Node4_2</title>
<ellipse fill="#ffff00" stroke="#ffff00" cx="327.59" cy="-105" rx="90.98" ry="18"/>
<text text-anchor="middle" x="327.59" y="-101.3" font-family="Times,serif" font-size="14.00">सम्भोग&#45;(4.2)</text>
</g>
<!-- Node4_1&#45;&gt;Node4_2 -->
<g id="edge4" class="edge">
<title>Node4_1&#45;&gt;Node4_2</title>
<path fill="none" stroke="black" d="M327.59,-46.27C327.59,-59.58 327.59,-75.19 327.59,-86.82"/>
<polygon fill="black" stroke="black" points="331.09,-46.2 327.59,-36.2 324.09,-46.2 331.09,-46.2"/>
<text text-anchor="middle" x="431.09" y="-57.8" font-family="Times,serif" font-size="14.00">षष्ठी_तत्पुरुषः</text>
</g>
<!-- Node4_3 -->
<g id="node10" class="node">
<title>Node4_3</title>
<ellipse fill="#93db70" stroke="#93db70" cx="327.59" cy="-192" rx="96.68" ry="18"/>
<text text-anchor="middle" x="327.59" y="-188.3" font-family="Times,serif" font-size="14.00">पीडितम्(4.3)</text>
</g>
<!-- Node4_2&#45;&gt;Node4_3 -->
<g id="edge5" class="edge">
<title>Node4_2&#45;&gt;Node4_3</title>
<path fill="none" stroke="black" d="M327.59,-133.27C327.59,-146.58 327.59,-162.19 327.59,-173.82"/>
<polygon fill="black" stroke="black" points="331.09,-133.2 327.59,-123.2 324.09,-133.2 331.09,-133.2"/>
<text text-anchor="middle" x="438.09" y="-144.8" font-family="Times,serif" font-size="14.00">तृतीया_तत्पुरुषः</text>
</g>
<!-- Node4_3&#45;&gt;Node5_1 -->
<g id="edge6" class="edge">
<title>Node4_3&#45;&gt;Node5_1</title>
<path fill="none" stroke="black" d="M298.5,-217.19C295.79,-220.56 293.39,-224.18 291.59,-228 286.85,-238.09 285.85,-250.59 286.03,-260.56"/>
<polygon fill="black" stroke="black" points="301.08,-219.56 305.27,-209.83 295.93,-214.82 301.08,-219.56"/>
<text text-anchor="middle" x="406.09" y="-231.8" font-family="Times,serif" font-size="14.00">कर्मसमानाधिकरणम्</text>
</g>
<!-- Node6_1 -->
<g id="node11" class="node">
<title>Node6_1</title>
<ellipse fill="#ffff00" stroke="#ffff00" cx="611.59" cy="-18" rx="63.09" ry="18"/>
<text text-anchor="middle" x="611.59" y="-14.3" font-family="Times,serif" font-size="14.00">कमल&#45;(6.1)</text>
</g>
<!-- Node6_2 -->
<g id="node12" class="node">
<title>Node6_2</title>
<ellipse fill="#ffff00" stroke="#ffff00" cx="611.59" cy="-105" rx="72.29" ry="18"/>
<text text-anchor="middle" x="611.59" y="-101.3" font-family="Times,serif" font-size="14.00">पत्र&#45;(6.2)</text>
</g>
<!-- Node6_1&#45;&gt;Node6_2 -->
<g id="edge8" class="edge">
<title>Node6_1&#45;&gt;Node6_2</title>
<path fill="none" stroke="black" d="M611.59,-46.27C611.59,-59.58 611.59,-75.19 611.59,-86.82"/>
<polygon fill="black" stroke="black" points="615.09,-46.2 611.59,-36.2 608.09,-46.2 615.09,-46.2"/>
<text text-anchor="middle" x="715.09" y="-57.8" font-family="Times,serif" font-size="14.00">षष्ठी_तत्पुरुषः</text>
</g>
<!-- Node6_2&#45;&gt;Node6_3 -->
<g id="edge9" class="edge">
<title>Node6_2&#45;&gt;Node6_3</title>
<path fill="none" stroke="black" d="M611.59,-133.27C611.59,-146.58 611.59,-162.19 611.59,-173.82"/>
<polygon fill="black" stroke="black" points="615.09,-133.2 611.59,-123.2 608.09,-133.2 615.09,-133.2"/>
<text text-anchor="middle" x="683.09" y="-144.8" font-family="Times,serif" font-size="14.00">बहुव्रीहिः</text>
</g>
<!-- Node8_1 -->
<g id="node13" class="node">
<title>Node8_1</title>
<ellipse fill="#ffff00" stroke="#ffff00" cx="795.59" cy="-105" rx="53.89" ry="18"/>
<text text-anchor="middle" x="795.59" y="-101.3" font-family="Times,serif" font-size="14.00">मद&#45;(8.1)</text>
</g>
<!-- Node8_1&#45;&gt;Node8_2 -->
<g id="edge11" class="edge">
<title>Node8_1&#45;&gt;Node8_2</title>
<path fill="none" stroke="black" d="M795.59,-133.27C795.59,-146.58 795.59,-162.19 795.59,-173.82"/>
<polygon fill="black" stroke="black" points="799.09,-133.2 795.59,-123.2 792.09,-133.2 799.09,-133.2"/>
<text text-anchor="middle" x="906.09" y="-144.8" font-family="Times,serif" font-size="14.00">तृतीया_तत्पुरुषः</text>
</g>
</g>
</svg>
