<?xml version="1.0" encoding="UTF-8" standalone="no"?>
<!DOCTYPE svg PUBLIC "-//W3C//DTD SVG 1.1//EN"
 "http://www.w3.org/Graphics/SVG/1.1/DTD/svg11.dtd">
<!-- Generated by graphviz version 2.43.0 (0)
 -->
<!-- Title: G Pages: 1 -->
<svg width="3531pt" height="653pt"
 viewBox="0.00 0.00 3531.00 653.00" xmlns="http://www.w3.org/2000/svg" xmlns:xlink="http://www.w3.org/1999/xlink">
<g id="graph0" class="graph" transform="scale(1 1) rotate(0) translate(4 649)">
<title>G</title>
<polygon fill="#fffacd" stroke="transparent" points="-4,4 -4,-649 3527,-649 3527,4 -4,4"/>
<g id="clust1" class="cluster">
<title>cluster_1</title>
<polygon fill="#fffacd" stroke="black" points="1536,-166 1536,-392 2856,-392 2856,-166 1536,-166"/>
</g>
<g id="clust2" class="cluster">
<title>cluster_2</title>
<polygon fill="#fffacd" stroke="black" points="674,-427 674,-566 1569,-566 1569,-427 674,-427"/>
</g>
<g id="clust3" class="cluster">
<title>cluster_3</title>
<polygon fill="#fffacd" stroke="black" points="2864,-166 2864,-218 3074,-218 3074,-166 2864,-166"/>
</g>
<g id="clust4" class="cluster">
<title>cluster_4</title>
<polygon fill="#fffacd" stroke="black" points="3082,-166 3082,-218 3304,-218 3304,-166 3082,-166"/>
</g>
<g id="clust5" class="cluster">
<title>cluster_5</title>
<polygon fill="#fffacd" stroke="black" points="8,-253 8,-392 529,-392 529,-253 8,-253"/>
</g>
<g id="clust6" class="cluster">
<title>cluster_6</title>
<polygon fill="#fffacd" stroke="black" points="537,-253 537,-392 927,-392 927,-253 537,-253"/>
</g>
<!-- Node1_3 -->
<g id="node1" class="node">
<title>Node1_3</title>
<ellipse fill="#40e0d0" stroke="#40e0d0" cx="2271" cy="-279" rx="115.88" ry="18"/>
<text text-anchor="middle" x="2271" y="-275.3" font-family="Times,serif" font-size="14.00">विचित्रेण(1.3)</text>
</g>
<!-- Node4_1 -->
<g id="node2" class="node">
<title>Node4_1</title>
<ellipse fill="#40e0d0" stroke="#40e0d0" cx="1953" cy="-366" rx="96.68" ry="18"/>
<text text-anchor="middle" x="1953" y="-362.3" font-family="Times,serif" font-size="14.00">मुकुटेन(4.1)</text>
</g>
<!-- Node1_3&#45;&gt;Node4_1 -->
<g id="edge3" class="edge">
<title>Node1_3&#45;&gt;Node4_1</title>
<path fill="none" stroke="black" d="M2229.13,-300.69C2207.2,-310.8 2179.64,-322.4 2154,-330 2114.61,-341.68 2069.64,-349.96 2032.25,-355.52"/>
<polygon fill="black" stroke="black" points="2230.9,-303.73 2238.47,-296.32 2227.93,-297.39 2230.9,-303.73"/>
<text text-anchor="middle" x="2250.5" y="-318.8" font-family="Times,serif" font-size="14.00">विशेषणम्</text>
</g>
<!-- Node27_1 -->
<g id="node14" class="node">
<title>Node27_1</title>
<ellipse fill="#93db70" stroke="#93db70" cx="1451" cy="-453" rx="109.68" ry="18"/>
<text text-anchor="middle" x="1451" y="-449.3" font-family="Times,serif" font-size="14.00">(युक्तम्)(27.1)</text>
</g>
<!-- Node4_1&#45;&gt;Node27_1 -->
<g id="edge6" class="edge">
<title>Node4_1&#45;&gt;Node27_1</title>
<path fill="none" stroke="black" d="M1874.06,-380.37C1778.22,-396.59 1617.87,-423.75 1524.53,-439.55"/>
<polygon fill="black" stroke="black" points="1874.71,-383.81 1883.99,-378.69 1873.55,-376.9 1874.71,-383.81"/>
<text text-anchor="middle" x="1768" y="-405.8" font-family="Times,serif" font-size="14.00">करणम्</text>
</g>
<!-- Node2_1 -->
<g id="node3" class="node">
<title>Node2_1</title>
<ellipse fill="#40e0d0" stroke="#40e0d0" cx="1651" cy="-279" rx="106.68" ry="18"/>
<text text-anchor="middle" x="1651" y="-275.3" font-family="Times,serif" font-size="14.00">काञ्चनेन(2.1)</text>
</g>
<!-- Node2_1&#45;&gt;Node4_1 -->
<g id="edge4" class="edge">
<title>Node2_1&#45;&gt;Node4_1</title>
<path fill="none" stroke="black" d="M1685.73,-301.69C1703.22,-311.71 1725.1,-322.94 1746,-330 1785.45,-343.34 1830.91,-351.74 1869.17,-356.96"/>
<polygon fill="black" stroke="black" points="1687.41,-298.62 1677.01,-296.59 1683.87,-304.66 1687.41,-298.62"/>
<text text-anchor="middle" x="1803.5" y="-318.8" font-family="Times,serif" font-size="14.00">विशेषणम्</text>
</g>
<!-- Node3_1 -->
<g id="node4" class="node">
<title>Node3_1</title>
<ellipse fill="#40e0d0" stroke="#40e0d0" cx="2751" cy="-279" rx="96.68" ry="18"/>
<text text-anchor="middle" x="2751" y="-275.3" font-family="Times,serif" font-size="14.00">विराजता(3.1)</text>
</g>
<!-- Node3_1&#45;&gt;Node4_1 -->
<g id="edge5" class="edge">
<title>Node3_1&#45;&gt;Node4_1</title>
<path fill="none" stroke="black" d="M2684.25,-295.81C2633.91,-307.12 2562.99,-321.75 2500,-330 2342.43,-350.64 2157.66,-359.25 2048.24,-362.74"/>
<polygon fill="black" stroke="black" points="2685.06,-299.21 2694.04,-293.59 2683.51,-292.39 2685.06,-299.21"/>
<text text-anchor="middle" x="2647.5" y="-318.8" font-family="Times,serif" font-size="14.00">विशेषणम्</text>
</g>
<!-- Node5_1 -->
<g id="node5" class="node">
<title>Node5_1</title>
<ellipse fill="#40e0d0" stroke="#40e0d0" cx="2520" cy="-279" rx="115.88" ry="18"/>
<text text-anchor="middle" x="2520" y="-275.3" font-family="Times,serif" font-size="14.00">अपवृत्तेन(5.1)</text>
</g>
<!-- Node5_1&#45;&gt;Node4_1 -->
<g id="edge7" class="edge">
<title>Node5_1&#45;&gt;Node4_1</title>
<path fill="none" stroke="black" d="M2456.7,-297.63C2415.73,-308.45 2361.06,-321.75 2312,-330 2221.37,-345.23 2116.68,-354.5 2043.83,-359.64"/>
<polygon fill="black" stroke="black" points="2457.79,-300.97 2466.55,-295.01 2455.99,-294.2 2457.79,-300.97"/>
<text text-anchor="middle" x="2438.5" y="-318.8" font-family="Times,serif" font-size="14.00">विशेषणम्</text>
</g>
<!-- Node9_1 -->
<g id="node6" class="node">
<title>Node9_1</title>
<ellipse fill="#40e0d0" stroke="#40e0d0" cx="1854" cy="-279" rx="78.79" ry="18"/>
<text text-anchor="middle" x="1854" y="-275.3" font-family="Times,serif" font-size="14.00">हारेण(9.1)</text>
</g>
<!-- Node9_1&#45;&gt;Node4_1 -->
<g id="edge15" class="edge">
<title>Node9_1&#45;&gt;Node4_1</title>
<path fill="none" stroke="black" d="M1861.51,-306.51C1864.88,-314.82 1869.58,-323.5 1876,-330 1884.36,-338.46 1895.14,-345.07 1905.97,-350.16"/>
<polygon fill="black" stroke="black" points="1864.8,-305.32 1858.14,-297.08 1858.21,-307.68 1864.8,-305.32"/>
<text text-anchor="middle" x="1940.5" y="-318.8" font-family="Times,serif" font-size="14.00">समुच्चितः</text>
</g>
<!-- Node10_1 -->
<g id="node7" class="node">
<title>Node10_1</title>
<ellipse fill="#40e0d0" stroke="#40e0d0" cx="1835" cy="-192" rx="93.68" ry="18"/>
<text text-anchor="middle" x="1835" y="-188.3" font-family="Times,serif" font-size="14.00">शोभिना(10.1)</text>
</g>
<!-- Node10_1&#45;&gt;Node9_1 -->
<g id="edge16" class="edge">
<title>Node10_1&#45;&gt;Node9_1</title>
<path fill="none" stroke="black" d="M1841.09,-220.27C1844.07,-233.58 1847.56,-249.19 1850.16,-260.82"/>
<polygon fill="black" stroke="black" points="1844.44,-219.2 1838.84,-210.2 1837.61,-220.72 1844.44,-219.2"/>
<text text-anchor="middle" x="1902.5" y="-231.8" font-family="Times,serif" font-size="14.00">विशेषणम्</text>
</g>
<!-- Node12_1 -->
<g id="node8" class="node">
<title>Node12_1</title>
<ellipse fill="#40e0d0" stroke="#40e0d0" cx="2044" cy="-279" rx="93.68" ry="18"/>
<text text-anchor="middle" x="2044" y="-275.3" font-family="Times,serif" font-size="14.00">वक्षसा(12.1)</text>
</g>
<!-- Node12_1&#45;&gt;Node4_1 -->
<g id="edge19" class="edge">
<title>Node12_1&#45;&gt;Node4_1</title>
<path fill="none" stroke="black" d="M2028.88,-305.73C2023.28,-314.04 2016.45,-322.93 2009,-330 2001.52,-337.1 1992.37,-343.54 1983.66,-348.9"/>
<polygon fill="black" stroke="black" points="2032,-307.36 2034.46,-297.05 2026.11,-303.57 2032,-307.36"/>
<text text-anchor="middle" x="2085.5" y="-318.8" font-family="Times,serif" font-size="14.00">समुच्चितः</text>
</g>
<!-- Node26_1 -->
<g id="node9" class="node">
<title>Node26_1</title>
<ellipse fill="#40e0d0" stroke="#40e0d0" cx="2077" cy="-192" rx="130.78" ry="18"/>
<text text-anchor="middle" x="2077" y="-188.3" font-family="Times,serif" font-size="14.00">अभिविराजता(26.1)</text>
</g>
<!-- Node26_1&#45;&gt;Node12_1 -->
<g id="edge35" class="edge">
<title>Node26_1&#45;&gt;Node12_1</title>
<path fill="none" stroke="black" d="M2066.57,-219.87C2061.37,-233.27 2055.23,-249.08 2050.67,-260.82"/>
<polygon fill="black" stroke="black" points="2069.97,-220.79 2070.32,-210.2 2063.44,-218.26 2069.97,-220.79"/>
<text text-anchor="middle" x="2119.5" y="-231.8" font-family="Times,serif" font-size="14.00">विशेषणम्</text>
</g>
<!-- Node6_3 -->
<g id="node10" class="node">
<title>Node6_3</title>
<ellipse fill="#93db70" stroke="#93db70" cx="1245" cy="-453" rx="78.79" ry="18"/>
<text text-anchor="middle" x="1245" y="-449.3" font-family="Times,serif" font-size="14.00">आननम्(6.3)</text>
</g>
<!-- Node23_1 -->
<g id="node11" class="node">
<title>Node23_1</title>
<ellipse fill="#93db70" stroke="#93db70" cx="1046" cy="-540" rx="90.98" ry="18"/>
<text text-anchor="middle" x="1046" y="-536.3" font-family="Times,serif" font-size="14.00">(रावणं)(23.1)</text>
</g>
<!-- Node6_3&#45;&gt;Node23_1 -->
<g id="edge10" class="edge">
<title>Node6_3&#45;&gt;Node23_1</title>
<path fill="none" stroke="black" d="M1213.98,-476.16C1199.59,-485.7 1181.95,-496.38 1165,-504 1145.26,-512.87 1122.68,-520.17 1102.53,-525.77"/>
<polygon fill="black" stroke="black" points="1216.16,-478.91 1222.48,-470.41 1212.24,-473.11 1216.16,-478.91"/>
<text text-anchor="middle" x="1249.5" y="-492.8" font-family="Times,serif" font-size="14.00">विशेषणम्</text>
</g>
<!-- Node24_1 -->
<g id="node35" class="node">
<title>Node24_1</title>
<ellipse fill="#ff1975" stroke="#ff1975" cx="584" cy="-627" rx="90.98" ry="18"/>
<text text-anchor="middle" x="584" y="-623.3" font-family="Times,serif" font-size="14.00">(ददर्श)(24.1)</text>
</g>
<!-- Node23_1&#45;&gt;Node24_1 -->
<g id="edge33" class="edge">
<title>Node23_1&#45;&gt;Node24_1</title>
<path fill="none" stroke="black" d="M971.67,-554.68C882.02,-571.17 732.85,-598.61 648.06,-614.21"/>
<polygon fill="black" stroke="black" points="972.56,-558.07 981.76,-552.82 971.29,-551.19 972.56,-558.07"/>
<text text-anchor="middle" x="871" y="-579.8" font-family="Times,serif" font-size="14.00">कर्म</text>
</g>
<!-- Node16_2 -->
<g id="node12" class="node">
<title>Node16_2</title>
<ellipse fill="#93db70" stroke="#93db70" cx="1046" cy="-453" rx="102.88" ry="18"/>
<text text-anchor="middle" x="1046" y="-449.3" font-family="Times,serif" font-size="14.00">ईक्षणम्(16.2)</text>
</g>
<!-- Node16_2&#45;&gt;Node23_1 -->
<g id="edge24" class="edge">
<title>Node16_2&#45;&gt;Node23_1</title>
<path fill="none" stroke="black" d="M1046,-481.27C1046,-494.58 1046,-510.19 1046,-521.82"/>
<polygon fill="black" stroke="black" points="1049.5,-481.2 1046,-471.2 1042.5,-481.2 1049.5,-481.2"/>
<text text-anchor="middle" x="1103.5" y="-492.8" font-family="Times,serif" font-size="14.00">विशेषणम्</text>
</g>
<!-- Node18_1 -->
<g id="node13" class="node">
<title>Node18_1</title>
<ellipse fill="#93db70" stroke="#93db70" cx="804" cy="-453" rx="121.58" ry="18"/>
<text text-anchor="middle" x="804" y="-449.3" font-family="Times,serif" font-size="14.00">सुसंवीतम्(18.1)</text>
</g>
<!-- Node18_1&#45;&gt;Node23_1 -->
<g id="edge27" class="edge">
<title>Node18_1&#45;&gt;Node23_1</title>
<path fill="none" stroke="black" d="M850.49,-474.18C873.33,-483.77 901.39,-495.05 927,-504 948.96,-511.67 973.57,-519.1 994.68,-525.12"/>
<polygon fill="black" stroke="black" points="851.61,-470.86 841.04,-470.19 848.89,-477.3 851.61,-470.86"/>
<text text-anchor="middle" x="984.5" y="-492.8" font-family="Times,serif" font-size="14.00">विशेषणम्</text>
</g>
<!-- Node27_1&#45;&gt;Node23_1 -->
<g id="edge36" class="edge">
<title>Node27_1&#45;&gt;Node23_1</title>
<path fill="none" stroke="black" d="M1403.83,-473.67C1377.03,-484.12 1342.62,-496.36 1311,-504 1251.01,-518.5 1181.82,-527.38 1129.19,-532.57"/>
<polygon fill="black" stroke="black" points="1405.32,-476.84 1413.34,-469.91 1402.75,-470.33 1405.32,-476.84"/>
<text text-anchor="middle" x="1415.5" y="-492.8" font-family="Times,serif" font-size="14.00">विशेषणम्</text>
</g>
<!-- Node7_3 -->
<g id="node15" class="node">
<title>Node7_3</title>
<ellipse fill="#40e0d0" stroke="#40e0d0" cx="2969" cy="-192" rx="96.68" ry="18"/>
<text text-anchor="middle" x="2969" y="-188.3" font-family="Times,serif" font-size="14.00">दिग्धेन(7.3)</text>
</g>
<!-- Node7_3&#45;&gt;Node9_1 -->
<g id="edge13" class="edge">
<title>Node7_3&#45;&gt;Node9_1</title>
<path fill="none" stroke="black" d="M2906.63,-209.42C2891.47,-212.82 2875.24,-215.98 2860,-218 2834.68,-221.36 1966.22,-248.96 1941,-253 1926.1,-255.39 1910.14,-259.5 1896.02,-263.71"/>
<polygon fill="black" stroke="black" points="2907.46,-212.82 2916.42,-207.15 2905.89,-206 2907.46,-212.82"/>
<text text-anchor="middle" x="2640.5" y="-231.8" font-family="Times,serif" font-size="14.00">विशेषणम्</text>
</g>
<!-- Node11_2 -->
<g id="node16" class="node">
<title>Node11_2</title>
<ellipse fill="#40e0d0" stroke="#40e0d0" cx="3193" cy="-192" rx="102.88" ry="18"/>
<text text-anchor="middle" x="3193" y="-188.3" font-family="Times,serif" font-size="14.00">विशालेन(11.2)</text>
</g>
<!-- Node11_2&#45;&gt;Node12_1 -->
<g id="edge18" class="edge">
<title>Node11_2&#45;&gt;Node12_1</title>
<path fill="none" stroke="black" d="M3126.12,-209.28C3110.41,-212.62 3093.68,-215.79 3078,-218 2995.08,-229.7 2785.67,-239.47 2702,-243 2578.53,-248.21 2268.55,-237.08 2146,-253 2128.55,-255.27 2109.76,-259.38 2093.13,-263.62"/>
<polygon fill="black" stroke="black" points="3127.24,-212.62 3136.27,-207.07 3125.75,-205.78 3127.24,-212.62"/>
<text text-anchor="middle" x="3024.5" y="-231.8" font-family="Times,serif" font-size="14.00">विशेषणम्</text>
</g>
<!-- Node13_1 -->
<g id="node17" class="node">
<title>Node13_1</title>
<ellipse fill="#40e0d0" stroke="#40e0d0" cx="399" cy="-279" rx="121.58" ry="18"/>
<text text-anchor="middle" x="399" y="-275.3" font-family="Times,serif" font-size="14.00">पाण्डुरेण(13.1)</text>
</g>
<!-- Node15_1 -->
<g id="node18" class="node">
<title>Node15_1</title>
<ellipse fill="#40e0d0" stroke="#40e0d0" cx="399" cy="-366" rx="102.88" ry="18"/>
<text text-anchor="middle" x="399" y="-362.3" font-family="Times,serif" font-size="14.00">क्षौमेण(15.1)</text>
</g>
<!-- Node13_1&#45;&gt;Node15_1 -->
<g id="edge20" class="edge">
<title>Node13_1&#45;&gt;Node15_1</title>
<path fill="none" stroke="black" d="M399,-307.27C399,-320.58 399,-336.19 399,-347.82"/>
<polygon fill="black" stroke="black" points="402.5,-307.2 399,-297.2 395.5,-307.2 402.5,-307.2"/>
<text text-anchor="middle" x="456.5" y="-318.8" font-family="Times,serif" font-size="14.00">विशेषणम्</text>
</g>
<!-- Node15_1&#45;&gt;Node16_2 -->
<g id="edge22" class="edge">
<title>Node15_1&#45;&gt;Node16_2</title>
<path fill="none" stroke="black" d="M470.44,-382.46C490.58,-386.23 512.57,-389.81 533,-392 686.41,-408.42 727.7,-377.31 880,-402 923.67,-409.08 971.93,-424.51 1005.1,-436.38"/>
<polygon fill="black" stroke="black" points="470.89,-378.98 460.41,-380.53 469.57,-385.85 470.89,-378.98"/>
<text text-anchor="middle" x="980" y="-405.8" font-family="Times,serif" font-size="14.00">करणम्</text>
</g>
<!-- Node14_1 -->
<g id="node19" class="node">
<title>Node14_1</title>
<ellipse fill="#40e0d0" stroke="#40e0d0" cx="138" cy="-279" rx="121.58" ry="18"/>
<text text-anchor="middle" x="138" y="-275.3" font-family="Times,serif" font-size="14.00">अपविद्धेन(14.1)</text>
</g>
<!-- Node14_1&#45;&gt;Node15_1 -->
<g id="edge21" class="edge">
<title>Node14_1&#45;&gt;Node15_1</title>
<path fill="none" stroke="black" d="M190.82,-299.34C217.45,-308.9 250.32,-320.42 280,-330 301.93,-337.08 326.31,-344.36 347.27,-350.43"/>
<polygon fill="black" stroke="black" points="191.9,-296.01 181.3,-295.91 189.52,-302.59 191.9,-296.01"/>
<text text-anchor="middle" x="337.5" y="-318.8" font-family="Times,serif" font-size="14.00">विशेषणम्</text>
</g>
<!-- Node17_2 -->
<g id="node20" class="node">
<title>Node17_2</title>
<ellipse fill="#40e0d0" stroke="#40e0d0" cx="825" cy="-279" rx="93.68" ry="18"/>
<text text-anchor="middle" x="825" y="-275.3" font-family="Times,serif" font-size="14.00">अर्हेण(17.2)</text>
</g>
<!-- Node20_2 -->
<g id="node21" class="node">
<title>Node20_2</title>
<ellipse fill="#40e0d0" stroke="#40e0d0" cx="804" cy="-366" rx="84.49" ry="18"/>
<text text-anchor="middle" x="804" y="-362.3" font-family="Times,serif" font-size="14.00">वाससा(20.2)</text>
</g>
<!-- Node17_2&#45;&gt;Node20_2 -->
<g id="edge26" class="edge">
<title>Node17_2&#45;&gt;Node20_2</title>
<path fill="none" stroke="black" d="M818.26,-307.27C814.97,-320.58 811.12,-336.19 808.24,-347.82"/>
<polygon fill="black" stroke="black" points="821.75,-307.75 820.75,-297.2 814.95,-306.07 821.75,-307.75"/>
<text text-anchor="middle" x="872.5" y="-318.8" font-family="Times,serif" font-size="14.00">विशेषणम्</text>
</g>
<!-- Node20_2&#45;&gt;Node18_1 -->
<g id="edge30" class="edge">
<title>Node20_2&#45;&gt;Node18_1</title>
<path fill="none" stroke="black" d="M804,-394.27C804,-407.58 804,-423.19 804,-434.82"/>
<polygon fill="black" stroke="black" points="807.5,-394.2 804,-384.2 800.5,-394.2 807.5,-394.2"/>
<text text-anchor="middle" x="840" y="-405.8" font-family="Times,serif" font-size="14.00">करणम्</text>
</g>
<!-- Node19_1 -->
<g id="node22" class="node">
<title>Node19_1</title>
<ellipse fill="#40e0d0" stroke="#40e0d0" cx="629" cy="-279" rx="84.49" ry="18"/>
<text text-anchor="middle" x="629" y="-275.3" font-family="Times,serif" font-size="14.00">पीतेन(19.1)</text>
</g>
<!-- Node19_1&#45;&gt;Node20_2 -->
<g id="edge28" class="edge">
<title>Node19_1&#45;&gt;Node20_2</title>
<path fill="none" stroke="black" d="M654.94,-303.3C666.31,-312.59 680.19,-322.78 694,-330 711.58,-339.19 732.01,-346.51 750.47,-352.03"/>
<polygon fill="black" stroke="black" points="657.05,-300.5 647.15,-296.74 652.55,-305.86 657.05,-300.5"/>
<text text-anchor="middle" x="751.5" y="-318.8" font-family="Times,serif" font-size="14.00">विशेषणम्</text>
</g>
<!-- Node1_1 -->
<g id="node23" class="node">
<title>Node1_1</title>
<ellipse fill="#ffff00" stroke="#ffff00" cx="3399" cy="-105" rx="90.98" ry="18"/>
<text text-anchor="middle" x="3399" y="-101.3" font-family="Times,serif" font-size="14.00">मुक्ता&#45;(1.1)</text>
</g>
<!-- Node1_2 -->
<g id="node24" class="node">
<title>Node1_2</title>
<ellipse fill="#ffff00" stroke="#ffff00" cx="3388" cy="-192" rx="63.09" ry="18"/>
<text text-anchor="middle" x="3388" y="-188.3" font-family="Times,serif" font-size="14.00">मणि&#45;(1.2)</text>
</g>
<!-- Node1_1&#45;&gt;Node1_2 -->
<g id="edge1" class="edge">
<title>Node1_1&#45;&gt;Node1_2</title>
<path fill="none" stroke="black" d="M3395.47,-133.27C3393.75,-146.58 3391.73,-162.19 3390.22,-173.82"/>
<polygon fill="black" stroke="black" points="3398.96,-133.57 3396.77,-123.2 3392.02,-132.67 3398.96,-133.57"/>
<text text-anchor="middle" x="3458.5" y="-144.8" font-family="Times,serif" font-size="14.00">द्वन्द्वः</text>
</g>
<!-- Node1_2&#45;&gt;Node1_3 -->
<g id="edge2" class="edge">
<title>Node1_2&#45;&gt;Node1_3</title>
<path fill="none" stroke="black" d="M3340.27,-209.49C3329.74,-212.69 3318.57,-215.74 3308,-218 3216.09,-237.66 3191.79,-236.77 3098,-243 2942.11,-253.36 2550.35,-236.38 2395,-253 2374.04,-255.24 2351.36,-259.32 2331.2,-263.54"/>
<polygon fill="black" stroke="black" points="3341.63,-212.73 3350.13,-206.41 3339.54,-206.05 3341.63,-212.73"/>
<text text-anchor="middle" x="3365.5" y="-231.8" font-family="Times,serif" font-size="14.00">तृतीया_तत्पुरुषः</text>
</g>
<!-- Node6_1 -->
<g id="node25" class="node">
<title>Node6_1</title>
<ellipse fill="#ffff00" stroke="#ffff00" cx="1232" cy="-279" rx="90.98" ry="18"/>
<text text-anchor="middle" x="1232" y="-275.3" font-family="Times,serif" font-size="14.00">कुण्डल&#45;(6.1)</text>
</g>
<!-- Node6_2 -->
<g id="node26" class="node">
<title>Node6_2</title>
<ellipse fill="#ffff00" stroke="#ffff00" cx="1245" cy="-366" rx="118.08" ry="18"/>
<text text-anchor="middle" x="1245" y="-362.3" font-family="Times,serif" font-size="14.00">उज्ज्वलित&#45;(6.2)</text>
</g>
<!-- Node6_1&#45;&gt;Node6_2 -->
<g id="edge8" class="edge">
<title>Node6_1&#45;&gt;Node6_2</title>
<path fill="none" stroke="black" d="M1231.02,-307.49C1231.18,-314.84 1231.72,-322.76 1233,-330 1234.05,-335.95 1235.95,-342.24 1237.93,-347.83"/>
<polygon fill="black" stroke="black" points="1234.52,-307.26 1231.04,-297.25 1227.52,-307.25 1234.52,-307.26"/>
<text text-anchor="middle" x="1343.5" y="-318.8" font-family="Times,serif" font-size="14.00">तृतीया_तत्पुरुषः</text>
</g>
<!-- Node6_2&#45;&gt;Node6_3 -->
<g id="edge9" class="edge">
<title>Node6_2&#45;&gt;Node6_3</title>
<path fill="none" stroke="black" d="M1245,-394.27C1245,-407.58 1245,-423.19 1245,-434.82"/>
<polygon fill="black" stroke="black" points="1248.5,-394.2 1245,-384.2 1241.5,-394.2 1248.5,-394.2"/>
<text text-anchor="middle" x="1316.5" y="-405.8" font-family="Times,serif" font-size="14.00">बहुव्रीहिः</text>
</g>
<!-- Node7_1 -->
<g id="node27" class="node">
<title>Node7_1</title>
<ellipse fill="#ffff00" stroke="#ffff00" cx="2949" cy="-18" rx="72.29" ry="18"/>
<text text-anchor="middle" x="2949" y="-14.3" font-family="Times,serif" font-size="14.00">रक्त&#45;(7.1)</text>
</g>
<!-- Node7_2 -->
<g id="node28" class="node">
<title>Node7_2</title>
<ellipse fill="#ffff00" stroke="#ffff00" cx="2949" cy="-105" rx="81.49" ry="18"/>
<text text-anchor="middle" x="2949" y="-101.3" font-family="Times,serif" font-size="14.00">चन्दन&#45;(7.2)</text>
</g>
<!-- Node7_1&#45;&gt;Node7_2 -->
<g id="edge11" class="edge">
<title>Node7_1&#45;&gt;Node7_2</title>
<path fill="none" stroke="black" d="M2949,-46.27C2949,-59.58 2949,-75.19 2949,-86.82"/>
<polygon fill="black" stroke="black" points="2952.5,-46.2 2949,-36.2 2945.5,-46.2 2952.5,-46.2"/>
<text text-anchor="middle" x="3013.5" y="-57.8" font-family="Times,serif" font-size="14.00">कर्मधारयः</text>
</g>
<!-- Node7_2&#45;&gt;Node7_3 -->
<g id="edge12" class="edge">
<title>Node7_2&#45;&gt;Node7_3</title>
<path fill="none" stroke="black" d="M2955.42,-133.27C2958.55,-146.58 2962.22,-162.19 2964.96,-173.82"/>
<polygon fill="black" stroke="black" points="2958.74,-132.13 2953.05,-123.2 2951.93,-133.74 2958.74,-132.13"/>
<text text-anchor="middle" x="3070.5" y="-144.8" font-family="Times,serif" font-size="14.00">तृतीया_तत्पुरुषः</text>
</g>
<!-- Node8_1 -->
<g id="node29" class="node">
<title>Node8_1</title>
<ellipse fill="#ff99ff" stroke="#ff99ff" cx="1835" cy="-105" rx="59.59" ry="18"/>
<text text-anchor="middle" x="1835" y="-101.3" font-family="Times,serif" font-size="14.00">तथा(8.1)</text>
</g>
<!-- Node8_1&#45;&gt;Node10_1 -->
<g id="edge14" class="edge">
<title>Node8_1&#45;&gt;Node10_1</title>
<path fill="none" stroke="black" d="M1835,-133.27C1835,-146.58 1835,-162.19 1835,-173.82"/>
<polygon fill="black" stroke="black" points="1838.5,-133.2 1835,-123.2 1831.5,-133.2 1838.5,-133.2"/>
<text text-anchor="middle" x="1892.5" y="-144.8" font-family="Times,serif" font-size="14.00">सम्बन्धः</text>
</g>
<!-- Node11_1 -->
<g id="node30" class="node">
<title>Node11_1</title>
<ellipse fill="#ffff00" stroke="#ffff00" cx="3193" cy="-105" rx="96.68" ry="18"/>
<text text-anchor="middle" x="3193" y="-101.3" font-family="Times,serif" font-size="14.00">पीनायत&#45;(11.1)</text>
</g>
<!-- Node11_1&#45;&gt;Node11_2 -->
<g id="edge17" class="edge">
<title>Node11_1&#45;&gt;Node11_2</title>
<path fill="none" stroke="black" d="M3193,-133.27C3193,-146.58 3193,-162.19 3193,-173.82"/>
<polygon fill="black" stroke="black" points="3196.5,-133.2 3193,-123.2 3189.5,-133.2 3196.5,-133.2"/>
<text text-anchor="middle" x="3257.5" y="-144.8" font-family="Times,serif" font-size="14.00">द्वन्द्वः</text>
</g>
<!-- Node16_1 -->
<g id="node31" class="node">
<title>Node16_1</title>
<ellipse fill="#ffff00" stroke="#ffff00" cx="1022" cy="-366" rx="87.18" ry="18"/>
<text text-anchor="middle" x="1022" y="-362.3" font-family="Times,serif" font-size="14.00">क्षतज&#45;(16.1)</text>
</g>
<!-- Node16_1&#45;&gt;Node16_2 -->
<g id="edge23" class="edge">
<title>Node16_1&#45;&gt;Node16_2</title>
<path fill="none" stroke="black" d="M1029.59,-393.87C1033.37,-407.27 1037.83,-423.08 1041.15,-434.82"/>
<polygon fill="black" stroke="black" points="1032.94,-392.87 1026.86,-384.2 1026.21,-394.78 1032.94,-392.87"/>
<text text-anchor="middle" x="1099.5" y="-405.8" font-family="Times,serif" font-size="14.00">कर्मधारयः</text>
</g>
<!-- Node17_1 -->
<g id="node32" class="node">
<title>Node17_1</title>
<ellipse fill="#ffff00" stroke="#ffff00" cx="825" cy="-192" rx="68.79" ry="18"/>
<text text-anchor="middle" x="825" y="-188.3" font-family="Times,serif" font-size="14.00">महा&#45;(17.1)</text>
</g>
<!-- Node17_1&#45;&gt;Node17_2 -->
<g id="edge25" class="edge">
<title>Node17_1&#45;&gt;Node17_2</title>
<path fill="none" stroke="black" d="M825,-220.27C825,-233.58 825,-249.19 825,-260.82"/>
<polygon fill="black" stroke="black" points="828.5,-220.2 825,-210.2 821.5,-220.2 828.5,-220.2"/>
<text text-anchor="middle" x="889.5" y="-231.8" font-family="Times,serif" font-size="14.00">कर्मधारयः</text>
</g>
<!-- Node20_1 -->
<g id="node33" class="node">
<title>Node20_1</title>
<ellipse fill="#ffff00" stroke="#ffff00" cx="1024" cy="-279" rx="87.18" ry="18"/>
<text text-anchor="middle" x="1024" y="-275.3" font-family="Times,serif" font-size="14.00">उत्तर&#45;(20.1)</text>
</g>
<!-- Node20_1&#45;&gt;Node20_2 -->
<g id="edge29" class="edge">
<title>Node20_1&#45;&gt;Node20_2</title>
<path fill="none" stroke="black" d="M989.76,-301.62C973.35,-311.29 953.15,-322.24 934,-330 910.93,-339.35 884.56,-346.98 861.62,-352.7"/>
<polygon fill="black" stroke="black" points="991.68,-304.55 998.45,-296.41 988.07,-298.55 991.68,-304.55"/>
<text text-anchor="middle" x="1028.5" y="-318.8" font-family="Times,serif" font-size="14.00">कर्मधारयः</text>
</g>
<!-- Node21_1 -->
<g id="node34" class="node">
<title>Node21_1</title>
<ellipse fill="#00bfff" stroke="#00bfff" cx="402" cy="-540" rx="81.79" ry="18"/>
<text text-anchor="middle" x="402" y="-536.3" font-family="Times,serif" font-size="14.00">(कपिः)(21.1)</text>
</g>
<!-- Node21_1&#45;&gt;Node24_1 -->
<g id="edge31" class="edge">
<title>Node21_1&#45;&gt;Node24_1</title>
<path fill="none" stroke="black" d="M444.1,-560.97C463.53,-570.16 486.92,-581.18 508,-591 521.56,-597.32 536.51,-604.22 549.54,-610.21"/>
<polygon fill="black" stroke="black" points="445.45,-557.73 434.91,-556.62 442.45,-564.06 445.45,-557.73"/>
<text text-anchor="middle" x="544" y="-579.8" font-family="Times,serif" font-size="14.00">कर्ता</text>
</g>
<!-- Node22_1 -->
<g id="node36" class="node">
<title>Node22_1</title>
<ellipse fill="#c6e2eb" stroke="#c6e2eb" cx="584" cy="-540" rx="81.79" ry="18"/>
<text text-anchor="middle" x="584" y="-536.3" font-family="Times,serif" font-size="14.00">(गृहे)(22.1)</text>
</g>
<!-- Node22_1&#45;&gt;Node24_1 -->
<g id="edge32" class="edge">
<title>Node22_1&#45;&gt;Node24_1</title>
<path fill="none" stroke="black" d="M584,-568.27C584,-581.58 584,-597.19 584,-608.82"/>
<polygon fill="black" stroke="black" points="587.5,-568.2 584,-558.2 580.5,-568.2 587.5,-568.2"/>
<text text-anchor="middle" x="662.5" y="-579.8" font-family="Times,serif" font-size="14.00">देशाधिकरणम्</text>
</g>
<!-- Node25_1 -->
<g id="node37" class="node">
<title>Node25_1</title>
<ellipse fill="#ff99ff" stroke="#ff99ff" cx="1472" cy="-279" rx="53.89" ry="18"/>
<text text-anchor="middle" x="1472" y="-275.3" font-family="Times,serif" font-size="14.00">(च)(25.1)</text>
</g>
<!-- Node25_1&#45;&gt;Node4_1 -->
<g id="edge34" class="edge">
<title>Node25_1&#45;&gt;Node4_1</title>
<path fill="none" stroke="black" d="M1480.48,-306.73C1484.64,-315.58 1490.62,-324.55 1499,-330 1528.29,-349.04 1733.55,-358.47 1857.83,-362.49"/>
<polygon fill="black" stroke="black" points="1483.67,-305.28 1476.65,-297.35 1477.19,-307.93 1483.67,-305.28"/>
<text text-anchor="middle" x="1602.5" y="-318.8" font-family="Times,serif" font-size="14.00">समुच्चय_द्योतकः</text>
</g>
</g>
</svg>
