<svg xmlns="http://www.w3.org/2000/svg" xmlns:xlink="http://www.w3.org/1999/xlink" width="2693pt" height="392pt" viewBox="0 0 2693.49 392"><g id="graph0" class="graph" transform="scale(1 1) rotate(0) translate(4 388)"><title>G</title><polygon fill="#fffacd" stroke="transparent" points="-4 4 -4 -388 2689.49 -388 2689.49 4 -4 4"/><g id="clust1" class="cluster"><title>cluster_1</title><polygon fill="#fffacd" stroke="#000" points="1558.49 -79 1558.49 -218 1750.49 -218 1750.49 -79 1558.49 -79"/></g><g id="clust2" class="cluster"><title>cluster_2</title><polygon fill="#fffacd" stroke="#000" points="1945.49 -166 1945.49 -305 2620.49 -305 2620.49 -166 1945.49 -166"/></g><g id="clust3" class="cluster"><title>cluster_3</title><polygon fill="#fffacd" stroke="#000" points="668.49 -79 668.49 -218 1319.49 -218 1319.49 -79 668.49 -79"/></g><g id="node1" class="node"><title>Node4_1</title><ellipse cx="1645.49" cy="-105" fill="#00bfff" stroke="#00bfff" rx="78.79" ry="18"/><text x="1645.49" y="-101.3" font-family="Times,serif" font-size="14" text-anchor="middle">नियता(4.1)</text></g><g id="node2" class="node"><title>Node5_2</title><ellipse cx="1654.49" cy="-192" fill="#00bfff" stroke="#00bfff" rx="87.99" ry="18"/><text x="1654.49" y="-188.3" font-family="Times,serif" font-size="14" text-anchor="middle">शालिनी(5.2)</text></g><g id="edge4" class="edge"><title>Node4_1-&gt;Node5_2</title><path fill="none" stroke="#000" d="M1648.38,-133.27C1649.79,-146.58 1651.44,-162.19 1652.67,-173.82"/><polygon fill="#000" stroke="#000" points="1651.85 -132.78 1647.31 -123.2 1644.89 -133.51 1651.85 -132.78"/><text x="1707.99" y="-144.8" font-family="Times,serif" font-size="14" text-anchor="middle">विशेषणम्</text></g><g id="node3" class="node"><title>Node3_1</title><ellipse cx="2034.49" cy="-279" fill="#00bfff" stroke="#00bfff" rx="78.79" ry="18"/><text x="2034.49" y="-275.3" font-family="Times,serif" font-size="14" text-anchor="middle">अन्या(3.1)</text></g><g id="edge6" class="edge"><title>Node5_2-&gt;Node3_1</title><path fill="none" stroke="#000" d="M1697.96,-212.75C1722.59,-223.2 1754.25,-235.4 1783.49,-243 1842.37,-258.29 1910.85,-267.28 1961.4,-272.3"/><polygon fill="#000" stroke="#000" points="1699.11 -209.43 1688.54 -208.7 1696.35 -215.86 1699.11 -209.43"/><text x="1840.99" y="-231.8" font-family="Times,serif" font-size="14" text-anchor="middle">विशेषणम्</text></g><g id="node13" class="node"><title>Node18_1</title><ellipse cx="668.49" cy="-366" fill="#00bfff" stroke="#00bfff" rx="121.58" ry="18"/><text x="668.49" y="-362.3" font-family="Times,serif" font-size="14" text-anchor="middle">प्रसुप्ता(18.1)</text></g><g id="edge3" class="edge"><title>Node3_1-&gt;Node18_1</title><path fill="none" stroke="#000" d="M1949.29,-285.3C1711.79,-300.08 1042.47,-341.73 777.99,-358.19"/><polygon fill="#000" stroke="#000" points="1949.83 -288.78 1959.59 -284.66 1949.4 -281.79 1949.83 -288.78"/><text x="1468.49" y="-318.8" font-family="Times,serif" font-size="14" text-anchor="middle">कर्ता</text></g><g id="node4" class="node"><title>Node7_1</title><ellipse cx="2478.49" cy="-192" fill="#00bfff" stroke="#00bfff" rx="133.78" ry="18"/><text x="2478.49" y="-188.3" font-family="Times,serif" font-size="14" text-anchor="middle">अनुप्राप्ता(7.1)</text></g><g id="edge9" class="edge"><title>Node7_1-&gt;Node3_1</title><path fill="none" stroke="#000" d="M2419.58,-211.84C2385.16,-222.27 2340.7,-234.75 2300.49,-243 2235.24,-256.39 2159.89,-265.74 2106.08,-271.39"/><polygon fill="#000" stroke="#000" points="2420.93 -215.09 2429.47 -208.82 2418.88 -208.39 2420.93 -215.09"/><text x="2416.99" y="-231.8" font-family="Times,serif" font-size="14" text-anchor="middle">विशेषणम्</text></g><g id="node5" class="node"><title>Node10_1</title><ellipse cx="2233.49" cy="-192" fill="#00bfff" stroke="#00bfff" rx="93.68" ry="18"/><text x="2233.49" y="-188.3" font-family="Times,serif" font-size="14" text-anchor="middle">भामिनी(10.1)</text></g><g id="edge13" class="edge"><title>Node10_1-&gt;Node3_1</title><path fill="none" stroke="#000" d="M2202.59,-215.41C2188.45,-224.9 2171.15,-235.48 2154.49,-243 2133.53,-252.46 2109.35,-260.09 2088.21,-265.78"/><polygon fill="#000" stroke="#000" points="2204.68 -218.21 2210.95 -209.67 2200.73 -212.44 2204.68 -218.21"/><text x="2238.99" y="-231.8" font-family="Times,serif" font-size="14" text-anchor="middle">विशेषणम्</text></g><g id="node6" class="node"><title>Node19_2</title><ellipse cx="2037.49" cy="-192" fill="#00bfff" stroke="#00bfff" rx="84.49" ry="18"/><text x="2037.49" y="-188.3" font-family="Times,serif" font-size="14" text-anchor="middle">लोचना(19.2)</text></g><g id="edge24" class="edge"><title>Node19_2-&gt;Node3_1</title><path fill="none" stroke="#000" d="M2036.53,-220.27C2036.06,-233.58 2035.51,-249.19 2035.1,-260.82"/><polygon fill="#000" stroke="#000" points="2040.03 -220.32 2036.89 -210.2 2033.03 -220.07 2040.03 -220.32"/><text x="2092.99" y="-231.8" font-family="Times,serif" font-size="14" text-anchor="middle">विशेषणम्</text></g><g id="node7" class="node"><title>Node12_2</title><ellipse cx="1199.49" cy="-105" fill="#40e0d0" stroke="#40e0d0" rx="112.38" ry="18"/><text x="1199.49" y="-101.3" font-family="Times,serif" font-size="14" text-anchor="middle">सङ्काशैः(12.2)</text></g><g id="node8" class="node"><title>Node17_1</title><ellipse cx="865.49" cy="-192" fill="#40e0d0" stroke="#40e0d0" rx="93.68" ry="18"/><text x="865.49" y="-188.3" font-family="Times,serif" font-size="14" text-anchor="middle">अङ्गैः(17.1)</text></g><g id="edge16" class="edge"><title>Node12_2-&gt;Node17_1</title><path fill="none" stroke="#000" d="M1156.7,-126.5C1133.92,-136.68 1105.18,-148.4 1078.49,-156 1035.06,-168.36 985.32,-176.84 944.84,-182.36"/><polygon fill="#000" stroke="#000" points="1158.41 -129.57 1166.07 -122.25 1155.52 -123.19 1158.41 -129.57"/><text x="1175.99" y="-144.8" font-family="Times,serif" font-size="14" text-anchor="middle">विशेषणम्</text></g><g id="node24" class="node"><title>Node16_1</title><ellipse cx="668.49" cy="-279" fill="#f9f" stroke="#f9f" rx="130.78" ry="18"/><text x="668.49" y="-275.3" font-family="Times,serif" font-size="14" text-anchor="middle">परिविद्ध्य(16.1)</text></g><g id="edge22" class="edge"><title>Node17_1-&gt;Node16_1</title><path fill="none" stroke="#000" d="M819.53,-212.83C785.08,-227.7 738.51,-247.79 706.23,-261.72"/><polygon fill="#000" stroke="#000" points="821.1 -215.96 828.9 -208.79 818.33 -209.54 821.1 -215.96"/><text x="814.49" y="-231.8" font-family="Times,serif" font-size="14" text-anchor="middle">करणम्</text></g><g id="node9" class="node"><title>Node13_2</title><ellipse cx="984.49" cy="-105" fill="#40e0d0" stroke="#40e0d0" rx="84.49" ry="18"/><text x="984.49" y="-101.3" font-family="Times,serif" font-size="14" text-anchor="middle">पीनैः(13.2)</text></g><g id="edge18" class="edge"><title>Node13_2-&gt;Node17_1</title><path fill="none" stroke="#000" d="M968.48,-131.42C962.12,-140.05 954.23,-149.21 945.49,-156 934.96,-164.18 922.21,-170.88 910.02,-176.14"/><polygon fill="#000" stroke="#000" points="971.45 -133.28 974.3 -123.08 965.71 -129.27 971.45 -133.28"/><text x="1016.99" y="-144.8" font-family="Times,serif" font-size="14" text-anchor="middle">विशेषणम्</text></g><g id="node10" class="node"><title>Node14_1</title><ellipse cx="779.49" cy="-105" fill="#40e0d0" stroke="#40e0d0" rx="102.88" ry="18"/><text x="779.49" y="-101.3" font-family="Times,serif" font-size="14" text-anchor="middle">मनोरमैः(14.1)</text></g><g id="edge19" class="edge"><title>Node14_1-&gt;Node17_1</title><path fill="none" stroke="#000" d="M803.6,-129.83C817.91,-143.97 835.71,-161.56 848.54,-174.24"/><polygon fill="#000" stroke="#000" points="806.06 -127.33 796.48 -122.79 801.14 -132.31 806.06 -127.33"/><text x="884.99" y="-144.8" font-family="Times,serif" font-size="14" text-anchor="middle">विशेषणम्</text></g><g id="node11" class="node"><title>Node1_1</title><ellipse cx="302.49" cy="-192" fill="#93db70" stroke="#93db70" rx="115.88" ry="18"/><text x="302.49" y="-188.3" font-family="Times,serif" font-size="14" text-anchor="middle">विपञ्चीम्(1.1)</text></g><g id="node12" class="node"><title>Node2_1</title><ellipse cx="302.49" cy="-279" fill="#f9f" stroke="#f9f" rx="106.68" ry="18"/><text x="302.49" y="-275.3" font-family="Times,serif" font-size="14" text-anchor="middle">परिगृह्य(2.1)</text></g><g id="edge1" class="edge"><title>Node1_1-&gt;Node2_1</title><path fill="none" stroke="#000" d="M302.49,-220.27C302.49,-233.58 302.49,-249.19 302.49,-260.82"/><polygon fill="#000" stroke="#000" points="305.99 -220.2 302.49 -210.2 298.99 -220.2 305.99 -220.2"/><text x="331.49" y="-231.8" font-family="Times,serif" font-size="14" text-anchor="middle">कर्म</text></g><g id="edge2" class="edge"><title>Node2_1-&gt;Node18_1</title><path fill="none" stroke="#000" d="M372.64,-296.29C440.12,-311.96 541.19,-335.43 605.98,-350.48"/><polygon fill="#000" stroke="#000" points="373.05 -292.79 362.52 -293.94 371.47 -299.61 373.05 -292.79"/><text x="571.99" y="-318.8" font-family="Times,serif" font-size="14" text-anchor="middle">पूर्वकालः</text></g><g id="node14" class="node"><title>Node5_1</title><ellipse cx="1411.49" cy="-105" fill="#ff0" stroke="#ff0" rx="81.49" ry="18"/><text x="1411.49" y="-101.3" font-family="Times,serif" font-size="14" text-anchor="middle">नृत्य-(5.1)</text></g><g id="edge5" class="edge"><title>Node5_1-&gt;Node5_2</title><path fill="none" stroke="#000" d="M1426.41,-131.58C1432.98,-140.66 1441.48,-150.09 1451.49,-156 1472.59,-168.46 1529.24,-177.6 1577.35,-183.42"/><polygon fill="#000" stroke="#000" points="1429.21 -129.46 1420.73 -123.1 1423.39 -133.36 1429.21 -129.46"/><text x="1547.99" y="-144.8" font-family="Times,serif" font-size="14" text-anchor="middle">उपपद_तत्पुरुषः</text></g><g id="node15" class="node"><title>Node6_1</title><ellipse cx="2478.49" cy="-18" fill="#ff0" stroke="#ff0" rx="90.98" ry="18"/><text x="2478.49" y="-14.3" font-family="Times,serif" font-size="14" text-anchor="middle">निद्रा-(6.1)</text></g><g id="node16" class="node"><title>Node6_2</title><ellipse cx="2478.49" cy="-105" fill="#93db70" stroke="#93db70" rx="69.59" ry="18"/><text x="2478.49" y="-101.3" font-family="Times,serif" font-size="14" text-anchor="middle">वशम्(6.2)</text></g><g id="edge7" class="edge"><title>Node6_1-&gt;Node6_2</title><path fill="none" stroke="#000" d="M2478.49,-46.27C2478.49,-59.58 2478.49,-75.19 2478.49,-86.82"/><polygon fill="#000" stroke="#000" points="2481.99 -46.2 2478.49 -36.2 2474.99 -46.2 2481.99 -46.2"/><text x="2581.99" y="-57.8" font-family="Times,serif" font-size="14" text-anchor="middle">षष्ठी_तत्पुरुषः</text></g><g id="edge8" class="edge"><title>Node6_2-&gt;Node7_1</title><path fill="none" stroke="#000" d="M2478.49,-133.27C2478.49,-146.58 2478.49,-162.19 2478.49,-173.82"/><polygon fill="#000" stroke="#000" points="2481.99 -133.2 2478.49 -123.2 2474.99 -133.2 2481.99 -133.2"/><text x="2507.49" y="-144.8" font-family="Times,serif" font-size="14" text-anchor="middle">कर्म</text></g><g id="node17" class="node"><title>Node8_1</title><ellipse cx="2010.49" cy="-105" fill="#ff0" stroke="#ff0" rx="53.89" ry="18"/><text x="2010.49" y="-101.3" font-family="Times,serif" font-size="14" text-anchor="middle">सह-(8.1)</text></g><g id="node18" class="node"><title>Node8_2</title><ellipse cx="1847.49" cy="-192" fill="#00bfff" stroke="#00bfff" rx="87.99" ry="18"/><text x="1847.49" y="-188.3" font-family="Times,serif" font-size="14" text-anchor="middle">कान्ता(8.2)</text></g><g id="edge10" class="edge"><title>Node8_1-&gt;Node8_2</title><path fill="none" stroke="#000" d="M2003.91,-132.99C2000.59,-141.48 1995.68,-150.15 1988.49,-156 1971.93,-169.48 1962.26,-161.03 1941.49,-166 1927.2,-169.42 1911.77,-173.4 1897.62,-177.17"/><polygon fill="#000" stroke="#000" points="2007.3 -133.89 2007.12 -123.29 2000.65 -131.69 2007.3 -133.89"/><text x="2070.99" y="-144.8" font-family="Times,serif" font-size="14" text-anchor="middle">बहुव्रीहिः</text></g><g id="edge11" class="edge"><title>Node8_2-&gt;Node3_1</title><path fill="none" stroke="#000" d="M1880.6,-214.89C1895.72,-224.31 1914.1,-234.98 1931.49,-243 1949.41,-251.27 1969.87,-258.62 1987.8,-264.42"/><polygon fill="#000" stroke="#000" points="1882.43 -211.91 1872.11 -209.52 1878.69 -217.82 1882.43 -211.91"/><text x="1981.49" y="-231.8" font-family="Times,serif" font-size="14" text-anchor="middle">उपमानम्</text></g><g id="node19" class="node"><title>Node9_1</title><ellipse cx="1809.49" cy="-105" fill="#f9f" stroke="#f9f" rx="50.89" ry="18"/><text x="1809.49" y="-101.3" font-family="Times,serif" font-size="14" text-anchor="middle">इव(9.1)</text></g><g id="edge12" class="edge"><title>Node9_1-&gt;Node8_2</title><path fill="none" stroke="#000" d="M1806.23,-133.57C1806.34,-141.11 1807.44,-149.09 1810.49,-156 1813.57,-162.95 1818.75,-169.19 1824.28,-174.4"/><polygon fill="#000" stroke="#000" points="1809.73 -133.5 1806.62 -123.38 1802.74 -133.24 1809.73 -133.5"/><text x="1899.49" y="-144.8" font-family="Times,serif" font-size="14" text-anchor="middle">उपमान_द्योतकः</text></g><g id="node20" class="node"><title>Node11_1</title><ellipse cx="84.49" cy="-192" fill="#00bfff" stroke="#00bfff" rx="84.49" ry="18"/><text x="84.49" y="-188.3" font-family="Times,serif" font-size="14" text-anchor="middle">अन्या(11.1)</text></g><g id="edge14" class="edge"><title>Node11_1-&gt;Node2_1</title><path fill="none" stroke="#000" d="M132.76,-211.82C171.66,-226.99 225.71,-248.06 262.29,-262.32"/><polygon fill="#000" stroke="#000" points="133.8 -208.47 123.22 -208.1 131.26 -214.99 133.8 -208.47"/><text x="243.49" y="-231.8" font-family="Times,serif" font-size="14" text-anchor="middle">कर्ता</text></g><g id="node21" class="node"><title>Node12_1</title><ellipse cx="1199.49" cy="-18" fill="#ff0" stroke="#ff0" rx="68.79" ry="18"/><text x="1199.49" y="-14.3" font-family="Times,serif" font-size="14" text-anchor="middle">कनक-(12.1)</text></g><g id="edge15" class="edge"><title>Node12_1-&gt;Node12_2</title><path fill="none" stroke="#000" d="M1199.49,-46.27C1199.49,-59.58 1199.49,-75.19 1199.49,-86.82"/><polygon fill="#000" stroke="#000" points="1202.99 -46.2 1199.49 -36.2 1195.99 -46.2 1202.99 -46.2"/><text x="1263.99" y="-57.8" font-family="Times,serif" font-size="14" text-anchor="middle">कर्मधारयः</text></g><g id="node22" class="node"><title>Node13_1</title><ellipse cx="984.49" cy="-18" fill="#ff0" stroke="#ff0" rx="77.99" ry="18"/><text x="984.49" y="-14.3" font-family="Times,serif" font-size="14" text-anchor="middle">मृदु-(13.1)</text></g><g id="edge17" class="edge"><title>Node13_1-&gt;Node13_2</title><path fill="none" stroke="#000" d="M984.49,-46.27C984.49,-59.58 984.49,-75.19 984.49,-86.82"/><polygon fill="#000" stroke="#000" points="987.99 -46.2 984.49 -36.2 980.99 -46.2 987.99 -46.2"/><text x="1048.99" y="-57.8" font-family="Times,serif" font-size="14" text-anchor="middle">कर्मधारयः</text></g><g id="node23" class="node"><title>Node15_1</title><ellipse cx="548.49" cy="-192" fill="#93db70" stroke="#93db70" rx="112.38" ry="18"/><text x="548.49" y="-188.3" font-family="Times,serif" font-size="14" text-anchor="middle">मृदङ्गम्(15.1)</text></g><g id="edge20" class="edge"><title>Node15_1-&gt;Node16_1</title><path fill="none" stroke="#000" d="M580.5,-215.67C600.73,-230 626.44,-248.21 644.83,-261.24"/><polygon fill="#000" stroke="#000" points="582.38 -212.72 572.2 -209.79 578.34 -218.43 582.38 -212.72"/><text x="645.49" y="-231.8" font-family="Times,serif" font-size="14" text-anchor="middle">कर्म</text></g><g id="edge21" class="edge"><title>Node16_1-&gt;Node18_1</title><path fill="none" stroke="#000" d="M668.49,-307.27C668.49,-320.58 668.49,-336.19 668.49,-347.82"/><polygon fill="#000" stroke="#000" points="671.99 -307.2 668.49 -297.2 664.99 -307.2 671.99 -307.2"/><text x="732.99" y="-318.8" font-family="Times,serif" font-size="14" text-anchor="middle">पूर्वकालः</text></g><g id="node25" class="node"><title>Node19_1</title><ellipse cx="2176.49" cy="-105" fill="#ff0" stroke="#ff0" rx="77.99" ry="18"/><text x="2176.49" y="-101.3" font-family="Times,serif" font-size="14" text-anchor="middle">मत्त-(19.1)</text></g><g id="edge23" class="edge"><title>Node19_1-&gt;Node19_2</title><path fill="none" stroke="#000" d="M2169.63,-132.66C2166.29,-141.12 2161.44,-149.86 2154.49,-156 2149.23,-160.65 2118.07,-169.86 2089.23,-177.67"/><polygon fill="#000" stroke="#000" points="2173 -133.63 2172.89 -123.03 2166.37 -131.38 2173 -133.63"/><text x="2235.99" y="-144.8" font-family="Times,serif" font-size="14" text-anchor="middle">बहुव्रीहिः</text></g></g></svg>