<svg xmlns="http://www.w3.org/2000/svg" xmlns:xlink="http://www.w3.org/1999/xlink" width="950pt" height="392pt" viewBox="0 0 950 392"><g id="graph0" class="graph" transform="scale(1 1) rotate(0) translate(4 388)"><title>G</title><polygon fill="#fffacd" stroke="transparent" points="-4 4 -4 -388 946 -388 946 4 -4 4"/><g id="clust1" class="cluster"><title>cluster_1</title><polygon fill="#fffacd" stroke="#000" points="612 -166 612 -305 822 -305 822 -166 612 -166"/></g><g id="clust2" class="cluster"><title>cluster_2</title><polygon fill="#fffacd" stroke="#000" points="8 -166 8 -305 256 -305 256 -166 8 -166"/></g><g id="node1" class="node"><title>Node5_1</title><ellipse cx="717" cy="-192" fill="#00bfff" stroke="#00bfff" rx="96.68" ry="18"/><text x="717" y="-188.3" font-family="Times,serif" font-size="14" text-anchor="middle">आश्रितः(5.1)</text></g><g id="node2" class="node"><title>Node10_2</title><ellipse cx="695" cy="-279" fill="#00bfff" stroke="#00bfff" rx="75.29" ry="18"/><text x="695" y="-275.3" font-family="Times,serif" font-size="14" text-anchor="middle">कपिः(10.2)</text></g><g id="edge6" class="edge"><title>Node5_1-&gt;Node10_2</title><path fill="none" stroke="#000" d="M709.94,-220.27C706.5,-233.58 702.46,-249.19 699.45,-260.82"/><polygon fill="#000" stroke="#000" points="713.43 -220.76 712.55 -210.2 706.65 -219.01 713.43 -220.76"/><text x="765.5" y="-231.8" font-family="Times,serif" font-size="14" text-anchor="middle">विशेषणम्</text></g><g id="node6" class="node"><title>Node8_1</title><ellipse cx="429" cy="-366" fill="#ff1975" stroke="#ff1975" rx="115.88" ry="18"/><text x="429" y="-362.3" font-family="Times,serif" font-size="14" text-anchor="middle">प्रेक्षते(8.1)</text></g><g id="edge12" class="edge"><title>Node10_2-&gt;Node8_1</title><path fill="none" stroke="#000" d="M661.65,-301.54C644.92,-311.49 624,-322.7 604,-330 575.18,-340.52 542.49,-348.13 513.21,-353.52"/><polygon fill="#000" stroke="#000" points="663.76 -304.35 670.48 -296.17 660.12 -298.37 663.76 -304.35"/><text x="672" y="-318.8" font-family="Times,serif" font-size="14" text-anchor="middle">कर्ता</text></g><g id="node3" class="node"><title>Node6_1</title><ellipse cx="132" cy="-192" fill="#93db70" stroke="#93db70" rx="96.68" ry="18"/><text x="132" y="-188.3" font-family="Times,serif" font-size="14" text-anchor="middle">क्षीबम्(6.1)</text></g><g id="node4" class="node"><title>Node7_2</title><ellipse cx="132" cy="-279" fill="#93db70" stroke="#93db70" rx="115.88" ry="18"/><text x="132" y="-275.3" font-family="Times,serif" font-size="14" text-anchor="middle">शार्दूलम्(7.2)</text></g><g id="edge7" class="edge"><title>Node6_1-&gt;Node7_2</title><path fill="none" stroke="#000" d="M132,-220.27C132,-233.58 132,-249.19 132,-260.82"/><polygon fill="#000" stroke="#000" points="135.5 -220.2 132 -210.2 128.5 -220.2 135.5 -220.2"/><text x="189.5" y="-231.8" font-family="Times,serif" font-size="14" text-anchor="middle">विशेषणम्</text></g><g id="edge9" class="edge"><title>Node7_2-&gt;Node8_1</title><path fill="none" stroke="#000" d="M190.13,-298.48C221.16,-308.18 260.06,-320.08 295,-330 319.75,-337.02 347.22,-344.29 370.81,-350.37"/><polygon fill="#000" stroke="#000" points="190.93 -295.07 180.34 -295.41 188.84 -301.75 190.93 -295.07"/><text x="324" y="-318.8" font-family="Times,serif" font-size="14" text-anchor="middle">कर्म</text></g><g id="node5" class="node"><title>Node1_1</title><ellipse cx="360" cy="-279" fill="#f9f" stroke="#f9f" rx="50.89" ry="18"/><text x="360" y="-275.3" font-family="Times,serif" font-size="14" text-anchor="middle">अथ(1.1)</text></g><g id="edge1" class="edge"><title>Node1_1-&gt;Node8_1</title><path fill="none" stroke="#000" d="M355.5,-306.98C355.46,-314.9 356.78,-323.24 361,-330 366.13,-338.22 373.86,-344.6 382.3,-349.52"/><polygon fill="#000" stroke="#000" points="358.99 -307.21 356.21 -296.98 352.01 -306.71 358.99 -307.21"/><text x="418.5" y="-318.8" font-family="Times,serif" font-size="14" text-anchor="middle">सम्बन्धः</text></g><g id="node7" class="node"><title>Node2_1</title><ellipse cx="610" cy="-18" fill="#93db70" stroke="#93db70" rx="96.68" ry="18"/><text x="610" y="-14.3" font-family="Times,serif" font-size="14" text-anchor="middle">आरोहणम्(2.1)</text></g><g id="node8" class="node"><title>Node3_1</title><ellipse cx="610" cy="-105" fill="#f9f" stroke="#f9f" rx="87.99" ry="18"/><text x="610" y="-101.3" font-family="Times,serif" font-size="14" text-anchor="middle">आसाद्य(3.1)</text></g><g id="edge2" class="edge"><title>Node2_1-&gt;Node3_1</title><path fill="none" stroke="#000" d="M610,-46.27C610,-59.58 610,-75.19 610,-86.82"/><polygon fill="#000" stroke="#000" points="613.5 -46.2 610 -36.2 606.5 -46.2 613.5 -46.2"/><text x="639" y="-57.8" font-family="Times,serif" font-size="14" text-anchor="middle">कर्म</text></g><g id="edge3" class="edge"><title>Node3_1-&gt;Node5_1</title><path fill="none" stroke="#000" d="M619.1,-132.61C622.97,-140.93 628.19,-149.59 635,-156 644.13,-164.59 655.69,-171.25 667.23,-176.34"/><polygon fill="#000" stroke="#000" points="622.25 -131.06 615.17 -123.17 615.78 -133.75 622.25 -131.06"/><text x="699.5" y="-144.8" font-family="Times,serif" font-size="14" text-anchor="middle">पूर्वकालः</text></g><g id="node9" class="node"><title>Node4_1</title><ellipse cx="813" cy="-18" fill="#ff0" stroke="#ff0" rx="81.49" ry="18"/><text x="813" y="-14.3" font-family="Times,serif" font-size="14" text-anchor="middle">वेदिक-(4.1)</text></g><g id="node10" class="node"><title>Node4_2</title><ellipse cx="813" cy="-105" fill="#93db70" stroke="#93db70" rx="96.68" ry="18"/><text x="813" y="-101.3" font-family="Times,serif" font-size="14" text-anchor="middle">अन्तरम्(4.2)</text></g><g id="edge4" class="edge"><title>Node4_1-&gt;Node4_2</title><path fill="none" stroke="#000" d="M813,-46.27C813,-59.58 813,-75.19 813,-86.82"/><polygon fill="#000" stroke="#000" points="816.5 -46.2 813 -36.2 809.5 -46.2 816.5 -46.2"/><text x="877.5" y="-57.8" font-family="Times,serif" font-size="14" text-anchor="middle">तत्पुरुषः</text></g><g id="edge5" class="edge"><title>Node4_2-&gt;Node5_1</title><path fill="none" stroke="#000" d="M792.69,-130.88C785.31,-139.26 776.65,-148.42 768,-156 760.49,-162.58 751.71,-169 743.56,-174.51"/><polygon fill="#000" stroke="#000" points="795.47 -133.01 799.32 -123.14 790.16 -128.45 795.47 -133.01"/><text x="812" y="-144.8" font-family="Times,serif" font-size="14" text-anchor="middle">कर्म</text></g><g id="node11" class="node"><title>Node7_1</title><ellipse cx="355" cy="-192" fill="#ff0" stroke="#ff0" rx="90.98" ry="18"/><text x="355" y="-188.3" font-family="Times,serif" font-size="14" text-anchor="middle">राक्षस-(7.1)</text></g><g id="edge8" class="edge"><title>Node7_1-&gt;Node7_2</title><path fill="none" stroke="#000" d="M315.6,-213.81C296.43,-223.44 272.85,-234.6 251,-243 231.1,-250.65 208.8,-257.62 188.92,-263.29"/><polygon fill="#000" stroke="#000" points="317.3 -216.87 324.63 -209.21 314.13 -210.63 317.3 -216.87"/><text x="351.5" y="-231.8" font-family="Times,serif" font-size="14" text-anchor="middle">कर्मधारयः</text></g><g id="node12" class="node"><title>Node9_1</title><ellipse cx="498" cy="-279" fill="#f9f" stroke="#f9f" rx="59.59" ry="18"/><text x="498" y="-275.3" font-family="Times,serif" font-size="14" text-anchor="middle">स्म(9.1)</text></g><g id="edge10" class="edge"><title>Node9_1-&gt;Node8_1</title><path fill="none" stroke="#000" d="M489.22,-306.76C485.85,-314.72 481.46,-323.14 476,-330 470.55,-336.84 463.46,-343.04 456.44,-348.25"/><polygon fill="#000" stroke="#000" points="492.49 -307.99 492.84 -297.41 485.97 -305.47 492.49 -307.99"/><text x="542.5" y="-318.8" font-family="Times,serif" font-size="14" text-anchor="middle">सम्बन्धः</text></g><g id="node13" class="node"><title>Node10_1</title><ellipse cx="533" cy="-192" fill="#ff0" stroke="#ff0" rx="68.79" ry="18"/><text x="533" y="-188.3" font-family="Times,serif" font-size="14" text-anchor="middle">महा-(10.1)</text></g><g id="edge11" class="edge"><title>Node10_1-&gt;Node10_2</title><path fill="none" stroke="#000" d="M548.25,-218.7C554.6,-227.51 562.69,-236.73 572,-243 590.23,-255.28 612.75,-263.3 633.53,-268.51"/><polygon fill="#000" stroke="#000" points="550.98 -216.49 542.49 -210.15 545.17 -220.4 550.98 -216.49"/><text x="636.5" y="-231.8" font-family="Times,serif" font-size="14" text-anchor="middle">कर्मधारयः</text></g></g></svg>