<?xml version="1.0" encoding="UTF-8" standalone="no"?>
<!DOCTYPE svg PUBLIC "-//W3C//DTD SVG 1.1//EN"
 "http://www.w3.org/Graphics/SVG/1.1/DTD/svg11.dtd">
<!-- Generated by graphviz version 2.43.0 (0)
 -->
<!-- Title: G Pages: 1 -->
<svg width="3018pt" height="479pt"
 viewBox="0.00 0.00 3018.00 479.00" xmlns="http://www.w3.org/2000/svg" xmlns:xlink="http://www.w3.org/1999/xlink">
<g id="graph0" class="graph" transform="scale(1 1) rotate(0) translate(4 475)">
<title>G</title>
<polygon fill="#fffacd" stroke="transparent" points="-4,4 -4,-475 3014,-475 3014,4 -4,4"/>
<g id="clust1" class="cluster">
<title>cluster_1</title>
<polygon fill="#fffacd" stroke="black" points="8,-166 8,-305 200,-305 200,-166 8,-166"/>
</g>
<g id="clust2" class="cluster">
<title>cluster_2</title>
<polygon fill="#fffacd" stroke="black" points="208,-79 208,-218 661,-218 661,-79 208,-79"/>
</g>
<g id="clust3" class="cluster">
<title>cluster_3</title>
<polygon fill="#fffacd" stroke="black" points="1464,-253 1464,-392 1873,-392 1873,-253 1464,-253"/>
</g>
<g id="clust4" class="cluster">
<title>cluster_4</title>
<polygon fill="#fffacd" stroke="black" points="1017,-166 1017,-305 1183,-305 1183,-166 1017,-166"/>
</g>
<g id="clust5" class="cluster">
<title>cluster_5</title>
<polygon fill="#fffacd" stroke="black" points="2422,-166 2422,-305 2775,-305 2775,-166 2422,-166"/>
</g>
<g id="clust6" class="cluster">
<title>cluster_6</title>
<polygon fill="#fffacd" stroke="black" points="1824,-79 1824,-218 2102,-218 2102,-79 1824,-79"/>
</g>
<!-- Node3_1 -->
<g id="node1" class="node">
<title>Node3_1</title>
<ellipse fill="#00bfff" stroke="#00bfff" cx="95" cy="-192" rx="78.79" ry="18"/>
<text text-anchor="middle" x="95" y="-188.3" font-family="Times,serif" font-size="14.00">अन्या(3.1)</text>
</g>
<!-- Node6_1 -->
<g id="node2" class="node">
<title>Node6_1</title>
<ellipse fill="#00bfff" stroke="#00bfff" cx="104" cy="-279" rx="87.99" ry="18"/>
<text text-anchor="middle" x="104" y="-275.3" font-family="Times,serif" font-size="14.00">भामिनी(6.1)</text>
</g>
<!-- Node3_1&#45;&gt;Node6_1 -->
<g id="edge3" class="edge">
<title>Node3_1&#45;&gt;Node6_1</title>
<path fill="none" stroke="black" d="M97.89,-220.27C99.3,-233.58 100.95,-249.19 102.18,-260.82"/>
<polygon fill="black" stroke="black" points="101.35,-219.78 96.82,-210.2 94.39,-220.51 101.35,-219.78"/>
<text text-anchor="middle" x="158.5" y="-231.8" font-family="Times,serif" font-size="14.00">विशेषणम्</text>
</g>
<!-- Node5_1 -->
<g id="node19" class="node">
<title>Node5_1</title>
<ellipse fill="#ff1975" stroke="#ff1975" cx="538" cy="-366" rx="69.59" ry="18"/>
<text text-anchor="middle" x="538" y="-362.3" font-family="Times,serif" font-size="14.00">भाति(5.1)</text>
</g>
<!-- Node6_1&#45;&gt;Node5_1 -->
<g id="edge5" class="edge">
<title>Node6_1&#45;&gt;Node5_1</title>
<path fill="none" stroke="black" d="M175.28,-293.96C261.97,-310.94 406.33,-339.21 484.22,-354.47"/>
<polygon fill="black" stroke="black" points="175.75,-290.49 165.26,-292 174.4,-297.35 175.75,-290.49"/>
<text text-anchor="middle" x="383" y="-318.8" font-family="Times,serif" font-size="14.00">कर्ता</text>
</g>
<!-- Node8_2 -->
<g id="node3" class="node">
<title>Node8_2</title>
<ellipse fill="#00bfff" stroke="#00bfff" cx="583" cy="-105" rx="69.59" ry="18"/>
<text text-anchor="middle" x="583" y="-101.3" font-family="Times,serif" font-size="14.00">शबला(8.2)</text>
</g>
<!-- Node9_1 -->
<g id="node4" class="node">
<title>Node9_1</title>
<ellipse fill="#00bfff" stroke="#00bfff" cx="424" cy="-192" rx="69.59" ry="18"/>
<text text-anchor="middle" x="424" y="-188.3" font-family="Times,serif" font-size="14.00">माला(9.1)</text>
</g>
<!-- Node8_2&#45;&gt;Node9_1 -->
<g id="edge8" class="edge">
<title>Node8_2&#45;&gt;Node9_1</title>
<path fill="none" stroke="black" d="M546.85,-126.83C530.77,-135.96 511.54,-146.7 494,-156 481.4,-162.69 467.36,-169.78 455.18,-175.81"/>
<polygon fill="black" stroke="black" points="548.97,-129.65 555.92,-121.66 545.5,-123.57 548.97,-129.65"/>
<text text-anchor="middle" x="579.5" y="-144.8" font-family="Times,serif" font-size="14.00">विशेषणम्</text>
</g>
<!-- Node9_1&#45;&gt;Node6_1 -->
<g id="edge9" class="edge">
<title>Node9_1&#45;&gt;Node6_1</title>
<path fill="none" stroke="black" d="M367.44,-208.03C307.44,-223.96 213.5,-248.91 155.51,-264.32"/>
<polygon fill="black" stroke="black" points="368.36,-211.4 377.13,-205.45 366.56,-204.64 368.36,-211.4"/>
<text text-anchor="middle" x="334" y="-231.8" font-family="Times,serif" font-size="14.00">उपमानम्</text>
</g>
<!-- Node11_1 -->
<g id="node5" class="node">
<title>Node11_1</title>
<ellipse fill="#00bfff" stroke="#00bfff" cx="356" cy="-105" rx="139.98" ry="18"/>
<text text-anchor="middle" x="356" y="-101.3" font-family="Times,serif" font-size="14.00">परिमार्जिता(11.1)</text>
</g>
<!-- Node11_1&#45;&gt;Node9_1 -->
<g id="edge11" class="edge">
<title>Node11_1&#45;&gt;Node9_1</title>
<path fill="none" stroke="black" d="M365.45,-132.68C368.99,-140.64 373.51,-149.08 379,-156 384.66,-163.13 392.06,-169.66 399.22,-175.1"/>
<polygon fill="black" stroke="black" points="368.65,-131.27 361.62,-123.34 362.18,-133.92 368.65,-131.27"/>
<text text-anchor="middle" x="436.5" y="-144.8" font-family="Times,serif" font-size="14.00">विशेषणम्</text>
</g>
<!-- Node15_1 -->
<g id="node6" class="node">
<title>Node15_1</title>
<ellipse fill="#00bfff" stroke="#00bfff" cx="1771" cy="-279" rx="93.68" ry="18"/>
<text text-anchor="middle" x="1771" y="-275.3" font-family="Times,serif" font-size="14.00">काचित्(15.1)</text>
</g>
<!-- Node18_1 -->
<g id="node7" class="node">
<title>Node18_1</title>
<ellipse fill="#00bfff" stroke="#00bfff" cx="1566" cy="-366" rx="75.29" ry="18"/>
<text text-anchor="middle" x="1566" y="-362.3" font-family="Times,serif" font-size="14.00">अबला(18.1)</text>
</g>
<!-- Node15_1&#45;&gt;Node18_1 -->
<g id="edge15" class="edge">
<title>Node15_1&#45;&gt;Node18_1</title>
<path fill="none" stroke="black" d="M1737.54,-301.98C1722.01,-311.51 1703.04,-322.24 1685,-330 1663.44,-339.28 1638.66,-347 1617.32,-352.81"/>
<polygon fill="black" stroke="black" points="1739.62,-304.81 1746.25,-296.54 1735.91,-298.87 1739.62,-304.81"/>
<text text-anchor="middle" x="1772.5" y="-318.8" font-family="Times,serif" font-size="14.00">विशेषणम्</text>
</g>
<!-- Node19_1 -->
<g id="node28" class="node">
<title>Node19_1</title>
<ellipse fill="#00bfff" stroke="#00bfff" cx="1445" cy="-453" rx="93.68" ry="18"/>
<text text-anchor="middle" x="1445" y="-449.3" font-family="Times,serif" font-size="14.00">सुप्ता(19.1)</text>
</g>
<!-- Node18_1&#45;&gt;Node19_1 -->
<g id="edge20" class="edge">
<title>Node18_1&#45;&gt;Node19_1</title>
<path fill="none" stroke="black" d="M1547.28,-391.69C1539.79,-400.45 1530.65,-409.9 1521,-417 1510.47,-424.75 1497.95,-431.38 1486.15,-436.72"/>
<polygon fill="black" stroke="black" points="1550.02,-393.87 1553.67,-383.92 1544.61,-389.43 1550.02,-393.87"/>
<text text-anchor="middle" x="1574" y="-405.8" font-family="Times,serif" font-size="14.00">कर्ता</text>
</g>
<!-- Node21_1 -->
<g id="node8" class="node">
<title>Node21_1</title>
<ellipse fill="#00bfff" stroke="#00bfff" cx="1566" cy="-279" rx="93.68" ry="18"/>
<text text-anchor="middle" x="1566" y="-275.3" font-family="Times,serif" font-size="14.00">उपागता(21.1)</text>
</g>
<!-- Node21_1&#45;&gt;Node18_1 -->
<g id="edge23" class="edge">
<title>Node21_1&#45;&gt;Node18_1</title>
<path fill="none" stroke="black" d="M1566,-307.27C1566,-320.58 1566,-336.19 1566,-347.82"/>
<polygon fill="black" stroke="black" points="1569.5,-307.2 1566,-297.2 1562.5,-307.2 1569.5,-307.2"/>
<text text-anchor="middle" x="1623.5" y="-318.8" font-family="Times,serif" font-size="14.00">विशेषणम्</text>
</g>
<!-- Node16_3 -->
<g id="node9" class="node">
<title>Node16_3</title>
<ellipse fill="#93db70" stroke="#93db70" cx="1100" cy="-192" rx="75.29" ry="18"/>
<text text-anchor="middle" x="1100" y="-188.3" font-family="Times,serif" font-size="14.00">उपमौ(16.3)</text>
</g>
<!-- Node14_1 -->
<g id="node10" class="node">
<title>Node14_1</title>
<ellipse fill="#93db70" stroke="#93db70" cx="1100" cy="-279" rx="75.29" ry="18"/>
<text text-anchor="middle" x="1100" y="-275.3" font-family="Times,serif" font-size="14.00">कुचौ(14.1)</text>
</g>
<!-- Node16_3&#45;&gt;Node14_1 -->
<g id="edge18" class="edge">
<title>Node16_3&#45;&gt;Node14_1</title>
<path fill="none" stroke="black" d="M1100,-220.27C1100,-233.58 1100,-249.19 1100,-260.82"/>
<polygon fill="black" stroke="black" points="1103.5,-220.2 1100,-210.2 1096.5,-220.2 1103.5,-220.2"/>
<text text-anchor="middle" x="1157.5" y="-231.8" font-family="Times,serif" font-size="14.00">विशेषणम्</text>
</g>
<!-- Node17_1 -->
<g id="node24" class="node">
<title>Node17_1</title>
<ellipse fill="#ff99ff" stroke="#ff99ff" cx="1324" cy="-366" rx="102.88" ry="18"/>
<text text-anchor="middle" x="1324" y="-362.3" font-family="Times,serif" font-size="14.00">उपगुह्य(17.1)</text>
</g>
<!-- Node14_1&#45;&gt;Node17_1 -->
<g id="edge14" class="edge">
<title>Node14_1&#45;&gt;Node17_1</title>
<path fill="none" stroke="black" d="M1147.83,-298.15C1187.97,-313.38 1244.73,-334.92 1282.87,-349.39"/>
<polygon fill="black" stroke="black" points="1148.84,-294.79 1138.25,-294.52 1146.36,-301.34 1148.84,-294.79"/>
<text text-anchor="middle" x="1255" y="-318.8" font-family="Times,serif" font-size="14.00">कर्म</text>
</g>
<!-- Node23_3 -->
<g id="node11" class="node">
<title>Node23_3</title>
<ellipse fill="#00bfff" stroke="#00bfff" cx="2514" cy="-192" rx="84.49" ry="18"/>
<text text-anchor="middle" x="2514" y="-188.3" font-family="Times,serif" font-size="14.00">अक्षी(23.3)</text>
</g>
<!-- Node22_1 -->
<g id="node12" class="node">
<title>Node22_1</title>
<ellipse fill="#00bfff" stroke="#00bfff" cx="2514" cy="-279" rx="84.49" ry="18"/>
<text text-anchor="middle" x="2514" y="-275.3" font-family="Times,serif" font-size="14.00">अन्या(22.1)</text>
</g>
<!-- Node23_3&#45;&gt;Node22_1 -->
<g id="edge27" class="edge">
<title>Node23_3&#45;&gt;Node22_1</title>
<path fill="none" stroke="black" d="M2514,-220.27C2514,-233.58 2514,-249.19 2514,-260.82"/>
<polygon fill="black" stroke="black" points="2517.5,-220.2 2514,-210.2 2510.5,-220.2 2517.5,-220.2"/>
<text text-anchor="middle" x="2571.5" y="-231.8" font-family="Times,serif" font-size="14.00">विशेषणम्</text>
</g>
<!-- Node29_1 -->
<g id="node31" class="node">
<title>Node29_1</title>
<ellipse fill="#00bfff" stroke="#00bfff" cx="2207" cy="-366" rx="93.68" ry="18"/>
<text text-anchor="middle" x="2207" y="-362.3" font-family="Times,serif" font-size="14.00">उपागता(29.1)</text>
</g>
<!-- Node22_1&#45;&gt;Node29_1 -->
<g id="edge24" class="edge">
<title>Node22_1&#45;&gt;Node29_1</title>
<path fill="none" stroke="black" d="M2454.71,-296.42C2397.6,-312.23 2312.13,-335.89 2257.99,-350.88"/>
<polygon fill="black" stroke="black" points="2455.97,-299.7 2464.68,-293.66 2454.1,-292.95 2455.97,-299.7"/>
<text text-anchor="middle" x="2414" y="-318.8" font-family="Times,serif" font-size="14.00">कर्ता</text>
</g>
<!-- Node24_3 -->
<g id="node13" class="node">
<title>Node24_3</title>
<ellipse fill="#00bfff" stroke="#00bfff" cx="2692" cy="-192" rx="75.29" ry="18"/>
<text text-anchor="middle" x="2692" y="-188.3" font-family="Times,serif" font-size="14.00">आनना(24.3)</text>
</g>
<!-- Node24_3&#45;&gt;Node22_1 -->
<g id="edge30" class="edge">
<title>Node24_3&#45;&gt;Node22_1</title>
<path fill="none" stroke="black" d="M2667.38,-216.52C2656.59,-225.82 2643.35,-235.95 2630,-243 2611.58,-252.72 2590.06,-260.16 2570.59,-265.63"/>
<polygon fill="black" stroke="black" points="2669.98,-218.9 2675.12,-209.63 2665.33,-213.67 2669.98,-218.9"/>
<text text-anchor="middle" x="2709.5" y="-231.8" font-family="Times,serif" font-size="14.00">विशेषणम्</text>
</g>
<!-- Node27_1 -->
<g id="node14" class="node">
<title>Node27_1</title>
<ellipse fill="#93db70" stroke="#93db70" cx="1963" cy="-105" rx="130.78" ry="18"/>
<text text-anchor="middle" x="1963" y="-101.3" font-family="Times,serif" font-size="14.00">सुश्रोणीम्(27.1)</text>
</g>
<!-- Node25_1 -->
<g id="node15" class="node">
<title>Node25_1</title>
<ellipse fill="#93db70" stroke="#93db70" cx="1976" cy="-192" rx="102.88" ry="18"/>
<text text-anchor="middle" x="1976" y="-188.3" font-family="Times,serif" font-size="14.00">अन्याम्(25.1)</text>
</g>
<!-- Node27_1&#45;&gt;Node25_1 -->
<g id="edge33" class="edge">
<title>Node27_1&#45;&gt;Node25_1</title>
<path fill="none" stroke="black" d="M1967.17,-133.27C1969.21,-146.58 1971.59,-162.19 1973.37,-173.82"/>
<polygon fill="black" stroke="black" points="1970.6,-132.56 1965.63,-123.2 1963.68,-133.62 1970.6,-132.56"/>
<text text-anchor="middle" x="2028.5" y="-144.8" font-family="Times,serif" font-size="14.00">विशेषणम्</text>
</g>
<!-- Node26_1 -->
<g id="node36" class="node">
<title>Node26_1</title>
<ellipse fill="#ff99ff" stroke="#ff99ff" cx="1995" cy="-279" rx="112.38" ry="18"/>
<text text-anchor="middle" x="1995" y="-275.3" font-family="Times,serif" font-size="14.00">आलिङ्ग्य(26.1)</text>
</g>
<!-- Node25_1&#45;&gt;Node26_1 -->
<g id="edge31" class="edge">
<title>Node25_1&#45;&gt;Node26_1</title>
<path fill="none" stroke="black" d="M1982.09,-220.27C1985.07,-233.58 1988.56,-249.19 1991.16,-260.82"/>
<polygon fill="black" stroke="black" points="1985.44,-219.2 1979.84,-210.2 1978.61,-220.72 1985.44,-219.2"/>
<text text-anchor="middle" x="2016" y="-231.8" font-family="Times,serif" font-size="14.00">कर्म</text>
</g>
<!-- Node1_1 -->
<g id="node16" class="node">
<title>Node1_1</title>
<ellipse fill="#93db70" stroke="#93db70" cx="908" cy="-105" rx="87.99" ry="18"/>
<text text-anchor="middle" x="908" y="-101.3" font-family="Times,serif" font-size="14.00">कलशीम्(1.1)</text>
</g>
<!-- Node2_1 -->
<g id="node17" class="node">
<title>Node2_1</title>
<ellipse fill="#ff99ff" stroke="#ff99ff" cx="838" cy="-192" rx="115.88" ry="18"/>
<text text-anchor="middle" x="838" y="-188.3" font-family="Times,serif" font-size="14.00">अपविद्ध्य(2.1)</text>
</g>
<!-- Node1_1&#45;&gt;Node2_1 -->
<g id="edge1" class="edge">
<title>Node1_1&#45;&gt;Node2_1</title>
<path fill="none" stroke="black" d="M899.26,-132.79C895.89,-140.76 891.5,-149.17 886,-156 880.37,-162.99 873.03,-169.27 865.78,-174.52"/>
<polygon fill="black" stroke="black" points="902.54,-134.02 902.88,-123.43 896.01,-131.5 902.54,-134.02"/>
<text text-anchor="middle" x="924" y="-144.8" font-family="Times,serif" font-size="14.00">कर्म</text>
</g>
<!-- Node4_1 -->
<g id="node18" class="node">
<title>Node4_1</title>
<ellipse fill="#00bfff" stroke="#00bfff" cx="581" cy="-279" rx="115.88" ry="18"/>
<text text-anchor="middle" x="581" y="-275.3" font-family="Times,serif" font-size="14.00">प्रसुप्ता(4.1)</text>
</g>
<!-- Node2_1&#45;&gt;Node4_1 -->
<g id="edge2" class="edge">
<title>Node2_1&#45;&gt;Node4_1</title>
<path fill="none" stroke="black" d="M781.63,-211.65C735.57,-226.88 671.24,-248.15 627.95,-262.47"/>
<polygon fill="black" stroke="black" points="782.77,-214.95 791.16,-208.49 780.57,-208.31 782.77,-214.95"/>
<text text-anchor="middle" x="789.5" y="-231.8" font-family="Times,serif" font-size="14.00">पूर्वकालः</text>
</g>
<!-- Node4_1&#45;&gt;Node5_1 -->
<g id="edge4" class="edge">
<title>Node4_1&#45;&gt;Node5_1</title>
<path fill="none" stroke="black" d="M546.42,-304.04C543.47,-307.39 540.9,-311.05 539,-315 534.11,-325.17 533.93,-337.91 534.93,-347.98"/>
<polygon fill="black" stroke="black" points="549.13,-306.29 553.84,-296.81 544.24,-301.29 549.13,-306.29"/>
<text text-anchor="middle" x="660.5" y="-318.8" font-family="Times,serif" font-size="14.00">कर्तृसमानाधिकरणम्</text>
</g>
<!-- Node7_1 -->
<g id="node20" class="node">
<title>Node7_1</title>
<ellipse fill="#c6e2eb" stroke="#c6e2eb" cx="356" cy="-18" rx="87.99" ry="18"/>
<text text-anchor="middle" x="356" y="-14.3" font-family="Times,serif" font-size="14.00">वसन्ते(7.1)</text>
</g>
<!-- Node7_1&#45;&gt;Node11_1 -->
<g id="edge6" class="edge">
<title>Node7_1&#45;&gt;Node11_1</title>
<path fill="none" stroke="black" d="M356,-46.27C356,-59.58 356,-75.19 356,-86.82"/>
<polygon fill="black" stroke="black" points="359.5,-46.2 356,-36.2 352.5,-46.2 359.5,-46.2"/>
<text text-anchor="middle" x="434.5" y="-57.8" font-family="Times,serif" font-size="14.00">कालाधिकरणम्</text>
</g>
<!-- Node8_1 -->
<g id="node21" class="node">
<title>Node8_1</title>
<ellipse fill="#ffff00" stroke="#ffff00" cx="583" cy="-18" rx="81.49" ry="18"/>
<text text-anchor="middle" x="583" y="-14.3" font-family="Times,serif" font-size="14.00">पुष्प&#45;(8.1)</text>
</g>
<!-- Node8_1&#45;&gt;Node8_2 -->
<g id="edge7" class="edge">
<title>Node8_1&#45;&gt;Node8_2</title>
<path fill="none" stroke="black" d="M583,-46.27C583,-59.58 583,-75.19 583,-86.82"/>
<polygon fill="black" stroke="black" points="586.5,-46.2 583,-36.2 579.5,-46.2 586.5,-46.2"/>
<text text-anchor="middle" x="693.5" y="-57.8" font-family="Times,serif" font-size="14.00">सप्तमी_तत्पुरुषः</text>
</g>
<!-- Node10_1 -->
<g id="node22" class="node">
<title>Node10_1</title>
<ellipse fill="#ff99ff" stroke="#ff99ff" cx="727" cy="-105" rx="56.59" ry="18"/>
<text text-anchor="middle" x="727" y="-101.3" font-family="Times,serif" font-size="14.00">इव(10.1)</text>
</g>
<!-- Node10_1&#45;&gt;Node9_1 -->
<g id="edge10" class="edge">
<title>Node10_1&#45;&gt;Node9_1</title>
<path fill="none" stroke="black" d="M696.76,-127.27C680.85,-137.48 660.62,-148.99 641,-156 592.31,-173.4 534.37,-182.19 490.61,-186.6"/>
<polygon fill="black" stroke="black" points="698.69,-130.19 705.12,-121.77 694.84,-124.34 698.69,-130.19"/>
<text text-anchor="middle" x="763" y="-144.8" font-family="Times,serif" font-size="14.00">उपमान_द्योतकः</text>
</g>
<!-- Node12_1 -->
<g id="node23" class="node">
<title>Node12_1</title>
<ellipse fill="#40e0d0" stroke="#40e0d0" cx="1324" cy="-279" rx="130.78" ry="18"/>
<text text-anchor="middle" x="1324" y="-275.3" font-family="Times,serif" font-size="14.00">पाणिभ्याम्(12.1)</text>
</g>
<!-- Node12_1&#45;&gt;Node17_1 -->
<g id="edge12" class="edge">
<title>Node12_1&#45;&gt;Node17_1</title>
<path fill="none" stroke="black" d="M1324,-307.27C1324,-320.58 1324,-336.19 1324,-347.82"/>
<polygon fill="black" stroke="black" points="1327.5,-307.2 1324,-297.2 1320.5,-307.2 1327.5,-307.2"/>
<text text-anchor="middle" x="1360" y="-318.8" font-family="Times,serif" font-size="14.00">करणम्</text>
</g>
<!-- Node17_1&#45;&gt;Node19_1 -->
<g id="edge19" class="edge">
<title>Node17_1&#45;&gt;Node19_1</title>
<path fill="none" stroke="black" d="M1354.29,-389.78C1365.98,-398.44 1379.52,-408.3 1392,-417 1400.86,-423.18 1410.71,-429.76 1419.48,-435.52"/>
<polygon fill="black" stroke="black" points="1356.27,-386.88 1346.15,-383.73 1352.09,-392.5 1356.27,-386.88"/>
<text text-anchor="middle" x="1456.5" y="-405.8" font-family="Times,serif" font-size="14.00">पूर्वकालः</text>
</g>
<!-- Node13_1 -->
<g id="node25" class="node">
<title>Node13_1</title>
<ellipse fill="#ff99ff" stroke="#ff99ff" cx="804" cy="-279" rx="47.39" ry="18"/>
<text text-anchor="middle" x="804" y="-275.3" font-family="Times,serif" font-size="14.00">च(13.1)</text>
</g>
<!-- Node13_1&#45;&gt;Node5_1 -->
<g id="edge13" class="edge">
<title>Node13_1&#45;&gt;Node5_1</title>
<path fill="none" stroke="black" d="M797.89,-306.61C794.59,-315.33 789.57,-324.25 782,-330 755.12,-350.41 668.71,-358.96 606.35,-362.51"/>
<polygon fill="black" stroke="black" points="801.24,-307.62 800.93,-297.03 794.57,-305.5 801.24,-307.62"/>
<text text-anchor="middle" x="851.5" y="-318.8" font-family="Times,serif" font-size="14.00">सम्बन्धः</text>
</g>
<!-- Node16_1 -->
<g id="node26" class="node">
<title>Node16_1</title>
<ellipse fill="#ffff00" stroke="#ffff00" cx="1100" cy="-18" rx="96.68" ry="18"/>
<text text-anchor="middle" x="1100" y="-14.3" font-family="Times,serif" font-size="14.00">सुवर्ण&#45;(16.1)</text>
</g>
<!-- Node16_2 -->
<g id="node27" class="node">
<title>Node16_2</title>
<ellipse fill="#ffff00" stroke="#ffff00" cx="1100" cy="-105" rx="68.79" ry="18"/>
<text text-anchor="middle" x="1100" y="-101.3" font-family="Times,serif" font-size="14.00">कलश&#45;(16.2)</text>
</g>
<!-- Node16_1&#45;&gt;Node16_2 -->
<g id="edge16" class="edge">
<title>Node16_1&#45;&gt;Node16_2</title>
<path fill="none" stroke="black" d="M1100,-46.27C1100,-59.58 1100,-75.19 1100,-86.82"/>
<polygon fill="black" stroke="black" points="1103.5,-46.2 1100,-36.2 1096.5,-46.2 1103.5,-46.2"/>
<text text-anchor="middle" x="1203.5" y="-57.8" font-family="Times,serif" font-size="14.00">षष्ठी_तत्पुरुषः</text>
</g>
<!-- Node16_2&#45;&gt;Node16_3 -->
<g id="edge17" class="edge">
<title>Node16_2&#45;&gt;Node16_3</title>
<path fill="none" stroke="black" d="M1100,-133.27C1100,-146.58 1100,-162.19 1100,-173.82"/>
<polygon fill="black" stroke="black" points="1103.5,-133.2 1100,-123.2 1096.5,-133.2 1103.5,-133.2"/>
<text text-anchor="middle" x="1164.5" y="-144.8" font-family="Times,serif" font-size="14.00">कर्मधारयः</text>
</g>
<!-- Node20_1 -->
<g id="node29" class="node">
<title>Node20_1</title>
<ellipse fill="#ffff00" stroke="#ffff00" cx="1566" cy="-105" rx="96.68" ry="18"/>
<text text-anchor="middle" x="1566" y="-101.3" font-family="Times,serif" font-size="14.00">निद्रा&#45;(20.1)</text>
</g>
<!-- Node20_2 -->
<g id="node30" class="node">
<title>Node20_2</title>
<ellipse fill="#93db70" stroke="#93db70" cx="1566" cy="-192" rx="75.29" ry="18"/>
<text text-anchor="middle" x="1566" y="-188.3" font-family="Times,serif" font-size="14.00">बलम्(20.2)</text>
</g>
<!-- Node20_1&#45;&gt;Node20_2 -->
<g id="edge21" class="edge">
<title>Node20_1&#45;&gt;Node20_2</title>
<path fill="none" stroke="black" d="M1566,-133.27C1566,-146.58 1566,-162.19 1566,-173.82"/>
<polygon fill="black" stroke="black" points="1569.5,-133.2 1566,-123.2 1562.5,-133.2 1569.5,-133.2"/>
<text text-anchor="middle" x="1669.5" y="-144.8" font-family="Times,serif" font-size="14.00">षष्ठी_तत्पुरुषः</text>
</g>
<!-- Node20_2&#45;&gt;Node21_1 -->
<g id="edge22" class="edge">
<title>Node20_2&#45;&gt;Node21_1</title>
<path fill="none" stroke="black" d="M1566,-220.27C1566,-233.58 1566,-249.19 1566,-260.82"/>
<polygon fill="black" stroke="black" points="1569.5,-220.2 1566,-210.2 1562.5,-220.2 1569.5,-220.2"/>
<text text-anchor="middle" x="1595" y="-231.8" font-family="Times,serif" font-size="14.00">कर्म</text>
</g>
<!-- Node23_1 -->
<g id="node32" class="node">
<title>Node23_1</title>
<ellipse fill="#ffff00" stroke="#ffff00" cx="2462" cy="-18" rx="68.79" ry="18"/>
<text text-anchor="middle" x="2462" y="-14.3" font-family="Times,serif" font-size="14.00">कमल&#45;(23.1)</text>
</g>
<!-- Node23_2 -->
<g id="node33" class="node">
<title>Node23_2</title>
<ellipse fill="#ffff00" stroke="#ffff00" cx="2462" cy="-105" rx="77.99" ry="18"/>
<text text-anchor="middle" x="2462" y="-101.3" font-family="Times,serif" font-size="14.00">पत्र&#45;(23.2)</text>
</g>
<!-- Node23_1&#45;&gt;Node23_2 -->
<g id="edge25" class="edge">
<title>Node23_1&#45;&gt;Node23_2</title>
<path fill="none" stroke="black" d="M2462,-46.27C2462,-59.58 2462,-75.19 2462,-86.82"/>
<polygon fill="black" stroke="black" points="2465.5,-46.2 2462,-36.2 2458.5,-46.2 2465.5,-46.2"/>
<text text-anchor="middle" x="2565.5" y="-57.8" font-family="Times,serif" font-size="14.00">षष्ठी_तत्पुरुषः</text>
</g>
<!-- Node23_2&#45;&gt;Node23_3 -->
<g id="edge26" class="edge">
<title>Node23_2&#45;&gt;Node23_3</title>
<path fill="none" stroke="black" d="M2477.76,-131.75C2486.16,-145.49 2496.27,-162.01 2503.67,-174.11"/>
<polygon fill="black" stroke="black" points="2480.73,-129.9 2472.52,-123.2 2474.76,-133.56 2480.73,-129.9"/>
<text text-anchor="middle" x="2562.5" y="-144.8" font-family="Times,serif" font-size="14.00">बहुव्रीहिः</text>
</g>
<!-- Node24_1 -->
<g id="node34" class="node">
<title>Node24_1</title>
<ellipse fill="#ffff00" stroke="#ffff00" cx="2692" cy="-105" rx="133.78" ry="18"/>
<text text-anchor="middle" x="2692" y="-101.3" font-family="Times,serif" font-size="14.00">पूर्णेन्दु&#45;(24.1)</text>
</g>
<!-- Node24_1&#45;&gt;Node24_3 -->
<g id="edge28" class="edge">
<title>Node24_1&#45;&gt;Node24_3</title>
<path fill="none" stroke="black" d="M2692,-133.27C2692,-146.58 2692,-162.19 2692,-173.82"/>
<polygon fill="black" stroke="black" points="2695.5,-133.2 2692,-123.2 2688.5,-133.2 2695.5,-133.2"/>
<text text-anchor="middle" x="2763.5" y="-144.8" font-family="Times,serif" font-size="14.00">बहुव्रीहिः</text>
</g>
<!-- Node24_2 -->
<g id="node35" class="node">
<title>Node24_2</title>
<ellipse fill="#ffff00" stroke="#ffff00" cx="2922" cy="-105" rx="77.99" ry="18"/>
<text text-anchor="middle" x="2922" y="-101.3" font-family="Times,serif" font-size="14.00">सदृश&#45;(24.2)</text>
</g>
<!-- Node24_2&#45;&gt;Node24_3 -->
<g id="edge29" class="edge">
<title>Node24_2&#45;&gt;Node24_3</title>
<path fill="none" stroke="black" d="M2890.96,-127.83C2875.86,-137.62 2857.09,-148.61 2839,-156 2811.32,-167.31 2779.14,-175.49 2751.96,-181.08"/>
<polygon fill="black" stroke="black" points="2893,-130.68 2899.4,-122.24 2889.13,-124.85 2893,-130.68"/>
<text text-anchor="middle" x="2938.5" y="-144.8" font-family="Times,serif" font-size="14.00">बहुव्रीहिः</text>
</g>
<!-- Node26_1&#45;&gt;Node29_1 -->
<g id="edge32" class="edge">
<title>Node26_1&#45;&gt;Node29_1</title>
<path fill="none" stroke="black" d="M2025.81,-302.61C2039.94,-312.15 2057.24,-322.7 2074,-330 2096.11,-339.63 2121.47,-347.11 2144.09,-352.64"/>
<polygon fill="black" stroke="black" points="2027.68,-299.65 2017.46,-296.85 2023.7,-305.41 2027.68,-299.65"/>
<text text-anchor="middle" x="2138.5" y="-318.8" font-family="Times,serif" font-size="14.00">पूर्वकालः</text>
</g>
<!-- Node28_1 -->
<g id="node37" class="node">
<title>Node28_1</title>
<ellipse fill="#ffff00" stroke="#ffff00" cx="2207" cy="-192" rx="96.68" ry="18"/>
<text text-anchor="middle" x="2207" y="-188.3" font-family="Times,serif" font-size="14.00">निद्रा&#45;(28.1)</text>
</g>
<!-- Node28_2 -->
<g id="node38" class="node">
<title>Node28_2</title>
<ellipse fill="#93db70" stroke="#93db70" cx="2207" cy="-279" rx="75.29" ry="18"/>
<text text-anchor="middle" x="2207" y="-275.3" font-family="Times,serif" font-size="14.00">वशम्(28.2)</text>
</g>
<!-- Node28_1&#45;&gt;Node28_2 -->
<g id="edge34" class="edge">
<title>Node28_1&#45;&gt;Node28_2</title>
<path fill="none" stroke="black" d="M2207,-220.27C2207,-233.58 2207,-249.19 2207,-260.82"/>
<polygon fill="black" stroke="black" points="2210.5,-220.2 2207,-210.2 2203.5,-220.2 2210.5,-220.2"/>
<text text-anchor="middle" x="2310.5" y="-231.8" font-family="Times,serif" font-size="14.00">षष्ठी_तत्पुरुषः</text>
</g>
<!-- Node28_2&#45;&gt;Node29_1 -->
<g id="edge35" class="edge">
<title>Node28_2&#45;&gt;Node29_1</title>
<path fill="none" stroke="black" d="M2207,-307.27C2207,-320.58 2207,-336.19 2207,-347.82"/>
<polygon fill="black" stroke="black" points="2210.5,-307.2 2207,-297.2 2203.5,-307.2 2210.5,-307.2"/>
<text text-anchor="middle" x="2236" y="-318.8" font-family="Times,serif" font-size="14.00">कर्म</text>
</g>
</g>
</svg>
