<svg xmlns="http://www.w3.org/2000/svg" xmlns:xlink="http://www.w3.org/1999/xlink" width="919pt" height="305pt" viewBox="0 0 918.94 305"><g id="graph0" class="graph" transform="scale(1 1) rotate(0) translate(4 301)"><title>G</title><polygon fill="#fffacd" stroke="transparent" points="-4 4 -4 -301 914.94 -301 914.94 4 -4 4"/><g id="clust1" class="cluster"><title>cluster_1</title><polygon fill="#fffacd" stroke="#000" points="643.94 -79 643.94 -218 891.94 -218 891.94 -79 643.94 -79"/></g><g id="node1" class="node"><title>Node2_2</title><ellipse cx="767.94" cy="-105" fill="#00bfff" stroke="#00bfff" rx="115.88" ry="18"/><text x="767.94" y="-101.3" font-family="Times,serif" font-size="14" text-anchor="middle">सर्वाङ्गी(2.2)</text></g><g id="node2" class="node"><title>Node5_1</title><ellipse cx="758.94" cy="-192" fill="#00bfff" stroke="#00bfff" rx="106.68" ry="18"/><text x="758.94" y="-188.3" font-family="Times,serif" font-size="14" text-anchor="middle">शुभस्तनी(5.1)</text></g><g id="edge3" class="edge"><title>Node2_2-&gt;Node5_1</title><path fill="none" stroke="#000" d="M765.05,-133.27C763.64,-146.58 761.99,-162.19 760.76,-173.82"/><polygon fill="#000" stroke="#000" points="768.54 -133.51 766.12 -123.2 761.58 -132.78 768.54 -133.51"/><text x="821.44" y="-144.8" font-family="Times,serif" font-size="14" text-anchor="middle">विशेषणम्</text></g><g id="node6" class="node"><title>Node4_1</title><ellipse cx="346.94" cy="-279" fill="#ff1975" stroke="#ff1975" rx="69.59" ry="18"/><text x="346.94" y="-275.3" font-family="Times,serif" font-size="14" text-anchor="middle">शेते(4.1)</text></g><g id="edge5" class="edge"><title>Node5_1-&gt;Node4_1</title><path fill="none" stroke="#000" d="M684.07,-208.45C601.81,-225.42 471.79,-252.24 399.62,-267.13"/><polygon fill="#000" stroke="#000" points="685.02 -211.82 694.11 -206.37 683.61 -204.97 685.02 -211.82"/><text x="613.94" y="-231.8" font-family="Times,serif" font-size="14" text-anchor="middle">कर्ता</text></g><g id="node3" class="node"><title>Node1_1</title><ellipse cx="125.94" cy="-105" fill="#93db70" stroke="#93db70" rx="78.79" ry="18"/><text x="125.94" y="-101.3" font-family="Times,serif" font-size="14" text-anchor="middle">पटहम्(1.1)</text></g><g id="node4" class="node"><title>Node3_1</title><ellipse cx="125.94" cy="-192" fill="#f9f" stroke="#f9f" rx="87.99" ry="18"/><text x="125.94" y="-188.3" font-family="Times,serif" font-size="14" text-anchor="middle">न्यस्य(3.1)</text></g><g id="edge1" class="edge"><title>Node1_1-&gt;Node3_1</title><path fill="none" stroke="#000" d="M125.94,-133.27C125.94,-146.58 125.94,-162.19 125.94,-173.82"/><polygon fill="#000" stroke="#000" points="129.44 -133.2 125.94 -123.2 122.44 -133.2 129.44 -133.2"/><text x="154.94" y="-144.8" font-family="Times,serif" font-size="14" text-anchor="middle">कर्म</text></g><g id="edge4" class="edge"><title>Node3_1-&gt;Node4_1</title><path fill="none" stroke="#000" d="M159.79,-214.97C175.73,-224.6 195.3,-235.4 213.94,-243 239.48,-253.41 269.04,-261.55 293.8,-267.35"/><polygon fill="#000" stroke="#000" points="161.21 -211.74 150.85 -209.48 157.54 -217.7 161.21 -211.74"/><text x="278.44" y="-231.8" font-family="Times,serif" font-size="14" text-anchor="middle">पूर्वकालः</text></g><g id="node5" class="node"><title>Node2_1</title><ellipse cx="767.94" cy="-18" fill="#ff0" stroke="#ff0" rx="72.29" ry="18"/><text x="767.94" y="-14.3" font-family="Times,serif" font-size="14" text-anchor="middle">चारु-(2.1)</text></g><g id="edge2" class="edge"><title>Node2_1-&gt;Node2_2</title><path fill="none" stroke="#000" d="M767.94,-46.27C767.94,-59.58 767.94,-75.19 767.94,-86.82"/><polygon fill="#000" stroke="#000" points="771.44 -46.2 767.94 -36.2 764.44 -46.2 771.44 -46.2"/><text x="839.44" y="-57.8" font-family="Times,serif" font-size="14" text-anchor="middle">बहुव्रीहिः</text></g><g id="node7" class="node"><title>Node6_1</title><ellipse cx="131.94" cy="-18" fill="#f9f" stroke="#f9f" rx="131.88" ry="18"/><text x="131.94" y="-14.3" font-family="Times,serif" font-size="14" text-anchor="middle">चिरस्य(आर्ष)(6.1)</text></g><g id="node8" class="node"><title>Node8_1</title><ellipse cx="332.94" cy="-105" fill="#f9f" stroke="#f9f" rx="96.68" ry="18"/><text x="332.94" y="-101.3" font-family="Times,serif" font-size="14" text-anchor="middle">लब्ध्वा(8.1)</text></g><g id="edge6" class="edge"><title>Node6_1-&gt;Node8_1</title><path fill="none" stroke="#000" d="M180.35,-39.47C215.78,-54.46 263.15,-74.49 295.66,-88.24"/><polygon fill="#000" stroke="#000" points="181.27 -36.06 170.69 -35.39 178.54 -42.51 181.27 -36.06"/><text x="280.94" y="-57.8" font-family="Times,serif" font-size="14" text-anchor="middle">अवधिः</text></g><g id="node10" class="node"><title>Node9_1</title><ellipse cx="346.94" cy="-192" fill="#f9f" stroke="#f9f" rx="115.88" ry="18"/><text x="346.94" y="-188.3" font-family="Times,serif" font-size="14" text-anchor="middle">परिष्वज्य(9.1)</text></g><g id="edge8" class="edge"><title>Node8_1-&gt;Node9_1</title><path fill="none" stroke="#000" d="M337.43,-133.27C339.62,-146.58 342.19,-162.19 344.11,-173.82"/><polygon fill="#000" stroke="#000" points="340.85 -132.5 335.77 -123.2 333.94 -133.64 340.85 -132.5"/><text x="405.44" y="-144.8" font-family="Times,serif" font-size="14" text-anchor="middle">पूर्वकालः</text></g><g id="node9" class="node"><title>Node7_1</title><ellipse cx="360.94" cy="-18" fill="#93db70" stroke="#93db70" rx="78.79" ry="18"/><text x="360.94" y="-14.3" font-family="Times,serif" font-size="14" text-anchor="middle">रमणम्(7.1)</text></g><g id="edge7" class="edge"><title>Node7_1-&gt;Node8_1</title><path fill="none" stroke="#000" d="M352.09,-45.87C347.67,-59.27 342.47,-75.08 338.6,-86.82"/><polygon fill="#000" stroke="#000" points="355.47 -46.79 355.27 -36.2 348.82 -44.6 355.47 -46.79"/><text x="377.94" y="-57.8" font-family="Times,serif" font-size="14" text-anchor="middle">कर्म</text></g><g id="edge9" class="edge"><title>Node9_1-&gt;Node4_1</title><path fill="none" stroke="#000" d="M346.94,-220.27C346.94,-233.58 346.94,-249.19 346.94,-260.82"/><polygon fill="#000" stroke="#000" points="350.44 -220.2 346.94 -210.2 343.44 -220.2 350.44 -220.2"/><text x="411.44" y="-231.8" font-family="Times,serif" font-size="14" text-anchor="middle">पूर्वकालः</text></g><g id="node11" class="node"><title>Node10_1</title><ellipse cx="540.94" cy="-18" fill="#f9f" stroke="#f9f" rx="56.59" ry="18"/><text x="540.94" y="-14.3" font-family="Times,serif" font-size="14" text-anchor="middle">इव(10.1)</text></g><g id="node12" class="node"><title>Node11_1</title><ellipse cx="540.94" cy="-105" fill="#00bfff" stroke="#00bfff" rx="93.68" ry="18"/><text x="540.94" y="-101.3" font-family="Times,serif" font-size="14" text-anchor="middle">कामिनी(11.1)</text></g><g id="edge10" class="edge"><title>Node10_1-&gt;Node11_1</title><path fill="none" stroke="#000" d="M540.94,-46.27C540.94,-59.58 540.94,-75.19 540.94,-86.82"/><polygon fill="#000" stroke="#000" points="544.44 -46.2 540.94 -36.2 537.44 -46.2 544.44 -46.2"/><text x="629.94" y="-57.8" font-family="Times,serif" font-size="14" text-anchor="middle">उपमान_द्योतकः</text></g><g id="edge11" class="edge"><title>Node11_1-&gt;Node5_1</title><path fill="none" stroke="#000" d="M585.31,-125.83C607.05,-135.33 633.71,-146.64 657.94,-156 675.68,-162.86 695.41,-169.83 712.68,-175.73"/><polygon fill="#000" stroke="#000" points="586.56 -122.56 576 -121.75 583.75 -128.97 586.56 -122.56"/><text x="707.94" y="-144.8" font-family="Times,serif" font-size="14" text-anchor="middle">उपमानम्</text></g></g></svg>