<?xml version="1.0" encoding="UTF-8" standalone="no"?>
<!DOCTYPE svg PUBLIC "-//W3C//DTD SVG 1.1//EN"
 "http://www.w3.org/Graphics/SVG/1.1/DTD/svg11.dtd">
<!-- Generated by graphviz version 2.43.0 (0)
 -->
<!-- Title: G Pages: 1 -->
<svg width="952pt" height="392pt"
 viewBox="0.00 0.00 951.95 392.00" xmlns="http://www.w3.org/2000/svg" xmlns:xlink="http://www.w3.org/1999/xlink">
<g id="graph0" class="graph" transform="scale(1 1) rotate(0) translate(4 388)">
<title>G</title>
<polygon fill="#fffacd" stroke="transparent" points="-4,4 -4,-388 947.95,-388 947.95,4 -4,4"/>
<g id="clust1" class="cluster">
<title>cluster_1</title>
<polygon fill="#fffacd" stroke="black" points="359.95,-79 359.95,-218 625.95,-218 625.95,-79 359.95,-79"/>
</g>
<g id="clust2" class="cluster">
<title>cluster_2</title>
<polygon fill="#fffacd" stroke="black" points="30.95,-166 30.95,-305 260.95,-305 260.95,-166 30.95,-166"/>
</g>
<!-- Node2_1 -->
<g id="node1" class="node">
<title>Node2_1</title>
<ellipse fill="#93db70" stroke="#93db70" cx="492.95" cy="-105" rx="124.58" ry="18"/>
<text text-anchor="middle" x="492.95" y="-101.3" font-family="Times,serif" font-size="14.00">विचित्राणि(2.1)</text>
</g>
<!-- Node1_1 -->
<g id="node2" class="node">
<title>Node1_1</title>
<ellipse fill="#93db70" stroke="#93db70" cx="483.95" cy="-192" rx="115.88" ry="18"/>
<text text-anchor="middle" x="483.95" y="-188.3" font-family="Times,serif" font-size="14.00">आतोद्यानि(1.1)</text>
</g>
<!-- Node2_1&#45;&gt;Node1_1 -->
<g id="edge2" class="edge">
<title>Node2_1&#45;&gt;Node1_1</title>
<path fill="none" stroke="black" d="M490.06,-133.27C488.65,-146.58 487,-162.19 485.76,-173.82"/>
<polygon fill="black" stroke="black" points="493.55,-133.51 491.12,-123.2 486.59,-132.78 493.55,-133.51"/>
<text text-anchor="middle" x="546.45" y="-144.8" font-family="Times,serif" font-size="14.00">विशेषणम्</text>
</g>
<!-- Node3_1 -->
<g id="node5" class="node">
<title>Node3_1</title>
<ellipse fill="#ff99ff" stroke="#ff99ff" cx="482.95" cy="-279" rx="115.88" ry="18"/>
<text text-anchor="middle" x="482.95" y="-275.3" font-family="Times,serif" font-size="14.00">परिष्वज्य(3.1)</text>
</g>
<!-- Node1_1&#45;&gt;Node3_1 -->
<g id="edge1" class="edge">
<title>Node1_1&#45;&gt;Node3_1</title>
<path fill="none" stroke="black" d="M483.62,-220.27C483.47,-233.58 483.28,-249.19 483.15,-260.82"/>
<polygon fill="black" stroke="black" points="487.12,-220.24 483.74,-210.2 480.13,-220.16 487.12,-220.24"/>
<text text-anchor="middle" x="511.95" y="-231.8" font-family="Times,serif" font-size="14.00">कर्म</text>
</g>
<!-- Node4_2 -->
<g id="node3" class="node">
<title>Node4_2</title>
<ellipse fill="#00bfff" stroke="#00bfff" cx="145.95" cy="-192" rx="106.68" ry="18"/>
<text text-anchor="middle" x="145.95" y="-188.3" font-family="Times,serif" font-size="14.00">स्त्रियः(4.2)</text>
</g>
<!-- Node9_1 -->
<g id="node4" class="node">
<title>Node9_1</title>
<ellipse fill="#00bfff" stroke="#00bfff" cx="145.95" cy="-279" rx="106.68" ry="18"/>
<text text-anchor="middle" x="145.95" y="-275.3" font-family="Times,serif" font-size="14.00">कामिन्यः(9.1)</text>
</g>
<!-- Node4_2&#45;&gt;Node9_1 -->
<g id="edge5" class="edge">
<title>Node4_2&#45;&gt;Node9_1</title>
<path fill="none" stroke="black" d="M145.95,-220.27C145.95,-233.58 145.95,-249.19 145.95,-260.82"/>
<polygon fill="black" stroke="black" points="149.45,-220.2 145.95,-210.2 142.45,-220.2 149.45,-220.2"/>
<text text-anchor="middle" x="203.45" y="-231.8" font-family="Times,serif" font-size="14.00">विशेषणम्</text>
</g>
<!-- Node8_1 -->
<g id="node6" class="node">
<title>Node8_1</title>
<ellipse fill="#00bfff" stroke="#00bfff" cx="617.95" cy="-366" rx="96.68" ry="18"/>
<text text-anchor="middle" x="617.95" y="-362.3" font-family="Times,serif" font-size="14.00">सुप्ताः(8.1)</text>
</g>
<!-- Node9_1&#45;&gt;Node8_1 -->
<g id="edge9" class="edge">
<title>Node9_1&#45;&gt;Node8_1</title>
<path fill="none" stroke="black" d="M226.13,-294.44C317.53,-310.9 465.3,-337.51 550.85,-352.92"/>
<polygon fill="black" stroke="black" points="226.56,-290.96 216.1,-292.63 225.32,-297.85 226.56,-290.96"/>
<text text-anchor="middle" x="445.95" y="-318.8" font-family="Times,serif" font-size="14.00">कर्ता</text>
</g>
<!-- Node3_1&#45;&gt;Node8_1 -->
<g id="edge3" class="edge">
<title>Node3_1&#45;&gt;Node8_1</title>
<path fill="none" stroke="black" d="M501.14,-305.31C508.39,-314.04 517.31,-323.29 526.95,-330 539.17,-338.51 553.74,-345.31 567.61,-350.56"/>
<polygon fill="black" stroke="black" points="503.68,-302.88 494.74,-297.21 498.19,-307.23 503.68,-302.88"/>
<text text-anchor="middle" x="591.45" y="-318.8" font-family="Times,serif" font-size="14.00">पूर्वकालः</text>
</g>
<!-- Node4_1 -->
<g id="node7" class="node">
<title>Node4_1</title>
<ellipse fill="#ffff00" stroke="#ffff00" cx="53.95" cy="-105" rx="53.89" ry="18"/>
<text text-anchor="middle" x="53.95" y="-101.3" font-family="Times,serif" font-size="14.00">वर&#45;(4.1)</text>
</g>
<!-- Node4_1&#45;&gt;Node4_2 -->
<g id="edge4" class="edge">
<title>Node4_1&#45;&gt;Node4_2</title>
<path fill="none" stroke="black" d="M79.29,-129.42C94.61,-143.57 113.79,-161.29 127.63,-174.08"/>
<polygon fill="black" stroke="black" points="81.4,-126.6 71.68,-122.39 76.65,-131.75 81.4,-126.6"/>
<text text-anchor="middle" x="170.45" y="-144.8" font-family="Times,serif" font-size="14.00">कर्मधारयः</text>
</g>
<!-- Node5_1 -->
<g id="node8" class="node">
<title>Node5_1</title>
<ellipse fill="#ff99ff" stroke="#ff99ff" cx="713.95" cy="-279" rx="96.68" ry="18"/>
<text text-anchor="middle" x="713.95" y="-275.3" font-family="Times,serif" font-size="14.00">निपीड्य(5.1)</text>
</g>
<!-- Node5_1&#45;&gt;Node8_1 -->
<g id="edge6" class="edge">
<title>Node5_1&#45;&gt;Node8_1</title>
<path fill="none" stroke="black" d="M687.47,-303.44C671.42,-317.65 651.33,-335.44 636.87,-348.24"/>
<polygon fill="black" stroke="black" points="689.81,-306.04 694.98,-296.79 685.17,-300.8 689.81,-306.04"/>
<text text-anchor="middle" x="735.45" y="-318.8" font-family="Times,serif" font-size="14.00">पूर्वकालः</text>
</g>
<!-- Node6_1 -->
<g id="node9" class="node">
<title>Node6_1</title>
<ellipse fill="#ff99ff" stroke="#ff99ff" cx="869.95" cy="-279" rx="41.69" ry="18"/>
<text text-anchor="middle" x="869.95" y="-275.3" font-family="Times,serif" font-size="14.00">च(6.1)</text>
</g>
<!-- Node6_1&#45;&gt;Node8_1 -->
<g id="edge7" class="edge">
<title>Node6_1&#45;&gt;Node8_1</title>
<path fill="none" stroke="black" d="M846.05,-302.4C834.22,-312.31 819.22,-323.23 803.95,-330 772.55,-343.91 735.8,-352.3 703.29,-357.35"/>
<polygon fill="black" stroke="black" points="848.45,-304.95 853.7,-295.76 843.86,-299.67 848.45,-304.95"/>
<text text-anchor="middle" x="886.45" y="-318.8" font-family="Times,serif" font-size="14.00">सम्बन्धः</text>
</g>
<!-- Node7_1 -->
<g id="node10" class="node">
<title>Node7_1</title>
<ellipse fill="#40e0d0" stroke="#40e0d0" cx="713.95" cy="-192" rx="78.79" ry="18"/>
<text text-anchor="middle" x="713.95" y="-188.3" font-family="Times,serif" font-size="14.00">कुचैः(7.1)</text>
</g>
<!-- Node7_1&#45;&gt;Node5_1 -->
<g id="edge8" class="edge">
<title>Node7_1&#45;&gt;Node5_1</title>
<path fill="none" stroke="black" d="M713.95,-220.27C713.95,-233.58 713.95,-249.19 713.95,-260.82"/>
<polygon fill="black" stroke="black" points="717.45,-220.2 713.95,-210.2 710.45,-220.2 717.45,-220.2"/>
<text text-anchor="middle" x="749.95" y="-231.8" font-family="Times,serif" font-size="14.00">करणम्</text>
</g>
<!-- Node10_1 -->
<g id="node11" class="node">
<title>Node10_1</title>
<ellipse fill="#93db70" stroke="#93db70" cx="237.95" cy="-105" rx="112.38" ry="18"/>
<text text-anchor="middle" x="237.95" y="-101.3" font-family="Times,serif" font-size="14.00">कामुकान्(10.1)</text>
</g>
<!-- Node10_1&#45;&gt;Node1_1 -->
<g id="edge10" class="edge">
<title>Node10_1&#45;&gt;Node1_1</title>
<path fill="none" stroke="black" d="M292.72,-124.93C336.63,-140.1 397.52,-161.14 438.7,-175.36"/>
<polygon fill="black" stroke="black" points="293.66,-121.55 283.07,-121.59 291.37,-128.16 293.66,-121.55"/>
<text text-anchor="middle" x="424.95" y="-144.8" font-family="Times,serif" font-size="14.00">उपमानम्</text>
</g>
<!-- Node11_1 -->
<g id="node12" class="node">
<title>Node11_1</title>
<ellipse fill="#ff99ff" stroke="#ff99ff" cx="237.95" cy="-18" rx="56.59" ry="18"/>
<text text-anchor="middle" x="237.95" y="-14.3" font-family="Times,serif" font-size="14.00">इव(11.1)</text>
</g>
<!-- Node11_1&#45;&gt;Node10_1 -->
<g id="edge11" class="edge">
<title>Node11_1&#45;&gt;Node10_1</title>
<path fill="none" stroke="black" d="M237.95,-46.27C237.95,-59.58 237.95,-75.19 237.95,-86.82"/>
<polygon fill="black" stroke="black" points="241.45,-46.2 237.95,-36.2 234.45,-46.2 241.45,-46.2"/>
<text text-anchor="middle" x="326.95" y="-57.8" font-family="Times,serif" font-size="14.00">उपमान_द्योतकः</text>
</g>
</g>
</svg>
