<?xml version="1.0" encoding="UTF-8" standalone="no"?>
<!DOCTYPE svg PUBLIC "-//W3C//DTD SVG 1.1//EN"
 "http://www.w3.org/Graphics/SVG/1.1/DTD/svg11.dtd">
<!-- Generated by graphviz version 2.43.0 (0)
 -->
<!-- Title: G Pages: 1 -->
<svg width="1259pt" height="321pt"
 viewBox="0.00 0.00 1259.14 321.00" xmlns="http://www.w3.org/2000/svg" xmlns:xlink="http://www.w3.org/1999/xlink">
<g id="graph0" class="graph" transform="scale(1 1) rotate(0) translate(4 317)">
<title>G</title>
<polygon fill="#fffacd" stroke="transparent" points="-4,4 -4,-317 1255.14,-317 1255.14,4 -4,4"/>
<g id="clust1" class="cluster">
<title>cluster_1</title>
<polygon fill="#fffacd" stroke="black" points="627.14,-95 627.14,-234 1243.14,-234 1243.14,-95 627.14,-95"/>
</g>
<g id="clust2" class="cluster">
<title>cluster_2</title>
<polygon fill="#fffacd" stroke="black" points="36.14,-95 36.14,-234 266.14,-234 266.14,-95 36.14,-95"/>
</g>
<g id="clust3" class="cluster">
<title>cluster_3</title>
<polygon fill="#fffacd" stroke="black" points="330.14,-8 330.14,-147 534.14,-147 534.14,-8 330.14,-8"/>
</g>
<!-- Node1_1 -->
<g id="node1" class="node">
<title>Node1_1</title>
<ellipse fill="#00bfff" stroke="#00bfff" cx="1156.14" cy="-121" rx="78.79" ry="18"/>
<text text-anchor="middle" x="1156.14" y="-117.3" font-family="Times,serif" font-size="14.00">अन्या(1.1)</text>
</g>
<!-- Node7_1 -->
<g id="node2" class="node">
<title>Node7_1</title>
<ellipse fill="#00bfff" stroke="#00bfff" cx="751.14" cy="-208" rx="87.99" ry="18"/>
<text text-anchor="middle" x="751.14" y="-204.3" font-family="Times,serif" font-size="14.00">भामिनी(7.1)</text>
</g>
<!-- Node1_1&#45;&gt;Node7_1 -->
<g id="edge1" class="edge">
<title>Node1_1&#45;&gt;Node7_1</title>
<path fill="none" stroke="black" d="M1112.7,-141.25C1087.1,-151.85 1053.82,-164.37 1023.14,-172 960.31,-187.63 887.47,-196.53 832.99,-201.44"/>
<polygon fill="black" stroke="black" points="1114.25,-144.4 1122.12,-137.3 1111.54,-137.94 1114.25,-144.4"/>
<text text-anchor="middle" x="1128.64" y="-160.8" font-family="Times,serif" font-size="14.00">विशेषणम्</text>
</g>
<!-- Node8_1 -->
<g id="node11" class="node">
<title>Node8_1</title>
<ellipse fill="#ff1975" stroke="#ff1975" cx="478.14" cy="-295" rx="69.59" ry="18"/>
<text text-anchor="middle" x="478.14" y="-291.3" font-family="Times,serif" font-size="14.00">भाति(8.1)</text>
</g>
<!-- Node7_1&#45;&gt;Node8_1 -->
<g id="edge9" class="edge">
<title>Node7_1&#45;&gt;Node8_1</title>
<path fill="none" stroke="black" d="M695.17,-226.43C643.56,-242.5 568.06,-266 521.08,-280.63"/>
<polygon fill="black" stroke="black" points="696.33,-229.73 704.83,-223.42 694.24,-223.05 696.33,-229.73"/>
<text text-anchor="middle" x="666.14" y="-247.8" font-family="Times,serif" font-size="14.00">कर्ता</text>
</g>
<!-- Node5_2 -->
<g id="node3" class="node">
<title>Node5_2</title>
<ellipse fill="#00bfff" stroke="#00bfff" cx="972.14" cy="-121" rx="87.99" ry="18"/>
<text text-anchor="middle" x="972.14" y="-117.3" font-family="Times,serif" font-size="14.00">ईक्षणा(5.2)</text>
</g>
<!-- Node5_2&#45;&gt;Node7_1 -->
<g id="edge7" class="edge">
<title>Node5_2&#45;&gt;Node7_1</title>
<path fill="none" stroke="black" d="M933.96,-142.64C915.09,-152.33 891.78,-163.58 870.14,-172 848.87,-180.27 824.81,-187.7 803.92,-193.55"/>
<polygon fill="black" stroke="black" points="935.58,-145.74 942.84,-138.02 932.35,-139.53 935.58,-145.74"/>
<text text-anchor="middle" x="961.64" y="-160.8" font-family="Times,serif" font-size="14.00">विशेषणम्</text>
</g>
<!-- Node6_1 -->
<g id="node4" class="node">
<title>Node6_1</title>
<ellipse fill="#00bfff" stroke="#00bfff" cx="751.14" cy="-121" rx="115.88" ry="18"/>
<text text-anchor="middle" x="751.14" y="-117.3" font-family="Times,serif" font-size="14.00">प्रसुप्ता(6.1)</text>
</g>
<!-- Node6_1&#45;&gt;Node7_1 -->
<g id="edge8" class="edge">
<title>Node6_1&#45;&gt;Node7_1</title>
<path fill="none" stroke="black" d="M751.14,-149.27C751.14,-162.58 751.14,-178.19 751.14,-189.82"/>
<polygon fill="black" stroke="black" points="754.64,-149.2 751.14,-139.2 747.64,-149.2 754.64,-149.2"/>
<text text-anchor="middle" x="808.64" y="-160.8" font-family="Times,serif" font-size="14.00">विशेषणम्</text>
</g>
<!-- Node2_2 -->
<g id="node5" class="node">
<title>Node2_2</title>
<ellipse fill="#40e0d0" stroke="#40e0d0" cx="128.14" cy="-121" rx="69.59" ry="18"/>
<text text-anchor="middle" x="128.14" y="-117.3" font-family="Times,serif" font-size="14.00">गतेन(2.2)</text>
</g>
<!-- Node4_1 -->
<g id="node6" class="node">
<title>Node4_1</title>
<ellipse fill="#40e0d0" stroke="#40e0d0" cx="151.14" cy="-208" rx="106.68" ry="18"/>
<text text-anchor="middle" x="151.14" y="-204.3" font-family="Times,serif" font-size="14.00">मड्डुकेन(4.1)</text>
</g>
<!-- Node2_2&#45;&gt;Node4_1 -->
<g id="edge3" class="edge">
<title>Node2_2&#45;&gt;Node4_1</title>
<path fill="none" stroke="black" d="M135.41,-148.87C139.04,-162.27 143.32,-178.08 146.5,-189.82"/>
<polygon fill="black" stroke="black" points="138.79,-147.94 132.8,-139.2 132.03,-149.77 138.79,-147.94"/>
<text text-anchor="middle" x="198.64" y="-160.8" font-family="Times,serif" font-size="14.00">विशेषणम्</text>
</g>
<!-- Node4_1&#45;&gt;Node8_1 -->
<g id="edge5" class="edge">
<title>Node4_1&#45;&gt;Node8_1</title>
<path fill="none" stroke="black" d="M216.51,-225.99C279.89,-242.47 374.52,-267.06 430.91,-281.72"/>
<polygon fill="black" stroke="black" points="217.17,-222.55 206.61,-223.42 215.41,-229.32 217.17,-222.55"/>
<text text-anchor="middle" x="370.14" y="-247.8" font-family="Times,serif" font-size="14.00">करणम्</text>
</g>
<!-- Node11_1 -->
<g id="node7" class="node">
<title>Node11_1</title>
<ellipse fill="#00bfff" stroke="#00bfff" cx="432.14" cy="-34" rx="93.68" ry="18"/>
<text text-anchor="middle" x="432.14" y="-30.3" font-family="Times,serif" font-size="14.00">वत्सला(11.1)</text>
</g>
<!-- Node9_2 -->
<g id="node8" class="node">
<title>Node9_2</title>
<ellipse fill="#00bfff" stroke="#00bfff" cx="438.14" cy="-121" rx="87.99" ry="18"/>
<text text-anchor="middle" x="438.14" y="-117.3" font-family="Times,serif" font-size="14.00">पुत्रा(9.2)</text>
</g>
<!-- Node11_1&#45;&gt;Node9_2 -->
<g id="edge13" class="edge">
<title>Node11_1&#45;&gt;Node9_2</title>
<path fill="none" stroke="black" d="M426.94,-62.15C426.2,-69.58 426.01,-77.62 427.14,-85 428.05,-90.92 429.78,-97.21 431.59,-102.8"/>
<polygon fill="black" stroke="black" points="430.42,-62.56 428.3,-52.18 423.48,-61.62 430.42,-62.56"/>
<text text-anchor="middle" x="484.64" y="-73.8" font-family="Times,serif" font-size="14.00">विशेषणम्</text>
</g>
<!-- Node9_2&#45;&gt;Node7_1 -->
<g id="edge11" class="edge">
<title>Node9_2&#45;&gt;Node7_1</title>
<path fill="none" stroke="black" d="M498.67,-138.44C557.39,-154.38 645.49,-178.31 700.58,-193.27"/>
<polygon fill="black" stroke="black" points="499.35,-134.99 488.78,-135.75 497.51,-141.75 499.35,-134.99"/>
<text text-anchor="middle" x="663.14" y="-160.8" font-family="Times,serif" font-size="14.00">उपमानम्</text>
</g>
<!-- Node2_1 -->
<g id="node9" class="node">
<title>Node2_1</title>
<ellipse fill="#ffff00" stroke="#ffff00" cx="72.14" cy="-34" rx="72.29" ry="18"/>
<text text-anchor="middle" x="72.14" y="-30.3" font-family="Times,serif" font-size="14.00">कक्ष&#45;(2.1)</text>
</g>
<!-- Node2_1&#45;&gt;Node2_2 -->
<g id="edge2" class="edge">
<title>Node2_1&#45;&gt;Node2_2</title>
<path fill="none" stroke="black" d="M70.03,-62.43C70.54,-70.16 72.22,-78.28 76.14,-85 80.87,-93.08 88.29,-99.68 96.06,-104.88"/>
<polygon fill="black" stroke="black" points="73.53,-62.28 69.94,-52.31 66.53,-62.34 73.53,-62.28"/>
<text text-anchor="middle" x="201.14" y="-73.8" font-family="Times,serif" font-size="14.00">द्वितीया_तत्पुरुषः</text>
</g>
<!-- Node3_1 -->
<g id="node10" class="node">
<title>Node3_1</title>
<ellipse fill="#ff99ff" stroke="#ff99ff" cx="931.14" cy="-34" rx="50.89" ry="18"/>
<text text-anchor="middle" x="931.14" y="-30.3" font-family="Times,serif" font-size="14.00">एव(3.1)</text>
</g>
<!-- Node3_1&#45;&gt;Node6_1 -->
<g id="edge4" class="edge">
<title>Node3_1&#45;&gt;Node6_1</title>
<path fill="none" stroke="black" d="M924.53,-61.96C921.21,-70.44 916.31,-79.12 909.14,-85 905.41,-88.06 860.11,-97.93 818.97,-106.41"/>
<polygon fill="black" stroke="black" points="927.92,-62.86 927.75,-52.27 921.28,-60.66 927.92,-62.86"/>
<text text-anchor="middle" x="977.64" y="-73.8" font-family="Times,serif" font-size="14.00">सम्बन्धः</text>
</g>
<!-- Node5_1 -->
<g id="node12" class="node">
<title>Node5_1</title>
<ellipse fill="#ffff00" stroke="#ffff00" cx="1072.14" cy="-34" rx="72.29" ry="18"/>
<text text-anchor="middle" x="1072.14" y="-30.3" font-family="Times,serif" font-size="14.00">असित&#45;(5.1)</text>
</g>
<!-- Node5_1&#45;&gt;Node5_2 -->
<g id="edge6" class="edge">
<title>Node5_1&#45;&gt;Node5_2</title>
<path fill="none" stroke="black" d="M1064.65,-61.53C1061.29,-69.84 1056.58,-78.52 1050.14,-85 1041.46,-93.74 1030.21,-100.5 1018.97,-105.63"/>
<polygon fill="black" stroke="black" points="1067.95,-62.69 1068.02,-52.1 1061.36,-60.34 1067.95,-62.69"/>
<text text-anchor="middle" x="1131.64" y="-73.8" font-family="Times,serif" font-size="14.00">बहुव्रीहिः</text>
</g>
<!-- Node9_1 -->
<g id="node13" class="node">
<title>Node9_1</title>
<ellipse fill="#ffff00" stroke="#ffff00" cx="607.14" cy="-34" rx="63.09" ry="18"/>
<text text-anchor="middle" x="607.14" y="-30.3" font-family="Times,serif" font-size="14.00">बाल&#45;(9.1)</text>
</g>
<!-- Node9_1&#45;&gt;Node9_2 -->
<g id="edge10" class="edge">
<title>Node9_1&#45;&gt;Node9_2</title>
<path fill="none" stroke="black" d="M579.52,-57.71C565.56,-68.88 549.97,-80.83 542.14,-85 525.84,-93.7 506.96,-100.83 489.8,-106.33"/>
<polygon fill="black" stroke="black" points="581.89,-60.29 587.47,-51.29 577.49,-54.84 581.89,-60.29"/>
<text text-anchor="middle" x="634.64" y="-73.8" font-family="Times,serif" font-size="14.00">बहुव्रीहिः</text>
</g>
<!-- Node10_1 -->
<g id="node14" class="node">
<title>Node10_1</title>
<ellipse fill="#ff99ff" stroke="#ff99ff" cx="745.14" cy="-34" rx="56.59" ry="18"/>
<text text-anchor="middle" x="745.14" y="-30.3" font-family="Times,serif" font-size="14.00">इव(10.1)</text>
</g>
<!-- Node10_1&#45;&gt;Node9_2 -->
<g id="edge12" class="edge">
<title>Node10_1&#45;&gt;Node9_2</title>
<path fill="none" stroke="black" d="M731.69,-61.12C725.71,-70.15 717.81,-79.39 708.14,-85 691.69,-94.54 642.01,-92.62 623.14,-95 585.36,-99.77 543.29,-105.43 508.82,-110.16"/>
<polygon fill="black" stroke="black" points="734.84,-62.68 737.02,-52.31 728.85,-59.05 734.84,-62.68"/>
<text text-anchor="middle" x="813.14" y="-73.8" font-family="Times,serif" font-size="14.00">उपमान_द्योतकः</text>
</g>
</g>
</svg>
