<?xml version="1.0" encoding="UTF-8" standalone="no"?>
<!DOCTYPE svg PUBLIC "-//W3C//DTD SVG 1.1//EN"
 "http://www.w3.org/Graphics/SVG/1.1/DTD/svg11.dtd">
<!-- Generated by graphviz version 2.43.0 (0)
 -->
<!-- Title: G Pages: 1 -->
<svg width="874pt" height="408pt"
 viewBox="0.00 0.00 873.79 408.00" xmlns="http://www.w3.org/2000/svg" xmlns:xlink="http://www.w3.org/1999/xlink">
<g id="graph0" class="graph" transform="scale(1 1) rotate(0) translate(4 404)">
<title>G</title>
<polygon fill="#fffacd" stroke="transparent" points="-4,4 -4,-404 869.79,-404 869.79,4 -4,4"/>
<g id="clust1" class="cluster">
<title>cluster_1</title>
<polygon fill="#fffacd" stroke="black" points="607.79,-95 607.79,-234 837.79,-234 837.79,-95 607.79,-95"/>
</g>
<g id="clust2" class="cluster">
<title>cluster_2</title>
<polygon fill="#fffacd" stroke="black" points="45.79,-8 45.79,-147 237.79,-147 237.79,-8 45.79,-8"/>
</g>
<!-- Node6_2 -->
<g id="node1" class="node">
<title>Node6_2</title>
<ellipse fill="#00bfff" stroke="#00bfff" cx="722.79" cy="-121" rx="106.68" ry="18"/>
<text text-anchor="middle" x="722.79" y="-117.3" font-family="Times,serif" font-size="14.00">डिण्डिमा(6.2)</text>
</g>
<!-- Node3_1 -->
<g id="node2" class="node">
<title>Node3_1</title>
<ellipse fill="#00bfff" stroke="#00bfff" cx="704.79" cy="-208" rx="78.79" ry="18"/>
<text text-anchor="middle" x="704.79" y="-204.3" font-family="Times,serif" font-size="14.00">अन्या(3.1)</text>
</g>
<!-- Node6_2&#45;&gt;Node3_1 -->
<g id="edge7" class="edge">
<title>Node6_2&#45;&gt;Node3_1</title>
<path fill="none" stroke="black" d="M717.02,-149.27C714.2,-162.58 710.89,-178.19 708.43,-189.82"/>
<polygon fill="black" stroke="black" points="720.5,-149.71 719.15,-139.2 713.66,-148.26 720.5,-149.71"/>
<text text-anchor="middle" x="772.29" y="-160.8" font-family="Times,serif" font-size="14.00">विशेषणम्</text>
</g>
<!-- Node2_1 -->
<g id="node6" class="node">
<title>Node2_1</title>
<ellipse fill="#ff99ff" stroke="#ff99ff" cx="372.79" cy="-295" rx="106.68" ry="18"/>
<text text-anchor="middle" x="372.79" y="-291.3" font-family="Times,serif" font-size="14.00">परिगृह्य(2.1)</text>
</g>
<!-- Node3_1&#45;&gt;Node2_1 -->
<g id="edge3" class="edge">
<title>Node3_1&#45;&gt;Node2_1</title>
<path fill="none" stroke="black" d="M644.44,-224.45C583.09,-240.16 488.79,-264.3 428.98,-279.62"/>
<polygon fill="black" stroke="black" points="645.55,-227.78 654.37,-221.91 643.82,-221 645.55,-227.78"/>
<text text-anchor="middle" x="593.79" y="-247.8" font-family="Times,serif" font-size="14.00">कर्ता</text>
</g>
<!-- Node8_1 -->
<g id="node3" class="node">
<title>Node8_1</title>
<ellipse fill="#93db70" stroke="#93db70" cx="141.79" cy="-34" rx="87.99" ry="18"/>
<text text-anchor="middle" x="141.79" y="-30.3" font-family="Times,serif" font-size="14.00">तरुणम्(8.1)</text>
</g>
<!-- Node9_1 -->
<g id="node4" class="node">
<title>Node9_1</title>
<ellipse fill="#93db70" stroke="#93db70" cx="141.79" cy="-121" rx="87.99" ry="18"/>
<text text-anchor="middle" x="141.79" y="-117.3" font-family="Times,serif" font-size="14.00">वत्सम्(9.1)</text>
</g>
<!-- Node8_1&#45;&gt;Node9_1 -->
<g id="edge8" class="edge">
<title>Node8_1&#45;&gt;Node9_1</title>
<path fill="none" stroke="black" d="M141.79,-62.27C141.79,-75.58 141.79,-91.19 141.79,-102.82"/>
<polygon fill="black" stroke="black" points="145.29,-62.2 141.79,-52.2 138.29,-62.2 145.29,-62.2"/>
<text text-anchor="middle" x="199.29" y="-73.8" font-family="Times,serif" font-size="14.00">विशेषणम्</text>
</g>
<!-- Node10_1 -->
<g id="node11" class="node">
<title>Node10_1</title>
<ellipse fill="#ff99ff" stroke="#ff99ff" cx="372.79" cy="-208" rx="102.88" ry="18"/>
<text text-anchor="middle" x="372.79" y="-204.3" font-family="Times,serif" font-size="14.00">उपगुह्य(10.1)</text>
</g>
<!-- Node9_1&#45;&gt;Node10_1 -->
<g id="edge9" class="edge">
<title>Node9_1&#45;&gt;Node10_1</title>
<path fill="none" stroke="black" d="M177.58,-143.11C195.26,-152.89 217.18,-164.08 237.79,-172 260.73,-180.82 286.71,-188.14 309.7,-193.78"/>
<polygon fill="black" stroke="black" points="179.18,-140 168.75,-138.15 175.75,-146.1 179.18,-140"/>
<text text-anchor="middle" x="266.79" y="-160.8" font-family="Times,serif" font-size="14.00">कर्म</text>
</g>
<!-- Node1_1 -->
<g id="node5" class="node">
<title>Node1_1</title>
<ellipse fill="#93db70" stroke="#93db70" cx="136.79" cy="-208" rx="115.88" ry="18"/>
<text text-anchor="middle" x="136.79" y="-204.3" font-family="Times,serif" font-size="14.00">डिण्डिमम्(1.1)</text>
</g>
<!-- Node1_1&#45;&gt;Node2_1 -->
<g id="edge1" class="edge">
<title>Node1_1&#45;&gt;Node2_1</title>
<path fill="none" stroke="black" d="M189.89,-228.12C232.01,-243.29 290.15,-264.23 329.49,-278.4"/>
<polygon fill="black" stroke="black" points="190.95,-224.79 180.36,-224.69 188.58,-231.37 190.95,-224.79"/>
<text text-anchor="middle" x="298.79" y="-247.8" font-family="Times,serif" font-size="14.00">कर्म</text>
</g>
<!-- Node7_1 -->
<g id="node7" class="node">
<title>Node7_1</title>
<ellipse fill="#00bfff" stroke="#00bfff" cx="197.79" cy="-382" rx="115.88" ry="18"/>
<text text-anchor="middle" x="197.79" y="-378.3" font-family="Times,serif" font-size="14.00">प्रसुप्ता(7.1)</text>
</g>
<!-- Node2_1&#45;&gt;Node7_1 -->
<g id="edge2" class="edge">
<title>Node2_1&#45;&gt;Node7_1</title>
<path fill="none" stroke="black" d="M350.44,-320.13C340.83,-329.32 329.02,-339.2 316.79,-346 300.51,-355.05 281.65,-361.98 263.81,-367.19"/>
<polygon fill="black" stroke="black" points="353,-322.51 357.63,-312.98 348.07,-317.55 353,-322.51"/>
<text text-anchor="middle" x="401.29" y="-334.8" font-family="Times,serif" font-size="14.00">पूर्वकालः</text>
</g>
<!-- Node4_1 -->
<g id="node8" class="node">
<title>Node4_1</title>
<ellipse fill="#ff99ff" stroke="#ff99ff" cx="59.79" cy="-295" rx="59.59" ry="18"/>
<text text-anchor="middle" x="59.79" y="-291.3" font-family="Times,serif" font-size="14.00">तथा(4.1)</text>
</g>
<!-- Node4_1&#45;&gt;Node7_1 -->
<g id="edge4" class="edge">
<title>Node4_1&#45;&gt;Node7_1</title>
<path fill="none" stroke="black" d="M65.06,-322.9C67.88,-331.28 72.21,-339.9 78.79,-346 89.94,-356.31 103.97,-363.6 118.45,-368.75"/>
<polygon fill="black" stroke="black" points="68.35,-321.7 62.3,-313 61.61,-323.58 68.35,-321.7"/>
<text text-anchor="middle" x="136.29" y="-334.8" font-family="Times,serif" font-size="14.00">सम्बन्धः</text>
</g>
<!-- Node5_1 -->
<g id="node9" class="node">
<title>Node5_1</title>
<ellipse fill="#ff99ff" stroke="#ff99ff" cx="197.79" cy="-295" rx="50.89" ry="18"/>
<text text-anchor="middle" x="197.79" y="-291.3" font-family="Times,serif" font-size="14.00">एव(5.1)</text>
</g>
<!-- Node5_1&#45;&gt;Node7_1 -->
<g id="edge5" class="edge">
<title>Node5_1&#45;&gt;Node7_1</title>
<path fill="none" stroke="black" d="M197.79,-323.27C197.79,-336.58 197.79,-352.19 197.79,-363.82"/>
<polygon fill="black" stroke="black" points="201.29,-323.2 197.79,-313.2 194.29,-323.2 201.29,-323.2"/>
<text text-anchor="middle" x="255.29" y="-334.8" font-family="Times,serif" font-size="14.00">सम्बन्धः</text>
</g>
<!-- Node6_1 -->
<g id="node10" class="node">
<title>Node6_1</title>
<ellipse fill="#ffff00" stroke="#ffff00" cx="722.79" cy="-34" rx="81.49" ry="18"/>
<text text-anchor="middle" x="722.79" y="-30.3" font-family="Times,serif" font-size="14.00">आसक्त&#45;(6.1)</text>
</g>
<!-- Node6_1&#45;&gt;Node6_2 -->
<g id="edge6" class="edge">
<title>Node6_1&#45;&gt;Node6_2</title>
<path fill="none" stroke="black" d="M722.79,-62.27C722.79,-75.58 722.79,-91.19 722.79,-102.82"/>
<polygon fill="black" stroke="black" points="726.29,-62.2 722.79,-52.2 719.29,-62.2 726.29,-62.2"/>
<text text-anchor="middle" x="794.29" y="-73.8" font-family="Times,serif" font-size="14.00">बहुव्रीहिः</text>
</g>
<!-- Node10_1&#45;&gt;Node2_1 -->
<g id="edge10" class="edge">
<title>Node10_1&#45;&gt;Node2_1</title>
<path fill="none" stroke="black" d="M372.79,-236.27C372.79,-249.58 372.79,-265.19 372.79,-276.82"/>
<polygon fill="black" stroke="black" points="376.29,-236.2 372.79,-226.2 369.29,-236.2 376.29,-236.2"/>
<text text-anchor="middle" x="422.79" y="-247.8" font-family="Times,serif" font-size="14.00">उपमानम्</text>
</g>
<!-- Node11_1 -->
<g id="node12" class="node">
<title>Node11_1</title>
<ellipse fill="#ff99ff" stroke="#ff99ff" cx="303.79" cy="-121" rx="56.59" ry="18"/>
<text text-anchor="middle" x="303.79" y="-117.3" font-family="Times,serif" font-size="14.00">इव(11.1)</text>
</g>
<!-- Node11_1&#45;&gt;Node10_1 -->
<g id="edge11" class="edge">
<title>Node11_1&#45;&gt;Node10_1</title>
<path fill="none" stroke="black" d="M299.29,-148.98C299.26,-156.9 300.58,-165.24 304.79,-172 309.99,-180.34 317.87,-186.78 326.44,-191.72"/>
<polygon fill="black" stroke="black" points="302.79,-149.21 300,-138.98 295.8,-148.71 302.79,-149.21"/>
<text text-anchor="middle" x="393.79" y="-160.8" font-family="Times,serif" font-size="14.00">उपमान_द्योतकः</text>
</g>
<!-- Node12_1 -->
<g id="node13" class="node">
<title>Node12_1</title>
<ellipse fill="#00bfff" stroke="#00bfff" cx="504.79" cy="-121" rx="93.68" ry="18"/>
<text text-anchor="middle" x="504.79" y="-117.3" font-family="Times,serif" font-size="14.00">भामिनी(12.1)</text>
</g>
<!-- Node12_1&#45;&gt;Node10_1 -->
<g id="edge12" class="edge">
<title>Node12_1&#45;&gt;Node10_1</title>
<path fill="none" stroke="black" d="M497.72,-148.97C494.38,-157.31 489.59,-165.89 482.79,-172 471.39,-182.25 456.98,-189.5 442.38,-194.62"/>
<polygon fill="black" stroke="black" points="501.05,-150.05 501.01,-139.46 494.43,-147.77 501.05,-150.05"/>
<text text-anchor="middle" x="528.79" y="-160.8" font-family="Times,serif" font-size="14.00">कर्ता</text>
</g>
</g>
</svg>
