<?xml version="1.0" encoding="UTF-8" standalone="no"?>
<!DOCTYPE svg PUBLIC "-//W3C//DTD SVG 1.1//EN"
 "http://www.w3.org/Graphics/SVG/1.1/DTD/svg11.dtd">
<!-- Generated by graphviz version 2.43.0 (0)
 -->
<!-- Title: G Pages: 1 -->
<svg width="1076pt" height="392pt"
 viewBox="0.00 0.00 1076.24 392.00" xmlns="http://www.w3.org/2000/svg" xmlns:xlink="http://www.w3.org/1999/xlink">
<g id="graph0" class="graph" transform="scale(1 1) rotate(0) translate(4 388)">
<title>G</title>
<polygon fill="#fffacd" stroke="transparent" points="-4,4 -4,-388 1072.24,-388 1072.24,4 -4,4"/>
<g id="clust1" class="cluster">
<title>cluster_1</title>
<polygon fill="#fffacd" stroke="black" points="415.24,-166 415.24,-305 875.24,-305 875.24,-166 415.24,-166"/>
</g>
<g id="clust2" class="cluster">
<title>cluster_2</title>
<polygon fill="#fffacd" stroke="black" points="415.24,-79 415.24,-131 663.24,-131 663.24,-79 415.24,-79"/>
</g>
<!-- Node1_3 -->
<g id="node1" class="node">
<title>Node1_3</title>
<ellipse fill="#93db70" stroke="#93db70" cx="770.24" cy="-192" rx="96.68" ry="18"/>
<text text-anchor="middle" x="770.24" y="-188.3" font-family="Times,serif" font-size="14.00">गर्भाणि(1.3)</text>
</g>
<!-- Node7_1 -->
<g id="node2" class="node">
<title>Node7_1</title>
<ellipse fill="#93db70" stroke="#93db70" cx="539.24" cy="-279" rx="106.68" ry="18"/>
<text text-anchor="middle" x="539.24" y="-275.3" font-family="Times,serif" font-size="14.00">अङ्गदानि(7.1)</text>
</g>
<!-- Node1_3&#45;&gt;Node7_1 -->
<g id="edge3" class="edge">
<title>Node1_3&#45;&gt;Node7_1</title>
<path fill="none" stroke="black" d="M733.25,-214.25C715.26,-223.97 693.06,-235.06 672.24,-243 649.82,-251.56 624.51,-258.79 602.03,-264.42"/>
<polygon fill="black" stroke="black" points="735.16,-217.2 742.25,-209.32 731.8,-211.06 735.16,-217.2"/>
<text text-anchor="middle" x="762.74" y="-231.8" font-family="Times,serif" font-size="14.00">विशेषणम्</text>
</g>
<!-- Node4_1 -->
<g id="node9" class="node">
<title>Node4_1</title>
<ellipse fill="#ff1975" stroke="#ff1975" cx="319.24" cy="-366" rx="78.79" ry="18"/>
<text text-anchor="middle" x="319.24" y="-362.3" font-family="Times,serif" font-size="14.00">ददर्श(4.1)</text>
</g>
<!-- Node7_1&#45;&gt;Node4_1 -->
<g id="edge9" class="edge">
<title>Node7_1&#45;&gt;Node4_1</title>
<path fill="none" stroke="black" d="M489.07,-299.39C449.06,-314.84 393.87,-336.17 357.41,-350.26"/>
<polygon fill="black" stroke="black" points="490.57,-302.56 498.64,-295.69 488.05,-296.03 490.57,-302.56"/>
<text text-anchor="middle" x="471.24" y="-318.8" font-family="Times,serif" font-size="14.00">कर्म</text>
</g>
<!-- Node6_1 -->
<g id="node3" class="node">
<title>Node6_1</title>
<ellipse fill="#93db70" stroke="#93db70" cx="539.24" cy="-192" rx="115.88" ry="18"/>
<text text-anchor="middle" x="539.24" y="-188.3" font-family="Times,serif" font-size="14.00">कुण्डलानि(6.1)</text>
</g>
<!-- Node6_1&#45;&gt;Node7_1 -->
<g id="edge8" class="edge">
<title>Node6_1&#45;&gt;Node7_1</title>
<path fill="none" stroke="black" d="M539.24,-220.27C539.24,-233.58 539.24,-249.19 539.24,-260.82"/>
<polygon fill="black" stroke="black" points="542.74,-220.2 539.24,-210.2 535.74,-220.2 542.74,-220.2"/>
<text text-anchor="middle" x="603.74" y="-231.8" font-family="Times,serif" font-size="14.00">समुच्चितः</text>
</g>
<!-- Node5_1 -->
<g id="node4" class="node">
<title>Node5_1</title>
<ellipse fill="#93db70" stroke="#93db70" cx="539.24" cy="-105" rx="115.88" ry="18"/>
<text text-anchor="middle" x="539.24" y="-101.3" font-family="Times,serif" font-size="14.00">तापनीयानि(5.1)</text>
</g>
<!-- Node5_1&#45;&gt;Node6_1 -->
<g id="edge7" class="edge">
<title>Node5_1&#45;&gt;Node6_1</title>
<path fill="none" stroke="black" d="M539.24,-133.27C539.24,-146.58 539.24,-162.19 539.24,-173.82"/>
<polygon fill="black" stroke="black" points="542.74,-133.2 539.24,-123.2 535.74,-133.2 542.74,-133.2"/>
<text text-anchor="middle" x="596.74" y="-144.8" font-family="Times,serif" font-size="14.00">विशेषणम्</text>
</g>
<!-- Node1_1 -->
<g id="node5" class="node">
<title>Node1_1</title>
<ellipse fill="#ffff00" stroke="#ffff00" cx="773.24" cy="-18" rx="72.29" ry="18"/>
<text text-anchor="middle" x="773.24" y="-14.3" font-family="Times,serif" font-size="14.00">वज्र&#45;(1.1)</text>
</g>
<!-- Node1_2 -->
<g id="node6" class="node">
<title>Node1_2</title>
<ellipse fill="#ffff00" stroke="#ffff00" cx="773.24" cy="-105" rx="100.18" ry="18"/>
<text text-anchor="middle" x="773.24" y="-101.3" font-family="Times,serif" font-size="14.00">वैदूर्य&#45;(1.2)</text>
</g>
<!-- Node1_1&#45;&gt;Node1_2 -->
<g id="edge1" class="edge">
<title>Node1_1&#45;&gt;Node1_2</title>
<path fill="none" stroke="black" d="M773.24,-46.27C773.24,-59.58 773.24,-75.19 773.24,-86.82"/>
<polygon fill="black" stroke="black" points="776.74,-46.2 773.24,-36.2 769.74,-46.2 776.74,-46.2"/>
<text text-anchor="middle" x="837.74" y="-57.8" font-family="Times,serif" font-size="14.00">द्वन्द्वः</text>
</g>
<!-- Node1_2&#45;&gt;Node1_3 -->
<g id="edge2" class="edge">
<title>Node1_2&#45;&gt;Node1_3</title>
<path fill="none" stroke="black" d="M772.28,-133.27C771.81,-146.58 771.26,-162.19 770.85,-173.82"/>
<polygon fill="black" stroke="black" points="775.78,-133.32 772.64,-123.2 768.79,-133.07 775.78,-133.32"/>
<text text-anchor="middle" x="842.74" y="-144.8" font-family="Times,serif" font-size="14.00">बहुव्रीहिः</text>
</g>
<!-- Node2_1 -->
<g id="node7" class="node">
<title>Node2_1</title>
<ellipse fill="#ffff00" stroke="#ffff00" cx="81.24" cy="-192" rx="81.49" ry="18"/>
<text text-anchor="middle" x="81.24" y="-188.3" font-family="Times,serif" font-size="14.00">श्रवण&#45;(2.1)</text>
</g>
<!-- Node2_2 -->
<g id="node8" class="node">
<title>Node2_2</title>
<ellipse fill="#c6e2eb" stroke="#c6e2eb" cx="117.24" cy="-279" rx="96.68" ry="18"/>
<text text-anchor="middle" x="117.24" y="-275.3" font-family="Times,serif" font-size="14.00">अन्तेषु(2.2)</text>
</g>
<!-- Node2_1&#45;&gt;Node2_2 -->
<g id="edge4" class="edge">
<title>Node2_1&#45;&gt;Node2_2</title>
<path fill="none" stroke="black" d="M78.1,-220.52C78.22,-228.05 79.28,-236.05 82.24,-243 85.14,-249.8 90.04,-255.98 95.27,-261.19"/>
<polygon fill="black" stroke="black" points="81.61,-220.45 78.48,-210.33 74.61,-220.2 81.61,-220.45"/>
<text text-anchor="middle" x="185.74" y="-231.8" font-family="Times,serif" font-size="14.00">षष्ठी_तत्पुरुषः</text>
</g>
<!-- Node2_2&#45;&gt;Node4_1 -->
<g id="edge5" class="edge">
<title>Node2_2&#45;&gt;Node4_1</title>
<path fill="none" stroke="black" d="M149.44,-302.04C164.41,-311.58 182.73,-322.3 200.24,-330 221.24,-339.23 245.36,-346.84 266.37,-352.57"/>
<polygon fill="black" stroke="black" points="151.34,-299.1 141.05,-296.59 147.53,-304.97 151.34,-299.1"/>
<text text-anchor="middle" x="257.74" y="-318.8" font-family="Times,serif" font-size="14.00">अधिकरणम्</text>
</g>
<!-- Node3_1 -->
<g id="node10" class="node">
<title>Node3_1</title>
<ellipse fill="#87ceeb" stroke="#87ceeb" cx="299.24" cy="-192" rx="106.68" ry="18"/>
<text text-anchor="middle" x="299.24" y="-188.3" font-family="Times,serif" font-size="14.00">योषिताम्(3.1)</text>
</g>
<!-- Node3_1&#45;&gt;Node7_1 -->
<g id="edge6" class="edge">
<title>Node3_1&#45;&gt;Node7_1</title>
<path fill="none" stroke="black" d="M318.33,-217.68C326.81,-227 337.53,-236.84 349.24,-243 367.91,-252.81 414.08,-261.43 456.24,-267.66"/>
<polygon fill="black" stroke="black" points="320.94,-215.34 311.76,-210.05 315.64,-219.91 320.94,-215.34"/>
<text text-anchor="middle" x="442.24" y="-231.8" font-family="Times,serif" font-size="14.00">षष्ठीसम्बन्धः</text>
</g>
<!-- Node8_1 -->
<g id="node11" class="node">
<title>Node8_1</title>
<ellipse fill="#ff99ff" stroke="#ff99ff" cx="926.24" cy="-192" rx="41.69" ry="18"/>
<text text-anchor="middle" x="926.24" y="-188.3" font-family="Times,serif" font-size="14.00">च(8.1)</text>
</g>
<!-- Node8_1&#45;&gt;Node7_1 -->
<g id="edge10" class="edge">
<title>Node8_1&#45;&gt;Node7_1</title>
<path fill="none" stroke="black" d="M894.46,-212.02C874.88,-222.84 848.88,-235.67 824.24,-243 765.11,-260.58 696.55,-269.34 641.49,-273.7"/>
<polygon fill="black" stroke="black" points="896.26,-215.02 903.25,-207.05 892.82,-208.92 896.26,-215.02"/>
<text text-anchor="middle" x="964.74" y="-231.8" font-family="Times,serif" font-size="14.00">समुच्चय_द्योतकः</text>
</g>
<!-- Node9_1 -->
<g id="node12" class="node">
<title>Node9_1</title>
<ellipse fill="#00bfff" stroke="#00bfff" cx="319.24" cy="-279" rx="69.59" ry="18"/>
<text text-anchor="middle" x="319.24" y="-275.3" font-family="Times,serif" font-size="14.00">कपिः(9.1)</text>
</g>
<!-- Node9_1&#45;&gt;Node4_1 -->
<g id="edge11" class="edge">
<title>Node9_1&#45;&gt;Node4_1</title>
<path fill="none" stroke="black" d="M319.24,-307.27C319.24,-320.58 319.24,-336.19 319.24,-347.82"/>
<polygon fill="black" stroke="black" points="322.74,-307.2 319.24,-297.2 315.74,-307.2 322.74,-307.2"/>
<text text-anchor="middle" x="355.24" y="-318.8" font-family="Times,serif" font-size="14.00">कर्ता</text>
</g>
</g>
</svg>
