<?xml version="1.0" encoding="UTF-8" standalone="no"?>
<!DOCTYPE svg PUBLIC "-//W3C//DTD SVG 1.1//EN"
 "http://www.w3.org/Graphics/SVG/1.1/DTD/svg11.dtd">
<!-- Generated by graphviz version 2.43.0 (0)
 -->
<!-- Title: G Pages: 1 -->
<svg width="2302pt" height="566pt"
 viewBox="0.00 0.00 2302.00 566.00" xmlns="http://www.w3.org/2000/svg" xmlns:xlink="http://www.w3.org/1999/xlink">
<g id="graph0" class="graph" transform="scale(1 1) rotate(0) translate(4 562)">
<title>G</title>
<polygon fill="#fffacd" stroke="transparent" points="-4,4 -4,-562 2298,-562 2298,4 -4,4"/>
<g id="clust1" class="cluster">
<title>cluster_1</title>
<polygon fill="#fffacd" stroke="black" points="1262,-166 1262,-305 2183,-305 2183,-166 1262,-166"/>
</g>
<g id="clust2" class="cluster">
<title>cluster_2</title>
<polygon fill="#fffacd" stroke="black" points="342,-340 342,-479 1804,-479 1804,-340 342,-340"/>
</g>
<g id="clust3" class="cluster">
<title>cluster_3</title>
<polygon fill="#fffacd" stroke="black" points="8,-340 8,-479 174,-479 174,-340 8,-340"/>
</g>
<!-- Node1_3 -->
<g id="node1" class="node">
<title>Node1_3</title>
<ellipse fill="#40e0d0" stroke="#40e0d0" cx="2087" cy="-192" rx="87.99" ry="18"/>
<text text-anchor="middle" x="2087" y="-188.3" font-family="Times,serif" font-size="14.00">कल्पेन(1.3)</text>
</g>
<!-- Node4_1 -->
<g id="node2" class="node">
<title>Node4_1</title>
<ellipse fill="#40e0d0" stroke="#40e0d0" cx="1662" cy="-279" rx="96.68" ry="18"/>
<text text-anchor="middle" x="1662" y="-275.3" font-family="Times,serif" font-size="14.00">चन्दनेन(4.1)</text>
</g>
<!-- Node1_3&#45;&gt;Node4_1 -->
<g id="edge3" class="edge">
<title>Node1_3&#45;&gt;Node4_1</title>
<path fill="none" stroke="black" d="M2036.33,-211.41C2005.4,-222.03 1964.84,-234.85 1928,-243 1868.42,-256.18 1800.17,-265.04 1747.71,-270.54"/>
<polygon fill="black" stroke="black" points="2037.72,-214.64 2046.02,-208.05 2035.43,-208.02 2037.72,-214.64"/>
<text text-anchor="middle" x="2038.5" y="-231.8" font-family="Times,serif" font-size="14.00">विशेषणम्</text>
</g>
<!-- Node6_1 -->
<g id="node6" class="node">
<title>Node6_1</title>
<ellipse fill="#93db70" stroke="#93db70" cx="1662" cy="-366" rx="133.78" ry="18"/>
<text text-anchor="middle" x="1662" y="-362.3" font-family="Times,serif" font-size="14.00">स्वनुलिप्तौ(6.1)</text>
</g>
<!-- Node4_1&#45;&gt;Node6_1 -->
<g id="edge6" class="edge">
<title>Node4_1&#45;&gt;Node6_1</title>
<path fill="none" stroke="black" d="M1662,-307.27C1662,-320.58 1662,-336.19 1662,-347.82"/>
<polygon fill="black" stroke="black" points="1665.5,-307.2 1662,-297.2 1658.5,-307.2 1665.5,-307.2"/>
<text text-anchor="middle" x="1698" y="-318.8" font-family="Times,serif" font-size="14.00">करणम्</text>
</g>
<!-- Node2_1 -->
<g id="node3" class="node">
<title>Node2_1</title>
<ellipse fill="#40e0d0" stroke="#40e0d0" cx="1884" cy="-192" rx="96.68" ry="18"/>
<text text-anchor="middle" x="1884" y="-188.3" font-family="Times,serif" font-size="14.00">सुशीतेन(2.1)</text>
</g>
<!-- Node2_1&#45;&gt;Node4_1 -->
<g id="edge4" class="edge">
<title>Node2_1&#45;&gt;Node4_1</title>
<path fill="none" stroke="black" d="M1843.64,-213.52C1823.84,-223.15 1799.48,-234.38 1777,-243 1756.83,-250.74 1734.18,-257.94 1714.34,-263.77"/>
<polygon fill="black" stroke="black" points="1845.24,-216.63 1852.67,-209.08 1842.15,-210.34 1845.24,-216.63"/>
<text text-anchor="middle" x="1866.5" y="-231.8" font-family="Times,serif" font-size="14.00">विशेषणम्</text>
</g>
<!-- Node3_1 -->
<g id="node4" class="node">
<title>Node3_1</title>
<ellipse fill="#40e0d0" stroke="#40e0d0" cx="1653" cy="-192" rx="115.88" ry="18"/>
<text text-anchor="middle" x="1653" y="-188.3" font-family="Times,serif" font-size="14.00">सुगन्धिना(3.1)</text>
</g>
<!-- Node3_1&#45;&gt;Node4_1 -->
<g id="edge5" class="edge">
<title>Node3_1&#45;&gt;Node4_1</title>
<path fill="none" stroke="black" d="M1655.89,-220.27C1657.3,-233.58 1658.95,-249.19 1660.18,-260.82"/>
<polygon fill="black" stroke="black" points="1659.35,-219.78 1654.82,-210.2 1652.39,-220.51 1659.35,-219.78"/>
<text text-anchor="middle" x="1715.5" y="-231.8" font-family="Times,serif" font-size="14.00">विशेषणम्</text>
</g>
<!-- Node5_1 -->
<g id="node5" class="node">
<title>Node5_1</title>
<ellipse fill="#40e0d0" stroke="#40e0d0" cx="1395" cy="-192" rx="124.58" ry="18"/>
<text text-anchor="middle" x="1395" y="-188.3" font-family="Times,serif" font-size="14.00">परार्घ्येन(5.1)</text>
</g>
<!-- Node5_1&#45;&gt;Node4_1 -->
<g id="edge7" class="edge">
<title>Node5_1&#45;&gt;Node4_1</title>
<path fill="none" stroke="black" d="M1447.47,-212.4C1474.14,-222.02 1507.14,-233.57 1537,-243 1560.42,-250.39 1586.56,-257.84 1608.86,-263.95"/>
<polygon fill="black" stroke="black" points="1448.54,-209.06 1437.94,-208.95 1446.15,-215.64 1448.54,-209.06"/>
<text text-anchor="middle" x="1594.5" y="-231.8" font-family="Times,serif" font-size="14.00">विशेषणम्</text>
</g>
<!-- Node15_1 -->
<g id="node7" class="node">
<title>Node15_1</title>
<ellipse fill="#93db70" stroke="#93db70" cx="797" cy="-453" rx="75.29" ry="18"/>
<text text-anchor="middle" x="797" y="-449.3" font-family="Times,serif" font-size="14.00">बाहू(15.1)</text>
</g>
<!-- Node6_1&#45;&gt;Node15_1 -->
<g id="edge8" class="edge">
<title>Node6_1&#45;&gt;Node15_1</title>
<path fill="none" stroke="black" d="M1578.14,-382.9C1516.38,-394.05 1430.24,-408.44 1354,-417 1181.89,-436.33 978.57,-445.73 871.53,-449.64"/>
<polygon fill="black" stroke="black" points="1579.01,-386.3 1588.22,-381.07 1577.76,-379.41 1579.01,-386.3"/>
<text text-anchor="middle" x="1521.5" y="-405.8" font-family="Times,serif" font-size="14.00">विशेषणम्</text>
</g>
<!-- Node11_1 -->
<g id="node26" class="node">
<title>Node11_1</title>
<ellipse fill="#ff1975" stroke="#ff1975" cx="452" cy="-540" rx="84.49" ry="18"/>
<text text-anchor="middle" x="452" y="-536.3" font-family="Times,serif" font-size="14.00">ददर्श(11.1)</text>
</g>
<!-- Node15_1&#45;&gt;Node11_1 -->
<g id="edge25" class="edge">
<title>Node15_1&#45;&gt;Node11_1</title>
<path fill="none" stroke="black" d="M736.68,-468.86C671.14,-485.01 567.43,-510.56 504.94,-525.96"/>
<polygon fill="black" stroke="black" points="737.59,-472.24 746.46,-466.45 735.92,-465.44 737.59,-472.24"/>
<text text-anchor="middle" x="674" y="-492.8" font-family="Times,serif" font-size="14.00">कर्म</text>
</g>
<!-- Node7_1 -->
<g id="node8" class="node">
<title>Node7_1</title>
<ellipse fill="#93db70" stroke="#93db70" cx="1385" cy="-366" rx="124.58" ry="18"/>
<text text-anchor="middle" x="1385" y="-362.3" font-family="Times,serif" font-size="14.00">स्वलङ्कृतौ(7.1)</text>
</g>
<!-- Node7_1&#45;&gt;Node15_1 -->
<g id="edge9" class="edge">
<title>Node7_1&#45;&gt;Node15_1</title>
<path fill="none" stroke="black" d="M1317.13,-384.45C1272.93,-395.24 1213.86,-408.59 1161,-417 1060.37,-433.01 942.84,-442.7 869.16,-447.7"/>
<polygon fill="black" stroke="black" points="1318.02,-387.83 1326.9,-382.05 1316.35,-381.04 1318.02,-387.83"/>
<text text-anchor="middle" x="1292.5" y="-405.8" font-family="Times,serif" font-size="14.00">विशेषणम्</text>
</g>
<!-- Node8_3 -->
<g id="node9" class="node">
<title>Node8_3</title>
<ellipse fill="#93db70" stroke="#93db70" cx="457" cy="-366" rx="106.68" ry="18"/>
<text text-anchor="middle" x="457" y="-362.3" font-family="Times,serif" font-size="14.00">विमृदितौ(8.3)</text>
</g>
<!-- Node8_3&#45;&gt;Node15_1 -->
<g id="edge12" class="edge">
<title>Node8_3&#45;&gt;Node15_1</title>
<path fill="none" stroke="black" d="M509.41,-385.86C538.97,-396.03 576.74,-408.25 611,-417 652.07,-427.49 698.98,-436.29 735.41,-442.45"/>
<polygon fill="black" stroke="black" points="510.31,-382.47 499.72,-382.5 508.02,-389.08 510.31,-382.47"/>
<text text-anchor="middle" x="668.5" y="-405.8" font-family="Times,serif" font-size="14.00">विशेषणम्</text>
</g>
<!-- Node9_3 -->
<g id="node10" class="node">
<title>Node9_3</title>
<ellipse fill="#93db70" stroke="#93db70" cx="688" cy="-366" rx="106.68" ry="18"/>
<text text-anchor="middle" x="688" y="-362.3" font-family="Times,serif" font-size="14.00">निषेवितौ(9.3)</text>
</g>
<!-- Node9_3&#45;&gt;Node15_1 -->
<g id="edge15" class="edge">
<title>Node9_3&#45;&gt;Node15_1</title>
<path fill="none" stroke="black" d="M715.74,-390.29C726.07,-398.82 737.97,-408.47 749,-417 756.99,-423.18 765.9,-429.76 773.85,-435.53"/>
<polygon fill="black" stroke="black" points="717.76,-387.42 707.83,-383.73 713.29,-392.81 717.76,-387.42"/>
<text text-anchor="middle" x="806.5" y="-405.8" font-family="Times,serif" font-size="14.00">विशेषणम्</text>
</g>
<!-- Node10_6 -->
<g id="node11" class="node">
<title>Node10_6</title>
<ellipse fill="#93db70" stroke="#93db70" cx="906" cy="-366" rx="93.68" ry="18"/>
<text text-anchor="middle" x="906" y="-362.3" font-family="Times,serif" font-size="14.00">राविणौ(10.6)</text>
</g>
<!-- Node10_6&#45;&gt;Node15_1 -->
<g id="edge21" class="edge">
<title>Node10_6&#45;&gt;Node15_1</title>
<path fill="none" stroke="black" d="M888.07,-392.15C881.19,-400.71 872.84,-409.9 864,-417 854.38,-424.73 842.79,-431.5 831.98,-436.97"/>
<polygon fill="black" stroke="black" points="890.85,-394.28 894.2,-384.23 885.31,-390 890.85,-394.28"/>
<text text-anchor="middle" x="936.5" y="-405.8" font-family="Times,serif" font-size="14.00">विशेषणम्</text>
</g>
<!-- Node16_2 -->
<g id="node12" class="node">
<title>Node16_2</title>
<ellipse fill="#93db70" stroke="#93db70" cx="1130" cy="-366" rx="112.38" ry="18"/>
<text text-anchor="middle" x="1130" y="-362.3" font-family="Times,serif" font-size="14.00">संस्थितौ(16.2)</text>
</g>
<!-- Node16_2&#45;&gt;Node15_1 -->
<g id="edge27" class="edge">
<title>Node16_2&#45;&gt;Node15_1</title>
<path fill="none" stroke="black" d="M1084.1,-386.85C1059.04,-397.05 1027.24,-409 998,-417 953.42,-429.21 902.06,-438.06 862.41,-443.81"/>
<polygon fill="black" stroke="black" points="1085.44,-390.08 1093.36,-383.03 1082.78,-383.61 1085.44,-390.08"/>
<text text-anchor="middle" x="1099.5" y="-405.8" font-family="Times,serif" font-size="14.00">विशेषणम्</text>
</g>
<!-- Node12_1 -->
<g id="node13" class="node">
<title>Node12_1</title>
<ellipse fill="#00bfff" stroke="#00bfff" cx="73" cy="-366" rx="56.59" ry="18"/>
<text text-anchor="middle" x="73" y="-362.3" font-family="Times,serif" font-size="14.00">सः(12.1)</text>
</g>
<!-- Node13_1 -->
<g id="node14" class="node">
<title>Node13_1</title>
<ellipse fill="#00bfff" stroke="#00bfff" cx="91" cy="-453" rx="75.29" ry="18"/>
<text text-anchor="middle" x="91" y="-449.3" font-family="Times,serif" font-size="14.00">कपिः(13.1)</text>
</g>
<!-- Node12_1&#45;&gt;Node13_1 -->
<g id="edge22" class="edge">
<title>Node12_1&#45;&gt;Node13_1</title>
<path fill="none" stroke="black" d="M78.77,-394.27C81.59,-407.58 84.9,-423.19 87.36,-434.82"/>
<polygon fill="black" stroke="black" points="82.14,-393.26 76.64,-384.2 75.29,-394.71 82.14,-393.26"/>
<text text-anchor="middle" x="141.5" y="-405.8" font-family="Times,serif" font-size="14.00">विशेषणम्</text>
</g>
<!-- Node13_1&#45;&gt;Node11_1 -->
<g id="edge23" class="edge">
<title>Node13_1&#45;&gt;Node11_1</title>
<path fill="none" stroke="black" d="M152.56,-468.49C221.33,-484.69 331.62,-510.66 397.42,-526.15"/>
<polygon fill="black" stroke="black" points="153.26,-465.06 142.72,-466.18 151.65,-471.88 153.26,-465.06"/>
<text text-anchor="middle" x="330" y="-492.8" font-family="Times,serif" font-size="14.00">कर्ता</text>
</g>
<!-- Node1_1 -->
<g id="node15" class="node">
<title>Node1_1</title>
<ellipse fill="#ffff00" stroke="#ffff00" cx="2087" cy="-18" rx="53.89" ry="18"/>
<text text-anchor="middle" x="2087" y="-14.3" font-family="Times,serif" font-size="14.00">शश&#45;(1.1)</text>
</g>
<!-- Node1_2 -->
<g id="node16" class="node">
<title>Node1_2</title>
<ellipse fill="#ffff00" stroke="#ffff00" cx="2087" cy="-105" rx="81.49" ry="18"/>
<text text-anchor="middle" x="2087" y="-101.3" font-family="Times,serif" font-size="14.00">क्षतज&#45;(1.2)</text>
</g>
<!-- Node1_1&#45;&gt;Node1_2 -->
<g id="edge1" class="edge">
<title>Node1_1&#45;&gt;Node1_2</title>
<path fill="none" stroke="black" d="M2087,-46.27C2087,-59.58 2087,-75.19 2087,-86.82"/>
<polygon fill="black" stroke="black" points="2090.5,-46.2 2087,-36.2 2083.5,-46.2 2090.5,-46.2"/>
<text text-anchor="middle" x="2190.5" y="-57.8" font-family="Times,serif" font-size="14.00">षष्ठी_तत्पुरुषः</text>
</g>
<!-- Node1_2&#45;&gt;Node1_3 -->
<g id="edge2" class="edge">
<title>Node1_2&#45;&gt;Node1_3</title>
<path fill="none" stroke="black" d="M2087,-133.27C2087,-146.58 2087,-162.19 2087,-173.82"/>
<polygon fill="black" stroke="black" points="2090.5,-133.2 2087,-123.2 2083.5,-133.2 2090.5,-133.2"/>
<text text-anchor="middle" x="2151.5" y="-144.8" font-family="Times,serif" font-size="14.00">कर्मधारयः</text>
</g>
<!-- Node8_1 -->
<g id="node17" class="node">
<title>Node8_1</title>
<ellipse fill="#ffff00" stroke="#ffff00" cx="200" cy="-192" rx="81.49" ry="18"/>
<text text-anchor="middle" x="200" y="-188.3" font-family="Times,serif" font-size="14.00">उत्तम&#45;(8.1)</text>
</g>
<!-- Node8_2 -->
<g id="node18" class="node">
<title>Node8_2</title>
<ellipse fill="#ffff00" stroke="#ffff00" cx="200" cy="-279" rx="90.98" ry="18"/>
<text text-anchor="middle" x="200" y="-275.3" font-family="Times,serif" font-size="14.00">स्त्री&#45;(8.2)</text>
</g>
<!-- Node8_1&#45;&gt;Node8_2 -->
<g id="edge10" class="edge">
<title>Node8_1&#45;&gt;Node8_2</title>
<path fill="none" stroke="black" d="M200,-220.27C200,-233.58 200,-249.19 200,-260.82"/>
<polygon fill="black" stroke="black" points="203.5,-220.2 200,-210.2 196.5,-220.2 203.5,-220.2"/>
<text text-anchor="middle" x="264.5" y="-231.8" font-family="Times,serif" font-size="14.00">कर्मधारयः</text>
</g>
<!-- Node8_2&#45;&gt;Node8_3 -->
<g id="edge11" class="edge">
<title>Node8_2&#45;&gt;Node8_3</title>
<path fill="none" stroke="black" d="M207.98,-306.67C211.96,-315.51 217.76,-324.49 226,-330 247.33,-344.25 315.63,-336.18 341,-340 359.84,-342.84 380.21,-346.89 398.55,-350.91"/>
<polygon fill="black" stroke="black" points="211.22,-305.34 204.32,-297.3 204.69,-307.88 211.22,-305.34"/>
<text text-anchor="middle" x="336.5" y="-318.8" font-family="Times,serif" font-size="14.00">तृतीया_तत्पुरुषः</text>
</g>
<!-- Node9_1 -->
<g id="node19" class="node">
<title>Node9_1</title>
<ellipse fill="#ffff00" stroke="#ffff00" cx="444" cy="-279" rx="72.29" ry="18"/>
<text text-anchor="middle" x="444" y="-275.3" font-family="Times,serif" font-size="14.00">गन्ध&#45;(9.1)</text>
</g>
<!-- Node9_1&#45;&gt;Node9_3 -->
<g id="edge13" class="edge">
<title>Node9_1&#45;&gt;Node9_3</title>
<path fill="none" stroke="black" d="M448.39,-307.03C451.16,-315.67 455.66,-324.43 463,-330 482.55,-344.84 548.74,-336.27 573,-340 591.58,-342.85 611.66,-346.88 629.76,-350.88"/>
<polygon fill="black" stroke="black" points="451.74,-305.97 445.88,-297.14 444.95,-307.69 451.74,-305.97"/>
<text text-anchor="middle" x="573.5" y="-318.8" font-family="Times,serif" font-size="14.00">सप्तमी_तत्पुरुषः</text>
</g>
<!-- Node9_2 -->
<g id="node20" class="node">
<title>Node9_2</title>
<ellipse fill="#ffff00" stroke="#ffff00" cx="688" cy="-279" rx="81.49" ry="18"/>
<text text-anchor="middle" x="688" y="-275.3" font-family="Times,serif" font-size="14.00">उत्तम&#45;(9.2)</text>
</g>
<!-- Node9_2&#45;&gt;Node9_3 -->
<g id="edge14" class="edge">
<title>Node9_2&#45;&gt;Node9_3</title>
<path fill="none" stroke="black" d="M688,-307.27C688,-320.58 688,-336.19 688,-347.82"/>
<polygon fill="black" stroke="black" points="691.5,-307.2 688,-297.2 684.5,-307.2 691.5,-307.2"/>
<text text-anchor="middle" x="798.5" y="-318.8" font-family="Times,serif" font-size="14.00">तृतीया_तत्पुरुषः</text>
</g>
<!-- Node10_1 -->
<g id="node21" class="node">
<title>Node10_1</title>
<ellipse fill="#ffff00" stroke="#ffff00" cx="542" cy="-192" rx="77.99" ry="18"/>
<text text-anchor="middle" x="542" y="-188.3" font-family="Times,serif" font-size="14.00">यक्ष&#45;(10.1)</text>
</g>
<!-- Node10_5 -->
<g id="node22" class="node">
<title>Node10_5</title>
<ellipse fill="#ffff00" stroke="#ffff00" cx="932" cy="-279" rx="77.99" ry="18"/>
<text text-anchor="middle" x="932" y="-275.3" font-family="Times,serif" font-size="14.00">दानव&#45;(10.5)</text>
</g>
<!-- Node10_1&#45;&gt;Node10_5 -->
<g id="edge16" class="edge">
<title>Node10_1&#45;&gt;Node10_5</title>
<path fill="none" stroke="black" d="M576.36,-214.31C594.61,-224.64 617.8,-236.24 640,-243 650.56,-246.22 780.2,-261.07 863.15,-270.36"/>
<polygon fill="black" stroke="black" points="577.96,-211.2 567.56,-209.22 574.46,-217.26 577.96,-211.2"/>
<text text-anchor="middle" x="704.5" y="-231.8" font-family="Times,serif" font-size="14.00">द्वन्द्वः</text>
</g>
<!-- Node10_5&#45;&gt;Node10_6 -->
<g id="edge20" class="edge">
<title>Node10_5&#45;&gt;Node10_6</title>
<path fill="none" stroke="black" d="M923.78,-306.87C919.68,-320.27 914.85,-336.08 911.25,-347.82"/>
<polygon fill="black" stroke="black" points="927.16,-307.79 926.74,-297.2 920.47,-305.74 927.16,-307.79"/>
<text text-anchor="middle" x="1023.5" y="-318.8" font-family="Times,serif" font-size="14.00">षष्ठी_तत्पुरुषः</text>
</g>
<!-- Node10_2 -->
<g id="node23" class="node">
<title>Node10_2</title>
<ellipse fill="#ffff00" stroke="#ffff00" cx="725" cy="-192" rx="87.18" ry="18"/>
<text text-anchor="middle" x="725" y="-188.3" font-family="Times,serif" font-size="14.00">पन्नग&#45;(10.2)</text>
</g>
<!-- Node10_2&#45;&gt;Node10_5 -->
<g id="edge17" class="edge">
<title>Node10_2&#45;&gt;Node10_5</title>
<path fill="none" stroke="black" d="M753.75,-215.76C766.93,-225.29 783.13,-235.8 799,-243 822.38,-253.6 849.57,-261.47 873.26,-267.03"/>
<polygon fill="black" stroke="black" points="755.68,-212.83 745.56,-209.68 751.51,-218.45 755.68,-212.83"/>
<text text-anchor="middle" x="863.5" y="-231.8" font-family="Times,serif" font-size="14.00">द्वन्द्वः</text>
</g>
<!-- Node10_3 -->
<g id="node24" class="node">
<title>Node10_3</title>
<ellipse fill="#ffff00" stroke="#ffff00" cx="933" cy="-192" rx="102.88" ry="18"/>
<text text-anchor="middle" x="933" y="-188.3" font-family="Times,serif" font-size="14.00">गन्धर्व(10.3)</text>
</g>
<!-- Node10_3&#45;&gt;Node10_5 -->
<g id="edge18" class="edge">
<title>Node10_3&#45;&gt;Node10_5</title>
<path fill="none" stroke="black" d="M932.68,-220.27C932.52,-233.58 932.34,-249.19 932.2,-260.82"/>
<polygon fill="black" stroke="black" points="936.18,-220.24 932.8,-210.2 929.18,-220.16 936.18,-220.24"/>
<text text-anchor="middle" x="996.5" y="-231.8" font-family="Times,serif" font-size="14.00">द्वन्द्वः</text>
</g>
<!-- Node10_4 -->
<g id="node25" class="node">
<title>Node10_4</title>
<ellipse fill="#ffff00" stroke="#ffff00" cx="1123" cy="-192" rx="68.79" ry="18"/>
<text text-anchor="middle" x="1123" y="-188.3" font-family="Times,serif" font-size="14.00">देव&#45;(10.4)</text>
</g>
<!-- Node10_4&#45;&gt;Node10_5 -->
<g id="edge19" class="edge">
<title>Node10_4&#45;&gt;Node10_5</title>
<path fill="none" stroke="black" d="M1100.54,-216.6C1090.46,-226.01 1077.94,-236.19 1065,-243 1043.03,-254.56 1016.95,-262.51 993.74,-267.87"/>
<polygon fill="black" stroke="black" points="1102.99,-219.1 1107.74,-209.63 1098.12,-214.07 1102.99,-219.1"/>
<text text-anchor="middle" x="1149.5" y="-231.8" font-family="Times,serif" font-size="14.00">द्वन्द्वः</text>
</g>
<!-- Node14_1 -->
<g id="node27" class="node">
<title>Node14_1</title>
<ellipse fill="#87ceeb" stroke="#87ceeb" cx="257" cy="-366" rx="75.29" ry="18"/>
<text text-anchor="middle" x="257" y="-362.3" font-family="Times,serif" font-size="14.00">तस्य(14.1)</text>
</g>
<!-- Node14_1&#45;&gt;Node15_1 -->
<g id="edge24" class="edge">
<title>Node14_1&#45;&gt;Node15_1</title>
<path fill="none" stroke="black" d="M294.05,-387.36C315.34,-398.07 342.94,-410.33 369,-417 434,-433.65 619.19,-444.19 723.42,-448.98"/>
<polygon fill="black" stroke="black" points="295.53,-384.19 285.04,-382.73 292.33,-390.41 295.53,-384.19"/>
<text text-anchor="middle" x="462" y="-405.8" font-family="Times,serif" font-size="14.00">षष्ठीसम्बन्धः</text>
</g>
<!-- Node16_1 -->
<g id="node28" class="node">
<title>Node16_1</title>
<ellipse fill="#ffff00" stroke="#ffff00" cx="1162" cy="-279" rx="68.79" ry="18"/>
<text text-anchor="middle" x="1162" y="-275.3" font-family="Times,serif" font-size="14.00">शयन&#45;(16.1)</text>
</g>
<!-- Node16_1&#45;&gt;Node16_2 -->
<g id="edge26" class="edge">
<title>Node16_1&#45;&gt;Node16_2</title>
<path fill="none" stroke="black" d="M1151.88,-306.87C1146.84,-320.27 1140.89,-336.08 1136.47,-347.82"/>
<polygon fill="black" stroke="black" points="1155.28,-307.79 1155.52,-297.2 1148.73,-305.33 1155.28,-307.79"/>
<text text-anchor="middle" x="1257.5" y="-318.8" font-family="Times,serif" font-size="14.00">सप्तमी_तत्पुरुषः</text>
</g>
</g>
</svg>
