<?xml version="1.0" encoding="UTF-8" standalone="no"?>
<!DOCTYPE svg PUBLIC "-//W3C//DTD SVG 1.1//EN"
 "http://www.w3.org/Graphics/SVG/1.1/DTD/svg11.dtd">
<!-- Generated by graphviz version 2.43.0 (0)
 -->
<!-- Title: G Pages: 1 -->
<svg width="4426pt" height="479pt"
 viewBox="0.00 0.00 4426.00 479.00" xmlns="http://www.w3.org/2000/svg" xmlns:xlink="http://www.w3.org/1999/xlink">
<g id="graph0" class="graph" transform="scale(1 1) rotate(0) translate(4 475)">
<title>G</title>
<polygon fill="#fffacd" stroke="transparent" points="-4,4 -4,-475 4422,-475 4422,4 -4,4"/>
<g id="clust1" class="cluster">
<title>cluster_1</title>
<polygon fill="#fffacd" stroke="black" points="4024,-253 4024,-392 4254,-392 4254,-253 4024,-253"/>
</g>
<g id="clust2" class="cluster">
<title>cluster_2</title>
<polygon fill="#fffacd" stroke="black" points="3300,-166 3300,-305 3548,-305 3548,-166 3300,-166"/>
</g>
<g id="clust3" class="cluster">
<title>cluster_3</title>
<polygon fill="#fffacd" stroke="black" points="128,-253 128,-392 3292,-392 3292,-253 128,-253"/>
</g>
<g id="clust4" class="cluster">
<title>cluster_4</title>
<polygon fill="#fffacd" stroke="black" points="8,-79 8,-218 212,-218 212,-79 8,-79"/>
</g>
<g id="clust5" class="cluster">
<title>cluster_5</title>
<polygon fill="#fffacd" stroke="black" points="3763,-166 3763,-305 3967,-305 3967,-166 3763,-166"/>
</g>
<!-- Node1_3 -->
<g id="node1" class="node">
<title>Node1_3</title>
<ellipse fill="#00bfff" stroke="#00bfff" cx="4139" cy="-279" rx="106.68" ry="18"/>
<text text-anchor="middle" x="4139" y="-275.3" font-family="Times,serif" font-size="14.00">सन्नद्धः(1.3)</text>
</g>
<!-- Node3_1 -->
<g id="node2" class="node">
<title>Node3_1</title>
<ellipse fill="#00bfff" stroke="#00bfff" cx="4107" cy="-366" rx="50.89" ry="18"/>
<text text-anchor="middle" x="4107" y="-362.3" font-family="Times,serif" font-size="14.00">सः(3.1)</text>
</g>
<!-- Node1_3&#45;&gt;Node3_1 -->
<g id="edge3" class="edge">
<title>Node1_3&#45;&gt;Node3_1</title>
<path fill="none" stroke="black" d="M4128.86,-306.94C4123.78,-320.43 4117.78,-336.36 4113.36,-348.11"/>
<polygon fill="black" stroke="black" points="4132.28,-307.79 4132.52,-297.2 4125.73,-305.33 4132.28,-307.79"/>
<text text-anchor="middle" x="4181.5" y="-318.8" font-family="Times,serif" font-size="14.00">विशेषणम्</text>
</g>
<!-- Node2_1 -->
<g id="node27" class="node">
<title>Node2_1</title>
<ellipse fill="#ff1975" stroke="#ff1975" cx="3396" cy="-453" rx="78.79" ry="18"/>
<text text-anchor="middle" x="3396" y="-449.3" font-family="Times,serif" font-size="14.00">ददर्श(2.1)</text>
</g>
<!-- Node3_1&#45;&gt;Node2_1 -->
<g id="edge4" class="edge">
<title>Node3_1&#45;&gt;Node2_1</title>
<path fill="none" stroke="black" d="M4049.66,-373.86C3919.71,-389.39 3603.28,-427.22 3463.87,-443.89"/>
<polygon fill="black" stroke="black" points="4050.28,-377.31 4059.8,-372.64 4049.45,-370.35 4050.28,-377.31"/>
<text text-anchor="middle" x="3830" y="-405.8" font-family="Times,serif" font-size="14.00">कर्ता</text>
</g>
<!-- Node4_2 -->
<g id="node3" class="node">
<title>Node4_2</title>
<ellipse fill="#87ceeb" stroke="#87ceeb" cx="3410" cy="-192" rx="87.99" ry="18"/>
<text text-anchor="middle" x="3410" y="-188.3" font-family="Times,serif" font-size="14.00">आत्मनः(4.2)</text>
</g>
<!-- Node6_2 -->
<g id="node4" class="node">
<title>Node6_2</title>
<ellipse fill="#87ceeb" stroke="#87ceeb" cx="3424" cy="-279" rx="115.88" ry="18"/>
<text text-anchor="middle" x="3424" y="-275.3" font-family="Times,serif" font-size="14.00">इन्द्रस्य(6.2)</text>
</g>
<!-- Node4_2&#45;&gt;Node6_2 -->
<g id="edge6" class="edge">
<title>Node4_2&#45;&gt;Node6_2</title>
<path fill="none" stroke="black" d="M3408.9,-220.51C3409.05,-227.87 3409.63,-235.78 3411,-243 3412.14,-248.99 3414.19,-255.29 3416.34,-260.88"/>
<polygon fill="black" stroke="black" points="3412.4,-220.28 3408.93,-210.27 3405.4,-220.26 3412.4,-220.28"/>
<text text-anchor="middle" x="3468.5" y="-231.8" font-family="Times,serif" font-size="14.00">विशेषणम्</text>
</g>
<!-- Node7_1 -->
<g id="node6" class="node">
<title>Node7_1</title>
<ellipse fill="#93db70" stroke="#93db70" cx="2063" cy="-366" rx="69.59" ry="18"/>
<text text-anchor="middle" x="2063" y="-362.3" font-family="Times,serif" font-size="14.00">भुजौ(7.1)</text>
</g>
<!-- Node6_2&#45;&gt;Node7_1 -->
<g id="edge9" class="edge">
<title>Node6_2&#45;&gt;Node7_1</title>
<path fill="none" stroke="black" d="M3350.89,-296.23C3294.22,-308.01 3213.55,-323.06 3142,-330 2944.96,-349.11 2338.37,-360.51 2132.32,-363.92"/>
<polygon fill="black" stroke="black" points="3351.77,-299.62 3360.83,-294.14 3350.33,-292.77 3351.77,-299.62"/>
<text text-anchor="middle" x="3344" y="-318.8" font-family="Times,serif" font-size="14.00">षष्ठीसम्बन्धः</text>
</g>
<!-- Node5_1 -->
<g id="node5" class="node">
<title>Node5_1</title>
<ellipse fill="#93db70" stroke="#93db70" cx="1958" cy="-279" rx="124.58" ry="18"/>
<text text-anchor="middle" x="1958" y="-275.3" font-family="Times,serif" font-size="14.00">विक्षिप्तौ(5.1)</text>
</g>
<!-- Node5_1&#45;&gt;Node7_1 -->
<g id="edge7" class="edge">
<title>Node5_1&#45;&gt;Node7_1</title>
<path fill="none" stroke="black" d="M1983.7,-304C1993.05,-312.45 2003.82,-321.86 2014,-330 2022,-336.4 2031.06,-343.03 2039.19,-348.77"/>
<polygon fill="black" stroke="black" points="1985.97,-301.34 1976.23,-297.19 1981.26,-306.51 1985.97,-301.34"/>
<text text-anchor="middle" x="2071.5" y="-318.8" font-family="Times,serif" font-size="14.00">विशेषणम्</text>
</g>
<!-- Node7_1&#45;&gt;Node2_1 -->
<g id="edge10" class="edge">
<title>Node7_1&#45;&gt;Node2_1</title>
<path fill="none" stroke="black" d="M2139.76,-371.89C2375.74,-386.94 3088.54,-432.39 3321.47,-447.25"/>
<polygon fill="black" stroke="black" points="2139.76,-368.39 2129.56,-371.24 2139.32,-375.37 2139.76,-368.39"/>
<text text-anchor="middle" x="2838" y="-405.8" font-family="Times,serif" font-size="14.00">कर्म</text>
</g>
<!-- Node8_3 -->
<g id="node7" class="node">
<title>Node8_3</title>
<ellipse fill="#93db70" stroke="#93db70" cx="2170" cy="-279" rx="69.59" ry="18"/>
<text text-anchor="middle" x="2170" y="-275.3" font-family="Times,serif" font-size="14.00">उपमौ(8.3)</text>
</g>
<!-- Node8_3&#45;&gt;Node7_1 -->
<g id="edge13" class="edge">
<title>Node8_3&#45;&gt;Node7_1</title>
<path fill="none" stroke="black" d="M2152.36,-305.41C2145.68,-313.89 2137.6,-322.96 2129,-330 2119.46,-337.8 2107.92,-344.63 2097.16,-350.14"/>
<polygon fill="black" stroke="black" points="2155.3,-307.31 2158.53,-297.22 2149.72,-303.1 2155.3,-307.31"/>
<text text-anchor="middle" x="2201.5" y="-318.8" font-family="Times,serif" font-size="14.00">विशेषणम्</text>
</g>
<!-- Node10_3 -->
<g id="node8" class="node">
<title>Node10_3</title>
<ellipse fill="#93db70" stroke="#93db70" cx="2547" cy="-279" rx="84.49" ry="18"/>
<text text-anchor="middle" x="2547" y="-275.3" font-family="Times,serif" font-size="14.00">व्रणौ(10.3)</text>
</g>
<!-- Node10_3&#45;&gt;Node7_1 -->
<g id="edge19" class="edge">
<title>Node10_3&#45;&gt;Node7_1</title>
<path fill="none" stroke="black" d="M2503.64,-299.58C2478.07,-310.29 2444.78,-322.81 2414,-330 2317.84,-352.46 2203.56,-360.51 2132.14,-363.4"/>
<polygon fill="black" stroke="black" points="2505.21,-302.71 2513.04,-295.58 2502.47,-296.27 2505.21,-302.71"/>
<text text-anchor="middle" x="2519.5" y="-318.8" font-family="Times,serif" font-size="14.00">विशेषणम्</text>
</g>
<!-- Node11_3 -->
<g id="node9" class="node">
<title>Node11_3</title>
<ellipse fill="#93db70" stroke="#93db70" cx="2939" cy="-279" rx="102.88" ry="18"/>
<text text-anchor="middle" x="2939" y="-275.3" font-family="Times,serif" font-size="14.00">पीनांसौ(11.3)</text>
</g>
<!-- Node11_3&#45;&gt;Node7_1 -->
<g id="edge22" class="edge">
<title>Node11_3&#45;&gt;Node7_1</title>
<path fill="none" stroke="black" d="M2883.98,-298.28C2847.76,-309.49 2799.08,-322.98 2755,-330 2636.5,-348.87 2282.44,-359.59 2131.93,-363.4"/>
<polygon fill="black" stroke="black" points="2885.35,-301.52 2893.85,-295.19 2883.26,-294.84 2885.35,-301.52"/>
<text text-anchor="middle" x="2878.5" y="-318.8" font-family="Times,serif" font-size="14.00">विशेषणम्</text>
</g>
<!-- Node12_3 -->
<g id="node10" class="node">
<title>Node12_3</title>
<ellipse fill="#93db70" stroke="#93db70" cx="3172" cy="-279" rx="112.38" ry="18"/>
<text text-anchor="middle" x="3172" y="-275.3" font-family="Times,serif" font-size="14.00">परिक्षतौ(12.3)</text>
</g>
<!-- Node12_3&#45;&gt;Node7_1 -->
<g id="edge25" class="edge">
<title>Node12_3&#45;&gt;Node7_1</title>
<path fill="none" stroke="black" d="M3106.8,-297.2C3060.59,-308.62 2996.93,-322.78 2940,-330 2784.2,-349.75 2310.73,-360.39 2132.15,-363.78"/>
<polygon fill="black" stroke="black" points="3107.82,-300.56 3116.68,-294.74 3106.13,-293.76 3107.82,-300.56"/>
<text text-anchor="middle" x="3080.5" y="-318.8" font-family="Times,serif" font-size="14.00">विशेषणम्</text>
</g>
<!-- Node13_1 -->
<g id="node11" class="node">
<title>Node13_1</title>
<ellipse fill="#93db70" stroke="#93db70" cx="864" cy="-279" rx="75.29" ry="18"/>
<text text-anchor="middle" x="864" y="-275.3" font-family="Times,serif" font-size="14.00">पीनौ(13.1)</text>
</g>
<!-- Node13_1&#45;&gt;Node7_1 -->
<g id="edge26" class="edge">
<title>Node13_1&#45;&gt;Node7_1</title>
<path fill="none" stroke="black" d="M916.99,-296.76C927.22,-299.72 937.9,-302.61 948,-305 1009.93,-319.66 1025.71,-323.29 1089,-330 1264.62,-348.63 1801.47,-360.15 1993.66,-363.77"/>
<polygon fill="black" stroke="black" points="917.93,-293.39 907.34,-293.92 915.95,-300.11 917.93,-293.39"/>
<text text-anchor="middle" x="1146.5" y="-318.8" font-family="Times,serif" font-size="14.00">विशेषणम्</text>
</g>
<!-- Node14_2 -->
<g id="node12" class="node">
<title>Node14_2</title>
<ellipse fill="#93db70" stroke="#93db70" cx="211" cy="-279" rx="75.29" ry="18"/>
<text text-anchor="middle" x="211" y="-275.3" font-family="Times,serif" font-size="14.00">अंसौ(14.2)</text>
</g>
<!-- Node14_2&#45;&gt;Node7_1 -->
<g id="edge28" class="edge">
<title>Node14_2&#45;&gt;Node7_1</title>
<path fill="none" stroke="black" d="M263.99,-296.74C274.23,-299.7 284.9,-302.6 295,-305 356.06,-319.53 371.54,-323.75 434,-330 743.44,-360.96 1723.02,-364.56 1993.33,-364.96"/>
<polygon fill="black" stroke="black" points="264.93,-293.37 254.35,-293.9 262.95,-300.09 264.93,-293.37"/>
<text text-anchor="middle" x="491.5" y="-318.8" font-family="Times,serif" font-size="14.00">विशेषणम्</text>
</g>
<!-- Node15_1 -->
<g id="node13" class="node">
<title>Node15_1</title>
<ellipse fill="#93db70" stroke="#93db70" cx="398" cy="-279" rx="93.68" ry="18"/>
<text text-anchor="middle" x="398" y="-275.3" font-family="Times,serif" font-size="14.00">सङ्गतौ(15.1)</text>
</g>
<!-- Node15_1&#45;&gt;Node7_1 -->
<g id="edge29" class="edge">
<title>Node15_1&#45;&gt;Node7_1</title>
<path fill="none" stroke="black" d="M460.52,-296.32C473.52,-299.43 487.17,-302.49 500,-305 575.39,-319.71 594.47,-323.47 671,-330 932.19,-352.3 1749.87,-361.93 1993.7,-364.36"/>
<polygon fill="black" stroke="black" points="461.27,-292.9 450.73,-293.94 459.62,-299.7 461.27,-292.9"/>
<text text-anchor="middle" x="728.5" y="-318.8" font-family="Times,serif" font-size="14.00">विशेषणम्</text>
</g>
<!-- Node16_2 -->
<g id="node14" class="node">
<title>Node16_2</title>
<ellipse fill="#93db70" stroke="#93db70" cx="1051" cy="-279" rx="93.68" ry="18"/>
<text text-anchor="middle" x="1051" y="-275.3" font-family="Times,serif" font-size="14.00">संयुतौ(16.2)</text>
</g>
<!-- Node16_2&#45;&gt;Node7_1 -->
<g id="edge31" class="edge">
<title>Node16_2&#45;&gt;Node7_1</title>
<path fill="none" stroke="black" d="M1113.52,-296.28C1126.52,-299.4 1140.17,-302.47 1153,-305 1226.63,-319.5 1245.31,-322.67 1320,-330 1567.08,-354.25 1862.08,-361.82 1993.69,-364.08"/>
<polygon fill="black" stroke="black" points="1114.28,-292.87 1103.74,-293.9 1112.62,-299.67 1114.28,-292.87"/>
<text text-anchor="middle" x="1377.5" y="-318.8" font-family="Times,serif" font-size="14.00">विशेषणम्</text>
</g>
<!-- Node17_3 -->
<g id="node15" class="node">
<title>Node17_3</title>
<ellipse fill="#93db70" stroke="#93db70" cx="1284" cy="-279" rx="121.58" ry="18"/>
<text text-anchor="middle" x="1284" y="-275.3" font-family="Times,serif" font-size="14.00">अङ्गुष्ठौ(17.3)</text>
</g>
<!-- Node17_3&#45;&gt;Node7_1 -->
<g id="edge34" class="edge">
<title>Node17_3&#45;&gt;Node7_1</title>
<path fill="none" stroke="black" d="M1353.47,-297.1C1401.38,-308.23 1466.69,-322.09 1525,-330 1692.42,-352.7 1891.21,-360.79 1993.9,-363.59"/>
<polygon fill="black" stroke="black" points="1354.05,-293.64 1343.52,-294.77 1352.46,-300.46 1354.05,-293.64"/>
<text text-anchor="middle" x="1582.5" y="-318.8" font-family="Times,serif" font-size="14.00">विशेषणम्</text>
</g>
<!-- Node18_3 -->
<g id="node16" class="node">
<title>Node18_3</title>
<ellipse fill="#93db70" stroke="#93db70" cx="1526" cy="-279" rx="102.88" ry="18"/>
<text text-anchor="middle" x="1526" y="-275.3" font-family="Times,serif" font-size="14.00">लक्षितौ(18.3)</text>
</g>
<!-- Node18_3&#45;&gt;Node7_1 -->
<g id="edge37" class="edge">
<title>Node18_3&#45;&gt;Node7_1</title>
<path fill="none" stroke="black" d="M1582.63,-298.02C1618.73,-308.84 1666.7,-322.03 1710,-330 1808.27,-348.09 1923.77,-357.31 1995.19,-361.64"/>
<polygon fill="black" stroke="black" points="1583.36,-294.58 1572.77,-295.03 1581.33,-301.28 1583.36,-294.58"/>
<text text-anchor="middle" x="1767.5" y="-318.8" font-family="Times,serif" font-size="14.00">विशेषणम्</text>
</g>
<!-- Node19_1 -->
<g id="node17" class="node">
<title>Node19_1</title>
<ellipse fill="#93db70" stroke="#93db70" cx="2734" cy="-279" rx="84.49" ry="18"/>
<text text-anchor="middle" x="2734" y="-275.3" font-family="Times,serif" font-size="14.00">संहतौ(19.1)</text>
</g>
<!-- Node19_1&#45;&gt;Node7_1 -->
<g id="edge38" class="edge">
<title>Node19_1&#45;&gt;Node7_1</title>
<path fill="none" stroke="black" d="M2686.62,-298.87C2656.8,-309.89 2617.23,-322.97 2581,-330 2422.83,-360.69 2233,-365.59 2132.83,-365.75"/>
<polygon fill="black" stroke="black" points="2688.21,-302.01 2696.34,-295.22 2685.75,-295.45 2688.21,-302.01"/>
<text text-anchor="middle" x="2693.5" y="-318.8" font-family="Times,serif" font-size="14.00">विशेषणम्</text>
</g>
<!-- Node20_2 -->
<g id="node18" class="node">
<title>Node20_2</title>
<ellipse fill="#93db70" stroke="#93db70" cx="1731" cy="-279" rx="84.49" ry="18"/>
<text text-anchor="middle" x="1731" y="-275.3" font-family="Times,serif" font-size="14.00">आकारौ(20.2)</text>
</g>
<!-- Node20_2&#45;&gt;Node7_1 -->
<g id="edge40" class="edge">
<title>Node20_2&#45;&gt;Node7_1</title>
<path fill="none" stroke="black" d="M1779.83,-298.54C1808.19,-308.82 1844.77,-321.25 1878,-330 1919.88,-341.03 1967.97,-350.01 2004.62,-356.12"/>
<polygon fill="black" stroke="black" points="1780.75,-295.15 1770.16,-295 1778.35,-301.73 1780.75,-295.15"/>
<text text-anchor="middle" x="1935.5" y="-318.8" font-family="Times,serif" font-size="14.00">विशेषणम्</text>
</g>
<!-- Node21_1 -->
<g id="node19" class="node">
<title>Node21_1</title>
<ellipse fill="#93db70" stroke="#93db70" cx="2351" cy="-279" rx="93.68" ry="18"/>
<text text-anchor="middle" x="2351" y="-275.3" font-family="Times,serif" font-size="14.00">वृत्तौ(21.1)</text>
</g>
<!-- Node21_1&#45;&gt;Node7_1 -->
<g id="edge41" class="edge">
<title>Node21_1&#45;&gt;Node7_1</title>
<path fill="none" stroke="black" d="M2318.57,-301.99C2302.49,-311.95 2282.39,-323.03 2263,-330 2219.38,-345.68 2167.8,-354.48 2127.95,-359.34"/>
<polygon fill="black" stroke="black" points="2320.49,-304.92 2327.06,-296.61 2316.74,-299.01 2320.49,-304.92"/>
<text text-anchor="middle" x="2352.5" y="-318.8" font-family="Times,serif" font-size="14.00">विशेषणम्</text>
</g>
<!-- Node23_1 -->
<g id="node20" class="node">
<title>Node23_1</title>
<ellipse fill="#93db70" stroke="#93db70" cx="640" cy="-279" rx="130.78" ry="18"/>
<text text-anchor="middle" x="640" y="-275.3" font-family="Times,serif" font-size="14.00">विक्षिप्तौ(23.1)</text>
</g>
<!-- Node23_1&#45;&gt;Node7_1 -->
<g id="edge44" class="edge">
<title>Node23_1&#45;&gt;Node7_1</title>
<path fill="none" stroke="black" d="M706.87,-297.73C753.15,-309.17 816.37,-323.15 873,-330 1092.04,-356.5 1773.41,-363.14 1993.61,-364.62"/>
<polygon fill="black" stroke="black" points="707.51,-294.29 696.96,-295.26 705.82,-301.08 707.51,-294.29"/>
<text text-anchor="middle" x="930.5" y="-318.8" font-family="Times,serif" font-size="14.00">विशेषणम्</text>
</g>
<!-- Node25_1 -->
<g id="node21" class="node">
<title>Node25_1</title>
<ellipse fill="#c6e2eb" stroke="#c6e2eb" cx="110" cy="-105" rx="93.68" ry="18"/>
<text text-anchor="middle" x="110" y="-101.3" font-family="Times,serif" font-size="14.00">शुभ्रे(25.1)</text>
</g>
<!-- Node24_1 -->
<g id="node22" class="node">
<title>Node24_1</title>
<ellipse fill="#c6e2eb" stroke="#c6e2eb" cx="109" cy="-192" rx="75.29" ry="18"/>
<text text-anchor="middle" x="109" y="-188.3" font-family="Times,serif" font-size="14.00">शयने(24.1)</text>
</g>
<!-- Node25_1&#45;&gt;Node24_1 -->
<g id="edge46" class="edge">
<title>Node25_1&#45;&gt;Node24_1</title>
<path fill="none" stroke="black" d="M109.68,-133.27C109.52,-146.58 109.34,-162.19 109.2,-173.82"/>
<polygon fill="black" stroke="black" points="113.18,-133.24 109.8,-123.2 106.18,-133.16 113.18,-133.24"/>
<text text-anchor="middle" x="167.5" y="-144.8" font-family="Times,serif" font-size="14.00">विशेषणम्</text>
</g>
<!-- Node24_1&#45;&gt;Node23_1 -->
<g id="edge45" class="edge">
<title>Node24_1&#45;&gt;Node23_1</title>
<path fill="none" stroke="black" d="M113.2,-220.3C115.95,-228.96 120.49,-237.67 128,-243 144.9,-255 480.38,-250.88 501,-253 524.17,-255.38 549.29,-259.44 571.71,-263.6"/>
<polygon fill="black" stroke="black" points="116.53,-219.21 110.73,-210.35 109.74,-220.9 116.53,-219.21"/>
<text text-anchor="middle" x="206.5" y="-231.8" font-family="Times,serif" font-size="14.00">देशाधिकरणम्</text>
</g>
<!-- Node26_2 -->
<g id="node23" class="node">
<title>Node26_2</title>
<ellipse fill="#93db70" stroke="#93db70" cx="3865" cy="-192" rx="93.68" ry="18"/>
<text text-anchor="middle" x="3865" y="-188.3" font-family="Times,serif" font-size="14.00">शीर्षौ(26.2)</text>
</g>
<!-- Node28_1 -->
<g id="node24" class="node">
<title>Node28_1</title>
<ellipse fill="#93db70" stroke="#93db70" cx="3846" cy="-279" rx="75.29" ry="18"/>
<text text-anchor="middle" x="3846" y="-275.3" font-family="Times,serif" font-size="14.00">उरगौ(28.1)</text>
</g>
<!-- Node26_2&#45;&gt;Node28_1 -->
<g id="edge48" class="edge">
<title>Node26_2&#45;&gt;Node28_1</title>
<path fill="none" stroke="black" d="M3858.91,-220.27C3855.93,-233.58 3852.44,-249.19 3849.84,-260.82"/>
<polygon fill="black" stroke="black" points="3862.39,-220.72 3861.16,-210.2 3855.56,-219.2 3862.39,-220.72"/>
<text text-anchor="middle" x="3913.5" y="-231.8" font-family="Times,serif" font-size="14.00">विशेषणम्</text>
</g>
<!-- Node28_1&#45;&gt;Node7_1 -->
<g id="edge50" class="edge">
<title>Node28_1&#45;&gt;Node7_1</title>
<path fill="none" stroke="black" d="M3774.37,-290.99C3693.6,-302.87 3558.21,-321.3 3441,-330 3182.51,-349.19 2374.78,-360.97 2132.42,-364.13"/>
<polygon fill="black" stroke="black" points="3775.05,-294.42 3784.43,-289.5 3774.03,-287.5 3775.05,-294.42"/>
<text text-anchor="middle" x="3636" y="-318.8" font-family="Times,serif" font-size="14.00">उपमानम्</text>
</g>
<!-- Node1_1 -->
<g id="node25" class="node">
<title>Node1_1</title>
<ellipse fill="#ffff00" stroke="#ffff00" cx="4211" cy="-105" rx="90.98" ry="18"/>
<text text-anchor="middle" x="4211" y="-101.3" font-family="Times,serif" font-size="14.00">काञ्चन&#45;(1.1)</text>
</g>
<!-- Node1_2 -->
<g id="node26" class="node">
<title>Node1_2</title>
<ellipse fill="#ffff00" stroke="#ffff00" cx="4211" cy="-192" rx="81.49" ry="18"/>
<text text-anchor="middle" x="4211" y="-188.3" font-family="Times,serif" font-size="14.00">अङ्गद&#45;(1.2)</text>
</g>
<!-- Node1_1&#45;&gt;Node1_2 -->
<g id="edge1" class="edge">
<title>Node1_1&#45;&gt;Node1_2</title>
<path fill="none" stroke="black" d="M4211,-133.27C4211,-146.58 4211,-162.19 4211,-173.82"/>
<polygon fill="black" stroke="black" points="4214.5,-133.2 4211,-123.2 4207.5,-133.2 4214.5,-133.2"/>
<text text-anchor="middle" x="4314.5" y="-144.8" font-family="Times,serif" font-size="14.00">षष्ठी_तत्पुरुषः</text>
</g>
<!-- Node1_2&#45;&gt;Node1_3 -->
<g id="edge2" class="edge">
<title>Node1_2&#45;&gt;Node1_3</title>
<path fill="none" stroke="black" d="M4202.5,-219.49C4199.11,-227.57 4194.65,-236.12 4189,-243 4183.22,-250.04 4175.68,-256.3 4168.21,-261.51"/>
<polygon fill="black" stroke="black" points="4205.82,-220.61 4206.11,-210.02 4199.28,-218.12 4205.82,-220.61"/>
<text text-anchor="middle" x="4307.5" y="-231.8" font-family="Times,serif" font-size="14.00">तृतीया_तत्पुरुषः</text>
</g>
<!-- Node4_1 -->
<g id="node28" class="node">
<title>Node4_1</title>
<ellipse fill="#ffff00" stroke="#ffff00" cx="3410" cy="-105" rx="63.09" ry="18"/>
<text text-anchor="middle" x="3410" y="-101.3" font-family="Times,serif" font-size="14.00">महा&#45;(4.1)</text>
</g>
<!-- Node4_1&#45;&gt;Node4_2 -->
<g id="edge5" class="edge">
<title>Node4_1&#45;&gt;Node4_2</title>
<path fill="none" stroke="black" d="M3410,-133.27C3410,-146.58 3410,-162.19 3410,-173.82"/>
<polygon fill="black" stroke="black" points="3413.5,-133.2 3410,-123.2 3406.5,-133.2 3413.5,-133.2"/>
<text text-anchor="middle" x="3481.5" y="-144.8" font-family="Times,serif" font-size="14.00">बहुव्रीहिः</text>
</g>
<!-- Node6_1 -->
<g id="node29" class="node">
<title>Node6_1</title>
<ellipse fill="#ffff00" stroke="#ffff00" cx="3647" cy="-192" rx="90.98" ry="18"/>
<text text-anchor="middle" x="3647" y="-188.3" font-family="Times,serif" font-size="14.00">राक्षस&#45;(6.1)</text>
</g>
<!-- Node6_1&#45;&gt;Node6_2 -->
<g id="edge8" class="edge">
<title>Node6_1&#45;&gt;Node6_2</title>
<path fill="none" stroke="black" d="M3592.32,-211.34C3578.95,-216.31 3564.81,-222 3552,-228 3539.92,-233.66 3538.14,-237.48 3526,-243 3509.64,-250.44 3491.21,-257.22 3474.55,-262.8"/>
<polygon fill="black" stroke="black" points="3593.7,-214.56 3601.89,-207.84 3591.3,-207.98 3593.7,-214.56"/>
<text text-anchor="middle" x="3655.5" y="-231.8" font-family="Times,serif" font-size="14.00">षष्ठी_तत्पुरुषः</text>
</g>
<!-- Node8_1 -->
<g id="node30" class="node">
<title>Node8_1</title>
<ellipse fill="#ffff00" stroke="#ffff00" cx="2170" cy="-105" rx="90.98" ry="18"/>
<text text-anchor="middle" x="2170" y="-101.3" font-family="Times,serif" font-size="14.00">इन्द्र&#45;(8.1)</text>
</g>
<!-- Node8_2 -->
<g id="node31" class="node">
<title>Node8_2</title>
<ellipse fill="#ffff00" stroke="#ffff00" cx="2170" cy="-192" rx="72.29" ry="18"/>
<text text-anchor="middle" x="2170" y="-188.3" font-family="Times,serif" font-size="14.00">ध्वज&#45;(8.2)</text>
</g>
<!-- Node8_1&#45;&gt;Node8_2 -->
<g id="edge11" class="edge">
<title>Node8_1&#45;&gt;Node8_2</title>
<path fill="none" stroke="black" d="M2170,-133.27C2170,-146.58 2170,-162.19 2170,-173.82"/>
<polygon fill="black" stroke="black" points="2173.5,-133.2 2170,-123.2 2166.5,-133.2 2173.5,-133.2"/>
<text text-anchor="middle" x="2273.5" y="-144.8" font-family="Times,serif" font-size="14.00">षष्ठी_तत्पुरुषः</text>
</g>
<!-- Node8_2&#45;&gt;Node8_3 -->
<g id="edge12" class="edge">
<title>Node8_2&#45;&gt;Node8_3</title>
<path fill="none" stroke="black" d="M2170,-220.27C2170,-233.58 2170,-249.19 2170,-260.82"/>
<polygon fill="black" stroke="black" points="2173.5,-220.2 2170,-210.2 2166.5,-220.2 2173.5,-220.2"/>
<text text-anchor="middle" x="2234.5" y="-231.8" font-family="Times,serif" font-size="14.00">कर्मधारयः</text>
</g>
<!-- Node9_1 -->
<g id="node32" class="node">
<title>Node9_1</title>
<ellipse fill="#ffff00" stroke="#ffff00" cx="2403" cy="-18" rx="81.49" ry="18"/>
<text text-anchor="middle" x="2403" y="-14.3" font-family="Times,serif" font-size="14.00">ऐरावत&#45;(9.1)</text>
</g>
<!-- Node9_2 -->
<g id="node33" class="node">
<title>Node9_2</title>
<ellipse fill="#ffff00" stroke="#ffff00" cx="2403" cy="-105" rx="81.49" ry="18"/>
<text text-anchor="middle" x="2403" y="-101.3" font-family="Times,serif" font-size="14.00">विषाण&#45;(9.2)</text>
</g>
<!-- Node9_1&#45;&gt;Node9_2 -->
<g id="edge14" class="edge">
<title>Node9_1&#45;&gt;Node9_2</title>
<path fill="none" stroke="black" d="M2403,-46.27C2403,-59.58 2403,-75.19 2403,-86.82"/>
<polygon fill="black" stroke="black" points="2406.5,-46.2 2403,-36.2 2399.5,-46.2 2406.5,-46.2"/>
<text text-anchor="middle" x="2506.5" y="-57.8" font-family="Times,serif" font-size="14.00">षष्ठी_तत्पुरुषः</text>
</g>
<!-- Node9_3 -->
<g id="node34" class="node">
<title>Node9_3</title>
<ellipse fill="#40e0d0" stroke="#40e0d0" cx="2429" cy="-192" rx="87.99" ry="18"/>
<text text-anchor="middle" x="2429" y="-188.3" font-family="Times,serif" font-size="14.00">अग्रैः(9.3)</text>
</g>
<!-- Node9_2&#45;&gt;Node9_3 -->
<g id="edge15" class="edge">
<title>Node9_2&#45;&gt;Node9_3</title>
<path fill="none" stroke="black" d="M2411.22,-132.87C2415.32,-146.27 2420.15,-162.08 2423.75,-173.82"/>
<polygon fill="black" stroke="black" points="2414.53,-131.74 2408.26,-123.2 2407.84,-133.79 2414.53,-131.74"/>
<text text-anchor="middle" x="2520.5" y="-144.8" font-family="Times,serif" font-size="14.00">षष्ठी_तत्पुरुषः</text>
</g>
<!-- Node9_3&#45;&gt;Node10_3 -->
<g id="edge16" class="edge">
<title>Node9_3&#45;&gt;Node10_3</title>
<path fill="none" stroke="black" d="M2459.96,-215.3C2480,-229.73 2505.66,-248.22 2523.92,-261.37"/>
<polygon fill="black" stroke="black" points="2461.91,-212.39 2451.75,-209.39 2457.82,-218.07 2461.91,-212.39"/>
<text text-anchor="middle" x="2531" y="-231.8" font-family="Times,serif" font-size="14.00">करणम्</text>
</g>
<!-- Node10_1 -->
<g id="node35" class="node">
<title>Node10_1</title>
<ellipse fill="#ffff00" stroke="#ffff00" cx="2633" cy="-105" rx="87.18" ry="18"/>
<text text-anchor="middle" x="2633" y="-101.3" font-family="Times,serif" font-size="14.00">आपीडन&#45;(10.1)</text>
</g>
<!-- Node10_2 -->
<g id="node36" class="node">
<title>Node10_2</title>
<ellipse fill="#ffff00" stroke="#ffff00" cx="2631" cy="-192" rx="68.79" ry="18"/>
<text text-anchor="middle" x="2631" y="-188.3" font-family="Times,serif" font-size="14.00">कृत&#45;(10.2)</text>
</g>
<!-- Node10_1&#45;&gt;Node10_2 -->
<g id="edge17" class="edge">
<title>Node10_1&#45;&gt;Node10_2</title>
<path fill="none" stroke="black" d="M2632.36,-133.27C2632.05,-146.58 2631.68,-162.19 2631.4,-173.82"/>
<polygon fill="black" stroke="black" points="2635.86,-133.28 2632.6,-123.2 2628.86,-133.12 2635.86,-133.28"/>
<text text-anchor="middle" x="2742.5" y="-144.8" font-family="Times,serif" font-size="14.00">तृतीया_तत्पुरुषः</text>
</g>
<!-- Node10_2&#45;&gt;Node10_3 -->
<g id="edge18" class="edge">
<title>Node10_2&#45;&gt;Node10_3</title>
<path fill="none" stroke="black" d="M2613.79,-218.38C2607.67,-226.63 2600.44,-235.56 2593,-243 2586.33,-249.67 2578.36,-256.16 2570.94,-261.71"/>
<polygon fill="black" stroke="black" points="2616.72,-220.29 2619.73,-210.13 2611.04,-216.2 2616.72,-220.29"/>
<text text-anchor="middle" x="2676.5" y="-231.8" font-family="Times,serif" font-size="14.00">बहुव्रीहिः</text>
</g>
<!-- Node11_1 -->
<g id="node37" class="node">
<title>Node11_1</title>
<ellipse fill="#ffff00" stroke="#ffff00" cx="2892" cy="-105" rx="77.99" ry="18"/>
<text text-anchor="middle" x="2892" y="-101.3" font-family="Times,serif" font-size="14.00">वज्र&#45;(11.1)</text>
</g>
<!-- Node11_2 -->
<g id="node38" class="node">
<title>Node11_2</title>
<ellipse fill="#ffff00" stroke="#ffff00" cx="2896" cy="-192" rx="115.08" ry="18"/>
<text text-anchor="middle" x="2896" y="-188.3" font-family="Times,serif" font-size="14.00">उल्लिखित&#45;(11.2)</text>
</g>
<!-- Node11_1&#45;&gt;Node11_2 -->
<g id="edge20" class="edge">
<title>Node11_1&#45;&gt;Node11_2</title>
<path fill="none" stroke="black" d="M2892.22,-133.35C2892.37,-140.71 2892.61,-148.66 2893,-156 2893.31,-161.85 2893.81,-168.23 2894.31,-173.93"/>
<polygon fill="black" stroke="black" points="2895.72,-133.08 2892.07,-123.13 2888.72,-133.19 2895.72,-133.08"/>
<text text-anchor="middle" x="3003.5" y="-144.8" font-family="Times,serif" font-size="14.00">तृतीया_तत्पुरुषः</text>
</g>
<!-- Node11_2&#45;&gt;Node11_3 -->
<g id="edge21" class="edge">
<title>Node11_2&#45;&gt;Node11_3</title>
<path fill="none" stroke="black" d="M2898.65,-220.39C2900.13,-228.01 2902.43,-236.08 2906,-243 2909.37,-249.53 2914.33,-255.71 2919.37,-261"/>
<polygon fill="black" stroke="black" points="2902.1,-219.79 2897.1,-210.45 2895.18,-220.87 2902.1,-219.79"/>
<text text-anchor="middle" x="2977.5" y="-231.8" font-family="Times,serif" font-size="14.00">बहुव्रीहिः</text>
</g>
<!-- Node12_1 -->
<g id="node39" class="node">
<title>Node12_1</title>
<ellipse fill="#ffff00" stroke="#ffff00" cx="3136" cy="-105" rx="96.68" ry="18"/>
<text text-anchor="middle" x="3136" y="-101.3" font-family="Times,serif" font-size="14.00">विष्णु&#45;(12.1)</text>
</g>
<!-- Node12_2 -->
<g id="node40" class="node">
<title>Node12_2</title>
<ellipse fill="#ffff00" stroke="#ffff00" cx="3123" cy="-192" rx="77.99" ry="18"/>
<text text-anchor="middle" x="3123" y="-188.3" font-family="Times,serif" font-size="14.00">चक्र&#45;(12.2)</text>
</g>
<!-- Node12_1&#45;&gt;Node12_2 -->
<g id="edge23" class="edge">
<title>Node12_1&#45;&gt;Node12_2</title>
<path fill="none" stroke="black" d="M3131.83,-133.27C3129.79,-146.58 3127.41,-162.19 3125.63,-173.82"/>
<polygon fill="black" stroke="black" points="3135.32,-133.62 3133.37,-123.2 3128.4,-132.56 3135.32,-133.62"/>
<text text-anchor="middle" x="3233.5" y="-144.8" font-family="Times,serif" font-size="14.00">षष्ठी_तत्पुरुषः</text>
</g>
<!-- Node12_2&#45;&gt;Node12_3 -->
<g id="edge24" class="edge">
<title>Node12_2&#45;&gt;Node12_3</title>
<path fill="none" stroke="black" d="M3083.9,-214.8C3074.04,-223.13 3068,-233.03 3075,-243 3081.79,-252.67 3091.53,-259.68 3102.24,-264.76"/>
<polygon fill="black" stroke="black" points="3086.09,-217.54 3092.03,-208.77 3081.91,-211.92 3086.09,-217.54"/>
<text text-anchor="middle" x="3185.5" y="-231.8" font-family="Times,serif" font-size="14.00">तृतीया_तत्पुरुषः</text>
</g>
<!-- Node14_1 -->
<g id="node41" class="node">
<title>Node14_1</title>
<ellipse fill="#ffff00" stroke="#ffff00" cx="326" cy="-192" rx="105.88" ry="18"/>
<text text-anchor="middle" x="326" y="-188.3" font-family="Times,serif" font-size="14.00">समसुजात&#45;(14.1)</text>
</g>
<!-- Node14_1&#45;&gt;Node14_2 -->
<g id="edge27" class="edge">
<title>Node14_1&#45;&gt;Node14_2</title>
<path fill="none" stroke="black" d="M310.8,-218.67C304.82,-227.22 297.37,-236.27 289,-243 278.36,-251.56 265.3,-258.49 252.92,-263.85"/>
<polygon fill="black" stroke="black" points="313.89,-220.34 316.48,-210.06 308.05,-216.48 313.89,-220.34"/>
<text text-anchor="middle" x="375.5" y="-231.8" font-family="Times,serif" font-size="14.00">बहुव्रीहिः</text>
</g>
<!-- Node16_1 -->
<g id="node42" class="node">
<title>Node16_1</title>
<ellipse fill="#ffff00" stroke="#ffff00" cx="881" cy="-192" rx="59.59" ry="18"/>
<text text-anchor="middle" x="881" y="-188.3" font-family="Times,serif" font-size="14.00">बल&#45;(16.1)</text>
</g>
<!-- Node16_1&#45;&gt;Node16_2 -->
<g id="edge30" class="edge">
<title>Node16_1&#45;&gt;Node16_2</title>
<path fill="none" stroke="black" d="M875.23,-220.3C875.05,-228.46 876.6,-236.85 882,-243 891.78,-254.15 933.44,-250.14 948,-253 964.25,-256.2 981.8,-260.24 997.74,-264.13"/>
<polygon fill="black" stroke="black" points="878.72,-220.59 876.24,-210.29 871.75,-219.88 878.72,-220.59"/>
<text text-anchor="middle" x="992.5" y="-231.8" font-family="Times,serif" font-size="14.00">तृतीया_तत्पुरुषः</text>
</g>
<!-- Node17_1 -->
<g id="node43" class="node">
<title>Node17_1</title>
<ellipse fill="#ffff00" stroke="#ffff00" cx="1293" cy="-192" rx="105.88" ry="18"/>
<text text-anchor="middle" x="1293" y="-188.3" font-family="Times,serif" font-size="14.00">सुलक्षण&#45;(17.1)</text>
</g>
<!-- Node17_1&#45;&gt;Node17_3 -->
<g id="edge32" class="edge">
<title>Node17_1&#45;&gt;Node17_3</title>
<path fill="none" stroke="black" d="M1290.11,-220.27C1288.7,-233.58 1287.05,-249.19 1285.82,-260.82"/>
<polygon fill="black" stroke="black" points="1293.61,-220.51 1291.18,-210.2 1286.65,-219.78 1293.61,-220.51"/>
<text text-anchor="middle" x="1361.5" y="-231.8" font-family="Times,serif" font-size="14.00">बहुव्रीहिः</text>
</g>
<!-- Node17_2 -->
<g id="node44" class="node">
<title>Node17_2</title>
<ellipse fill="#ffff00" stroke="#ffff00" cx="1109" cy="-192" rx="59.59" ry="18"/>
<text text-anchor="middle" x="1109" y="-188.3" font-family="Times,serif" font-size="14.00">नख&#45;(17.2)</text>
</g>
<!-- Node17_2&#45;&gt;Node17_3 -->
<g id="edge33" class="edge">
<title>Node17_2&#45;&gt;Node17_3</title>
<path fill="none" stroke="black" d="M1126.71,-217.51C1134.46,-226.68 1144.24,-236.46 1155,-243 1170.96,-252.7 1189.64,-259.76 1207.75,-264.88"/>
<polygon fill="black" stroke="black" points="1129.43,-215.3 1120.44,-209.69 1123.96,-219.68 1129.43,-215.3"/>
<text text-anchor="middle" x="1219.5" y="-231.8" font-family="Times,serif" font-size="14.00">द्वन्द्वः</text>
</g>
<!-- Node18_1 -->
<g id="node45" class="node">
<title>Node18_1</title>
<ellipse fill="#ffff00" stroke="#ffff00" cx="1541" cy="-105" rx="59.59" ry="18"/>
<text text-anchor="middle" x="1541" y="-101.3" font-family="Times,serif" font-size="14.00">सु&#45;(18.1)</text>
</g>
<!-- Node18_2 -->
<g id="node46" class="node">
<title>Node18_2</title>
<ellipse fill="#ffff00" stroke="#ffff00" cx="1541" cy="-192" rx="124.28" ry="18"/>
<text text-anchor="middle" x="1541" y="-188.3" font-family="Times,serif" font-size="14.00">अङ्गुलीयक&#45;(18.2)</text>
</g>
<!-- Node18_1&#45;&gt;Node18_2 -->
<g id="edge35" class="edge">
<title>Node18_1&#45;&gt;Node18_2</title>
<path fill="none" stroke="black" d="M1541,-133.27C1541,-146.58 1541,-162.19 1541,-173.82"/>
<polygon fill="black" stroke="black" points="1544.5,-133.2 1541,-123.2 1537.5,-133.2 1544.5,-133.2"/>
<text text-anchor="middle" x="1612.5" y="-144.8" font-family="Times,serif" font-size="14.00">बहुव्रीहिः</text>
</g>
<!-- Node18_2&#45;&gt;Node18_3 -->
<g id="edge36" class="edge">
<title>Node18_2&#45;&gt;Node18_3</title>
<path fill="none" stroke="black" d="M1529.19,-219.72C1528.31,-222.48 1527.55,-225.27 1527,-228 1524.82,-238.72 1524.55,-251 1524.83,-260.71"/>
<polygon fill="black" stroke="black" points="1532.57,-220.66 1532.75,-210.07 1526.01,-218.24 1532.57,-220.66"/>
<text text-anchor="middle" x="1637.5" y="-231.8" font-family="Times,serif" font-size="14.00">तृतीया_तत्पुरुषः</text>
</g>
<!-- Node20_1 -->
<g id="node47" class="node">
<title>Node20_1</title>
<ellipse fill="#ffff00" stroke="#ffff00" cx="1770" cy="-192" rx="77.99" ry="18"/>
<text text-anchor="middle" x="1770" y="-188.3" font-family="Times,serif" font-size="14.00">परिघ&#45;(20.1)</text>
</g>
<!-- Node20_1&#45;&gt;Node20_2 -->
<g id="edge39" class="edge">
<title>Node20_1&#45;&gt;Node20_2</title>
<path fill="none" stroke="black" d="M1758.61,-219.4C1755.25,-227.04 1751.53,-235.37 1748,-243 1745.28,-248.89 1742.21,-255.28 1739.43,-260.97"/>
<polygon fill="black" stroke="black" points="1761.83,-220.76 1762.62,-210.2 1755.42,-217.96 1761.83,-220.76"/>
<text text-anchor="middle" x="1826.5" y="-231.8" font-family="Times,serif" font-size="14.00">बहुव्रीहिः</text>
</g>
<!-- Node22_1 -->
<g id="node48" class="node">
<title>Node22_1</title>
<ellipse fill="#ffff00" stroke="#ffff00" cx="640" cy="-105" rx="87.18" ry="18"/>
<text text-anchor="middle" x="640" y="-101.3" font-family="Times,serif" font-size="14.00">करिकर&#45;(22.1)</text>
</g>
<!-- Node22_2 -->
<g id="node49" class="node">
<title>Node22_2</title>
<ellipse fill="#93db70" stroke="#93db70" cx="640" cy="-192" rx="75.29" ry="18"/>
<text text-anchor="middle" x="640" y="-188.3" font-family="Times,serif" font-size="14.00">उपमौ(22.2)</text>
</g>
<!-- Node22_1&#45;&gt;Node22_2 -->
<g id="edge42" class="edge">
<title>Node22_1&#45;&gt;Node22_2</title>
<path fill="none" stroke="black" d="M640,-133.27C640,-146.58 640,-162.19 640,-173.82"/>
<polygon fill="black" stroke="black" points="643.5,-133.2 640,-123.2 636.5,-133.2 643.5,-133.2"/>
<text text-anchor="middle" x="704.5" y="-144.8" font-family="Times,serif" font-size="14.00">कर्मधारयः</text>
</g>
<!-- Node22_2&#45;&gt;Node23_1 -->
<g id="edge43" class="edge">
<title>Node22_2&#45;&gt;Node23_1</title>
<path fill="none" stroke="black" d="M640,-220.27C640,-233.58 640,-249.19 640,-260.82"/>
<polygon fill="black" stroke="black" points="643.5,-220.2 640,-210.2 636.5,-220.2 643.5,-220.2"/>
<text text-anchor="middle" x="669" y="-231.8" font-family="Times,serif" font-size="14.00">कर्म</text>
</g>
<!-- Node26_1 -->
<g id="node50" class="node">
<title>Node26_1</title>
<ellipse fill="#ffff00" stroke="#ffff00" cx="3865" cy="-105" rx="77.99" ry="18"/>
<text text-anchor="middle" x="3865" y="-101.3" font-family="Times,serif" font-size="14.00">पञ्च&#45;(26.1)</text>
</g>
<!-- Node26_1&#45;&gt;Node26_2 -->
<g id="edge47" class="edge">
<title>Node26_1&#45;&gt;Node26_2</title>
<path fill="none" stroke="black" d="M3865,-133.27C3865,-146.58 3865,-162.19 3865,-173.82"/>
<polygon fill="black" stroke="black" points="3868.5,-133.2 3865,-123.2 3861.5,-133.2 3868.5,-133.2"/>
<text text-anchor="middle" x="3936.5" y="-144.8" font-family="Times,serif" font-size="14.00">बहुव्रीहिः</text>
</g>
<!-- Node27_1 -->
<g id="node51" class="node">
<title>Node27_1</title>
<ellipse fill="#ff99ff" stroke="#ff99ff" cx="4033" cy="-192" rx="56.59" ry="18"/>
<text text-anchor="middle" x="4033" y="-188.3" font-family="Times,serif" font-size="14.00">इव(27.1)</text>
</g>
<!-- Node27_1&#45;&gt;Node28_1 -->
<g id="edge49" class="edge">
<title>Node27_1&#45;&gt;Node28_1</title>
<path fill="none" stroke="black" d="M4010.52,-216.55C4000.43,-225.95 3987.91,-236.14 3975,-243 3953.48,-254.43 3927.91,-262.37 3905.24,-267.76"/>
<polygon fill="black" stroke="black" points="4012.96,-219.06 4017.72,-209.59 4008.1,-214.03 4012.96,-219.06"/>
<text text-anchor="middle" x="4084" y="-231.8" font-family="Times,serif" font-size="14.00">उपमान_द्योतकः</text>
</g>
</g>
</svg>
