<?xml version="1.0" encoding="UTF-8" standalone="no"?>
<!DOCTYPE svg PUBLIC "-//W3C//DTD SVG 1.1//EN"
 "http://www.w3.org/Graphics/SVG/1.1/DTD/svg11.dtd">
<!-- Generated by graphviz version 2.43.0 (0)
 -->
<!-- Title: G Pages: 1 -->
<svg width="2392pt" height="337pt"
 viewBox="0.00 0.00 2392.39 337.00" xmlns="http://www.w3.org/2000/svg" xmlns:xlink="http://www.w3.org/1999/xlink">
<g id="graph0" class="graph" transform="scale(1 1) rotate(0) translate(4 333)">
<title>G</title>
<polygon fill="#fffacd" stroke="transparent" points="-4,4 -4,-333 2388.39,-333 2388.39,4 -4,4"/>
<g id="clust1" class="cluster">
<title>cluster_1</title>
<polygon fill="#fffacd" stroke="black" points="8,-182 8,-321 292,-321 292,-182 8,-182"/>
</g>
<g id="clust2" class="cluster">
<title>cluster_2</title>
<polygon fill="#fffacd" stroke="black" points="1182,-182 1182,-321 1687,-321 1687,-182 1182,-182"/>
</g>
<g id="clust3" class="cluster">
<title>cluster_3</title>
<polygon fill="#fffacd" stroke="black" points="649,-8 649,-147 909,-147 909,-8 649,-8"/>
</g>
<!-- Node1_1 -->
<g id="node1" class="node">
<title>Node1_1</title>
<ellipse fill="#ff1975" stroke="#ff1975" cx="150" cy="-208" rx="133.78" ry="18"/>
<text text-anchor="middle" x="150" y="-204.3" font-family="Times,serif" font-size="14.00">आस्फोटयामास(1.1)</text>
</g>
<!-- Node2_1 -->
<g id="node2" class="node">
<title>Node2_1</title>
<ellipse fill="#ff1975" stroke="#ff1975" cx="187" cy="-295" rx="96.68" ry="18"/>
<text text-anchor="middle" x="187" y="-291.3" font-family="Times,serif" font-size="14.00">चुचुम्ब(2.1)</text>
</g>
<!-- Node1_1&#45;&gt;Node2_1 -->
<g id="edge1" class="edge">
<title>Node1_1&#45;&gt;Node2_1</title>
<path fill="none" stroke="black" d="M161.53,-235.48C167.39,-248.96 174.36,-264.96 179.52,-276.82"/>
<polygon fill="black" stroke="black" points="164.69,-233.97 157.49,-226.2 158.27,-236.77 164.69,-233.97"/>
<text text-anchor="middle" x="235.5" y="-247.8" font-family="Times,serif" font-size="14.00">समुच्चितः</text>
</g>
<!-- Node5_1 -->
<g id="node3" class="node">
<title>Node5_1</title>
<ellipse fill="#ff1975" stroke="#ff1975" cx="1425" cy="-208" rx="96.68" ry="18"/>
<text text-anchor="middle" x="1425" y="-204.3" font-family="Times,serif" font-size="14.00">चिक्रीड(5.1)</text>
</g>
<!-- Node4_1 -->
<g id="node4" class="node">
<title>Node4_1</title>
<ellipse fill="#ff1975" stroke="#ff1975" cx="1333" cy="-295" rx="78.79" ry="18"/>
<text text-anchor="middle" x="1333" y="-291.3" font-family="Times,serif" font-size="14.00">ननन्द(4.1)</text>
</g>
<!-- Node5_1&#45;&gt;Node4_1 -->
<g id="edge3" class="edge">
<title>Node5_1&#45;&gt;Node4_1</title>
<path fill="none" stroke="black" d="M1402.1,-233.46C1394.04,-241.77 1384.8,-250.97 1376,-259 1369.17,-265.23 1361.42,-271.7 1354.39,-277.37"/>
<polygon fill="black" stroke="black" points="1404.73,-235.78 1409.12,-226.14 1399.67,-230.93 1404.73,-235.78"/>
<text text-anchor="middle" x="1455.5" y="-247.8" font-family="Times,serif" font-size="14.00">समुच्चितः</text>
</g>
<!-- Node6_1 -->
<g id="node5" class="node">
<title>Node6_1</title>
<ellipse fill="#ff1975" stroke="#ff1975" cx="1250" cy="-208" rx="59.59" ry="18"/>
<text text-anchor="middle" x="1250" y="-204.3" font-family="Times,serif" font-size="14.00">जगौ(6.1)</text>
</g>
<!-- Node6_1&#45;&gt;Node4_1 -->
<g id="edge4" class="edge">
<title>Node6_1&#45;&gt;Node4_1</title>
<path fill="none" stroke="black" d="M1242.38,-236.15C1241.67,-244.08 1242.55,-252.38 1247,-259 1254.2,-269.7 1265.3,-277.13 1277.15,-282.29"/>
<polygon fill="black" stroke="black" points="1245.86,-236.57 1244.06,-226.12 1238.96,-235.41 1245.86,-236.57"/>
<text text-anchor="middle" x="1311.5" y="-247.8" font-family="Times,serif" font-size="14.00">समुच्चितः</text>
</g>
<!-- Node7_1 -->
<g id="node6" class="node">
<title>Node7_1</title>
<ellipse fill="#ff1975" stroke="#ff1975" cx="1609" cy="-208" rx="69.59" ry="18"/>
<text text-anchor="middle" x="1609" y="-204.3" font-family="Times,serif" font-size="14.00">जगाम(7.1)</text>
</g>
<!-- Node7_1&#45;&gt;Node4_1 -->
<g id="edge5" class="edge">
<title>Node7_1&#45;&gt;Node4_1</title>
<path fill="none" stroke="black" d="M1577.98,-230.81C1562.43,-240.8 1542.91,-251.96 1524,-259 1485.62,-273.29 1440.64,-281.9 1403.98,-287.01"/>
<polygon fill="black" stroke="black" points="1580.22,-233.53 1586.65,-225.1 1576.37,-227.68 1580.22,-233.53"/>
<text text-anchor="middle" x="1619.5" y="-247.8" font-family="Times,serif" font-size="14.00">समुच्चितः</text>
</g>
<!-- Node13_1 -->
<g id="node7" class="node">
<title>Node13_1</title>
<ellipse fill="#93db70" stroke="#93db70" cx="779" cy="-34" rx="93.68" ry="18"/>
<text text-anchor="middle" x="779" y="-30.3" font-family="Times,serif" font-size="14.00">स्वाम्(13.1)</text>
</g>
<!-- Node14_1 -->
<g id="node8" class="node">
<title>Node14_1</title>
<ellipse fill="#93db70" stroke="#93db70" cx="779" cy="-121" rx="121.58" ry="18"/>
<text text-anchor="middle" x="779" y="-117.3" font-family="Times,serif" font-size="14.00">प्रकृतिम्(14.1)</text>
</g>
<!-- Node13_1&#45;&gt;Node14_1 -->
<g id="edge9" class="edge">
<title>Node13_1&#45;&gt;Node14_1</title>
<path fill="none" stroke="black" d="M779,-62.27C779,-75.58 779,-91.19 779,-102.82"/>
<polygon fill="black" stroke="black" points="782.5,-62.2 779,-52.2 775.5,-62.2 782.5,-62.2"/>
<text text-anchor="middle" x="836.5" y="-73.8" font-family="Times,serif" font-size="14.00">विशेषणम्</text>
</g>
<!-- Node12_1 -->
<g id="node14" class="node">
<title>Node12_1</title>
<ellipse fill="#00bfff" stroke="#00bfff" cx="779" cy="-208" rx="121.58" ry="18"/>
<text text-anchor="middle" x="779" y="-204.3" font-family="Times,serif" font-size="14.00">निदर्शयन्(12.1)</text>
</g>
<!-- Node14_1&#45;&gt;Node12_1 -->
<g id="edge10" class="edge">
<title>Node14_1&#45;&gt;Node12_1</title>
<path fill="none" stroke="black" d="M779,-149.27C779,-162.58 779,-178.19 779,-189.82"/>
<polygon fill="black" stroke="black" points="782.5,-149.2 779,-139.2 775.5,-149.2 782.5,-149.2"/>
<text text-anchor="middle" x="808" y="-160.8" font-family="Times,serif" font-size="14.00">कर्म</text>
</g>
<!-- Node3_1 -->
<g id="node9" class="node">
<title>Node3_1</title>
<ellipse fill="#93db70" stroke="#93db70" cx="399" cy="-208" rx="96.68" ry="18"/>
<text text-anchor="middle" x="399" y="-204.3" font-family="Times,serif" font-size="14.00">पुच्छम्(3.1)</text>
</g>
<!-- Node3_1&#45;&gt;Node2_1 -->
<g id="edge2" class="edge">
<title>Node3_1&#45;&gt;Node2_1</title>
<path fill="none" stroke="black" d="M362.24,-230.49C344.94,-240.03 323.8,-250.92 304,-259 284.08,-267.13 261.56,-274.32 241.64,-280.03"/>
<polygon fill="black" stroke="black" points="364.4,-233.28 371.42,-225.34 360.98,-227.18 364.4,-233.28"/>
<text text-anchor="middle" x="366" y="-247.8" font-family="Times,serif" font-size="14.00">कर्म</text>
</g>
<!-- Node8_1 -->
<g id="node10" class="node">
<title>Node8_1</title>
<ellipse fill="#93db70" stroke="#93db70" cx="2100" cy="-208" rx="115.88" ry="18"/>
<text text-anchor="middle" x="2100" y="-204.3" font-family="Times,serif" font-size="14.00">स्तम्भान्(8.1)</text>
</g>
<!-- Node10_1 -->
<g id="node11" class="node">
<title>Node10_1</title>
<ellipse fill="#ff1975" stroke="#ff1975" cx="2102" cy="-295" rx="93.68" ry="18"/>
<text text-anchor="middle" x="2102" y="-291.3" font-family="Times,serif" font-size="14.00">निपपात(10.1)</text>
</g>
<!-- Node8_1&#45;&gt;Node10_1 -->
<g id="edge6" class="edge">
<title>Node8_1&#45;&gt;Node10_1</title>
<path fill="none" stroke="black" d="M2100.64,-236.27C2100.95,-249.58 2101.32,-265.19 2101.6,-276.82"/>
<polygon fill="black" stroke="black" points="2104.14,-236.12 2100.4,-226.2 2097.14,-236.28 2104.14,-236.12"/>
<text text-anchor="middle" x="2130" y="-247.8" font-family="Times,serif" font-size="14.00">कर्म</text>
</g>
<!-- Node9_1 -->
<g id="node12" class="node">
<title>Node9_1</title>
<ellipse fill="#ff1975" stroke="#ff1975" cx="1903" cy="-295" rx="87.99" ry="18"/>
<text text-anchor="middle" x="1903" y="-291.3" font-family="Times,serif" font-size="14.00">अरोहत्(9.1)</text>
</g>
<!-- Node11_1 -->
<g id="node13" class="node">
<title>Node11_1</title>
<ellipse fill="#c6e2eb" stroke="#c6e2eb" cx="2309" cy="-208" rx="75.29" ry="18"/>
<text text-anchor="middle" x="2309" y="-204.3" font-family="Times,serif" font-size="14.00">भूमौ(11.1)</text>
</g>
<!-- Node11_1&#45;&gt;Node10_1 -->
<g id="edge7" class="edge">
<title>Node11_1&#45;&gt;Node10_1</title>
<path fill="none" stroke="black" d="M2262.91,-227.92C2225.9,-243.12 2174.57,-264.2 2139.92,-278.43"/>
<polygon fill="black" stroke="black" points="2264.55,-231.04 2272.47,-224 2261.89,-224.56 2264.55,-231.04"/>
<text text-anchor="middle" x="2295.5" y="-247.8" font-family="Times,serif" font-size="14.00">देशाधिकरणम्</text>
</g>
<!-- Node12_1&#45;&gt;Node4_1 -->
<g id="edge8" class="edge">
<title>Node12_1&#45;&gt;Node4_1</title>
<path fill="none" stroke="black" d="M785.42,-235.97C788.87,-244.72 794.11,-253.57 802,-259 838.34,-284.01 1116.04,-291.18 1254.71,-293.21"/>
<polygon fill="black" stroke="black" points="788.69,-234.71 782.23,-226.31 782.04,-236.9 788.69,-234.71"/>
<text text-anchor="middle" x="909" y="-247.8" font-family="Times,serif" font-size="14.00">वर्तमानसमानकालः</text>
</g>
<!-- Node15_1 -->
<g id="node15" class="node">
<title>Node15_1</title>
<ellipse fill="#87ceeb" stroke="#87ceeb" cx="1020" cy="-34" rx="102.88" ry="18"/>
<text text-anchor="middle" x="1020" y="-30.3" font-family="Times,serif" font-size="14.00">कपीनाम्(15.1)</text>
</g>
<!-- Node15_1&#45;&gt;Node14_1 -->
<g id="edge11" class="edge">
<title>Node15_1&#45;&gt;Node14_1</title>
<path fill="none" stroke="black" d="M974.66,-54.88C951.87,-64.54 923.7,-75.98 898,-85 877.48,-92.2 854.62,-99.17 834.48,-104.97"/>
<polygon fill="black" stroke="black" points="976.25,-58.01 984.07,-50.86 973.5,-51.57 976.25,-58.01"/>
<text text-anchor="middle" x="1028" y="-73.8" font-family="Times,serif" font-size="14.00">षष्ठीसम्बन्धः</text>
</g>
<!-- Node16_1 -->
<g id="node16" class="node">
<title>Node16_1</title>
<ellipse fill="#00bfff" stroke="#00bfff" cx="1837" cy="-208" rx="102.88" ry="18"/>
<text text-anchor="middle" x="1837" y="-204.3" font-family="Times,serif" font-size="14.00">हनुमान्(16.1)</text>
</g>
<!-- Node16_1&#45;&gt;Node2_1 -->
<g id="edge12" class="edge">
<title>Node16_1&#45;&gt;Node2_1</title>
<path fill="none" stroke="black" d="M1760.82,-224.68C1743.61,-229.66 1725.78,-236.01 1710,-244 1700.4,-248.86 1701.12,-255.35 1691,-259 1657.82,-270.95 609.31,-287.66 282.97,-292.58"/>
<polygon fill="black" stroke="black" points="1762.15,-227.94 1770.86,-221.9 1760.29,-221.19 1762.15,-227.94"/>
<text text-anchor="middle" x="1746" y="-247.8" font-family="Times,serif" font-size="14.00">कर्ता</text>
</g>
<!-- Node16_1&#45;&gt;Node4_1 -->
<g id="edge13" class="edge">
<title>Node16_1&#45;&gt;Node4_1</title>
<path fill="none" stroke="black" stroke-dasharray="1,5" d="M1815.12,-233.44C1804.61,-244.55 1792.83,-255.9 1786,-259 1721.36,-288.36 1523.66,-293.73 1411.98,-294.34"/>
<polygon fill="black" stroke="black" points="1817.89,-235.61 1822.13,-225.9 1812.76,-230.85 1817.89,-235.61"/>
<text text-anchor="middle" x="1840" y="-247.8" font-family="Times,serif" font-size="14.00">कर्ता</text>
</g>
<!-- Node16_1&#45;&gt;Node10_1 -->
<g id="edge15" class="edge">
<title>Node16_1&#45;&gt;Node10_1</title>
<path fill="none" stroke="black" stroke-dasharray="1,5" d="M1902.46,-225.78C1922.62,-231.24 1944.82,-237.57 1965,-244 1998.17,-254.57 2035.23,-268.21 2062.43,-278.57"/>
<polygon fill="black" stroke="black" points="1903.3,-222.38 1892.74,-223.16 1901.49,-229.14 1903.3,-222.38"/>
<text text-anchor="middle" x="2042" y="-247.8" font-family="Times,serif" font-size="14.00">कर्ता</text>
</g>
<!-- Node16_1&#45;&gt;Node9_1 -->
<g id="edge14" class="edge">
<title>Node16_1&#45;&gt;Node9_1</title>
<path fill="none" stroke="black" stroke-dasharray="1,5" d="M1870.03,-232.26C1874.02,-235.91 1877.8,-239.85 1881,-244 1888.53,-253.76 1894.08,-266.51 1897.73,-276.68"/>
<polygon fill="black" stroke="black" points="1872.1,-229.43 1862.2,-225.65 1867.58,-234.78 1872.1,-229.43"/>
<text text-anchor="middle" x="1925" y="-247.8" font-family="Times,serif" font-size="14.00">कर्ता</text>
</g>
<!-- Node17_1 -->
<g id="node17" class="node">
<title>Node17_1</title>
<ellipse fill="#ff99ff" stroke="#ff99ff" cx="568" cy="-208" rx="53.89" ry="18"/>
<text text-anchor="middle" x="568" y="-204.3" font-family="Times,serif" font-size="14.00">(च)(17.1)</text>
</g>
<!-- Node17_1&#45;&gt;Node2_1 -->
<g id="edge16" class="edge">
<title>Node17_1&#45;&gt;Node2_1</title>
<path fill="none" stroke="black" d="M521.84,-224.34C488.1,-235.15 441.07,-249.34 399,-259 354.28,-269.27 303.59,-277.75 263,-283.79"/>
<polygon fill="black" stroke="black" points="522.98,-227.65 531.42,-221.25 520.83,-220.99 522.98,-227.65"/>
<text text-anchor="middle" x="558.5" y="-247.8" font-family="Times,serif" font-size="14.00">समुच्चय_द्योतकः</text>
</g>
<!-- Node18_1 -->
<g id="node18" class="node">
<title>Node18_1</title>
<ellipse fill="#ff99ff" stroke="#ff99ff" cx="1016" cy="-208" rx="53.89" ry="18"/>
<text text-anchor="middle" x="1016" y="-204.3" font-family="Times,serif" font-size="14.00">(च)(18.1)</text>
</g>
<!-- Node18_1&#45;&gt;Node4_1 -->
<g id="edge17" class="edge">
<title>Node18_1&#45;&gt;Node4_1</title>
<path fill="none" stroke="black" d="M1018.39,-236.45C1020.5,-244.86 1024.28,-253.37 1031,-259 1063.82,-286.5 1176.35,-293.2 1254.37,-294.42"/>
<polygon fill="black" stroke="black" points="1021.81,-235.65 1016.57,-226.44 1014.92,-236.91 1021.81,-235.65"/>
<text text-anchor="middle" x="1134.5" y="-247.8" font-family="Times,serif" font-size="14.00">समुच्चय_द्योतकः</text>
</g>
</g>
</svg>
