<?xml version="1.0" encoding="UTF-8" standalone="no"?>
<!DOCTYPE svg PUBLIC "-//W3C//DTD SVG 1.1//EN"
 "http://www.w3.org/Graphics/SVG/1.1/DTD/svg11.dtd">
<!-- Generated by graphviz version 2.43.0 (0)
 -->
<!-- Title: G Pages: 1 -->
<svg width="2724pt" height="479pt"
 viewBox="0.00 0.00 2724.28 479.00" xmlns="http://www.w3.org/2000/svg" xmlns:xlink="http://www.w3.org/1999/xlink">
<g id="graph0" class="graph" transform="scale(1 1) rotate(0) translate(4 475)">
<title>G</title>
<polygon fill="#fffacd" stroke="transparent" points="-4,4 -4,-475 2720.28,-475 2720.28,4 -4,4"/>
<g id="clust1" class="cluster">
<title>cluster_1</title>
<polygon fill="#fffacd" stroke="black" points="313.84,-253 313.84,-392 2518.84,-392 2518.84,-253 313.84,-253"/>
</g>
<g id="clust2" class="cluster">
<title>cluster_2</title>
<polygon fill="#fffacd" stroke="black" points="322.84,-79 322.84,-218 544.84,-218 544.84,-79 322.84,-79"/>
</g>
<!-- Node1_2 -->
<g id="node1" class="node">
<title>Node1_2</title>
<ellipse fill="#93db70" stroke="#93db70" cx="688.84" cy="-279" rx="143.77" ry="18"/>
<text text-anchor="middle" x="688.84" y="-275.3" font-family="Times,serif" font-size="14.00">परिक्षिप्तम्(1.2)</text>
</g>
<!-- Node6_2 -->
<g id="node2" class="node">
<title>Node6_2</title>
<ellipse fill="#93db70" stroke="#93db70" cx="1168.84" cy="-366" rx="78.79" ry="18"/>
<text text-anchor="middle" x="1168.84" y="-362.3" font-family="Times,serif" font-size="14.00">आसनम्(6.2)</text>
</g>
<!-- Node1_2&#45;&gt;Node6_2 -->
<g id="edge2" class="edge">
<title>Node1_2&#45;&gt;Node6_2</title>
<path fill="none" stroke="black" d="M756.74,-298.08C797.68,-308.5 850.99,-321.23 898.84,-330 966.14,-342.34 1043.65,-351.91 1098.32,-357.91"/>
<polygon fill="black" stroke="black" points="757.44,-294.64 746.88,-295.55 755.7,-301.42 757.44,-294.64"/>
<text text-anchor="middle" x="956.34" y="-318.8" font-family="Times,serif" font-size="14.00">विशेषणम्</text>
</g>
<!-- Node5_1 -->
<g id="node17" class="node">
<title>Node5_1</title>
<ellipse fill="#ff1975" stroke="#ff1975" cx="258.84" cy="-453" rx="78.79" ry="18"/>
<text text-anchor="middle" x="258.84" y="-449.3" font-family="Times,serif" font-size="14.00">ददर्श(5.1)</text>
</g>
<!-- Node6_2&#45;&gt;Node5_1 -->
<g id="edge9" class="edge">
<title>Node6_2&#45;&gt;Node5_1</title>
<path fill="none" stroke="black" d="M1087.45,-374.6C911.25,-391.06 496.98,-429.76 330.23,-445.33"/>
<polygon fill="black" stroke="black" points="1087.8,-378.08 1097.44,-373.67 1087.15,-371.12 1087.8,-378.08"/>
<text text-anchor="middle" x="796.84" y="-405.8" font-family="Times,serif" font-size="14.00">कर्म</text>
</g>
<!-- Node3_1 -->
<g id="node3" class="node">
<title>Node3_1</title>
<ellipse fill="#93db70" stroke="#93db70" cx="956.84" cy="-279" rx="106.68" ry="18"/>
<text text-anchor="middle" x="956.84" y="-275.3" font-family="Times,serif" font-size="14.00">समप्रभम्(3.1)</text>
</g>
<!-- Node3_1&#45;&gt;Node6_2 -->
<g id="edge4" class="edge">
<title>Node3_1&#45;&gt;Node6_2</title>
<path fill="none" stroke="black" d="M992.76,-301.57C1009.68,-311.14 1030.38,-322.01 1049.84,-330 1071.46,-338.88 1096.12,-346.52 1117.38,-352.37"/>
<polygon fill="black" stroke="black" points="994.2,-298.36 983.79,-296.42 990.72,-304.43 994.2,-298.36"/>
<text text-anchor="middle" x="1107.34" y="-318.8" font-family="Times,serif" font-size="14.00">विशेषणम्</text>
</g>
<!-- Node4_3 -->
<g id="node4" class="node">
<title>Node4_3</title>
<ellipse fill="#93db70" stroke="#93db70" cx="1168.84" cy="-279" rx="87.99" ry="18"/>
<text text-anchor="middle" x="1168.84" y="-275.3" font-family="Times,serif" font-size="14.00">विततम्(4.3)</text>
</g>
<!-- Node4_3&#45;&gt;Node6_2 -->
<g id="edge7" class="edge">
<title>Node4_3&#45;&gt;Node6_2</title>
<path fill="none" stroke="black" d="M1168.84,-307.27C1168.84,-320.58 1168.84,-336.19 1168.84,-347.82"/>
<polygon fill="black" stroke="black" points="1172.34,-307.2 1168.84,-297.2 1165.34,-307.2 1172.34,-307.2"/>
<text text-anchor="middle" x="1226.34" y="-318.8" font-family="Times,serif" font-size="14.00">विशेषणम्</text>
</g>
<!-- Node9_1 -->
<g id="node5" class="node">
<title>Node9_1</title>
<ellipse fill="#93db70" stroke="#93db70" cx="1399.84" cy="-279" rx="124.58" ry="18"/>
<text text-anchor="middle" x="1399.84" y="-275.3" font-family="Times,serif" font-size="14.00">वीज्यमानम्(9.1)</text>
</g>
<!-- Node9_1&#45;&gt;Node6_2 -->
<g id="edge14" class="edge">
<title>Node9_1&#45;&gt;Node6_2</title>
<path fill="none" stroke="black" d="M1356.89,-300.79C1336.28,-310.36 1311.06,-321.45 1287.84,-330 1265.41,-338.26 1240.06,-345.94 1218.54,-351.99"/>
<polygon fill="black" stroke="black" points="1358.45,-303.93 1366.02,-296.52 1355.48,-297.59 1358.45,-303.93"/>
<text text-anchor="middle" x="1379.34" y="-318.8" font-family="Times,serif" font-size="14.00">विशेषणम्</text>
</g>
<!-- Node14_1 -->
<g id="node6" class="node">
<title>Node14_1</title>
<ellipse fill="#93db70" stroke="#93db70" cx="424.84" cy="-279" rx="102.88" ry="18"/>
<text text-anchor="middle" x="424.84" y="-275.3" font-family="Times,serif" font-size="14.00">जुष्टम्(14.1)</text>
</g>
<!-- Node14_1&#45;&gt;Node6_2 -->
<g id="edge19" class="edge">
<title>Node14_1&#45;&gt;Node6_2</title>
<path fill="none" stroke="black" d="M499.15,-295.09C556.49,-306.23 637.9,-320.97 709.84,-330 844.05,-346.85 1001.43,-356.72 1092.67,-361.47"/>
<polygon fill="black" stroke="black" points="499.57,-291.6 489.09,-293.12 498.23,-298.47 499.57,-291.6"/>
<text text-anchor="middle" x="767.34" y="-318.8" font-family="Times,serif" font-size="14.00">विशेषणम्</text>
</g>
<!-- Node16_1 -->
<g id="node7" class="node">
<title>Node16_1</title>
<ellipse fill="#93db70" stroke="#93db70" cx="1644.84" cy="-279" rx="102.88" ry="18"/>
<text text-anchor="middle" x="1644.84" y="-275.3" font-family="Times,serif" font-size="14.00">धूपितम्(16.1)</text>
</g>
<!-- Node16_1&#45;&gt;Node6_2 -->
<g id="edge22" class="edge">
<title>Node16_1&#45;&gt;Node6_2</title>
<path fill="none" stroke="black" d="M1582.44,-297.22C1542.26,-307.84 1488.76,-321.07 1440.84,-330 1372.97,-342.64 1294.72,-352.19 1239.63,-358.1"/>
<polygon fill="black" stroke="black" points="1583.59,-300.54 1592.36,-294.59 1581.8,-293.77 1583.59,-300.54"/>
<text text-anchor="middle" x="1565.34" y="-318.8" font-family="Times,serif" font-size="14.00">विशेषणम्</text>
</g>
<!-- Node17_3 -->
<g id="node8" class="node">
<title>Node17_3</title>
<ellipse fill="#93db70" stroke="#93db70" cx="1895.84" cy="-279" rx="130.78" ry="18"/>
<text text-anchor="middle" x="1895.84" y="-275.3" font-family="Times,serif" font-size="14.00">आस्तीर्णम्(17.3)</text>
</g>
<!-- Node17_3&#45;&gt;Node6_2 -->
<g id="edge25" class="edge">
<title>Node17_3&#45;&gt;Node6_2</title>
<path fill="none" stroke="black" d="M1818.89,-296.58C1765.28,-307.57 1692,-321.48 1626.84,-330 1493.21,-347.47 1336.41,-357.13 1245.28,-361.68"/>
<polygon fill="black" stroke="black" points="1819.91,-299.94 1829,-294.49 1818.5,-293.09 1819.91,-299.94"/>
<text text-anchor="middle" x="1773.34" y="-318.8" font-family="Times,serif" font-size="14.00">विशेषणम्</text>
</g>
<!-- Node18_2 -->
<g id="node9" class="node">
<title>Node18_2</title>
<ellipse fill="#93db70" stroke="#93db70" cx="2146.84" cy="-279" rx="102.88" ry="18"/>
<text text-anchor="middle" x="2146.84" y="-275.3" font-family="Times,serif" font-size="14.00">संवृतम्(18.2)</text>
</g>
<!-- Node18_2&#45;&gt;Node6_2 -->
<g id="edge27" class="edge">
<title>Node18_2&#45;&gt;Node6_2</title>
<path fill="none" stroke="black" d="M2070.62,-294.54C2007.63,-306 1915.75,-321.42 1834.84,-330 1622.99,-352.48 1371.62,-360.72 1246.98,-363.59"/>
<polygon fill="black" stroke="black" points="2071.26,-297.98 2080.47,-292.74 2070,-291.1 2071.26,-297.98"/>
<text text-anchor="middle" x="2003.34" y="-318.8" font-family="Times,serif" font-size="14.00">विशेषणम्</text>
</g>
<!-- Node22_1 -->
<g id="node10" class="node">
<title>Node22_1</title>
<ellipse fill="#93db70" stroke="#93db70" cx="2388.84" cy="-279" rx="121.58" ry="18"/>
<text text-anchor="middle" x="2388.84" y="-275.3" font-family="Times,serif" font-size="14.00">उपशोभितम्(22.1)</text>
</g>
<!-- Node22_1&#45;&gt;Node6_2 -->
<g id="edge32" class="edge">
<title>Node22_1&#45;&gt;Node6_2</title>
<path fill="none" stroke="black" d="M2306.53,-295.36C2241.23,-306.9 2147.52,-322.03 2064.84,-330 1763.84,-359.01 1403.75,-364.15 1247.55,-364.94"/>
<polygon fill="black" stroke="black" points="2307.52,-298.74 2316.75,-293.54 2306.3,-291.85 2307.52,-298.74"/>
<text text-anchor="middle" x="2238.34" y="-318.8" font-family="Times,serif" font-size="14.00">विशेषणम्</text>
</g>
<!-- Node13_1 -->
<g id="node11" class="node">
<title>Node13_1</title>
<ellipse fill="#40e0d0" stroke="#40e0d0" cx="433.84" cy="-105" rx="102.88" ry="18"/>
<text text-anchor="middle" x="433.84" y="-101.3" font-family="Times,serif" font-size="14.00">विविधैः(13.1)</text>
</g>
<!-- Node11_1 -->
<g id="node12" class="node">
<title>Node11_1</title>
<ellipse fill="#40e0d0" stroke="#40e0d0" cx="424.84" cy="-192" rx="93.68" ry="18"/>
<text text-anchor="middle" x="424.84" y="-188.3" font-family="Times,serif" font-size="14.00">गन्धैः(11.1)</text>
</g>
<!-- Node13_1&#45;&gt;Node11_1 -->
<g id="edge18" class="edge">
<title>Node13_1&#45;&gt;Node11_1</title>
<path fill="none" stroke="black" d="M430.95,-133.27C429.54,-146.58 427.89,-162.19 426.66,-173.82"/>
<polygon fill="black" stroke="black" points="434.45,-133.51 432.02,-123.2 427.49,-132.78 434.45,-133.51"/>
<text text-anchor="middle" x="487.34" y="-144.8" font-family="Times,serif" font-size="14.00">विशेषणम्</text>
</g>
<!-- Node11_1&#45;&gt;Node14_1 -->
<g id="edge16" class="edge">
<title>Node11_1&#45;&gt;Node14_1</title>
<path fill="none" stroke="black" d="M424.84,-220.27C424.84,-233.58 424.84,-249.19 424.84,-260.82"/>
<polygon fill="black" stroke="black" points="428.34,-220.2 424.84,-210.2 421.34,-220.2 428.34,-220.2"/>
<text text-anchor="middle" x="460.84" y="-231.8" font-family="Times,serif" font-size="14.00">करणम्</text>
</g>
<!-- Node1_1 -->
<g id="node13" class="node">
<title>Node1_1</title>
<ellipse fill="#ffff00" stroke="#ffff00" cx="674.84" cy="-192" rx="90.98" ry="18"/>
<text text-anchor="middle" x="674.84" y="-188.3" font-family="Times,serif" font-size="14.00">जातरूप&#45;(1.1)</text>
</g>
<!-- Node1_1&#45;&gt;Node1_2 -->
<g id="edge1" class="edge">
<title>Node1_1&#45;&gt;Node1_2</title>
<path fill="none" stroke="black" d="M673.74,-220.51C673.89,-227.87 674.47,-235.78 675.84,-243 676.98,-248.99 679.03,-255.29 681.18,-260.88"/>
<polygon fill="black" stroke="black" points="677.24,-220.28 673.77,-210.27 670.24,-220.26 677.24,-220.28"/>
<text text-anchor="middle" x="786.34" y="-231.8" font-family="Times,serif" font-size="14.00">तृतीया_तत्पुरुषः</text>
</g>
<!-- Node2_1 -->
<g id="node14" class="node">
<title>Node2_1</title>
<ellipse fill="#87ceeb" stroke="#87ceeb" cx="917.84" cy="-192" rx="78.79" ry="18"/>
<text text-anchor="middle" x="917.84" y="-188.3" font-family="Times,serif" font-size="14.00">भानोः(2.1)</text>
</g>
<!-- Node2_1&#45;&gt;Node3_1 -->
<g id="edge3" class="edge">
<title>Node2_1&#45;&gt;Node3_1</title>
<path fill="none" stroke="black" d="M918.02,-220.59C918.89,-228.13 920.62,-236.11 923.84,-243 926.96,-249.66 931.83,-255.87 936.88,-261.16"/>
<polygon fill="black" stroke="black" points="921.49,-220.12 917.28,-210.4 914.51,-220.62 921.49,-220.12"/>
<text text-anchor="middle" x="1027.34" y="-231.8" font-family="Times,serif" font-size="14.00">षष्ठी_तत्पुरुषः</text>
</g>
<!-- Node4_1 -->
<g id="node15" class="node">
<title>Node4_1</title>
<ellipse fill="#ffff00" stroke="#ffff00" cx="1070.84" cy="-105" rx="72.29" ry="18"/>
<text text-anchor="middle" x="1070.84" y="-101.3" font-family="Times,serif" font-size="14.00">अशोक&#45;(4.1)</text>
</g>
<!-- Node4_2 -->
<g id="node16" class="node">
<title>Node4_2</title>
<ellipse fill="#ffff00" stroke="#ffff00" cx="1086.84" cy="-192" rx="72.29" ry="18"/>
<text text-anchor="middle" x="1086.84" y="-188.3" font-family="Times,serif" font-size="14.00">माला&#45;(4.2)</text>
</g>
<!-- Node4_1&#45;&gt;Node4_2 -->
<g id="edge5" class="edge">
<title>Node4_1&#45;&gt;Node4_2</title>
<path fill="none" stroke="black" d="M1069.5,-133.56C1069.66,-140.91 1070.29,-148.82 1071.84,-156 1073.15,-162.07 1075.52,-168.41 1078,-173.99"/>
<polygon fill="black" stroke="black" points="1073,-133.34 1069.57,-123.31 1066,-133.29 1073,-133.34"/>
<text text-anchor="middle" x="1175.34" y="-144.8" font-family="Times,serif" font-size="14.00">षष्ठी_तत्पुरुषः</text>
</g>
<!-- Node4_2&#45;&gt;Node4_3 -->
<g id="edge6" class="edge">
<title>Node4_2&#45;&gt;Node4_3</title>
<path fill="none" stroke="black" d="M1117.47,-215.73C1122.12,-219.64 1126.73,-223.8 1130.84,-228 1140.75,-238.13 1150.4,-250.87 1157.49,-260.95"/>
<polygon fill="black" stroke="black" points="1119.67,-213 1109.69,-209.43 1115.26,-218.44 1119.67,-213"/>
<text text-anchor="middle" x="1253.34" y="-231.8" font-family="Times,serif" font-size="14.00">तृतीया_तत्पुरुषः</text>
</g>
<!-- Node6_1 -->
<g id="node18" class="node">
<title>Node6_1</title>
<ellipse fill="#ffff00" stroke="#ffff00" cx="240.84" cy="-279" rx="63.09" ry="18"/>
<text text-anchor="middle" x="240.84" y="-275.3" font-family="Times,serif" font-size="14.00">परम&#45;(6.1)</text>
</g>
<!-- Node6_1&#45;&gt;Node6_2 -->
<g id="edge8" class="edge">
<title>Node6_1&#45;&gt;Node6_2</title>
<path fill="none" stroke="black" d="M295.75,-294.15C344.32,-306.01 417.28,-322.2 481.84,-330 701.18,-356.5 962.28,-362.98 1090.24,-364.53"/>
<polygon fill="black" stroke="black" points="296.32,-290.69 285.77,-291.69 294.64,-297.48 296.32,-290.69"/>
<text text-anchor="middle" x="546.34" y="-318.8" font-family="Times,serif" font-size="14.00">कर्मधारयः</text>
</g>
<!-- Node7_1 -->
<g id="node19" class="node">
<title>Node7_1</title>
<ellipse fill="#00bfff" stroke="#00bfff" cx="96.84" cy="-366" rx="96.68" ry="18"/>
<text text-anchor="middle" x="96.84" y="-362.3" font-family="Times,serif" font-size="14.00">हनुमान्(7.1)</text>
</g>
<!-- Node7_1&#45;&gt;Node5_1 -->
<g id="edge10" class="edge">
<title>Node7_1&#45;&gt;Node5_1</title>
<path fill="none" stroke="black" d="M132.26,-388.61C147.62,-397.71 165.93,-408.22 182.84,-417 196.12,-423.9 211.02,-430.91 224.08,-436.83"/>
<polygon fill="black" stroke="black" points="133.97,-385.55 123.59,-383.43 130.38,-391.56 133.97,-385.55"/>
<text text-anchor="middle" x="218.84" y="-405.8" font-family="Times,serif" font-size="14.00">कर्ता</text>
</g>
<!-- Node8_1 -->
<g id="node20" class="node">
<title>Node8_1</title>
<ellipse fill="#ffff00" stroke="#ffff00" cx="1300.84" cy="-18" rx="63.09" ry="18"/>
<text text-anchor="middle" x="1300.84" y="-14.3" font-family="Times,serif" font-size="14.00">वाल&#45;(8.1)</text>
</g>
<!-- Node8_2 -->
<g id="node21" class="node">
<title>Node8_2</title>
<ellipse fill="#ffff00" stroke="#ffff00" cx="1300.84" cy="-105" rx="81.49" ry="18"/>
<text text-anchor="middle" x="1300.84" y="-101.3" font-family="Times,serif" font-size="14.00">व्यजन&#45;(8.2)</text>
</g>
<!-- Node8_1&#45;&gt;Node8_2 -->
<g id="edge11" class="edge">
<title>Node8_1&#45;&gt;Node8_2</title>
<path fill="none" stroke="black" d="M1300.84,-46.27C1300.84,-59.58 1300.84,-75.19 1300.84,-86.82"/>
<polygon fill="black" stroke="black" points="1304.34,-46.2 1300.84,-36.2 1297.34,-46.2 1304.34,-46.2"/>
<text text-anchor="middle" x="1404.34" y="-57.8" font-family="Times,serif" font-size="14.00">षष्ठी_तत्पुरुषः</text>
</g>
<!-- Node8_3 -->
<g id="node22" class="node">
<title>Node8_3</title>
<ellipse fill="#40e0d0" stroke="#40e0d0" cx="1283.84" cy="-192" rx="106.68" ry="18"/>
<text text-anchor="middle" x="1283.84" y="-188.3" font-family="Times,serif" font-size="14.00">हस्ताभिः(8.3)</text>
</g>
<!-- Node8_2&#45;&gt;Node8_3 -->
<g id="edge12" class="edge">
<title>Node8_2&#45;&gt;Node8_3</title>
<path fill="none" stroke="black" d="M1295.39,-133.27C1292.73,-146.58 1289.6,-162.19 1287.28,-173.82"/>
<polygon fill="black" stroke="black" points="1298.87,-133.69 1297.4,-123.2 1292.01,-132.32 1298.87,-133.69"/>
<text text-anchor="middle" x="1364.34" y="-144.8" font-family="Times,serif" font-size="14.00">बहुव्रीहिः</text>
</g>
<!-- Node8_3&#45;&gt;Node9_1 -->
<g id="edge13" class="edge">
<title>Node8_3&#45;&gt;Node9_1</title>
<path fill="none" stroke="black" d="M1343.02,-212.23C1351.87,-216.6 1360.48,-221.82 1367.84,-228 1378.42,-236.88 1386.69,-250.16 1392.17,-260.8"/>
<polygon fill="black" stroke="black" points="1344.3,-208.97 1333.75,-207.99 1341.39,-215.34 1344.3,-208.97"/>
<text text-anchor="middle" x="1416.84" y="-231.8" font-family="Times,serif" font-size="14.00">कर्ता</text>
</g>
<!-- Node10_1 -->
<g id="node23" class="node">
<title>Node10_1</title>
<ellipse fill="#ff99ff" stroke="#ff99ff" cx="1510.84" cy="-192" rx="102.88" ry="18"/>
<text text-anchor="middle" x="1510.84" y="-188.3" font-family="Times,serif" font-size="14.00">समन्ततः(10.1)</text>
</g>
<!-- Node10_1&#45;&gt;Node9_1 -->
<g id="edge15" class="edge">
<title>Node10_1&#45;&gt;Node9_1</title>
<path fill="none" stroke="black" d="M1496.11,-218.61C1490.29,-227.16 1483.03,-236.21 1474.84,-243 1465.66,-250.61 1454.54,-256.96 1443.72,-262.07"/>
<polygon fill="black" stroke="black" points="1499.17,-220.32 1501.63,-210.01 1493.28,-216.54 1499.17,-220.32"/>
<text text-anchor="middle" x="1566.34" y="-231.8" font-family="Times,serif" font-size="14.00">देशाधिकरणम्</text>
</g>
<!-- Node12_1 -->
<g id="node24" class="node">
<title>Node12_1</title>
<ellipse fill="#ff99ff" stroke="#ff99ff" cx="258.84" cy="-366" rx="47.39" ry="18"/>
<text text-anchor="middle" x="258.84" y="-362.3" font-family="Times,serif" font-size="14.00">च(12.1)</text>
</g>
<!-- Node12_1&#45;&gt;Node5_1 -->
<g id="edge17" class="edge">
<title>Node12_1&#45;&gt;Node5_1</title>
<path fill="none" stroke="black" d="M258.84,-394.27C258.84,-407.58 258.84,-423.19 258.84,-434.82"/>
<polygon fill="black" stroke="black" points="262.34,-394.2 258.84,-384.2 255.34,-394.2 262.34,-394.2"/>
<text text-anchor="middle" x="316.34" y="-405.8" font-family="Times,serif" font-size="14.00">सम्बन्धः</text>
</g>
<!-- Node15_1 -->
<g id="node25" class="node">
<title>Node15_1</title>
<ellipse fill="#ffff00" stroke="#ffff00" cx="1715.84" cy="-105" rx="59.59" ry="18"/>
<text text-anchor="middle" x="1715.84" y="-101.3" font-family="Times,serif" font-size="14.00">वर&#45;(15.1)</text>
</g>
<!-- Node15_2 -->
<g id="node26" class="node">
<title>Node15_2</title>
<ellipse fill="#40e0d0" stroke="#40e0d0" cx="1715.84" cy="-192" rx="84.49" ry="18"/>
<text text-anchor="middle" x="1715.84" y="-188.3" font-family="Times,serif" font-size="14.00">धूपेन(15.2)</text>
</g>
<!-- Node15_1&#45;&gt;Node15_2 -->
<g id="edge20" class="edge">
<title>Node15_1&#45;&gt;Node15_2</title>
<path fill="none" stroke="black" d="M1715.84,-133.27C1715.84,-146.58 1715.84,-162.19 1715.84,-173.82"/>
<polygon fill="black" stroke="black" points="1719.34,-133.2 1715.84,-123.2 1712.34,-133.2 1719.34,-133.2"/>
<text text-anchor="middle" x="1780.34" y="-144.8" font-family="Times,serif" font-size="14.00">कर्मधारयः</text>
</g>
<!-- Node15_2&#45;&gt;Node16_1 -->
<g id="edge21" class="edge">
<title>Node15_2&#45;&gt;Node16_1</title>
<path fill="none" stroke="black" d="M1695.33,-217.56C1683.71,-231.47 1669.47,-248.51 1659.08,-260.95"/>
<polygon fill="black" stroke="black" points="1698.09,-219.71 1701.81,-209.79 1692.72,-215.22 1698.09,-219.71"/>
<text text-anchor="middle" x="1719.84" y="-231.8" font-family="Times,serif" font-size="14.00">करणम्</text>
</g>
<!-- Node17_1 -->
<g id="node27" class="node">
<title>Node17_1</title>
<ellipse fill="#ffff00" stroke="#ffff00" cx="1914.84" cy="-105" rx="77.99" ry="18"/>
<text text-anchor="middle" x="1914.84" y="-101.3" font-family="Times,serif" font-size="14.00">परम्&#45;(17.1)</text>
</g>
<!-- Node17_2 -->
<g id="node28" class="node">
<title>Node17_2</title>
<ellipse fill="#ffff00" stroke="#ffff00" cx="1914.84" cy="-192" rx="96.68" ry="18"/>
<text text-anchor="middle" x="1914.84" y="-188.3" font-family="Times,serif" font-size="14.00">आस्तरण&#45;(17.2)</text>
</g>
<!-- Node17_1&#45;&gt;Node17_2 -->
<g id="edge23" class="edge">
<title>Node17_1&#45;&gt;Node17_2</title>
<path fill="none" stroke="black" d="M1914.84,-133.27C1914.84,-146.58 1914.84,-162.19 1914.84,-173.82"/>
<polygon fill="black" stroke="black" points="1918.34,-133.2 1914.84,-123.2 1911.34,-133.2 1918.34,-133.2"/>
<text text-anchor="middle" x="1979.34" y="-144.8" font-family="Times,serif" font-size="14.00">कर्मधारयः</text>
</g>
<!-- Node17_2&#45;&gt;Node17_3 -->
<g id="edge24" class="edge">
<title>Node17_2&#45;&gt;Node17_3</title>
<path fill="none" stroke="black" d="M1908.75,-220.27C1905.77,-233.58 1902.28,-249.19 1899.68,-260.82"/>
<polygon fill="black" stroke="black" points="1912.23,-220.72 1911,-210.2 1905.4,-219.2 1912.23,-220.72"/>
<text text-anchor="middle" x="2016.34" y="-231.8" font-family="Times,serif" font-size="14.00">तृतीया_तत्पुरुषः</text>
</g>
<!-- Node18_1 -->
<g id="node29" class="node">
<title>Node18_1</title>
<ellipse fill="#ffff00" stroke="#ffff00" cx="2144.84" cy="-192" rx="115.08" ry="18"/>
<text text-anchor="middle" x="2144.84" y="-188.3" font-family="Times,serif" font-size="14.00">आविकाजिन&#45;(18.1)</text>
</g>
<!-- Node18_1&#45;&gt;Node18_2 -->
<g id="edge26" class="edge">
<title>Node18_1&#45;&gt;Node18_2</title>
<path fill="none" stroke="black" d="M2145.35,-220.34C2145.49,-227.7 2145.66,-235.65 2145.84,-243 2145.98,-248.83 2146.16,-255.21 2146.32,-260.91"/>
<polygon fill="black" stroke="black" points="2148.84,-220.06 2145.15,-210.13 2141.84,-220.19 2148.84,-220.06"/>
<text text-anchor="middle" x="2256.34" y="-231.8" font-family="Times,serif" font-size="14.00">तृतीया_तत्पुरुषः</text>
</g>
<!-- Node19_1 -->
<g id="node30" class="node">
<title>Node19_1</title>
<ellipse fill="#40e0d0" stroke="#40e0d0" cx="2379.84" cy="-192" rx="93.68" ry="18"/>
<text text-anchor="middle" x="2379.84" y="-188.3" font-family="Times,serif" font-size="14.00">दामभिः(19.1)</text>
</g>
<!-- Node19_1&#45;&gt;Node22_1 -->
<g id="edge28" class="edge">
<title>Node19_1&#45;&gt;Node22_1</title>
<path fill="none" stroke="black" d="M2382.73,-220.27C2384.14,-233.58 2385.79,-249.19 2387.02,-260.82"/>
<polygon fill="black" stroke="black" points="2386.2,-219.78 2381.66,-210.2 2379.24,-220.51 2386.2,-219.78"/>
<text text-anchor="middle" x="2420.84" y="-231.8" font-family="Times,serif" font-size="14.00">करणम्</text>
</g>
<!-- Node20_1 -->
<g id="node31" class="node">
<title>Node20_1</title>
<ellipse fill="#ffff00" stroke="#ffff00" cx="2379.84" cy="-18" rx="59.59" ry="18"/>
<text text-anchor="middle" x="2379.84" y="-14.3" font-family="Times,serif" font-size="14.00">वर&#45;(20.1)</text>
</g>
<!-- Node20_2 -->
<g id="node32" class="node">
<title>Node20_2</title>
<ellipse fill="#87ceeb" stroke="#87ceeb" cx="2379.84" cy="-105" rx="130.78" ry="18"/>
<text text-anchor="middle" x="2379.84" y="-101.3" font-family="Times,serif" font-size="14.00">माल्यानाम्(20.2)</text>
</g>
<!-- Node20_1&#45;&gt;Node20_2 -->
<g id="edge29" class="edge">
<title>Node20_1&#45;&gt;Node20_2</title>
<path fill="none" stroke="black" d="M2379.84,-46.27C2379.84,-59.58 2379.84,-75.19 2379.84,-86.82"/>
<polygon fill="black" stroke="black" points="2383.34,-46.2 2379.84,-36.2 2376.34,-46.2 2383.34,-46.2"/>
<text text-anchor="middle" x="2444.34" y="-57.8" font-family="Times,serif" font-size="14.00">कर्मधारयः</text>
</g>
<!-- Node20_2&#45;&gt;Node19_1 -->
<g id="edge30" class="edge">
<title>Node20_2&#45;&gt;Node19_1</title>
<path fill="none" stroke="black" d="M2379.84,-133.27C2379.84,-146.58 2379.84,-162.19 2379.84,-173.82"/>
<polygon fill="black" stroke="black" points="2383.34,-133.2 2379.84,-123.2 2376.34,-133.2 2383.34,-133.2"/>
<text text-anchor="middle" x="2472.84" y="-144.8" font-family="Times,serif" font-size="14.00">षष्ठीसम्बन्धः</text>
</g>
<!-- Node21_1 -->
<g id="node33" class="node">
<title>Node21_1</title>
<ellipse fill="#ff99ff" stroke="#ff99ff" cx="2603.84" cy="-192" rx="112.38" ry="18"/>
<text text-anchor="middle" x="2603.84" y="-188.3" font-family="Times,serif" font-size="14.00">समन्तात्(21.1)</text>
</g>
<!-- Node21_1&#45;&gt;Node22_1 -->
<g id="edge31" class="edge">
<title>Node21_1&#45;&gt;Node22_1</title>
<path fill="none" stroke="black" d="M2554.35,-212.57C2516.52,-227.52 2465.02,-247.88 2429.56,-261.9"/>
<polygon fill="black" stroke="black" points="2555.64,-215.82 2563.65,-208.89 2553.07,-209.31 2555.64,-215.82"/>
<text text-anchor="middle" x="2544.84" y="-231.8" font-family="Times,serif" font-size="14.00">अवधिः</text>
</g>
</g>
</svg>
