<?xml version="1.0" encoding="UTF-8" standalone="no"?>
<!DOCTYPE svg PUBLIC "-//W3C//DTD SVG 1.1//EN"
 "http://www.w3.org/Graphics/SVG/1.1/DTD/svg11.dtd">
<!-- Generated by graphviz version 2.43.0 (0)
 -->
<!-- Title: G Pages: 1 -->
<svg width="1158pt" height="392pt"
 viewBox="0.00 0.00 1157.74 392.00" xmlns="http://www.w3.org/2000/svg" xmlns:xlink="http://www.w3.org/1999/xlink">
<g id="graph0" class="graph" transform="scale(1 1) rotate(0) translate(4 388)">
<title>G</title>
<polygon fill="#fffacd" stroke="transparent" points="-4,4 -4,-388 1153.74,-388 1153.74,4 -4,4"/>
<g id="clust1" class="cluster">
<title>cluster_1</title>
<polygon fill="#fffacd" stroke="black" points="571.74,-166 571.74,-305 901.74,-305 901.74,-166 571.74,-166"/>
</g>
<g id="clust2" class="cluster">
<title>cluster_2</title>
<polygon fill="#fffacd" stroke="black" points="169.74,-79 169.74,-218 429.74,-218 429.74,-79 169.74,-79"/>
</g>
<!-- Node1_1 -->
<g id="node1" class="node">
<title>Node1_1</title>
<ellipse fill="#00bfff" stroke="#00bfff" cx="842.74" cy="-192" rx="50.89" ry="18"/>
<text text-anchor="middle" x="842.74" y="-188.3" font-family="Times,serif" font-size="14.00">सः(1.1)</text>
</g>
<!-- Node2_2 -->
<g id="node2" class="node">
<title>Node2_2</title>
<ellipse fill="#00bfff" stroke="#00bfff" cx="727.74" cy="-279" rx="96.68" ry="18"/>
<text text-anchor="middle" x="727.74" y="-275.3" font-family="Times,serif" font-size="14.00">इन्द्रः(2.2)</text>
</g>
<!-- Node1_1&#45;&gt;Node2_2 -->
<g id="edge1" class="edge">
<title>Node1_1&#45;&gt;Node2_2</title>
<path fill="none" stroke="black" d="M813.36,-214.72C793.73,-229.23 768.3,-248.02 750.27,-261.35"/>
<polygon fill="black" stroke="black" points="815.69,-217.35 821.65,-208.59 811.53,-211.72 815.69,-217.35"/>
<text text-anchor="middle" x="850.24" y="-231.8" font-family="Times,serif" font-size="14.00">विशेषणम्</text>
</g>
<!-- Node3_1 -->
<g id="node7" class="node">
<title>Node3_1</title>
<ellipse fill="#ff1975" stroke="#ff1975" cx="727.74" cy="-366" rx="87.99" ry="18"/>
<text text-anchor="middle" x="727.74" y="-362.3" font-family="Times,serif" font-size="14.00">शुशुभे(3.1)</text>
</g>
<!-- Node2_2&#45;&gt;Node3_1 -->
<g id="edge3" class="edge">
<title>Node2_2&#45;&gt;Node3_1</title>
<path fill="none" stroke="black" d="M727.74,-307.27C727.74,-320.58 727.74,-336.19 727.74,-347.82"/>
<polygon fill="black" stroke="black" points="731.24,-307.2 727.74,-297.2 724.24,-307.2 731.24,-307.2"/>
<text text-anchor="middle" x="763.74" y="-318.8" font-family="Times,serif" font-size="14.00">कर्ता</text>
</g>
<!-- Node5_1 -->
<g id="node3" class="node">
<title>Node5_1</title>
<ellipse fill="#00bfff" stroke="#00bfff" cx="676.74" cy="-192" rx="96.68" ry="18"/>
<text text-anchor="middle" x="676.74" y="-188.3" font-family="Times,serif" font-size="14.00">परिवृतः(5.1)</text>
</g>
<!-- Node5_1&#45;&gt;Node2_2 -->
<g id="edge5" class="edge">
<title>Node5_1&#45;&gt;Node2_2</title>
<path fill="none" stroke="black" d="M646.58,-216.78C639.72,-225.04 635.95,-234.38 641.74,-243 648.22,-252.63 657.86,-259.61 668.36,-264.67"/>
<polygon fill="black" stroke="black" points="649.13,-219.18 653.56,-209.56 644.1,-214.31 649.13,-219.18"/>
<text text-anchor="middle" x="699.24" y="-231.8" font-family="Times,serif" font-size="14.00">विशेषणम्</text>
</g>
<!-- Node10_1 -->
<g id="node4" class="node">
<title>Node10_1</title>
<ellipse fill="#00bfff" stroke="#00bfff" cx="299.74" cy="-105" rx="121.58" ry="18"/>
<text text-anchor="middle" x="299.74" y="-101.3" font-family="Times,serif" font-size="14.00">परिकीर्णः(10.1)</text>
</g>
<!-- Node11_2 -->
<g id="node5" class="node">
<title>Node11_2</title>
<ellipse fill="#00bfff" stroke="#00bfff" cx="327.74" cy="-192" rx="93.68" ry="18"/>
<text text-anchor="middle" x="327.74" y="-188.3" font-family="Times,serif" font-size="14.00">द्विपः(11.2)</text>
</g>
<!-- Node10_1&#45;&gt;Node11_2 -->
<g id="edge10" class="edge">
<title>Node10_1&#45;&gt;Node11_2</title>
<path fill="none" stroke="black" d="M302.27,-133.17C303.46,-140.7 305.2,-148.79 307.74,-156 309.88,-162.07 313.07,-168.3 316.27,-173.79"/>
<polygon fill="black" stroke="black" points="305.72,-132.5 300.94,-123.04 298.78,-133.41 305.72,-132.5"/>
<text text-anchor="middle" x="365.24" y="-144.8" font-family="Times,serif" font-size="14.00">विशेषणम्</text>
</g>
<!-- Node11_2&#45;&gt;Node2_2 -->
<g id="edge12" class="edge">
<title>Node11_2&#45;&gt;Node2_2</title>
<path fill="none" stroke="black" d="M391.3,-209.25C432.38,-219.51 487.07,-232.72 535.74,-243 576.35,-251.58 622.06,-259.96 658.69,-266.37"/>
<polygon fill="black" stroke="black" points="391.98,-205.81 381.43,-206.77 390.28,-212.6 391.98,-205.81"/>
<text text-anchor="middle" x="585.74" y="-231.8" font-family="Times,serif" font-size="14.00">उपमानम्</text>
</g>
<!-- Node2_1 -->
<g id="node6" class="node">
<title>Node2_1</title>
<ellipse fill="#ffff00" stroke="#ffff00" cx="1002.74" cy="-192" rx="90.98" ry="18"/>
<text text-anchor="middle" x="1002.74" y="-188.3" font-family="Times,serif" font-size="14.00">राक्षस&#45;(2.1)</text>
</g>
<!-- Node2_1&#45;&gt;Node2_2 -->
<g id="edge2" class="edge">
<title>Node2_1&#45;&gt;Node2_2</title>
<path fill="none" stroke="black" d="M969.06,-214.83C952.4,-224.75 931.64,-235.85 911.74,-243 878.39,-254.99 840.08,-263.12 807.08,-268.5"/>
<polygon fill="black" stroke="black" points="971.15,-217.66 977.87,-209.47 967.51,-211.68 971.15,-217.66"/>
<text text-anchor="middle" x="1046.24" y="-231.8" font-family="Times,serif" font-size="14.00">षष्ठी_तत्पुरुषः</text>
</g>
<!-- Node4_1 -->
<g id="node8" class="node">
<title>Node4_1</title>
<ellipse fill="#40e0d0" stroke="#40e0d0" cx="811.74" cy="-105" rx="78.79" ry="18"/>
<text text-anchor="middle" x="811.74" y="-101.3" font-family="Times,serif" font-size="14.00">ताभिः(4.1)</text>
</g>
<!-- Node4_1&#45;&gt;Node5_1 -->
<g id="edge4" class="edge">
<title>Node4_1&#45;&gt;Node5_1</title>
<path fill="none" stroke="black" d="M799.22,-131.73C793.93,-140.44 787.04,-149.57 778.74,-156 766.38,-165.57 751.23,-172.62 736.43,-177.78"/>
<polygon fill="black" stroke="black" points="802.31,-133.38 804.16,-122.95 796.21,-129.95 802.31,-133.38"/>
<text text-anchor="middle" x="828.74" y="-144.8" font-family="Times,serif" font-size="14.00">कर्ता</text>
</g>
<!-- Node6_1 -->
<g id="node9" class="node">
<title>Node6_1</title>
<ellipse fill="#ff99ff" stroke="#ff99ff" cx="87.74" cy="-18" rx="87.99" ry="18"/>
<text text-anchor="middle" x="87.74" y="-14.3" font-family="Times,serif" font-size="14.00">स्वयम्(6.1)</text>
</g>
<!-- Node6_1&#45;&gt;Node10_1 -->
<g id="edge6" class="edge">
<title>Node6_1&#45;&gt;Node10_1</title>
<path fill="none" stroke="black" d="M123.29,-40.36C140.28,-49.98 161.14,-60.95 180.74,-69 199.77,-76.81 221.16,-83.67 240.5,-89.19"/>
<polygon fill="black" stroke="black" points="124.7,-37.13 114.29,-35.18 121.21,-43.2 124.7,-37.13"/>
<text text-anchor="middle" x="238.24" y="-57.8" font-family="Times,serif" font-size="14.00">सम्बन्धः</text>
</g>
<!-- Node7_1 -->
<g id="node10" class="node">
<title>Node7_1</title>
<ellipse fill="#40e0d0" stroke="#40e0d0" cx="299.74" cy="-18" rx="106.68" ry="18"/>
<text text-anchor="middle" x="299.74" y="-14.3" font-family="Times,serif" font-size="14.00">करेणुभिः(7.1)</text>
</g>
<!-- Node7_1&#45;&gt;Node10_1 -->
<g id="edge7" class="edge">
<title>Node7_1&#45;&gt;Node10_1</title>
<path fill="none" stroke="black" d="M299.74,-46.27C299.74,-59.58 299.74,-75.19 299.74,-86.82"/>
<polygon fill="black" stroke="black" points="303.24,-46.2 299.74,-36.2 296.24,-46.2 303.24,-46.2"/>
<text text-anchor="middle" x="335.74" y="-57.8" font-family="Times,serif" font-size="14.00">कर्ता</text>
</g>
<!-- Node8_1 -->
<g id="node11" class="node">
<title>Node8_1</title>
<ellipse fill="#ff99ff" stroke="#ff99ff" cx="498.74" cy="-105" rx="59.59" ry="18"/>
<text text-anchor="middle" x="498.74" y="-101.3" font-family="Times,serif" font-size="14.00">यथा(8.1)</text>
</g>
<!-- Node8_1&#45;&gt;Node11_2 -->
<g id="edge8" class="edge">
<title>Node8_1&#45;&gt;Node11_2</title>
<path fill="none" stroke="black" d="M466.45,-127.3C446.03,-140.76 423.36,-155.69 422.74,-156 407.36,-163.76 389.84,-170.71 374.06,-176.33"/>
<polygon fill="black" stroke="black" points="468.57,-130.1 474.99,-121.67 464.72,-124.25 468.57,-130.1"/>
<text text-anchor="middle" x="532.74" y="-144.8" font-family="Times,serif" font-size="14.00">उपमान_द्योतकः</text>
</g>
<!-- Node9_1 -->
<g id="node12" class="node">
<title>Node9_1</title>
<ellipse fill="#c6e2eb" stroke="#c6e2eb" cx="511.74" cy="-18" rx="87.99" ry="18"/>
<text text-anchor="middle" x="511.74" y="-14.3" font-family="Times,serif" font-size="14.00">अरण्ये(9.1)</text>
</g>
<!-- Node9_1&#45;&gt;Node10_1 -->
<g id="edge9" class="edge">
<title>Node9_1&#45;&gt;Node10_1</title>
<path fill="none" stroke="black" d="M463.7,-38.26C426.37,-53.23 375.21,-73.74 340.01,-87.85"/>
<polygon fill="black" stroke="black" points="465.37,-41.36 473.35,-34.39 462.77,-34.87 465.37,-41.36"/>
<text text-anchor="middle" x="497.24" y="-57.8" font-family="Times,serif" font-size="14.00">देशाधिकरणम्</text>
</g>
<!-- Node11_1 -->
<g id="node13" class="node">
<title>Node11_1</title>
<ellipse fill="#ffff00" stroke="#ffff00" cx="645.74" cy="-105" rx="68.79" ry="18"/>
<text text-anchor="middle" x="645.74" y="-101.3" font-family="Times,serif" font-size="14.00">महा&#45;(11.1)</text>
</g>
<!-- Node11_1&#45;&gt;Node11_2 -->
<g id="edge11" class="edge">
<title>Node11_1&#45;&gt;Node11_2</title>
<path fill="none" stroke="black" d="M639.71,-132.72C636.42,-141.45 631.39,-150.34 623.74,-156 619.38,-159.23 493.64,-173.25 407.46,-182.54"/>
<polygon fill="black" stroke="black" points="643.07,-133.7 642.73,-123.11 636.39,-131.6 643.07,-133.7"/>
<text text-anchor="middle" x="701.24" y="-144.8" font-family="Times,serif" font-size="14.00">कर्मधारयः</text>
</g>
</g>
</svg>
