<?xml version="1.0" encoding="UTF-8" standalone="no"?>
<!DOCTYPE svg PUBLIC "-//W3C//DTD SVG 1.1//EN"
 "http://www.w3.org/Graphics/SVG/1.1/DTD/svg11.dtd">
<!-- Generated by graphviz version 2.43.0 (0)
 -->
<!-- Title: G Pages: 1 -->
<svg width="2221pt" height="495pt"
 viewBox="0.00 0.00 2221.34 495.00" xmlns="http://www.w3.org/2000/svg" xmlns:xlink="http://www.w3.org/1999/xlink">
<g id="graph0" class="graph" transform="scale(1 1) rotate(0) translate(4 491)">
<title>G</title>
<polygon fill="#fffacd" stroke="transparent" points="-4,4 -4,-491 2217.34,-491 2217.34,4 -4,4"/>
<g id="clust1" class="cluster">
<title>cluster_1</title>
<polygon fill="#fffacd" stroke="black" points="1112.54,-79 1112.54,-218 1342.54,-218 1342.54,-79 1112.54,-79"/>
</g>
<g id="clust2" class="cluster">
<title>cluster_2</title>
<polygon fill="#fffacd" stroke="black" points="1369.54,-166 1369.54,-305 1710.54,-305 1710.54,-166 1369.54,-166"/>
</g>
<g id="clust3" class="cluster">
<title>cluster_3</title>
<polygon fill="#fffacd" stroke="black" points="1324.54,-340 1324.54,-479 1564.54,-479 1564.54,-340 1324.54,-340"/>
</g>
<g id="clust4" class="cluster">
<title>cluster_4</title>
<polygon fill="#fffacd" stroke="black" points="1862.54,-166 1862.54,-305 2084.54,-305 2084.54,-166 1862.54,-166"/>
</g>
<g id="clust5" class="cluster">
<title>cluster_5</title>
<polygon fill="#fffacd" stroke="black" points="789.54,-166 789.54,-305 1085.54,-305 1085.54,-166 789.54,-166"/>
</g>
<g id="clust6" class="cluster">
<title>cluster_6</title>
<polygon fill="#fffacd" stroke="black" points="353.54,-253 353.54,-392 781.54,-392 781.54,-253 353.54,-253"/>
</g>
<!-- Node4_1 -->
<g id="node1" class="node">
<title>Node4_1</title>
<ellipse fill="#93db70" stroke="#93db70" cx="1219.54" cy="-105" rx="59.59" ry="18"/>
<text text-anchor="middle" x="1219.54" y="-101.3" font-family="Times,serif" font-size="14.00">ताः(4.1)</text>
</g>
<!-- Node5_1 -->
<g id="node2" class="node">
<title>Node5_1</title>
<ellipse fill="#93db70" stroke="#93db70" cx="1227.54" cy="-192" rx="106.68" ry="18"/>
<text text-anchor="middle" x="1227.54" y="-188.3" font-family="Times,serif" font-size="14.00">स्त्रियः(5.1)</text>
</g>
<!-- Node4_1&#45;&gt;Node5_1 -->
<g id="edge4" class="edge">
<title>Node4_1&#45;&gt;Node5_1</title>
<path fill="none" stroke="black" d="M1222.11,-133.27C1223.36,-146.58 1224.83,-162.19 1225.93,-173.82"/>
<polygon fill="black" stroke="black" points="1225.59,-132.83 1221.16,-123.2 1218.62,-133.49 1225.59,-132.83"/>
<text text-anchor="middle" x="1281.04" y="-144.8" font-family="Times,serif" font-size="14.00">विशेषणम्</text>
</g>
<!-- Node1_1 -->
<g id="node15" class="node">
<title>Node1_1</title>
<ellipse fill="#00bfff" stroke="#00bfff" cx="1227.54" cy="-279" rx="133.78" ry="18"/>
<text text-anchor="middle" x="1227.54" y="-275.3" font-family="Times,serif" font-size="14.00">निरीक्षमाणः(1.1)</text>
</g>
<!-- Node5_1&#45;&gt;Node1_1 -->
<g id="edge5" class="edge">
<title>Node5_1&#45;&gt;Node1_1</title>
<path fill="none" stroke="black" d="M1227.54,-220.27C1227.54,-233.58 1227.54,-249.19 1227.54,-260.82"/>
<polygon fill="black" stroke="black" points="1231.05,-220.2 1227.54,-210.2 1224.05,-220.2 1231.05,-220.2"/>
<text text-anchor="middle" x="1256.54" y="-231.8" font-family="Times,serif" font-size="14.00">कर्म</text>
</g>
<!-- Node6_1 -->
<g id="node3" class="node">
<title>Node6_1</title>
<ellipse fill="#00bfff" stroke="#00bfff" cx="1651.54" cy="-192" rx="50.89" ry="18"/>
<text text-anchor="middle" x="1651.54" y="-188.3" font-family="Times,serif" font-size="14.00">सः(6.1)</text>
</g>
<!-- Node7_2 -->
<g id="node4" class="node">
<title>Node7_2</title>
<ellipse fill="#00bfff" stroke="#00bfff" cx="1556.54" cy="-279" rx="69.59" ry="18"/>
<text text-anchor="middle" x="1556.54" y="-275.3" font-family="Times,serif" font-size="14.00">कपिः(7.2)</text>
</g>
<!-- Node6_1&#45;&gt;Node7_2 -->
<g id="edge6" class="edge">
<title>Node6_1&#45;&gt;Node7_2</title>
<path fill="none" stroke="black" d="M1611.58,-211.27C1603.44,-216.03 1595.31,-221.65 1588.54,-228 1578.63,-237.32 1570.43,-250.32 1564.82,-260.73"/>
<polygon fill="black" stroke="black" points="1613.28,-214.33 1620.35,-206.44 1609.91,-208.2 1613.28,-214.33"/>
<text text-anchor="middle" x="1646.04" y="-231.8" font-family="Times,serif" font-size="14.00">विशेषणम्</text>
</g>
<!-- Node8_1 -->
<g id="node6" class="node">
<title>Node8_1</title>
<ellipse fill="#ff1975" stroke="#ff1975" cx="1485.54" cy="-366" rx="69.59" ry="18"/>
<text text-anchor="middle" x="1485.54" y="-362.3" font-family="Times,serif" font-size="14.00">जगाम(8.1)</text>
</g>
<!-- Node7_2&#45;&gt;Node8_1 -->
<g id="edge8" class="edge">
<title>Node7_2&#45;&gt;Node8_1</title>
<path fill="none" stroke="black" d="M1535.99,-304.61C1524.29,-318.62 1509.94,-335.79 1499.54,-348.24"/>
<polygon fill="black" stroke="black" points="1538.79,-306.71 1542.52,-296.79 1533.42,-302.22 1538.79,-306.71"/>
<text text-anchor="middle" x="1560.54" y="-318.8" font-family="Times,serif" font-size="14.00">कर्ता</text>
</g>
<!-- Node11_3 -->
<g id="node5" class="node">
<title>Node11_3</title>
<ellipse fill="#00bfff" stroke="#00bfff" cx="1480.54" cy="-192" rx="102.88" ry="18"/>
<text text-anchor="middle" x="1480.54" y="-188.3" font-family="Times,serif" font-size="14.00">शङ्कितः(11.3)</text>
</g>
<!-- Node11_3&#45;&gt;Node7_2 -->
<g id="edge14" class="edge">
<title>Node11_3&#45;&gt;Node7_2</title>
<path fill="none" stroke="black" d="M1453.82,-217.31C1447.8,-225.65 1444.7,-234.92 1450.54,-243 1460.88,-257.29 1477.26,-265.85 1494.08,-270.94"/>
<polygon fill="black" stroke="black" points="1456.5,-219.56 1460.29,-209.66 1451.16,-215.03 1456.5,-219.56"/>
<text text-anchor="middle" x="1508.04" y="-231.8" font-family="Times,serif" font-size="14.00">विशेषणम्</text>
</g>
<!-- Node20_1 -->
<g id="node7" class="node">
<title>Node20_1</title>
<ellipse fill="#ff1975" stroke="#ff1975" cx="1444.54" cy="-453" rx="112.38" ry="18"/>
<text text-anchor="middle" x="1444.54" y="-449.3" font-family="Times,serif" font-size="14.00">करिष्यति(20.1)</text>
</g>
<!-- Node8_1&#45;&gt;Node20_1 -->
<g id="edge9" class="edge">
<title>Node8_1&#45;&gt;Node20_1</title>
<path fill="none" stroke="black" d="M1472.77,-393.48C1466.27,-406.96 1458.55,-422.96 1452.83,-434.82"/>
<polygon fill="black" stroke="black" points="1476.06,-394.73 1477.25,-384.2 1469.75,-391.69 1476.06,-394.73"/>
<text text-anchor="middle" x="1531.04" y="-405.8" font-family="Times,serif" font-size="14.00">समुच्चितः</text>
</g>
<!-- Node9_1 -->
<g id="node8" class="node">
<title>Node9_1</title>
<ellipse fill="#93db70" stroke="#93db70" cx="1961.54" cy="-192" rx="87.99" ry="18"/>
<text text-anchor="middle" x="1961.54" y="-188.3" font-family="Times,serif" font-size="14.00">महतीम्(9.1)</text>
</g>
<!-- Node10_1 -->
<g id="node9" class="node">
<title>Node10_1</title>
<ellipse fill="#93db70" stroke="#93db70" cx="1973.54" cy="-279" rx="102.88" ry="18"/>
<text text-anchor="middle" x="1973.54" y="-275.3" font-family="Times,serif" font-size="14.00">शङ्काम्(10.1)</text>
</g>
<!-- Node9_1&#45;&gt;Node10_1 -->
<g id="edge10" class="edge">
<title>Node9_1&#45;&gt;Node10_1</title>
<path fill="none" stroke="black" d="M1965.39,-220.27C1967.27,-233.58 1969.48,-249.19 1971.12,-260.82"/>
<polygon fill="black" stroke="black" points="1968.84,-219.61 1963.97,-210.2 1961.91,-220.59 1968.84,-219.61"/>
<text text-anchor="middle" x="2025.04" y="-231.8" font-family="Times,serif" font-size="14.00">विशेषणम्</text>
</g>
<!-- Node10_1&#45;&gt;Node8_1 -->
<g id="edge11" class="edge">
<title>Node10_1&#45;&gt;Node8_1</title>
<path fill="none" stroke="black" d="M1876.39,-289.65C1792.78,-299.04 1669.27,-315.5 1563.54,-340 1550.8,-342.95 1537.14,-347.01 1524.87,-351"/>
<polygon fill="black" stroke="black" points="1876.83,-293.12 1886.39,-288.54 1876.06,-286.16 1876.83,-293.12"/>
<text text-anchor="middle" x="1714.54" y="-318.8" font-family="Times,serif" font-size="14.00">कर्म</text>
</g>
<!-- Node13_1 -->
<g id="node10" class="node">
<title>Node13_1</title>
<ellipse fill="#87ceeb" stroke="#87ceeb" cx="937.54" cy="-192" rx="139.98" ry="18"/>
<text text-anchor="middle" x="937.54" y="-188.3" font-family="Times,serif" font-size="14.00">प्रसुप्तस्य(13.1)</text>
</g>
<!-- Node12_2 -->
<g id="node11" class="node">
<title>Node12_2</title>
<ellipse fill="#87ceeb" stroke="#87ceeb" cx="937.54" cy="-279" rx="112.38" ry="18"/>
<text text-anchor="middle" x="937.54" y="-275.3" font-family="Times,serif" font-size="14.00">अवरोधस्य(12.2)</text>
</g>
<!-- Node13_1&#45;&gt;Node12_2 -->
<g id="edge17" class="edge">
<title>Node13_1&#45;&gt;Node12_2</title>
<path fill="none" stroke="black" d="M937.54,-220.27C937.54,-233.58 937.54,-249.19 937.54,-260.82"/>
<polygon fill="black" stroke="black" points="941.05,-220.2 937.54,-210.2 934.05,-220.2 941.05,-220.2"/>
<text text-anchor="middle" x="995.04" y="-231.8" font-family="Times,serif" font-size="14.00">विशेषणम्</text>
</g>
<!-- Node14_1 -->
<g id="node22" class="node">
<title>Node14_1</title>
<ellipse fill="#00bfff" stroke="#00bfff" cx="967.54" cy="-366" rx="130.78" ry="18"/>
<text text-anchor="middle" x="967.54" y="-362.3" font-family="Times,serif" font-size="14.00">निरीक्षणम्(14.1)</text>
</g>
<!-- Node12_2&#45;&gt;Node14_1 -->
<g id="edge16" class="edge">
<title>Node12_2&#45;&gt;Node14_1</title>
<path fill="none" stroke="black" d="M947.03,-306.87C951.76,-320.27 957.34,-336.08 961.48,-347.82"/>
<polygon fill="black" stroke="black" points="950.24,-305.47 943.62,-297.2 943.64,-307.8 950.24,-305.47"/>
<text text-anchor="middle" x="1046.54" y="-318.8" font-family="Times,serif" font-size="14.00">षष्ठीसम्बन्धः</text>
</g>
<!-- Node15_1 -->
<g id="node12" class="node">
<title>Node15_1</title>
<ellipse fill="#93db70" stroke="#93db70" cx="698.54" cy="-279" rx="75.29" ry="18"/>
<text text-anchor="middle" x="698.54" y="-275.3" font-family="Times,serif" font-size="14.00">इदम्(15.1)</text>
</g>
<!-- Node19_2 -->
<g id="node13" class="node">
<title>Node19_2</title>
<ellipse fill="#93db70" stroke="#93db70" cx="495.54" cy="-366" rx="84.49" ry="18"/>
<text text-anchor="middle" x="495.54" y="-362.3" font-family="Times,serif" font-size="14.00">लोपम्(19.2)</text>
</g>
<!-- Node15_1&#45;&gt;Node19_2 -->
<g id="edge19" class="edge">
<title>Node15_1&#45;&gt;Node19_2</title>
<path fill="none" stroke="black" d="M664.17,-301.3C647.74,-310.9 627.55,-321.88 608.54,-330 588.81,-338.43 566.36,-345.81 546.69,-351.59"/>
<polygon fill="black" stroke="black" points="666.07,-304.24 672.88,-296.13 662.49,-298.22 666.07,-304.24"/>
<text text-anchor="middle" x="696.04" y="-318.8" font-family="Times,serif" font-size="14.00">विशेषणम्</text>
</g>
<!-- Node19_2&#45;&gt;Node20_1 -->
<g id="edge24" class="edge">
<title>Node19_2&#45;&gt;Node20_1</title>
<path fill="none" stroke="black" d="M580.96,-375.24C686.37,-385.36 871.12,-402.9 1029.54,-417 1138.11,-426.66 1262.73,-437.08 1346.84,-444.02"/>
<polygon fill="black" stroke="black" points="580.98,-371.73 570.69,-374.26 580.31,-378.7 580.98,-371.73"/>
<text text-anchor="middle" x="1058.54" y="-405.8" font-family="Times,serif" font-size="14.00">कर्म</text>
</g>
<!-- Node18_1 -->
<g id="node14" class="node">
<title>Node18_1</title>
<ellipse fill="#93db70" stroke="#93db70" cx="483.54" cy="-279" rx="121.58" ry="18"/>
<text text-anchor="middle" x="483.54" y="-275.3" font-family="Times,serif" font-size="14.00">अत्यर्थम्(18.1)</text>
</g>
<!-- Node18_1&#45;&gt;Node19_2 -->
<g id="edge22" class="edge">
<title>Node18_1&#45;&gt;Node19_2</title>
<path fill="none" stroke="black" d="M487.39,-307.27C489.27,-320.58 491.48,-336.19 493.12,-347.82"/>
<polygon fill="black" stroke="black" points="490.84,-306.61 485.97,-297.2 483.91,-307.59 490.84,-306.61"/>
<text text-anchor="middle" x="547.04" y="-318.8" font-family="Times,serif" font-size="14.00">विशेषणम्</text>
</g>
<!-- Node1_1&#45;&gt;Node8_1 -->
<g id="edge1" class="edge">
<title>Node1_1&#45;&gt;Node8_1</title>
<path fill="none" stroke="black" d="M1254.86,-303.4C1267.42,-313.02 1282.97,-323.43 1298.54,-330 1337.04,-346.24 1383.15,-354.98 1419.95,-359.66"/>
<polygon fill="black" stroke="black" points="1256.69,-300.38 1246.68,-296.92 1252.34,-305.87 1256.69,-300.38"/>
<text text-anchor="middle" x="1405.54" y="-318.8" font-family="Times,serif" font-size="14.00">वर्तमानसमानकालः</text>
</g>
<!-- Node2_1 -->
<g id="node16" class="node">
<title>Node2_1</title>
<ellipse fill="#ff99ff" stroke="#ff99ff" cx="1197.54" cy="-366" rx="41.69" ry="18"/>
<text text-anchor="middle" x="1197.54" y="-362.3" font-family="Times,serif" font-size="14.00">च(2.1)</text>
</g>
<!-- Node2_1&#45;&gt;Node20_1 -->
<g id="edge2" class="edge">
<title>Node2_1&#45;&gt;Node20_1</title>
<path fill="none" stroke="black" d="M1217.82,-390.99C1227.13,-400.52 1238.92,-410.69 1251.54,-417 1280.03,-431.23 1313.45,-439.73 1344.41,-444.79"/>
<polygon fill="black" stroke="black" points="1220.28,-388.5 1210.9,-383.57 1215.16,-393.27 1220.28,-388.5"/>
<text text-anchor="middle" x="1355.04" y="-405.8" font-family="Times,serif" font-size="14.00">समुच्चय_द्योतकः</text>
</g>
<!-- Node3_1 -->
<g id="node17" class="node">
<title>Node3_1</title>
<ellipse fill="#ff99ff" stroke="#ff99ff" cx="2153.54" cy="-279" rx="59.59" ry="18"/>
<text text-anchor="middle" x="2153.54" y="-275.3" font-family="Times,serif" font-size="14.00">ततः(3.1)</text>
</g>
<!-- Node3_1&#45;&gt;Node8_1 -->
<g id="edge3" class="edge">
<title>Node3_1&#45;&gt;Node8_1</title>
<path fill="none" stroke="black" d="M2112.18,-297.98C2104.45,-300.74 2096.34,-303.25 2088.54,-305 1940.25,-338.19 1899.2,-320.32 1747.54,-330 1665.81,-335.22 1644.09,-325.16 1563.54,-340 1550.12,-342.47 1535.79,-346.61 1523.13,-350.81"/>
<polygon fill="black" stroke="black" points="2113.6,-301.18 2121.72,-294.38 2111.13,-294.63 2113.6,-301.18"/>
<text text-anchor="middle" x="2110.04" y="-318.8" font-family="Times,serif" font-size="14.00">कालाधिकरणम्</text>
</g>
<!-- Node7_1 -->
<g id="node18" class="node">
<title>Node7_1</title>
<ellipse fill="#ffff00" stroke="#ffff00" cx="1783.54" cy="-192" rx="63.09" ry="18"/>
<text text-anchor="middle" x="1783.54" y="-188.3" font-family="Times,serif" font-size="14.00">महा&#45;(7.1)</text>
</g>
<!-- Node7_1&#45;&gt;Node7_2 -->
<g id="edge7" class="edge">
<title>Node7_1&#45;&gt;Node7_2</title>
<path fill="none" stroke="black" d="M1750.63,-214.27C1730.9,-226.9 1708.68,-240.85 1703.54,-243 1675.11,-254.9 1641.81,-263.24 1614.1,-268.8"/>
<polygon fill="black" stroke="black" points="1752.63,-217.15 1759.16,-208.8 1748.85,-211.26 1752.63,-217.15"/>
<text text-anchor="middle" x="1791.04" y="-231.8" font-family="Times,serif" font-size="14.00">कर्मधारयः</text>
</g>
<!-- Node11_1 -->
<g id="node19" class="node">
<title>Node11_1</title>
<ellipse fill="#ffff00" stroke="#ffff00" cx="1480.54" cy="-18" rx="77.99" ry="18"/>
<text text-anchor="middle" x="1480.54" y="-14.3" font-family="Times,serif" font-size="14.00">धर्म&#45;(11.1)</text>
</g>
<!-- Node11_2 -->
<g id="node20" class="node">
<title>Node11_2</title>
<ellipse fill="#ffff00" stroke="#ffff00" cx="1480.54" cy="-105" rx="96.68" ry="18"/>
<text text-anchor="middle" x="1480.54" y="-101.3" font-family="Times,serif" font-size="14.00">साध्वस&#45;(11.2)</text>
</g>
<!-- Node11_1&#45;&gt;Node11_2 -->
<g id="edge12" class="edge">
<title>Node11_1&#45;&gt;Node11_2</title>
<path fill="none" stroke="black" d="M1480.54,-46.27C1480.54,-59.58 1480.54,-75.19 1480.54,-86.82"/>
<polygon fill="black" stroke="black" points="1484.05,-46.2 1480.54,-36.2 1477.05,-46.2 1484.05,-46.2"/>
<text text-anchor="middle" x="1598.04" y="-57.8" font-family="Times,serif" font-size="14.00">चतुर्थी_तत्पुरुषः</text>
</g>
<!-- Node11_2&#45;&gt;Node11_3 -->
<g id="edge13" class="edge">
<title>Node11_2&#45;&gt;Node11_3</title>
<path fill="none" stroke="black" d="M1480.54,-133.27C1480.54,-146.58 1480.54,-162.19 1480.54,-173.82"/>
<polygon fill="black" stroke="black" points="1484.05,-133.2 1480.54,-123.2 1477.05,-133.2 1484.05,-133.2"/>
<text text-anchor="middle" x="1591.04" y="-144.8" font-family="Times,serif" font-size="14.00">तृतीया_तत्पुरुषः</text>
</g>
<!-- Node12_1 -->
<g id="node21" class="node">
<title>Node12_1</title>
<ellipse fill="#ffff00" stroke="#ffff00" cx="692.54" cy="-192" rx="87.18" ry="18"/>
<text text-anchor="middle" x="692.54" y="-188.3" font-family="Times,serif" font-size="14.00">परदार&#45;(12.1)</text>
</g>
<!-- Node12_1&#45;&gt;Node12_2 -->
<g id="edge15" class="edge">
<title>Node12_1&#45;&gt;Node12_2</title>
<path fill="none" stroke="black" d="M704.62,-218.86C710.08,-227.85 717.39,-237.15 726.54,-243 726.92,-243.24 801.72,-255.61 862.15,-265.58"/>
<polygon fill="black" stroke="black" points="707.68,-217.16 699.78,-210.1 701.56,-220.55 707.68,-217.16"/>
<text text-anchor="middle" x="830.04" y="-231.8" font-family="Times,serif" font-size="14.00">षष्ठी_तत्पुरुषः</text>
</g>
<!-- Node14_1&#45;&gt;Node20_1 -->
<g id="edge18" class="edge">
<title>Node14_1&#45;&gt;Node20_1</title>
<path fill="none" stroke="black" d="M1027.9,-385.57C1064.05,-396.11 1111.08,-408.78 1153.54,-417 1217.74,-429.42 1290.81,-438.19 1347.67,-443.85"/>
<polygon fill="black" stroke="black" points="1028.59,-382.13 1018.01,-382.66 1026.62,-388.84 1028.59,-382.13"/>
<text text-anchor="middle" x="1189.54" y="-405.8" font-family="Times,serif" font-size="14.00">कर्ता</text>
</g>
<!-- Node16_1 -->
<g id="node23" class="node">
<title>Node16_1</title>
<ellipse fill="#ff99ff" stroke="#ff99ff" cx="1638.54" cy="-366" rx="65.79" ry="18"/>
<text text-anchor="middle" x="1638.54" y="-362.3" font-family="Times,serif" font-size="14.00">खलु(16.1)</text>
</g>
<!-- Node16_1&#45;&gt;Node20_1 -->
<g id="edge20" class="edge">
<title>Node16_1&#45;&gt;Node20_1</title>
<path fill="none" stroke="black" d="M1623.96,-392.31C1617.55,-401.36 1609.27,-410.83 1599.54,-417 1580.44,-429.12 1557.67,-437.06 1535.55,-442.26"/>
<polygon fill="black" stroke="black" points="1626.93,-394.17 1629.5,-383.89 1621.08,-390.32 1626.93,-394.17"/>
<text text-anchor="middle" x="1673.04" y="-405.8" font-family="Times,serif" font-size="14.00">सम्बन्धः</text>
</g>
<!-- Node17_1 -->
<g id="node24" class="node">
<title>Node17_1</title>
<ellipse fill="#87ceeb" stroke="#87ceeb" cx="56.54" cy="-279" rx="56.59" ry="18"/>
<text text-anchor="middle" x="56.54" y="-275.3" font-family="Times,serif" font-size="14.00">मम(17.1)</text>
</g>
<!-- Node17_1&#45;&gt;Node19_2 -->
<g id="edge21" class="edge">
<title>Node17_1&#45;&gt;Node19_2</title>
<path fill="none" stroke="black" d="M63.02,-306.89C66.47,-315.64 71.7,-324.5 79.54,-330 106.1,-348.63 298.9,-358.32 412.49,-362.46"/>
<polygon fill="black" stroke="black" points="66.29,-305.64 59.82,-297.25 59.65,-307.84 66.29,-305.64"/>
<text text-anchor="middle" x="172.54" y="-318.8" font-family="Times,serif" font-size="14.00">षष्ठीसम्बन्धः</text>
</g>
<!-- Node19_1 -->
<g id="node25" class="node">
<title>Node19_1</title>
<ellipse fill="#ffff00" stroke="#ffff00" cx="265.54" cy="-279" rx="77.99" ry="18"/>
<text text-anchor="middle" x="265.54" y="-275.3" font-family="Times,serif" font-size="14.00">धर्म&#45;(19.1)</text>
</g>
<!-- Node19_1&#45;&gt;Node19_2 -->
<g id="edge23" class="edge">
<title>Node19_1&#45;&gt;Node19_2</title>
<path fill="none" stroke="black" d="M266.35,-307.18C267.95,-315.57 271.21,-324.13 277.54,-330 297.23,-348.24 360.58,-356.99 413.95,-361.19"/>
<polygon fill="black" stroke="black" points="269.82,-306.71 265.11,-297.22 262.87,-307.58 269.82,-306.71"/>
<text text-anchor="middle" x="381.04" y="-318.8" font-family="Times,serif" font-size="14.00">षष्ठी_तत्पुरुषः</text>
</g>
</g>
</svg>
