<svg xmlns="http://www.w3.org/2000/svg" xmlns:xlink="http://www.w3.org/1999/xlink" width="1088pt" height="392pt" viewBox="0 0 1087.84 392"><g id="graph0" class="graph" transform="scale(1 1) rotate(0) translate(4 388)"><title>G</title><polygon fill="#fffacd" stroke="transparent" points="-4 4 -4 -388 1083.84 -388 1083.84 4 -4 4"/><g id="clust1" class="cluster"><title>cluster_1</title><polygon fill="#fffacd" stroke="#000" points="164.84 -166 164.84 -305 836.84 -305 836.84 -166 164.84 -166"/></g><g id="node1" class="node"><title>Node2_2</title><ellipse cx="279.84" cy="-192" fill="#93db70" stroke="#93db70" rx="106.68" ry="18"/><text x="279.84" y="-188.3" font-family="Times,serif" font-size="14" text-anchor="middle">अवशेषाणि(2.2)</text></g><g id="node2" class="node"><title>Node10_1</title><ellipse cx="366.84" cy="-279" fill="#93db70" stroke="#93db70" rx="93.68" ry="18"/><text x="366.84" y="-275.3" font-family="Times,serif" font-size="14" text-anchor="middle">पानानि(10.1)</text></g><g id="edge3" class="edge"><title>Node2_2-&gt;Node10_1</title><path fill="none" stroke="#000" d="M304.23,-216.83C318.71,-230.97 336.71,-248.56 349.69,-261.24"/><polygon fill="#000" stroke="#000" points="306.63 -214.28 297.03 -209.79 301.74 -219.29 306.63 -214.28"/><text x="385.34" y="-231.8" font-family="Times,serif" font-size="14" text-anchor="middle">विशेषणम्</text></g><g id="node12" class="node"><title>Node12_1</title><ellipse cx="146.84" cy="-366" fill="#ff1975" stroke="#ff1975" rx="84.49" ry="18"/><text x="146.84" y="-362.3" font-family="Times,serif" font-size="14" text-anchor="middle">ददर्श(12.1)</text></g><g id="edge11" class="edge"><title>Node10_1-&gt;Node12_1</title><path fill="none" stroke="#000" d="M317.48,-299.07C277.64,-314.46 222.37,-335.82 185.65,-350.01"/><polygon fill="#000" stroke="#000" points="318.93 -302.26 327 -295.39 316.41 -295.73 318.93 -302.26"/><text x="298.84" y="-318.8" font-family="Times,serif" font-size="14" text-anchor="middle">कर्म</text></g><g id="node3" class="node"><title>Node4_1</title><ellipse cx="491.84" cy="-192" fill="#93db70" stroke="#93db70" rx="87.99" ry="18"/><text x="491.84" y="-188.3" font-family="Times,serif" font-size="14" text-anchor="middle">पीतानि(4.1)</text></g><g id="edge5" class="edge"><title>Node4_1-&gt;Node10_1</title><path fill="none" stroke="#000" d="M473.2,-217.79C465.71,-226.57 456.56,-235.99 446.84,-243 435.78,-250.99 422.61,-257.68 410.18,-263.01"/><polygon fill="#000" stroke="#000" points="475.94 -219.96 479.57 -210 470.53 -215.53 475.94 -219.96"/><text x="520.34" y="-231.8" font-family="Times,serif" font-size="14" text-anchor="middle">विशेषणम्</text></g><g id="node4" class="node"><title>Node9_1</title><ellipse cx="712.84" cy="-192" fill="#93db70" stroke="#93db70" rx="115.88" ry="18"/><text x="712.84" y="-188.3" font-family="Times,serif" font-size="14" text-anchor="middle">प्रपीतानि(9.1)</text></g><g id="edge10" class="edge"><title>Node9_1-&gt;Node10_1</title><path fill="none" stroke="#000" d="M667.01,-213.12C642.2,-223.34 610.79,-235.21 581.84,-243 537.29,-254.99 486.37,-263.51 445.28,-269.13"/><polygon fill="#000" stroke="#000" points="668.64 -216.24 676.52 -209.15 665.94 -209.78 668.64 -216.24"/><text x="683.34" y="-231.8" font-family="Times,serif" font-size="14" text-anchor="middle">विशेषणम्</text></g><g id="node5" class="node"><title>Node1_1</title><ellipse cx="96.84" cy="-105" fill="#f9f" stroke="#f9f" rx="96.68" ry="18"/><text x="96.84" y="-101.3" font-family="Times,serif" font-size="14" text-anchor="middle">क्वचित्(1.1)</text></g><g id="edge1" class="edge"><title>Node1_1-&gt;Node2_2</title><path fill="none" stroke="#000" d="M122.72,-129.43C134.07,-138.75 147.96,-148.92 161.84,-156 179.35,-164.94 199.51,-171.97 218.16,-177.32"/><polygon fill="#000" stroke="#000" points="124.83 -126.64 114.93 -122.86 120.31 -131.98 124.83 -126.64"/><text x="219.34" y="-144.8" font-family="Times,serif" font-size="14" text-anchor="middle">सम्बन्धः</text></g><g id="node6" class="node"><title>Node2_1</title><ellipse cx="283.84" cy="-105" fill="#ff0" stroke="#ff0" rx="72.29" ry="18"/><text x="283.84" y="-101.3" font-family="Times,serif" font-size="14" text-anchor="middle">अर्ध-(2.1)</text></g><g id="edge2" class="edge"><title>Node2_1-&gt;Node2_2</title><path fill="none" stroke="#000" d="M282.56,-133.27C281.93,-146.58 281.2,-162.19 280.65,-173.82"/><polygon fill="#000" stroke="#000" points="286.06 -133.35 283.03 -123.2 279.07 -133.03 286.06 -133.35"/><text x="353.34" y="-144.8" font-family="Times,serif" font-size="14" text-anchor="middle">बहुव्रीहिः</text></g><g id="node7" class="node"><title>Node3_1</title><ellipse cx="478.84" cy="-18" fill="#f9f" stroke="#f9f" rx="96.68" ry="18"/><text x="478.84" y="-14.3" font-family="Times,serif" font-size="14" text-anchor="middle">क्वचित्(3.1)</text></g><g id="node8" class="node"><title>Node5_1</title><ellipse cx="478.84" cy="-105" fill="#f9f" stroke="#f9f" rx="87.99" ry="18"/><text x="478.84" y="-101.3" font-family="Times,serif" font-size="14" text-anchor="middle">अशेषतः(5.1)</text></g><g id="edge4" class="edge"><title>Node3_1-&gt;Node5_1</title><path fill="none" stroke="#000" d="M478.84,-46.27C478.84,-59.58 478.84,-75.19 478.84,-86.82"/><polygon fill="#000" stroke="#000" points="482.34 -46.2 478.84 -36.2 475.34 -46.2 482.34 -46.2"/><text x="536.34" y="-57.8" font-family="Times,serif" font-size="14" text-anchor="middle">सम्बन्धः</text></g><g id="edge6" class="edge"><title>Node5_1-&gt;Node4_1</title><path fill="none" stroke="#000" d="M483.01,-133.27C485.05,-146.58 487.44,-162.19 489.21,-173.82"/><polygon fill="#000" stroke="#000" points="486.44 -132.56 481.47 -123.2 479.52 -133.62 486.44 -132.56"/><text x="543.34" y="-144.8" font-family="Times,serif" font-size="14" text-anchor="middle">सम्बन्धः</text></g><g id="node9" class="node"><title>Node6_1</title><ellipse cx="681.84" cy="-105" fill="#f9f" stroke="#f9f" rx="96.68" ry="18"/><text x="681.84" y="-101.3" font-family="Times,serif" font-size="14" text-anchor="middle">क्वचित्(6.1)</text></g><g id="edge7" class="edge"><title>Node6_1-&gt;Node9_1</title><path fill="none" stroke="#000" d="M685.48,-132.95C686.97,-140.56 689.03,-148.73 691.84,-156 694.19,-162.08 697.57,-168.31 700.92,-173.8"/><polygon fill="#000" stroke="#000" points="688.93 -132.33 683.78 -123.07 682.03 -133.52 688.93 -132.33"/><text x="749.34" y="-144.8" font-family="Times,serif" font-size="14" text-anchor="middle">सम्बन्धः</text></g><g id="node10" class="node"><title>Node7_1</title><ellipse cx="837.84" cy="-105" fill="#f9f" stroke="#f9f" rx="41.69" ry="18"/><text x="837.84" y="-101.3" font-family="Times,serif" font-size="14" text-anchor="middle">न(7.1)</text></g><g id="edge8" class="edge"><title>Node7_1-&gt;Node9_1</title><path fill="none" stroke="#000" d="M826.12,-131.9C821.19,-140.51 814.73,-149.54 806.84,-156 796.33,-164.61 783.5,-171.22 770.74,-176.25"/><polygon fill="#000" stroke="#000" points="829.32 -133.34 830.88 -122.86 823.12 -130.08 829.32 -133.34"/><text x="883.34" y="-144.8" font-family="Times,serif" font-size="14" text-anchor="middle">प्रतिषेधः</text></g><g id="node11" class="node"><title>Node8_1</title><ellipse cx="980.84" cy="-105" fill="#f9f" stroke="#f9f" rx="50.89" ry="18"/><text x="980.84" y="-101.3" font-family="Times,serif" font-size="14" text-anchor="middle">एव(8.1)</text></g><g id="edge9" class="edge"><title>Node8_1-&gt;Node9_1</title><path fill="none" stroke="#000" d="M971.1,-132.45C966.56,-141.27 960.26,-150.3 951.84,-156 929.97,-170.82 871.73,-179.53 818.22,-184.55"/><polygon fill="#000" stroke="#000" points="974.38 -133.68 975.35 -123.13 968.01 -130.78 974.38 -133.68"/><text x="1022.34" y="-144.8" font-family="Times,serif" font-size="14" text-anchor="middle">सम्बन्धः</text></g><g id="node13" class="node"><title>Node11_1</title><ellipse cx="99.84" cy="-279" fill="#00bfff" stroke="#00bfff" rx="56.59" ry="18"/><text x="99.84" y="-275.3" font-family="Times,serif" font-size="14" text-anchor="middle">सः(11.1)</text></g><g id="edge12" class="edge"><title>Node11_1-&gt;Node12_1</title><path fill="none" stroke="#000" d="M114.07,-305.74C121.64,-319.42 130.73,-335.86 137.41,-347.95"/><polygon fill="#000" stroke="#000" points="117.03 -303.85 109.13 -296.79 110.9 -307.24 117.03 -303.85"/><text x="162.84" y="-318.8" font-family="Times,serif" font-size="14" text-anchor="middle">कर्ता</text></g></g></svg>