<svg xmlns="http://www.w3.org/2000/svg" xmlns:xlink="http://www.w3.org/1999/xlink" width="1952" height="428" viewBox="0 0 1463.74 321"><g id="graph0" class="graph" transform="scale(1 1) rotate(0) translate(4 317)"><title>G</title><polygon fill="#fffacd" stroke="transparent" points="-4 4 -4 -317 1459.74 -317 1459.74 4 -4 4"/><g id="clust1" class="cluster"><title>cluster_1</title><polygon fill="#fffacd" stroke="#000" points="1013.74 -8 1013.74 -234 1447.74 -234 1447.74 -8 1013.74 -8"/></g><g id="clust2" class="cluster"><title>cluster_2</title><polygon fill="#fffacd" stroke="#000" points="501.74 -8 501.74 -147 705.74 -147 705.74 -8 501.74 -8"/></g><g id="node1" class="node"><title>Node4_1</title><ellipse cx="1342.74" cy="-121" fill="#00bfff" stroke="#00bfff" rx="96.68" ry="18"/><text x="1342.74" y="-117.3" font-family="Times,serif" font-size="14" text-anchor="middle">माल्यम्(4.1)</text></g><g id="node2" class="node"><title>Node3_1</title><ellipse cx="1133.74" cy="-208" fill="#00bfff" stroke="#00bfff" rx="106.68" ry="18"/><text x="1133.74" y="-204.3" font-family="Times,serif" font-size="14" text-anchor="middle">वस्त्रम्(3.1)</text></g><g id="edge5" class="edge"><title>Node4_1-&gt;Node3_1</title><path fill="none" stroke="#000" d="M1306.37,-143.46C1289.26,-153.01 1268.34,-163.89 1248.74,-172 1229.65,-179.9 1208.13,-186.92 1188.91,-192.56"/><polygon fill="#000" stroke="#000" points="1308.48 -146.3 1315.46 -138.33 1305.03 -140.2 1308.48 -146.3"/><text x="1344.24" y="-160.8" font-family="Times,serif" font-size="14" text-anchor="middle">समुच्चितः</text></g><g id="node10" class="node"><title>Node9_1</title><ellipse cx="535.74" cy="-295" fill="#ff1975" stroke="#ff1975" rx="106.68" ry="18"/><text x="535.74" y="-291.3" font-family="Times,serif" font-size="14" text-anchor="middle">स्पन्दते(9.1)</text></g><g id="edge4" class="edge"><title>Node3_1-&gt;Node9_1</title><path fill="none" stroke="#000" d="M1063.73,-225.12C1014.46,-235.99 946.85,-249.94 886.74,-259 800.9,-271.93 702.51,-281.28 631.78,-287.04"/><polygon fill="#000" stroke="#000" points="1064.64 -228.51 1073.64 -222.92 1063.12 -221.67 1064.64 -228.51"/><text x="1003.74" y="-247.8" font-family="Times,serif" font-size="14" text-anchor="middle">कर्ता</text></g><g id="node3" class="node"><title>Node6_1</title><ellipse cx="1324.74" cy="-34" fill="#00bfff" stroke="#00bfff" rx="106.68" ry="18"/><text x="1324.74" y="-30.3" font-family="Times,serif" font-size="14" text-anchor="middle">गात्रजम्(6.1)</text></g><g id="edge7" class="edge"><title>Node6_1-&gt;Node4_1</title><path fill="none" stroke="#000" d="M1330.52,-62.27C1333.34,-75.58 1336.64,-91.19 1339.11,-102.82"/><polygon fill="#000" stroke="#000" points="1333.88 -61.26 1328.38 -52.2 1327.03 -62.71 1333.88 -61.26"/><text x="1392.24" y="-73.8" font-family="Times,serif" font-size="14" text-anchor="middle">विशेषणम्</text></g><g id="node4" class="node"><title>Node10_1</title><ellipse cx="1124.74" cy="-121" fill="#00bfff" stroke="#00bfff" rx="102.88" ry="18"/><text x="1124.74" y="-117.3" font-family="Times,serif" font-size="14" text-anchor="middle">चित्रम्(10.1)</text></g><g id="edge10" class="edge"><title>Node10_1-&gt;Node3_1</title><path fill="none" stroke="#000" d="M1127.63,-149.27C1129.04,-162.58 1130.69,-178.19 1131.92,-189.82"/><polygon fill="#000" stroke="#000" points="1131.1 -148.78 1126.56 -139.2 1124.14 -149.51 1131.1 -148.78"/><text x="1187.24" y="-160.8" font-family="Times,serif" font-size="14" text-anchor="middle">विशेषणम्</text></g><g id="node5" class="node"><title>Node12_1</title><ellipse cx="603.74" cy="-34" fill="#93db70" stroke="#93db70" rx="93.68" ry="18"/><text x="603.74" y="-30.3" font-family="Times,serif" font-size="14" text-anchor="middle">मन्दम्(12.1)</text></g><g id="node6" class="node"><title>Node14_1</title><ellipse cx="603.74" cy="-121" fill="#93db70" stroke="#93db70" rx="93.68" ry="18"/><text x="603.74" y="-117.3" font-family="Times,serif" font-size="14" text-anchor="middle">अनिलम्(14.1)</text></g><g id="edge12" class="edge"><title>Node12_1-&gt;Node14_1</title><path fill="none" stroke="#000" d="M603.74,-62.27C603.74,-75.58 603.74,-91.19 603.74,-102.82"/><polygon fill="#000" stroke="#000" points="607.24 -62.2 603.74 -52.2 600.24 -62.2 607.24 -62.2"/><text x="661.24" y="-73.8" font-family="Times,serif" font-size="14" text-anchor="middle">विशेषणम्</text></g><g id="node14" class="node"><title>Node11_1</title><ellipse cx="771.74" cy="-208" fill="#f9f" stroke="#f9f" rx="102.88" ry="18"/><text x="771.74" y="-204.3" font-family="Times,serif" font-size="14" text-anchor="middle">प्राप्य(11.1)</text></g><g id="edge14" class="edge"><title>Node14_1-&gt;Node11_1</title><path fill="none" stroke="#000" d="M644.48,-142.61C673.75,-157.42 712.66,-177.11 739.71,-190.79"/><polygon fill="#000" stroke="#000" points="645.84 -139.38 635.34 -137.99 642.68 -145.63 645.84 -139.38"/><text x="726.74" y="-160.8" font-family="Times,serif" font-size="14" text-anchor="middle">कर्म</text></g><g id="node7" class="node"><title>Node1_1</title><ellipse cx="87.74" cy="-121" fill="#87ceeb" stroke="#87ceeb" rx="87.99" ry="18"/><text x="87.74" y="-117.3" font-family="Times,serif" font-size="14" text-anchor="middle">तासाम्(1.1)</text></g><g id="node8" class="node"><title>Node2_2</title><ellipse cx="222.74" cy="-208" fill="#40e0d0" stroke="#40e0d0" rx="78.79" ry="18"/><text x="222.74" y="-204.3" font-family="Times,serif" font-size="14" text-anchor="middle">वातेन(2.2)</text></g><g id="edge1" class="edge"><title>Node1_1-&gt;Node2_2</title><path fill="none" stroke="#000" d="M81.75,-148.92C81.42,-157.05 82.74,-165.53 87.74,-172 96.74,-183.63 127.61,-192.11 157.56,-197.8"/><polygon fill="#000" stroke="#000" points="85.22 -149.31 82.89 -138.98 78.27 -148.51 85.22 -149.31"/><text x="180.74" y="-160.8" font-family="Times,serif" font-size="14" text-anchor="middle">षष्ठीसम्बन्धः</text></g><g id="edge3" class="edge"><title>Node2_2-&gt;Node9_1</title><path fill="none" stroke="#000" d="M254.42,-230.73C270.61,-240.83 291,-252.12 310.74,-259 351.99,-273.38 399.55,-281.87 440.29,-286.87"/><polygon fill="#000" stroke="#000" points="256.21 -227.71 245.9 -225.27 252.43 -233.61 256.21 -227.71"/><text x="346.74" y="-247.8" font-family="Times,serif" font-size="14" text-anchor="middle">करणम्</text></g><g id="node9" class="node"><title>Node2_1</title><ellipse cx="302.74" cy="-121" fill="#ff0" stroke="#ff0" rx="109.38" ry="18"/><text x="302.74" y="-117.3" font-family="Times,serif" font-size="14" text-anchor="middle">उच्छ्वास-(2.1)</text></g><g id="edge2" class="edge"><title>Node2_1-&gt;Node2_2</title><path fill="none" stroke="#000" d="M292.83,-148.36C288.94,-156.53 283.91,-165.16 277.74,-172 271,-179.48 262.29,-185.99 253.81,-191.3"/><polygon fill="#000" stroke="#000" points="296.06 -149.7 296.87 -139.13 289.65 -146.89 296.06 -149.7"/><text x="392.24" y="-160.8" font-family="Times,serif" font-size="14" text-anchor="middle">षष्ठी_तत्पुरुषः</text></g><g id="node11" class="node"><title>Node5_1</title><ellipse cx="909.74" cy="-121" fill="#f9f" stroke="#f9f" rx="41.69" ry="18"/><text x="909.74" y="-117.3" font-family="Times,serif" font-size="14" text-anchor="middle">च(5.1)</text></g><g id="edge6" class="edge"><title>Node5_1-&gt;Node3_1</title><path fill="none" stroke="#000" d="M907.64,-149.23C908.42,-157.52 910.88,-166.01 916.74,-172 933.23,-188.83 984.31,-197.57 1032.77,-202.11"/><polygon fill="#000" stroke="#000" points="911.13 -148.97 907.42 -139.05 904.13 -149.12 911.13 -148.97"/><text x="1020.24" y="-160.8" font-family="Times,serif" font-size="14" text-anchor="middle">समुच्चय_द्योतकः</text></g><g id="node12" class="node"><title>Node7_1</title><ellipse cx="360.74" cy="-208" fill="#f9f" stroke="#f9f" rx="41.69" ry="18"/><text x="360.74" y="-204.3" font-family="Times,serif" font-size="14" text-anchor="middle">न(7.1)</text></g><g id="edge8" class="edge"><title>Node7_1-&gt;Node9_1</title><path fill="none" stroke="#000" d="M376.93,-234.13C383.89,-243.15 392.73,-252.65 402.74,-259 419.68,-269.73 439.83,-277.19 459.25,-282.37"/><polygon fill="#000" stroke="#000" points="379.56 -231.79 370.86 -225.74 373.89 -235.89 379.56 -231.79"/><text x="467.24" y="-247.8" font-family="Times,serif" font-size="14" text-anchor="middle">प्रतिषेधः</text></g><g id="node13" class="node"><title>Node8_1</title><ellipse cx="535.74" cy="-208" fill="#00bfff" stroke="#00bfff" rx="115.88" ry="18"/><text x="535.74" y="-204.3" font-family="Times,serif" font-size="14" text-anchor="middle">अत्यर्थम्(8.1)</text></g><g id="edge9" class="edge"><title>Node8_1-&gt;Node9_1</title><path fill="none" stroke="#000" d="M535.74,-236.27C535.74,-249.58 535.74,-265.19 535.74,-276.82"/><polygon fill="#000" stroke="#000" points="539.24 -236.2 535.74 -226.2 532.24 -236.2 539.24 -236.2"/><text x="635.74" y="-247.8" font-family="Times,serif" font-size="14" text-anchor="middle">क्रियाविशेषणम्</text></g><g id="edge11" class="edge"><title>Node11_1-&gt;Node9_1</title><path fill="none" stroke="#000" d="M760.51,-235.09C755.42,-244 748.54,-253.16 739.74,-259 721.06,-271.39 672.15,-280.02 626.9,-285.6"/><polygon fill="#000" stroke="#000" points="763.69 -236.56 765.17 -226.07 757.47 -233.35 763.69 -236.56"/><text x="818.24" y="-247.8" font-family="Times,serif" font-size="14" text-anchor="middle">पूर्वकालः</text></g><g id="node15" class="node"><title>Node13_1</title><ellipse cx="771.74" cy="-121" fill="#f9f" stroke="#f9f" rx="56.59" ry="18"/><text x="771.74" y="-117.3" font-family="Times,serif" font-size="14" text-anchor="middle">इव(13.1)</text></g><g id="edge13" class="edge"><title>Node13_1-&gt;Node11_1</title><path fill="none" stroke="#000" d="M771.74,-149.27C771.74,-162.58 771.74,-178.19 771.74,-189.82"/><polygon fill="#000" stroke="#000" points="775.24 -149.2 771.74 -139.2 768.24 -149.2 775.24 -149.2"/><text x="829.24" y="-160.8" font-family="Times,serif" font-size="14" text-anchor="middle">सम्बन्धः</text></g></g></svg>