<svg xmlns="http://www.w3.org/2000/svg" xmlns:xlink="http://www.w3.org/1999/xlink" width="3091pt" height="428" viewBox="0 0 3091.49 321"><g id="graph0" class="graph" transform="scale(1 1) rotate(0) translate(4 317)"><title>G</title><polygon fill="#fffacd" stroke="transparent" points="-4 4 -4 -317 3087.49 -317 3087.49 4 -4 4"/><g id="clust1" class="cluster"><title>cluster_1</title><polygon fill="#fffacd" stroke="#000" points="8 -8 8 -147 256 -147 256 -8 8 -8"/></g><g id="clust2" class="cluster"><title>cluster_2</title><polygon fill="#fffacd" stroke="#000" points="149 -182 149 -234 323 -234 323 -182 149 -182"/></g><g id="clust3" class="cluster"><title>cluster_3</title><polygon fill="#fffacd" stroke="#000" points="936 -8 936 -147 1140 -147 1140 -8 936 -8"/></g><g id="clust4" class="cluster"><title>cluster_4</title><polygon fill="#fffacd" stroke="#000" points="1393 -8 1393 -147 1915 -147 1915 -8 1393 -8"/></g><g id="clust5" class="cluster"><title>cluster_5</title><polygon fill="#fffacd" stroke="#000" points="2181 -8 2181 -147 2403 -147 2403 -8 2181 -8"/></g><g id="node1" class="node"><title>Node1_1</title><ellipse cx="132" cy="-34" fill="#87ceeb" stroke="#87ceeb" rx="69.59" ry="18"/><text x="132" y="-30.3" font-family="Times,serif" font-size="14" text-anchor="middle">यस्य(1.1)</text></g><g id="node2" class="node"><title>Node2_1</title><ellipse cx="132" cy="-121" fill="#87ceeb" stroke="#87ceeb" rx="115.88" ry="18"/><text x="132" y="-117.3" font-family="Times,serif" font-size="14" text-anchor="middle">सत्त्वस्य(2.1)</text></g><g id="edge1" class="edge"><title>Node1_1-&gt;Node2_1</title><path fill="none" stroke="#000" d="M132,-62.27C132,-75.58 132,-91.19 132,-102.82"/><polygon fill="#000" stroke="#000" points="135.5 -62.2 132 -52.2 128.5 -62.2 135.5 -62.2"/><text x="189.5" y="-73.8" font-family="Times,serif" font-size="14" text-anchor="middle">विशेषणम्</text></g><g id="node4" class="node"><title>Node4_1</title><ellipse cx="236" cy="-208" fill="#00bfff" stroke="#00bfff" rx="78.79" ry="18"/><text x="236" y="-204.3" font-family="Times,serif" font-size="14" text-anchor="middle">योनिः(4.1)</text></g><g id="edge2" class="edge"><title>Node2_1-&gt;Node4_1</title><path fill="none" stroke="#000" d="M126.9,-149.39C126.83,-157.32 128.29,-165.57 133,-172 142.2,-184.58 156.17,-192.68 170.87,-197.89"/><polygon fill="#000" stroke="#000" points="130.39 -149.57 127.71 -139.32 123.42 -149 130.39 -149.57"/><text x="226" y="-160.8" font-family="Times,serif" font-size="14" text-anchor="middle">षष्ठीसम्बन्धः</text></g><g id="node3" class="node"><title>Node3_1</title><ellipse cx="341" cy="-121" fill="#00bfff" stroke="#00bfff" rx="50.89" ry="18"/><text x="341" y="-117.3" font-family="Times,serif" font-size="14" text-anchor="middle">या(3.1)</text></g><g id="edge3" class="edge"><title>Node3_1-&gt;Node4_1</title><path fill="none" stroke="#000" d="M333.6,-148.61C330.23,-156.93 325.51,-165.59 319,-172 309.42,-181.44 296.91,-188.48 284.51,-193.68"/><polygon fill="#000" stroke="#000" points="336.9 -149.76 336.94 -139.17 330.3 -147.43 336.9 -149.76"/><text x="387.5" y="-160.8" font-family="Times,serif" font-size="14" text-anchor="middle">विशेषणम्</text></g><g id="node13" class="node"><title>Node5_1</title><ellipse cx="692" cy="-121" fill="#c6e2eb" stroke="#c6e2eb" rx="96.68" ry="18"/><text x="692" y="-117.3" font-family="Times,serif" font-size="14" text-anchor="middle">तस्याम्(5.1)</text></g><g id="edge4" class="edge"><title>Node3_1-&gt;Node5_1</title><path fill="none" stroke="red" stroke-dasharray="5 2" d="M402.34,-121C452.64,-121 525.05,-121 584.88,-121"/><polygon fill="red" stroke="red" points="402.04 -117.5 392.04 -121 402.04 -124.5 402.04 -117.5"/><polygon fill="red" stroke="red" points="585.13 -124.5 595.13 -121 585.13 -117.5 585.13 -124.5"/><text x="493.43" y="-106.8" font-family="Times,serif" font-size="14" text-anchor="middle">नित्यसम्बन्धः</text></g><g id="node5" class="node"><title>Node11_1</title><ellipse cx="1028" cy="-34" fill="#00bfff" stroke="#00bfff" rx="84.49" ry="18"/><text x="1028" y="-30.3" font-family="Times,serif" font-size="14" text-anchor="middle">नष्टा(11.1)</text></g><g id="node6" class="node"><title>Node10_1</title><ellipse cx="1038" cy="-121" fill="#00bfff" stroke="#00bfff" rx="93.68" ry="18"/><text x="1038" y="-117.3" font-family="Times,serif" font-size="14" text-anchor="middle">प्रमदा(10.1)</text></g><g id="edge9" class="edge"><title>Node11_1-&gt;Node10_1</title><path fill="none" stroke="#000" d="M1031.21,-62.27C1032.77,-75.58 1034.61,-91.19 1035.98,-102.82"/><polygon fill="#000" stroke="#000" points="1034.67 -61.72 1030.02 -52.2 1027.72 -62.54 1034.67 -61.72"/><text x="1091.5" y="-73.8" font-family="Times,serif" font-size="14" text-anchor="middle">विशेषणम्</text></g><g id="node18" class="node"><title>Node13_1</title><ellipse cx="1038" cy="-208" fill="#f9f" stroke="#f9f" rx="158.67" ry="18"/><text x="1038" y="-204.3" font-family="Times,serif" font-size="14" text-anchor="middle">परिमार्गितुम्(13.1)</text></g><g id="edge8" class="edge"><title>Node10_1-&gt;Node13_1</title><path fill="none" stroke="#000" d="M1038,-149.27C1038,-162.58 1038,-178.19 1038,-189.82"/><polygon fill="#000" stroke="#000" points="1041.5 -149.2 1038 -139.2 1034.5 -149.2 1041.5 -149.2"/><text x="1067" y="-160.8" font-family="Times,serif" font-size="14" text-anchor="middle">कर्म</text></g><g id="node7" class="node"><title>Node14_1</title><ellipse cx="1841" cy="-34" fill="#00bfff" stroke="#00bfff" rx="65.79" ry="18"/><text x="1841" y="-30.3" font-family="Times,serif" font-size="14" text-anchor="middle">तत्(14.1)</text></g><g id="node8" class="node"><title>Node21_2</title><ellipse cx="1776" cy="-121" fill="#00bfff" stroke="#00bfff" rx="130.78" ry="18"/><text x="1776" y="-117.3" font-family="Times,serif" font-size="14" text-anchor="middle">अन्तःपुरम्(21.2)</text></g><g id="edge12" class="edge"><title>Node14_1-&gt;Node21_2</title><path fill="none" stroke="#000" d="M1821.92,-59.95C1811.34,-73.78 1798.46,-90.63 1789.04,-102.95"/><polygon fill="#000" stroke="#000" points="1824.86 -61.86 1828.16 -51.79 1819.3 -57.61 1824.86 -61.86"/><text x="1870.5" y="-73.8" font-family="Times,serif" font-size="14" text-anchor="middle">विशेषणम्</text></g><g id="node20" class="node"><title>Node16_1</title><ellipse cx="2422" cy="-208" fill="#00bfff" stroke="#00bfff" rx="121.58" ry="18"/><text x="2422" y="-204.3" font-family="Times,serif" font-size="14" text-anchor="middle">मार्गितम्(16.1)</text></g><g id="edge19" class="edge"><title>Node21_2-&gt;Node16_1</title><path fill="none" stroke="#000" d="M1876.86,-135.27C2002.59,-151.81 2215.4,-179.82 2334.54,-195.49"/><polygon fill="#000" stroke="#000" points="1877.22 -131.79 1866.84 -133.95 1876.3 -138.73 1877.22 -131.79"/><text x="2167" y="-160.8" font-family="Times,serif" font-size="14" text-anchor="middle">कर्म</text></g><g id="node9" class="node"><title>Node15_1</title><ellipse cx="1682" cy="-34" fill="#00bfff" stroke="#00bfff" rx="75.29" ry="18"/><text x="1682" y="-30.3" font-family="Times,serif" font-size="14" text-anchor="middle">इदम्(15.1)</text></g><g id="edge13" class="edge"><title>Node15_1-&gt;Node21_2</title><path fill="none" stroke="#000" d="M1678.93,-62.41C1679.36,-70.35 1681.23,-78.59 1686,-85 1692.51,-93.74 1701.51,-100.3 1711.33,-105.22"/><polygon fill="#000" stroke="#000" points="1682.44 -62.39 1679.08 -52.34 1675.44 -62.29 1682.44 -62.39"/><text x="1743.5" y="-73.8" font-family="Times,serif" font-size="14" text-anchor="middle">विशेषणम्</text></g><g id="node10" class="node"><title>Node22_1</title><ellipse cx="1495" cy="-34" fill="#00bfff" stroke="#00bfff" rx="93.68" ry="18"/><text x="1495" y="-30.3" font-family="Times,serif" font-size="14" text-anchor="middle">सर्वम्(22.1)</text></g><g id="edge20" class="edge"><title>Node22_1-&gt;Node21_2</title><path fill="none" stroke="#000" d="M1519.82,-58.4C1531.48,-68.12 1546.08,-78.61 1561,-85 1592.63,-98.56 1628.94,-106.9 1662.61,-112.02"/><polygon fill="#000" stroke="#000" points="1522.1 -55.75 1512.25 -51.85 1517.52 -61.04 1522.1 -55.75"/><text x="1618.5" y="-73.8" font-family="Times,serif" font-size="14" text-anchor="middle">विशेषणम्</text></g><g id="node11" class="node"><title>Node18_1</title><ellipse cx="2292" cy="-34" fill="#40e0d0" stroke="#40e0d0" rx="102.88" ry="18"/><text x="2292" y="-30.3" font-family="Times,serif" font-size="14" text-anchor="middle">शुद्धेन(18.1)</text></g><g id="node12" class="node"><title>Node19_1</title><ellipse cx="2299" cy="-121" fill="#40e0d0" stroke="#40e0d0" rx="75.29" ry="18"/><text x="2299" y="-117.3" font-family="Times,serif" font-size="14" text-anchor="middle">मनसा(19.1)</text></g><g id="edge15" class="edge"><title>Node18_1-&gt;Node19_1</title><path fill="none" stroke="#000" d="M2294.25,-62.27C2295.34,-75.58 2296.63,-91.19 2297.59,-102.82"/><polygon fill="#000" stroke="#000" points="2297.73 -61.88 2293.42 -52.2 2290.75 -62.45 2297.73 -61.88"/><text x="2353.5" y="-73.8" font-family="Times,serif" font-size="14" text-anchor="middle">विशेषणम्</text></g><g id="edge16" class="edge"><title>Node19_1-&gt;Node16_1</title><path fill="none" stroke="#000" d="M2330.69,-143.9C2351.62,-158.36 2378.62,-177.02 2397.82,-190.29"/><polygon fill="#000" stroke="#000" points="2332.64 -140.99 2322.42 -138.19 2328.66 -146.75 2332.64 -140.99"/><text x="2404" y="-160.8" font-family="Times,serif" font-size="14" text-anchor="middle">करणम्</text></g><g id="node14" class="node"><title>Node7_1</title><ellipse cx="725" cy="-208" fill="#ff1975" stroke="#ff1975" rx="124.58" ry="18"/><text x="725" y="-204.3" font-family="Times,serif" font-size="14" text-anchor="middle">परिमार्गते(7.1)</text></g><g id="edge5" class="edge"><title>Node5_1-&gt;Node7_1</title><path fill="none" stroke="#000" d="M702.43,-148.87C707.63,-162.27 713.77,-178.08 718.33,-189.82"/><polygon fill="#000" stroke="#000" points="705.56 -147.26 698.68 -139.2 699.03 -149.79 705.56 -147.26"/><text x="768.5" y="-160.8" font-family="Times,serif" font-size="14" text-anchor="middle">अधिकरणम्</text></g><g id="node15" class="node"><title>Node6_1</title><ellipse cx="867" cy="-121" fill="#93db70" stroke="#93db70" rx="59.59" ry="18"/><text x="867" y="-117.3" font-family="Times,serif" font-size="14" text-anchor="middle">तत्(6.1)</text></g><g id="edge6" class="edge"><title>Node6_1-&gt;Node7_1</title><path fill="none" stroke="#000" d="M852.62,-147.49C846.6,-156.28 838.91,-165.53 830,-172 817.87,-180.8 803.38,-187.49 789.1,-192.53"/><polygon fill="#000" stroke="#000" points="855.63 -149.28 858.07 -138.97 849.73 -145.51 855.63 -149.28"/><text x="874" y="-160.8" font-family="Times,serif" font-size="14" text-anchor="middle">कर्म</text></g><g id="node16" class="node"><title>Node8_1</title><ellipse cx="1256" cy="-208" fill="#f9f" stroke="#f9f" rx="41.69" ry="18"/><text x="1256" y="-204.3" font-family="Times,serif" font-size="14" text-anchor="middle">न(8.1)</text></g><g id="node17" class="node"><title>Node9_1</title><ellipse cx="1147" cy="-295" fill="#00bfff" stroke="#00bfff" rx="87.99" ry="18"/><text x="1147" y="-291.3" font-family="Times,serif" font-size="14" text-anchor="middle">शक्यम्(9.1)</text></g><g id="edge7" class="edge"><title>Node8_1-&gt;Node9_1</title><path fill="none" stroke="#000" d="M1233.58,-232.61C1224.75,-241.35 1214.27,-251.06 1204,-259 1195.27,-265.75 1185.17,-272.31 1175.92,-277.89"/><polygon fill="#000" stroke="#000" points="1236.32 -234.82 1240.87 -225.25 1231.35 -229.89 1236.32 -234.82"/><text x="1285.5" y="-247.8" font-family="Times,serif" font-size="14" text-anchor="middle">प्रतिषेधः</text></g><g id="edge11" class="edge"><title>Node13_1-&gt;Node9_1</title><path fill="none" stroke="#000" d="M1051.29,-234.94C1056.56,-243.4 1063.23,-252.33 1071,-259 1080.59,-267.23 1092.44,-273.91 1103.9,-279.14"/><polygon fill="#000" stroke="#000" points="1054.19 -232.95 1046.14 -226.06 1048.13 -236.46 1054.19 -232.95"/><text x="1135.5" y="-247.8" font-family="Times,serif" font-size="14" text-anchor="middle">प्रयोजनम्</text></g><g id="node19" class="node"><title>Node12_1</title><ellipse cx="1242" cy="-34" fill="#c6e2eb" stroke="#c6e2eb" rx="93.68" ry="18"/><text x="1242" y="-30.3" font-family="Times,serif" font-size="14" text-anchor="middle">मृगीषु(12.1)</text></g><g id="edge10" class="edge"><title>Node12_1-&gt;Node10_1</title><path fill="none" stroke="#000" d="M1207.7,-56.57C1191.52,-66.14 1171.7,-77.01 1153,-85 1133.52,-93.32 1111.41,-100.54 1091.82,-106.23"/><polygon fill="#000" stroke="#000" points="1209.51 -59.57 1216.28 -51.42 1205.9 -53.57 1209.51 -59.57"/><text x="1255.5" y="-73.8" font-family="Times,serif" font-size="14" text-anchor="middle">निर्धारणम्</text></g><g id="node21" class="node"><title>Node17_1</title><ellipse cx="2495" cy="-121" fill="#f9f" stroke="#f9f" rx="84.49" ry="18"/><text x="2495" y="-117.3" font-family="Times,serif" font-size="14" text-anchor="middle">तावत्(17.1)</text></g><g id="edge14" class="edge"><title>Node17_1-&gt;Node16_1</title><path fill="none" stroke="#000" d="M2473.91,-146.56C2461.96,-160.47 2447.33,-177.51 2436.64,-189.95"/><polygon fill="#000" stroke="#000" points="2476.72 -148.66 2480.58 -138.79 2471.41 -144.1 2476.72 -148.66"/><text x="2520.5" y="-160.8" font-family="Times,serif" font-size="14" text-anchor="middle">सम्बन्धः</text></g><g id="node22" class="node"><title>Node20_1</title><ellipse cx="2663" cy="-121" fill="#40e0d0" stroke="#40e0d0" rx="65.79" ry="18"/><text x="2663" y="-117.3" font-family="Times,serif" font-size="14" text-anchor="middle">मया(20.1)</text></g><g id="edge17" class="edge"><title>Node20_1-&gt;Node16_1</title><path fill="none" stroke="#000" d="M2632.74,-144.07C2618.05,-153.89 2599.76,-164.82 2582,-172 2557.35,-181.96 2529.36,-189.32 2503.77,-194.64"/><polygon fill="#000" stroke="#000" points="2635.12 -146.69 2641.39 -138.15 2631.16 -140.92 2635.12 -146.69"/><text x="2647" y="-160.8" font-family="Times,serif" font-size="14" text-anchor="middle">कर्ता</text></g><g id="node23" class="node"><title>Node21_1</title><ellipse cx="2003" cy="-34" fill="#ff0" stroke="#ff0" rx="77.99" ry="18"/><text x="2003" y="-30.3" font-family="Times,serif" font-size="14" text-anchor="middle">रावण-(21.1)</text></g><g id="edge18" class="edge"><title>Node21_1-&gt;Node21_2</title><path fill="none" stroke="#000" d="M1976.21,-57.65C1963.52,-67.36 1947.72,-78.04 1932,-85 1909.8,-94.84 1884.55,-102.04 1860.93,-107.26"/><polygon fill="#000" stroke="#000" points="1978.38 -60.4 1984.07 -51.47 1974.05 -54.9 1978.38 -60.4"/><text x="2060.5" y="-73.8" font-family="Times,serif" font-size="14" text-anchor="middle">षष्ठी_तत्पुरुषः</text></g><g id="node24" class="node"><title>Node23_1</title><ellipse cx="2849" cy="-121" fill="#ff1975" stroke="#ff1975" rx="102.88" ry="18"/><text x="2849" y="-117.3" font-family="Times,serif" font-size="14" text-anchor="middle">दृश्यते(23.1)</text></g><g id="node25" class="node"><title>Node24_1</title><ellipse cx="2697" cy="-34" fill="#f9f" stroke="#f9f" rx="47.39" ry="18"/><text x="2697" y="-30.3" font-family="Times,serif" font-size="14" text-anchor="middle">न(24.1)</text></g><g id="edge21" class="edge"><title>Node24_1-&gt;Node23_1</title><path fill="none" stroke="#000" d="M2702.07,-61.74C2704.89,-70.21 2709.25,-78.93 2716,-85 2729.67,-97.29 2747.15,-105.36 2764.91,-110.63"/><polygon fill="#000" stroke="#000" points="2705.44 -60.81 2699.42 -52.09 2698.69 -62.66 2705.44 -60.81"/><text x="2780.5" y="-73.8" font-family="Times,serif" font-size="14" text-anchor="middle">प्रतिषेधः</text></g><g id="node26" class="node"><title>Node25_1</title><ellipse cx="2849" cy="-34" fill="#f9f" stroke="#f9f" rx="47.39" ry="18"/><text x="2849" y="-30.3" font-family="Times,serif" font-size="14" text-anchor="middle">च(25.1)</text></g><g id="edge22" class="edge"><title>Node25_1-&gt;Node23_1</title><path fill="none" stroke="#000" d="M2849,-62.27C2849,-75.58 2849,-91.19 2849,-102.82"/><polygon fill="#000" stroke="#000" points="2852.5 -62.2 2849 -52.2 2845.5 -62.2 2852.5 -62.2"/><text x="2906.5" y="-73.8" font-family="Times,serif" font-size="14" text-anchor="middle">सम्बन्धः</text></g><g id="node27" class="node"><title>Node26_1</title><ellipse cx="2999" cy="-34" fill="#00bfff" stroke="#00bfff" rx="84.49" ry="18"/><text x="2999" y="-30.3" font-family="Times,serif" font-size="14" text-anchor="middle">जानकी(26.1)</text></g><g id="edge23" class="edge"><title>Node26_1-&gt;Node23_1</title><path fill="none" stroke="#000" d="M2987.53,-61.21C2982.62,-69.85 2976.11,-78.82 2968,-85 2954.21,-95.5 2937.32,-102.86 2920.66,-108.02"/><polygon fill="#000" stroke="#000" points="2990.75 -62.6 2992.24 -52.11 2984.53 -59.39 2990.75 -62.6"/><text x="3010" y="-73.8" font-family="Times,serif" font-size="14" text-anchor="middle">कर्म</text></g></g></svg>