<svg xmlns="http://www.w3.org/2000/svg" xmlns:xlink="http://www.w3.org/1999/xlink" width="2849pt" height="544" viewBox="0 0 2849.45 408"><g id="graph0" class="graph" transform="scale(1 1) rotate(0) translate(4 404)"><title>G</title><polygon fill="#fffacd" stroke="transparent" points="-4 4 -4 -404 2845.45 -404 2845.45 4 -4 4"/><g id="clust1" class="cluster"><title>cluster_1</title><polygon fill="#fffacd" stroke="#000" points="968 -182 968 -321 2260 -321 2260 -182 968 -182"/></g><g id="clust2" class="cluster"><title>cluster_2</title><polygon fill="#fffacd" stroke="#000" points="8 -8 8 -147 256 -147 256 -8 8 -8"/></g><g id="clust3" class="cluster"><title>cluster_3</title><polygon fill="#fffacd" stroke="#000" points="503 -8 503 -147 1005 -147 1005 -8 503 -8"/></g><g id="node1" class="node"><title>Node3_1</title><ellipse cx="1092" cy="-208" fill="#93db70" stroke="#93db70" rx="115.88" ry="18"/><text x="1092" y="-204.3" font-family="Times,serif" font-size="14" text-anchor="middle">क्लान्ताः(3.1)</text></g><g id="node2" class="node"><title>Node24_1</title><ellipse cx="1477" cy="-295" fill="#93db70" stroke="#93db70" rx="112.38" ry="18"/><text x="1477" y="-291.3" font-family="Times,serif" font-size="14" text-anchor="middle">स्त्रियः(24.1)</text></g><g id="edge3" class="edge"><title>Node3_1-&gt;Node24_1</title><path fill="none" stroke="#000" d="M1155.6,-226.73C1193.09,-236.86 1241.56,-249.43 1285,-259 1323.22,-267.42 1366.03,-275.37 1401.52,-281.56"/><polygon fill="#000" stroke="#000" points="1156.39 -223.31 1145.82 -224.07 1154.55 -230.07 1156.39 -223.31"/><text x="1342.5" y="-247.8" font-family="Times,serif" font-size="14" text-anchor="middle">विशेषणम्</text></g><g id="node15" class="node"><title>Node26_1</title><ellipse cx="878" cy="-382" fill="#ff1975" stroke="#ff1975" rx="90.98" ry="18"/><text x="878" y="-378.3" font-family="Times,serif" font-size="14" text-anchor="middle">(ददर्श)(26.1)</text></g><g id="edge26" class="edge"><title>Node24_1-&gt;Node26_1</title><path fill="none" stroke="#000" d="M1385.67,-308.96C1265.95,-325.95 1058.43,-355.4 949.49,-370.86"/><polygon fill="#000" stroke="#000" points="1386.5 -312.38 1395.9 -307.51 1385.51 -305.45 1386.5 -312.38"/><text x="1242" y="-334.8" font-family="Times,serif" font-size="14" text-anchor="middle">कर्म</text></g><g id="node3" class="node"><title>Node11_1</title><ellipse cx="1608" cy="-208" fill="#93db70" stroke="#93db70" rx="121.58" ry="18"/><text x="1608" y="-204.3" font-family="Times,serif" font-size="14" text-anchor="middle">क्लान्ताः(11.1)</text></g><g id="edge11" class="edge"><title>Node11_1-&gt;Node24_1</title><path fill="none" stroke="#000" d="M1577.31,-231.92C1565.24,-240.67 1551.15,-250.56 1538,-259 1528.14,-265.33 1517.09,-271.84 1507.14,-277.49"/><polygon fill="#000" stroke="#000" points="1579.69 -234.52 1585.69 -225.79 1575.56 -228.87 1579.69 -234.52"/><text x="1616.5" y="-247.8" font-family="Times,serif" font-size="14" text-anchor="middle">विशेषणम्</text></g><g id="node4" class="node"><title>Node12_2</title><ellipse cx="1869" cy="-208" fill="#93db70" stroke="#93db70" rx="121.58" ry="18"/><text x="1869" y="-204.3" font-family="Times,serif" font-size="14" text-anchor="middle">विप्रहताः(12.2)</text></g><g id="edge13" class="edge"><title>Node12_2-&gt;Node24_1</title><path fill="none" stroke="#000" d="M1806.1,-226.88C1769.01,-237.07 1721.04,-249.64 1678,-259 1637.68,-267.77 1592.43,-275.81 1555.09,-281.96"/><polygon fill="#000" stroke="#000" points="1807.07 -230.25 1815.77 -224.21 1805.2 -223.5 1807.07 -230.25"/><text x="1793.5" y="-247.8" font-family="Times,serif" font-size="14" text-anchor="middle">विशेषणम्</text></g><g id="node5" class="node"><title>Node18_1</title><ellipse cx="1347" cy="-208" fill="#93db70" stroke="#93db70" rx="121.58" ry="18"/><text x="1347" y="-204.3" font-family="Times,serif" font-size="14" text-anchor="middle">संस्थिताः(18.1)</text></g><g id="edge19" class="edge"><title>Node18_1-&gt;Node24_1</title><path fill="none" stroke="#000" d="M1381.09,-231.29C1403.1,-245.68 1431.26,-264.1 1451.37,-277.24"/><polygon fill="#000" stroke="#000" points="1382.97 -228.34 1372.68 -225.79 1379.14 -234.2 1382.97 -228.34"/><text x="1476.5" y="-247.8" font-family="Times,serif" font-size="14" text-anchor="middle">विशेषणम्</text></g><g id="node6" class="node"><title>Node21_1</title><ellipse cx="2130" cy="-208" fill="#93db70" stroke="#93db70" rx="121.58" ry="18"/><text x="2130" y="-204.3" font-family="Times,serif" font-size="14" text-anchor="middle">संविष्टाः(21.1)</text></g><g id="edge23" class="edge"><title>Node21_1-&gt;Node24_1</title><path fill="none" stroke="#000" d="M2052.45,-224.97C1997.51,-235.83 1921.98,-249.83 1855,-259 1761.46,-271.81 1654.25,-281.24 1577.95,-287.07"/><polygon fill="#000" stroke="#000" points="2053.33 -228.37 2062.46 -222.99 2051.97 -221.5 2053.33 -228.37"/><text x="2003.5" y="-247.8" font-family="Times,serif" font-size="14" text-anchor="middle">विशेषणम्</text></g><g id="node7" class="node"><title>Node4_1</title><ellipse cx="119" cy="-34" fill="#40e0d0" stroke="#40e0d0" rx="78.79" ry="18"/><text x="119" y="-30.3" font-family="Times,serif" font-size="14" text-anchor="middle">गीतेन(4.1)</text></g><g id="node8" class="node"><title>Node1_1</title><ellipse cx="132" cy="-121" fill="#40e0d0" stroke="#40e0d0" rx="115.88" ry="18"/><text x="132" y="-117.3" font-family="Times,serif" font-size="14" text-anchor="middle">क्रीडितेन(1.1)</text></g><g id="edge4" class="edge"><title>Node4_1-&gt;Node1_1</title><path fill="none" stroke="#000" d="M123.17,-62.27C125.21,-75.58 127.59,-91.19 129.37,-102.82"/><polygon fill="#000" stroke="#000" points="126.6 -61.56 121.63 -52.2 119.68 -62.62 126.6 -61.56"/><text x="191.5" y="-73.8" font-family="Times,serif" font-size="14" text-anchor="middle">समुच्चितः</text></g><g id="edge1" class="edge"><title>Node1_1-&gt;Node3_1</title><path fill="none" stroke="#000" d="M239.96,-131.56C428.13,-148.22 813.33,-182.33 994.16,-198.34"/><polygon fill="#000" stroke="#000" points="240.05 -128.05 229.78 -130.66 239.43 -135.03 240.05 -128.05"/><text x="705" y="-160.8" font-family="Times,serif" font-size="14" text-anchor="middle">करणम्</text></g><g id="node9" class="node"><title>Node15_1</title><ellipse cx="875" cy="-34" fill="#c6e2eb" stroke="#c6e2eb" rx="121.58" ry="18"/><text x="875" y="-30.3" font-family="Times,serif" font-size="14" text-anchor="middle">मृदङ्गेषु(15.1)</text></g><g id="node10" class="node"><title>Node14_1</title><ellipse cx="879" cy="-121" fill="#c6e2eb" stroke="#c6e2eb" rx="102.88" ry="18"/><text x="879" y="-117.3" font-family="Times,serif" font-size="14" text-anchor="middle">मुरजेषु(14.1)</text></g><g id="edge16" class="edge"><title>Node15_1-&gt;Node14_1</title><path fill="none" stroke="#000" d="M876.28,-62.27C876.91,-75.58 877.64,-91.19 878.19,-102.82"/><polygon fill="#000" stroke="#000" points="879.78 -62.03 875.81 -52.2 872.78 -62.35 879.78 -62.03"/><text x="941.5" y="-73.8" font-family="Times,serif" font-size="14" text-anchor="middle">समुच्चितः</text></g><g id="edge15" class="edge"><title>Node14_1-&gt;Node18_1</title><path fill="none" stroke="#000" d="M897.96,-146.88C906.83,-156.56 918.26,-166.61 931,-172 960.28,-184.39 1185.4,-178.43 1217,-182 1238.7,-184.45 1262.19,-188.52 1283.16,-192.68"/><polygon fill="#000" stroke="#000" points="900.59 -144.57 891.41 -139.29 895.29 -149.14 900.59 -144.57"/><text x="1009.5" y="-160.8" font-family="Times,serif" font-size="14" text-anchor="middle">देशाधिकरणम्</text></g><g id="node11" class="node"><title>Node16_1</title><ellipse cx="623" cy="-34" fill="#c6e2eb" stroke="#c6e2eb" rx="112.38" ry="18"/><text x="623" y="-30.3" font-family="Times,serif" font-size="14" text-anchor="middle">चेलिकासु(16.1)</text></g><g id="edge17" class="edge"><title>Node16_1-&gt;Node14_1</title><path fill="none" stroke="#000" d="M667.19,-55.19C689.61,-64.98 717.44,-76.44 743,-85 767.39,-93.17 794.77,-100.55 818.54,-106.41"/><polygon fill="#000" stroke="#000" points="668.5 -51.94 657.94 -51.11 665.68 -58.35 668.5 -51.94"/><text x="807.5" y="-73.8" font-family="Times,serif" font-size="14" text-anchor="middle">समुच्चितः</text></g><g id="node12" class="node"><title>Node2_1</title><ellipse cx="1092" cy="-121" fill="#00bfff" stroke="#00bfff" rx="78.79" ry="18"/><text x="1092" y="-117.3" font-family="Times,serif" font-size="14" text-anchor="middle">अपराः(2.1)</text></g><g id="edge2" class="edge"><title>Node2_1-&gt;Node3_1</title><path fill="none" stroke="#000" d="M1092,-149.27C1092,-162.58 1092,-178.19 1092,-189.82"/><polygon fill="#000" stroke="#000" points="1095.5 -149.2 1092 -139.2 1088.5 -149.2 1095.5 -149.2"/><text x="1128" y="-160.8" font-family="Times,serif" font-size="14" text-anchor="middle">कर्ता</text></g><g id="node13" class="node"><title>Node5_1</title><ellipse cx="306" cy="-34" fill="#f9f" stroke="#f9f" rx="41.69" ry="18"/><text x="306" y="-30.3" font-family="Times,serif" font-size="14" text-anchor="middle">च(5.1)</text></g><g id="edge5" class="edge"><title>Node5_1-&gt;Node1_1</title><path fill="none" stroke="#000" d="M288.29,-59.49C280.54,-68.67 270.75,-78.45 260,-85 243.77,-94.89 224.7,-102.03 206.32,-107.18"/><polygon fill="#000" stroke="#000" points="291.03 -61.67 294.55 -51.68 285.57 -57.29 291.03 -61.67"/><text x="381.5" y="-73.8" font-family="Times,serif" font-size="14" text-anchor="middle">समुच्चय_द्योतकः</text></g><g id="node14" class="node"><title>Node6_1</title><ellipse cx="718" cy="-295" fill="#f9f" stroke="#f9f" rx="59.59" ry="18"/><text x="718" y="-291.3" font-family="Times,serif" font-size="14" text-anchor="middle">तथा(6.1)</text></g><g id="edge6" class="edge"><title>Node6_1-&gt;Node26_1</title><path fill="none" stroke="#000" d="M734.09,-321.37C740.83,-330.26 749.35,-339.61 759,-346 775.07,-356.64 794.45,-364.12 812.86,-369.35"/><polygon fill="#000" stroke="#000" points="736.85 -319.21 728.19 -313.1 731.15 -323.28 736.85 -319.21"/><text x="816.5" y="-334.8" font-family="Times,serif" font-size="14" text-anchor="middle">सम्बन्धः</text></g><g id="node16" class="node"><title>Node7_1</title><ellipse cx="1517" cy="-121" fill="#00bfff" stroke="#00bfff" rx="78.79" ry="18"/><text x="1517" y="-117.3" font-family="Times,serif" font-size="14" text-anchor="middle">अपराः(7.1)</text></g><g id="edge7" class="edge"><title>Node7_1-&gt;Node11_1</title><path fill="none" stroke="#000" d="M1542.46,-145.78C1557.5,-159.83 1576.18,-177.28 1589.75,-189.95"/><polygon fill="#000" stroke="#000" points="1544.68 -143.06 1534.98 -138.79 1539.9 -148.18 1544.68 -143.06"/><text x="1603" y="-160.8" font-family="Times,serif" font-size="14" text-anchor="middle">कर्ता</text></g><g id="node17" class="node"><title>Node8_1</title><ellipse cx="1710" cy="-121" fill="#40e0d0" stroke="#40e0d0" rx="96.68" ry="18"/><text x="1710" y="-117.3" font-family="Times,serif" font-size="14" text-anchor="middle">नृत्येन(8.1)</text></g><g id="edge8" class="edge"><title>Node8_1-&gt;Node11_1</title><path fill="none" stroke="#000" d="M1681.87,-145.44C1664.82,-159.65 1643.47,-177.44 1628.11,-190.24"/><polygon fill="#000" stroke="#000" points="1684.41 -147.88 1689.85 -138.79 1679.93 -142.51 1684.41 -147.88"/><text x="1701" y="-160.8" font-family="Times,serif" font-size="14" text-anchor="middle">करणम्</text></g><g id="node18" class="node"><title>Node9_1</title><ellipse cx="1379" cy="-121" fill="#f9f" stroke="#f9f" rx="41.69" ry="18"/><text x="1379" y="-117.3" font-family="Times,serif" font-size="14" text-anchor="middle">च(9.1)</text></g><g id="edge9" class="edge"><title>Node9_1-&gt;Node11_1</title><path fill="none" stroke="#000" d="M1400.85,-145.12C1411.23,-154.81 1424.34,-165.35 1438,-172 1442.72,-174.3 1492.78,-184.49 1537.36,-193.28"/><polygon fill="#000" stroke="#000" points="1403.09 -142.41 1393.48 -137.95 1398.21 -147.43 1403.09 -142.41"/><text x="1495.5" y="-160.8" font-family="Times,serif" font-size="14" text-anchor="middle">सम्बन्धः</text></g><g id="node19" class="node"><title>Node10_1</title><ellipse cx="2065" cy="-121" fill="#00bfff" stroke="#00bfff" rx="84.49" ry="18"/><text x="2065" y="-117.3" font-family="Times,serif" font-size="14" text-anchor="middle">अपराः(10.1)</text></g><g id="edge10" class="edge"><title>Node10_1-&gt;Node12_2</title><path fill="none" stroke="#000" d="M2072.8,-149.25C2073.49,-157.4 2072.35,-165.81 2067,-172 2057.02,-183.56 2014.06,-179.45 1999,-182 1979.17,-185.36 1957.71,-189.35 1938.05,-193.14"/><polygon fill="#000" stroke="#000" points="2076.22 -148.52 2071.11 -139.24 2069.32 -149.68 2076.22 -148.52"/><text x="2108" y="-160.8" font-family="Times,serif" font-size="14" text-anchor="middle">कर्ता</text></g><g id="node20" class="node"><title>Node12_1</title><ellipse cx="1894" cy="-121" fill="#ff0" stroke="#ff0" rx="68.79" ry="18"/><text x="1894" y="-117.3" font-family="Times,serif" font-size="14" text-anchor="middle">पान-(12.1)</text></g><g id="edge12" class="edge"><title>Node12_1-&gt;Node12_2</title><path fill="none" stroke="#000" d="M1856.16,-143.77C1852.09,-147.65 1848.51,-152.06 1846,-157 1840.54,-167.73 1846.03,-180.01 1853.01,-189.72"/><polygon fill="#000" stroke="#000" points="1858.45 -146.41 1863.93 -137.34 1853.99 -141.02 1858.45 -146.41"/><text x="1956.5" y="-160.8" font-family="Times,serif" font-size="14" text-anchor="middle">तृतीया_तत्पुरुषः</text></g><g id="node21" class="node"><title>Node13_1</title><ellipse cx="1254" cy="-121" fill="#f9f" stroke="#f9f" rx="65.79" ry="18"/><text x="1254" y="-117.3" font-family="Times,serif" font-size="14" text-anchor="middle">तथा(13.1)</text></g><g id="edge14" class="edge"><title>Node13_1-&gt;Node18_1</title><path fill="none" stroke="#000" d="M1249.04,-149.29C1248.98,-157.21 1250.41,-165.49 1255,-172 1261.4,-181.08 1270.48,-187.81 1280.46,-192.79"/><polygon fill="#000" stroke="#000" points="1252.54 -149.48 1249.83 -139.23 1245.56 -148.93 1252.54 -149.48"/><text x="1312.5" y="-160.8" font-family="Times,serif" font-size="14" text-anchor="middle">सम्बन्धः</text></g><g id="node22" class="node"><title>Node17_1</title><ellipse cx="1062" cy="-34" fill="#f9f" stroke="#f9f" rx="47.39" ry="18"/><text x="1062" y="-30.3" font-family="Times,serif" font-size="14" text-anchor="middle">च(17.1)</text></g><g id="edge18" class="edge"><title>Node17_1-&gt;Node14_1</title><path fill="none" stroke="#000" d="M1041.72,-59.2C1032.84,-68.45 1021.76,-78.37 1010,-85 991.75,-95.29 970.36,-102.66 950.21,-107.89"/><polygon fill="#000" stroke="#000" points="1044.45 -61.4 1048.64 -51.67 1039.3 -56.67 1044.45 -61.4"/><text x="1132.5" y="-73.8" font-family="Times,serif" font-size="14" text-anchor="middle">समुच्चय_द्योतकः</text></g><g id="node23" class="node"><title>Node19_1</title><ellipse cx="2420" cy="-121" fill="#f9f" stroke="#f9f" rx="65.79" ry="18"/><text x="2420" y="-117.3" font-family="Times,serif" font-size="14" text-anchor="middle">तथा(19.1)</text></g><g id="edge20" class="edge"><title>Node19_1-&gt;Node21_1</title><path fill="none" stroke="#000" d="M2372.82,-139.39C2344.39,-149.55 2307.36,-162.26 2274,-172 2248.19,-179.54 2219.46,-186.75 2194.49,-192.65"/><polygon fill="#000" stroke="#000" points="2374.27 -142.58 2382.49 -135.91 2371.9 -136 2374.27 -142.58"/><text x="2375.5" y="-160.8" font-family="Times,serif" font-size="14" text-anchor="middle">सम्बन्धः</text></g><g id="node24" class="node"><title>Node20_1</title><ellipse cx="2616" cy="-34" fill="#ff0" stroke="#ff0" rx="96.68" ry="18"/><text x="2616" y="-30.3" font-family="Times,serif" font-size="14" text-anchor="middle">आस्तरण-(20.1)</text></g><g id="node25" class="node"><title>Node20_2</title><ellipse cx="2616" cy="-121" fill="#c6e2eb" stroke="#c6e2eb" rx="112.38" ry="18"/><text x="2616" y="-117.3" font-family="Times,serif" font-size="14" text-anchor="middle">मुख्येषु(20.2)</text></g><g id="edge21" class="edge"><title>Node20_1-&gt;Node20_2</title><path fill="none" stroke="#000" d="M2616,-62.27C2616,-75.58 2616,-91.19 2616,-102.82"/><polygon fill="#000" stroke="#000" points="2619.5 -62.2 2616 -52.2 2612.5 -62.2 2619.5 -62.2"/><text x="2719.5" y="-73.8" font-family="Times,serif" font-size="14" text-anchor="middle">षष्ठी_तत्पुरुषः</text></g><g id="edge22" class="edge"><title>Node20_2-&gt;Node21_1</title><path fill="none" stroke="#000" d="M2558.64,-140.53C2523.79,-151.16 2478.22,-163.95 2437,-172 2370.66,-184.96 2295.26,-193.64 2235.78,-199.12"/><polygon fill="#000" stroke="#000" points="2560.1 -143.74 2568.63 -137.45 2558.04 -137.05 2560.1 -143.74"/><text x="2574.5" y="-160.8" font-family="Times,serif" font-size="14" text-anchor="middle">देशाधिकरणम्</text></g><g id="node26" class="node"><title>Node22_1</title><ellipse cx="2794" cy="-121" fill="#f9f" stroke="#f9f" rx="47.39" ry="18"/><text x="2794" y="-117.3" font-family="Times,serif" font-size="14" text-anchor="middle">च(22.1)</text></g><g id="edge24" class="edge"><title>Node22_1-&gt;Node21_1</title><path fill="none" stroke="#000" d="M2756.21,-139.64C2729.22,-151.28 2691.69,-165.52 2657,-172 2519.65,-197.65 2359.1,-205.16 2251.63,-207.04"/><polygon fill="#000" stroke="#000" points="2757.91 -142.72 2765.65 -135.49 2755.09 -136.31 2757.91 -142.72"/><text x="2767.5" y="-160.8" font-family="Times,serif" font-size="14" text-anchor="middle">सम्बन्धः</text></g><g id="node27" class="node"><title>Node23_1</title><ellipse cx="2252" cy="-121" fill="#00bfff" stroke="#00bfff" rx="84.49" ry="18"/><text x="2252" y="-117.3" font-family="Times,serif" font-size="14" text-anchor="middle">अपराः(23.1)</text></g><g id="edge25" class="edge"><title>Node23_1-&gt;Node21_1</title><path fill="none" stroke="#000" d="M2220.05,-144.26C2199.48,-158.59 2173.15,-176.94 2154.29,-190.08"/><polygon fill="#000" stroke="#000" points="2222.27 -146.98 2228.48 -138.39 2218.27 -141.23 2222.27 -146.98"/><text x="2234" y="-160.8" font-family="Times,serif" font-size="14" text-anchor="middle">कर्ता</text></g><g id="node28" class="node"><title>Node25_1</title><ellipse cx="878" cy="-295" fill="#00bfff" stroke="#00bfff" rx="81.79" ry="18"/><text x="878" y="-291.3" font-family="Times,serif" font-size="14" text-anchor="middle">(कपिः)(25.1)</text></g><g id="edge27" class="edge"><title>Node25_1-&gt;Node26_1</title><path fill="none" stroke="#000" d="M878,-323.27C878,-336.58 878,-352.19 878,-363.82"/><polygon fill="#000" stroke="#000" points="881.5 -323.2 878 -313.2 874.5 -323.2 881.5 -323.2"/><text x="914" y="-334.8" font-family="Times,serif" font-size="14" text-anchor="middle">कर्ता</text></g></g></svg>