<svg xmlns="http://www.w3.org/2000/svg" xmlns:xlink="http://www.w3.org/1999/xlink" width="1586pt" height="544" viewBox="0 0 1586.14 408"><g id="graph0" class="graph" transform="scale(1 1) rotate(0) translate(4 404)"><title>G</title><polygon fill="#fffacd" stroke="transparent" points="-4 4 -4 -404 1582.14 -404 1582.14 4 -4 4"/><g id="clust1" class="cluster"><title>cluster_1</title><polygon fill="#fffacd" stroke="#000" points="424.6 -95 424.6 -234 828.6 -234 828.6 -95 424.6 -95"/></g><g id="clust2" class="cluster"><title>cluster_2</title><polygon fill="#fffacd" stroke="#000" points="836.6 -8 836.6 -147 1058.6 -147 1058.6 -8 836.6 -8"/></g><g id="node1" class="node"><title>Node2_1</title><ellipse cx="732.6" cy="-121" fill="#93db70" stroke="#93db70" rx="87.99" ry="18"/><text x="732.6" y="-117.3" font-family="Times,serif" font-size="14" text-anchor="middle">अन्यम्(2.1)</text></g><g id="node2" class="node"><title>Node3_1</title><ellipse cx="541.6" cy="-208" fill="#93db70" stroke="#93db70" rx="69.59" ry="18"/><text x="541.6" y="-204.3" font-family="Times,serif" font-size="14" text-anchor="middle">नरम्(3.1)</text></g><g id="edge2" class="edge"><title>Node2_1-&gt;Node3_1</title><path fill="none" stroke="#000" d="M707.48,-145.38C696.28,-154.77 682.48,-165.01 668.6,-172 646.12,-183.31 619.51,-191.36 596.47,-196.86"/><polygon fill="#000" stroke="#000" points="709.88 -147.93 715.15 -138.74 705.3 -142.64 709.88 -147.93"/><text x="748.1" y="-160.8" font-family="Times,serif" font-size="14" text-anchor="middle">विशेषणम्</text></g><g id="node8" class="node"><title>Node4_1</title><ellipse cx="541.6" cy="-295" fill="#f9f" stroke="#f9f" rx="124.58" ry="18"/><text x="541.6" y="-291.3" font-family="Times,serif" font-size="14" text-anchor="middle">उपस्थातुम्(4.1)</text></g><g id="edge3" class="edge"><title>Node3_1-&gt;Node4_1</title><path fill="none" stroke="#000" d="M541.6,-236.27C541.6,-249.58 541.6,-265.19 541.6,-276.82"/><polygon fill="#000" stroke="#000" points="545.1 -236.2 541.6 -226.2 538.1 -236.2 545.1 -236.2"/><text x="570.6" y="-247.8" font-family="Times,serif" font-size="14" text-anchor="middle">कर्म</text></g><g id="node3" class="node"><title>Node8_1</title><ellipse cx="529.6" cy="-121" fill="#93db70" stroke="#93db70" rx="96.68" ry="18"/><text x="529.6" y="-117.3" font-family="Times,serif" font-size="14" text-anchor="middle">ईश्वरम्(8.1)</text></g><g id="edge8" class="edge"><title>Node8_1-&gt;Node3_1</title><path fill="none" stroke="#000" d="M533.45,-149.27C535.33,-162.58 537.53,-178.19 539.17,-189.82"/><polygon fill="#000" stroke="#000" points="536.89 -148.61 532.02 -139.2 529.96 -149.59 536.89 -148.61"/><text x="600.1" y="-160.8" font-family="Times,serif" font-size="14" text-anchor="middle">समुच्चितः</text></g><g id="node4" class="node"><title>Node12_1</title><ellipse cx="947.6" cy="-34" fill="#00bfff" stroke="#00bfff" rx="102.88" ry="18"/><text x="947.6" y="-30.3" font-family="Times,serif" font-size="14" text-anchor="middle">कश्चित्(12.1)</text></g><g id="node5" class="node"><title>Node11_2</title><ellipse cx="983.6" cy="-121" fill="#00bfff" stroke="#00bfff" rx="65.79" ry="18"/><text x="983.6" y="-117.3" font-family="Times,serif" font-size="14" text-anchor="middle">समः(11.2)</text></g><g id="edge13" class="edge"><title>Node12_1-&gt;Node11_2</title><path fill="none" stroke="#000" d="M958.81,-61.48C964.52,-74.96 971.3,-90.96 976.32,-102.82"/><polygon fill="#000" stroke="#000" points="962 -60.04 954.88 -52.2 955.56 -62.77 962 -60.04"/><text x="1025.1" y="-73.8" font-family="Times,serif" font-size="14" text-anchor="middle">विशेषणम्</text></g><g id="node13" class="node"><title>Node13_1</title><ellipse cx="1184.6" cy="-208" fill="#ff1975" stroke="#ff1975" rx="102.88" ry="18"/><text x="1184.6" y="-204.3" font-family="Times,serif" font-size="14" text-anchor="middle">विद्यते(13.1)</text></g><g id="edge12" class="edge"><title>Node11_2-&gt;Node13_1</title><path fill="none" stroke="#000" d="M1000.91,-147.03C1008.42,-156.16 1017.95,-165.77 1028.6,-172 1050.04,-184.54 1075.56,-192.6 1099.68,-197.76"/><polygon fill="#000" stroke="#000" points="1003.49 -144.65 994.6 -138.89 997.96 -148.94 1003.49 -144.65"/><text x="1064.6" y="-160.8" font-family="Times,serif" font-size="14" text-anchor="middle">कर्ता</text></g><g id="node6" class="node"><title>Node1_1</title><ellipse cx="41.6" cy="-295" fill="#f9f" stroke="#f9f" rx="41.69" ry="18"/><text x="41.6" y="-291.3" font-family="Times,serif" font-size="14" text-anchor="middle">न(1.1)</text></g><g id="node7" class="node"><title>Node16_1</title><ellipse cx="263.6" cy="-382" fill="#ff1975" stroke="#ff1975" rx="100.98" ry="18"/><text x="263.6" y="-378.3" font-family="Times,serif" font-size="14" text-anchor="middle">(अर्हति)(16.1)</text></g><g id="edge1" class="edge"><title>Node1_1-&gt;Node16_1</title><path fill="none" stroke="#000" d="M43,-323.19C44.78,-331.58 48.2,-340.15 54.6,-346 71.73,-361.68 122.79,-370.41 170.16,-375.22"/><polygon fill="#000" stroke="#000" points="46.46 -322.62 41.56 -313.23 39.53 -323.63 46.46 -322.62"/><text x="119.1" y="-334.8" font-family="Times,serif" font-size="14" text-anchor="middle">प्रतिषेधः</text></g><g id="edge4" class="edge"><title>Node4_1-&gt;Node16_1</title><path fill="none" stroke="#000" d="M503.72,-317.49C484.93,-327.39 461.59,-338.56 439.6,-346 407.72,-356.78 371.42,-364.69 340.09,-370.24"/><polygon fill="#000" stroke="#000" points="505.4 -320.57 512.56 -312.76 502.09 -314.4 505.4 -320.57"/><text x="538.1" y="-334.8" font-family="Times,serif" font-size="14" text-anchor="middle">प्रयोजनम्</text></g><g id="node9" class="node"><title>Node5_1</title><ellipse cx="529.6" cy="-34" fill="#87ceeb" stroke="#87ceeb" rx="106.68" ry="18"/><text x="529.6" y="-30.3" font-family="Times,serif" font-size="14" text-anchor="middle">सुराणाम्(5.1)</text></g><g id="edge5" class="edge"><title>Node5_1-&gt;Node8_1</title><path fill="none" stroke="#000" d="M529.6,-62.27C529.6,-75.58 529.6,-91.19 529.6,-102.82"/><polygon fill="#000" stroke="#000" points="533.1 -62.2 529.6 -52.2 526.1 -62.2 533.1 -62.2"/><text x="622.6" y="-73.8" font-family="Times,serif" font-size="14" text-anchor="middle">षष्ठीसम्बन्धः</text></g><g id="node10" class="node"><title>Node6_1</title><ellipse cx="190.6" cy="-295" fill="#f9f" stroke="#f9f" rx="59.59" ry="18"/><text x="190.6" y="-291.3" font-family="Times,serif" font-size="14" text-anchor="middle">अपि(6.1)</text></g><g id="edge6" class="edge"><title>Node6_1-&gt;Node16_1</title><path fill="none" stroke="#000" d="M186.64,-323.07C186.76,-331 188.25,-339.31 192.6,-346 198.14,-354.53 206.41,-361.05 215.37,-366.01"/><polygon fill="#000" stroke="#000" points="190.14 -323.22 187.15 -313.06 183.15 -322.87 190.14 -323.22"/><text x="250.1" y="-334.8" font-family="Times,serif" font-size="14" text-anchor="middle">सम्बन्धः</text></g><g id="node11" class="node"><title>Node7_1</title><ellipse cx="311.6" cy="-121" fill="#f9f" stroke="#f9f" rx="41.69" ry="18"/><text x="311.6" y="-117.3" font-family="Times,serif" font-size="14" text-anchor="middle">च(7.1)</text></g><g id="edge7" class="edge"><title>Node7_1-&gt;Node3_1</title><path fill="none" stroke="#000" d="M312.4,-149.18C314,-157.57 317.26,-166.13 323.6,-172 344.97,-191.8 417.81,-200.43 473.47,-204.17"/><polygon fill="#000" stroke="#000" points="315.87 -148.71 311.16 -139.22 308.92 -149.58 315.87 -148.71"/><text x="427.1" y="-160.8" font-family="Times,serif" font-size="14" text-anchor="middle">समुच्चय_द्योतकः</text></g><g id="node12" class="node"><title>Node9_1</title><ellipse cx="1108.6" cy="-121" fill="#f9f" stroke="#f9f" rx="41.69" ry="18"/><text x="1108.6" y="-117.3" font-family="Times,serif" font-size="14" text-anchor="middle">न(9.1)</text></g><g id="edge9" class="edge"><title>Node9_1-&gt;Node13_1</title><path fill="none" stroke="#000" d="M1103.94,-149.08C1103.89,-157.01 1105.25,-165.32 1109.6,-172 1115.32,-180.79 1123.88,-187.41 1133.19,-192.39"/><polygon fill="#000" stroke="#000" points="1107.43 -149.3 1104.67 -139.07 1100.45 -148.78 1107.43 -149.3"/><text x="1174.1" y="-160.8" font-family="Times,serif" font-size="14" text-anchor="middle">प्रतिषेधः</text></g><g id="node14" class="node"><title>Node10_1</title><ellipse cx="1260.6" cy="-121" fill="#f9f" stroke="#f9f" rx="56.59" ry="18"/><text x="1260.6" y="-117.3" font-family="Times,serif" font-size="14" text-anchor="middle">हि(10.1)</text></g><g id="edge10" class="edge"><title>Node10_1-&gt;Node13_1</title><path fill="none" stroke="#000" d="M1252.24,-148.61C1248.86,-156.69 1244.36,-165.22 1238.6,-172 1232.44,-179.23 1224.42,-185.52 1216.45,-190.69"/><polygon fill="#000" stroke="#000" points="1255.57 -149.71 1255.82 -139.12 1249.02 -147.24 1255.57 -149.71"/><text x="1305.1" y="-160.8" font-family="Times,serif" font-size="14" text-anchor="middle">सम्बन्धः</text></g><g id="node15" class="node"><title>Node11_1</title><ellipse cx="1137.6" cy="-34" fill="#ff0" stroke="#ff0" rx="68.79" ry="18"/><text x="1137.6" y="-30.3" font-family="Times,serif" font-size="14" text-anchor="middle">राम-(11.1)</text></g><g id="edge11" class="edge"><title>Node11_1-&gt;Node11_2</title><path fill="none" stroke="#000" d="M1117.18,-59.22C1108.51,-68.31 1097.82,-78.1 1086.6,-85 1086.23,-85.23 1052.09,-96.81 1023.22,-106.59"/><polygon fill="#000" stroke="#000" points="1119.77 -61.57 1123.95 -51.83 1114.61 -56.84 1119.77 -61.57"/><text x="1215.1" y="-73.8" font-family="Times,serif" font-size="14" text-anchor="middle">तृतीया_तत्पुरुषः</text></g><g id="node16" class="node"><title>Node14_1</title><ellipse cx="1456.6" cy="-121" fill="#c6e2eb" stroke="#c6e2eb" rx="121.58" ry="18"/><text x="1456.6" y="-117.3" font-family="Times,serif" font-size="14" text-anchor="middle">त्रिदशेषु(14.1)</text></g><g id="edge14" class="edge"><title>Node14_1-&gt;Node13_1</title><path fill="none" stroke="#000" d="M1422.96,-144.04C1406.54,-153.91 1386.16,-164.89 1366.6,-172 1334.69,-183.59 1298.17,-191.58 1266.26,-196.95"/><polygon fill="#000" stroke="#000" points="1424.95 -146.92 1431.64 -138.71 1421.28 -140.96 1424.95 -146.92"/><text x="1475.1" y="-160.8" font-family="Times,serif" font-size="14" text-anchor="middle">देशाधिकरणम्</text></g><g id="node17" class="node"><title>Node15_1</title><ellipse cx="333.6" cy="-295" fill="#f9f" stroke="#f9f" rx="65.79" ry="18"/><text x="333.6" y="-291.3" font-family="Times,serif" font-size="14" text-anchor="middle">अपि(15.1)</text></g><g id="edge15" class="edge"><title>Node15_1-&gt;Node16_1</title><path fill="none" stroke="#000" d="M325.01,-322.42C321.62,-330.5 317.18,-339.07 311.6,-346 305.97,-352.99 298.63,-359.27 291.38,-364.52"/><polygon fill="#000" stroke="#000" points="328.33 -323.55 328.64 -312.96 321.79 -321.05 328.33 -323.55"/><text x="378.1" y="-334.8" font-family="Times,serif" font-size="14" text-anchor="middle">सम्बन्धः</text></g></g></svg>