<?xml version="1.0" encoding="UTF-8" standalone="no"?>
<!DOCTYPE svg PUBLIC "-//W3C//DTD SVG 1.1//EN"
 "http://www.w3.org/Graphics/SVG/1.1/DTD/svg11.dtd">
<!-- Generated by graphviz version 2.43.0 (0)
 -->
<!-- Title: G Pages: 1 -->
<svg width="3020pt" height="392pt"
 viewBox="0.00 0.00 3020.04 392.00" xmlns="http://www.w3.org/2000/svg" xmlns:xlink="http://www.w3.org/1999/xlink">
<g id="graph0" class="graph" transform="scale(1 1) rotate(0) translate(4 388)">
<title>G</title>
<polygon fill="#fffacd" stroke="transparent" points="-4,4 -4,-388 3016.04,-388 3016.04,4 -4,4"/>
<g id="clust1" class="cluster">
<title>cluster_1</title>
<polygon fill="#fffacd" stroke="black" points="618.04,-79 618.04,-305 1466.04,-305 1466.04,-79 618.04,-79"/>
</g>
<g id="clust2" class="cluster">
<title>cluster_2</title>
<polygon fill="#fffacd" stroke="black" points="50.04,-166 50.04,-305 242.04,-305 242.04,-166 50.04,-166"/>
</g>
<g id="clust3" class="cluster">
<title>cluster_3</title>
<polygon fill="#fffacd" stroke="black" points="250.04,-166 250.04,-305 472.04,-305 472.04,-166 250.04,-166"/>
</g>
<g id="clust4" class="cluster">
<title>cluster_4</title>
<polygon fill="#fffacd" stroke="black" points="2522.04,-166 2522.04,-305 2800.04,-305 2800.04,-166 2522.04,-166"/>
</g>
<!-- Node2_1 -->
<g id="node1" class="node">
<title>Node2_1</title>
<ellipse fill="#40e0d0" stroke="#40e0d0" cx="1342.04" cy="-192" rx="115.88" ry="18"/>
<text text-anchor="middle" x="1342.04" y="-188.3" font-family="Times,serif" font-size="14.00">अपविद्धैः(2.1)</text>
</g>
<!-- Node1_3 -->
<g id="node2" class="node">
<title>Node1_3</title>
<ellipse fill="#40e0d0" stroke="#40e0d0" cx="963.04" cy="-279" rx="96.68" ry="18"/>
<text text-anchor="middle" x="963.04" y="-275.3" font-family="Times,serif" font-size="14.00">केयूरैः(1.3)</text>
</g>
<!-- Node2_1&#45;&gt;Node1_3 -->
<g id="edge4" class="edge">
<title>Node2_1&#45;&gt;Node1_3</title>
<path fill="none" stroke="black" d="M1288.38,-212.04C1257.81,-222.34 1218.63,-234.62 1183.04,-243 1136.55,-253.95 1083.72,-262.48 1041.48,-268.37"/>
<polygon fill="black" stroke="black" points="1289.64,-215.31 1297.98,-208.78 1287.39,-208.68 1289.64,-215.31"/>
<text text-anchor="middle" x="1294.54" y="-231.8" font-family="Times,serif" font-size="14.00">विशेषणम्</text>
</g>
<!-- Node12_1 -->
<g id="node15" class="node">
<title>Node12_1</title>
<ellipse fill="#ff1975" stroke="#ff1975" cx="476.04" cy="-366" rx="102.88" ry="18"/>
<text text-anchor="middle" x="476.04" y="-362.3" font-family="Times,serif" font-size="14.00">पुष्यति(12.1)</text>
</g>
<!-- Node1_3&#45;&gt;Node12_1 -->
<g id="edge3" class="edge">
<title>Node1_3&#45;&gt;Node12_1</title>
<path fill="none" stroke="black" d="M885.1,-293.6C791.59,-309.93 636.19,-337.05 546.26,-352.75"/>
<polygon fill="black" stroke="black" points="885.82,-297.03 895.07,-291.86 884.62,-290.14 885.82,-297.03"/>
<text text-anchor="middle" x="785.04" y="-318.8" font-family="Times,serif" font-size="14.00">करणम्</text>
</g>
<!-- Node3_2 -->
<g id="node3" class="node">
<title>Node3_2</title>
<ellipse fill="#40e0d0" stroke="#40e0d0" cx="853.04" cy="-192" rx="69.59" ry="18"/>
<text text-anchor="middle" x="853.04" y="-188.3" font-family="Times,serif" font-size="14.00">धनैः(3.2)</text>
</g>
<!-- Node3_2&#45;&gt;Node1_3 -->
<g id="edge6" class="edge">
<title>Node3_2&#45;&gt;Node1_3</title>
<path fill="none" stroke="black" d="M875.83,-217.05C884.58,-225.69 894.9,-235.22 905.04,-243 913.82,-249.73 923.97,-256.24 933.3,-261.78"/>
<polygon fill="black" stroke="black" points="878.12,-214.39 868.59,-209.75 873.15,-219.31 878.12,-214.39"/>
<text text-anchor="middle" x="969.54" y="-231.8" font-family="Times,serif" font-size="14.00">समुच्चितः</text>
</g>
<!-- Node4_3 -->
<g id="node4" class="node">
<title>Node4_3</title>
<ellipse fill="#40e0d0" stroke="#40e0d0" cx="1074.04" cy="-192" rx="133.78" ry="18"/>
<text text-anchor="middle" x="1074.04" y="-188.3" font-family="Times,serif" font-size="14.00">विक्षिप्तैः(4.3)</text>
</g>
<!-- Node4_3&#45;&gt;Node1_3 -->
<g id="edge9" class="edge">
<title>Node4_3&#45;&gt;Node1_3</title>
<path fill="none" stroke="black" d="M1057.04,-218.57C1050.55,-227.07 1042.62,-236.11 1034.04,-243 1024.62,-250.58 1013.28,-257.08 1002.46,-262.35"/>
<polygon fill="black" stroke="black" points="1059.97,-220.5 1063.03,-210.36 1054.31,-216.38 1059.97,-220.5"/>
<text text-anchor="middle" x="1114.54" y="-231.8" font-family="Times,serif" font-size="14.00">समुच्चितः</text>
</g>
<!-- Node5_1 -->
<g id="node5" class="node">
<title>Node5_1</title>
<ellipse fill="#40e0d0" stroke="#40e0d0" cx="696.04" cy="-192" rx="69.59" ry="18"/>
<text text-anchor="middle" x="696.04" y="-188.3" font-family="Times,serif" font-size="14.00">फलैः(5.1)</text>
</g>
<!-- Node5_1&#45;&gt;Node1_3 -->
<g id="edge10" class="edge">
<title>Node5_1&#45;&gt;Node1_3</title>
<path fill="none" stroke="black" d="M718.67,-216.75C729.14,-226.37 742.3,-236.68 756.04,-243 791.89,-259.49 834.43,-268.29 871.6,-272.96"/>
<polygon fill="black" stroke="black" points="720.86,-214 711.21,-209.61 716.01,-219.06 720.86,-214"/>
<text text-anchor="middle" x="820.54" y="-231.8" font-family="Times,serif" font-size="14.00">समुच्चितः</text>
</g>
<!-- Node7_1 -->
<g id="node6" class="node">
<title>Node7_1</title>
<ellipse fill="#40e0d0" stroke="#40e0d0" cx="723.04" cy="-105" rx="96.68" ry="18"/>
<text text-anchor="middle" x="723.04" y="-101.3" font-family="Times,serif" font-size="14.00">विविधैः(7.1)</text>
</g>
<!-- Node7_1&#45;&gt;Node5_1 -->
<g id="edge12" class="edge">
<title>Node7_1&#45;&gt;Node5_1</title>
<path fill="none" stroke="black" d="M714.51,-132.87C710.25,-146.27 705.23,-162.08 701.5,-173.82"/>
<polygon fill="black" stroke="black" points="717.89,-133.79 717.58,-123.2 711.22,-131.67 717.89,-133.79"/>
<text text-anchor="middle" x="769.54" y="-144.8" font-family="Times,serif" font-size="14.00">विशेषणम्</text>
</g>
<!-- Node9_3 -->
<g id="node7" class="node">
<title>Node9_3</title>
<ellipse fill="#00bfff" stroke="#00bfff" cx="146.04" cy="-192" rx="87.99" ry="18"/>
<text text-anchor="middle" x="146.04" y="-188.3" font-family="Times,serif" font-size="14.00">उपहारा(9.3)</text>
</g>
<!-- Node10_1 -->
<g id="node8" class="node">
<title>Node10_1</title>
<ellipse fill="#00bfff" stroke="#00bfff" cx="146.04" cy="-279" rx="65.79" ry="18"/>
<text text-anchor="middle" x="146.04" y="-275.3" font-family="Times,serif" font-size="14.00">भूः(10.1)</text>
</g>
<!-- Node9_3&#45;&gt;Node10_1 -->
<g id="edge16" class="edge">
<title>Node9_3&#45;&gt;Node10_1</title>
<path fill="none" stroke="black" d="M133.04,-219.34C130.7,-226.91 129.45,-235.22 131.04,-243 132.29,-249.09 134.65,-255.42 137.13,-261"/>
<polygon fill="black" stroke="black" points="136.34,-220.52 136.59,-209.93 129.79,-218.05 136.34,-220.52"/>
<text text-anchor="middle" x="188.54" y="-231.8" font-family="Times,serif" font-size="14.00">विशेषणम्</text>
</g>
<!-- Node10_1&#45;&gt;Node12_1 -->
<g id="edge17" class="edge">
<title>Node10_1&#45;&gt;Node12_1</title>
<path fill="none" stroke="black" d="M201.12,-294.69C239.03,-304.75 290.55,-318.33 336.04,-330 363.35,-337 393.69,-344.61 419.13,-350.94"/>
<polygon fill="black" stroke="black" points="201.87,-291.26 191.3,-292.08 200.07,-298.03 201.87,-291.26"/>
<text text-anchor="middle" x="372.04" y="-318.8" font-family="Times,serif" font-size="14.00">कर्ता</text>
</g>
<!-- Node11_1 -->
<g id="node9" class="node">
<title>Node11_1</title>
<ellipse fill="#93db70" stroke="#93db70" cx="361.04" cy="-192" rx="102.88" ry="18"/>
<text text-anchor="middle" x="361.04" y="-188.3" font-family="Times,serif" font-size="14.00">अधिकाम्(11.1)</text>
</g>
<!-- Node13_1 -->
<g id="node10" class="node">
<title>Node13_1</title>
<ellipse fill="#93db70" stroke="#93db70" cx="361.04" cy="-279" rx="102.88" ry="18"/>
<text text-anchor="middle" x="361.04" y="-275.3" font-family="Times,serif" font-size="14.00">श्रियम्(13.1)</text>
</g>
<!-- Node11_1&#45;&gt;Node13_1 -->
<g id="edge18" class="edge">
<title>Node11_1&#45;&gt;Node13_1</title>
<path fill="none" stroke="black" d="M361.04,-220.27C361.04,-233.58 361.04,-249.19 361.04,-260.82"/>
<polygon fill="black" stroke="black" points="364.54,-220.2 361.04,-210.2 357.54,-220.2 364.54,-220.2"/>
<text text-anchor="middle" x="418.54" y="-231.8" font-family="Times,serif" font-size="14.00">विशेषणम्</text>
</g>
<!-- Node13_1&#45;&gt;Node12_1 -->
<g id="edge19" class="edge">
<title>Node13_1&#45;&gt;Node12_1</title>
<path fill="none" stroke="black" d="M391.7,-302.66C411.05,-316.96 435.64,-335.13 453.26,-348.16"/>
<polygon fill="black" stroke="black" points="393.61,-299.72 383.49,-296.59 389.45,-305.35 393.61,-299.72"/>
<text text-anchor="middle" x="455.04" y="-318.8" font-family="Times,serif" font-size="14.00">कर्म</text>
</g>
<!-- Node17_1 -->
<g id="node11" class="node">
<title>Node17_1</title>
<ellipse fill="#40e0d0" stroke="#40e0d0" cx="2661.04" cy="-192" rx="130.78" ry="18"/>
<text text-anchor="middle" x="2661.04" y="-188.3" font-family="Times,serif" font-size="14.00">विन्यस्तैः(17.1)</text>
</g>
<!-- Node18_3 -->
<g id="node12" class="node">
<title>Node18_3</title>
<ellipse fill="#40e0d0" stroke="#40e0d0" cx="2637.04" cy="-279" rx="84.49" ry="18"/>
<text text-anchor="middle" x="2637.04" y="-275.3" font-family="Times,serif" font-size="14.00">आसनैः(18.3)</text>
</g>
<!-- Node17_1&#45;&gt;Node18_3 -->
<g id="edge23" class="edge">
<title>Node17_1&#45;&gt;Node18_3</title>
<path fill="none" stroke="black" d="M2653.46,-219.87C2649.67,-233.27 2645.21,-249.08 2641.89,-260.82"/>
<polygon fill="black" stroke="black" points="2656.84,-220.78 2656.19,-210.2 2650.1,-218.87 2656.84,-220.78"/>
<text text-anchor="middle" x="2707.54" y="-231.8" font-family="Times,serif" font-size="14.00">विशेषणम्</text>
</g>
<!-- Node24_1 -->
<g id="node26" class="node">
<title>Node24_1</title>
<ellipse fill="#ff1975" stroke="#ff1975" cx="2135.04" cy="-366" rx="130.78" ry="18"/>
<text text-anchor="middle" x="2135.04" y="-362.3" font-family="Times,serif" font-size="14.00">उपलक्ष्यते(24.1)</text>
</g>
<!-- Node18_3&#45;&gt;Node24_1 -->
<g id="edge26" class="edge">
<title>Node18_3&#45;&gt;Node24_1</title>
<path fill="none" stroke="black" d="M2591.92,-299.04C2564.4,-309.85 2528.26,-322.65 2495.04,-330 2417.64,-347.13 2329.02,-355.87 2259.08,-360.34"/>
<polygon fill="black" stroke="black" points="2593.28,-302.27 2601.27,-295.31 2590.68,-295.77 2593.28,-302.27"/>
<text text-anchor="middle" x="2582.04" y="-318.8" font-family="Times,serif" font-size="14.00">कर्ता</text>
</g>
<!-- Node1_1 -->
<g id="node13" class="node">
<title>Node1_1</title>
<ellipse fill="#ffff00" stroke="#ffff00" cx="545.04" cy="-192" rx="63.09" ry="18"/>
<text text-anchor="middle" x="545.04" y="-188.3" font-family="Times,serif" font-size="14.00">महा&#45;(1.1)</text>
</g>
<!-- Node1_1&#45;&gt;Node1_3 -->
<g id="edge1" class="edge">
<title>Node1_1&#45;&gt;Node1_3</title>
<path fill="none" stroke="black" d="M565.52,-217.51C574.98,-227.13 587.01,-237.23 600.04,-243 646.36,-263.51 776.57,-272.06 867.73,-275.58"/>
<polygon fill="black" stroke="black" points="567.89,-214.92 558.51,-209.99 562.77,-219.69 567.89,-214.92"/>
<text text-anchor="middle" x="664.54" y="-231.8" font-family="Times,serif" font-size="14.00">कर्मधारयः</text>
</g>
<!-- Node1_2 -->
<g id="node14" class="node">
<title>Node1_2</title>
<ellipse fill="#ffff00" stroke="#ffff00" cx="1557.04" cy="-192" rx="81.49" ry="18"/>
<text text-anchor="middle" x="1557.04" y="-188.3" font-family="Times,serif" font-size="14.00">नूपुर&#45;(1.2)</text>
</g>
<!-- Node1_2&#45;&gt;Node1_3 -->
<g id="edge2" class="edge">
<title>Node1_2&#45;&gt;Node1_3</title>
<path fill="none" stroke="black" d="M1500.53,-209.55C1460.52,-220.65 1405.41,-234.71 1356.04,-243 1254.21,-260.1 1136.03,-269.19 1056.07,-273.79"/>
<polygon fill="black" stroke="black" points="1501.68,-212.86 1510.37,-206.8 1499.79,-206.12 1501.68,-212.86"/>
<text text-anchor="middle" x="1493.54" y="-231.8" font-family="Times,serif" font-size="14.00">द्वन्द्वः</text>
</g>
<!-- Node3_1 -->
<g id="node16" class="node">
<title>Node3_1</title>
<ellipse fill="#ffff00" stroke="#ffff00" cx="1537.04" cy="-105" rx="63.09" ry="18"/>
<text text-anchor="middle" x="1537.04" y="-101.3" font-family="Times,serif" font-size="14.00">महा&#45;(3.1)</text>
</g>
<!-- Node3_1&#45;&gt;Node3_2 -->
<g id="edge5" class="edge">
<title>Node3_1&#45;&gt;Node3_2</title>
<path fill="none" stroke="black" d="M1483.67,-120.4C1479.08,-121.38 1474.49,-122.26 1470.04,-123 1232.95,-162.25 1166.81,-119.46 931.04,-166 917.79,-168.62 903.63,-172.73 891.07,-176.88"/>
<polygon fill="black" stroke="black" points="1484.68,-123.76 1493.66,-118.14 1483.13,-116.93 1484.68,-123.76"/>
<text text-anchor="middle" x="1348.54" y="-144.8" font-family="Times,serif" font-size="14.00">कर्मधारयः</text>
</g>
<!-- Node4_1 -->
<g id="node17" class="node">
<title>Node4_1</title>
<ellipse fill="#ffff00" stroke="#ffff00" cx="1690.04" cy="-18" rx="63.09" ry="18"/>
<text text-anchor="middle" x="1690.04" y="-14.3" font-family="Times,serif" font-size="14.00">पान&#45;(4.1)</text>
</g>
<!-- Node4_2 -->
<g id="node18" class="node">
<title>Node4_2</title>
<ellipse fill="#ffff00" stroke="#ffff00" cx="1690.04" cy="-105" rx="72.29" ry="18"/>
<text text-anchor="middle" x="1690.04" y="-101.3" font-family="Times,serif" font-size="14.00">भाजन&#45;(4.2)</text>
</g>
<!-- Node4_1&#45;&gt;Node4_2 -->
<g id="edge7" class="edge">
<title>Node4_1&#45;&gt;Node4_2</title>
<path fill="none" stroke="black" d="M1690.04,-46.27C1690.04,-59.58 1690.04,-75.19 1690.04,-86.82"/>
<polygon fill="black" stroke="black" points="1693.54,-46.2 1690.04,-36.2 1686.54,-46.2 1693.54,-46.2"/>
<text text-anchor="middle" x="1793.54" y="-57.8" font-family="Times,serif" font-size="14.00">षष्ठी_तत्पुरुषः</text>
</g>
<!-- Node4_2&#45;&gt;Node4_3 -->
<g id="edge8" class="edge">
<title>Node4_2&#45;&gt;Node4_3</title>
<path fill="none" stroke="black" d="M1683.76,-133.16C1680.32,-141.93 1675.05,-150.74 1667.04,-156 1646.14,-169.72 1241.93,-163.56 1217.04,-166 1193.09,-168.35 1167.11,-172.42 1143.94,-176.61"/>
<polygon fill="black" stroke="black" points="1687.15,-134.06 1686.92,-123.46 1680.49,-131.89 1687.15,-134.06"/>
<text text-anchor="middle" x="1790.54" y="-144.8" font-family="Times,serif" font-size="14.00">तृतीया_तत्पुरुषः</text>
</g>
<!-- Node6_1 -->
<g id="node19" class="node">
<title>Node6_1</title>
<ellipse fill="#ff99ff" stroke="#ff99ff" cx="1703.04" cy="-192" rx="41.69" ry="18"/>
<text text-anchor="middle" x="1703.04" y="-188.3" font-family="Times,serif" font-size="14.00">च(6.1)</text>
</g>
<!-- Node6_1&#45;&gt;Node1_3 -->
<g id="edge11" class="edge">
<title>Node6_1&#45;&gt;Node1_3</title>
<path fill="none" stroke="black" d="M1665.97,-209.4C1638,-220.96 1598.37,-235.65 1562.04,-243 1468.56,-261.91 1202.31,-271.68 1058.3,-275.7"/>
<polygon fill="black" stroke="black" points="1667.49,-212.56 1675.35,-205.46 1664.78,-206.1 1667.49,-212.56"/>
<text text-anchor="middle" x="1717.54" y="-231.8" font-family="Times,serif" font-size="14.00">समुच्चय_द्योतकः</text>
</g>
<!-- Node8_1 -->
<g id="node20" class="node">
<title>Node8_1</title>
<ellipse fill="#ff99ff" stroke="#ff99ff" cx="541.04" cy="-279" rx="59.59" ry="18"/>
<text text-anchor="middle" x="541.04" y="-275.3" font-family="Times,serif" font-size="14.00">अपि(8.1)</text>
</g>
<!-- Node8_1&#45;&gt;Node12_1 -->
<g id="edge13" class="edge">
<title>Node8_1&#45;&gt;Node12_1</title>
<path fill="none" stroke="black" d="M521.96,-304.95C511.39,-318.78 498.51,-335.63 489.08,-347.95"/>
<polygon fill="black" stroke="black" points="524.91,-306.86 528.2,-296.79 519.35,-302.61 524.91,-306.86"/>
<text text-anchor="middle" x="570.54" y="-318.8" font-family="Times,serif" font-size="14.00">सम्बन्धः</text>
</g>
<!-- Node9_1 -->
<g id="node21" class="node">
<title>Node9_1</title>
<ellipse fill="#ffff00" stroke="#ffff00" cx="63.04" cy="-105" rx="63.09" ry="18"/>
<text text-anchor="middle" x="63.04" y="-101.3" font-family="Times,serif" font-size="14.00">कृत&#45;(9.1)</text>
</g>
<!-- Node9_1&#45;&gt;Node9_3 -->
<g id="edge14" class="edge">
<title>Node9_1&#45;&gt;Node9_3</title>
<path fill="none" stroke="black" d="M58.25,-133.17C58.2,-141.1 59.59,-149.39 64.04,-156 70.63,-165.75 80.53,-172.8 91.2,-177.88"/>
<polygon fill="black" stroke="black" points="61.74,-133.38 59.01,-123.14 54.76,-132.85 61.74,-133.38"/>
<text text-anchor="middle" x="135.54" y="-144.8" font-family="Times,serif" font-size="14.00">बहुव्रीहिः</text>
</g>
<!-- Node9_2 -->
<g id="node22" class="node">
<title>Node9_2</title>
<ellipse fill="#ffff00" stroke="#ffff00" cx="229.04" cy="-105" rx="81.49" ry="18"/>
<text text-anchor="middle" x="229.04" y="-101.3" font-family="Times,serif" font-size="14.00">पुष्प&#45;(9.2)</text>
</g>
<!-- Node9_2&#45;&gt;Node9_3 -->
<g id="edge15" class="edge">
<title>Node9_2&#45;&gt;Node9_3</title>
<path fill="none" stroke="black" d="M220.91,-132.8C217.54,-140.9 212.99,-149.38 207.04,-156 200.02,-163.81 190.84,-170.32 181.73,-175.53"/>
<polygon fill="black" stroke="black" points="224.24,-133.87 224.45,-123.28 217.68,-131.43 224.24,-133.87"/>
<text text-anchor="middle" x="327.54" y="-144.8" font-family="Times,serif" font-size="14.00">तृतीया_तत्पुरुषः</text>
</g>
<!-- Node14_1 -->
<g id="node23" class="node">
<title>Node14_1</title>
<ellipse fill="#ff99ff" stroke="#ff99ff" cx="2661.04" cy="-18" rx="75.29" ry="18"/>
<text text-anchor="middle" x="2661.04" y="-14.3" font-family="Times,serif" font-size="14.00">तत्र(14.1)</text>
</g>
<!-- Node15_1 -->
<g id="node24" class="node">
<title>Node15_1</title>
<ellipse fill="#ff99ff" stroke="#ff99ff" cx="2661.04" cy="-105" rx="75.29" ry="18"/>
<text text-anchor="middle" x="2661.04" y="-101.3" font-family="Times,serif" font-size="14.00">तत्र(15.1)</text>
</g>
<!-- Node14_1&#45;&gt;Node15_1 -->
<g id="edge20" class="edge">
<title>Node14_1&#45;&gt;Node15_1</title>
<path fill="none" stroke="black" d="M2661.04,-46.27C2661.04,-59.58 2661.04,-75.19 2661.04,-86.82"/>
<polygon fill="black" stroke="black" points="2664.54,-46.2 2661.04,-36.2 2657.54,-46.2 2664.54,-46.2"/>
<text text-anchor="middle" x="2704.04" y="-57.8" font-family="Times,serif" font-size="14.00">वीप्सा</text>
</g>
<!-- Node15_1&#45;&gt;Node17_1 -->
<g id="edge21" class="edge">
<title>Node15_1&#45;&gt;Node17_1</title>
<path fill="none" stroke="black" d="M2661.04,-133.27C2661.04,-146.58 2661.04,-162.19 2661.04,-173.82"/>
<polygon fill="black" stroke="black" points="2664.54,-133.2 2661.04,-123.2 2657.54,-133.2 2664.54,-133.2"/>
<text text-anchor="middle" x="2739.54" y="-144.8" font-family="Times,serif" font-size="14.00">देशाधिकरणम्</text>
</g>
<!-- Node16_1 -->
<g id="node25" class="node">
<title>Node16_1</title>
<ellipse fill="#ff99ff" stroke="#ff99ff" cx="1789.04" cy="-279" rx="47.39" ry="18"/>
<text text-anchor="middle" x="1789.04" y="-275.3" font-family="Times,serif" font-size="14.00">च(16.1)</text>
</g>
<!-- Node16_1&#45;&gt;Node24_1 -->
<g id="edge22" class="edge">
<title>Node16_1&#45;&gt;Node24_1</title>
<path fill="none" stroke="black" d="M1828.13,-297.26C1834.12,-299.87 1840.24,-302.52 1846.04,-305 1872.61,-316.36 1878.23,-322.2 1906.04,-330 1946.8,-341.42 1992.76,-349.37 2032.74,-354.77"/>
<polygon fill="black" stroke="black" points="1829.44,-294.01 1818.88,-293.21 1826.64,-300.42 1829.44,-294.01"/>
<text text-anchor="middle" x="1963.54" y="-318.8" font-family="Times,serif" font-size="14.00">सम्बन्धः</text>
</g>
<!-- Node18_1 -->
<g id="node27" class="node">
<title>Node18_1</title>
<ellipse fill="#ffff00" stroke="#ffff00" cx="2388.04" cy="-192" rx="124.28" ry="18"/>
<text text-anchor="middle" x="2388.04" y="-188.3" font-family="Times,serif" font-size="14.00">सुश्लिष्ट&#45;(18.1)</text>
</g>
<!-- Node18_1&#45;&gt;Node18_3 -->
<g id="edge24" class="edge">
<title>Node18_1&#45;&gt;Node18_3</title>
<path fill="none" stroke="black" d="M2435.36,-213.08C2458.82,-222.71 2487.7,-234.05 2514.04,-243 2537.38,-250.93 2563.6,-258.56 2585.82,-264.66"/>
<polygon fill="black" stroke="black" points="2436.58,-209.8 2426,-209.22 2433.9,-216.27 2436.58,-209.8"/>
<text text-anchor="middle" x="2578.54" y="-231.8" font-family="Times,serif" font-size="14.00">कर्मधारयः</text>
</g>
<!-- Node18_2 -->
<g id="node28" class="node">
<title>Node18_2</title>
<ellipse fill="#ffff00" stroke="#ffff00" cx="2879.04" cy="-192" rx="68.79" ry="18"/>
<text text-anchor="middle" x="2879.04" y="-188.3" font-family="Times,serif" font-size="14.00">शयन&#45;(18.2)</text>
</g>
<!-- Node18_2&#45;&gt;Node18_3 -->
<g id="edge25" class="edge">
<title>Node18_2&#45;&gt;Node18_3</title>
<path fill="none" stroke="black" d="M2839.69,-212.83C2819,-222.75 2793.03,-234.44 2769.04,-243 2744.48,-251.77 2716.66,-259.46 2692.91,-265.39"/>
<polygon fill="black" stroke="black" points="2841.32,-215.93 2848.79,-208.41 2838.27,-209.63 2841.32,-215.93"/>
<text text-anchor="middle" x="2908.54" y="-231.8" font-family="Times,serif" font-size="14.00">षष्ठी_तत्पुरुषः</text>
</g>
<!-- Node19_1 -->
<g id="node29" class="node">
<title>Node19_1</title>
<ellipse fill="#ffff00" stroke="#ffff00" cx="1933.04" cy="-192" rx="68.79" ry="18"/>
<text text-anchor="middle" x="1933.04" y="-188.3" font-family="Times,serif" font-size="14.00">पान&#45;(19.1)</text>
</g>
<!-- Node19_2 -->
<g id="node30" class="node">
<title>Node19_2</title>
<ellipse fill="#00bfff" stroke="#00bfff" cx="1939.04" cy="-279" rx="84.49" ry="18"/>
<text text-anchor="middle" x="1939.04" y="-275.3" font-family="Times,serif" font-size="14.00">भूमिः(19.2)</text>
</g>
<!-- Node19_1&#45;&gt;Node19_2 -->
<g id="edge27" class="edge">
<title>Node19_1&#45;&gt;Node19_2</title>
<path fill="none" stroke="black" d="M1932.99,-220.37C1933.14,-227.73 1933.45,-235.67 1934.04,-243 1934.52,-248.87 1935.34,-255.26 1936.18,-260.96"/>
<polygon fill="black" stroke="black" points="1936.49,-220.11 1932.87,-210.15 1929.49,-220.19 1936.49,-220.11"/>
<text text-anchor="middle" x="2037.54" y="-231.8" font-family="Times,serif" font-size="14.00">षष्ठी_तत्पुरुषः</text>
</g>
<!-- Node19_2&#45;&gt;Node24_1 -->
<g id="edge28" class="edge">
<title>Node19_2&#45;&gt;Node24_1</title>
<path fill="none" stroke="black" d="M1983.87,-299.44C2018.23,-314.34 2065.08,-334.66 2097.48,-348.71"/>
<polygon fill="black" stroke="black" points="1985.11,-296.16 1974.54,-295.39 1982.32,-302.58 1985.11,-296.16"/>
<text text-anchor="middle" x="2077.04" y="-318.8" font-family="Times,serif" font-size="14.00">कर्म</text>
</g>
<!-- Node20_1 -->
<g id="node31" class="node">
<title>Node20_1</title>
<ellipse fill="#ff99ff" stroke="#ff99ff" cx="2143.04" cy="-105" rx="75.29" ry="18"/>
<text text-anchor="middle" x="2143.04" y="-101.3" font-family="Times,serif" font-size="14.00">विना(20.1)</text>
</g>
<!-- Node21_1 -->
<g id="node32" class="node">
<title>Node21_1</title>
<ellipse fill="#93db70" stroke="#93db70" cx="2143.04" cy="-192" rx="102.88" ry="18"/>
<text text-anchor="middle" x="2143.04" y="-188.3" font-family="Times,serif" font-size="14.00">वह्निम्(21.1)</text>
</g>
<!-- Node20_1&#45;&gt;Node21_1 -->
<g id="edge29" class="edge">
<title>Node20_1&#45;&gt;Node21_1</title>
<path fill="none" stroke="black" d="M2143.04,-133.27C2143.04,-146.58 2143.04,-162.19 2143.04,-173.82"/>
<polygon fill="black" stroke="black" points="2146.54,-133.2 2143.04,-123.2 2139.54,-133.2 2146.54,-133.2"/>
<text text-anchor="middle" x="2246.54" y="-144.8" font-family="Times,serif" font-size="14.00">विनार्थ_द्योतकः</text>
</g>
<!-- Node22_1 -->
<g id="node33" class="node">
<title>Node22_1</title>
<ellipse fill="#00bfff" stroke="#00bfff" cx="2163.04" cy="-279" rx="121.58" ry="18"/>
<text text-anchor="middle" x="2163.04" y="-275.3" font-family="Times,serif" font-size="14.00">प्रदीप्ता(22.1)</text>
</g>
<!-- Node21_1&#45;&gt;Node22_1 -->
<g id="edge30" class="edge">
<title>Node21_1&#45;&gt;Node22_1</title>
<path fill="none" stroke="black" d="M2149.46,-220.27C2152.59,-233.58 2156.27,-249.19 2159,-260.82"/>
<polygon fill="black" stroke="black" points="2152.79,-219.13 2147.09,-210.2 2145.98,-220.74 2152.79,-219.13"/>
<text text-anchor="middle" x="2211.54" y="-231.8" font-family="Times,serif" font-size="14.00">विनार्थः</text>
</g>
<!-- Node22_1&#45;&gt;Node24_1 -->
<g id="edge31" class="edge">
<title>Node22_1&#45;&gt;Node24_1</title>
<path fill="none" stroke="black" d="M2140.76,-305.21C2138.87,-308.35 2137.23,-311.64 2136.04,-315 2132.35,-325.48 2132.1,-337.98 2132.78,-347.86"/>
<polygon fill="black" stroke="black" points="2143.75,-307.05 2146.6,-296.85 2138.01,-303.04 2143.75,-307.05"/>
<text text-anchor="middle" x="2250.54" y="-318.8" font-family="Times,serif" font-size="14.00">कर्मसमानाधिकरणम्</text>
</g>
<!-- Node23_1 -->
<g id="node34" class="node">
<title>Node23_1</title>
<ellipse fill="#ff99ff" stroke="#ff99ff" cx="2387.04" cy="-279" rx="56.59" ry="18"/>
<text text-anchor="middle" x="2387.04" y="-275.3" font-family="Times,serif" font-size="14.00">इव(23.1)</text>
</g>
<!-- Node23_1&#45;&gt;Node24_1 -->
<g id="edge32" class="edge">
<title>Node23_1&#45;&gt;Node24_1</title>
<path fill="none" stroke="black" d="M2380.91,-306.58C2377.6,-315.29 2372.59,-324.22 2365.04,-330 2346.65,-344.09 2298.53,-352.58 2251.03,-357.66"/>
<polygon fill="black" stroke="black" points="2384.26,-307.59 2383.95,-297 2377.59,-305.47 2384.26,-307.59"/>
<text text-anchor="middle" x="2433.54" y="-318.8" font-family="Times,serif" font-size="14.00">सम्बन्धः</text>
</g>
</g>
</svg>
