<svg xmlns="http://www.w3.org/2000/svg" xmlns:xlink="http://www.w3.org/1999/xlink" width="1820" height="392pt" viewBox="0 0 1365.09 392"><g id="graph0" class="graph" transform="scale(1 1) rotate(0) translate(4 388)"><title>G</title><polygon fill="#fffacd" stroke="transparent" points="-4 4 -4 -388 1361.09 -388 1361.09 4 -4 4"/><g id="clust1" class="cluster"><title>cluster_1</title><polygon fill="#fffacd" stroke="#000" points="167.09 -166 167.09 -305 377.09 -305 377.09 -166 167.09 -166"/></g><g id="clust2" class="cluster"><title>cluster_2</title><polygon fill="#fffacd" stroke="#000" points="603.09 -79 603.09 -218 1349.09 -218 1349.09 -79 603.09 -79"/></g><g id="node1" class="node"><title>Node1_3</title><ellipse cx="263.09" cy="-192" fill="#00bfff" stroke="#00bfff" rx="87.99" ry="18"/><text x="263.09" y="-188.3" font-family="Times,serif" font-size="14" text-anchor="middle">वीथ्यः(1.3)</text></g><g id="node2" class="node"><title>Node3_1</title><ellipse cx="272.09" cy="-279" fill="#00bfff" stroke="#00bfff" rx="96.68" ry="18"/><text x="272.09" y="-275.3" font-family="Times,serif" font-size="14" text-anchor="middle">वेदिकाः(3.1)</text></g><g id="edge3" class="edge"><title>Node1_3-&gt;Node3_1</title><path fill="none" stroke="#000" d="M265.98,-220.27C267.39,-233.58 269.04,-249.19 270.27,-260.82"/><polygon fill="#000" stroke="#000" points="269.45 -219.78 264.91 -210.2 262.48 -220.51 269.45 -219.78"/><text x="326.59" y="-231.8" font-family="Times,serif" font-size="14" text-anchor="middle">विशेषणम्</text></g><g id="node10" class="node"><title>Node4_1</title><ellipse cx="272.09" cy="-366" fill="#93db70" stroke="#93db70" rx="115.88" ry="18"/><text x="272.09" y="-362.3" font-family="Times,serif" font-size="14" text-anchor="middle">अवलोकितम्(4.1)</text></g><g id="edge5" class="edge"><title>Node3_1-&gt;Node4_1</title><path fill="none" stroke="#000" d="M272.09,-307.27C272.09,-320.58 272.09,-336.19 272.09,-347.82"/><polygon fill="#000" stroke="#000" points="275.59 -307.2 272.09 -297.2 268.59 -307.2 275.59 -307.2"/><text x="301.09" y="-318.8" font-family="Times,serif" font-size="14" text-anchor="middle">कर्म</text></g><g id="node3" class="node"><title>Node5_2</title><ellipse cx="1003.09" cy="-105" fill="#00bfff" stroke="#00bfff" rx="106.68" ry="18"/><text x="1003.09" y="-101.3" font-family="Times,serif" font-size="14" text-anchor="middle">संश्रयाः(5.2)</text></g><g id="node4" class="node"><title>Node10_1</title><ellipse cx="764.09" cy="-192" fill="#00bfff" stroke="#00bfff" rx="93.68" ry="18"/><text x="764.09" y="-188.3" font-family="Times,serif" font-size="14" text-anchor="middle">सर्वम्(10.1)</text></g><g id="edge7" class="edge"><title>Node5_2-&gt;Node10_1</title><path fill="none" stroke="#000" d="M960.21,-126.28C938.82,-135.98 912.38,-147.34 888.09,-156 865.65,-164 840.42,-171.41 818.61,-177.32"/><polygon fill="#000" stroke="#000" points="961.72 -129.45 969.36 -122.1 958.81 -123.08 961.72 -129.45"/><text x="987.59" y="-144.8" font-family="Times,serif" font-size="14" text-anchor="middle">समुच्चितः</text></g><g id="node14" class="node"><title>Node12_1</title><ellipse cx="616.09" cy="-279" fill="#93db70" stroke="#93db70" rx="121.58" ry="18"/><text x="616.09" y="-275.3" font-family="Times,serif" font-size="14" text-anchor="middle">अवलोकितम्(12.1)</text></g><g id="edge12" class="edge"><title>Node10_1-&gt;Node12_1</title><path fill="none" stroke="#000" d="M726.93,-214.34C701.52,-228.93 668.34,-247.99 644.93,-261.44"/><polygon fill="#000" stroke="#000" points="728.98 -217.2 735.91 -209.19 725.49 -211.13 728.98 -217.2"/><text x="727.09" y="-231.8" font-family="Times,serif" font-size="14" text-anchor="middle">कर्म</text></g><g id="node5" class="node"><title>Node6_1</title><ellipse cx="1234.09" cy="-105" fill="#00bfff" stroke="#00bfff" rx="106.68" ry="18"/><text x="1234.09" y="-101.3" font-family="Times,serif" font-size="14" text-anchor="middle">श्वभ्राः(6.1)</text></g><g id="edge8" class="edge"><title>Node6_1-&gt;Node10_1</title><path fill="none" stroke="#000" d="M1177.4,-124.34C1142.7,-134.96 1097.21,-147.81 1056.09,-156 986.99,-169.76 907.54,-178.86 848.97,-184.32"/><polygon fill="#000" stroke="#000" points="1178.83 -127.57 1187.35 -121.27 1176.76 -120.88 1178.83 -127.57"/><text x="1179.59" y="-144.8" font-family="Times,serif" font-size="14" text-anchor="middle">समुच्चितः</text></g><g id="node6" class="node"><title>Node8_1</title><ellipse cx="745.09" cy="-105" fill="#00bfff" stroke="#00bfff" rx="133.78" ry="18"/><text x="745.09" y="-101.3" font-family="Times,serif" font-size="14" text-anchor="middle">पुष्करिण्यः(8.1)</text></g><g id="edge10" class="edge"><title>Node8_1-&gt;Node10_1</title><path fill="none" stroke="#000" d="M751.19,-133.27C754.16,-146.58 757.65,-162.19 760.25,-173.82"/><polygon fill="#000" stroke="#000" points="754.53 -132.2 748.94 -123.2 747.7 -133.72 754.53 -132.2"/><text x="819.59" y="-144.8" font-family="Times,serif" font-size="14" text-anchor="middle">समुच्चितः</text></g><g id="node7" class="node"><title>Node1_1</title><ellipse cx="100.09" cy="-18" fill="#ff0" stroke="#ff0" rx="100.18" ry="18"/><text x="100.09" y="-14.3" font-family="Times,serif" font-size="14" text-anchor="middle">प्राकार-(1.1)</text></g><g id="node8" class="node"><title>Node1_2</title><ellipse cx="100.09" cy="-105" fill="#ff0" stroke="#ff0" rx="81.49" ry="18"/><text x="100.09" y="-101.3" font-family="Times,serif" font-size="14" text-anchor="middle">अन्तर-(1.2)</text></g><g id="edge1" class="edge"><title>Node1_1-&gt;Node1_2</title><path fill="none" stroke="#000" d="M100.09,-46.27C100.09,-59.58 100.09,-75.19 100.09,-86.82"/><polygon fill="#000" stroke="#000" points="103.59 -46.2 100.09 -36.2 96.59 -46.2 103.59 -46.2"/><text x="203.59" y="-57.8" font-family="Times,serif" font-size="14" text-anchor="middle">षष्ठी_तत्पुरुषः</text></g><g id="edge2" class="edge"><title>Node1_2-&gt;Node1_3</title><path fill="none" stroke="#000" d="M91.83,-133.04C90.97,-141.18 91.93,-149.64 97.09,-156 108.5,-170.07 147.27,-178.7 184.47,-183.87"/><polygon fill="#000" stroke="#000" points="95.29 -133.55 93.69 -123.08 88.41 -132.26 95.29 -133.55"/><text x="200.59" y="-144.8" font-family="Times,serif" font-size="14" text-anchor="middle">षष्ठी_तत्पुरुषः</text></g><g id="node9" class="node"><title>Node2_1</title><ellipse cx="330.09" cy="-105" fill="#f9f" stroke="#f9f" rx="41.69" ry="18"/><text x="330.09" y="-101.3" font-family="Times,serif" font-size="14" text-anchor="middle">च(2.1)</text></g><g id="edge4" class="edge"><title>Node2_1-&gt;Node1_3</title><path fill="none" stroke="#000" d="M321.38,-132.32C317.98,-140.39 313.56,-148.98 308.09,-156 302.74,-162.87 295.75,-169.15 288.88,-174.44"/><polygon fill="#000" stroke="#000" points="324.69 -133.47 325.02 -122.88 318.16 -130.95 324.69 -133.47"/><text x="374.59" y="-144.8" font-family="Times,serif" font-size="14" text-anchor="middle">सम्बन्धः</text></g><g id="node11" class="node"><title>Node5_1</title><ellipse cx="1003.09" cy="-18" fill="#ff0" stroke="#ff0" rx="81.49" ry="18"/><text x="1003.09" y="-14.3" font-family="Times,serif" font-size="14" text-anchor="middle">चैत्य-(5.1)</text></g><g id="edge6" class="edge"><title>Node5_1-&gt;Node5_2</title><path fill="none" stroke="#000" d="M1003.09,-46.27C1003.09,-59.58 1003.09,-75.19 1003.09,-86.82"/><polygon fill="#000" stroke="#000" points="1006.59 -46.2 1003.09 -36.2 999.59 -46.2 1006.59 -46.2"/><text x="1106.59" y="-57.8" font-family="Times,serif" font-size="14" text-anchor="middle">षष्ठी_तत्पुरुषः</text></g><g id="node12" class="node"><title>Node7_1</title><ellipse cx="1234.09" cy="-18" fill="#f9f" stroke="#f9f" rx="41.69" ry="18"/><text x="1234.09" y="-14.3" font-family="Times,serif" font-size="14" text-anchor="middle">च(7.1)</text></g><g id="edge9" class="edge"><title>Node7_1-&gt;Node6_1</title><path fill="none" stroke="#000" d="M1234.09,-46.27C1234.09,-59.58 1234.09,-75.19 1234.09,-86.82"/><polygon fill="#000" stroke="#000" points="1237.59 -46.2 1234.09 -36.2 1230.59 -46.2 1237.59 -46.2"/><text x="1291.59" y="-57.8" font-family="Times,serif" font-size="14" text-anchor="middle">सम्बन्धः</text></g><g id="node13" class="node"><title>Node9_1</title><ellipse cx="534.09" cy="-105" fill="#f9f" stroke="#f9f" rx="41.69" ry="18"/><text x="534.09" y="-101.3" font-family="Times,serif" font-size="14" text-anchor="middle">च(9.1)</text></g><g id="edge11" class="edge"><title>Node9_1-&gt;Node10_1</title><path fill="none" stroke="#000" d="M532.57,-133.29C533.52,-141.58 536.14,-150.06 542.09,-156 542.44,-156.34 629.07,-169.93 693.99,-180.07"/><polygon fill="#000" stroke="#000" points="536.06 -132.94 532.14 -123.09 529.06 -133.23 536.06 -132.94"/><text x="645.59" y="-144.8" font-family="Times,serif" font-size="14" text-anchor="middle">समुच्चय_द्योतकः</text></g><g id="node15" class="node"><title>Node11_1</title><ellipse cx="529.09" cy="-192" fill="#40e0d0" stroke="#40e0d0" rx="65.79" ry="18"/><text x="529.09" y="-188.3" font-family="Times,serif" font-size="14" text-anchor="middle">तेन(11.1)</text></g><g id="edge13" class="edge"><title>Node11_1-&gt;Node12_1</title><path fill="none" stroke="#000" d="M553.43,-216.78C567.81,-230.83 585.67,-248.28 598.64,-260.95"/><polygon fill="#000" stroke="#000" points="555.88 -214.28 546.28 -209.79 550.99 -219.29 555.88 -214.28"/><text x="614.09" y="-231.8" font-family="Times,serif" font-size="14" text-anchor="middle">कर्ता</text></g></g></svg>