<svg xmlns="http://www.w3.org/2000/svg" xmlns:xlink="http://www.w3.org/1999/xlink" width="3804" height="305pt" viewBox="0 0 2853.23 305"><g id="graph0" class="graph" transform="scale(1 1) rotate(0) translate(4 301)"><title>G</title><polygon fill="#fffacd" stroke="transparent" points="-4 4 -4 -301 2849.23 -301 2849.23 4 -4 4"/><g id="clust1" class="cluster"><title>cluster_1</title><polygon fill="#fffacd" stroke="#000" points="413.79 -79 413.79 -218 792.79 -218 792.79 -79 413.79 -79"/></g><g id="clust2" class="cluster"><title>cluster_2</title><polygon fill="#fffacd" stroke="#000" points="1174.79 -79 1174.79 -218 1620.79 -218 1620.79 -79 1174.79 -79"/></g><g id="node1" class="node"><title>Node6_2</title><ellipse cx="705.79" cy="-105" fill="#00bfff" stroke="#00bfff" rx="78.79" ry="18"/><text x="705.79" y="-101.3" font-family="Times,serif" font-size="14" text-anchor="middle">शालाः(6.2)</text></g><g id="node2" class="node"><title>Node1_2</title><ellipse cx="503.79" cy="-192" fill="#00bfff" stroke="#00bfff" rx="78.79" ry="18"/><text x="503.79" y="-188.3" font-family="Times,serif" font-size="14" text-anchor="middle">शालाः(1.2)</text></g><g id="edge8" class="edge"><title>Node6_2-&gt;Node1_2</title><path fill="none" stroke="#000" d="M678.16,-128.54C665.3,-138.12 649.42,-148.74 633.79,-156 611.22,-166.49 584.93,-174.31 561.92,-179.86"/><polygon fill="#000" stroke="#000" points="680.33 -131.29 686.14 -122.44 676.07 -125.73 680.33 -131.29"/><text x="723.29" y="-144.8" font-family="Times,serif" font-size="14" text-anchor="middle">समुच्चितः</text></g><g id="node8" class="node"><title>Node2_1</title><ellipse cx="266.79" cy="-279" fill="#00bfff" stroke="#00bfff" rx="96.68" ry="18"/><text x="266.79" y="-275.3" font-family="Times,serif" font-size="14" text-anchor="middle">विचिताः(2.1)</text></g><g id="edge2" class="edge"><title>Node1_2-&gt;Node2_1</title><path fill="none" stroke="#000" d="M480.28,-216.47C469.4,-226.07 455.8,-236.44 441.79,-243 413.32,-256.34 379.91,-264.6 349.96,-269.72"/><polygon fill="#000" stroke="#000" points="482.68 -219.01 487.69 -209.68 477.95 -213.85 482.68 -219.01"/><text x="495.79" y="-231.8" font-family="Times,serif" font-size="14" text-anchor="middle">कर्म</text></g><g id="node3" class="node"><title>Node12_3</title><ellipse cx="515.79" cy="-105" fill="#93db70" stroke="#93db70" rx="93.68" ry="18"/><text x="515.79" y="-101.3" font-family="Times,serif" font-size="14" text-anchor="middle">रथ्याः(12.3)</text></g><g id="edge14" class="edge"><title>Node12_3-&gt;Node1_2</title><path fill="none" stroke="#000" d="M506.52,-132.83C505.83,-135.57 505.23,-138.32 504.79,-141 503.03,-151.8 502.76,-164.08 502.94,-173.77"/><polygon fill="#000" stroke="#000" points="509.89 -133.79 509.32 -123.21 503.17 -131.84 509.89 -133.79"/><text x="569.29" y="-144.8" font-family="Times,serif" font-size="14" text-anchor="middle">समुच्चितः</text></g><g id="node4" class="node"><title>Node10_2</title><ellipse cx="1518.79" cy="-105" fill="#00bfff" stroke="#00bfff" rx="93.68" ry="18"/><text x="1518.79" y="-101.3" font-family="Times,serif" font-size="14" text-anchor="middle">गृहाणि(10.2)</text></g><g id="node5" class="node"><title>Node4_2</title><ellipse cx="1303.79" cy="-192" fill="#00bfff" stroke="#00bfff" rx="87.99" ry="18"/><text x="1303.79" y="-188.3" font-family="Times,serif" font-size="14" text-anchor="middle">गृहाणि(4.2)</text></g><g id="edge12" class="edge"><title>Node10_2-&gt;Node4_2</title><path fill="none" stroke="#000" d="M1485.75,-127.95C1470.18,-137.57 1451.04,-148.37 1432.79,-156 1410.42,-165.35 1384.82,-172.9 1362.35,-178.56"/><polygon fill="#000" stroke="#000" points="1487.88 -130.74 1494.47 -122.45 1484.15 -124.82 1487.88 -130.74"/><text x="1526.29" y="-144.8" font-family="Times,serif" font-size="14" text-anchor="middle">समुच्चितः</text></g><g id="node11" class="node"><title>Node8_1</title><ellipse cx="1072.79" cy="-279" fill="#00bfff" stroke="#00bfff" rx="96.68" ry="18"/><text x="1072.79" y="-275.3" font-family="Times,serif" font-size="14" text-anchor="middle">विचिताः(8.1)</text></g><g id="edge5" class="edge"><title>Node4_2-&gt;Node8_1</title><path fill="none" stroke="#000" d="M1276.82,-216.2C1264.43,-225.78 1249.1,-236.22 1233.79,-243 1207.38,-254.71 1176.75,-262.62 1149.34,-267.92"/><polygon fill="#000" stroke="#000" points="1279.27 -218.73 1284.9 -209.75 1274.9 -213.26 1279.27 -218.73"/><text x="1288.79" y="-231.8" font-family="Times,serif" font-size="14" text-anchor="middle">कर्म</text></g><g id="node6" class="node"><title>Node14_1</title><ellipse cx="1294.79" cy="-105" fill="#00bfff" stroke="#00bfff" rx="112.38" ry="18"/><text x="1294.79" y="-101.3" font-family="Times,serif" font-size="14" text-anchor="middle">विमानानि(14.1)</text></g><g id="edge16" class="edge"><title>Node14_1-&gt;Node4_2</title><path fill="none" stroke="#000" d="M1297.68,-133.27C1299.09,-146.58 1300.74,-162.19 1301.98,-173.82"/><polygon fill="#000" stroke="#000" points="1301.15 -132.78 1296.62 -123.2 1294.19 -133.51 1301.15 -132.78"/><text x="1364.29" y="-144.8" font-family="Times,serif" font-size="14" text-anchor="middle">समुच्चितः</text></g><g id="node7" class="node"><title>Node1_1</title><ellipse cx="273.79" cy="-105" fill="#ff0" stroke="#ff0" rx="72.29" ry="18"/><text x="273.79" y="-101.3" font-family="Times,serif" font-size="14" text-anchor="middle">आपान-(1.1)</text></g><g id="edge1" class="edge"><title>Node1_1-&gt;Node1_2</title><path fill="none" stroke="#000" d="M277.92,-133.15C280.54,-141.65 284.81,-150.29 291.79,-156 313.18,-173.48 387.55,-169.41 414.79,-174 425.03,-175.73 435.91,-177.69 446.41,-179.66"/><polygon fill="#000" stroke="#000" points="281.32 -132.31 275.55 -123.42 274.52 -133.97 281.32 -132.31"/><text x="395.29" y="-144.8" font-family="Times,serif" font-size="14" text-anchor="middle">षष्ठी_तत्पुरुषः</text></g><g id="node9" class="node"><title>Node3_1</title><ellipse cx="59.79" cy="-192" fill="#f9f" stroke="#f9f" rx="59.59" ry="18"/><text x="59.79" y="-188.3" font-family="Times,serif" font-size="14" text-anchor="middle">तथा(3.1)</text></g><g id="edge3" class="edge"><title>Node3_1-&gt;Node2_1</title><path fill="none" stroke="#000" d="M62.98,-220.23C65.27,-228.63 69.18,-237.18 75.79,-243 91.62,-256.91 137.53,-265.58 180.37,-270.81"/><polygon fill="#000" stroke="#000" points="66.37 -219.34 60.91 -210.26 59.52 -220.77 66.37 -219.34"/><text x="133.29" y="-231.8" font-family="Times,serif" font-size="14" text-anchor="middle">सम्बन्धः</text></g><g id="node10" class="node"><title>Node4_1</title><ellipse cx="1073.79" cy="-105" fill="#ff0" stroke="#ff0" rx="81.49" ry="18"/><text x="1073.79" y="-101.3" font-family="Times,serif" font-size="14" text-anchor="middle">पुष्प-(4.1)</text></g><g id="edge4" class="edge"><title>Node4_1-&gt;Node4_2</title><path fill="none" stroke="#000" d="M1075.18,-133.21C1076.96,-141.6 1080.38,-150.16 1086.79,-156 1092.29,-161 1171.42,-172.87 1232.55,-181.4"/><polygon fill="#000" stroke="#000" points="1078.63 -132.64 1073.74 -123.25 1071.71 -133.65 1078.63 -132.64"/><text x="1190.29" y="-144.8" font-family="Times,serif" font-size="14" text-anchor="middle">षष्ठी_तत्पुरुषः</text></g><g id="node12" class="node"><title>Node5_1</title><ellipse cx="843.79" cy="-105" fill="#f9f" stroke="#f9f" rx="41.69" ry="18"/><text x="843.79" y="-101.3" font-family="Times,serif" font-size="14" text-anchor="middle">च(5.1)</text></g><g id="edge6" class="edge"><title>Node5_1-&gt;Node1_2</title><path fill="none" stroke="#000" d="M824.98,-129.94C816.01,-139.65 804.47,-149.98 791.79,-156 755.45,-173.26 652.32,-182.61 579.9,-187.2"/><polygon fill="#000" stroke="#000" points="827.65 -132.21 831.6 -122.38 822.38 -127.6 827.65 -132.21"/><text x="916.29" y="-144.8" font-family="Times,serif" font-size="14" text-anchor="middle">समुच्चय_द्योतकः</text></g><g id="node13" class="node"><title>Node6_1</title><ellipse cx="705.79" cy="-18" fill="#ff0" stroke="#ff0" rx="81.49" ry="18"/><text x="705.79" y="-14.3" font-family="Times,serif" font-size="14" text-anchor="middle">चित्र-(6.1)</text></g><g id="edge7" class="edge"><title>Node6_1-&gt;Node6_2</title><path fill="none" stroke="#000" d="M705.79,-46.27C705.79,-59.58 705.79,-75.19 705.79,-86.82"/><polygon fill="#000" stroke="#000" points="709.29 -46.2 705.79 -36.2 702.29 -46.2 709.29 -46.2"/><text x="809.29" y="-57.8" font-family="Times,serif" font-size="14" text-anchor="middle">षष्ठी_तत्पुरुषः</text></g><g id="node14" class="node"><title>Node7_1</title><ellipse cx="197.79" cy="-192" fill="#f9f" stroke="#f9f" rx="41.69" ry="18"/><text x="197.79" y="-188.3" font-family="Times,serif" font-size="14" text-anchor="middle">च(7.1)</text></g><g id="edge9" class="edge"><title>Node7_1-&gt;Node2_1</title><path fill="none" stroke="#000" d="M193.29,-219.98C193.26,-227.9 194.58,-236.24 198.79,-243 204.14,-251.56 212.3,-258.12 221.14,-263.12"/><polygon fill="#000" stroke="#000" points="196.79 -220.21 194 -209.98 189.8 -219.71 196.79 -220.21"/><text x="256.29" y="-231.8" font-family="Times,serif" font-size="14" text-anchor="middle">सम्बन्धः</text></g><g id="node15" class="node"><title>Node9_1</title><ellipse cx="335.79" cy="-192" fill="#f9f" stroke="#f9f" rx="69.59" ry="18"/><text x="335.79" y="-188.3" font-family="Times,serif" font-size="14" text-anchor="middle">भूयः(9.1)</text></g><g id="edge10" class="edge"><title>Node9_1-&gt;Node2_1</title><path fill="none" stroke="#000" d="M327.02,-219.76C323.64,-227.72 319.26,-236.14 313.79,-243 308.22,-250 300.92,-256.33 293.75,-261.61"/><polygon fill="#000" stroke="#000" points="330.29 -220.99 330.63 -210.41 323.76 -218.47 330.29 -220.99"/><text x="380.29" y="-231.8" font-family="Times,serif" font-size="14" text-anchor="middle">सम्बन्धः</text></g><g id="node16" class="node"><title>Node10_1</title><ellipse cx="1518.79" cy="-18" fill="#ff0" stroke="#ff0" rx="96.68" ry="18"/><text x="1518.79" y="-14.3" font-family="Times,serif" font-size="14" text-anchor="middle">क्रीडा-(10.1)</text></g><g id="edge11" class="edge"><title>Node10_1-&gt;Node10_2</title><path fill="none" stroke="#000" d="M1518.79,-46.27C1518.79,-59.58 1518.79,-75.19 1518.79,-86.82"/><polygon fill="#000" stroke="#000" points="1522.29 -46.2 1518.79 -36.2 1515.29 -46.2 1522.29 -46.2"/><text x="1622.29" y="-57.8" font-family="Times,serif" font-size="14" text-anchor="middle">षष्ठी_तत्पुरुषः</text></g><g id="node17" class="node"><title>Node11_1</title><ellipse cx="1677.79" cy="-105" fill="#f9f" stroke="#f9f" rx="47.39" ry="18"/><text x="1677.79" y="-101.3" font-family="Times,serif" font-size="14" text-anchor="middle">च(11.1)</text></g><g id="edge13" class="edge"><title>Node11_1-&gt;Node4_2</title><path fill="none" stroke="#000" d="M1649.35,-127.26C1633.98,-137.65 1614.21,-149.33 1594.79,-156 1528.87,-178.65 1450.16,-187.08 1391.24,-190.03"/><polygon fill="#000" stroke="#000" points="1651.65 -129.93 1657.86 -121.34 1647.65 -124.18 1651.65 -129.93"/><text x="1729.29" y="-144.8" font-family="Times,serif" font-size="14" text-anchor="middle">समुच्चय_द्योतकः</text></g><g id="node18" class="node"><title>Node12_1</title><ellipse cx="1739.79" cy="-18" fill="#ff0" stroke="#ff0" rx="105.88" ry="18"/><text x="1739.79" y="-14.3" font-family="Times,serif" font-size="14" text-anchor="middle">निष्कुट-(12.1)</text></g><g id="node19" class="node"><title>Node12_2</title><ellipse cx="1950.79" cy="-18" fill="#ff0" stroke="#ff0" rx="87.18" ry="18"/><text x="1950.79" y="-14.3" font-family="Times,serif" font-size="14" text-anchor="middle">अन्तर-(12.2)</text></g><g id="node20" class="node"><title>Node13_1</title><ellipse cx="913.79" cy="-192" fill="#f9f" stroke="#f9f" rx="47.39" ry="18"/><text x="913.79" y="-188.3" font-family="Times,serif" font-size="14" text-anchor="middle">च(13.1)</text></g><g id="edge15" class="edge"><title>Node13_1-&gt;Node8_1</title><path fill="none" stroke="#000" d="M929.38,-218.38C935.94,-227.27 944.28,-236.62 953.79,-243 969.26,-253.38 987.86,-260.74 1005.71,-265.94"/><polygon fill="#000" stroke="#000" points="932.22 -216.33 923.65 -210.11 926.47 -220.32 932.22 -216.33"/><text x="1011.29" y="-231.8" font-family="Times,serif" font-size="14" text-anchor="middle">सम्बन्धः</text></g><g id="node21" class="node"><title>Node15_1</title><ellipse cx="1925.79" cy="-105" fill="#f9f" stroke="#f9f" rx="47.39" ry="18"/><text x="1925.79" y="-101.3" font-family="Times,serif" font-size="14" text-anchor="middle">च(15.1)</text></g><g id="node22" class="node"><title>Node22_1</title><ellipse cx="2313.79" cy="-192" fill="#ff1975" stroke="#ff1975" rx="112.38" ry="18"/><text x="2313.79" y="-188.3" font-family="Times,serif" font-size="14" text-anchor="middle">उपचक्रमे(22.1)</text></g><g id="edge17" class="edge"><title>Node15_1-&gt;Node22_1</title><path fill="none" stroke="#000" d="M1960.78,-124.82C1982.38,-135.63 2011,-148.5 2037.79,-156 2093.49,-171.6 2157.47,-180.26 2209.8,-185.06"/><polygon fill="#000" stroke="#000" points="1962.18 -121.61 1951.68 -120.19 1959 -127.85 1962.18 -121.61"/><text x="2095.29" y="-144.8" font-family="Times,serif" font-size="14" text-anchor="middle">सम्बन्धः</text></g><g id="node23" class="node"><title>Node16_1</title><ellipse cx="1072.79" cy="-192" fill="#f9f" stroke="#f9f" rx="93.68" ry="18"/><text x="1072.79" y="-188.3" font-family="Times,serif" font-size="14" text-anchor="middle">सर्वशः(16.1)</text></g><g id="edge18" class="edge"><title>Node16_1-&gt;Node8_1</title><path fill="none" stroke="#000" d="M1072.79,-220.27C1072.79,-233.58 1072.79,-249.19 1072.79,-260.82"/><polygon fill="#000" stroke="#000" points="1076.29 -220.2 1072.79 -210.2 1069.29 -220.2 1076.29 -220.2"/><text x="1151.29" y="-231.8" font-family="Times,serif" font-size="14" text-anchor="middle">देशाधिकरणम्</text></g><g id="node24" class="node"><title>Node17_1</title><ellipse cx="2121.79" cy="-18" fill="#f9f" stroke="#f9f" rx="65.79" ry="18"/><text x="2121.79" y="-14.3" font-family="Times,serif" font-size="14" text-anchor="middle">इति(17.1)</text></g><g id="node25" class="node"><title>Node18_1</title><ellipse cx="2121.79" cy="-105" fill="#f9f" stroke="#f9f" rx="130.78" ry="18"/><text x="2121.79" y="-101.3" font-family="Times,serif" font-size="14" text-anchor="middle">सञ्चिन्त्य(18.1)</text></g><g id="edge19" class="edge"><title>Node17_1-&gt;Node18_1</title><path fill="none" stroke="#000" d="M2121.79,-46.27C2121.79,-59.58 2121.79,-75.19 2121.79,-86.82"/><polygon fill="#000" stroke="#000" points="2125.29 -46.2 2121.79 -36.2 2118.29 -46.2 2125.29 -46.2"/><text x="2179.29" y="-57.8" font-family="Times,serif" font-size="14" text-anchor="middle">सम्बन्धः</text></g><g id="edge20" class="edge"><title>Node18_1-&gt;Node22_1</title><path fill="none" stroke="#000" d="M2144.04,-130.34C2153.62,-139.56 2165.46,-149.41 2177.79,-156 2196.61,-166.05 2218.46,-173.31 2239.06,-178.53"/><polygon fill="#000" stroke="#000" points="2146.41 -127.76 2136.87 -123.16 2141.45 -132.71 2146.41 -127.76"/><text x="2242.29" y="-144.8" font-family="Times,serif" font-size="14" text-anchor="middle">पूर्वकालः</text></g><g id="node26" class="node"><title>Node19_1</title><ellipse cx="2345.79" cy="-105" fill="#f9f" stroke="#f9f" rx="75.29" ry="18"/><text x="2345.79" y="-101.3" font-family="Times,serif" font-size="14" text-anchor="middle">भूयः(19.1)</text></g><g id="edge21" class="edge"><title>Node19_1-&gt;Node22_1</title><path fill="none" stroke="#000" d="M2320.64,-130.33C2318.29,-133.69 2316.25,-137.28 2314.79,-141 2310.75,-151.35 2310.5,-163.85 2311.26,-173.76"/><polygon fill="#000" stroke="#000" points="2323.41 -132.47 2326.95 -122.48 2317.96 -128.08 2323.41 -132.47"/><text x="2414.79" y="-144.8" font-family="Times,serif" font-size="14" text-anchor="middle">क्रियाविशेषणम्</text></g><g id="node27" class="node"><title>Node20_1</title><ellipse cx="2536.79" cy="-105" fill="#f9f" stroke="#f9f" rx="65.79" ry="18"/><text x="2536.79" y="-101.3" font-family="Times,serif" font-size="14" text-anchor="middle">अपि(20.1)</text></g><g id="edge22" class="edge"><title>Node20_1-&gt;Node22_1</title><path fill="none" stroke="#000" d="M2530.33,-133.15C2527.03,-141.64 2522.09,-150.28 2514.79,-156 2498.2,-168.99 2453.6,-177.47 2410.62,-182.82"/><polygon fill="#000" stroke="#000" points="2533.73 -134.01 2533.52 -123.42 2527.08 -131.83 2533.73 -134.01"/><text x="2583.29" y="-144.8" font-family="Times,serif" font-size="14" text-anchor="middle">सम्बन्धः</text></g><g id="node28" class="node"><title>Node21_1</title><ellipse cx="2732.79" cy="-105" fill="#f9f" stroke="#f9f" rx="112.38" ry="18"/><text x="2732.79" y="-101.3" font-family="Times,serif" font-size="14" text-anchor="middle">विचेतुम्(21.1)</text></g><g id="edge23" class="edge"><title>Node21_1-&gt;Node22_1</title><path fill="none" stroke="#000" d="M2700.91,-128.36C2684.82,-138.51 2664.56,-149.65 2644.79,-156 2603.74,-169.2 2498.05,-178.9 2417.04,-184.7"/><polygon fill="#000" stroke="#000" points="2702.91 -131.24 2709.39 -122.86 2699.1 -125.36 2702.91 -131.24"/><text x="2742.29" y="-144.8" font-family="Times,serif" font-size="14" text-anchor="middle">प्रयोजनम्</text></g></g></svg>