<?xml version="1.0" encoding="UTF-8" standalone="no"?>
<!DOCTYPE svg PUBLIC "-//W3C//DTD SVG 1.1//EN"
 "http://www.w3.org/Graphics/SVG/1.1/DTD/svg11.dtd">
<!-- Generated by graphviz version 2.43.0 (0)
 -->
<!-- Title: G Pages: 1 -->
<svg width="1394pt" height="321pt"
 viewBox="0.00 0.00 1394.00 321.00" xmlns="http://www.w3.org/2000/svg" xmlns:xlink="http://www.w3.org/1999/xlink">
<g id="graph0" class="graph" transform="scale(1 1) rotate(0) translate(4 317)">
<title>G</title>
<polygon fill="#fffacd" stroke="transparent" points="-4,4 -4,-317 1390,-317 1390,4 -4,4"/>
<g id="clust1" class="cluster">
<title>cluster_1</title>
<polygon fill="#fffacd" stroke="black" points="8,-95 8,-234 393,-234 393,-95 8,-95"/>
</g>
<g id="clust2" class="cluster">
<title>cluster_2</title>
<polygon fill="#fffacd" stroke="black" points="1163,-8 1163,-147 1312,-147 1312,-8 1163,-8"/>
</g>
<g id="clust3" class="cluster">
<title>cluster_3</title>
<polygon fill="#fffacd" stroke="black" points="640,-95 640,-234 1048,-234 1048,-95 640,-95"/>
</g>
<!-- Node3_1 -->
<g id="node1" class="node">
<title>Node3_1</title>
<ellipse fill="#00bfff" stroke="#00bfff" cx="297" cy="-121" rx="87.99" ry="18"/>
<text text-anchor="middle" x="297" y="-117.3" font-family="Times,serif" font-size="14.00">वृद्धः(3.1)</text>
</g>
<!-- Node5_1 -->
<g id="node2" class="node">
<title>Node5_1</title>
<ellipse fill="#00bfff" stroke="#00bfff" cx="269" cy="-208" rx="115.88" ry="18"/>
<text text-anchor="middle" x="269" y="-204.3" font-family="Times,serif" font-size="14.00">जाम्बवान्(5.1)</text>
</g>
<!-- Node3_1&#45;&gt;Node5_1 -->
<g id="edge2" class="edge">
<title>Node3_1&#45;&gt;Node5_1</title>
<path fill="none" stroke="black" d="M288.15,-148.87C283.73,-162.27 278.53,-178.08 274.66,-189.82"/>
<polygon fill="black" stroke="black" points="291.53,-149.79 291.33,-139.2 284.88,-147.6 291.53,-149.79"/>
<text text-anchor="middle" x="342.5" y="-160.8" font-family="Times,serif" font-size="14.00">विशेषणम्</text>
</g>
<!-- Node2_1 -->
<g id="node10" class="node">
<title>Node2_1</title>
<ellipse fill="#ff1975" stroke="#ff1975" cx="1017" cy="-295" rx="106.68" ry="18"/>
<text text-anchor="middle" x="1017" y="-291.3" font-family="Times,serif" font-size="14.00">वक्ष्यति(2.1)</text>
</g>
<!-- Node5_1&#45;&gt;Node2_1 -->
<g id="edge4" class="edge">
<title>Node5_1&#45;&gt;Node2_1</title>
<path fill="none" stroke="black" d="M369.61,-220.43C517.74,-237.27 791.99,-268.43 931.17,-284.25"/>
<polygon fill="black" stroke="black" points="369.93,-216.95 359.6,-219.3 369.14,-223.9 369.93,-216.95"/>
<text text-anchor="middle" x="723" y="-247.8" font-family="Times,serif" font-size="14.00">कर्ता</text>
</g>
<!-- Node6_1 -->
<g id="node3" class="node">
<title>Node6_1</title>
<ellipse fill="#00bfff" stroke="#00bfff" cx="104" cy="-121" rx="87.99" ry="18"/>
<text text-anchor="middle" x="104" y="-117.3" font-family="Times,serif" font-size="14.00">अङ्गदः(6.1)</text>
</g>
<!-- Node6_1&#45;&gt;Node5_1 -->
<g id="edge5" class="edge">
<title>Node6_1&#45;&gt;Node5_1</title>
<path fill="none" stroke="black" d="M121.85,-147.08C129.34,-156.05 138.7,-165.53 149,-172 164.07,-181.47 181.8,-188.46 198.93,-193.59"/>
<polygon fill="black" stroke="black" points="124.48,-144.76 115.53,-139.09 118.99,-149.1 124.48,-144.76"/>
<text text-anchor="middle" x="213.5" y="-160.8" font-family="Times,serif" font-size="14.00">समुच्चितः</text>
</g>
<!-- Node8_1 -->
<g id="node4" class="node">
<title>Node8_1</title>
<ellipse fill="#00bfff" stroke="#00bfff" cx="1222" cy="-34" rx="50.89" ry="18"/>
<text text-anchor="middle" x="1222" y="-30.3" font-family="Times,serif" font-size="14.00">सः(8.1)</text>
</g>
<!-- Node6 -->
<g id="node5" class="node">
<title>Node6</title>
<ellipse fill="lightgrey" stroke="black" cx="1198" cy="-121" rx="27" ry="18"/>
</g>
<!-- Node8_1&#45;&gt;Node6 -->
<g id="edge7" class="edge">
<title>Node8_1&#45;&gt;Node6</title>
<path fill="none" stroke="black" d="M1214.39,-61.94C1210.58,-75.43 1206.09,-91.36 1202.77,-103.11"/>
<polygon fill="black" stroke="black" points="1217.79,-62.78 1217.14,-52.2 1211.06,-60.87 1217.79,-62.78"/>
<text text-anchor="middle" x="1268.5" y="-73.8" font-family="Times,serif" font-size="14.00">विशेषणम्</text>
</g>
<!-- Node10_1 -->
<g id="node6" class="node">
<title>Node10_1</title>
<ellipse fill="#93db70" stroke="#93db70" cx="956" cy="-121" rx="84.49" ry="18"/>
<text text-anchor="middle" x="956" y="-117.3" font-family="Times,serif" font-size="14.00">पारम्(10.1)</text>
</g>
<!-- Node12_1 -->
<g id="node7" class="node">
<title>Node12_1</title>
<ellipse fill="#00bfff" stroke="#00bfff" cx="892" cy="-208" rx="93.68" ry="18"/>
<text text-anchor="middle" x="892" y="-204.3" font-family="Times,serif" font-size="14.00">वानराः(12.1)</text>
</g>
<!-- Node10_1&#45;&gt;Node12_1 -->
<g id="edge9" class="edge">
<title>Node10_1&#45;&gt;Node12_1</title>
<path fill="none" stroke="black" d="M936.9,-147.36C926.5,-161.18 913.91,-177.9 904.71,-190.11"/>
<polygon fill="black" stroke="black" points="939.83,-149.3 943.05,-139.2 934.24,-145.08 939.83,-149.3"/>
<text text-anchor="middle" x="991.5" y="-160.8" font-family="Times,serif" font-size="14.00">समुच्चितः</text>
</g>
<!-- Node12_1&#45;&gt;Node2_1 -->
<g id="edge11" class="edge">
<title>Node12_1&#45;&gt;Node2_1</title>
<path fill="none" stroke="black" d="M881.05,-236.19C879.6,-244.21 880.04,-252.55 885,-259 892.63,-268.91 916.38,-276.6 941.68,-282.21"/>
<polygon fill="black" stroke="black" points="884.47,-236.94 883.7,-226.37 877.71,-235.11 884.47,-236.94"/>
<text text-anchor="middle" x="1006.5" y="-247.8" font-family="Times,serif" font-size="14.00">कर्तृसमानाधिकरणम्</text>
</g>
<!-- Node14_1 -->
<g id="node8" class="node">
<title>Node14_1</title>
<ellipse fill="#00bfff" stroke="#00bfff" cx="751" cy="-121" rx="102.88" ry="18"/>
<text text-anchor="middle" x="751" y="-117.3" font-family="Times,serif" font-size="14.00">समागताः(14.1)</text>
</g>
<!-- Node14_1&#45;&gt;Node12_1 -->
<g id="edge13" class="edge">
<title>Node14_1&#45;&gt;Node12_1</title>
<path fill="none" stroke="black" d="M771.71,-146.68C780.11,-155.55 790.33,-165.07 801,-172 813.92,-180.39 829.15,-187.24 843.42,-192.58"/>
<polygon fill="black" stroke="black" points="774.16,-144.18 764.85,-139.14 768.99,-148.89 774.16,-144.18"/>
<text text-anchor="middle" x="858.5" y="-160.8" font-family="Times,serif" font-size="14.00">विशेषणम्</text>
</g>
<!-- Node1_1 -->
<g id="node9" class="node">
<title>Node1_1</title>
<ellipse fill="#ff99ff" stroke="#ff99ff" cx="1150" cy="-208" rx="78.79" ry="18"/>
<text text-anchor="middle" x="1150" y="-204.3" font-family="Times,serif" font-size="14.00">किंवा(1.1)</text>
</g>
<!-- Node1_1&#45;&gt;Node2_1 -->
<g id="edge1" class="edge">
<title>Node1_1&#45;&gt;Node2_1</title>
<path fill="none" stroke="black" d="M1143.09,-235.6C1139.74,-244.06 1134.9,-252.81 1128,-259 1116.64,-269.18 1102.33,-276.4 1087.79,-281.52"/>
<polygon fill="black" stroke="black" points="1146.45,-236.58 1146.36,-225.98 1139.82,-234.32 1146.45,-236.58"/>
<text text-anchor="middle" x="1195.5" y="-247.8" font-family="Times,serif" font-size="14.00">सम्बन्धः</text>
</g>
<!-- Node4_1 -->
<g id="node11" class="node">
<title>Node4_1</title>
<ellipse fill="#ff99ff" stroke="#ff99ff" cx="1288" cy="-208" rx="41.69" ry="18"/>
<text text-anchor="middle" x="1288" y="-204.3" font-family="Times,serif" font-size="14.00">च(4.1)</text>
</g>
<!-- Node4_1&#45;&gt;Node2_1 -->
<g id="edge3" class="edge">
<title>Node4_1&#45;&gt;Node2_1</title>
<path fill="none" stroke="black" d="M1277.36,-235.2C1272.46,-244.11 1265.75,-253.26 1257,-259 1233.8,-274.21 1170.92,-283.03 1115.33,-288.02"/>
<polygon fill="black" stroke="black" points="1280.54,-236.67 1281.83,-226.15 1274.26,-233.57 1280.54,-236.67"/>
<text text-anchor="middle" x="1328.5" y="-247.8" font-family="Times,serif" font-size="14.00">सम्बन्धः</text>
</g>
<!-- Node7_1 -->
<g id="node12" class="node">
<title>Node7_1</title>
<ellipse fill="#ff99ff" stroke="#ff99ff" cx="444" cy="-121" rx="41.69" ry="18"/>
<text text-anchor="middle" x="444" y="-117.3" font-family="Times,serif" font-size="14.00">च(7.1)</text>
</g>
<!-- Node7_1&#45;&gt;Node5_1 -->
<g id="edge6" class="edge">
<title>Node7_1&#45;&gt;Node5_1</title>
<path fill="none" stroke="black" d="M428.31,-147.14C421.54,-156.16 412.89,-165.67 403,-172 386.7,-182.44 367.4,-189.78 348.6,-194.93"/>
<polygon fill="black" stroke="black" points="431.32,-148.94 434.21,-138.75 425.6,-144.92 431.32,-148.94"/>
<text text-anchor="middle" x="523.5" y="-160.8" font-family="Times,serif" font-size="14.00">समुच्चय_द्योतकः</text>
</g>
<!-- Node9_1 -->
<g id="node13" class="node">
<title>Node9_1</title>
<ellipse fill="#93db70" stroke="#93db70" cx="749" cy="-34" rx="69.59" ry="18"/>
<text text-anchor="middle" x="749" y="-30.3" font-family="Times,serif" font-size="14.00">गतम्(9.1)</text>
</g>
<!-- Node9_1&#45;&gt;Node14_1 -->
<g id="edge8" class="edge">
<title>Node9_1&#45;&gt;Node14_1</title>
<path fill="none" stroke="black" d="M749.64,-62.27C749.95,-75.58 750.32,-91.19 750.6,-102.82"/>
<polygon fill="black" stroke="black" points="753.14,-62.12 749.4,-52.2 746.14,-62.28 753.14,-62.12"/>
<text text-anchor="middle" x="779" y="-73.8" font-family="Times,serif" font-size="14.00">कर्म</text>
</g>
<!-- Node11_1 -->
<g id="node14" class="node">
<title>Node11_1</title>
<ellipse fill="#87ceeb" stroke="#87ceeb" cx="958" cy="-34" rx="121.58" ry="18"/>
<text text-anchor="middle" x="958" y="-30.3" font-family="Times,serif" font-size="14.00">समुद्रस्य(11.1)</text>
</g>
<!-- Node11_1&#45;&gt;Node10_1 -->
<g id="edge10" class="edge">
<title>Node11_1&#45;&gt;Node10_1</title>
<path fill="none" stroke="black" d="M957.36,-62.27C957.05,-75.58 956.68,-91.19 956.4,-102.82"/>
<polygon fill="black" stroke="black" points="960.86,-62.28 957.6,-52.2 953.86,-62.12 960.86,-62.28"/>
<text text-anchor="middle" x="1050" y="-73.8" font-family="Times,serif" font-size="14.00">षष्ठीसम्बन्धः</text>
</g>
<!-- Node13_1 -->
<g id="node15" class="node">
<title>Node13_1</title>
<ellipse fill="#ff99ff" stroke="#ff99ff" cx="1106" cy="-121" rx="47.39" ry="18"/>
<text text-anchor="middle" x="1106" y="-117.3" font-family="Times,serif" font-size="14.00">च(13.1)</text>
</g>
<!-- Node13_1&#45;&gt;Node12_1 -->
<g id="edge12" class="edge">
<title>Node13_1&#45;&gt;Node12_1</title>
<path fill="none" stroke="black" d="M1088.49,-146.83C1080.76,-156.06 1070.95,-165.79 1060,-172 1034.61,-186.41 1004.04,-194.92 975.97,-199.93"/>
<polygon fill="black" stroke="black" points="1091.26,-148.97 1094.71,-138.96 1085.77,-144.63 1091.26,-148.97"/>
<text text-anchor="middle" x="1181.5" y="-160.8" font-family="Times,serif" font-size="14.00">समुच्चय_द्योतकः</text>
</g>
</g>
</svg>
