<svg xmlns="http://www.w3.org/2000/svg" xmlns:xlink="http://www.w3.org/1999/xlink" width="2000" height="544" viewBox="0 0 1500.39 408"><g id="graph0" class="graph" transform="scale(1 1) rotate(0) translate(4 404)"><title>G</title><polygon fill="#fffacd" stroke="transparent" points="-4 4 -4 -404 1496.39 -404 1496.39 4 -4 4"/><g id="clust1" class="cluster"><title>cluster_1</title><polygon fill="#fffacd" stroke="#000" points="462 -95 462 -234 618 -234 618 -95 462 -95"/></g><g id="clust2" class="cluster"><title>cluster_2</title><polygon fill="#fffacd" stroke="#000" points="8 -8 8 -147 238 -147 238 -8 8 -8"/></g><g id="clust3" class="cluster"><title>cluster_3</title><polygon fill="#fffacd" stroke="#000" points="793 -95 793 -234 1053 -234 1053 -95 793 -95"/></g><g id="node1" class="node"><title>Node1_1</title><ellipse cx="521" cy="-121" fill="#00bfff" stroke="#00bfff" rx="50.89" ry="18"/><text x="521" y="-117.3" font-family="Times,serif" font-size="14" text-anchor="middle">सः(1.1)</text></g><g id="node2" class="node"><title>Node4_2</title><ellipse cx="540" cy="-208" fill="#00bfff" stroke="#00bfff" rx="69.59" ry="18"/><text x="540" y="-204.3" font-family="Times,serif" font-size="14" text-anchor="middle">कपिः(4.2)</text></g><g id="edge1" class="edge"><title>Node1_1-&gt;Node4_2</title><path fill="none" stroke="#000" d="M527.09,-149.27C530.07,-162.58 533.56,-178.19 536.16,-189.82"/><polygon fill="#000" stroke="#000" points="530.44 -148.2 524.84 -139.2 523.61 -149.72 530.44 -148.2"/><text x="589.5" y="-160.8" font-family="Times,serif" font-size="14" text-anchor="middle">विशेषणम्</text></g><g id="node7" class="node"><title>Node2_1</title><ellipse cx="360" cy="-295" fill="#ff1975" stroke="#ff1975" rx="124.58" ry="18"/><text x="360" y="-291.3" font-family="Times,serif" font-size="14" text-anchor="middle">चिन्तयामास(2.1)</text></g><g id="edge4" class="edge"><title>Node4_2-&gt;Node2_1</title><path fill="none" stroke="#000" d="M533.39,-235.96C530.07,-244.44 525.17,-253.12 518,-259 506.38,-268.53 476.87,-276.21 446.46,-281.92"/><polygon fill="#000" stroke="#000" points="536.78 -236.86 536.6 -226.27 530.13 -234.66 536.78 -236.86"/><text x="566" y="-247.8" font-family="Times,serif" font-size="14" text-anchor="middle">कर्ता</text></g><g id="node3" class="node"><title>Node8_1</title><ellipse cx="115" cy="-34" fill="#93db70" stroke="#93db70" rx="69.59" ry="18"/><text x="115" y="-30.3" font-family="Times,serif" font-size="14" text-anchor="middle">ताम्(8.1)</text></g><g id="node4" class="node"><title>Node5_1</title><ellipse cx="123" cy="-121" fill="#93db70" stroke="#93db70" rx="106.68" ry="18"/><text x="123" y="-117.3" font-family="Times,serif" font-size="14" text-anchor="middle">प्रियाम्(5.1)</text></g><g id="edge8" class="edge"><title>Node8_1-&gt;Node5_1</title><path fill="none" stroke="#000" d="M117.57,-62.27C118.82,-75.58 120.29,-91.19 121.38,-102.82"/><polygon fill="#000" stroke="#000" points="121.04 -61.83 116.62 -52.2 114.07 -62.49 121.04 -61.83"/><text x="177.5" y="-73.8" font-family="Times,serif" font-size="14" text-anchor="middle">विशेषणम्</text></g><g id="node10" class="node"><title>Node6_1</title><ellipse cx="123" cy="-208" fill="#00bfff" stroke="#00bfff" rx="96.68" ry="18"/><text x="123" y="-204.3" font-family="Times,serif" font-size="14" text-anchor="middle">अपश्यन्(6.1)</text></g><g id="edge5" class="edge"><title>Node5_1-&gt;Node6_1</title><path fill="none" stroke="#000" d="M123,-149.27C123,-162.58 123,-178.19 123,-189.82"/><polygon fill="#000" stroke="#000" points="126.5 -149.2 123 -139.2 119.5 -149.2 126.5 -149.2"/><text x="152" y="-160.8" font-family="Times,serif" font-size="14" text-anchor="middle">कर्म</text></g><g id="node5" class="node"><title>Node16_1</title><ellipse cx="923" cy="-121" fill="#87ceeb" stroke="#87ceeb" rx="121.58" ry="18"/><text x="923" y="-117.3" font-family="Times,serif" font-size="14" text-anchor="middle">विचिन्वतः(16.1)</text></g><g id="node6" class="node"><title>Node15_1</title><ellipse cx="923" cy="-208" fill="#87ceeb" stroke="#87ceeb" rx="56.59" ry="18"/><text x="923" y="-204.3" font-family="Times,serif" font-size="14" text-anchor="middle">मे(15.1)</text></g><g id="edge15" class="edge"><title>Node16_1-&gt;Node15_1</title><path fill="none" stroke="#000" d="M923,-149.27C923,-162.58 923,-178.19 923,-189.82"/><polygon fill="#000" stroke="#000" points="926.5 -149.2 923 -139.2 919.5 -149.2 926.5 -149.2"/><text x="980.5" y="-160.8" font-family="Times,serif" font-size="14" text-anchor="middle">विशेषणम्</text></g><g id="node19" class="node"><title>Node17_1</title><ellipse cx="923" cy="-295" fill="#93db70" stroke="#93db70" rx="102.88" ry="18"/><text x="923" y="-291.3" font-family="Times,serif" font-size="14" text-anchor="middle">दर्शनम्(17.1)</text></g><g id="edge14" class="edge"><title>Node15_1-&gt;Node17_1</title><path fill="none" stroke="#000" d="M923,-236.27C923,-249.58 923,-265.19 923,-276.82"/><polygon fill="#000" stroke="#000" points="926.5 -236.2 923 -226.2 919.5 -236.2 926.5 -236.2"/><text x="1016" y="-247.8" font-family="Times,serif" font-size="14" text-anchor="middle">षष्ठीसम्बन्धः</text></g><g id="node8" class="node"><title>Node3_1</title><ellipse cx="360" cy="-208" fill="#f9f" stroke="#f9f" rx="59.59" ry="18"/><text x="360" y="-204.3" font-family="Times,serif" font-size="14" text-anchor="middle">ततः(3.1)</text></g><g id="edge2" class="edge"><title>Node3_1-&gt;Node2_1</title><path fill="none" stroke="#000" d="M360,-236.27C360,-249.58 360,-265.19 360,-276.82"/><polygon fill="#000" stroke="#000" points="363.5 -236.2 360 -226.2 356.5 -236.2 363.5 -236.2"/><text x="438.5" y="-247.8" font-family="Times,serif" font-size="14" text-anchor="middle">कालाधिकरणम्</text></g><g id="node9" class="node"><title>Node4_1</title><ellipse cx="343" cy="-121" fill="#ff0" stroke="#ff0" rx="63.09" ry="18"/><text x="343" y="-117.3" font-family="Times,serif" font-size="14" text-anchor="middle">महा-(4.1)</text></g><g id="edge3" class="edge"><title>Node4_1-&gt;Node4_2</title><path fill="none" stroke="#000" d="M363.86,-146.03C373.15,-155.38 384.75,-165.41 397,-172 422.21,-185.56 452.73,-193.95 479.09,-199.11"/><polygon fill="#000" stroke="#000" points="366.37 -143.59 356.94 -138.75 361.3 -148.41 366.37 -143.59"/><text x="461.5" y="-160.8" font-family="Times,serif" font-size="14" text-anchor="middle">कर्मधारयः</text></g><g id="edge6" class="edge"><title>Node6_1-&gt;Node2_1</title><path fill="none" stroke="#000" d="M127.74,-236.13C130.53,-244.62 134.96,-253.27 142,-259 159.05,-272.89 204.62,-281.36 249.71,-286.48"/><polygon fill="#000" stroke="#000" points="131.1 -235.17 125.16 -226.4 124.34 -236.97 131.1 -235.17"/><text x="249" y="-247.8" font-family="Times,serif" font-size="14" text-anchor="middle">वर्तमानसमानकालः</text></g><g id="node11" class="node"><title>Node7_1</title><ellipse cx="380" cy="-34" fill="#87ceeb" stroke="#87ceeb" rx="133.78" ry="18"/><text x="380" y="-30.3" font-family="Times,serif" font-size="14" text-anchor="middle">रघुनन्दनस्य(7.1)</text></g><g id="edge7" class="edge"><title>Node7_1-&gt;Node5_1</title><path fill="none" stroke="#000" d="M326.94,-54.49C300.6,-63.99 268.23,-75.41 239,-85 217.81,-91.95 194.28,-99.14 173.98,-105.19"/><polygon fill="#000" stroke="#000" points="328.15 -57.78 336.36 -51.08 325.77 -51.19 328.15 -57.78"/><text x="375" y="-73.8" font-family="Times,serif" font-size="14" text-anchor="middle">षष्ठीसम्बन्धः</text></g><g id="node12" class="node"><title>Node9_1</title><ellipse cx="1103" cy="-34" fill="#f9f" stroke="#f9f" rx="96.68" ry="18"/><text x="1103" y="-30.3" font-family="Times,serif" font-size="14" text-anchor="middle">ध्रुवम्(9.1)</text></g><g id="node13" class="node"><title>Node12_1</title><ellipse cx="1265" cy="-121" fill="#ff1975" stroke="#ff1975" rx="102.88" ry="18"/><text x="1265" y="-117.3" font-family="Times,serif" font-size="14" text-anchor="middle">ध्रियते(12.1)</text></g><g id="edge9" class="edge"><title>Node9_1-&gt;Node12_1</title><path fill="none" stroke="#000" d="M1120.09,-60.36C1127.19,-69.25 1136.09,-78.6 1146,-85 1161.47,-94.99 1179.88,-102.21 1197.54,-107.39"/><polygon fill="#000" stroke="#000" points="1122.67 -57.98 1113.86 -52.09 1117.08 -62.19 1122.67 -57.98"/><text x="1203.5" y="-73.8" font-family="Times,serif" font-size="14" text-anchor="middle">सम्बन्धः</text></g><g id="node14" class="node"><title>Node10_1</title><ellipse cx="1265" cy="-34" fill="#f9f" stroke="#f9f" rx="47.39" ry="18"/><text x="1265" y="-30.3" font-family="Times,serif" font-size="14" text-anchor="middle">न(10.1)</text></g><g id="edge10" class="edge"><title>Node10_1-&gt;Node12_1</title><path fill="none" stroke="#000" d="M1265,-62.27C1265,-75.58 1265,-91.19 1265,-102.82"/><polygon fill="#000" stroke="#000" points="1268.5 -62.2 1265 -52.2 1261.5 -62.2 1268.5 -62.2"/><text x="1329.5" y="-73.8" font-family="Times,serif" font-size="14" text-anchor="middle">प्रतिषेधः</text></g><g id="node15" class="node"><title>Node11_1</title><ellipse cx="1417" cy="-34" fill="#00bfff" stroke="#00bfff" rx="75.29" ry="18"/><text x="1417" y="-30.3" font-family="Times,serif" font-size="14" text-anchor="middle">सीता(11.1)</text></g><g id="edge11" class="edge"><title>Node11_1-&gt;Node12_1</title><path fill="none" stroke="#000" d="M1410.23,-61.77C1406.9,-70.24 1402.03,-78.96 1395,-85 1381.26,-96.8 1363.92,-104.67 1346.43,-109.9"/><polygon fill="#000" stroke="#000" points="1413.61 -62.71 1413.48 -52.12 1406.98 -60.48 1413.61 -62.71"/><text x="1441" y="-73.8" font-family="Times,serif" font-size="14" text-anchor="middle">कर्ता</text></g><g id="node16" class="node"><title>Node13_1</title><ellipse cx="923" cy="-34" fill="#f9f" stroke="#f9f" rx="65.79" ry="18"/><text x="923" y="-30.3" font-family="Times,serif" font-size="14" text-anchor="middle">यथा(13.1)</text></g><g id="edge12" class="edge"><title>Node13_1-&gt;Node16_1</title><path fill="none" stroke="#000" d="M923,-62.27C923,-75.58 923,-91.19 923,-102.82"/><polygon fill="#000" stroke="#000" points="926.5 -62.2 923 -52.2 919.5 -62.2 926.5 -62.2"/><text x="980.5" y="-73.8" font-family="Times,serif" font-size="14" text-anchor="middle">सम्बन्धः</text></g><g id="node17" class="node"><title>Node14_1</title><ellipse cx="550" cy="-295" fill="#f9f" stroke="#f9f" rx="47.39" ry="18"/><text x="550" y="-291.3" font-family="Times,serif" font-size="14" text-anchor="middle">न(14.1)</text></g><g id="node18" class="node"><title>Node18_1</title><ellipse cx="709" cy="-382" fill="#ff1975" stroke="#ff1975" rx="65.79" ry="18"/><text x="709" y="-378.3" font-family="Times,serif" font-size="14" text-anchor="middle">एति(18.1)</text></g><g id="edge13" class="edge"><title>Node14_1-&gt;Node18_1</title><path fill="none" stroke="#000" d="M558.83,-322.58C562.85,-331.14 568.45,-339.96 576,-346 596.24,-362.17 623.21,-370.93 647.58,-375.64"/><polygon fill="#000" stroke="#000" points="562 -321.08 554.93 -313.18 555.53 -323.76 562 -321.08"/><text x="640.5" y="-334.8" font-family="Times,serif" font-size="14" text-anchor="middle">प्रतिषेधः</text></g><g id="edge16" class="edge"><title>Node17_1-&gt;Node18_1</title><path fill="none" stroke="#000" d="M873.82,-315.53C834.42,-331.19 780.05,-352.78 744.71,-366.81"/><polygon fill="#000" stroke="#000" points="875.5 -318.63 883.5 -311.69 872.91 -312.13 875.5 -318.63"/><text x="858" y="-334.8" font-family="Times,serif" font-size="14" text-anchor="middle">कर्म</text></g><g id="node20" class="node"><title>Node19_1</title><ellipse cx="709" cy="-295" fill="#00bfff" stroke="#00bfff" rx="93.68" ry="18"/><text x="709" y="-291.3" font-family="Times,serif" font-size="14" text-anchor="middle">मैथिली(19.1)</text></g><g id="edge17" class="edge"><title>Node19_1-&gt;Node18_1</title><path fill="none" stroke="#000" d="M709,-323.27C709,-336.58 709,-352.19 709,-363.82"/><polygon fill="#000" stroke="#000" points="712.5 -323.2 709 -313.2 705.5 -323.2 712.5 -323.2"/><text x="745" y="-334.8" font-family="Times,serif" font-size="14" text-anchor="middle">कर्ता</text></g></g></svg>