<svg xmlns="http://www.w3.org/2000/svg" xmlns:xlink="http://www.w3.org/1999/xlink" width="1454pt" height="312" viewBox="0 0 1454 234"><g id="graph0" class="graph" transform="scale(1 1) rotate(0) translate(4 230)"><title>G</title><polygon fill="#fffacd" stroke="transparent" points="-4 4 -4 -230 1450 -230 1450 4 -4 4"/><g id="clust1" class="cluster"><title>cluster_1</title><polygon fill="#fffacd" stroke="#000" points="8 -8 8 -147 200 -147 200 -8 8 -8"/></g><g id="clust2" class="cluster"><title>cluster_2</title><polygon fill="#fffacd" stroke="#000" points="428 -8 428 -147 620 -147 620 -8 428 -8"/></g><g id="node1" class="node"><title>Node3_1</title><ellipse cx="104" cy="-34" fill="#93db70" stroke="#93db70" rx="87.99" ry="18"/><text x="104" y="-30.3" font-family="Times,serif" font-size="14" text-anchor="middle">सर्वम्(3.1)</text></g><g id="node2" class="node"><title>Node2_2</title><ellipse cx="104" cy="-121" fill="#93db70" stroke="#93db70" rx="78.79" ry="18"/><text x="104" y="-117.3" font-family="Times,serif" font-size="14" text-anchor="middle">पुरम्(2.2)</text></g><g id="edge3" class="edge"><title>Node3_1-&gt;Node2_2</title><path fill="none" stroke="#000" d="M104,-62.27C104,-75.58 104,-91.19 104,-102.82"/><polygon fill="#000" stroke="#000" points="107.5 -62.2 104 -52.2 100.5 -62.2 107.5 -62.2"/><text x="161.5" y="-73.8" font-family="Times,serif" font-size="14" text-anchor="middle">विशेषणम्</text></g><g id="node6" class="node"><title>Node1_1</title><ellipse cx="104" cy="-208" fill="#93db70" stroke="#93db70" rx="96.68" ry="18"/><text x="104" y="-204.3" font-family="Times,serif" font-size="14" text-anchor="middle">दृष्टम्(1.1)</text></g><g id="edge2" class="edge"><title>Node2_2-&gt;Node1_1</title><path fill="none" stroke="#000" d="M104,-149.27C104,-162.58 104,-178.19 104,-189.82"/><polygon fill="#000" stroke="#000" points="107.5 -149.2 104 -139.2 100.5 -149.2 107.5 -149.2"/><text x="133" y="-160.8" font-family="Times,serif" font-size="14" text-anchor="middle">कर्म</text></g><g id="node3" class="node"><title>Node9_1</title><ellipse cx="524" cy="-34" fill="#00bfff" stroke="#00bfff" rx="87.99" ry="18"/><text x="524" y="-30.3" font-family="Times,serif" font-size="14" text-anchor="middle">साध्वी(9.1)</text></g><g id="node4" class="node"><title>Node7_1</title><ellipse cx="524" cy="-121" fill="#00bfff" stroke="#00bfff" rx="69.59" ry="18"/><text x="524" y="-117.3" font-family="Times,serif" font-size="14" text-anchor="middle">सीता(7.1)</text></g><g id="edge8" class="edge"><title>Node9_1-&gt;Node7_1</title><path fill="none" stroke="#000" d="M524,-62.27C524,-75.58 524,-91.19 524,-102.82"/><polygon fill="#000" stroke="#000" points="527.5 -62.2 524 -52.2 520.5 -62.2 527.5 -62.2"/><text x="581.5" y="-73.8" font-family="Times,serif" font-size="14" text-anchor="middle">विशेषणम्</text></g><g id="node11" class="node"><title>Node8_1</title><ellipse cx="582" cy="-208" fill="#ff1975" stroke="#ff1975" rx="96.68" ry="18"/><text x="582" y="-204.3" font-family="Times,serif" font-size="14" text-anchor="middle">दृश्यते(8.1)</text></g><g id="edge7" class="edge"><title>Node7_1-&gt;Node8_1</title><path fill="none" stroke="#000" d="M541.29,-147.34C550.68,-161.1 562.04,-177.74 570.37,-189.95"/><polygon fill="#000" stroke="#000" points="543.99 -145.08 535.46 -138.79 538.2 -149.03 543.99 -145.08"/><text x="586" y="-160.8" font-family="Times,serif" font-size="14" text-anchor="middle">कर्म</text></g><g id="node5" class="node"><title>Node2_1</title><ellipse cx="291" cy="-34" fill="#ff0" stroke="#ff0" rx="81.49" ry="18"/><text x="291" y="-30.3" font-family="Times,serif" font-size="14" text-anchor="middle">अन्तः-(2.1)</text></g><g id="edge1" class="edge"><title>Node2_1-&gt;Node2_2</title><path fill="none" stroke="#000" d="M264.39,-57.92C252.38,-67.36 237.62,-77.76 223,-85 203.03,-94.9 179.75,-102.51 159.11,-108.07"/><polygon fill="#000" stroke="#000" points="266.66 -60.59 272.24 -51.59 262.26 -55.15 266.66 -60.59"/><text x="311.5" y="-73.8" font-family="Times,serif" font-size="14" text-anchor="middle">कर्मधारयः</text></g><g id="node7" class="node"><title>Node5_1</title><ellipse cx="852" cy="-34" fill="#ff0" stroke="#ff0" rx="72.29" ry="18"/><text x="852" y="-30.3" font-family="Times,serif" font-size="14" text-anchor="middle">रावण-(5.1)</text></g><g id="node8" class="node"><title>Node5_2</title><ellipse cx="852" cy="-121" fill="#93db70" stroke="#93db70" rx="87.99" ry="18"/><text x="852" y="-117.3" font-family="Times,serif" font-size="14" text-anchor="middle">योषितः(5.2)</text></g><g id="edge4" class="edge"><title>Node5_1-&gt;Node5_2</title><path fill="none" stroke="#000" d="M852,-62.27C852,-75.58 852,-91.19 852,-102.82"/><polygon fill="#000" stroke="#000" points="855.5 -62.2 852 -52.2 848.5 -62.2 855.5 -62.2"/><text x="955.5" y="-73.8" font-family="Times,serif" font-size="14" text-anchor="middle">षष्ठी_तत्पुरुषः</text></g><g id="node9" class="node"><title>Node4_1</title><ellipse cx="852" cy="-208" fill="#00bfff" stroke="#00bfff" rx="96.68" ry="18"/><text x="852" y="-204.3" font-family="Times,serif" font-size="14" text-anchor="middle">दृष्टाः(4.1)</text></g><g id="edge5" class="edge"><title>Node5_2-&gt;Node4_1</title><path fill="none" stroke="#000" d="M852,-149.27C852,-162.58 852,-178.19 852,-189.82"/><polygon fill="#000" stroke="#000" points="855.5 -149.2 852 -139.2 848.5 -149.2 855.5 -149.2"/><text x="881" y="-160.8" font-family="Times,serif" font-size="14" text-anchor="middle">कर्म</text></g><g id="node10" class="node"><title>Node6_1</title><ellipse cx="670" cy="-121" fill="#f9f" stroke="#f9f" rx="41.69" ry="18"/><text x="670" y="-117.3" font-family="Times,serif" font-size="14" text-anchor="middle">न(6.1)</text></g><g id="edge6" class="edge"><title>Node6_1-&gt;Node8_1</title><path fill="none" stroke="#000" d="M646.75,-144.96C638.08,-153.49 628.12,-163.22 619,-172 612.89,-177.89 606.15,-184.28 600.13,-189.97"/><polygon fill="#000" stroke="#000" points="649.32 -147.35 653.99 -137.84 644.41 -142.36 649.32 -147.35"/><text x="698.5" y="-160.8" font-family="Times,serif" font-size="14" text-anchor="middle">प्रतिषेधः</text></g><g id="node12" class="node"><title>Node10_1</title><ellipse cx="1037" cy="-121" fill="#f9f" stroke="#f9f" rx="75.29" ry="18"/><text x="1037" y="-117.3" font-family="Times,serif" font-size="14" text-anchor="middle">वृथा(10.1)</text></g><g id="node13" class="node"><title>Node11_1</title><ellipse cx="1151" cy="-208" fill="#00bfff" stroke="#00bfff" rx="75.29" ry="18"/><text x="1151" y="-204.3" font-family="Times,serif" font-size="14" text-anchor="middle">जातः(11.1)</text></g><g id="edge9" class="edge"><title>Node10_1-&gt;Node11_1</title><path fill="none" stroke="#000" d="M1029,-149.43C1028.27,-157.36 1029.23,-165.6 1034,-172 1045.27,-187.13 1062.84,-195.98 1080.98,-201.07"/><polygon fill="#000" stroke="#000" points="1032.48 -149.8 1030.74 -139.35 1025.59 -148.6 1032.48 -149.8"/><text x="1134" y="-160.8" font-family="Times,serif" font-size="14" text-anchor="middle">क्रियाविशेषणम्</text></g><g id="node14" class="node"><title>Node12_1</title><ellipse cx="1260" cy="-34" fill="#87ceeb" stroke="#87ceeb" rx="56.59" ry="18"/><text x="1260" y="-30.3" font-family="Times,serif" font-size="14" text-anchor="middle">मम(12.1)</text></g><g id="node15" class="node"><title>Node13_1</title><ellipse cx="1260" cy="-121" fill="#00bfff" stroke="#00bfff" rx="84.49" ry="18"/><text x="1260" y="-117.3" font-family="Times,serif" font-size="14" text-anchor="middle">श्रमः(13.1)</text></g><g id="edge10" class="edge"><title>Node12_1-&gt;Node13_1</title><path fill="none" stroke="#000" d="M1260,-62.27C1260,-75.58 1260,-91.19 1260,-102.82"/><polygon fill="#000" stroke="#000" points="1263.5 -62.2 1260 -52.2 1256.5 -62.2 1263.5 -62.2"/><text x="1353" y="-73.8" font-family="Times,serif" font-size="14" text-anchor="middle">षष्ठीसम्बन्धः</text></g><g id="edge11" class="edge"><title>Node13_1-&gt;Node11_1</title><path fill="none" stroke="#000" d="M1252.66,-148.68C1249.3,-157 1244.56,-165.65 1238,-172 1227.71,-181.97 1214.21,-189.22 1200.93,-194.44"/><polygon fill="#000" stroke="#000" points="1255.97 -149.81 1255.99 -139.22 1249.37 -147.49 1255.97 -149.81"/><text x="1284" y="-160.8" font-family="Times,serif" font-size="14" text-anchor="middle">कर्ता</text></g></g></svg>