<svg xmlns="http://www.w3.org/2000/svg" xmlns:xlink="http://www.w3.org/1999/xlink" width="1369pt" height="479pt" viewBox="0 0 1368.99 479"><g id="graph0" class="graph" transform="scale(1 1) rotate(0) translate(4 475)"><title>G</title><polygon fill="#fffacd" stroke="transparent" points="-4 4 -4 -475 1364.99 -475 1364.99 4 -4 4"/><g id="clust1" class="cluster"><title>cluster_1</title><polygon fill="#fffacd" stroke="#000" points="547.14 -166 547.14 -305 988.14 -305 988.14 -166 547.14 -166"/></g><g id="node1" class="node"><title>Node1_1</title><ellipse cx="873.14" cy="-192" fill="#93db70" stroke="#93db70" rx="106.68" ry="18"/><text x="873.14" y="-188.3" font-family="Times,serif" font-size="14" text-anchor="middle">उद्योगम्(1.1)</text></g><g id="node2" class="node"><title>Node6_1</title><ellipse cx="672.14" cy="-279" fill="#93db70" stroke="#93db70" rx="106.68" ry="18"/><text x="672.14" y="-275.3" font-family="Times,serif" font-size="14" text-anchor="middle">व्यर्थम्(6.1)</text></g><g id="edge1" class="edge"><title>Node1_1-&gt;Node6_1</title><path fill="none" stroke="#000" d="M842.74,-215.78C829.04,-225.22 812.34,-235.66 796.14,-243 776.69,-251.82 754.49,-258.93 734.31,-264.38"/><polygon fill="#000" stroke="#000" points="845.11 -218.39 851.26 -209.76 841.07 -212.67 845.11 -218.39"/><text x="886.64" y="-231.8" font-family="Times,serif" font-size="14" text-anchor="middle">समुच्चितः</text></g><g id="node8" class="node"><title>Node7_1</title><ellipse cx="672.14" cy="-366" fill="#f9f" stroke="#f9f" rx="96.68" ry="18"/><text x="672.14" y="-362.3" font-family="Times,serif" font-size="14" text-anchor="middle">वीक्ष्य(7.1)</text></g><g id="edge7" class="edge"><title>Node6_1-&gt;Node7_1</title><path fill="none" stroke="#000" d="M672.14,-307.27C672.14,-320.58 672.14,-336.19 672.14,-347.82"/><polygon fill="#000" stroke="#000" points="675.64 -307.2 672.14 -297.2 668.64 -307.2 675.64 -307.2"/><text x="701.14" y="-318.8" font-family="Times,serif" font-size="14" text-anchor="middle">कर्म</text></g><g id="node3" class="node"><title>Node3_1</title><ellipse cx="652.14" cy="-192" fill="#93db70" stroke="#93db70" rx="96.68" ry="18"/><text x="652.14" y="-188.3" font-family="Times,serif" font-size="14" text-anchor="middle">प्लवनम्(3.1)</text></g><g id="edge4" class="edge"><title>Node3_1-&gt;Node6_1</title><path fill="none" stroke="#000" d="M658.56,-220.27C661.69,-233.58 665.37,-249.19 668.1,-260.82"/><polygon fill="#000" stroke="#000" points="661.89 -219.13 656.19 -210.2 655.07 -220.74 661.89 -219.13"/><text x="727.64" y="-231.8" font-family="Times,serif" font-size="14" text-anchor="middle">समुच्चितः</text></g><g id="node4" class="node"><title>Node2_1</title><ellipse cx="873.14" cy="-18" fill="#ff0" stroke="#ff0" rx="72.29" ry="18"/><text x="873.14" y="-14.3" font-family="Times,serif" font-size="14" text-anchor="middle">वानर-(2.1)</text></g><g id="node5" class="node"><title>Node2_2</title><ellipse cx="873.14" cy="-105" fill="#87ceeb" stroke="#87ceeb" rx="133.78" ry="18"/><text x="873.14" y="-101.3" font-family="Times,serif" font-size="14" text-anchor="middle">इन्द्राणाम्(2.2)</text></g><g id="edge2" class="edge"><title>Node2_1-&gt;Node2_2</title><path fill="none" stroke="#000" d="M873.14,-46.27C873.14,-59.58 873.14,-75.19 873.14,-86.82"/><polygon fill="#000" stroke="#000" points="876.64 -46.2 873.14 -36.2 869.64 -46.2 876.64 -46.2"/><text x="976.64" y="-57.8" font-family="Times,serif" font-size="14" text-anchor="middle">षष्ठी_तत्पुरुषः</text></g><g id="edge3" class="edge"><title>Node2_2-&gt;Node1_1</title><path fill="none" stroke="#000" d="M873.14,-133.27C873.14,-146.58 873.14,-162.19 873.14,-173.82"/><polygon fill="#000" stroke="#000" points="876.64 -133.2 873.14 -123.2 869.64 -133.2 876.64 -133.2"/><text x="966.14" y="-144.8" font-family="Times,serif" font-size="14" text-anchor="middle">षष्ठीसम्बन्धः</text></g><g id="node6" class="node"><title>Node4_1</title><ellipse cx="1060.14" cy="-18" fill="#87ceeb" stroke="#87ceeb" rx="96.68" ry="18"/><text x="1060.14" y="-14.3" font-family="Times,serif" font-size="14" text-anchor="middle">सागरस्य(4.1)</text></g><g id="edge5" class="edge"><title>Node4_1-&gt;Node4_1</title><path fill="none" stroke="#000" d="M1158.77,-11.55C1168.67,-12.84 1174.99,-14.99 1174.99,-18 1174.99,-21.94 1164.22,-24.4 1148.74,-25.38"/><polygon fill="#000" stroke="#000" points="1159.02 -8.06 1148.74 -10.62 1158.37 -15.03 1159.02 -8.06"/><text x="1267.99" y="-14.3" font-family="Times,serif" font-size="14" text-anchor="middle">षष्ठीसम्बन्धः</text></g><g id="node7" class="node"><title>Node5_1</title><ellipse cx="442.14" cy="-192" fill="#f9f" stroke="#f9f" rx="41.69" ry="18"/><text x="442.14" y="-188.3" font-family="Times,serif" font-size="14" text-anchor="middle">च(5.1)</text></g><g id="edge6" class="edge"><title>Node5_1-&gt;Node6_1</title><path fill="none" stroke="#000" d="M440.02,-220.25C440.8,-228.54 443.27,-237.02 449.14,-243 466.32,-260.46 519.89,-269.22 570.22,-273.6"/><polygon fill="#000" stroke="#000" points="443.52 -219.98 439.81 -210.06 436.52 -220.13 443.52 -219.98"/><text x="552.64" y="-231.8" font-family="Times,serif" font-size="14" text-anchor="middle">समुच्चय_द्योतकः</text></g><g id="node9" class="node"><title>Node11_1</title><ellipse cx="349.14" cy="-453" fill="#00bfff" stroke="#00bfff" rx="93.68" ry="18"/><text x="349.14" y="-449.3" font-family="Times,serif" font-size="14" text-anchor="middle">उपागतः(11.1)</text></g><g id="edge8" class="edge"><title>Node7_1-&gt;Node11_1</title><path fill="none" stroke="#000" d="M651.81,-391.99C642.81,-401.37 631.47,-411.16 619.14,-417 587.64,-431.93 502.81,-441.27 436.56,-446.51"/><polygon fill="#000" stroke="#000" points="654.66 -394.07 658.8 -384.31 649.48 -389.36 654.66 -394.07"/><text x="704.64" y="-405.8" font-family="Times,serif" font-size="14" text-anchor="middle">पूर्वकालः</text></g><g id="node10" class="node"><title>Node8_1</title><ellipse cx="72.14" cy="-279" fill="#ff0" stroke="#ff0" rx="72.29" ry="18"/><text x="72.14" y="-275.3" font-family="Times,serif" font-size="14" text-anchor="middle">अनिल-(8.1)</text></g><g id="node11" class="node"><title>Node8_2</title><ellipse cx="72.14" cy="-366" fill="#00bfff" stroke="#00bfff" rx="69.59" ry="18"/><text x="72.14" y="-362.3" font-family="Times,serif" font-size="14" text-anchor="middle">सुतः(8.2)</text></g><g id="edge9" class="edge"><title>Node8_1-&gt;Node8_2</title><path fill="none" stroke="#000" d="M72.14,-307.27C72.14,-320.58 72.14,-336.19 72.14,-347.82"/><polygon fill="#000" stroke="#000" points="75.64 -307.2 72.14 -297.2 68.64 -307.2 75.64 -307.2"/><text x="175.64" y="-318.8" font-family="Times,serif" font-size="14" text-anchor="middle">षष्ठी_तत्पुरुषः</text></g><g id="edge10" class="edge"><title>Node8_2-&gt;Node11_1</title><path fill="none" stroke="#000" d="M123.03,-383.88C153.21,-393.77 192.27,-406.38 227.14,-417 250.44,-424.1 276.35,-431.59 298.28,-437.81"/><polygon fill="#000" stroke="#000" points="123.74 -380.43 113.15 -380.63 121.56 -387.08 123.74 -380.43"/><text x="263.14" y="-405.8" font-family="Times,serif" font-size="14" text-anchor="middle">कर्ता</text></g><g id="node12" class="node"><title>Node9_1</title><ellipse cx="266.14" cy="-366" fill="#93db70" stroke="#93db70" rx="106.68" ry="18"/><text x="266.14" y="-362.3" font-family="Times,serif" font-size="14" text-anchor="middle">चिन्ताम्(9.1)</text></g><g id="edge11" class="edge"><title>Node9_1-&gt;Node11_1</title><path fill="none" stroke="#000" d="M289.8,-391.22C303.54,-405.3 320.51,-422.68 332.78,-435.24"/><polygon fill="#000" stroke="#000" points="292.03 -388.5 282.54 -383.79 287.02 -393.39 292.03 -388.5"/><text x="342.14" y="-405.8" font-family="Times,serif" font-size="14" text-anchor="middle">कर्म</text></g><g id="node13" class="node"><title>Node10_1</title><ellipse cx="466.14" cy="-366" fill="#f9f" stroke="#f9f" rx="75.29" ry="18"/><text x="466.14" y="-362.3" font-family="Times,serif" font-size="14" text-anchor="middle">पुनः(10.1)</text></g><g id="edge12" class="edge"><title>Node10_1-&gt;Node11_1</title><path fill="none" stroke="#000" d="M435.45,-389.3C415.58,-403.73 390.13,-422.22 372.03,-435.37"/><polygon fill="#000" stroke="#000" points="437.55 -392.1 443.58 -383.39 433.44 -386.43 437.55 -392.1"/><text x="515.14" y="-405.8" font-family="Times,serif" font-size="14" text-anchor="middle">क्रियाविशेषणम्</text></g></g></svg>