<?xml version="1.0" encoding="UTF-8" standalone="no"?>
<!DOCTYPE svg PUBLIC "-//W3C//DTD SVG 1.1//EN"
 "http://www.w3.org/Graphics/SVG/1.1/DTD/svg11.dtd">
<!-- Generated by graphviz version 2.43.0 (0)
 -->
<!-- Title: G Pages: 1 -->
<svg width="1371pt" height="479pt"
 viewBox="0.00 0.00 1371.00 479.00" xmlns="http://www.w3.org/2000/svg" xmlns:xlink="http://www.w3.org/1999/xlink">
<g id="graph0" class="graph" transform="scale(1 1) rotate(0) translate(4 475)">
<title>G</title>
<polygon fill="#fffacd" stroke="transparent" points="-4,4 -4,-475 1367,-475 1367,4 -4,4"/>
<g id="clust1" class="cluster">
<title>cluster_1</title>
<polygon fill="#fffacd" stroke="black" points="876,-253 876,-392 1243,-392 1243,-253 876,-253"/>
</g>
<g id="clust2" class="cluster">
<title>cluster_2</title>
<polygon fill="#fffacd" stroke="black" points="8,-253 8,-392 212,-392 212,-253 8,-253"/>
</g>
<!-- Node2_2 -->
<g id="node1" class="node">
<title>Node2_2</title>
<ellipse fill="#00bfff" stroke="#00bfff" cx="972" cy="-279" rx="87.99" ry="18"/>
<text text-anchor="middle" x="972" y="-275.3" font-family="Times,serif" font-size="14.00">आरोहाः(2.2)</text>
</g>
<!-- Node1_2 -->
<g id="node2" class="node">
<title>Node1_2</title>
<ellipse fill="#00bfff" stroke="#00bfff" cx="972" cy="-366" rx="87.99" ry="18"/>
<text text-anchor="middle" x="972" y="-362.3" font-family="Times,serif" font-size="14.00">कन्याः(1.2)</text>
</g>
<!-- Node2_2&#45;&gt;Node1_2 -->
<g id="edge4" class="edge">
<title>Node2_2&#45;&gt;Node1_2</title>
<path fill="none" stroke="black" d="M972,-307.27C972,-320.58 972,-336.19 972,-347.82"/>
<polygon fill="black" stroke="black" points="975.5,-307.2 972,-297.2 968.5,-307.2 975.5,-307.2"/>
<text text-anchor="middle" x="1029.5" y="-318.8" font-family="Times,serif" font-size="14.00">विशेषणम्</text>
</g>
<!-- Node4_1 -->
<g id="node7" class="node">
<title>Node4_1</title>
<ellipse fill="#00bfff" stroke="#00bfff" cx="920" cy="-453" rx="96.68" ry="18"/>
<text text-anchor="middle" x="920" y="-449.3" font-family="Times,serif" font-size="14.00">दृष्टाः(4.1)</text>
</g>
<!-- Node1_2&#45;&gt;Node4_1 -->
<g id="edge2" class="edge">
<title>Node1_2&#45;&gt;Node4_1</title>
<path fill="none" stroke="black" d="M960.08,-393.21C956.21,-401.04 951.69,-409.52 947,-417 943.17,-423.11 938.51,-429.45 934.15,-435.03"/>
<polygon fill="black" stroke="black" points="963.28,-394.64 964.45,-384.11 956.97,-391.61 963.28,-394.64"/>
<text text-anchor="middle" x="985" y="-405.8" font-family="Times,serif" font-size="14.00">कर्म</text>
</g>
<!-- Node3_4 -->
<g id="node3" class="node">
<title>Node3_4</title>
<ellipse fill="#00bfff" stroke="#00bfff" cx="1156" cy="-279" rx="78.79" ry="18"/>
<text text-anchor="middle" x="1156" y="-275.3" font-family="Times,serif" font-size="14.00">आननाः(3.4)</text>
</g>
<!-- Node3_4&#45;&gt;Node1_2 -->
<g id="edge8" class="edge">
<title>Node3_4&#45;&gt;Node1_2</title>
<path fill="none" stroke="black" d="M1130.38,-303.24C1118.98,-312.62 1104.99,-322.88 1091,-330 1072.1,-339.62 1050.12,-347.02 1030.24,-352.48"/>
<polygon fill="black" stroke="black" points="1132.82,-305.77 1138.19,-296.63 1128.3,-300.42 1132.82,-305.77"/>
<text text-anchor="middle" x="1170.5" y="-318.8" font-family="Times,serif" font-size="14.00">विशेषणम्</text>
</g>
<!-- Node9_1 -->
<g id="node4" class="node">
<title>Node9_1</title>
<ellipse fill="#00bfff" stroke="#00bfff" cx="89" cy="-279" rx="50.89" ry="18"/>
<text text-anchor="middle" x="89" y="-275.3" font-family="Times,serif" font-size="14.00">सा(9.1)</text>
</g>
<!-- Node10_2 -->
<g id="node5" class="node">
<title>Node10_2</title>
<ellipse fill="#00bfff" stroke="#00bfff" cx="110" cy="-366" rx="93.68" ry="18"/>
<text text-anchor="middle" x="110" y="-362.3" font-family="Times,serif" font-size="14.00">आत्मजा(10.2)</text>
</g>
<!-- Node9_1&#45;&gt;Node10_2 -->
<g id="edge14" class="edge">
<title>Node9_1&#45;&gt;Node10_2</title>
<path fill="none" stroke="black" d="M95.74,-307.27C99.03,-320.58 102.88,-336.19 105.76,-347.82"/>
<polygon fill="black" stroke="black" points="99.05,-306.07 93.25,-297.2 92.25,-307.75 99.05,-306.07"/>
<text text-anchor="middle" x="158.5" y="-318.8" font-family="Times,serif" font-size="14.00">विशेषणम्</text>
</g>
<!-- Node11_1 -->
<g id="node13" class="node">
<title>Node11_1</title>
<ellipse fill="#00bfff" stroke="#00bfff" cx="471" cy="-453" rx="100.98" ry="18"/>
<text text-anchor="middle" x="471" y="-449.3" font-family="Times,serif" font-size="14.00">(दृष्टा)(11.1)</text>
</g>
<!-- Node10_2&#45;&gt;Node11_1 -->
<g id="edge16" class="edge">
<title>Node10_2&#45;&gt;Node11_1</title>
<path fill="none" stroke="black" d="M153.66,-386.86C178.03,-397.23 209.21,-409.32 238,-417 285.72,-429.73 340.26,-438.24 384.57,-443.68"/>
<polygon fill="black" stroke="black" points="154.91,-383.58 144.34,-382.84 152.13,-390.01 154.91,-383.58"/>
<text text-anchor="middle" x="267" y="-405.8" font-family="Times,serif" font-size="14.00">कर्म</text>
</g>
<!-- Node1_1 -->
<g id="node6" class="node">
<title>Node1_1</title>
<ellipse fill="#ffff00" stroke="#ffff00" cx="742" cy="-279" rx="63.09" ry="18"/>
<text text-anchor="middle" x="742" y="-275.3" font-family="Times,serif" font-size="14.00">नाग&#45;(1.1)</text>
</g>
<!-- Node1_1&#45;&gt;Node1_2 -->
<g id="edge1" class="edge">
<title>Node1_1&#45;&gt;Node1_2</title>
<path fill="none" stroke="black" d="M746.72,-307.14C749.51,-315.64 753.95,-324.28 761,-330 781.09,-346.29 850.49,-343.74 876,-348 886.52,-349.75 897.67,-351.67 908.51,-353.57"/>
<polygon fill="black" stroke="black" points="750.09,-306.18 744.14,-297.42 743.32,-307.98 750.09,-306.18"/>
<text text-anchor="middle" x="864.5" y="-318.8" font-family="Times,serif" font-size="14.00">षष्ठी_तत्पुरुषः</text>
</g>
<!-- Node2_1 -->
<g id="node8" class="node">
<title>Node2_1</title>
<ellipse fill="#ffff00" stroke="#ffff00" cx="972" cy="-192" rx="53.89" ry="18"/>
<text text-anchor="middle" x="972" y="-188.3" font-family="Times,serif" font-size="14.00">वर&#45;(2.1)</text>
</g>
<!-- Node2_1&#45;&gt;Node2_2 -->
<g id="edge3" class="edge">
<title>Node2_1&#45;&gt;Node2_2</title>
<path fill="none" stroke="black" d="M972,-220.27C972,-233.58 972,-249.19 972,-260.82"/>
<polygon fill="black" stroke="black" points="975.5,-220.2 972,-210.2 968.5,-220.2 975.5,-220.2"/>
<text text-anchor="middle" x="1036.5" y="-231.8" font-family="Times,serif" font-size="14.00">कर्मधारयः</text>
</g>
<!-- Node3_1 -->
<g id="node9" class="node">
<title>Node3_1</title>
<ellipse fill="#ffff00" stroke="#ffff00" cx="1156" cy="-18" rx="81.49" ry="18"/>
<text text-anchor="middle" x="1156" y="-14.3" font-family="Times,serif" font-size="14.00">पूर्ण&#45;(3.1)</text>
</g>
<!-- Node3_2 -->
<g id="node10" class="node">
<title>Node3_2</title>
<ellipse fill="#ffff00" stroke="#ffff00" cx="1156" cy="-105" rx="90.98" ry="18"/>
<text text-anchor="middle" x="1156" y="-101.3" font-family="Times,serif" font-size="14.00">चन्द्र&#45;(3.2)</text>
</g>
<!-- Node3_1&#45;&gt;Node3_2 -->
<g id="edge5" class="edge">
<title>Node3_1&#45;&gt;Node3_2</title>
<path fill="none" stroke="black" d="M1156,-46.27C1156,-59.58 1156,-75.19 1156,-86.82"/>
<polygon fill="black" stroke="black" points="1159.5,-46.2 1156,-36.2 1152.5,-46.2 1159.5,-46.2"/>
<text text-anchor="middle" x="1220.5" y="-57.8" font-family="Times,serif" font-size="14.00">कर्मधारयः</text>
</g>
<!-- Node3_3 -->
<g id="node11" class="node">
<title>Node3_3</title>
<ellipse fill="#ffff00" stroke="#ffff00" cx="1156" cy="-192" rx="63.09" ry="18"/>
<text text-anchor="middle" x="1156" y="-188.3" font-family="Times,serif" font-size="14.00">निभ&#45;(3.3)</text>
</g>
<!-- Node3_2&#45;&gt;Node3_3 -->
<g id="edge6" class="edge">
<title>Node3_2&#45;&gt;Node3_3</title>
<path fill="none" stroke="black" d="M1156,-133.27C1156,-146.58 1156,-162.19 1156,-173.82"/>
<polygon fill="black" stroke="black" points="1159.5,-133.2 1156,-123.2 1152.5,-133.2 1159.5,-133.2"/>
<text text-anchor="middle" x="1259.5" y="-144.8" font-family="Times,serif" font-size="14.00">षष्ठी_तत्पुरुषः</text>
</g>
<!-- Node3_3&#45;&gt;Node3_4 -->
<g id="edge7" class="edge">
<title>Node3_3&#45;&gt;Node3_4</title>
<path fill="none" stroke="black" d="M1156,-220.27C1156,-233.58 1156,-249.19 1156,-260.82"/>
<polygon fill="black" stroke="black" points="1159.5,-220.2 1156,-210.2 1152.5,-220.2 1159.5,-220.2"/>
<text text-anchor="middle" x="1227.5" y="-231.8" font-family="Times,serif" font-size="14.00">बहुव्रीहिः</text>
</g>
<!-- Node5_1 -->
<g id="node12" class="node">
<title>Node5_1</title>
<ellipse fill="#40e0d0" stroke="#40e0d0" cx="779" cy="-366" rx="87.99" ry="18"/>
<text text-anchor="middle" x="779" y="-362.3" font-family="Times,serif" font-size="14.00">हनुमता(5.1)</text>
</g>
<!-- Node5_1&#45;&gt;Node4_1 -->
<g id="edge9" class="edge">
<title>Node5_1&#45;&gt;Node4_1</title>
<path fill="none" stroke="black" d="M819.98,-387.47C828.67,-392.07 837.72,-397.06 846,-402 863.44,-412.4 882.41,-425.25 896.78,-435.32"/>
<polygon fill="black" stroke="black" points="821.58,-384.36 811.1,-382.84 818.34,-390.57 821.58,-384.36"/>
<text text-anchor="middle" x="905" y="-405.8" font-family="Times,serif" font-size="14.00">कर्ता</text>
</g>
<!-- Node5_1&#45;&gt;Node11_1 -->
<g id="edge10" class="edge">
<title>Node5_1&#45;&gt;Node11_1</title>
<path fill="none" stroke="black" stroke-dasharray="1,5" d="M760.75,-392.24C752.7,-401.53 742.45,-411.19 731,-417 702.37,-431.54 626.4,-440.68 563.93,-445.96"/>
<polygon fill="black" stroke="black" points="763.64,-394.25 767.24,-384.28 758.21,-389.82 763.64,-394.25"/>
<text text-anchor="middle" x="787" y="-405.8" font-family="Times,serif" font-size="14.00">कर्ता</text>
</g>
<!-- Node6_1 -->
<g id="node14" class="node">
<title>Node6_1</title>
<ellipse fill="#ff99ff" stroke="#ff99ff" cx="291" cy="-366" rx="69.59" ry="18"/>
<text text-anchor="middle" x="291" y="-362.3" font-family="Times,serif" font-size="14.00">तत्र(6.1)</text>
</g>
<!-- Node6_1&#45;&gt;Node11_1 -->
<g id="edge11" class="edge">
<title>Node6_1&#45;&gt;Node11_1</title>
<path fill="none" stroke="black" d="M295.92,-393.91C298.73,-402.39 303.12,-411.08 310,-417 322.68,-427.92 357.4,-436.17 391.36,-441.91"/>
<polygon fill="black" stroke="black" points="299.29,-392.97 293.3,-384.23 292.53,-394.79 299.29,-392.97"/>
<text text-anchor="middle" x="388.5" y="-405.8" font-family="Times,serif" font-size="14.00">देशाधिकरणम्</text>
</g>
<!-- Node7_1 -->
<g id="node15" class="node">
<title>Node7_1</title>
<ellipse fill="#ff99ff" stroke="#ff99ff" cx="471" cy="-366" rx="41.69" ry="18"/>
<text text-anchor="middle" x="471" y="-362.3" font-family="Times,serif" font-size="14.00">न(7.1)</text>
</g>
<!-- Node7_1&#45;&gt;Node11_1 -->
<g id="edge12" class="edge">
<title>Node7_1&#45;&gt;Node11_1</title>
<path fill="none" stroke="black" d="M471,-394.27C471,-407.58 471,-423.19 471,-434.82"/>
<polygon fill="black" stroke="black" points="474.5,-394.2 471,-384.2 467.5,-394.2 474.5,-394.2"/>
<text text-anchor="middle" x="535.5" y="-405.8" font-family="Times,serif" font-size="14.00">प्रतिषेधः</text>
</g>
<!-- Node8_1 -->
<g id="node16" class="node">
<title>Node8_1</title>
<ellipse fill="#ff99ff" stroke="#ff99ff" cx="623" cy="-366" rx="50.89" ry="18"/>
<text text-anchor="middle" x="623" y="-362.3" font-family="Times,serif" font-size="14.00">तु(8.1)</text>
</g>
<!-- Node8_1&#45;&gt;Node11_1 -->
<g id="edge13" class="edge">
<title>Node8_1&#45;&gt;Node11_1</title>
<path fill="none" stroke="black" d="M616.23,-393.77C612.9,-402.24 608.03,-410.96 601,-417 587.08,-428.95 569.48,-436.87 551.75,-442.1"/>
<polygon fill="black" stroke="black" points="619.61,-394.71 619.48,-384.12 612.98,-392.48 619.61,-394.71"/>
<text text-anchor="middle" x="669.5" y="-405.8" font-family="Times,serif" font-size="14.00">सम्बन्धः</text>
</g>
<!-- Node10_1 -->
<g id="node17" class="node">
<title>Node10_1</title>
<ellipse fill="#ffff00" stroke="#ffff00" cx="289" cy="-279" rx="68.79" ry="18"/>
<text text-anchor="middle" x="289" y="-275.3" font-family="Times,serif" font-size="14.00">जनक&#45;(10.1)</text>
</g>
<!-- Node10_1&#45;&gt;Node10_2 -->
<g id="edge15" class="edge">
<title>Node10_1&#45;&gt;Node10_2</title>
<path fill="none" stroke="black" d="M261.88,-302.75C249.66,-312.16 234.7,-322.58 220,-330 202.74,-338.72 182.86,-345.83 164.79,-351.32"/>
<polygon fill="black" stroke="black" points="264.18,-305.39 269.86,-296.45 259.84,-299.9 264.18,-305.39"/>
<text text-anchor="middle" x="348.5" y="-318.8" font-family="Times,serif" font-size="14.00">षष्ठी_तत्पुरुषः</text>
</g>
</g>
</svg>
