<?xml version="1.0" encoding="UTF-8" standalone="no"?>
<!DOCTYPE svg PUBLIC "-//W3C//DTD SVG 1.1//EN"
 "http://www.w3.org/Graphics/SVG/1.1/DTD/svg11.dtd">
<!-- Generated by graphviz version 2.43.0 (0)
 -->
<!-- Title: G Pages: 1 -->
<svg width="1176pt" height="408pt"
 viewBox="0.00 0.00 1175.54 408.00" xmlns="http://www.w3.org/2000/svg" xmlns:xlink="http://www.w3.org/1999/xlink">
<g id="graph0" class="graph" transform="scale(1 1) rotate(0) translate(4 404)">
<title>G</title>
<polygon fill="#fffacd" stroke="transparent" points="-4,4 -4,-404 1171.54,-404 1171.54,4 -4,4"/>
<g id="clust1" class="cluster">
<title>cluster_1</title>
<polygon fill="#fffacd" stroke="black" points="419.54,-182 419.54,-321 1159.54,-321 1159.54,-182 419.54,-182"/>
</g>
<g id="clust2" class="cluster">
<title>cluster_2</title>
<polygon fill="#fffacd" stroke="black" points="24.54,-8 24.54,-147 254.54,-147 254.54,-8 24.54,-8"/>
</g>
<!-- Node1_1 -->
<g id="node1" class="node">
<title>Node1_1</title>
<ellipse fill="#00bfff" stroke="#00bfff" cx="1100.54" cy="-208" rx="50.89" ry="18"/>
<text text-anchor="middle" x="1100.54" y="-204.3" font-family="Times,serif" font-size="14.00">सः(1.1)</text>
</g>
<!-- Node11_1 -->
<g id="node2" class="node">
<title>Node11_1</title>
<ellipse fill="#00bfff" stroke="#00bfff" cx="707.54" cy="-295" rx="102.88" ry="18"/>
<text text-anchor="middle" x="707.54" y="-291.3" font-family="Times,serif" font-size="14.00">हनूमान्(11.1)</text>
</g>
<!-- Node1_1&#45;&gt;Node11_1 -->
<g id="edge1" class="edge">
<title>Node1_1&#45;&gt;Node11_1</title>
<path fill="none" stroke="black" d="M1062.87,-227.43C1039.2,-238.25 1007.72,-251.28 978.54,-259 920.99,-274.23 854.74,-282.94 802.14,-287.86"/>
<polygon fill="black" stroke="black" points="1064.59,-230.49 1072.19,-223.1 1061.64,-224.14 1064.59,-230.49"/>
<text text-anchor="middle" x="1080.04" y="-247.8" font-family="Times,serif" font-size="14.00">विशेषणम्</text>
</g>
<!-- Node9_1 -->
<g id="node9" class="node">
<title>Node9_1</title>
<ellipse fill="#ff1975" stroke="#ff1975" cx="451.54" cy="-382" rx="87.99" ry="18"/>
<text text-anchor="middle" x="451.54" y="-378.3" font-family="Times,serif" font-size="14.00">विषसाद(9.1)</text>
</g>
<!-- Node11_1&#45;&gt;Node9_1 -->
<g id="edge12" class="edge">
<title>Node11_1&#45;&gt;Node9_1</title>
<path fill="none" stroke="black" d="M652.22,-314.48C623.9,-323.93 588.89,-335.6 557.54,-346 537.31,-352.71 514.89,-360.12 495.91,-366.38"/>
<polygon fill="black" stroke="black" points="653.55,-317.73 661.93,-311.24 651.34,-311.09 653.55,-317.73"/>
<text text-anchor="middle" x="634.54" y="-334.8" font-family="Times,serif" font-size="14.00">कर्ता</text>
</g>
<!-- Node4_1 -->
<g id="node3" class="node">
<title>Node4_1</title>
<ellipse fill="#00bfff" stroke="#00bfff" cx="925.54" cy="-208" rx="106.68" ry="18"/>
<text text-anchor="middle" x="925.54" y="-204.3" font-family="Times,serif" font-size="14.00">महाबाहुः(4.1)</text>
</g>
<!-- Node4_1&#45;&gt;Node11_1 -->
<g id="edge4" class="edge">
<title>Node4_1&#45;&gt;Node11_1</title>
<path fill="none" stroke="black" d="M887.25,-230.39C869.19,-239.94 847.13,-250.85 826.54,-259 806.32,-267 783.53,-274.14 763.35,-279.85"/>
<polygon fill="black" stroke="black" points="889.14,-233.35 896.3,-225.54 885.83,-227.18 889.14,-233.35"/>
<text text-anchor="middle" x="917.04" y="-247.8" font-family="Times,serif" font-size="14.00">विशेषणम्</text>
</g>
<!-- Node10_2 -->
<g id="node4" class="node">
<title>Node10_2</title>
<ellipse fill="#00bfff" stroke="#00bfff" cx="511.54" cy="-208" rx="84.49" ry="18"/>
<text text-anchor="middle" x="511.54" y="-204.3" font-family="Times,serif" font-size="14.00">बाहुः(10.2)</text>
</g>
<!-- Node10_2&#45;&gt;Node11_1 -->
<g id="edge11" class="edge">
<title>Node10_2&#45;&gt;Node11_1</title>
<path fill="none" stroke="black" d="M541.69,-231.49C555.44,-240.97 572.27,-251.52 588.54,-259 607.33,-267.64 628.76,-274.72 648.21,-280.2"/>
<polygon fill="black" stroke="black" points="543.32,-228.35 533.13,-225.45 539.29,-234.08 543.32,-228.35"/>
<text text-anchor="middle" x="646.04" y="-247.8" font-family="Times,serif" font-size="14.00">विशेषणम्</text>
</g>
<!-- Node12_2 -->
<g id="node5" class="node">
<title>Node12_2</title>
<ellipse fill="#00bfff" stroke="#00bfff" cx="707.54" cy="-208" rx="93.68" ry="18"/>
<text text-anchor="middle" x="707.54" y="-204.3" font-family="Times,serif" font-size="14.00">आत्मजः(12.2)</text>
</g>
<!-- Node12_2&#45;&gt;Node11_1 -->
<g id="edge14" class="edge">
<title>Node12_2&#45;&gt;Node11_1</title>
<path fill="none" stroke="black" d="M707.54,-236.27C707.54,-249.58 707.54,-265.19 707.54,-276.82"/>
<polygon fill="black" stroke="black" points="711.04,-236.2 707.54,-226.2 704.04,-236.2 711.04,-236.2"/>
<text text-anchor="middle" x="765.04" y="-247.8" font-family="Times,serif" font-size="14.00">विशेषणम्</text>
</g>
<!-- Node7_1 -->
<g id="node6" class="node">
<title>Node7_1</title>
<ellipse fill="#93db70" stroke="#93db70" cx="131.54" cy="-34" rx="87.99" ry="18"/>
<text text-anchor="middle" x="131.54" y="-30.3" font-family="Times,serif" font-size="14.00">अन्याः(7.1)</text>
</g>
<!-- Node8_2 -->
<g id="node7" class="node">
<title>Node8_2</title>
<ellipse fill="#93db70" stroke="#93db70" cx="139.54" cy="-121" rx="106.68" ry="18"/>
<text text-anchor="middle" x="139.54" y="-117.3" font-family="Times,serif" font-size="14.00">स्त्रियः(8.2)</text>
</g>
<!-- Node7_1&#45;&gt;Node8_2 -->
<g id="edge7" class="edge">
<title>Node7_1&#45;&gt;Node8_2</title>
<path fill="none" stroke="black" d="M134.11,-62.27C135.36,-75.58 136.83,-91.19 137.93,-102.82"/>
<polygon fill="black" stroke="black" points="137.58,-61.83 133.16,-52.2 130.62,-62.49 137.58,-61.83"/>
<text text-anchor="middle" x="193.04" y="-73.8" font-family="Times,serif" font-size="14.00">विशेषणम्</text>
</g>
<!-- Node5_1 -->
<g id="node11" class="node">
<title>Node5_1</title>
<ellipse fill="#00bfff" stroke="#00bfff" cx="244.54" cy="-208" rx="87.99" ry="18"/>
<text text-anchor="middle" x="244.54" y="-204.3" font-family="Times,serif" font-size="14.00">पश्यन्(5.1)</text>
</g>
<!-- Node8_2&#45;&gt;Node5_1 -->
<g id="edge9" class="edge">
<title>Node8_2&#45;&gt;Node5_1</title>
<path fill="none" stroke="black" d="M168.5,-145.44C186.05,-159.65 208.03,-177.44 223.84,-190.24"/>
<polygon fill="black" stroke="black" points="170.26,-142.36 160.29,-138.79 165.86,-147.81 170.26,-142.36"/>
<text text-anchor="middle" x="226.54" y="-160.8" font-family="Times,serif" font-size="14.00">कर्म</text>
</g>
<!-- Node2_1 -->
<g id="node8" class="node">
<title>Node2_1</title>
<ellipse fill="#ff1975" stroke="#ff1975" cx="197.54" cy="-295" rx="96.68" ry="18"/>
<text text-anchor="middle" x="197.54" y="-291.3" font-family="Times,serif" font-size="14.00">अपश्यन्(2.1)</text>
</g>
<!-- Node2_1&#45;&gt;Node9_1 -->
<g id="edge2" class="edge">
<title>Node2_1&#45;&gt;Node9_1</title>
<path fill="none" stroke="black" d="M251.97,-314.21C298.44,-329.76 364.42,-351.84 407.59,-366.29"/>
<polygon fill="black" stroke="black" points="252.96,-310.86 242.37,-311 250.74,-317.49 252.96,-310.86"/>
<text text-anchor="middle" x="446.54" y="-334.8" font-family="Times,serif" font-size="14.00">वर्तमानसमानकालः</text>
</g>
<!-- Node3_1 -->
<g id="node10" class="node">
<title>Node3_1</title>
<ellipse fill="#93db70" stroke="#93db70" cx="69.54" cy="-208" rx="69.59" ry="18"/>
<text text-anchor="middle" x="69.54" y="-204.3" font-family="Times,serif" font-size="14.00">ताम्(3.1)</text>
</g>
<!-- Node3_1&#45;&gt;Node2_1 -->
<g id="edge3" class="edge">
<title>Node3_1&#45;&gt;Node2_1</title>
<path fill="none" stroke="black" d="M97.02,-231.59C108.36,-240.52 121.81,-250.63 134.54,-259 144.58,-265.6 155.95,-272.17 166.24,-277.8"/>
<polygon fill="black" stroke="black" points="99.18,-228.83 89.18,-225.33 94.82,-234.31 99.18,-228.83"/>
<text text-anchor="middle" x="163.54" y="-247.8" font-family="Times,serif" font-size="14.00">कर्म</text>
</g>
<!-- Node5_1&#45;&gt;Node2_1 -->
<g id="edge5" class="edge">
<title>Node5_1&#45;&gt;Node2_1</title>
<path fill="none" stroke="black" d="M210.15,-232.27C206.77,-235.83 203.78,-239.75 201.54,-244 196.28,-254.02 195.33,-266.76 195.67,-276.87"/>
<polygon fill="black" stroke="black" points="212.52,-234.84 217.49,-225.47 207.77,-229.7 212.52,-234.84"/>
<text text-anchor="middle" x="308.54" y="-247.8" font-family="Times,serif" font-size="14.00">वर्तमानसमानकालः</text>
</g>
<!-- Node6_1 -->
<g id="node12" class="node">
<title>Node6_1</title>
<ellipse fill="#ff99ff" stroke="#ff99ff" cx="305.54" cy="-121" rx="41.69" ry="18"/>
<text text-anchor="middle" x="305.54" y="-117.3" font-family="Times,serif" font-size="14.00">च(6.1)</text>
</g>
<!-- Node6_1&#45;&gt;Node5_1 -->
<g id="edge6" class="edge">
<title>Node6_1&#45;&gt;Node5_1</title>
<path fill="none" stroke="black" d="M287.89,-146.6C277.88,-160.54 265.61,-177.64 256.69,-190.08"/>
<polygon fill="black" stroke="black" points="290.8,-148.55 293.78,-138.39 285.11,-144.47 290.8,-148.55"/>
<text text-anchor="middle" x="336.04" y="-160.8" font-family="Times,serif" font-size="14.00">सम्बन्धः</text>
</g>
<!-- Node8_1 -->
<g id="node13" class="node">
<title>Node8_1</title>
<ellipse fill="#ffff00" stroke="#ffff00" cx="316.54" cy="-34" rx="53.89" ry="18"/>
<text text-anchor="middle" x="316.54" y="-30.3" font-family="Times,serif" font-size="14.00">वर&#45;(8.1)</text>
</g>
<!-- Node8_1&#45;&gt;Node8_2 -->
<g id="edge8" class="edge">
<title>Node8_1&#45;&gt;Node8_2</title>
<path fill="none" stroke="black" d="M292.15,-58.3C281.32,-67.65 267.98,-77.88 254.54,-85 237.76,-93.89 218.38,-100.88 200.37,-106.2"/>
<polygon fill="black" stroke="black" points="294.78,-60.65 299.92,-51.38 290.12,-55.42 294.78,-60.65"/>
<text text-anchor="middle" x="341.04" y="-73.8" font-family="Times,serif" font-size="14.00">कर्मधारयः</text>
</g>
<!-- Node10_1 -->
<g id="node14" class="node">
<title>Node10_1</title>
<ellipse fill="#ffff00" stroke="#ffff00" cx="511.54" cy="-121" rx="68.79" ry="18"/>
<text text-anchor="middle" x="511.54" y="-117.3" font-family="Times,serif" font-size="14.00">महा&#45;(10.1)</text>
</g>
<!-- Node10_1&#45;&gt;Node10_2 -->
<g id="edge10" class="edge">
<title>Node10_1&#45;&gt;Node10_2</title>
<path fill="none" stroke="black" d="M511.54,-149.27C511.54,-162.58 511.54,-178.19 511.54,-189.82"/>
<polygon fill="black" stroke="black" points="515.04,-149.2 511.54,-139.2 508.04,-149.2 515.04,-149.2"/>
<text text-anchor="middle" x="583.04" y="-160.8" font-family="Times,serif" font-size="14.00">बहुव्रीहिः</text>
</g>
<!-- Node12_1 -->
<g id="node15" class="node">
<title>Node12_1</title>
<ellipse fill="#ffff00" stroke="#ffff00" cx="707.54" cy="-121" rx="87.18" ry="18"/>
<text text-anchor="middle" x="707.54" y="-117.3" font-family="Times,serif" font-size="14.00">मारुत&#45;(12.1)</text>
</g>
<!-- Node12_1&#45;&gt;Node12_2 -->
<g id="edge13" class="edge">
<title>Node12_1&#45;&gt;Node12_2</title>
<path fill="none" stroke="black" d="M707.54,-149.27C707.54,-162.58 707.54,-178.19 707.54,-189.82"/>
<polygon fill="black" stroke="black" points="711.04,-149.2 707.54,-139.2 704.04,-149.2 711.04,-149.2"/>
<text text-anchor="middle" x="811.04" y="-160.8" font-family="Times,serif" font-size="14.00">षष्ठी_तत्पुरुषः</text>
</g>
</g>
</svg>
