<svg xmlns="http://www.w3.org/2000/svg" xmlns:xlink="http://www.w3.org/1999/xlink" width="1351pt" height="312" viewBox="0 0 1350.69 234"><g id="graph0" class="graph" transform="scale(1 1) rotate(0) translate(4 230)"><title>G</title><polygon fill="#fffacd" stroke="transparent" points="-4 4 -4 -230 1346.69 -230 1346.69 4 -4 4"/><g id="clust1" class="cluster"><title>cluster_1</title><polygon fill="#fffacd" stroke="#000" points="8 -8 8 -147 200 -147 200 -8 8 -8"/></g><g id="node1" class="node"><title>Node6_1</title><ellipse cx="104" cy="-34" fill="#93db70" stroke="#93db70" rx="87.99" ry="18"/><text x="104" y="-30.3" font-family="Times,serif" font-size="14" text-anchor="middle">परुषम्(6.1)</text></g><g id="node2" class="node"><title>Node7_1</title><ellipse cx="77" cy="-121" fill="#93db70" stroke="#93db70" rx="59.59" ry="18"/><text x="77" y="-117.3" font-family="Times,serif" font-size="14" text-anchor="middle">वचः(7.1)</text></g><g id="edge5" class="edge"><title>Node6_1-&gt;Node7_1</title><path fill="none" stroke="#000" d="M95.46,-61.87C91.21,-75.27 86.19,-91.08 82.46,-102.82"/><polygon fill="#000" stroke="#000" points="98.84 -62.79 98.54 -52.2 92.17 -60.67 98.84 -62.79"/><text x="150.5" y="-73.8" font-family="Times,serif" font-size="14" text-anchor="middle">विशेषणम्</text></g><g id="node4" class="node"><title>Node5_1</title><ellipse cx="329" cy="-208" fill="#ff1975" stroke="#ff1975" rx="115.88" ry="18"/><text x="329" y="-204.3" font-family="Times,serif" font-size="14" text-anchor="middle">वक्ष्यामि(5.1)</text></g><g id="edge6" class="edge"><title>Node7_1-&gt;Node5_1</title><path fill="none" stroke="#000" d="M75.43,-149.34C76.38,-157.64 79.01,-166.1 85,-172 103.95,-190.65 161.98,-199.44 216.7,-203.55"/><polygon fill="#000" stroke="#000" points="78.92 -148.98 75.01 -139.13 71.92 -149.27 78.92 -148.98"/><text x="199.5" y="-160.8" font-family="Times,serif" font-size="14" text-anchor="middle">कर्मसमानाधिकरणम्</text></g><g id="node3" class="node"><title>Node1_1</title><ellipse cx="308" cy="-121" fill="#f9f" stroke="#f9f" rx="78.79" ry="18"/><text x="308" y="-117.3" font-family="Times,serif" font-size="14" text-anchor="middle">गत्वा(1.1)</text></g><g id="edge1" class="edge"><title>Node1_1-&gt;Node5_1</title><path fill="none" stroke="#000" d="M314.74,-149.27C318.03,-162.58 321.88,-178.19 324.76,-189.82"/><polygon fill="#000" stroke="#000" points="318.05 -148.07 312.25 -139.2 311.25 -149.75 318.05 -148.07"/><text x="384.5" y="-160.8" font-family="Times,serif" font-size="14" text-anchor="middle">पूर्वकालः</text></g><g id="node5" class="node"><title>Node2_1</title><ellipse cx="273" cy="-34" fill="#f9f" stroke="#f9f" rx="50.89" ry="18"/><text x="273" y="-30.3" font-family="Times,serif" font-size="14" text-anchor="middle">तु(2.1)</text></g><g id="edge2" class="edge"><title>Node2_1-&gt;Node1_1</title><path fill="none" stroke="#000" d="M269.93,-62.49C270.04,-70.02 271.09,-78.03 274,-85 276.87,-91.88 281.79,-98.17 287,-103.45"/><polygon fill="#000" stroke="#000" points="273.43 -62.43 270.29 -52.31 266.44 -62.18 273.43 -62.43"/><text x="331.5" y="-73.8" font-family="Times,serif" font-size="14" text-anchor="middle">सम्बन्धः</text></g><g id="node6" class="node"><title>Node3_1</title><ellipse cx="411" cy="-34" fill="#f9f" stroke="#f9f" rx="59.59" ry="18"/><text x="411" y="-30.3" font-family="Times,serif" font-size="14" text-anchor="middle">यदि(3.1)</text></g><g id="edge3" class="edge"><title>Node3_1-&gt;Node1_1</title><path fill="none" stroke="#000" d="M403.56,-61.58C400.2,-69.89 395.48,-78.56 389,-85 379.65,-94.28 367.45,-101.28 355.35,-106.48"/><polygon fill="#000" stroke="#000" points="406.87 -62.74 406.92 -52.14 400.27 -60.39 406.87 -62.74"/><text x="457.5" y="-73.8" font-family="Times,serif" font-size="14" text-anchor="middle">सम्बन्धः</text></g><g id="node7" class="node"><title>Node4_1</title><ellipse cx="539" cy="-121" fill="#93db70" stroke="#93db70" rx="133.78" ry="18"/><text x="539" y="-117.3" font-family="Times,serif" font-size="14" text-anchor="middle">काकुत्स्थम्(4.1)</text></g><g id="edge4" class="edge"><title>Node4_1-&gt;Node5_1</title><path fill="none" stroke="#000" d="M505.24,-144.28C489.78,-153.78 470.95,-164.39 453,-172 433.43,-180.29 411.31,-187.25 391.23,-192.72"/><polygon fill="#000" stroke="#000" points="507.29 -147.13 513.91 -138.85 503.58 -141.19 507.29 -147.13"/><text x="512" y="-160.8" font-family="Times,serif" font-size="14" text-anchor="middle">कर्म</text></g><g id="node8" class="node"><title>Node8_1</title><ellipse cx="577" cy="-34" fill="#f9f" stroke="#f9f" rx="41.69" ry="18"/><text x="577" y="-30.3" font-family="Times,serif" font-size="14" text-anchor="middle">न(8.1)</text></g><g id="node9" class="node"><title>Node9_1</title><ellipse cx="883" cy="-121" fill="#00bfff" stroke="#00bfff" rx="87.99" ry="18"/><text x="883" y="-117.3" font-family="Times,serif" font-size="14" text-anchor="middle">दृष्टा(9.1)</text></g><g id="edge7" class="edge"><title>Node8_1-&gt;Node9_1</title><path fill="none" stroke="#000" d="M577.08,-62.29C578.5,-70.69 581.63,-79.23 588,-85 596,-92.25 719.82,-105 804.48,-112.94"/><polygon fill="#000" stroke="#000" points="580.56 -61.91 576.08 -52.31 573.59 -62.61 580.56 -61.91"/><text x="652.5" y="-73.8" font-family="Times,serif" font-size="14" text-anchor="middle">प्रतिषेधः</text></g><g id="node10" class="node"><title>Node14_1</title><ellipse cx="1054" cy="-208" fill="#ff1975" stroke="#ff1975" rx="130.78" ry="18"/><text x="1054" y="-204.3" font-family="Times,serif" font-size="14" text-anchor="middle">त्यक्ष्यति(14.1)</text></g><g id="edge8" class="edge"><title>Node9_1-&gt;Node14_1</title><path fill="none" stroke="#000" d="M897.67,-147.8C903.84,-156.63 911.75,-165.82 921,-172 935.79,-181.88 953.23,-188.98 970.54,-194.07"/><polygon fill="#000" stroke="#000" points="900.48 -145.7 892.09 -139.23 894.61 -149.52 900.48 -145.7"/><text x="985.5" y="-160.8" font-family="Times,serif" font-size="14" text-anchor="middle">वाक्यकर्म</text></g><g id="node11" class="node"><title>Node10_1</title><ellipse cx="729" cy="-34" fill="#f9f" stroke="#f9f" rx="65.79" ry="18"/><text x="729" y="-30.3" font-family="Times,serif" font-size="14" text-anchor="middle">इति(10.1)</text></g><g id="edge9" class="edge"><title>Node10_1-&gt;Node9_1</title><path fill="none" stroke="#000" d="M720.78,-62.01C719.93,-70.15 720.88,-78.61 726,-85 736.52,-98.13 771.93,-106.65 806.45,-112"/><polygon fill="#000" stroke="#000" points="724.24 -62.52 722.64 -52.05 717.36 -61.24 724.24 -62.52"/><text x="843.5" y="-73.8" font-family="Times,serif" font-size="14" text-anchor="middle">वाक्यकर्म_द्योतकः</text></g><g id="node12" class="node"><title>Node11_1</title><ellipse cx="987" cy="-34" fill="#40e0d0" stroke="#40e0d0" rx="65.79" ry="18"/><text x="987" y="-30.3" font-family="Times,serif" font-size="14" text-anchor="middle">मया(11.1)</text></g><g id="edge10" class="edge"><title>Node11_1-&gt;Node9_1</title><path fill="none" stroke="#000" d="M979.58,-61.6C976.22,-69.91 971.49,-78.58 965,-85 955.87,-94.03 944.03,-100.89 932.22,-106.03"/><polygon fill="#000" stroke="#000" points="982.88 -62.75 982.93 -52.16 976.29 -60.41 982.88 -62.75"/><text x="1011" y="-73.8" font-family="Times,serif" font-size="14" text-anchor="middle">कर्ता</text></g><g id="node13" class="node"><title>Node12_1</title><ellipse cx="1146" cy="-34" fill="#00bfff" stroke="#00bfff" rx="75.29" ry="18"/><text x="1146" y="-30.3" font-family="Times,serif" font-size="14" text-anchor="middle">सीता(12.1)</text></g><g id="edge11" class="edge"><title>Node12_1-&gt;Node9_1</title><path fill="none" stroke="#000" d="M1111.53,-56.13C1093.95,-66.13 1071.91,-77.49 1051,-85 1032,-91.83 986.05,-101.23 947,-108.57"/><polygon fill="#000" stroke="#000" points="1113.39 -59.1 1120.29 -51.06 1109.88 -53.04 1113.39 -59.1"/><text x="1112" y="-73.8" font-family="Times,serif" font-size="14" text-anchor="middle">कर्म</text></g><g id="node14" class="node"><title>Node13_1</title><ellipse cx="1054" cy="-121" fill="#f9f" stroke="#f9f" rx="65.79" ry="18"/><text x="1054" y="-117.3" font-family="Times,serif" font-size="14" text-anchor="middle">ततः(13.1)</text></g><g id="edge12" class="edge"><title>Node13_1-&gt;Node14_1</title><path fill="none" stroke="#000" d="M1054,-149.27C1054,-162.58 1054,-178.19 1054,-189.82"/><polygon fill="#000" stroke="#000" points="1057.5 -149.2 1054 -139.2 1050.5 -149.2 1057.5 -149.2"/><text x="1132.5" y="-160.8" font-family="Times,serif" font-size="14" text-anchor="middle">कालाधिकरणम्</text></g><g id="node15" class="node"><title>Node15_1</title><ellipse cx="1240" cy="-121" fill="#93db70" stroke="#93db70" rx="102.88" ry="18"/><text x="1240" y="-117.3" font-family="Times,serif" font-size="14" text-anchor="middle">जीवितम्(15.1)</text></g><g id="edge13" class="edge"><title>Node15_1-&gt;Node14_1</title><path fill="none" stroke="#000" d="M1231.86,-148.75C1228.02,-157.32 1222.57,-166.12 1215,-172 1199.42,-184.11 1180.54,-192.24 1161.27,-197.64"/><polygon fill="#000" stroke="#000" points="1235.17 -149.91 1235.54 -139.32 1228.65 -147.37 1235.17 -149.91"/><text x="1256" y="-160.8" font-family="Times,serif" font-size="14" text-anchor="middle">कर्म</text></g></g></svg>