<svg xmlns="http://www.w3.org/2000/svg" xmlns:xlink="http://www.w3.org/1999/xlink" width="2100" height="428" viewBox="0 0 1575 321"><g id="graph0" class="graph" transform="scale(1 1) rotate(0) translate(4 317)"><title>G</title><polygon fill="#fffacd" stroke="transparent" points="-4 4 -4 -317 1571 -317 1571 4 -4 4"/><g id="clust1" class="cluster"><title>cluster_1</title><polygon fill="#fffacd" stroke="#000" points="8 -95 8 -234 295 -234 295 -95 8 -95"/></g><g id="clust2" class="cluster"><title>cluster_2</title><polygon fill="#fffacd" stroke="#000" points="975 -8 975 -147 1179 -147 1179 -8 975 -8"/></g><g id="node1" class="node"><title>Node1_1</title><ellipse cx="198" cy="-121" fill="#00bfff" stroke="#00bfff" rx="50.89" ry="18"/><text x="198" y="-117.3" font-family="Times,serif" font-size="14" text-anchor="middle">सः(1.1)</text></g><g id="node2" class="node"><title>Node8_1</title><ellipse cx="172" cy="-208" fill="#00bfff" stroke="#00bfff" rx="96.68" ry="18"/><text x="172" y="-204.3" font-family="Times,serif" font-size="14" text-anchor="middle">मारुतिः(8.1)</text></g><g id="edge1" class="edge"><title>Node1_1-&gt;Node8_1</title><path fill="none" stroke="#000" d="M189.78,-148.87C185.68,-162.27 180.85,-178.08 177.25,-189.82"/><polygon fill="#000" stroke="#000" points="193.16 -149.79 192.74 -139.2 186.47 -147.74 193.16 -149.79"/><text x="244.5" y="-160.8" font-family="Times,serif" font-size="14" text-anchor="middle">विशेषणम्</text></g><g id="node10" class="node"><title>Node15_1</title><ellipse cx="880" cy="-295" fill="#00bfff" stroke="#00bfff" rx="65.79" ry="18"/><text x="880" y="-291.3" font-family="Times,serif" font-size="14" text-anchor="middle">गतः(15.1)</text></g><g id="edge8" class="edge"><title>Node8_1-&gt;Node15_1</title><path fill="none" stroke="#000" d="M261.14,-219.7C408.06,-237.34 697.11,-272.04 821.17,-286.94"/><polygon fill="#000" stroke="#000" points="261.16 -216.18 250.81 -218.46 260.33 -223.13 261.16 -216.18"/><text x="605" y="-247.8" font-family="Times,serif" font-size="14" text-anchor="middle">कर्ता</text></g><g id="node3" class="node"><title>Node12_1</title><ellipse cx="73" cy="-121" fill="#00bfff" stroke="#00bfff" rx="56.59" ry="18"/><text x="73" y="-117.3" font-family="Times,serif" font-size="14" text-anchor="middle">सः(12.1)</text></g><g id="edge12" class="edge"><title>Node12_1-&gt;Node8_1</title><path fill="none" stroke="#000" d="M61.55,-149C59.95,-157.01 60.21,-165.39 65,-172 73.2,-183.31 85.17,-191.04 98.16,-196.3"/><polygon fill="#000" stroke="#000" points="64.97 -149.8 64.39 -139.22 58.24 -147.84 64.97 -149.8"/><text x="122.5" y="-160.8" font-family="Times,serif" font-size="14" text-anchor="middle">विशेषणम्</text></g><g id="node4" class="node"><title>Node10_1</title><ellipse cx="1077" cy="-34" fill="#93db70" stroke="#93db70" rx="93.68" ry="18"/><text x="1077" y="-30.3" font-family="Times,serif" font-size="14" text-anchor="middle">सर्वाः(10.1)</text></g><g id="node5" class="node"><title>Node9_1</title><ellipse cx="1056" cy="-121" fill="#93db70" stroke="#93db70" rx="69.59" ry="18"/><text x="1056" y="-117.3" font-family="Times,serif" font-size="14" text-anchor="middle">दिशः(9.1)</text></g><g id="edge10" class="edge"><title>Node10_1-&gt;Node9_1</title><path fill="none" stroke="#000" d="M1070.26,-62.27C1066.97,-75.58 1063.12,-91.19 1060.24,-102.82"/><polygon fill="#000" stroke="#000" points="1073.75 -62.75 1072.75 -52.2 1066.95 -61.07 1073.75 -62.75"/><text x="1125.5" y="-73.8" font-family="Times,serif" font-size="14" text-anchor="middle">विशेषणम्</text></g><g id="node13" class="node"><title>Node11_1</title><ellipse cx="1012" cy="-208" fill="#f9f" stroke="#f9f" rx="112.38" ry="18"/><text x="1012" y="-204.3" font-family="Times,serif" font-size="14" text-anchor="middle">समालोक्य(11.1)</text></g><g id="edge9" class="edge"><title>Node9_1-&gt;Node11_1</title><path fill="none" stroke="#000" d="M1045.29,-148.3C1041.91,-156.04 1038,-164.46 1034,-172 1030.84,-177.96 1027.03,-184.26 1023.48,-189.85"/><polygon fill="#000" stroke="#000" points="1048.57 -149.53 1049.27 -138.96 1042.13 -146.79 1048.57 -149.53"/><text x="1071" y="-160.8" font-family="Times,serif" font-size="14" text-anchor="middle">कर्म</text></g><g id="node6" class="node"><title>Node2_1</title><ellipse cx="391" cy="-121" fill="#b0e2ff" stroke="#b0e2ff" rx="87.99" ry="18"/><text x="391" y="-117.3" font-family="Times,serif" font-size="14" text-anchor="middle">तेभ्यः(2.1)</text></g><g id="node7" class="node"><title>Node5_1</title><ellipse cx="750" cy="-208" fill="#f9f" stroke="#f9f" rx="87.99" ry="18"/><text x="750" y="-204.3" font-family="Times,serif" font-size="14" text-anchor="middle">कृत्वा(5.1)</text></g><g id="edge2" class="edge"><title>Node2_1-&gt;Node5_1</title><path fill="none" stroke="#000" d="M420.66,-144.29C435.6,-154.4 454.45,-165.51 473,-172 534.31,-193.45 607.33,-202.04 663,-205.35"/><polygon fill="#000" stroke="#000" points="422.55 -141.35 412.34 -138.5 418.55 -147.09 422.55 -141.35"/><text x="537.5" y="-160.8" font-family="Times,serif" font-size="14" text-anchor="middle">प्रयोजनम्</text></g><g id="edge5" class="edge"><title>Node5_1-&gt;Node15_1</title><path fill="none" stroke="#000" d="M783.69,-231.03C806.31,-245.82 835.58,-264.96 855.89,-278.24"/><polygon fill="#000" stroke="#000" points="785.35 -227.93 775.07 -225.39 781.52 -233.79 785.35 -227.93"/><text x="887.5" y="-247.8" font-family="Times,serif" font-size="14" text-anchor="middle">पूर्वकालः</text></g><g id="node8" class="node"><title>Node3_1</title><ellipse cx="391" cy="-34" fill="#f9f" stroke="#f9f" rx="50.89" ry="18"/><text x="391" y="-30.3" font-family="Times,serif" font-size="14" text-anchor="middle">तु(3.1)</text></g><g id="edge3" class="edge"><title>Node3_1-&gt;Node2_1</title><path fill="none" stroke="#000" d="M391,-62.27C391,-75.58 391,-91.19 391,-102.82"/><polygon fill="#000" stroke="#000" points="394.5 -62.2 391 -52.2 387.5 -62.2 394.5 -62.2"/><text x="448.5" y="-73.8" font-family="Times,serif" font-size="14" text-anchor="middle">सम्बन्धः</text></g><g id="node9" class="node"><title>Node4_1</title><ellipse cx="557" cy="-121" fill="#f9f" stroke="#f9f" rx="59.59" ry="18"/><text x="557" y="-117.3" font-family="Times,serif" font-size="14" text-anchor="middle">नमः(4.1)</text></g><g id="edge4" class="edge"><title>Node4_1-&gt;Node5_1</title><path fill="none" stroke="#000" d="M585.28,-144.13C598.58,-153.73 615.01,-164.47 631,-172 650.58,-181.22 673.13,-188.6 693.29,-194.15"/><polygon fill="#000" stroke="#000" points="587.15 -141.16 577.02 -138.03 582.99 -146.79 587.15 -141.16"/><text x="688.5" y="-160.8" font-family="Times,serif" font-size="14" text-anchor="middle">सम्बन्धः</text></g><g id="node11" class="node"><title>Node6_1</title><ellipse cx="750" cy="-121" fill="#b0e2ff" stroke="#b0e2ff" rx="115.88" ry="18"/><text x="750" y="-117.3" font-family="Times,serif" font-size="14" text-anchor="middle">सुग्रीवाय(6.1)</text></g><g id="edge6" class="edge"><title>Node6_1-&gt;Node5_1</title><path fill="none" stroke="#000" d="M750,-149.27C750,-162.58 750,-178.19 750,-189.82"/><polygon fill="#000" stroke="#000" points="753.5 -149.2 750 -139.2 746.5 -149.2 753.5 -149.2"/><text x="814.5" y="-160.8" font-family="Times,serif" font-size="14" text-anchor="middle">प्रयोजनम्</text></g><g id="node12" class="node"><title>Node7_1</title><ellipse cx="925" cy="-121" fill="#f9f" stroke="#f9f" rx="41.69" ry="18"/><text x="925" y="-117.3" font-family="Times,serif" font-size="14" text-anchor="middle">च(7.1)</text></g><g id="edge7" class="edge"><title>Node7_1-&gt;Node5_1</title><path fill="none" stroke="#000" d="M908.81,-147.13C901.86,-156.15 893.01,-165.65 883,-172 864.14,-183.95 841.32,-191.84 819.94,-197.04"/><polygon fill="#000" stroke="#000" points="911.85 -148.89 914.88 -138.74 906.18 -144.79 911.85 -148.89"/><text x="957.5" y="-160.8" font-family="Times,serif" font-size="14" text-anchor="middle">सम्बन्धः</text></g><g id="edge11" class="edge"><title>Node11_1-&gt;Node15_1</title><path fill="none" stroke="#000" d="M987.97,-233.31C978.51,-242.09 967.24,-251.63 956,-259 943.73,-267.04 929.31,-274.19 916.35,-279.89"/><polygon fill="#000" stroke="#000" points="990.62 -235.62 995.44 -226.19 985.79 -230.56 990.62 -235.62"/><text x="1040.5" y="-247.8" font-family="Times,serif" font-size="14" text-anchor="middle">पूर्वकालः</text></g><g id="node14" class="node"><title>Node13_1</title><ellipse cx="1290" cy="-34" fill="#ff0" stroke="#ff0" rx="77.99" ry="18"/><text x="1290" y="-30.3" font-family="Times,serif" font-size="14" text-anchor="middle">अशोक-(13.1)</text></g><g id="node15" class="node"><title>Node13_2</title><ellipse cx="1290" cy="-121" fill="#93db70" stroke="#93db70" rx="102.88" ry="18"/><text x="1290" y="-117.3" font-family="Times,serif" font-size="14" text-anchor="middle">वनिकाम्(13.2)</text></g><g id="edge13" class="edge"><title>Node13_1-&gt;Node13_2</title><path fill="none" stroke="#000" d="M1290,-62.27C1290,-75.58 1290,-91.19 1290,-102.82"/><polygon fill="#000" stroke="#000" points="1293.5 -62.2 1290 -52.2 1286.5 -62.2 1293.5 -62.2"/><text x="1393.5" y="-73.8" font-family="Times,serif" font-size="14" text-anchor="middle">षष्ठी_तत्पुरुषः</text></g><g id="node16" class="node"><title>Node14_1</title><ellipse cx="1258" cy="-208" fill="#f9f" stroke="#f9f" rx="84.49" ry="18"/><text x="1258" y="-204.3" font-family="Times,serif" font-size="14" text-anchor="middle">प्रति(14.1)</text></g><g id="edge14" class="edge"><title>Node13_2-&gt;Node14_1</title><path fill="none" stroke="#000" d="M1279.88,-148.87C1274.84,-162.27 1268.89,-178.08 1264.47,-189.82"/><polygon fill="#000" stroke="#000" points="1283.28 -149.79 1283.52 -139.2 1276.73 -147.33 1283.28 -149.79"/><text x="1421" y="-160.8" font-family="Times,serif" font-size="14" text-anchor="middle">कर्मप्रवचनीय_अन्वितम्</text></g><g id="edge15" class="edge"><title>Node14_1-&gt;Node15_1</title><path fill="none" stroke="#000" d="M1209.88,-227.5C1180.99,-238.01 1143.31,-250.69 1109,-259 1052.52,-272.69 986.84,-282.07 940.34,-287.65"/><polygon fill="#000" stroke="#000" points="1211.15 -230.76 1219.32 -224.02 1208.73 -224.19 1211.15 -230.76"/><text x="1252" y="-247.8" font-family="Times,serif" font-size="14" text-anchor="middle">कर्मप्रवचनीयः</text></g></g></svg>