<svg xmlns="http://www.w3.org/2000/svg" xmlns:xlink="http://www.w3.org/1999/xlink" width="976pt" height="392pt" viewBox="0 0 975.69 392"><g id="graph0" class="graph" transform="scale(1 1) rotate(0) translate(4 388)"><title>G</title><polygon fill="#fffacd" stroke="transparent" points="-4 4 -4 -388 971.69 -388 971.69 4 -4 4"/><g id="clust1" class="cluster"><title>cluster_1</title><polygon fill="#fffacd" stroke="#000" points="495.69 -166 495.69 -305 959.69 -305 959.69 -166 495.69 -166"/></g><g id="node1" class="node"><title>Node10_1</title><ellipse cx="839.69" cy="-192" fill="#93db70" stroke="#93db70" rx="112.38" ry="18"/><text x="839.69" y="-188.3" font-family="Times,serif" font-size="14" text-anchor="middle">वैदेहीम्(10.1)</text></g><g id="node2" class="node"><title>Node11_1</title><ellipse cx="606.69" cy="-279" fill="#93db70" stroke="#93db70" rx="93.68" ry="18"/><text x="606.69" y="-275.3" font-family="Times,serif" font-size="14" text-anchor="middle">सीताम्(11.1)</text></g><g id="edge8" class="edge"><title>Node10_1-&gt;Node11_1</title><path fill="none" stroke="#000" d="M796.41,-213.54C775.33,-223.14 749.46,-234.33 725.69,-243 704.24,-250.82 680.16,-258.17 659.29,-264.09"/><polygon fill="#000" stroke="#000" points="798.11 -216.61 805.73 -209.25 795.18 -210.25 798.11 -216.61"/><text x="817.19" y="-231.8" font-family="Times,serif" font-size="14" text-anchor="middle">विशेषणम्</text></g><g id="node10" class="node"><title>Node9_1</title><ellipse cx="360.69" cy="-366" fill="#ff1975" stroke="#ff1975" rx="96.68" ry="18"/><text x="360.69" y="-362.3" font-family="Times,serif" font-size="14" text-anchor="middle">पश्यामि(9.1)</text></g><g id="edge9" class="edge"><title>Node11_1-&gt;Node9_1</title><path fill="none" stroke="#000" d="M582.53,-303.72C571.51,-313.27 557.78,-323.54 543.69,-330 513.26,-343.95 477.52,-352.35 445.74,-357.39"/><polygon fill="#000" stroke="#000" points="584.95 -306.25 590.04 -296.96 580.26 -301.05 584.95 -306.25"/><text x="596.69" y="-318.8" font-family="Times,serif" font-size="14" text-anchor="middle">कर्म</text></g><g id="node3" class="node"><title>Node12_3</title><ellipse cx="606.69" cy="-192" fill="#93db70" stroke="#93db70" rx="102.88" ry="18"/><text x="606.69" y="-188.3" font-family="Times,serif" font-size="14" text-anchor="middle">शोभनाम्(12.3)</text></g><g id="edge12" class="edge"><title>Node12_3-&gt;Node11_1</title><path fill="none" stroke="#000" d="M606.69,-220.27C606.69,-233.58 606.69,-249.19 606.69,-260.82"/><polygon fill="#000" stroke="#000" points="610.19 -220.2 606.69 -210.2 603.19 -220.2 610.19 -220.2"/><text x="664.19" y="-231.8" font-family="Times,serif" font-size="14" text-anchor="middle">विशेषणम्</text></g><g id="node4" class="node"><title>Node1_1</title><ellipse cx="115.69" cy="-192" fill="#93db70" stroke="#93db70" rx="115.88" ry="18"/><text x="115.69" y="-188.3" font-family="Times,serif" font-size="14" text-anchor="middle">भूयिष्ठम्(1.1)</text></g><g id="node5" class="node"><title>Node5_1</title><ellipse cx="155.69" cy="-279" fill="#40e0d0" stroke="#40e0d0" rx="69.59" ry="18"/><text x="155.69" y="-275.3" font-family="Times,serif" font-size="14" text-anchor="middle">चरता(5.1)</text></g><g id="edge1" class="edge"><title>Node1_1-&gt;Node5_1</title><path fill="none" stroke="#000" d="M128.18,-219.54C134.57,-233.12 142.16,-249.24 147.74,-261.11"/><polygon fill="#000" stroke="#000" points="131.21 -217.76 123.78 -210.2 124.88 -220.74 131.21 -217.76"/><text x="167.69" y="-231.8" font-family="Times,serif" font-size="14" text-anchor="middle">कर्म</text></g><g id="edge4" class="edge"><title>Node5_1-&gt;Node9_1</title><path fill="none" stroke="#000" d="M174.9,-304.44C183.4,-313.74 194.1,-323.61 205.69,-330 228.52,-342.58 255.62,-350.65 280.72,-355.81"/><polygon fill="#000" stroke="#000" points="177.51 -302.11 168.31 -296.86 172.23 -306.71 177.51 -302.11"/><text x="241.69" y="-318.8" font-family="Times,serif" font-size="14" text-anchor="middle">करणम्</text></g><g id="node6" class="node"><title>Node2_1</title><ellipse cx="790.69" cy="-105" fill="#00bfff" stroke="#00bfff" rx="87.99" ry="18"/><text x="790.69" y="-101.3" font-family="Times,serif" font-size="14" text-anchor="middle">लोलिता(2.1)</text></g><g id="node7" class="node"><title>Node3_1</title><ellipse cx="790.69" cy="-18" fill="#00bfff" stroke="#00bfff" rx="78.79" ry="18"/><text x="790.69" y="-14.3" font-family="Times,serif" font-size="14" text-anchor="middle">लङ्का(3.1)</text></g><g id="edge2" class="edge"><title>Node3_1-&gt;Node2_1</title><path fill="none" stroke="#000" d="M790.69,-46.27C790.69,-59.58 790.69,-75.19 790.69,-86.82"/><polygon fill="#000" stroke="#000" points="794.19 -46.2 790.69 -36.2 787.19 -46.2 794.19 -46.2"/><text x="826.69" y="-57.8" font-family="Times,serif" font-size="14" text-anchor="middle">कर्ता</text></g><g id="node8" class="node"><title>Node4_1</title><ellipse cx="346.69" cy="-105" fill="#87ceeb" stroke="#87ceeb" rx="87.99" ry="18"/><text x="346.69" y="-101.3" font-family="Times,serif" font-size="14" text-anchor="middle">रामस्य(4.1)</text></g><g id="node9" class="node"><title>Node6_1</title><ellipse cx="346.69" cy="-192" fill="#93db70" stroke="#93db70" rx="96.68" ry="18"/><text x="346.69" y="-188.3" font-family="Times,serif" font-size="14" text-anchor="middle">प्रियम्(6.1)</text></g><g id="edge3" class="edge"><title>Node4_1-&gt;Node6_1</title><path fill="none" stroke="#000" d="M346.69,-133.27C346.69,-146.58 346.69,-162.19 346.69,-173.82"/><polygon fill="#000" stroke="#000" points="350.19 -133.2 346.69 -123.2 343.19 -133.2 350.19 -133.2"/><text x="439.69" y="-144.8" font-family="Times,serif" font-size="14" text-anchor="middle">षष्ठीसम्बन्धः</text></g><g id="edge5" class="edge"><title>Node6_1-&gt;Node5_1</title><path fill="none" stroke="#000" d="M301.82,-212.97C267.29,-228.34 220.32,-249.24 189.06,-263.15"/><polygon fill="#000" stroke="#000" points="303.5 -216.05 311.21 -208.79 300.65 -209.66 303.5 -216.05"/><text x="291.69" y="-231.8" font-family="Times,serif" font-size="14" text-anchor="middle">कर्म</text></g><g id="node11" class="node"><title>Node7_1</title><ellipse cx="284.69" cy="-279" fill="#f9f" stroke="#f9f" rx="41.69" ry="18"/><text x="284.69" y="-275.3" font-family="Times,serif" font-size="14" text-anchor="middle">न(7.1)</text></g><g id="edge6" class="edge"><title>Node7_1-&gt;Node9_1</title><path fill="none" stroke="#000" d="M280.03,-307.08C279.98,-315.01 281.34,-323.32 285.69,-330 291.49,-338.91 300.21,-345.59 309.66,-350.59"/><polygon fill="#000" stroke="#000" points="283.52 -307.3 280.77 -297.07 276.54 -306.78 283.52 -307.3"/><text x="350.19" y="-318.8" font-family="Times,serif" font-size="14" text-anchor="middle">प्रतिषेधः</text></g><g id="node12" class="node"><title>Node8_1</title><ellipse cx="436.69" cy="-279" fill="#f9f" stroke="#f9f" rx="50.89" ry="18"/><text x="436.69" y="-275.3" font-family="Times,serif" font-size="14" text-anchor="middle">हि(8.1)</text></g><g id="edge7" class="edge"><title>Node8_1-&gt;Node9_1</title><path fill="none" stroke="#000" d="M428.33,-306.61C424.95,-314.69 420.46,-323.22 414.69,-330 408.46,-337.32 400.33,-343.67 392.26,-348.88"/><polygon fill="#000" stroke="#000" points="431.66 -307.71 431.92 -297.12 425.11 -305.24 431.66 -307.71"/><text x="482.19" y="-318.8" font-family="Times,serif" font-size="14" text-anchor="middle">सम्बन्धः</text></g><g id="node13" class="node"><title>Node12_1</title><ellipse cx="606.69" cy="-18" fill="#ff0" stroke="#ff0" rx="77.99" ry="18"/><text x="606.69" y="-14.3" font-family="Times,serif" font-size="14" text-anchor="middle">सर्व-(12.1)</text></g><g id="node14" class="node"><title>Node12_2</title><ellipse cx="606.69" cy="-105" fill="#ff0" stroke="#ff0" rx="77.99" ry="18"/><text x="606.69" y="-101.3" font-family="Times,serif" font-size="14" text-anchor="middle">अङ्ग-(12.2)</text></g><g id="edge10" class="edge"><title>Node12_1-&gt;Node12_2</title><path fill="none" stroke="#000" d="M606.69,-46.27C606.69,-59.58 606.69,-75.19 606.69,-86.82"/><polygon fill="#000" stroke="#000" points="610.19 -46.2 606.69 -36.2 603.19 -46.2 610.19 -46.2"/><text x="671.19" y="-57.8" font-family="Times,serif" font-size="14" text-anchor="middle">कर्मधारयः</text></g><g id="edge11" class="edge"><title>Node12_2-&gt;Node12_3</title><path fill="none" stroke="#000" d="M606.69,-133.27C606.69,-146.58 606.69,-162.19 606.69,-173.82"/><polygon fill="#000" stroke="#000" points="610.19 -133.2 606.69 -123.2 603.19 -133.2 610.19 -133.2"/><text x="717.19" y="-144.8" font-family="Times,serif" font-size="14" text-anchor="middle">तृतीया_तत्पुरुषः</text></g></g></svg>