<?xml version="1.0" encoding="UTF-8" standalone="no"?>
<!DOCTYPE svg PUBLIC "-//W3C//DTD SVG 1.1//EN"
 "http://www.w3.org/Graphics/SVG/1.1/DTD/svg11.dtd">
<!-- Generated by graphviz version 2.43.0 (0)
 -->
<!-- Title: G Pages: 1 -->
<svg width="1444pt" height="234pt"
 viewBox="0.00 0.00 1443.95 234.00" xmlns="http://www.w3.org/2000/svg" xmlns:xlink="http://www.w3.org/1999/xlink">
<g id="graph0" class="graph" transform="scale(1 1) rotate(0) translate(4 230)">
<title>G</title>
<polygon fill="#fffacd" stroke="transparent" points="-4,4 -4,-230 1439.95,-230 1439.95,4 -4,4"/>
<g id="clust1" class="cluster">
<title>cluster_1</title>
<polygon fill="#fffacd" stroke="black" points="391.95,-8 391.95,-147 696.95,-147 696.95,-8 391.95,-8"/>
</g>
<!-- Node9_1 -->
<g id="node1" class="node">
<title>Node9_1</title>
<ellipse fill="#00bfff" stroke="#00bfff" cx="609.95" cy="-34" rx="78.79" ry="18"/>
<text text-anchor="middle" x="609.95" y="-30.3" font-family="Times,serif" font-size="14.00">सर्वे(9.1)</text>
</g>
<!-- Node11_2 -->
<g id="node2" class="node">
<title>Node11_2</title>
<ellipse fill="#00bfff" stroke="#00bfff" cx="493.95" cy="-121" rx="93.68" ry="18"/>
<text text-anchor="middle" x="493.95" y="-117.3" font-family="Times,serif" font-size="14.00">वानराः(11.2)</text>
</g>
<!-- Node9_1&#45;&gt;Node11_2 -->
<g id="edge10" class="edge">
<title>Node9_1&#45;&gt;Node11_2</title>
<path fill="none" stroke="black" d="M584.77,-58.33C574.85,-67.08 563.16,-76.87 551.95,-85 542.8,-91.63 532.36,-98.2 522.88,-103.84"/>
<polygon fill="black" stroke="black" points="587.19,-60.86 592.31,-51.58 582.52,-55.64 587.19,-60.86"/>
<text text-anchor="middle" x="627.45" y="-73.8" font-family="Times,serif" font-size="14.00">विशेषणम्</text>
</g>
<!-- Node8_1 -->
<g id="node12" class="node">
<title>Node8_1</title>
<ellipse fill="#ff1975" stroke="#ff1975" cx="261.95" cy="-208" rx="124.58" ry="18"/>
<text text-anchor="middle" x="261.95" y="-204.3" font-family="Times,serif" font-size="14.00">विनश्येयुः(8.1)</text>
</g>
<!-- Node11_2&#45;&gt;Node8_1 -->
<g id="edge13" class="edge">
<title>Node11_2&#45;&gt;Node8_1</title>
<path fill="none" stroke="black" d="M456.55,-143.23C438.37,-152.94 415.95,-164.03 394.95,-172 373.51,-180.13 349.45,-187.08 327.75,-192.6"/>
<polygon fill="black" stroke="black" points="458.52,-146.15 465.65,-138.3 455.19,-139.99 458.52,-146.15"/>
<text text-anchor="middle" x="463.95" y="-160.8" font-family="Times,serif" font-size="14.00">कर्ता</text>
</g>
<!-- Node10_1 -->
<g id="node3" class="node">
<title>Node10_1</title>
<ellipse fill="#00bfff" stroke="#00bfff" cx="456.95" cy="-34" rx="56.59" ry="18"/>
<text text-anchor="middle" x="456.95" y="-30.3" font-family="Times,serif" font-size="14.00">ते(10.1)</text>
</g>
<!-- Node10_1&#45;&gt;Node11_2 -->
<g id="edge11" class="edge">
<title>Node10_1&#45;&gt;Node11_2</title>
<path fill="none" stroke="black" d="M437.83,-60.66C434.19,-68.66 432.68,-77.38 436.95,-85 441.42,-93.01 448.57,-99.4 456.3,-104.42"/>
<polygon fill="black" stroke="black" points="441.02,-62.14 442.87,-51.71 434.92,-58.71 441.02,-62.14"/>
<text text-anchor="middle" x="494.45" y="-73.8" font-family="Times,serif" font-size="14.00">विशेषणम्</text>
</g>
<!-- Node1_1 -->
<g id="node4" class="node">
<title>Node1_1</title>
<ellipse fill="#ff99ff" stroke="#ff99ff" cx="755.95" cy="-121" rx="50.89" ry="18"/>
<text text-anchor="middle" x="755.95" y="-117.3" font-family="Times,serif" font-size="14.00">इह(1.1)</text>
</g>
<!-- Node4_1 -->
<g id="node5" class="node">
<title>Node4_1</title>
<ellipse fill="#ff1975" stroke="#ff1975" cx="1006.95" cy="-208" rx="115.88" ry="18"/>
<text text-anchor="middle" x="1006.95" y="-204.3" font-family="Times,serif" font-size="14.00">वत्स्यामि(4.1)</text>
</g>
<!-- Node1_1&#45;&gt;Node4_1 -->
<g id="edge1" class="edge">
<title>Node1_1&#45;&gt;Node4_1</title>
<path fill="none" stroke="black" d="M759.6,-149.39C762.05,-157.8 766.14,-166.32 772.95,-172 792.34,-188.19 847.11,-196.9 898.79,-201.59"/>
<polygon fill="black" stroke="black" points="762.96,-148.38 757.34,-139.39 756.13,-149.92 762.96,-148.38"/>
<text text-anchor="middle" x="851.45" y="-160.8" font-family="Times,serif" font-size="14.00">देशाधिकरणम्</text>
</g>
<!-- Node2_1 -->
<g id="node6" class="node">
<title>Node2_1</title>
<ellipse fill="#ff99ff" stroke="#ff99ff" cx="933.95" cy="-121" rx="50.89" ry="18"/>
<text text-anchor="middle" x="933.95" y="-117.3" font-family="Times,serif" font-size="14.00">एव(2.1)</text>
</g>
<!-- Node2_1&#45;&gt;Node4_1 -->
<g id="edge2" class="edge">
<title>Node2_1&#45;&gt;Node4_1</title>
<path fill="none" stroke="black" d="M933.19,-149.19C934.12,-157.12 936.33,-165.41 940.95,-172 946.53,-179.97 954.5,-186.27 962.99,-191.2"/>
<polygon fill="black" stroke="black" points="936.68,-148.94 932.61,-139.16 929.7,-149.35 936.68,-148.94"/>
<text text-anchor="middle" x="998.45" y="-160.8" font-family="Times,serif" font-size="14.00">सम्बन्धः</text>
</g>
<!-- Node3_1 -->
<g id="node7" class="node">
<title>Node3_1</title>
<ellipse fill="#ffff00" stroke="#ffff00" cx="1080.95" cy="-34" rx="72.29" ry="18"/>
<text text-anchor="middle" x="1080.95" y="-30.3" font-family="Times,serif" font-size="14.00">नियत&#45;(3.1)</text>
</g>
<!-- Node3_2 -->
<g id="node8" class="node">
<title>Node3_2</title>
<ellipse fill="#00bfff" stroke="#00bfff" cx="1080.95" cy="-121" rx="78.79" ry="18"/>
<text text-anchor="middle" x="1080.95" y="-117.3" font-family="Times,serif" font-size="14.00">आहारः(3.2)</text>
</g>
<!-- Node3_1&#45;&gt;Node3_2 -->
<g id="edge3" class="edge">
<title>Node3_1&#45;&gt;Node3_2</title>
<path fill="none" stroke="black" d="M1080.95,-62.27C1080.95,-75.58 1080.95,-91.19 1080.95,-102.82"/>
<polygon fill="black" stroke="black" points="1084.45,-62.2 1080.95,-52.2 1077.45,-62.2 1084.45,-62.2"/>
<text text-anchor="middle" x="1152.45" y="-73.8" font-family="Times,serif" font-size="14.00">बहुव्रीहिः</text>
</g>
<!-- Node3_2&#45;&gt;Node4_1 -->
<g id="edge4" class="edge">
<title>Node3_2&#45;&gt;Node4_1</title>
<path fill="none" stroke="black" d="M1070.81,-148.17C1066.91,-156.32 1061.93,-165 1055.95,-172 1050.04,-178.91 1042.48,-185.17 1035.09,-190.42"/>
<polygon fill="black" stroke="black" points="1074.03,-149.53 1074.89,-138.97 1067.63,-146.7 1074.03,-149.53"/>
<text text-anchor="middle" x="1100.95" y="-160.8" font-family="Times,serif" font-size="14.00">कर्ता</text>
</g>
<!-- Node5_1 -->
<g id="node9" class="node">
<title>Node5_1</title>
<ellipse fill="#ffff00" stroke="#ffff00" cx="1292.95" cy="-34" rx="72.29" ry="18"/>
<text text-anchor="middle" x="1292.95" y="-30.3" font-family="Times,serif" font-size="14.00">नियत&#45;(5.1)</text>
</g>
<!-- Node5_2 -->
<g id="node10" class="node">
<title>Node5_2</title>
<ellipse fill="#00bfff" stroke="#00bfff" cx="1292.95" cy="-121" rx="115.88" ry="18"/>
<text text-anchor="middle" x="1292.95" y="-117.3" font-family="Times,serif" font-size="14.00">इन्द्रियः(5.2)</text>
</g>
<!-- Node5_1&#45;&gt;Node5_2 -->
<g id="edge5" class="edge">
<title>Node5_1&#45;&gt;Node5_2</title>
<path fill="none" stroke="black" d="M1292.95,-62.27C1292.95,-75.58 1292.95,-91.19 1292.95,-102.82"/>
<polygon fill="black" stroke="black" points="1296.45,-62.2 1292.95,-52.2 1289.45,-62.2 1296.45,-62.2"/>
<text text-anchor="middle" x="1364.45" y="-73.8" font-family="Times,serif" font-size="14.00">बहुव्रीहिः</text>
</g>
<!-- Node5_2&#45;&gt;Node4_1 -->
<g id="edge6" class="edge">
<title>Node5_2&#45;&gt;Node4_1</title>
<path fill="none" stroke="black" d="M1238.46,-140.84C1209.61,-150.58 1173.5,-162.4 1140.95,-172 1116.5,-179.21 1089.32,-186.45 1065.87,-192.45"/>
<polygon fill="black" stroke="black" points="1239.6,-144.14 1247.95,-137.62 1237.35,-137.51 1239.6,-144.14"/>
<text text-anchor="middle" x="1308.45" y="-160.8" font-family="Times,serif" font-size="14.00">कर्तृसमानाधिकरणम्</text>
</g>
<!-- Node6_1 -->
<g id="node11" class="node">
<title>Node6_1</title>
<ellipse fill="#ff99ff" stroke="#ff99ff" cx="261.95" cy="-121" rx="41.69" ry="18"/>
<text text-anchor="middle" x="261.95" y="-117.3" font-family="Times,serif" font-size="14.00">न(6.1)</text>
</g>
<!-- Node6_1&#45;&gt;Node8_1 -->
<g id="edge7" class="edge">
<title>Node6_1&#45;&gt;Node8_1</title>
<path fill="none" stroke="black" d="M261.95,-149.27C261.95,-162.58 261.95,-178.19 261.95,-189.82"/>
<polygon fill="black" stroke="black" points="265.45,-149.2 261.95,-139.2 258.45,-149.2 265.45,-149.2"/>
<text text-anchor="middle" x="326.45" y="-160.8" font-family="Times,serif" font-size="14.00">प्रतिषेधः</text>
</g>
<!-- Node7_1 -->
<g id="node13" class="node">
<title>Node7_1</title>
<ellipse fill="#87ceeb" stroke="#87ceeb" cx="53.95" cy="-34" rx="53.89" ry="18"/>
<text text-anchor="middle" x="53.95" y="-30.3" font-family="Times,serif" font-size="14.00">मम&#45;(7.1)</text>
</g>
<!-- Node7_2 -->
<g id="node14" class="node">
<title>Node7_2</title>
<ellipse fill="#ff99ff" stroke="#ff99ff" cx="93.95" cy="-121" rx="69.59" ry="18"/>
<text text-anchor="middle" x="93.95" y="-117.3" font-family="Times,serif" font-size="14.00">कृते(7.2)</text>
</g>
<!-- Node7_1&#45;&gt;Node7_2 -->
<g id="edge8" class="edge">
<title>Node7_1&#45;&gt;Node7_2</title>
<path fill="none" stroke="black" d="M50.56,-62.62C50.67,-70.16 51.8,-78.13 54.95,-85 58.28,-92.28 63.93,-98.69 69.91,-103.97"/>
<polygon fill="black" stroke="black" points="54.07,-62.56 50.97,-52.42 47.07,-62.27 54.07,-62.56"/>
<text text-anchor="middle" x="158.45" y="-73.8" font-family="Times,serif" font-size="14.00">षष्ठी_तत्पुरुषः</text>
</g>
<!-- Node7_2&#45;&gt;Node8_1 -->
<g id="edge9" class="edge">
<title>Node7_2&#45;&gt;Node8_1</title>
<path fill="none" stroke="black" d="M130.4,-142.54C147.18,-151.8 167.43,-162.72 185.95,-172 198.67,-178.38 212.79,-185 225.37,-190.75"/>
<polygon fill="black" stroke="black" points="131.91,-139.37 121.47,-137.58 128.52,-145.49 131.91,-139.37"/>
<text text-anchor="middle" x="221.95" y="-160.8" font-family="Times,serif" font-size="14.00">हेतुः</text>
</g>
<!-- Node11_1 -->
<g id="node15" class="node">
<title>Node11_1</title>
<ellipse fill="#ffff00" stroke="#ffff00" cx="283.95" cy="-34" rx="59.59" ry="18"/>
<text text-anchor="middle" x="283.95" y="-30.3" font-family="Times,serif" font-size="14.00">नर&#45;(11.1)</text>
</g>
<!-- Node11_1&#45;&gt;Node11_2 -->
<g id="edge12" class="edge">
<title>Node11_1&#45;&gt;Node11_2</title>
<path fill="none" stroke="black" d="M287.7,-62.27C290.16,-70.67 294.23,-79.21 300.95,-85 317.42,-99.2 365.52,-107.94 409.57,-113.14"/>
<polygon fill="black" stroke="black" points="291.06,-61.26 285.42,-52.29 284.24,-62.82 291.06,-61.26"/>
<text text-anchor="middle" x="365.45" y="-73.8" font-family="Times,serif" font-size="14.00">द्वन्द्वः</text>
</g>
</g>
</svg>
