<svg xmlns="http://www.w3.org/2000/svg" xmlns:xlink="http://www.w3.org/1999/xlink" width="2056pt" height="479pt" viewBox="0 0 2055.7 479"><g id="graph0" class="graph" transform="scale(1 1) rotate(0) translate(4 475)"><title>G</title><polygon fill="#fffacd" stroke="transparent" points="-4 4 -4 -475 2051.7 -475 2051.7 4 -4 4"/><g id="clust1" class="cluster"><title>cluster_1</title><polygon fill="#fffacd" stroke="#000" points="1026.7 -79 1026.7 -218 1680.7 -218 1680.7 -79 1026.7 -79"/></g><g id="clust2" class="cluster"><title>cluster_2</title><polygon fill="#fffacd" stroke="#000" points="702.7 -253 702.7 -392 1200.7 -392 1200.7 -253 702.7 -253"/></g><g id="node1" class="node"><title>Node1_1</title><ellipse cx="1556.7" cy="-105" fill="#40e0d0" stroke="#40e0d0" rx="115.88" ry="18"/><text x="1556.7" y="-101.3" font-family="Times,serif" font-size="14" text-anchor="middle">क्षुद्रेण(1.1)</text></g><g id="node2" class="node"><title>Node4_4</title><ellipse cx="1260.7" cy="-192" fill="#40e0d0" stroke="#40e0d0" rx="87.99" ry="18"/><text x="1260.7" y="-188.3" font-family="Times,serif" font-size="14" text-anchor="middle">धारिणा(4.4)</text></g><g id="edge1" class="edge"><title>Node1_1-&gt;Node4_4</title><path fill="none" stroke="#000" d="M1510.01,-126.03C1485.53,-136.01 1454.84,-147.68 1426.7,-156 1393.79,-165.73 1356.46,-173.85 1325.54,-179.81"/><polygon fill="#000" stroke="#000" points="1511.5 -129.2 1519.41 -122.16 1508.83 -122.73 1511.5 -129.2"/><text x="1527.2" y="-144.8" font-family="Times,serif" font-size="14" text-anchor="middle">विशेषणम्</text></g><g id="node5" class="node"><title>Node5_2</title><ellipse cx="1095.7" cy="-279" fill="#00bfff" stroke="#00bfff" rx="96.68" ry="18"/><text x="1095.7" y="-275.3" font-family="Times,serif" font-size="14" text-anchor="middle">अभिभूता(5.2)</text></g><g id="edge8" class="edge"><title>Node4_4-&gt;Node5_2</title><path fill="none" stroke="#000" d="M1238.25,-216.98C1228.64,-226.14 1216.83,-236.05 1204.7,-243 1188.83,-252.08 1170.28,-259.16 1153.04,-264.49"/><polygon fill="#000" stroke="#000" points="1240.81 -219.37 1245.46 -209.86 1235.89 -214.4 1240.81 -219.37"/><text x="1260.7" y="-231.8" font-family="Times,serif" font-size="14" text-anchor="middle">कर्ता</text></g><g id="node3" class="node"><title>Node2_1</title><ellipse cx="1344.7" cy="-105" fill="#40e0d0" stroke="#40e0d0" rx="78.79" ry="18"/><text x="1344.7" y="-101.3" font-family="Times,serif" font-size="14" text-anchor="middle">हीनेन(2.1)</text></g><g id="edge2" class="edge"><title>Node2_1-&gt;Node4_4</title><path fill="none" stroke="#000" d="M1320.76,-130.22C1306.85,-144.3 1289.67,-161.68 1277.26,-174.24"/><polygon fill="#000" stroke="#000" points="1323.56 -132.37 1328.1 -122.79 1318.58 -127.45 1323.56 -132.37"/><text x="1365.2" y="-144.8" font-family="Times,serif" font-size="14" text-anchor="middle">विशेषणम्</text></g><g id="node4" class="node"><title>Node3_2</title><ellipse cx="1141.7" cy="-105" fill="#40e0d0" stroke="#40e0d0" rx="106.68" ry="18"/><text x="1141.7" y="-101.3" font-family="Times,serif" font-size="14" text-anchor="middle">मूर्तिना(3.2)</text></g><g id="edge4" class="edge"><title>Node3_2-&gt;Node4_4</title><path fill="none" stroke="#000" d="M1156.28,-131.79C1162.09,-140.34 1169.38,-149.37 1177.7,-156 1188.46,-164.58 1201.63,-171.39 1214.28,-176.65"/><polygon fill="#000" stroke="#000" points="1159.12 -129.71 1150.79 -123.16 1153.21 -133.47 1159.12 -129.71"/><text x="1235.2" y="-144.8" font-family="Times,serif" font-size="14" text-anchor="middle">विशेषणम्</text></g><g id="node6" class="node"><title>Node8_1</title><ellipse cx="862.7" cy="-366" fill="#00bfff" stroke="#00bfff" rx="106.68" ry="18"/><text x="862.7" y="-362.3" font-family="Times,serif" font-size="14" text-anchor="middle">तपस्विनी(8.1)</text></g><g id="edge10" class="edge"><title>Node5_2-&gt;Node8_1</title><path fill="none" stroke="#000" d="M1065.19,-302.43C1050.79,-312.12 1033,-322.85 1015.7,-330 991.01,-340.2 962.81,-347.71 937.39,-353.11"/><polygon fill="#000" stroke="#000" points="1067.44 -305.13 1073.69 -296.58 1063.47 -299.37 1067.44 -305.13"/><text x="1100.2" y="-318.8" font-family="Times,serif" font-size="14" text-anchor="middle">विशेषणम्</text></g><g id="node15" class="node"><title>Node15_1</title><ellipse cx="411.7" cy="-453" fill="#ff1975" stroke="#ff1975" rx="84.49" ry="18"/><text x="411.7" y="-449.3" font-family="Times,serif" font-size="14" text-anchor="middle">भवेत्(15.1)</text></g><g id="edge13" class="edge"><title>Node8_1-&gt;Node15_1</title><path fill="none" stroke="#000" d="M823.9,-388.18C803.09,-398.58 776.65,-410.28 751.7,-417 666.46,-439.94 565.49,-448.04 495.84,-450.8"/><polygon fill="#000" stroke="#000" points="825.73 -391.18 833.04 -383.52 822.54 -384.94 825.73 -391.18"/><text x="828.7" y="-405.8" font-family="Times,serif" font-size="14" text-anchor="middle">कर्ता</text></g><g id="node7" class="node"><title>Node7_1</title><ellipse cx="911.7" cy="-279" fill="#00bfff" stroke="#00bfff" rx="69.59" ry="18"/><text x="911.7" y="-275.3" font-family="Times,serif" font-size="14" text-anchor="middle">अबला(7.1)</text></g><g id="edge12" class="edge"><title>Node7_1-&gt;Node8_1</title><path fill="none" stroke="#000" d="M900.19,-306.14C896.48,-313.96 892.15,-322.46 887.7,-330 884.12,-336.04 879.8,-342.37 875.77,-347.95"/><polygon fill="#000" stroke="#000" points="903.38 -307.59 904.4 -297.04 897.03 -304.65 903.38 -307.59"/><text x="954.2" y="-318.8" font-family="Times,serif" font-size="14" text-anchor="middle">विशेषणम्</text></g><g id="node8" class="node"><title>Node14_1</title><ellipse cx="767.7" cy="-279" fill="#00bfff" stroke="#00bfff" rx="56.59" ry="18"/><text x="767.7" y="-275.3" font-family="Times,serif" font-size="14" text-anchor="middle">सा(14.1)</text></g><g id="edge19" class="edge"><title>Node14_1-&gt;Node8_1</title><path fill="none" stroke="#000" d="M762.71,-307.31C762.65,-315.24 764.08,-323.5 768.7,-330 775.55,-339.66 785.39,-346.65 796.16,-351.72"/><polygon fill="#000" stroke="#000" points="766.2 -307.49 763.5 -297.25 759.23 -306.94 766.2 -307.49"/><text x="826.2" y="-318.8" font-family="Times,serif" font-size="14" text-anchor="middle">विशेषणम्</text></g><g id="node9" class="node"><title>Node3_1</title><ellipse cx="1146.7" cy="-18" fill="#ff0" stroke="#ff0" rx="81.49" ry="18"/><text x="1146.7" y="-14.3" font-family="Times,serif" font-size="14" text-anchor="middle">नृशंस-(3.1)</text></g><g id="edge3" class="edge"><title>Node3_1-&gt;Node3_2</title><path fill="none" stroke="#000" d="M1145.09,-46.27C1144.31,-59.58 1143.39,-75.19 1142.71,-86.82"/><polygon fill="#000" stroke="#000" points="1148.59 -46.39 1145.68 -36.2 1141.6 -45.98 1148.59 -46.39"/><text x="1179.7" y="-57.8" font-family="Times,serif" font-size="14" text-anchor="middle">समासः</text></g><g id="node10" class="node"><title>Node4_1</title><ellipse cx="902.7" cy="-18" fill="#ff0" stroke="#ff0" rx="100.18" ry="18"/><text x="902.7" y="-14.3" font-family="Times,serif" font-size="14" text-anchor="middle">सुदारुण-(4.1)</text></g><g id="node11" class="node"><title>Node4_2</title><ellipse cx="907.7" cy="-105" fill="#ff0" stroke="#ff0" rx="100.18" ry="18"/><text x="907.7" y="-101.3" font-family="Times,serif" font-size="14" text-anchor="middle">अलङ्कृत-(4.2)</text></g><g id="edge5" class="edge"><title>Node4_1-&gt;Node4_2</title><path fill="none" stroke="#000" d="M904.3,-46.27C905.08,-59.58 906,-75.19 906.69,-86.82"/><polygon fill="#000" stroke="#000" points="907.79 -45.98 903.71 -36.2 900.8 -46.39 907.79 -45.98"/><text x="1016.2" y="-57.8" font-family="Times,serif" font-size="14" text-anchor="middle">सप्तमी_तत्पुरुषः</text></g><g id="edge6" class="edge"><title>Node4_2-&gt;Node4_4</title><path fill="none" stroke="#000" d="M946.19,-127.17C966.34,-137.37 991.75,-148.91 1015.7,-156 1068.95,-171.76 1130.88,-180.53 1179.15,-185.35"/><polygon fill="#000" stroke="#000" points="947.53 -123.92 937.04 -122.44 944.32 -130.14 947.53 -123.92"/><text x="1087.2" y="-144.8" font-family="Times,serif" font-size="14" text-anchor="middle">बहुव्रीहिः</text></g><g id="node12" class="node"><title>Node4_3</title><ellipse cx="1753.7" cy="-105" fill="#ff0" stroke="#ff0" rx="63.09" ry="18"/><text x="1753.7" y="-101.3" font-family="Times,serif" font-size="14" text-anchor="middle">वेष-(4.3)</text></g><g id="edge7" class="edge"><title>Node4_3-&gt;Node4_4</title><path fill="none" stroke="#000" d="M1706.47,-122.9C1673.8,-133.95 1629.1,-147.8 1588.7,-156 1506.48,-172.69 1410.94,-181.74 1344.26,-186.43"/><polygon fill="#000" stroke="#000" points="1707.87 -126.12 1716.2 -119.57 1705.61 -119.49 1707.87 -126.12"/><text x="1744.2" y="-144.8" font-family="Times,serif" font-size="14" text-anchor="middle">उपपद_तत्पुरुषः</text></g><g id="node13" class="node"><title>Node5_1</title><ellipse cx="964.7" cy="-192" fill="#ff0" stroke="#ff0" rx="53.89" ry="18"/><text x="964.7" y="-188.3" font-family="Times,serif" font-size="14" text-anchor="middle">बल-(5.1)</text></g><g id="edge9" class="edge"><title>Node5_1-&gt;Node5_2</title><path fill="none" stroke="#000" d="M970.14,-220.21C972.98,-228.46 977.25,-236.94 983.7,-243 995.26,-253.89 1010.18,-261.4 1025.33,-266.57"/><polygon fill="#000" stroke="#000" points="973.46 -219.09 967.36 -210.43 966.73 -221.01 973.46 -219.09"/><text x="1094.2" y="-231.8" font-family="Times,serif" font-size="14" text-anchor="middle">तृतीया_तत्पुरुषः</text></g><g id="node14" class="node"><title>Node6_1</title><ellipse cx="50.7" cy="-366" fill="#f9f" stroke="#f9f" rx="50.89" ry="18"/><text x="50.7" y="-362.3" font-family="Times,serif" font-size="14" text-anchor="middle">हि(6.1)</text></g><g id="edge11" class="edge"><title>Node6_1-&gt;Node15_1</title><path fill="none" stroke="#000" d="M58.31,-393.85C62.13,-402.59 67.69,-411.46 75.7,-417 115.12,-444.29 241.24,-451 327.23,-452.28"/><polygon fill="#000" stroke="#000" points="61.49 -392.36 54.71 -384.22 54.93 -394.81 61.49 -392.36"/><text x="133.2" y="-405.8" font-family="Times,serif" font-size="14" text-anchor="middle">सम्बन्धः</text></g><g id="node16" class="node"><title>Node9_1</title><ellipse cx="188.7" cy="-366" fill="#f9f" stroke="#f9f" rx="69.59" ry="18"/><text x="188.7" y="-362.3" font-family="Times,serif" font-size="14" text-anchor="middle">कथम्(9.1)</text></g><g id="edge14" class="edge"><title>Node9_1-&gt;Node15_1</title><path fill="none" stroke="#000" d="M191.84,-394.28C194.13,-402.68 198.04,-411.23 204.7,-417 223.63,-433.41 281.94,-442.29 331.87,-447"/><polygon fill="#000" stroke="#000" points="195.23 -393.39 189.77 -384.31 188.37 -394.81 195.23 -393.39"/><text x="304.7" y="-405.8" font-family="Times,serif" font-size="14" text-anchor="middle">क्रियाविशेषणम्</text></g><g id="node17" class="node"><title>Node10_1</title><ellipse cx="188.7" cy="-279" fill="#f9f" stroke="#f9f" rx="56.59" ry="18"/><text x="188.7" y="-275.3" font-family="Times,serif" font-size="14" text-anchor="middle">नु(10.1)</text></g><g id="edge15" class="edge"><title>Node10_1-&gt;Node9_1</title><path fill="none" stroke="#000" d="M188.7,-307.27C188.7,-320.58 188.7,-336.19 188.7,-347.82"/><polygon fill="#000" stroke="#000" points="192.2 -307.2 188.7 -297.2 185.2 -307.2 192.2 -307.2"/><text x="246.2" y="-318.8" font-family="Times,serif" font-size="14" text-anchor="middle">सम्बन्धः</text></g><g id="node18" class="node"><title>Node11_1</title><ellipse cx="1861.7" cy="-18" fill="#87ceeb" stroke="#87ceeb" rx="56.59" ry="18"/><text x="1861.7" y="-14.3" font-family="Times,serif" font-size="14" text-anchor="middle">मे(11.1)</text></g><g id="node19" class="node"><title>Node12_2</title><ellipse cx="1861.7" cy="-105" fill="#d3d3d3" stroke="#000" rx="27" ry="18"/></g><g id="edge16" class="edge"><title>Node11_1-&gt;Node12_2</title><path fill="none" stroke="#000" d="M1861.7,-46.27C1861.7,-59.58 1861.7,-75.19 1861.7,-86.82"/><polygon fill="#000" stroke="#000" points="1865.2 -46.2 1861.7 -36.2 1858.2 -46.2 1865.2 -46.2"/><text x="1954.7" y="-57.8" font-family="Times,serif" font-size="14" text-anchor="middle">षष्ठीसम्बन्धः</text></g><g id="node20" class="node"><title>Node12_1</title><ellipse cx="404.7" cy="-366" fill="#c6e2eb" stroke="#c6e2eb" rx="121.58" ry="18"/><text x="404.7" y="-362.3" font-family="Times,serif" font-size="14" text-anchor="middle">दृष्टिपथे(12.1)</text></g><g id="edge17" class="edge"><title>Node12_1-&gt;Node15_1</title><path fill="none" stroke="#000" d="M406.94,-394.27C408.04,-407.58 409.32,-423.19 410.28,-434.82"/><polygon fill="#000" stroke="#000" points="410.42 -393.88 406.11 -384.2 403.44 -394.45 410.42 -393.88"/><text x="487.2" y="-405.8" font-family="Times,serif" font-size="14" text-anchor="middle">देशाधिकरणम्</text></g><g id="node21" class="node"><title>Node13_1</title><ellipse cx="619.7" cy="-366" fill="#f9f" stroke="#f9f" rx="75.29" ry="18"/><text x="619.7" y="-362.3" font-family="Times,serif" font-size="14" text-anchor="middle">अद्य(13.1)</text></g><g id="edge18" class="edge"><title>Node13_1-&gt;Node15_1</title><path fill="none" stroke="#000" d="M600.5,-391.47C592,-400.76 581.3,-410.63 569.7,-417 544.32,-430.92 513.79,-439.3 486.36,-444.35"/><polygon fill="#000" stroke="#000" points="603.17 -393.73 607.09 -383.88 597.88 -389.13 603.17 -393.73"/><text x="669.2" y="-405.8" font-family="Times,serif" font-size="14" text-anchor="middle">कालाधिकरणम्</text></g></g></svg>