<?xml version="1.0" encoding="UTF-8" standalone="no"?>
<!DOCTYPE svg PUBLIC "-//W3C//DTD SVG 1.1//EN"
 "http://www.w3.org/Graphics/SVG/1.1/DTD/svg11.dtd">
<!-- Generated by graphviz version 2.43.0 (0)
 -->
<!-- Title: G Pages: 1 -->
<svg width="2923pt" height="408pt"
 viewBox="0.00 0.00 2922.84 408.00" xmlns="http://www.w3.org/2000/svg" xmlns:xlink="http://www.w3.org/1999/xlink">
<g id="graph0" class="graph" transform="scale(1 1) rotate(0) translate(4 404)">
<title>G</title>
<polygon fill="#fffacd" stroke="transparent" points="-4,4 -4,-404 2918.84,-404 2918.84,4 -4,4"/>
<g id="clust1" class="cluster">
<title>cluster_1</title>
<polygon fill="#fffacd" stroke="black" points="321.84,-182 321.84,-321 1094.84,-321 1094.84,-182 321.84,-182"/>
</g>
<g id="clust2" class="cluster">
<title>cluster_2</title>
<polygon fill="#fffacd" stroke="black" points="1136.84,-8 1136.84,-147 1358.84,-147 1358.84,-8 1136.84,-8"/>
</g>
<g id="clust3" class="cluster">
<title>cluster_3</title>
<polygon fill="#fffacd" stroke="black" points="2112.84,-8 2112.84,-147 2390.84,-147 2390.84,-8 2112.84,-8"/>
</g>
<!-- Node3_2 -->
<g id="node1" class="node">
<title>Node3_2</title>
<ellipse fill="#00bfff" stroke="#00bfff" cx="408.84" cy="-208" rx="78.79" ry="18"/>
<text text-anchor="middle" x="408.84" y="-204.3" font-family="Times,serif" font-size="14.00">बहुला(3.2)</text>
</g>
<!-- Node6_2 -->
<g id="node2" class="node">
<title>Node6_2</title>
<ellipse fill="#00bfff" stroke="#00bfff" cx="523.84" cy="-295" rx="78.79" ry="18"/>
<text text-anchor="middle" x="523.84" y="-291.3" font-family="Times,serif" font-size="14.00">वनिका(6.2)</text>
</g>
<!-- Node3_2&#45;&gt;Node6_2 -->
<g id="edge4" class="edge">
<title>Node3_2&#45;&gt;Node6_2</title>
<path fill="none" stroke="black" d="M426.85,-233.89C433.96,-242.57 442.63,-251.9 451.84,-259 462.08,-266.89 474.38,-273.67 485.9,-279.1"/>
<polygon fill="black" stroke="black" points="429.48,-231.57 420.55,-225.86 423.97,-235.89 429.48,-231.57"/>
<text text-anchor="middle" x="509.34" y="-247.8" font-family="Times,serif" font-size="14.00">विशेषणम्</text>
</g>
<!-- Node4_1 -->
<g id="node11" class="node">
<title>Node4_1</title>
<ellipse fill="#ff1975" stroke="#ff1975" cx="262.84" cy="-382" rx="106.68" ry="18"/>
<text text-anchor="middle" x="262.84" y="-378.3" font-family="Times,serif" font-size="14.00">भविष्यति(4.1)</text>
</g>
<!-- Node6_2&#45;&gt;Node4_1 -->
<g id="edge8" class="edge">
<title>Node6_2&#45;&gt;Node4_1</title>
<path fill="none" stroke="black" d="M474.56,-314.07C447.34,-323.87 412.85,-335.99 381.84,-346 360.12,-353.01 335.98,-360.22 315.16,-366.26"/>
<polygon fill="black" stroke="black" points="476.03,-317.26 484.25,-310.57 473.65,-310.68 476.03,-317.26"/>
<text text-anchor="middle" x="461.84" y="-334.8" font-family="Times,serif" font-size="14.00">कर्ता</text>
</g>
<!-- Node5_2 -->
<g id="node3" class="node">
<title>Node5_2</title>
<ellipse fill="#00bfff" stroke="#00bfff" cx="776.84" cy="-208" rx="78.79" ry="18"/>
<text text-anchor="middle" x="776.84" y="-204.3" font-family="Times,serif" font-size="14.00">आकुला(5.2)</text>
</g>
<!-- Node5_2&#45;&gt;Node6_2 -->
<g id="edge6" class="edge">
<title>Node5_2&#45;&gt;Node6_2</title>
<path fill="none" stroke="black" d="M747.57,-231.47C733.51,-241.26 716.01,-252.07 698.84,-259 665.23,-272.57 625.78,-281.05 592.86,-286.25"/>
<polygon fill="black" stroke="black" points="749.75,-234.21 755.85,-225.54 745.68,-228.51 749.75,-234.21"/>
<text text-anchor="middle" x="786.34" y="-247.8" font-family="Times,serif" font-size="14.00">विशेषणम्</text>
</g>
<!-- Node7_1 -->
<g id="node4" class="node">
<title>Node7_1</title>
<ellipse fill="#00bfff" stroke="#00bfff" cx="592.84" cy="-208" rx="87.99" ry="18"/>
<text text-anchor="middle" x="592.84" y="-204.3" font-family="Times,serif" font-size="14.00">पुण्या(7.1)</text>
</g>
<!-- Node7_1&#45;&gt;Node6_2 -->
<g id="edge9" class="edge">
<title>Node7_1&#45;&gt;Node6_2</title>
<path fill="none" stroke="black" d="M584.06,-235.76C580.69,-243.72 576.3,-252.14 570.84,-259 565.14,-266.16 557.63,-272.61 550.3,-277.97"/>
<polygon fill="black" stroke="black" points="587.34,-236.99 587.68,-226.41 580.81,-234.47 587.34,-236.99"/>
<text text-anchor="middle" x="637.34" y="-247.8" font-family="Times,serif" font-size="14.00">विशेषणम्</text>
</g>
<!-- Node8_3 -->
<g id="node5" class="node">
<title>Node8_3</title>
<ellipse fill="#00bfff" stroke="#00bfff" cx="979.84" cy="-208" rx="106.68" ry="18"/>
<text text-anchor="middle" x="979.84" y="-204.3" font-family="Times,serif" font-size="14.00">संस्कृता(8.3)</text>
</g>
<!-- Node8_3&#45;&gt;Node6_2 -->
<g id="edge12" class="edge">
<title>Node8_3&#45;&gt;Node6_2</title>
<path fill="none" stroke="black" d="M935.47,-229.05C910.27,-239.61 877.85,-251.82 847.84,-259 764.75,-278.88 666.96,-287.48 600.71,-291.2"/>
<polygon fill="black" stroke="black" points="936.93,-232.23 944.76,-225.1 934.19,-225.79 936.93,-232.23"/>
<text text-anchor="middle" x="954.34" y="-247.8" font-family="Times,serif" font-size="14.00">विशेषणम्</text>
</g>
<!-- Node12_1 -->
<g id="node6" class="node">
<title>Node12_1</title>
<ellipse fill="#00bfff" stroke="#00bfff" cx="1247.84" cy="-34" rx="102.88" ry="18"/>
<text text-anchor="middle" x="1247.84" y="-30.3" font-family="Times,serif" font-size="14.00">विहिताः(12.1)</text>
</g>
<!-- Node9_1 -->
<g id="node7" class="node">
<title>Node9_1</title>
<ellipse fill="#00bfff" stroke="#00bfff" cx="1246.84" cy="-121" rx="96.68" ry="18"/>
<text text-anchor="middle" x="1246.84" y="-117.3" font-family="Times,serif" font-size="14.00">रक्षिणः(9.1)</text>
</g>
<!-- Node12_1&#45;&gt;Node9_1 -->
<g id="edge16" class="edge">
<title>Node12_1&#45;&gt;Node9_1</title>
<path fill="none" stroke="black" d="M1247.52,-62.27C1247.36,-75.58 1247.18,-91.19 1247.04,-102.82"/>
<polygon fill="black" stroke="black" points="1251.02,-62.24 1247.64,-52.2 1244.02,-62.16 1251.02,-62.24"/>
<text text-anchor="middle" x="1304.34" y="-73.8" font-family="Times,serif" font-size="14.00">विशेषणम्</text>
</g>
<!-- Node14_1 -->
<g id="node18" class="node">
<title>Node14_1</title>
<ellipse fill="#ff1975" stroke="#ff1975" cx="1553.84" cy="-208" rx="112.38" ry="18"/>
<text text-anchor="middle" x="1553.84" y="-204.3" font-family="Times,serif" font-size="14.00">रक्षन्ति(14.1)</text>
</g>
<!-- Node9_1&#45;&gt;Node14_1 -->
<g id="edge13" class="edge">
<title>Node9_1&#45;&gt;Node14_1</title>
<path fill="none" stroke="black" d="M1283.02,-143.12C1301.8,-153.25 1325.45,-164.73 1347.84,-172 1384.67,-183.96 1426.61,-192.03 1462.98,-197.38"/>
<polygon fill="black" stroke="black" points="1284.66,-140.03 1274.21,-138.28 1281.29,-146.17 1284.66,-140.03"/>
<text text-anchor="middle" x="1383.84" y="-160.8" font-family="Times,serif" font-size="14.00">कर्ता</text>
</g>
<!-- Node16_1 -->
<g id="node8" class="node">
<title>Node16_1</title>
<ellipse fill="#00bfff" stroke="#00bfff" cx="2251.84" cy="-34" rx="93.68" ry="18"/>
<text text-anchor="middle" x="2251.84" y="-30.3" font-family="Times,serif" font-size="14.00">भगवान्(16.1)</text>
</g>
<!-- Node18_1 -->
<g id="node9" class="node">
<title>Node18_1</title>
<ellipse fill="#00bfff" stroke="#00bfff" cx="2251.84" cy="-121" rx="130.78" ry="18"/>
<text text-anchor="middle" x="2251.84" y="-117.3" font-family="Times,serif" font-size="14.00">विश्वात्मा(18.1)</text>
</g>
<!-- Node16_1&#45;&gt;Node18_1 -->
<g id="edge20" class="edge">
<title>Node16_1&#45;&gt;Node18_1</title>
<path fill="none" stroke="black" d="M2251.84,-62.27C2251.84,-75.58 2251.84,-91.19 2251.84,-102.82"/>
<polygon fill="black" stroke="black" points="2255.34,-62.2 2251.84,-52.2 2248.34,-62.2 2255.34,-62.2"/>
<text text-anchor="middle" x="2309.34" y="-73.8" font-family="Times,serif" font-size="14.00">विशेषणम्</text>
</g>
<!-- Node21_1 -->
<g id="node25" class="node">
<title>Node21_1</title>
<ellipse fill="#ff1975" stroke="#ff1975" cx="2534.84" cy="-208" rx="112.38" ry="18"/>
<text text-anchor="middle" x="2534.84" y="-204.3" font-family="Times,serif" font-size="14.00">प्रवायति(21.1)</text>
</g>
<!-- Node18_1&#45;&gt;Node21_1 -->
<g id="edge22" class="edge">
<title>Node18_1&#45;&gt;Node21_1</title>
<path fill="none" stroke="black" d="M2300.6,-141.89C2325.79,-151.73 2357.18,-163.32 2385.84,-172 2412.67,-180.12 2442.69,-187.49 2468.72,-193.35"/>
<polygon fill="black" stroke="black" points="2301.85,-138.62 2291.26,-138.21 2299.28,-145.13 2301.85,-138.62"/>
<text text-anchor="middle" x="2421.84" y="-160.8" font-family="Times,serif" font-size="14.00">कर्ता</text>
</g>
<!-- Node1_1 -->
<g id="node10" class="node">
<title>Node1_1</title>
<ellipse fill="#ff99ff" stroke="#ff99ff" cx="96.84" cy="-295" rx="96.68" ry="18"/>
<text text-anchor="middle" x="96.84" y="-291.3" font-family="Times,serif" font-size="14.00">ध्रुवम्(1.1)</text>
</g>
<!-- Node1_1&#45;&gt;Node4_1 -->
<g id="edge1" class="edge">
<title>Node1_1&#45;&gt;Node4_1</title>
<path fill="none" stroke="black" d="M115.44,-320.78C123.33,-329.83 133.17,-339.44 143.84,-346 159.53,-355.64 178.01,-362.75 195.67,-367.94"/>
<polygon fill="black" stroke="black" points="118.12,-318.53 109.04,-313.07 112.73,-323 118.12,-318.53"/>
<text text-anchor="middle" x="201.34" y="-334.8" font-family="Times,serif" font-size="14.00">सम्बन्धः</text>
</g>
<!-- Node2_1 -->
<g id="node12" class="node">
<title>Node2_1</title>
<ellipse fill="#ff99ff" stroke="#ff99ff" cx="262.84" cy="-295" rx="50.89" ry="18"/>
<text text-anchor="middle" x="262.84" y="-291.3" font-family="Times,serif" font-size="14.00">तु(2.1)</text>
</g>
<!-- Node2_1&#45;&gt;Node4_1 -->
<g id="edge2" class="edge">
<title>Node2_1&#45;&gt;Node4_1</title>
<path fill="none" stroke="black" d="M262.84,-323.27C262.84,-336.58 262.84,-352.19 262.84,-363.82"/>
<polygon fill="black" stroke="black" points="266.34,-323.2 262.84,-313.2 259.34,-323.2 266.34,-323.2"/>
<text text-anchor="middle" x="320.34" y="-334.8" font-family="Times,serif" font-size="14.00">सम्बन्धः</text>
</g>
<!-- Node3_1 -->
<g id="node13" class="node">
<title>Node3_1</title>
<ellipse fill="#ffff00" stroke="#ffff00" cx="408.84" cy="-121" rx="81.49" ry="18"/>
<text text-anchor="middle" x="408.84" y="-117.3" font-family="Times,serif" font-size="14.00">रक्षः&#45;(3.1)</text>
</g>
<!-- Node3_1&#45;&gt;Node3_2 -->
<g id="edge3" class="edge">
<title>Node3_1&#45;&gt;Node3_2</title>
<path fill="none" stroke="black" d="M408.84,-149.27C408.84,-162.58 408.84,-178.19 408.84,-189.82"/>
<polygon fill="black" stroke="black" points="412.34,-149.2 408.84,-139.2 405.34,-149.2 412.34,-149.2"/>
<text text-anchor="middle" x="512.34" y="-160.8" font-family="Times,serif" font-size="14.00">षष्ठी_तत्पुरुषः</text>
</g>
<!-- Node5_1 -->
<g id="node14" class="node">
<title>Node5_1</title>
<ellipse fill="#ffff00" stroke="#ffff00" cx="755.84" cy="-121" rx="53.89" ry="18"/>
<text text-anchor="middle" x="755.84" y="-117.3" font-family="Times,serif" font-size="14.00">वन&#45;(5.1)</text>
</g>
<!-- Node5_1&#45;&gt;Node5_2 -->
<g id="edge5" class="edge">
<title>Node5_1&#45;&gt;Node5_2</title>
<path fill="none" stroke="black" d="M759.21,-149.28C760.4,-156.71 761.93,-164.72 763.84,-172 765.39,-177.89 767.56,-184.18 769.67,-189.77"/>
<polygon fill="black" stroke="black" points="762.66,-148.69 757.76,-139.3 755.73,-149.7 762.66,-148.69"/>
<text text-anchor="middle" x="874.34" y="-160.8" font-family="Times,serif" font-size="14.00">तृतीया_तत्पुरुषः</text>
</g>
<!-- Node6_1 -->
<g id="node15" class="node">
<title>Node6_1</title>
<ellipse fill="#ffff00" stroke="#ffff00" cx="224.84" cy="-208" rx="72.29" ry="18"/>
<text text-anchor="middle" x="224.84" y="-204.3" font-family="Times,serif" font-size="14.00">अशोक&#45;(6.1)</text>
</g>
<!-- Node6_1&#45;&gt;Node6_2 -->
<g id="edge7" class="edge">
<title>Node6_1&#45;&gt;Node6_2</title>
<path fill="none" stroke="black" d="M218.95,-236.41C218.76,-244.57 220.34,-252.94 225.84,-259 233.38,-267.31 365.69,-280.28 451.45,-287.88"/>
<polygon fill="black" stroke="black" points="222.44,-236.68 219.98,-226.37 215.48,-235.96 222.44,-236.68"/>
<text text-anchor="middle" x="329.34" y="-247.8" font-family="Times,serif" font-size="14.00">षष्ठी_तत्पुरुषः</text>
</g>
<!-- Node8_1 -->
<g id="node16" class="node">
<title>Node8_1</title>
<ellipse fill="#ffff00" stroke="#ffff00" cx="999.84" cy="-34" rx="72.29" ry="18"/>
<text text-anchor="middle" x="999.84" y="-30.3" font-family="Times,serif" font-size="14.00">सर्व&#45;(8.1)</text>
</g>
<!-- Node8_2 -->
<g id="node17" class="node">
<title>Node8_2</title>
<ellipse fill="#ffff00" stroke="#ffff00" cx="999.84" cy="-121" rx="100.18" ry="18"/>
<text text-anchor="middle" x="999.84" y="-117.3" font-family="Times,serif" font-size="14.00">संस्कार&#45;(8.2)</text>
</g>
<!-- Node8_1&#45;&gt;Node8_2 -->
<g id="edge10" class="edge">
<title>Node8_1&#45;&gt;Node8_2</title>
<path fill="none" stroke="black" d="M999.84,-62.27C999.84,-75.58 999.84,-91.19 999.84,-102.82"/>
<polygon fill="black" stroke="black" points="1003.34,-62.2 999.84,-52.2 996.34,-62.2 1003.34,-62.2"/>
<text text-anchor="middle" x="1064.34" y="-73.8" font-family="Times,serif" font-size="14.00">कर्मधारयः</text>
</g>
<!-- Node8_2&#45;&gt;Node8_3 -->
<g id="edge11" class="edge">
<title>Node8_2&#45;&gt;Node8_3</title>
<path fill="none" stroke="black" d="M993.43,-149.27C990.29,-162.58 986.62,-178.19 983.88,-189.82"/>
<polygon fill="black" stroke="black" points="996.91,-149.74 995.79,-139.2 990.1,-148.13 996.91,-149.74"/>
<text text-anchor="middle" x="1102.34" y="-160.8" font-family="Times,serif" font-size="14.00">तृतीया_तत्पुरुषः</text>
</g>
<!-- Node10_1 -->
<g id="node19" class="node">
<title>Node10_1</title>
<ellipse fill="#ff99ff" stroke="#ff99ff" cx="1413.84" cy="-121" rx="47.39" ry="18"/>
<text text-anchor="middle" x="1413.84" y="-117.3" font-family="Times,serif" font-size="14.00">च(10.1)</text>
</g>
<!-- Node10_1&#45;&gt;Node14_1 -->
<g id="edge14" class="edge">
<title>Node10_1&#45;&gt;Node14_1</title>
<path fill="none" stroke="black" d="M1420.13,-148.66C1423.3,-157.13 1427.98,-165.87 1434.84,-172 1446.48,-182.41 1461.07,-189.73 1476.01,-194.87"/>
<polygon fill="black" stroke="black" points="1423.43,-147.5 1417.07,-139.03 1416.76,-149.62 1423.43,-147.5"/>
<text text-anchor="middle" x="1492.34" y="-160.8" font-family="Times,serif" font-size="14.00">सम्बन्धः</text>
</g>
<!-- Node11_1 -->
<g id="node20" class="node">
<title>Node11_1</title>
<ellipse fill="#ff99ff" stroke="#ff99ff" cx="1554.84" cy="-121" rx="75.29" ry="18"/>
<text text-anchor="middle" x="1554.84" y="-117.3" font-family="Times,serif" font-size="14.00">अत्र(11.1)</text>
</g>
<!-- Node11_1&#45;&gt;Node14_1 -->
<g id="edge15" class="edge">
<title>Node11_1&#45;&gt;Node14_1</title>
<path fill="none" stroke="black" d="M1554.52,-149.27C1554.36,-162.58 1554.18,-178.19 1554.04,-189.82"/>
<polygon fill="black" stroke="black" points="1558.02,-149.24 1554.64,-139.2 1551.02,-149.16 1558.02,-149.24"/>
<text text-anchor="middle" x="1632.34" y="-160.8" font-family="Times,serif" font-size="14.00">देशाधिकरणम्</text>
</g>
<!-- Node13_1 -->
<g id="node21" class="node">
<title>Node13_1</title>
<ellipse fill="#ff99ff" stroke="#ff99ff" cx="1733.84" cy="-121" rx="84.49" ry="18"/>
<text text-anchor="middle" x="1733.84" y="-117.3" font-family="Times,serif" font-size="14.00">नूनम्(13.1)</text>
</g>
<!-- Node13_1&#45;&gt;Node14_1 -->
<g id="edge17" class="edge">
<title>Node13_1&#45;&gt;Node14_1</title>
<path fill="none" stroke="black" d="M1727.23,-148.96C1723.91,-157.44 1719.01,-166.12 1711.84,-172 1699.68,-181.98 1667.92,-189.93 1636.03,-195.71"/>
<polygon fill="black" stroke="black" points="1730.62,-149.86 1730.44,-139.27 1723.97,-147.66 1730.62,-149.86"/>
<text text-anchor="middle" x="1780.34" y="-160.8" font-family="Times,serif" font-size="14.00">सम्बन्धः</text>
</g>
<!-- Node15_1 -->
<g id="node22" class="node">
<title>Node15_1</title>
<ellipse fill="#ffff00" stroke="#ffff00" cx="1911.84" cy="-34" rx="68.79" ry="18"/>
<text text-anchor="middle" x="1911.84" y="-30.3" font-family="Times,serif" font-size="14.00">पाद&#45;(15.1)</text>
</g>
<!-- Node15_2 -->
<g id="node23" class="node">
<title>Node15_2</title>
<ellipse fill="#00bfff" stroke="#00bfff" cx="1911.84" cy="-121" rx="75.29" ry="18"/>
<text text-anchor="middle" x="1911.84" y="-117.3" font-family="Times,serif" font-size="14.00">पान्(15.2)</text>
</g>
<!-- Node15_1&#45;&gt;Node15_2 -->
<g id="edge18" class="edge">
<title>Node15_1&#45;&gt;Node15_2</title>
<path fill="none" stroke="black" d="M1911.84,-62.27C1911.84,-75.58 1911.84,-91.19 1911.84,-102.82"/>
<polygon fill="black" stroke="black" points="1915.34,-62.2 1911.84,-52.2 1908.34,-62.2 1915.34,-62.2"/>
<text text-anchor="middle" x="2008.34" y="-73.8" font-family="Times,serif" font-size="14.00">उपपद_तत्पुरुषः</text>
</g>
<!-- Node15_2&#45;&gt;Node14_1 -->
<g id="edge19" class="edge">
<title>Node15_2&#45;&gt;Node14_1</title>
<path fill="none" stroke="black" d="M1886.31,-144.96C1873.78,-154.93 1857.94,-165.74 1841.84,-172 1808.57,-184.93 1723.84,-194.27 1654.85,-200.03"/>
<polygon fill="black" stroke="black" points="1888.55,-147.65 1894.04,-138.59 1884.1,-142.25 1888.55,-147.65"/>
<text text-anchor="middle" x="1896.84" y="-160.8" font-family="Times,serif" font-size="14.00">कर्म</text>
</g>
<!-- Node17_1 -->
<g id="node24" class="node">
<title>Node17_1</title>
<ellipse fill="#ff99ff" stroke="#ff99ff" cx="2465.84" cy="-121" rx="65.79" ry="18"/>
<text text-anchor="middle" x="2465.84" y="-117.3" font-family="Times,serif" font-size="14.00">अपि(17.1)</text>
</g>
<!-- Node17_1&#45;&gt;Node21_1 -->
<g id="edge21" class="edge">
<title>Node17_1&#45;&gt;Node21_1</title>
<path fill="none" stroke="black" d="M2461.34,-148.98C2461.3,-156.9 2462.62,-165.24 2466.84,-172 2471.97,-180.22 2479.7,-186.6 2488.14,-191.52"/>
<polygon fill="black" stroke="black" points="2464.83,-149.21 2462.05,-138.98 2457.85,-148.71 2464.83,-149.21"/>
<text text-anchor="middle" x="2524.34" y="-160.8" font-family="Times,serif" font-size="14.00">सम्बन्धः</text>
</g>
<!-- Node19_1 -->
<g id="node26" class="node">
<title>Node19_1</title>
<ellipse fill="#ff99ff" stroke="#ff99ff" cx="2603.84" cy="-121" rx="47.39" ry="18"/>
<text text-anchor="middle" x="2603.84" y="-117.3" font-family="Times,serif" font-size="14.00">न(19.1)</text>
</g>
<!-- Node19_1&#45;&gt;Node21_1 -->
<g id="edge23" class="edge">
<title>Node19_1&#45;&gt;Node21_1</title>
<path fill="none" stroke="black" d="M2595.22,-148.39C2591.82,-156.46 2587.39,-165.04 2581.84,-172 2576.39,-178.84 2569.3,-185.04 2562.28,-190.25"/>
<polygon fill="black" stroke="black" points="2598.53,-149.53 2598.85,-138.94 2591.99,-147.02 2598.53,-149.53"/>
<text text-anchor="middle" x="2654.34" y="-160.8" font-family="Times,serif" font-size="14.00">प्रतिषेधः</text>
</g>
<!-- Node20_1 -->
<g id="node27" class="node">
<title>Node20_1</title>
<ellipse fill="#ffff00" stroke="#ffff00" cx="2771.84" cy="-34" rx="68.79" ry="18"/>
<text text-anchor="middle" x="2771.84" y="-30.3" font-family="Times,serif" font-size="14.00">अति&#45;(20.1)</text>
</g>
<!-- Node20_2 -->
<g id="node28" class="node">
<title>Node20_2</title>
<ellipse fill="#93db70" stroke="#93db70" cx="2771.84" cy="-121" rx="102.88" ry="18"/>
<text text-anchor="middle" x="2771.84" y="-117.3" font-family="Times,serif" font-size="14.00">क्षोभम्(20.2)</text>
</g>
<!-- Node20_1&#45;&gt;Node20_2 -->
<g id="edge24" class="edge">
<title>Node20_1&#45;&gt;Node20_2</title>
<path fill="none" stroke="black" d="M2771.84,-62.27C2771.84,-75.58 2771.84,-91.19 2771.84,-102.82"/>
<polygon fill="black" stroke="black" points="2775.34,-62.2 2771.84,-52.2 2768.34,-62.2 2775.34,-62.2"/>
<text text-anchor="middle" x="2843.34" y="-73.8" font-family="Times,serif" font-size="14.00">अव्ययीभावः</text>
</g>
<!-- Node20_2&#45;&gt;Node21_1 -->
<g id="edge25" class="edge">
<title>Node20_2&#45;&gt;Node21_1</title>
<path fill="none" stroke="black" d="M2752.97,-146.95C2744.71,-156.19 2734.29,-165.9 2722.84,-172 2696.18,-186.21 2664.72,-194.74 2635.24,-199.84"/>
<polygon fill="black" stroke="black" points="2755.86,-148.95 2759.64,-139.05 2750.51,-144.43 2755.86,-148.95"/>
<text text-anchor="middle" x="2770.84" y="-160.8" font-family="Times,serif" font-size="14.00">कर्म</text>
</g>
</g>
</svg>
