<?xml version="1.0" encoding="UTF-8" standalone="no"?>
<!DOCTYPE svg PUBLIC "-//W3C//DTD SVG 1.1//EN"
 "http://www.w3.org/Graphics/SVG/1.1/DTD/svg11.dtd">
<!-- Generated by graphviz version 2.43.0 (0)
 -->
<!-- Title: G Pages: 1 -->
<svg width="7411pt" height="392pt"
 viewBox="0.00 0.00 7411.00 392.00" xmlns="http://www.w3.org/2000/svg" xmlns:xlink="http://www.w3.org/1999/xlink">
<g id="graph0" class="graph" transform="scale(1 1) rotate(0) translate(4 388)">
<title>G</title>
<polygon fill="#fffacd" stroke="transparent" points="-4,4 -4,-388 7407,-388 7407,4 -4,4"/>
<g id="clust1" class="cluster">
<title>cluster_1</title>
<polygon fill="#fffacd" stroke="black" points="2315,-79 2315,-305 5711,-305 5711,-79 2315,-79"/>
</g>
<g id="clust2" class="cluster">
<title>cluster_2</title>
<polygon fill="#fffacd" stroke="black" points="8,-166 8,-305 248,-305 248,-166 8,-166"/>
</g>
<g id="clust3" class="cluster">
<title>cluster_3</title>
<polygon fill="#fffacd" stroke="black" points="5719,-79 5719,-131 5941,-131 5941,-79 5719,-79"/>
</g>
<g id="clust4" class="cluster">
<title>cluster_4</title>
<polygon fill="#fffacd" stroke="black" points="5949,-79 5949,-131 6079,-131 6079,-79 5949,-79"/>
</g>
<g id="clust5" class="cluster">
<title>cluster_5</title>
<polygon fill="#fffacd" stroke="black" points="6087,-79 6087,-131 6217,-131 6217,-79 6087,-79"/>
</g>
<g id="clust6" class="cluster">
<title>cluster_6</title>
<polygon fill="#fffacd" stroke="black" points="6225,-79 6225,-131 6409,-131 6409,-79 6225,-79"/>
</g>
<!-- Node1_1 -->
<g id="node1" class="node">
<title>Node1_1</title>
<ellipse fill="#00bfff" stroke="#00bfff" cx="2644" cy="-192" rx="96.68" ry="18"/>
<text text-anchor="middle" x="2644" y="-188.3" font-family="Times,serif" font-size="14.00">ब्रह्मा(1.1)</text>
</g>
<!-- Node4_1 -->
<g id="node2" class="node">
<title>Node4_1</title>
<ellipse fill="#00bfff" stroke="#00bfff" cx="3743" cy="-279" rx="78.79" ry="18"/>
<text text-anchor="middle" x="3743" y="-275.3" font-family="Times,serif" font-size="14.00">देवाः(4.1)</text>
</g>
<!-- Node1_1&#45;&gt;Node4_1 -->
<g id="edge1" class="edge">
<title>Node1_1&#45;&gt;Node4_1</title>
<path fill="none" stroke="black" d="M2696.32,-211.53C2730.72,-222.81 2776.97,-236.3 2819,-243 2980.8,-268.79 3472.04,-275.71 3664.48,-277.45"/>
<polygon fill="black" stroke="black" points="2697.09,-208.09 2686.5,-208.26 2694.89,-214.74 2697.09,-208.09"/>
<text text-anchor="middle" x="2883.5" y="-231.8" font-family="Times,serif" font-size="14.00">समुच्चितः</text>
</g>
<!-- Node38_1 -->
<g id="node27" class="node">
<title>Node38_1</title>
<ellipse fill="#ff1975" stroke="#ff1975" cx="1275" cy="-366" rx="121.58" ry="18"/>
<text text-anchor="middle" x="1275" y="-362.3" font-family="Times,serif" font-size="14.00">दास्यन्ति(38.1)</text>
</g>
<!-- Node4_1&#45;&gt;Node38_1 -->
<g id="edge4" class="edge">
<title>Node4_1&#45;&gt;Node38_1</title>
<path fill="none" stroke="black" d="M3655.81,-283.18C3435.08,-291.21 2836.21,-312.9 2337,-330 1993.85,-341.76 1588.3,-354.92 1392.47,-361.23"/>
<polygon fill="black" stroke="black" points="3656.17,-286.67 3666.04,-282.81 3655.91,-279.67 3656.17,-286.67"/>
<text text-anchor="middle" x="2799" y="-318.8" font-family="Times,serif" font-size="14.00">कर्ता</text>
</g>
<!-- Node2_1 -->
<g id="node3" class="node">
<title>Node2_1</title>
<ellipse fill="#00bfff" stroke="#00bfff" cx="2859" cy="-105" rx="115.88" ry="18"/>
<text text-anchor="middle" x="2859" y="-101.3" font-family="Times,serif" font-size="14.00">स्वयम्भूः(2.1)</text>
</g>
<!-- Node2_1&#45;&gt;Node1_1 -->
<g id="edge2" class="edge">
<title>Node2_1&#45;&gt;Node1_1</title>
<path fill="none" stroke="black" d="M2811.27,-126.17C2801.15,-130.79 2790.62,-135.86 2781,-141 2769.9,-146.92 2768.44,-150.76 2757,-156 2738.61,-164.42 2717.64,-171.55 2698.8,-177.12"/>
<polygon fill="black" stroke="black" points="2812.72,-129.36 2820.41,-122.06 2809.86,-122.97 2812.72,-129.36"/>
<text text-anchor="middle" x="2838.5" y="-144.8" font-family="Times,serif" font-size="14.00">विशेषणम्</text>
</g>
<!-- Node3_1 -->
<g id="node4" class="node">
<title>Node3_1</title>
<ellipse fill="#00bfff" stroke="#00bfff" cx="2638" cy="-105" rx="87.99" ry="18"/>
<text text-anchor="middle" x="2638" y="-101.3" font-family="Times,serif" font-size="14.00">भगवान्(3.1)</text>
</g>
<!-- Node3_1&#45;&gt;Node1_1 -->
<g id="edge3" class="edge">
<title>Node3_1&#45;&gt;Node1_1</title>
<path fill="none" stroke="black" d="M2639.92,-133.27C2640.86,-146.58 2641.97,-162.19 2642.79,-173.82"/>
<polygon fill="black" stroke="black" points="2643.41,-132.93 2639.21,-123.2 2636.43,-133.42 2643.41,-132.93"/>
<text text-anchor="middle" x="2699.5" y="-144.8" font-family="Times,serif" font-size="14.00">विशेषणम्</text>
</g>
<!-- Node7_1 -->
<g id="node5" class="node">
<title>Node7_1</title>
<ellipse fill="#00bfff" stroke="#00bfff" cx="5373" cy="-192" rx="106.68" ry="18"/>
<text text-anchor="middle" x="5373" y="-188.3" font-family="Times,serif" font-size="14.00">तपस्विनः(7.1)</text>
</g>
<!-- Node7_1&#45;&gt;Node4_1 -->
<g id="edge7" class="edge">
<title>Node7_1&#45;&gt;Node4_1</title>
<path fill="none" stroke="black" d="M5312.76,-210.72C5270.66,-222.24 5212.91,-236.31 5161,-243 4898.9,-276.77 4079.6,-278.52 3821.61,-278.2"/>
<polygon fill="black" stroke="black" points="5313.86,-214.05 5322.57,-208.01 5312,-207.3 5313.86,-214.05"/>
<text text-anchor="middle" x="5307.5" y="-231.8" font-family="Times,serif" font-size="14.00">समुच्चितः</text>
</g>
<!-- Node9_1 -->
<g id="node6" class="node">
<title>Node9_1</title>
<ellipse fill="#00bfff" stroke="#00bfff" cx="5161" cy="-192" rx="87.99" ry="18"/>
<text text-anchor="middle" x="5161" y="-188.3" font-family="Times,serif" font-size="14.00">अग्निः(9.1)</text>
</g>
<!-- Node9_1&#45;&gt;Node4_1 -->
<g id="edge9" class="edge">
<title>Node9_1&#45;&gt;Node4_1</title>
<path fill="none" stroke="black" d="M5104.39,-210.05C5063.12,-221.65 5005.63,-236.1 4954,-243 4734.06,-272.41 4054,-277.12 3821.71,-277.86"/>
<polygon fill="black" stroke="black" points="5105.59,-213.35 5114.26,-207.25 5103.68,-206.61 5105.59,-213.35"/>
<text text-anchor="middle" x="5092.5" y="-231.8" font-family="Times,serif" font-size="14.00">समुच्चितः</text>
</g>
<!-- Node11_1 -->
<g id="node7" class="node">
<title>Node11_1</title>
<ellipse fill="#00bfff" stroke="#00bfff" cx="4971" cy="-192" rx="84.49" ry="18"/>
<text text-anchor="middle" x="4971" y="-188.3" font-family="Times,serif" font-size="14.00">वायुः(11.1)</text>
</g>
<!-- Node11_1&#45;&gt;Node4_1 -->
<g id="edge11" class="edge">
<title>Node11_1&#45;&gt;Node4_1</title>
<path fill="none" stroke="black" d="M4910.6,-208.96C4863.64,-220.62 4796.66,-235.63 4737,-243 4560.38,-264.81 4023.76,-274.19 3821.37,-277.02"/>
<polygon fill="black" stroke="black" points="4911.46,-212.35 4920.31,-206.52 4909.76,-205.56 4911.46,-212.35"/>
<text text-anchor="middle" x="4885.5" y="-231.8" font-family="Times,serif" font-size="14.00">समुच्चितः</text>
</g>
<!-- Node13_1 -->
<g id="node8" class="node">
<title>Node13_1</title>
<ellipse fill="#00bfff" stroke="#00bfff" cx="4756" cy="-192" rx="112.38" ry="18"/>
<text text-anchor="middle" x="4756" y="-188.3" font-family="Times,serif" font-size="14.00">पुरुहूतः(13.1)</text>
</g>
<!-- Node13_1&#45;&gt;Node4_1 -->
<g id="edge13" class="edge">
<title>Node13_1&#45;&gt;Node4_1</title>
<path fill="none" stroke="black" d="M4689.94,-210.03C4642.89,-221.41 4577.99,-235.6 4520,-243 4266.17,-275.38 3962.37,-279 3821.67,-278.7"/>
<polygon fill="black" stroke="black" points="4690.81,-213.42 4699.7,-207.65 4689.15,-206.62 4690.81,-213.42"/>
<text text-anchor="middle" x="4668.5" y="-231.8" font-family="Times,serif" font-size="14.00">समुच्चितः</text>
</g>
<!-- Node15_1 -->
<g id="node9" class="node">
<title>Node15_1</title>
<ellipse fill="#00bfff" stroke="#00bfff" cx="4513" cy="-192" rx="112.38" ry="18"/>
<text text-anchor="middle" x="4513" y="-188.3" font-family="Times,serif" font-size="14.00">वज्रभृत्(15.1)</text>
</g>
<!-- Node15_1&#45;&gt;Node4_1 -->
<g id="edge15" class="edge">
<title>Node15_1&#45;&gt;Node4_1</title>
<path fill="none" stroke="black" d="M4453.67,-211.16C4414.88,-222.26 4362.89,-235.68 4316,-243 4140.96,-270.31 3932.75,-276.57 3821.82,-277.84"/>
<polygon fill="black" stroke="black" points="4455.11,-214.39 4463.74,-208.24 4453.16,-207.66 4455.11,-214.39"/>
<text text-anchor="middle" x="4451.5" y="-231.8" font-family="Times,serif" font-size="14.00">समुच्चितः</text>
</g>
<!-- Node16_1 -->
<g id="node10" class="node">
<title>Node16_1</title>
<ellipse fill="#00bfff" stroke="#00bfff" cx="4298" cy="-192" rx="84.49" ry="18"/>
<text text-anchor="middle" x="4298" y="-188.3" font-family="Times,serif" font-size="14.00">वरुणः(16.1)</text>
</g>
<!-- Node16_1&#45;&gt;Node4_1 -->
<g id="edge16" class="edge">
<title>Node16_1&#45;&gt;Node4_1</title>
<path fill="none" stroke="black" d="M4244.76,-210.58C4209.47,-221.56 4161.92,-235.07 4119,-243 4016.49,-261.93 3896.27,-270.85 3819.89,-274.89"/>
<polygon fill="black" stroke="black" points="4245.89,-213.9 4254.38,-207.56 4243.79,-207.22 4245.89,-213.9"/>
<text text-anchor="middle" x="4247.5" y="-231.8" font-family="Times,serif" font-size="14.00">समुच्चितः</text>
</g>
<!-- Node17_1 -->
<g id="node11" class="node">
<title>Node17_1</title>
<ellipse fill="#00bfff" stroke="#00bfff" cx="4083" cy="-192" rx="112.38" ry="18"/>
<text text-anchor="middle" x="4083" y="-188.3" font-family="Times,serif" font-size="14.00">पाशहस्तः(17.1)</text>
</g>
<!-- Node17_1&#45;&gt;Node4_1 -->
<g id="edge17" class="edge">
<title>Node17_1&#45;&gt;Node4_1</title>
<path fill="none" stroke="black" d="M4032.4,-212.29C4004.31,-222.47 3968.56,-234.56 3936,-243 3893.81,-253.94 3845.56,-262.69 3807.85,-268.7"/>
<polygon fill="black" stroke="black" points="4033.81,-215.5 4041.99,-208.78 4031.4,-208.93 4033.81,-215.5"/>
<text text-anchor="middle" x="4050.5" y="-231.8" font-family="Times,serif" font-size="14.00">समुच्चितः</text>
</g>
<!-- Node19_2 -->
<g id="node12" class="node">
<title>Node19_2</title>
<ellipse fill="#00bfff" stroke="#00bfff" cx="3850" cy="-192" rx="102.88" ry="18"/>
<text text-anchor="middle" x="3850" y="-188.3" font-family="Times,serif" font-size="14.00">आदित्यौ(19.2)</text>
</g>
<!-- Node19_2&#45;&gt;Node4_1 -->
<g id="edge20" class="edge">
<title>Node19_2&#45;&gt;Node4_1</title>
<path fill="none" stroke="black" d="M3820.92,-216.1C3802.83,-230.47 3780,-248.61 3763.73,-261.53"/>
<polygon fill="black" stroke="black" points="3823.21,-218.75 3828.86,-209.79 3818.85,-213.27 3823.21,-218.75"/>
<text text-anchor="middle" x="3867.5" y="-231.8" font-family="Times,serif" font-size="14.00">समुच्चितः</text>
</g>
<!-- Node23_1 -->
<g id="node13" class="node">
<title>Node23_1</title>
<ellipse fill="#00bfff" stroke="#00bfff" cx="2426" cy="-192" rx="102.88" ry="18"/>
<text text-anchor="middle" x="2426" y="-188.3" font-family="Times,serif" font-size="14.00">अश्विनौ(23.1)</text>
</g>
<!-- Node23_1&#45;&gt;Node4_1 -->
<g id="edge24" class="edge">
<title>Node23_1&#45;&gt;Node4_1</title>
<path fill="none" stroke="black" d="M2482.79,-210.91C2521.8,-222.34 2575.01,-236.24 2623,-243 2824.43,-271.36 3444.16,-276.74 3664.36,-277.76"/>
<polygon fill="black" stroke="black" points="2483.77,-207.55 2473.19,-208.06 2481.78,-214.26 2483.77,-207.55"/>
<text text-anchor="middle" x="2687.5" y="-231.8" font-family="Times,serif" font-size="14.00">समुच्चितः</text>
</g>
<!-- Node25_2 -->
<g id="node14" class="node">
<title>Node25_2</title>
<ellipse fill="#00bfff" stroke="#00bfff" cx="2426" cy="-105" rx="102.88" ry="18"/>
<text text-anchor="middle" x="2426" y="-101.3" font-family="Times,serif" font-size="14.00">आत्मानौ(25.2)</text>
</g>
<!-- Node25_2&#45;&gt;Node23_1 -->
<g id="edge27" class="edge">
<title>Node25_2&#45;&gt;Node23_1</title>
<path fill="none" stroke="black" d="M2426,-133.27C2426,-146.58 2426,-162.19 2426,-173.82"/>
<polygon fill="black" stroke="black" points="2429.5,-133.2 2426,-123.2 2422.5,-133.2 2429.5,-133.2"/>
<text text-anchor="middle" x="2483.5" y="-144.8" font-family="Times,serif" font-size="14.00">विशेषणम्</text>
</g>
<!-- Node26_1 -->
<g id="node15" class="node">
<title>Node26_1</title>
<ellipse fill="#00bfff" stroke="#00bfff" cx="3440" cy="-192" rx="84.49" ry="18"/>
<text text-anchor="middle" x="3440" y="-188.3" font-family="Times,serif" font-size="14.00">मरुतः(26.1)</text>
</g>
<!-- Node26_1&#45;&gt;Node4_1 -->
<g id="edge28" class="edge">
<title>Node26_1&#45;&gt;Node4_1</title>
<path fill="none" stroke="black" d="M3471.69,-215.19C3487.36,-225.16 3506.97,-236.2 3526,-243 3572,-259.44 3626.25,-268.19 3669,-272.83"/>
<polygon fill="black" stroke="black" points="3473.23,-212.02 3462.95,-209.48 3469.4,-217.88 3473.23,-212.02"/>
<text text-anchor="middle" x="3590.5" y="-231.8" font-family="Times,serif" font-size="14.00">समुच्चितः</text>
</g>
<!-- Node27_1 -->
<g id="node16" class="node">
<title>Node27_1</title>
<ellipse fill="#00bfff" stroke="#00bfff" cx="3253" cy="-192" rx="84.49" ry="18"/>
<text text-anchor="middle" x="3253" y="-188.3" font-family="Times,serif" font-size="14.00">शर्वः(27.1)</text>
</g>
<!-- Node27_1&#45;&gt;Node4_1 -->
<g id="edge29" class="edge">
<title>Node27_1&#45;&gt;Node4_1</title>
<path fill="none" stroke="black" d="M3289.79,-213.87C3310.14,-224.41 3336.26,-236.35 3361,-243 3463.26,-270.48 3585.86,-277.32 3664.08,-278.57"/>
<polygon fill="black" stroke="black" points="3291.35,-210.73 3280.87,-209.14 3288.07,-216.92 3291.35,-210.73"/>
<text text-anchor="middle" x="3425.5" y="-231.8" font-family="Times,serif" font-size="14.00">समुच्चितः</text>
</g>
<!-- Node32_1 -->
<g id="node17" class="node">
<title>Node32_1</title>
<ellipse fill="#00bfff" stroke="#00bfff" cx="2852" cy="-192" rx="93.68" ry="18"/>
<text text-anchor="middle" x="2852" y="-188.3" font-family="Times,serif" font-size="14.00">भूतानि(32.1)</text>
</g>
<!-- Node32_1&#45;&gt;Node4_1 -->
<g id="edge34" class="edge">
<title>Node32_1&#45;&gt;Node4_1</title>
<path fill="none" stroke="black" d="M2899.9,-211.96C2930.34,-223.11 2970.88,-236.29 3008,-243 3132.14,-265.45 3502.2,-274.09 3664.85,-276.87"/>
<polygon fill="black" stroke="black" points="2900.98,-208.63 2890.39,-208.43 2898.54,-215.19 2900.98,-208.63"/>
<text text-anchor="middle" x="3072.5" y="-231.8" font-family="Times,serif" font-size="14.00">समुच्चितः</text>
</g>
<!-- Node37_1 -->
<g id="node18" class="node">
<title>Node37_1</title>
<ellipse fill="#00bfff" stroke="#00bfff" cx="3057" cy="-192" rx="93.68" ry="18"/>
<text text-anchor="middle" x="3057" y="-188.3" font-family="Times,serif" font-size="14.00">प्रभुः(37.1)</text>
</g>
<!-- Node37_1&#45;&gt;Node4_1 -->
<g id="edge39" class="edge">
<title>Node37_1&#45;&gt;Node4_1</title>
<path fill="none" stroke="black" d="M3099.66,-212.89C3125.04,-223.77 3158.2,-236.35 3189,-243 3277.55,-262.11 3534.82,-272.03 3665.24,-275.95"/>
<polygon fill="black" stroke="black" points="3100.9,-209.61 3090.34,-208.82 3098.1,-216.03 3100.9,-209.61"/>
<text text-anchor="middle" x="3253.5" y="-231.8" font-family="Times,serif" font-size="14.00">समुच्चितः</text>
</g>
<!-- Node44_2 -->
<g id="node19" class="node">
<title>Node44_2</title>
<ellipse fill="#00bfff" stroke="#00bfff" cx="5600" cy="-192" rx="102.88" ry="18"/>
<text text-anchor="middle" x="5600" y="-188.3" font-family="Times,serif" font-size="14.00">दृष्टाः(44.2)</text>
</g>
<!-- Node44_2&#45;&gt;Node4_1 -->
<g id="edge46" class="edge">
<title>Node44_2&#45;&gt;Node4_1</title>
<path fill="none" stroke="black" d="M5538.18,-210.27C5493.52,-221.89 5431.53,-236.27 5376,-243 5069.85,-280.08 4105.16,-279.42 3821.92,-278.38"/>
<polygon fill="black" stroke="black" points="5539.23,-213.61 5548.01,-207.68 5537.45,-206.84 5539.23,-213.61"/>
<text text-anchor="middle" x="5519.5" y="-231.8" font-family="Times,serif" font-size="14.00">विशेषणम्</text>
</g>
<!-- Node46_1 -->
<g id="node20" class="node">
<title>Node46_1</title>
<ellipse fill="#00bfff" stroke="#00bfff" cx="3636" cy="-192" rx="93.68" ry="18"/>
<text text-anchor="middle" x="3636" y="-188.3" font-family="Times,serif" font-size="14.00">गोचराः(46.1)</text>
</g>
<!-- Node46_1&#45;&gt;Node4_1 -->
<g id="edge48" class="edge">
<title>Node46_1&#45;&gt;Node4_1</title>
<path fill="none" stroke="black" d="M3650.81,-218.51C3656.64,-227.05 3663.88,-236.13 3672,-243 3681.55,-251.08 3693.28,-257.84 3704.43,-263.19"/>
<polygon fill="black" stroke="black" points="3653.64,-216.44 3645.28,-209.93 3647.76,-220.24 3653.64,-216.44"/>
<text text-anchor="middle" x="3729.5" y="-231.8" font-family="Times,serif" font-size="14.00">विशेषणम्</text>
</g>
<!-- Node8_1 -->
<g id="node21" class="node">
<title>Node8_1</title>
<ellipse fill="#93db70" stroke="#93db70" cx="125" cy="-192" rx="106.68" ry="18"/>
<text text-anchor="middle" x="125" y="-188.3" font-family="Times,serif" font-size="14.00">सिद्धिम्(8.1)</text>
</g>
<!-- Node30_1 -->
<g id="node22" class="node">
<title>Node30_1</title>
<ellipse fill="#93db70" stroke="#93db70" cx="128" cy="-279" rx="112.38" ry="18"/>
<text text-anchor="middle" x="128" y="-275.3" font-family="Times,serif" font-size="14.00">सिद्धिम्(30.1)</text>
</g>
<!-- Node8_1&#45;&gt;Node30_1 -->
<g id="edge8" class="edge">
<title>Node8_1&#45;&gt;Node30_1</title>
<path fill="none" stroke="black" d="M125.96,-220.27C126.43,-233.58 126.98,-249.19 127.39,-260.82"/>
<polygon fill="black" stroke="black" points="129.46,-220.07 125.61,-210.2 122.46,-220.32 129.46,-220.07"/>
<text text-anchor="middle" x="184.5" y="-231.8" font-family="Times,serif" font-size="14.00">विशेषणम्</text>
</g>
<!-- Node30_1&#45;&gt;Node38_1 -->
<g id="edge32" class="edge">
<title>Node30_1&#45;&gt;Node38_1</title>
<path fill="none" stroke="black" d="M174.26,-299.9C202.27,-310.95 239.04,-323.7 273,-330 438.26,-360.67 924.43,-364.98 1153.27,-365.25"/>
<polygon fill="black" stroke="black" points="175.31,-296.55 164.73,-296.08 172.71,-303.05 175.31,-296.55"/>
<text text-anchor="middle" x="302" y="-318.8" font-family="Times,serif" font-size="14.00">कर्म</text>
</g>
<!-- Node31_1 -->
<g id="node23" class="node">
<title>Node31_1</title>
<ellipse fill="#00bfff" stroke="#00bfff" cx="5830" cy="-105" rx="102.88" ry="18"/>
<text text-anchor="middle" x="5830" y="-101.3" font-family="Times,serif" font-size="14.00">सर्वाणि(31.1)</text>
</g>
<!-- Node31_1&#45;&gt;Node32_1 -->
<g id="edge33" class="edge">
<title>Node31_1&#45;&gt;Node32_1</title>
<path fill="none" stroke="black" d="M5765.41,-122.52C5749.07,-126.01 5731.48,-129.19 5715,-131 5609.52,-142.61 3911.1,-139.16 3805,-141 3426.67,-147.55 3328.95,-115.12 2954,-166 2936.66,-168.35 2917.98,-172.46 2901.4,-176.67"/>
<polygon fill="black" stroke="black" points="5766.39,-125.88 5775.4,-120.31 5764.88,-119.05 5766.39,-125.88"/>
<text text-anchor="middle" x="3862.5" y="-144.8" font-family="Times,serif" font-size="14.00">विशेषणम्</text>
</g>
<!-- Node36_1 -->
<g id="node24" class="node">
<title>Node36_1</title>
<ellipse fill="#00bfff" stroke="#00bfff" cx="6014" cy="-105" rx="56.59" ry="18"/>
<text text-anchor="middle" x="6014" y="-101.3" font-family="Times,serif" font-size="14.00">यः(36.1)</text>
</g>
<!-- Node36_1&#45;&gt;Node37_1 -->
<g id="edge38" class="edge">
<title>Node36_1&#45;&gt;Node37_1</title>
<path fill="none" stroke="black" d="M5972.82,-123.45C5963.81,-126.55 5954.21,-129.32 5945,-131 5868.88,-144.86 3236.76,-156.33 3160,-166 3142.29,-168.23 3123.21,-172.36 3106.35,-176.63"/>
<polygon fill="black" stroke="black" points="5974.12,-126.7 5982.32,-119.99 5971.73,-120.12 5974.12,-126.7"/>
<text text-anchor="middle" x="5514.5" y="-144.8" font-family="Times,serif" font-size="14.00">विशेषणम्</text>
</g>
<!-- Node40_1 -->
<g id="node25" class="node">
<title>Node40_1</title>
<ellipse fill="#00bfff" stroke="#00bfff" cx="6152" cy="-105" rx="56.59" ry="18"/>
<text text-anchor="middle" x="6152" y="-101.3" font-family="Times,serif" font-size="14.00">ये(40.1)</text>
</g>
<!-- Node40_1&#45;&gt;Node44_2 -->
<g id="edge41" class="edge">
<title>Node40_1&#45;&gt;Node44_2</title>
<path fill="none" stroke="black" d="M6110.5,-123.27C6101.57,-126.35 6092.08,-129.16 6083,-131 5999.25,-147.96 5975.92,-131.53 5891,-141 5812.16,-149.79 5722.3,-166.23 5663.56,-177.85"/>
<polygon fill="black" stroke="black" points="6111.72,-126.55 6119.93,-119.85 6109.33,-119.97 6111.72,-126.55"/>
<text text-anchor="middle" x="5948.5" y="-144.8" font-family="Times,serif" font-size="14.00">विशेषणम्</text>
</g>
<!-- Node42_1 -->
<g id="node26" class="node">
<title>Node42_1</title>
<ellipse fill="#00bfff" stroke="#00bfff" cx="6317" cy="-105" rx="84.49" ry="18"/>
<text text-anchor="middle" x="6317" y="-101.3" font-family="Times,serif" font-size="14.00">अन्ये(42.1)</text>
</g>
<!-- Node42_1&#45;&gt;Node46_1 -->
<g id="edge43" class="edge">
<title>Node42_1&#45;&gt;Node46_1</title>
<path fill="none" stroke="black" d="M6260.8,-122.67C6247.83,-125.95 6234.02,-128.99 6221,-131 6178.56,-137.56 6068.7,-127.28 6028,-141 6016.79,-144.78 6017.3,-152.49 6006,-156 5945.84,-174.7 3800.53,-158.31 3738,-166 3720.36,-168.17 3701.36,-172.31 3684.59,-176.61"/>
<polygon fill="black" stroke="black" points="6261.73,-126.04 6270.52,-120.13 6259.96,-119.27 6261.73,-126.04"/>
<text text-anchor="middle" x="6085.5" y="-144.8" font-family="Times,serif" font-size="14.00">विशेषणम्</text>
</g>
<!-- Node5_1 -->
<g id="node28" class="node">
<title>Node5_1</title>
<ellipse fill="#ff99ff" stroke="#ff99ff" cx="2264" cy="-192" rx="41.69" ry="18"/>
<text text-anchor="middle" x="2264" y="-188.3" font-family="Times,serif" font-size="14.00">च(5.1)</text>
</g>
<!-- Node5_1&#45;&gt;Node4_1 -->
<g id="edge5" class="edge">
<title>Node5_1&#45;&gt;Node4_1</title>
<path fill="none" stroke="black" d="M2289.74,-214.88C2303.9,-225.51 2322.34,-237.22 2341,-243 2404.45,-262.66 3378.72,-274.24 3664.67,-277.22"/>
<polygon fill="black" stroke="black" points="2291.56,-211.85 2281.52,-208.46 2287.25,-217.37 2291.56,-211.85"/>
<text text-anchor="middle" x="2444.5" y="-231.8" font-family="Times,serif" font-size="14.00">समुच्चय_द्योतकः</text>
</g>
<!-- Node6_1 -->
<g id="node29" class="node">
<title>Node6_1</title>
<ellipse fill="#ff99ff" stroke="#ff99ff" cx="309" cy="-279" rx="50.89" ry="18"/>
<text text-anchor="middle" x="309" y="-275.3" font-family="Times,serif" font-size="14.00">एव(6.1)</text>
</g>
<!-- Node6_1&#45;&gt;Node38_1 -->
<g id="edge6" class="edge">
<title>Node6_1&#45;&gt;Node38_1</title>
<path fill="none" stroke="black" d="M324.43,-304.96C331.8,-314.57 341.53,-324.55 353,-330 423.35,-363.43 919.02,-366.26 1153.11,-365.7"/>
<polygon fill="black" stroke="black" points="327.23,-302.85 318.58,-296.72 321.52,-306.9 327.23,-302.85"/>
<text text-anchor="middle" x="410.5" y="-318.8" font-family="Times,serif" font-size="14.00">सम्बन्धः</text>
</g>
<!-- Node10_1 -->
<g id="node30" class="node">
<title>Node10_1</title>
<ellipse fill="#ff99ff" stroke="#ff99ff" cx="447" cy="-279" rx="47.39" ry="18"/>
<text text-anchor="middle" x="447" y="-275.3" font-family="Times,serif" font-size="14.00">च(10.1)</text>
</g>
<!-- Node10_1&#45;&gt;Node38_1 -->
<g id="edge10" class="edge">
<title>Node10_1&#45;&gt;Node38_1</title>
<path fill="none" stroke="black" d="M461.99,-304.91C469.17,-314.52 478.69,-324.5 490,-330 547.93,-358.17 947.69,-363.82 1153.34,-364.85"/>
<polygon fill="black" stroke="black" points="464.86,-302.91 456.29,-296.69 459.11,-306.9 464.86,-302.91"/>
<text text-anchor="middle" x="547.5" y="-318.8" font-family="Times,serif" font-size="14.00">सम्बन्धः</text>
</g>
<!-- Node12_1 -->
<g id="node31" class="node">
<title>Node12_1</title>
<ellipse fill="#ff99ff" stroke="#ff99ff" cx="585" cy="-279" rx="47.39" ry="18"/>
<text text-anchor="middle" x="585" y="-275.3" font-family="Times,serif" font-size="14.00">च(12.1)</text>
</g>
<!-- Node12_1&#45;&gt;Node38_1 -->
<g id="edge12" class="edge">
<title>Node12_1&#45;&gt;Node38_1</title>
<path fill="none" stroke="black" d="M599.57,-305.53C606.33,-314.91 615.27,-324.56 626,-330 671.74,-353.17 979.66,-361.08 1154.43,-363.72"/>
<polygon fill="black" stroke="black" points="602.44,-303.51 593.99,-297.12 596.61,-307.39 602.44,-303.51"/>
<text text-anchor="middle" x="683.5" y="-318.8" font-family="Times,serif" font-size="14.00">सम्बन्धः</text>
</g>
<!-- Node14_1 -->
<g id="node32" class="node">
<title>Node14_1</title>
<ellipse fill="#ff99ff" stroke="#ff99ff" cx="723" cy="-279" rx="47.39" ry="18"/>
<text text-anchor="middle" x="723" y="-275.3" font-family="Times,serif" font-size="14.00">च(14.1)</text>
</g>
<!-- Node14_1&#45;&gt;Node38_1 -->
<g id="edge14" class="edge">
<title>Node14_1&#45;&gt;Node38_1</title>
<path fill="none" stroke="black" d="M736.36,-305.71C742.55,-314.98 750.82,-324.51 761,-330 794.85,-348.25 1015.24,-357.78 1156.23,-362.06"/>
<polygon fill="black" stroke="black" points="739.26,-303.74 731.06,-297.03 733.28,-307.39 739.26,-303.74"/>
<text text-anchor="middle" x="818.5" y="-318.8" font-family="Times,serif" font-size="14.00">सम्बन्धः</text>
</g>
<!-- Node18_1 -->
<g id="node33" class="node">
<title>Node18_1</title>
<ellipse fill="#ff99ff" stroke="#ff99ff" cx="861" cy="-279" rx="47.39" ry="18"/>
<text text-anchor="middle" x="861" y="-275.3" font-family="Times,serif" font-size="14.00">च(18.1)</text>
</g>
<!-- Node18_1&#45;&gt;Node38_1 -->
<g id="edge18" class="edge">
<title>Node18_1&#45;&gt;Node38_1</title>
<path fill="none" stroke="black" d="M872.62,-305.82C878.08,-314.98 885.51,-324.4 895,-330 937.52,-355.07 1059.27,-362.81 1153.62,-364.91"/>
<polygon fill="black" stroke="black" points="875.64,-304.04 867.82,-296.9 869.48,-307.36 875.64,-304.04"/>
<text text-anchor="middle" x="952.5" y="-318.8" font-family="Times,serif" font-size="14.00">सम्बन्धः</text>
</g>
<!-- Node19_1 -->
<g id="node34" class="node">
<title>Node19_1</title>
<ellipse fill="#ffff00" stroke="#ffff00" cx="6488" cy="-105" rx="68.79" ry="18"/>
<text text-anchor="middle" x="6488" y="-101.3" font-family="Times,serif" font-size="14.00">सोम&#45;(19.1)</text>
</g>
<!-- Node19_1&#45;&gt;Node19_2 -->
<g id="edge19" class="edge">
<title>Node19_1&#45;&gt;Node19_2</title>
<path fill="none" stroke="black" d="M6440.96,-123.49C6431.79,-126.39 6422.17,-129.07 6413,-131 6296.81,-155.49 6265.6,-150.17 6147,-156 6025.76,-161.96 4082.63,-152.42 3962,-166 3942.7,-168.17 3921.85,-172.32 3903.44,-176.62"/>
<polygon fill="black" stroke="black" points="6442.28,-126.74 6450.69,-120.3 6440.1,-120.09 6442.28,-126.74"/>
<text text-anchor="middle" x="6421.5" y="-144.8" font-family="Times,serif" font-size="14.00">द्वन्द्वः</text>
</g>
<!-- Node20_1 -->
<g id="node35" class="node">
<title>Node20_1</title>
<ellipse fill="#ff99ff" stroke="#ff99ff" cx="998" cy="-279" rx="65.79" ry="18"/>
<text text-anchor="middle" x="998" y="-275.3" font-family="Times,serif" font-size="14.00">तथा(20.1)</text>
</g>
<!-- Node20_1&#45;&gt;Node38_1 -->
<g id="edge21" class="edge">
<title>Node20_1&#45;&gt;Node38_1</title>
<path fill="none" stroke="black" d="M1008.11,-306.21C1012.83,-315.12 1019.36,-324.27 1028,-330 1050.47,-344.9 1109.5,-353.59 1164.22,-358.58"/>
<polygon fill="black" stroke="black" points="1011.26,-304.7 1003.82,-297.16 1004.94,-307.69 1011.26,-304.7"/>
<text text-anchor="middle" x="1085.5" y="-318.8" font-family="Times,serif" font-size="14.00">सम्बन्धः</text>
</g>
<!-- Node21_1 -->
<g id="node36" class="node">
<title>Node21_1</title>
<ellipse fill="#ff99ff" stroke="#ff99ff" cx="1138" cy="-279" rx="56.59" ry="18"/>
<text text-anchor="middle" x="1138" y="-275.3" font-family="Times,serif" font-size="14.00">एव(21.1)</text>
</g>
<!-- Node21_1&#45;&gt;Node38_1 -->
<g id="edge22" class="edge">
<title>Node21_1&#45;&gt;Node38_1</title>
<path fill="none" stroke="black" d="M1142.69,-306.88C1145.35,-315.25 1149.51,-323.88 1156,-330 1166.74,-340.12 1180.25,-347.32 1194.28,-352.46"/>
<polygon fill="black" stroke="black" points="1146.03,-305.79 1140.14,-296.99 1139.25,-307.55 1146.03,-305.79"/>
<text text-anchor="middle" x="1213.5" y="-318.8" font-family="Times,serif" font-size="14.00">सम्बन्धः</text>
</g>
<!-- Node22_1 -->
<g id="node37" class="node">
<title>Node22_1</title>
<ellipse fill="#ff99ff" stroke="#ff99ff" cx="1275" cy="-279" rx="47.39" ry="18"/>
<text text-anchor="middle" x="1275" y="-275.3" font-family="Times,serif" font-size="14.00">च(22.1)</text>
</g>
<!-- Node22_1&#45;&gt;Node38_1 -->
<g id="edge23" class="edge">
<title>Node22_1&#45;&gt;Node38_1</title>
<path fill="none" stroke="black" d="M1275,-307.27C1275,-320.58 1275,-336.19 1275,-347.82"/>
<polygon fill="black" stroke="black" points="1278.5,-307.2 1275,-297.2 1271.5,-307.2 1278.5,-307.2"/>
<text text-anchor="middle" x="1332.5" y="-318.8" font-family="Times,serif" font-size="14.00">सम्बन्धः</text>
</g>
<!-- Node24_1 -->
<g id="node38" class="node">
<title>Node24_1</title>
<ellipse fill="#ff99ff" stroke="#ff99ff" cx="1413" cy="-279" rx="47.39" ry="18"/>
<text text-anchor="middle" x="1413" y="-275.3" font-family="Times,serif" font-size="14.00">च(24.1)</text>
</g>
<!-- Node24_1&#45;&gt;Node38_1 -->
<g id="edge25" class="edge">
<title>Node24_1&#45;&gt;Node38_1</title>
<path fill="none" stroke="black" d="M1406.13,-306.65C1402.79,-315.11 1397.94,-323.85 1391,-330 1379.9,-339.83 1366.11,-346.9 1351.96,-351.99"/>
<polygon fill="black" stroke="black" points="1409.5,-307.62 1409.4,-297.02 1402.87,-305.37 1409.5,-307.62"/>
<text text-anchor="middle" x="1459.5" y="-318.8" font-family="Times,serif" font-size="14.00">सम्बन्धः</text>
</g>
<!-- Node25_1 -->
<g id="node39" class="node">
<title>Node25_1</title>
<ellipse fill="#ffff00" stroke="#ffff00" cx="2426" cy="-18" rx="68.79" ry="18"/>
<text text-anchor="middle" x="2426" y="-14.3" font-family="Times,serif" font-size="14.00">महा&#45;(25.1)</text>
</g>
<!-- Node25_1&#45;&gt;Node25_2 -->
<g id="edge26" class="edge">
<title>Node25_1&#45;&gt;Node25_2</title>
<path fill="none" stroke="black" d="M2426,-46.27C2426,-59.58 2426,-75.19 2426,-86.82"/>
<polygon fill="black" stroke="black" points="2429.5,-46.2 2426,-36.2 2422.5,-46.2 2429.5,-46.2"/>
<text text-anchor="middle" x="2490.5" y="-57.8" font-family="Times,serif" font-size="14.00">बहव्रीहिः</text>
</g>
<!-- Node28_1 -->
<g id="node40" class="node">
<title>Node28_1</title>
<ellipse fill="#ff99ff" stroke="#ff99ff" cx="1551" cy="-279" rx="56.59" ry="18"/>
<text text-anchor="middle" x="1551" y="-275.3" font-family="Times,serif" font-size="14.00">एव(28.1)</text>
</g>
<!-- Node28_1&#45;&gt;Node38_1 -->
<g id="edge30" class="edge">
<title>Node28_1&#45;&gt;Node38_1</title>
<path fill="none" stroke="black" d="M1540.89,-306.2C1536.17,-315.12 1529.64,-324.27 1521,-330 1498.67,-344.82 1440.07,-353.5 1385.66,-358.51"/>
<polygon fill="black" stroke="black" points="1544.06,-307.69 1545.17,-297.15 1537.73,-304.7 1544.06,-307.69"/>
<text text-anchor="middle" x="1593.5" y="-318.8" font-family="Times,serif" font-size="14.00">सम्बन्धः</text>
</g>
<!-- Node29_1 -->
<g id="node41" class="node">
<title>Node29_1</title>
<ellipse fill="#ff99ff" stroke="#ff99ff" cx="1689" cy="-279" rx="47.39" ry="18"/>
<text text-anchor="middle" x="1689" y="-275.3" font-family="Times,serif" font-size="14.00">च(29.1)</text>
</g>
<!-- Node29_1&#45;&gt;Node38_1 -->
<g id="edge31" class="edge">
<title>Node29_1&#45;&gt;Node38_1</title>
<path fill="none" stroke="black" d="M1677.38,-305.82C1671.92,-314.98 1664.49,-324.4 1655,-330 1612.48,-355.07 1490.73,-362.81 1396.38,-364.91"/>
<polygon fill="black" stroke="black" points="1680.52,-307.36 1682.18,-296.9 1674.36,-304.04 1680.52,-307.36"/>
<text text-anchor="middle" x="1728.5" y="-318.8" font-family="Times,serif" font-size="14.00">सम्बन्धः</text>
</g>
<!-- Node33_1 -->
<g id="node42" class="node">
<title>Node33_1</title>
<ellipse fill="#87ceeb" stroke="#87ceeb" cx="6678" cy="-105" rx="102.88" ry="18"/>
<text text-anchor="middle" x="6678" y="-101.3" font-family="Times,serif" font-size="14.00">भूतानां(33.1)</text>
</g>
<!-- Node33_1&#45;&gt;Node37_1 -->
<g id="edge35" class="edge">
<title>Node33_1&#45;&gt;Node37_1</title>
<path fill="none" stroke="black" d="M6623.82,-124.38C6586.66,-135.99 6535.95,-149.92 6490,-156 6306.6,-180.25 3343.66,-143.75 3160,-166 3142.19,-168.16 3123,-172.3 3106.08,-176.6"/>
<polygon fill="black" stroke="black" points="6624.98,-127.68 6633.45,-121.32 6622.86,-121.01 6624.98,-127.68"/>
<text text-anchor="middle" x="6666.5" y="-144.8" font-family="Times,serif" font-size="14.00">षष्ठी_तत्पुरुषः</text>
</g>
<!-- Node34_1 -->
<g id="node43" class="node">
<title>Node34_1</title>
<ellipse fill="#ff99ff" stroke="#ff99ff" cx="1827" cy="-279" rx="47.39" ry="18"/>
<text text-anchor="middle" x="1827" y="-275.3" font-family="Times,serif" font-size="14.00">च(34.1)</text>
</g>
<!-- Node34_1&#45;&gt;Node38_1 -->
<g id="edge36" class="edge">
<title>Node34_1&#45;&gt;Node38_1</title>
<path fill="none" stroke="black" d="M1814.14,-305.7C1808.12,-314.97 1800.05,-324.5 1790,-330 1756.2,-348.5 1535.34,-357.94 1394.04,-362.14"/>
<polygon fill="black" stroke="black" points="1817.19,-307.41 1819.26,-297.02 1811.16,-303.85 1817.19,-307.41"/>
<text text-anchor="middle" x="1864.5" y="-318.8" font-family="Times,serif" font-size="14.00">सम्बन्धः</text>
</g>
<!-- Node35_1 -->
<g id="node44" class="node">
<title>Node35_1</title>
<ellipse fill="#ff99ff" stroke="#ff99ff" cx="1965" cy="-279" rx="56.59" ry="18"/>
<text text-anchor="middle" x="1965" y="-275.3" font-family="Times,serif" font-size="14.00">एव(35.1)</text>
</g>
<!-- Node35_1&#45;&gt;Node38_1 -->
<g id="edge37" class="edge">
<title>Node35_1&#45;&gt;Node38_1</title>
<path fill="none" stroke="black" d="M1951.19,-305.8C1944.82,-315.08 1936.35,-324.6 1926,-330 1880.41,-353.8 1571.42,-361.45 1396.02,-363.88"/>
<polygon fill="black" stroke="black" points="1954.3,-307.43 1956.65,-297.1 1948.37,-303.71 1954.3,-307.43"/>
<text text-anchor="middle" x="2001.5" y="-318.8" font-family="Times,serif" font-size="14.00">सम्बन्धः</text>
</g>
<!-- Node39_1 -->
<g id="node45" class="node">
<title>Node39_1</title>
<ellipse fill="#87ceeb" stroke="#87ceeb" cx="6855" cy="-105" rx="56.59" ry="18"/>
<text text-anchor="middle" x="6855" y="-101.3" font-family="Times,serif" font-size="14.00">मम(39.1)</text>
</g>
<!-- Node39_1&#45;&gt;Node44_2 -->
<g id="edge40" class="edge">
<title>Node39_1&#45;&gt;Node44_2</title>
<path fill="none" stroke="black" d="M6849.24,-133.1C6845.97,-141.87 6840.89,-150.69 6833,-156 6786.47,-187.31 5990.34,-190.81 5702.66,-191.05"/>
<polygon fill="black" stroke="black" points="6852.62,-134.01 6852.21,-123.42 6845.93,-131.95 6852.62,-134.01"/>
<text text-anchor="middle" x="6938" y="-144.8" font-family="Times,serif" font-size="14.00">षष्ठीसम्बन्धः</text>
</g>
<!-- Node41_1 -->
<g id="node46" class="node">
<title>Node41_1</title>
<ellipse fill="#ff99ff" stroke="#ff99ff" cx="2103" cy="-279" rx="47.39" ry="18"/>
<text text-anchor="middle" x="2103" y="-275.3" font-family="Times,serif" font-size="14.00">च(41.1)</text>
</g>
<!-- Node41_1&#45;&gt;Node38_1 -->
<g id="edge42" class="edge">
<title>Node41_1&#45;&gt;Node38_1</title>
<path fill="none" stroke="black" d="M2088.93,-305.57C2082.36,-314.96 2073.62,-324.6 2063,-330 2005.28,-359.34 1602.77,-364.43 1396.41,-365.09"/>
<polygon fill="black" stroke="black" points="2091.88,-307.45 2094.35,-297.15 2086,-303.67 2091.88,-307.45"/>
<text text-anchor="middle" x="2138.5" y="-318.8" font-family="Times,serif" font-size="14.00">सम्बन्धः</text>
</g>
<!-- Node43_1 -->
<g id="node47" class="node">
<title>Node43_1</title>
<ellipse fill="#ff99ff" stroke="#ff99ff" cx="2241" cy="-279" rx="65.79" ry="18"/>
<text text-anchor="middle" x="2241" y="-275.3" font-family="Times,serif" font-size="14.00">अपि(43.1)</text>
</g>
<!-- Node43_1&#45;&gt;Node38_1 -->
<g id="edge44" class="edge">
<title>Node43_1&#45;&gt;Node38_1</title>
<path fill="none" stroke="black" d="M2226.47,-305.62C2219.72,-315.01 2210.78,-324.65 2200,-330 2164.6,-347.58 1637.24,-358.81 1395.02,-363.07"/>
<polygon fill="black" stroke="black" points="2229.45,-307.46 2232.04,-297.19 2223.61,-303.6 2229.45,-307.46"/>
<text text-anchor="middle" x="2275.5" y="-318.8" font-family="Times,serif" font-size="14.00">सम्बन्धः</text>
</g>
<!-- Node44_1 -->
<g id="node48" class="node">
<title>Node44_1</title>
<ellipse fill="#ffff00" stroke="#ffff00" cx="7064" cy="-105" rx="50.09" ry="18"/>
<text text-anchor="middle" x="7064" y="-101.3" font-family="Times,serif" font-size="14.00">अ&#45;(44.1)</text>
</g>
<!-- Node44_1&#45;&gt;Node44_2 -->
<g id="edge45" class="edge">
<title>Node44_1&#45;&gt;Node44_2</title>
<path fill="none" stroke="black" d="M7054.95,-132.35C7050.44,-141.45 7043.97,-150.69 7035,-156 6977.9,-189.83 6021.85,-191.59 5702.75,-191.23"/>
<polygon fill="black" stroke="black" points="7058.2,-133.65 7058.98,-123.08 7051.78,-130.86 7058.2,-133.65"/>
<text text-anchor="middle" x="7138" y="-144.8" font-family="Times,serif" font-size="14.00">नञ्_तत्पुरुषः</text>
</g>
<!-- Node45_1 -->
<g id="node49" class="node">
<title>Node45_1</title>
<ellipse fill="#c6e2eb" stroke="#c6e2eb" cx="7265" cy="-105" rx="65.79" ry="18"/>
<text text-anchor="middle" x="7265" y="-101.3" font-family="Times,serif" font-size="14.00">पथि(45.1)</text>
</g>
<!-- Node45_1&#45;&gt;Node44_2 -->
<g id="edge47" class="edge">
<title>Node45_1&#45;&gt;Node44_2</title>
<path fill="none" stroke="black" d="M7253.58,-132.18C7248.15,-141.38 7240.69,-150.74 7231,-156 7163.84,-192.48 6050.16,-192.32 5702.7,-191.38"/>
<polygon fill="black" stroke="black" points="7256.76,-133.65 7258.34,-123.17 7250.57,-130.38 7256.76,-133.65"/>
<text text-anchor="middle" x="7324.5" y="-144.8" font-family="Times,serif" font-size="14.00">देशाधिकरणम्</text>
</g>
</g>
</svg>
