<?xml version="1.0" encoding="UTF-8" standalone="no"?>
<!DOCTYPE svg PUBLIC "-//W3C//DTD SVG 1.1//EN"
 "http://www.w3.org/Graphics/SVG/1.1/DTD/svg11.dtd">
<!-- Generated by graphviz version 2.43.0 (0)
 -->
<!-- Title: G Pages: 1 -->
<svg width="1522pt" height="321pt"
 viewBox="0.00 0.00 1522.39 321.00" xmlns="http://www.w3.org/2000/svg" xmlns:xlink="http://www.w3.org/1999/xlink">
<g id="graph0" class="graph" transform="scale(1 1) rotate(0) translate(4 317)">
<title>G</title>
<polygon fill="#fffacd" stroke="transparent" points="-4,4 -4,-317 1518.39,-317 1518.39,4 -4,4"/>
<g id="clust1" class="cluster">
<title>cluster_1</title>
<polygon fill="#fffacd" stroke="black" points="719.7,-8 719.7,-147 967.7,-147 967.7,-8 719.7,-8"/>
</g>
<!-- Node5_1 -->
<g id="node1" class="node">
<title>Node5_1</title>
<ellipse fill="#00bfff" stroke="#00bfff" cx="843.7" cy="-34" rx="115.88" ry="18"/>
<text text-anchor="middle" x="843.7" y="-30.3" font-family="Times,serif" font-size="14.00">निर्याणम्(5.1)</text>
</g>
<!-- Node1_1 -->
<g id="node2" class="node">
<title>Node1_1</title>
<ellipse fill="#93db70" stroke="#93db70" cx="851.7" cy="-121" rx="69.59" ry="18"/>
<text text-anchor="middle" x="851.7" y="-117.3" font-family="Times,serif" font-size="14.00">इदम्(1.1)</text>
</g>
<!-- Node5_1&#45;&gt;Node1_1 -->
<g id="edge5" class="edge">
<title>Node5_1&#45;&gt;Node1_1</title>
<path fill="none" stroke="black" d="M846.26,-62.27C847.51,-75.58 848.98,-91.19 850.08,-102.82"/>
<polygon fill="black" stroke="black" points="849.74,-61.83 845.31,-52.2 842.77,-62.49 849.74,-61.83"/>
<text text-anchor="middle" x="905.2" y="-73.8" font-family="Times,serif" font-size="14.00">विशेषणम्</text>
</g>
<!-- Node4_1 -->
<g id="node3" class="node">
<title>Node4_1</title>
<ellipse fill="#00bfff" stroke="#00bfff" cx="609.7" cy="-208" rx="96.68" ry="18"/>
<text text-anchor="middle" x="609.7" y="-204.3" font-family="Times,serif" font-size="14.00">दृष्टम्(4.1)</text>
</g>
<!-- Node1_1&#45;&gt;Node4_1 -->
<g id="edge1" class="edge">
<title>Node1_1&#45;&gt;Node4_1</title>
<path fill="none" stroke="black" d="M854.44,-149.23C853.84,-157.51 851.52,-166.01 845.7,-172 826.17,-192.08 761.4,-200.71 704.65,-204.39"/>
<polygon fill="black" stroke="black" points="857.94,-149.04 854.44,-139.04 850.94,-149.04 857.94,-149.04"/>
<text text-anchor="middle" x="881.7" y="-160.8" font-family="Times,serif" font-size="14.00">कर्म</text>
</g>
<!-- Node11_1 -->
<g id="node6" class="node">
<title>Node11_1</title>
<ellipse fill="#ff1975" stroke="#ff1975" cx="259.7" cy="-295" rx="158.67" ry="18"/>
<text text-anchor="middle" x="259.7" y="-291.3" font-family="Times,serif" font-size="14.00">प्रवेक्ष्यामि(11.1)</text>
</g>
<!-- Node4_1&#45;&gt;Node11_1 -->
<g id="edge4" class="edge">
<title>Node4_1&#45;&gt;Node11_1</title>
<path fill="none" stroke="black" d="M543.61,-225.05C480.45,-240.39 385.88,-263.35 323.5,-278.5"/>
<polygon fill="black" stroke="black" points="544.57,-228.42 553.46,-222.66 542.92,-221.62 544.57,-228.42"/>
<text text-anchor="middle" x="520.2" y="-247.8" font-family="Times,serif" font-size="14.00">वाक्यकर्म</text>
</g>
<!-- Node2_1 -->
<g id="node4" class="node">
<title>Node2_1</title>
<ellipse fill="#ff99ff" stroke="#ff99ff" cx="1035.7" cy="-121" rx="59.59" ry="18"/>
<text text-anchor="middle" x="1035.7" y="-117.3" font-family="Times,serif" font-size="14.00">अपि(2.1)</text>
</g>
<!-- Node2_1&#45;&gt;Node4_1 -->
<g id="edge2" class="edge">
<title>Node2_1&#45;&gt;Node4_1</title>
<path fill="none" stroke="black" d="M996.97,-141.24C973.68,-151.98 943.13,-164.65 914.7,-172 845.03,-190.01 764.03,-198.76 703.01,-203.01"/>
<polygon fill="black" stroke="black" points="998.59,-144.34 1006.16,-136.92 995.62,-138 998.59,-144.34"/>
<text text-anchor="middle" x="1016.2" y="-160.8" font-family="Times,serif" font-size="14.00">सम्बन्धः</text>
</g>
<!-- Node3_1 -->
<g id="node5" class="node">
<title>Node3_1</title>
<ellipse fill="#40e0d0" stroke="#40e0d0" cx="452.7" cy="-121" rx="87.99" ry="18"/>
<text text-anchor="middle" x="452.7" y="-117.3" font-family="Times,serif" font-size="14.00">ऋषिभिः(3.1)</text>
</g>
<!-- Node3_1&#45;&gt;Node4_1 -->
<g id="edge3" class="edge">
<title>Node3_1&#45;&gt;Node4_1</title>
<path fill="none" stroke="black" d="M486,-143.82C500.42,-152.94 517.66,-163.4 533.7,-172 546.24,-178.73 560.32,-185.43 572.92,-191.15"/>
<polygon fill="black" stroke="black" points="487.72,-140.77 477.41,-138.34 483.96,-146.67 487.72,-140.77"/>
<text text-anchor="middle" x="569.7" y="-160.8" font-family="Times,serif" font-size="14.00">कर्ता</text>
</g>
<!-- Node6_1 -->
<g id="node7" class="node">
<title>Node6_1</title>
<ellipse fill="#ff99ff" stroke="#ff99ff" cx="618.7" cy="-121" rx="59.59" ry="18"/>
<text text-anchor="middle" x="618.7" y="-117.3" font-family="Times,serif" font-size="14.00">इति(6.1)</text>
</g>
<!-- Node6_1&#45;&gt;Node4_1 -->
<g id="edge6" class="edge">
<title>Node6_1&#45;&gt;Node4_1</title>
<path fill="none" stroke="black" d="M611.99,-148.75C611.48,-151.52 611.03,-154.31 610.7,-157 609.36,-167.86 609.1,-180.14 609.17,-189.81"/>
<polygon fill="black" stroke="black" points="615.42,-149.48 614.08,-138.97 608.57,-148.01 615.42,-149.48"/>
<text text-anchor="middle" x="728.2" y="-160.8" font-family="Times,serif" font-size="14.00">वाक्यकर्म_द्योतकः</text>
</g>
<!-- Node7_1 -->
<g id="node8" class="node">
<title>Node7_1</title>
<ellipse fill="#87ceeb" stroke="#87ceeb" cx="50.7" cy="-121" rx="50.89" ry="18"/>
<text text-anchor="middle" x="50.7" y="-117.3" font-family="Times,serif" font-size="14.00">मे(7.1)</text>
</g>
<!-- Node8_1 -->
<g id="node9" class="node">
<title>Node8_1</title>
<ellipse fill="#00bfff" stroke="#00bfff" cx="78.7" cy="-208" rx="69.59" ry="18"/>
<text text-anchor="middle" x="78.7" y="-204.3" font-family="Times,serif" font-size="14.00">मतिः(8.1)</text>
</g>
<!-- Node7_1&#45;&gt;Node8_1 -->
<g id="edge7" class="edge">
<title>Node7_1&#45;&gt;Node8_1</title>
<path fill="none" stroke="black" d="M59.55,-148.87C63.96,-162.27 69.17,-178.08 73.04,-189.82"/>
<polygon fill="black" stroke="black" points="62.81,-147.6 56.36,-139.2 56.17,-149.79 62.81,-147.6"/>
<text text-anchor="middle" x="159.7" y="-160.8" font-family="Times,serif" font-size="14.00">षष्ठीसम्बन्धः</text>
</g>
<!-- Node8_1&#45;&gt;Node11_1 -->
<g id="edge8" class="edge">
<title>Node8_1&#45;&gt;Node11_1</title>
<path fill="none" stroke="black" d="M119.52,-228.59C138.93,-237.87 162.48,-249.07 183.7,-259 196.59,-265.04 210.75,-271.58 223.31,-277.36"/>
<polygon fill="black" stroke="black" points="120.88,-225.36 110.35,-224.2 117.86,-231.68 120.88,-225.36"/>
<text text-anchor="middle" x="219.7" y="-247.8" font-family="Times,serif" font-size="14.00">कर्ता</text>
</g>
<!-- Node9_1 -->
<g id="node10" class="node">
<title>Node9_1</title>
<ellipse fill="#ff99ff" stroke="#ff99ff" cx="259.7" cy="-121" rx="87.99" ry="18"/>
<text text-anchor="middle" x="259.7" y="-117.3" font-family="Times,serif" font-size="14.00">सम्यक्(9.1)</text>
</g>
<!-- Node10_1 -->
<g id="node11" class="node">
<title>Node10_1</title>
<ellipse fill="#93db70" stroke="#93db70" cx="259.7" cy="-208" rx="65.79" ry="18"/>
<text text-anchor="middle" x="259.7" y="-204.3" font-family="Times,serif" font-size="14.00">आपः(10.1)</text>
</g>
<!-- Node9_1&#45;&gt;Node10_1 -->
<g id="edge9" class="edge">
<title>Node9_1&#45;&gt;Node10_1</title>
<path fill="none" stroke="black" d="M259.7,-149.27C259.7,-162.58 259.7,-178.19 259.7,-189.82"/>
<polygon fill="black" stroke="black" points="263.2,-149.2 259.7,-139.2 256.2,-149.2 263.2,-149.2"/>
<text text-anchor="middle" x="317.2" y="-160.8" font-family="Times,serif" font-size="14.00">सम्बन्धः</text>
</g>
<!-- Node10_1&#45;&gt;Node11_1 -->
<g id="edge10" class="edge">
<title>Node10_1&#45;&gt;Node11_1</title>
<path fill="none" stroke="black" d="M259.7,-236.27C259.7,-249.58 259.7,-265.19 259.7,-276.82"/>
<polygon fill="black" stroke="black" points="263.2,-236.2 259.7,-226.2 256.2,-236.2 263.2,-236.2"/>
<text text-anchor="middle" x="288.7" y="-247.8" font-family="Times,serif" font-size="14.00">कर्म</text>
</g>
<!-- Node12_1 -->
<g id="node12" class="node">
<title>Node12_1</title>
<ellipse fill="#ff99ff" stroke="#ff99ff" cx="1063.7" cy="-34" rx="47.39" ry="18"/>
<text text-anchor="middle" x="1063.7" y="-30.3" font-family="Times,serif" font-size="14.00">न(12.1)</text>
</g>
<!-- Node14_1 -->
<g id="node13" class="node">
<title>Node14_1</title>
<ellipse fill="#ff1975" stroke="#ff1975" cx="1215.7" cy="-121" rx="102.88" ry="18"/>
<text text-anchor="middle" x="1215.7" y="-117.3" font-family="Times,serif" font-size="14.00">पश्यामि(14.1)</text>
</g>
<!-- Node12_1&#45;&gt;Node14_1 -->
<g id="edge11" class="edge">
<title>Node12_1&#45;&gt;Node14_1</title>
<path fill="none" stroke="black" d="M1068.76,-61.74C1071.58,-70.21 1075.95,-78.93 1082.7,-85 1096.36,-97.29 1113.84,-105.36 1131.6,-110.63"/>
<polygon fill="black" stroke="black" points="1072.14,-60.81 1066.12,-52.09 1065.39,-62.66 1072.14,-60.81"/>
<text text-anchor="middle" x="1147.2" y="-73.8" font-family="Times,serif" font-size="14.00">प्रतिषेधः</text>
</g>
<!-- Node13_1 -->
<g id="node14" class="node">
<title>Node13_1</title>
<ellipse fill="#ff99ff" stroke="#ff99ff" cx="1215.7" cy="-34" rx="75.29" ry="18"/>
<text text-anchor="middle" x="1215.7" y="-30.3" font-family="Times,serif" font-size="14.00">चेत्(13.1)</text>
</g>
<!-- Node13_1&#45;&gt;Node14_1 -->
<g id="edge12" class="edge">
<title>Node13_1&#45;&gt;Node14_1</title>
<path fill="none" stroke="black" d="M1215.7,-62.27C1215.7,-75.58 1215.7,-91.19 1215.7,-102.82"/>
<polygon fill="black" stroke="black" points="1219.2,-62.2 1215.7,-52.2 1212.2,-62.2 1219.2,-62.2"/>
<text text-anchor="middle" x="1273.2" y="-73.8" font-family="Times,serif" font-size="14.00">सम्बन्धः</text>
</g>
<!-- Node15_1 -->
<g id="node15" class="node">
<title>Node15_1</title>
<ellipse fill="#93db70" stroke="#93db70" cx="1411.7" cy="-34" rx="102.88" ry="18"/>
<text text-anchor="middle" x="1411.7" y="-30.3" font-family="Times,serif" font-size="14.00">जानकीम्(15.1)</text>
</g>
<!-- Node15_1&#45;&gt;Node14_1 -->
<g id="edge13" class="edge">
<title>Node15_1&#45;&gt;Node14_1</title>
<path fill="none" stroke="black" d="M1381.25,-57.69C1367.55,-67.12 1350.85,-77.57 1334.7,-85 1315.91,-93.64 1294.48,-100.72 1275.03,-106.2"/>
<polygon fill="black" stroke="black" points="1383.62,-60.31 1389.78,-51.69 1379.59,-54.58 1383.62,-60.31"/>
<text text-anchor="middle" x="1389.7" y="-73.8" font-family="Times,serif" font-size="14.00">कर्म</text>
</g>
</g>
</svg>
