<svg xmlns="http://www.w3.org/2000/svg" xmlns:xlink="http://www.w3.org/1999/xlink" width="3175pt" height="544" viewBox="0 0 3175.24 408"><g id="graph0" class="graph" transform="scale(1 1) rotate(0) translate(4 404)"><title>G</title><polygon fill="#fffacd" stroke="transparent" points="-4 4 -4 -404 3171.24 -404 3171.24 4 -4 4"/><g id="clust1" class="cluster"><title>cluster_1</title><polygon fill="#fffacd" stroke="#000" points="404.6 -95 404.6 -234 753.6 -234 753.6 -95 404.6 -95"/></g><g id="clust2" class="cluster"><title>cluster_2</title><polygon fill="#fffacd" stroke="#000" points="1660.6 -8 1660.6 -147 2571.6 -147 2571.6 -8 1660.6 -8"/></g><g id="node1" class="node"><title>Node5_1</title><ellipse cx="675.6" cy="-121" fill="#00bfff" stroke="#00bfff" rx="69.59" ry="18"/><text x="675.6" y="-117.3" font-family="Times,serif" font-size="14" text-anchor="middle">इयम्(5.1)</text></g><g id="node2" class="node"><title>Node1_2</title><ellipse cx="492.6" cy="-208" fill="#00bfff" stroke="#00bfff" rx="78.79" ry="18"/><text x="492.6" y="-204.3" font-family="Times,serif" font-size="14" text-anchor="middle">वनिका(1.2)</text></g><g id="edge6" class="edge"><title>Node5_1-&gt;Node1_2</title><path fill="none" stroke="#000" d="M649.06,-145.16C637.29,-154.52 622.88,-164.8 608.6,-172 589.25,-181.76 566.69,-189.33 546.64,-194.89"/><polygon fill="#000" stroke="#000" points="651.61 -147.6 657.13 -138.56 647.18 -142.19 651.61 -147.6"/><text x="689.1" y="-160.8" font-family="Times,serif" font-size="14" text-anchor="middle">विशेषणम्</text></g><g id="node10" class="node"><title>Node4_1</title><ellipse cx="492.6" cy="-295" fill="#00bfff" stroke="#00bfff" rx="69.59" ry="18"/><text x="492.6" y="-291.3" font-family="Times,serif" font-size="14" text-anchor="middle">महती(4.1)</text></g><g id="edge2" class="edge"><title>Node1_2-&gt;Node4_1</title><path fill="none" stroke="#000" d="M492.6,-236.27C492.6,-249.58 492.6,-265.19 492.6,-276.82"/><polygon fill="#000" stroke="#000" points="496.1 -236.2 492.6 -226.2 489.1 -236.2 496.1 -236.2"/><text x="528.6" y="-247.8" font-family="Times,serif" font-size="14" text-anchor="middle">कर्ता</text></g><g id="node3" class="node"><title>Node6_2</title><ellipse cx="500.6" cy="-121" fill="#00bfff" stroke="#00bfff" rx="87.99" ry="18"/><text x="500.6" y="-117.3" font-family="Times,serif" font-size="14" text-anchor="middle">द्रुमा(6.2)</text></g><g id="edge8" class="edge"><title>Node6_2-&gt;Node1_2</title><path fill="none" stroke="#000" d="M494.69,-149.06C494.26,-151.73 493.88,-154.41 493.6,-157 492.41,-167.88 492.15,-180.16 492.19,-189.83"/><polygon fill="#000" stroke="#000" points="498.18 -149.47 496.57 -139 491.29 -148.18 498.18 -149.47"/><text x="551.1" y="-160.8" font-family="Times,serif" font-size="14" text-anchor="middle">विशेषणम्</text></g><g id="node4" class="node"><title>Node15_1</title><ellipse cx="2451.6" cy="-34" fill="#93db70" stroke="#93db70" rx="112.38" ry="18"/><text x="2451.6" y="-30.3" font-family="Times,serif" font-size="14" text-anchor="middle">रुद्रान्(15.1)</text></g><g id="node5" class="node"><title>Node14_1</title><ellipse cx="1957.6" cy="-121" fill="#93db70" stroke="#93db70" rx="84.49" ry="18"/><text x="1957.6" y="-117.3" font-family="Times,serif" font-size="14" text-anchor="middle">वसून्(14.1)</text></g><g id="edge15" class="edge"><title>Node15_1-&gt;Node14_1</title><path fill="none" stroke="#000" d="M2391.32,-53.01C2353.73,-63.65 2304.2,-76.65 2259.6,-85 2184.11,-99.13 2096.88,-108.51 2035.63,-113.97"/><polygon fill="#000" stroke="#000" points="2392.44 -56.32 2401.1 -50.21 2390.52 -49.59 2392.44 -56.32"/><text x="2387.1" y="-73.8" font-family="Times,serif" font-size="14" text-anchor="middle">समुच्चितः</text></g><g id="node21" class="node"><title>Node23_1</title><ellipse cx="1521.6" cy="-208" fill="#f9f" stroke="#f9f" rx="93.68" ry="18"/><text x="1521.6" y="-204.3" font-family="Times,serif" font-size="14" text-anchor="middle">कृत्वा(23.1)</text></g><g id="edge14" class="edge"><title>Node14_1-&gt;Node23_1</title><path fill="none" stroke="#000" d="M1887.52,-135.66C1803.97,-151.95 1665.54,-178.94 1585.03,-194.63"/><polygon fill="#000" stroke="#000" points="1888.28 -139.08 1897.43 -133.73 1886.95 -132.21 1888.28 -139.08"/><text x="1794.6" y="-160.8" font-family="Times,serif" font-size="14" text-anchor="middle">कर्म</text></g><g id="node6" class="node"><title>Node17_1</title><ellipse cx="2199.6" cy="-34" fill="#93db70" stroke="#93db70" rx="121.58" ry="18"/><text x="2199.6" y="-30.3" font-family="Times,serif" font-size="14" text-anchor="middle">आदित्यान्(17.1)</text></g><g id="edge17" class="edge"><title>Node17_1-&gt;Node14_1</title><path fill="none" stroke="#000" d="M2158.14,-56.07C2138.08,-65.73 2113.44,-76.82 2090.6,-85 2065.87,-93.85 2037.83,-101.56 2013.9,-107.47"/><polygon fill="#000" stroke="#000" points="2159.84 -59.13 2167.3 -51.6 2156.78 -52.84 2159.84 -59.13"/><text x="2191.1" y="-73.8" font-family="Times,serif" font-size="14" text-anchor="middle">समुच्चितः</text></g><g id="node7" class="node"><title>Node18_1</title><ellipse cx="1957.6" cy="-34" fill="#93db70" stroke="#93db70" rx="102.88" ry="18"/><text x="1957.6" y="-30.3" font-family="Times,serif" font-size="14" text-anchor="middle">अश्विनौ(18.1)</text></g><g id="edge18" class="edge"><title>Node18_1-&gt;Node14_1</title><path fill="none" stroke="#000" d="M1957.6,-62.27C1957.6,-75.58 1957.6,-91.19 1957.6,-102.82"/><polygon fill="#000" stroke="#000" points="1961.1 -62.2 1957.6 -52.2 1954.1 -62.2 1961.1 -62.2"/><text x="2022.1" y="-73.8" font-family="Times,serif" font-size="14" text-anchor="middle">समुच्चितः</text></g><g id="node8" class="node"><title>Node19_1</title><ellipse cx="1752.6" cy="-34" fill="#93db70" stroke="#93db70" rx="84.49" ry="18"/><text x="1752.6" y="-30.3" font-family="Times,serif" font-size="14" text-anchor="middle">मरुतः(19.1)</text></g><g id="edge19" class="edge"><title>Node19_1-&gt;Node14_1</title><path fill="none" stroke="#000" d="M1780.49,-57.79C1793.3,-67.33 1809.07,-77.84 1824.6,-85 1847.04,-95.35 1873.07,-103.05 1896.13,-108.56"/><polygon fill="#000" stroke="#000" points="1782.6 -55 1772.53 -51.71 1778.35 -60.56 1782.6 -55"/><text x="1889.1" y="-73.8" font-family="Times,serif" font-size="14" text-anchor="middle">समुच्चितः</text></g><g id="node9" class="node"><title>Node1_1</title><ellipse cx="322.6" cy="-121" fill="#ff0" stroke="#ff0" rx="72.29" ry="18"/><text x="322.6" y="-117.3" font-family="Times,serif" font-size="14" text-anchor="middle">अशोक-(1.1)</text></g><g id="edge1" class="edge"><title>Node1_1-&gt;Node1_2</title><path fill="none" stroke="#000" d="M336.24,-147.81C342.06,-156.64 349.6,-165.83 358.6,-172 378.13,-185.39 402.47,-193.66 425.02,-198.77"/><polygon fill="#000" stroke="#000" points="339.2 -145.95 331 -139.24 333.22 -149.6 339.2 -145.95"/><text x="423.1" y="-160.8" font-family="Times,serif" font-size="14" text-anchor="middle">कर्मधारयः</text></g><g id="node12" class="node"><title>Node8_1</title><ellipse cx="252.6" cy="-382" fill="#ff1975" stroke="#ff1975" rx="143.77" ry="18"/><text x="252.6" y="-378.3" font-family="Times,serif" font-size="14" text-anchor="middle">अधिगमिष्यामि(8.1)</text></g><g id="edge5" class="edge"><title>Node4_1-&gt;Node8_1</title><path fill="none" stroke="#000" d="M449.87,-314.95C426.9,-324.81 397.95,-336.71 371.6,-346 351.69,-353.02 329.59,-359.79 309.89,-365.48"/><polygon fill="#000" stroke="#000" points="451.53 -318.05 459.32 -310.87 448.75 -311.62 451.53 -318.05"/><text x="516.6" y="-334.8" font-family="Times,serif" font-size="14" text-anchor="middle">वर्तमानसमानकालः</text></g><g id="node11" class="node"><title>Node2_1</title><ellipse cx="41.6" cy="-295" fill="#f9f" stroke="#f9f" rx="41.69" ry="18"/><text x="41.6" y="-291.3" font-family="Times,serif" font-size="14" text-anchor="middle">च(2.1)</text></g><g id="edge3" class="edge"><title>Node2_1-&gt;Node8_1</title><path fill="none" stroke="#000" d="M43.03,-323.15C44.81,-331.54 48.23,-340.12 54.6,-346 67.58,-357.99 101.26,-365.97 137.25,-371.24"/><polygon fill="#000" stroke="#000" points="46.49 -322.59 41.58 -313.2 39.56 -323.6 46.49 -322.59"/><text x="112.1" y="-334.8" font-family="Times,serif" font-size="14" text-anchor="middle">सम्बन्धः</text></g><g id="node13" class="node"><title>Node3_1</title><ellipse cx="170.6" cy="-295" fill="#f9f" stroke="#f9f" rx="59.59" ry="18"/><text x="170.6" y="-291.3" font-family="Times,serif" font-size="14" text-anchor="middle">अपि(3.1)</text></g><g id="edge4" class="edge"><title>Node3_1-&gt;Node8_1</title><path fill="none" stroke="#000" d="M170.9,-323.38C172.15,-331.31 174.69,-339.56 179.6,-346 185.64,-353.94 193.95,-360.17 202.8,-365.02"/><polygon fill="#000" stroke="#000" points="174.37 -322.92 169.92 -313.31 167.41 -323.6 174.37 -322.92"/><text x="237.1" y="-334.8" font-family="Times,serif" font-size="14" text-anchor="middle">सम्बन्धः</text></g><g id="node14" class="node"><title>Node6_1</title><ellipse cx="500.6" cy="-34" fill="#ff0" stroke="#ff0" rx="63.09" ry="18"/><text x="500.6" y="-30.3" font-family="Times,serif" font-size="14" text-anchor="middle">महा-(6.1)</text></g><g id="edge7" class="edge"><title>Node6_1-&gt;Node6_2</title><path fill="none" stroke="#000" d="M500.6,-62.27C500.6,-75.58 500.6,-91.19 500.6,-102.82"/><polygon fill="#000" stroke="#000" points="504.1 -62.2 500.6 -52.2 497.1 -62.2 504.1 -62.2"/><text x="565.1" y="-73.8" font-family="Times,serif" font-size="14" text-anchor="middle">कर्मधारयः</text></g><g id="node15" class="node"><title>Node7_1</title><ellipse cx="326.6" cy="-295" fill="#93db70" stroke="#93db70" rx="78.79" ry="18"/><text x="326.6" y="-291.3" font-family="Times,serif" font-size="14" text-anchor="middle">इमाम्(7.1)</text></g><g id="edge9" class="edge"><title>Node7_1-&gt;Node8_1</title><path fill="none" stroke="#000" d="M314.44,-322.39C310.07,-330.43 304.69,-338.98 298.6,-346 292.8,-352.67 285.56,-358.88 278.54,-364.18"/><polygon fill="#000" stroke="#000" points="317.64 -323.81 319.09 -313.32 311.41 -320.62 317.64 -323.81"/><text x="338.6" y="-334.8" font-family="Times,serif" font-size="14" text-anchor="middle">कर्म</text></g><g id="node16" class="node"><title>Node9_1</title><ellipse cx="2646.6" cy="-34" fill="#f9f" stroke="#f9f" rx="41.69" ry="18"/><text x="2646.6" y="-30.3" font-family="Times,serif" font-size="14" text-anchor="middle">न(9.1)</text></g><g id="node17" class="node"><title>Node12_1</title><ellipse cx="2882.6" cy="-121" fill="#00bfff" stroke="#00bfff" rx="93.68" ry="18"/><text x="2882.6" y="-117.3" font-family="Times,serif" font-size="14" text-anchor="middle">विचिता(12.1)</text></g><g id="edge10" class="edge"><title>Node9_1-&gt;Node12_1</title><path fill="none" stroke="#000" d="M2647.38,-62.19C2648.99,-70.58 2652.25,-79.15 2658.6,-85 2658.96,-85.33 2746.64,-98.96 2812.18,-109.11"/><polygon fill="#000" stroke="#000" points="2650.85 -61.73 2646.15 -52.23 2643.91 -62.59 2650.85 -61.73"/><text x="2723.1" y="-73.8" font-family="Times,serif" font-size="14" text-anchor="middle">प्रतिषेधः</text></g><g id="node18" class="node"><title>Node10_1</title><ellipse cx="2792.6" cy="-34" fill="#f9f" stroke="#f9f" rx="56.59" ry="18"/><text x="2792.6" y="-30.3" font-family="Times,serif" font-size="14" text-anchor="middle">हि(10.1)</text></g><g id="edge11" class="edge"><title>Node10_1-&gt;Node12_1</title><path fill="none" stroke="#000" d="M2790.86,-62.43C2791.61,-70.36 2793.75,-78.6 2798.6,-85 2805.75,-94.45 2815.92,-101.37 2826.72,-106.42"/><polygon fill="#000" stroke="#000" points="2794.35 -62.24 2790.55 -52.35 2787.36 -62.45 2794.35 -62.24"/><text x="2856.1" y="-73.8" font-family="Times,serif" font-size="14" text-anchor="middle">सम्बन्धः</text></g><g id="node19" class="node"><title>Node11_1</title><ellipse cx="2942.6" cy="-34" fill="#00bfff" stroke="#00bfff" rx="75.29" ry="18"/><text x="2942.6" y="-30.3" font-family="Times,serif" font-size="14" text-anchor="middle">इयम्(11.1)</text></g><g id="edge12" class="edge"><title>Node11_1-&gt;Node12_1</title><path fill="none" stroke="#000" d="M2931.44,-61.24C2927.56,-69.18 2922.84,-77.72 2917.6,-85 2912.97,-91.41 2907.15,-97.74 2901.59,-103.21"/><polygon fill="#000" stroke="#000" points="2934.71 -62.52 2935.75 -51.98 2928.36 -59.57 2934.71 -62.52"/><text x="2954.6" y="-73.8" font-family="Times,serif" font-size="14" text-anchor="middle">कर्म</text></g><g id="node20" class="node"><title>Node13_1</title><ellipse cx="3101.6" cy="-34" fill="#40e0d0" stroke="#40e0d0" rx="65.79" ry="18"/><text x="3101.6" y="-30.3" font-family="Times,serif" font-size="14" text-anchor="middle">मया(13.1)</text></g><g id="edge13" class="edge"><title>Node13_1-&gt;Node12_1</title><path fill="none" stroke="#000" d="M3060.79,-53.98C3039.22,-63.74 3012.19,-75.53 2987.6,-85 2968.77,-92.25 2947.72,-99.44 2929.44,-105.4"/><polygon fill="#000" stroke="#000" points="3062.33 -57.13 3069.98 -49.8 3059.43 -50.76 3062.33 -57.13"/><text x="3057.6" y="-73.8" font-family="Times,serif" font-size="14" text-anchor="middle">कर्ता</text></g><g id="node26" class="node"><title>Node24_1</title><ellipse cx="1268.6" cy="-295" fill="#ff1975" stroke="#ff1975" rx="121.58" ry="18"/><text x="1268.6" y="-291.3" font-family="Times,serif" font-size="14" text-anchor="middle">गमिष्यामि(24.1)</text></g><g id="edge23" class="edge"><title>Node23_1-&gt;Node24_1</title><path fill="none" stroke="#000" d="M1467.61,-227.14C1422.41,-242.32 1358.56,-263.77 1315.48,-278.25"/><polygon fill="#000" stroke="#000" points="1468.87 -230.41 1477.24 -223.9 1466.64 -223.77 1468.87 -230.41"/><text x="1474.1" y="-247.8" font-family="Times,serif" font-size="14" text-anchor="middle">पूर्वकालः</text></g><g id="node22" class="node"><title>Node16_1</title><ellipse cx="2645.6" cy="-121" fill="#f9f" stroke="#f9f" rx="65.79" ry="18"/><text x="2645.6" y="-117.3" font-family="Times,serif" font-size="14" text-anchor="middle">तथा(16.1)</text></g><g id="edge16" class="edge"><title>Node16_1-&gt;Node23_1</title><path fill="none" stroke="#000" d="M2601.82,-139.79C2593.25,-142.65 2584.23,-145.25 2575.6,-147 2393.05,-183.99 1835.98,-200.07 1614.16,-205.12"/><polygon fill="#000" stroke="#000" points="2602.99 -143.09 2611.26 -136.47 2600.67 -136.48 2602.99 -143.09"/><text x="2567.1" y="-160.8" font-family="Times,serif" font-size="14" text-anchor="middle">सम्बन्धः</text></g><g id="node23" class="node"><title>Node20_1</title><ellipse cx="1314.6" cy="-121" fill="#f9f" stroke="#f9f" rx="65.79" ry="18"/><text x="1314.6" y="-117.3" font-family="Times,serif" font-size="14" text-anchor="middle">अपि(20.1)</text></g><g id="edge20" class="edge"><title>Node20_1-&gt;Node23_1</title><path fill="none" stroke="#000" d="M1314.92,-149.35C1316.38,-157.65 1319.47,-166.11 1325.6,-172 1341.52,-187.3 1390.36,-196.04 1435.3,-200.97"/><polygon fill="#000" stroke="#000" points="1318.38 -148.71 1313.84 -139.14 1311.41 -149.45 1318.38 -148.71"/><text x="1383.1" y="-160.8" font-family="Times,serif" font-size="14" text-anchor="middle">सम्बन्धः</text></g><g id="node24" class="node"><title>Node21_1</title><ellipse cx="1452.6" cy="-121" fill="#f9f" stroke="#f9f" rx="47.39" ry="18"/><text x="1452.6" y="-117.3" font-family="Times,serif" font-size="14" text-anchor="middle">च(21.1)</text></g><g id="edge21" class="edge"><title>Node21_1-&gt;Node23_1</title><path fill="none" stroke="#000" d="M1445.25,-148.98C1444.55,-156.89 1445.36,-165.23 1449.6,-172 1455.13,-180.84 1463.6,-187.5 1472.81,-192.5"/><polygon fill="#000" stroke="#000" points="1448.72 -149.41 1446.88 -138.98 1441.82 -148.29 1448.72 -149.41"/><text x="1507.1" y="-160.8" font-family="Times,serif" font-size="14" text-anchor="middle">सम्बन्धः</text></g><g id="node25" class="node"><title>Node22_1</title><ellipse cx="1586.6" cy="-121" fill="#f9f" stroke="#f9f" rx="65.79" ry="18"/><text x="1586.6" y="-117.3" font-family="Times,serif" font-size="14" text-anchor="middle">नमः(22.1)</text></g><g id="edge22" class="edge"><title>Node22_1-&gt;Node23_1</title><path fill="none" stroke="#000" d="M1580.07,-149.03C1577.35,-156.92 1573.62,-165.23 1568.6,-172 1563.38,-179.03 1556.37,-185.28 1549.35,-190.49"/><polygon fill="#000" stroke="#000" points="1583.43 -150 1583 -139.41 1576.74 -147.96 1583.43 -150"/><text x="1633.1" y="-160.8" font-family="Times,serif" font-size="14" text-anchor="middle">सम्बन्धः</text></g><g id="node27" class="node"><title>Node25_1</title><ellipse cx="875.6" cy="-121" fill="#87ceeb" stroke="#87ceeb" rx="112.38" ry="18"/><text x="875.6" y="-117.3" font-family="Times,serif" font-size="14" text-anchor="middle">रक्षसाम्(25.1)</text></g><g id="node28" class="node"><title>Node26_2</title><ellipse cx="1084.6" cy="-208" fill="#00bfff" stroke="#00bfff" rx="93.68" ry="18"/><text x="1084.6" y="-204.3" font-family="Times,serif" font-size="14" text-anchor="middle">वर्धनः(26.2)</text></g><g id="edge24" class="edge"><title>Node25_1-&gt;Node26_2</title><path fill="none" stroke="#000" d="M880.41,-149.03C883.21,-157.52 887.62,-166.19 894.6,-172 910.99,-185.66 958.03,-194.39 1001.2,-199.72"/><polygon fill="#000" stroke="#000" points="883.78 -148.08 877.81 -139.33 877.02 -149.89 883.78 -148.08"/><text x="987.6" y="-160.8" font-family="Times,serif" font-size="14" text-anchor="middle">षष्ठीसम्बन्धः</text></g><g id="edge26" class="edge"><title>Node26_2-&gt;Node24_1</title><path fill="none" stroke="#000" d="M1127.94,-229.02C1160.08,-243.87 1203.33,-263.85 1233.35,-277.72"/><polygon fill="#000" stroke="#000" points="1129.32 -225.81 1118.77 -224.79 1126.38 -232.16 1129.32 -225.81"/><text x="1223.6" y="-247.8" font-family="Times,serif" font-size="14" text-anchor="middle">कर्ता</text></g><g id="node29" class="node"><title>Node26_1</title><ellipse cx="1084.6" cy="-121" fill="#ff0" stroke="#ff0" rx="68.79" ry="18"/><text x="1084.6" y="-117.3" font-family="Times,serif" font-size="14" text-anchor="middle">शोक-(26.1)</text></g><g id="edge25" class="edge"><title>Node26_1-&gt;Node26_2</title><path fill="none" stroke="#000" d="M1084.6,-149.27C1084.6,-162.58 1084.6,-178.19 1084.6,-189.82"/><polygon fill="#000" stroke="#000" points="1088.1 -149.2 1084.6 -139.2 1081.1 -149.2 1088.1 -149.2"/><text x="1188.1" y="-160.8" font-family="Times,serif" font-size="14" text-anchor="middle">षष्ठी_तत्पुरुषः</text></g></g></svg>