<?xml version="1.0" encoding="UTF-8" standalone="no"?>
<!DOCTYPE svg PUBLIC "-//W3C//DTD SVG 1.1//EN"
 "http://www.w3.org/Graphics/SVG/1.1/DTD/svg11.dtd">
<!-- Generated by graphviz version 2.43.0 (0)
 -->
<!-- Title: G Pages: 1 -->
<svg width="688pt" height="653pt"
 viewBox="0.00 0.00 687.54 653.00" xmlns="http://www.w3.org/2000/svg" xmlns:xlink="http://www.w3.org/1999/xlink">
<g id="graph0" class="graph" transform="scale(1 1) rotate(0) translate(4 649)">
<title>G</title>
<polygon fill="#fffacd" stroke="transparent" points="-4,4 -4,-649 683.54,-649 683.54,4 -4,4"/>
<g id="clust1" class="cluster">
<title>cluster_1</title>
<polygon fill="#fffacd" stroke="black" points="341.54,-253 341.54,-392 645.54,-392 645.54,-253 341.54,-253"/>
</g>
<g id="clust2" class="cluster">
<title>cluster_2</title>
<polygon fill="#fffacd" stroke="black" points="386.54,-79 386.54,-218 616.54,-218 616.54,-79 386.54,-79"/>
</g>
<!-- Node2_1 -->
<g id="node1" class="node">
<title>Node2_1</title>
<ellipse fill="#87ceeb" stroke="#87ceeb" cx="493.54" cy="-279" rx="143.77" ry="18"/>
<text text-anchor="middle" x="493.54" y="-275.3" font-family="Times,serif" font-size="14.00">ह्रियमाणायाः(2.1)</text>
</g>
<!-- Node7_1 -->
<g id="node2" class="node">
<title>Node7_1</title>
<ellipse fill="#87ceeb" stroke="#87ceeb" cx="493.54" cy="-366" rx="106.68" ry="18"/>
<text text-anchor="middle" x="493.54" y="-362.3" font-family="Times,serif" font-size="14.00">आर्यायाः(7.1)</text>
</g>
<!-- Node2_1&#45;&gt;Node7_1 -->
<g id="edge2" class="edge">
<title>Node2_1&#45;&gt;Node7_1</title>
<path fill="none" stroke="black" d="M493.54,-307.27C493.54,-320.58 493.54,-336.19 493.54,-347.82"/>
<polygon fill="black" stroke="black" points="497.04,-307.2 493.54,-297.2 490.04,-307.2 497.04,-307.2"/>
<text text-anchor="middle" x="551.04" y="-318.8" font-family="Times,serif" font-size="14.00">विशेषणम्</text>
</g>
<!-- Node8_1 -->
<g id="node9" class="node">
<title>Node8_1</title>
<ellipse fill="#93db70" stroke="#93db70" cx="493.54" cy="-453" rx="87.99" ry="18"/>
<text text-anchor="middle" x="493.54" y="-449.3" font-family="Times,serif" font-size="14.00">हृदयम्(8.1)</text>
</g>
<!-- Node7_1&#45;&gt;Node8_1 -->
<g id="edge7" class="edge">
<title>Node7_1&#45;&gt;Node8_1</title>
<path fill="none" stroke="black" d="M493.54,-394.27C493.54,-407.58 493.54,-423.19 493.54,-434.82"/>
<polygon fill="black" stroke="black" points="497.04,-394.2 493.54,-384.2 490.04,-394.2 497.04,-394.2"/>
<text text-anchor="middle" x="586.54" y="-405.8" font-family="Times,serif" font-size="14.00">षष्ठीसम्बन्धः</text>
</g>
<!-- Node4_2 -->
<g id="node3" class="node">
<title>Node4_2</title>
<ellipse fill="#c6e2eb" stroke="#c6e2eb" cx="501.54" cy="-105" rx="106.68" ry="18"/>
<text text-anchor="middle" x="501.54" y="-101.3" font-family="Times,serif" font-size="14.00">निषेविते(4.2)</text>
</g>
<!-- Node3_1 -->
<g id="node4" class="node">
<title>Node3_1</title>
<ellipse fill="#c6e2eb" stroke="#c6e2eb" cx="493.54" cy="-192" rx="59.59" ry="18"/>
<text text-anchor="middle" x="493.54" y="-188.3" font-family="Times,serif" font-size="14.00">पथि(3.1)</text>
</g>
<!-- Node4_2&#45;&gt;Node3_1 -->
<g id="edge5" class="edge">
<title>Node4_2&#45;&gt;Node3_1</title>
<path fill="none" stroke="black" d="M498.98,-133.27C497.72,-146.58 496.25,-162.19 495.16,-173.82"/>
<polygon fill="black" stroke="black" points="502.47,-133.49 499.92,-123.2 495.5,-132.83 502.47,-133.49"/>
<text text-anchor="middle" x="555.04" y="-144.8" font-family="Times,serif" font-size="14.00">विशेषणम्</text>
</g>
<!-- Node3_1&#45;&gt;Node2_1 -->
<g id="edge3" class="edge">
<title>Node3_1&#45;&gt;Node2_1</title>
<path fill="none" stroke="black" d="M493.54,-220.27C493.54,-233.58 493.54,-249.19 493.54,-260.82"/>
<polygon fill="black" stroke="black" points="497.04,-220.2 493.54,-210.2 490.04,-220.2 497.04,-220.2"/>
<text text-anchor="middle" x="551.04" y="-231.8" font-family="Times,serif" font-size="14.00">अधिकरणम्</text>
</g>
<!-- Node1_1 -->
<g id="node5" class="node">
<title>Node1_1</title>
<ellipse fill="#ff99ff" stroke="#ff99ff" cx="69.54" cy="-540" rx="69.59" ry="18"/>
<text text-anchor="middle" x="69.54" y="-536.3" font-family="Times,serif" font-size="14.00">अथवा(1.1)</text>
</g>
<!-- Node5_1 -->
<g id="node6" class="node">
<title>Node5_1</title>
<ellipse fill="#ff1975" stroke="#ff1975" cx="272.54" cy="-627" rx="78.79" ry="18"/>
<text text-anchor="middle" x="272.54" y="-623.3" font-family="Times,serif" font-size="14.00">मन्ये(5.1)</text>
</g>
<!-- Node1_1&#45;&gt;Node5_1 -->
<g id="edge1" class="edge">
<title>Node1_1&#45;&gt;Node5_1</title>
<path fill="none" stroke="black" d="M101.5,-562.6C116.77,-572.24 135.6,-583.17 153.54,-591 174.66,-600.22 198.92,-607.84 220,-613.6"/>
<polygon fill="black" stroke="black" points="103.25,-559.57 92.95,-557.11 99.47,-565.46 103.25,-559.57"/>
<text text-anchor="middle" x="211.04" y="-579.8" font-family="Times,serif" font-size="14.00">सम्बन्धः</text>
</g>
<!-- Node4_1 -->
<g id="node7" class="node">
<title>Node4_1</title>
<ellipse fill="#ffff00" stroke="#ffff00" cx="501.54" cy="-18" rx="81.49" ry="18"/>
<text text-anchor="middle" x="501.54" y="-14.3" font-family="Times,serif" font-size="14.00">सिद्ध&#45;(4.1)</text>
</g>
<!-- Node4_1&#45;&gt;Node4_2 -->
<g id="edge4" class="edge">
<title>Node4_1&#45;&gt;Node4_2</title>
<path fill="none" stroke="black" d="M501.54,-46.27C501.54,-59.58 501.54,-75.19 501.54,-86.82"/>
<polygon fill="black" stroke="black" points="505.04,-46.2 501.54,-36.2 498.04,-46.2 505.04,-46.2"/>
<text text-anchor="middle" x="566.04" y="-57.8" font-family="Times,serif" font-size="14.00">कर्मधारयः</text>
</g>
<!-- Node6_1 -->
<g id="node8" class="node">
<title>Node6_1</title>
<ellipse fill="#93db70" stroke="#93db70" cx="493.54" cy="-540" rx="87.99" ry="18"/>
<text text-anchor="middle" x="493.54" y="-536.3" font-family="Times,serif" font-size="14.00">पतितम्(6.1)</text>
</g>
<!-- Node6_1&#45;&gt;Node5_1 -->
<g id="edge6" class="edge">
<title>Node6_1&#45;&gt;Node5_1</title>
<path fill="none" stroke="black" d="M459.7,-562.97C443.75,-572.6 424.18,-583.4 405.54,-591 381.22,-600.91 353.25,-608.77 329.25,-614.51"/>
<polygon fill="black" stroke="black" points="461.95,-565.7 468.63,-557.48 458.28,-559.74 461.95,-565.7"/>
<text text-anchor="middle" x="464.54" y="-579.8" font-family="Times,serif" font-size="14.00">कर्म</text>
</g>
<!-- Node8_1&#45;&gt;Node6_1 -->
<g id="edge8" class="edge">
<title>Node8_1&#45;&gt;Node6_1</title>
<path fill="none" stroke="black" d="M493.54,-481.27C493.54,-494.58 493.54,-510.19 493.54,-521.82"/>
<polygon fill="black" stroke="black" points="497.04,-481.2 493.54,-471.2 490.04,-481.2 497.04,-481.2"/>
<text text-anchor="middle" x="522.54" y="-492.8" font-family="Times,serif" font-size="14.00">कर्म</text>
</g>
<!-- Node9_1 -->
<g id="node10" class="node">
<title>Node9_1</title>
<ellipse fill="#ff99ff" stroke="#ff99ff" cx="272.54" cy="-540" rx="115.88" ry="18"/>
<text text-anchor="middle" x="272.54" y="-536.3" font-family="Times,serif" font-size="14.00">प्रेक्ष्य(9.1)</text>
</g>
<!-- Node9_1&#45;&gt;Node5_1 -->
<g id="edge9" class="edge">
<title>Node9_1&#45;&gt;Node5_1</title>
<path fill="none" stroke="black" d="M272.54,-568.27C272.54,-581.58 272.54,-597.19 272.54,-608.82"/>
<polygon fill="black" stroke="black" points="276.04,-568.2 272.54,-558.2 269.04,-568.2 276.04,-568.2"/>
<text text-anchor="middle" x="337.04" y="-579.8" font-family="Times,serif" font-size="14.00">पूर्वकालः</text>
</g>
<!-- Node10_1 -->
<g id="node11" class="node">
<title>Node10_1</title>
<ellipse fill="#93db70" stroke="#93db70" cx="272.54" cy="-453" rx="93.68" ry="18"/>
<text text-anchor="middle" x="272.54" y="-449.3" font-family="Times,serif" font-size="14.00">सागरम्(10.1)</text>
</g>
<!-- Node10_1&#45;&gt;Node9_1 -->
<g id="edge10" class="edge">
<title>Node10_1&#45;&gt;Node9_1</title>
<path fill="none" stroke="black" d="M272.54,-481.27C272.54,-494.58 272.54,-510.19 272.54,-521.82"/>
<polygon fill="black" stroke="black" points="276.04,-481.2 272.54,-471.2 269.04,-481.2 276.04,-481.2"/>
<text text-anchor="middle" x="301.54" y="-492.8" font-family="Times,serif" font-size="14.00">कर्म</text>
</g>
</g>
</svg>
