<?xml version="1.0" encoding="UTF-8" standalone="no"?>
<!DOCTYPE svg PUBLIC "-//W3C//DTD SVG 1.1//EN"
 "http://www.w3.org/Graphics/SVG/1.1/DTD/svg11.dtd">
<!-- Generated by graphviz version 2.43.0 (0)
 -->
<!-- Title: G Pages: 1 -->
<svg width="2085pt" height="408pt"
 viewBox="0.00 0.00 2084.54 408.00" xmlns="http://www.w3.org/2000/svg" xmlns:xlink="http://www.w3.org/1999/xlink">
<g id="graph0" class="graph" transform="scale(1 1) rotate(0) translate(4 404)">
<title>G</title>
<polygon fill="#fffacd" stroke="transparent" points="-4,4 -4,-404 2080.54,-404 2080.54,4 -4,4"/>
<g id="clust1" class="cluster">
<title>cluster_1</title>
<polygon fill="#fffacd" stroke="black" points="776,-95 776,-234 986,-234 986,-95 776,-95"/>
</g>
<g id="clust2" class="cluster">
<title>cluster_2</title>
<polygon fill="#fffacd" stroke="black" points="8,-95 8,-234 200,-234 200,-95 8,-95"/>
</g>
<g id="clust3" class="cluster">
<title>cluster_3</title>
<polygon fill="#fffacd" stroke="black" points="1096,-8 1096,-147 1336,-147 1336,-8 1096,-8"/>
</g>
<g id="clust4" class="cluster">
<title>cluster_4</title>
<polygon fill="#fffacd" stroke="black" points="1224,-182 1224,-321 1464,-321 1464,-182 1224,-182"/>
</g>
<g id="clust5" class="cluster">
<title>cluster_5</title>
<polygon fill="#fffacd" stroke="black" points="1472,-182 1472,-321 1732,-321 1732,-182 1472,-182"/>
</g>
<!-- Node3_2 -->
<g id="node1" class="node">
<title>Node3_2</title>
<ellipse fill="#40e0d0" stroke="#40e0d0" cx="881" cy="-121" rx="96.68" ry="18"/>
<text text-anchor="middle" x="881" y="-117.3" font-family="Times,serif" font-size="14.00">व्यसनेन(3.2)</text>
</g>
<!-- Node2_1 -->
<g id="node2" class="node">
<title>Node2_1</title>
<ellipse fill="#40e0d0" stroke="#40e0d0" cx="881" cy="-208" rx="96.68" ry="18"/>
<text text-anchor="middle" x="881" y="-204.3" font-family="Times,serif" font-size="14.00">विनाशेन(2.1)</text>
</g>
<!-- Node3_2&#45;&gt;Node2_1 -->
<g id="edge5" class="edge">
<title>Node3_2&#45;&gt;Node2_1</title>
<path fill="none" stroke="black" d="M881,-149.27C881,-162.58 881,-178.19 881,-189.82"/>
<polygon fill="black" stroke="black" points="884.5,-149.2 881,-139.2 877.5,-149.2 884.5,-149.2"/>
<text text-anchor="middle" x="945.5" y="-160.8" font-family="Times,serif" font-size="14.00">समुच्चितः</text>
</g>
<!-- Node9_1 -->
<g id="node13" class="node">
<title>Node9_1</title>
<ellipse fill="#00bfff" stroke="#00bfff" cx="445" cy="-295" rx="124.58" ry="18"/>
<text text-anchor="middle" x="445" y="-291.3" font-family="Times,serif" font-size="14.00">विजहिष्यति(9.1)</text>
</g>
<!-- Node2_1&#45;&gt;Node9_1 -->
<g id="edge3" class="edge">
<title>Node2_1&#45;&gt;Node9_1</title>
<path fill="none" stroke="black" d="M815.03,-225.12C801.8,-228.19 787.98,-231.29 775,-234 689.21,-251.9 590.24,-269.49 523.23,-280.95"/>
<polygon fill="black" stroke="black" points="816.07,-228.47 825.01,-222.78 814.47,-221.65 816.07,-228.47"/>
<text text-anchor="middle" x="758" y="-247.8" font-family="Times,serif" font-size="14.00">करणम्</text>
</g>
<!-- Node5_1 -->
<g id="node3" class="node">
<title>Node5_1</title>
<ellipse fill="#00bfff" stroke="#00bfff" cx="104" cy="-121" rx="87.99" ry="18"/>
<text text-anchor="middle" x="104" y="-117.3" font-family="Times,serif" font-size="14.00">कुमारः(5.1)</text>
</g>
<!-- Node7_1 -->
<g id="node4" class="node">
<title>Node7_1</title>
<ellipse fill="#00bfff" stroke="#00bfff" cx="104" cy="-208" rx="87.99" ry="18"/>
<text text-anchor="middle" x="104" y="-204.3" font-family="Times,serif" font-size="14.00">अङ्गदः(7.1)</text>
</g>
<!-- Node5_1&#45;&gt;Node7_1 -->
<g id="edge7" class="edge">
<title>Node5_1&#45;&gt;Node7_1</title>
<path fill="none" stroke="black" d="M104,-149.27C104,-162.58 104,-178.19 104,-189.82"/>
<polygon fill="black" stroke="black" points="107.5,-149.2 104,-139.2 100.5,-149.2 107.5,-149.2"/>
<text text-anchor="middle" x="161.5" y="-160.8" font-family="Times,serif" font-size="14.00">विशेषणम्</text>
</g>
<!-- Node7_1&#45;&gt;Node9_1 -->
<g id="edge9" class="edge">
<title>Node7_1&#45;&gt;Node9_1</title>
<path fill="none" stroke="black" d="M146.99,-228.74C170.98,-239.08 201.66,-251.17 230,-259 268.91,-269.75 312.76,-277.62 350.65,-283.15"/>
<polygon fill="black" stroke="black" points="148.37,-225.53 137.81,-224.74 145.57,-231.95 148.37,-225.53"/>
<text text-anchor="middle" x="266" y="-247.8" font-family="Times,serif" font-size="14.00">कर्ता</text>
</g>
<!-- Node11_1 -->
<g id="node5" class="node">
<title>Node11_1</title>
<ellipse fill="#40e0d0" stroke="#40e0d0" cx="1216" cy="-34" rx="112.38" ry="18"/>
<text text-anchor="middle" x="1216" y="-30.3" font-family="Times,serif" font-size="14.00">भर्तृजेन(11.1)</text>
</g>
<!-- Node13_1 -->
<g id="node6" class="node">
<title>Node13_1</title>
<ellipse fill="#40e0d0" stroke="#40e0d0" cx="1223" cy="-121" rx="93.68" ry="18"/>
<text text-anchor="middle" x="1223" y="-117.3" font-family="Times,serif" font-size="14.00">दुःखेन(13.1)</text>
</g>
<!-- Node11_1&#45;&gt;Node13_1 -->
<g id="edge12" class="edge">
<title>Node11_1&#45;&gt;Node13_1</title>
<path fill="none" stroke="black" d="M1218.25,-62.27C1219.34,-75.58 1220.63,-91.19 1221.59,-102.82"/>
<polygon fill="black" stroke="black" points="1221.73,-61.88 1217.42,-52.2 1214.75,-62.45 1221.73,-61.88"/>
<text text-anchor="middle" x="1277.5" y="-73.8" font-family="Times,serif" font-size="14.00">विशेषणम्</text>
</g>
<!-- Node14_1 -->
<g id="node7" class="node">
<title>Node14_1</title>
<ellipse fill="#93db70" stroke="#93db70" cx="1344" cy="-208" rx="112.38" ry="18"/>
<text text-anchor="middle" x="1344" y="-204.3" font-family="Times,serif" font-size="14.00">अभिभूताः(14.1)</text>
</g>
<!-- Node13_1&#45;&gt;Node14_1 -->
<g id="edge14" class="edge">
<title>Node13_1&#45;&gt;Node14_1</title>
<path fill="none" stroke="black" d="M1254.51,-144.22C1266.82,-152.89 1281.07,-162.92 1294,-172 1302.5,-177.97 1311.82,-184.49 1320.08,-190.28"/>
<polygon fill="black" stroke="black" points="1256.52,-141.36 1246.33,-138.46 1252.49,-147.08 1256.52,-141.36"/>
<text text-anchor="middle" x="1330" y="-160.8" font-family="Times,serif" font-size="14.00">करणम्</text>
</g>
<!-- Node15_1 -->
<g id="node8" class="node">
<title>Node15_1</title>
<ellipse fill="#00bfff" stroke="#00bfff" cx="1352" cy="-295" rx="93.68" ry="18"/>
<text text-anchor="middle" x="1352" y="-291.3" font-family="Times,serif" font-size="14.00">वनौकसः(15.1)</text>
</g>
<!-- Node14_1&#45;&gt;Node15_1 -->
<g id="edge15" class="edge">
<title>Node14_1&#45;&gt;Node15_1</title>
<path fill="none" stroke="black" d="M1346.57,-236.27C1347.82,-249.58 1349.29,-265.19 1350.38,-276.82"/>
<polygon fill="black" stroke="black" points="1350.04,-235.83 1345.62,-226.2 1343.07,-236.49 1350.04,-235.83"/>
<text text-anchor="middle" x="1406.5" y="-247.8" font-family="Times,serif" font-size="14.00">विशेषणम्</text>
</g>
<!-- Node17_1 -->
<g id="node20" class="node">
<title>Node17_1</title>
<ellipse fill="#ff1975" stroke="#ff1975" cx="1794" cy="-382" rx="158.67" ry="18"/>
<text text-anchor="middle" x="1794" y="-378.3" font-family="Times,serif" font-size="14.00">अभिहनिष्यन्ति(17.1)</text>
</g>
<!-- Node15_1&#45;&gt;Node17_1 -->
<g id="edge16" class="edge">
<title>Node15_1&#45;&gt;Node17_1</title>
<path fill="none" stroke="black" d="M1420.95,-311.22C1436.42,-314.53 1452.75,-317.95 1468,-321 1550.82,-337.54 1645.81,-354.83 1711.81,-366.58"/>
<polygon fill="black" stroke="black" points="1421.45,-307.75 1410.94,-309.06 1419.98,-314.59 1421.45,-307.75"/>
<text text-anchor="middle" x="1629" y="-334.8" font-family="Times,serif" font-size="14.00">कर्ता</text>
</g>
<!-- Node19_1 -->
<g id="node9" class="node">
<title>Node19_1</title>
<ellipse fill="#40e0d0" stroke="#40e0d0" cx="1602" cy="-208" rx="121.58" ry="18"/>
<text text-anchor="middle" x="1602" y="-204.3" font-family="Times,serif" font-size="14.00">मुष्टिभिः(19.1)</text>
</g>
<!-- Node18_1 -->
<g id="node10" class="node">
<title>Node18_1</title>
<ellipse fill="#40e0d0" stroke="#40e0d0" cx="1647" cy="-295" rx="75.29" ry="18"/>
<text text-anchor="middle" x="1647" y="-291.3" font-family="Times,serif" font-size="14.00">तलैः(18.1)</text>
</g>
<!-- Node19_1&#45;&gt;Node18_1 -->
<g id="edge19" class="edge">
<title>Node19_1&#45;&gt;Node18_1</title>
<path fill="none" stroke="black" d="M1615.84,-235.15C1623.08,-248.81 1631.72,-265.13 1638.06,-277.11"/>
<polygon fill="black" stroke="black" points="1618.88,-233.4 1611.11,-226.2 1612.69,-236.68 1618.88,-233.4"/>
<text text-anchor="middle" x="1691.5" y="-247.8" font-family="Times,serif" font-size="14.00">समुच्चितः</text>
</g>
<!-- Node18_1&#45;&gt;Node17_1 -->
<g id="edge18" class="edge">
<title>Node18_1&#45;&gt;Node17_1</title>
<path fill="none" stroke="black" d="M1683.2,-316.93C1708.43,-331.52 1741.62,-350.71 1765.08,-364.28"/>
<polygon fill="black" stroke="black" points="1684.71,-313.76 1674.31,-311.79 1681.21,-319.82 1684.71,-313.76"/>
<text text-anchor="middle" x="1765" y="-334.8" font-family="Times,serif" font-size="14.00">करणम्</text>
</g>
<!-- Node1_1 -->
<g id="node11" class="node">
<title>Node1_1</title>
<ellipse fill="#ffff00" stroke="#ffff00" cx="640" cy="-34" rx="72.29" ry="18"/>
<text text-anchor="middle" x="640" y="-30.3" font-family="Times,serif" font-size="14.00">माता&#45;(1.1)</text>
</g>
<!-- Node1_2 -->
<g id="node12" class="node">
<title>Node1_2</title>
<ellipse fill="#87ceeb" stroke="#87ceeb" cx="640" cy="-121" rx="96.68" ry="18"/>
<text text-anchor="middle" x="640" y="-117.3" font-family="Times,serif" font-size="14.00">पित्रोः(1.2)</text>
</g>
<!-- Node1_1&#45;&gt;Node1_2 -->
<g id="edge1" class="edge">
<title>Node1_1&#45;&gt;Node1_2</title>
<path fill="none" stroke="black" d="M640,-62.27C640,-75.58 640,-91.19 640,-102.82"/>
<polygon fill="black" stroke="black" points="643.5,-62.2 640,-52.2 636.5,-62.2 643.5,-62.2"/>
<text text-anchor="middle" x="704.5" y="-73.8" font-family="Times,serif" font-size="14.00">द्वन्द्वः</text>
</g>
<!-- Node1_2&#45;&gt;Node2_1 -->
<g id="edge2" class="edge">
<title>Node1_2&#45;&gt;Node2_1</title>
<path fill="none" stroke="black" d="M658.99,-146.65C667.68,-156.16 678.77,-166.14 691,-172 724.9,-188.25 737.98,-175.45 775,-182 792.04,-185.01 810.44,-189.07 827.05,-193.03"/>
<polygon fill="black" stroke="black" points="661.46,-144.16 652.28,-138.87 656.16,-148.73 661.46,-144.16"/>
<text text-anchor="middle" x="784" y="-160.8" font-family="Times,serif" font-size="14.00">षष्ठीसम्बन्धः</text>
</g>
<!-- Node3_1 -->
<g id="node14" class="node">
<title>Node3_1</title>
<ellipse fill="#ffff00" stroke="#ffff00" cx="881" cy="-34" rx="100.18" ry="18"/>
<text text-anchor="middle" x="881" y="-30.3" font-family="Times,serif" font-size="14.00">सुग्रीव&#45;(3.1)</text>
</g>
<!-- Node3_1&#45;&gt;Node3_2 -->
<g id="edge4" class="edge">
<title>Node3_1&#45;&gt;Node3_2</title>
<path fill="none" stroke="black" d="M881,-62.27C881,-75.58 881,-91.19 881,-102.82"/>
<polygon fill="black" stroke="black" points="884.5,-62.2 881,-52.2 877.5,-62.2 884.5,-62.2"/>
<text text-anchor="middle" x="984.5" y="-73.8" font-family="Times,serif" font-size="14.00">षष्ठी_तत्पुरुषः</text>
</g>
<!-- Node4_1 -->
<g id="node15" class="node">
<title>Node4_1</title>
<ellipse fill="#ff99ff" stroke="#ff99ff" cx="1037" cy="-121" rx="41.69" ry="18"/>
<text text-anchor="middle" x="1037" y="-117.3" font-family="Times,serif" font-size="14.00">च(4.1)</text>
</g>
<!-- Node4_1&#45;&gt;Node2_1 -->
<g id="edge6" class="edge">
<title>Node4_1&#45;&gt;Node2_1</title>
<path fill="none" stroke="black" d="M1029.7,-148.81C1026.2,-157.28 1021.15,-165.99 1014,-172 999.1,-184.51 980.2,-192.61 961.37,-197.83"/>
<polygon fill="black" stroke="black" points="1033.08,-149.75 1033.14,-139.15 1026.49,-147.4 1033.08,-149.75"/>
<text text-anchor="middle" x="1129.5" y="-160.8" font-family="Times,serif" font-size="14.00">समुच्चय_द्योतकः</text>
</g>
<!-- Node6_1 -->
<g id="node16" class="node">
<title>Node6_1</title>
<ellipse fill="#ff99ff" stroke="#ff99ff" cx="270" cy="-208" rx="59.59" ry="18"/>
<text text-anchor="middle" x="270" y="-204.3" font-family="Times,serif" font-size="14.00">अपि(6.1)</text>
</g>
<!-- Node6_1&#45;&gt;Node9_1 -->
<g id="edge8" class="edge">
<title>Node6_1&#45;&gt;Node9_1</title>
<path fill="none" stroke="black" d="M291.94,-232.72C301.61,-242.03 313.6,-252.1 326,-259 341.9,-267.84 360.27,-274.66 377.75,-279.83"/>
<polygon fill="black" stroke="black" points="294.26,-230.09 284.71,-225.51 289.31,-235.05 294.26,-230.09"/>
<text text-anchor="middle" x="383.5" y="-247.8" font-family="Times,serif" font-size="14.00">सम्बन्धः</text>
</g>
<!-- Node8_1 -->
<g id="node17" class="node">
<title>Node8_1</title>
<ellipse fill="#b4ffb4" stroke="#b4ffb4" cx="445" cy="-208" rx="96.68" ry="18"/>
<text text-anchor="middle" x="445" y="-204.3" font-family="Times,serif" font-size="14.00">तस्मात्(8.1)</text>
</g>
<!-- Node8_1&#45;&gt;Node9_1 -->
<g id="edge10" class="edge">
<title>Node8_1&#45;&gt;Node9_1</title>
<path fill="none" stroke="black" d="M445,-236.27C445,-249.58 445,-265.19 445,-276.82"/>
<polygon fill="black" stroke="black" points="448.5,-236.2 445,-226.2 441.5,-236.2 448.5,-236.2"/>
<text text-anchor="middle" x="485.5" y="-247.8" font-family="Times,serif" font-size="14.00">हेतुः5</text>
</g>
<!-- Node10_1 -->
<g id="node18" class="node">
<title>Node10_1</title>
<ellipse fill="#93db70" stroke="#93db70" cx="663" cy="-208" rx="102.88" ry="18"/>
<text text-anchor="middle" x="663" y="-204.3" font-family="Times,serif" font-size="14.00">जीवितम्(10.1)</text>
</g>
<!-- Node10_1&#45;&gt;Node9_1 -->
<g id="edge11" class="edge">
<title>Node10_1&#45;&gt;Node9_1</title>
<path fill="none" stroke="black" d="M613.57,-228.27C575.12,-243.27 522.4,-263.82 486.21,-277.93"/>
<polygon fill="black" stroke="black" points="614.97,-231.48 623.02,-224.59 612.43,-224.96 614.97,-231.48"/>
<text text-anchor="middle" x="597" y="-247.8" font-family="Times,serif" font-size="14.00">कर्म</text>
</g>
<!-- Node12_1 -->
<g id="node19" class="node">
<title>Node12_1</title>
<ellipse fill="#ff99ff" stroke="#ff99ff" cx="1401" cy="-121" rx="56.59" ry="18"/>
<text text-anchor="middle" x="1401" y="-117.3" font-family="Times,serif" font-size="14.00">तु(12.1)</text>
</g>
<!-- Node12_1&#45;&gt;Node14_1 -->
<g id="edge13" class="edge">
<title>Node12_1&#45;&gt;Node14_1</title>
<path fill="none" stroke="black" d="M1384.01,-147.34C1374.78,-161.1 1363.62,-177.74 1355.43,-189.95"/>
<polygon fill="black" stroke="black" points="1387.08,-149.05 1389.74,-138.79 1381.26,-145.15 1387.08,-149.05"/>
<text text-anchor="middle" x="1433.5" y="-160.8" font-family="Times,serif" font-size="14.00">सम्बन्धः</text>
</g>
<!-- Node16_1 -->
<g id="node21" class="node">
<title>Node16_1</title>
<ellipse fill="#93db70" stroke="#93db70" cx="1843" cy="-295" rx="102.88" ry="18"/>
<text text-anchor="middle" x="1843" y="-291.3" font-family="Times,serif" font-size="14.00">शिरांसि(16.1)</text>
</g>
<!-- Node16_1&#45;&gt;Node17_1 -->
<g id="edge17" class="edge">
<title>Node16_1&#45;&gt;Node17_1</title>
<path fill="none" stroke="black" d="M1827.96,-322.09C1820.14,-335.65 1810.8,-351.85 1803.9,-363.82"/>
<polygon fill="black" stroke="black" points="1831.12,-323.61 1833.08,-313.2 1825.06,-320.12 1831.12,-323.61"/>
<text text-anchor="middle" x="1850" y="-334.8" font-family="Times,serif" font-size="14.00">कर्म</text>
</g>
<!-- Node20_1 -->
<g id="node22" class="node">
<title>Node20_1</title>
<ellipse fill="#ff99ff" stroke="#ff99ff" cx="2020" cy="-295" rx="56.59" ry="18"/>
<text text-anchor="middle" x="2020" y="-291.3" font-family="Times,serif" font-size="14.00">एव(20.1)</text>
</g>
<!-- Node20_1&#45;&gt;Node17_1 -->
<g id="edge20" class="edge">
<title>Node20_1&#45;&gt;Node17_1</title>
<path fill="none" stroke="black" d="M1976.14,-312.94C1969.08,-315.65 1961.84,-318.41 1955,-321 1915.53,-335.95 1870.5,-352.7 1838.12,-364.7"/>
<polygon fill="black" stroke="black" points="1977.54,-316.15 1985.62,-309.3 1975.03,-309.62 1977.54,-316.15"/>
<text text-anchor="middle" x="1981.5" y="-334.8" font-family="Times,serif" font-size="14.00">सम्बन्धः</text>
</g>
<!-- Node21_1 -->
<g id="node23" class="node">
<title>Node21_1</title>
<ellipse fill="#ff99ff" stroke="#ff99ff" cx="1789" cy="-208" rx="47.39" ry="18"/>
<text text-anchor="middle" x="1789" y="-204.3" font-family="Times,serif" font-size="14.00">च(21.1)</text>
</g>
<!-- Node21_1&#45;&gt;Node18_1 -->
<g id="edge21" class="edge">
<title>Node21_1&#45;&gt;Node18_1</title>
<path fill="none" stroke="black" d="M1778.54,-235.14C1773.97,-243.77 1767.84,-252.75 1760,-259 1744.9,-271.03 1725.66,-278.94 1707.34,-284.14"/>
<polygon fill="black" stroke="black" points="1781.73,-236.58 1782.89,-226.05 1775.42,-233.56 1781.73,-236.58"/>
<text text-anchor="middle" x="1875.5" y="-247.8" font-family="Times,serif" font-size="14.00">समुच्चय_द्योतकः</text>
</g>
</g>
</svg>
