<svg xmlns="http://www.w3.org/2000/svg" xmlns:xlink="http://www.w3.org/1999/xlink" width="1256" height="428" viewBox="0 0 942 321"><g id="graph0" class="graph" transform="scale(1 1) rotate(0) translate(4 317)"><title>G</title><polygon fill="#fffacd" stroke="transparent" points="-4 4 -4 -317 938 -317 938 4 -4 4"/><g id="clust1" class="cluster"><title>cluster_1</title><polygon fill="#fffacd" stroke="#000" points="603 -95 603 -234 926 -234 926 -95 603 -95"/></g><g id="clust2" class="cluster"><title>cluster_2</title><polygon fill="#fffacd" stroke="#000" points="8 -8 8 -147 218 -147 218 -8 8 -8"/></g><g id="node1" class="node"><title>Node1_1</title><ellipse cx="867" cy="-121" fill="#00bfff" stroke="#00bfff" rx="50.89" ry="18"/><text x="867" y="-117.3" font-family="Times,serif" font-size="14" text-anchor="middle">सः(1.1)</text></g><g id="node2" class="node"><title>Node9_1</title><ellipse cx="690" cy="-208" fill="#00bfff" stroke="#00bfff" rx="78.79" ry="18"/><text x="690" y="-204.3" font-family="Times,serif" font-size="14" text-anchor="middle">वानरः(9.1)</text></g><g id="edge1" class="edge"><title>Node1_1-&gt;Node9_1</title><path fill="none" stroke="#000" d="M834.6,-142.48C818.76,-152.07 799.23,-163.26 781,-172 765.12,-179.61 747.13,-186.81 731.36,-192.68"/><polygon fill="#000" stroke="#000" points="836.76 -145.27 843.46 -137.06 833.1 -139.3 836.76 -145.27"/><text x="864.5" y="-160.8" font-family="Times,serif" font-size="14" text-anchor="middle">विशेषणम्</text></g><g id="node7" class="node"><title>Node8_1</title><ellipse cx="493" cy="-295" fill="#ff1975" stroke="#ff1975" rx="124.58" ry="18"/><text x="493" y="-291.3" font-family="Times,serif" font-size="14" text-anchor="middle">चिन्तयामास(8.1)</text></g><g id="edge9" class="edge"><title>Node9_1-&gt;Node8_1</title><path fill="none" stroke="#000" d="M645.38,-228.25C610.76,-243.19 563.3,-263.67 530.6,-277.78"/><polygon fill="#000" stroke="#000" points="646.99 -231.37 654.78 -224.2 644.21 -224.94 646.99 -231.37"/><text x="639" y="-247.8" font-family="Times,serif" font-size="14" text-anchor="middle">कर्ता</text></g><g id="node3" class="node"><title>Node10_2</title><ellipse cx="705" cy="-121" fill="#00bfff" stroke="#00bfff" rx="93.68" ry="18"/><text x="705" y="-117.3" font-family="Times,serif" font-size="14" text-anchor="middle">आत्मजः(10.2)</text></g><g id="edge11" class="edge"><title>Node10_2-&gt;Node9_1</title><path fill="none" stroke="#000" d="M672.99,-146.03C670.19,-149.41 667.75,-153.07 666,-157 661.06,-168.08 666.79,-180.36 673.89,-189.99"/><polygon fill="#000" stroke="#000" points="675.63 -148.34 680.06 -138.72 670.59 -143.48 675.63 -148.34"/><text x="723.5" y="-160.8" font-family="Times,serif" font-size="14" text-anchor="middle">विशेषणम्</text></g><g id="node4" class="node"><title>Node6_1</title><ellipse cx="104" cy="-34" fill="#93db70" stroke="#93db70" rx="87.99" ry="18"/><text x="104" y="-30.3" font-family="Times,serif" font-size="14" text-anchor="middle">शुभाम्(6.1)</text></g><g id="node5" class="node"><title>Node5_2</title><ellipse cx="113" cy="-121" fill="#93db70" stroke="#93db70" rx="96.68" ry="18"/><text x="113" y="-117.3" font-family="Times,serif" font-size="14" text-anchor="middle">वनिकाम्(5.2)</text></g><g id="edge7" class="edge"><title>Node6_1-&gt;Node5_2</title><path fill="none" stroke="#000" d="M106.89,-62.27C108.3,-75.58 109.95,-91.19 111.18,-102.82"/><polygon fill="#000" stroke="#000" points="110.35 -61.78 105.82 -52.2 103.39 -62.51 110.35 -61.78"/><text x="167.5" y="-73.8" font-family="Times,serif" font-size="14" text-anchor="middle">विशेषणम्</text></g><g id="node6" class="node"><title>Node2_1</title><ellipse cx="299" cy="-208" fill="#f9f" stroke="#f9f" rx="78.79" ry="18"/><text x="299" y="-204.3" font-family="Times,serif" font-size="14" text-anchor="middle">गत्वा(2.1)</text></g><g id="edge6" class="edge"><title>Node5_2-&gt;Node2_1</title><path fill="none" stroke="#000" d="M157.45,-142.31C190.61,-157.47 235.21,-177.85 265.42,-191.66"/><polygon fill="#000" stroke="#000" points="158.54 -138.96 147.99 -137.99 155.63 -145.33 158.54 -138.96"/><text x="247" y="-160.8" font-family="Times,serif" font-size="14" text-anchor="middle">कर्म</text></g><g id="edge2" class="edge"><title>Node2_1-&gt;Node8_1</title><path fill="none" stroke="#000" d="M323.27,-232.97C333.82,-242.26 346.78,-252.25 360,-259 378.18,-268.28 399.06,-275.27 418.79,-280.46"/><polygon fill="#000" stroke="#000" points="325.46 -230.23 315.71 -226.08 320.74 -235.4 325.46 -230.23"/><text x="424.5" y="-247.8" font-family="Times,serif" font-size="14" text-anchor="middle">पूर्वकालः</text></g><g id="node8" class="node"><title>Node3_1</title><ellipse cx="297" cy="-121" fill="#40e0d0" stroke="#40e0d0" rx="69.59" ry="18"/><text x="297" y="-117.3" font-family="Times,serif" font-size="14" text-anchor="middle">मनसा(3.1)</text></g><g id="edge3" class="edge"><title>Node3_1-&gt;Node2_1</title><path fill="none" stroke="#000" d="M297.64,-149.27C297.95,-162.58 298.32,-178.19 298.6,-189.82"/><polygon fill="#000" stroke="#000" points="301.14 -149.12 297.4 -139.2 294.14 -149.28 301.14 -149.12"/><text x="335" y="-160.8" font-family="Times,serif" font-size="14" text-anchor="middle">करणम्</text></g><g id="node9" class="node"><title>Node4_1</title><ellipse cx="481" cy="-121" fill="#f9f" stroke="#f9f" rx="96.68" ry="18"/><text x="481" y="-117.3" font-family="Times,serif" font-size="14" text-anchor="middle">पूर्वम्(4.1)</text></g><g id="edge4" class="edge"><title>Node4_1-&gt;Node2_1</title><path fill="none" stroke="#000" d="M438.02,-142.38C418.76,-151.49 395.76,-162.32 375,-172 361.18,-178.44 345.91,-185.49 332.7,-191.56"/><polygon fill="#000" stroke="#000" points="439.6 -145.51 447.14 -138.07 436.61 -139.18 439.6 -145.51"/><text x="462.5" y="-160.8" font-family="Times,serif" font-size="14" text-anchor="middle">सम्बन्धः</text></g><g id="node10" class="node"><title>Node5_1</title><ellipse cx="298" cy="-34" fill="#ff0" stroke="#ff0" rx="72.29" ry="18"/><text x="298" y="-30.3" font-family="Times,serif" font-size="14" text-anchor="middle">अशोक-(5.1)</text></g><g id="edge5" class="edge"><title>Node5_1-&gt;Node5_2</title><path fill="none" stroke="#000" d="M270.93,-57.85C258.72,-67.28 243.76,-77.69 229,-85 210.91,-93.97 190.07,-101.13 171.09,-106.58"/><polygon fill="#000" stroke="#000" points="273.24 -60.49 278.9 -51.53 268.89 -55 273.24 -60.49"/><text x="357.5" y="-73.8" font-family="Times,serif" font-size="14" text-anchor="middle">षष्ठी_तत्पुरुषः</text></g><g id="node11" class="node"><title>Node7_1</title><ellipse cx="493" cy="-208" fill="#93db70" stroke="#93db70" rx="96.68" ry="18"/><text x="493" y="-204.3" font-family="Times,serif" font-size="14" text-anchor="middle">उत्तरम्(7.1)</text></g><g id="edge8" class="edge"><title>Node7_1-&gt;Node8_1</title><path fill="none" stroke="#000" d="M493,-236.27C493,-249.58 493,-265.19 493,-276.82"/><polygon fill="#000" stroke="#000" points="496.5 -236.2 493 -226.2 489.5 -236.2 496.5 -236.2"/><text x="522" y="-247.8" font-family="Times,serif" font-size="14" text-anchor="middle">कर्म</text></g><g id="node12" class="node"><title>Node10_1</title><ellipse cx="705" cy="-34" fill="#ff0" stroke="#ff0" rx="87.18" ry="18"/><text x="705" y="-30.3" font-family="Times,serif" font-size="14" text-anchor="middle">मारुत-(10.1)</text></g><g id="edge10" class="edge"><title>Node10_1-&gt;Node10_2</title><path fill="none" stroke="#000" d="M705,-62.27C705,-75.58 705,-91.19 705,-102.82"/><polygon fill="#000" stroke="#000" points="708.5 -62.2 705 -52.2 701.5 -62.2 708.5 -62.2"/><text x="808.5" y="-73.8" font-family="Times,serif" font-size="14" text-anchor="middle">षष्ठी_तत्पुरुषः</text></g></g></svg>