<?xml version="1.0" encoding="UTF-8" standalone="no"?>
<!DOCTYPE svg PUBLIC "-//W3C//DTD SVG 1.1//EN"
 "http://www.w3.org/Graphics/SVG/1.1/DTD/svg11.dtd">
<!-- Generated by graphviz version 2.43.0 (0)
 -->
<!-- Title: G Pages: 1 -->
<svg width="2387pt" height="392pt"
 viewBox="0.00 0.00 2387.00 392.00" xmlns="http://www.w3.org/2000/svg" xmlns:xlink="http://www.w3.org/1999/xlink">
<g id="graph0" class="graph" transform="scale(1 1) rotate(0) translate(4 388)">
<title>G</title>
<polygon fill="#fffacd" stroke="transparent" points="-4,4 -4,-388 2383,-388 2383,4 -4,4"/>
<g id="clust1" class="cluster">
<title>cluster_1</title>
<polygon fill="#fffacd" stroke="black" points="8,-166 8,-305 413,-305 413,-166 8,-166"/>
</g>
<g id="clust2" class="cluster">
<title>cluster_2</title>
<polygon fill="#fffacd" stroke="black" points="421,-166 421,-305 1453,-305 1453,-166 421,-166"/>
</g>
<g id="clust3" class="cluster">
<title>cluster_3</title>
<polygon fill="#fffacd" stroke="black" points="2119,-79 2119,-218 2359,-218 2359,-79 2119,-79"/>
</g>
<!-- Node2_1 -->
<g id="node1" class="node">
<title>Node2_1</title>
<ellipse fill="#40e0d0" stroke="#40e0d0" cx="289" cy="-192" rx="115.88" ry="18"/>
<text text-anchor="middle" x="289" y="-188.3" font-family="Times,serif" font-size="14.00">क्षुद्रेण(2.1)</text>
</g>
<!-- Node11_1 -->
<g id="node2" class="node">
<title>Node11_1</title>
<ellipse fill="#40e0d0" stroke="#40e0d0" cx="289" cy="-279" rx="93.68" ry="18"/>
<text text-anchor="middle" x="289" y="-275.3" font-family="Times,serif" font-size="14.00">रावणेन(11.1)</text>
</g>
<!-- Node2_1&#45;&gt;Node11_1 -->
<g id="edge2" class="edge">
<title>Node2_1&#45;&gt;Node11_1</title>
<path fill="none" stroke="black" d="M289,-220.27C289,-233.58 289,-249.19 289,-260.82"/>
<polygon fill="black" stroke="black" points="292.5,-220.2 289,-210.2 285.5,-220.2 292.5,-220.2"/>
<text text-anchor="middle" x="346.5" y="-231.8" font-family="Times,serif" font-size="14.00">विशेषणम्</text>
</g>
<!-- Node9_1 -->
<g id="node13" class="node">
<title>Node9_1</title>
<ellipse fill="#ff1975" stroke="#ff1975" cx="1511" cy="-366" rx="96.68" ry="18"/>
<text text-anchor="middle" x="1511" y="-362.3" font-family="Times,serif" font-size="14.00">भक्षिता(9.1)</text>
</g>
<!-- Node11_1&#45;&gt;Node9_1 -->
<g id="edge11" class="edge">
<title>Node11_1&#45;&gt;Node9_1</title>
<path fill="none" stroke="black" d="M357.23,-295.14C376.48,-298.91 397.48,-302.57 417,-305 783.43,-350.61 1223.2,-361.55 1414.38,-364.17"/>
<polygon fill="black" stroke="black" points="357.84,-291.69 347.35,-293.16 356.47,-298.55 357.84,-291.69"/>
<text text-anchor="middle" x="692" y="-318.8" font-family="Times,serif" font-size="14.00">कर्ता</text>
</g>
<!-- Node4_1 -->
<g id="node3" class="node">
<title>Node4_1</title>
<ellipse fill="#40e0d0" stroke="#40e0d0" cx="86" cy="-192" rx="69.59" ry="18"/>
<text text-anchor="middle" x="86" y="-188.3" font-family="Times,serif" font-size="14.00">अनेन(4.1)</text>
</g>
<!-- Node4_1&#45;&gt;Node11_1 -->
<g id="edge4" class="edge">
<title>Node4_1&#45;&gt;Node11_1</title>
<path fill="none" stroke="black" d="M117.95,-214.6C133.23,-224.24 152.06,-235.17 170,-243 189.84,-251.66 212.44,-258.91 232.58,-264.53"/>
<polygon fill="black" stroke="black" points="119.71,-211.57 109.41,-209.11 115.93,-217.46 119.71,-211.57"/>
<text text-anchor="middle" x="227.5" y="-231.8" font-family="Times,serif" font-size="14.00">विशेषणम्</text>
</g>
<!-- Node5_1 -->
<g id="node4" class="node">
<title>Node5_1</title>
<ellipse fill="#00bfff" stroke="#00bfff" cx="890" cy="-192" rx="106.68" ry="18"/>
<text text-anchor="middle" x="890" y="-188.3" font-family="Times,serif" font-size="14.00">रक्षन्ती(5.1)</text>
</g>
<!-- Node10_1 -->
<g id="node5" class="node">
<title>Node10_1</title>
<ellipse fill="#00bfff" stroke="#00bfff" cx="1008" cy="-279" rx="75.29" ry="18"/>
<text text-anchor="middle" x="1008" y="-275.3" font-family="Times,serif" font-size="14.00">सीता(10.1)</text>
</g>
<!-- Node5_1&#45;&gt;Node10_1 -->
<g id="edge5" class="edge">
<title>Node5_1&#45;&gt;Node10_1</title>
<path fill="none" stroke="black" d="M921.3,-215.55C941.47,-230.08 967.24,-248.64 985.43,-261.74"/>
<polygon fill="black" stroke="black" points="923.19,-212.6 913.03,-209.59 919.1,-218.28 923.19,-212.6"/>
<text text-anchor="middle" x="1014.5" y="-231.8" font-family="Times,serif" font-size="14.00">विशेषणम्</text>
</g>
<!-- Node10_1&#45;&gt;Node9_1 -->
<g id="edge10" class="edge">
<title>Node10_1&#45;&gt;Node9_1</title>
<path fill="none" stroke="black" d="M1077.58,-291.76C1173.65,-307.99 1345.87,-337.09 1441.75,-353.3"/>
<polygon fill="black" stroke="black" points="1078.12,-288.3 1067.68,-290.08 1076.95,-295.2 1078.12,-288.3"/>
<text text-anchor="middle" x="1319" y="-318.8" font-family="Times,serif" font-size="14.00">कर्म</text>
</g>
<!-- Node12_1 -->
<g id="node6" class="node">
<title>Node12_1</title>
<ellipse fill="#00bfff" stroke="#00bfff" cx="1127" cy="-192" rx="112.38" ry="18"/>
<text text-anchor="middle" x="1127" y="-188.3" font-family="Times,serif" font-size="14.00">तपस्विनी(12.1)</text>
</g>
<!-- Node12_1&#45;&gt;Node10_1 -->
<g id="edge12" class="edge">
<title>Node12_1&#45;&gt;Node10_1</title>
<path fill="none" stroke="black" d="M1104.99,-217.45C1096.45,-226.14 1086.26,-235.59 1076,-243 1065.67,-250.46 1053.52,-257.25 1042.37,-262.82"/>
<polygon fill="black" stroke="black" points="1107.65,-219.73 1112.03,-210.08 1102.59,-214.89 1107.65,-219.73"/>
<text text-anchor="middle" x="1152.5" y="-231.8" font-family="Times,serif" font-size="14.00">विशेषणम्</text>
</g>
<!-- Node16_2 -->
<g id="node7" class="node">
<title>Node16_2</title>
<ellipse fill="#6fffc3" stroke="#6fffc3" cx="1351" cy="-192" rx="93.68" ry="18"/>
<text text-anchor="middle" x="1351" y="-188.3" font-family="Times,serif" font-size="14.00">ईक्षणा(16.2)</text>
</g>
<!-- Node16_2&#45;&gt;Node10_1 -->
<g id="edge18" class="edge">
<title>Node16_2&#45;&gt;Node10_1</title>
<path fill="none" stroke="black" d="M1304.77,-212.26C1278.52,-222.58 1244.84,-234.82 1214,-243 1167.71,-255.27 1114.39,-264.19 1073.59,-269.96"/>
<polygon fill="black" stroke="black" points="1306.08,-215.5 1314.08,-208.55 1303.49,-209 1306.08,-215.5"/>
<text text-anchor="middle" x="1317.5" y="-231.8" font-family="Times,serif" font-size="14.00">विशेषणम्</text>
</g>
<!-- Node17_1 -->
<g id="node8" class="node">
<title>Node17_1</title>
<ellipse fill="lightgrey" stroke="black" cx="663" cy="-192" rx="102.88" ry="18"/>
<text text-anchor="middle" x="663" y="-188.3" font-family="Times,serif" font-size="14.00">अदुष्टा(17.1)</text>
</g>
<!-- Node17_1&#45;&gt;Node10_1 -->
<g id="edge19" class="edge">
<title>Node17_1&#45;&gt;Node10_1</title>
<path fill="none" stroke="black" d="M716.78,-211.52C747.62,-221.71 787.21,-234.05 823,-243 864.07,-253.26 910.93,-262.1 947.21,-268.33"/>
<polygon fill="black" stroke="black" points="717.69,-208.13 707.09,-208.29 715.48,-214.77 717.69,-208.13"/>
<text text-anchor="middle" x="880.5" y="-231.8" font-family="Times,serif" font-size="14.00">विशेषणम्</text>
</g>
<!-- Node20_1 -->
<g id="node9" class="node">
<title>Node20_1</title>
<ellipse fill="#00bfff" stroke="#00bfff" cx="486" cy="-192" rx="56.59" ry="18"/>
<text text-anchor="middle" x="486" y="-188.3" font-family="Times,serif" font-size="14.00">सा(20.1)</text>
</g>
<!-- Node20_1&#45;&gt;Node10_1 -->
<g id="edge23" class="edge">
<title>Node20_1&#45;&gt;Node10_1</title>
<path fill="none" stroke="black" d="M528.9,-210.35C536.22,-213.06 543.79,-215.72 551,-218 594.68,-231.8 605.86,-235.19 651,-243 748.72,-259.91 863.01,-269.33 935.44,-274.03"/>
<polygon fill="black" stroke="black" points="529.72,-206.91 519.12,-206.64 527.23,-213.46 529.72,-206.91"/>
<text text-anchor="middle" x="708.5" y="-231.8" font-family="Times,serif" font-size="14.00">विशेषणम्</text>
</g>
<!-- Node18_2 -->
<g id="node10" class="node">
<title>Node18_2</title>
<ellipse fill="#40e0d0" stroke="#40e0d0" cx="2236" cy="-105" rx="102.88" ry="18"/>
<text text-anchor="middle" x="2236" y="-101.3" font-family="Times,serif" font-size="14.00">भावाभिः(18.2)</text>
</g>
<!-- Node15_1 -->
<g id="node11" class="node">
<title>Node15_1</title>
<ellipse fill="#40e0d0" stroke="#40e0d0" cx="2239" cy="-192" rx="112.38" ry="18"/>
<text text-anchor="middle" x="2239" y="-188.3" font-family="Times,serif" font-size="14.00">पत्नीभिः(15.1)</text>
</g>
<!-- Node18_2&#45;&gt;Node15_1 -->
<g id="edge21" class="edge">
<title>Node18_2&#45;&gt;Node15_1</title>
<path fill="none" stroke="black" d="M2236.96,-133.27C2237.43,-146.58 2237.98,-162.19 2238.39,-173.82"/>
<polygon fill="black" stroke="black" points="2240.46,-133.07 2236.61,-123.2 2233.46,-133.32 2240.46,-133.07"/>
<text text-anchor="middle" x="2294.5" y="-144.8" font-family="Times,serif" font-size="14.00">विशेषणम्</text>
</g>
<!-- Node19_1 -->
<g id="node23" class="node">
<title>Node19_1</title>
<ellipse fill="#00bfff" stroke="#00bfff" cx="2239" cy="-279" rx="102.88" ry="18"/>
<text text-anchor="middle" x="2239" y="-275.3" font-family="Times,serif" font-size="14.00">भक्षिता(19.1)</text>
</g>
<!-- Node15_1&#45;&gt;Node19_1 -->
<g id="edge16" class="edge">
<title>Node15_1&#45;&gt;Node19_1</title>
<path fill="none" stroke="black" d="M2239,-220.27C2239,-233.58 2239,-249.19 2239,-260.82"/>
<polygon fill="black" stroke="black" points="2242.5,-220.2 2239,-210.2 2235.5,-220.2 2242.5,-220.2"/>
<text text-anchor="middle" x="2275" y="-231.8" font-family="Times,serif" font-size="14.00">कर्ता</text>
</g>
<!-- Node1_1 -->
<g id="node12" class="node">
<title>Node1_1</title>
<ellipse fill="#ff99ff" stroke="#ff99ff" cx="1521" cy="-279" rx="59.59" ry="18"/>
<text text-anchor="middle" x="1521" y="-275.3" font-family="Times,serif" font-size="14.00">आहो(1.1)</text>
</g>
<!-- Node1_1&#45;&gt;Node9_1 -->
<g id="edge1" class="edge">
<title>Node1_1&#45;&gt;Node9_1</title>
<path fill="none" stroke="black" d="M1513.46,-306.72C1512.87,-309.5 1512.37,-312.3 1512,-315 1510.52,-325.84 1510.25,-338.12 1510.37,-347.8"/>
<polygon fill="black" stroke="black" points="1516.87,-307.47 1515.8,-296.93 1510.07,-305.84 1516.87,-307.47"/>
<text text-anchor="middle" x="1569.5" y="-318.8" font-family="Times,serif" font-size="14.00">सम्बन्धः</text>
</g>
<!-- Node3_1 -->
<g id="node14" class="node">
<title>Node3_1</title>
<ellipse fill="#ff99ff" stroke="#ff99ff" cx="1649" cy="-279" rx="41.69" ry="18"/>
<text text-anchor="middle" x="1649" y="-275.3" font-family="Times,serif" font-size="14.00">च(3.1)</text>
</g>
<!-- Node3_1&#45;&gt;Node9_1 -->
<g id="edge3" class="edge">
<title>Node3_1&#45;&gt;Node9_1</title>
<path fill="none" stroke="black" d="M1642.13,-306.65C1638.79,-315.11 1633.94,-323.85 1627,-330 1614.48,-341.09 1598.55,-348.66 1582.53,-353.84"/>
<polygon fill="black" stroke="black" points="1645.5,-307.62 1645.4,-297.02 1638.87,-305.37 1645.5,-307.62"/>
<text text-anchor="middle" x="1695.5" y="-318.8" font-family="Times,serif" font-size="14.00">सम्बन्धः</text>
</g>
<!-- Node6_1 -->
<g id="node15" class="node">
<title>Node6_1</title>
<ellipse fill="#93db70" stroke="#93db70" cx="890" cy="-105" rx="78.79" ry="18"/>
<text text-anchor="middle" x="890" y="-101.3" font-family="Times,serif" font-size="14.00">शीलम्(6.1)</text>
</g>
<!-- Node6_1&#45;&gt;Node5_1 -->
<g id="edge6" class="edge">
<title>Node6_1&#45;&gt;Node5_1</title>
<path fill="none" stroke="black" d="M890,-133.27C890,-146.58 890,-162.19 890,-173.82"/>
<polygon fill="black" stroke="black" points="893.5,-133.2 890,-123.2 886.5,-133.2 893.5,-133.2"/>
<text text-anchor="middle" x="919" y="-144.8" font-family="Times,serif" font-size="14.00">कर्म</text>
</g>
<!-- Node7_1 -->
<g id="node16" class="node">
<title>Node7_1</title>
<ellipse fill="#87ceeb" stroke="#87ceeb" cx="890" cy="-18" rx="87.99" ry="18"/>
<text text-anchor="middle" x="890" y="-14.3" font-family="Times,serif" font-size="14.00">आत्मनः(7.1)</text>
</g>
<!-- Node7_1&#45;&gt;Node6_1 -->
<g id="edge7" class="edge">
<title>Node7_1&#45;&gt;Node6_1</title>
<path fill="none" stroke="black" d="M890,-46.27C890,-59.58 890,-75.19 890,-86.82"/>
<polygon fill="black" stroke="black" points="893.5,-46.2 890,-36.2 886.5,-46.2 893.5,-46.2"/>
<text text-anchor="middle" x="983" y="-57.8" font-family="Times,serif" font-size="14.00">षष्ठीसम्बन्धः</text>
</g>
<!-- Node8_1 -->
<g id="node17" class="node">
<title>Node8_1</title>
<ellipse fill="#ffff00" stroke="#ffff00" cx="1796" cy="-192" rx="44.39" ry="18"/>
<text text-anchor="middle" x="1796" y="-188.3" font-family="Times,serif" font-size="14.00">अ&#45;(8.1)</text>
</g>
<!-- Node8_2 -->
<g id="node18" class="node">
<title>Node8_2</title>
<ellipse fill="#00bfff" stroke="#00bfff" cx="1796" cy="-279" rx="87.99" ry="18"/>
<text text-anchor="middle" x="1796" y="-275.3" font-family="Times,serif" font-size="14.00">बन्धुः(8.2)</text>
</g>
<!-- Node8_1&#45;&gt;Node8_2 -->
<g id="edge8" class="edge">
<title>Node8_1&#45;&gt;Node8_2</title>
<path fill="none" stroke="black" d="M1796,-220.27C1796,-233.58 1796,-249.19 1796,-260.82"/>
<polygon fill="black" stroke="black" points="1799.5,-220.2 1796,-210.2 1792.5,-220.2 1799.5,-220.2"/>
<text text-anchor="middle" x="1885" y="-231.8" font-family="Times,serif" font-size="14.00">नञ्_तत्पुरुषः</text>
</g>
<!-- Node8_2&#45;&gt;Node9_1 -->
<g id="edge9" class="edge">
<title>Node8_2&#45;&gt;Node9_1</title>
<path fill="none" stroke="black" d="M1781.66,-305.73C1775.29,-314.83 1766.96,-324.23 1757,-330 1730.91,-345.1 1660,-354.15 1600.97,-359.25"/>
<polygon fill="black" stroke="black" points="1784.67,-307.52 1787.16,-297.22 1778.79,-303.72 1784.67,-307.52"/>
<text text-anchor="middle" x="1888.5" y="-318.8" font-family="Times,serif" font-size="14.00">कर्मसमानाधिकरणम्</text>
</g>
<!-- Node13_1 -->
<g id="node19" class="node">
<title>Node13_1</title>
<ellipse fill="#ff99ff" stroke="#ff99ff" cx="2043" cy="-279" rx="75.29" ry="18"/>
<text text-anchor="middle" x="2043" y="-275.3" font-family="Times,serif" font-size="14.00">अथवा(13.1)</text>
</g>
<!-- Node21_1 -->
<g id="node20" class="node">
<title>Node21_1</title>
<ellipse fill="#ff1975" stroke="#ff1975" cx="2126" cy="-366" rx="112.38" ry="18"/>
<text text-anchor="middle" x="2126" y="-362.3" font-family="Times,serif" font-size="14.00">भविष्यति(21.1)</text>
</g>
<!-- Node13_1&#45;&gt;Node21_1 -->
<g id="edge13" class="edge">
<title>Node13_1&#45;&gt;Node21_1</title>
<path fill="none" stroke="black" d="M2055.64,-305.98C2060.39,-314.21 2066.28,-322.99 2073,-330 2079.71,-337.01 2088.07,-343.33 2096.15,-348.62"/>
<polygon fill="black" stroke="black" points="2058.64,-304.16 2050.79,-297.04 2052.49,-307.49 2058.64,-304.16"/>
<text text-anchor="middle" x="2130.5" y="-318.8" font-family="Times,serif" font-size="14.00">सम्बन्धः</text>
</g>
<!-- Node14_1 -->
<g id="node21" class="node">
<title>Node14_1</title>
<ellipse fill="#ffff00" stroke="#ffff00" cx="1989" cy="-18" rx="96.68" ry="18"/>
<text text-anchor="middle" x="1989" y="-14.3" font-family="Times,serif" font-size="14.00">राक्षस&#45;(14.1)</text>
</g>
<!-- Node14_2 -->
<g id="node22" class="node">
<title>Node14_2</title>
<ellipse fill="#87ceeb" stroke="#87ceeb" cx="1989" cy="-105" rx="121.58" ry="18"/>
<text text-anchor="middle" x="1989" y="-101.3" font-family="Times,serif" font-size="14.00">इन्द्रस्य(14.2)</text>
</g>
<!-- Node14_1&#45;&gt;Node14_2 -->
<g id="edge14" class="edge">
<title>Node14_1&#45;&gt;Node14_2</title>
<path fill="none" stroke="black" d="M1989,-46.27C1989,-59.58 1989,-75.19 1989,-86.82"/>
<polygon fill="black" stroke="black" points="1992.5,-46.2 1989,-36.2 1985.5,-46.2 1992.5,-46.2"/>
<text text-anchor="middle" x="2092.5" y="-57.8" font-family="Times,serif" font-size="14.00">षष्ठी_तत्पुरुषः</text>
</g>
<!-- Node14_2&#45;&gt;Node15_1 -->
<g id="edge15" class="edge">
<title>Node14_2&#45;&gt;Node15_1</title>
<path fill="none" stroke="black" d="M2011.21,-130.09C2021.25,-139.58 2033.81,-149.7 2047,-156 2075.74,-169.74 2109.26,-178.1 2140.17,-183.19"/>
<polygon fill="black" stroke="black" points="2013.63,-127.57 2004.06,-123.03 2008.72,-132.55 2013.63,-127.57"/>
<text text-anchor="middle" x="2140" y="-144.8" font-family="Times,serif" font-size="14.00">षष्ठीसम्बन्धः</text>
</g>
<!-- Node19_1&#45;&gt;Node21_1 -->
<g id="edge22" class="edge">
<title>Node19_1&#45;&gt;Node21_1</title>
<path fill="none" stroke="black" d="M2216.84,-304.24C2208.28,-312.9 2198.12,-322.39 2188,-330 2178.91,-336.83 2168.35,-343.28 2158.54,-348.73"/>
<polygon fill="black" stroke="black" points="2219.48,-306.53 2223.9,-296.91 2214.44,-301.68 2219.48,-306.53"/>
<text text-anchor="middle" x="2240" y="-318.8" font-family="Times,serif" font-size="14.00">कर्ता</text>
</g>
<!-- Node16_1 -->
<g id="node24" class="node">
<title>Node16_1</title>
<ellipse fill="#ffff00" stroke="#ffff00" cx="1351" cy="-105" rx="77.99" ry="18"/>
<text text-anchor="middle" x="1351" y="-101.3" font-family="Times,serif" font-size="14.00">असित&#45;(16.1)</text>
</g>
<!-- Node16_1&#45;&gt;Node16_2 -->
<g id="edge17" class="edge">
<title>Node16_1&#45;&gt;Node16_2</title>
<path fill="none" stroke="black" d="M1351,-133.27C1351,-146.58 1351,-162.19 1351,-173.82"/>
<polygon fill="black" stroke="black" points="1354.5,-133.2 1351,-123.2 1347.5,-133.2 1354.5,-133.2"/>
<text text-anchor="middle" x="1422.5" y="-144.8" font-family="Times,serif" font-size="14.00">बहुव्रीहिः</text>
</g>
<!-- Node18_1 -->
<g id="node25" class="node">
<title>Node18_1</title>
<ellipse fill="#ffff00" stroke="#ffff00" cx="2236" cy="-18" rx="87.18" ry="18"/>
<text text-anchor="middle" x="2236" y="-14.3" font-family="Times,serif" font-size="14.00">दुष्ट&#45;(18.1)</text>
</g>
<!-- Node18_1&#45;&gt;Node18_2 -->
<g id="edge20" class="edge">
<title>Node18_1&#45;&gt;Node18_2</title>
<path fill="none" stroke="black" d="M2236,-46.27C2236,-59.58 2236,-75.19 2236,-86.82"/>
<polygon fill="black" stroke="black" points="2239.5,-46.2 2236,-36.2 2232.5,-46.2 2239.5,-46.2"/>
<text text-anchor="middle" x="2307.5" y="-57.8" font-family="Times,serif" font-size="14.00">बहुव्रीहिः</text>
</g>
</g>
</svg>
