<?xml version="1.0" encoding="UTF-8" standalone="no"?>
<!DOCTYPE svg PUBLIC "-//W3C//DTD SVG 1.1//EN"
 "http://www.w3.org/Graphics/SVG/1.1/DTD/svg11.dtd">
<!-- Generated by graphviz version 2.43.0 (0)
 -->
<!-- Title: G Pages: 1 -->
<svg width="1441pt" height="392pt"
 viewBox="0.00 0.00 1440.79 392.00" xmlns="http://www.w3.org/2000/svg" xmlns:xlink="http://www.w3.org/1999/xlink">
<g id="graph0" class="graph" transform="scale(1 1) rotate(0) translate(4 388)">
<title>G</title>
<polygon fill="#fffacd" stroke="transparent" points="-4,4 -4,-388 1436.79,-388 1436.79,4 -4,4"/>
<g id="clust1" class="cluster">
<title>cluster_1</title>
<polygon fill="#fffacd" stroke="black" points="1202.79,-79 1202.79,-218 1394.79,-218 1394.79,-79 1202.79,-79"/>
</g>
<!-- Node2_2 -->
<g id="node1" class="node">
<title>Node2_2</title>
<ellipse fill="#93db70" stroke="#93db70" cx="1289.79" cy="-105" rx="78.79" ry="18"/>
<text text-anchor="middle" x="1289.79" y="-101.3" font-family="Times,serif" font-size="14.00">विधम्(2.2)</text>
</g>
<!-- Node3_1 -->
<g id="node2" class="node">
<title>Node3_1</title>
<ellipse fill="#93db70" stroke="#93db70" cx="1298.79" cy="-192" rx="87.99" ry="18"/>
<text text-anchor="middle" x="1298.79" y="-188.3" font-family="Times,serif" font-size="14.00">दुःखम्(3.1)</text>
</g>
<!-- Node2_2&#45;&gt;Node3_1 -->
<g id="edge3" class="edge">
<title>Node2_2&#45;&gt;Node3_1</title>
<path fill="none" stroke="black" d="M1292.68,-133.27C1294.09,-146.58 1295.74,-162.19 1296.98,-173.82"/>
<polygon fill="black" stroke="black" points="1296.15,-132.78 1291.62,-123.2 1289.19,-133.51 1296.15,-132.78"/>
<text text-anchor="middle" x="1352.29" y="-144.8" font-family="Times,serif" font-size="14.00">विशेषणम्</text>
</g>
<!-- Node5_1 -->
<g id="node4" class="node">
<title>Node5_1</title>
<ellipse fill="#00bfff" stroke="#00bfff" cx="1071.79" cy="-279" rx="87.99" ry="18"/>
<text text-anchor="middle" x="1071.79" y="-275.3" font-family="Times,serif" font-size="14.00">धारयन्(5.1)</text>
</g>
<!-- Node3_1&#45;&gt;Node5_1 -->
<g id="edge4" class="edge">
<title>Node3_1&#45;&gt;Node5_1</title>
<path fill="none" stroke="black" d="M1253.71,-212.55C1231.08,-222.12 1203.15,-233.59 1177.79,-243 1158.26,-250.25 1136.44,-257.58 1117.7,-263.65"/>
<polygon fill="black" stroke="black" points="1255.23,-215.7 1263.06,-208.57 1252.49,-209.26 1255.23,-215.7"/>
<text text-anchor="middle" x="1242.79" y="-231.8" font-family="Times,serif" font-size="14.00">कर्म</text>
</g>
<!-- Node1_1 -->
<g id="node3" class="node">
<title>Node1_1</title>
<ellipse fill="#ff99ff" stroke="#ff99ff" cx="966.79" cy="-192" rx="69.59" ry="18"/>
<text text-anchor="middle" x="966.79" y="-188.3" font-family="Times,serif" font-size="14.00">एवम्(1.1)</text>
</g>
<!-- Node1_1&#45;&gt;Node5_1 -->
<g id="edge1" class="edge">
<title>Node1_1&#45;&gt;Node5_1</title>
<path fill="none" stroke="black" d="M966.62,-220.05C967.81,-228.19 970.44,-236.64 975.79,-243 984.7,-253.59 997.1,-260.97 1010.02,-266.12"/>
<polygon fill="black" stroke="black" points="970.11,-219.76 965.79,-210.08 963.14,-220.34 970.11,-219.76"/>
<text text-anchor="middle" x="1033.29" y="-231.8" font-family="Times,serif" font-size="14.00">सम्बन्धः</text>
</g>
<!-- Node8_1 -->
<g id="node7" class="node">
<title>Node8_1</title>
<ellipse fill="#ff1975" stroke="#ff1975" cx="524.79" cy="-366" rx="124.58" ry="18"/>
<text text-anchor="middle" x="524.79" y="-362.3" font-family="Times,serif" font-size="14.00">अध्यगच्छत्(8.1)</text>
</g>
<!-- Node5_1&#45;&gt;Node8_1 -->
<g id="edge6" class="edge">
<title>Node5_1&#45;&gt;Node8_1</title>
<path fill="none" stroke="black" d="M999.05,-293.47C941.11,-304.01 857.88,-318.72 784.79,-330 728.75,-338.65 665.73,-347.16 615.76,-353.63"/>
<polygon fill="black" stroke="black" points="999.99,-296.86 1009.2,-291.62 998.74,-289.97 999.99,-296.86"/>
<text text-anchor="middle" x="978.79" y="-318.8" font-family="Times,serif" font-size="14.00">वर्तमानसमानकालः</text>
</g>
<!-- Node2_1 -->
<g id="node5" class="node">
<title>Node2_1</title>
<ellipse fill="#ffff00" stroke="#ffff00" cx="1289.79" cy="-18" rx="63.09" ry="18"/>
<text text-anchor="middle" x="1289.79" y="-14.3" font-family="Times,serif" font-size="14.00">बहु&#45;(2.1)</text>
</g>
<!-- Node2_1&#45;&gt;Node2_2 -->
<g id="edge2" class="edge">
<title>Node2_1&#45;&gt;Node2_2</title>
<path fill="none" stroke="black" d="M1289.79,-46.27C1289.79,-59.58 1289.79,-75.19 1289.79,-86.82"/>
<polygon fill="black" stroke="black" points="1293.29,-46.2 1289.79,-36.2 1286.29,-46.2 1293.29,-46.2"/>
<text text-anchor="middle" x="1361.29" y="-57.8" font-family="Times,serif" font-size="14.00">बहुव्रीहिः</text>
</g>
<!-- Node4_1 -->
<g id="node6" class="node">
<title>Node4_1</title>
<ellipse fill="#40e0d0" stroke="#40e0d0" cx="1123.79" cy="-192" rx="69.59" ry="18"/>
<text text-anchor="middle" x="1123.79" y="-188.3" font-family="Times,serif" font-size="14.00">मनसा(4.1)</text>
</g>
<!-- Node4_1&#45;&gt;Node5_1 -->
<g id="edge5" class="edge">
<title>Node4_1&#45;&gt;Node5_1</title>
<path fill="none" stroke="black" d="M1108.04,-218.75C1099.63,-232.49 1089.53,-249.01 1082.12,-261.11"/>
<polygon fill="black" stroke="black" points="1111.04,-220.56 1113.27,-210.2 1105.07,-216.9 1111.04,-220.56"/>
<text text-anchor="middle" x="1137.79" y="-231.8" font-family="Times,serif" font-size="14.00">करणम्</text>
</g>
<!-- Node6_1 -->
<g id="node8" class="node">
<title>Node6_1</title>
<ellipse fill="#ff99ff" stroke="#ff99ff" cx="59.79" cy="-279" rx="59.59" ry="18"/>
<text text-anchor="middle" x="59.79" y="-275.3" font-family="Times,serif" font-size="14.00">बहु(6.1)</text>
</g>
<!-- Node6_1&#45;&gt;Node8_1 -->
<g id="edge7" class="edge">
<title>Node6_1&#45;&gt;Node8_1</title>
<path fill="none" stroke="black" d="M65.71,-306.89C68.99,-315.63 74.04,-324.49 81.79,-330 107.52,-348.27 281.34,-357.49 403.43,-361.76"/>
<polygon fill="black" stroke="black" points="69.02,-305.75 62.71,-297.25 62.34,-307.83 69.02,-305.75"/>
<text text-anchor="middle" x="181.79" y="-318.8" font-family="Times,serif" font-size="14.00">क्रियाविशेषणम्</text>
</g>
<!-- Node7_1 -->
<g id="node9" class="node">
<title>Node7_1</title>
<ellipse fill="#ff99ff" stroke="#ff99ff" cx="282.79" cy="-279" rx="41.69" ry="18"/>
<text text-anchor="middle" x="282.79" y="-275.3" font-family="Times,serif" font-size="14.00">न(7.1)</text>
</g>
<!-- Node7_1&#45;&gt;Node8_1 -->
<g id="edge8" class="edge">
<title>Node7_1&#45;&gt;Node8_1</title>
<path fill="none" stroke="black" d="M283.57,-307.21C285.17,-315.6 288.44,-324.16 294.79,-330 312.01,-345.82 360.68,-354.49 408.84,-359.24"/>
<polygon fill="black" stroke="black" points="287.04,-306.74 282.34,-297.24 280.09,-307.6 287.04,-306.74"/>
<text text-anchor="middle" x="359.29" y="-318.8" font-family="Times,serif" font-size="14.00">प्रतिषेधः</text>
</g>
<!-- Node9_1 -->
<g id="node10" class="node">
<title>Node9_1</title>
<ellipse fill="#ff99ff" stroke="#ff99ff" cx="434.79" cy="-279" rx="59.59" ry="18"/>
<text text-anchor="middle" x="434.79" y="-275.3" font-family="Times,serif" font-size="14.00">तदा(9.1)</text>
</g>
<!-- Node9_1&#45;&gt;Node8_1 -->
<g id="edge9" class="edge">
<title>Node9_1&#45;&gt;Node8_1</title>
<path fill="none" stroke="black" d="M427.07,-307.23C426.35,-315.15 427.25,-323.44 431.79,-330 438.08,-339.08 447.03,-345.81 456.93,-350.79"/>
<polygon fill="black" stroke="black" points="430.55,-307.63 428.77,-297.19 423.65,-306.46 430.55,-307.63"/>
<text text-anchor="middle" x="510.29" y="-318.8" font-family="Times,serif" font-size="14.00">कालाधिकरणम्</text>
</g>
<!-- Node10_1 -->
<g id="node11" class="node">
<title>Node10_1</title>
<ellipse fill="#93db70" stroke="#93db70" cx="605.79" cy="-279" rx="84.49" ry="18"/>
<text text-anchor="middle" x="605.79" y="-275.3" font-family="Times,serif" font-size="14.00">पारम्(10.1)</text>
</g>
<!-- Node10_1&#45;&gt;Node8_1 -->
<g id="edge10" class="edge">
<title>Node10_1&#45;&gt;Node8_1</title>
<path fill="none" stroke="black" d="M602.96,-307.39C601.06,-315.33 597.94,-323.57 592.79,-330 586.49,-337.88 577.93,-344.16 569.02,-349.11"/>
<polygon fill="black" stroke="black" points="606.44,-307.79 604.81,-297.32 599.56,-306.53 606.44,-307.79"/>
<text text-anchor="middle" x="629.79" y="-318.8" font-family="Times,serif" font-size="14.00">कर्म</text>
</g>
<!-- Node11_1 -->
<g id="node12" class="node">
<title>Node11_1</title>
<ellipse fill="#87ceeb" stroke="#87ceeb" cx="601.79" cy="-192" rx="93.68" ry="18"/>
<text text-anchor="middle" x="601.79" y="-188.3" font-family="Times,serif" font-size="14.00">शोकस्य(11.1)</text>
</g>
<!-- Node12_2 -->
<g id="node13" class="node">
<title>Node12_2</title>
<ellipse fill="#00bfff" stroke="#00bfff" cx="810.79" cy="-279" rx="102.88" ry="18"/>
<text text-anchor="middle" x="810.79" y="-275.3" font-family="Times,serif" font-size="14.00">कुञ्जरः(12.2)</text>
</g>
<!-- Node11_1&#45;&gt;Node12_2 -->
<g id="edge11" class="edge">
<title>Node11_1&#45;&gt;Node12_2</title>
<path fill="none" stroke="black" d="M606.61,-220.03C609.4,-228.52 613.82,-237.19 620.79,-243 625.49,-246.91 686.42,-257.72 738.04,-266.29"/>
<polygon fill="black" stroke="black" points="609.98,-219.08 604.01,-210.33 603.21,-220.89 609.98,-219.08"/>
<text text-anchor="middle" x="713.79" y="-231.8" font-family="Times,serif" font-size="14.00">षष्ठीसम्बन्धः</text>
</g>
<!-- Node12_2&#45;&gt;Node8_1 -->
<g id="edge13" class="edge">
<title>Node12_2&#45;&gt;Node8_1</title>
<path fill="none" stroke="black" d="M758.37,-298.82C730.2,-308.64 694.79,-320.55 662.79,-330 638.14,-337.28 610.74,-344.42 586.9,-350.33"/>
<polygon fill="black" stroke="black" points="759.73,-302.05 768.01,-295.43 757.41,-295.44 759.73,-302.05"/>
<text text-anchor="middle" x="744.79" y="-318.8" font-family="Times,serif" font-size="14.00">कर्ता</text>
</g>
<!-- Node12_1 -->
<g id="node14" class="node">
<title>Node12_1</title>
<ellipse fill="#ffff00" stroke="#ffff00" cx="810.79" cy="-192" rx="68.79" ry="18"/>
<text text-anchor="middle" x="810.79" y="-188.3" font-family="Times,serif" font-size="14.00">कपि&#45;(12.1)</text>
</g>
<!-- Node12_1&#45;&gt;Node12_2 -->
<g id="edge12" class="edge">
<title>Node12_1&#45;&gt;Node12_2</title>
<path fill="none" stroke="black" d="M810.79,-220.27C810.79,-233.58 810.79,-249.19 810.79,-260.82"/>
<polygon fill="black" stroke="black" points="814.29,-220.2 810.79,-210.2 807.29,-220.2 814.29,-220.2"/>
<text text-anchor="middle" x="875.29" y="-231.8" font-family="Times,serif" font-size="14.00">कर्मधारयः</text>
</g>
</g>
</svg>
