<svg xmlns="http://www.w3.org/2000/svg" xmlns:xlink="http://www.w3.org/1999/xlink" width="2069pt" height="428" viewBox="0 0 2068.59 321"><g id="graph0" class="graph" transform="scale(1 1) rotate(0) translate(4 317)"><title>G</title><polygon fill="#fffacd" stroke="transparent" points="-4 4 -4 -317 2064.59 -317 2064.59 4 -4 4"/><g id="clust1" class="cluster"><title>cluster_1</title><polygon fill="#fffacd" stroke="#000" points="10.59 -8 10.59 -147 202.59 -147 202.59 -8 10.59 -8"/></g><g id="clust2" class="cluster"><title>cluster_2</title><polygon fill="#fffacd" stroke="#000" points="370.59 -8 370.59 -147 574.59 -147 574.59 -8 370.59 -8"/></g><g id="clust3" class="cluster"><title>cluster_3</title><polygon fill="#fffacd" stroke="#000" points="785.59 -8 785.59 -147 969.59 -147 969.59 -8 785.59 -8"/></g><g id="clust4" class="cluster"><title>cluster_4</title><polygon fill="#fffacd" stroke="#000" points="977.59 -8 977.59 -147 1181.59 -147 1181.59 -8 977.59 -8"/></g><g id="node1" class="node"><title>Node6_1</title><ellipse cx="88.59" cy="-34" fill="#93db70" stroke="#93db70" rx="69.59" ry="18"/><text x="88.59" y="-30.3" font-family="Times,serif" font-size="14" text-anchor="middle">ताम्(6.1)</text></g><g id="node2" class="node"><title>Node4_1</title><ellipse cx="106.59" cy="-121" fill="#93db70" stroke="#93db70" rx="87.99" ry="18"/><text x="106.59" y="-117.3" font-family="Times,serif" font-size="14" text-anchor="middle">सीताम्(4.1)</text></g><g id="edge5" class="edge"><title>Node6_1-&gt;Node4_1</title><path fill="none" stroke="#000" d="M94.36,-62.27C97.18,-75.58 100.49,-91.19 102.95,-102.82"/><polygon fill="#000" stroke="#000" points="97.73 -61.26 92.23 -52.2 90.88 -62.71 97.73 -61.26"/><text x="157.09" y="-73.8" font-family="Times,serif" font-size="14" text-anchor="middle">विशेषणम्</text></g><g id="node12" class="node"><title>Node5_1</title><ellipse cx="106.59" cy="-208" fill="#f9f" stroke="#f9f" rx="106.68" ry="18"/><text x="106.59" y="-204.3" font-family="Times,serif" font-size="14" text-anchor="middle">अनधिगम्य(5.1)</text></g><g id="edge3" class="edge"><title>Node4_1-&gt;Node5_1</title><path fill="none" stroke="#000" d="M106.59,-149.27C106.59,-162.58 106.59,-178.19 106.59,-189.82"/><polygon fill="#000" stroke="#000" points="110.09 -149.2 106.59 -139.2 103.09 -149.2 110.09 -149.2"/><text x="135.59" y="-160.8" font-family="Times,serif" font-size="14" text-anchor="middle">कर्म</text></g><g id="node3" class="node"><title>Node9_1</title><ellipse cx="466.59" cy="-34" fill="#40e0d0" stroke="#40e0d0" rx="87.99" ry="18"/><text x="466.59" y="-30.3" font-family="Times,serif" font-size="14" text-anchor="middle">सर्वैः(9.1)</text></g><g id="node4" class="node"><title>Node10_1</title><ellipse cx="472.59" cy="-121" fill="#40e0d0" stroke="#40e0d0" rx="93.68" ry="18"/><text x="472.59" y="-117.3" font-family="Times,serif" font-size="14" text-anchor="middle">वानरैः(10.1)</text></g><g id="edge8" class="edge"><title>Node9_1-&gt;Node10_1</title><path fill="none" stroke="#000" d="M468.52,-62.27C469.46,-75.58 470.56,-91.19 471.38,-102.82"/><polygon fill="#000" stroke="#000" points="472 -61.93 467.8 -52.2 465.02 -62.42 472 -61.93"/><text x="528.09" y="-73.8" font-family="Times,serif" font-size="14" text-anchor="middle">विशेषणम्</text></g><g id="node13" class="node"><title>Node7_1</title><ellipse cx="584.59" cy="-208" fill="#00bfff" stroke="#00bfff" rx="87.99" ry="18"/><text x="584.59" y="-204.3" font-family="Times,serif" font-size="14" text-anchor="middle">अङ्गदः(7.1)</text></g><g id="edge9" class="edge"><title>Node10_1-&gt;Node7_1</title><path fill="none" stroke="#000" d="M490.99,-147.19C498.04,-155.75 506.58,-164.93 515.59,-172 525.21,-179.54 536.71,-186.14 547.54,-191.52"/><polygon fill="#000" stroke="#000" points="493.66 -144.93 484.71 -139.26 488.17 -149.28 493.66 -144.93"/><text x="565.59" y="-160.8" font-family="Times,serif" font-size="14" text-anchor="middle">सहार्थः</text></g><g id="node5" class="node"><title>Node14_1</title><ellipse cx="868.59" cy="-34" fill="#00bfff" stroke="#00bfff" rx="75.29" ry="18"/><text x="868.59" y="-30.3" font-family="Times,serif" font-size="14" text-anchor="middle">बहवः(14.1)</text></g><g id="node6" class="node"><title>Node15_1</title><ellipse cx="877.59" cy="-121" fill="#00bfff" stroke="#00bfff" rx="84.49" ry="18"/><text x="877.59" y="-117.3" font-family="Times,serif" font-size="14" text-anchor="middle">दोषाः(15.1)</text></g><g id="edge12" class="edge"><title>Node14_1-&gt;Node15_1</title><path fill="none" stroke="#000" d="M858.77,-61.94C857.24,-69.44 856.7,-77.57 858.59,-85 860.16,-91.17 863.05,-97.42 866.12,-102.9"/><polygon fill="#000" stroke="#000" points="862.17 -62.79 861.35 -52.22 855.4 -60.99 862.17 -62.79"/><text x="916.09" y="-73.8" font-family="Times,serif" font-size="14" text-anchor="middle">विशेषणम्</text></g><g id="node19" class="node"><title>Node17_1</title><ellipse cx="1194.59" cy="-208" fill="#ff1975" stroke="#ff1975" rx="130.78" ry="18"/><text x="1194.59" y="-204.3" font-family="Times,serif" font-size="14" text-anchor="middle">प्राप्नोति(17.1)</text></g><g id="edge13" class="edge"><title>Node15_1-&gt;Node17_1</title><path fill="none" stroke="#000" d="M874.72,-149.35C875.32,-157.64 877.66,-166.11 883.59,-172 897.42,-185.73 993.47,-195.07 1075.21,-200.62"/><polygon fill="#000" stroke="#000" points="878.22 -149.15 874.75 -139.14 871.22 -149.13 878.22 -149.15"/><text x="1005.09" y="-160.8" font-family="Times,serif" font-size="14" text-anchor="middle">कर्तृसमानाधिकरणम्</text></g><g id="node7" class="node"><title>Node22_1</title><ellipse cx="1079.59" cy="-34" fill="#00bfff" stroke="#00bfff" rx="93.68" ry="18"/><text x="1079.59" y="-30.3" font-family="Times,serif" font-size="14" text-anchor="middle">ध्रुवः(22.1)</text></g><g id="node8" class="node"><title>Node24_1</title><ellipse cx="1079.59" cy="-121" fill="#00bfff" stroke="#00bfff" rx="93.68" ry="18"/><text x="1079.59" y="-117.3" font-family="Times,serif" font-size="14" text-anchor="middle">सङ्गमः(24.1)</text></g><g id="edge18" class="edge"><title>Node22_1-&gt;Node24_1</title><path fill="none" stroke="#000" d="M1079.59,-62.27C1079.59,-75.58 1079.59,-91.19 1079.59,-102.82"/><polygon fill="#000" stroke="#000" points="1083.09 -62.2 1079.59 -52.2 1076.09 -62.2 1083.09 -62.2"/><text x="1137.09" y="-73.8" font-family="Times,serif" font-size="14" text-anchor="middle">विशेषणम्</text></g><g id="edge20" class="edge"><title>Node24_1-&gt;Node17_1</title><path fill="none" stroke="#000" d="M1110.25,-144.66C1129.6,-158.96 1154.18,-177.13 1171.81,-190.16"/><polygon fill="#000" stroke="#000" points="1112.16 -141.72 1102.04 -138.59 1108 -147.35 1112.16 -141.72"/><text x="1180.59" y="-160.8" font-family="Times,serif" font-size="14" text-anchor="middle">कर्ता</text></g><g id="node9" class="node"><title>Node1_1</title><ellipse cx="290.59" cy="-208" fill="#f9f" stroke="#f9f" rx="59.59" ry="18"/><text x="290.59" y="-204.3" font-family="Times,serif" font-size="14" text-anchor="middle">यदि(1.1)</text></g><g id="node10" class="node"><title>Node3_1</title><ellipse cx="290.59" cy="-295" fill="#ff1975" stroke="#ff1975" rx="143.77" ry="18"/><text x="290.59" y="-291.3" font-family="Times,serif" font-size="14" text-anchor="middle">प्रतिगच्छामि(3.1)</text></g><g id="edge1" class="edge"><title>Node1_1-&gt;Node3_1</title><path fill="none" stroke="#000" d="M290.59,-236.27C290.59,-249.58 290.59,-265.19 290.59,-276.82"/><polygon fill="#000" stroke="#000" points="294.09 -236.2 290.59 -226.2 287.09 -236.2 294.09 -236.2"/><text x="348.09" y="-247.8" font-family="Times,serif" font-size="14" text-anchor="middle">सम्बन्धः</text></g><g id="node11" class="node"><title>Node2_1</title><ellipse cx="428.59" cy="-208" fill="#f9f" stroke="#f9f" rx="50.89" ry="18"/><text x="428.59" y="-204.3" font-family="Times,serif" font-size="14" text-anchor="middle">तु(2.1)</text></g><g id="edge2" class="edge"><title>Node2_1-&gt;Node3_1</title><path fill="none" stroke="#000" d="M421.72,-235.65C418.38,-244.11 413.53,-252.85 406.59,-259 396.2,-268.2 383.45,-274.99 370.26,-279.99"/><polygon fill="#000" stroke="#000" points="425.09 -236.62 424.99 -226.02 418.46 -234.37 425.09 -236.62"/><text x="475.09" y="-247.8" font-family="Times,serif" font-size="14" text-anchor="middle">सम्बन्धः</text></g><g id="edge4" class="edge"><title>Node5_1-&gt;Node3_1</title><path fill="none" stroke="#000" d="M126.77,-233.63C135.4,-242.78 146.13,-252.49 157.59,-259 173.68,-268.14 192.22,-274.95 210.25,-280.01"/><polygon fill="#000" stroke="#000" points="129.33 -231.25 120.04 -226.17 124.14 -235.94 129.33 -231.25"/><text x="222.09" y="-247.8" font-family="Times,serif" font-size="14" text-anchor="middle">पूर्वकालः</text></g><g id="node14" class="node"><title>Node12_1</title><ellipse cx="675.59" cy="-295" fill="#ff1975" stroke="#ff1975" rx="112.38" ry="18"/><text x="675.59" y="-291.3" font-family="Times,serif" font-size="14" text-anchor="middle">भविष्यति(12.1)</text></g><g id="edge6" class="edge"><title>Node7_1-&gt;Node12_1</title><path fill="none" stroke="#000" d="M604.2,-234.06C611.19,-242.37 619.39,-251.43 627.59,-259 634.56,-265.43 642.72,-271.76 650.32,-277.23"/><polygon fill="#000" stroke="#000" points="606.69 -231.58 597.64 -226.08 601.28 -236.03 606.69 -231.58"/><text x="663.59" y="-247.8" font-family="Times,serif" font-size="14" text-anchor="middle">कर्ता</text></g><g id="node15" class="node"><title>Node8_1</title><ellipse cx="662.59" cy="-121" fill="#00bfff" stroke="#00bfff" rx="78.79" ry="18"/><text x="662.59" y="-117.3" font-family="Times,serif" font-size="14" text-anchor="middle">सहितः(8.1)</text></g><g id="edge7" class="edge"><title>Node8_1-&gt;Node7_1</title><path fill="none" stroke="#000" d="M640.36,-146.22C627.45,-160.3 611.5,-177.68 599.97,-190.24"/><polygon fill="#000" stroke="#000" points="643 -148.53 647.18 -138.79 637.84 -143.79 643 -148.53"/><text x="725.09" y="-160.8" font-family="Times,serif" font-size="14" text-anchor="middle">सहार्थ_द्योतकः</text></g><g id="node16" class="node"><title>Node11_1</title><ellipse cx="737.59" cy="-208" fill="#f9f" stroke="#f9f" rx="47.39" ry="18"/><text x="737.59" y="-204.3" font-family="Times,serif" font-size="14" text-anchor="middle">न(11.1)</text></g><g id="edge10" class="edge"><title>Node11_1-&gt;Node12_1</title><path fill="none" stroke="#000" d="M719.39,-233.95C709.3,-247.78 697.02,-264.63 688.03,-276.95"/><polygon fill="#000" stroke="#000" points="722.28 -235.93 725.34 -225.79 716.62 -231.81 722.28 -235.93"/><text x="775.09" y="-247.8" font-family="Times,serif" font-size="14" text-anchor="middle">प्रतिषेधः</text></g><g id="node17" class="node"><title>Node13_1</title><ellipse cx="1284.59" cy="-34" fill="#c6e2eb" stroke="#c6e2eb" rx="93.68" ry="18"/><text x="1284.59" y="-30.3" font-family="Times,serif" font-size="14" text-anchor="middle">विनाशे(13.1)</text></g><g id="node18" class="node"><title>Node16_1</title><ellipse cx="1275.59" cy="-121" fill="#00bfff" stroke="#00bfff" rx="84.49" ry="18"/><text x="1275.59" y="-117.3" font-family="Times,serif" font-size="14" text-anchor="middle">जीवन्(16.1)</text></g><g id="edge11" class="edge"><title>Node13_1-&gt;Node16_1</title><path fill="none" stroke="#000" d="M1281.7,-62.27C1280.29,-75.58 1278.64,-91.19 1277.41,-102.82"/><polygon fill="#000" stroke="#000" points="1285.2 -62.51 1282.77 -52.2 1278.24 -61.78 1285.2 -62.51"/><text x="1381.59" y="-73.8" font-family="Times,serif" font-size="14" text-anchor="middle">भावलक्षणसप्तमी</text></g><g id="edge14" class="edge"><title>Node16_1-&gt;Node17_1</title><path fill="none" stroke="#000" d="M1252.56,-146.17C1239.24,-160.15 1222.8,-177.39 1210.84,-189.95"/><polygon fill="#000" stroke="#000" points="1255.22 -148.45 1259.59 -138.79 1250.16 -143.62 1255.22 -148.45"/><text x="1347.59" y="-160.8" font-family="Times,serif" font-size="14" text-anchor="middle">वर्तमानसमानकालः</text></g><g id="node20" class="node"><title>Node18_1</title><ellipse cx="1480.59" cy="-121" fill="#93db70" stroke="#93db70" rx="102.88" ry="18"/><text x="1480.59" y="-117.3" font-family="Times,serif" font-size="14" text-anchor="middle">भद्रकम्(18.1)</text></g><g id="edge15" class="edge"><title>Node18_1-&gt;Node17_1</title><path fill="none" stroke="#000" d="M1474.51,-148.66C1471.22,-157.38 1466.19,-166.29 1458.59,-172 1436.18,-188.83 1375.77,-197.57 1318.39,-202.11"/><polygon fill="#000" stroke="#000" points="1477.87 -149.66 1477.55 -139.07 1471.19 -147.55 1477.87 -149.66"/><text x="1499.59" y="-160.8" font-family="Times,serif" font-size="14" text-anchor="middle">कर्म</text></g><g id="node21" class="node"><title>Node19_1</title><ellipse cx="1507.59" cy="-34" fill="#b4ffb4" stroke="#b4ffb4" rx="102.88" ry="18"/><text x="1507.59" y="-30.3" font-family="Times,serif" font-size="14" text-anchor="middle">तस्मात्(19.1)</text></g><g id="node22" class="node"><title>Node21_1</title><ellipse cx="1740.59" cy="-121" fill="#ff1975" stroke="#ff1975" rx="121.58" ry="18"/><text x="1740.59" y="-117.3" font-family="Times,serif" font-size="14" text-anchor="middle">धरिष्यामि(21.1)</text></g><g id="edge16" class="edge"><title>Node19_1-&gt;Node21_1</title><path fill="none" stroke="#000" d="M1559.69,-54.01C1601.09,-69.11 1658.31,-89.98 1697.23,-104.18"/><polygon fill="#000" stroke="#000" points="1560.65 -50.63 1550.06 -50.49 1558.25 -57.21 1560.65 -50.63"/><text x="1678.09" y="-73.8" font-family="Times,serif" font-size="14" text-anchor="middle">हेतुः5</text></g><g id="node23" class="node"><title>Node20_1</title><ellipse cx="1740.59" cy="-34" fill="#93db70" stroke="#93db70" rx="112.38" ry="18"/><text x="1740.59" y="-30.3" font-family="Times,serif" font-size="14" text-anchor="middle">प्राणान्(20.1)</text></g><g id="edge17" class="edge"><title>Node20_1-&gt;Node21_1</title><path fill="none" stroke="#000" d="M1740.59,-62.27C1740.59,-75.58 1740.59,-91.19 1740.59,-102.82"/><polygon fill="#000" stroke="#000" points="1744.09 -62.2 1740.59 -52.2 1737.09 -62.2 1744.09 -62.2"/><text x="1769.59" y="-73.8" font-family="Times,serif" font-size="14" text-anchor="middle">कर्म</text></g><g id="node24" class="node"><title>Node23_1</title><ellipse cx="1955.59" cy="-34" fill="#c6e2eb" stroke="#c6e2eb" rx="84.49" ry="18"/><text x="1955.59" y="-30.3" font-family="Times,serif" font-size="14" text-anchor="middle">जीवति(23.1)</text></g><g id="edge19" class="edge"><title>Node23_1-&gt;Node21_1</title><path fill="none" stroke="#000" d="M1907.83,-53.88C1869.83,-68.9 1817.25,-89.69 1781.25,-103.92"/><polygon fill="#000" stroke="#000" points="1909.14 -57.13 1917.15 -50.2 1906.57 -50.62 1909.14 -57.13"/><text x="1960.59" y="-73.8" font-family="Times,serif" font-size="14" text-anchor="middle">भावलक्षणसप्तमी</text></g></g></svg>