<?xml version="1.0" encoding="UTF-8" standalone="no"?>
<!DOCTYPE svg PUBLIC "-//W3C//DTD SVG 1.1//EN"
 "http://www.w3.org/Graphics/SVG/1.1/DTD/svg11.dtd">
<!-- Generated by graphviz version 2.43.0 (0)
 -->
<!-- Title: G Pages: 1 -->
<svg width="1297pt" height="321pt"
 viewBox="0.00 0.00 1297.14 321.00" xmlns="http://www.w3.org/2000/svg" xmlns:xlink="http://www.w3.org/1999/xlink">
<g id="graph0" class="graph" transform="scale(1 1) rotate(0) translate(4 317)">
<title>G</title>
<polygon fill="#fffacd" stroke="transparent" points="-4,4 -4,-317 1293.14,-317 1293.14,4 -4,4"/>
<g id="clust1" class="cluster">
<title>cluster_1</title>
<polygon fill="#fffacd" stroke="black" points="701.6,-166 701.6,-305 961.6,-305 961.6,-166 701.6,-166"/>
</g>
<!-- Node6_1 -->
<g id="node1" class="node">
<title>Node6_1</title>
<ellipse fill="#ff1975" stroke="#ff1975" cx="845.6" cy="-192" rx="87.99" ry="18"/>
<text text-anchor="middle" x="845.6" y="-188.3" font-family="Times,serif" font-size="14.00">आनयामि(6.1)</text>
</g>
<!-- Node11_1 -->
<g id="node2" class="node">
<title>Node11_1</title>
<ellipse fill="#ff1975" stroke="#ff1975" cx="831.6" cy="-279" rx="121.58" ry="18"/>
<text text-anchor="middle" x="831.6" y="-275.3" font-family="Times,serif" font-size="14.00">निर्दहेत्(11.1)</text>
</g>
<!-- Node6_1&#45;&gt;Node11_1 -->
<g id="edge7" class="edge">
<title>Node6_1&#45;&gt;Node11_1</title>
<path fill="none" stroke="black" d="M841.11,-220.27C838.91,-233.58 836.34,-249.19 834.43,-260.82"/>
<polygon fill="black" stroke="black" points="844.59,-220.64 842.76,-210.2 837.68,-219.5 844.59,-220.64"/>
<text text-anchor="middle" x="903.1" y="-231.8" font-family="Times,serif" font-size="14.00">समुच्चितः</text>
</g>
<!-- Node1_1 -->
<g id="node3" class="node">
<title>Node1_1</title>
<ellipse fill="#ffff00" stroke="#ffff00" cx="594.6" cy="-18" rx="100.18" ry="18"/>
<text text-anchor="middle" x="594.6" y="-14.3" font-family="Times,serif" font-size="14.00">सम्पाति&#45;(1.1)</text>
</g>
<!-- Node1_2 -->
<g id="node4" class="node">
<title>Node1_2</title>
<ellipse fill="#b4ffb4" stroke="#b4ffb4" cx="594.6" cy="-105" rx="87.99" ry="18"/>
<text text-anchor="middle" x="594.6" y="-101.3" font-family="Times,serif" font-size="14.00">वचनात्(1.2)</text>
</g>
<!-- Node1_1&#45;&gt;Node1_2 -->
<g id="edge1" class="edge">
<title>Node1_1&#45;&gt;Node1_2</title>
<path fill="none" stroke="black" d="M594.6,-46.27C594.6,-59.58 594.6,-75.19 594.6,-86.82"/>
<polygon fill="black" stroke="black" points="598.1,-46.2 594.6,-36.2 591.1,-46.2 598.1,-46.2"/>
<text text-anchor="middle" x="698.1" y="-57.8" font-family="Times,serif" font-size="14.00">षष्ठी_तत्पुरुषः</text>
</g>
<!-- Node1_2&#45;&gt;Node6_1 -->
<g id="edge2" class="edge">
<title>Node1_2&#45;&gt;Node6_1</title>
<path fill="none" stroke="black" d="M623,-128.79C636.43,-138.52 653.11,-149.18 669.6,-156 689.1,-164.07 737.27,-173.4 778.29,-180.4"/>
<polygon fill="black" stroke="black" points="624.79,-125.75 614.68,-122.58 620.6,-131.36 624.79,-125.75"/>
<text text-anchor="middle" x="710.1" y="-144.8" font-family="Times,serif" font-size="14.00">हेतुः5</text>
</g>
<!-- Node2_1 -->
<g id="node5" class="node">
<title>Node2_1</title>
<ellipse fill="#ff99ff" stroke="#ff99ff" cx="41.6" cy="-192" rx="41.69" ry="18"/>
<text text-anchor="middle" x="41.6" y="-188.3" font-family="Times,serif" font-size="14.00">च(2.1)</text>
</g>
<!-- Node2_1&#45;&gt;Node11_1 -->
<g id="edge3" class="edge">
<title>Node2_1&#45;&gt;Node11_1</title>
<path fill="none" stroke="black" d="M59.11,-217.66C67.45,-227.36 78.29,-237.49 90.6,-243 145.5,-267.61 515.11,-274.94 710.7,-277.11"/>
<polygon fill="black" stroke="black" points="61.72,-215.31 52.72,-209.72 56.27,-219.7 61.72,-215.31"/>
<text text-anchor="middle" x="194.1" y="-231.8" font-family="Times,serif" font-size="14.00">समुच्चय_द्योतकः</text>
</g>
<!-- Node3_1 -->
<g id="node6" class="node">
<title>Node3_1</title>
<ellipse fill="#ff99ff" stroke="#ff99ff" cx="760.6" cy="-105" rx="59.59" ry="18"/>
<text text-anchor="middle" x="760.6" y="-101.3" font-family="Times,serif" font-size="14.00">अपि(3.1)</text>
</g>
<!-- Node3_1&#45;&gt;Node6_1 -->
<g id="edge4" class="edge">
<title>Node3_1&#45;&gt;Node6_1</title>
<path fill="none" stroke="black" d="M755.12,-133.16C754.91,-141.08 756.16,-149.38 760.6,-156 767.26,-165.95 777.31,-173.07 788.2,-178.17"/>
<polygon fill="black" stroke="black" points="758.61,-133.42 756.11,-123.13 751.65,-132.74 758.61,-133.42"/>
<text text-anchor="middle" x="818.1" y="-144.8" font-family="Times,serif" font-size="14.00">सम्बन्धः</text>
</g>
<!-- Node4_1 -->
<g id="node7" class="node">
<title>Node4_1</title>
<ellipse fill="#93db70" stroke="#93db70" cx="916.6" cy="-105" rx="78.79" ry="18"/>
<text text-anchor="middle" x="916.6" y="-101.3" font-family="Times,serif" font-size="14.00">रामम्(4.1)</text>
</g>
<!-- Node4_1&#45;&gt;Node6_1 -->
<g id="edge5" class="edge">
<title>Node4_1&#45;&gt;Node6_1</title>
<path fill="none" stroke="black" d="M898.79,-131.43C892.9,-139.47 886.17,-148.26 879.6,-156 874.33,-162.2 868.24,-168.67 862.67,-174.34"/>
<polygon fill="black" stroke="black" points="901.79,-133.25 904.81,-123.1 896.12,-129.16 901.79,-133.25"/>
<text text-anchor="middle" x="919.6" y="-144.8" font-family="Times,serif" font-size="14.00">कर्म</text>
</g>
<!-- Node5_1 -->
<g id="node8" class="node">
<title>Node5_1</title>
<ellipse fill="#ff99ff" stroke="#ff99ff" cx="1072.6" cy="-105" rx="59.59" ry="18"/>
<text text-anchor="middle" x="1072.6" y="-101.3" font-family="Times,serif" font-size="14.00">यदि(5.1)</text>
</g>
<!-- Node5_1&#45;&gt;Node6_1 -->
<g id="edge6" class="edge">
<title>Node5_1&#45;&gt;Node6_1</title>
<path fill="none" stroke="black" d="M1030.85,-124.34C1007.92,-134.18 978.89,-146.24 952.6,-156 932.9,-163.31 910.88,-170.66 891.96,-176.71"/>
<polygon fill="black" stroke="black" points="1032.48,-127.45 1040.27,-120.28 1029.71,-121.03 1032.48,-127.45"/>
<text text-anchor="middle" x="1046.1" y="-144.8" font-family="Times,serif" font-size="14.00">सम्बन्धः</text>
</g>
<!-- Node7_1 -->
<g id="node9" class="node">
<title>Node7_1</title>
<ellipse fill="#00bfff" stroke="#00bfff" cx="1219.6" cy="-105" rx="69.59" ry="18"/>
<text text-anchor="middle" x="1219.6" y="-101.3" font-family="Times,serif" font-size="14.00">अहम्(7.1)</text>
</g>
<!-- Node7_1&#45;&gt;Node6_1 -->
<g id="edge8" class="edge">
<title>Node7_1&#45;&gt;Node6_1</title>
<path fill="none" stroke="black" d="M1181.97,-126.06C1160.7,-136.56 1133.29,-148.71 1107.6,-156 1048.99,-172.62 980.71,-181.42 928.55,-186.03"/>
<polygon fill="black" stroke="black" points="1183.62,-129.15 1190.98,-121.53 1180.47,-122.9 1183.62,-129.15"/>
<text text-anchor="middle" x="1184.6" y="-144.8" font-family="Times,serif" font-size="14.00">कर्ता</text>
</g>
<!-- Node8_1 -->
<g id="node10" class="node">
<title>Node8_1</title>
<ellipse fill="#00bfff" stroke="#00bfff" cx="197.6" cy="-192" rx="96.68" ry="18"/>
<text text-anchor="middle" x="197.6" y="-188.3" font-family="Times,serif" font-size="14.00">अपश्यन्(8.1)</text>
</g>
<!-- Node8_1&#45;&gt;Node11_1 -->
<g id="edge9" class="edge">
<title>Node8_1&#45;&gt;Node11_1</title>
<path fill="none" stroke="black" d="M247.7,-211.67C279.34,-222.66 321.33,-235.77 359.6,-243 477.68,-265.31 614.89,-273.55 710.84,-276.52"/>
<polygon fill="black" stroke="black" points="248.83,-208.36 238.23,-208.34 246.51,-214.96 248.83,-208.36"/>
<text text-anchor="middle" x="466.6" y="-231.8" font-family="Times,serif" font-size="14.00">वर्तमानसमानकालः</text>
</g>
<!-- Node9_1 -->
<g id="node11" class="node">
<title>Node9_1</title>
<ellipse fill="#00bfff" stroke="#00bfff" cx="614.6" cy="-192" rx="78.79" ry="18"/>
<text text-anchor="middle" x="614.6" y="-188.3" font-family="Times,serif" font-size="14.00">राघवः(9.1)</text>
</g>
<!-- Node9_1&#45;&gt;Node11_1 -->
<g id="edge10" class="edge">
<title>Node9_1&#45;&gt;Node11_1</title>
<path fill="none" stroke="black" d="M661.81,-211.5C700.23,-226.54 753.89,-247.56 790.54,-261.92"/>
<polygon fill="black" stroke="black" points="662.98,-208.19 652.39,-207.81 660.43,-214.71 662.98,-208.19"/>
<text text-anchor="middle" x="771.6" y="-231.8" font-family="Times,serif" font-size="14.00">कर्ता</text>
</g>
<!-- Node10_1 -->
<g id="node12" class="node">
<title>Node10_1</title>
<ellipse fill="#93db70" stroke="#93db70" cx="197.6" cy="-105" rx="112.38" ry="18"/>
<text text-anchor="middle" x="197.6" y="-101.3" font-family="Times,serif" font-size="14.00">भार्याम्(10.1)</text>
</g>
<!-- Node10_1&#45;&gt;Node8_1 -->
<g id="edge11" class="edge">
<title>Node10_1&#45;&gt;Node8_1</title>
<path fill="none" stroke="black" d="M197.6,-133.27C197.6,-146.58 197.6,-162.19 197.6,-173.82"/>
<polygon fill="black" stroke="black" points="201.1,-133.2 197.6,-123.2 194.1,-133.2 201.1,-133.2"/>
<text text-anchor="middle" x="226.6" y="-144.8" font-family="Times,serif" font-size="14.00">कर्म</text>
</g>
<!-- Node12_1 -->
<g id="node13" class="node">
<title>Node12_1</title>
<ellipse fill="#ffff00" stroke="#ffff00" cx="410.6" cy="-105" rx="77.99" ry="18"/>
<text text-anchor="middle" x="410.6" y="-101.3" font-family="Times,serif" font-size="14.00">सर्व&#45;(12.1)</text>
</g>
<!-- Node12_2 -->
<g id="node14" class="node">
<title>Node12_2</title>
<ellipse fill="#93db70" stroke="#93db70" cx="415.6" cy="-192" rx="102.88" ry="18"/>
<text text-anchor="middle" x="415.6" y="-188.3" font-family="Times,serif" font-size="14.00">वानरान्(12.2)</text>
</g>
<!-- Node12_1&#45;&gt;Node12_2 -->
<g id="edge12" class="edge">
<title>Node12_1&#45;&gt;Node12_2</title>
<path fill="none" stroke="black" d="M412.2,-133.27C412.98,-146.58 413.9,-162.19 414.59,-173.82"/>
<polygon fill="black" stroke="black" points="415.69,-132.98 411.61,-123.2 408.7,-133.39 415.69,-132.98"/>
<text text-anchor="middle" x="478.1" y="-144.8" font-family="Times,serif" font-size="14.00">कर्मधारयः</text>
</g>
<!-- Node12_2&#45;&gt;Node11_1 -->
<g id="edge13" class="edge">
<title>Node12_2&#45;&gt;Node11_1</title>
<path fill="none" stroke="black" d="M486.42,-208.73C532.32,-218.81 593.42,-232.01 647.6,-243 684.09,-250.4 724.74,-258.18 758.54,-264.53"/>
<polygon fill="black" stroke="black" points="487.09,-205.29 476.57,-206.56 485.58,-212.13 487.09,-205.29"/>
<text text-anchor="middle" x="676.6" y="-231.8" font-family="Times,serif" font-size="14.00">कर्म</text>
</g>
</g>
</svg>
