<?xml version="1.0" encoding="UTF-8" standalone="no"?>
<!DOCTYPE svg PUBLIC "-//W3C//DTD SVG 1.1//EN"
 "http://www.w3.org/Graphics/SVG/1.1/DTD/svg11.dtd">
<!-- Generated by graphviz version 2.43.0 (0)
 -->
<!-- Title: G Pages: 1 -->
<svg width="1656pt" height="305pt"
 viewBox="0.00 0.00 1656.00 305.00" xmlns="http://www.w3.org/2000/svg" xmlns:xlink="http://www.w3.org/1999/xlink">
<g id="graph0" class="graph" transform="scale(1 1) rotate(0) translate(4 301)">
<title>G</title>
<polygon fill="#fffacd" stroke="transparent" points="-4,4 -4,-301 1652,-301 1652,4 -4,4"/>
<g id="clust1" class="cluster">
<title>cluster_1</title>
<polygon fill="#fffacd" stroke="black" points="1098,-79 1098,-218 1640,-218 1640,-79 1098,-79"/>
</g>
<g id="clust2" class="cluster">
<title>cluster_2</title>
<polygon fill="#fffacd" stroke="black" points="8,-79 8,-218 256,-218 256,-79 8,-79"/>
</g>
<!-- Node3_1 -->
<g id="node1" class="node">
<title>Node3_1</title>
<ellipse fill="#00bfff" stroke="#00bfff" cx="1581" cy="-105" rx="50.89" ry="18"/>
<text text-anchor="middle" x="1581" y="-101.3" font-family="Times,serif" font-size="14.00">सः(3.1)</text>
</g>
<!-- Node8_1 -->
<g id="node2" class="node">
<title>Node8_1</title>
<ellipse fill="#00bfff" stroke="#00bfff" cx="1285" cy="-192" rx="96.68" ry="18"/>
<text text-anchor="middle" x="1285" y="-188.3" font-family="Times,serif" font-size="14.00">हनूमान्(8.1)</text>
</g>
<!-- Node3_1&#45;&gt;Node8_1 -->
<g id="edge4" class="edge">
<title>Node3_1&#45;&gt;Node8_1</title>
<path fill="none" stroke="black" d="M1549.61,-126.41C1532.36,-136.75 1510.21,-148.64 1489,-156 1450.64,-169.31 1406.39,-177.69 1368.94,-182.89"/>
<polygon fill="black" stroke="black" points="1551.46,-129.39 1558.16,-121.18 1547.8,-123.42 1551.46,-129.39"/>
<text text-anchor="middle" x="1580.5" y="-144.8" font-family="Times,serif" font-size="14.00">विशेषणम्</text>
</g>
<!-- Node6_1 -->
<g id="node10" class="node">
<title>Node6_1</title>
<ellipse fill="#ff1975" stroke="#ff1975" cx="807" cy="-279" rx="78.79" ry="18"/>
<text text-anchor="middle" x="807" y="-275.3" font-family="Times,serif" font-size="14.00">ददर्श(6.1)</text>
</g>
<!-- Node8_1&#45;&gt;Node6_1 -->
<g id="edge12" class="edge">
<title>Node8_1&#45;&gt;Node6_1</title>
<path fill="none" stroke="black" d="M1207.68,-206.75C1112.61,-223.65 953.29,-251.99 866.96,-267.34"/>
<polygon fill="black" stroke="black" points="1208.3,-210.19 1217.53,-205 1207.07,-203.3 1208.3,-210.19"/>
<text text-anchor="middle" x="1110" y="-231.8" font-family="Times,serif" font-size="14.00">कर्ता</text>
</g>
<!-- Node7_2 -->
<g id="node3" class="node">
<title>Node7_2</title>
<ellipse fill="#00bfff" stroke="#00bfff" cx="1213" cy="-105" rx="106.68" ry="18"/>
<text text-anchor="middle" x="1213" y="-101.3" font-family="Times,serif" font-size="14.00">शार्दूलः(7.2)</text>
</g>
<!-- Node7_2&#45;&gt;Node8_1 -->
<g id="edge11" class="edge">
<title>Node7_2&#45;&gt;Node8_1</title>
<path fill="none" stroke="black" d="M1219.13,-132.87C1221.85,-140.88 1225.68,-149.29 1231,-156 1236.9,-163.44 1244.84,-169.8 1252.81,-174.97"/>
<polygon fill="black" stroke="black" points="1222.44,-131.71 1216.25,-123.11 1215.72,-133.69 1222.44,-131.71"/>
<text text-anchor="middle" x="1288.5" y="-144.8" font-family="Times,serif" font-size="14.00">विशेषणम्</text>
</g>
<!-- Node9_2 -->
<g id="node4" class="node">
<title>Node9_2</title>
<ellipse fill="#00bfff" stroke="#00bfff" cx="1425" cy="-105" rx="87.99" ry="18"/>
<text text-anchor="middle" x="1425" y="-101.3" font-family="Times,serif" font-size="14.00">आत्मजः(9.2)</text>
</g>
<!-- Node9_2&#45;&gt;Node8_1 -->
<g id="edge14" class="edge">
<title>Node9_2&#45;&gt;Node8_1</title>
<path fill="none" stroke="black" d="M1391.16,-127.87C1377.25,-136.74 1360.94,-146.99 1346,-156 1335.65,-162.24 1324.18,-168.89 1314.01,-174.7"/>
<polygon fill="black" stroke="black" points="1393.38,-130.61 1399.91,-122.27 1389.6,-124.71 1393.38,-130.61"/>
<text text-anchor="middle" x="1427.5" y="-144.8" font-family="Times,serif" font-size="14.00">विशेषणम्</text>
</g>
<!-- Node4_1 -->
<g id="node5" class="node">
<title>Node4_1</title>
<ellipse fill="#93db70" stroke="#93db70" cx="132" cy="-105" rx="115.88" ry="18"/>
<text text-anchor="middle" x="132" y="-101.3" font-family="Times,serif" font-size="14.00">पद्मिन्यः(4.1)</text>
</g>
<!-- Node5_4 -->
<g id="node6" class="node">
<title>Node5_4</title>
<ellipse fill="#93db70" stroke="#93db70" cx="160" cy="-192" rx="87.99" ry="18"/>
<text text-anchor="middle" x="160" y="-188.3" font-family="Times,serif" font-size="14.00">आयुताः(5.4)</text>
</g>
<!-- Node4_1&#45;&gt;Node5_4 -->
<g id="edge5" class="edge">
<title>Node4_1&#45;&gt;Node5_4</title>
<path fill="none" stroke="black" d="M140.85,-132.87C145.27,-146.27 150.47,-162.08 154.34,-173.82"/>
<polygon fill="black" stroke="black" points="144.12,-131.6 137.67,-123.2 137.47,-133.79 144.12,-131.6"/>
<text text-anchor="middle" x="205.5" y="-144.8" font-family="Times,serif" font-size="14.00">विशेषणम्</text>
</g>
<!-- Node5_4&#45;&gt;Node6_1 -->
<g id="edge9" class="edge">
<title>Node5_4&#45;&gt;Node6_1</title>
<path fill="none" stroke="black" d="M241.97,-203.77C371.5,-220.79 621.03,-253.57 740.32,-269.24"/>
<polygon fill="black" stroke="black" points="242.08,-200.25 231.71,-202.42 241.17,-207.19 242.08,-200.25"/>
<text text-anchor="middle" x="552" y="-231.8" font-family="Times,serif" font-size="14.00">कर्म</text>
</g>
<!-- Node1_1 -->
<g id="node7" class="node">
<title>Node1_1</title>
<ellipse fill="#87ceeb" stroke="#87ceeb" cx="703" cy="-105" rx="69.59" ry="18"/>
<text text-anchor="middle" x="703" y="-101.3" font-family="Times,serif" font-size="14.00">तस्य(1.1)</text>
</g>
<!-- Node2_2 -->
<g id="node8" class="node">
<title>Node2_2</title>
<ellipse fill="#b4ffb4" stroke="#b4ffb4" cx="807" cy="-192" rx="87.99" ry="18"/>
<text text-anchor="middle" x="807" y="-188.3" font-family="Times,serif" font-size="14.00">दूरात्(2.2)</text>
</g>
<!-- Node1_1&#45;&gt;Node2_2 -->
<g id="edge1" class="edge">
<title>Node1_1&#45;&gt;Node2_2</title>
<path fill="none" stroke="black" d="M697.9,-133.39C697.83,-141.32 699.29,-149.57 704,-156 712.47,-167.58 725,-175.38 738.41,-180.6"/>
<polygon fill="black" stroke="black" points="701.39,-133.57 698.71,-123.32 694.42,-133 701.39,-133.57"/>
<text text-anchor="middle" x="797" y="-144.8" font-family="Times,serif" font-size="14.00">षष्ठीसम्बन्धः</text>
</g>
<!-- Node2_2&#45;&gt;Node6_1 -->
<g id="edge3" class="edge">
<title>Node2_2&#45;&gt;Node6_1</title>
<path fill="none" stroke="black" d="M807,-220.27C807,-233.58 807,-249.19 807,-260.82"/>
<polygon fill="black" stroke="black" points="810.5,-220.2 807,-210.2 803.5,-220.2 810.5,-220.2"/>
<text text-anchor="middle" x="847.5" y="-231.8" font-family="Times,serif" font-size="14.00">हेतुः5</text>
</g>
<!-- Node2_1 -->
<g id="node9" class="node">
<title>Node2_1</title>
<ellipse fill="#ffff00" stroke="#ffff00" cx="912" cy="-105" rx="44.39" ry="18"/>
<text text-anchor="middle" x="912" y="-101.3" font-family="Times,serif" font-size="14.00">अ&#45;(2.1)</text>
</g>
<!-- Node2_1&#45;&gt;Node2_2 -->
<g id="edge2" class="edge">
<title>Node2_1&#45;&gt;Node2_2</title>
<path fill="none" stroke="black" d="M904.6,-132.61C901.23,-140.93 896.51,-149.59 890,-156 880.75,-165.11 868.77,-171.99 856.81,-177.13"/>
<polygon fill="black" stroke="black" points="907.9,-133.76 907.94,-123.17 901.3,-131.43 907.9,-133.76"/>
<text text-anchor="middle" x="990" y="-144.8" font-family="Times,serif" font-size="14.00">नञ्_तत्पुरुषः</text>
</g>
<!-- Node5_1 -->
<g id="node11" class="node">
<title>Node5_1</title>
<ellipse fill="#ffff00" stroke="#ffff00" cx="338" cy="-105" rx="72.29" ry="18"/>
<text text-anchor="middle" x="338" y="-101.3" font-family="Times,serif" font-size="14.00">नाना&#45;(5.1)</text>
</g>
<!-- Node5_1&#45;&gt;Node5_4 -->
<g id="edge6" class="edge">
<title>Node5_1&#45;&gt;Node5_4</title>
<path fill="none" stroke="black" d="M309.97,-128.65C297.38,-138.04 282,-148.48 267,-156 249.7,-164.67 229.78,-171.87 211.85,-177.44"/>
<polygon fill="black" stroke="black" points="312.38,-131.22 318.21,-122.37 308.13,-125.65 312.38,-131.22"/>
<text text-anchor="middle" x="363.5" y="-144.8" font-family="Times,serif" font-size="14.00">बहुव्रीहिः</text>
</g>
<!-- Node5_2 -->
<g id="node12" class="node">
<title>Node5_2</title>
<ellipse fill="#ffff00" stroke="#ffff00" cx="482" cy="-18" rx="81.49" ry="18"/>
<text text-anchor="middle" x="482" y="-14.3" font-family="Times,serif" font-size="14.00">द्विज&#45;(5.2)</text>
</g>
<!-- Node5_3 -->
<g id="node13" class="node">
<title>Node5_3</title>
<ellipse fill="#ffff00" stroke="#ffff00" cx="482" cy="-105" rx="53.89" ry="18"/>
<text text-anchor="middle" x="482" y="-101.3" font-family="Times,serif" font-size="14.00">गण&#45;(5.3)</text>
</g>
<!-- Node5_2&#45;&gt;Node5_3 -->
<g id="edge7" class="edge">
<title>Node5_2&#45;&gt;Node5_3</title>
<path fill="none" stroke="black" d="M482,-46.27C482,-59.58 482,-75.19 482,-86.82"/>
<polygon fill="black" stroke="black" points="485.5,-46.2 482,-36.2 478.5,-46.2 485.5,-46.2"/>
<text text-anchor="middle" x="585.5" y="-57.8" font-family="Times,serif" font-size="14.00">षष्ठी_तत्पुरुषः</text>
</g>
<!-- Node5_3&#45;&gt;Node5_4 -->
<g id="edge8" class="edge">
<title>Node5_3&#45;&gt;Node5_4</title>
<path fill="none" stroke="black" d="M465.54,-130.88C457.98,-140.29 448.21,-150.14 437,-156 404.41,-173.04 313.12,-182.18 244.18,-186.79"/>
<polygon fill="black" stroke="black" points="468.37,-132.93 471.58,-122.83 462.78,-128.72 468.37,-132.93"/>
<text text-anchor="middle" x="566.5" y="-144.8" font-family="Times,serif" font-size="14.00">तृतीया_तत्पुरुषः</text>
</g>
<!-- Node7_1 -->
<g id="node14" class="node">
<title>Node7_1</title>
<ellipse fill="#ffff00" stroke="#ffff00" cx="1197" cy="-18" rx="63.09" ry="18"/>
<text text-anchor="middle" x="1197" y="-14.3" font-family="Times,serif" font-size="14.00">कपि&#45;(7.1)</text>
</g>
<!-- Node7_1&#45;&gt;Node7_2 -->
<g id="edge10" class="edge">
<title>Node7_1&#45;&gt;Node7_2</title>
<path fill="none" stroke="black" d="M1195.66,-46.56C1195.82,-53.91 1196.45,-61.82 1198,-69 1199.31,-75.07 1201.68,-81.41 1204.16,-86.99"/>
<polygon fill="black" stroke="black" points="1199.16,-46.34 1195.73,-36.31 1192.16,-46.29 1199.16,-46.34"/>
<text text-anchor="middle" x="1308.5" y="-57.8" font-family="Times,serif" font-size="14.00">सप्तमी_तत्पुरुषः</text>
</g>
<!-- Node9_1 -->
<g id="node15" class="node">
<title>Node9_1</title>
<ellipse fill="#ffff00" stroke="#ffff00" cx="1441" cy="-18" rx="81.49" ry="18"/>
<text text-anchor="middle" x="1441" y="-14.3" font-family="Times,serif" font-size="14.00">मारुत&#45;(9.1)</text>
</g>
<!-- Node9_1&#45;&gt;Node9_2 -->
<g id="edge13" class="edge">
<title>Node9_1&#45;&gt;Node9_2</title>
<path fill="none" stroke="black" d="M1435.87,-46.27C1433.36,-59.58 1430.42,-75.19 1428.23,-86.82"/>
<polygon fill="black" stroke="black" points="1439.35,-46.68 1437.76,-36.2 1432.47,-45.38 1439.35,-46.68"/>
<text text-anchor="middle" x="1536.5" y="-57.8" font-family="Times,serif" font-size="14.00">षष्ठी_तत्पुरुषः</text>
</g>
</g>
</svg>
