<?xml version="1.0" encoding="UTF-8" standalone="no"?>
<!DOCTYPE svg PUBLIC "-//W3C//DTD SVG 1.1//EN"
 "http://www.w3.org/Graphics/SVG/1.1/DTD/svg11.dtd">
<!-- Generated by graphviz version 2.43.0 (0)
 -->
<!-- Title: G Pages: 1 -->
<svg width="1199pt" height="392pt"
 viewBox="0.00 0.00 1199.00 392.00" xmlns="http://www.w3.org/2000/svg" xmlns:xlink="http://www.w3.org/1999/xlink">
<g id="graph0" class="graph" transform="scale(1 1) rotate(0) translate(4 388)">
<title>G</title>
<polygon fill="#fffacd" stroke="transparent" points="-4,4 -4,-388 1195,-388 1195,4 -4,4"/>
<g id="clust1" class="cluster">
<title>cluster_1</title>
<polygon fill="#fffacd" stroke="black" points="384,-79 384,-218 825,-218 825,-79 384,-79"/>
</g>
<g id="clust2" class="cluster">
<title>cluster_2</title>
<polygon fill="#fffacd" stroke="black" points="8,-166 8,-305 218,-305 218,-166 8,-166"/>
</g>
<!-- Node2_2 -->
<g id="node1" class="node">
<title>Node2_2</title>
<ellipse fill="#93db70" stroke="#93db70" cx="526" cy="-105" rx="133.78" ry="18"/>
<text text-anchor="middle" x="526" y="-101.3" font-family="Times,serif" font-size="14.00">अभिधावन्तम्(2.2)</text>
</g>
<!-- Node4_1 -->
<g id="node2" class="node">
<title>Node4_1</title>
<ellipse fill="#93db70" stroke="#93db70" cx="559" cy="-192" rx="78.79" ry="18"/>
<text text-anchor="middle" x="559" y="-188.3" font-family="Times,serif" font-size="14.00">कपिम्(4.1)</text>
</g>
<!-- Node2_2&#45;&gt;Node4_1 -->
<g id="edge2" class="edge">
<title>Node2_2&#45;&gt;Node4_1</title>
<path fill="none" stroke="black" d="M536.43,-132.87C541.63,-146.27 547.77,-162.08 552.33,-173.82"/>
<polygon fill="black" stroke="black" points="539.56,-131.26 532.68,-123.2 533.03,-133.79 539.56,-131.26"/>
<text text-anchor="middle" x="602.5" y="-144.8" font-family="Times,serif" font-size="14.00">विशेषणम्</text>
</g>
<!-- Node5_1 -->
<g id="node10" class="node">
<title>Node5_1</title>
<ellipse fill="#ff99ff" stroke="#ff99ff" cx="543" cy="-279" rx="106.68" ry="18"/>
<text text-anchor="middle" x="543" y="-275.3" font-family="Times,serif" font-size="14.00">दृष्ट्वा(5.1)</text>
</g>
<!-- Node4_1&#45;&gt;Node5_1 -->
<g id="edge6" class="edge">
<title>Node4_1&#45;&gt;Node5_1</title>
<path fill="none" stroke="black" d="M553.87,-220.27C551.36,-233.58 548.42,-249.19 546.23,-260.82"/>
<polygon fill="black" stroke="black" points="557.35,-220.68 555.76,-210.2 550.47,-219.38 557.35,-220.68"/>
<text text-anchor="middle" x="581" y="-231.8" font-family="Times,serif" font-size="14.00">कर्म</text>
</g>
<!-- Node3_3 -->
<g id="node3" class="node">
<title>Node3_3</title>
<ellipse fill="#93db70" stroke="#93db70" cx="747" cy="-105" rx="69.59" ry="18"/>
<text text-anchor="middle" x="747" y="-101.3" font-family="Times,serif" font-size="14.00">गतम्(3.3)</text>
</g>
<!-- Node3_3&#45;&gt;Node4_1 -->
<g id="edge5" class="edge">
<title>Node3_3&#45;&gt;Node4_1</title>
<path fill="none" stroke="black" d="M715,-127.54C699.95,-137.08 681.5,-147.93 664,-156 645.76,-164.41 624.92,-171.78 606.64,-177.57"/>
<polygon fill="black" stroke="black" points="716.92,-130.47 723.44,-122.11 713.13,-124.58 716.92,-130.47"/>
<text text-anchor="middle" x="750.5" y="-144.8" font-family="Times,serif" font-size="14.00">विशेषणम्</text>
</g>
<!-- Node6_1 -->
<g id="node4" class="node">
<title>Node6_1</title>
<ellipse fill="#00bfff" stroke="#00bfff" cx="113" cy="-192" rx="96.68" ry="18"/>
<text text-anchor="middle" x="113" y="-188.3" font-family="Times,serif" font-size="14.00">सर्वाणि(6.1)</text>
</g>
<!-- Node7_1 -->
<g id="node5" class="node">
<title>Node7_1</title>
<ellipse fill="#00bfff" stroke="#00bfff" cx="113" cy="-279" rx="87.99" ry="18"/>
<text text-anchor="middle" x="113" y="-275.3" font-family="Times,serif" font-size="14.00">भूतानि(7.1)</text>
</g>
<!-- Node6_1&#45;&gt;Node7_1 -->
<g id="edge8" class="edge">
<title>Node6_1&#45;&gt;Node7_1</title>
<path fill="none" stroke="black" d="M113,-220.27C113,-233.58 113,-249.19 113,-260.82"/>
<polygon fill="black" stroke="black" points="116.5,-220.2 113,-210.2 109.5,-220.2 116.5,-220.2"/>
<text text-anchor="middle" x="170.5" y="-231.8" font-family="Times,serif" font-size="14.00">विशेषणम्</text>
</g>
<!-- Node10_1 -->
<g id="node11" class="node">
<title>Node10_1</title>
<ellipse fill="#ff1975" stroke="#ff1975" cx="314" cy="-366" rx="93.68" ry="18"/>
<text text-anchor="middle" x="314" y="-362.3" font-family="Times,serif" font-size="14.00">मेनिरे(10.1)</text>
</g>
<!-- Node7_1&#45;&gt;Node10_1 -->
<g id="edge9" class="edge">
<title>Node7_1&#45;&gt;Node10_1</title>
<path fill="none" stroke="black" d="M158.67,-299.31C194.54,-314.48 243.83,-335.33 277.19,-349.43"/>
<polygon fill="black" stroke="black" points="159.97,-296.06 149.4,-295.39 157.25,-302.51 159.97,-296.06"/>
<text text-anchor="middle" x="262" y="-318.8" font-family="Times,serif" font-size="14.00">कर्ता</text>
</g>
<!-- Node1_1 -->
<g id="node6" class="node">
<title>Node1_1</title>
<ellipse fill="#93db70" stroke="#93db70" cx="1112" cy="-18" rx="69.59" ry="18"/>
<text text-anchor="middle" x="1112" y="-14.3" font-family="Times,serif" font-size="14.00">दिशः(1.1)</text>
</g>
<!-- Node2_1 -->
<g id="node7" class="node">
<title>Node2_1</title>
<ellipse fill="#ffff00" stroke="#ffff00" cx="526" cy="-18" rx="72.29" ry="18"/>
<text text-anchor="middle" x="526" y="-14.3" font-family="Times,serif" font-size="14.00">सर्व&#45;(2.1)</text>
</g>
<!-- Node2_1&#45;&gt;Node2_2 -->
<g id="edge1" class="edge">
<title>Node2_1&#45;&gt;Node2_2</title>
<path fill="none" stroke="black" d="M526,-46.27C526,-59.58 526,-75.19 526,-86.82"/>
<polygon fill="black" stroke="black" points="529.5,-46.2 526,-36.2 522.5,-46.2 529.5,-46.2"/>
<text text-anchor="middle" x="590.5" y="-57.8" font-family="Times,serif" font-size="14.00">कर्मधारयः</text>
</g>
<!-- Node3_1 -->
<g id="node8" class="node">
<title>Node3_1</title>
<ellipse fill="#ffff00" stroke="#ffff00" cx="722" cy="-18" rx="81.49" ry="18"/>
<text text-anchor="middle" x="722" y="-14.3" font-family="Times,serif" font-size="14.00">वृक्ष&#45;(3.1)</text>
</g>
<!-- Node3_1&#45;&gt;Node3_3 -->
<g id="edge3" class="edge">
<title>Node3_1&#45;&gt;Node3_3</title>
<path fill="none" stroke="black" d="M719.71,-46.2C719.84,-53.73 720.69,-61.81 723,-69 725.07,-75.45 728.75,-81.79 732.62,-87.26"/>
<polygon fill="black" stroke="black" points="723.22,-46.14 719.95,-36.06 716.22,-45.98 723.22,-46.14"/>
<text text-anchor="middle" x="826.5" y="-57.8" font-family="Times,serif" font-size="14.00">षष्ठी_तत्पुरुषः</text>
</g>
<!-- Node3_2 -->
<g id="node9" class="node">
<title>Node3_2</title>
<ellipse fill="#ffff00" stroke="#ffff00" cx="952" cy="-18" rx="72.29" ry="18"/>
<text text-anchor="middle" x="952" y="-14.3" font-family="Times,serif" font-size="14.00">खण्ड&#45;(3.2)</text>
</g>
<!-- Node3_2&#45;&gt;Node3_3 -->
<g id="edge4" class="edge">
<title>Node3_2&#45;&gt;Node3_3</title>
<path fill="none" stroke="black" d="M945.49,-46.08C942.17,-54.57 937.25,-63.22 930,-69 911.85,-83.46 856.54,-92.71 811.44,-98.04"/>
<polygon fill="black" stroke="black" points="948.88,-46.96 948.68,-36.36 942.23,-44.77 948.88,-46.96"/>
<text text-anchor="middle" x="1066" y="-57.8" font-family="Times,serif" font-size="14.00">द्वितीया_तत्पुरुषः</text>
</g>
<!-- Node5_1&#45;&gt;Node10_1 -->
<g id="edge7" class="edge">
<title>Node5_1&#45;&gt;Node10_1</title>
<path fill="none" stroke="black" d="M506.43,-301.5C488.88,-311.18 467.3,-322.16 447,-330 423.73,-338.99 397.29,-346.48 374.15,-352.18"/>
<polygon fill="black" stroke="black" points="508.19,-304.53 515.21,-296.59 504.77,-298.42 508.19,-304.53"/>
<text text-anchor="middle" x="544.5" y="-318.8" font-family="Times,serif" font-size="14.00">पूर्वकालः</text>
</g>
<!-- Node8_1 -->
<g id="node12" class="node">
<title>Node8_1</title>
<ellipse fill="#00bfff" stroke="#00bfff" cx="314" cy="-279" rx="87.99" ry="18"/>
<text text-anchor="middle" x="314" y="-275.3" font-family="Times,serif" font-size="14.00">वसन्तः(8.1)</text>
</g>
<!-- Node8_1&#45;&gt;Node10_1 -->
<g id="edge10" class="edge">
<title>Node8_1&#45;&gt;Node10_1</title>
<path fill="none" stroke="black" d="M314,-307.27C314,-320.58 314,-336.19 314,-347.82"/>
<polygon fill="black" stroke="black" points="317.5,-307.2 314,-297.2 310.5,-307.2 317.5,-307.2"/>
<text text-anchor="middle" x="378.5" y="-318.8" font-family="Times,serif" font-size="14.00">वाक्यकर्म</text>
</g>
<!-- Node9_1 -->
<g id="node13" class="node">
<title>Node9_1</title>
<ellipse fill="#ff99ff" stroke="#ff99ff" cx="301" cy="-192" rx="59.59" ry="18"/>
<text text-anchor="middle" x="301" y="-188.3" font-family="Times,serif" font-size="14.00">इति(9.1)</text>
</g>
<!-- Node9_1&#45;&gt;Node8_1 -->
<g id="edge11" class="edge">
<title>Node9_1&#45;&gt;Node8_1</title>
<path fill="none" stroke="black" d="M300.02,-220.49C300.18,-227.84 300.72,-235.76 302,-243 303.05,-248.95 304.95,-255.24 306.93,-260.83"/>
<polygon fill="black" stroke="black" points="303.52,-220.26 300.04,-210.25 296.52,-220.25 303.52,-220.26"/>
<text text-anchor="middle" x="419.5" y="-231.8" font-family="Times,serif" font-size="14.00">वाक्यकर्म_द्योतकः</text>
</g>
</g>
</svg>
