<?xml version="1.0" encoding="UTF-8" standalone="no"?>
<!DOCTYPE svg PUBLIC "-//W3C//DTD SVG 1.1//EN"
 "http://www.w3.org/Graphics/SVG/1.1/DTD/svg11.dtd">
<!-- Generated by graphviz version 2.43.0 (0)
 -->
<!-- Title: G Pages: 1 -->
<svg width="1764pt" height="479pt"
 viewBox="0.00 0.00 1763.54 479.00" xmlns="http://www.w3.org/2000/svg" xmlns:xlink="http://www.w3.org/1999/xlink">
<g id="graph0" class="graph" transform="scale(1 1) rotate(0) translate(4 475)">
<title>G</title>
<polygon fill="#fffacd" stroke="transparent" points="-4,4 -4,-475 1759.54,-475 1759.54,4 -4,4"/>
<g id="clust1" class="cluster">
<title>cluster_1</title>
<polygon fill="#fffacd" stroke="black" points="1110.54,-253 1110.54,-392 1489.54,-392 1489.54,-253 1110.54,-253"/>
</g>
<g id="clust2" class="cluster">
<title>cluster_2</title>
<polygon fill="#fffacd" stroke="black" points="1062.54,-79 1062.54,-218 1340.54,-218 1340.54,-79 1062.54,-79"/>
</g>
<!-- Node5_2 -->
<g id="node1" class="node">
<title>Node5_2</title>
<ellipse fill="#00bfff" stroke="#00bfff" cx="1402.54" cy="-279" rx="78.79" ry="18"/>
<text text-anchor="middle" x="1402.54" y="-275.3" font-family="Times,serif" font-size="14.00">आत्मा(5.2)</text>
</g>
<!-- Node4_1 -->
<g id="node2" class="node">
<title>Node4_1</title>
<ellipse fill="#00bfff" stroke="#00bfff" cx="1216.54" cy="-366" rx="96.68" ry="18"/>
<text text-anchor="middle" x="1216.54" y="-362.3" font-family="Times,serif" font-size="14.00">हनुमान्(4.1)</text>
</g>
<!-- Node5_2&#45;&gt;Node4_1 -->
<g id="edge6" class="edge">
<title>Node5_2&#45;&gt;Node4_1</title>
<path fill="none" stroke="black" d="M1375.48,-302.87C1363.28,-312.3 1348.31,-322.71 1333.54,-330 1315.3,-339.02 1294.28,-346.19 1275.14,-351.64"/>
<polygon fill="black" stroke="black" points="1377.8,-305.5 1383.46,-296.55 1373.45,-300.02 1377.8,-305.5"/>
<text text-anchor="middle" x="1415.04" y="-318.8" font-family="Times,serif" font-size="14.00">विशेषणम्</text>
</g>
<!-- Node10_1 -->
<g id="node9" class="node">
<title>Node10_1</title>
<ellipse fill="#ff1975" stroke="#ff1975" cx="738.54" cy="-453" rx="84.49" ry="18"/>
<text text-anchor="middle" x="738.54" y="-449.3" font-family="Times,serif" font-size="14.00">ददर्श(10.1)</text>
</g>
<!-- Node4_1&#45;&gt;Node10_1 -->
<g id="edge4" class="edge">
<title>Node4_1&#45;&gt;Node10_1</title>
<path fill="none" stroke="black" d="M1163.18,-385.28C1129.98,-396 1086.2,-408.98 1046.54,-417 969.66,-432.55 880.49,-441.74 817.94,-446.77"/>
<polygon fill="black" stroke="black" points="1164.26,-388.61 1172.68,-382.18 1162.09,-381.95 1164.26,-388.61"/>
<text text-anchor="middle" x="1138.54" y="-405.8" font-family="Times,serif" font-size="14.00">कर्ता</text>
</g>
<!-- Node14_1 -->
<g id="node3" class="node">
<title>Node14_1</title>
<ellipse fill="#00bfff" stroke="#00bfff" cx="1212.54" cy="-279" rx="93.68" ry="18"/>
<text text-anchor="middle" x="1212.54" y="-275.3" font-family="Times,serif" font-size="14.00">निलीनः(14.1)</text>
</g>
<!-- Node14_1&#45;&gt;Node4_1 -->
<g id="edge18" class="edge">
<title>Node14_1&#45;&gt;Node4_1</title>
<path fill="none" stroke="black" d="M1213.83,-307.27C1214.45,-320.58 1215.19,-336.19 1215.74,-347.82"/>
<polygon fill="black" stroke="black" points="1217.32,-307.03 1213.35,-297.2 1210.33,-307.35 1217.32,-307.03"/>
<text text-anchor="middle" x="1272.04" y="-318.8" font-family="Times,serif" font-size="14.00">विशेषणम्</text>
</g>
<!-- Node13_2 -->
<g id="node4" class="node">
<title>Node13_2</title>
<ellipse fill="#c6e2eb" stroke="#c6e2eb" cx="1201.54" cy="-105" rx="65.79" ry="18"/>
<text text-anchor="middle" x="1201.54" y="-101.3" font-family="Times,serif" font-size="14.00">घने(13.2)</text>
</g>
<!-- Node12_1 -->
<g id="node5" class="node">
<title>Node12_1</title>
<ellipse fill="#c6e2eb" stroke="#c6e2eb" cx="1201.54" cy="-192" rx="130.78" ry="18"/>
<text text-anchor="middle" x="1201.54" y="-188.3" font-family="Times,serif" font-size="14.00">सुपुष्पिते(12.1)</text>
</g>
<!-- Node13_2&#45;&gt;Node12_1 -->
<g id="edge17" class="edge">
<title>Node13_2&#45;&gt;Node12_1</title>
<path fill="none" stroke="black" d="M1201.54,-133.27C1201.54,-146.58 1201.54,-162.19 1201.54,-173.82"/>
<polygon fill="black" stroke="black" points="1205.04,-133.2 1201.54,-123.2 1198.04,-133.2 1205.04,-133.2"/>
<text text-anchor="middle" x="1259.04" y="-144.8" font-family="Times,serif" font-size="14.00">विशेषणम्</text>
</g>
<!-- Node12_1&#45;&gt;Node14_1 -->
<g id="edge15" class="edge">
<title>Node12_1&#45;&gt;Node14_1</title>
<path fill="none" stroke="black" d="M1205.07,-220.27C1206.8,-233.58 1208.82,-249.19 1210.32,-260.82"/>
<polygon fill="black" stroke="black" points="1208.52,-219.67 1203.77,-210.2 1201.58,-220.57 1208.52,-219.67"/>
<text text-anchor="middle" x="1265.04" y="-231.8" font-family="Times,serif" font-size="14.00">अधिकरणम्</text>
</g>
<!-- Node1_1 -->
<g id="node6" class="node">
<title>Node1_1</title>
<ellipse fill="#ff99ff" stroke="#ff99ff" cx="69.54" cy="-279" rx="69.59" ry="18"/>
<text text-anchor="middle" x="69.54" y="-275.3" font-family="Times,serif" font-size="14.00">एवम्(1.1)</text>
</g>
<!-- Node3_1 -->
<g id="node7" class="node">
<title>Node3_1</title>
<ellipse fill="#ff99ff" stroke="#ff99ff" cx="143.54" cy="-366" rx="78.79" ry="18"/>
<text text-anchor="middle" x="143.54" y="-362.3" font-family="Times,serif" font-size="14.00">मत्वा(3.1)</text>
</g>
<!-- Node1_1&#45;&gt;Node3_1 -->
<g id="edge1" class="edge">
<title>Node1_1&#45;&gt;Node3_1</title>
<path fill="none" stroke="black" d="M64.93,-307.06C64.88,-314.98 66.23,-323.3 70.54,-330 76.63,-339.46 86.04,-346.42 96.1,-351.52"/>
<polygon fill="black" stroke="black" points="68.42,-307.27 65.65,-297.05 61.44,-306.76 68.42,-307.27"/>
<text text-anchor="middle" x="170.54" y="-318.8" font-family="Times,serif" font-size="14.00">क्रियाविशेषणम्</text>
</g>
<!-- Node3_1&#45;&gt;Node10_1 -->
<g id="edge3" class="edge">
<title>Node3_1&#45;&gt;Node10_1</title>
<path fill="none" stroke="black" d="M181.27,-387.44C202.95,-398.17 231.05,-410.43 257.54,-417 330.58,-435.11 538.19,-445.04 655.39,-449.35"/>
<polygon fill="black" stroke="black" points="182.6,-384.19 172.1,-382.8 179.44,-390.43 182.6,-384.19"/>
<text text-anchor="middle" x="322.04" y="-405.8" font-family="Times,serif" font-size="14.00">पूर्वकालः</text>
</g>
<!-- Node2_1 -->
<g id="node8" class="node">
<title>Node2_1</title>
<ellipse fill="#ff99ff" stroke="#ff99ff" cx="292.54" cy="-279" rx="50.89" ry="18"/>
<text text-anchor="middle" x="292.54" y="-275.3" font-family="Times,serif" font-size="14.00">तु(2.1)</text>
</g>
<!-- Node2_1&#45;&gt;Node3_1 -->
<g id="edge2" class="edge">
<title>Node2_1&#45;&gt;Node3_1</title>
<path fill="none" stroke="black" d="M285.76,-306.75C282.42,-315.22 277.56,-323.94 270.54,-330 259.9,-339.2 230.17,-347.64 202.14,-353.92"/>
<polygon fill="black" stroke="black" points="289.13,-307.69 289.01,-297.1 282.5,-305.46 289.13,-307.69"/>
<text text-anchor="middle" x="339.04" y="-318.8" font-family="Times,serif" font-size="14.00">सम्बन्धः</text>
</g>
<!-- Node5_1 -->
<g id="node10" class="node">
<title>Node5_1</title>
<ellipse fill="#ffff00" stroke="#ffff00" cx="1413.54" cy="-192" rx="63.09" ry="18"/>
<text text-anchor="middle" x="1413.54" y="-188.3" font-family="Times,serif" font-size="14.00">महा&#45;(5.1)</text>
</g>
<!-- Node5_1&#45;&gt;Node5_2 -->
<g id="edge5" class="edge">
<title>Node5_1&#45;&gt;Node5_2</title>
<path fill="none" stroke="black" d="M1410.02,-220.27C1408.29,-233.58 1406.27,-249.19 1404.77,-260.82"/>
<polygon fill="black" stroke="black" points="1413.51,-220.57 1411.32,-210.2 1406.56,-219.67 1413.51,-220.57"/>
<text text-anchor="middle" x="1480.04" y="-231.8" font-family="Times,serif" font-size="14.00">बहुव्रीहिः</text>
</g>
<!-- Node6_1 -->
<g id="node11" class="node">
<title>Node6_1</title>
<ellipse fill="#00bfff" stroke="#00bfff" cx="383.54" cy="-366" rx="143.77" ry="18"/>
<text text-anchor="middle" x="383.54" y="-362.3" font-family="Times,serif" font-size="14.00">प्रतीक्षमाणः(6.1)</text>
</g>
<!-- Node6_1&#45;&gt;Node10_1 -->
<g id="edge7" class="edge">
<title>Node6_1&#45;&gt;Node10_1</title>
<path fill="none" stroke="black" d="M386.86,-393.92C389.28,-402.55 393.43,-411.33 400.54,-417 420.18,-432.65 563.19,-442.97 656.79,-448.12"/>
<polygon fill="black" stroke="black" points="390.26,-393.09 384.74,-384.05 383.42,-394.56 390.26,-393.09"/>
<text text-anchor="middle" x="507.54" y="-405.8" font-family="Times,serif" font-size="14.00">वर्तमानसमानकालः</text>
</g>
<!-- Node7_1 -->
<g id="node12" class="node">
<title>Node7_1</title>
<ellipse fill="#ffff00" stroke="#ffff00" cx="1439.54" cy="-18" rx="72.29" ry="18"/>
<text text-anchor="middle" x="1439.54" y="-14.3" font-family="Times,serif" font-size="14.00">मनुज&#45;(7.1)</text>
</g>
<!-- Node7_2 -->
<g id="node13" class="node">
<title>Node7_2</title>
<ellipse fill="#ffff00" stroke="#ffff00" cx="1439.54" cy="-105" rx="90.98" ry="18"/>
<text text-anchor="middle" x="1439.54" y="-101.3" font-family="Times,serif" font-size="14.00">इन्द्र&#45;(7.2)</text>
</g>
<!-- Node7_1&#45;&gt;Node7_2 -->
<g id="edge8" class="edge">
<title>Node7_1&#45;&gt;Node7_2</title>
<path fill="none" stroke="black" d="M1439.54,-46.27C1439.54,-59.58 1439.54,-75.19 1439.54,-86.82"/>
<polygon fill="black" stroke="black" points="1443.04,-46.2 1439.54,-36.2 1436.04,-46.2 1443.04,-46.2"/>
<text text-anchor="middle" x="1543.04" y="-57.8" font-family="Times,serif" font-size="14.00">षष्ठी_तत्पुरुषः</text>
</g>
<!-- Node7_2&#45;&gt;Node7_2 -->
<g id="edge9" class="edge">
<title>Node7_2&#45;&gt;Node7_2</title>
<path fill="none" stroke="black" d="M1532.85,-98.51C1542.42,-99.79 1548.54,-101.95 1548.54,-105 1548.54,-109.02 1537.89,-111.5 1522.71,-112.44"/>
<polygon fill="black" stroke="black" points="1532.99,-95.01 1522.71,-97.56 1532.33,-101.98 1532.99,-95.01"/>
<text text-anchor="middle" x="1652.04" y="-101.3" font-family="Times,serif" font-size="14.00">षष्ठी_तत्पुरुषः</text>
</g>
<!-- Node7_3 -->
<g id="node14" class="node">
<title>Node7_3</title>
<ellipse fill="#93db70" stroke="#93db70" cx="523.54" cy="-279" rx="96.68" ry="18"/>
<text text-anchor="middle" x="523.54" y="-275.3" font-family="Times,serif" font-size="14.00">पत्नीम्(7.3)</text>
</g>
<!-- Node7_3&#45;&gt;Node6_1 -->
<g id="edge10" class="edge">
<title>Node7_3&#45;&gt;Node6_1</title>
<path fill="none" stroke="black" d="M487.83,-301.69C464.08,-316.1 433.35,-334.76 411.41,-348.08"/>
<polygon fill="black" stroke="black" points="489.82,-304.57 496.55,-296.39 486.19,-298.59 489.82,-304.57"/>
<text text-anchor="middle" x="491.54" y="-318.8" font-family="Times,serif" font-size="14.00">कर्म</text>
</g>
<!-- Node8_1 -->
<g id="node15" class="node">
<title>Node8_1</title>
<ellipse fill="#00bfff" stroke="#00bfff" cx="669.54" cy="-366" rx="124.58" ry="18"/>
<text text-anchor="middle" x="669.54" y="-362.3" font-family="Times,serif" font-size="14.00">अवेक्षमाणः(8.1)</text>
</g>
<!-- Node7_3&#45;&gt;Node8_1 -->
<g id="edge11" class="edge">
<title>Node7_3&#45;&gt;Node8_1</title>
<path fill="none" stroke="black" stroke-dasharray="1,5" d="M560.53,-301.53C585.5,-316.07 617.99,-334.99 640.98,-348.37"/>
<polygon fill="black" stroke="black" points="562.1,-298.4 551.69,-296.39 558.58,-304.44 562.1,-298.4"/>
<text text-anchor="middle" x="634.54" y="-318.8" font-family="Times,serif" font-size="14.00">कर्म</text>
</g>
<!-- Node8_1&#45;&gt;Node10_1 -->
<g id="edge12" class="edge">
<title>Node8_1&#45;&gt;Node10_1</title>
<path fill="none" stroke="black" d="M629.17,-389.86C619.87,-398.03 614.51,-407.56 621.54,-417 631.8,-430.77 647.28,-439.34 663.65,-444.6"/>
<polygon fill="black" stroke="black" points="631.5,-392.48 637.31,-383.63 627.24,-386.92 631.5,-392.48"/>
<text text-anchor="middle" x="728.54" y="-405.8" font-family="Times,serif" font-size="14.00">वर्तमानसमानकालः</text>
</g>
<!-- Node9_1 -->
<g id="node16" class="node">
<title>Node9_1</title>
<ellipse fill="#ff99ff" stroke="#ff99ff" cx="855.54" cy="-366" rx="41.69" ry="18"/>
<text text-anchor="middle" x="855.54" y="-362.3" font-family="Times,serif" font-size="14.00">च(9.1)</text>
</g>
<!-- Node9_1&#45;&gt;Node10_1 -->
<g id="edge13" class="edge">
<title>Node9_1&#45;&gt;Node10_1</title>
<path fill="none" stroke="black" d="M849.37,-394.06C846.36,-402.3 841.95,-410.81 835.54,-417 824.79,-427.39 810.74,-434.72 796.67,-439.89"/>
<polygon fill="black" stroke="black" points="852.77,-394.9 852.38,-384.31 846.08,-392.83 852.77,-394.9"/>
<text text-anchor="middle" x="904.04" y="-405.8" font-family="Times,serif" font-size="14.00">सम्बन्धः</text>
</g>
<!-- Node11_1 -->
<g id="node17" class="node">
<title>Node11_1</title>
<ellipse fill="#93db70" stroke="#93db70" cx="1008.54" cy="-366" rx="93.68" ry="18"/>
<text text-anchor="middle" x="1008.54" y="-362.3" font-family="Times,serif" font-size="14.00">सर्वम्(11.1)</text>
</g>
<!-- Node11_1&#45;&gt;Node10_1 -->
<g id="edge14" class="edge">
<title>Node11_1&#45;&gt;Node10_1</title>
<path fill="none" stroke="black" d="M992.41,-392.4C985.29,-401.59 976.12,-411.13 965.54,-417 940.4,-430.96 871.52,-440.3 816.17,-445.79"/>
<polygon fill="black" stroke="black" points="995.33,-394.34 998.36,-384.19 989.66,-390.24 995.33,-394.34"/>
<text text-anchor="middle" x="1013.54" y="-405.8" font-family="Times,serif" font-size="14.00">कर्म</text>
</g>
<!-- Node13_1 -->
<g id="node18" class="node">
<title>Node13_1</title>
<ellipse fill="#ffff00" stroke="#ffff00" cx="1201.54" cy="-18" rx="77.99" ry="18"/>
<text text-anchor="middle" x="1201.54" y="-14.3" font-family="Times,serif" font-size="14.00">पर्ण&#45;(13.1)</text>
</g>
<!-- Node13_1&#45;&gt;Node13_2 -->
<g id="edge16" class="edge">
<title>Node13_1&#45;&gt;Node13_2</title>
<path fill="none" stroke="black" d="M1201.54,-46.27C1201.54,-59.58 1201.54,-75.19 1201.54,-86.82"/>
<polygon fill="black" stroke="black" points="1205.04,-46.2 1201.54,-36.2 1198.04,-46.2 1205.04,-46.2"/>
<text text-anchor="middle" x="1273.04" y="-57.8" font-family="Times,serif" font-size="14.00">बहुव्रीहिः</text>
</g>
</g>
</svg>
