<?xml version="1.0" encoding="UTF-8" standalone="no"?>
<!DOCTYPE svg PUBLIC "-//W3C//DTD SVG 1.1//EN"
 "http://www.w3.org/Graphics/SVG/1.1/DTD/svg11.dtd">
<!-- Generated by graphviz version 2.43.0 (0)
 -->
<!-- Title: G Pages: 1 -->
<svg width="4687pt" height="392pt"
 viewBox="0.00 0.00 4687.00 392.00" xmlns="http://www.w3.org/2000/svg" xmlns:xlink="http://www.w3.org/1999/xlink">
<g id="graph0" class="graph" transform="scale(1 1) rotate(0) translate(4 388)">
<title>G</title>
<polygon fill="#fffacd" stroke="transparent" points="-4,4 -4,-388 4683,-388 4683,4 -4,4"/>
<g id="clust1" class="cluster">
<title>cluster_1</title>
<polygon fill="#fffacd" stroke="black" points="3515,-166 3515,-305 4094,-305 4094,-166 3515,-166"/>
</g>
<g id="clust2" class="cluster">
<title>cluster_2</title>
<polygon fill="#fffacd" stroke="black" points="8,-166 8,-305 2926,-305 2926,-166 8,-166"/>
</g>
<g id="clust3" class="cluster">
<title>cluster_3</title>
<polygon fill="#fffacd" stroke="black" points="17,-79 17,-131 239,-131 239,-79 17,-79"/>
</g>
<g id="clust4" class="cluster">
<title>cluster_4</title>
<polygon fill="#fffacd" stroke="black" points="3303,-79 3303,-218 3507,-218 3507,-79 3303,-79"/>
</g>
<!-- Node1_1 -->
<g id="node1" class="node">
<title>Node1_1</title>
<ellipse fill="#00bfff" stroke="#00bfff" cx="4035" cy="-192" rx="50.89" ry="18"/>
<text text-anchor="middle" x="4035" y="-188.3" font-family="Times,serif" font-size="14.00">सः(1.1)</text>
</g>
<!-- Node5_2 -->
<g id="node2" class="node">
<title>Node5_2</title>
<ellipse fill="#00bfff" stroke="#00bfff" cx="3731" cy="-279" rx="69.59" ry="18"/>
<text text-anchor="middle" x="3731" y="-275.3" font-family="Times,serif" font-size="14.00">कपिः(5.2)</text>
</g>
<!-- Node1_1&#45;&gt;Node5_2 -->
<g id="edge1" class="edge">
<title>Node1_1&#45;&gt;Node5_2</title>
<path fill="none" stroke="black" d="M4003.63,-213.46C3986.38,-223.82 3964.23,-235.71 3943,-243 3895.55,-259.29 3839.44,-268.13 3796.86,-272.84"/>
<polygon fill="black" stroke="black" points="4005.48,-216.44 4012.17,-208.22 4001.82,-210.47 4005.48,-216.44"/>
<text text-anchor="middle" x="4034.5" y="-231.8" font-family="Times,serif" font-size="14.00">विशेषणम्</text>
</g>
<!-- Node8_1 -->
<g id="node22" class="node">
<title>Node8_1</title>
<ellipse fill="#ff1975" stroke="#ff1975" cx="3213" cy="-366" rx="78.79" ry="18"/>
<text text-anchor="middle" x="3213" y="-362.3" font-family="Times,serif" font-size="14.00">ददर्श(8.1)</text>
</g>
<!-- Node5_2&#45;&gt;Node8_1 -->
<g id="edge8" class="edge">
<title>Node5_2&#45;&gt;Node8_1</title>
<path fill="none" stroke="black" d="M3678.81,-296.2C3641.35,-307.26 3589.49,-321.41 3543,-330 3456.18,-346.05 3355.05,-355.43 3287.85,-360.37"/>
<polygon fill="black" stroke="black" points="3679.91,-299.53 3688.49,-293.32 3677.91,-292.82 3679.91,-299.53"/>
<text text-anchor="middle" x="3641" y="-318.8" font-family="Times,serif" font-size="14.00">कर्ता</text>
</g>
<!-- Node3_3 -->
<g id="node3" class="node">
<title>Node3_3</title>
<ellipse fill="#00bfff" stroke="#00bfff" cx="3888" cy="-192" rx="78.79" ry="18"/>
<text text-anchor="middle" x="3888" y="-188.3" font-family="Times,serif" font-size="14.00">अङ्गः(3.3)</text>
</g>
<!-- Node3_3&#45;&gt;Node5_2 -->
<g id="edge5" class="edge">
<title>Node3_3&#45;&gt;Node5_2</title>
<path fill="none" stroke="black" d="M3850.6,-213.71C3834.19,-222.76 3814.67,-233.46 3797,-243 3785.02,-249.47 3771.76,-256.52 3760.29,-262.59"/>
<polygon fill="black" stroke="black" points="3852.31,-216.77 3859.37,-208.87 3848.92,-210.64 3852.31,-216.77"/>
<text text-anchor="middle" x="3881.5" y="-231.8" font-family="Times,serif" font-size="14.00">विशेषणम्</text>
</g>
<!-- Node4_1 -->
<g id="node4" class="node">
<title>Node4_1</title>
<ellipse fill="#00bfff" stroke="#00bfff" cx="3657" cy="-192" rx="133.78" ry="18"/>
<text text-anchor="middle" x="3657" y="-188.3" font-family="Times,serif" font-size="14.00">प्राकारस्थः(4.1)</text>
</g>
<!-- Node4_1&#45;&gt;Node5_2 -->
<g id="edge6" class="edge">
<title>Node4_1&#45;&gt;Node5_2</title>
<path fill="none" stroke="black" d="M3667.44,-219.8C3671.29,-227.77 3676.17,-236.18 3682,-243 3688.25,-250.31 3696.33,-256.89 3704.13,-262.31"/>
<polygon fill="black" stroke="black" points="3670.53,-218.14 3663.25,-210.44 3664.14,-221 3670.53,-218.14"/>
<text text-anchor="middle" x="3739.5" y="-231.8" font-family="Times,serif" font-size="14.00">विशेषणम्</text>
</g>
<!-- Node6_2 -->
<g id="node5" class="node">
<title>Node6_2</title>
<ellipse fill="#93db70" stroke="#93db70" cx="355" cy="-192" rx="96.68" ry="18"/>
<text text-anchor="middle" x="355" y="-188.3" font-family="Times,serif" font-size="14.00">अग्रान्(6.2)</text>
</g>
<!-- Node10_1 -->
<g id="node6" class="node">
<title>Node10_1</title>
<ellipse fill="#93db70" stroke="#93db70" cx="1767" cy="-279" rx="112.38" ry="18"/>
<text text-anchor="middle" x="1767" y="-275.3" font-family="Times,serif" font-size="14.00">द्रुमान्(10.1)</text>
</g>
<!-- Node6_2&#45;&gt;Node10_1 -->
<g id="edge10" class="edge">
<title>Node6_2&#45;&gt;Node10_1</title>
<path fill="none" stroke="black" d="M419.36,-209.19C433.05,-212.35 447.47,-215.46 461,-218 539.95,-232.79 559.96,-236.19 640,-243 1010.35,-274.52 1451.31,-278.54 1654.39,-278.51"/>
<polygon fill="black" stroke="black" points="420.07,-205.76 409.54,-206.89 418.47,-212.57 420.07,-205.76"/>
<text text-anchor="middle" x="704.5" y="-231.8" font-family="Times,serif" font-size="14.00">समुच्चितः</text>
</g>
<!-- Node10_1&#45;&gt;Node8_1 -->
<g id="edge14" class="edge">
<title>Node10_1&#45;&gt;Node8_1</title>
<path fill="none" stroke="black" d="M1880.74,-286.69C2165,-303.4 2900.56,-346.63 3137.94,-360.59"/>
<polygon fill="black" stroke="black" points="1880.6,-283.17 1870.41,-286.08 1880.19,-290.16 1880.6,-283.17"/>
<text text-anchor="middle" x="2605" y="-318.8" font-family="Times,serif" font-size="14.00">कर्म</text>
</g>
<!-- Node9_1 -->
<g id="node7" class="node">
<title>Node9_1</title>
<ellipse fill="#93db70" stroke="#93db70" cx="2532" cy="-192" rx="106.68" ry="18"/>
<text text-anchor="middle" x="2532" y="-188.3" font-family="Times,serif" font-size="14.00">विविधान्(9.1)</text>
</g>
<!-- Node9_1&#45;&gt;Node10_1 -->
<g id="edge13" class="edge">
<title>Node9_1&#45;&gt;Node10_1</title>
<path fill="none" stroke="black" d="M2473.05,-210.76C2433.52,-221.92 2380.1,-235.56 2332,-243 2175.99,-267.12 1993.33,-274.75 1878.87,-277.09"/>
<polygon fill="black" stroke="black" points="2474.13,-214.09 2482.79,-207.98 2472.21,-207.36 2474.13,-214.09"/>
<text text-anchor="middle" x="2461.5" y="-231.8" font-family="Times,serif" font-size="14.00">विशेषणम्</text>
</g>
<!-- Node11_1 -->
<g id="node8" class="node">
<title>Node11_1</title>
<ellipse fill="#93db70" stroke="#93db70" cx="2314" cy="-192" rx="93.68" ry="18"/>
<text text-anchor="middle" x="2314" y="-188.3" font-family="Times,serif" font-size="14.00">सालान्(11.1)</text>
</g>
<!-- Node11_1&#45;&gt;Node10_1 -->
<g id="edge15" class="edge">
<title>Node11_1&#45;&gt;Node10_1</title>
<path fill="none" stroke="black" d="M2259.37,-210.88C2223.99,-221.78 2176.71,-235.1 2134,-243 2046.83,-259.13 1946.56,-268.05 1872.88,-272.84"/>
<polygon fill="black" stroke="black" points="2260.51,-214.19 2269.02,-207.87 2258.43,-207.5 2260.51,-214.19"/>
<text text-anchor="middle" x="2263.5" y="-231.8" font-family="Times,serif" font-size="14.00">समुच्चितः</text>
</g>
<!-- Node12_1 -->
<g id="node9" class="node">
<title>Node12_1</title>
<ellipse fill="#93db70" stroke="#93db70" cx="2100" cy="-192" rx="102.88" ry="18"/>
<text text-anchor="middle" x="2100" y="-188.3" font-family="Times,serif" font-size="14.00">अशोकान्(12.1)</text>
</g>
<!-- Node12_1&#45;&gt;Node10_1 -->
<g id="edge16" class="edge">
<title>Node12_1&#45;&gt;Node10_1</title>
<path fill="none" stroke="black" d="M2049.32,-212.07C2020.98,-222.24 1984.85,-234.39 1952,-243 1917.06,-252.16 1877.82,-259.93 1844.49,-265.81"/>
<polygon fill="black" stroke="black" points="2050.79,-215.26 2059,-208.56 2048.41,-208.68 2050.79,-215.26"/>
<text text-anchor="middle" x="2065.5" y="-231.8" font-family="Times,serif" font-size="14.00">समुच्चितः</text>
</g>
<!-- Node15_1 -->
<g id="node10" class="node">
<title>Node15_1</title>
<ellipse fill="#93db70" stroke="#93db70" cx="128" cy="-192" rx="112.38" ry="18"/>
<text text-anchor="middle" x="128" y="-188.3" font-family="Times,serif" font-size="14.00">चम्पकान्(15.1)</text>
</g>
<!-- Node15_1&#45;&gt;Node10_1 -->
<g id="edge19" class="edge">
<title>Node15_1&#45;&gt;Node10_1</title>
<path fill="none" stroke="black" d="M196.24,-209.75C247.53,-221.51 319.71,-236.28 384,-243 629.3,-268.65 1371.11,-275.67 1654.92,-277.44"/>
<polygon fill="black" stroke="black" points="196.8,-206.29 186.27,-207.45 195.23,-213.11 196.8,-206.29"/>
<text text-anchor="middle" x="448.5" y="-231.8" font-family="Times,serif" font-size="14.00">समुच्चितः</text>
</g>
<!-- Node17_1 -->
<g id="node11" class="node">
<title>Node17_1</title>
<ellipse fill="#93db70" stroke="#93db70" cx="1551" cy="-192" rx="149.47" ry="18"/>
<text text-anchor="middle" x="1551" y="-188.3" font-family="Times,serif" font-size="14.00">सुपुष्पितान्(17.1)</text>
</g>
<!-- Node17_1&#45;&gt;Node10_1 -->
<g id="edge21" class="edge">
<title>Node17_1&#45;&gt;Node10_1</title>
<path fill="none" stroke="black" d="M1615.8,-211.84C1630.5,-216.66 1645.92,-222.15 1660,-228 1673.4,-233.57 1675.93,-236.69 1689,-243 1702.23,-249.39 1716.9,-256.07 1729.91,-261.86"/>
<polygon fill="black" stroke="black" points="1616.85,-208.51 1606.26,-208.78 1614.71,-215.17 1616.85,-208.51"/>
<text text-anchor="middle" x="1753.5" y="-231.8" font-family="Times,serif" font-size="14.00">समुच्चितः</text>
</g>
<!-- Node18_1 -->
<g id="node12" class="node">
<title>Node18_1</title>
<ellipse fill="#93db70" stroke="#93db70" cx="1253" cy="-192" rx="130.78" ry="18"/>
<text text-anchor="middle" x="1253" y="-188.3" font-family="Times,serif" font-size="14.00">उद्दालकान्(18.1)</text>
</g>
<!-- Node18_1&#45;&gt;Node10_1 -->
<g id="edge22" class="edge">
<title>Node18_1&#45;&gt;Node10_1</title>
<path fill="none" stroke="black" d="M1335.86,-208.8C1354.61,-212.09 1374.46,-215.36 1393,-218 1434.59,-223.92 1446.12,-218.32 1487,-228 1505.48,-232.37 1508.61,-238.27 1527,-243 1574.51,-255.22 1628.48,-263.57 1673.19,-269.04"/>
<polygon fill="black" stroke="black" points="1336.33,-205.32 1325.87,-207.02 1335.1,-212.22 1336.33,-205.32"/>
<text text-anchor="middle" x="1591.5" y="-231.8" font-family="Times,serif" font-size="14.00">समुच्चितः</text>
</g>
<!-- Node19_2 -->
<g id="node13" class="node">
<title>Node19_2</title>
<ellipse fill="#93db70" stroke="#93db70" cx="582" cy="-192" rx="112.38" ry="18"/>
<text text-anchor="middle" x="582" y="-188.3" font-family="Times,serif" font-size="14.00">वृक्षान्(19.2)</text>
</g>
<!-- Node19_2&#45;&gt;Node10_1 -->
<g id="edge24" class="edge">
<title>Node19_2&#45;&gt;Node10_1</title>
<path fill="none" stroke="black" d="M654.14,-209.04C670.17,-212.29 687.12,-215.48 703,-218 801.93,-233.71 827.12,-235.35 927,-243 1187.87,-262.97 1495.25,-272.13 1656.11,-275.83"/>
<polygon fill="black" stroke="black" points="654.79,-205.6 644.29,-207.02 653.38,-212.46 654.79,-205.6"/>
<text text-anchor="middle" x="991.5" y="-231.8" font-family="Times,serif" font-size="14.00">समुच्चितः</text>
</g>
<!-- Node20_1 -->
<g id="node14" class="node">
<title>Node20_1</title>
<ellipse fill="#93db70" stroke="#93db70" cx="806" cy="-192" rx="93.68" ry="18"/>
<text text-anchor="middle" x="806" y="-188.3" font-family="Times,serif" font-size="14.00">चूतान्(20.1)</text>
</g>
<!-- Node20_1&#45;&gt;Node10_1 -->
<g id="edge25" class="edge">
<title>Node20_1&#45;&gt;Node10_1</title>
<path fill="none" stroke="black" d="M866.25,-209.61C879.89,-212.86 894.37,-215.9 908,-218 974.91,-228.32 992.68,-220.8 1060,-228 1105.12,-232.83 1115.86,-238.35 1161,-243 1334.23,-260.83 1536.33,-270.22 1657.84,-274.65"/>
<polygon fill="black" stroke="black" points="867.04,-206.2 856.49,-207.22 865.38,-213 867.04,-206.2"/>
<text text-anchor="middle" x="1225.5" y="-231.8" font-family="Times,serif" font-size="14.00">समुच्चितः</text>
</g>
<!-- Node21_2 -->
<g id="node15" class="node">
<title>Node21_2</title>
<ellipse fill="#93db70" stroke="#93db70" cx="1011" cy="-192" rx="93.68" ry="18"/>
<text text-anchor="middle" x="1011" y="-188.3" font-family="Times,serif" font-size="14.00">मुखान्(21.2)</text>
</g>
<!-- Node21_2&#45;&gt;Node10_1 -->
<g id="edge27" class="edge">
<title>Node21_2&#45;&gt;Node10_1</title>
<path fill="none" stroke="black" d="M1071.02,-209.67C1084.72,-212.92 1099.29,-215.96 1113,-218 1192.69,-229.86 1214.34,-215.95 1294,-228 1321.18,-232.11 1326.88,-238.49 1354,-243 1456.93,-260.11 1575.75,-269.07 1659.45,-273.62"/>
<polygon fill="black" stroke="black" points="1071.76,-206.25 1061.22,-207.27 1070.1,-213.04 1071.76,-206.25"/>
<text text-anchor="middle" x="1418.5" y="-231.8" font-family="Times,serif" font-size="14.00">समुच्चितः</text>
</g>
<!-- Node24_3 -->
<g id="node16" class="node">
<title>Node24_3</title>
<ellipse fill="#93db70" stroke="#93db70" cx="1849" cy="-192" rx="130.78" ry="18"/>
<text text-anchor="middle" x="1849" y="-188.3" font-family="Times,serif" font-size="14.00">सम्पन्नान्(24.3)</text>
</g>
<!-- Node24_3&#45;&gt;Node10_1 -->
<g id="edge32" class="edge">
<title>Node24_3&#45;&gt;Node10_1</title>
<path fill="none" stroke="black" d="M1837.96,-219.35C1833.74,-227.51 1828.38,-236.15 1822,-243 1815.37,-250.12 1806.99,-256.41 1798.78,-261.62"/>
<polygon fill="black" stroke="black" points="1841.21,-220.65 1842.38,-210.12 1834.9,-217.62 1841.21,-220.65"/>
<text text-anchor="middle" x="1890.5" y="-231.8" font-family="Times,serif" font-size="14.00">विशेषणम्</text>
</g>
<!-- Node25_3 -->
<g id="node17" class="node">
<title>Node25_3</title>
<ellipse fill="#93db70" stroke="#93db70" cx="2787" cy="-192" rx="130.78" ry="18"/>
<text text-anchor="middle" x="2787" y="-188.3" font-family="Times,serif" font-size="14.00">समन्वितान्(25.3)</text>
</g>
<!-- Node25_3&#45;&gt;Node10_1 -->
<g id="edge35" class="edge">
<title>Node25_3&#45;&gt;Node10_1</title>
<path fill="none" stroke="black" d="M2713.17,-209.87C2660.47,-221.21 2587.74,-235.41 2523,-243 2295.61,-269.66 2027.51,-276.24 1879.48,-277.73"/>
<polygon fill="black" stroke="black" points="2714.07,-213.26 2723.1,-207.72 2712.59,-206.42 2714.07,-213.26"/>
<text text-anchor="middle" x="2674.5" y="-231.8" font-family="Times,serif" font-size="14.00">विशेषणम्</text>
</g>
<!-- Node13_1 -->
<g id="node18" class="node">
<title>Node13_1</title>
<ellipse fill="#93db70" stroke="#93db70" cx="128" cy="-105" rx="102.88" ry="18"/>
<text text-anchor="middle" x="128" y="-101.3" font-family="Times,serif" font-size="14.00">भव्यान्(13.1)</text>
</g>
<!-- Node13_1&#45;&gt;Node15_1 -->
<g id="edge17" class="edge">
<title>Node13_1&#45;&gt;Node15_1</title>
<path fill="none" stroke="black" d="M128,-133.27C128,-146.58 128,-162.19 128,-173.82"/>
<polygon fill="black" stroke="black" points="131.5,-133.2 128,-123.2 124.5,-133.2 131.5,-133.2"/>
<text text-anchor="middle" x="185.5" y="-144.8" font-family="Times,serif" font-size="14.00">विशेषणम्</text>
</g>
<!-- Node26_2 -->
<g id="node19" class="node">
<title>Node26_2</title>
<ellipse fill="#ff99ff" stroke="#ff99ff" cx="3405" cy="-105" rx="93.68" ry="18"/>
<text text-anchor="middle" x="3405" y="-101.3" font-family="Times,serif" font-size="14.00">मुक्तः(26.2)</text>
</g>
<!-- Node28_1 -->
<g id="node20" class="node">
<title>Node28_1</title>
<ellipse fill="#00bfff" stroke="#00bfff" cx="3405" cy="-192" rx="93.68" ry="18"/>
<text text-anchor="middle" x="3405" y="-188.3" font-family="Times,serif" font-size="14.00">नाराचः(28.1)</text>
</g>
<!-- Node26_2&#45;&gt;Node28_1 -->
<g id="edge37" class="edge">
<title>Node26_2&#45;&gt;Node28_1</title>
<path fill="none" stroke="black" d="M3405,-133.27C3405,-146.58 3405,-162.19 3405,-173.82"/>
<polygon fill="black" stroke="black" points="3408.5,-133.2 3405,-123.2 3401.5,-133.2 3408.5,-133.2"/>
<text text-anchor="middle" x="3462.5" y="-144.8" font-family="Times,serif" font-size="14.00">विशेषणम्</text>
</g>
<!-- Node28_1&#45;&gt;Node5_2 -->
<g id="edge39" class="edge">
<title>Node28_1&#45;&gt;Node5_2</title>
<path fill="none" stroke="black" d="M3459.57,-211.03C3491.07,-221.11 3531.55,-233.52 3568,-243 3603.99,-252.37 3644.92,-261.15 3676.76,-267.57"/>
<polygon fill="black" stroke="black" points="3460.27,-207.57 3449.67,-207.84 3458.12,-214.24 3460.27,-207.57"/>
<text text-anchor="middle" x="3618" y="-231.8" font-family="Times,serif" font-size="14.00">उपमानम्</text>
</g>
<!-- Node2_1 -->
<g id="node21" class="node">
<title>Node2_1</title>
<ellipse fill="#ff99ff" stroke="#ff99ff" cx="2985" cy="-279" rx="50.89" ry="18"/>
<text text-anchor="middle" x="2985" y="-275.3" font-family="Times,serif" font-size="14.00">तु(2.1)</text>
</g>
<!-- Node2_1&#45;&gt;Node8_1 -->
<g id="edge2" class="edge">
<title>Node2_1&#45;&gt;Node8_1</title>
<path fill="none" stroke="black" d="M2988.7,-307.33C2991.16,-315.73 2995.24,-324.26 3002,-330 3022.24,-347.18 3085.71,-356.09 3137.79,-360.6"/>
<polygon fill="black" stroke="black" points="2992.06,-306.32 2986.44,-297.34 2985.24,-307.87 2992.06,-306.32"/>
<text text-anchor="middle" x="3059.5" y="-318.8" font-family="Times,serif" font-size="14.00">सम्बन्धः</text>
</g>
<!-- Node3_1 -->
<g id="node23" class="node">
<title>Node3_1</title>
<ellipse fill="#ffff00" stroke="#ffff00" cx="3796" cy="-105" rx="100.18" ry="18"/>
<text text-anchor="middle" x="3796" y="-101.3" font-family="Times,serif" font-size="14.00">संहृष्ट&#45;(3.1)</text>
</g>
<!-- Node3_1&#45;&gt;Node3_3 -->
<g id="edge3" class="edge">
<title>Node3_1&#45;&gt;Node3_3</title>
<path fill="none" stroke="black" d="M3805.58,-132.68C3809.44,-140.86 3814.55,-149.43 3821,-156 3829.09,-164.24 3839.54,-170.95 3849.76,-176.21"/>
<polygon fill="black" stroke="black" points="3808.75,-131.21 3801.6,-123.4 3802.32,-133.97 3808.75,-131.21"/>
<text text-anchor="middle" x="3892.5" y="-144.8" font-family="Times,serif" font-size="14.00">बहुव्रीहिः</text>
</g>
<!-- Node3_2 -->
<g id="node24" class="node">
<title>Node3_2</title>
<ellipse fill="#ffff00" stroke="#ffff00" cx="3986" cy="-105" rx="72.29" ry="18"/>
<text text-anchor="middle" x="3986" y="-101.3" font-family="Times,serif" font-size="14.00">सर्व&#45;(3.2)</text>
</g>
<!-- Node3_2&#45;&gt;Node3_3 -->
<g id="edge4" class="edge">
<title>Node3_2&#45;&gt;Node3_3</title>
<path fill="none" stroke="black" d="M3978.47,-132.49C3975.1,-140.8 3970.4,-149.49 3964,-156 3955.24,-164.91 3943.79,-171.78 3932.45,-176.98"/>
<polygon fill="black" stroke="black" points="3981.77,-133.66 3981.84,-123.07 3975.18,-131.31 3981.77,-133.66"/>
<text text-anchor="middle" x="4038.5" y="-144.8" font-family="Times,serif" font-size="14.00">कर्मधारयः</text>
</g>
<!-- Node5_1 -->
<g id="node25" class="node">
<title>Node5_1</title>
<ellipse fill="#ffff00" stroke="#ffff00" cx="4167" cy="-192" rx="63.09" ry="18"/>
<text text-anchor="middle" x="4167" y="-188.3" font-family="Times,serif" font-size="14.00">महा&#45;(5.1)</text>
</g>
<!-- Node5_1&#45;&gt;Node5_2 -->
<g id="edge7" class="edge">
<title>Node5_1&#45;&gt;Node5_2</title>
<path fill="none" stroke="black" d="M4141.4,-215.93C4128.65,-226 4112.47,-236.9 4096,-243 4043.32,-262.5 3889.78,-271.75 3799.5,-275.61"/>
<polygon fill="black" stroke="black" points="4143.73,-218.54 4149.24,-209.49 4139.29,-213.13 4143.73,-218.54"/>
<text text-anchor="middle" x="4187.5" y="-231.8" font-family="Times,serif" font-size="14.00">कर्मधारयः</text>
</g>
<!-- Node6_1 -->
<g id="node26" class="node">
<title>Node6_1</title>
<ellipse fill="#ffff00" stroke="#ffff00" cx="355" cy="-105" rx="100.18" ry="18"/>
<text text-anchor="middle" x="355" y="-101.3" font-family="Times,serif" font-size="14.00">पुष्पित&#45;(6.1)</text>
</g>
<!-- Node6_1&#45;&gt;Node6_2 -->
<g id="edge9" class="edge">
<title>Node6_1&#45;&gt;Node6_2</title>
<path fill="none" stroke="black" d="M355,-133.27C355,-146.58 355,-162.19 355,-173.82"/>
<polygon fill="black" stroke="black" points="358.5,-133.2 355,-123.2 351.5,-133.2 358.5,-133.2"/>
<text text-anchor="middle" x="426.5" y="-144.8" font-family="Times,serif" font-size="14.00">बहुव्रीहिः</text>
</g>
<!-- Node7_1 -->
<g id="node27" class="node">
<title>Node7_1</title>
<ellipse fill="#ffff00" stroke="#ffff00" cx="3181" cy="-192" rx="81.49" ry="18"/>
<text text-anchor="middle" x="3181" y="-188.3" font-family="Times,serif" font-size="14.00">वसन्त&#45;(7.1)</text>
</g>
<!-- Node7_2 -->
<g id="node28" class="node">
<title>Node7_2</title>
<ellipse fill="#c6e2eb" stroke="#c6e2eb" cx="3150" cy="-279" rx="59.59" ry="18"/>
<text text-anchor="middle" x="3150" y="-275.3" font-family="Times,serif" font-size="14.00">आदौ(7.2)</text>
</g>
<!-- Node7_1&#45;&gt;Node7_2 -->
<g id="edge11" class="edge">
<title>Node7_1&#45;&gt;Node7_2</title>
<path fill="none" stroke="black" d="M3171.2,-219.87C3166.31,-233.27 3160.55,-249.08 3156.26,-260.82"/>
<polygon fill="black" stroke="black" points="3174.59,-220.79 3174.73,-210.2 3168.01,-218.4 3174.59,-220.79"/>
<text text-anchor="middle" x="3238.5" y="-231.8" font-family="Times,serif" font-size="14.00">बहुव्रीहिः</text>
</g>
<!-- Node7_2&#45;&gt;Node8_1 -->
<g id="edge12" class="edge">
<title>Node7_2&#45;&gt;Node8_1</title>
<path fill="none" stroke="black" d="M3126.34,-304.58C3121.14,-312.9 3118.6,-322.08 3124,-330 3131.48,-340.98 3142.97,-348.51 3155.25,-353.68"/>
<polygon fill="black" stroke="black" points="3129.33,-306.43 3132.49,-296.32 3123.71,-302.25 3129.33,-306.43"/>
<text text-anchor="middle" x="3202.5" y="-318.8" font-family="Times,serif" font-size="14.00">कालाधिकरणम्</text>
</g>
<!-- Node14_1 -->
<g id="node29" class="node">
<title>Node14_1</title>
<ellipse fill="#ff99ff" stroke="#ff99ff" cx="2983" cy="-192" rx="47.39" ry="18"/>
<text text-anchor="middle" x="2983" y="-188.3" font-family="Times,serif" font-size="14.00">च(14.1)</text>
</g>
<!-- Node14_1&#45;&gt;Node10_1 -->
<g id="edge18" class="edge">
<title>Node14_1&#45;&gt;Node10_1</title>
<path fill="none" stroke="black" d="M2947.74,-211.48C2941.93,-213.99 2935.88,-216.28 2930,-218 2846.56,-242.4 2822.64,-235.87 2736,-243 2426.46,-268.48 2059.78,-275.41 1879.1,-277.3"/>
<polygon fill="black" stroke="black" points="2949.58,-214.49 2957.22,-207.14 2946.67,-208.12 2949.58,-214.49"/>
<text text-anchor="middle" x="2993.5" y="-231.8" font-family="Times,serif" font-size="14.00">समुच्चय_द्योतकः</text>
</g>
<!-- Node16_1 -->
<g id="node30" class="node">
<title>Node16_1</title>
<ellipse fill="#ff99ff" stroke="#ff99ff" cx="3303" cy="-279" rx="47.39" ry="18"/>
<text text-anchor="middle" x="3303" y="-275.3" font-family="Times,serif" font-size="14.00">च(16.1)</text>
</g>
<!-- Node16_1&#45;&gt;Node8_1 -->
<g id="edge20" class="edge">
<title>Node16_1&#45;&gt;Node8_1</title>
<path fill="none" stroke="black" d="M3295.19,-306.6C3291.82,-314.81 3287.19,-323.42 3281,-330 3273.08,-338.41 3262.69,-345.15 3252.43,-350.38"/>
<polygon fill="black" stroke="black" points="3298.58,-307.53 3298.71,-296.94 3292,-305.14 3298.58,-307.53"/>
<text text-anchor="middle" x="3348.5" y="-318.8" font-family="Times,serif" font-size="14.00">सम्बन्धः</text>
</g>
<!-- Node19_1 -->
<g id="node31" class="node">
<title>Node19_1</title>
<ellipse fill="#ffff00" stroke="#ffff00" cx="582" cy="-105" rx="68.79" ry="18"/>
<text text-anchor="middle" x="582" y="-101.3" font-family="Times,serif" font-size="14.00">नाग&#45;(19.1)</text>
</g>
<!-- Node19_1&#45;&gt;Node19_2 -->
<g id="edge23" class="edge">
<title>Node19_1&#45;&gt;Node19_2</title>
<path fill="none" stroke="black" d="M582,-133.27C582,-146.58 582,-162.19 582,-173.82"/>
<polygon fill="black" stroke="black" points="585.5,-133.2 582,-123.2 578.5,-133.2 585.5,-133.2"/>
<text text-anchor="middle" x="685.5" y="-144.8" font-family="Times,serif" font-size="14.00">षष्ठी_तत्पुरुषः</text>
</g>
<!-- Node21_1 -->
<g id="node32" class="node">
<title>Node21_1</title>
<ellipse fill="#ffff00" stroke="#ffff00" cx="1011" cy="-105" rx="68.79" ry="18"/>
<text text-anchor="middle" x="1011" y="-101.3" font-family="Times,serif" font-size="14.00">कपि&#45;(21.1)</text>
</g>
<!-- Node21_1&#45;&gt;Node21_2 -->
<g id="edge26" class="edge">
<title>Node21_1&#45;&gt;Node21_2</title>
<path fill="none" stroke="black" d="M1011,-133.27C1011,-146.58 1011,-162.19 1011,-173.82"/>
<polygon fill="black" stroke="black" points="1014.5,-133.2 1011,-123.2 1007.5,-133.2 1014.5,-133.2"/>
<text text-anchor="middle" x="1114.5" y="-144.8" font-family="Times,serif" font-size="14.00">षष्ठी_तत्पुरुषः</text>
</g>
<!-- Node22_1 -->
<g id="node33" class="node">
<title>Node22_1</title>
<ellipse fill="#ff99ff" stroke="#ff99ff" cx="3441" cy="-279" rx="65.79" ry="18"/>
<text text-anchor="middle" x="3441" y="-275.3" font-family="Times,serif" font-size="14.00">अपि(22.1)</text>
</g>
<!-- Node22_1&#45;&gt;Node8_1 -->
<g id="edge28" class="edge">
<title>Node22_1&#45;&gt;Node8_1</title>
<path fill="none" stroke="black" d="M3430.26,-306.06C3425.35,-314.95 3418.66,-324.13 3410,-330 3389.77,-343.72 3332.23,-352.93 3284.53,-358.45"/>
<polygon fill="black" stroke="black" points="3433.43,-307.55 3434.75,-297.03 3427.16,-304.43 3433.43,-307.55"/>
<text text-anchor="middle" x="3481.5" y="-318.8" font-family="Times,serif" font-size="14.00">सम्बन्धः</text>
</g>
<!-- Node23_1 -->
<g id="node34" class="node">
<title>Node23_1</title>
<ellipse fill="#ff99ff" stroke="#ff99ff" cx="4276" cy="-105" rx="65.79" ry="18"/>
<text text-anchor="middle" x="4276" y="-101.3" font-family="Times,serif" font-size="14.00">तथा(23.1)</text>
</g>
<!-- Node29_1 -->
<g id="node35" class="node">
<title>Node29_1</title>
<ellipse fill="#ff1975" stroke="#ff1975" cx="4360" cy="-192" rx="112.38" ry="18"/>
<text text-anchor="middle" x="4360" y="-188.3" font-family="Times,serif" font-size="14.00">पुप्लुवे(29.1)</text>
</g>
<!-- Node23_1&#45;&gt;Node29_1 -->
<g id="edge29" class="edge">
<title>Node23_1&#45;&gt;Node29_1</title>
<path fill="none" stroke="black" d="M4288.61,-132.01C4293.35,-140.25 4299.25,-149.02 4306,-156 4312.75,-162.99 4321.15,-169.27 4329.3,-174.52"/>
<polygon fill="black" stroke="black" points="4291.6,-130.19 4283.76,-123.06 4285.45,-133.52 4291.6,-130.19"/>
<text text-anchor="middle" x="4363.5" y="-144.8" font-family="Times,serif" font-size="14.00">सम्बन्धः</text>
</g>
<!-- Node24_1 -->
<g id="node36" class="node">
<title>Node24_1</title>
<ellipse fill="#ffff00" stroke="#ffff00" cx="1849" cy="-18" rx="77.99" ry="18"/>
<text text-anchor="middle" x="1849" y="-14.3" font-family="Times,serif" font-size="14.00">आम्र&#45;(24.1)</text>
</g>
<!-- Node24_2 -->
<g id="node37" class="node">
<title>Node24_2</title>
<ellipse fill="#ffff00" stroke="#ffff00" cx="1849" cy="-105" rx="59.59" ry="18"/>
<text text-anchor="middle" x="1849" y="-101.3" font-family="Times,serif" font-size="14.00">वण&#45;(24.2)</text>
</g>
<!-- Node24_1&#45;&gt;Node24_2 -->
<g id="edge30" class="edge">
<title>Node24_1&#45;&gt;Node24_2</title>
<path fill="none" stroke="black" d="M1849,-46.27C1849,-59.58 1849,-75.19 1849,-86.82"/>
<polygon fill="black" stroke="black" points="1852.5,-46.2 1849,-36.2 1845.5,-46.2 1852.5,-46.2"/>
<text text-anchor="middle" x="1952.5" y="-57.8" font-family="Times,serif" font-size="14.00">षष्ठी_तत्पुरुषः</text>
</g>
<!-- Node24_2&#45;&gt;Node24_3 -->
<g id="edge31" class="edge">
<title>Node24_2&#45;&gt;Node24_3</title>
<path fill="none" stroke="black" d="M1849,-133.27C1849,-146.58 1849,-162.19 1849,-173.82"/>
<polygon fill="black" stroke="black" points="1852.5,-133.2 1849,-123.2 1845.5,-133.2 1852.5,-133.2"/>
<text text-anchor="middle" x="1959.5" y="-144.8" font-family="Times,serif" font-size="14.00">तृतीया_तत्पुरुषः</text>
</g>
<!-- Node25_1 -->
<g id="node38" class="node">
<title>Node25_1</title>
<ellipse fill="#ffff00" stroke="#ffff00" cx="2787" cy="-18" rx="68.79" ry="18"/>
<text text-anchor="middle" x="2787" y="-14.3" font-family="Times,serif" font-size="14.00">लता&#45;(25.1)</text>
</g>
<!-- Node25_2 -->
<g id="node39" class="node">
<title>Node25_2</title>
<ellipse fill="#ffff00" stroke="#ffff00" cx="2787" cy="-105" rx="59.59" ry="18"/>
<text text-anchor="middle" x="2787" y="-101.3" font-family="Times,serif" font-size="14.00">शत&#45;(25.2)</text>
</g>
<!-- Node25_1&#45;&gt;Node25_2 -->
<g id="edge33" class="edge">
<title>Node25_1&#45;&gt;Node25_2</title>
<path fill="none" stroke="black" d="M2787,-46.27C2787,-59.58 2787,-75.19 2787,-86.82"/>
<polygon fill="black" stroke="black" points="2790.5,-46.2 2787,-36.2 2783.5,-46.2 2790.5,-46.2"/>
<text text-anchor="middle" x="2837" y="-57.8" font-family="Times,serif" font-size="14.00">द्विगुः</text>
</g>
<!-- Node25_2&#45;&gt;Node25_3 -->
<g id="edge34" class="edge">
<title>Node25_2&#45;&gt;Node25_3</title>
<path fill="none" stroke="black" d="M2787,-133.27C2787,-146.58 2787,-162.19 2787,-173.82"/>
<polygon fill="black" stroke="black" points="2790.5,-133.2 2787,-123.2 2783.5,-133.2 2790.5,-133.2"/>
<text text-anchor="middle" x="2897.5" y="-144.8" font-family="Times,serif" font-size="14.00">तृतीया_तत्पुरुषः</text>
</g>
<!-- Node26_1 -->
<g id="node40" class="node">
<title>Node26_1</title>
<ellipse fill="#ffff00" stroke="#ffff00" cx="3405" cy="-18" rx="77.99" ry="18"/>
<text text-anchor="middle" x="3405" y="-14.3" font-family="Times,serif" font-size="14.00">ज्या&#45;(26.1)</text>
</g>
<!-- Node26_1&#45;&gt;Node26_2 -->
<g id="edge36" class="edge">
<title>Node26_1&#45;&gt;Node26_2</title>
<path fill="none" stroke="black" d="M3405,-46.27C3405,-59.58 3405,-75.19 3405,-86.82"/>
<polygon fill="black" stroke="black" points="3408.5,-46.2 3405,-36.2 3401.5,-46.2 3408.5,-46.2"/>
<text text-anchor="middle" x="3515.5" y="-57.8" font-family="Times,serif" font-size="14.00">तृतीया_तत्पुरुषः</text>
</g>
<!-- Node27_1 -->
<g id="node41" class="node">
<title>Node27_1</title>
<ellipse fill="#ff99ff" stroke="#ff99ff" cx="3573" cy="-105" rx="56.59" ry="18"/>
<text text-anchor="middle" x="3573" y="-101.3" font-family="Times,serif" font-size="14.00">इव(27.1)</text>
</g>
<!-- Node27_1&#45;&gt;Node28_1 -->
<g id="edge38" class="edge">
<title>Node27_1&#45;&gt;Node28_1</title>
<path fill="none" stroke="black" d="M3553.79,-130.36C3545.49,-139.52 3535.12,-149.32 3524,-156 3507.2,-166.09 3487.31,-173.43 3468.64,-178.7"/>
<polygon fill="black" stroke="black" points="3556.64,-132.43 3560.53,-122.57 3551.34,-127.85 3556.64,-132.43"/>
<text text-anchor="middle" x="3631" y="-144.8" font-family="Times,serif" font-size="14.00">उपमान_द्योतकः</text>
</g>
<!-- Node30_1 -->
<g id="node42" class="node">
<title>Node30_1</title>
<ellipse fill="#ffff00" stroke="#ffff00" cx="4472" cy="-18" rx="87.18" ry="18"/>
<text text-anchor="middle" x="4472" y="-14.3" font-family="Times,serif" font-size="14.00">वृक्ष&#45;(30.1)</text>
</g>
<!-- Node30_2 -->
<g id="node43" class="node">
<title>Node30_2</title>
<ellipse fill="#93db70" stroke="#93db70" cx="4472" cy="-105" rx="112.38" ry="18"/>
<text text-anchor="middle" x="4472" y="-101.3" font-family="Times,serif" font-size="14.00">वाटिकाम्(30.2)</text>
</g>
<!-- Node30_1&#45;&gt;Node30_2 -->
<g id="edge40" class="edge">
<title>Node30_1&#45;&gt;Node30_2</title>
<path fill="none" stroke="black" d="M4472,-46.27C4472,-59.58 4472,-75.19 4472,-86.82"/>
<polygon fill="black" stroke="black" points="4475.5,-46.2 4472,-36.2 4468.5,-46.2 4475.5,-46.2"/>
<text text-anchor="middle" x="4575.5" y="-57.8" font-family="Times,serif" font-size="14.00">षष्ठी_तत्पुरुषः</text>
</g>
<!-- Node30_2&#45;&gt;Node29_1 -->
<g id="edge41" class="edge">
<title>Node30_2&#45;&gt;Node29_1</title>
<path fill="none" stroke="black" d="M4449.81,-130.2C4441.25,-138.86 4431.09,-148.36 4421,-156 4412.05,-162.78 4401.65,-169.21 4392,-174.66"/>
<polygon fill="black" stroke="black" points="4452.45,-132.5 4456.88,-122.87 4447.41,-127.64 4452.45,-132.5"/>
<text text-anchor="middle" x="4466" y="-144.8" font-family="Times,serif" font-size="14.00">कर्म</text>
</g>
</g>
</svg>
