<?xml version="1.0" encoding="UTF-8" standalone="no"?>
<!DOCTYPE svg PUBLIC "-//W3C//DTD SVG 1.1//EN"
 "http://www.w3.org/Graphics/SVG/1.1/DTD/svg11.dtd">
<!-- Generated by graphviz version 2.43.0 (0)
 -->
<!-- Title: G Pages: 1 -->
<svg width="1453pt" height="392pt"
 viewBox="0.00 0.00 1453.00 392.00" xmlns="http://www.w3.org/2000/svg" xmlns:xlink="http://www.w3.org/1999/xlink">
<g id="graph0" class="graph" transform="scale(1 1) rotate(0) translate(4 388)">
<title>G</title>
<polygon fill="#fffacd" stroke="transparent" points="-4,4 -4,-388 1449,-388 1449,4 -4,4"/>
<g id="clust1" class="cluster">
<title>cluster_1</title>
<polygon fill="#fffacd" stroke="black" points="855,-166 855,-305 1427,-305 1427,-166 855,-166"/>
</g>
<g id="clust2" class="cluster">
<title>cluster_2</title>
<polygon fill="#fffacd" stroke="black" points="8,-166 8,-305 357,-305 357,-166 8,-166"/>
</g>
<!-- Node1_3 -->
<g id="node1" class="node">
<title>Node1_3</title>
<ellipse fill="#00bfff" stroke="#00bfff" cx="933" cy="-192" rx="69.59" ry="18"/>
<text text-anchor="middle" x="933" y="-188.3" font-family="Times,serif" font-size="14.00">मनाः(1.3)</text>
</g>
<!-- Node5_1 -->
<g id="node2" class="node">
<title>Node5_1</title>
<ellipse fill="#00bfff" stroke="#00bfff" cx="1007" cy="-279" rx="78.79" ry="18"/>
<text text-anchor="middle" x="1007" y="-275.3" font-family="Times,serif" font-size="14.00">जानकी(5.1)</text>
</g>
<!-- Node1_3&#45;&gt;Node5_1 -->
<g id="edge3" class="edge">
<title>Node1_3&#45;&gt;Node5_1</title>
<path fill="none" stroke="black" d="M945.16,-219.39C949.53,-227.43 954.9,-235.98 961,-243 967.06,-249.97 974.7,-256.45 982.01,-261.89"/>
<polygon fill="black" stroke="black" points="948.18,-217.62 940.51,-210.32 941.95,-220.81 948.18,-217.62"/>
<text text-anchor="middle" x="1018.5" y="-231.8" font-family="Times,serif" font-size="14.00">विशेषणम्</text>
</g>
<!-- Node4_1 -->
<g id="node11" class="node">
<title>Node4_1</title>
<ellipse fill="#ff1975" stroke="#ff1975" cx="618" cy="-366" rx="87.99" ry="18"/>
<text text-anchor="middle" x="618" y="-362.3" font-family="Times,serif" font-size="14.00">एष्यति(4.1)</text>
</g>
<!-- Node5_1&#45;&gt;Node4_1 -->
<g id="edge6" class="edge">
<title>Node5_1&#45;&gt;Node4_1</title>
<path fill="none" stroke="black" d="M972.64,-301.31C954.39,-311.63 931.2,-323.24 909,-330 842.07,-350.39 763.09,-358.98 704.31,-362.55"/>
<polygon fill="black" stroke="black" points="974.54,-304.25 981.44,-296.21 971.03,-298.2 974.54,-304.25"/>
<text text-anchor="middle" x="981" y="-318.8" font-family="Times,serif" font-size="14.00">कर्ता</text>
</g>
<!-- Node2_1 -->
<g id="node3" class="node">
<title>Node2_1</title>
<ellipse fill="#00bfff" stroke="#00bfff" cx="1108" cy="-192" rx="87.99" ry="18"/>
<text text-anchor="middle" x="1108" y="-188.3" font-family="Times,serif" font-size="14.00">श्यामा(2.1)</text>
</g>
<!-- Node2_1&#45;&gt;Node5_1 -->
<g id="edge4" class="edge">
<title>Node2_1&#45;&gt;Node5_1</title>
<path fill="none" stroke="black" d="M1095.1,-218.78C1089.99,-227.23 1083.52,-236.2 1076,-243 1067.04,-251.11 1055.85,-257.84 1045.1,-263.17"/>
<polygon fill="black" stroke="black" points="1098.23,-220.36 1100.1,-209.93 1092.13,-216.91 1098.23,-220.36"/>
<text text-anchor="middle" x="1145.5" y="-231.8" font-family="Times,serif" font-size="14.00">विशेषणम्</text>
</g>
<!-- Node11_2 -->
<g id="node4" class="node">
<title>Node11_2</title>
<ellipse fill="#00bfff" stroke="#00bfff" cx="1316" cy="-192" rx="102.88" ry="18"/>
<text text-anchor="middle" x="1316" y="-188.3" font-family="Times,serif" font-size="14.00">वर्णिनी(11.2)</text>
</g>
<!-- Node11_2&#45;&gt;Node5_1 -->
<g id="edge15" class="edge">
<title>Node11_2&#45;&gt;Node5_1</title>
<path fill="none" stroke="black" d="M1276.87,-213.92C1256.53,-224.02 1230.96,-235.54 1207,-243 1164.42,-256.25 1115.09,-264.95 1076.07,-270.36"/>
<polygon fill="black" stroke="black" points="1278.48,-217.03 1285.82,-209.4 1275.32,-210.78 1278.48,-217.03"/>
<text text-anchor="middle" x="1300.5" y="-231.8" font-family="Times,serif" font-size="14.00">विशेषणम्</text>
</g>
<!-- Node8_1 -->
<g id="node5" class="node">
<title>Node8_1</title>
<ellipse fill="#93db70" stroke="#93db70" cx="270" cy="-192" rx="78.79" ry="18"/>
<text text-anchor="middle" x="270" y="-188.3" font-family="Times,serif" font-size="14.00">इमाम्(8.1)</text>
</g>
<!-- Node6_1 -->
<g id="node6" class="node">
<title>Node6_1</title>
<ellipse fill="#93db70" stroke="#93db70" cx="234" cy="-279" rx="78.79" ry="18"/>
<text text-anchor="middle" x="234" y="-275.3" font-family="Times,serif" font-size="14.00">नदीम्(6.1)</text>
</g>
<!-- Node8_1&#45;&gt;Node6_1 -->
<g id="edge9" class="edge">
<title>Node8_1&#45;&gt;Node6_1</title>
<path fill="none" stroke="black" d="M258.79,-219.48C253.08,-232.96 246.3,-248.96 241.27,-260.82"/>
<polygon fill="black" stroke="black" points="262.04,-220.77 262.71,-210.2 255.59,-218.04 262.04,-220.77"/>
<text text-anchor="middle" x="312.5" y="-231.8" font-family="Times,serif" font-size="14.00">विशेषणम्</text>
</g>
<!-- Node6_1&#45;&gt;Node4_1 -->
<g id="edge7" class="edge">
<title>Node6_1&#45;&gt;Node4_1</title>
<path fill="none" stroke="black" d="M290.51,-296.35C327.68,-306.77 377.51,-320.13 422,-330 464.52,-339.43 512.66,-348.06 550.6,-354.39"/>
<polygon fill="black" stroke="black" points="291.44,-292.97 280.86,-293.63 289.54,-299.71 291.44,-292.97"/>
<text text-anchor="middle" x="451" y="-318.8" font-family="Times,serif" font-size="14.00">कर्म</text>
</g>
<!-- Node9_2 -->
<g id="node7" class="node">
<title>Node9_2</title>
<ellipse fill="#93db70" stroke="#93db70" cx="95" cy="-192" rx="78.79" ry="18"/>
<text text-anchor="middle" x="95" y="-188.3" font-family="Times,serif" font-size="14.00">जलाम्(9.2)</text>
</g>
<!-- Node9_2&#45;&gt;Node6_1 -->
<g id="edge11" class="edge">
<title>Node9_2&#45;&gt;Node6_1</title>
<path fill="none" stroke="black" d="M108.89,-218.47C114.73,-227.25 122.23,-236.51 131,-243 145.04,-253.39 162.38,-260.85 178.81,-266.12"/>
<polygon fill="black" stroke="black" points="111.85,-216.61 103.61,-209.95 105.91,-220.3 111.85,-216.61"/>
<text text-anchor="middle" x="188.5" y="-231.8" font-family="Times,serif" font-size="14.00">विशेषणम्</text>
</g>
<!-- Node1_1 -->
<g id="node8" class="node">
<title>Node1_1</title>
<ellipse fill="#ffff00" stroke="#ffff00" cx="933" cy="-18" rx="100.18" ry="18"/>
<text text-anchor="middle" x="933" y="-14.3" font-family="Times,serif" font-size="14.00">सन्ध्या&#45;(1.1)</text>
</g>
<!-- Node1_2 -->
<g id="node9" class="node">
<title>Node1_2</title>
<ellipse fill="#ffff00" stroke="#ffff00" cx="933" cy="-105" rx="63.09" ry="18"/>
<text text-anchor="middle" x="933" y="-101.3" font-family="Times,serif" font-size="14.00">काल&#45;(1.2)</text>
</g>
<!-- Node1_1&#45;&gt;Node1_2 -->
<g id="edge1" class="edge">
<title>Node1_1&#45;&gt;Node1_2</title>
<path fill="none" stroke="black" d="M933,-46.27C933,-59.58 933,-75.19 933,-86.82"/>
<polygon fill="black" stroke="black" points="936.5,-46.2 933,-36.2 929.5,-46.2 936.5,-46.2"/>
<text text-anchor="middle" x="1036.5" y="-57.8" font-family="Times,serif" font-size="14.00">षष्ठी_तत्पुरुषः</text>
</g>
<!-- Node1_2&#45;&gt;Node1_3 -->
<g id="edge2" class="edge">
<title>Node1_2&#45;&gt;Node1_3</title>
<path fill="none" stroke="black" d="M933,-133.27C933,-146.58 933,-162.19 933,-173.82"/>
<polygon fill="black" stroke="black" points="936.5,-133.2 933,-123.2 929.5,-133.2 936.5,-133.2"/>
<text text-anchor="middle" x="1004.5" y="-144.8" font-family="Times,serif" font-size="14.00">बहुव्रीहिः</text>
</g>
<!-- Node3_1 -->
<g id="node10" class="node">
<title>Node3_1</title>
<ellipse fill="#ff99ff" stroke="#ff99ff" cx="462" cy="-279" rx="96.68" ry="18"/>
<text text-anchor="middle" x="462" y="-275.3" font-family="Times,serif" font-size="14.00">ध्रुवम्(3.1)</text>
</g>
<!-- Node3_1&#45;&gt;Node4_1 -->
<g id="edge5" class="edge">
<title>Node3_1&#45;&gt;Node4_1</title>
<path fill="none" stroke="black" d="M476.26,-305.66C482.26,-314.47 489.97,-323.69 499,-330 514.89,-341.1 534.31,-348.72 552.82,-353.94"/>
<polygon fill="black" stroke="black" points="479.15,-303.68 470.83,-297.11 473.23,-307.43 479.15,-303.68"/>
<text text-anchor="middle" x="556.5" y="-318.8" font-family="Times,serif" font-size="14.00">सम्बन्धः</text>
</g>
<!-- Node7_1 -->
<g id="node12" class="node">
<title>Node7_1</title>
<ellipse fill="#ff99ff" stroke="#ff99ff" cx="618" cy="-279" rx="41.69" ry="18"/>
<text text-anchor="middle" x="618" y="-275.3" font-family="Times,serif" font-size="14.00">च(7.1)</text>
</g>
<!-- Node7_1&#45;&gt;Node4_1 -->
<g id="edge8" class="edge">
<title>Node7_1&#45;&gt;Node4_1</title>
<path fill="none" stroke="black" d="M618,-307.27C618,-320.58 618,-336.19 618,-347.82"/>
<polygon fill="black" stroke="black" points="621.5,-307.2 618,-297.2 614.5,-307.2 621.5,-307.2"/>
<text text-anchor="middle" x="675.5" y="-318.8" font-family="Times,serif" font-size="14.00">सम्बन्धः</text>
</g>
<!-- Node9_1 -->
<g id="node13" class="node">
<title>Node9_1</title>
<ellipse fill="#ffff00" stroke="#ffff00" cx="95" cy="-105" rx="63.09" ry="18"/>
<text text-anchor="middle" x="95" y="-101.3" font-family="Times,serif" font-size="14.00">शुभ&#45;(9.1)</text>
</g>
<!-- Node9_1&#45;&gt;Node9_2 -->
<g id="edge10" class="edge">
<title>Node9_1&#45;&gt;Node9_2</title>
<path fill="none" stroke="black" d="M95,-133.27C95,-146.58 95,-162.19 95,-173.82"/>
<polygon fill="black" stroke="black" points="98.5,-133.2 95,-123.2 91.5,-133.2 98.5,-133.2"/>
<text text-anchor="middle" x="159.5" y="-144.8" font-family="Times,serif" font-size="14.00">कर्मधारयः</text>
</g>
<!-- Node10_1 -->
<g id="node14" class="node">
<title>Node10_1</title>
<ellipse fill="#ffff00" stroke="#ffff00" cx="612" cy="-192" rx="105.88" ry="18"/>
<text text-anchor="middle" x="612" y="-188.3" font-family="Times,serif" font-size="14.00">सन्ध्या&#45;(10.1)</text>
</g>
<!-- Node10_2 -->
<g id="node15" class="node">
<title>Node10_2</title>
<ellipse fill="#c6e2eb" stroke="#c6e2eb" cx="762" cy="-279" rx="84.49" ry="18"/>
<text text-anchor="middle" x="762" y="-275.3" font-family="Times,serif" font-size="14.00">अर्थे(10.2)</text>
</g>
<!-- Node10_1&#45;&gt;Node10_2 -->
<g id="edge12" class="edge">
<title>Node10_1&#45;&gt;Node10_2</title>
<path fill="none" stroke="black" d="M608.39,-220.47C608.76,-228.53 610.73,-236.83 616,-243 621.78,-249.76 662.91,-259.26 700.04,-266.66"/>
<polygon fill="black" stroke="black" points="611.9,-220.3 608.69,-210.2 604.9,-220.1 611.9,-220.3"/>
<text text-anchor="middle" x="733.5" y="-231.8" font-family="Times,serif" font-size="14.00">चतुर्थी_तत्पुरुषः</text>
</g>
<!-- Node10_2&#45;&gt;Node4_1 -->
<g id="edge13" class="edge">
<title>Node10_2&#45;&gt;Node4_1</title>
<path fill="none" stroke="black" d="M753.62,-306.44C749.76,-314.99 744.36,-323.85 737,-330 722.88,-341.81 704.91,-349.64 687.25,-354.83"/>
<polygon fill="black" stroke="black" points="756.9,-307.66 757.34,-297.08 750.4,-305.08 756.9,-307.66"/>
<text text-anchor="middle" x="826.5" y="-318.8" font-family="Times,serif" font-size="14.00">कालाधिकरणम्</text>
</g>
<!-- Node11_1 -->
<g id="node16" class="node">
<title>Node11_1</title>
<ellipse fill="#ffff00" stroke="#ffff00" cx="1316" cy="-105" rx="59.59" ry="18"/>
<text text-anchor="middle" x="1316" y="-101.3" font-family="Times,serif" font-size="14.00">वर&#45;(11.1)</text>
</g>
<!-- Node11_1&#45;&gt;Node11_2 -->
<g id="edge14" class="edge">
<title>Node11_1&#45;&gt;Node11_2</title>
<path fill="none" stroke="black" d="M1316,-133.27C1316,-146.58 1316,-162.19 1316,-173.82"/>
<polygon fill="black" stroke="black" points="1319.5,-133.2 1316,-123.2 1312.5,-133.2 1319.5,-133.2"/>
<text text-anchor="middle" x="1380.5" y="-144.8" font-family="Times,serif" font-size="14.00">कर्मधारयः</text>
</g>
</g>
</svg>
