<?xml version="1.0" encoding="UTF-8" standalone="no"?>
<!DOCTYPE svg PUBLIC "-//W3C//DTD SVG 1.1//EN"
 "http://www.w3.org/Graphics/SVG/1.1/DTD/svg11.dtd">
<!-- Generated by graphviz version 2.43.0 (0)
 -->
<!-- Title: G Pages: 1 -->
<svg width="2732pt" height="408pt"
 viewBox="0.00 0.00 2731.59 408.00" xmlns="http://www.w3.org/2000/svg" xmlns:xlink="http://www.w3.org/1999/xlink">
<g id="graph0" class="graph" transform="scale(1 1) rotate(0) translate(4 404)">
<title>G</title>
<polygon fill="#fffacd" stroke="transparent" points="-4,4 -4,-404 2727.59,-404 2727.59,4 -4,4"/>
<g id="clust1" class="cluster">
<title>cluster_1</title>
<polygon fill="#fffacd" stroke="black" points="8,-79 8,-392 1184,-392 1184,-79 8,-79"/>
</g>
<!-- Node1_1 -->
<g id="node1" class="node">
<title>Node1_1</title>
<ellipse fill="#93db70" stroke="#93db70" cx="1106" cy="-192" rx="69.59" ry="18"/>
<text text-anchor="middle" x="1106" y="-188.3" font-family="Times,serif" font-size="14.00">तान्(1.1)</text>
</g>
<!-- Node3_2 -->
<g id="node2" class="node">
<title>Node3_2</title>
<ellipse fill="#93db70" stroke="#93db70" cx="657" cy="-279" rx="78.79" ry="18"/>
<text text-anchor="middle" x="657" y="-275.3" font-family="Times,serif" font-size="14.00">गणान्(3.2)</text>
</g>
<!-- Node1_1&#45;&gt;Node3_2 -->
<g id="edge1" class="edge">
<title>Node1_1&#45;&gt;Node3_2</title>
<path fill="none" stroke="black" d="M1055.74,-209.88C1021.72,-220.74 975.57,-234.39 934,-243 865.29,-257.23 785.73,-266.56 729.54,-271.98"/>
<polygon fill="black" stroke="black" points="1057,-213.15 1065.45,-206.75 1054.86,-206.49 1057,-213.15"/>
<text text-anchor="middle" x="1049.5" y="-231.8" font-family="Times,serif" font-size="14.00">विशेषणम्</text>
</g>
<!-- Node6_3 -->
<g id="node5" class="node">
<title>Node6_3</title>
<ellipse fill="#93db70" stroke="#93db70" cx="657" cy="-366" rx="124.58" ry="18"/>
<text text-anchor="middle" x="657" y="-362.3" font-family="Times,serif" font-size="14.00">निर्घोषान्(6.3)</text>
</g>
<!-- Node3_2&#45;&gt;Node6_3 -->
<g id="edge3" class="edge">
<title>Node3_2&#45;&gt;Node6_3</title>
<path fill="none" stroke="black" d="M604.1,-299.32C598.11,-303.59 592.8,-308.77 589,-315 580.22,-329.39 593.06,-340.94 609.85,-349.3"/>
<polygon fill="black" stroke="black" points="605.97,-302.28 612.61,-294.02 602.27,-296.33 605.97,-302.28"/>
<text text-anchor="middle" x="646.5" y="-318.8" font-family="Times,serif" font-size="14.00">विशेषणम्</text>
</g>
<!-- Node2_1 -->
<g id="node3" class="node">
<title>Node2_1</title>
<ellipse fill="#93db70" stroke="#93db70" cx="903" cy="-192" rx="115.88" ry="18"/>
<text text-anchor="middle" x="903" y="-188.3" font-family="Times,serif" font-size="14.00">काञ्चनान्(2.1)</text>
</g>
<!-- Node2_1&#45;&gt;Node3_2 -->
<g id="edge2" class="edge">
<title>Node2_1&#45;&gt;Node3_2</title>
<path fill="none" stroke="black" d="M855.26,-212.96C831.6,-222.55 802.5,-233.91 776,-243 753.08,-250.86 727.33,-258.57 705.65,-264.75"/>
<polygon fill="black" stroke="black" points="856.77,-216.12 864.7,-209.11 854.12,-209.64 856.77,-216.12"/>
<text text-anchor="middle" x="872.5" y="-231.8" font-family="Times,serif" font-size="14.00">विशेषणम्</text>
</g>
<!-- Node5_1 -->
<g id="node4" class="node">
<title>Node5_1</title>
<ellipse fill="#93db70" stroke="#93db70" cx="383" cy="-192" rx="143.77" ry="18"/>
<text text-anchor="middle" x="383" y="-188.3" font-family="Times,serif" font-size="14.00">प्रकम्पितान्(5.1)</text>
</g>
<!-- Node5_1&#45;&gt;Node3_2 -->
<g id="edge5" class="edge">
<title>Node5_1&#45;&gt;Node3_2</title>
<path fill="none" stroke="black" d="M441,-212.11C470.07,-221.58 505.83,-233.08 538,-243 561.67,-250.3 588.08,-258.1 610,-264.48"/>
<polygon fill="black" stroke="black" points="442.01,-208.75 431.42,-208.98 439.84,-215.41 442.01,-208.75"/>
<text text-anchor="middle" x="595.5" y="-231.8" font-family="Times,serif" font-size="14.00">विशेषणम्</text>
</g>
<!-- Node6_3&#45;&gt;Node3_2 -->
<g id="edge7" class="edge">
<title>Node6_3&#45;&gt;Node3_2</title>
<path fill="none" stroke="black" d="M696.24,-341.76C704.24,-333.98 708.91,-324.78 704,-315 700.17,-307.36 693.79,-300.97 686.95,-295.83"/>
<polygon fill="black" stroke="black" points="693.6,-339.4 688.13,-348.48 698.07,-344.79 693.6,-339.4"/>
<text text-anchor="middle" x="764.5" y="-318.8" font-family="Times,serif" font-size="14.00">विशेषणम्</text>
</g>
<!-- Node10_2 -->
<g id="node6" class="node">
<title>Node10_2</title>
<ellipse fill="#93db70" stroke="#93db70" cx="119" cy="-192" rx="102.88" ry="18"/>
<text text-anchor="middle" x="119" y="-188.3" font-family="Times,serif" font-size="14.00">अग्रान्(10.2)</text>
</g>
<!-- Node10_2&#45;&gt;Node3_2 -->
<g id="edge11" class="edge">
<title>Node10_2&#45;&gt;Node3_2</title>
<path fill="none" stroke="black" d="M190.52,-208.5C241.28,-219.16 311.11,-233.11 373,-243 445.6,-254.6 529.18,-264.49 586.78,-270.76"/>
<polygon fill="black" stroke="black" points="191.14,-205.06 180.63,-206.42 189.69,-211.91 191.14,-205.06"/>
<text text-anchor="middle" x="430.5" y="-231.8" font-family="Times,serif" font-size="14.00">विशेषणम्</text>
</g>
<!-- Node11_1 -->
<g id="node7" class="node">
<title>Node11_1</title>
<ellipse fill="#93db70" stroke="#93db70" cx="128" cy="-105" rx="112.38" ry="18"/>
<text text-anchor="middle" x="128" y="-101.3" font-family="Times,serif" font-size="14.00">रुचिरान्(11.1)</text>
</g>
<!-- Node11_1&#45;&gt;Node10_2 -->
<g id="edge12" class="edge">
<title>Node11_1&#45;&gt;Node10_2</title>
<path fill="none" stroke="black" d="M125.11,-133.27C123.7,-146.58 122.05,-162.19 120.82,-173.82"/>
<polygon fill="black" stroke="black" points="128.61,-133.51 126.18,-123.2 121.65,-132.78 128.61,-133.51"/>
<text text-anchor="middle" x="182.5" y="-144.8" font-family="Times,serif" font-size="14.00">विशेषणम्</text>
</g>
<!-- Node12_3 -->
<g id="node8" class="node">
<title>Node12_3</title>
<ellipse fill="#93db70" stroke="#93db70" cx="657" cy="-192" rx="112.38" ry="18"/>
<text text-anchor="middle" x="657" y="-188.3" font-family="Times,serif" font-size="14.00">पल्लवान्(12.3)</text>
</g>
<!-- Node12_3&#45;&gt;Node3_2 -->
<g id="edge15" class="edge">
<title>Node12_3&#45;&gt;Node3_2</title>
<path fill="none" stroke="black" d="M657,-220.27C657,-233.58 657,-249.19 657,-260.82"/>
<polygon fill="black" stroke="black" points="660.5,-220.2 657,-210.2 653.5,-220.2 660.5,-220.2"/>
<text text-anchor="middle" x="714.5" y="-231.8" font-family="Times,serif" font-size="14.00">विशेषणम्</text>
</g>
<!-- Node3_1 -->
<g id="node9" class="node">
<title>Node3_1</title>
<ellipse fill="#ffff00" stroke="#ffff00" cx="1944" cy="-18" rx="81.49" ry="18"/>
<text text-anchor="middle" x="1944" y="-14.3" font-family="Times,serif" font-size="14.00">वृक्ष&#45;(3.1)</text>
</g>
<!-- Node4_1 -->
<g id="node10" class="node">
<title>Node4_1</title>
<ellipse fill="#40e0d0" stroke="#40e0d0" cx="1555" cy="-105" rx="96.68" ry="18"/>
<text text-anchor="middle" x="1555" y="-101.3" font-family="Times,serif" font-size="14.00">मारुतेन(4.1)</text>
</g>
<!-- Node4_1&#45;&gt;Node5_1 -->
<g id="edge4" class="edge">
<title>Node4_1&#45;&gt;Node5_1</title>
<path fill="none" stroke="black" d="M1523.65,-127.93C1506.56,-138.59 1484.55,-150.3 1463,-156 1363.41,-182.35 638.8,-167.3 536,-174 518.13,-175.16 499.14,-176.88 480.83,-178.79"/>
<polygon fill="black" stroke="black" points="1525.59,-130.84 1532.11,-122.49 1521.81,-124.96 1525.59,-130.84"/>
<text text-anchor="middle" x="1537" y="-144.8" font-family="Times,serif" font-size="14.00">कर्ता</text>
</g>
<!-- Node6_1 -->
<g id="node11" class="node">
<title>Node6_1</title>
<ellipse fill="#ffff00" stroke="#ffff00" cx="2152" cy="-18" rx="109.38" ry="18"/>
<text text-anchor="middle" x="2152" y="-14.3" font-family="Times,serif" font-size="14.00">किङ्किणी&#45;(6.1)</text>
</g>
<!-- Node6_2 -->
<g id="node12" class="node">
<title>Node6_2</title>
<ellipse fill="#ffff00" stroke="#ffff00" cx="2152" cy="-105" rx="53.89" ry="18"/>
<text text-anchor="middle" x="2152" y="-101.3" font-family="Times,serif" font-size="14.00">शत&#45;(6.2)</text>
</g>
<!-- Node6_1&#45;&gt;Node6_2 -->
<g id="edge6" class="edge">
<title>Node6_1&#45;&gt;Node6_2</title>
<path fill="none" stroke="black" d="M2152,-46.27C2152,-59.58 2152,-75.19 2152,-86.82"/>
<polygon fill="black" stroke="black" points="2155.5,-46.2 2152,-36.2 2148.5,-46.2 2155.5,-46.2"/>
<text text-anchor="middle" x="2202" y="-57.8" font-family="Times,serif" font-size="14.00">द्विगुः</text>
</g>
<!-- Node7_1 -->
<g id="node13" class="node">
<title>Node7_1</title>
<ellipse fill="#ff99ff" stroke="#ff99ff" cx="2386" cy="-18" rx="106.68" ry="18"/>
<text text-anchor="middle" x="2386" y="-14.3" font-family="Times,serif" font-size="14.00">दृष्ट्वा(7.1)</text>
</g>
<!-- Node9_1 -->
<g id="node14" class="node">
<title>Node9_1</title>
<ellipse fill="#ff1975" stroke="#ff1975" cx="2501" cy="-105" rx="78.79" ry="18"/>
<text text-anchor="middle" x="2501" y="-101.3" font-family="Times,serif" font-size="14.00">आगमत्(9.1)</text>
</g>
<!-- Node7_1&#45;&gt;Node9_1 -->
<g id="edge8" class="edge">
<title>Node7_1&#45;&gt;Node9_1</title>
<path fill="none" stroke="black" d="M2416.99,-41.9C2436.47,-56.31 2461.16,-74.55 2478.72,-87.53"/>
<polygon fill="black" stroke="black" points="2418.84,-38.92 2408.72,-35.79 2414.68,-44.55 2418.84,-38.92"/>
<text text-anchor="middle" x="2514.5" y="-57.8" font-family="Times,serif" font-size="14.00">पूर्वकालः</text>
</g>
<!-- Node8_1 -->
<g id="node15" class="node">
<title>Node8_1</title>
<ellipse fill="#93db70" stroke="#93db70" cx="2617" cy="-18" rx="106.68" ry="18"/>
<text text-anchor="middle" x="2617" y="-14.3" font-family="Times,serif" font-size="14.00">विस्मयम्(8.1)</text>
</g>
<!-- Node8_1&#45;&gt;Node9_1 -->
<g id="edge9" class="edge">
<title>Node8_1&#45;&gt;Node9_1</title>
<path fill="none" stroke="black" d="M2603.45,-44.78C2597.99,-53.34 2591.06,-62.37 2583,-69 2572.24,-77.85 2558.91,-84.81 2546.15,-90.1"/>
<polygon fill="black" stroke="black" points="2606.48,-46.54 2608.6,-36.15 2600.47,-42.95 2606.48,-46.54"/>
<text text-anchor="middle" x="2625" y="-57.8" font-family="Times,serif" font-size="14.00">कर्म</text>
</g>
<!-- Node10_1 -->
<g id="node16" class="node">
<title>Node10_1</title>
<ellipse fill="#ffff00" stroke="#ffff00" cx="1316" cy="-105" rx="124.28" ry="18"/>
<text text-anchor="middle" x="1316" y="-101.3" font-family="Times,serif" font-size="14.00">सुपुष्पित&#45;(10.1)</text>
</g>
<!-- Node10_1&#45;&gt;Node10_2 -->
<g id="edge10" class="edge">
<title>Node10_1&#45;&gt;Node10_2</title>
<path fill="none" stroke="black" d="M1221.19,-119.44C1210.02,-120.77 1198.77,-122 1188,-123 763.45,-162.43 654.14,-130.34 230,-174 217.1,-175.33 203.42,-177.11 190.22,-179.03"/>
<polygon fill="black" stroke="black" points="1221.92,-122.88 1231.42,-118.19 1221.07,-115.93 1221.92,-122.88"/>
<text text-anchor="middle" x="1000.5" y="-144.8" font-family="Times,serif" font-size="14.00">बहुव्रीहिः</text>
</g>
<!-- Node12_1 -->
<g id="node17" class="node">
<title>Node12_1</title>
<ellipse fill="#ffff00" stroke="#ffff00" cx="1767" cy="-18" rx="77.99" ry="18"/>
<text text-anchor="middle" x="1767" y="-14.3" font-family="Times,serif" font-size="14.00">तरुण&#45;(12.1)</text>
</g>
<!-- Node12_2 -->
<g id="node18" class="node">
<title>Node12_2</title>
<ellipse fill="#ffff00" stroke="#ffff00" cx="1767" cy="-105" rx="96.68" ry="18"/>
<text text-anchor="middle" x="1767" y="-101.3" font-family="Times,serif" font-size="14.00">अङ्कुर&#45;(12.2)</text>
</g>
<!-- Node12_1&#45;&gt;Node12_2 -->
<g id="edge13" class="edge">
<title>Node12_1&#45;&gt;Node12_2</title>
<path fill="none" stroke="black" d="M1767,-46.27C1767,-59.58 1767,-75.19 1767,-86.82"/>
<polygon fill="black" stroke="black" points="1770.5,-46.2 1767,-36.2 1763.5,-46.2 1770.5,-46.2"/>
<text text-anchor="middle" x="1831.5" y="-57.8" font-family="Times,serif" font-size="14.00">कर्मधारयः</text>
</g>
<!-- Node12_2&#45;&gt;Node12_3 -->
<g id="edge14" class="edge">
<title>Node12_2&#45;&gt;Node12_3</title>
<path fill="none" stroke="black" d="M1723.97,-125.99C1697.72,-137.12 1663.14,-149.93 1631,-156 1444.7,-191.19 966.99,-158.78 778,-174 763.73,-175.15 748.57,-176.87 733.98,-178.79"/>
<polygon fill="black" stroke="black" points="1725.45,-129.17 1733.24,-121.99 1722.67,-122.74 1725.45,-129.17"/>
<text text-anchor="middle" x="1749.5" y="-144.8" font-family="Times,serif" font-size="14.00">कर्मधारयः</text>
</g>
</g>
</svg>
