<?xml version="1.0" encoding="UTF-8" standalone="no"?>
<!DOCTYPE svg PUBLIC "-//W3C//DTD SVG 1.1//EN"
 "http://www.w3.org/Graphics/SVG/1.1/DTD/svg11.dtd">
<!-- Generated by graphviz version 2.43.0 (0)
 -->
<!-- Title: G Pages: 1 -->
<svg width="1117pt" height="392pt"
 viewBox="0.00 0.00 1117.29 392.00" xmlns="http://www.w3.org/2000/svg" xmlns:xlink="http://www.w3.org/1999/xlink">
<g id="graph0" class="graph" transform="scale(1 1) rotate(0) translate(4 388)">
<title>G</title>
<polygon fill="#fffacd" stroke="transparent" points="-4,4 -4,-388 1113.29,-388 1113.29,4 -4,4"/>
<g id="clust1" class="cluster">
<title>cluster_1</title>
<polygon fill="#fffacd" stroke="black" points="769.29,-166 769.29,-305 979.29,-305 979.29,-166 769.29,-166"/>
</g>
<g id="clust2" class="cluster">
<title>cluster_2</title>
<polygon fill="#fffacd" stroke="black" points="135.29,-79 135.29,-218 345.29,-218 345.29,-79 135.29,-79"/>
</g>
<!-- Node1_3 -->
<g id="node1" class="node">
<title>Node1_3</title>
<ellipse fill="#00bfff" stroke="#00bfff" cx="874.29" cy="-192" rx="87.99" ry="18"/>
<text text-anchor="middle" x="874.29" y="-188.3" font-family="Times,serif" font-size="14.00">शिखराः(1.3)</text>
</g>
<!-- Node2_4 -->
<g id="node2" class="node">
<title>Node2_4</title>
<ellipse fill="#93db70" stroke="#93db70" cx="874.29" cy="-279" rx="96.68" ry="18"/>
<text text-anchor="middle" x="874.29" y="-275.3" font-family="Times,serif" font-size="14.00">द्रुमाः(2.4)</text>
</g>
<!-- Node1_3&#45;&gt;Node2_4 -->
<g id="edge3" class="edge">
<title>Node1_3&#45;&gt;Node2_4</title>
<path fill="none" stroke="black" d="M874.29,-220.27C874.29,-233.58 874.29,-249.19 874.29,-260.82"/>
<polygon fill="black" stroke="black" points="877.79,-220.2 874.29,-210.2 870.79,-220.2 877.79,-220.2"/>
<text text-anchor="middle" x="931.79" y="-231.8" font-family="Times,serif" font-size="14.00">विशेषणम्</text>
</g>
<!-- Node6_1 -->
<g id="node10" class="node">
<title>Node6_1</title>
<ellipse fill="#00bfff" stroke="#00bfff" cx="874.29" cy="-366" rx="106.68" ry="18"/>
<text text-anchor="middle" x="874.29" y="-362.3" font-family="Times,serif" font-size="14.00">पराजिताः(6.1)</text>
</g>
<!-- Node2_4&#45;&gt;Node6_1 -->
<g id="edge7" class="edge">
<title>Node2_4&#45;&gt;Node6_1</title>
<path fill="none" stroke="black" d="M874.29,-307.27C874.29,-320.58 874.29,-336.19 874.29,-347.82"/>
<polygon fill="black" stroke="black" points="877.79,-307.2 874.29,-297.2 870.79,-307.2 877.79,-307.2"/>
<text text-anchor="middle" x="910.29" y="-318.8" font-family="Times,serif" font-size="14.00">कर्ता</text>
</g>
<!-- Node3_3 -->
<g id="node3" class="node">
<title>Node3_3</title>
<ellipse fill="#00bfff" stroke="#00bfff" cx="231.29" cy="-105" rx="87.99" ry="18"/>
<text text-anchor="middle" x="231.29" y="-101.3" font-family="Times,serif" font-size="14.00">आभरणाः(3.3)</text>
</g>
<!-- Node4_1 -->
<g id="node4" class="node">
<title>Node4_1</title>
<ellipse fill="#6fffc3" stroke="#6fffc3" cx="240.29" cy="-192" rx="96.68" ry="18"/>
<text text-anchor="middle" x="240.29" y="-188.3" font-family="Times,serif" font-size="14.00">धूर्ताः(4.1)</text>
</g>
<!-- Node3_3&#45;&gt;Node4_1 -->
<g id="edge10" class="edge">
<title>Node3_3&#45;&gt;Node4_1</title>
<path fill="none" stroke="black" d="M234.18,-133.27C235.59,-146.58 237.24,-162.19 238.47,-173.82"/>
<polygon fill="black" stroke="black" points="237.64,-132.78 233.11,-123.2 230.68,-133.51 237.64,-132.78"/>
<text text-anchor="middle" x="294.79" y="-144.8" font-family="Times,serif" font-size="14.00">विशेषणम्</text>
</g>
<!-- Node4_1&#45;&gt;Node2_4 -->
<g id="edge11" class="edge">
<title>Node4_1&#45;&gt;Node2_4</title>
<path fill="none" stroke="black" d="M316.87,-206.9C378.02,-217.7 465.96,-232.54 543.29,-243 626.61,-254.27 722.14,-264.04 789.09,-270.37"/>
<polygon fill="black" stroke="black" points="317.37,-203.44 306.92,-205.14 316.15,-210.33 317.37,-203.44"/>
<text text-anchor="middle" x="593.29" y="-231.8" font-family="Times,serif" font-size="14.00">उपमानम्</text>
</g>
<!-- Node1_1 -->
<g id="node5" class="node">
<title>Node1_1</title>
<ellipse fill="#ffff00" stroke="#ffff00" cx="925.29" cy="-18" rx="100.18" ry="18"/>
<text text-anchor="middle" x="925.29" y="-14.3" font-family="Times,serif" font-size="14.00">निर्धूत&#45;(1.1)</text>
</g>
<!-- Node1_2 -->
<g id="node6" class="node">
<title>Node1_2</title>
<ellipse fill="#ffff00" stroke="#ffff00" cx="925.29" cy="-105" rx="72.29" ry="18"/>
<text text-anchor="middle" x="925.29" y="-101.3" font-family="Times,serif" font-size="14.00">पत्र&#45;(1.2)</text>
</g>
<!-- Node1_1&#45;&gt;Node1_2 -->
<g id="edge1" class="edge">
<title>Node1_1&#45;&gt;Node1_2</title>
<path fill="none" stroke="black" d="M925.29,-46.27C925.29,-59.58 925.29,-75.19 925.29,-86.82"/>
<polygon fill="black" stroke="black" points="928.79,-46.2 925.29,-36.2 921.79,-46.2 928.79,-46.2"/>
<text text-anchor="middle" x="989.79" y="-57.8" font-family="Times,serif" font-size="14.00">कर्मधारयः</text>
</g>
<!-- Node1_2&#45;&gt;Node1_3 -->
<g id="edge2" class="edge">
<title>Node1_2&#45;&gt;Node1_3</title>
<path fill="none" stroke="black" d="M909.6,-132.15C901.4,-145.81 891.61,-162.13 884.42,-174.11"/>
<polygon fill="black" stroke="black" points="912.83,-133.58 914.97,-123.2 906.82,-129.98 912.83,-133.58"/>
<text text-anchor="middle" x="1005.79" y="-144.8" font-family="Times,serif" font-size="14.00">षष्ठी_तत्पुरुषः</text>
</g>
<!-- Node2_1 -->
<g id="node7" class="node">
<title>Node2_1</title>
<ellipse fill="#ffff00" stroke="#ffff00" cx="574.29" cy="-105" rx="81.49" ry="18"/>
<text text-anchor="middle" x="574.29" y="-101.3" font-family="Times,serif" font-size="14.00">शीर्ण&#45;(2.1)</text>
</g>
<!-- Node2_3 -->
<g id="node8" class="node">
<title>Node2_3</title>
<ellipse fill="#ffff00" stroke="#ffff00" cx="626.29" cy="-192" rx="53.89" ry="18"/>
<text text-anchor="middle" x="626.29" y="-188.3" font-family="Times,serif" font-size="14.00">फल&#45;(2.3)</text>
</g>
<!-- Node2_1&#45;&gt;Node2_3 -->
<g id="edge4" class="edge">
<title>Node2_1&#45;&gt;Node2_3</title>
<path fill="none" stroke="black" d="M579.6,-132.95C581.86,-140.74 584.99,-149.03 589.29,-156 593.65,-163.08 599.8,-169.67 605.83,-175.19"/>
<polygon fill="black" stroke="black" points="582.97,-131.96 577.12,-123.12 576.18,-133.68 582.97,-131.96"/>
<text text-anchor="middle" x="660.79" y="-144.8" font-family="Times,serif" font-size="14.00">बहुव्रीहिः</text>
</g>
<!-- Node2_3&#45;&gt;Node2_4 -->
<g id="edge6" class="edge">
<title>Node2_3&#45;&gt;Node2_4</title>
<path fill="none" stroke="black" d="M639.89,-218.88C645.88,-227.88 653.76,-237.17 663.29,-243 684.27,-255.84 740.06,-264.76 789,-270.39"/>
<polygon fill="black" stroke="black" points="642.73,-216.82 634.52,-210.12 636.76,-220.48 642.73,-216.82"/>
<text text-anchor="middle" x="766.79" y="-231.8" font-family="Times,serif" font-size="14.00">षष्ठी_तत्पुरुषः</text>
</g>
<!-- Node2_2 -->
<g id="node9" class="node">
<title>Node2_2</title>
<ellipse fill="#ffff00" stroke="#ffff00" cx="754.29" cy="-105" rx="81.49" ry="18"/>
<text text-anchor="middle" x="754.29" y="-101.3" font-family="Times,serif" font-size="14.00">पुष्प&#45;(2.2)</text>
</g>
<!-- Node2_2&#45;&gt;Node2_3 -->
<g id="edge5" class="edge">
<title>Node2_2&#45;&gt;Node2_3</title>
<path fill="none" stroke="black" d="M747.18,-132.92C743.84,-141.26 739.05,-149.86 732.29,-156 716.44,-170.4 694.52,-178.89 674.73,-183.89"/>
<polygon fill="black" stroke="black" points="750.5,-134.02 750.47,-123.42 743.89,-131.72 750.5,-134.02"/>
<text text-anchor="middle" x="807.79" y="-144.8" font-family="Times,serif" font-size="14.00">द्वन्द्वः</text>
</g>
<!-- Node3_1 -->
<g id="node11" class="node">
<title>Node3_1</title>
<ellipse fill="#ffff00" stroke="#ffff00" cx="118.29" cy="-18" rx="118.08" ry="18"/>
<text text-anchor="middle" x="118.29" y="-14.3" font-family="Times,serif" font-size="14.00">निक्षिप्त&#45;(3.1)</text>
</g>
<!-- Node3_1&#45;&gt;Node3_3 -->
<g id="edge8" class="edge">
<title>Node3_1&#45;&gt;Node3_3</title>
<path fill="none" stroke="black" d="M146.39,-42.42C156.89,-50.97 169,-60.59 180.29,-69 188.73,-75.29 198.18,-81.89 206.63,-87.64"/>
<polygon fill="black" stroke="black" points="148.32,-39.47 138.36,-35.84 143.88,-44.89 148.32,-39.47"/>
<text text-anchor="middle" x="251.79" y="-57.8" font-family="Times,serif" font-size="14.00">बहुव्रीहिः</text>
</g>
<!-- Node3_2 -->
<g id="node12" class="node">
<title>Node3_2</title>
<ellipse fill="#ffff00" stroke="#ffff00" cx="345.29" cy="-18" rx="90.98" ry="18"/>
<text text-anchor="middle" x="345.29" y="-14.3" font-family="Times,serif" font-size="14.00">वस्त्र&#45;(3.2)</text>
</g>
<!-- Node3_2&#45;&gt;Node3_3 -->
<g id="edge9" class="edge">
<title>Node3_2&#45;&gt;Node3_3</title>
<path fill="none" stroke="black" d="M338.02,-45.75C334.66,-54.07 329.91,-62.71 323.29,-69 313.13,-78.65 300.04,-85.71 286.94,-90.85"/>
<polygon fill="black" stroke="black" points="341.33,-46.87 341.34,-36.28 334.73,-44.56 341.33,-46.87"/>
<text text-anchor="middle" x="398.79" y="-57.8" font-family="Times,serif" font-size="14.00">कर्मधारयः</text>
</g>
<!-- Node5_1 -->
<g id="node13" class="node">
<title>Node5_1</title>
<ellipse fill="#ff99ff" stroke="#ff99ff" cx="404.29" cy="-105" rx="50.89" ry="18"/>
<text text-anchor="middle" x="404.29" y="-101.3" font-family="Times,serif" font-size="14.00">इव(5.1)</text>
</g>
<!-- Node5_1&#45;&gt;Node4_1 -->
<g id="edge12" class="edge">
<title>Node5_1&#45;&gt;Node4_1</title>
<path fill="none" stroke="black" d="M385.53,-130.33C377.41,-139.49 367.24,-149.29 356.29,-156 340.23,-165.83 321.23,-173.07 303.29,-178.32"/>
<polygon fill="black" stroke="black" points="388.33,-132.44 392.12,-122.55 382.99,-127.92 388.33,-132.44"/>
<text text-anchor="middle" x="463.29" y="-144.8" font-family="Times,serif" font-size="14.00">उपमान_द्योतकः</text>
</g>
</g>
</svg>
