<?xml version="1.0" encoding="UTF-8" standalone="no"?>
<!DOCTYPE svg PUBLIC "-//W3C//DTD SVG 1.1//EN"
 "http://www.w3.org/Graphics/SVG/1.1/DTD/svg11.dtd">
<!-- Generated by graphviz version 2.43.0 (0)
 -->
<!-- Title: G Pages: 1 -->
<svg width="1197pt" height="305pt"
 viewBox="0.00 0.00 1197.00 305.00" xmlns="http://www.w3.org/2000/svg" xmlns:xlink="http://www.w3.org/1999/xlink">
<g id="graph0" class="graph" transform="scale(1 1) rotate(0) translate(4 301)">
<title>G</title>
<polygon fill="#fffacd" stroke="transparent" points="-4,4 -4,-301 1193,-301 1193,4 -4,4"/>
<g id="clust1" class="cluster">
<title>cluster_1</title>
<polygon fill="#fffacd" stroke="black" points="8,-79 8,-218 192,-218 192,-79 8,-79"/>
</g>
<!-- Node1_1 -->
<g id="node1" class="node">
<title>Node1_1</title>
<ellipse fill="#00bfff" stroke="#00bfff" cx="69" cy="-105" rx="50.89" ry="18"/>
<text text-anchor="middle" x="69" y="-101.3" font-family="Times,serif" font-size="14.00">सः(1.1)</text>
</g>
<!-- Node10_2 -->
<g id="node2" class="node">
<title>Node10_2</title>
<ellipse fill="#00bfff" stroke="#00bfff" cx="100" cy="-192" rx="84.49" ry="18"/>
<text text-anchor="middle" x="100" y="-188.3" font-family="Times,serif" font-size="14.00">तेजाः(10.2)</text>
</g>
<!-- Node1_1&#45;&gt;Node10_2 -->
<g id="edge1" class="edge">
<title>Node1_1&#45;&gt;Node10_2</title>
<path fill="none" stroke="black" d="M78.8,-132.87C83.69,-146.27 89.45,-162.08 93.74,-173.82"/>
<polygon fill="black" stroke="black" points="81.99,-131.4 75.27,-123.2 75.41,-133.79 81.99,-131.4"/>
<text text-anchor="middle" x="144.5" y="-144.8" font-family="Times,serif" font-size="14.00">विशेषणम्</text>
</g>
<!-- Node9_1 -->
<g id="node9" class="node">
<title>Node9_1</title>
<ellipse fill="#00bfff" stroke="#00bfff" cx="736" cy="-279" rx="106.68" ry="18"/>
<text text-anchor="middle" x="736" y="-275.3" font-family="Times,serif" font-size="14.00">अवप्लुतः(9.1)</text>
</g>
<!-- Node10_2&#45;&gt;Node9_1 -->
<g id="edge10" class="edge">
<title>Node10_2&#45;&gt;Node9_1</title>
<path fill="none" stroke="black" d="M179.58,-203.64C301.36,-219.91 532.68,-250.83 655.19,-267.2"/>
<polygon fill="black" stroke="black" points="179.95,-200.15 169.58,-202.3 179.03,-207.09 179.95,-200.15"/>
<text text-anchor="middle" x="492" y="-231.8" font-family="Times,serif" font-size="14.00">कर्ता</text>
</g>
<!-- Node2_1 -->
<g id="node3" class="node">
<title>Node2_1</title>
<ellipse fill="#93db70" stroke="#93db70" cx="554" cy="-18" rx="115.88" ry="18"/>
<text text-anchor="middle" x="554" y="-14.3" font-family="Times,serif" font-size="14.00">मुहूर्तम्(2.1)</text>
</g>
<!-- Node4_1 -->
<g id="node4" class="node">
<title>Node4_1</title>
<ellipse fill="#ff99ff" stroke="#ff99ff" cx="462" cy="-105" rx="106.68" ry="18"/>
<text text-anchor="middle" x="462" y="-101.3" font-family="Times,serif" font-size="14.00">ध्यात्वा(4.1)</text>
</g>
<!-- Node2_1&#45;&gt;Node4_1 -->
<g id="edge2" class="edge">
<title>Node2_1&#45;&gt;Node4_1</title>
<path fill="none" stroke="black" d="M528.21,-42.83C512.9,-56.97 493.86,-74.56 480.14,-87.24"/>
<polygon fill="black" stroke="black" points="530.85,-45.15 535.82,-35.79 526.1,-40.01 530.85,-45.15"/>
<text text-anchor="middle" x="591.5" y="-57.8" font-family="Times,serif" font-size="14.00">कालाधिकरणम्</text>
</g>
<!-- Node7_1 -->
<g id="node6" class="node">
<title>Node7_1</title>
<ellipse fill="#ff99ff" stroke="#ff99ff" cx="656" cy="-192" rx="96.68" ry="18"/>
<text text-anchor="middle" x="656" y="-188.3" font-family="Times,serif" font-size="14.00">अधिगम्य(7.1)</text>
</g>
<!-- Node4_1&#45;&gt;Node7_1 -->
<g id="edge4" class="edge">
<title>Node4_1&#45;&gt;Node7_1</title>
<path fill="none" stroke="black" d="M486.27,-129.97C496.82,-139.26 509.78,-149.25 523,-156 543.2,-166.31 566.73,-173.79 588.32,-179.12"/>
<polygon fill="black" stroke="black" points="488.46,-127.23 478.71,-123.08 483.74,-132.4 488.46,-127.23"/>
<text text-anchor="middle" x="587.5" y="-144.8" font-family="Times,serif" font-size="14.00">पूर्वकालः</text>
</g>
<!-- Node3_1 -->
<g id="node5" class="node">
<title>Node3_1</title>
<ellipse fill="#ff99ff" stroke="#ff99ff" cx="370" cy="-18" rx="50.89" ry="18"/>
<text text-anchor="middle" x="370" y="-14.3" font-family="Times,serif" font-size="14.00">इव(3.1)</text>
</g>
<!-- Node3_1&#45;&gt;Node4_1 -->
<g id="edge3" class="edge">
<title>Node3_1&#45;&gt;Node4_1</title>
<path fill="none" stroke="black" d="M372.46,-45.95C374.33,-54.09 377.53,-62.56 383,-69 390.28,-77.58 400.08,-84.13 410.29,-89.11"/>
<polygon fill="black" stroke="black" points="375.89,-45.26 370.74,-36 368.99,-46.45 375.89,-45.26"/>
<text text-anchor="middle" x="440.5" y="-57.8" font-family="Times,serif" font-size="14.00">सम्बन्धः</text>
</g>
<!-- Node7_1&#45;&gt;Node9_1 -->
<g id="edge7" class="edge">
<title>Node7_1&#45;&gt;Node9_1</title>
<path fill="none" stroke="black" d="M651.26,-220.14C651.21,-228.06 652.59,-236.36 657,-243 662.9,-251.87 671.6,-258.51 681.1,-263.48"/>
<polygon fill="black" stroke="black" points="654.75,-220.35 652.01,-210.11 647.77,-219.82 654.75,-220.35"/>
<text text-anchor="middle" x="721.5" y="-231.8" font-family="Times,serif" font-size="14.00">पूर्वकालः</text>
</g>
<!-- Node5_1 -->
<g id="node7" class="node">
<title>Node5_1</title>
<ellipse fill="#40e0d0" stroke="#40e0d0" cx="656" cy="-105" rx="69.59" ry="18"/>
<text text-anchor="middle" x="656" y="-101.3" font-family="Times,serif" font-size="14.00">मनसा(5.1)</text>
</g>
<!-- Node5_1&#45;&gt;Node7_1 -->
<g id="edge5" class="edge">
<title>Node5_1&#45;&gt;Node7_1</title>
<path fill="none" stroke="black" d="M656,-133.27C656,-146.58 656,-162.19 656,-173.82"/>
<polygon fill="black" stroke="black" points="659.5,-133.2 656,-123.2 652.5,-133.2 659.5,-133.2"/>
<text text-anchor="middle" x="692" y="-144.8" font-family="Times,serif" font-size="14.00">करणम्</text>
</g>
<!-- Node6_1 -->
<g id="node8" class="node">
<title>Node6_1</title>
<ellipse fill="#ff99ff" stroke="#ff99ff" cx="812" cy="-192" rx="41.69" ry="18"/>
<text text-anchor="middle" x="812" y="-188.3" font-family="Times,serif" font-size="14.00">च(6.1)</text>
</g>
<!-- Node6_1&#45;&gt;Node9_1 -->
<g id="edge6" class="edge">
<title>Node6_1&#45;&gt;Node9_1</title>
<path fill="none" stroke="black" d="M803.64,-219.61C800.26,-227.69 795.77,-236.22 790,-243 783.85,-250.23 775.82,-256.52 767.86,-261.69"/>
<polygon fill="black" stroke="black" points="806.97,-220.71 807.23,-210.12 800.42,-218.24 806.97,-220.71"/>
<text text-anchor="middle" x="856.5" y="-231.8" font-family="Times,serif" font-size="14.00">सम्बन्धः</text>
</g>
<!-- Node8_1 -->
<g id="node10" class="node">
<title>Node8_1</title>
<ellipse fill="#93db70" stroke="#93db70" cx="813" cy="-105" rx="69.59" ry="18"/>
<text text-anchor="middle" x="813" y="-101.3" font-family="Times,serif" font-size="14.00">ताम्(8.1)</text>
</g>
<!-- Node8_1&#45;&gt;Node7_1 -->
<g id="edge8" class="edge">
<title>Node8_1&#45;&gt;Node7_1</title>
<path fill="none" stroke="black" d="M780.03,-127.61C765.53,-136.78 748.16,-147.33 732,-156 719.45,-162.73 705.38,-169.43 692.78,-175.15"/>
<polygon fill="black" stroke="black" points="782.1,-130.44 788.64,-122.11 778.33,-124.54 782.1,-130.44"/>
<text text-anchor="middle" x="786" y="-144.8" font-family="Times,serif" font-size="14.00">कर्म</text>
</g>
<!-- Node10_1 -->
<g id="node11" class="node">
<title>Node10_1</title>
<ellipse fill="#ffff00" stroke="#ffff00" cx="269" cy="-105" rx="68.79" ry="18"/>
<text text-anchor="middle" x="269" y="-101.3" font-family="Times,serif" font-size="14.00">महा&#45;(10.1)</text>
</g>
<!-- Node10_1&#45;&gt;Node10_2 -->
<g id="edge9" class="edge">
<title>Node10_1&#45;&gt;Node10_2</title>
<path fill="none" stroke="black" d="M244.16,-129.06C233.11,-138.4 219.55,-148.69 206,-156 189.29,-165.02 169.84,-172.26 152.19,-177.77"/>
<polygon fill="black" stroke="black" points="246.48,-131.68 251.73,-122.48 241.89,-126.4 246.48,-131.68"/>
<text text-anchor="middle" x="299.5" y="-144.8" font-family="Times,serif" font-size="14.00">बहुव्रीहिः</text>
</g>
<!-- Node11_1 -->
<g id="node12" class="node">
<title>Node11_1</title>
<ellipse fill="#93db70" stroke="#93db70" cx="995" cy="-192" rx="121.58" ry="18"/>
<text text-anchor="middle" x="995" y="-188.3" font-family="Times,serif" font-size="14.00">प्राकारम्(11.1)</text>
</g>
<!-- Node11_1&#45;&gt;Node9_1 -->
<g id="edge11" class="edge">
<title>Node11_1&#45;&gt;Node9_1</title>
<path fill="none" stroke="black" d="M965.87,-215.75C952.05,-225.5 934.9,-236.19 918,-243 887.86,-255.14 853.17,-263.15 822.21,-268.4"/>
<polygon fill="black" stroke="black" points="967.97,-218.54 974.01,-209.84 963.86,-212.88 967.97,-218.54"/>
<text text-anchor="middle" x="976" y="-231.8" font-family="Times,serif" font-size="14.00">कर्म</text>
</g>
<!-- Node12_1 -->
<g id="node13" class="node">
<title>Node12_1</title>
<ellipse fill="#87ceeb" stroke="#87ceeb" cx="1003" cy="-18" rx="75.29" ry="18"/>
<text text-anchor="middle" x="1003" y="-14.3" font-family="Times,serif" font-size="14.00">तस्य(12.1)</text>
</g>
<!-- Node13_1 -->
<g id="node14" class="node">
<title>Node13_1</title>
<ellipse fill="#87ceeb" stroke="#87ceeb" cx="1003" cy="-105" rx="102.88" ry="18"/>
<text text-anchor="middle" x="1003" y="-101.3" font-family="Times,serif" font-size="14.00">वेश्मनः(13.1)</text>
</g>
<!-- Node12_1&#45;&gt;Node13_1 -->
<g id="edge12" class="edge">
<title>Node12_1&#45;&gt;Node13_1</title>
<path fill="none" stroke="black" d="M1003,-46.27C1003,-59.58 1003,-75.19 1003,-86.82"/>
<polygon fill="black" stroke="black" points="1006.5,-46.2 1003,-36.2 999.5,-46.2 1006.5,-46.2"/>
<text text-anchor="middle" x="1096" y="-57.8" font-family="Times,serif" font-size="14.00">षष्ठीसम्बन्धः</text>
</g>
<!-- Node13_1&#45;&gt;Node11_1 -->
<g id="edge13" class="edge">
<title>Node13_1&#45;&gt;Node11_1</title>
<path fill="none" stroke="black" d="M1000.43,-133.27C999.18,-146.58 997.71,-162.19 996.62,-173.82"/>
<polygon fill="black" stroke="black" points="1003.93,-133.49 1001.38,-123.2 996.96,-132.83 1003.93,-133.49"/>
<text text-anchor="middle" x="1092" y="-144.8" font-family="Times,serif" font-size="14.00">षष्ठीसम्बन्धः</text>
</g>
</g>
</svg>
