<svg xmlns="http://www.w3.org/2000/svg" xmlns:xlink="http://www.w3.org/1999/xlink" width="1612pt" height="305pt" viewBox="0 0 1611.84 305"><g id="graph0" class="graph" transform="scale(1 1) rotate(0) translate(4 301)"><title>G</title><polygon fill="#fffacd" stroke="transparent" points="-4 4 -4 -301 1607.84 -301 1607.84 4 -4 4"/><g id="node1" class="node"><title>Node1_1</title><ellipse cx="96.84" cy="-18" fill="#ff0" stroke="#ff0" rx="63.09" ry="18"/><text x="96.84" y="-14.3" font-family="Times,serif" font-size="14" text-anchor="middle">महा-(1.1)</text></g><g id="node2" class="node"><title>Node1_2</title><ellipse cx="96.84" cy="-105" fill="#87ceeb" stroke="#87ceeb" rx="96.68" ry="18"/><text x="96.84" y="-101.3" font-family="Times,serif" font-size="14" text-anchor="middle">लतानाम्(1.2)</text></g><g id="edge1" class="edge"><title>Node1_1-&gt;Node1_2</title><path fill="none" stroke="#000" d="M96.84,-46.27C96.84,-59.58 96.84,-75.19 96.84,-86.82"/><polygon fill="#000" stroke="#000" points="100.34 -46.2 96.84 -36.2 93.34 -46.2 100.34 -46.2"/><text x="161.34" y="-57.8" font-family="Times,serif" font-size="14" text-anchor="middle">कर्मधारयः</text></g><g id="node3" class="node"><title>Node2_1</title><ellipse cx="127.84" cy="-192" fill="#93db70" stroke="#93db70" rx="87.99" ry="18"/><text x="127.84" y="-188.3" font-family="Times,serif" font-size="14" text-anchor="middle">दामानि(2.1)</text></g><g id="edge2" class="edge"><title>Node1_2-&gt;Node2_1</title><path fill="none" stroke="#000" d="M106.64,-132.87C111.53,-146.27 117.29,-162.08 121.58,-173.82"/><polygon fill="#000" stroke="#000" points="109.83 -131.4 103.11 -123.2 103.25 -133.79 109.83 -131.4"/><text x="207.84" y="-144.8" font-family="Times,serif" font-size="14" text-anchor="middle">षष्ठीसम्बन्धः</text></g><g id="node4" class="node"><title>Node3_1</title><ellipse cx="321.84" cy="-279" fill="#ff1975" stroke="#ff1975" rx="96.68" ry="18"/><text x="321.84" y="-275.3" font-family="Times,serif" font-size="14" text-anchor="middle">व्यधमत्(3.1)</text></g><g id="edge3" class="edge"><title>Node2_1-&gt;Node3_1</title><path fill="none" stroke="#000" d="M172.77,-212.68C207.13,-227.74 253.9,-248.23 285.83,-262.22"/><polygon fill="#000" stroke="#000" points="173.99 -209.4 163.42 -208.59 171.18 -215.81 173.99 -209.4"/><text x="265.84" y="-231.8" font-family="Times,serif" font-size="14" text-anchor="middle">कर्म</text></g><g id="node5" class="node"><title>Node4_1</title><ellipse cx="321.84" cy="-192" fill="#40e0d0" stroke="#40e0d0" rx="69.59" ry="18"/><text x="321.84" y="-188.3" font-family="Times,serif" font-size="14" text-anchor="middle">तरसा(4.1)</text></g><g id="edge4" class="edge"><title>Node4_1-&gt;Node3_1</title><path fill="none" stroke="#000" d="M321.84,-220.27C321.84,-233.58 321.84,-249.19 321.84,-260.82"/><polygon fill="#000" stroke="#000" points="325.34 -220.2 321.84 -210.2 318.34 -220.2 325.34 -220.2"/><text x="357.84" y="-231.8" font-family="Times,serif" font-size="14" text-anchor="middle">करणम्</text></g><g id="node6" class="node"><title>Node5_1</title><ellipse cx="487.84" cy="-192" fill="#00bfff" stroke="#00bfff" rx="69.59" ry="18"/><text x="487.84" y="-188.3" font-family="Times,serif" font-size="14" text-anchor="middle">कपिः(5.1)</text></g><g id="edge5" class="edge"><title>Node5_1-&gt;Node3_1</title><path fill="none" stroke="#000" d="M452.22,-213.6C435.82,-222.88 416,-233.79 397.84,-243 384.89,-249.57 370.46,-256.35 357.68,-262.17"/><polygon fill="#000" stroke="#000" points="453.99 -216.62 460.95 -208.64 450.53 -210.54 453.99 -216.62"/><text x="461.84" y="-231.8" font-family="Times,serif" font-size="14" text-anchor="middle">कर्ता</text></g><g id="node7" class="node"><title>Node6_1</title><ellipse cx="271.84" cy="-105" fill="#f9f" stroke="#f9f" rx="59.59" ry="18"/><text x="271.84" y="-101.3" font-family="Times,serif" font-size="14" text-anchor="middle">यथा(6.1)</text></g><g id="node8" class="node"><title>Node12_1</title><ellipse cx="1009.84" cy="-192" fill="#ff1975" stroke="#ff1975" rx="109.68" ry="18"/><text x="1009.84" y="-188.3" font-family="Times,serif" font-size="14" text-anchor="middle">(व्यधमत्)(12.1)</text></g><g id="edge6" class="edge"><title>Node6_1-&gt;Node12_1</title><path fill="none" stroke="#000" d="M315,-123.75C344.55,-135.05 384.91,-148.87 421.84,-156 510.89,-173.18 758.82,-183.36 902.72,-187.99"/><polygon fill="#000" stroke="#000" points="316 -120.38 305.42 -120.02 313.47 -126.91 316 -120.38"/><text x="479.34" y="-144.8" font-family="Times,serif" font-size="14" text-anchor="middle">सम्बन्धः</text></g><g id="node9" class="node"><title>Node11_1</title><ellipse cx="607.84" cy="-105" fill="#f9f" stroke="#f9f" rx="72.59" ry="18"/><text x="607.84" y="-101.3" font-family="Times,serif" font-size="14" text-anchor="middle">(तथा)(11.1)</text></g><g id="edge7" class="edge"><title>Node6_1-&gt;Node11_1</title><path fill="none" stroke="red" stroke-dasharray="5 2" d="M342.18,-105C395.34,-105 468.48,-105 524.56,-105"/><polygon fill="red" stroke="red" points="341.91 -101.5 331.91 -105 341.91 -108.5 341.91 -101.5"/><polygon fill="red" stroke="red" points="524.83 -108.5 534.83 -105 524.83 -101.5 524.83 -108.5"/><text x="433.34" y="-90.8" font-family="Times,serif" font-size="14" text-anchor="middle">नित्यसम्बन्धः</text></g><g id="edge13" class="edge"><title>Node11_1-&gt;Node5_1</title><path fill="none" stroke="#000" d="M576.81,-127.98C556.11,-142.64 529.35,-161.6 510.61,-174.87"/><polygon fill="#000" stroke="#000" points="578.85 -130.82 584.99 -122.19 574.8 -125.11 578.85 -130.82"/><text x="613.34" y="-144.8" font-family="Times,serif" font-size="14" text-anchor="middle">सम्बन्धः</text></g><g id="node10" class="node"><title>Node7_1</title><ellipse cx="1009.84" cy="-105" fill="#c6e2eb" stroke="#c6e2eb" rx="106.68" ry="18"/><text x="1009.84" y="-101.3" font-family="Times,serif" font-size="14" text-anchor="middle">प्रावृषि(7.1)</text></g><g id="edge8" class="edge"><title>Node7_1-&gt;Node12_1</title><path fill="none" stroke="#000" d="M1009.84,-133.27C1009.84,-146.58 1009.84,-162.19 1009.84,-173.82"/><polygon fill="#000" stroke="#000" points="1013.34 -133.2 1009.84 -123.2 1006.34 -133.2 1013.34 -133.2"/><text x="1088.34" y="-144.8" font-family="Times,serif" font-size="14" text-anchor="middle">कालाधिकरणम्</text></g><g id="node11" class="node"><title>Node8_1</title><ellipse cx="1212.84" cy="-105" fill="#40e0d0" stroke="#40e0d0" rx="78.79" ry="18"/><text x="1212.84" y="-101.3" font-family="Times,serif" font-size="14" text-anchor="middle">वेगेन(8.1)</text></g><g id="edge9" class="edge"><title>Node8_1-&gt;Node12_1</title><path fill="none" stroke="#000" d="M1197.01,-131.07C1190.04,-140.21 1181.1,-149.81 1170.84,-156 1149.9,-168.64 1124.99,-176.74 1101.1,-181.92"/><polygon fill="#000" stroke="#000" points="1199.87 -133.09 1202.83 -122.92 1194.17 -129.02 1199.87 -133.09"/><text x="1223.84" y="-144.8" font-family="Times,serif" font-size="14" text-anchor="middle">करणम्</text></g><g id="node12" class="node"><title>Node9_1</title><ellipse cx="1396.84" cy="-18" fill="#ff0" stroke="#ff0" rx="63.09" ry="18"/><text x="1396.84" y="-14.3" font-family="Times,serif" font-size="14" text-anchor="middle">मेघ-(9.1)</text></g><g id="node13" class="node"><title>Node9_2</title><ellipse cx="1396.84" cy="-105" fill="#93db70" stroke="#93db70" rx="87.99" ry="18"/><text x="1396.84" y="-101.3" font-family="Times,serif" font-size="14" text-anchor="middle">जालानि(9.2)</text></g><g id="edge10" class="edge"><title>Node9_1-&gt;Node9_2</title><path fill="none" stroke="#000" d="M1396.84,-46.27C1396.84,-59.58 1396.84,-75.19 1396.84,-86.82"/><polygon fill="#000" stroke="#000" points="1400.34 -46.2 1396.84 -36.2 1393.34 -46.2 1400.34 -46.2"/><text x="1500.34" y="-57.8" font-family="Times,serif" font-size="14" text-anchor="middle">षष्ठी_तत्पुरुषः</text></g><g id="edge11" class="edge"><title>Node9_2-&gt;Node12_1</title><path fill="none" stroke="#000" d="M1352.58,-125.48C1327.08,-135.98 1294.16,-148.31 1263.84,-156 1212.06,-169.13 1153.02,-177.64 1104.89,-182.97"/><polygon fill="#000" stroke="#000" points="1354.08 -128.64 1361.96 -121.56 1351.39 -122.18 1354.08 -128.64"/><text x="1336.84" y="-144.8" font-family="Times,serif" font-size="14" text-anchor="middle">कर्म</text></g><g id="node14" class="node"><title>Node10_1</title><ellipse cx="791.84" cy="-105" fill="#00bfff" stroke="#00bfff" rx="93.68" ry="18"/><text x="791.84" y="-101.3" font-family="Times,serif" font-size="14" text-anchor="middle">मारुतः(10.1)</text></g><g id="edge12" class="edge"><title>Node10_1-&gt;Node12_1</title><path fill="none" stroke="#000" d="M840.82,-125.1C879.5,-140.18 932.83,-160.97 969.18,-175.15"/><polygon fill="#000" stroke="#000" points="841.91 -121.76 831.32 -121.39 839.36 -128.29 841.91 -121.76"/><text x="949.84" y="-144.8" font-family="Times,serif" font-size="14" text-anchor="middle">कर्ता</text></g></g></svg>