<svg xmlns="http://www.w3.org/2000/svg" xmlns:xlink="http://www.w3.org/1999/xlink" width="1001pt" height="392pt" viewBox="0 0 1001 392"><g id="graph0" class="graph" transform="scale(1 1) rotate(0) translate(4 388)"><title>G</title><polygon fill="#fffacd" stroke="transparent" points="-4 4 -4 -388 997 -388 997 4 -4 4"/><g id="clust1" class="cluster"><title>cluster_1</title><polygon fill="#fffacd" stroke="#000" points="470 -79 470 -218 948 -218 948 -79 470 -79"/></g><g id="clust2" class="cluster"><title>cluster_2</title><polygon fill="#fffacd" stroke="#000" points="8 -166 8 -305 292 -305 292 -166 8 -166"/></g><g id="node1" class="node"><title>Node2_2</title><ellipse cx="575" cy="-105" fill="#93db70" stroke="#93db70" rx="96.68" ry="18"/><text x="575" y="-101.3" font-family="Times,serif" font-size="14" text-anchor="middle">आरोहाम्(2.2)</text></g><g id="node2" class="node"><title>Node3_2</title><ellipse cx="606" cy="-192" fill="#93db70" stroke="#93db70" rx="106.68" ry="18"/><text x="606" y="-188.3" font-family="Times,serif" font-size="14" text-anchor="middle">पुत्रीम्(3.2)</text></g><g id="edge3" class="edge"><title>Node2_2-&gt;Node3_2</title><path fill="none" stroke="#000" d="M584.8,-132.87C589.69,-146.27 595.45,-162.08 599.74,-173.82"/><polygon fill="#000" stroke="#000" points="587.99 -131.4 581.27 -123.2 581.41 -133.79 587.99 -131.4"/><text x="650.5" y="-144.8" font-family="Times,serif" font-size="14" text-anchor="middle">विशेषणम्</text></g><g id="node6" class="node"><title>Node1_1</title><ellipse cx="597" cy="-279" fill="#00bfff" stroke="#00bfff" rx="115.88" ry="18"/><text x="597" y="-275.3" font-family="Times,serif" font-size="14" text-anchor="middle">मार्गमाणः(1.1)</text></g><g id="edge5" class="edge"><title>Node3_2-&gt;Node1_1</title><path fill="none" stroke="#000" d="M603.11,-220.27C601.7,-233.58 600.05,-249.19 598.82,-260.82"/><polygon fill="#000" stroke="#000" points="606.61 -220.51 604.18 -210.2 599.65 -219.78 606.61 -220.51"/><text x="632" y="-231.8" font-family="Times,serif" font-size="14" text-anchor="middle">कर्म</text></g><g id="node3" class="node"><title>Node4_2</title><ellipse cx="815" cy="-105" fill="#93db70" stroke="#93db70" rx="124.58" ry="18"/><text x="815" y="-101.3" font-family="Times,serif" font-size="14" text-anchor="middle">निन्दिताम्(4.2)</text></g><g id="edge7" class="edge"><title>Node4_2-&gt;Node3_2</title><path fill="none" stroke="#000" d="M774.36,-127.28C755.63,-136.68 732.96,-147.5 712,-156 693.95,-163.32 673.74,-170.29 655.84,-176.05"/><polygon fill="#000" stroke="#000" points="776.14 -130.29 783.48 -122.65 772.98 -124.05 776.14 -130.29"/><text x="800.5" y="-144.8" font-family="Times,serif" font-size="14" text-anchor="middle">विशेषणम्</text></g><g id="node4" class="node"><title>Node5_2</title><ellipse cx="150" cy="-192" fill="#93db70" stroke="#93db70" rx="133.78" ry="18"/><text x="150" y="-188.3" font-family="Times,serif" font-size="14" text-anchor="middle">प्रसुप्तान्(5.2)</text></g><g id="node5" class="node"><title>Node6_1</title><ellipse cx="172" cy="-279" fill="#93db70" stroke="#93db70" rx="96.68" ry="18"/><text x="172" y="-275.3" font-family="Times,serif" font-size="14" text-anchor="middle">विहगान्(6.1)</text></g><g id="edge9" class="edge"><title>Node5_2-&gt;Node6_1</title><path fill="none" stroke="#000" d="M157.06,-220.27C160.5,-233.58 164.54,-249.19 167.55,-260.82"/><polygon fill="#000" stroke="#000" points="160.35 -219.01 154.45 -210.2 153.57 -220.76 160.35 -219.01"/><text x="220.5" y="-231.8" font-family="Times,serif" font-size="14" text-anchor="middle">विशेषणम्</text></g><g id="node7" class="node"><title>Node7_1</title><ellipse cx="383" cy="-366" fill="#ff1975" stroke="#ff1975" rx="106.68" ry="18"/><text x="383" y="-362.3" font-family="Times,serif" font-size="14" text-anchor="middle">बोधयामास(7.1)</text></g><g id="edge10" class="edge"><title>Node6_1-&gt;Node7_1</title><path fill="none" stroke="#000" d="M220.38,-299.49C257.81,-314.57 308.95,-335.17 343.83,-349.22"/><polygon fill="#000" stroke="#000" points="221.28 -296.08 210.7 -295.59 218.67 -302.57 221.28 -296.08"/><text x="320" y="-318.8" font-family="Times,serif" font-size="14" text-anchor="middle">कर्म</text></g><g id="edge1" class="edge"><title>Node1_1-&gt;Node7_1</title><path fill="none" stroke="#000" d="M547.42,-299.69C509.51,-314.75 457.92,-335.24 422.71,-349.23"/><polygon fill="#000" stroke="#000" points="548.75 -302.93 556.75 -295.99 546.16 -296.43 548.75 -302.93"/><text x="610" y="-318.8" font-family="Times,serif" font-size="14" text-anchor="middle">वर्तमानसमानकालः</text></g><g id="node8" class="node"><title>Node2_1</title><ellipse cx="575" cy="-18" fill="#ff0" stroke="#ff0" rx="53.89" ry="18"/><text x="575" y="-14.3" font-family="Times,serif" font-size="14" text-anchor="middle">वर-(2.1)</text></g><g id="edge2" class="edge"><title>Node2_1-&gt;Node2_2</title><path fill="none" stroke="#000" d="M575,-46.27C575,-59.58 575,-75.19 575,-86.82"/><polygon fill="#000" stroke="#000" points="578.5 -46.2 575 -36.2 571.5 -46.2 578.5 -46.2"/><text x="639.5" y="-57.8" font-family="Times,serif" font-size="14" text-anchor="middle">कर्मधारयः</text></g><g id="node9" class="node"><title>Node3_1</title><ellipse cx="378" cy="-105" fill="#ff0" stroke="#ff0" rx="63.09" ry="18"/><text x="378" y="-101.3" font-family="Times,serif" font-size="14" text-anchor="middle">राज-(3.1)</text></g><g id="edge4" class="edge"><title>Node3_1-&gt;Node3_2</title><path fill="none" stroke="#000" d="M371.62,-133.23C371.27,-141.38 372.67,-149.79 378,-156 394.43,-175.15 449.92,-183.92 502.04,-187.9"/><polygon fill="#000" stroke="#000" points="375.1 -133.58 372.84 -123.23 368.15 -132.73 375.1 -133.58"/><text x="481.5" y="-144.8" font-family="Times,serif" font-size="14" text-anchor="middle">षष्ठी_तत्पुरुषः</text></g><g id="node10" class="node"><title>Node4_1</title><ellipse cx="815" cy="-18" fill="#ff0" stroke="#ff0" rx="44.39" ry="18"/><text x="815" y="-14.3" font-family="Times,serif" font-size="14" text-anchor="middle">अ-(4.1)</text></g><g id="edge6" class="edge"><title>Node4_1-&gt;Node4_2</title><path fill="none" stroke="#000" d="M815,-46.27C815,-59.58 815,-75.19 815,-86.82"/><polygon fill="#000" stroke="#000" points="818.5 -46.2 815 -36.2 811.5 -46.2 818.5 -46.2"/><text x="904" y="-57.8" font-family="Times,serif" font-size="14" text-anchor="middle">नञ्_तत्पुरुषः</text></g><g id="node11" class="node"><title>Node5_1</title><ellipse cx="134" cy="-105" fill="#ff0" stroke="#ff0" rx="63.09" ry="18"/><text x="134" y="-101.3" font-family="Times,serif" font-size="14" text-anchor="middle">सुख-(5.1)</text></g><g id="edge8" class="edge"><title>Node5_1-&gt;Node5_2</title><path fill="none" stroke="#000" d="M132.66,-133.56C132.82,-140.91 133.45,-148.82 135,-156 136.31,-162.07 138.68,-168.41 141.16,-173.99"/><polygon fill="#000" stroke="#000" points="136.16 -133.34 132.73 -123.31 129.16 -133.29 136.16 -133.34"/><text x="245.5" y="-144.8" font-family="Times,serif" font-size="14" text-anchor="middle">तृतीया_तत्पुरुषः</text></g><g id="node12" class="node"><title>Node8_1</title><ellipse cx="383" cy="-279" fill="#00bfff" stroke="#00bfff" rx="78.79" ry="18"/><text x="383" y="-275.3" font-family="Times,serif" font-size="14" text-anchor="middle">वानरः(8.1)</text></g><g id="edge11" class="edge"><title>Node8_1-&gt;Node7_1</title><path fill="none" stroke="#000" d="M383,-307.27C383,-320.58 383,-336.19 383,-347.82"/><polygon fill="#000" stroke="#000" points="386.5 -307.2 383 -297.2 379.5 -307.2 386.5 -307.2"/><text x="419" y="-318.8" font-family="Times,serif" font-size="14" text-anchor="middle">कर्ता</text></g></g></svg>