<?xml version="1.0" encoding="UTF-8" standalone="no"?>
<!DOCTYPE svg PUBLIC "-//W3C//DTD SVG 1.1//EN"
 "http://www.w3.org/Graphics/SVG/1.1/DTD/svg11.dtd">
<!-- Generated by graphviz version 2.43.0 (0)
 -->
<!-- Title: G Pages: 1 -->
<svg width="1612pt" height="305pt"
 viewBox="0.00 0.00 1611.84 305.00" xmlns="http://www.w3.org/2000/svg" xmlns:xlink="http://www.w3.org/1999/xlink">
<g id="graph0" class="graph" transform="scale(1 1) rotate(0) translate(4 301)">
<title>G</title>
<polygon fill="#fffacd" stroke="transparent" points="-4,4 -4,-301 1607.84,-301 1607.84,4 -4,4"/>
<!-- Node1_1 -->
<g id="node1" class="node">
<title>Node1_1</title>
<ellipse fill="#ffff00" stroke="#ffff00" cx="96.84" cy="-18" rx="63.09" ry="18"/>
<text text-anchor="middle" x="96.84" y="-14.3" font-family="Times,serif" font-size="14.00">महा&#45;(1.1)</text>
</g>
<!-- Node1_2 -->
<g id="node2" class="node">
<title>Node1_2</title>
<ellipse fill="#87ceeb" stroke="#87ceeb" cx="96.84" cy="-105" rx="96.68" ry="18"/>
<text text-anchor="middle" x="96.84" y="-101.3" font-family="Times,serif" font-size="14.00">लतानाम्(1.2)</text>
</g>
<!-- Node1_1&#45;&gt;Node1_2 -->
<g id="edge1" class="edge">
<title>Node1_1&#45;&gt;Node1_2</title>
<path fill="none" stroke="black" d="M96.84,-46.27C96.84,-59.58 96.84,-75.19 96.84,-86.82"/>
<polygon fill="black" stroke="black" points="100.34,-46.2 96.84,-36.2 93.34,-46.2 100.34,-46.2"/>
<text text-anchor="middle" x="161.34" y="-57.8" font-family="Times,serif" font-size="14.00">कर्मधारयः</text>
</g>
<!-- Node2_1 -->
<g id="node3" class="node">
<title>Node2_1</title>
<ellipse fill="#93db70" stroke="#93db70" cx="127.84" cy="-192" rx="87.99" ry="18"/>
<text text-anchor="middle" x="127.84" y="-188.3" font-family="Times,serif" font-size="14.00">दामानि(2.1)</text>
</g>
<!-- Node1_2&#45;&gt;Node2_1 -->
<g id="edge2" class="edge">
<title>Node1_2&#45;&gt;Node2_1</title>
<path fill="none" stroke="black" d="M106.64,-132.87C111.53,-146.27 117.29,-162.08 121.58,-173.82"/>
<polygon fill="black" stroke="black" points="109.83,-131.4 103.11,-123.2 103.25,-133.79 109.83,-131.4"/>
<text text-anchor="middle" x="207.84" y="-144.8" font-family="Times,serif" font-size="14.00">षष्ठीसम्बन्धः</text>
</g>
<!-- Node3_1 -->
<g id="node4" class="node">
<title>Node3_1</title>
<ellipse fill="#ff1975" stroke="#ff1975" cx="321.84" cy="-279" rx="96.68" ry="18"/>
<text text-anchor="middle" x="321.84" y="-275.3" font-family="Times,serif" font-size="14.00">व्यधमत्(3.1)</text>
</g>
<!-- Node2_1&#45;&gt;Node3_1 -->
<g id="edge3" class="edge">
<title>Node2_1&#45;&gt;Node3_1</title>
<path fill="none" stroke="black" d="M172.77,-212.68C207.13,-227.74 253.9,-248.23 285.83,-262.22"/>
<polygon fill="black" stroke="black" points="173.99,-209.4 163.42,-208.59 171.18,-215.81 173.99,-209.4"/>
<text text-anchor="middle" x="265.84" y="-231.8" font-family="Times,serif" font-size="14.00">कर्म</text>
</g>
<!-- Node4_1 -->
<g id="node5" class="node">
<title>Node4_1</title>
<ellipse fill="#40e0d0" stroke="#40e0d0" cx="321.84" cy="-192" rx="69.59" ry="18"/>
<text text-anchor="middle" x="321.84" y="-188.3" font-family="Times,serif" font-size="14.00">तरसा(4.1)</text>
</g>
<!-- Node4_1&#45;&gt;Node3_1 -->
<g id="edge4" class="edge">
<title>Node4_1&#45;&gt;Node3_1</title>
<path fill="none" stroke="black" d="M321.84,-220.27C321.84,-233.58 321.84,-249.19 321.84,-260.82"/>
<polygon fill="black" stroke="black" points="325.34,-220.2 321.84,-210.2 318.34,-220.2 325.34,-220.2"/>
<text text-anchor="middle" x="357.84" y="-231.8" font-family="Times,serif" font-size="14.00">करणम्</text>
</g>
<!-- Node5_1 -->
<g id="node6" class="node">
<title>Node5_1</title>
<ellipse fill="#00bfff" stroke="#00bfff" cx="487.84" cy="-192" rx="69.59" ry="18"/>
<text text-anchor="middle" x="487.84" y="-188.3" font-family="Times,serif" font-size="14.00">कपिः(5.1)</text>
</g>
<!-- Node5_1&#45;&gt;Node3_1 -->
<g id="edge5" class="edge">
<title>Node5_1&#45;&gt;Node3_1</title>
<path fill="none" stroke="black" d="M452.22,-213.6C435.82,-222.88 416,-233.79 397.84,-243 384.89,-249.57 370.46,-256.35 357.68,-262.17"/>
<polygon fill="black" stroke="black" points="453.99,-216.62 460.95,-208.64 450.53,-210.54 453.99,-216.62"/>
<text text-anchor="middle" x="461.84" y="-231.8" font-family="Times,serif" font-size="14.00">कर्ता</text>
</g>
<!-- Node6_1 -->
<g id="node7" class="node">
<title>Node6_1</title>
<ellipse fill="#ff99ff" stroke="#ff99ff" cx="271.84" cy="-105" rx="59.59" ry="18"/>
<text text-anchor="middle" x="271.84" y="-101.3" font-family="Times,serif" font-size="14.00">यथा(6.1)</text>
</g>
<!-- Node12_1 -->
<g id="node8" class="node">
<title>Node12_1</title>
<ellipse fill="#ff1975" stroke="#ff1975" cx="1009.84" cy="-192" rx="109.68" ry="18"/>
<text text-anchor="middle" x="1009.84" y="-188.3" font-family="Times,serif" font-size="14.00">(व्यधमत्)(12.1)</text>
</g>
<!-- Node6_1&#45;&gt;Node12_1 -->
<g id="edge6" class="edge">
<title>Node6_1&#45;&gt;Node12_1</title>
<path fill="none" stroke="black" d="M315,-123.75C344.55,-135.05 384.91,-148.87 421.84,-156 510.89,-173.18 758.82,-183.36 902.72,-187.99"/>
<polygon fill="black" stroke="black" points="316,-120.38 305.42,-120.02 313.47,-126.91 316,-120.38"/>
<text text-anchor="middle" x="479.34" y="-144.8" font-family="Times,serif" font-size="14.00">सम्बन्धः</text>
</g>
<!-- Node11_1 -->
<g id="node9" class="node">
<title>Node11_1</title>
<ellipse fill="#ff99ff" stroke="#ff99ff" cx="607.84" cy="-105" rx="72.59" ry="18"/>
<text text-anchor="middle" x="607.84" y="-101.3" font-family="Times,serif" font-size="14.00">(तथा)(11.1)</text>
</g>
<!-- Node6_1&#45;&gt;Node11_1 -->
<g id="edge7" class="edge">
<title>Node6_1&#45;&gt;Node11_1</title>
<path fill="none" stroke="red" stroke-dasharray="5,2" d="M342.18,-105C395.34,-105 468.48,-105 524.56,-105"/>
<polygon fill="red" stroke="red" points="341.91,-101.5 331.91,-105 341.91,-108.5 341.91,-101.5"/>
<polygon fill="red" stroke="red" points="524.83,-108.5 534.83,-105 524.83,-101.5 524.83,-108.5"/>
<text text-anchor="middle" x="433.34" y="-90.8" font-family="Times,serif" font-size="14.00">नित्यसम्बन्धः</text>
</g>
<!-- Node11_1&#45;&gt;Node5_1 -->
<g id="edge13" class="edge">
<title>Node11_1&#45;&gt;Node5_1</title>
<path fill="none" stroke="black" d="M576.81,-127.98C556.11,-142.64 529.35,-161.6 510.61,-174.87"/>
<polygon fill="black" stroke="black" points="578.85,-130.82 584.99,-122.19 574.8,-125.11 578.85,-130.82"/>
<text text-anchor="middle" x="613.34" y="-144.8" font-family="Times,serif" font-size="14.00">सम्बन्धः</text>
</g>
<!-- Node7_1 -->
<g id="node10" class="node">
<title>Node7_1</title>
<ellipse fill="#c6e2eb" stroke="#c6e2eb" cx="1009.84" cy="-105" rx="106.68" ry="18"/>
<text text-anchor="middle" x="1009.84" y="-101.3" font-family="Times,serif" font-size="14.00">प्रावृषि(7.1)</text>
</g>
<!-- Node7_1&#45;&gt;Node12_1 -->
<g id="edge8" class="edge">
<title>Node7_1&#45;&gt;Node12_1</title>
<path fill="none" stroke="black" d="M1009.84,-133.27C1009.84,-146.58 1009.84,-162.19 1009.84,-173.82"/>
<polygon fill="black" stroke="black" points="1013.34,-133.2 1009.84,-123.2 1006.34,-133.2 1013.34,-133.2"/>
<text text-anchor="middle" x="1088.34" y="-144.8" font-family="Times,serif" font-size="14.00">कालाधिकरणम्</text>
</g>
<!-- Node8_1 -->
<g id="node11" class="node">
<title>Node8_1</title>
<ellipse fill="#40e0d0" stroke="#40e0d0" cx="1212.84" cy="-105" rx="78.79" ry="18"/>
<text text-anchor="middle" x="1212.84" y="-101.3" font-family="Times,serif" font-size="14.00">वेगेन(8.1)</text>
</g>
<!-- Node8_1&#45;&gt;Node12_1 -->
<g id="edge9" class="edge">
<title>Node8_1&#45;&gt;Node12_1</title>
<path fill="none" stroke="black" d="M1197.01,-131.07C1190.04,-140.21 1181.1,-149.81 1170.84,-156 1149.9,-168.64 1124.99,-176.74 1101.1,-181.92"/>
<polygon fill="black" stroke="black" points="1199.87,-133.09 1202.83,-122.92 1194.17,-129.02 1199.87,-133.09"/>
<text text-anchor="middle" x="1223.84" y="-144.8" font-family="Times,serif" font-size="14.00">करणम्</text>
</g>
<!-- Node9_1 -->
<g id="node12" class="node">
<title>Node9_1</title>
<ellipse fill="#ffff00" stroke="#ffff00" cx="1396.84" cy="-18" rx="63.09" ry="18"/>
<text text-anchor="middle" x="1396.84" y="-14.3" font-family="Times,serif" font-size="14.00">मेघ&#45;(9.1)</text>
</g>
<!-- Node9_2 -->
<g id="node13" class="node">
<title>Node9_2</title>
<ellipse fill="#93db70" stroke="#93db70" cx="1396.84" cy="-105" rx="87.99" ry="18"/>
<text text-anchor="middle" x="1396.84" y="-101.3" font-family="Times,serif" font-size="14.00">जालानि(9.2)</text>
</g>
<!-- Node9_1&#45;&gt;Node9_2 -->
<g id="edge10" class="edge">
<title>Node9_1&#45;&gt;Node9_2</title>
<path fill="none" stroke="black" d="M1396.84,-46.27C1396.84,-59.58 1396.84,-75.19 1396.84,-86.82"/>
<polygon fill="black" stroke="black" points="1400.34,-46.2 1396.84,-36.2 1393.34,-46.2 1400.34,-46.2"/>
<text text-anchor="middle" x="1500.34" y="-57.8" font-family="Times,serif" font-size="14.00">षष्ठी_तत्पुरुषः</text>
</g>
<!-- Node9_2&#45;&gt;Node12_1 -->
<g id="edge11" class="edge">
<title>Node9_2&#45;&gt;Node12_1</title>
<path fill="none" stroke="black" d="M1352.58,-125.48C1327.08,-135.98 1294.16,-148.31 1263.84,-156 1212.06,-169.13 1153.02,-177.64 1104.89,-182.97"/>
<polygon fill="black" stroke="black" points="1354.08,-128.64 1361.96,-121.56 1351.39,-122.18 1354.08,-128.64"/>
<text text-anchor="middle" x="1336.84" y="-144.8" font-family="Times,serif" font-size="14.00">कर्म</text>
</g>
<!-- Node10_1 -->
<g id="node14" class="node">
<title>Node10_1</title>
<ellipse fill="#00bfff" stroke="#00bfff" cx="791.84" cy="-105" rx="93.68" ry="18"/>
<text text-anchor="middle" x="791.84" y="-101.3" font-family="Times,serif" font-size="14.00">मारुतः(10.1)</text>
</g>
<!-- Node10_1&#45;&gt;Node12_1 -->
<g id="edge12" class="edge">
<title>Node10_1&#45;&gt;Node12_1</title>
<path fill="none" stroke="black" d="M840.82,-125.1C879.5,-140.18 932.83,-160.97 969.18,-175.15"/>
<polygon fill="black" stroke="black" points="841.91,-121.76 831.32,-121.39 839.36,-128.29 841.91,-121.76"/>
<text text-anchor="middle" x="949.84" y="-144.8" font-family="Times,serif" font-size="14.00">कर्ता</text>
</g>
</g>
</svg>
