<svg xmlns="http://www.w3.org/2000/svg" xmlns:xlink="http://www.w3.org/1999/xlink" width="1504" height="544" viewBox="0 0 1128 408"><g id="graph0" class="graph" transform="scale(1 1) rotate(0) translate(4 404)"><title>G</title><polygon fill="#fffacd" stroke="transparent" points="-4 4 -4 -404 1124 -404 1124 4 -4 4"/><g id="clust1" class="cluster"><title>cluster_1</title><polygon fill="#fffacd" stroke="#000" points="27 -8 27 -147 219 -147 219 -8 27 -8"/></g><g id="clust2" class="cluster"><title>cluster_2</title><polygon fill="#fffacd" stroke="#000" points="8 -182 8 -321 550 -321 550 -182 8 -182"/></g><g id="node1" class="node"><title>Node2_1</title><ellipse cx="123" cy="-34" fill="#40e0d0" stroke="#40e0d0" rx="87.99" ry="18"/><text x="123" y="-30.3" font-family="Times,serif" font-size="14" text-anchor="middle">वेगवता(2.1)</text></g><g id="node2" class="node"><title>Node1_1</title><ellipse cx="123" cy="-121" fill="#40e0d0" stroke="#40e0d0" rx="87.99" ry="18"/><text x="123" y="-117.3" font-family="Times,serif" font-size="14" text-anchor="middle">हनूमता(1.1)</text></g><g id="edge2" class="edge"><title>Node2_1-&gt;Node1_1</title><path fill="none" stroke="#000" d="M123,-62.27C123,-75.58 123,-91.19 123,-102.82"/><polygon fill="#000" stroke="#000" points="126.5 -62.2 123 -52.2 119.5 -62.2 126.5 -62.2"/><text x="180.5" y="-73.8" font-family="Times,serif" font-size="14" text-anchor="middle">विशेषणम्</text></g><g id="node3" class="node"><title>Node3_1</title><ellipse cx="123" cy="-208" fill="#00bfff" stroke="#00bfff" rx="106.68" ry="18"/><text x="123" y="-204.3" font-family="Times,serif" font-size="14" text-anchor="middle">कम्पिताः(3.1)</text></g><g id="edge1" class="edge"><title>Node1_1-&gt;Node3_1</title><path fill="none" stroke="#000" d="M123,-149.27C123,-162.58 123,-178.19 123,-189.82"/><polygon fill="#000" stroke="#000" points="126.5 -149.2 123 -139.2 119.5 -149.2 126.5 -149.2"/><text x="159" y="-160.8" font-family="Times,serif" font-size="14" text-anchor="middle">करणम्</text></g><g id="node4" class="node"><title>Node5_2</title><ellipse cx="427" cy="-295" fill="#00bfff" stroke="#00bfff" rx="96.68" ry="18"/><text x="427" y="-291.3" font-family="Times,serif" font-size="14" text-anchor="middle">उत्तमाः(5.2)</text></g><g id="edge3" class="edge"><title>Node3_1-&gt;Node5_2</title><path fill="none" stroke="#000" d="M147.77,-232.51C159.42,-242.25 174.03,-252.72 189,-259 234.06,-277.9 287.65,-286.84 332.55,-290.97"/><polygon fill="#000" stroke="#000" points="150.06 -229.86 140.21 -225.94 145.47 -235.14 150.06 -229.86"/><text x="246.5" y="-247.8" font-family="Times,serif" font-size="14" text-anchor="middle">विशेषणम्</text></g><g id="node8" class="node"><title>Node8_1</title><ellipse cx="833" cy="-382" fill="#ff1975" stroke="#ff1975" rx="96.68" ry="18"/><text x="833" y="-378.3" font-family="Times,serif" font-size="14" text-anchor="middle">मुमुचुः(8.1)</text></g><g id="edge6" class="edge"><title>Node5_2-&gt;Node8_1</title><path fill="none" stroke="#000" d="M498.8,-311.03C576.11,-327.22 697.84,-352.7 771.09,-368.04"/><polygon fill="#000" stroke="#000" points="499.17 -307.53 488.66 -308.91 497.73 -314.38 499.17 -307.53"/><text x="690" y="-334.8" font-family="Times,serif" font-size="14" text-anchor="middle">कर्ता</text></g><g id="node5" class="node"><title>Node4_1</title><ellipse cx="298" cy="-208" fill="#00bfff" stroke="#00bfff" rx="50.89" ry="18"/><text x="298" y="-204.3" font-family="Times,serif" font-size="14" text-anchor="middle">ते(4.1)</text></g><g id="edge4" class="edge"><title>Node4_1-&gt;Node5_2</title><path fill="none" stroke="#000" d="M304.63,-236.2C307.8,-244.45 312.4,-252.93 319,-259 330.39,-269.47 344.95,-276.81 359.67,-281.96"/><polygon fill="#000" stroke="#000" points="307.87 -234.84 301.43 -226.43 301.21 -237.02 307.87 -234.84"/><text x="376.5" y="-247.8" font-family="Times,serif" font-size="14" text-anchor="middle">विशेषणम्</text></g><g id="node6" class="node"><title>Node9_2</title><ellipse cx="454" cy="-208" fill="#00bfff" stroke="#00bfff" rx="87.99" ry="18"/><text x="454" y="-204.3" font-family="Times,serif" font-size="14" text-anchor="middle">शालिनः(9.2)</text></g><g id="edge12" class="edge"><title>Node9_2-&gt;Node5_2</title><path fill="none" stroke="#000" d="M445.46,-235.87C441.21,-249.27 436.19,-265.08 432.46,-276.82"/><polygon fill="#000" stroke="#000" points="448.84 -236.79 448.54 -226.2 442.17 -234.67 448.84 -236.79"/><text x="499.5" y="-247.8" font-family="Times,serif" font-size="14" text-anchor="middle">विशेषणम्</text></g><g id="node7" class="node"><title>Node5_1</title><ellipse cx="614" cy="-208" fill="#ff0" stroke="#ff0" rx="53.89" ry="18"/><text x="614" y="-204.3" font-family="Times,serif" font-size="14" text-anchor="middle">नग-(5.1)</text></g><g id="edge5" class="edge"><title>Node5_1-&gt;Node5_2</title><path fill="none" stroke="#000" d="M593.28,-233.22C584.21,-242.48 572.93,-252.39 561,-259 541.54,-269.78 518.65,-277.34 497.35,-282.59"/><polygon fill="#000" stroke="#000" points="596.05 -235.38 600.33 -225.68 590.94 -230.59 596.05 -235.38"/><text x="690.5" y="-247.8" font-family="Times,serif" font-size="14" text-anchor="middle">सप्तमी_तत्पुरुषः</text></g><g id="node9" class="node"><title>Node6_1</title><ellipse cx="833" cy="-208" fill="#ff0" stroke="#ff0" rx="81.49" ry="18"/><text x="833" y="-204.3" font-family="Times,serif" font-size="14" text-anchor="middle">पुष्प-(6.1)</text></g><g id="node10" class="node"><title>Node6_3</title><ellipse cx="833" cy="-295" fill="#93db70" stroke="#93db70" rx="78.79" ry="18"/><text x="833" y="-291.3" font-family="Times,serif" font-size="14" text-anchor="middle">फलानि(6.3)</text></g><g id="edge7" class="edge"><title>Node6_1-&gt;Node6_3</title><path fill="none" stroke="#000" d="M833,-236.27C833,-249.58 833,-265.19 833,-276.82"/><polygon fill="#000" stroke="#000" points="836.5 -236.2 833 -226.2 829.5 -236.2 836.5 -236.2"/><text x="897.5" y="-247.8" font-family="Times,serif" font-size="14" text-anchor="middle">द्वन्द्वः</text></g><g id="edge9" class="edge"><title>Node6_3-&gt;Node8_1</title><path fill="none" stroke="#000" d="M833,-323.27C833,-336.58 833,-352.19 833,-363.82"/><polygon fill="#000" stroke="#000" points="836.5 -323.2 833 -313.2 829.5 -323.2 836.5 -323.2"/><text x="862" y="-334.8" font-family="Times,serif" font-size="14" text-anchor="middle">कर्म</text></g><g id="node11" class="node"><title>Node6_2</title><ellipse cx="1004" cy="-208" fill="#ff0" stroke="#ff0" rx="72.29" ry="18"/><text x="1004" y="-204.3" font-family="Times,serif" font-size="14" text-anchor="middle">पत्र-(6.2)</text></g><g id="edge8" class="edge"><title>Node6_2-&gt;Node6_3</title><path fill="none" stroke="#000" d="M989.33,-234.8C983.16,-243.63 975.25,-252.82 966,-259 953.39,-267.42 920.56,-276.1 890.68,-282.71"/><polygon fill="#000" stroke="#000" points="992.39 -236.52 994.91 -226.23 986.52 -232.7 992.39 -236.52"/><text x="1045.5" y="-247.8" font-family="Times,serif" font-size="14" text-anchor="middle">द्वन्द्वः</text></g><g id="node12" class="node"><title>Node7_1</title><ellipse cx="989" cy="-295" fill="#f9f" stroke="#f9f" rx="59.59" ry="18"/><text x="989" y="-291.3" font-family="Times,serif" font-size="14" text-anchor="middle">आशु(7.1)</text></g><g id="edge10" class="edge"><title>Node7_1-&gt;Node8_1</title><path fill="none" stroke="#000" d="M952.59,-315.84C925.23,-330.75 888.21,-350.92 862.64,-364.85"/><polygon fill="#000" stroke="#000" points="954.36 -318.86 961.47 -311 951.01 -312.71 954.36 -318.86"/><text x="1020" y="-334.8" font-family="Times,serif" font-size="14" text-anchor="middle">क्रियाविशेषणम्</text></g><g id="node13" class="node"><title>Node9_1</title><ellipse cx="454" cy="-121" fill="#ff0" stroke="#ff0" rx="53.89" ry="18"/><text x="454" y="-117.3" font-family="Times,serif" font-size="14" text-anchor="middle">फल-(9.1)</text></g><g id="edge11" class="edge"><title>Node9_1-&gt;Node9_2</title><path fill="none" stroke="#000" d="M454,-149.27C454,-162.58 454,-178.19 454,-189.82"/><polygon fill="#000" stroke="#000" points="457.5 -149.2 454 -139.2 450.5 -149.2 457.5 -149.2"/><text x="550.5" y="-160.8" font-family="Times,serif" font-size="14" text-anchor="middle">उपपद_तत्पुरुषः</text></g></g></svg>