<svg xmlns="http://www.w3.org/2000/svg" xmlns:xlink="http://www.w3.org/1999/xlink" width="2092" height="544" viewBox="0 0 1569 408"><g id="graph0" class="graph" transform="scale(1 1) rotate(0) translate(4 404)"><title>G</title><polygon fill="#fffacd" stroke="transparent" points="-4 4 -4 -404 1565 -404 1565 4 -4 4"/><g id="clust1" class="cluster"><title>cluster_1</title><polygon fill="#fffacd" stroke="#000" points="835 -253 835 -392 1045 -392 1045 -253 835 -253"/></g><g id="clust2" class="cluster"><title>cluster_2</title><polygon fill="#fffacd" stroke="#000" points="812 -79 812 -218 1096 -218 1096 -79 812 -79"/></g><g id="clust3" class="cluster"><title>cluster_3</title><polygon fill="#fffacd" stroke="#000" points="8 -166 8 -305 461 -305 461 -166 8 -166"/></g><g id="node1" class="node"><title>Node2_1</title><ellipse cx="940" cy="-279" fill="#ff1975" stroke="#ff1975" rx="96.68" ry="18"/><text x="940" y="-275.3" font-family="Times,serif" font-size="14" text-anchor="middle">अपश्यत्(2.1)</text></g><g id="node2" class="node"><title>Node9_1</title><ellipse cx="922" cy="-366" fill="#ff1975" stroke="#ff1975" rx="78.79" ry="18"/><text x="922" y="-362.3" font-family="Times,serif" font-size="14" text-anchor="middle">ददर्श(9.1)</text></g><g id="edge3" class="edge"><title>Node2_1-&gt;Node9_1</title><path fill="none" stroke="#000" d="M934.23,-307.27C931.41,-320.58 928.1,-336.19 925.64,-347.82"/><polygon fill="#000" stroke="#000" points="937.71 -307.71 936.36 -297.2 930.86 -306.26 937.71 -307.71"/><text x="997.5" y="-318.8" font-family="Times,serif" font-size="14" text-anchor="middle">समुच्चितः</text></g><g id="node3" class="node"><title>Node5_2</title><ellipse cx="954" cy="-105" fill="#93db70" stroke="#93db70" rx="133.78" ry="18"/><text x="954" y="-101.3" font-family="Times,serif" font-size="14" text-anchor="middle">प्रस्रवणानि(5.2)</text></g><g id="node4" class="node"><title>Node3_2</title><ellipse cx="979" cy="-192" fill="#93db70" stroke="#93db70" rx="87.99" ry="18"/><text x="979" y="-188.3" font-family="Times,serif" font-size="14" text-anchor="middle">भागान्(3.2)</text></g><g id="edge8" class="edge"><title>Node5_2-&gt;Node3_2</title><path fill="none" stroke="#000" d="M961.9,-132.87C965.84,-146.27 970.49,-162.08 973.95,-173.82"/><polygon fill="#000" stroke="#000" points="965.24 -131.81 959.06 -123.2 958.52 -133.78 965.24 -131.81"/><text x="1032.5" y="-144.8" font-family="Times,serif" font-size="14" text-anchor="middle">समुच्चितः</text></g><g id="edge5" class="edge"><title>Node3_2-&gt;Node2_1</title><path fill="none" stroke="#000" d="M966.85,-219.48C960.67,-232.96 953.32,-248.96 947.88,-260.82"/><polygon fill="#000" stroke="#000" points="970.12 -220.75 971.11 -210.2 963.76 -217.83 970.12 -220.75"/><text x="991" y="-231.8" font-family="Times,serif" font-size="14" text-anchor="middle">कर्म</text></g><g id="node5" class="node"><title>Node8_1</title><ellipse cx="365" cy="-192" fill="#93db70" stroke="#93db70" rx="87.99" ry="18"/><text x="365" y="-188.3" font-family="Times,serif" font-size="14" text-anchor="middle">अपरान्(8.1)</text></g><g id="node6" class="node"><title>Node7_2</title><ellipse cx="342" cy="-279" fill="#93db70" stroke="#93db70" rx="106.68" ry="18"/><text x="342" y="-275.3" font-family="Times,serif" font-size="14" text-anchor="middle">वृक्षान्(7.2)</text></g><g id="edge12" class="edge"><title>Node8_1-&gt;Node7_2</title><path fill="none" stroke="#000" d="M357.73,-219.87C354.1,-233.27 349.83,-249.08 346.65,-260.82"/><polygon fill="#000" stroke="#000" points="361.11 -220.77 360.35 -210.2 354.36 -218.94 361.11 -220.77"/><text x="412.5" y="-231.8" font-family="Times,serif" font-size="14" text-anchor="middle">विशेषणम्</text></g><g id="edge11" class="edge"><title>Node7_2-&gt;Node9_1</title><path fill="none" stroke="#000" d="M429.72,-292.99C498.15,-303.12 595.62,-317.5 681,-330 740.82,-338.76 809.01,-348.65 857.55,-355.68"/><polygon fill="#000" stroke="#000" points="429.81 -289.47 419.41 -291.47 428.79 -296.39 429.81 -289.47"/><text x="710" y="-318.8" font-family="Times,serif" font-size="14" text-anchor="middle">कर्म</text></g><g id="node7" class="node"><title>Node10_2</title><ellipse cx="138" cy="-192" fill="#93db70" stroke="#93db70" rx="121.58" ry="18"/><text x="138" y="-188.3" font-family="Times,serif" font-size="14" text-anchor="middle">सन्निभान्(10.2)</text></g><g id="edge14" class="edge"><title>Node10_2-&gt;Node7_2</title><path fill="none" stroke="#000" d="M176.04,-214.68C193.39,-224.08 214.4,-234.79 234,-243 252,-250.54 272.23,-257.48 290.27,-263.16"/><polygon fill="#000" stroke="#000" points="177.25 -211.35 166.8 -209.61 173.89 -217.49 177.25 -211.35"/><text x="291.5" y="-231.8" font-family="Times,serif" font-size="14" text-anchor="middle">विशेषणम्</text></g><g id="node8" class="node"><title>Node1_1</title><ellipse cx="753" cy="-192" fill="#00bfff" stroke="#00bfff" rx="50.89" ry="18"/><text x="753" y="-188.3" font-family="Times,serif" font-size="14" text-anchor="middle">सः(1.1)</text></g><g id="edge1" class="edge"><title>Node1_1-&gt;Node2_1</title><path fill="none" stroke="#000" d="M792.47,-210.94C825.76,-226.07 872.95,-247.52 904.93,-262.06"/><polygon fill="#000" stroke="#000" points="793.6 -207.61 783.04 -206.66 790.7 -213.98 793.6 -207.61"/><text x="894" y="-231.8" font-family="Times,serif" font-size="14" text-anchor="middle">कर्ता</text></g><g id="edge2" class="edge"><title>Node1_1-&gt;Node9_1</title><path fill="none" stroke="#000" stroke-dasharray="1 5" d="M747.6,-220.24C744.34,-244.87 743.79,-280.85 762,-305 783.79,-333.9 821.15,-348.88 854.29,-356.65"/><polygon fill="#000" stroke="#000" points="751.09 -220.55 749.18 -210.14 744.18 -219.48 751.09 -220.55"/><text x="798" y="-275.3" font-family="Times,serif" font-size="14" text-anchor="middle">कर्ता</text></g><g id="node9" class="node"><title>Node3_1</title><ellipse cx="1178" cy="-105" fill="#ff0" stroke="#ff0" rx="72.29" ry="18"/><text x="1178" y="-101.3" font-family="Times,serif" font-size="14" text-anchor="middle">भूमि-(3.1)</text></g><g id="edge4" class="edge"><title>Node3_1-&gt;Node3_2</title><path fill="none" stroke="#000" d="M1148.57,-128.06C1134.7,-137.67 1117.58,-148.45 1101,-156 1080.65,-165.28 1057.26,-172.7 1036.43,-178.28"/><polygon fill="#000" stroke="#000" points="1150.62 -130.9 1156.76 -122.26 1146.58 -125.18 1150.62 -130.9"/><text x="1231.5" y="-144.8" font-family="Times,serif" font-size="14" text-anchor="middle">षष्ठी_तत्पुरुषः</text></g><g id="node10" class="node"><title>Node4_1</title><ellipse cx="1374" cy="-105" fill="#f9f" stroke="#f9f" rx="41.69" ry="18"/><text x="1374" y="-101.3" font-family="Times,serif" font-size="14" text-anchor="middle">च(4.1)</text></g><g id="edge6" class="edge"><title>Node4_1-&gt;Node3_2</title><path fill="none" stroke="#000" d="M1361.86,-131.81C1356.22,-140.97 1348.61,-150.39 1339,-156 1294.33,-182.08 1158.06,-189.09 1066.58,-190.77"/><polygon fill="#000" stroke="#000" points="1365.03 -133.32 1366.84 -122.89 1358.91 -129.91 1365.03 -133.32"/><text x="1457.5" y="-144.8" font-family="Times,serif" font-size="14" text-anchor="middle">समुच्चय_द्योतकः</text></g><g id="node11" class="node"><title>Node5_1</title><ellipse cx="954" cy="-18" fill="#ff0" stroke="#ff0" rx="53.89" ry="18"/><text x="954" y="-14.3" font-family="Times,serif" font-size="14" text-anchor="middle">नग-(5.1)</text></g><g id="edge7" class="edge"><title>Node5_1-&gt;Node5_2</title><path fill="none" stroke="#000" d="M954,-46.27C954,-59.58 954,-75.19 954,-86.82"/><polygon fill="#000" stroke="#000" points="957.5 -46.2 954 -36.2 950.5 -46.2 957.5 -46.2"/><text x="1057.5" y="-57.8" font-family="Times,serif" font-size="14" text-anchor="middle">षष्ठी_तत्पुरुषः</text></g><g id="node12" class="node"><title>Node6_1</title><ellipse cx="1096" cy="-279" fill="#f9f" stroke="#f9f" rx="41.69" ry="18"/><text x="1096" y="-275.3" font-family="Times,serif" font-size="14" text-anchor="middle">च(6.1)</text></g><g id="edge9" class="edge"><title>Node6_1-&gt;Node9_1</title><path fill="none" stroke="#000" d="M1085.22,-306.42C1080.5,-315.08 1074.14,-324.01 1066,-330 1045.28,-345.25 1018.77,-353.93 994.16,-358.84"/><polygon fill="#000" stroke="#000" points="1088.44 -307.8 1089.71 -297.28 1082.16 -304.71 1088.44 -307.8"/><text x="1183.5" y="-318.8" font-family="Times,serif" font-size="14" text-anchor="middle">समुच्चय_द्योतकः</text></g><g id="node13" class="node"><title>Node7_1</title><ellipse cx="562" cy="-192" fill="#ff0" stroke="#ff0" rx="90.98" ry="18"/><text x="562" y="-188.3" font-family="Times,serif" font-size="14" text-anchor="middle">सुवर्ण-(7.1)</text></g><g id="edge10" class="edge"><title>Node7_1-&gt;Node7_2</title><path fill="none" stroke="#000" d="M528.14,-214.96C512.2,-224.58 492.63,-235.39 474,-243 452.49,-251.79 428.11,-258.98 406.2,-264.5"/><polygon fill="#000" stroke="#000" points="530.39 -217.68 537.08 -209.46 526.73 -211.72 530.39 -217.68"/><text x="608.5" y="-231.8" font-family="Times,serif" font-size="14" text-anchor="middle">षष्ठी_तत्पुरुषः</text></g><g id="node14" class="node"><title>Node10_1</title><ellipse cx="138" cy="-105" fill="#ff0" stroke="#ff0" rx="77.99" ry="18"/><text x="138" y="-101.3" font-family="Times,serif" font-size="14" text-anchor="middle">शिखि-(10.1)</text></g><g id="edge13" class="edge"><title>Node10_1-&gt;Node10_2</title><path fill="none" stroke="#000" d="M138,-133.27C138,-146.58 138,-162.19 138,-173.82"/><polygon fill="#000" stroke="#000" points="141.5 -133.2 138 -123.2 134.5 -133.2 141.5 -133.2"/><text x="202.5" y="-144.8" font-family="Times,serif" font-size="14" text-anchor="middle">कर्मधारयः</text></g></g></svg>