<svg xmlns="http://www.w3.org/2000/svg" xmlns:xlink="http://www.w3.org/1999/xlink" width="2491pt" height="392pt" viewBox="0 0 2490.79 392"><g id="graph0" class="graph" transform="scale(1 1) rotate(0) translate(4 388)"><title>G</title><polygon fill="#fffacd" stroke="transparent" points="-4 4 -4 -388 2486.79 -388 2486.79 4 -4 4"/><g id="clust1" class="cluster"><title>cluster_1</title><polygon fill="#fffacd" stroke="#000" points="344.79 -166 344.79 -305 1162.79 -305 1162.79 -166 344.79 -166"/></g><g id="clust2" class="cluster"><title>cluster_2</title><polygon fill="#fffacd" stroke="#000" points="1814.79 -166 1814.79 -305 2391.79 -305 2391.79 -166 1814.79 -166"/></g><g id="clust3" class="cluster"><title>cluster_3</title><polygon fill="#fffacd" stroke="#000" points="1618.79 -79 1618.79 -218 1802.79 -218 1802.79 -79 1618.79 -79"/></g><g id="node1" class="node"><title>Node1_1</title><ellipse cx="1103.79" cy="-192" fill="#00bfff" stroke="#00bfff" rx="50.89" ry="18"/><text x="1103.79" y="-188.3" font-family="Times,serif" font-size="14" text-anchor="middle">सा(1.1)</text></g><g id="node2" class="node"><title>Node10_1</title><ellipse cx="685.79" cy="-279" fill="#00bfff" stroke="#00bfff" rx="84.49" ry="18"/><text x="685.79" y="-275.3" font-family="Times,serif" font-size="14" text-anchor="middle">जानकी(10.1)</text></g><g id="edge1" class="edge"><title>Node1_1-&gt;Node10_1</title><path fill="none" stroke="#000" d="M1072.84,-214.03C1055.85,-224.51 1033.98,-236.34 1012.79,-243 933,-268.08 837.44,-275.92 770.3,-278.03"/><polygon fill="#000" stroke="#000" points="1075.16 -216.7 1081.74 -208.39 1071.42 -210.79 1075.16 -216.7"/><text x="1104.29" y="-231.8" font-family="Times,serif" font-size="14" text-anchor="middle">विशेषणम्</text></g><g id="node16" class="node"><title>Node9_1</title><ellipse cx="239.79" cy="-366" fill="#ff1975" stroke="#ff1975" rx="87.99" ry="18"/><text x="239.79" y="-362.3" font-family="Times,serif" font-size="14" text-anchor="middle">एष्यति(9.1)</text></g><g id="edge12" class="edge"><title>Node10_1-&gt;Node9_1</title><path fill="none" stroke="#000" d="M615.2,-293.45C528.82,-309.92 383.94,-337.53 301.71,-353.2"/><polygon fill="#000" stroke="#000" points="616.01 -296.86 625.18 -291.55 614.7 -289.99 616.01 -296.86"/><text x="524.79" y="-318.8" font-family="Times,serif" font-size="14" text-anchor="middle">कर्ता</text></g><g id="node3" class="node"><title>Node2_1</title><ellipse cx="965.79" cy="-192" fill="#00bfff" stroke="#00bfff" rx="69.59" ry="18"/><text x="965.79" y="-188.3" font-family="Times,serif" font-size="14" text-anchor="middle">रामा(2.1)</text></g><g id="edge2" class="edge"><title>Node2_1-&gt;Node10_1</title><path fill="none" stroke="#000" d="M926.4,-213.01C917,-217.86 907.01,-223.07 897.79,-228 885.69,-234.48 883.7,-238.33 870.79,-243 834.83,-256.01 793.1,-264.44 758.38,-269.75"/><polygon fill="#000" stroke="#000" points="928.26 -215.99 935.56 -208.3 925.07 -209.76 928.26 -215.99"/><text x="955.29" y="-231.8" font-family="Times,serif" font-size="14" text-anchor="middle">विशेषणम्</text></g><g id="node4" class="node"><title>Node3_2</title><ellipse cx="431.79" cy="-192" fill="#00bfff" stroke="#00bfff" rx="78.79" ry="18"/><text x="431.79" y="-188.3" font-family="Times,serif" font-size="14" text-anchor="middle">महिषी(3.2)</text></g><g id="edge4" class="edge"><title>Node3_2-&gt;Node10_1</title><path fill="none" stroke="#000" d="M455.25,-216.58C466.12,-226.2 479.73,-236.56 493.79,-243 528.91,-259.08 570.83,-267.78 606.52,-272.49"/><polygon fill="#000" stroke="#000" points="457.59 -213.97 447.86 -209.77 452.84 -219.12 457.59 -213.97"/><text x="551.29" y="-231.8" font-family="Times,serif" font-size="14" text-anchor="middle">विशेषणम्</text></g><g id="node5" class="node"><title>Node5_1</title><ellipse cx="615.79" cy="-192" fill="#00bfff" stroke="#00bfff" rx="87.99" ry="18"/><text x="615.79" y="-188.3" font-family="Times,serif" font-size="14" text-anchor="middle">प्रिया(5.1)</text></g><g id="edge6" class="edge"><title>Node5_1-&gt;Node10_1</title><path fill="none" stroke="#000" d="M612.56,-220.06C612.84,-227.98 614.46,-236.3 618.79,-243 624.43,-251.7 632.97,-258.37 642.08,-263.42"/><polygon fill="#000" stroke="#000" points="616.06 -220.14 612.83 -210.05 609.06 -219.95 616.06 -220.14"/><text x="676.29" y="-231.8" font-family="Times,serif" font-size="14" text-anchor="middle">विशेषणम्</text></g><g id="node6" class="node"><title>Node7_3</title><ellipse cx="799.79" cy="-192" fill="#00bfff" stroke="#00bfff" rx="78.79" ry="18"/><text x="799.79" y="-188.3" font-family="Times,serif" font-size="14" text-anchor="middle">कुशला(7.3)</text></g><g id="edge10" class="edge"><title>Node7_3-&gt;Node10_1</title><path fill="none" stroke="#000" d="M769.92,-215.82C758.63,-224.39 745.65,-234.18 733.79,-243 725.68,-249.03 716.75,-255.57 708.81,-261.35"/><polygon fill="#000" stroke="#000" points="772.33 -218.38 778.17 -209.54 768.09 -212.81 772.33 -218.38"/><text x="809.29" y="-231.8" font-family="Times,serif" font-size="14" text-anchor="middle">विशेषणम्</text></g><g id="node7" class="node"><title>Node12_2</title><ellipse cx="1906.79" cy="-192" fill="#00bfff" stroke="#00bfff" rx="84.49" ry="18"/><text x="1906.79" y="-188.3" font-family="Times,serif" font-size="14" text-anchor="middle">अक्षी(12.2)</text></g><g id="node8" class="node"><title>Node15_1</title><ellipse cx="1935.79" cy="-279" fill="#00bfff" stroke="#00bfff" rx="112.38" ry="18"/><text x="1935.79" y="-275.3" font-family="Times,serif" font-size="14" text-anchor="middle">विचक्षणा(15.1)</text></g><g id="edge15" class="edge"><title>Node12_2-&gt;Node15_1</title><path fill="none" stroke="#000" d="M1915.96,-219.87C1920.53,-233.27 1925.93,-249.08 1929.93,-260.82"/><polygon fill="#000" stroke="#000" points="1919.2 -218.54 1912.66 -210.2 1912.58 -220.8 1919.2 -218.54"/><text x="1980.29" y="-231.8" font-family="Times,serif" font-size="14" text-anchor="middle">विशेषणम्</text></g><g id="node21" class="node"><title>Node17_1</title><ellipse cx="1568.79" cy="-366" fill="#ff1975" stroke="#ff1975" rx="93.68" ry="18"/><text x="1568.79" y="-362.3" font-family="Times,serif" font-size="14" text-anchor="middle">एष्यति(17.1)</text></g><g id="edge18" class="edge"><title>Node15_1-&gt;Node17_1</title><path fill="none" stroke="#000" d="M1922.38,-306.18C1916.4,-315.21 1908.5,-324.45 1898.79,-330 1859.6,-352.42 1744.68,-360.51 1661.47,-363.41"/><polygon fill="#000" stroke="#000" points="1925.53 -307.73 1927.7 -297.36 1919.54 -304.11 1925.53 -307.73"/><text x="1950.79" y="-318.8" font-family="Times,serif" font-size="14" text-anchor="middle">कर्ता</text></g><g id="node9" class="node"><title>Node18_1</title><ellipse cx="2065.79" cy="-192" fill="#00bfff" stroke="#00bfff" rx="56.59" ry="18"/><text x="2065.79" y="-188.3" font-family="Times,serif" font-size="14" text-anchor="middle">सा(18.1)</text></g><g id="edge20" class="edge"><title>Node18_1-&gt;Node15_1</title><path fill="none" stroke="#000" d="M2057.72,-219.57C2054.03,-228.03 2048.86,-236.79 2041.79,-243 2030.95,-252.53 2017.44,-259.48 2003.74,-264.54"/><polygon fill="#000" stroke="#000" points="2061.1 -220.55 2061.4 -209.96 2054.56 -218.05 2061.1 -220.55"/><text x="2110.29" y="-231.8" font-family="Times,serif" font-size="14" text-anchor="middle">विशेषणम्</text></g><g id="node10" class="node"><title>Node21_3</title><ellipse cx="2261.79" cy="-192" fill="#00bfff" stroke="#00bfff" rx="121.58" ry="18"/><text x="2261.79" y="-188.3" font-family="Times,serif" font-size="14" text-anchor="middle">सुकर्शिता(21.3)</text></g><g id="edge25" class="edge"><title>Node21_3-&gt;Node15_1</title><path fill="none" stroke="#000" d="M2228.64,-215.2C2212.2,-225.2 2191.65,-236.26 2171.79,-243 2128.85,-257.58 2079.46,-266.09 2037,-271.05"/><polygon fill="#000" stroke="#000" points="2230.69 -218.04 2237.32 -209.78 2226.99 -212.11 2230.69 -218.04"/><text x="2262.29" y="-231.8" font-family="Times,serif" font-size="14" text-anchor="middle">विशेषणम्</text></g><g id="node11" class="node"><title>Node14_1</title><ellipse cx="1701.79" cy="-105" fill="#87ceeb" stroke="#87ceeb" rx="75.29" ry="18"/><text x="1701.79" y="-101.3" font-family="Times,serif" font-size="14" text-anchor="middle">अस्य(14.1)</text></g><g id="node12" class="node"><title>Node13_1</title><ellipse cx="1710.79" cy="-192" fill="#87ceeb" stroke="#87ceeb" rx="84.49" ry="18"/><text x="1710.79" y="-188.3" font-family="Times,serif" font-size="14" text-anchor="middle">वनस्य(13.1)</text></g><g id="edge17" class="edge"><title>Node14_1-&gt;Node13_1</title><path fill="none" stroke="#000" d="M1704.68,-133.27C1706.09,-146.58 1707.74,-162.19 1708.98,-173.82"/><polygon fill="#000" stroke="#000" points="1708.15 -132.78 1703.62 -123.2 1701.19 -133.51 1708.15 -132.78"/><text x="1764.29" y="-144.8" font-family="Times,serif" font-size="14" text-anchor="middle">विशेषणम्</text></g><g id="edge16" class="edge"><title>Node13_1-&gt;Node15_1</title><path fill="none" stroke="#000" d="M1714.99,-220.07C1717.62,-228.56 1721.88,-237.22 1728.79,-243 1733.86,-247.24 1799.6,-257.9 1855.65,-266.36"/><polygon fill="#000" stroke="#000" points="1718.39 -219.23 1712.61 -210.35 1711.6 -220.9 1718.39 -219.23"/><text x="1821.79" y="-231.8" font-family="Times,serif" font-size="14" text-anchor="middle">षष्ठीसम्बन्धः</text></g><g id="node13" class="node"><title>Node3_1</title><ellipse cx="385.79" cy="-105" fill="#ff0" stroke="#ff0" rx="63.09" ry="18"/><text x="385.79" y="-101.3" font-family="Times,serif" font-size="14" text-anchor="middle">राज-(3.1)</text></g><g id="edge3" class="edge"><title>Node3_1-&gt;Node3_2</title><path fill="none" stroke="#000" d="M394.35,-132.86C397.23,-140.55 400.76,-148.79 404.79,-156 408.32,-162.3 412.89,-168.69 417.27,-174.25"/><polygon fill="#000" stroke="#000" points="397.57 -131.48 390.94 -123.22 390.97 -133.82 397.57 -131.48"/><text x="508.29" y="-144.8" font-family="Times,serif" font-size="14" text-anchor="middle">षष्ठी_तत्पुरुषः</text></g><g id="node14" class="node"><title>Node4_1</title><ellipse cx="615.79" cy="-105" fill="#87ceeb" stroke="#87ceeb" rx="96.68" ry="18"/><text x="615.79" y="-101.3" font-family="Times,serif" font-size="14" text-anchor="middle">राघवस्य(4.1)</text></g><g id="edge5" class="edge"><title>Node4_1-&gt;Node5_1</title><path fill="none" stroke="#000" d="M615.79,-133.27C615.79,-146.58 615.79,-162.19 615.79,-173.82"/><polygon fill="#000" stroke="#000" points="619.29 -133.2 615.79 -123.2 612.29 -133.2 619.29 -133.2"/><text x="708.79" y="-144.8" font-family="Times,serif" font-size="14" text-anchor="middle">षष्ठीसम्बन्धः</text></g><g id="node15" class="node"><title>Node6_1</title><ellipse cx="59.79" cy="-279" fill="#f9f" stroke="#f9f" rx="59.59" ry="18"/><text x="59.79" y="-275.3" font-family="Times,serif" font-size="14" text-anchor="middle">सदा(6.1)</text></g><g id="edge7" class="edge"><title>Node6_1-&gt;Node9_1</title><path fill="none" stroke="#000" d="M64.71,-306.91C67.52,-315.39 71.92,-324.08 78.79,-330 92.29,-341.62 130.74,-350.21 166.67,-355.98"/><polygon fill="#000" stroke="#000" points="68.09 -305.97 62.1 -297.23 61.33 -307.79 68.09 -305.97"/><text x="157.29" y="-318.8" font-family="Times,serif" font-size="14" text-anchor="middle">कालाधिकरणम्</text></g><g id="node17" class="node"><title>Node7_1</title><ellipse cx="824.79" cy="-18" fill="#ff0" stroke="#ff0" rx="53.89" ry="18"/><text x="824.79" y="-14.3" font-family="Times,serif" font-size="14" text-anchor="middle">वन-(7.1)</text></g><g id="node18" class="node"><title>Node7_2</title><ellipse cx="824.79" cy="-105" fill="#ff0" stroke="#ff0" rx="90.98" ry="18"/><text x="824.79" y="-101.3" font-family="Times,serif" font-size="14" text-anchor="middle">सञ्चार-(7.2)</text></g><g id="edge8" class="edge"><title>Node7_1-&gt;Node7_2</title><path fill="none" stroke="#000" d="M824.79,-46.27C824.79,-59.58 824.79,-75.19 824.79,-86.82"/><polygon fill="#000" stroke="#000" points="828.29 -46.2 824.79 -36.2 821.29 -46.2 828.29 -46.2"/><text x="928.29" y="-57.8" font-family="Times,serif" font-size="14" text-anchor="middle">षष्ठी_तत्पुरुषः</text></g><g id="edge9" class="edge"><title>Node7_2-&gt;Node7_3</title><path fill="none" stroke="#000" d="M816.89,-132.87C812.95,-146.27 808.3,-162.08 804.85,-173.82"/><polygon fill="#000" stroke="#000" points="820.27 -133.78 819.74 -123.2 813.56 -131.81 820.27 -133.78"/><text x="923.29" y="-144.8" font-family="Times,serif" font-size="14" text-anchor="middle">सप्तमी_तत्पुरुषः</text></g><g id="node19" class="node"><title>Node8_1</title><ellipse cx="239.79" cy="-279" fill="#f9f" stroke="#f9f" rx="96.68" ry="18"/><text x="239.79" y="-275.3" font-family="Times,serif" font-size="14" text-anchor="middle">ध्रुवम्(8.1)</text></g><g id="edge11" class="edge"><title>Node8_1-&gt;Node9_1</title><path fill="none" stroke="#000" d="M239.79,-307.27C239.79,-320.58 239.79,-336.19 239.79,-347.82"/><polygon fill="#000" stroke="#000" points="243.29 -307.2 239.79 -297.2 236.29 -307.2 243.29 -307.2"/><text x="297.29" y="-318.8" font-family="Times,serif" font-size="14" text-anchor="middle">सम्बन्धः</text></g><g id="node20" class="node"><title>Node11_1</title><ellipse cx="1245.79" cy="-279" fill="#f9f" stroke="#f9f" rx="75.29" ry="18"/><text x="1245.79" y="-275.3" font-family="Times,serif" font-size="14" text-anchor="middle">अथवा(11.1)</text></g><g id="edge13" class="edge"><title>Node11_1-&gt;Node17_1</title><path fill="none" stroke="#000" d="M1285.94,-299.94C1308.13,-310.25 1336.46,-322.25 1362.79,-330 1404.21,-342.18 1451.63,-350.6 1490.53,-356.12"/><polygon fill="#000" stroke="#000" points="1287.37 -296.75 1276.83 -295.65 1284.39 -303.08 1287.37 -296.75"/><text x="1420.29" y="-318.8" font-family="Times,serif" font-size="14" text-anchor="middle">सम्बन्धः</text></g><g id="node22" class="node"><title>Node12_1</title><ellipse cx="1907.79" cy="-105" fill="#ff0" stroke="#ff0" rx="96.68" ry="18"/><text x="1907.79" y="-101.3" font-family="Times,serif" font-size="14" text-anchor="middle">मृगशाव-(12.1)</text></g><g id="edge14" class="edge"><title>Node12_1-&gt;Node12_2</title><path fill="none" stroke="#000" d="M1907.47,-133.27C1907.32,-146.58 1907.13,-162.19 1907,-173.82"/><polygon fill="#000" stroke="#000" points="1910.97 -133.24 1907.59 -123.2 1903.97 -133.16 1910.97 -133.24"/><text x="1978.29" y="-144.8" font-family="Times,serif" font-size="14" text-anchor="middle">बहुव्रीहिः</text></g><g id="node23" class="node"><title>Node16_1</title><ellipse cx="1414.79" cy="-279" fill="#93db70" stroke="#93db70" rx="75.29" ry="18"/><text x="1414.79" y="-275.3" font-family="Times,serif" font-size="14" text-anchor="middle">वनम्(16.1)</text></g><g id="edge19" class="edge"><title>Node16_1-&gt;Node17_1</title><path fill="none" stroke="#000" d="M1452.5,-300.81C1479.33,-315.62 1514.86,-335.23 1539.56,-348.86"/><polygon fill="#000" stroke="#000" points="1453.85 -297.56 1443.4 -295.79 1450.46 -303.69 1453.85 -297.56"/><text x="1529.79" y="-318.8" font-family="Times,serif" font-size="14" text-anchor="middle">कर्म</text></g><g id="node24" class="node"><title>Node19_1</title><ellipse cx="1583.79" cy="-279" fill="#f9f" stroke="#f9f" rx="75.29" ry="18"/><text x="1583.79" y="-275.3" font-family="Times,serif" font-size="14" text-anchor="middle">अद्य(19.1)</text></g><g id="edge21" class="edge"><title>Node19_1-&gt;Node17_1</title><path fill="none" stroke="#000" d="M1571.98,-306.72C1571.11,-309.48 1570.35,-312.27 1569.79,-315 1567.62,-325.72 1567.34,-338 1567.62,-347.71"/><polygon fill="#000" stroke="#000" points="1575.37 -307.66 1575.54 -297.07 1568.8 -305.24 1575.37 -307.66"/><text x="1648.29" y="-318.8" font-family="Times,serif" font-size="14" text-anchor="middle">कालाधिकरणम्</text></g><g id="node25" class="node"><title>Node20_1</title><ellipse cx="1748.79" cy="-279" fill="#f9f" stroke="#f9f" rx="56.59" ry="18"/><text x="1748.79" y="-275.3" font-family="Times,serif" font-size="14" text-anchor="middle">इह(20.1)</text></g><g id="edge22" class="edge"><title>Node20_1-&gt;Node17_1</title><path fill="none" stroke="#000" d="M1742.18,-306.96C1738.86,-315.44 1733.96,-324.12 1726.79,-330 1713.65,-340.78 1677.64,-349.19 1643.31,-355.06"/><polygon fill="#000" stroke="#000" points="1745.57 -307.86 1745.4 -297.27 1738.93 -305.66 1745.57 -307.86"/><text x="1816.29" y="-318.8" font-family="Times,serif" font-size="14" text-anchor="middle">देशाधिकरणम्</text></g><g id="node26" class="node"><title>Node21_1</title><ellipse cx="2261.79" cy="-18" fill="#ff0" stroke="#ff0" rx="68.79" ry="18"/><text x="2261.79" y="-14.3" font-family="Times,serif" font-size="14" text-anchor="middle">राम-(21.1)</text></g><g id="node27" class="node"><title>Node21_2</title><ellipse cx="2261.79" cy="-105" fill="#ff0" stroke="#ff0" rx="96.68" ry="18"/><text x="2261.79" y="-101.3" font-family="Times,serif" font-size="14" text-anchor="middle">चिन्ता-(21.2)</text></g><g id="edge23" class="edge"><title>Node21_1-&gt;Node21_2</title><path fill="none" stroke="#000" d="M2261.79,-46.27C2261.79,-59.58 2261.79,-75.19 2261.79,-86.82"/><polygon fill="#000" stroke="#000" points="2265.29 -46.2 2261.79 -36.2 2258.29 -46.2 2265.29 -46.2"/><text x="2365.29" y="-57.8" font-family="Times,serif" font-size="14" text-anchor="middle">षष्ठी_तत्पुरुषः</text></g><g id="edge24" class="edge"><title>Node21_2-&gt;Node21_3</title><path fill="none" stroke="#000" d="M2261.79,-133.27C2261.79,-146.58 2261.79,-162.19 2261.79,-173.82"/><polygon fill="#000" stroke="#000" points="2265.29 -133.2 2261.79 -123.2 2258.29 -133.2 2265.29 -133.2"/><text x="2372.29" y="-144.8" font-family="Times,serif" font-size="14" text-anchor="middle">सप्तमी_तत्पुरुषः</text></g></g></svg>