<?xml version="1.0" encoding="UTF-8" standalone="no"?>
<!DOCTYPE svg PUBLIC "-//W3C//DTD SVG 1.1//EN"
 "http://www.w3.org/Graphics/SVG/1.1/DTD/svg11.dtd">
<!-- Generated by graphviz version 2.43.0 (0)
 -->
<!-- Title: G Pages: 1 -->
<svg width="1569pt" height="408pt"
 viewBox="0.00 0.00 1569.00 408.00" xmlns="http://www.w3.org/2000/svg" xmlns:xlink="http://www.w3.org/1999/xlink">
<g id="graph0" class="graph" transform="scale(1 1) rotate(0) translate(4 404)">
<title>G</title>
<polygon fill="#fffacd" stroke="transparent" points="-4,4 -4,-404 1565,-404 1565,4 -4,4"/>
<g id="clust1" class="cluster">
<title>cluster_1</title>
<polygon fill="#fffacd" stroke="black" points="835,-253 835,-392 1045,-392 1045,-253 835,-253"/>
</g>
<g id="clust2" class="cluster">
<title>cluster_2</title>
<polygon fill="#fffacd" stroke="black" points="812,-79 812,-218 1096,-218 1096,-79 812,-79"/>
</g>
<g id="clust3" class="cluster">
<title>cluster_3</title>
<polygon fill="#fffacd" stroke="black" points="8,-166 8,-305 461,-305 461,-166 8,-166"/>
</g>
<!-- Node2_1 -->
<g id="node1" class="node">
<title>Node2_1</title>
<ellipse fill="#ff1975" stroke="#ff1975" cx="940" cy="-279" rx="96.68" ry="18"/>
<text text-anchor="middle" x="940" y="-275.3" font-family="Times,serif" font-size="14.00">अपश्यत्(2.1)</text>
</g>
<!-- Node9_1 -->
<g id="node2" class="node">
<title>Node9_1</title>
<ellipse fill="#ff1975" stroke="#ff1975" cx="922" cy="-366" rx="78.79" ry="18"/>
<text text-anchor="middle" x="922" y="-362.3" font-family="Times,serif" font-size="14.00">ददर्श(9.1)</text>
</g>
<!-- Node2_1&#45;&gt;Node9_1 -->
<g id="edge3" class="edge">
<title>Node2_1&#45;&gt;Node9_1</title>
<path fill="none" stroke="black" d="M934.23,-307.27C931.41,-320.58 928.1,-336.19 925.64,-347.82"/>
<polygon fill="black" stroke="black" points="937.71,-307.71 936.36,-297.2 930.86,-306.26 937.71,-307.71"/>
<text text-anchor="middle" x="997.5" y="-318.8" font-family="Times,serif" font-size="14.00">समुच्चितः</text>
</g>
<!-- Node5_2 -->
<g id="node3" class="node">
<title>Node5_2</title>
<ellipse fill="#93db70" stroke="#93db70" cx="954" cy="-105" rx="133.78" ry="18"/>
<text text-anchor="middle" x="954" y="-101.3" font-family="Times,serif" font-size="14.00">प्रस्रवणानि(5.2)</text>
</g>
<!-- Node3_2 -->
<g id="node4" class="node">
<title>Node3_2</title>
<ellipse fill="#93db70" stroke="#93db70" cx="979" cy="-192" rx="87.99" ry="18"/>
<text text-anchor="middle" x="979" y="-188.3" font-family="Times,serif" font-size="14.00">भागान्(3.2)</text>
</g>
<!-- Node5_2&#45;&gt;Node3_2 -->
<g id="edge8" class="edge">
<title>Node5_2&#45;&gt;Node3_2</title>
<path fill="none" stroke="black" d="M961.9,-132.87C965.84,-146.27 970.49,-162.08 973.95,-173.82"/>
<polygon fill="black" stroke="black" points="965.24,-131.81 959.06,-123.2 958.52,-133.78 965.24,-131.81"/>
<text text-anchor="middle" x="1032.5" y="-144.8" font-family="Times,serif" font-size="14.00">समुच्चितः</text>
</g>
<!-- Node3_2&#45;&gt;Node2_1 -->
<g id="edge5" class="edge">
<title>Node3_2&#45;&gt;Node2_1</title>
<path fill="none" stroke="black" d="M966.85,-219.48C960.67,-232.96 953.32,-248.96 947.88,-260.82"/>
<polygon fill="black" stroke="black" points="970.12,-220.75 971.11,-210.2 963.76,-217.83 970.12,-220.75"/>
<text text-anchor="middle" x="991" y="-231.8" font-family="Times,serif" font-size="14.00">कर्म</text>
</g>
<!-- Node8_1 -->
<g id="node5" class="node">
<title>Node8_1</title>
<ellipse fill="#93db70" stroke="#93db70" cx="365" cy="-192" rx="87.99" ry="18"/>
<text text-anchor="middle" x="365" y="-188.3" font-family="Times,serif" font-size="14.00">अपरान्(8.1)</text>
</g>
<!-- Node7_2 -->
<g id="node6" class="node">
<title>Node7_2</title>
<ellipse fill="#93db70" stroke="#93db70" cx="342" cy="-279" rx="106.68" ry="18"/>
<text text-anchor="middle" x="342" y="-275.3" font-family="Times,serif" font-size="14.00">वृक्षान्(7.2)</text>
</g>
<!-- Node8_1&#45;&gt;Node7_2 -->
<g id="edge12" class="edge">
<title>Node8_1&#45;&gt;Node7_2</title>
<path fill="none" stroke="black" d="M357.73,-219.87C354.1,-233.27 349.83,-249.08 346.65,-260.82"/>
<polygon fill="black" stroke="black" points="361.11,-220.77 360.35,-210.2 354.36,-218.94 361.11,-220.77"/>
<text text-anchor="middle" x="412.5" y="-231.8" font-family="Times,serif" font-size="14.00">विशेषणम्</text>
</g>
<!-- Node7_2&#45;&gt;Node9_1 -->
<g id="edge11" class="edge">
<title>Node7_2&#45;&gt;Node9_1</title>
<path fill="none" stroke="black" d="M429.72,-292.99C498.15,-303.12 595.62,-317.5 681,-330 740.82,-338.76 809.01,-348.65 857.55,-355.68"/>
<polygon fill="black" stroke="black" points="429.81,-289.47 419.41,-291.47 428.79,-296.39 429.81,-289.47"/>
<text text-anchor="middle" x="710" y="-318.8" font-family="Times,serif" font-size="14.00">कर्म</text>
</g>
<!-- Node10_2 -->
<g id="node7" class="node">
<title>Node10_2</title>
<ellipse fill="#93db70" stroke="#93db70" cx="138" cy="-192" rx="121.58" ry="18"/>
<text text-anchor="middle" x="138" y="-188.3" font-family="Times,serif" font-size="14.00">सन्निभान्(10.2)</text>
</g>
<!-- Node10_2&#45;&gt;Node7_2 -->
<g id="edge14" class="edge">
<title>Node10_2&#45;&gt;Node7_2</title>
<path fill="none" stroke="black" d="M176.04,-214.68C193.39,-224.08 214.4,-234.79 234,-243 252,-250.54 272.23,-257.48 290.27,-263.16"/>
<polygon fill="black" stroke="black" points="177.25,-211.35 166.8,-209.61 173.89,-217.49 177.25,-211.35"/>
<text text-anchor="middle" x="291.5" y="-231.8" font-family="Times,serif" font-size="14.00">विशेषणम्</text>
</g>
<!-- Node1_1 -->
<g id="node8" class="node">
<title>Node1_1</title>
<ellipse fill="#00bfff" stroke="#00bfff" cx="753" cy="-192" rx="50.89" ry="18"/>
<text text-anchor="middle" x="753" y="-188.3" font-family="Times,serif" font-size="14.00">सः(1.1)</text>
</g>
<!-- Node1_1&#45;&gt;Node2_1 -->
<g id="edge1" class="edge">
<title>Node1_1&#45;&gt;Node2_1</title>
<path fill="none" stroke="black" d="M792.47,-210.94C825.76,-226.07 872.95,-247.52 904.93,-262.06"/>
<polygon fill="black" stroke="black" points="793.6,-207.61 783.04,-206.66 790.7,-213.98 793.6,-207.61"/>
<text text-anchor="middle" x="894" y="-231.8" font-family="Times,serif" font-size="14.00">कर्ता</text>
</g>
<!-- Node1_1&#45;&gt;Node9_1 -->
<g id="edge2" class="edge">
<title>Node1_1&#45;&gt;Node9_1</title>
<path fill="none" stroke="black" stroke-dasharray="1,5" d="M747.6,-220.24C744.34,-244.87 743.79,-280.85 762,-305 783.79,-333.9 821.15,-348.88 854.29,-356.65"/>
<polygon fill="black" stroke="black" points="751.09,-220.55 749.18,-210.14 744.18,-219.48 751.09,-220.55"/>
<text text-anchor="middle" x="798" y="-275.3" font-family="Times,serif" font-size="14.00">कर्ता</text>
</g>
<!-- Node3_1 -->
<g id="node9" class="node">
<title>Node3_1</title>
<ellipse fill="#ffff00" stroke="#ffff00" cx="1178" cy="-105" rx="72.29" ry="18"/>
<text text-anchor="middle" x="1178" y="-101.3" font-family="Times,serif" font-size="14.00">भूमि&#45;(3.1)</text>
</g>
<!-- Node3_1&#45;&gt;Node3_2 -->
<g id="edge4" class="edge">
<title>Node3_1&#45;&gt;Node3_2</title>
<path fill="none" stroke="black" d="M1148.57,-128.06C1134.7,-137.67 1117.58,-148.45 1101,-156 1080.65,-165.28 1057.26,-172.7 1036.43,-178.28"/>
<polygon fill="black" stroke="black" points="1150.62,-130.9 1156.76,-122.26 1146.58,-125.18 1150.62,-130.9"/>
<text text-anchor="middle" x="1231.5" y="-144.8" font-family="Times,serif" font-size="14.00">षष्ठी_तत्पुरुषः</text>
</g>
<!-- Node4_1 -->
<g id="node10" class="node">
<title>Node4_1</title>
<ellipse fill="#ff99ff" stroke="#ff99ff" cx="1374" cy="-105" rx="41.69" ry="18"/>
<text text-anchor="middle" x="1374" y="-101.3" font-family="Times,serif" font-size="14.00">च(4.1)</text>
</g>
<!-- Node4_1&#45;&gt;Node3_2 -->
<g id="edge6" class="edge">
<title>Node4_1&#45;&gt;Node3_2</title>
<path fill="none" stroke="black" d="M1361.86,-131.81C1356.22,-140.97 1348.61,-150.39 1339,-156 1294.33,-182.08 1158.06,-189.09 1066.58,-190.77"/>
<polygon fill="black" stroke="black" points="1365.03,-133.32 1366.84,-122.89 1358.91,-129.91 1365.03,-133.32"/>
<text text-anchor="middle" x="1457.5" y="-144.8" font-family="Times,serif" font-size="14.00">समुच्चय_द्योतकः</text>
</g>
<!-- Node5_1 -->
<g id="node11" class="node">
<title>Node5_1</title>
<ellipse fill="#ffff00" stroke="#ffff00" cx="954" cy="-18" rx="53.89" ry="18"/>
<text text-anchor="middle" x="954" y="-14.3" font-family="Times,serif" font-size="14.00">नग&#45;(5.1)</text>
</g>
<!-- Node5_1&#45;&gt;Node5_2 -->
<g id="edge7" class="edge">
<title>Node5_1&#45;&gt;Node5_2</title>
<path fill="none" stroke="black" d="M954,-46.27C954,-59.58 954,-75.19 954,-86.82"/>
<polygon fill="black" stroke="black" points="957.5,-46.2 954,-36.2 950.5,-46.2 957.5,-46.2"/>
<text text-anchor="middle" x="1057.5" y="-57.8" font-family="Times,serif" font-size="14.00">षष्ठी_तत्पुरुषः</text>
</g>
<!-- Node6_1 -->
<g id="node12" class="node">
<title>Node6_1</title>
<ellipse fill="#ff99ff" stroke="#ff99ff" cx="1096" cy="-279" rx="41.69" ry="18"/>
<text text-anchor="middle" x="1096" y="-275.3" font-family="Times,serif" font-size="14.00">च(6.1)</text>
</g>
<!-- Node6_1&#45;&gt;Node9_1 -->
<g id="edge9" class="edge">
<title>Node6_1&#45;&gt;Node9_1</title>
<path fill="none" stroke="black" d="M1085.22,-306.42C1080.5,-315.08 1074.14,-324.01 1066,-330 1045.28,-345.25 1018.77,-353.93 994.16,-358.84"/>
<polygon fill="black" stroke="black" points="1088.44,-307.8 1089.71,-297.28 1082.16,-304.71 1088.44,-307.8"/>
<text text-anchor="middle" x="1183.5" y="-318.8" font-family="Times,serif" font-size="14.00">समुच्चय_द्योतकः</text>
</g>
<!-- Node7_1 -->
<g id="node13" class="node">
<title>Node7_1</title>
<ellipse fill="#ffff00" stroke="#ffff00" cx="562" cy="-192" rx="90.98" ry="18"/>
<text text-anchor="middle" x="562" y="-188.3" font-family="Times,serif" font-size="14.00">सुवर्ण&#45;(7.1)</text>
</g>
<!-- Node7_1&#45;&gt;Node7_2 -->
<g id="edge10" class="edge">
<title>Node7_1&#45;&gt;Node7_2</title>
<path fill="none" stroke="black" d="M528.14,-214.96C512.2,-224.58 492.63,-235.39 474,-243 452.49,-251.79 428.11,-258.98 406.2,-264.5"/>
<polygon fill="black" stroke="black" points="530.39,-217.68 537.08,-209.46 526.73,-211.72 530.39,-217.68"/>
<text text-anchor="middle" x="608.5" y="-231.8" font-family="Times,serif" font-size="14.00">षष्ठी_तत्पुरुषः</text>
</g>
<!-- Node10_1 -->
<g id="node14" class="node">
<title>Node10_1</title>
<ellipse fill="#ffff00" stroke="#ffff00" cx="138" cy="-105" rx="77.99" ry="18"/>
<text text-anchor="middle" x="138" y="-101.3" font-family="Times,serif" font-size="14.00">शिखि&#45;(10.1)</text>
</g>
<!-- Node10_1&#45;&gt;Node10_2 -->
<g id="edge13" class="edge">
<title>Node10_1&#45;&gt;Node10_2</title>
<path fill="none" stroke="black" d="M138,-133.27C138,-146.58 138,-162.19 138,-173.82"/>
<polygon fill="black" stroke="black" points="141.5,-133.2 138,-123.2 134.5,-133.2 141.5,-133.2"/>
<text text-anchor="middle" x="202.5" y="-144.8" font-family="Times,serif" font-size="14.00">कर्मधारयः</text>
</g>
</g>
</svg>
