<?xml version="1.0" encoding="UTF-8" standalone="no"?>
<!DOCTYPE svg PUBLIC "-//W3C//DTD SVG 1.1//EN"
 "http://www.w3.org/Graphics/SVG/1.1/DTD/svg11.dtd">
<!-- Generated by graphviz version 2.43.0 (0)
 -->
<!-- Title: G Pages: 1 -->
<svg width="887pt" height="566pt"
 viewBox="0.00 0.00 887.00 566.00" xmlns="http://www.w3.org/2000/svg" xmlns:xlink="http://www.w3.org/1999/xlink">
<g id="graph0" class="graph" transform="scale(1 1) rotate(0) translate(4 562)">
<title>G</title>
<polygon fill="#fffacd" stroke="transparent" points="-4,4 -4,-562 883,-562 883,4 -4,4"/>
<g id="clust1" class="cluster">
<title>cluster_1</title>
<polygon fill="#fffacd" stroke="black" points="273,-79 273,-218 871,-218 871,-79 273,-79"/>
</g>
<g id="clust2" class="cluster">
<title>cluster_2</title>
<polygon fill="#fffacd" stroke="black" points="421,-253 421,-392 631,-392 631,-253 421,-253"/>
</g>
<g id="clust3" class="cluster">
<title>cluster_3</title>
<polygon fill="#fffacd" stroke="black" points="8,-340 8,-479 218,-479 218,-340 8,-340"/>
</g>
<!-- Node1_1 -->
<g id="node1" class="node">
<title>Node1_1</title>
<ellipse fill="#40e0d0" stroke="#40e0d0" cx="738" cy="-105" rx="124.58" ry="18"/>
<text text-anchor="middle" x="738" y="-101.3" font-family="Times,serif" font-size="14.00">उत्पतद्भिः(1.1)</text>
</g>
<!-- Node3_1 -->
<g id="node2" class="node">
<title>Node3_1</title>
<ellipse fill="#40e0d0" stroke="#40e0d0" cx="526" cy="-192" rx="87.99" ry="18"/>
<text text-anchor="middle" x="526" y="-188.3" font-family="Times,serif" font-size="14.00">पक्षैः(3.1)</text>
</g>
<!-- Node1_1&#45;&gt;Node3_1 -->
<g id="edge1" class="edge">
<title>Node1_1&#45;&gt;Node3_1</title>
<path fill="none" stroke="black" d="M701.7,-127.78C684.85,-137.3 664.32,-148.07 645,-156 624.18,-164.55 600.53,-171.95 579.83,-177.72"/>
<polygon fill="black" stroke="black" points="703.72,-130.66 710.65,-122.65 700.24,-124.59 703.72,-130.66"/>
<text text-anchor="middle" x="733.5" y="-144.8" font-family="Times,serif" font-size="14.00">विशेषणम्</text>
</g>
<!-- Node5_1 -->
<g id="node5" class="node">
<title>Node5_1</title>
<ellipse fill="#00bfff" stroke="#00bfff" cx="526" cy="-279" rx="96.68" ry="18"/>
<text text-anchor="middle" x="526" y="-275.3" font-family="Times,serif" font-size="14.00">समाहताः(5.1)</text>
</g>
<!-- Node3_1&#45;&gt;Node5_1 -->
<g id="edge4" class="edge">
<title>Node3_1&#45;&gt;Node5_1</title>
<path fill="none" stroke="black" d="M526,-220.27C526,-233.58 526,-249.19 526,-260.82"/>
<polygon fill="black" stroke="black" points="529.5,-220.2 526,-210.2 522.5,-220.2 529.5,-220.2"/>
<text text-anchor="middle" x="562" y="-231.8" font-family="Times,serif" font-size="14.00">कर्ता</text>
</g>
<!-- Node2_2 -->
<g id="node3" class="node">
<title>Node2_2</title>
<ellipse fill="#40e0d0" stroke="#40e0d0" cx="526" cy="-105" rx="69.59" ry="18"/>
<text text-anchor="middle" x="526" y="-101.3" font-family="Times,serif" font-size="14.00">गणैः(2.2)</text>
</g>
<!-- Node2_2&#45;&gt;Node3_1 -->
<g id="edge3" class="edge">
<title>Node2_2&#45;&gt;Node3_1</title>
<path fill="none" stroke="black" d="M526,-133.27C526,-146.58 526,-162.19 526,-173.82"/>
<polygon fill="black" stroke="black" points="529.5,-133.2 526,-123.2 522.5,-133.2 529.5,-133.2"/>
<text text-anchor="middle" x="583.5" y="-144.8" font-family="Times,serif" font-size="14.00">विशेषणम्</text>
</g>
<!-- Node4_1 -->
<g id="node4" class="node">
<title>Node4_1</title>
<ellipse fill="#40e0d0" stroke="#40e0d0" cx="360" cy="-105" rx="78.79" ry="18"/>
<text text-anchor="middle" x="360" y="-101.3" font-family="Times,serif" font-size="14.00">वातैः(4.1)</text>
</g>
<!-- Node4_1&#45;&gt;Node3_1 -->
<g id="edge5" class="edge">
<title>Node4_1&#45;&gt;Node3_1</title>
<path fill="none" stroke="black" d="M378.6,-130.78C386.49,-139.83 396.32,-149.44 407,-156 424.06,-166.49 444.43,-173.98 463.45,-179.26"/>
<polygon fill="black" stroke="black" points="381.28,-128.53 372.2,-123.07 375.89,-133 381.28,-128.53"/>
<text text-anchor="middle" x="464.5" y="-144.8" font-family="Times,serif" font-size="14.00">विशेषणम्</text>
</g>
<!-- Node6_2 -->
<g id="node6" class="node">
<title>Node6_2</title>
<ellipse fill="#00bfff" stroke="#00bfff" cx="517" cy="-366" rx="87.99" ry="18"/>
<text text-anchor="middle" x="517" y="-362.3" font-family="Times,serif" font-size="14.00">वर्णाः(6.2)</text>
</g>
<!-- Node5_1&#45;&gt;Node6_2 -->
<g id="edge6" class="edge">
<title>Node5_1&#45;&gt;Node6_2</title>
<path fill="none" stroke="black" d="M523.11,-307.27C521.7,-320.58 520.05,-336.19 518.82,-347.82"/>
<polygon fill="black" stroke="black" points="526.61,-307.51 524.18,-297.2 519.65,-306.78 526.61,-307.51"/>
<text text-anchor="middle" x="580.5" y="-318.8" font-family="Times,serif" font-size="14.00">विशेषणम्</text>
</g>
<!-- Node9_2 -->
<g id="node7" class="node">
<title>Node9_2</title>
<ellipse fill="#00bfff" stroke="#00bfff" cx="113" cy="-453" rx="96.68" ry="18"/>
<text text-anchor="middle" x="113" y="-449.3" font-family="Times,serif" font-size="14.00">वृष्टयः(9.2)</text>
</g>
<!-- Node6_2&#45;&gt;Node9_2 -->
<g id="edge8" class="edge">
<title>Node6_2&#45;&gt;Node9_2</title>
<path fill="none" stroke="black" d="M499.68,-392.05C491.77,-401.49 481.58,-411.31 470,-417 425.57,-438.85 298.62,-447.06 208.79,-450.14"/>
<polygon fill="black" stroke="black" points="502.6,-393.99 506.01,-383.96 497.09,-389.67 502.6,-393.99"/>
<text text-anchor="middle" x="547.5" y="-405.8" font-family="Times,serif" font-size="14.00">विशेषणम्</text>
</g>
<!-- Node8_1 -->
<g id="node11" class="node">
<title>Node8_1</title>
<ellipse fill="#ff1975" stroke="#ff1975" cx="113" cy="-540" rx="96.68" ry="18"/>
<text text-anchor="middle" x="113" y="-536.3" font-family="Times,serif" font-size="14.00">मुमुचुः(8.1)</text>
</g>
<!-- Node9_2&#45;&gt;Node8_1 -->
<g id="edge11" class="edge">
<title>Node9_2&#45;&gt;Node8_1</title>
<path fill="none" stroke="black" d="M113,-481.27C113,-494.58 113,-510.19 113,-521.82"/>
<polygon fill="black" stroke="black" points="116.5,-481.2 113,-471.2 109.5,-481.2 116.5,-481.2"/>
<text text-anchor="middle" x="149" y="-492.8" font-family="Times,serif" font-size="14.00">कर्ता</text>
</g>
<!-- Node7_1 -->
<g id="node8" class="node">
<title>Node7_1</title>
<ellipse fill="#00bfff" stroke="#00bfff" cx="113" cy="-366" rx="96.68" ry="18"/>
<text text-anchor="middle" x="113" y="-362.3" font-family="Times,serif" font-size="14.00">विविधाः(7.1)</text>
</g>
<!-- Node7_1&#45;&gt;Node9_2 -->
<g id="edge9" class="edge">
<title>Node7_1&#45;&gt;Node9_2</title>
<path fill="none" stroke="black" d="M113,-394.27C113,-407.58 113,-423.19 113,-434.82"/>
<polygon fill="black" stroke="black" points="116.5,-394.2 113,-384.2 109.5,-394.2 116.5,-394.2"/>
<text text-anchor="middle" x="170.5" y="-405.8" font-family="Times,serif" font-size="14.00">विशेषणम्</text>
</g>
<!-- Node2_1 -->
<g id="node9" class="node">
<title>Node2_1</title>
<ellipse fill="#ffff00" stroke="#ffff00" cx="526" cy="-18" rx="81.49" ry="18"/>
<text text-anchor="middle" x="526" y="-14.3" font-family="Times,serif" font-size="14.00">द्विज&#45;(2.1)</text>
</g>
<!-- Node2_1&#45;&gt;Node2_2 -->
<g id="edge2" class="edge">
<title>Node2_1&#45;&gt;Node2_2</title>
<path fill="none" stroke="black" d="M526,-46.27C526,-59.58 526,-75.19 526,-86.82"/>
<polygon fill="black" stroke="black" points="529.5,-46.2 526,-36.2 522.5,-46.2 529.5,-46.2"/>
<text text-anchor="middle" x="629.5" y="-57.8" font-family="Times,serif" font-size="14.00">षष्ठी_तत्पुरुषः</text>
</g>
<!-- Node6_1 -->
<g id="node10" class="node">
<title>Node6_1</title>
<ellipse fill="#ffff00" stroke="#ffff00" cx="339" cy="-279" rx="72.29" ry="18"/>
<text text-anchor="middle" x="339" y="-275.3" font-family="Times,serif" font-size="14.00">अनेक&#45;(6.1)</text>
</g>
<!-- Node6_1&#45;&gt;Node6_2 -->
<g id="edge7" class="edge">
<title>Node6_1&#45;&gt;Node6_2</title>
<path fill="none" stroke="black" d="M352.25,-306.16C357.87,-314.91 365.17,-323.96 374,-330 381.25,-334.96 421.97,-344.69 458.11,-352.63"/>
<polygon fill="black" stroke="black" points="355.12,-304.13 347.02,-297.3 349.09,-307.69 355.12,-304.13"/>
<text text-anchor="middle" x="445.5" y="-318.8" font-family="Times,serif" font-size="14.00">बहुव्रीहिः</text>
</g>
<!-- Node9_1 -->
<g id="node12" class="node">
<title>Node9_1</title>
<ellipse fill="#ffff00" stroke="#ffff00" cx="309" cy="-366" rx="81.49" ry="18"/>
<text text-anchor="middle" x="309" y="-362.3" font-family="Times,serif" font-size="14.00">पुष्प&#45;(9.1)</text>
</g>
<!-- Node9_1&#45;&gt;Node9_2 -->
<g id="edge10" class="edge">
<title>Node9_1&#45;&gt;Node9_2</title>
<path fill="none" stroke="black" d="M278.86,-389.49C265.1,-398.97 248.27,-409.52 232,-417 212.83,-425.82 190.89,-433.01 171.12,-438.54"/>
<polygon fill="black" stroke="black" points="281.26,-392.08 287.41,-383.45 277.22,-386.35 281.26,-392.08"/>
<text text-anchor="middle" x="362.5" y="-405.8" font-family="Times,serif" font-size="14.00">षष्ठी_तत्पुरुषः</text>
</g>
</g>
</svg>
