<svg xmlns="http://www.w3.org/2000/svg" xmlns:xlink="http://www.w3.org/1999/xlink" width="1352" height="479pt" viewBox="0 0 1014 479"><g id="graph0" class="graph" transform="scale(1 1) rotate(0) translate(4 475)"><title>G</title><polygon fill="#fffacd" stroke="transparent" points="-4 4 -4 -475 1010 -475 1010 4 -4 4"/><g id="clust1" class="cluster"><title>cluster_1</title><polygon fill="#fffacd" stroke="#000" points="380 -79 380 -218 747 -218 747 -79 380 -79"/></g><g id="clust2" class="cluster"><title>cluster_2</title><polygon fill="#fffacd" stroke="#000" points="313 -253 313 -392 543 -392 543 -253 313 -253"/></g><g id="clust3" class="cluster"><title>cluster_3</title><polygon fill="#fffacd" stroke="#000" points="8 -166 8 -305 248 -305 248 -166 8 -166"/></g><g id="node1" class="node"><title>Node2_1</title><ellipse cx="476" cy="-105" fill="#40e0d0" stroke="#40e0d0" rx="87.99" ry="18"/><text x="476" y="-101.3" font-family="Times,serif" font-size="14" text-anchor="middle">पतितैः(2.1)</text></g><g id="node2" class="node"><title>Node3_1</title><ellipse cx="501" cy="-192" fill="#40e0d0" stroke="#40e0d0" rx="96.68" ry="18"/><text x="501" y="-188.3" font-family="Times,serif" font-size="14" text-anchor="middle">पुष्पैः(3.1)</text></g><g id="edge2" class="edge"><title>Node2_1-&gt;Node3_1</title><path fill="none" stroke="#000" d="M478.91,-133.42C480.09,-140.85 481.74,-148.82 484,-156 485.91,-162.06 488.71,-168.38 491.49,-173.97"/><polygon fill="#000" stroke="#000" points="482.36 -132.84 477.52 -123.41 475.43 -133.8 482.36 -132.84"/><text x="541.5" y="-144.8" font-family="Times,serif" font-size="14" text-anchor="middle">विशेषणम्</text></g><g id="node4" class="node"><title>Node4_1</title><ellipse cx="428" cy="-279" fill="#00bfff" stroke="#00bfff" rx="106.68" ry="18"/><text x="428" y="-275.3" font-family="Times,serif" font-size="14" text-anchor="middle">अवकीर्णा(4.1)</text></g><g id="edge3" class="edge"><title>Node3_1-&gt;Node4_1</title><path fill="none" stroke="#000" d="M492.54,-219.52C489.15,-227.6 484.68,-236.15 479,-243 473.11,-250.11 465.42,-256.39 457.81,-261.6"/><polygon fill="#000" stroke="#000" points="495.86 -220.63 496.14 -210.04 489.31 -218.15 495.86 -220.63"/><text x="524" y="-231.8" font-family="Times,serif" font-size="14" text-anchor="middle">कर्ता</text></g><g id="node3" class="node"><title>Node5_2</title><ellipse cx="660" cy="-105" fill="#40e0d0" stroke="#40e0d0" rx="78.79" ry="18"/><text x="660" y="-101.3" font-family="Times,serif" font-size="14" text-anchor="middle">विधैः(5.2)</text></g><g id="edge6" class="edge"><title>Node5_2-&gt;Node3_1</title><path fill="none" stroke="#000" d="M635.43,-129.41C624.83,-138.61 611.92,-148.69 599,-156 584.38,-164.27 567.44,-171.15 551.81,-176.56"/><polygon fill="#000" stroke="#000" points="637.91 -131.89 643.04 -122.61 633.25 -126.67 637.91 -131.89"/><text x="678.5" y="-144.8" font-family="Times,serif" font-size="14" text-anchor="middle">विशेषणम्</text></g><g id="node5" class="node"><title>Node7_1</title><ellipse cx="410" cy="-366" fill="#00bfff" stroke="#00bfff" rx="78.79" ry="18"/><text x="410" y="-362.3" font-family="Times,serif" font-size="14" text-anchor="middle">वसुधा(7.1)</text></g><g id="edge4" class="edge"><title>Node4_1-&gt;Node7_1</title><path fill="none" stroke="#000" d="M422.23,-307.27C419.41,-320.58 416.1,-336.19 413.64,-347.82"/><polygon fill="#000" stroke="#000" points="425.71 -307.71 424.36 -297.2 418.86 -306.26 425.71 -307.71"/><text x="478.5" y="-318.8" font-family="Times,serif" font-size="14" text-anchor="middle">विशेषणम्</text></g><g id="node10" class="node"><title>Node6_1</title><ellipse cx="410" cy="-453" fill="#ff1975" stroke="#ff1975" rx="69.59" ry="18"/><text x="410" y="-449.3" font-family="Times,serif" font-size="14" text-anchor="middle">रराज(6.1)</text></g><g id="edge7" class="edge"><title>Node7_1-&gt;Node6_1</title><path fill="none" stroke="#000" d="M410,-394.27C410,-407.58 410,-423.19 410,-434.82"/><polygon fill="#000" stroke="#000" points="413.5 -394.2 410 -384.2 406.5 -394.2 413.5 -394.2"/><text x="446" y="-405.8" font-family="Times,serif" font-size="14" text-anchor="middle">कर्ता</text></g><g id="node6" class="node"><title>Node11_1</title><ellipse cx="128" cy="-192" fill="#00bfff" stroke="#00bfff" rx="112.38" ry="18"/><text x="128" y="-188.3" font-family="Times,serif" font-size="14" text-anchor="middle">विभूषिता(11.1)</text></g><g id="node7" class="node"><title>Node9_1</title><ellipse cx="152" cy="-279" fill="#00bfff" stroke="#00bfff" rx="87.99" ry="18"/><text x="152" y="-275.3" font-family="Times,serif" font-size="14" text-anchor="middle">प्रमदा(9.1)</text></g><g id="edge11" class="edge"><title>Node11_1-&gt;Node9_1</title><path fill="none" stroke="#000" d="M135.59,-219.87C139.37,-233.27 143.83,-249.08 147.15,-260.82"/><polygon fill="#000" stroke="#000" points="138.94 -218.87 132.86 -210.2 132.21 -220.78 138.94 -218.87"/><text x="199.5" y="-231.8" font-family="Times,serif" font-size="14" text-anchor="middle">विशेषणम्</text></g><g id="edge9" class="edge"><title>Node9_1-&gt;Node7_1</title><path fill="none" stroke="#000" d="M205.93,-297.77C253.82,-313.54 322.86,-336.29 367.08,-350.86"/><polygon fill="#000" stroke="#000" points="206.94 -294.42 196.35 -294.61 204.75 -301.07 206.94 -294.42"/><text x="347" y="-318.8" font-family="Times,serif" font-size="14" text-anchor="middle">उपमानम्</text></g><g id="node8" class="node"><title>Node1_1</title><ellipse cx="456" cy="-18" fill="#b4ffb4" stroke="#b4ffb4" rx="124.58" ry="18"/><text x="456" y="-14.3" font-family="Times,serif" font-size="14" text-anchor="middle">वृक्षेभ्यः(1.1)</text></g><g id="edge1" class="edge"><title>Node1_1-&gt;Node2_1</title><path fill="none" stroke="#000" d="M462.42,-46.27C465.55,-59.58 469.22,-75.19 471.96,-86.82"/><polygon fill="#000" stroke="#000" points="465.74 -45.13 460.05 -36.2 458.93 -46.74 465.74 -45.13"/><text x="525.5" y="-57.8" font-family="Times,serif" font-size="14" text-anchor="middle">अपादानम्</text></g><g id="node9" class="node"><title>Node5_1</title><ellipse cx="680" cy="-18" fill="#ff0" stroke="#ff0" rx="81.49" ry="18"/><text x="680" y="-14.3" font-family="Times,serif" font-size="14" text-anchor="middle">पृथक्-(5.1)</text></g><g id="edge5" class="edge"><title>Node5_1-&gt;Node5_2</title><path fill="none" stroke="#000" d="M673.58,-46.27C670.45,-59.58 666.78,-75.19 664.04,-86.82"/><polygon fill="#000" stroke="#000" points="677.07 -46.74 675.95 -36.2 670.26 -45.13 677.07 -46.74"/><text x="743.5" y="-57.8" font-family="Times,serif" font-size="14" text-anchor="middle">बहुव्रीहिः</text></g><g id="node11" class="node"><title>Node8_1</title><ellipse cx="849" cy="-18" fill="#f9f" stroke="#f9f" rx="69.59" ry="18"/><text x="849" y="-14.3" font-family="Times,serif" font-size="14" text-anchor="middle">तत्र(8.1)</text></g><g id="node12" class="node"><title>Node6</title><ellipse cx="849" cy="-105" fill="#d3d3d3" stroke="#000" rx="27" ry="18"/></g><g id="edge8" class="edge"><title>Node8_1-&gt;Node6</title><path fill="none" stroke="#000" d="M849,-46.27C849,-59.58 849,-75.19 849,-86.82"/><polygon fill="#000" stroke="#000" points="852.5 -46.2 849 -36.2 845.5 -46.2 852.5 -46.2"/><text x="927.5" y="-57.8" font-family="Times,serif" font-size="14" text-anchor="middle">देशाधिकरणम्</text></g><g id="node13" class="node"><title>Node10_1</title><ellipse cx="315" cy="-192" fill="#f9f" stroke="#f9f" rx="56.59" ry="18"/><text x="315" y="-188.3" font-family="Times,serif" font-size="14" text-anchor="middle">इव(10.1)</text></g><g id="edge10" class="edge"><title>Node10_1-&gt;Node9_1</title><path fill="none" stroke="#000" d="M293.22,-217.28C284.01,-226.37 272.72,-236.15 261,-243 244.78,-252.48 225.69,-259.73 208.05,-265.1"/><polygon fill="#000" stroke="#000" points="295.95 -219.49 300.42 -209.88 290.93 -214.61 295.95 -219.49"/><text x="370" y="-231.8" font-family="Times,serif" font-size="14" text-anchor="middle">उपमान_द्योतकः</text></g></g></svg>