<?xml version="1.0" encoding="UTF-8" standalone="no"?>
<!DOCTYPE svg PUBLIC "-//W3C//DTD SVG 1.1//EN"
 "http://www.w3.org/Graphics/SVG/1.1/DTD/svg11.dtd">
<!-- Generated by graphviz version 2.43.0 (0)
 -->
<!-- Title: G Pages: 1 -->
<svg width="1552pt" height="392pt"
 viewBox="0.00 0.00 1551.64 392.00" xmlns="http://www.w3.org/2000/svg" xmlns:xlink="http://www.w3.org/1999/xlink">
<g id="graph0" class="graph" transform="scale(1 1) rotate(0) translate(4 388)">
<title>G</title>
<polygon fill="#fffacd" stroke="transparent" points="-4,4 -4,-388 1547.64,-388 1547.64,4 -4,4"/>
<g id="clust1" class="cluster">
<title>cluster_1</title>
<polygon fill="#fffacd" stroke="black" points="525.64,-79 525.64,-305 966.64,-305 966.64,-79 525.64,-79"/>
</g>
<!-- Node3_2 -->
<g id="node1" class="node">
<title>Node3_2</title>
<ellipse fill="#87ceeb" stroke="#87ceeb" cx="649.64" cy="-192" rx="115.88" ry="18"/>
<text text-anchor="middle" x="649.64" y="-188.3" font-family="Times,serif" font-size="14.00">सङ्घानाम्(3.2)</text>
</g>
<!-- Node4_2 -->
<g id="node2" class="node">
<title>Node4_2</title>
<ellipse fill="#40e0d0" stroke="#40e0d0" cx="649.64" cy="-279" rx="87.99" ry="18"/>
<text text-anchor="middle" x="649.64" y="-275.3" font-family="Times,serif" font-size="14.00">राज्ञा(4.2)</text>
</g>
<!-- Node3_2&#45;&gt;Node4_2 -->
<g id="edge4" class="edge">
<title>Node3_2&#45;&gt;Node4_2</title>
<path fill="none" stroke="black" d="M649.64,-220.27C649.64,-233.58 649.64,-249.19 649.64,-260.82"/>
<polygon fill="black" stroke="black" points="653.14,-220.2 649.64,-210.2 646.14,-220.2 653.14,-220.2"/>
<text text-anchor="middle" x="707.14" y="-231.8" font-family="Times,serif" font-size="14.00">विशेषणम्</text>
</g>
<!-- Node9_1 -->
<g id="node6" class="node">
<title>Node9_1</title>
<ellipse fill="#00bfff" stroke="#00bfff" cx="315.64" cy="-366" rx="133.78" ry="18"/>
<text text-anchor="middle" x="315.64" y="-362.3" font-family="Times,serif" font-size="14.00">सन्निवेशितः(9.1)</text>
</g>
<!-- Node4_2&#45;&gt;Node9_1 -->
<g id="edge6" class="edge">
<title>Node4_2&#45;&gt;Node9_1</title>
<path fill="none" stroke="black" d="M635.88,-305.85C629.69,-314.96 621.54,-324.34 611.64,-330 582.84,-346.47 508.6,-355.22 441.69,-359.85"/>
<polygon fill="black" stroke="black" points="638.87,-307.65 641.19,-297.32 632.93,-303.95 638.87,-307.65"/>
<text text-anchor="middle" x="663.64" y="-318.8" font-family="Times,serif" font-size="14.00">कर्ता</text>
</g>
<!-- Node5_2 -->
<g id="node3" class="node">
<title>Node5_2</title>
<ellipse fill="#40e0d0" stroke="#40e0d0" cx="870.64" cy="-192" rx="87.99" ry="18"/>
<text text-anchor="middle" x="870.64" y="-188.3" font-family="Times,serif" font-size="14.00">आत्मना(5.2)</text>
</g>
<!-- Node5_2&#45;&gt;Node4_2 -->
<g id="edge8" class="edge">
<title>Node5_2&#45;&gt;Node4_2</title>
<path fill="none" stroke="black" d="M832.46,-213.64C813.59,-223.33 790.28,-234.58 768.64,-243 747.37,-251.27 723.31,-258.7 702.42,-264.55"/>
<polygon fill="black" stroke="black" points="834.08,-216.74 841.34,-209.02 830.85,-210.53 834.08,-216.74"/>
<text text-anchor="middle" x="860.14" y="-231.8" font-family="Times,serif" font-size="14.00">विशेषणम्</text>
</g>
<!-- Node6_2 -->
<g id="node4" class="node">
<title>Node6_2</title>
<ellipse fill="#87ceeb" stroke="#87ceeb" cx="649.64" cy="-105" rx="115.88" ry="18"/>
<text text-anchor="middle" x="649.64" y="-101.3" font-family="Times,serif" font-size="14.00">निलयानाम्(6.2)</text>
</g>
<!-- Node6_2&#45;&gt;Node3_2 -->
<g id="edge10" class="edge">
<title>Node6_2&#45;&gt;Node3_2</title>
<path fill="none" stroke="black" d="M649.64,-133.27C649.64,-146.58 649.64,-162.19 649.64,-173.82"/>
<polygon fill="black" stroke="black" points="653.14,-133.2 649.64,-123.2 646.14,-133.2 653.14,-133.2"/>
<text text-anchor="middle" x="707.14" y="-144.8" font-family="Times,serif" font-size="14.00">विशेषणम्</text>
</g>
<!-- Node1_1 -->
<g id="node5" class="node">
<title>Node1_1</title>
<ellipse fill="#00bfff" stroke="#00bfff" cx="78.64" cy="-279" rx="78.79" ry="18"/>
<text text-anchor="middle" x="78.64" y="-275.3" font-family="Times,serif" font-size="14.00">त्वम्(1.1)</text>
</g>
<!-- Node1_1&#45;&gt;Node9_1 -->
<g id="edge1" class="edge">
<title>Node1_1&#45;&gt;Node9_1</title>
<path fill="none" stroke="black" d="M107.98,-302.32C122.05,-312.08 139.54,-322.9 156.64,-330 179.88,-339.64 206.17,-346.81 230.6,-352.06"/>
<polygon fill="black" stroke="black" points="109.86,-299.36 99.69,-296.42 105.8,-305.07 109.86,-299.36"/>
<text text-anchor="middle" x="185.64" y="-318.8" font-family="Times,serif" font-size="14.00">कर्म</text>
</g>
<!-- Node2_1 -->
<g id="node7" class="node">
<title>Node2_1</title>
<ellipse fill="#ff99ff" stroke="#ff99ff" cx="225.64" cy="-279" rx="50.89" ry="18"/>
<text text-anchor="middle" x="225.64" y="-275.3" font-family="Times,serif" font-size="14.00">इह(2.1)</text>
</g>
<!-- Node2_1&#45;&gt;Node9_1 -->
<g id="edge2" class="edge">
<title>Node2_1&#45;&gt;Node9_1</title>
<path fill="none" stroke="black" d="M217.92,-307.23C217.2,-315.15 218.1,-323.44 222.64,-330 228.73,-338.79 237.32,-345.38 246.85,-350.32"/>
<polygon fill="black" stroke="black" points="221.4,-307.63 219.62,-297.19 214.5,-306.46 221.4,-307.63"/>
<text text-anchor="middle" x="301.14" y="-318.8" font-family="Times,serif" font-size="14.00">देशाधिकरणम्</text>
</g>
<!-- Node3_1 -->
<g id="node8" class="node">
<title>Node3_1</title>
<ellipse fill="#ffff00" stroke="#ffff00" cx="1046.64" cy="-105" rx="72.29" ry="18"/>
<text text-anchor="middle" x="1046.64" y="-101.3" font-family="Times,serif" font-size="14.00">असुर&#45;(3.1)</text>
</g>
<!-- Node3_1&#45;&gt;Node3_2 -->
<g id="edge3" class="edge">
<title>Node3_1&#45;&gt;Node3_2</title>
<path fill="none" stroke="black" d="M984.87,-119.88C980.06,-120.94 975.27,-121.99 970.64,-123 882.56,-142.18 780.71,-163.63 715.78,-177.22"/>
<polygon fill="black" stroke="black" points="985.73,-123.27 994.74,-117.69 984.22,-116.44 985.73,-123.27"/>
<text text-anchor="middle" x="985.14" y="-144.8" font-family="Times,serif" font-size="14.00">षष्ठी_तत्पुरुषः</text>
</g>
<!-- Node4_1 -->
<g id="node9" class="node">
<title>Node4_1</title>
<ellipse fill="#ffff00" stroke="#ffff00" cx="1199.64" cy="-105" rx="63.09" ry="18"/>
<text text-anchor="middle" x="1199.64" y="-101.3" font-family="Times,serif" font-size="14.00">देव&#45;(4.1)</text>
</g>
<!-- Node4_1&#45;&gt;Node5_2 -->
<g id="edge5" class="edge">
<title>Node4_1&#45;&gt;Node5_2</title>
<path fill="none" stroke="black" d="M1193.62,-132.74C1190.33,-141.47 1185.3,-150.36 1177.64,-156 1143.85,-180.9 1036.64,-188.43 958.41,-190.53"/>
<polygon fill="black" stroke="black" points="1196.98,-133.72 1196.65,-123.13 1190.31,-131.62 1196.98,-133.72"/>
<text text-anchor="middle" x="1293.14" y="-144.8" font-family="Times,serif" font-size="14.00">षष्ठी_तत्पुरुषः</text>
</g>
<!-- Node5_1 -->
<g id="node10" class="node">
<title>Node5_1</title>
<ellipse fill="#ffff00" stroke="#ffff00" cx="1429.64" cy="-105" rx="63.09" ry="18"/>
<text text-anchor="middle" x="1429.64" y="-101.3" font-family="Times,serif" font-size="14.00">महा&#45;(5.1)</text>
</g>
<!-- Node5_1&#45;&gt;Node5_2 -->
<g id="edge7" class="edge">
<title>Node5_1&#45;&gt;Node5_2</title>
<path fill="none" stroke="black" d="M1420.14,-132.82C1415.63,-141.68 1409.28,-150.64 1400.64,-156 1364.04,-178.72 1098.45,-186.92 957.7,-189.69"/>
<polygon fill="black" stroke="black" points="1423.46,-133.98 1424.34,-123.42 1417.06,-131.12 1423.46,-133.98"/>
<text text-anchor="middle" x="1479.14" y="-144.8" font-family="Times,serif" font-size="14.00">कर्मधारयः</text>
</g>
<!-- Node6_1 -->
<g id="node11" class="node">
<title>Node6_1</title>
<ellipse fill="#ffff00" stroke="#ffff00" cx="649.64" cy="-18" rx="81.49" ry="18"/>
<text text-anchor="middle" x="649.64" y="-14.3" font-family="Times,serif" font-size="14.00">पाताल&#45;(6.1)</text>
</g>
<!-- Node6_1&#45;&gt;Node6_2 -->
<g id="edge9" class="edge">
<title>Node6_1&#45;&gt;Node6_2</title>
<path fill="none" stroke="black" d="M649.64,-46.27C649.64,-59.58 649.64,-75.19 649.64,-86.82"/>
<polygon fill="black" stroke="black" points="653.14,-46.2 649.64,-36.2 646.14,-46.2 653.14,-46.2"/>
<text text-anchor="middle" x="721.14" y="-57.8" font-family="Times,serif" font-size="14.00">बहुव्रीहिः</text>
</g>
<!-- Node7_1 -->
<g id="node12" class="node">
<title>Node7_1</title>
<ellipse fill="#ff99ff" stroke="#ff99ff" cx="402.64" cy="-192" rx="50.89" ry="18"/>
<text text-anchor="middle" x="402.64" y="-188.3" font-family="Times,serif" font-size="14.00">हि(7.1)</text>
</g>
<!-- Node8_1 -->
<g id="node13" class="node">
<title>Node8_1</title>
<ellipse fill="#00bfff" stroke="#00bfff" cx="404.64" cy="-279" rx="78.79" ry="18"/>
<text text-anchor="middle" x="404.64" y="-275.3" font-family="Times,serif" font-size="14.00">परिघः(8.1)</text>
</g>
<!-- Node7_1&#45;&gt;Node8_1 -->
<g id="edge11" class="edge">
<title>Node7_1&#45;&gt;Node8_1</title>
<path fill="none" stroke="black" d="M403.28,-220.27C403.6,-233.58 403.97,-249.19 404.24,-260.82"/>
<polygon fill="black" stroke="black" points="406.78,-220.12 403.05,-210.2 399.78,-220.28 406.78,-220.12"/>
<text text-anchor="middle" x="462.14" y="-231.8" font-family="Times,serif" font-size="14.00">सम्बन्धः</text>
</g>
<!-- Node8_1&#45;&gt;Node9_1 -->
<g id="edge12" class="edge">
<title>Node8_1&#45;&gt;Node9_1</title>
<path fill="none" stroke="black" d="M397.26,-306.96C394.07,-315.06 389.64,-323.51 383.64,-330 376.61,-337.6 367.55,-343.82 358.35,-348.79"/>
<polygon fill="black" stroke="black" points="400.61,-308 400.58,-297.41 393.99,-305.71 400.61,-308"/>
<text text-anchor="middle" x="500.64" y="-318.8" font-family="Times,serif" font-size="14.00">कर्मसमानाधिकरण्</text>
</g>
</g>
</svg>
