<svg xmlns="http://www.w3.org/2000/svg" xmlns:xlink="http://www.w3.org/1999/xlink" width="908pt" height="479pt" viewBox="0 0 908 479"><g id="graph0" class="graph" transform="scale(1 1) rotate(0) translate(4 475)"><title>G</title><polygon fill="#fffacd" stroke="transparent" points="-4 4 -4 -475 904 -475 904 4 -4 4"/><g id="clust1" class="cluster"><title>cluster_1</title><polygon fill="#fffacd" stroke="#000" points="469 -253 469 -392 892 -392 892 -253 469 -253"/></g><g id="clust2" class="cluster"><title>cluster_2</title><polygon fill="#fffacd" stroke="#000" points="8 -166 8 -305 248 -305 248 -166 8 -166"/></g><g id="node1" class="node"><title>Node2_1</title><ellipse cx="777" cy="-279" fill="#40e0d0" stroke="#40e0d0" rx="106.68" ry="18"/><text x="777" y="-275.3" font-family="Times,serif" font-size="14" text-anchor="middle">सुगन्धेन(2.1)</text></g><g id="node2" class="node"><title>Node1_2</title><ellipse cx="566" cy="-366" fill="#40e0d0" stroke="#40e0d0" rx="69.59" ry="18"/><text x="566" y="-362.3" font-family="Times,serif" font-size="14" text-anchor="middle">ओघेण(1.2)</text></g><g id="edge3" class="edge"><title>Node2_1-&gt;Node1_2</title><path fill="none" stroke="#000" d="M740.69,-301.76C723.84,-311.27 703.31,-322.05 684,-330 661.67,-339.2 636.07,-347.1 614.43,-353.05"/><polygon fill="#000" stroke="#000" points="742.71 -304.64 749.65 -296.63 739.23 -298.57 742.71 -304.64"/><text x="772.5" y="-318.8" font-family="Times,serif" font-size="14" text-anchor="middle">विशेषणम्</text></g><g id="node7" class="node"><title>Node6_1</title><ellipse cx="379" cy="-453" fill="#ff1975" stroke="#ff1975" rx="59.59" ry="18"/><text x="379" y="-449.3" font-family="Times,serif" font-size="14" text-anchor="middle">बभौ(6.1)</text></g><g id="edge2" class="edge"><title>Node1_2-&gt;Node6_1</title><path fill="none" stroke="#000" d="M557.32,-393.76C553.31,-402.34 547.68,-411.13 540,-417 511.25,-438.98 471.6,-447.78 438.85,-451.06"/><polygon fill="#000" stroke="#000" points="560.63 -394.91 561.19 -384.33 554.15 -392.26 560.63 -394.91"/><text x="588" y="-405.8" font-family="Times,serif" font-size="14" text-anchor="middle">करणम्</text></g><g id="node3" class="node"><title>Node4_1</title><ellipse cx="565" cy="-279" fill="#40e0d0" stroke="#40e0d0" rx="87.99" ry="18"/><text x="565" y="-275.3" font-family="Times,serif" font-size="14" text-anchor="middle">वर्णेन(4.1)</text></g><g id="edge5" class="edge"><title>Node4_1-&gt;Node1_2</title><path fill="none" stroke="#000" d="M565.32,-307.27C565.48,-320.58 565.66,-336.19 565.8,-347.82"/><polygon fill="#000" stroke="#000" points="568.82 -307.16 565.2 -297.2 561.82 -307.24 568.82 -307.16"/><text x="622.5" y="-318.8" font-family="Times,serif" font-size="14" text-anchor="middle">विशेषणम्</text></g><g id="node4" class="node"><title>Node10_3</title><ellipse cx="128" cy="-192" fill="#00bfff" stroke="#00bfff" rx="112.38" ry="18"/><text x="128" y="-188.3" font-family="Times,serif" font-size="14" text-anchor="middle">विभूषितः(10.3)</text></g><g id="node5" class="node"><title>Node7_1</title><ellipse cx="169" cy="-279" fill="#00bfff" stroke="#00bfff" rx="69.59" ry="18"/><text x="169" y="-275.3" font-family="Times,serif" font-size="14" text-anchor="middle">मेघः(7.1)</text></g><g id="edge12" class="edge"><title>Node10_3-&gt;Node7_1</title><path fill="none" stroke="#000" d="M140.8,-219.54C147.35,-233.12 155.13,-249.24 160.86,-261.11"/><polygon fill="#000" stroke="#000" points="143.79 -217.69 136.3 -210.2 137.49 -220.73 143.79 -217.69"/><text x="208.5" y="-231.8" font-family="Times,serif" font-size="14" text-anchor="middle">विशेषणम्</text></g><g id="node9" class="node"><title>Node5_1</title><ellipse cx="199" cy="-366" fill="#00bfff" stroke="#00bfff" rx="78.79" ry="18"/><text x="199" y="-362.3" font-family="Times,serif" font-size="14" text-anchor="middle">वानरः(5.1)</text></g><g id="edge7" class="edge"><title>Node7_1-&gt;Node5_1</title><path fill="none" stroke="#000" d="M178.48,-306.87C183.21,-320.27 188.79,-336.08 192.94,-347.82"/><polygon fill="#000" stroke="#000" points="181.7 -305.47 175.07 -297.2 175.1 -307.8 181.7 -305.47"/><text x="236" y="-318.8" font-family="Times,serif" font-size="14" text-anchor="middle">उपमानम्</text></g><g id="node6" class="node"><title>Node1_1</title><ellipse cx="338" cy="-279" fill="#ff0" stroke="#ff0" rx="81.49" ry="18"/><text x="338" y="-275.3" font-family="Times,serif" font-size="14" text-anchor="middle">पुष्प-(1.1)</text></g><g id="edge1" class="edge"><title>Node1_1-&gt;Node1_2</title><path fill="none" stroke="#000" d="M341.11,-307.32C343.4,-315.72 347.31,-324.26 354,-330 373.29,-346.57 441.91,-343.85 467,-348 480.94,-350.31 495.96,-352.86 510,-355.26"/><polygon fill="#000" stroke="#000" points="344.5 -306.42 339.05 -297.34 337.64 -307.84 344.5 -306.42"/><text x="457.5" y="-318.8" font-family="Times,serif" font-size="14" text-anchor="middle">षष्ठी_तत्पुरुषः</text></g><g id="node8" class="node"><title>Node3_1</title><ellipse cx="565" cy="-192" fill="#f9f" stroke="#f9f" rx="69.59" ry="18"/><text x="565" y="-188.3" font-family="Times,serif" font-size="14" text-anchor="middle">नाना(3.1)</text></g><g id="edge4" class="edge"><title>Node3_1-&gt;Node4_1</title><path fill="none" stroke="#000" d="M565,-220.27C565,-233.58 565,-249.19 565,-260.82"/><polygon fill="#000" stroke="#000" points="568.5 -220.2 565 -210.2 561.5 -220.2 568.5 -220.2"/><text x="622.5" y="-231.8" font-family="Times,serif" font-size="14" text-anchor="middle">सम्बन्धः</text></g><g id="edge6" class="edge"><title>Node5_1-&gt;Node6_1</title><path fill="none" stroke="#000" d="M240.27,-387.04C259.33,-396.24 282.28,-407.25 303,-417 317.59,-423.87 333.82,-431.36 347.52,-437.64"/><polygon fill="#000" stroke="#000" points="241.78 -383.88 231.26 -382.68 238.74 -390.18 241.78 -383.88"/><text x="339" y="-405.8" font-family="Times,serif" font-size="14" text-anchor="middle">कर्ता</text></g><g id="node10" class="node"><title>Node8_1</title><ellipse cx="309" cy="-192" fill="#f9f" stroke="#f9f" rx="50.89" ry="18"/><text x="309" y="-188.3" font-family="Times,serif" font-size="14" text-anchor="middle">इव(8.1)</text></g><g id="edge8" class="edge"><title>Node8_1-&gt;Node7_1</title><path fill="none" stroke="#000" d="M293.56,-218.42C287.18,-227.2 279.13,-236.47 270,-243 264.85,-246.68 236.48,-256.39 211.11,-264.65"/><polygon fill="#000" stroke="#000" points="296.61 -220.15 299.35 -209.92 290.83 -216.21 296.61 -220.15"/><text x="375" y="-231.8" font-family="Times,serif" font-size="14" text-anchor="middle">उपमान_द्योतकः</text></g><g id="node11" class="node"><title>Node9_1</title><ellipse cx="379" cy="-366" fill="#c6e2eb" stroke="#c6e2eb" rx="78.79" ry="18"/><text x="379" y="-362.3" font-family="Times,serif" font-size="14" text-anchor="middle">आकाशे(9.1)</text></g><g id="edge9" class="edge"><title>Node9_1-&gt;Node6_1</title><path fill="none" stroke="#000" d="M379,-394.27C379,-407.58 379,-423.19 379,-434.82"/><polygon fill="#000" stroke="#000" points="382.5 -394.2 379 -384.2 375.5 -394.2 382.5 -394.2"/><text x="457.5" y="-405.8" font-family="Times,serif" font-size="14" text-anchor="middle">देशाधिकरणम्</text></g><g id="node12" class="node"><title>Node10_1</title><ellipse cx="128" cy="-18" fill="#ff0" stroke="#ff0" rx="115.08" ry="18"/><text x="128" y="-14.3" font-family="Times,serif" font-size="14" text-anchor="middle">विद्युत्-(10.1)</text></g><g id="node13" class="node"><title>Node10_2</title><ellipse cx="128" cy="-105" fill="#ff0" stroke="#ff0" rx="59.59" ry="18"/><text x="128" y="-101.3" font-family="Times,serif" font-size="14" text-anchor="middle">गण-(10.2)</text></g><g id="edge10" class="edge"><title>Node10_1-&gt;Node10_2</title><path fill="none" stroke="#000" d="M128,-46.27C128,-59.58 128,-75.19 128,-86.82"/><polygon fill="#000" stroke="#000" points="131.5 -46.2 128 -36.2 124.5 -46.2 131.5 -46.2"/><text x="231.5" y="-57.8" font-family="Times,serif" font-size="14" text-anchor="middle">षष्ठी_तत्पुरुषः</text></g><g id="edge11" class="edge"><title>Node10_2-&gt;Node10_3</title><path fill="none" stroke="#000" d="M128,-133.27C128,-146.58 128,-162.19 128,-173.82"/><polygon fill="#000" stroke="#000" points="131.5 -133.2 128 -123.2 124.5 -133.2 131.5 -133.2"/><text x="238.5" y="-144.8" font-family="Times,serif" font-size="14" text-anchor="middle">तृतीया_तत्पुरुषः</text></g></g></svg>