<svg xmlns="http://www.w3.org/2000/svg" xmlns:xlink="http://www.w3.org/1999/xlink" width="1088pt" height="305pt" viewBox="0 0 1087.78 305"><g id="graph0" class="graph" transform="scale(1 1) rotate(0) translate(4 301)"><title>G</title><polygon fill="#fffacd" stroke="transparent" points="-4 4 -4 -301 1083.78 -301 1083.78 4 -4 4"/><g id="node1" class="node"><title>Node1_1</title><ellipse cx="547.19" cy="-105" fill="#93db70" stroke="#93db70" rx="96.68" ry="18"/><text x="547.19" y="-101.3" font-family="Times,serif" font-size="14" text-anchor="middle">मार्गम्(1.1)</text></g><g id="node2" class="node"><title>Node2_1</title><ellipse cx="324.19" cy="-192" fill="#00bfff" stroke="#00bfff" rx="96.68" ry="18"/><text x="324.19" y="-188.3" font-family="Times,serif" font-size="14" text-anchor="middle">आलोकयन्(2.1)</text></g><g id="edge1" class="edge"><title>Node1_1-&gt;Node2_1</title><path fill="none" stroke="#000" d="M540.73,-133.15C537.42,-141.64 532.49,-150.28 525.19,-156 515.24,-163.79 453.89,-173.78 401.55,-181.09"/><polygon fill="#000" stroke="#000" points="544.13 -134.01 543.91 -123.42 537.48 -131.83 544.13 -134.01"/><text x="565.19" y="-144.8" font-family="Times,serif" font-size="14" text-anchor="middle">कर्म</text></g><g id="node3" class="node"><title>Node5_1</title><ellipse cx="550.19" cy="-279" fill="#ff1975" stroke="#ff1975" rx="78.79" ry="18"/><text x="550.19" y="-275.3" font-family="Times,serif" font-size="14" text-anchor="middle">रुरोध(5.1)</text></g><g id="edge2" class="edge"><title>Node2_1-&gt;Node5_1</title><path fill="none" stroke="#000" d="M318.43,-220.29C318.25,-228.44 319.81,-236.84 325.19,-243 344.25,-264.8 415.18,-273.11 472.37,-276.24"/><polygon fill="#000" stroke="#000" points="321.92 -220.57 319.44 -210.27 314.96 -219.88 321.92 -220.57"/><text x="432.19" y="-231.8" font-family="Times,serif" font-size="14" text-anchor="middle">वर्तमानसमानकालः</text></g><g id="node4" class="node"><title>Node3_1</title><ellipse cx="324.19" cy="-105" fill="#b4ffb4" stroke="#b4ffb4" rx="87.99" ry="18"/><text x="324.19" y="-101.3" font-family="Times,serif" font-size="14" text-anchor="middle">दूरात्(3.1)</text></g><g id="edge3" class="edge"><title>Node3_1-&gt;Node2_1</title><path fill="none" stroke="#000" d="M324.19,-133.27C324.19,-146.58 324.19,-162.19 324.19,-173.82"/><polygon fill="#000" stroke="#000" points="327.69 -133.2 324.19 -123.2 320.69 -133.2 327.69 -133.2"/><text x="424.19" y="-144.8" font-family="Times,serif" font-size="14" text-anchor="middle">क्रियाविशेषणम्</text></g><g id="node5" class="node"><title>Node4_1</title><ellipse cx="109.19" cy="-18" fill="#f9f" stroke="#f9f" rx="90.98" ry="18"/><text x="109.19" y="-14.3" font-family="Times,serif" font-size="14" text-anchor="middle">ऊर्ध्व-(4.1)</text></g><g id="node6" class="node"><title>Node4_2</title><ellipse cx="109.19" cy="-105" fill="#ff0" stroke="#ff0" rx="109.38" ry="18"/><text x="109.19" y="-101.3" font-family="Times,serif" font-size="14" text-anchor="middle">प्रणिहित-(4.2)</text></g><g id="edge4" class="edge"><title>Node4_1-&gt;Node4_2</title><path fill="none" stroke="#000" d="M109.19,-46.27C109.19,-59.58 109.19,-75.19 109.19,-86.82"/><polygon fill="#000" stroke="#000" points="112.69 -46.2 109.19 -36.2 105.69 -46.2 112.69 -46.2"/><text x="180.69" y="-57.8" font-family="Times,serif" font-size="14" text-anchor="middle">बहुव्रीहिः</text></g><g id="node7" class="node"><title>Node4_3</title><ellipse cx="118.19" cy="-192" fill="#00bfff" stroke="#00bfff" rx="87.99" ry="18"/><text x="118.19" y="-188.3" font-family="Times,serif" font-size="14" text-anchor="middle">ईक्षणः(4.3)</text></g><g id="edge5" class="edge"><title>Node4_2-&gt;Node4_3</title><path fill="none" stroke="#000" d="M112.08,-133.27C113.49,-146.58 115.14,-162.19 116.37,-173.82"/><polygon fill="#000" stroke="#000" points="115.55 -132.78 111.01 -123.2 108.58 -133.51 115.55 -132.78"/><text x="186.69" y="-144.8" font-family="Times,serif" font-size="14" text-anchor="middle">बहुव्रीहिः</text></g><g id="edge6" class="edge"><title>Node4_3-&gt;Node5_1</title><path fill="none" stroke="#000" d="M160.24,-213.09C184.06,-223.64 214.71,-235.82 243.19,-243 320.17,-262.41 410.75,-271.08 473.48,-274.93"/><polygon fill="#000" stroke="#000" points="161.37 -209.76 150.81 -208.85 158.49 -216.15 161.37 -209.76"/><text x="279.19" y="-231.8" font-family="Times,serif" font-size="14" text-anchor="middle">कर्ता</text></g><g id="node8" class="node"><title>Node6_1</title><ellipse cx="539.19" cy="-192" fill="#b0e2ff" stroke="#b0e2ff" rx="78.79" ry="18"/><text x="539.19" y="-188.3" font-family="Times,serif" font-size="14" text-anchor="middle">हृदये(6.1)</text></g><g id="edge7" class="edge"><title>Node6_1-&gt;Node5_1</title><path fill="none" stroke="#000" d="M542.72,-220.27C544.44,-233.58 546.46,-249.19 547.97,-260.82"/><polygon fill="#000" stroke="#000" points="546.17 -219.67 541.42 -210.2 539.23 -220.57 546.17 -219.67"/><text x="623.69" y="-231.8" font-family="Times,serif" font-size="14" text-anchor="middle">देशाधिकरणम्</text></g><g id="node9" class="node"><title>Node7_1</title><ellipse cx="742.19" cy="-192" fill="#93db70" stroke="#93db70" rx="106.68" ry="18"/><text x="742.19" y="-188.3" font-family="Times,serif" font-size="14" text-anchor="middle">प्राणान्(7.1)</text></g><g id="edge8" class="edge"><title>Node7_1-&gt;Node5_1</title><path fill="none" stroke="#000" d="M728.66,-218.98C722.86,-227.83 715.29,-236.99 706.19,-243 681.99,-258.99 651.55,-267.75 624,-272.53"/><polygon fill="#000" stroke="#000" points="731.69 -220.74 733.88 -210.37 725.7 -217.12 731.69 -220.74"/><text x="750.19" y="-231.8" font-family="Times,serif" font-size="14" text-anchor="middle">कर्म</text></g><g id="node10" class="node"><title>Node8_1</title><ellipse cx="973.19" cy="-105" fill="#93db70" stroke="#93db70" rx="87.99" ry="18"/><text x="973.19" y="-101.3" font-family="Times,serif" font-size="14" text-anchor="middle">आकाशम्(8.1)</text></g><g id="node11" class="node"><title>Node9_1</title><ellipse cx="973.19" cy="-192" fill="#00bfff" stroke="#00bfff" rx="106.68" ry="18"/><text x="973.19" y="-188.3" font-family="Times,serif" font-size="14" text-anchor="middle">अवलोकयन्(9.1)</text></g><g id="edge9" class="edge"><title>Node8_1-&gt;Node9_1</title><path fill="none" stroke="#000" d="M973.19,-133.27C973.19,-146.58 973.19,-162.19 973.19,-173.82"/><polygon fill="#000" stroke="#000" points="976.69 -133.2 973.19 -123.2 969.69 -133.2 976.69 -133.2"/><text x="1002.19" y="-144.8" font-family="Times,serif" font-size="14" text-anchor="middle">कर्म</text></g><g id="edge10" class="edge"><title>Node9_1-&gt;Node5_1</title><path fill="none" stroke="#000" d="M913.06,-210.61C875.88,-221.05 827.04,-233.96 783.19,-243 727.9,-254.39 664.51,-263.67 617.83,-269.81"/><polygon fill="#000" stroke="#000" points="914.07 -213.96 922.74 -207.87 912.16 -207.22 914.07 -213.96"/><text x="953.19" y="-231.8" font-family="Times,serif" font-size="14" text-anchor="middle">वर्तमानसमानकालः</text></g></g></svg>