<?xml version="1.0" encoding="UTF-8" standalone="no"?>
<!DOCTYPE svg PUBLIC "-//W3C//DTD SVG 1.1//EN"
 "http://www.w3.org/Graphics/SVG/1.1/DTD/svg11.dtd">
<!-- Generated by graphviz version 2.43.0 (0)
 -->
<!-- Title: G Pages: 1 -->
<svg width="1053pt" height="392pt"
 viewBox="0.00 0.00 1053.14 392.00" xmlns="http://www.w3.org/2000/svg" xmlns:xlink="http://www.w3.org/1999/xlink">
<g id="graph0" class="graph" transform="scale(1 1) rotate(0) translate(4 388)">
<title>G</title>
<polygon fill="#fffacd" stroke="transparent" points="-4,4 -4,-388 1049.14,-388 1049.14,4 -4,4"/>
<g id="clust1" class="cluster">
<title>cluster_1</title>
<polygon fill="#fffacd" stroke="black" points="771.14,-79 771.14,-218 1037.14,-218 1037.14,-79 771.14,-79"/>
</g>
<g id="clust2" class="cluster">
<title>cluster_2</title>
<polygon fill="#fffacd" stroke="black" points="570.14,-253 570.14,-305 750.14,-305 750.14,-253 570.14,-253"/>
</g>
<!-- Node7_1 -->
<g id="node1" class="node">
<title>Node7_1</title>
<ellipse fill="#00bfff" stroke="#00bfff" cx="904.14" cy="-105" rx="124.58" ry="18"/>
<text text-anchor="middle" x="904.14" y="-101.3" font-family="Times,serif" font-size="14.00">प्रच्छन्नः(7.1)</text>
</g>
<!-- Node9_1 -->
<g id="node2" class="node">
<title>Node9_1</title>
<ellipse fill="#00bfff" stroke="#00bfff" cx="876.14" cy="-192" rx="96.68" ry="18"/>
<text text-anchor="middle" x="876.14" y="-188.3" font-family="Times,serif" font-size="14.00">प्रकाशः(9.1)</text>
</g>
<!-- Node7_1&#45;&gt;Node9_1 -->
<g id="edge8" class="edge">
<title>Node7_1&#45;&gt;Node9_1</title>
<path fill="none" stroke="black" d="M895.29,-132.87C890.88,-146.27 885.67,-162.08 881.8,-173.82"/>
<polygon fill="black" stroke="black" points="898.67,-133.79 898.48,-123.2 892.02,-131.6 898.67,-133.79"/>
<text text-anchor="middle" x="955.64" y="-144.8" font-family="Times,serif" font-size="14.00">समुच्चितः</text>
</g>
<!-- Node14_1 -->
<g id="node3" class="node">
<title>Node14_1</title>
<ellipse fill="#93db70" stroke="#93db70" cx="660.14" cy="-279" rx="81.79" ry="18"/>
<text text-anchor="middle" x="660.14" y="-275.3" font-family="Times,serif" font-size="14.00">(कपिः)(14.1)</text>
</g>
<!-- Node9_1&#45;&gt;Node14_1 -->
<g id="edge10" class="edge">
<title>Node9_1&#45;&gt;Node14_1</title>
<path fill="none" stroke="black" d="M831.1,-212.81C809.2,-222.25 782.43,-233.53 758.14,-243 739.97,-250.09 719.68,-257.43 702.31,-263.54"/>
<polygon fill="black" stroke="black" points="832.69,-215.93 840.47,-208.75 829.91,-209.51 832.69,-215.93"/>
<text text-anchor="middle" x="850.64" y="-231.8" font-family="Times,serif" font-size="14.00">विशेषणम्</text>
</g>
<!-- Node13_1 -->
<g id="node5" class="node">
<title>Node13_1</title>
<ellipse fill="#ff1975" stroke="#ff1975" cx="423.14" cy="-366" rx="102.88" ry="18"/>
<text text-anchor="middle" x="423.14" y="-362.3" font-family="Times,serif" font-size="14.00">दृश्यते(13.1)</text>
</g>
<!-- Node14_1&#45;&gt;Node13_1 -->
<g id="edge14" class="edge">
<title>Node14_1&#45;&gt;Node13_1</title>
<path fill="none" stroke="black" d="M653.72,-307.19C650.41,-315.69 645.47,-324.32 638.14,-330 619.08,-344.76 565.68,-353.5 516.86,-358.55"/>
<polygon fill="black" stroke="black" points="657.12,-308.05 656.9,-297.45 650.47,-305.88 657.12,-308.05"/>
<text text-anchor="middle" x="678.14" y="-318.8" font-family="Times,serif" font-size="14.00">कर्म</text>
</g>
<!-- Node1_1 -->
<g id="node4" class="node">
<title>Node1_1</title>
<ellipse fill="#00bfff" stroke="#00bfff" cx="186.14" cy="-279" rx="106.68" ry="18"/>
<text text-anchor="middle" x="186.14" y="-275.3" font-family="Times,serif" font-size="14.00">प्रविशन्(1.1)</text>
</g>
<!-- Node1_1&#45;&gt;Node13_1 -->
<g id="edge1" class="edge">
<title>Node1_1&#45;&gt;Node13_1</title>
<path fill="none" stroke="black" d="M190.88,-307.13C193.67,-315.62 198.1,-324.27 205.14,-330 224.13,-345.46 278.45,-354.21 328.12,-359.09"/>
<polygon fill="black" stroke="black" points="194.25,-306.17 188.3,-297.4 187.48,-307.97 194.25,-306.17"/>
<text text-anchor="middle" x="312.14" y="-318.8" font-family="Times,serif" font-size="14.00">वर्तमानसमानकालः</text>
</g>
<!-- Node2_1 -->
<g id="node6" class="node">
<title>Node2_1</title>
<ellipse fill="#ffff00" stroke="#ffff00" cx="72.14" cy="-105" rx="72.29" ry="18"/>
<text text-anchor="middle" x="72.14" y="-101.3" font-family="Times,serif" font-size="14.00">अभ्र&#45;(2.1)</text>
</g>
<!-- Node2_2 -->
<g id="node7" class="node">
<title>Node2_2</title>
<ellipse fill="#93db70" stroke="#93db70" cx="110.14" cy="-192" rx="87.99" ry="18"/>
<text text-anchor="middle" x="110.14" y="-188.3" font-family="Times,serif" font-size="14.00">जालानि(2.2)</text>
</g>
<!-- Node2_1&#45;&gt;Node2_2 -->
<g id="edge2" class="edge">
<title>Node2_1&#45;&gt;Node2_2</title>
<path fill="none" stroke="black" d="M77.27,-133.1C79.22,-140.71 81.8,-148.85 85.14,-156 88.05,-162.22 92.1,-168.49 96.09,-173.97"/>
<polygon fill="black" stroke="black" points="80.65,-132.16 75,-123.2 73.83,-133.73 80.65,-132.16"/>
<text text-anchor="middle" x="188.64" y="-144.8" font-family="Times,serif" font-size="14.00">षष्ठी_तत्पुरुषः</text>
</g>
<!-- Node2_2&#45;&gt;Node1_1 -->
<g id="edge3" class="edge">
<title>Node2_2&#45;&gt;Node1_1</title>
<path fill="none" stroke="black" d="M132.1,-217.56C144.54,-231.47 159.78,-248.51 170.9,-260.95"/>
<polygon fill="black" stroke="black" points="134.43,-214.92 125.16,-209.79 129.22,-219.58 134.43,-214.92"/>
<text text-anchor="middle" x="182.14" y="-231.8" font-family="Times,serif" font-size="14.00">कर्म</text>
</g>
<!-- Node3_1 -->
<g id="node8" class="node">
<title>Node3_1</title>
<ellipse fill="#00bfff" stroke="#00bfff" cx="423.14" cy="-279" rx="106.68" ry="18"/>
<text text-anchor="middle" x="423.14" y="-275.3" font-family="Times,serif" font-size="14.00">निष्पतन्(3.1)</text>
</g>
<!-- Node3_1&#45;&gt;Node13_1 -->
<g id="edge4" class="edge">
<title>Node3_1&#45;&gt;Node13_1</title>
<path fill="none" stroke="black" d="M423.14,-307.27C423.14,-320.58 423.14,-336.19 423.14,-347.82"/>
<polygon fill="black" stroke="black" points="426.64,-307.2 423.14,-297.2 419.64,-307.2 426.64,-307.2"/>
<text text-anchor="middle" x="530.14" y="-318.8" font-family="Times,serif" font-size="14.00">वर्तमानसमानकालः</text>
</g>
<!-- Node4_1 -->
<g id="node9" class="node">
<title>Node4_1</title>
<ellipse fill="#ff99ff" stroke="#ff99ff" cx="423.14" cy="-192" rx="41.69" ry="18"/>
<text text-anchor="middle" x="423.14" y="-188.3" font-family="Times,serif" font-size="14.00">च(4.1)</text>
</g>
<!-- Node4_1&#45;&gt;Node3_1 -->
<g id="edge5" class="edge">
<title>Node4_1&#45;&gt;Node3_1</title>
<path fill="none" stroke="black" d="M423.14,-220.27C423.14,-233.58 423.14,-249.19 423.14,-260.82"/>
<polygon fill="black" stroke="black" points="426.64,-220.2 423.14,-210.2 419.64,-220.2 426.64,-220.2"/>
<text text-anchor="middle" x="526.64" y="-231.8" font-family="Times,serif" font-size="14.00">समुच्चय_द्योतकः</text>
</g>
<!-- Node5_1 -->
<g id="node10" class="node">
<title>Node5_1</title>
<ellipse fill="#ff99ff" stroke="#ff99ff" cx="302.14" cy="-105" rx="69.59" ry="18"/>
<text text-anchor="middle" x="302.14" y="-101.3" font-family="Times,serif" font-size="14.00">पुनः(5.1)</text>
</g>
<!-- Node6_1 -->
<g id="node11" class="node">
<title>Node6_1</title>
<ellipse fill="#ff99ff" stroke="#ff99ff" cx="291.14" cy="-192" rx="69.59" ry="18"/>
<text text-anchor="middle" x="291.14" y="-188.3" font-family="Times,serif" font-size="14.00">पुनः(6.1)</text>
</g>
<!-- Node5_1&#45;&gt;Node6_1 -->
<g id="edge6" class="edge">
<title>Node5_1&#45;&gt;Node6_1</title>
<path fill="none" stroke="black" d="M298.62,-133.27C296.89,-146.58 294.87,-162.19 293.37,-173.82"/>
<polygon fill="black" stroke="black" points="302.11,-133.57 299.92,-123.2 295.16,-132.67 302.11,-133.57"/>
<text text-anchor="middle" x="341.14" y="-144.8" font-family="Times,serif" font-size="14.00">वीप्सा</text>
</g>
<!-- Node6_1&#45;&gt;Node1_1 -->
<g id="edge7" class="edge">
<title>Node6_1&#45;&gt;Node1_1</title>
<path fill="none" stroke="black" d="M262.69,-216.03C245.13,-230.25 222.99,-248.17 207.05,-261.08"/>
<polygon fill="black" stroke="black" points="265.33,-218.4 270.9,-209.39 260.92,-212.96 265.33,-218.4"/>
<text text-anchor="middle" x="302.64" y="-231.8" font-family="Times,serif" font-size="14.00">सम्बन्धः</text>
</g>
<!-- Node8_1 -->
<g id="node12" class="node">
<title>Node8_1</title>
<ellipse fill="#ff99ff" stroke="#ff99ff" cx="904.14" cy="-18" rx="41.69" ry="18"/>
<text text-anchor="middle" x="904.14" y="-14.3" font-family="Times,serif" font-size="14.00">च(8.1)</text>
</g>
<!-- Node8_1&#45;&gt;Node7_1 -->
<g id="edge9" class="edge">
<title>Node8_1&#45;&gt;Node7_1</title>
<path fill="none" stroke="black" d="M904.14,-46.27C904.14,-59.58 904.14,-75.19 904.14,-86.82"/>
<polygon fill="black" stroke="black" points="907.64,-46.2 904.14,-36.2 900.64,-46.2 907.64,-46.2"/>
<text text-anchor="middle" x="961.64" y="-57.8" font-family="Times,serif" font-size="14.00">सम्बन्धः</text>
</g>
<!-- Node10_1 -->
<g id="node13" class="node">
<title>Node10_1</title>
<ellipse fill="#ff99ff" stroke="#ff99ff" cx="670.14" cy="-105" rx="47.39" ry="18"/>
<text text-anchor="middle" x="670.14" y="-101.3" font-family="Times,serif" font-size="14.00">च(10.1)</text>
</g>
<!-- Node10_1&#45;&gt;Node9_1 -->
<g id="edge11" class="edge">
<title>Node10_1&#45;&gt;Node9_1</title>
<path fill="none" stroke="black" d="M668.09,-133.18C668.87,-141.47 671.32,-149.97 677.14,-156 679.46,-158.4 749.41,-170.33 805.72,-179.6"/>
<polygon fill="black" stroke="black" points="671.58,-132.92 667.86,-123.01 664.59,-133.08 671.58,-132.92"/>
<text text-anchor="middle" x="780.64" y="-144.8" font-family="Times,serif" font-size="14.00">समुच्चय_द्योतकः</text>
</g>
<!-- Node11_1 -->
<g id="node14" class="node">
<title>Node11_1</title>
<ellipse fill="#00bfff" stroke="#00bfff" cx="647.14" cy="-192" rx="112.38" ry="18"/>
<text text-anchor="middle" x="647.14" y="-188.3" font-family="Times,serif" font-size="14.00">चन्द्रमा(11.1)</text>
</g>
<!-- Node11_1&#45;&gt;Node14_1 -->
<g id="edge12" class="edge">
<title>Node11_1&#45;&gt;Node14_1</title>
<path fill="none" stroke="black" d="M651.31,-220.27C653.35,-233.58 655.74,-249.19 657.52,-260.82"/>
<polygon fill="black" stroke="black" points="654.75,-219.56 649.77,-210.2 647.83,-220.62 654.75,-219.56"/>
<text text-anchor="middle" x="704.14" y="-231.8" font-family="Times,serif" font-size="14.00">उपमानम्</text>
</g>
<!-- Node12_1 -->
<g id="node15" class="node">
<title>Node12_1</title>
<ellipse fill="#ff99ff" stroke="#ff99ff" cx="469.14" cy="-105" rx="56.59" ry="18"/>
<text text-anchor="middle" x="469.14" y="-101.3" font-family="Times,serif" font-size="14.00">इव(12.1)</text>
</g>
<!-- Node12_1&#45;&gt;Node11_1 -->
<g id="edge13" class="edge">
<title>Node12_1&#45;&gt;Node11_1</title>
<path fill="none" stroke="black" d="M463.54,-133.16C463.36,-141.3 464.89,-149.73 470.14,-156 481.16,-169.14 515.14,-177.44 550.42,-182.64"/>
<polygon fill="black" stroke="black" points="467.03,-133.46 464.52,-123.17 460.06,-132.78 467.03,-133.46"/>
<text text-anchor="middle" x="559.14" y="-144.8" font-family="Times,serif" font-size="14.00">उपमान_द्योतकः</text>
</g>
</g>
</svg>
