<?xml version="1.0" encoding="UTF-8" standalone="no"?>
<!DOCTYPE svg PUBLIC "-//W3C//DTD SVG 1.1//EN"
 "http://www.w3.org/Graphics/SVG/1.1/DTD/svg11.dtd">
<!-- Generated by graphviz version 2.43.0 (0)
 -->
<!-- Title: G Pages: 1 -->
<svg width="1276pt" height="582pt"
 viewBox="0.00 0.00 1276.43 582.00" xmlns="http://www.w3.org/2000/svg" xmlns:xlink="http://www.w3.org/1999/xlink">
<g id="graph0" class="graph" transform="scale(1 1) rotate(0) translate(4 578)">
<title>G</title>
<polygon fill="#fffacd" stroke="transparent" points="-4,4 -4,-578 1272.43,-578 1272.43,4 -4,4"/>
<g id="clust1" class="cluster">
<title>cluster_1</title>
<polygon fill="#fffacd" stroke="black" points="725.84,-427 725.84,-566 909.84,-566 909.84,-427 725.84,-427"/>
</g>
<g id="clust2" class="cluster">
<title>cluster_2</title>
<polygon fill="#fffacd" stroke="black" points="630.84,-166 630.84,-305 840.84,-305 840.84,-166 630.84,-166"/>
</g>
<g id="clust3" class="cluster">
<title>cluster_3</title>
<polygon fill="#fffacd" stroke="black" points="389.84,-340 389.84,-479 555.84,-479 555.84,-340 389.84,-340"/>
</g>
<!-- Node3_1 -->
<g id="node1" class="node">
<title>Node3_1</title>
<ellipse fill="#ff1975" stroke="#ff1975" cx="811.84" cy="-453" rx="59.59" ry="18"/>
<text text-anchor="middle" x="811.84" y="-449.3" font-family="Times,serif" font-size="14.00">बभौ(3.1)</text>
</g>
<!-- Node12_1 -->
<g id="node2" class="node">
<title>Node12_1</title>
<ellipse fill="#ff1975" stroke="#ff1975" cx="817.84" cy="-540" rx="84.49" ry="18"/>
<text text-anchor="middle" x="817.84" y="-536.3" font-family="Times,serif" font-size="14.00">ददृशे(12.1)</text>
</g>
<!-- Node3_1&#45;&gt;Node12_1 -->
<g id="edge4" class="edge">
<title>Node3_1&#45;&gt;Node12_1</title>
<path fill="none" stroke="black" d="M795.71,-480.16C792.83,-487.8 791.42,-496.19 793.84,-504 795.8,-510.33 799.35,-516.54 803.13,-521.93"/>
<polygon fill="black" stroke="black" points="798.93,-481.54 799.97,-471 792.58,-478.59 798.93,-481.54"/>
<text text-anchor="middle" x="858.34" y="-492.8" font-family="Times,serif" font-size="14.00">समुच्चितः</text>
</g>
<!-- Node6_3 -->
<g id="node3" class="node">
<title>Node6_3</title>
<ellipse fill="#93db70" stroke="#93db70" cx="717.84" cy="-192" rx="78.79" ry="18"/>
<text text-anchor="middle" x="717.84" y="-188.3" font-family="Times,serif" font-size="14.00">जालम्(6.3)</text>
</g>
<!-- Node7_2 -->
<g id="node4" class="node">
<title>Node7_2</title>
<ellipse fill="#93db70" stroke="#93db70" cx="735.84" cy="-279" rx="96.68" ry="18"/>
<text text-anchor="middle" x="735.84" y="-275.3" font-family="Times,serif" font-size="14.00">अर्णवम्(7.2)</text>
</g>
<!-- Node6_3&#45;&gt;Node7_2 -->
<g id="edge9" class="edge">
<title>Node6_3&#45;&gt;Node7_2</title>
<path fill="none" stroke="black" d="M723.62,-220.27C726.43,-233.58 729.74,-249.19 732.2,-260.82"/>
<polygon fill="black" stroke="black" points="726.98,-219.26 721.48,-210.2 720.13,-220.71 726.98,-219.26"/>
<text text-anchor="middle" x="785.34" y="-231.8" font-family="Times,serif" font-size="14.00">विशेषणम्</text>
</g>
<!-- Node1_1 -->
<g id="node7" class="node">
<title>Node1_1</title>
<ellipse fill="#00bfff" stroke="#00bfff" cx="667.84" cy="-366" rx="78.79" ry="18"/>
<text text-anchor="middle" x="667.84" y="-362.3" font-family="Times,serif" font-size="14.00">पिबन्(1.1)</text>
</g>
<!-- Node7_2&#45;&gt;Node1_1 -->
<g id="edge11" class="edge">
<title>Node7_2&#45;&gt;Node1_1</title>
<path fill="none" stroke="black" d="M727.02,-306.72C723.64,-314.69 719.27,-323.12 713.84,-330 708.25,-337.09 700.91,-343.53 693.73,-348.88"/>
<polygon fill="black" stroke="black" points="730.29,-307.97 730.65,-297.38 723.76,-305.43 730.29,-307.97"/>
<text text-anchor="middle" x="750.84" y="-318.8" font-family="Times,serif" font-size="14.00">कर्म</text>
</g>
<!-- Node13_1 -->
<g id="node5" class="node">
<title>Node13_1</title>
<ellipse fill="#00bfff" stroke="#00bfff" cx="454.84" cy="-366" rx="56.59" ry="18"/>
<text text-anchor="middle" x="454.84" y="-362.3" font-family="Times,serif" font-size="14.00">सः(13.1)</text>
</g>
<!-- Node14_2 -->
<g id="node6" class="node">
<title>Node14_2</title>
<ellipse fill="#00bfff" stroke="#00bfff" cx="472.84" cy="-453" rx="75.29" ry="18"/>
<text text-anchor="middle" x="472.84" y="-449.3" font-family="Times,serif" font-size="14.00">कपिः(14.2)</text>
</g>
<!-- Node13_1&#45;&gt;Node14_2 -->
<g id="edge16" class="edge">
<title>Node13_1&#45;&gt;Node14_2</title>
<path fill="none" stroke="black" d="M435.68,-392.53C432.03,-400.41 430.31,-409.09 433.84,-417 437.03,-424.14 442.48,-430.44 448.31,-435.65"/>
<polygon fill="black" stroke="black" points="438.78,-394.17 440.66,-383.75 432.68,-390.72 438.78,-394.17"/>
<text text-anchor="middle" x="491.34" y="-405.8" font-family="Times,serif" font-size="14.00">विशेषणम्</text>
</g>
<!-- Node14_2&#45;&gt;Node12_1 -->
<g id="edge18" class="edge">
<title>Node14_2&#45;&gt;Node12_1</title>
<path fill="none" stroke="black" d="M533.16,-468.86C598.7,-485.01 702.41,-510.56 764.9,-525.96"/>
<polygon fill="black" stroke="black" points="533.92,-465.44 523.38,-466.45 532.25,-472.24 533.92,-465.44"/>
<text text-anchor="middle" x="694.84" y="-492.8" font-family="Times,serif" font-size="14.00">कर्म</text>
</g>
<!-- Node1_1&#45;&gt;Node3_1 -->
<g id="edge1" class="edge">
<title>Node1_1&#45;&gt;Node3_1</title>
<path fill="none" stroke="black" d="M675.23,-393.71C678.74,-402.18 683.76,-410.91 690.84,-417 709.07,-432.69 733.98,-441.36 756.45,-446.14"/>
<polygon fill="black" stroke="black" points="678.44,-392.31 671.77,-384.07 671.85,-394.67 678.44,-392.31"/>
<text text-anchor="middle" x="797.84" y="-405.8" font-family="Times,serif" font-size="14.00">वर्तमानसमानकालः</text>
</g>
<!-- Node1_1&#45;&gt;Node14_2 -->
<g id="edge2" class="edge">
<title>Node1_1&#45;&gt;Node14_2</title>
<path fill="none" stroke="black" stroke-dasharray="1,5" d="M615.9,-384.84C602.35,-389.95 587.89,-395.83 574.84,-402 562.78,-407.7 560.69,-410.87 548.84,-417 535.42,-423.94 520.36,-431.02 507.21,-436.98"/>
<polygon fill="black" stroke="black" points="617.41,-388.01 625.57,-381.25 614.98,-381.45 617.41,-388.01"/>
<text text-anchor="middle" x="624.84" y="-405.8" font-family="Times,serif" font-size="14.00">उपमानम्</text>
</g>
<!-- Node2_1 -->
<g id="node8" class="node">
<title>Node2_1</title>
<ellipse fill="#ff99ff" stroke="#ff99ff" cx="534.84" cy="-279" rx="50.89" ry="18"/>
<text text-anchor="middle" x="534.84" y="-275.3" font-family="Times,serif" font-size="14.00">इव(2.1)</text>
</g>
<!-- Node2_1&#45;&gt;Node1_1 -->
<g id="edge3" class="edge">
<title>Node2_1&#45;&gt;Node1_1</title>
<path fill="none" stroke="black" d="M526.75,-306.91C525.9,-315.04 526.82,-323.52 531.84,-330 534.53,-333.47 577.23,-344.11 614.07,-352.76"/>
<polygon fill="black" stroke="black" points="530.21,-307.44 528.58,-296.97 523.32,-306.17 530.21,-307.44"/>
<text text-anchor="middle" x="620.84" y="-318.8" font-family="Times,serif" font-size="14.00">उपमान_द्योतकः</text>
</g>
<!-- Node4_1 -->
<g id="node9" class="node">
<title>Node4_1</title>
<ellipse fill="#ff99ff" stroke="#ff99ff" cx="930.84" cy="-366" rx="41.69" ry="18"/>
<text text-anchor="middle" x="930.84" y="-362.3" font-family="Times,serif" font-size="14.00">च(4.1)</text>
</g>
<!-- Node4_1&#45;&gt;Node3_1 -->
<g id="edge5" class="edge">
<title>Node4_1&#45;&gt;Node3_1</title>
<path fill="none" stroke="black" d="M923.63,-393.82C920.28,-402.14 915.52,-410.77 908.84,-417 895.63,-429.34 877.74,-437.39 860.93,-442.62"/>
<polygon fill="black" stroke="black" points="926.95,-394.93 926.94,-384.33 920.34,-392.62 926.95,-394.93"/>
<text text-anchor="middle" x="976.34" y="-405.8" font-family="Times,serif" font-size="14.00">सम्बन्धः</text>
</g>
<!-- Node5_1 -->
<g id="node10" class="node">
<title>Node5_1</title>
<ellipse fill="#ff99ff" stroke="#ff99ff" cx="1068.84" cy="-366" rx="59.59" ry="18"/>
<text text-anchor="middle" x="1068.84" y="-362.3" font-family="Times,serif" font-size="14.00">अपि(5.1)</text>
</g>
<!-- Node5_1&#45;&gt;Node3_1 -->
<g id="edge6" class="edge">
<title>Node5_1&#45;&gt;Node3_1</title>
<path fill="none" stroke="black" d="M1058.62,-393.13C1053.72,-402.21 1046.91,-411.48 1037.84,-417 1013.28,-431.94 937.2,-422.28 908.84,-427 890.14,-430.11 869.78,-435.1 852.56,-439.81"/>
<polygon fill="black" stroke="black" points="1061.87,-394.45 1063.04,-383.92 1055.56,-391.42 1061.87,-394.45"/>
<text text-anchor="middle" x="1109.34" y="-405.8" font-family="Times,serif" font-size="14.00">सम्बन्धः</text>
</g>
<!-- Node6_1 -->
<g id="node11" class="node">
<title>Node6_1</title>
<ellipse fill="#ffff00" stroke="#ffff00" cx="717.84" cy="-18" rx="44.39" ry="18"/>
<text text-anchor="middle" x="717.84" y="-14.3" font-family="Times,serif" font-size="14.00">स&#45;(6.1)</text>
</g>
<!-- Node6_2 -->
<g id="node12" class="node">
<title>Node6_2</title>
<ellipse fill="#ffff00" stroke="#ffff00" cx="717.84" cy="-105" rx="81.49" ry="18"/>
<text text-anchor="middle" x="717.84" y="-101.3" font-family="Times,serif" font-size="14.00">ऊर्मि&#45;(6.2)</text>
</g>
<!-- Node6_1&#45;&gt;Node6_2 -->
<g id="edge7" class="edge">
<title>Node6_1&#45;&gt;Node6_2</title>
<path fill="none" stroke="black" d="M717.84,-46.27C717.84,-59.58 717.84,-75.19 717.84,-86.82"/>
<polygon fill="black" stroke="black" points="721.34,-46.2 717.84,-36.2 714.34,-46.2 721.34,-46.2"/>
<text text-anchor="middle" x="789.34" y="-57.8" font-family="Times,serif" font-size="14.00">बहुव्रीहिः</text>
</g>
<!-- Node6_2&#45;&gt;Node6_3 -->
<g id="edge8" class="edge">
<title>Node6_2&#45;&gt;Node6_3</title>
<path fill="none" stroke="black" d="M717.84,-133.27C717.84,-146.58 717.84,-162.19 717.84,-173.82"/>
<polygon fill="black" stroke="black" points="721.34,-133.2 717.84,-123.2 714.34,-133.2 721.34,-133.2"/>
<text text-anchor="middle" x="821.34" y="-144.8" font-family="Times,serif" font-size="14.00">षष्ठी_तत्पुरुषः</text>
</g>
<!-- Node7_1 -->
<g id="node13" class="node">
<title>Node7_1</title>
<ellipse fill="#ffff00" stroke="#ffff00" cx="911.84" cy="-192" rx="63.09" ry="18"/>
<text text-anchor="middle" x="911.84" y="-188.3" font-family="Times,serif" font-size="14.00">महा&#45;(7.1)</text>
</g>
<!-- Node7_1&#45;&gt;Node7_2 -->
<g id="edge10" class="edge">
<title>Node7_1&#45;&gt;Node7_2</title>
<path fill="none" stroke="black" d="M886.41,-215.91C874.95,-225.32 860.86,-235.69 846.84,-243 829.91,-251.83 810.35,-258.91 792.42,-264.33"/>
<polygon fill="black" stroke="black" points="888.86,-218.41 894.25,-209.29 884.35,-213.06 888.86,-218.41"/>
<text text-anchor="middle" x="933.34" y="-231.8" font-family="Times,serif" font-size="14.00">कर्मधारयः</text>
</g>
<!-- Node8_1 -->
<g id="node14" class="node">
<title>Node8_1</title>
<ellipse fill="#00bfff" stroke="#00bfff" cx="96.84" cy="-366" rx="96.68" ry="18"/>
<text text-anchor="middle" x="96.84" y="-362.3" font-family="Times,serif" font-size="14.00">पिपासुः(8.1)</text>
</g>
<!-- Node8_1&#45;&gt;Node14_2 -->
<g id="edge12" class="edge">
<title>Node8_1&#45;&gt;Node14_2</title>
<path fill="none" stroke="black" d="M128.82,-389C145.17,-399.17 165.8,-410.44 185.84,-417 255.48,-439.82 339.04,-447.99 397.99,-450.81"/>
<polygon fill="black" stroke="black" points="130.52,-385.93 120.21,-383.49 126.75,-391.83 130.52,-385.93"/>
<text text-anchor="middle" x="235.84" y="-405.8" font-family="Times,serif" font-size="14.00">उपमानम्</text>
</g>
<!-- Node9_1 -->
<g id="node15" class="node">
<title>Node9_1</title>
<ellipse fill="#ff99ff" stroke="#ff99ff" cx="96.84" cy="-279" rx="50.89" ry="18"/>
<text text-anchor="middle" x="96.84" y="-275.3" font-family="Times,serif" font-size="14.00">इव(9.1)</text>
</g>
<!-- Node9_1&#45;&gt;Node8_1 -->
<g id="edge13" class="edge">
<title>Node9_1&#45;&gt;Node8_1</title>
<path fill="none" stroke="black" d="M96.84,-307.27C96.84,-320.58 96.84,-336.19 96.84,-347.82"/>
<polygon fill="black" stroke="black" points="100.34,-307.2 96.84,-297.2 93.34,-307.2 100.34,-307.2"/>
<text text-anchor="middle" x="185.84" y="-318.8" font-family="Times,serif" font-size="14.00">उपमान_द्योतकः</text>
</g>
<!-- Node10_1 -->
<g id="node16" class="node">
<title>Node10_1</title>
<ellipse fill="#ff99ff" stroke="#ff99ff" cx="964.84" cy="-453" rx="47.39" ry="18"/>
<text text-anchor="middle" x="964.84" y="-449.3" font-family="Times,serif" font-size="14.00">च(10.1)</text>
</g>
<!-- Node10_1&#45;&gt;Node12_1 -->
<g id="edge14" class="edge">
<title>Node10_1&#45;&gt;Node12_1</title>
<path fill="none" stroke="black" d="M948.13,-479.18C941.19,-488.05 932.5,-497.43 922.84,-504 908.3,-513.88 890.74,-521.17 874.18,-526.46"/>
<polygon fill="black" stroke="black" points="951.09,-481.07 954.21,-470.95 945.46,-476.91 951.09,-481.07"/>
<text text-anchor="middle" x="1042.34" y="-492.8" font-family="Times,serif" font-size="14.00">समुच्चय_द्योतकः</text>
</g>
<!-- Node11_1 -->
<g id="node17" class="node">
<title>Node11_1</title>
<ellipse fill="#93db70" stroke="#93db70" cx="1174.84" cy="-453" rx="93.68" ry="18"/>
<text text-anchor="middle" x="1174.84" y="-449.3" font-family="Times,serif" font-size="14.00">आकाशम्(11.1)</text>
</g>
<!-- Node11_1&#45;&gt;Node12_1 -->
<g id="edge15" class="edge">
<title>Node11_1&#45;&gt;Node12_1</title>
<path fill="none" stroke="black" d="M1167.22,-480.84C1163.41,-489.59 1157.84,-498.46 1149.84,-504 1111.08,-530.87 987.42,-537.72 902.47,-539.15"/>
<polygon fill="black" stroke="black" points="1170.6,-481.81 1170.82,-471.21 1164.04,-479.36 1170.6,-481.81"/>
<text text-anchor="middle" x="1190.84" y="-492.8" font-family="Times,serif" font-size="14.00">कर्म</text>
</g>
<!-- Node14_1 -->
<g id="node18" class="node">
<title>Node14_1</title>
<ellipse fill="#ffff00" stroke="#ffff00" cx="280.84" cy="-366" rx="68.79" ry="18"/>
<text text-anchor="middle" x="280.84" y="-362.3" font-family="Times,serif" font-size="14.00">महा&#45;(14.1)</text>
</g>
<!-- Node14_1&#45;&gt;Node14_2 -->
<g id="edge17" class="edge">
<title>Node14_1&#45;&gt;Node14_2</title>
<path fill="none" stroke="black" d="M285.71,-393.96C288.51,-402.45 292.92,-411.13 299.84,-417 315.73,-430.48 363.56,-439.52 404.91,-445.03"/>
<polygon fill="black" stroke="black" points="289.08,-393.02 283.1,-384.27 282.32,-394.84 289.08,-393.02"/>
<text text-anchor="middle" x="364.34" y="-405.8" font-family="Times,serif" font-size="14.00">कर्मधारयः</text>
</g>
</g>
</svg>
