<svg xmlns="http://www.w3.org/2000/svg" xmlns:xlink="http://www.w3.org/1999/xlink" width="1080" height="392pt" viewBox="0 0 809.99 392"><g id="graph0" class="graph" transform="scale(1 1) rotate(0) translate(4 388)"><title>G</title><polygon fill="#fffacd" stroke="transparent" points="-4 4 -4 -388 805.99 -388 805.99 4 -4 4"/><g id="clust1" class="cluster"><title>cluster_1</title><polygon fill="#fffacd" stroke="#000" points="567.99 -166 567.99 -305 777.99 -305 777.99 -166 567.99 -166"/></g><g id="clust2" class="cluster"><title>cluster_2</title><polygon fill="#fffacd" stroke="#000" points="227.99 -79 227.99 -218 401.99 -218 401.99 -79 227.99 -79"/></g><g id="clust3" class="cluster"><title>cluster_3</title><polygon fill="#fffacd" stroke="#000" points="13.99 -166 13.99 -305 205.99 -305 205.99 -166 13.99 -166"/></g><g id="node1" class="node"><title>Node4_2</title><ellipse cx="672.99" cy="-192" fill="#00bfff" stroke="#00bfff" rx="96.68" ry="18"/><text x="672.99" y="-188.3" font-family="Times,serif" font-size="14" text-anchor="middle">इन्द्रः(4.2)</text></g><g id="node2" class="node"><title>Node6_1</title><ellipse cx="663.99" cy="-279" fill="#00bfff" stroke="#00bfff" rx="87.99" ry="18"/><text x="663.99" y="-275.3" font-family="Times,serif" font-size="14" text-anchor="middle">पर्वतः(6.1)</text></g><g id="edge5" class="edge"><title>Node4_2-&gt;Node6_1</title><path fill="none" stroke="#000" d="M670.1,-220.27C668.7,-233.58 667.04,-249.19 665.81,-260.82"/><polygon fill="#000" stroke="#000" points="673.6 -220.51 671.17 -210.2 666.64 -219.78 673.6 -220.51"/><text x="726.49" y="-231.8" font-family="Times,serif" font-size="14" text-anchor="middle">विशेषणम्</text></g><g id="node8" class="node"><title>Node8_1</title><ellipse cx="333.99" cy="-366" fill="#ff1975" stroke="#ff1975" rx="152.97" ry="18"/><text x="333.99" y="-362.3" font-family="Times,serif" font-size="14" text-anchor="middle">निर्वर्तयामास(8.1)</text></g><g id="edge7" class="edge"><title>Node6_1-&gt;Node8_1</title><path fill="none" stroke="#000" d="M624.95,-300.45C603.85,-310.72 577.06,-322.53 551.99,-330 517,-340.42 477.87,-347.94 442.52,-353.26"/><polygon fill="#000" stroke="#000" points="626.5 -303.59 633.91 -296.01 623.4 -297.31 626.5 -303.59"/><text x="624.99" y="-318.8" font-family="Times,serif" font-size="14" text-anchor="middle">कर्ता</text></g><g id="node3" class="node"><title>Node5_1</title><ellipse cx="295.99" cy="-105" fill="#40e0d0" stroke="#40e0d0" rx="59.59" ry="18"/><text x="295.99" y="-101.3" font-family="Times,serif" font-size="14" text-anchor="middle">तेन(5.1)</text></g><g id="node4" class="node"><title>Node3_1</title><ellipse cx="314.99" cy="-192" fill="#40e0d0" stroke="#40e0d0" rx="78.79" ry="18"/><text x="314.99" y="-188.3" font-family="Times,serif" font-size="14" text-anchor="middle">बलिना(3.1)</text></g><g id="edge6" class="edge"><title>Node5_1-&gt;Node3_1</title><path fill="none" stroke="#000" d="M302.09,-133.27C305.06,-146.58 308.55,-162.19 311.15,-173.82"/><polygon fill="#000" stroke="#000" points="305.43 -132.2 299.84 -123.2 298.6 -133.72 305.43 -132.2"/><text x="364.49" y="-144.8" font-family="Times,serif" font-size="14" text-anchor="middle">विशेषणम्</text></g><g id="node7" class="node"><title>Node1_1</title><ellipse cx="333.99" cy="-279" fill="#00bfff" stroke="#00bfff" rx="115.88" ry="18"/><text x="333.99" y="-275.3" font-family="Times,serif" font-size="14" text-anchor="middle">पीड्यमानः(1.1)</text></g><g id="edge3" class="edge"><title>Node3_1-&gt;Node1_1</title><path fill="none" stroke="#000" d="M321.09,-220.27C324.06,-233.58 327.55,-249.19 330.15,-260.82"/><polygon fill="#000" stroke="#000" points="324.43 -219.2 318.84 -210.2 317.6 -220.72 324.43 -219.2"/><text x="361.99" y="-231.8" font-family="Times,serif" font-size="14" text-anchor="middle">कर्ता</text></g><g id="node5" class="node"><title>Node9_3</title><ellipse cx="109.99" cy="-192" fill="#93db70" stroke="#93db70" rx="87.99" ry="18"/><text x="109.99" y="-188.3" font-family="Times,serif" font-size="14" text-anchor="middle">राजतीः(9.3)</text></g><g id="node6" class="node"><title>Node7_1</title><ellipse cx="113.99" cy="-279" fill="#93db70" stroke="#93db70" rx="78.79" ry="18"/><text x="113.99" y="-275.3" font-family="Times,serif" font-size="14" text-anchor="middle">रीतीः(7.1)</text></g><g id="edge11" class="edge"><title>Node9_3-&gt;Node7_1</title><path fill="none" stroke="#000" d="M111.28,-220.27C111.9,-233.58 112.64,-249.19 113.18,-260.82"/><polygon fill="#000" stroke="#000" points="114.77 -220.03 110.8 -210.2 107.78 -220.35 114.77 -220.03"/><text x="170.49" y="-231.8" font-family="Times,serif" font-size="14" text-anchor="middle">विशेषणम्</text></g><g id="edge8" class="edge"><title>Node7_1-&gt;Node8_1</title><path fill="none" stroke="#000" d="M161.8,-298.47C200.48,-313.42 254.45,-334.27 291.61,-348.62"/><polygon fill="#000" stroke="#000" points="162.9 -295.15 152.31 -294.81 160.38 -301.67 162.9 -295.15"/><text x="266.99" y="-318.8" font-family="Times,serif" font-size="14" text-anchor="middle">कर्म</text></g><g id="edge1" class="edge"><title>Node1_1-&gt;Node8_1</title><path fill="none" stroke="#000" d="M333.99,-307.27C333.99,-320.58 333.99,-336.19 333.99,-347.82"/><polygon fill="#000" stroke="#000" points="337.49 -307.2 333.99 -297.2 330.49 -307.2 337.49 -307.2"/><text x="440.99" y="-318.8" font-family="Times,serif" font-size="14" text-anchor="middle">वर्तमानसमानकालः</text></g><g id="node9" class="node"><title>Node2_1</title><ellipse cx="461.99" cy="-192" fill="#f9f" stroke="#f9f" rx="50.89" ry="18"/><text x="461.99" y="-188.3" font-family="Times,serif" font-size="14" text-anchor="middle">तु(2.1)</text></g><g id="edge2" class="edge"><title>Node2_1-&gt;Node1_1</title><path fill="none" stroke="#000" d="M437.14,-215.81C426.69,-224.83 414.15,-234.94 401.99,-243 391.7,-249.82 379.91,-256.3 369.07,-261.79"/><polygon fill="#000" stroke="#000" points="439.48 -218.41 444.68 -209.18 434.86 -213.15 439.48 -218.41"/><text x="479.49" y="-231.8" font-family="Times,serif" font-size="14" text-anchor="middle">सम्बन्धः</text></g><g id="node10" class="node"><title>Node4_1</title><ellipse cx="672.99" cy="-105" fill="#ff0" stroke="#ff0" rx="63.09" ry="18"/><text x="672.99" y="-101.3" font-family="Times,serif" font-size="14" text-anchor="middle">महा-(4.1)</text></g><g id="edge4" class="edge"><title>Node4_1-&gt;Node4_2</title><path fill="none" stroke="#000" d="M672.99,-133.27C672.99,-146.58 672.99,-162.19 672.99,-173.82"/><polygon fill="#000" stroke="#000" points="676.49 -133.2 672.99 -123.2 669.49 -133.2 676.49 -133.2"/><text x="737.49" y="-144.8" font-family="Times,serif" font-size="14" text-anchor="middle">कर्मधारयः</text></g><g id="node11" class="node"><title>Node9_1</title><ellipse cx="90.99" cy="-18" fill="#ff0" stroke="#ff0" rx="90.98" ry="18"/><text x="90.99" y="-14.3" font-family="Times,serif" font-size="14" text-anchor="middle">काञ्चन-(9.1)</text></g><g id="node12" class="node"><title>Node9_2</title><ellipse cx="90.99" cy="-105" fill="#ff0" stroke="#ff0" rx="81.49" ry="18"/><text x="90.99" y="-101.3" font-family="Times,serif" font-size="14" text-anchor="middle">अञ्जन-(9.2)</text></g><g id="edge9" class="edge"><title>Node9_1-&gt;Node9_2</title><path fill="none" stroke="#000" d="M90.99,-46.27C90.99,-59.58 90.99,-75.19 90.99,-86.82"/><polygon fill="#000" stroke="#000" points="94.49 -46.2 90.99 -36.2 87.49 -46.2 94.49 -46.2"/><text x="155.49" y="-57.8" font-family="Times,serif" font-size="14" text-anchor="middle">द्वन्द्वः</text></g><g id="edge10" class="edge"><title>Node9_2-&gt;Node9_3</title><path fill="none" stroke="#000" d="M91.57,-133.34C92.16,-140.77 93.2,-148.76 94.99,-156 96.48,-162.03 98.9,-168.35 101.37,-173.94"/><polygon fill="#000" stroke="#000" points="95.06 -133.13 91 -123.35 88.08 -133.53 95.06 -133.13"/><text x="159.49" y="-144.8" font-family="Times,serif" font-size="14" text-anchor="middle">द्वन्द्वः</text></g></g></svg>