<?xml version="1.0" encoding="UTF-8" standalone="no"?>
<!DOCTYPE svg PUBLIC "-//W3C//DTD SVG 1.1//EN"
 "http://www.w3.org/Graphics/SVG/1.1/DTD/svg11.dtd">
<!-- Generated by graphviz version 2.43.0 (0)
 -->
<!-- Title: G Pages: 1 -->
<svg width="876pt" height="495pt"
 viewBox="0.00 0.00 875.60 495.00" xmlns="http://www.w3.org/2000/svg" xmlns:xlink="http://www.w3.org/1999/xlink">
<g id="graph0" class="graph" transform="scale(1 1) rotate(0) translate(4 491)">
<title>G</title>
<polygon fill="#fffacd" stroke="transparent" points="-4,4 -4,-491 871.6,-491 871.6,4 -4,4"/>
<g id="clust1" class="cluster">
<title>cluster_1</title>
<polygon fill="#fffacd" stroke="black" points="510.6,-269 510.6,-408 859.6,-408 859.6,-269 510.6,-269"/>
</g>
<g id="clust2" class="cluster">
<title>cluster_2</title>
<polygon fill="#fffacd" stroke="black" points="341.6,-8 341.6,-147 551.6,-147 551.6,-8 341.6,-8"/>
</g>
<g id="clust3" class="cluster">
<title>cluster_3</title>
<polygon fill="#fffacd" stroke="black" points="341.6,-182 341.6,-234 533.6,-234 533.6,-182 341.6,-182"/>
</g>
<!-- Node1_1 -->
<g id="node1" class="node">
<title>Node1_1</title>
<ellipse fill="#00bfff" stroke="#00bfff" cx="781.6" cy="-295" rx="69.59" ry="18"/>
<text text-anchor="middle" x="781.6" y="-291.3" font-family="Times,serif" font-size="14.00">यानि(1.1)</text>
</g>
<!-- Node3_2 -->
<g id="node2" class="node">
<title>Node3_2</title>
<ellipse fill="#00bfff" stroke="#00bfff" cx="606.6" cy="-382" rx="87.99" ry="18"/>
<text text-anchor="middle" x="606.6" y="-378.3" font-family="Times,serif" font-size="14.00">जालानि(3.2)</text>
</g>
<!-- Node1_1&#45;&gt;Node3_2 -->
<g id="edge1" class="edge">
<title>Node1_1&#45;&gt;Node3_2</title>
<path fill="none" stroke="black" d="M754.99,-319.02C743.21,-328.36 728.81,-338.65 714.6,-346 697.44,-354.87 677.59,-362.08 659.63,-367.6"/>
<polygon fill="black" stroke="black" points="757.52,-321.47 763.07,-312.45 753.11,-316.04 757.52,-321.47"/>
<text text-anchor="middle" x="795.1" y="-334.8" font-family="Times,serif" font-size="14.00">विशेषणम्</text>
</g>
<!-- Node11_1 -->
<g id="node8" class="node">
<title>Node11_1</title>
<ellipse fill="#ff1975" stroke="#ff1975" cx="255.6" cy="-469" rx="84.49" ry="18"/>
<text text-anchor="middle" x="255.6" y="-465.3" font-family="Times,serif" font-size="14.00">शेकुः(11.1)</text>
</g>
<!-- Node3_2&#45;&gt;Node11_1 -->
<g id="edge4" class="edge">
<title>Node3_2&#45;&gt;Node11_1</title>
<path fill="none" stroke="black" d="M558.86,-401.82C531.11,-412.19 495.27,-424.63 462.6,-433 417.76,-444.49 366.46,-453.19 326.15,-459.05"/>
<polygon fill="black" stroke="black" points="560.2,-405.06 568.32,-398.25 557.73,-398.51 560.2,-405.06"/>
<text text-anchor="middle" x="546.6" y="-421.8" font-family="Times,serif" font-size="14.00">कर्ता</text>
</g>
<!-- Node7_2 -->
<g id="node3" class="node">
<title>Node7_2</title>
<ellipse fill="#00bfff" stroke="#00bfff" cx="606.6" cy="-295" rx="87.99" ry="18"/>
<text text-anchor="middle" x="606.6" y="-291.3" font-family="Times,serif" font-size="14.00">घ्नानि(7.2)</text>
</g>
<!-- Node7_2&#45;&gt;Node3_2 -->
<g id="edge9" class="edge">
<title>Node7_2&#45;&gt;Node3_2</title>
<path fill="none" stroke="black" d="M600.44,-323.03C599.4,-330.46 598.86,-338.53 599.6,-346 600.18,-351.92 601.31,-358.32 602.5,-364.01"/>
<polygon fill="black" stroke="black" points="603.9,-323.54 602.17,-313.08 597.01,-322.33 603.9,-323.54"/>
<text text-anchor="middle" x="657.1" y="-334.8" font-family="Times,serif" font-size="14.00">विशेषणम्</text>
</g>
<!-- Node4_1 -->
<g id="node4" class="node">
<title>Node4_1</title>
<ellipse fill="#c6e2eb" stroke="#c6e2eb" cx="446.6" cy="-34" rx="96.68" ry="18"/>
<text text-anchor="middle" x="446.6" y="-30.3" font-family="Times,serif" font-size="14.00">तस्मिन्(4.1)</text>
</g>
<!-- Node6_1 -->
<g id="node5" class="node">
<title>Node6_1</title>
<ellipse fill="#c6e2eb" stroke="#c6e2eb" cx="437.6" cy="-121" rx="87.99" ry="18"/>
<text text-anchor="middle" x="437.6" y="-117.3" font-family="Times,serif" font-size="14.00">पर्वते(6.1)</text>
</g>
<!-- Node4_1&#45;&gt;Node6_1 -->
<g id="edge5" class="edge">
<title>Node4_1&#45;&gt;Node6_1</title>
<path fill="none" stroke="black" d="M443.71,-62.27C442.3,-75.58 440.65,-91.19 439.41,-102.82"/>
<polygon fill="black" stroke="black" points="447.2,-62.51 444.78,-52.2 440.24,-61.78 447.2,-62.51"/>
<text text-anchor="middle" x="500.1" y="-73.8" font-family="Times,serif" font-size="14.00">विशेषणम्</text>
</g>
<!-- Node5_1 -->
<g id="node6" class="node">
<title>Node5_1</title>
<ellipse fill="#00bfff" stroke="#00bfff" cx="437.6" cy="-208" rx="87.99" ry="18"/>
<text text-anchor="middle" x="437.6" y="-204.3" font-family="Times,serif" font-size="14.00">जातानि(5.1)</text>
</g>
<!-- Node6_1&#45;&gt;Node5_1 -->
<g id="edge7" class="edge">
<title>Node6_1&#45;&gt;Node5_1</title>
<path fill="none" stroke="black" d="M437.6,-149.27C437.6,-162.58 437.6,-178.19 437.6,-189.82"/>
<polygon fill="black" stroke="black" points="441.1,-149.2 437.6,-139.2 434.1,-149.2 441.1,-149.2"/>
<text text-anchor="middle" x="516.1" y="-160.8" font-family="Times,serif" font-size="14.00">देशाधिकरणम्</text>
</g>
<!-- Node5_1&#45;&gt;Node7_2 -->
<g id="edge6" class="edge">
<title>Node5_1&#45;&gt;Node7_2</title>
<path fill="none" stroke="black" d="M457.65,-233.75C466.07,-242.79 476.49,-252.41 487.6,-259 505,-269.33 525.67,-276.8 544.86,-282.11"/>
<polygon fill="black" stroke="black" points="460.05,-231.19 450.79,-226.04 454.82,-235.84 460.05,-231.19"/>
<text text-anchor="middle" x="545.1" y="-247.8" font-family="Times,serif" font-size="14.00">विशेषणम्</text>
</g>
<!-- Node2_1 -->
<g id="node7" class="node">
<title>Node2_1</title>
<ellipse fill="#ff99ff" stroke="#ff99ff" cx="41.6" cy="-382" rx="41.69" ry="18"/>
<text text-anchor="middle" x="41.6" y="-378.3" font-family="Times,serif" font-size="14.00">च(2.1)</text>
</g>
<!-- Node2_1&#45;&gt;Node11_1 -->
<g id="edge2" class="edge">
<title>Node2_1&#45;&gt;Node11_1</title>
<path fill="none" stroke="black" d="M47.52,-410.09C50.66,-418.59 55.42,-427.24 62.6,-433 80.46,-447.33 132.82,-456.27 178.51,-461.52"/>
<polygon fill="black" stroke="black" points="50.82,-408.9 44.53,-400.38 44.13,-410.96 50.82,-408.9"/>
<text text-anchor="middle" x="120.1" y="-421.8" font-family="Times,serif" font-size="14.00">सम्बन्धः</text>
</g>
<!-- Node3_1 -->
<g id="node9" class="node">
<title>Node3_1</title>
<ellipse fill="#ffff00" stroke="#ffff00" cx="368.6" cy="-295" rx="63.09" ry="18"/>
<text text-anchor="middle" x="368.6" y="-291.3" font-family="Times,serif" font-size="14.00">औषध&#45;(3.1)</text>
</g>
<!-- Node3_1&#45;&gt;Node3_2 -->
<g id="edge3" class="edge">
<title>Node3_1&#45;&gt;Node3_2</title>
<path fill="none" stroke="black" d="M373.33,-323.13C376.12,-331.63 380.56,-340.27 387.6,-346 398.83,-355.14 472.55,-365.63 531.4,-372.73"/>
<polygon fill="black" stroke="black" points="376.7,-322.17 370.75,-313.4 369.93,-323.97 376.7,-322.17"/>
<text text-anchor="middle" x="491.1" y="-334.8" font-family="Times,serif" font-size="14.00">षष्ठी_तत्पुरुषः</text>
</g>
<!-- Node7_1 -->
<g id="node10" class="node">
<title>Node7_1</title>
<ellipse fill="#ffff00" stroke="#ffff00" cx="606.6" cy="-208" rx="63.09" ry="18"/>
<text text-anchor="middle" x="606.6" y="-204.3" font-family="Times,serif" font-size="14.00">विष&#45;(7.1)</text>
</g>
<!-- Node7_1&#45;&gt;Node7_2 -->
<g id="edge8" class="edge">
<title>Node7_1&#45;&gt;Node7_2</title>
<path fill="none" stroke="black" d="M606.6,-236.27C606.6,-249.58 606.6,-265.19 606.6,-276.82"/>
<polygon fill="black" stroke="black" points="610.1,-236.2 606.6,-226.2 603.1,-236.2 610.1,-236.2"/>
<text text-anchor="middle" x="671.1" y="-247.8" font-family="Times,serif" font-size="14.00">तत्पुरुषः</text>
</g>
<!-- Node8_1 -->
<g id="node11" class="node">
<title>Node8_1</title>
<ellipse fill="#ff99ff" stroke="#ff99ff" cx="758.6" cy="-208" rx="59.59" ry="18"/>
<text text-anchor="middle" x="758.6" y="-204.3" font-family="Times,serif" font-size="14.00">अपि(8.1)</text>
</g>
<!-- Node8_1&#45;&gt;Node7_2 -->
<g id="edge10" class="edge">
<title>Node8_1&#45;&gt;Node7_2</title>
<path fill="none" stroke="black" d="M751.83,-235.77C748.5,-244.24 743.63,-252.96 736.6,-259 735.01,-260.37 694.35,-271.2 658.93,-280.45"/>
<polygon fill="black" stroke="black" points="755.21,-236.71 755.08,-226.12 748.57,-234.48 755.21,-236.71"/>
<text text-anchor="middle" x="804.1" y="-247.8" font-family="Times,serif" font-size="14.00">सम्बन्धः</text>
</g>
<!-- Node9_1 -->
<g id="node12" class="node">
<title>Node9_1</title>
<ellipse fill="#87ceeb" stroke="#87ceeb" cx="202.6" cy="-208" rx="106.68" ry="18"/>
<text text-anchor="middle" x="202.6" y="-204.3" font-family="Times,serif" font-size="14.00">नागानाम्(9.1)</text>
</g>
<!-- Node13_1 -->
<g id="node13" class="node">
<title>Node13_1</title>
<ellipse fill="#93db70" stroke="#93db70" cx="202.6" cy="-295" rx="84.49" ry="18"/>
<text text-anchor="middle" x="202.6" y="-291.3" font-family="Times,serif" font-size="14.00">विषम्(13.1)</text>
</g>
<!-- Node9_1&#45;&gt;Node13_1 -->
<g id="edge11" class="edge">
<title>Node9_1&#45;&gt;Node13_1</title>
<path fill="none" stroke="black" d="M202.6,-236.27C202.6,-249.58 202.6,-265.19 202.6,-276.82"/>
<polygon fill="black" stroke="black" points="206.1,-236.2 202.6,-226.2 199.1,-236.2 206.1,-236.2"/>
<text text-anchor="middle" x="295.6" y="-247.8" font-family="Times,serif" font-size="14.00">षष्ठीसम्बन्धः</text>
</g>
<!-- Node12_1 -->
<g id="node15" class="node">
<title>Node12_1</title>
<ellipse fill="#ff99ff" stroke="#ff99ff" cx="343.6" cy="-382" rx="102.88" ry="18"/>
<text text-anchor="middle" x="343.6" y="-378.3" font-family="Times,serif" font-size="14.00">शमितुम्(12.1)</text>
</g>
<!-- Node13_1&#45;&gt;Node12_1 -->
<g id="edge14" class="edge">
<title>Node13_1&#45;&gt;Node12_1</title>
<path fill="none" stroke="black" d="M238.03,-317.36C262.32,-332 294.05,-351.13 316.36,-364.58"/>
<polygon fill="black" stroke="black" points="239.82,-314.35 229.45,-312.19 236.21,-320.35 239.82,-314.35"/>
<text text-anchor="middle" x="310.6" y="-334.8" font-family="Times,serif" font-size="14.00">कर्म</text>
</g>
<!-- Node10_1 -->
<g id="node14" class="node">
<title>Node10_1</title>
<ellipse fill="#ff99ff" stroke="#ff99ff" cx="175.6" cy="-382" rx="47.39" ry="18"/>
<text text-anchor="middle" x="175.6" y="-378.3" font-family="Times,serif" font-size="14.00">न(10.1)</text>
</g>
<!-- Node10_1&#45;&gt;Node11_1 -->
<g id="edge12" class="edge">
<title>Node10_1&#45;&gt;Node11_1</title>
<path fill="none" stroke="black" d="M178.46,-410.37C180.35,-418.31 183.47,-426.56 188.6,-433 195.29,-441.42 204.58,-448.04 214.1,-453.15"/>
<polygon fill="black" stroke="black" points="181.86,-409.51 176.6,-400.31 174.97,-410.77 181.86,-409.51"/>
<text text-anchor="middle" x="253.1" y="-421.8" font-family="Times,serif" font-size="14.00">प्रतिषेधः</text>
</g>
<!-- Node12_1&#45;&gt;Node11_1 -->
<g id="edge13" class="edge">
<title>Node12_1&#45;&gt;Node11_1</title>
<path fill="none" stroke="black" d="M333.33,-409.55C329.29,-417.73 324.05,-426.32 317.6,-433 310.12,-440.73 300.57,-447.25 291.21,-452.49"/>
<polygon fill="black" stroke="black" points="336.59,-410.84 337.52,-400.29 330.21,-407.96 336.59,-410.84"/>
<text text-anchor="middle" x="394.1" y="-421.8" font-family="Times,serif" font-size="14.00">प्रयोजनम्</text>
</g>
</g>
</svg>
