<svg xmlns="http://www.w3.org/2000/svg" xmlns:xlink="http://www.w3.org/1999/xlink" width="1552pt" height="392pt" viewBox="0 0 1551.64 392"><g id="graph0" class="graph" transform="scale(1 1) rotate(0) translate(4 388)"><title>G</title><polygon fill="#fffacd" stroke="transparent" points="-4 4 -4 -388 1547.64 -388 1547.64 4 -4 4"/><g id="clust1" class="cluster"><title>cluster_1</title><polygon fill="#fffacd" stroke="#000" points="525.64 -79 525.64 -305 966.64 -305 966.64 -79 525.64 -79"/></g><g id="node1" class="node"><title>Node3_2</title><ellipse cx="649.64" cy="-192" fill="#87ceeb" stroke="#87ceeb" rx="115.88" ry="18"/><text x="649.64" y="-188.3" font-family="Times,serif" font-size="14" text-anchor="middle">सङ्घानाम्(3.2)</text></g><g id="node2" class="node"><title>Node4_2</title><ellipse cx="649.64" cy="-279" fill="#40e0d0" stroke="#40e0d0" rx="87.99" ry="18"/><text x="649.64" y="-275.3" font-family="Times,serif" font-size="14" text-anchor="middle">राज्ञा(4.2)</text></g><g id="edge4" class="edge"><title>Node3_2-&gt;Node4_2</title><path fill="none" stroke="#000" d="M649.64,-220.27C649.64,-233.58 649.64,-249.19 649.64,-260.82"/><polygon fill="#000" stroke="#000" points="653.14 -220.2 649.64 -210.2 646.14 -220.2 653.14 -220.2"/><text x="707.14" y="-231.8" font-family="Times,serif" font-size="14" text-anchor="middle">विशेषणम्</text></g><g id="node6" class="node"><title>Node9_1</title><ellipse cx="315.64" cy="-366" fill="#00bfff" stroke="#00bfff" rx="133.78" ry="18"/><text x="315.64" y="-362.3" font-family="Times,serif" font-size="14" text-anchor="middle">सन्निवेशितः(9.1)</text></g><g id="edge6" class="edge"><title>Node4_2-&gt;Node9_1</title><path fill="none" stroke="#000" d="M635.88,-305.85C629.69,-314.96 621.54,-324.34 611.64,-330 582.84,-346.47 508.6,-355.22 441.69,-359.85"/><polygon fill="#000" stroke="#000" points="638.87 -307.65 641.19 -297.32 632.93 -303.95 638.87 -307.65"/><text x="663.64" y="-318.8" font-family="Times,serif" font-size="14" text-anchor="middle">कर्ता</text></g><g id="node3" class="node"><title>Node5_2</title><ellipse cx="870.64" cy="-192" fill="#40e0d0" stroke="#40e0d0" rx="87.99" ry="18"/><text x="870.64" y="-188.3" font-family="Times,serif" font-size="14" text-anchor="middle">आत्मना(5.2)</text></g><g id="edge8" class="edge"><title>Node5_2-&gt;Node4_2</title><path fill="none" stroke="#000" d="M832.46,-213.64C813.59,-223.33 790.28,-234.58 768.64,-243 747.37,-251.27 723.31,-258.7 702.42,-264.55"/><polygon fill="#000" stroke="#000" points="834.08 -216.74 841.34 -209.02 830.85 -210.53 834.08 -216.74"/><text x="860.14" y="-231.8" font-family="Times,serif" font-size="14" text-anchor="middle">विशेषणम्</text></g><g id="node4" class="node"><title>Node6_2</title><ellipse cx="649.64" cy="-105" fill="#87ceeb" stroke="#87ceeb" rx="115.88" ry="18"/><text x="649.64" y="-101.3" font-family="Times,serif" font-size="14" text-anchor="middle">निलयानाम्(6.2)</text></g><g id="edge10" class="edge"><title>Node6_2-&gt;Node3_2</title><path fill="none" stroke="#000" d="M649.64,-133.27C649.64,-146.58 649.64,-162.19 649.64,-173.82"/><polygon fill="#000" stroke="#000" points="653.14 -133.2 649.64 -123.2 646.14 -133.2 653.14 -133.2"/><text x="707.14" y="-144.8" font-family="Times,serif" font-size="14" text-anchor="middle">विशेषणम्</text></g><g id="node5" class="node"><title>Node1_1</title><ellipse cx="78.64" cy="-279" fill="#00bfff" stroke="#00bfff" rx="78.79" ry="18"/><text x="78.64" y="-275.3" font-family="Times,serif" font-size="14" text-anchor="middle">त्वम्(1.1)</text></g><g id="edge1" class="edge"><title>Node1_1-&gt;Node9_1</title><path fill="none" stroke="#000" d="M107.98,-302.32C122.05,-312.08 139.54,-322.9 156.64,-330 179.88,-339.64 206.17,-346.81 230.6,-352.06"/><polygon fill="#000" stroke="#000" points="109.86 -299.36 99.69 -296.42 105.8 -305.07 109.86 -299.36"/><text x="185.64" y="-318.8" font-family="Times,serif" font-size="14" text-anchor="middle">कर्म</text></g><g id="node7" class="node"><title>Node2_1</title><ellipse cx="225.64" cy="-279" fill="#f9f" stroke="#f9f" rx="50.89" ry="18"/><text x="225.64" y="-275.3" font-family="Times,serif" font-size="14" text-anchor="middle">इह(2.1)</text></g><g id="edge2" class="edge"><title>Node2_1-&gt;Node9_1</title><path fill="none" stroke="#000" d="M217.92,-307.23C217.2,-315.15 218.1,-323.44 222.64,-330 228.73,-338.79 237.32,-345.38 246.85,-350.32"/><polygon fill="#000" stroke="#000" points="221.4 -307.63 219.62 -297.19 214.5 -306.46 221.4 -307.63"/><text x="301.14" y="-318.8" font-family="Times,serif" font-size="14" text-anchor="middle">देशाधिकरणम्</text></g><g id="node8" class="node"><title>Node3_1</title><ellipse cx="1046.64" cy="-105" fill="#ff0" stroke="#ff0" rx="72.29" ry="18"/><text x="1046.64" y="-101.3" font-family="Times,serif" font-size="14" text-anchor="middle">असुर-(3.1)</text></g><g id="edge3" class="edge"><title>Node3_1-&gt;Node3_2</title><path fill="none" stroke="#000" d="M984.87,-119.88C980.06,-120.94 975.27,-121.99 970.64,-123 882.56,-142.18 780.71,-163.63 715.78,-177.22"/><polygon fill="#000" stroke="#000" points="985.73 -123.27 994.74 -117.69 984.22 -116.44 985.73 -123.27"/><text x="985.14" y="-144.8" font-family="Times,serif" font-size="14" text-anchor="middle">षष्ठी_तत्पुरुषः</text></g><g id="node9" class="node"><title>Node4_1</title><ellipse cx="1199.64" cy="-105" fill="#ff0" stroke="#ff0" rx="63.09" ry="18"/><text x="1199.64" y="-101.3" font-family="Times,serif" font-size="14" text-anchor="middle">देव-(4.1)</text></g><g id="edge5" class="edge"><title>Node4_1-&gt;Node5_2</title><path fill="none" stroke="#000" d="M1193.62,-132.74C1190.33,-141.47 1185.3,-150.36 1177.64,-156 1143.85,-180.9 1036.64,-188.43 958.41,-190.53"/><polygon fill="#000" stroke="#000" points="1196.98 -133.72 1196.65 -123.13 1190.31 -131.62 1196.98 -133.72"/><text x="1293.14" y="-144.8" font-family="Times,serif" font-size="14" text-anchor="middle">षष्ठी_तत्पुरुषः</text></g><g id="node10" class="node"><title>Node5_1</title><ellipse cx="1429.64" cy="-105" fill="#ff0" stroke="#ff0" rx="63.09" ry="18"/><text x="1429.64" y="-101.3" font-family="Times,serif" font-size="14" text-anchor="middle">महा-(5.1)</text></g><g id="edge7" class="edge"><title>Node5_1-&gt;Node5_2</title><path fill="none" stroke="#000" d="M1420.14,-132.82C1415.63,-141.68 1409.28,-150.64 1400.64,-156 1364.04,-178.72 1098.45,-186.92 957.7,-189.69"/><polygon fill="#000" stroke="#000" points="1423.46 -133.98 1424.34 -123.42 1417.06 -131.12 1423.46 -133.98"/><text x="1479.14" y="-144.8" font-family="Times,serif" font-size="14" text-anchor="middle">कर्मधारयः</text></g><g id="node11" class="node"><title>Node6_1</title><ellipse cx="649.64" cy="-18" fill="#ff0" stroke="#ff0" rx="81.49" ry="18"/><text x="649.64" y="-14.3" font-family="Times,serif" font-size="14" text-anchor="middle">पाताल-(6.1)</text></g><g id="edge9" class="edge"><title>Node6_1-&gt;Node6_2</title><path fill="none" stroke="#000" d="M649.64,-46.27C649.64,-59.58 649.64,-75.19 649.64,-86.82"/><polygon fill="#000" stroke="#000" points="653.14 -46.2 649.64 -36.2 646.14 -46.2 653.14 -46.2"/><text x="721.14" y="-57.8" font-family="Times,serif" font-size="14" text-anchor="middle">बहुव्रीहिः</text></g><g id="node12" class="node"><title>Node7_1</title><ellipse cx="402.64" cy="-192" fill="#f9f" stroke="#f9f" rx="50.89" ry="18"/><text x="402.64" y="-188.3" font-family="Times,serif" font-size="14" text-anchor="middle">हि(7.1)</text></g><g id="node13" class="node"><title>Node8_1</title><ellipse cx="404.64" cy="-279" fill="#00bfff" stroke="#00bfff" rx="78.79" ry="18"/><text x="404.64" y="-275.3" font-family="Times,serif" font-size="14" text-anchor="middle">परिघः(8.1)</text></g><g id="edge11" class="edge"><title>Node7_1-&gt;Node8_1</title><path fill="none" stroke="#000" d="M403.28,-220.27C403.6,-233.58 403.97,-249.19 404.24,-260.82"/><polygon fill="#000" stroke="#000" points="406.78 -220.12 403.05 -210.2 399.78 -220.28 406.78 -220.12"/><text x="462.14" y="-231.8" font-family="Times,serif" font-size="14" text-anchor="middle">सम्बन्धः</text></g><g id="edge12" class="edge"><title>Node8_1-&gt;Node9_1</title><path fill="none" stroke="#000" d="M397.26,-306.96C394.07,-315.06 389.64,-323.51 383.64,-330 376.61,-337.6 367.55,-343.82 358.35,-348.79"/><polygon fill="#000" stroke="#000" points="400.61 -308 400.58 -297.41 393.99 -305.71 400.61 -308"/><text x="500.64" y="-318.8" font-family="Times,serif" font-size="14" text-anchor="middle">कर्मसमानाधिकरण्</text></g></g></svg>