<svg xmlns="http://www.w3.org/2000/svg" xmlns:xlink="http://www.w3.org/1999/xlink" width="1000pt" height="544" viewBox="0 0 999.84 408"><g id="graph0" class="graph" transform="scale(1 1) rotate(0) translate(4 404)"><title>G</title><polygon fill="#fffacd" stroke="transparent" points="-4 4 -4 -404 995.84 -404 995.84 4 -4 4"/><g id="clust1" class="cluster"><title>cluster_1</title><polygon fill="#fffacd" stroke="#000" points="203.84 -182 203.84 -321 875.84 -321 875.84 -182 203.84 -182"/></g><g id="clust2" class="cluster"><title>cluster_2</title><polygon fill="#fffacd" stroke="#000" points="203.84 -8 203.84 -147 451.84 -147 451.84 -8 203.84 -8"/></g><g id="node1" class="node"><title>Node1_3</title><ellipse cx="770.84" cy="-208" fill="#00bfff" stroke="#00bfff" rx="96.68" ry="18"/><text x="770.84" y="-204.3" font-family="Times,serif" font-size="14" text-anchor="middle">सङ्काशः(1.3)</text></g><g id="node2" class="node"><title>Node4_1</title><ellipse cx="419.84" cy="-295" fill="#00bfff" stroke="#00bfff" rx="69.59" ry="18"/><text x="419.84" y="-291.3" font-family="Times,serif" font-size="14" text-anchor="middle">कपिः(4.1)</text></g><g id="edge3" class="edge"><title>Node1_3-&gt;Node4_1</title><path fill="none" stroke="#000" d="M725.43,-228.66C700.07,-238.98 667.65,-251.09 637.84,-259 586.53,-272.62 526.93,-281.74 483.03,-287.25"/><polygon fill="#000" stroke="#000" points="726.88 -231.85 734.79 -224.8 724.21 -225.38 726.88 -231.85"/><text x="739.34" y="-247.8" font-family="Times,serif" font-size="14" text-anchor="middle">विशेषणम्</text></g><g id="node9" class="node"><title>Node3_1</title><ellipse cx="419.84" cy="-382" fill="#ff1975" stroke="#ff1975" rx="87.99" ry="18"/><text x="419.84" y="-378.3" font-family="Times,serif" font-size="14" text-anchor="middle">शुशुभे(3.1)</text></g><g id="edge5" class="edge"><title>Node4_1-&gt;Node3_1</title><path fill="none" stroke="#000" d="M419.84,-323.27C419.84,-336.58 419.84,-352.19 419.84,-363.82"/><polygon fill="#000" stroke="#000" points="423.34 -323.2 419.84 -313.2 416.34 -323.2 423.34 -323.2"/><text x="455.84" y="-334.8" font-family="Times,serif" font-size="14" text-anchor="middle">कर्ता</text></g><g id="node3" class="node"><title>Node2_1</title><ellipse cx="558.84" cy="-208" fill="#00bfff" stroke="#00bfff" rx="96.68" ry="18"/><text x="558.84" y="-204.3" font-family="Times,serif" font-size="14" text-anchor="middle">व्यायतः(2.1)</text></g><g id="edge4" class="edge"><title>Node2_1-&gt;Node4_1</title><path fill="none" stroke="#000" d="M533.26,-232.52C522.76,-241.48 510.18,-251.36 497.84,-259 485.09,-266.89 470.26,-274 456.98,-279.72"/><polygon fill="#000" stroke="#000" points="535.62 -235.11 540.85 -225.9 531.02 -229.83 535.62 -235.11"/><text x="576.34" y="-247.8" font-family="Times,serif" font-size="14" text-anchor="middle">विशेषणम्</text></g><g id="node4" class="node"><title>Node5_1</title><ellipse cx="327.84" cy="-208" fill="#00bfff" stroke="#00bfff" rx="115.88" ry="18"/><text x="327.84" y="-204.3" font-family="Times,serif" font-size="14" text-anchor="middle">प्रवृद्धः(5.1)</text></g><g id="edge6" class="edge"><title>Node5_1-&gt;Node4_1</title><path fill="none" stroke="#000" d="M353.69,-232.88C369.1,-247.12 388.28,-264.84 402.02,-277.53"/><polygon fill="#000" stroke="#000" points="355.74 -230.01 346.02 -225.79 350.99 -235.15 355.74 -230.01"/><text x="436.34" y="-247.8" font-family="Times,serif" font-size="14" text-anchor="middle">विशेषणम्</text></g><g id="node5" class="node"><title>Node9_1</title><ellipse cx="327.84" cy="-34" fill="#40e0d0" stroke="#40e0d0" rx="115.88" ry="18"/><text x="327.84" y="-30.3" font-family="Times,serif" font-size="14" text-anchor="middle">बध्यमानया(9.1)</text></g><g id="node6" class="node"><title>Node8_1</title><ellipse cx="327.84" cy="-121" fill="#40e0d0" stroke="#40e0d0" rx="106.68" ry="18"/><text x="327.84" y="-117.3" font-family="Times,serif" font-size="14" text-anchor="middle">कक्ष्यया(8.1)</text></g><g id="edge10" class="edge"><title>Node9_1-&gt;Node8_1</title><path fill="none" stroke="#000" d="M327.84,-62.27C327.84,-75.58 327.84,-91.19 327.84,-102.82"/><polygon fill="#000" stroke="#000" points="331.34 -62.2 327.84 -52.2 324.34 -62.2 331.34 -62.2"/><text x="385.34" y="-73.8" font-family="Times,serif" font-size="14" text-anchor="middle">विशेषणम्</text></g><g id="edge9" class="edge"><title>Node8_1-&gt;Node5_1</title><path fill="none" stroke="#000" d="M327.84,-149.27C327.84,-162.58 327.84,-178.19 327.84,-189.82"/><polygon fill="#000" stroke="#000" points="331.34 -149.2 327.84 -139.2 324.34 -149.2 331.34 -149.2"/><text x="363.84" y="-160.8" font-family="Times,serif" font-size="14" text-anchor="middle">करणम्</text></g><g id="node7" class="node"><title>Node1_1</title><ellipse cx="770.84" cy="-34" fill="#ff0" stroke="#ff0" rx="72.29" ry="18"/><text x="770.84" y="-30.3" font-family="Times,serif" font-size="14" text-anchor="middle">पतत्-(1.1)</text></g><g id="node8" class="node"><title>Node1_2</title><ellipse cx="770.84" cy="-121" fill="#ff0" stroke="#ff0" rx="81.49" ry="18"/><text x="770.84" y="-117.3" font-family="Times,serif" font-size="14" text-anchor="middle">पतङ्ग-(1.2)</text></g><g id="edge1" class="edge"><title>Node1_1-&gt;Node1_2</title><path fill="none" stroke="#000" d="M770.84,-62.27C770.84,-75.58 770.84,-91.19 770.84,-102.82"/><polygon fill="#000" stroke="#000" points="774.34 -62.2 770.84 -52.2 767.34 -62.2 774.34 -62.2"/><text x="835.34" y="-73.8" font-family="Times,serif" font-size="14" text-anchor="middle">कर्मधारयः</text></g><g id="edge2" class="edge"><title>Node1_2-&gt;Node1_3</title><path fill="none" stroke="#000" d="M770.84,-149.27C770.84,-162.58 770.84,-178.19 770.84,-189.82"/><polygon fill="#000" stroke="#000" points="774.34 -149.2 770.84 -139.2 767.34 -149.2 774.34 -149.2"/><text x="881.34" y="-160.8" font-family="Times,serif" font-size="14" text-anchor="middle">तृतीया_तत्पुरुषः</text></g><g id="node10" class="node"><title>Node6_1</title><ellipse cx="96.84" cy="-121" fill="#f9f" stroke="#f9f" rx="50.89" ry="18"/><text x="96.84" y="-117.3" font-family="Times,serif" font-size="14" text-anchor="middle">इव(6.1)</text></g><g id="node11" class="node"><title>Node7_1</title><ellipse cx="96.84" cy="-208" fill="#00bfff" stroke="#00bfff" rx="96.68" ry="18"/><text x="96.84" y="-204.3" font-family="Times,serif" font-size="14" text-anchor="middle">मातङ्गः(7.1)</text></g><g id="edge7" class="edge"><title>Node6_1-&gt;Node7_1</title><path fill="none" stroke="#000" d="M96.84,-149.27C96.84,-162.58 96.84,-178.19 96.84,-189.82"/><polygon fill="#000" stroke="#000" points="100.34 -149.2 96.84 -139.2 93.34 -149.2 100.34 -149.2"/><text x="185.84" y="-160.8" font-family="Times,serif" font-size="14" text-anchor="middle">उपमान_द्योतकः</text></g><g id="edge8" class="edge"><title>Node7_1-&gt;Node4_1</title><path fill="none" stroke="#000" d="M153.09,-226.91C185.35,-236.92 226.69,-249.28 263.84,-259 298.08,-267.95 336.91,-276.67 367.26,-283.17"/><polygon fill="#000" stroke="#000" points="153.97 -223.52 143.38 -223.89 151.89 -230.21 153.97 -223.52"/><text x="313.84" y="-247.8" font-family="Times,serif" font-size="14" text-anchor="middle">उपमानम्</text></g></g></svg>