<svg xmlns="http://www.w3.org/2000/svg" xmlns:xlink="http://www.w3.org/1999/xlink" width="2760" height="392pt" viewBox="0 0 2069.74 392"><g id="graph0" class="graph" transform="scale(1 1) rotate(0) translate(4 388)"><title>G</title><polygon fill="#fffacd" stroke="transparent" points="-4 4 -4 -388 2065.74 -388 2065.74 4 -4 4"/><g id="clust1" class="cluster"><title>cluster_1</title><polygon fill="#fffacd" stroke="#000" points="340.74 -166 340.74 -305 1660.74 -305 1660.74 -166 340.74 -166"/></g><g id="node1" class="node"><title>Node1_1</title><ellipse cx="1601.74" cy="-192" fill="#00bfff" stroke="#00bfff" rx="50.89" ry="18"/><text x="1601.74" y="-188.3" font-family="Times,serif" font-size="14" text-anchor="middle">सः(1.1)</text></g><g id="node2" class="node"><title>Node8_1</title><ellipse cx="845.74" cy="-279" fill="#00bfff" stroke="#00bfff" rx="96.68" ry="18"/><text x="845.74" y="-275.3" font-family="Times,serif" font-size="14" text-anchor="middle">हनूमान्(8.1)</text></g><g id="edge1" class="edge"><title>Node1_1-&gt;Node8_1</title><path fill="none" stroke="#000" d="M1564.57,-211.58C1540.23,-222.81 1507.36,-236.22 1476.74,-243 1377.72,-264.93 1092.64,-273.44 941.87,-276.47"/><polygon fill="#000" stroke="#000" points="1566.23 -214.67 1573.79 -207.25 1563.25 -208.34 1566.23 -214.67"/><text x="1579.24" y="-231.8" font-family="Times,serif" font-size="14" text-anchor="middle">विशेषणम्</text></g><g id="node11" class="node"><title>Node6_1</title><ellipse cx="262.74" cy="-366" fill="#ff1975" stroke="#ff1975" rx="59.59" ry="18"/><text x="262.74" y="-362.3" font-family="Times,serif" font-size="14" text-anchor="middle">एति(6.1)</text></g><g id="edge8" class="edge"><title>Node8_1-&gt;Node6_1</title><path fill="none" stroke="#000" d="M762.16,-292.19C640.16,-309.97 416.86,-342.53 315.4,-357.32"/><polygon fill="#000" stroke="#000" points="762.81 -295.63 772.2 -290.72 761.8 -288.7 762.81 -295.63"/><text x="624.74" y="-318.8" font-family="Times,serif" font-size="14" text-anchor="middle">कर्ता</text></g><g id="node3" class="node"><title>Node2_1</title><ellipse cx="1473.74" cy="-192" fill="#00bfff" stroke="#00bfff" rx="59.59" ry="18"/><text x="1473.74" y="-188.3" font-family="Times,serif" font-size="14" text-anchor="middle">एषः(2.1)</text></g><g id="edge2" class="edge"><title>Node2_1-&gt;Node8_1</title><path fill="none" stroke="#000" d="M1425.61,-209.01C1389.46,-220.36 1338.53,-234.96 1292.74,-243 1172.76,-264.07 1032.42,-272.46 941.45,-275.8"/><polygon fill="#000" stroke="#000" points="1426.92 -212.26 1435.39 -205.9 1424.8 -205.59 1426.92 -212.26"/><text x="1415.24" y="-231.8" font-family="Times,serif" font-size="14" text-anchor="middle">विशेषणम्</text></g><g id="node4" class="node"><title>Node3_2</title><ellipse cx="455.74" cy="-192" fill="#00bfff" stroke="#00bfff" rx="106.68" ry="18"/><text x="455.74" y="-188.3" font-family="Times,serif" font-size="14" text-anchor="middle">शार्दूलः(3.2)</text></g><g id="edge4" class="edge"><title>Node3_2-&gt;Node8_1</title><path fill="none" stroke="#000" d="M499.97,-213.14C524.49,-223.53 555.78,-235.56 584.74,-243 641.42,-257.56 706.67,-266.31 757.75,-271.42"/><polygon fill="#000" stroke="#000" points="501.16 -209.84 490.59 -209.1 498.39 -216.27 501.16 -209.84"/><text x="642.24" y="-231.8" font-family="Times,serif" font-size="14" text-anchor="middle">विशेषणम्</text></g><g id="node5" class="node"><title>Node7_1</title><ellipse cx="1057.74" cy="-192" fill="#00bfff" stroke="#00bfff" rx="115.88" ry="18"/><text x="1057.74" y="-188.3" font-family="Times,serif" font-size="14" text-anchor="middle">वीर्यवान्(7.1)</text></g><g id="edge7" class="edge"><title>Node7_1-&gt;Node8_1</title><path fill="none" stroke="#000" d="M1021.45,-214.78C1004.6,-224.3 984.06,-235.07 964.74,-243 944.52,-251.3 921.63,-258.52 901.36,-264.22"/><polygon fill="#000" stroke="#000" points="1023.46 -217.66 1030.4 -209.65 1019.98 -211.59 1023.46 -217.66"/><text x="1053.24" y="-231.8" font-family="Times,serif" font-size="14" text-anchor="middle">विशेषणम्</text></g><g id="node6" class="node"><title>Node9_3</title><ellipse cx="845.74" cy="-192" fill="#00bfff" stroke="#00bfff" rx="78.79" ry="18"/><text x="845.74" y="-188.3" font-family="Times,serif" font-size="14" text-anchor="middle">अर्थी(9.3)</text></g><g id="edge11" class="edge"><title>Node9_3-&gt;Node8_1</title><path fill="none" stroke="#000" d="M845.74,-220.27C845.74,-233.58 845.74,-249.19 845.74,-260.82"/><polygon fill="#000" stroke="#000" points="849.24 -220.2 845.74 -210.2 842.24 -220.2 849.24 -220.2"/><text x="903.24" y="-231.8" font-family="Times,serif" font-size="14" text-anchor="middle">विशेषणम्</text></g><g id="node7" class="node"><title>Node10_2</title><ellipse cx="664.74" cy="-192" fill="#00bfff" stroke="#00bfff" rx="84.49" ry="18"/><text x="664.74" y="-188.3" font-family="Times,serif" font-size="14" text-anchor="middle">कर्मा(10.2)</text></g><g id="edge13" class="edge"><title>Node10_2-&gt;Node8_1</title><path fill="none" stroke="#000" d="M689.33,-216.57C700.13,-225.87 713.37,-236 726.74,-243 744.68,-252.39 765.48,-259.6 784.64,-264.97"/><polygon fill="#000" stroke="#000" points="691.39 -213.71 681.6 -209.67 686.74 -218.94 691.39 -213.71"/><text x="784.24" y="-231.8" font-family="Times,serif" font-size="14" text-anchor="middle">विशेषणम्</text></g><g id="node8" class="node"><title>Node12_1</title><ellipse cx="1293.74" cy="-192" fill="#00bfff" stroke="#00bfff" rx="102.88" ry="18"/><text x="1293.74" y="-188.3" font-family="Times,serif" font-size="14" text-anchor="middle">आप्लुतः(12.1)</text></g><g id="edge15" class="edge"><title>Node12_1-&gt;Node8_1</title><path fill="none" stroke="#000" d="M1236.7,-211.18C1201.79,-221.75 1156.04,-234.59 1114.74,-243 1053.48,-255.47 983.42,-264.42 930.16,-270.15"/><polygon fill="#000" stroke="#000" points="1238.16 -214.4 1246.71 -208.13 1236.12 -207.7 1238.16 -214.4"/><text x="1231.24" y="-231.8" font-family="Times,serif" font-size="14" text-anchor="middle">विशेषणम्</text></g><g id="node9" class="node"><title>Node3_1</title><ellipse cx="455.74" cy="-105" fill="#ff0" stroke="#ff0" rx="63.09" ry="18"/><text x="455.74" y="-101.3" font-family="Times,serif" font-size="14" text-anchor="middle">कपि-(3.1)</text></g><g id="edge3" class="edge"><title>Node3_1-&gt;Node3_2</title><path fill="none" stroke="#000" d="M455.74,-133.27C455.74,-146.58 455.74,-162.19 455.74,-173.82"/><polygon fill="#000" stroke="#000" points="459.24 -133.2 455.74 -123.2 452.24 -133.2 459.24 -133.2"/><text x="566.24" y="-144.8" font-family="Times,serif" font-size="14" text-anchor="middle">सप्तमी_तत्पुरुषः</text></g><g id="node10" class="node"><title>Node4_1</title><ellipse cx="87.74" cy="-279" fill="#93db70" stroke="#93db70" rx="87.99" ry="18"/><text x="87.74" y="-275.3" font-family="Times,serif" font-size="14" text-anchor="middle">त्वाम्(4.1)</text></g><g id="edge5" class="edge"><title>Node4_1-&gt;Node6_1</title><path fill="none" stroke="#000" d="M129.28,-300.18C160.99,-315.58 203.94,-336.44 232.46,-350.29"/><polygon fill="#000" stroke="#000" points="130.77 -297.01 120.25 -295.79 127.71 -303.31 130.77 -297.01"/><text x="214.74" y="-318.8" font-family="Times,serif" font-size="14" text-anchor="middle">कर्म</text></g><g id="node12" class="node"><title>Node5_1</title><ellipse cx="262.74" cy="-279" fill="#f9f" stroke="#f9f" rx="69.59" ry="18"/><text x="262.74" y="-275.3" font-family="Times,serif" font-size="14" text-anchor="middle">उपरि(5.1)</text></g><g id="edge6" class="edge"><title>Node5_1-&gt;Node6_1</title><path fill="none" stroke="#000" d="M262.74,-307.27C262.74,-320.58 262.74,-336.19 262.74,-347.82"/><polygon fill="#000" stroke="#000" points="266.24 -307.2 262.74 -297.2 259.24 -307.2 266.24 -307.2"/><text x="341.24" y="-318.8" font-family="Times,serif" font-size="14" text-anchor="middle">देशाधिकरणम्</text></g><g id="node13" class="node"><title>Node9_1</title><ellipse cx="730.74" cy="-18" fill="#ff0" stroke="#ff0" rx="63.09" ry="18"/><text x="730.74" y="-14.3" font-family="Times,serif" font-size="14" text-anchor="middle">राम-(9.1)</text></g><g id="node14" class="node"><title>Node9_2</title><ellipse cx="845.74" cy="-105" fill="#ff0" stroke="#ff0" rx="81.49" ry="18"/><text x="845.74" y="-101.3" font-family="Times,serif" font-size="14" text-anchor="middle">कार्य-(9.2)</text></g><g id="edge9" class="edge"><title>Node9_1-&gt;Node9_2</title><path fill="none" stroke="#000" d="M725.52,-46.48C725.46,-54.41 726.94,-62.64 731.74,-69 742.09,-82.72 757.72,-91.22 774.1,-96.44"/><polygon fill="#000" stroke="#000" points="729.02 -46.64 726.36 -36.39 722.05 -46.07 729.02 -46.64"/><text x="835.24" y="-57.8" font-family="Times,serif" font-size="14" text-anchor="middle">षष्ठी_तत्पुरुषः</text></g><g id="edge10" class="edge"><title>Node9_2-&gt;Node9_3</title><path fill="none" stroke="#000" d="M845.74,-133.27C845.74,-146.58 845.74,-162.19 845.74,-173.82"/><polygon fill="#000" stroke="#000" points="849.24 -133.2 845.74 -123.2 842.24 -133.2 849.24 -133.2"/><text x="910.24" y="-144.8" font-family="Times,serif" font-size="14" text-anchor="middle">कर्मधारयः</text></g><g id="node15" class="node"><title>Node10_1</title><ellipse cx="262.74" cy="-192" fill="#ff0" stroke="#ff0" rx="68.79" ry="18"/><text x="262.74" y="-188.3" font-family="Times,serif" font-size="14" text-anchor="middle">भीम-(10.1)</text></g><g id="edge12" class="edge"><title>Node10_1-&gt;Node8_1</title><path fill="none" stroke="#000" d="M302.81,-212.35C327.33,-223.27 359.67,-236.09 389.74,-243 456.29,-258.29 639.26,-268.83 752.17,-274.11"/><polygon fill="#000" stroke="#000" points="304.04 -209.06 293.49 -208.11 301.15 -215.43 304.04 -209.06"/><text x="461.24" y="-231.8" font-family="Times,serif" font-size="14" text-anchor="middle">बहुव्रीहिः</text></g><g id="node16" class="node"><title>Node11_1</title><ellipse cx="1293.74" cy="-105" fill="#93db70" stroke="#93db70" rx="65.79" ry="18"/><text x="1293.74" y="-101.3" font-family="Times,serif" font-size="14" text-anchor="middle">खम्(11.1)</text></g><g id="edge14" class="edge"><title>Node11_1-&gt;Node12_1</title><path fill="none" stroke="#000" d="M1293.74,-133.27C1293.74,-146.58 1293.74,-162.19 1293.74,-173.82"/><polygon fill="#000" stroke="#000" points="1297.24 -133.2 1293.74 -123.2 1290.24 -133.2 1297.24 -133.2"/><text x="1322.74" y="-144.8" font-family="Times,serif" font-size="14" text-anchor="middle">कर्म</text></g><g id="node17" class="node"><title>Node13_1</title><ellipse cx="1875.74" cy="-105" fill="#93db70" stroke="#93db70" rx="93.68" ry="18"/><text x="1875.74" y="-101.3" font-family="Times,serif" font-size="14" text-anchor="middle">श्रमम्(13.1)</text></g><g id="node18" class="node"><title>Node17_1</title><ellipse cx="1790.74" cy="-192" fill="#40e0d0" stroke="#40e0d0" rx="112.38" ry="18"/><text x="1790.74" y="-188.3" font-family="Times,serif" font-size="14" text-anchor="middle">समीक्ष्य(17.1)</text></g><g id="edge16" class="edge"><title>Node13_1-&gt;Node17_1</title><path fill="none" stroke="#000" d="M1861.57,-131.63C1856.29,-139.93 1849.84,-148.84 1842.74,-156 1835.92,-162.88 1827.56,-169.21 1819.55,-174.53"/><polygon fill="#000" stroke="#000" points="1864.63 -133.33 1866.82 -122.96 1858.64 -129.71 1864.63 -133.33"/><text x="1882.74" y="-144.8" font-family="Times,serif" font-size="14" text-anchor="middle">कर्म</text></g><g id="node22" class="node"><title>Node18_1</title><ellipse cx="1790.74" cy="-279" fill="#f9f" stroke="#f9f" rx="121.58" ry="18"/><text x="1790.74" y="-275.3" font-family="Times,serif" font-size="14" text-anchor="middle">उत्थातुम्(18.1)</text></g><g id="edge20" class="edge"><title>Node17_1-&gt;Node18_1</title><path fill="none" stroke="#000" d="M1790.74,-220.27C1790.74,-233.58 1790.74,-249.19 1790.74,-260.82"/><polygon fill="#000" stroke="#000" points="1794.24 -220.2 1790.74 -210.2 1787.24 -220.2 1794.24 -220.2"/><text x="1855.24" y="-231.8" font-family="Times,serif" font-size="14" text-anchor="middle">पूर्वकालः</text></g><g id="node19" class="node"><title>Node14_1</title><ellipse cx="1716.74" cy="-105" fill="#f9f" stroke="#f9f" rx="47.39" ry="18"/><text x="1716.74" y="-101.3" font-family="Times,serif" font-size="14" text-anchor="middle">च(14.1)</text></g><g id="edge17" class="edge"><title>Node14_1-&gt;Node17_1</title><path fill="none" stroke="#000" d="M1718.5,-133.25C1720.08,-141.18 1722.87,-149.46 1727.74,-156 1733.57,-163.83 1741.7,-170.13 1750.18,-175.12"/><polygon fill="#000" stroke="#000" points="1721.94 -132.6 1717.05 -123.21 1715.01 -133.6 1721.94 -132.6"/><text x="1785.24" y="-144.8" font-family="Times,serif" font-size="14" text-anchor="middle">सम्बन्धः</text></g><g id="node20" class="node"><title>Node15_1</title><ellipse cx="960.74" cy="-18" fill="#ff0" stroke="#ff0" rx="87.18" ry="18"/><text x="960.74" y="-14.3" font-family="Times,serif" font-size="14" text-anchor="middle">प्लवग-(15.1)</text></g><g id="edge18" class="edge"><title>Node15_1-&gt;Node9_2</title><path fill="none" stroke="#000" d="M953.48,-45.76C950.13,-54.09 945.37,-62.72 938.74,-69 928.09,-79.08 914.26,-86.33 900.54,-91.51"/><polygon fill="#000" stroke="#000" points="956.8 -46.89 956.8 -36.29 950.19 -44.57 956.8 -46.89"/><text x="1052.24" y="-57.8" font-family="Times,serif" font-size="14" text-anchor="middle">षष्ठी_तत्पुरुषः</text></g><g id="node21" class="node"><title>Node16_1</title><ellipse cx="1875.74" cy="-18" fill="#87ceeb" stroke="#87ceeb" rx="121.58" ry="18"/><text x="1875.74" y="-14.3" font-family="Times,serif" font-size="14" text-anchor="middle">इन्द्रस्य(16.1)</text></g><g id="edge19" class="edge"><title>Node16_1-&gt;Node13_1</title><path fill="none" stroke="#000" d="M1875.74,-46.27C1875.74,-59.58 1875.74,-75.19 1875.74,-86.82"/><polygon fill="#000" stroke="#000" points="1879.24 -46.2 1875.74 -36.2 1872.24 -46.2 1879.24 -46.2"/><text x="1968.74" y="-57.8" font-family="Times,serif" font-size="14" text-anchor="middle">षष्ठीसम्बन्धः</text></g><g id="node23" class="node"><title>Node19_1</title><ellipse cx="1790.74" cy="-366" fill="#ff1975" stroke="#ff1975" rx="93.68" ry="18"/><text x="1790.74" y="-362.3" font-family="Times,serif" font-size="14" text-anchor="middle">अर्हसि(19.1)</text></g><g id="edge21" class="edge"><title>Node18_1-&gt;Node19_1</title><path fill="none" stroke="#000" d="M1790.74,-307.27C1790.74,-320.58 1790.74,-336.19 1790.74,-347.82"/><polygon fill="#000" stroke="#000" points="1794.24 -307.2 1790.74 -297.2 1787.24 -307.2 1794.24 -307.2"/><text x="1855.24" y="-318.8" font-family="Times,serif" font-size="14" text-anchor="middle">प्रयोजनम्</text></g></g></svg>