<?xml version="1.0" encoding="UTF-8" standalone="no"?>
<!DOCTYPE svg PUBLIC "-//W3C//DTD SVG 1.1//EN"
 "http://www.w3.org/Graphics/SVG/1.1/DTD/svg11.dtd">
<!-- Generated by graphviz version 2.43.0 (0)
 -->
<!-- Title: G Pages: 1 -->
<svg width="903pt" height="495pt"
 viewBox="0.00 0.00 903.14 495.00" xmlns="http://www.w3.org/2000/svg" xmlns:xlink="http://www.w3.org/1999/xlink">
<g id="graph0" class="graph" transform="scale(1 1) rotate(0) translate(4 491)">
<title>G</title>
<polygon fill="#fffacd" stroke="transparent" points="-4,4 -4,-491 899.14,-491 899.14,4 -4,4"/>
<g id="clust1" class="cluster">
<title>cluster_1</title>
<polygon fill="#fffacd" stroke="black" points="92.6,-340 92.6,-479 589.6,-479 589.6,-340 92.6,-340"/>
</g>
<g id="clust2" class="cluster">
<title>cluster_2</title>
<polygon fill="#fffacd" stroke="black" points="166.6,-166 166.6,-305 376.6,-305 376.6,-166 166.6,-166"/>
</g>
<!-- Node2_1 -->
<g id="node1" class="node">
<title>Node2_1</title>
<ellipse fill="#ff1975" stroke="#ff1975" cx="253.6" cy="-366" rx="152.97" ry="18"/>
<text text-anchor="middle" x="253.6" y="-362.3" font-family="Times,serif" font-size="14.00">संस्तम्भयामास(2.1)</text>
</g>
<!-- Node9_1 -->
<g id="node2" class="node">
<title>Node9_1</title>
<ellipse fill="#ff1975" stroke="#ff1975" cx="452.6" cy="-453" rx="106.68" ry="18"/>
<text text-anchor="middle" x="452.6" y="-449.3" font-family="Times,serif" font-size="14.00">सञ्चुकोच(9.1)</text>
</g>
<!-- Node2_1&#45;&gt;Node9_1 -->
<g id="edge2" class="edge">
<title>Node2_1&#45;&gt;Node9_1</title>
<path fill="none" stroke="black" d="M288.67,-389.19C304.45,-398.58 323.55,-409.13 341.6,-417 359.66,-424.87 380.06,-431.83 398.4,-437.42"/>
<polygon fill="black" stroke="black" points="290.17,-386.01 279.8,-383.83 286.55,-392 290.17,-386.01"/>
<text text-anchor="middle" x="406.1" y="-405.8" font-family="Times,serif" font-size="14.00">समुच्चितः</text>
</g>
<!-- Node4_1 -->
<g id="node3" class="node">
<title>Node4_1</title>
<ellipse fill="#ff1975" stroke="#ff1975" cx="502.6" cy="-366" rx="78.79" ry="18"/>
<text text-anchor="middle" x="502.6" y="-362.3" font-family="Times,serif" font-size="14.00">आससाद(4.1)</text>
</g>
<!-- Node4_1&#45;&gt;Node9_1 -->
<g id="edge6" class="edge">
<title>Node4_1&#45;&gt;Node9_1</title>
<path fill="none" stroke="black" d="M487.25,-393.09C479.27,-406.65 469.74,-422.85 462.7,-434.82"/>
<polygon fill="black" stroke="black" points="490.42,-394.59 492.48,-384.2 484.39,-391.05 490.42,-394.59"/>
<text text-anchor="middle" x="544.1" y="-405.8" font-family="Times,serif" font-size="14.00">समुच्चितः</text>
</g>
<!-- Node3_3 -->
<g id="node4" class="node">
<title>Node3_3</title>
<ellipse fill="#93db70" stroke="#93db70" cx="271.6" cy="-192" rx="96.68" ry="18"/>
<text text-anchor="middle" x="271.6" y="-188.3" font-family="Times,serif" font-size="14.00">सन्निभौ(3.3)</text>
</g>
<!-- Node1_1 -->
<g id="node5" class="node">
<title>Node1_1</title>
<ellipse fill="#93db70" stroke="#93db70" cx="253.6" cy="-279" rx="69.59" ry="18"/>
<text text-anchor="middle" x="253.6" y="-275.3" font-family="Times,serif" font-size="14.00">बाहू(1.1)</text>
</g>
<!-- Node3_3&#45;&gt;Node1_1 -->
<g id="edge5" class="edge">
<title>Node3_3&#45;&gt;Node1_1</title>
<path fill="none" stroke="black" d="M265.82,-220.27C263,-233.58 259.7,-249.19 257.23,-260.82"/>
<polygon fill="black" stroke="black" points="269.31,-220.71 267.95,-210.2 262.46,-219.26 269.31,-220.71"/>
<text text-anchor="middle" x="321.1" y="-231.8" font-family="Times,serif" font-size="14.00">विशेषणम्</text>
</g>
<!-- Node1_1&#45;&gt;Node2_1 -->
<g id="edge1" class="edge">
<title>Node1_1&#45;&gt;Node2_1</title>
<path fill="none" stroke="black" d="M253.6,-307.27C253.6,-320.58 253.6,-336.19 253.6,-347.82"/>
<polygon fill="black" stroke="black" points="257.1,-307.2 253.6,-297.2 250.1,-307.2 257.1,-307.2"/>
<text text-anchor="middle" x="282.6" y="-318.8" font-family="Times,serif" font-size="14.00">कर्म</text>
</g>
<!-- Node3_1 -->
<g id="node6" class="node">
<title>Node3_1</title>
<ellipse fill="#ffff00" stroke="#ffff00" cx="271.6" cy="-18" rx="63.09" ry="18"/>
<text text-anchor="middle" x="271.6" y="-14.3" font-family="Times,serif" font-size="14.00">महा&#45;(3.1)</text>
</g>
<!-- Node3_2 -->
<g id="node7" class="node">
<title>Node3_2</title>
<ellipse fill="#ffff00" stroke="#ffff00" cx="271.6" cy="-105" rx="72.29" ry="18"/>
<text text-anchor="middle" x="271.6" y="-101.3" font-family="Times,serif" font-size="14.00">परिघ&#45;(3.2)</text>
</g>
<!-- Node3_1&#45;&gt;Node3_2 -->
<g id="edge3" class="edge">
<title>Node3_1&#45;&gt;Node3_2</title>
<path fill="none" stroke="black" d="M271.6,-46.27C271.6,-59.58 271.6,-75.19 271.6,-86.82"/>
<polygon fill="black" stroke="black" points="275.1,-46.2 271.6,-36.2 268.1,-46.2 275.1,-46.2"/>
<text text-anchor="middle" x="336.1" y="-57.8" font-family="Times,serif" font-size="14.00">कर्मधारयः</text>
</g>
<!-- Node3_2&#45;&gt;Node3_3 -->
<g id="edge4" class="edge">
<title>Node3_2&#45;&gt;Node3_3</title>
<path fill="none" stroke="black" d="M271.6,-133.27C271.6,-146.58 271.6,-162.19 271.6,-173.82"/>
<polygon fill="black" stroke="black" points="275.1,-133.2 271.6,-123.2 268.1,-133.2 275.1,-133.2"/>
<text text-anchor="middle" x="382.1" y="-144.8" font-family="Times,serif" font-size="14.00">तृतीया_तत्पुरुषः</text>
</g>
<!-- Node5_1 -->
<g id="node8" class="node">
<title>Node5_1</title>
<ellipse fill="#ff99ff" stroke="#ff99ff" cx="41.6" cy="-366" rx="41.69" ry="18"/>
<text text-anchor="middle" x="41.6" y="-362.3" font-family="Times,serif" font-size="14.00">च(5.1)</text>
</g>
<!-- Node5_1&#45;&gt;Node9_1 -->
<g id="edge7" class="edge">
<title>Node5_1&#45;&gt;Node9_1</title>
<path fill="none" stroke="black" d="M62.71,-390.37C73.09,-400.32 86.41,-410.99 100.6,-417 143.99,-435.4 261.9,-444.32 349.36,-448.51"/>
<polygon fill="black" stroke="black" points="64.91,-387.62 55.37,-383 59.94,-392.56 64.91,-387.62"/>
<text text-anchor="middle" x="204.1" y="-405.8" font-family="Times,serif" font-size="14.00">समुच्चय_द्योतकः</text>
</g>
<!-- Node6_1 -->
<g id="node9" class="node">
<title>Node6_1</title>
<ellipse fill="#00bfff" stroke="#00bfff" cx="668.6" cy="-366" rx="69.59" ry="18"/>
<text text-anchor="middle" x="668.6" y="-362.3" font-family="Times,serif" font-size="14.00">कपिः(6.1)</text>
</g>
<!-- Node6_1&#45;&gt;Node9_1 -->
<g id="edge8" class="edge">
<title>Node6_1&#45;&gt;Node9_1</title>
<path fill="none" stroke="black" d="M646.89,-391.16C637.26,-400.54 625.24,-410.55 612.6,-417 589.42,-428.83 562.38,-436.68 537.18,-441.87"/>
<polygon fill="black" stroke="black" points="649.56,-393.44 654.08,-383.86 644.57,-388.53 649.56,-393.44"/>
<text text-anchor="middle" x="670.6" y="-405.8" font-family="Times,serif" font-size="14.00">कर्ता</text>
</g>
<!-- Node7_1 -->
<g id="node10" class="node">
<title>Node7_1</title>
<ellipse fill="#c6e2eb" stroke="#c6e2eb" cx="502.6" cy="-279" rx="96.68" ry="18"/>
<text text-anchor="middle" x="502.6" y="-275.3" font-family="Times,serif" font-size="14.00">कट्याम्(7.1)</text>
</g>
<!-- Node7_1&#45;&gt;Node4_1 -->
<g id="edge9" class="edge">
<title>Node7_1&#45;&gt;Node4_1</title>
<path fill="none" stroke="black" d="M502.6,-307.27C502.6,-320.58 502.6,-336.19 502.6,-347.82"/>
<polygon fill="black" stroke="black" points="506.1,-307.2 502.6,-297.2 499.1,-307.2 506.1,-307.2"/>
<text text-anchor="middle" x="560.1" y="-318.8" font-family="Times,serif" font-size="14.00">अधिकरणम्</text>
</g>
<!-- Node8_1 -->
<g id="node11" class="node">
<title>Node8_1</title>
<ellipse fill="#93db70" stroke="#93db70" cx="825.6" cy="-366" rx="69.59" ry="18"/>
<text text-anchor="middle" x="825.6" y="-362.3" font-family="Times,serif" font-size="14.00">चरणौ(8.1)</text>
</g>
<!-- Node8_1&#45;&gt;Node9_1 -->
<g id="edge10" class="edge">
<title>Node8_1&#45;&gt;Node9_1</title>
<path fill="none" stroke="black" d="M786.89,-387.02C765.03,-397.5 736.9,-409.65 710.6,-417 658.25,-431.63 598.15,-440.24 549.14,-445.25"/>
<polygon fill="black" stroke="black" points="788.71,-390.02 796.16,-382.49 785.64,-383.73 788.71,-390.02"/>
<text text-anchor="middle" x="781.6" y="-405.8" font-family="Times,serif" font-size="14.00">कर्म</text>
</g>
</g>
</svg>
