<svg xmlns="http://www.w3.org/2000/svg" xmlns:xlink="http://www.w3.org/1999/xlink" width="1268pt" height="479pt" viewBox="0 0 1268 479"><g id="graph0" class="graph" transform="scale(1 1) rotate(0) translate(4 475)"><title>G</title><polygon fill="#fffacd" stroke="transparent" points="-4 4 -4 -475 1264 -475 1264 4 -4 4"/><g id="clust1" class="cluster"><title>cluster_1</title><polygon fill="#fffacd" stroke="#000" points="523 -253 523 -392 1047 -392 1047 -253 523 -253"/></g><g id="clust2" class="cluster"><title>cluster_2</title><polygon fill="#fffacd" stroke="#000" points="8 -166 8 -305 200 -305 200 -166 8 -166"/></g><g id="node1" class="node"><title>Node2_4</title><ellipse cx="610" cy="-279" fill="#93db70" stroke="#93db70" rx="78.79" ry="18"/><text x="610" y="-275.3" font-family="Times,serif" font-size="14" text-anchor="middle">धूतम्(2.4)</text></g><g id="node2" class="node"><title>Node3_1</title><ellipse cx="785" cy="-366" fill="#00bfff" stroke="#00bfff" rx="69.59" ry="18"/><text x="785" y="-362.3" font-family="Times,serif" font-size="14" text-anchor="middle">जलम्(3.1)</text></g><g id="edge5" class="edge"><title>Node2_4-&gt;Node3_1</title><path fill="none" stroke="#000" d="M632.36,-304.13C641.96,-313.32 653.78,-323.2 666,-330 686.04,-341.15 710.01,-349.07 731.16,-354.53"/><polygon fill="#000" stroke="#000" points="634.73 -301.55 625.17 -296.98 629.79 -306.51 634.73 -301.55"/><text x="723.5" y="-318.8" font-family="Times,serif" font-size="14" text-anchor="middle">विशेषणम्</text></g><g id="node11" class="node"><title>Node7_1</title><ellipse cx="785" cy="-453" fill="#ff1975" stroke="#ff1975" rx="115.88" ry="18"/><text x="785" y="-449.3" font-family="Times,serif" font-size="14" text-anchor="middle">विबभ्राजे(7.1)</text></g><g id="edge6" class="edge"><title>Node3_1-&gt;Node7_1</title><path fill="none" stroke="#000" d="M785,-394.27C785,-407.58 785,-423.19 785,-434.82"/><polygon fill="#000" stroke="#000" points="788.5 -394.2 785 -384.2 781.5 -394.2 788.5 -394.2"/><text x="821" y="-405.8" font-family="Times,serif" font-size="14" text-anchor="middle">कर्ता</text></g><g id="node3" class="node"><title>Node4_2</title><ellipse cx="785" cy="-279" fill="#93db70" stroke="#93db70" rx="78.79" ry="18"/><text x="785" y="-275.3" font-family="Times,serif" font-size="14" text-anchor="middle">जलदम्(4.2)</text></g><g id="edge8" class="edge"><title>Node4_2-&gt;Node3_1</title><path fill="none" stroke="#000" d="M785,-307.27C785,-320.58 785,-336.19 785,-347.82"/><polygon fill="#000" stroke="#000" points="788.5 -307.2 785 -297.2 781.5 -307.2 788.5 -307.2"/><text x="842.5" y="-318.8" font-family="Times,serif" font-size="14" text-anchor="middle">विशेषणम्</text></g><g id="node4" class="node"><title>Node6_2</title><ellipse cx="960" cy="-279" fill="#93db70" stroke="#93db70" rx="78.79" ry="18"/><text x="960" y="-275.3" font-family="Times,serif" font-size="14" text-anchor="middle">स्थम्(6.2)</text></g><g id="edge11" class="edge"><title>Node6_2-&gt;Node3_1</title><path fill="none" stroke="#000" d="M936.69,-304.07C926.73,-313.25 914.51,-323.15 902,-330 882.2,-340.85 858.62,-348.73 837.84,-354.23"/><polygon fill="#000" stroke="#000" points="939.35 -306.37 944.17 -296.93 934.52 -301.31 939.35 -306.37"/><text x="980.5" y="-318.8" font-family="Times,serif" font-size="14" text-anchor="middle">विशेषणम्</text></g><g id="node5" class="node"><title>Node10_1</title><ellipse cx="100" cy="-192" fill="#00bfff" stroke="#00bfff" rx="84.49" ry="18"/><text x="100" y="-188.3" font-family="Times,serif" font-size="14" text-anchor="middle">आततम्(10.1)</text></g><g id="node6" class="node"><title>Node8_2</title><ellipse cx="104" cy="-279" fill="#93db70" stroke="#93db70" rx="87.99" ry="18"/><text x="104" y="-275.3" font-family="Times,serif" font-size="14" text-anchor="middle">अभ्रम्(8.2)</text></g><g id="edge15" class="edge"><title>Node10_1-&gt;Node8_2</title><path fill="none" stroke="#000" d="M101.28,-220.27C101.91,-233.58 102.64,-249.19 103.19,-260.82"/><polygon fill="#000" stroke="#000" points="104.78 -220.03 100.81 -210.2 97.78 -220.35 104.78 -220.03"/><text x="160.5" y="-231.8" font-family="Times,serif" font-size="14" text-anchor="middle">विशेषणम्</text></g><g id="edge13" class="edge"><title>Node8_2-&gt;Node3_1</title><path fill="none" stroke="#000" d="M187.02,-290.36C325.6,-307.66 600.92,-342.02 723.57,-357.33"/><polygon fill="#000" stroke="#000" points="187.24 -286.86 176.88 -289.1 186.37 -293.81 187.24 -286.86"/><text x="536" y="-318.8" font-family="Times,serif" font-size="14" text-anchor="middle">उपमानम्</text></g><g id="node7" class="node"><title>Node1_1</title><ellipse cx="1126" cy="-279" fill="#87ceeb" stroke="#87ceeb" rx="69.59" ry="18"/><text x="1126" y="-275.3" font-family="Times,serif" font-size="14" text-anchor="middle">तस्य(1.1)</text></g><g id="edge1" class="edge"><title>Node1_1-&gt;Node3_1</title><path fill="none" stroke="#000" d="M1095.84,-301.99C1080.46,-312.12 1061.02,-323.36 1042,-330 980.57,-351.46 906.61,-359.85 853.83,-363.08"/><polygon fill="#000" stroke="#000" points="1098.08 -304.69 1104.4 -296.19 1094.16 -298.9 1098.08 -304.69"/><text x="1167" y="-318.8" font-family="Times,serif" font-size="14" text-anchor="middle">षष्ठीसम्बन्धः</text></g><g id="node8" class="node"><title>Node2_1</title><ellipse cx="622" cy="-18" fill="#ff0" stroke="#ff0" rx="63.09" ry="18"/><text x="622" y="-14.3" font-family="Times,serif" font-size="14" text-anchor="middle">वेग-(2.1)</text></g><g id="node9" class="node"><title>Node2_2</title><ellipse cx="622" cy="-105" fill="#ff0" stroke="#ff0" rx="63.09" ry="18"/><text x="622" y="-101.3" font-family="Times,serif" font-size="14" text-anchor="middle">सम्-(2.2)</text></g><g id="edge2" class="edge"><title>Node2_1-&gt;Node2_2</title><path fill="none" stroke="#000" d="M622,-46.27C622,-59.58 622,-75.19 622,-86.82"/><polygon fill="#000" stroke="#000" points="625.5 -46.2 622 -36.2 618.5 -46.2 625.5 -46.2"/><text x="686.5" y="-57.8" font-family="Times,serif" font-size="14" text-anchor="middle">तत्पुरुषः</text></g><g id="node10" class="node"><title>Node2_3</title><ellipse cx="622" cy="-192" fill="#ff0" stroke="#ff0" rx="63.09" ry="18"/><text x="622" y="-188.3" font-family="Times,serif" font-size="14" text-anchor="middle">उद्-(2.3)</text></g><g id="edge3" class="edge"><title>Node2_2-&gt;Node2_3</title><path fill="none" stroke="#000" d="M622,-133.27C622,-146.58 622,-162.19 622,-173.82"/><polygon fill="#000" stroke="#000" points="625.5 -133.2 622 -123.2 618.5 -133.2 625.5 -133.2"/><text x="686.5" y="-144.8" font-family="Times,serif" font-size="14" text-anchor="middle">तत्पुरुषः</text></g><g id="edge4" class="edge"><title>Node2_3-&gt;Node2_4</title><path fill="none" stroke="#000" d="M618.15,-220.27C616.27,-233.58 614.07,-249.19 612.42,-260.82"/><polygon fill="#000" stroke="#000" points="621.64 -220.59 619.57 -210.2 614.71 -219.61 621.64 -220.59"/><text x="681.5" y="-231.8" font-family="Times,serif" font-size="14" text-anchor="middle">तत्पुरुषः</text></g><g id="node12" class="node"><title>Node4_1</title><ellipse cx="785" cy="-192" fill="#ff0" stroke="#ff0" rx="44.39" ry="18"/><text x="785" y="-188.3" font-family="Times,serif" font-size="14" text-anchor="middle">स-(4.1)</text></g><g id="edge7" class="edge"><title>Node4_1-&gt;Node4_2</title><path fill="none" stroke="#000" d="M785,-220.27C785,-233.58 785,-249.19 785,-260.82"/><polygon fill="#000" stroke="#000" points="788.5 -220.2 785 -210.2 781.5 -220.2 788.5 -220.2"/><text x="856.5" y="-231.8" font-family="Times,serif" font-size="14" text-anchor="middle">बहुव्रीहिः</text></g><g id="node13" class="node"><title>Node5_1</title><ellipse cx="100" cy="-105" fill="#f9f" stroke="#f9f" rx="59.59" ry="18"/><text x="100" y="-101.3" font-family="Times,serif" font-size="14" text-anchor="middle">तदा(5.1)</text></g><g id="edge9" class="edge"><title>Node5_1-&gt;Node10_1</title><path fill="none" stroke="#000" d="M100,-133.27C100,-146.58 100,-162.19 100,-173.82"/><polygon fill="#000" stroke="#000" points="103.5 -133.2 100 -123.2 96.5 -133.2 103.5 -133.2"/><text x="178.5" y="-144.8" font-family="Times,serif" font-size="14" text-anchor="middle">कालाधिकरणम्</text></g><g id="node14" class="node"><title>Node6_1</title><ellipse cx="960" cy="-192" fill="#ff0" stroke="#ff0" rx="81.49" ry="18"/><text x="960" y="-188.3" font-family="Times,serif" font-size="14" text-anchor="middle">अम्बर-(6.1)</text></g><g id="edge10" class="edge"><title>Node6_1-&gt;Node6_2</title><path fill="none" stroke="#000" d="M960,-220.27C960,-233.58 960,-249.19 960,-260.82"/><polygon fill="#000" stroke="#000" points="963.5 -220.2 960 -210.2 956.5 -220.2 963.5 -220.2"/><text x="1024.5" y="-231.8" font-family="Times,serif" font-size="14" text-anchor="middle">तत्पुरुषः</text></g><g id="node15" class="node"><title>Node8_1</title><ellipse cx="280" cy="-192" fill="#ff0" stroke="#ff0" rx="72.29" ry="18"/><text x="280" y="-188.3" font-family="Times,serif" font-size="14" text-anchor="middle">शरदा-(8.1)</text></g><g id="edge12" class="edge"><title>Node8_1-&gt;Node8_2</title><path fill="none" stroke="#000" d="M256.7,-217.09C246.74,-226.27 234.52,-236.16 222,-243 203.9,-252.88 182.68,-260.29 163.26,-265.68"/><polygon fill="#000" stroke="#000" points="259.36 -219.39 264.18 -209.95 254.53 -214.32 259.36 -219.39"/><text x="307.5" y="-231.8" font-family="Times,serif" font-size="14" text-anchor="middle">कर्मधारयः</text></g><g id="node16" class="node"><title>Node9_1</title><ellipse cx="421" cy="-192" fill="#f9f" stroke="#f9f" rx="50.89" ry="18"/><text x="421" y="-188.3" font-family="Times,serif" font-size="14" text-anchor="middle">इव(9.1)</text></g><g id="edge14" class="edge"><title>Node9_1-&gt;Node8_2</title><path fill="none" stroke="#000" d="M404.53,-217.87C396.98,-227.28 387.2,-237.13 376,-243 344.22,-259.67 255.55,-268.84 188.01,-273.57"/><polygon fill="#000" stroke="#000" points="407.37 -219.92 410.57 -209.82 401.77 -215.71 407.37 -219.92"/><text x="484" y="-231.8" font-family="Times,serif" font-size="14" text-anchor="middle">उपमान_द्योतकः</text></g></g></svg>