<svg xmlns="http://www.w3.org/2000/svg" xmlns:xlink="http://www.w3.org/1999/xlink" width="1280" height="305pt" viewBox="0 0 960 305"><g id="graph0" class="graph" transform="scale(1 1) rotate(0) translate(4 301)"><title>G</title><polygon fill="#fffacd" stroke="transparent" points="-4 4 -4 -301 956 -301 956 4 -4 4"/><g id="clust1" class="cluster"><title>cluster_1</title><polygon fill="#fffacd" stroke="#000" points="246 -79 246 -218 944 -218 944 -79 246 -79"/></g><g id="clust2" class="cluster"><title>cluster_2</title><polygon fill="#fffacd" stroke="#000" points="8 -79 8 -218 238 -218 238 -79 8 -79"/></g><g id="node1" class="node"><title>Node1_1</title><ellipse cx="876" cy="-105" fill="#00bfff" stroke="#00bfff" rx="59.59" ry="18"/><text x="876" y="-101.3" font-family="Times,serif" font-size="14" text-anchor="middle">एषः(1.1)</text></g><g id="node2" class="node"><title>Node3_1</title><ellipse cx="545" cy="-192" fill="#00bfff" stroke="#00bfff" rx="96.68" ry="18"/><text x="545" y="-188.3" font-family="Times,serif" font-size="14" text-anchor="middle">हनुमान्(3.1)</text></g><g id="edge1" class="edge"><title>Node1_1-&gt;Node3_1</title><path fill="none" stroke="#000" d="M848.22,-128.31C834.24,-138.38 816.57,-149.46 799,-156 748.21,-174.91 688.28,-183.75 639.39,-187.82"/><polygon fill="#000" stroke="#000" points="850.47 -130.99 856.41 -122.22 846.3 -125.37 850.47 -130.99"/><text x="885.5" y="-144.8" font-family="Times,serif" font-size="14" text-anchor="middle">विशेषणम्</text></g><g id="node9" class="node"><title>Node5_1</title><ellipse cx="376" cy="-279" fill="#ff1975" stroke="#ff1975" rx="115.88" ry="18"/><text x="376" y="-275.3" font-family="Times,serif" font-size="14" text-anchor="middle">तितीर्षति(5.1)</text></g><g id="edge4" class="edge"><title>Node3_1-&gt;Node5_1</title><path fill="none" stroke="#000" d="M503.68,-213.78C474.42,-228.5 435.73,-247.96 408.64,-261.58"/><polygon fill="#000" stroke="#000" points="505.45 -216.81 512.81 -209.19 502.31 -210.55 505.45 -216.81"/><text x="507" y="-231.8" font-family="Times,serif" font-size="14" text-anchor="middle">कर्ता</text></g><g id="node3" class="node"><title>Node2_2</title><ellipse cx="351" cy="-105" fill="#00bfff" stroke="#00bfff" rx="96.68" ry="18"/><text x="351" y="-101.3" font-family="Times,serif" font-size="14" text-anchor="middle">सङ्काशः(2.2)</text></g><g id="edge3" class="edge"><title>Node2_2-&gt;Node3_1</title><path fill="none" stroke="#000" d="M380.58,-128.73C393.91,-138.17 410.18,-148.61 426,-156 445.02,-164.89 466.82,-172.08 486.51,-177.58"/><polygon fill="#000" stroke="#000" points="382.43 -125.75 372.28 -122.72 378.32 -131.42 382.43 -125.75"/><text x="483.5" y="-144.8" font-family="Times,serif" font-size="14" text-anchor="middle">विशेषणम्</text></g><g id="node4" class="node"><title>Node4_2</title><ellipse cx="554" cy="-105" fill="#00bfff" stroke="#00bfff" rx="87.99" ry="18"/><text x="554" y="-101.3" font-family="Times,serif" font-size="14" text-anchor="middle">आत्मजः(4.2)</text></g><g id="edge6" class="edge"><title>Node4_2-&gt;Node3_1</title><path fill="none" stroke="#000" d="M547.21,-133.2C546.73,-135.83 546.31,-138.46 546,-141 544.66,-151.86 544.4,-164.14 544.48,-173.81"/><polygon fill="#000" stroke="#000" points="550.66 -133.83 549.3 -123.32 543.81 -132.38 550.66 -133.83"/><text x="603.5" y="-144.8" font-family="Times,serif" font-size="14" text-anchor="middle">विशेषणम्</text></g><g id="node5" class="node"><title>Node6_2</title><ellipse cx="729" cy="-105" fill="#00bfff" stroke="#00bfff" rx="69.59" ry="18"/><text x="729" y="-101.3" font-family="Times,serif" font-size="14" text-anchor="middle">वेगः(6.2)</text></g><g id="edge8" class="edge"><title>Node6_2-&gt;Node3_1</title><path fill="none" stroke="#000" d="M700.49,-128.47C685.79,-139.75 669.24,-151.88 661,-156 643.03,-164.98 622.33,-172.13 603.43,-177.57"/><polygon fill="#000" stroke="#000" points="702.64 -131.23 708.41 -122.34 698.36 -125.69 702.64 -131.23"/><text x="740.5" y="-144.8" font-family="Times,serif" font-size="14" text-anchor="middle">विशेषणम्</text></g><g id="node6" class="node"><title>Node8_2</title><ellipse cx="115" cy="-105" fill="#93db70" stroke="#93db70" rx="78.79" ry="18"/><text x="115" y="-101.3" font-family="Times,serif" font-size="14" text-anchor="middle">आलयम्(8.2)</text></g><g id="node7" class="node"><title>Node7_1</title><ellipse cx="123" cy="-192" fill="#93db70" stroke="#93db70" rx="106.68" ry="18"/><text x="123" y="-188.3" font-family="Times,serif" font-size="14" text-anchor="middle">समुद्रम्(7.1)</text></g><g id="edge11" class="edge"><title>Node8_2-&gt;Node7_1</title><path fill="none" stroke="#000" d="M117.57,-133.27C118.82,-146.58 120.29,-162.19 121.38,-173.82"/><polygon fill="#000" stroke="#000" points="121.04 -132.83 116.62 -123.2 114.07 -133.49 121.04 -132.83"/><text x="177.5" y="-144.8" font-family="Times,serif" font-size="14" text-anchor="middle">विशेषणम्</text></g><g id="edge9" class="edge"><title>Node7_1-&gt;Node5_1</title><path fill="none" stroke="#000" d="M178.18,-211.54C223.46,-226.75 286.85,-248.05 329.56,-262.4"/><polygon fill="#000" stroke="#000" points="179.12 -208.16 168.52 -208.29 176.89 -214.8 179.12 -208.16"/><text x="294" y="-231.8" font-family="Times,serif" font-size="14" text-anchor="middle">कर्म</text></g><g id="node8" class="node"><title>Node2_1</title><ellipse cx="351" cy="-18" fill="#ff0" stroke="#ff0" rx="81.49" ry="18"/><text x="351" y="-14.3" font-family="Times,serif" font-size="14" text-anchor="middle">पर्वत-(2.1)</text></g><g id="edge2" class="edge"><title>Node2_1-&gt;Node2_2</title><path fill="none" stroke="#000" d="M351,-46.27C351,-59.58 351,-75.19 351,-86.82"/><polygon fill="#000" stroke="#000" points="354.5 -46.2 351 -36.2 347.5 -46.2 354.5 -46.2"/><text x="415.5" y="-57.8" font-family="Times,serif" font-size="14" text-anchor="middle">तत्पुरुषः</text></g><g id="node10" class="node"><title>Node4_1</title><ellipse cx="542" cy="-18" fill="#ff0" stroke="#ff0" rx="81.49" ry="18"/><text x="542" y="-14.3" font-family="Times,serif" font-size="14" text-anchor="middle">मारुत-(4.1)</text></g><g id="edge5" class="edge"><title>Node4_1-&gt;Node4_2</title><path fill="none" stroke="#000" d="M541.15,-46.46C541.3,-53.82 541.81,-61.75 543,-69 543.97,-74.91 545.71,-81.2 547.52,-86.79"/><polygon fill="#000" stroke="#000" points="544.65 -46.23 541.14 -36.23 537.65 -46.24 544.65 -46.23"/><text x="646.5" y="-57.8" font-family="Times,serif" font-size="14" text-anchor="middle">षष्ठी_तत्पुरुषः</text></g><g id="node11" class="node"><title>Node6_1</title><ellipse cx="772" cy="-18" fill="#ff0" stroke="#ff0" rx="63.09" ry="18"/><text x="772" y="-14.3" font-family="Times,serif" font-size="14" text-anchor="middle">महा-(6.1)</text></g><g id="edge7" class="edge"><title>Node6_1-&gt;Node6_2</title><path fill="none" stroke="#000" d="M761.19,-45.24C757.81,-52.99 753.92,-61.42 750,-69 746.87,-75.04 743.14,-81.47 739.69,-87.15"/><polygon fill="#000" stroke="#000" points="764.47 -46.48 765.18 -35.91 758.03 -43.73 764.47 -46.48"/><text x="828.5" y="-57.8" font-family="Times,serif" font-size="14" text-anchor="middle">बहुव्रीहिः</text></g><g id="node12" class="node"><title>Node8_1</title><ellipse cx="115" cy="-18" fill="#ff0" stroke="#ff0" rx="63.09" ry="18"/><text x="115" y="-14.3" font-family="Times,serif" font-size="14" text-anchor="middle">मकर-(8.1)</text></g><g id="edge10" class="edge"><title>Node8_1-&gt;Node8_2</title><path fill="none" stroke="#000" d="M115,-46.27C115,-59.58 115,-75.19 115,-86.82"/><polygon fill="#000" stroke="#000" points="118.5 -46.2 115 -36.2 111.5 -46.2 118.5 -46.2"/><text x="218.5" y="-57.8" font-family="Times,serif" font-size="14" text-anchor="middle">षष्ठी_तत्पुरुषः</text></g></g></svg>