<?xml version="1.0" encoding="UTF-8" standalone="no"?>
<!DOCTYPE svg PUBLIC "-//W3C//DTD SVG 1.1//EN"
 "http://www.w3.org/Graphics/SVG/1.1/DTD/svg11.dtd">
<!-- Generated by graphviz version 2.43.0 (0)
 -->
<!-- Title: G Pages: 1 -->
<svg width="1534pt" height="305pt"
 viewBox="0.00 0.00 1533.99 305.00" xmlns="http://www.w3.org/2000/svg" xmlns:xlink="http://www.w3.org/1999/xlink">
<g id="graph0" class="graph" transform="scale(1 1) rotate(0) translate(4 301)">
<title>G</title>
<polygon fill="#fffacd" stroke="transparent" points="-4,4 -4,-301 1529.99,-301 1529.99,4 -4,4"/>
<g id="clust1" class="cluster">
<title>cluster_1</title>
<polygon fill="#fffacd" stroke="black" points="699.99,-79 699.99,-218 1048.99,-218 1048.99,-79 699.99,-79"/>
</g>
<!-- Node1_1 -->
<g id="node1" class="node">
<title>Node1_1</title>
<ellipse fill="#00bfff" stroke="#00bfff" cx="933.99" cy="-105" rx="106.68" ry="18"/>
<text text-anchor="middle" x="933.99" y="-101.3" font-family="Times,serif" font-size="14.00">सारवन्तः(1.1)</text>
</g>
<!-- Node4_1 -->
<g id="node2" class="node">
<title>Node4_1</title>
<ellipse fill="#00bfff" stroke="#00bfff" cx="805.99" cy="-192" rx="96.68" ry="18"/>
<text text-anchor="middle" x="805.99" y="-188.3" font-family="Times,serif" font-size="14.00">वृक्षाः(4.1)</text>
</g>
<!-- Node1_1&#45;&gt;Node4_1 -->
<g id="edge1" class="edge">
<title>Node1_1&#45;&gt;Node4_1</title>
<path fill="none" stroke="black" d="M922.64,-132.34C917.91,-140.84 911.7,-149.68 903.99,-156 892.47,-165.45 878.19,-172.44 864.14,-177.58"/>
<polygon fill="black" stroke="black" points="925.78,-133.88 927.19,-123.38 919.54,-130.71 925.78,-133.88"/>
<text text-anchor="middle" x="973.49" y="-144.8" font-family="Times,serif" font-size="14.00">विशेषणम्</text>
</g>
<!-- Node5_1 -->
<g id="node5" class="node">
<title>Node5_1</title>
<ellipse fill="#ff1975" stroke="#ff1975" cx="708.99" cy="-279" rx="115.88" ry="18"/>
<text text-anchor="middle" x="708.99" y="-275.3" font-family="Times,serif" font-size="14.00">न्यमज्जन्(5.1)</text>
</g>
<!-- Node4_1&#45;&gt;Node5_1 -->
<g id="edge4" class="edge">
<title>Node4_1&#45;&gt;Node5_1</title>
<path fill="none" stroke="black" d="M790.67,-218.61C784.87,-227.01 777.78,-235.98 769.99,-243 762.1,-250.11 752.53,-256.44 743.33,-261.68"/>
<polygon fill="black" stroke="black" points="793.65,-220.45 796.22,-210.17 787.8,-216.61 793.65,-220.45"/>
<text text-anchor="middle" x="818.99" y="-231.8" font-family="Times,serif" font-size="14.00">कर्ता</text>
</g>
<!-- Node3_1 -->
<g id="node3" class="node">
<title>Node3_1</title>
<ellipse fill="#00bfff" stroke="#00bfff" cx="758.99" cy="-105" rx="50.89" ry="18"/>
<text text-anchor="middle" x="758.99" y="-101.3" font-family="Times,serif" font-size="14.00">ये(3.1)</text>
</g>
<!-- Node3_1&#45;&gt;Node4_1 -->
<g id="edge3" class="edge">
<title>Node3_1&#45;&gt;Node4_1</title>
<path fill="none" stroke="black" d="M773.22,-131.74C780.79,-145.42 789.88,-161.86 796.57,-173.95"/>
<polygon fill="black" stroke="black" points="776.18,-129.85 768.28,-122.79 770.05,-133.24 776.18,-129.85"/>
<text text-anchor="middle" x="842.49" y="-144.8" font-family="Times,serif" font-size="14.00">विशेषणम्</text>
</g>
<!-- Node2_1 -->
<g id="node4" class="node">
<title>Node2_1</title>
<ellipse fill="#ff99ff" stroke="#ff99ff" cx="639.99" cy="-192" rx="50.89" ry="18"/>
<text text-anchor="middle" x="639.99" y="-188.3" font-family="Times,serif" font-size="14.00">अथ(2.1)</text>
</g>
<!-- Node2_1&#45;&gt;Node5_1 -->
<g id="edge2" class="edge">
<title>Node2_1&#45;&gt;Node5_1</title>
<path fill="none" stroke="black" d="M644.35,-219.85C646.59,-227.85 649.95,-236.27 654.99,-243 660.49,-250.33 668.01,-256.55 675.68,-261.63"/>
<polygon fill="black" stroke="black" points="647.76,-219.04 642.09,-210.09 640.94,-220.63 647.76,-219.04"/>
<text text-anchor="middle" x="712.49" y="-231.8" font-family="Times,serif" font-size="14.00">सम्बन्धः</text>
</g>
<!-- Node6_1 -->
<g id="node6" class="node">
<title>Node6_1</title>
<ellipse fill="#ffff00" stroke="#ffff00" cx="233.99" cy="-105" rx="63.09" ry="18"/>
<text text-anchor="middle" x="233.99" y="-101.3" font-family="Times,serif" font-size="14.00">लवण&#45;(6.1)</text>
</g>
<!-- Node6_2 -->
<g id="node7" class="node">
<title>Node6_2</title>
<ellipse fill="#c6e2eb" stroke="#c6e2eb" cx="289.99" cy="-192" rx="87.99" ry="18"/>
<text text-anchor="middle" x="289.99" y="-188.3" font-family="Times,serif" font-size="14.00">अम्भसि(6.2)</text>
</g>
<!-- Node6_1&#45;&gt;Node6_2 -->
<g id="edge5" class="edge">
<title>Node6_1&#45;&gt;Node6_2</title>
<path fill="none" stroke="black" d="M229.88,-133.38C229.92,-141.1 231.19,-149.24 234.99,-156 239.48,-163.99 246.64,-170.43 254.32,-175.5"/>
<polygon fill="black" stroke="black" points="233.38,-133.45 230.46,-123.26 226.39,-133.05 233.38,-133.45"/>
<text text-anchor="middle" x="299.49" y="-144.8" font-family="Times,serif" font-size="14.00">तत्पुरुषः</text>
</g>
<!-- Node6_2&#45;&gt;Node5_1 -->
<g id="edge6" class="edge">
<title>Node6_2&#45;&gt;Node5_1</title>
<path fill="none" stroke="black" d="M349.29,-209.67C387.99,-220.17 439.73,-233.49 485.99,-243 531.48,-252.35 582.64,-260.54 624.47,-266.65"/>
<polygon fill="black" stroke="black" points="349.8,-206.19 339.24,-206.93 347.96,-212.94 349.8,-206.19"/>
<text text-anchor="middle" x="564.49" y="-231.8" font-family="Times,serif" font-size="14.00">देशाधिकरणम्</text>
</g>
<!-- Node7_1 -->
<g id="node8" class="node">
<title>Node7_1</title>
<ellipse fill="#b4ffb4" stroke="#b4ffb4" cx="1237.99" cy="-192" rx="78.79" ry="18"/>
<text text-anchor="middle" x="1237.99" y="-188.3" font-family="Times,serif" font-size="14.00">भयात्(7.1)</text>
</g>
<!-- Node7_1&#45;&gt;Node5_1 -->
<g id="edge7" class="edge">
<title>Node7_1&#45;&gt;Node5_1</title>
<path fill="none" stroke="black" d="M1165.54,-204.64C1066.13,-220.62 888.2,-249.2 786.31,-265.58"/>
<polygon fill="black" stroke="black" points="1166.18,-208.08 1175.49,-203.04 1165.07,-201.17 1166.18,-208.08"/>
<text text-anchor="middle" x="1062.49" y="-231.8" font-family="Times,serif" font-size="14.00">अपादानम्</text>
</g>
<!-- Node8_1 -->
<g id="node9" class="node">
<title>Node8_1</title>
<ellipse fill="#ff99ff" stroke="#ff99ff" cx="485.99" cy="-105" rx="50.89" ry="18"/>
<text text-anchor="middle" x="485.99" y="-101.3" font-family="Times,serif" font-size="14.00">इव(8.1)</text>
</g>
<!-- Node8_1&#45;&gt;Node4_1 -->
<g id="edge8" class="edge">
<title>Node8_1&#45;&gt;Node4_1</title>
<path fill="none" stroke="black" d="M526.08,-123.56C538.57,-129.09 552.38,-135.25 564.99,-141 579.29,-147.51 582,-151.33 596.99,-156 603.72,-158.1 677.29,-170.23 735.27,-179.62"/>
<polygon fill="black" stroke="black" points="527.39,-120.31 516.83,-119.48 524.56,-126.72 527.39,-120.31"/>
<text text-anchor="middle" x="685.99" y="-144.8" font-family="Times,serif" font-size="14.00">उपमान_द्योतकः</text>
</g>
<!-- Node8_1&#45;&gt;Node6_2 -->
<g id="edge9" class="edge">
<title>Node8_1&#45;&gt;Node6_2</title>
<path fill="none" stroke="black" stroke-dasharray="1,5" d="M438.46,-120.24C421.82,-125.89 403.25,-132.97 386.99,-141 376.05,-146.41 374.64,-150.04 363.99,-156 351.71,-162.87 337.86,-169.66 325.5,-175.4"/>
<polygon fill="black" stroke="black" points="439.6,-123.55 447.99,-117.09 437.4,-116.91 439.6,-123.55"/>
<text text-anchor="middle" x="475.99" y="-144.8" font-family="Times,serif" font-size="14.00">उपमान_द्योतकः</text>
</g>
<!-- Node9_1 -->
<g id="node10" class="node">
<title>Node9_1</title>
<ellipse fill="#ffff00" stroke="#ffff00" cx="1396.99" cy="-18" rx="63.09" ry="18"/>
<text text-anchor="middle" x="1396.99" y="-14.3" font-family="Times,serif" font-size="14.00">महा&#45;(9.1)</text>
</g>
<!-- Node9_2 -->
<g id="node11" class="node">
<title>Node9_2</title>
<ellipse fill="#87ceeb" stroke="#87ceeb" cx="1396.99" cy="-105" rx="115.88" ry="18"/>
<text text-anchor="middle" x="1396.99" y="-101.3" font-family="Times,serif" font-size="14.00">इन्द्रस्य(9.2)</text>
</g>
<!-- Node9_1&#45;&gt;Node9_2 -->
<g id="edge10" class="edge">
<title>Node9_1&#45;&gt;Node9_2</title>
<path fill="none" stroke="black" d="M1396.99,-46.27C1396.99,-59.58 1396.99,-75.19 1396.99,-86.82"/>
<polygon fill="black" stroke="black" points="1400.49,-46.2 1396.99,-36.2 1393.49,-46.2 1400.49,-46.2"/>
<text text-anchor="middle" x="1461.49" y="-57.8" font-family="Times,serif" font-size="14.00">कर्मधारयः</text>
</g>
<!-- Node9_2&#45;&gt;Node7_1 -->
<g id="edge11" class="edge">
<title>Node9_2&#45;&gt;Node7_1</title>
<path fill="none" stroke="black" d="M1357.25,-127.24C1329.39,-142.14 1292.76,-161.72 1267.48,-175.24"/>
<polygon fill="black" stroke="black" points="1359.17,-130.19 1366.34,-122.39 1355.87,-124.02 1359.17,-130.19"/>
<text text-anchor="middle" x="1419.99" y="-144.8" font-family="Times,serif" font-size="14.00">षष्ठीसम्बन्धः</text>
</g>
<!-- Node10_1 -->
<g id="node12" class="node">
<title>Node10_1</title>
<ellipse fill="#00bfff" stroke="#00bfff" cx="1160.99" cy="-105" rx="102.88" ry="18"/>
<text text-anchor="middle" x="1160.99" y="-101.3" font-family="Times,serif" font-size="14.00">पर्वताः(10.1)</text>
</g>
<!-- Node10_1&#45;&gt;Node4_1 -->
<g id="edge12" class="edge">
<title>Node10_1&#45;&gt;Node4_1</title>
<path fill="none" stroke="black" d="M1117.21,-126.21C1093.35,-136.49 1063.04,-148.4 1034.99,-156 987.64,-168.84 933.41,-177.39 889.61,-182.82"/>
<polygon fill="black" stroke="black" points="1118.92,-129.28 1126.68,-122.07 1116.12,-122.87 1118.92,-129.28"/>
<text text-anchor="middle" x="1126.99" y="-144.8" font-family="Times,serif" font-size="14.00">उपमानम्</text>
</g>
<!-- Node11_1 -->
<g id="node13" class="node">
<title>Node11_1</title>
<ellipse fill="#ffff00" stroke="#ffff00" cx="77.99" cy="-18" rx="77.99" ry="18"/>
<text text-anchor="middle" x="77.99" y="-14.3" font-family="Times,serif" font-size="14.00">वरुण&#45;(11.1)</text>
</g>
<!-- Node11_2 -->
<g id="node14" class="node">
<title>Node11_2</title>
<ellipse fill="#c6e2eb" stroke="#c6e2eb" cx="77.99" cy="-105" rx="75.29" ry="18"/>
<text text-anchor="middle" x="77.99" y="-101.3" font-family="Times,serif" font-size="14.00">आलये(11.2)</text>
</g>
<!-- Node11_1&#45;&gt;Node11_2 -->
<g id="edge13" class="edge">
<title>Node11_1&#45;&gt;Node11_2</title>
<path fill="none" stroke="black" d="M77.99,-46.27C77.99,-59.58 77.99,-75.19 77.99,-86.82"/>
<polygon fill="black" stroke="black" points="81.49,-46.2 77.99,-36.2 74.49,-46.2 81.49,-46.2"/>
<text text-anchor="middle" x="181.49" y="-57.8" font-family="Times,serif" font-size="14.00">षष्ठी_तत्पुरुषः</text>
</g>
<!-- Node11_2&#45;&gt;Node6_2 -->
<g id="edge14" class="edge">
<title>Node11_2&#45;&gt;Node6_2</title>
<path fill="none" stroke="black" d="M96.95,-130.79C105.22,-140.01 115.63,-149.74 126.99,-156 152.85,-170.24 183.98,-178.69 212.08,-183.71"/>
<polygon fill="black" stroke="black" points="99.41,-128.27 90.26,-122.92 94.07,-132.8 99.41,-128.27"/>
<text text-anchor="middle" x="176.99" y="-144.8" font-family="Times,serif" font-size="14.00">उपमानम्</text>
</g>
</g>
</svg>
