<svg xmlns="http://www.w3.org/2000/svg" xmlns:xlink="http://www.w3.org/1999/xlink" width="1368" height="660" viewBox="0 0 1026 495"><g id="graph0" class="graph" transform="scale(1 1) rotate(0) translate(4 491)"><title>G</title><polygon fill="#fffacd" stroke="transparent" points="-4 4 -4 -491 1022 -491 1022 4 -4 4"/><g id="clust1" class="cluster"><title>cluster_1</title><polygon fill="#fffacd" stroke="#000" points="569 -269 569 -408 1010 -408 1010 -269 569 -269"/></g><g id="clust2" class="cluster"><title>cluster_2</title><polygon fill="#fffacd" stroke="#000" points="8 -8 8 -147 218 -147 218 -8 8 -8"/></g><g id="clust3" class="cluster"><title>cluster_3</title><polygon fill="#fffacd" stroke="#000" points="11 -182 11 -321 215 -321 215 -182 11 -182"/></g><g id="node1" class="node"><title>Node5_1</title><ellipse cx="905" cy="-295" fill="#00bfff" stroke="#00bfff" rx="96.68" ry="18"/><text x="905" y="-291.3" font-family="Times,serif" font-size="14" text-anchor="middle">विशालाः(5.1)</text></g><g id="node2" class="node"><title>Node3_1</title><ellipse cx="656" cy="-382" fill="#93db70" stroke="#93db70" rx="78.79" ry="18"/><text x="656" y="-378.3" font-family="Times,serif" font-size="14" text-anchor="middle">शिलाः(3.1)</text></g><g id="edge4" class="edge"><title>Node5_1-&gt;Node3_1</title><path fill="none" stroke="#000" d="M863.06,-316.32C841.79,-326.12 815.37,-337.56 791,-346 764.92,-355.04 735.3,-362.96 710.46,-368.98"/><polygon fill="#000" stroke="#000" points="864.55 -319.48 872.14 -312.08 861.59 -313.14 864.55 -319.48"/><text x="886.5" y="-334.8" font-family="Times,serif" font-size="14" text-anchor="middle">विशेषणम्</text></g><g id="node8" class="node"><title>Node1_1</title><ellipse cx="389" cy="-469" fill="#ff1975" stroke="#ff1975" rx="78.79" ry="18"/><text x="389" y="-465.3" font-family="Times,serif" font-size="14" text-anchor="middle">मुमोच(1.1)</text></g><g id="edge2" class="edge"><title>Node3_1-&gt;Node1_1</title><path fill="none" stroke="#000" d="M602.29,-400.1C552.58,-415.92 479.56,-439.17 433.16,-453.94"/><polygon fill="#000" stroke="#000" points="603.44 -403.4 611.91 -397.04 601.32 -396.73 603.44 -403.4"/><text x="568" y="-421.8" font-family="Times,serif" font-size="14" text-anchor="middle">कर्म</text></g><g id="node3" class="node"><title>Node6_2</title><ellipse cx="684" cy="-295" fill="#93db70" stroke="#93db70" rx="106.68" ry="18"/><text x="684" y="-291.3" font-family="Times,serif" font-size="14" text-anchor="middle">मनःशिलाः(6.2)</text></g><g id="edge6" class="edge"><title>Node6_2-&gt;Node3_1</title><path fill="none" stroke="#000" d="M675.15,-322.87C670.73,-336.27 665.53,-352.08 661.66,-363.82"/><polygon fill="#000" stroke="#000" points="678.53 -323.79 678.33 -313.2 671.88 -321.6 678.53 -323.79"/><text x="729.5" y="-334.8" font-family="Times,serif" font-size="14" text-anchor="middle">विशेषणम्</text></g><g id="node4" class="node"><title>Node8_1</title><ellipse cx="113" cy="-34" fill="#40e0d0" stroke="#40e0d0" rx="96.68" ry="18"/><text x="113" y="-30.3" font-family="Times,serif" font-size="14" text-anchor="middle">मध्यमेन(8.1)</text></g><g id="node5" class="node"><title>Node9_1</title><ellipse cx="113" cy="-121" fill="#40e0d0" stroke="#40e0d0" rx="96.68" ry="18"/><text x="113" y="-117.3" font-family="Times,serif" font-size="14" text-anchor="middle">अर्चिषा(9.1)</text></g><g id="edge7" class="edge"><title>Node8_1-&gt;Node9_1</title><path fill="none" stroke="#000" d="M113,-62.27C113,-75.58 113,-91.19 113,-102.82"/><polygon fill="#000" stroke="#000" points="116.5 -62.2 113 -52.2 109.5 -62.2 116.5 -62.2"/><text x="170.5" y="-73.8" font-family="Times,serif" font-size="14" text-anchor="middle">विशेषणम्</text></g><g id="node6" class="node"><title>Node10_1</title><ellipse cx="113" cy="-208" fill="#00bfff" stroke="#00bfff" rx="93.68" ry="18"/><text x="113" y="-204.3" font-family="Times,serif" font-size="14" text-anchor="middle">जुष्टः(10.1)</text></g><g id="edge8" class="edge"><title>Node9_1-&gt;Node10_1</title><path fill="none" stroke="#000" d="M113,-149.27C113,-162.58 113,-178.19 113,-189.82"/><polygon fill="#000" stroke="#000" points="116.5 -149.2 113 -139.2 109.5 -149.2 116.5 -149.2"/><text x="170.5" y="-160.8" font-family="Times,serif" font-size="14" text-anchor="middle">सम्बन्धः</text></g><g id="node7" class="node"><title>Node13_1</title><ellipse cx="132" cy="-295" fill="#00bfff" stroke="#00bfff" rx="75.29" ry="18"/><text x="132" y="-291.3" font-family="Times,serif" font-size="14" text-anchor="middle">अनलः(13.1)</text></g><g id="edge9" class="edge"><title>Node10_1-&gt;Node13_1</title><path fill="none" stroke="#000" d="M73.69,-231.14C64.47,-239.25 58.9,-248.93 65,-259 70.51,-268.09 79.24,-274.93 88.6,-280.04"/><polygon fill="#000" stroke="#000" points="75.9 -233.86 81.71 -224.99 71.64 -228.3 75.9 -233.86"/><text x="122.5" y="-247.8" font-family="Times,serif" font-size="14" text-anchor="middle">विशेषणम्</text></g><g id="node10" class="node"><title>Node4_1</title><ellipse cx="384" cy="-382" fill="#00bfff" stroke="#00bfff" rx="69.59" ry="18"/><text x="384" y="-378.3" font-family="Times,serif" font-size="14" text-anchor="middle">शैलः(4.1)</text></g><g id="edge14" class="edge"><title>Node13_1-&gt;Node4_1</title><path fill="none" stroke="#000" d="M183.34,-313.32C230.54,-329.24 299.61,-352.53 343.16,-367.23"/><polygon fill="#000" stroke="#000" points="184.21 -309.92 173.61 -310.04 181.97 -316.55 184.21 -309.92"/><text x="324" y="-334.8" font-family="Times,serif" font-size="14" text-anchor="middle">उपमानम्</text></g><g id="node9" class="node"><title>Node2_1</title><ellipse cx="251" cy="-382" fill="#f9f" stroke="#f9f" rx="41.69" ry="18"/><text x="251" y="-378.3" font-family="Times,serif" font-size="14" text-anchor="middle">च(2.1)</text></g><g id="edge1" class="edge"><title>Node2_1-&gt;Node1_1</title><path fill="none" stroke="#000" d="M255.22,-410.25C257.71,-418.5 261.68,-426.97 268,-433 282.23,-446.59 301.42,-454.95 320.31,-460.08"/><polygon fill="#000" stroke="#000" points="258.6 -409.36 252.85 -400.46 251.8 -411.01 258.6 -409.36"/><text x="325.5" y="-421.8" font-family="Times,serif" font-size="14" text-anchor="middle">सम्बन्धः</text></g><g id="edge3" class="edge"><title>Node4_1-&gt;Node1_1</title><path fill="none" stroke="#000" d="M385.6,-410.27C386.39,-423.58 387.31,-439.19 387.99,-450.82"/><polygon fill="#000" stroke="#000" points="389.09 -409.98 385.01 -400.2 382.11 -410.39 389.09 -409.98"/><text x="423" y="-421.8" font-family="Times,serif" font-size="14" text-anchor="middle">कर्ता</text></g><g id="node11" class="node"><title>Node6_1</title><ellipse cx="756" cy="-208" fill="#ff0" stroke="#ff0" rx="44.39" ry="18"/><text x="756" y="-204.3" font-family="Times,serif" font-size="14" text-anchor="middle">स-(6.1)</text></g><g id="edge5" class="edge"><title>Node6_1-&gt;Node6_2</title><path fill="none" stroke="#000" d="M747.5,-235.49C744.11,-243.57 739.65,-252.12 734,-259 728.22,-266.04 720.68,-272.3 713.21,-277.51"/><polygon fill="#000" stroke="#000" points="750.82 -236.61 751.11 -226.02 744.28 -234.12 750.82 -236.61"/><text x="813.5" y="-247.8" font-family="Times,serif" font-size="14" text-anchor="middle">बहुव्रीहिः</text></g><g id="node12" class="node"><title>Node11_1</title><ellipse cx="604" cy="-208" fill="#ff0" stroke="#ff0" rx="68.79" ry="18"/><text x="604" y="-204.3" font-family="Times,serif" font-size="14" text-anchor="middle">धूम-(11.1)</text></g><g id="node13" class="node"><title>Node11_2</title><ellipse cx="475" cy="-295" fill="#93db70" stroke="#93db70" rx="84.49" ry="18"/><text x="475" y="-291.3" font-family="Times,serif" font-size="14" text-anchor="middle">राजीः(11.2)</text></g><g id="edge10" class="edge"><title>Node11_1-&gt;Node11_2</title><path fill="none" stroke="#000" d="M596.9,-235.93C593.56,-244.27 588.77,-252.87 582,-259 573.56,-266.64 550.65,-274.58 528.18,-280.96"/><polygon fill="#000" stroke="#000" points="600.23 -237.02 600.19 -226.43 593.61 -234.73 600.23 -237.02"/><text x="657.5" y="-247.8" font-family="Times,serif" font-size="14" text-anchor="middle">कर्मधारयः</text></g><g id="edge11" class="edge"><title>Node11_2-&gt;Node3_1</title><path fill="none" stroke="#000" d="M510.35,-317.15C526.71,-326.53 546.55,-337.38 565,-346 580.95,-353.45 598.96,-360.63 614.72,-366.52"/><polygon fill="#000" stroke="#000" points="512.07 -314.09 501.66 -312.1 508.56 -320.15 512.07 -314.09"/><text x="615" y="-334.8" font-family="Times,serif" font-size="14" text-anchor="middle">उपमानम्</text></g><g id="node14" class="node"><title>Node12_1</title><ellipse cx="342" cy="-208" fill="#f9f" stroke="#f9f" rx="56.59" ry="18"/><text x="342" y="-204.3" font-family="Times,serif" font-size="14" text-anchor="middle">इव(12.1)</text></g><g id="edge13" class="edge"><title>Node12_1-&gt;Node13_1</title><path fill="none" stroke="#000" stroke-dasharray="1 5" d="M280.8,-217.5C254.36,-222.76 223.67,-231.07 198,-244 188.7,-248.68 188.21,-252.6 180,-259 172.03,-265.22 163.13,-271.8 155.18,-277.56"/><polygon fill="#000" stroke="#000" points="281.53 -220.92 290.71 -215.63 280.23 -214.04 281.53 -220.92"/><text x="287" y="-247.8" font-family="Times,serif" font-size="14" text-anchor="middle">उपमान_द्योतकः</text></g><g id="edge12" class="edge"><title>Node12_1-&gt;Node11_2</title><path fill="none" stroke="#000" d="M366.29,-232.57C376.25,-241.51 388.2,-251.37 400,-259 411.58,-266.49 425.03,-273.29 437.3,-278.85"/><polygon fill="#000" stroke="#000" points="368.5 -229.84 358.77 -225.65 363.76 -235 368.5 -229.84"/><text x="489" y="-247.8" font-family="Times,serif" font-size="14" text-anchor="middle">उपमान_द्योतकः</text></g></g></svg>