<svg xmlns="http://www.w3.org/2000/svg" xmlns:xlink="http://www.w3.org/1999/xlink" width="1970pt" height="479pt" viewBox="0 0 1969.69 479"><g id="graph0" class="graph" transform="scale(1 1) rotate(0) translate(4 475)"><title>G</title><polygon fill="#fffacd" stroke="transparent" points="-4 4 -4 -475 1965.69 -475 1965.69 4 -4 4"/><g id="clust1" class="cluster"><title>cluster_1</title><polygon fill="#fffacd" stroke="#000" points="8 -166 8 -305 256 -305 256 -166 8 -166"/></g><g id="clust2" class="cluster"><title>cluster_2</title><polygon fill="#fffacd" stroke="#000" points="529 -253 529 -392 1008 -392 1008 -253 529 -253"/></g><g id="clust3" class="cluster"><title>cluster_3</title><polygon fill="#fffacd" stroke="#000" points="486 -79 486 -218 726 -218 726 -79 486 -79"/></g><g id="clust4" class="cluster"><title>cluster_4</title><polygon fill="#fffacd" stroke="#000" points="1016 -253 1016 -392 1200 -392 1200 -253 1016 -253"/></g><g id="node1" class="node"><title>Node2_1</title><ellipse cx="132" cy="-192" fill="#93db70" stroke="#93db70" rx="78.79" ry="18"/><text x="132" y="-188.3" font-family="Times,serif" font-size="14" text-anchor="middle">दृढम्(2.1)</text></g><g id="node2" class="node"><title>Node3_1</title><ellipse cx="132" cy="-279" fill="#00bfff" stroke="#00bfff" rx="115.88" ry="18"/><text x="132" y="-275.3" font-family="Times,serif" font-size="14" text-anchor="middle">अवस्थानम्(3.1)</text></g><g id="edge2" class="edge"><title>Node2_1-&gt;Node3_1</title><path fill="none" stroke="#000" d="M132,-220.27C132,-233.58 132,-249.19 132,-260.82"/><polygon fill="#000" stroke="#000" points="135.5 -220.2 132 -210.2 128.5 -220.2 135.5 -220.2"/><text x="189.5" y="-231.8" font-family="Times,serif" font-size="14" text-anchor="middle">विशेषणम्</text></g><g id="node12" class="node"><title>Node4_1</title><ellipse cx="357" cy="-366" fill="#f9f" stroke="#f9f" rx="87.99" ry="18"/><text x="357" y="-362.3" font-family="Times,serif" font-size="14" text-anchor="middle">कृत्वा(4.1)</text></g><g id="edge3" class="edge"><title>Node3_1-&gt;Node4_1</title><path fill="none" stroke="#000" d="M183.23,-299.36C223.79,-314.67 279.62,-335.77 316.94,-349.87"/><polygon fill="#000" stroke="#000" points="184.39 -296.05 173.79 -295.79 181.91 -302.6 184.39 -296.05"/><text x="287" y="-318.8" font-family="Times,serif" font-size="14" text-anchor="middle">कर्म</text></g><g id="node3" class="node"><title>Node5_1</title><ellipse cx="949" cy="-279" fill="#00bfff" stroke="#00bfff" rx="50.89" ry="18"/><text x="949" y="-275.3" font-family="Times,serif" font-size="14" text-anchor="middle">सः(5.1)</text></g><g id="node4" class="node"><title>Node9_1</title><ellipse cx="816" cy="-366" fill="#00bfff" stroke="#00bfff" rx="96.68" ry="18"/><text x="816" y="-362.3" font-family="Times,serif" font-size="14" text-anchor="middle">हनुमान्(9.1)</text></g><g id="edge5" class="edge"><title>Node5_1-&gt;Node9_1</title><path fill="none" stroke="#000" d="M916.82,-300.57C893.86,-315.24 863.38,-334.72 841.97,-348.41"/><polygon fill="#000" stroke="#000" points="918.99 -303.33 925.53 -295 915.22 -297.44 918.99 -303.33"/><text x="947.5" y="-318.8" font-family="Times,serif" font-size="14" text-anchor="middle">विशेषणम्</text></g><g id="node13" class="node"><title>Node16_1</title><ellipse cx="1217" cy="-453" fill="#ff1975" stroke="#ff1975" rx="112.38" ry="18"/><text x="1217" y="-449.3" font-family="Times,serif" font-size="14" text-anchor="middle">अब्रवीत्(16.1)</text></g><g id="edge10" class="edge"><title>Node9_1-&gt;Node16_1</title><path fill="none" stroke="#000" d="M887.18,-382.09C962.22,-397.99 1079.4,-422.83 1152.01,-438.22"/><polygon fill="#000" stroke="#000" points="887.85 -378.65 877.34 -380 886.4 -385.5 887.85 -378.65"/><text x="1076" y="-405.8" font-family="Times,serif" font-size="14" text-anchor="middle">कर्ता</text></g><g id="node5" class="node"><title>Node6_2</title><ellipse cx="783" cy="-279" fill="#00bfff" stroke="#00bfff" rx="96.68" ry="18"/><text x="783" y="-275.3" font-family="Times,serif" font-size="14" text-anchor="middle">कुञ्जरः(6.2)</text></g><g id="edge7" class="edge"><title>Node6_2-&gt;Node9_1</title><path fill="none" stroke="#000" d="M752.56,-304.38C746.19,-312.4 742.79,-321.45 748,-330 753.19,-338.5 761.17,-345.03 769.87,-350"/><polygon fill="#000" stroke="#000" points="755.42 -306.45 759.71 -296.77 750.31 -301.66 755.42 -306.45"/><text x="805.5" y="-318.8" font-family="Times,serif" font-size="14" text-anchor="middle">विशेषणम्</text></g><g id="node6" class="node"><title>Node11_2</title><ellipse cx="603" cy="-279" fill="#00bfff" stroke="#00bfff" rx="65.79" ry="18"/><text x="603" y="-275.3" font-family="Times,serif" font-size="14" text-anchor="middle">बलः(11.2)</text></g><g id="edge13" class="edge"><title>Node11_2-&gt;Node9_1</title><path fill="none" stroke="#000" d="M610.05,-307.12C613.53,-315.62 618.63,-324.27 626,-330 642.68,-342.97 688.97,-351.65 731.68,-357.12"/><polygon fill="#000" stroke="#000" points="613.26 -305.69 606.66 -297.4 606.65 -308 613.26 -305.69"/><text x="683.5" y="-318.8" font-family="Times,serif" font-size="14" text-anchor="middle">विशेषणम्</text></g><g id="node7" class="node"><title>Node13_2</title><ellipse cx="606" cy="-105" fill="#00bfff" stroke="#00bfff" rx="112.38" ry="18"/><text x="606" y="-101.3" font-family="Times,serif" font-size="14" text-anchor="middle">श्रेष्ठः(13.2)</text></g><g id="node8" class="node"><title>Node11_1</title><ellipse cx="603" cy="-192" fill="#ff0" stroke="#ff0" rx="68.79" ry="18"/><text x="603" y="-188.3" font-family="Times,serif" font-size="14" text-anchor="middle">महा-(11.1)</text></g><g id="edge16" class="edge"><title>Node13_2-&gt;Node11_1</title><path fill="none" stroke="#000" d="M605.04,-133.27C604.57,-146.58 604.02,-162.19 603.61,-173.82"/><polygon fill="#000" stroke="#000" points="608.54 -133.32 605.39 -123.2 601.54 -133.07 608.54 -133.32"/><text x="661.5" y="-144.8" font-family="Times,serif" font-size="14" text-anchor="middle">विशेषणम्</text></g><g id="edge12" class="edge"><title>Node11_1-&gt;Node11_2</title><path fill="none" stroke="#000" d="M603,-220.27C603,-233.58 603,-249.19 603,-260.82"/><polygon fill="#000" stroke="#000" points="606.5 -220.2 603 -210.2 599.5 -220.2 606.5 -220.2"/><text x="674.5" y="-231.8" font-family="Times,serif" font-size="14" text-anchor="middle">बहुव्रीहिः</text></g><g id="node9" class="node"><title>Node14_1</title><ellipse cx="1099" cy="-279" fill="#93db70" stroke="#93db70" rx="75.29" ry="18"/><text x="1099" y="-275.3" font-family="Times,serif" font-size="14" text-anchor="middle">इदम्(14.1)</text></g><g id="node10" class="node"><title>Node15_1</title><ellipse cx="1108" cy="-366" fill="#93db70" stroke="#93db70" rx="84.49" ry="18"/><text x="1108" y="-362.3" font-family="Times,serif" font-size="14" text-anchor="middle">वचनम्(15.1)</text></g><g id="edge17" class="edge"><title>Node14_1-&gt;Node15_1</title><path fill="none" stroke="#000" d="M1101.89,-307.27C1103.3,-320.58 1104.95,-336.19 1106.18,-347.82"/><polygon fill="#000" stroke="#000" points="1105.35 -306.78 1100.82 -297.2 1098.39 -307.51 1105.35 -306.78"/><text x="1161.5" y="-318.8" font-family="Times,serif" font-size="14" text-anchor="middle">विशेषणम्</text></g><g id="edge18" class="edge"><title>Node15_1-&gt;Node16_1</title><path fill="none" stroke="#000" d="M1137.3,-389.85C1155.61,-404.12 1178.77,-422.19 1195.41,-435.16"/><polygon fill="#000" stroke="#000" points="1139.31 -386.98 1129.28 -383.59 1135.01 -392.5 1139.31 -386.98"/><text x="1198" y="-405.8" font-family="Times,serif" font-size="14" text-anchor="middle">कर्म</text></g><g id="node11" class="node"><title>Node1_1</title><ellipse cx="371" cy="-192" fill="#40e0d0" stroke="#40e0d0" rx="106.68" ry="18"/><text x="371" y="-188.3" font-family="Times,serif" font-size="14" text-anchor="middle">पद्भयाम्(1.1)</text></g><g id="edge1" class="edge"><title>Node1_1-&gt;Node3_1</title><path fill="none" stroke="#000" d="M326.19,-213.03C303.82,-222.68 276.22,-234.07 251,-243 230.4,-250.3 207.42,-257.31 187.2,-263.12"/><polygon fill="#000" stroke="#000" points="327.65 -216.21 335.43 -209.02 324.86 -209.79 327.65 -216.21"/><text x="324" y="-231.8" font-family="Times,serif" font-size="14" text-anchor="middle">करणम्</text></g><g id="edge4" class="edge"><title>Node4_1-&gt;Node16_1</title><path fill="none" stroke="#000" d="M433.46,-379.39C462.12,-383.76 495,-388.47 525,-392 734.44,-416.64 980.65,-435.61 1115.66,-445.17"/><polygon fill="#000" stroke="#000" points="433.92 -375.92 423.51 -377.85 432.86 -382.84 433.92 -375.92"/><text x="816.5" y="-405.8" font-family="Times,serif" font-size="14" text-anchor="middle">पूर्वकालः</text></g><g id="node14" class="node"><title>Node6_1</title><ellipse cx="797" cy="-192" fill="#ff0" stroke="#ff0" rx="63.09" ry="18"/><text x="797" y="-188.3" font-family="Times,serif" font-size="14" text-anchor="middle">कपि-(6.1)</text></g><g id="edge6" class="edge"><title>Node6_1-&gt;Node6_2</title><path fill="none" stroke="#000" d="M792.51,-220.27C790.32,-233.58 787.74,-249.19 785.83,-260.82"/><polygon fill="#000" stroke="#000" points="796 -220.64 794.17 -210.2 789.09 -219.5 796 -220.64"/><text x="900.5" y="-231.8" font-family="Times,serif" font-size="14" text-anchor="middle">सप्तमी_तत्पुरुषः</text></g><g id="node15" class="node"><title>Node7_1</title><ellipse cx="1326" cy="-366" fill="#f9f" stroke="#f9f" rx="115.88" ry="18"/><text x="1326" y="-362.3" font-family="Times,serif" font-size="14" text-anchor="middle">निकुञ्च्य(7.1)</text></g><g id="edge8" class="edge"><title>Node7_1-&gt;Node16_1</title><path fill="none" stroke="#000" d="M1296.43,-390.06C1278.13,-404.33 1255.05,-422.33 1238.49,-435.24"/><polygon fill="#000" stroke="#000" points="1298.73 -392.7 1304.47 -383.79 1294.43 -387.18 1298.73 -392.7"/><text x="1342.5" y="-405.8" font-family="Times,serif" font-size="14" text-anchor="middle">पूर्वकालः</text></g><g id="node16" class="node"><title>Node8_1</title><ellipse cx="1326" cy="-279" fill="#00bfff" stroke="#00bfff" rx="78.79" ry="18"/><text x="1326" y="-275.3" font-family="Times,serif" font-size="14" text-anchor="middle">कर्णौ(8.1)</text></g><g id="edge9" class="edge"><title>Node8_1-&gt;Node7_1</title><path fill="none" stroke="#000" d="M1326,-307.27C1326,-320.58 1326,-336.19 1326,-347.82"/><polygon fill="#000" stroke="#000" points="1329.5 -307.2 1326 -297.2 1322.5 -307.2 1329.5 -307.2"/><text x="1355" y="-318.8" font-family="Times,serif" font-size="14" text-anchor="middle">कर्म</text></g><g id="node17" class="node"><title>Node10_1</title><ellipse cx="1599" cy="-366" fill="#00bfff" stroke="#00bfff" rx="139.98" ry="18"/><text x="1599" y="-362.3" font-family="Times,serif" font-size="14" text-anchor="middle">उत्पतिष्यन्(10.1)</text></g><g id="edge11" class="edge"><title>Node10_1-&gt;Node16_1</title><path fill="none" stroke="#000" d="M1535.05,-385.39C1498.83,-395.46 1452.58,-407.74 1411,-417 1372.42,-425.6 1329.16,-433.56 1293.3,-439.71"/><polygon fill="#000" stroke="#000" points="1536.3 -388.68 1544.99 -382.62 1534.42 -381.94 1536.3 -388.68"/><text x="1575" y="-405.8" font-family="Times,serif" font-size="14" text-anchor="middle">वर्तमानसमानकालः</text></g><g id="node18" class="node"><title>Node12_1</title><ellipse cx="1859" cy="-366" fill="#93db70" stroke="#93db70" rx="102.88" ry="18"/><text x="1859" y="-362.3" font-family="Times,serif" font-size="14" text-anchor="middle">वानरान्(12.1)</text></g><g id="edge14" class="edge"><title>Node12_1-&gt;Node16_1</title><path fill="none" stroke="#000" d="M1805.47,-385.58C1771.63,-396.55 1726.75,-409.67 1686,-417 1564.86,-438.78 1423.75,-447.05 1328.21,-450.16"/><polygon fill="#000" stroke="#000" points="1806.74 -388.85 1815.15 -382.41 1804.56 -382.2 1806.74 -388.85"/><text x="1798" y="-405.8" font-family="Times,serif" font-size="14" text-anchor="middle">गौणकर्म</text></g><g id="node19" class="node"><title>Node13_1</title><ellipse cx="606" cy="-18" fill="#ff0" stroke="#ff0" rx="77.99" ry="18"/><text x="606" y="-14.3" font-family="Times,serif" font-size="14" text-anchor="middle">वानर-(13.1)</text></g><g id="edge15" class="edge"><title>Node13_1-&gt;Node13_2</title><path fill="none" stroke="#000" d="M606,-46.27C606,-59.58 606,-75.19 606,-86.82"/><polygon fill="#000" stroke="#000" points="609.5 -46.2 606 -36.2 602.5 -46.2 609.5 -46.2"/><text x="716.5" y="-57.8" font-family="Times,serif" font-size="14" text-anchor="middle">सप्तमी_तत्पुरुषः</text></g></g></svg>