<svg xmlns="http://www.w3.org/2000/svg" xmlns:xlink="http://www.w3.org/1999/xlink" width="884pt" height="392pt" viewBox="0 0 883.84 392"><g id="graph0" class="graph" transform="scale(1 1) rotate(0) translate(4 388)"><title>G</title><polygon fill="#fffacd" stroke="transparent" points="-4 4 -4 -388 879.84 -388 879.84 4 -4 4"/><g id="clust1" class="cluster"><title>cluster_1</title><polygon fill="#fffacd" stroke="#000" points="203.84 -166 203.84 -305 838.84 -305 838.84 -166 203.84 -166"/></g><g id="node1" class="node"><title>Node1_3</title><ellipse cx="548.84" cy="-192" fill="#00bfff" stroke="#00bfff" rx="124.58" ry="18"/><text x="548.84" y="-188.3" font-family="Times,serif" font-size="14" text-anchor="middle">विस्तीर्णा(1.3)</text></g><g id="node2" class="node"><title>Node4_1</title><ellipse cx="313.84" cy="-279" fill="#00bfff" stroke="#00bfff" rx="69.59" ry="18"/><text x="313.84" y="-275.3" font-family="Times,serif" font-size="14" text-anchor="middle">छाया(4.1)</text></g><g id="edge3" class="edge"><title>Node1_3-&gt;Node4_1</title><path fill="none" stroke="#000" d="M503.36,-213.43C481.36,-222.97 454.45,-234.14 429.84,-243 406.98,-251.23 381.14,-259.15 359.65,-265.38"/><polygon fill="#000" stroke="#000" points="505.01 -216.53 512.77 -209.32 502.21 -210.11 505.01 -216.53"/><text x="523.34" y="-231.8" font-family="Times,serif" font-size="14" text-anchor="middle">विशेषणम्</text></g><g id="node9" class="node"><title>Node8_1</title><ellipse cx="223.84" cy="-366" fill="#ff1975" stroke="#ff1975" rx="78.79" ry="18"/><text x="223.84" y="-362.3" font-family="Times,serif" font-size="14" text-anchor="middle">अभवत्(8.1)</text></g><g id="edge7" class="edge"><title>Node4_1-&gt;Node8_1</title><path fill="none" stroke="#000" d="M305.88,-306.97C302.52,-315.07 297.94,-323.52 291.84,-330 283.93,-338.41 273.54,-345.15 263.27,-350.38"/><polygon fill="#000" stroke="#000" points="309.23 -308.01 309.39 -297.41 302.66 -305.59 309.23 -308.01"/><text x="337.84" y="-318.8" font-family="Times,serif" font-size="14" text-anchor="middle">कर्ता</text></g><g id="node3" class="node"><title>Node3_1</title><ellipse cx="760.84" cy="-192" fill="#40e0d0" stroke="#40e0d0" rx="69.59" ry="18"/><text x="760.84" y="-188.3" font-family="Times,serif" font-size="14" text-anchor="middle">आयता(3.1)</text></g><g id="edge6" class="edge"><title>Node3_1-&gt;Node4_1</title><path fill="none" stroke="#000" d="M709.72,-209.7C674.86,-220.54 627.46,-234.24 584.84,-243 515.02,-257.34 433.81,-266.91 378.62,-272.36"/><polygon fill="#000" stroke="#000" points="711.17 -212.91 719.66 -206.57 709.08 -206.23 711.17 -212.91"/><text x="700.34" y="-231.8" font-family="Times,serif" font-size="14" text-anchor="middle">विशेषणम्</text></g><g id="node4" class="node"><title>Node7_1</title><ellipse cx="308.84" cy="-192" fill="#00bfff" stroke="#00bfff" rx="96.68" ry="18"/><text x="308.84" y="-188.3" font-family="Times,serif" font-size="14" text-anchor="middle">चारुतरा(7.1)</text></g><g id="edge11" class="edge"><title>Node7_1-&gt;Node4_1</title><path fill="none" stroke="#000" d="M310.45,-220.27C311.23,-233.58 312.15,-249.19 312.83,-260.82"/><polygon fill="#000" stroke="#000" points="313.93 -219.98 309.85 -210.2 306.95 -220.39 313.93 -219.98"/><text x="368.34" y="-231.8" font-family="Times,serif" font-size="14" text-anchor="middle">विशेषणम्</text></g><g id="node5" class="node"><title>Node1_1</title><ellipse cx="548.84" cy="-18" fill="#ff0" stroke="#ff0" rx="53.89" ry="18"/><text x="548.84" y="-14.3" font-family="Times,serif" font-size="14" text-anchor="middle">दश-(1.1)</text></g><g id="node6" class="node"><title>Node1_2</title><ellipse cx="548.84" cy="-105" fill="#ff0" stroke="#ff0" rx="72.29" ry="18"/><text x="548.84" y="-101.3" font-family="Times,serif" font-size="14" text-anchor="middle">योजन-(1.2)</text></g><g id="edge1" class="edge"><title>Node1_1-&gt;Node1_2</title><path fill="none" stroke="#000" d="M548.84,-46.27C548.84,-59.58 548.84,-75.19 548.84,-86.82"/><polygon fill="#000" stroke="#000" points="552.34 -46.2 548.84 -36.2 545.34 -46.2 552.34 -46.2"/><text x="598.84" y="-57.8" font-family="Times,serif" font-size="14" text-anchor="middle">द्विगुः</text></g><g id="edge2" class="edge"><title>Node1_2-&gt;Node1_3</title><path fill="none" stroke="#000" d="M548.84,-133.27C548.84,-146.58 548.84,-162.19 548.84,-173.82"/><polygon fill="#000" stroke="#000" points="552.34 -133.2 548.84 -123.2 545.34 -133.2 552.34 -133.2"/><text x="620.34" y="-144.8" font-family="Times,serif" font-size="14" text-anchor="middle">बहुव्रीहिः</text></g><g id="node7" class="node"><title>Node2_1</title><ellipse cx="760.84" cy="-18" fill="#ff0" stroke="#ff0" rx="109.38" ry="18"/><text x="760.84" y="-14.3" font-family="Times,serif" font-size="14" text-anchor="middle">त्रिंशत्-(2.1)</text></g><g id="node8" class="node"><title>Node2_2</title><ellipse cx="760.84" cy="-105" fill="#00bfff" stroke="#00bfff" rx="87.99" ry="18"/><text x="760.84" y="-101.3" font-family="Times,serif" font-size="14" text-anchor="middle">योजनम्(2.2)</text></g><g id="edge4" class="edge"><title>Node2_1-&gt;Node2_2</title><path fill="none" stroke="#000" d="M760.84,-46.27C760.84,-59.58 760.84,-75.19 760.84,-86.82"/><polygon fill="#000" stroke="#000" points="764.34 -46.2 760.84 -36.2 757.34 -46.2 764.34 -46.2"/><text x="810.84" y="-57.8" font-family="Times,serif" font-size="14" text-anchor="middle">द्विगुः</text></g><g id="edge5" class="edge"><title>Node2_2-&gt;Node3_1</title><path fill="none" stroke="#000" d="M760.84,-133.27C760.84,-146.58 760.84,-162.19 760.84,-173.82"/><polygon fill="#000" stroke="#000" points="764.34 -133.2 760.84 -123.2 757.34 -133.2 764.34 -133.2"/><text x="818.34" y="-144.8" font-family="Times,serif" font-size="14" text-anchor="middle">सम्बन्धः</text></g><g id="node10" class="node"><title>Node5_1</title><ellipse cx="96.84" cy="-105" fill="#ff0" stroke="#ff0" rx="72.29" ry="18"/><text x="96.84" y="-101.3" font-family="Times,serif" font-size="14" text-anchor="middle">वानर-(5.1)</text></g><g id="node11" class="node"><title>Node5_2</title><ellipse cx="96.84" cy="-192" fill="#87ceeb" stroke="#87ceeb" rx="96.68" ry="18"/><text x="96.84" y="-188.3" font-family="Times,serif" font-size="14" text-anchor="middle">सिंहस्य(5.2)</text></g><g id="edge8" class="edge"><title>Node5_1-&gt;Node5_2</title><path fill="none" stroke="#000" d="M96.84,-133.27C96.84,-146.58 96.84,-162.19 96.84,-173.82"/><polygon fill="#000" stroke="#000" points="100.34 -133.2 96.84 -123.2 93.34 -133.2 100.34 -133.2"/><text x="207.34" y="-144.8" font-family="Times,serif" font-size="14" text-anchor="middle">सप्तमी_तत्पुरुषः</text></g><g id="edge9" class="edge"><title>Node5_2-&gt;Node4_1</title><path fill="none" stroke="#000" d="M104.32,-219.88C107.97,-228.47 113.27,-237.23 120.84,-243 126.3,-247.16 201.46,-259.97 256.34,-268.88"/><polygon fill="#000" stroke="#000" points="107.58 -218.61 100.85 -210.43 101.01 -221.02 107.58 -218.61"/><text x="213.84" y="-231.8" font-family="Times,serif" font-size="14" text-anchor="middle">षष्ठीसम्बन्धः</text></g><g id="node12" class="node"><title>Node6_1</title><ellipse cx="133.84" cy="-279" fill="#c6e2eb" stroke="#c6e2eb" rx="59.59" ry="18"/><text x="133.84" y="-275.3" font-family="Times,serif" font-size="14" text-anchor="middle">जले(6.1)</text></g><g id="edge10" class="edge"><title>Node6_1-&gt;Node8_1</title><path fill="none" stroke="#000" d="M126.11,-307.23C125.4,-315.15 126.3,-323.44 130.84,-330 138.7,-341.35 150.72,-349.02 163.55,-354.21"/><polygon fill="#000" stroke="#000" points="129.6 -307.63 127.81 -297.19 122.69 -306.46 129.6 -307.63"/><text x="209.34" y="-318.8" font-family="Times,serif" font-size="14" text-anchor="middle">देशाधिकरणम्</text></g></g></svg>