<?xml version="1.0" encoding="UTF-8" standalone="no"?>
<!DOCTYPE svg PUBLIC "-//W3C//DTD SVG 1.1//EN"
 "http://www.w3.org/Graphics/SVG/1.1/DTD/svg11.dtd">
<!-- Generated by graphviz version 2.43.0 (0)
 -->
<!-- Title: G Pages: 1 -->
<svg width="985pt" height="321pt"
 viewBox="0.00 0.00 984.54 321.00" xmlns="http://www.w3.org/2000/svg" xmlns:xlink="http://www.w3.org/1999/xlink">
<g id="graph0" class="graph" transform="scale(1 1) rotate(0) translate(4 317)">
<title>G</title>
<polygon fill="#fffacd" stroke="transparent" points="-4,4 -4,-317 980.54,-317 980.54,4 -4,4"/>
<g id="clust1" class="cluster">
<title>cluster_1</title>
<polygon fill="#fffacd" stroke="black" points="148.54,-95 148.54,-234 340.54,-234 340.54,-95 148.54,-95"/>
</g>
<g id="clust2" class="cluster">
<title>cluster_2</title>
<polygon fill="#fffacd" stroke="black" points="450.54,-8 450.54,-147 624.54,-147 624.54,-8 450.54,-8"/>
</g>
<!-- Node2_2 -->
<g id="node1" class="node">
<title>Node2_2</title>
<ellipse fill="#40e0d0" stroke="#40e0d0" cx="235.54" cy="-121" rx="78.79" ry="18"/>
<text text-anchor="middle" x="235.54" y="-117.3" font-family="Times,serif" font-size="14.00">नाथेन(2.2)</text>
</g>
<!-- Node3_1 -->
<g id="node2" class="node">
<title>Node3_1</title>
<ellipse fill="#40e0d0" stroke="#40e0d0" cx="244.54" cy="-208" rx="87.99" ry="18"/>
<text text-anchor="middle" x="244.54" y="-204.3" font-family="Times,serif" font-size="14.00">सागरेण(3.1)</text>
</g>
<!-- Node2_2&#45;&gt;Node3_1 -->
<g id="edge3" class="edge">
<title>Node2_2&#45;&gt;Node3_1</title>
<path fill="none" stroke="black" d="M238.43,-149.27C239.84,-162.58 241.49,-178.19 242.73,-189.82"/>
<polygon fill="black" stroke="black" points="241.9,-148.78 237.37,-139.2 234.94,-149.51 241.9,-148.78"/>
<text text-anchor="middle" x="299.04" y="-160.8" font-family="Times,serif" font-size="14.00">विशेषणम्</text>
</g>
<!-- Node4_1 -->
<g id="node6" class="node">
<title>Node4_1</title>
<ellipse fill="#00bfff" stroke="#00bfff" cx="133.54" cy="-295" rx="115.88" ry="18"/>
<text text-anchor="middle" x="133.54" y="-291.3" font-family="Times,serif" font-size="14.00">विवर्धितः(4.1)</text>
</g>
<!-- Node3_1&#45;&gt;Node4_1 -->
<g id="edge4" class="edge">
<title>Node3_1&#45;&gt;Node4_1</title>
<path fill="none" stroke="black" d="M214.7,-231.85C196.06,-246.12 172.47,-264.19 155.53,-277.16"/>
<polygon fill="black" stroke="black" points="217.07,-234.45 222.88,-225.59 212.81,-228.89 217.07,-234.45"/>
<text text-anchor="middle" x="232.54" y="-247.8" font-family="Times,serif" font-size="14.00">कर्ता</text>
</g>
<!-- Node7_1 -->
<g id="node3" class="node">
<title>Node7_1</title>
<ellipse fill="#93db70" stroke="#93db70" cx="528.54" cy="-34" rx="69.59" ry="18"/>
<text text-anchor="middle" x="528.54" y="-30.3" font-family="Times,serif" font-size="14.00">अयम्(7.1)</text>
</g>
<!-- Node5_2 -->
<g id="node4" class="node">
<title>Node5_2</title>
<ellipse fill="#00bfff" stroke="#00bfff" cx="537.54" cy="-121" rx="78.79" ry="18"/>
<text text-anchor="middle" x="537.54" y="-117.3" font-family="Times,serif" font-size="14.00">सचिवः(5.2)</text>
</g>
<!-- Node7_1&#45;&gt;Node5_2 -->
<g id="edge8" class="edge">
<title>Node7_1&#45;&gt;Node5_2</title>
<path fill="none" stroke="black" d="M531.43,-62.27C532.84,-75.58 534.49,-91.19 535.73,-102.82"/>
<polygon fill="black" stroke="black" points="534.9,-61.78 530.37,-52.2 527.94,-62.51 534.9,-61.78"/>
<text text-anchor="middle" x="591.04" y="-73.8" font-family="Times,serif" font-size="14.00">विशेषणम्</text>
</g>
<!-- Node9_1 -->
<g id="node9" class="node">
<title>Node9_1</title>
<ellipse fill="#ff99ff" stroke="#ff99ff" cx="537.54" cy="-208" rx="124.58" ry="18"/>
<text text-anchor="middle" x="537.54" y="-204.3" font-family="Times,serif" font-size="14.00">अवसीदितुम्(9.1)</text>
</g>
<!-- Node5_2&#45;&gt;Node9_1 -->
<g id="edge6" class="edge">
<title>Node5_2&#45;&gt;Node9_1</title>
<path fill="none" stroke="black" d="M537.54,-149.27C537.54,-162.58 537.54,-178.19 537.54,-189.82"/>
<polygon fill="black" stroke="black" points="541.04,-149.2 537.54,-139.2 534.04,-149.2 541.04,-149.2"/>
<text text-anchor="middle" x="566.54" y="-160.8" font-family="Times,serif" font-size="14.00">कर्म</text>
</g>
<!-- Node1_1 -->
<g id="node5" class="node">
<title>Node1_1</title>
<ellipse fill="#00bfff" stroke="#00bfff" cx="69.54" cy="-208" rx="69.59" ry="18"/>
<text text-anchor="middle" x="69.54" y="-204.3" font-family="Times,serif" font-size="14.00">अहम्(1.1)</text>
</g>
<!-- Node1_1&#45;&gt;Node4_1 -->
<g id="edge1" class="edge">
<title>Node1_1&#45;&gt;Node4_1</title>
<path fill="none" stroke="black" d="M88.33,-233.95C98.75,-247.78 111.43,-264.63 120.71,-276.95"/>
<polygon fill="black" stroke="black" points="91,-231.68 82.19,-225.79 85.41,-235.89 91,-231.68"/>
<text text-anchor="middle" x="134.54" y="-247.8" font-family="Times,serif" font-size="14.00">कर्म</text>
</g>
<!-- Node2_1 -->
<g id="node7" class="node">
<title>Node2_1</title>
<ellipse fill="#ffff00" stroke="#ffff00" cx="235.54" cy="-34" rx="118.08" ry="18"/>
<text text-anchor="middle" x="235.54" y="-30.3" font-family="Times,serif" font-size="14.00">इक्ष्वाकु&#45;(2.1)</text>
</g>
<!-- Node2_1&#45;&gt;Node2_2 -->
<g id="edge2" class="edge">
<title>Node2_1&#45;&gt;Node2_2</title>
<path fill="none" stroke="black" d="M235.54,-62.27C235.54,-75.58 235.54,-91.19 235.54,-102.82"/>
<polygon fill="black" stroke="black" points="239.04,-62.2 235.54,-52.2 232.04,-62.2 239.04,-62.2"/>
<text text-anchor="middle" x="339.04" y="-73.8" font-family="Times,serif" font-size="14.00">षष्ठी_तत्पुरुषः</text>
</g>
<!-- Node5_1 -->
<g id="node8" class="node">
<title>Node5_1</title>
<ellipse fill="#ffff00" stroke="#ffff00" cx="750.54" cy="-34" rx="118.08" ry="18"/>
<text text-anchor="middle" x="750.54" y="-30.3" font-family="Times,serif" font-size="14.00">इक्ष्वाकु&#45;(5.1)</text>
</g>
<!-- Node5_1&#45;&gt;Node5_2 -->
<g id="edge5" class="edge">
<title>Node5_1&#45;&gt;Node5_2</title>
<path fill="none" stroke="black" d="M712.62,-56.32C694.74,-65.86 672.91,-76.78 652.54,-85 631.55,-93.47 607.69,-101.05 587.17,-106.97"/>
<polygon fill="black" stroke="black" points="714.45,-59.32 721.59,-51.48 711.12,-53.16 714.45,-59.32"/>
<text text-anchor="middle" x="789.04" y="-73.8" font-family="Times,serif" font-size="14.00">षष्ठी_तत्पुरुषः</text>
</g>
<!-- Node10_1 -->
<g id="node11" class="node">
<title>Node10_1</title>
<ellipse fill="#ff1975" stroke="#ff1975" cx="721.54" cy="-295" rx="93.68" ry="18"/>
<text text-anchor="middle" x="721.54" y="-291.3" font-family="Times,serif" font-size="14.00">अर्हति(10.1)</text>
</g>
<!-- Node9_1&#45;&gt;Node10_1 -->
<g id="edge10" class="edge">
<title>Node9_1&#45;&gt;Node10_1</title>
<path fill="none" stroke="black" d="M557.72,-233.63C566.36,-242.78 577.09,-252.49 588.54,-259 607.85,-269.96 630.69,-277.58 651.93,-282.84"/>
<polygon fill="black" stroke="black" points="560.29,-231.25 550.99,-226.17 555.09,-235.94 560.29,-231.25"/>
<text text-anchor="middle" x="653.04" y="-247.8" font-family="Times,serif" font-size="14.00">प्रयोजनम्</text>
</g>
<!-- Node6_1 -->
<g id="node10" class="node">
<title>Node6_1</title>
<ellipse fill="#ff99ff" stroke="#ff99ff" cx="721.54" cy="-208" rx="41.69" ry="18"/>
<text text-anchor="middle" x="721.54" y="-204.3" font-family="Times,serif" font-size="14.00">च(6.1)</text>
</g>
<!-- Node6_1&#45;&gt;Node10_1 -->
<g id="edge7" class="edge">
<title>Node6_1&#45;&gt;Node10_1</title>
<path fill="none" stroke="black" d="M721.54,-236.27C721.54,-249.58 721.54,-265.19 721.54,-276.82"/>
<polygon fill="black" stroke="black" points="725.04,-236.2 721.54,-226.2 718.04,-236.2 725.04,-236.2"/>
<text text-anchor="middle" x="779.04" y="-247.8" font-family="Times,serif" font-size="14.00">सम्बन्धः</text>
</g>
<!-- Node8_1 -->
<g id="node12" class="node">
<title>Node8_1</title>
<ellipse fill="#ff99ff" stroke="#ff99ff" cx="859.54" cy="-208" rx="41.69" ry="18"/>
<text text-anchor="middle" x="859.54" y="-204.3" font-family="Times,serif" font-size="14.00">न(8.1)</text>
</g>
<!-- Node8_1&#45;&gt;Node10_1 -->
<g id="edge9" class="edge">
<title>Node8_1&#45;&gt;Node10_1</title>
<path fill="none" stroke="black" d="M852.67,-235.65C849.33,-244.11 844.48,-252.85 837.54,-259 824.79,-270.29 808.49,-277.95 792.17,-283.13"/>
<polygon fill="black" stroke="black" points="856.04,-236.62 855.94,-226.02 849.41,-234.37 856.04,-236.62"/>
<text text-anchor="middle" x="912.04" y="-247.8" font-family="Times,serif" font-size="14.00">प्रतिषेधः</text>
</g>
</g>
</svg>
