<?xml version="1.0" encoding="UTF-8" standalone="no"?>
<!DOCTYPE svg PUBLIC "-//W3C//DTD SVG 1.1//EN"
 "http://www.w3.org/Graphics/SVG/1.1/DTD/svg11.dtd">
<!-- Generated by graphviz version 2.43.0 (0)
 -->
<!-- Title: G Pages: 1 -->
<svg width="955pt" height="479pt"
 viewBox="0.00 0.00 955.00 479.00" xmlns="http://www.w3.org/2000/svg" xmlns:xlink="http://www.w3.org/1999/xlink">
<g id="graph0" class="graph" transform="scale(1 1) rotate(0) translate(4 475)">
<title>G</title>
<polygon fill="#fffacd" stroke="transparent" points="-4,4 -4,-475 951,-475 951,4 -4,4"/>
<g id="clust1" class="cluster">
<title>cluster_1</title>
<polygon fill="#fffacd" stroke="black" points="616,-166 616,-305 864,-305 864,-166 616,-166"/>
</g>
<g id="clust2" class="cluster">
<title>cluster_2</title>
<polygon fill="#fffacd" stroke="black" points="8,-253 8,-392 182,-392 182,-253 8,-253"/>
</g>
<!-- Node3_3 -->
<g id="node1" class="node">
<title>Node3_3</title>
<ellipse fill="#00bfff" stroke="#00bfff" cx="740" cy="-192" rx="115.88" ry="18"/>
<text text-anchor="middle" x="740" y="-188.3" font-family="Times,serif" font-size="14.00">अनुगामिनी(3.3)</text>
</g>
<!-- Node5_1 -->
<g id="node2" class="node">
<title>Node5_1</title>
<ellipse fill="#00bfff" stroke="#00bfff" cx="707" cy="-279" rx="50.89" ry="18"/>
<text text-anchor="middle" x="707" y="-275.3" font-family="Times,serif" font-size="14.00">सा(5.1)</text>
</g>
<!-- Node3_3&#45;&gt;Node5_1 -->
<g id="edge8" class="edge">
<title>Node3_3&#45;&gt;Node5_1</title>
<path fill="none" stroke="black" d="M729.7,-219.54C724.42,-233.12 718.16,-249.24 713.56,-261.11"/>
<polygon fill="black" stroke="black" points="732.97,-220.79 733.32,-210.2 726.44,-218.26 732.97,-220.79"/>
<text text-anchor="middle" x="782.5" y="-231.8" font-family="Times,serif" font-size="14.00">विशेषणम्</text>
</g>
<!-- Node7_1 -->
<g id="node3" class="node">
<title>Node7_1</title>
<ellipse fill="#00bfff" stroke="#00bfff" cx="104" cy="-366" rx="69.59" ry="18"/>
<text text-anchor="middle" x="104" y="-362.3" font-family="Times,serif" font-size="14.00">छाया(7.1)</text>
</g>
<!-- Node5_1&#45;&gt;Node7_1 -->
<g id="edge10" class="edge">
<title>Node5_1&#45;&gt;Node7_1</title>
<path fill="none" stroke="black" d="M666.11,-297.01C637.04,-308.33 596.77,-322.46 560,-330 425.05,-357.67 263.57,-363.91 173.5,-365.06"/>
<polygon fill="black" stroke="black" points="667.51,-300.22 675.52,-293.29 664.94,-293.71 667.51,-300.22"/>
<text text-anchor="middle" x="670.5" y="-318.8" font-family="Times,serif" font-size="14.00">विशेषणम्</text>
</g>
<!-- Node6_1 -->
<g id="node13" class="node">
<title>Node6_1</title>
<ellipse fill="#ff1975" stroke="#ff1975" cx="104" cy="-453" rx="87.99" ry="18"/>
<text text-anchor="middle" x="104" y="-449.3" font-family="Times,serif" font-size="14.00">शुशुभे(6.1)</text>
</g>
<!-- Node7_1&#45;&gt;Node6_1 -->
<g id="edge11" class="edge">
<title>Node7_1&#45;&gt;Node6_1</title>
<path fill="none" stroke="black" d="M104,-394.27C104,-407.58 104,-423.19 104,-434.82"/>
<polygon fill="black" stroke="black" points="107.5,-394.2 104,-384.2 100.5,-394.2 107.5,-394.2"/>
<text text-anchor="middle" x="140" y="-405.8" font-family="Times,serif" font-size="14.00">कर्ता</text>
</g>
<!-- Node8_1 -->
<g id="node4" class="node">
<title>Node8_1</title>
<ellipse fill="#00bfff" stroke="#00bfff" cx="95" cy="-279" rx="78.79" ry="18"/>
<text text-anchor="middle" x="95" y="-275.3" font-family="Times,serif" font-size="14.00">वितता(8.1)</text>
</g>
<!-- Node8_1&#45;&gt;Node7_1 -->
<g id="edge12" class="edge">
<title>Node8_1&#45;&gt;Node7_1</title>
<path fill="none" stroke="black" d="M91.16,-307.2C90.71,-314.63 90.78,-322.65 92,-330 92.99,-335.96 94.87,-342.26 96.86,-347.85"/>
<polygon fill="black" stroke="black" points="94.64,-307.5 92.07,-297.22 87.67,-306.86 94.64,-307.5"/>
<text text-anchor="middle" x="149.5" y="-318.8" font-family="Times,serif" font-size="14.00">विशेषणम्</text>
</g>
<!-- Node1_1 -->
<g id="node5" class="node">
<title>Node1_1</title>
<ellipse fill="#ffff00" stroke="#ffff00" cx="98" cy="-18" rx="81.49" ry="18"/>
<text text-anchor="middle" x="98" y="-14.3" font-family="Times,serif" font-size="14.00">श्वेत&#45;(1.1)</text>
</g>
<!-- Node1_2 -->
<g id="node6" class="node">
<title>Node1_2</title>
<ellipse fill="#ffff00" stroke="#ffff00" cx="98" cy="-105" rx="72.29" ry="18"/>
<text text-anchor="middle" x="98" y="-101.3" font-family="Times,serif" font-size="14.00">अभ्र&#45;(1.2)</text>
</g>
<!-- Node1_1&#45;&gt;Node1_2 -->
<g id="edge1" class="edge">
<title>Node1_1&#45;&gt;Node1_2</title>
<path fill="none" stroke="black" d="M98,-46.27C98,-59.58 98,-75.19 98,-86.82"/>
<polygon fill="black" stroke="black" points="101.5,-46.2 98,-36.2 94.5,-46.2 101.5,-46.2"/>
<text text-anchor="middle" x="162.5" y="-57.8" font-family="Times,serif" font-size="14.00">कर्मधारयः</text>
</g>
<!-- Node1_3 -->
<g id="node7" class="node">
<title>Node1_3</title>
<ellipse fill="#ffff00" stroke="#ffff00" cx="98" cy="-192" rx="53.89" ry="18"/>
<text text-anchor="middle" x="98" y="-188.3" font-family="Times,serif" font-size="14.00">घन&#45;(1.3)</text>
</g>
<!-- Node1_2&#45;&gt;Node1_3 -->
<g id="edge2" class="edge">
<title>Node1_2&#45;&gt;Node1_3</title>
<path fill="none" stroke="black" d="M98,-133.27C98,-146.58 98,-162.19 98,-173.82"/>
<polygon fill="black" stroke="black" points="101.5,-133.2 98,-123.2 94.5,-133.2 101.5,-133.2"/>
<text text-anchor="middle" x="162.5" y="-144.8" font-family="Times,serif" font-size="14.00">कर्मधारयः</text>
</g>
<!-- Node1_4 -->
<g id="node8" class="node">
<title>Node1_4</title>
<ellipse fill="#00bfff" stroke="#00bfff" cx="261" cy="-279" rx="69.59" ry="18"/>
<text text-anchor="middle" x="261" y="-275.3" font-family="Times,serif" font-size="14.00">राजी(1.4)</text>
</g>
<!-- Node1_3&#45;&gt;Node1_4 -->
<g id="edge3" class="edge">
<title>Node1_3&#45;&gt;Node1_4</title>
<path fill="none" stroke="black" d="M102.12,-220.17C104.73,-228.67 109.01,-237.3 116,-243 128.18,-252.92 170.71,-249.39 186,-253 198.16,-255.87 211.15,-259.86 222.84,-263.81"/>
<polygon fill="black" stroke="black" points="105.51,-219.32 99.74,-210.44 98.71,-220.98 105.51,-219.32"/>
<text text-anchor="middle" x="180.5" y="-231.8" font-family="Times,serif" font-size="14.00">कर्मधारयः</text>
</g>
<!-- Node1_4&#45;&gt;Node7_1 -->
<g id="edge4" class="edge">
<title>Node1_4&#45;&gt;Node7_1</title>
<path fill="none" stroke="black" d="M239.16,-304.18C229.95,-313.26 218.66,-323.05 207,-330 190.37,-339.91 170.54,-347.49 152.75,-353.03"/>
<polygon fill="black" stroke="black" points="241.88,-306.4 246.37,-296.8 236.88,-301.5 241.88,-306.4"/>
<text text-anchor="middle" x="276" y="-318.8" font-family="Times,serif" font-size="14.00">उपमानम्</text>
</g>
<!-- Node2_1 -->
<g id="node9" class="node">
<title>Node2_1</title>
<ellipse fill="#ff99ff" stroke="#ff99ff" cx="250" cy="-192" rx="50.89" ry="18"/>
<text text-anchor="middle" x="250" y="-188.3" font-family="Times,serif" font-size="14.00">इव(2.1)</text>
</g>
<!-- Node2_1&#45;&gt;Node1_4 -->
<g id="edge5" class="edge">
<title>Node2_1&#45;&gt;Node1_4</title>
<path fill="none" stroke="black" d="M249.28,-220.44C249.43,-227.8 249.91,-235.73 251,-243 251.88,-248.87 253.47,-255.15 255.12,-260.75"/>
<polygon fill="black" stroke="black" points="252.78,-220.21 249.25,-210.22 245.78,-220.22 252.78,-220.21"/>
<text text-anchor="middle" x="340" y="-231.8" font-family="Times,serif" font-size="14.00">उपमान_द्योतकः</text>
</g>
<!-- Node3_1 -->
<g id="node10" class="node">
<title>Node3_1</title>
<ellipse fill="#ffff00" stroke="#ffff00" cx="740" cy="-18" rx="72.29" ry="18"/>
<text text-anchor="middle" x="740" y="-14.3" font-family="Times,serif" font-size="14.00">वायु&#45;(3.1)</text>
</g>
<!-- Node3_2 -->
<g id="node11" class="node">
<title>Node3_2</title>
<ellipse fill="#ffff00" stroke="#ffff00" cx="740" cy="-105" rx="81.49" ry="18"/>
<text text-anchor="middle" x="740" y="-101.3" font-family="Times,serif" font-size="14.00">पुत्र&#45;(3.2)</text>
</g>
<!-- Node3_1&#45;&gt;Node3_2 -->
<g id="edge6" class="edge">
<title>Node3_1&#45;&gt;Node3_2</title>
<path fill="none" stroke="black" d="M740,-46.27C740,-59.58 740,-75.19 740,-86.82"/>
<polygon fill="black" stroke="black" points="743.5,-46.2 740,-36.2 736.5,-46.2 743.5,-46.2"/>
<text text-anchor="middle" x="843.5" y="-57.8" font-family="Times,serif" font-size="14.00">षष्ठी_तत्पुरुषः</text>
</g>
<!-- Node3_2&#45;&gt;Node3_3 -->
<g id="edge7" class="edge">
<title>Node3_2&#45;&gt;Node3_3</title>
<path fill="none" stroke="black" d="M740,-133.27C740,-146.58 740,-162.19 740,-173.82"/>
<polygon fill="black" stroke="black" points="743.5,-133.2 740,-123.2 736.5,-133.2 743.5,-133.2"/>
<text text-anchor="middle" x="804.5" y="-144.8" font-family="Times,serif" font-size="14.00">तत्पुरुषः</text>
</g>
<!-- Node4_1 -->
<g id="node12" class="node">
<title>Node4_1</title>
<ellipse fill="#87ceeb" stroke="#87ceeb" cx="440" cy="-279" rx="69.59" ry="18"/>
<text text-anchor="middle" x="440" y="-275.3" font-family="Times,serif" font-size="14.00">तस्य(4.1)</text>
</g>
<!-- Node4_1&#45;&gt;Node7_1 -->
<g id="edge9" class="edge">
<title>Node4_1&#45;&gt;Node7_1</title>
<path fill="none" stroke="black" d="M402.31,-300.23C381.52,-310.59 354.93,-322.56 330,-330 277.12,-345.79 215.03,-354.75 169.33,-359.64"/>
<polygon fill="black" stroke="black" points="404.09,-303.25 411.43,-295.61 400.92,-297.01 404.09,-303.25"/>
<text text-anchor="middle" x="463" y="-318.8" font-family="Times,serif" font-size="14.00">षष्ठीसम्बन्धः</text>
</g>
<!-- Node9_1 -->
<g id="node14" class="node">
<title>Node9_1</title>
<ellipse fill="#ffff00" stroke="#ffff00" cx="451" cy="-105" rx="63.09" ry="18"/>
<text text-anchor="middle" x="451" y="-101.3" font-family="Times,serif" font-size="14.00">लवण&#45;(9.1)</text>
</g>
<!-- Node9_2 -->
<g id="node15" class="node">
<title>Node9_2</title>
<ellipse fill="#c6e2eb" stroke="#c6e2eb" cx="451" cy="-192" rx="87.99" ry="18"/>
<text text-anchor="middle" x="451" y="-188.3" font-family="Times,serif" font-size="14.00">अम्भसि(9.2)</text>
</g>
<!-- Node9_1&#45;&gt;Node9_2 -->
<g id="edge13" class="edge">
<title>Node9_1&#45;&gt;Node9_2</title>
<path fill="none" stroke="black" d="M451,-133.27C451,-146.58 451,-162.19 451,-173.82"/>
<polygon fill="black" stroke="black" points="454.5,-133.2 451,-123.2 447.5,-133.2 454.5,-133.2"/>
<text text-anchor="middle" x="554.5" y="-144.8" font-family="Times,serif" font-size="14.00">षष्ठी_तत्पुरुषः</text>
</g>
<!-- Node9_2&#45;&gt;Node4_1 -->
<g id="edge14" class="edge">
<title>Node9_2&#45;&gt;Node4_1</title>
<path fill="none" stroke="black" d="M447.47,-220.27C445.75,-233.58 443.73,-249.19 442.22,-260.82"/>
<polygon fill="black" stroke="black" points="450.96,-220.57 448.77,-210.2 444.02,-219.67 450.96,-220.57"/>
<text text-anchor="middle" x="524.5" y="-231.8" font-family="Times,serif" font-size="14.00">देशाधिकरणम्</text>
</g>
</g>
</svg>
