<?xml version="1.0" encoding="UTF-8" standalone="no"?>
<!DOCTYPE svg PUBLIC "-//W3C//DTD SVG 1.1//EN"
 "http://www.w3.org/Graphics/SVG/1.1/DTD/svg11.dtd">
<!-- Generated by graphviz version 2.43.0 (0)
 -->
<!-- Title: G Pages: 1 -->
<svg width="1258pt" height="305pt"
 viewBox="0.00 0.00 1258.00 305.00" xmlns="http://www.w3.org/2000/svg" xmlns:xlink="http://www.w3.org/1999/xlink">
<g id="graph0" class="graph" transform="scale(1 1) rotate(0) translate(4 301)">
<title>G</title>
<polygon fill="#fffacd" stroke="transparent" points="-4,4 -4,-301 1254,-301 1254,4 -4,4"/>
<g id="clust1" class="cluster">
<title>cluster_1</title>
<polygon fill="#fffacd" stroke="black" points="729,-79 729,-218 959,-218 959,-79 729,-79"/>
</g>
<g id="clust2" class="cluster">
<title>cluster_2</title>
<polygon fill="#fffacd" stroke="black" points="8,-79 8,-218 505,-218 505,-79 8,-79"/>
</g>
<!-- Node2_2 -->
<g id="node1" class="node">
<title>Node2_2</title>
<ellipse fill="#ffff00" stroke="#ffff00" cx="844" cy="-105" rx="106.68" ry="18"/>
<text text-anchor="middle" x="844" y="-101.3" font-family="Times,serif" font-size="14.00">समाधूतैः(2.2)</text>
</g>
<!-- Node3_1 -->
<g id="node2" class="node">
<title>Node3_1</title>
<ellipse fill="#40e0d0" stroke="#40e0d0" cx="835" cy="-192" rx="96.68" ry="18"/>
<text text-anchor="middle" x="835" y="-188.3" font-family="Times,serif" font-size="14.00">पुष्पैः(3.1)</text>
</g>
<!-- Node2_2&#45;&gt;Node3_1 -->
<g id="edge3" class="edge">
<title>Node2_2&#45;&gt;Node3_1</title>
<path fill="none" stroke="black" d="M841.11,-133.27C839.7,-146.58 838.05,-162.19 836.82,-173.82"/>
<polygon fill="black" stroke="black" points="844.61,-133.51 842.18,-123.2 837.65,-132.78 844.61,-133.51"/>
<text text-anchor="middle" x="898.5" y="-144.8" font-family="Times,serif" font-size="14.00">विशेषणम्</text>
</g>
<!-- Node5_1 -->
<g id="node8" class="node">
<title>Node5_1</title>
<ellipse fill="#ff1975" stroke="#ff1975" cx="617" cy="-279" rx="96.68" ry="18"/>
<text text-anchor="middle" x="617" y="-275.3" font-family="Times,serif" font-size="14.00">अदृश्यत(5.1)</text>
</g>
<!-- Node3_1&#45;&gt;Node5_1 -->
<g id="edge4" class="edge">
<title>Node3_1&#45;&gt;Node5_1</title>
<path fill="none" stroke="black" d="M785.7,-212.22C746.75,-227.41 693.09,-248.33 656.83,-262.47"/>
<polygon fill="black" stroke="black" points="787.22,-215.39 795.27,-208.49 784.68,-208.86 787.22,-215.39"/>
<text text-anchor="middle" x="776" y="-231.8" font-family="Times,serif" font-size="14.00">कर्ता</text>
</g>
<!-- Node7_1 -->
<g id="node3" class="node">
<title>Node7_1</title>
<ellipse fill="#40e0d0" stroke="#40e0d0" cx="372" cy="-105" rx="124.58" ry="18"/>
<text text-anchor="middle" x="372" y="-101.3" font-family="Times,serif" font-size="14.00">अभिरामाभिः(7.1)</text>
</g>
<!-- Node6_1 -->
<g id="node4" class="node">
<title>Node6_1</title>
<ellipse fill="#40e0d0" stroke="#40e0d0" cx="372" cy="-192" rx="96.68" ry="18"/>
<text text-anchor="middle" x="372" y="-188.3" font-family="Times,serif" font-size="14.00">ताराभिः(6.1)</text>
</g>
<!-- Node7_1&#45;&gt;Node6_1 -->
<g id="edge7" class="edge">
<title>Node7_1&#45;&gt;Node6_1</title>
<path fill="none" stroke="black" d="M372,-133.27C372,-146.58 372,-162.19 372,-173.82"/>
<polygon fill="black" stroke="black" points="375.5,-133.2 372,-123.2 368.5,-133.2 375.5,-133.2"/>
<text text-anchor="middle" x="429.5" y="-144.8" font-family="Times,serif" font-size="14.00">विशेषणम्</text>
</g>
<!-- Node6_1&#45;&gt;Node5_1 -->
<g id="edge6" class="edge">
<title>Node6_1&#45;&gt;Node5_1</title>
<path fill="none" stroke="black" d="M424.98,-211.38C469.37,-226.78 531.97,-248.5 573.47,-262.9"/>
<polygon fill="black" stroke="black" points="426.11,-208.07 415.52,-208.1 423.82,-214.68 426.11,-208.07"/>
<text text-anchor="middle" x="546" y="-231.8" font-family="Times,serif" font-size="14.00">करणम्</text>
</g>
<!-- Node8_1 -->
<g id="node5" class="node">
<title>Node8_1</title>
<ellipse fill="#40e0d0" stroke="#40e0d0" cx="123" cy="-105" rx="106.68" ry="18"/>
<text text-anchor="middle" x="123" y="-101.3" font-family="Times,serif" font-size="14.00">उदिताभिः(8.1)</text>
</g>
<!-- Node8_1&#45;&gt;Node6_1 -->
<g id="edge8" class="edge">
<title>Node8_1&#45;&gt;Node6_1</title>
<path fill="none" stroke="black" d="M171.05,-125.55C195.43,-135.19 225.6,-146.72 253,-156 274.82,-163.39 299.19,-170.72 320.17,-176.75"/>
<polygon fill="black" stroke="black" points="172.25,-122.26 161.67,-121.82 169.66,-128.77 172.25,-122.26"/>
<text text-anchor="middle" x="310.5" y="-144.8" font-family="Times,serif" font-size="14.00">विशेषणम्</text>
</g>
<!-- Node1_1 -->
<g id="node6" class="node">
<title>Node1_1</title>
<ellipse fill="#87ceeb" stroke="#87ceeb" cx="831" cy="-18" rx="69.59" ry="18"/>
<text text-anchor="middle" x="831" y="-14.3" font-family="Times,serif" font-size="14.00">तस्य(1.1)</text>
</g>
<!-- Node1_1&#45;&gt;Node2_2 -->
<g id="edge1" class="edge">
<title>Node1_1&#45;&gt;Node2_2</title>
<path fill="none" stroke="black" d="M830.02,-46.49C830.18,-53.84 830.72,-61.76 832,-69 833.05,-74.95 834.95,-81.24 836.93,-86.83"/>
<polygon fill="black" stroke="black" points="833.52,-46.26 830.04,-36.25 826.52,-46.25 833.52,-46.26"/>
<text text-anchor="middle" x="925" y="-57.8" font-family="Times,serif" font-size="14.00">षष्ठीसम्बन्धः</text>
</g>
<!-- Node2_1 -->
<g id="node7" class="node">
<title>Node2_1</title>
<ellipse fill="#ffff00" stroke="#ffff00" cx="1040" cy="-18" rx="63.09" ry="18"/>
<text text-anchor="middle" x="1040" y="-14.3" font-family="Times,serif" font-size="14.00">वेग&#45;(2.1)</text>
</g>
<!-- Node2_1&#45;&gt;Node2_2 -->
<g id="edge2" class="edge">
<title>Node2_1&#45;&gt;Node2_2</title>
<path fill="none" stroke="black" d="M1033.45,-46.04C1030.14,-54.53 1025.22,-63.19 1018,-69 1003.95,-80.3 966.4,-88.58 929.76,-94.24"/>
<polygon fill="black" stroke="black" points="1036.85,-46.92 1036.65,-36.33 1030.2,-44.73 1036.85,-46.92"/>
<text text-anchor="middle" x="1139.5" y="-57.8" font-family="Times,serif" font-size="14.00">तृतीया_तत्पुरुषः</text>
</g>
<!-- Node4_1 -->
<g id="node9" class="node">
<title>Node4_1</title>
<ellipse fill="#00bfff" stroke="#00bfff" cx="617" cy="-192" rx="78.79" ry="18"/>
<text text-anchor="middle" x="617" y="-188.3" font-family="Times,serif" font-size="14.00">तोयम्(4.1)</text>
</g>
<!-- Node4_1&#45;&gt;Node5_1 -->
<g id="edge5" class="edge">
<title>Node4_1&#45;&gt;Node5_1</title>
<path fill="none" stroke="black" d="M617,-220.27C617,-233.58 617,-249.19 617,-260.82"/>
<polygon fill="black" stroke="black" points="620.5,-220.2 617,-210.2 613.5,-220.2 620.5,-220.2"/>
<text text-anchor="middle" x="646" y="-231.8" font-family="Times,serif" font-size="14.00">कर्म</text>
</g>
<!-- Node9_1 -->
<g id="node10" class="node">
<title>Node9_1</title>
<ellipse fill="#ff99ff" stroke="#ff99ff" cx="617" cy="-18" rx="50.89" ry="18"/>
<text text-anchor="middle" x="617" y="-14.3" font-family="Times,serif" font-size="14.00">इव(9.1)</text>
</g>
<!-- Node10_1 -->
<g id="node11" class="node">
<title>Node10_1</title>
<ellipse fill="#00bfff" stroke="#00bfff" cx="617" cy="-105" rx="102.88" ry="18"/>
<text text-anchor="middle" x="617" y="-101.3" font-family="Times,serif" font-size="14.00">अम्बरम्(10.1)</text>
</g>
<!-- Node9_1&#45;&gt;Node10_1 -->
<g id="edge9" class="edge">
<title>Node9_1&#45;&gt;Node10_1</title>
<path fill="none" stroke="black" d="M617,-46.27C617,-59.58 617,-75.19 617,-86.82"/>
<polygon fill="black" stroke="black" points="620.5,-46.2 617,-36.2 613.5,-46.2 620.5,-46.2"/>
<text text-anchor="middle" x="706" y="-57.8" font-family="Times,serif" font-size="14.00">उपमान_द्योतकः</text>
</g>
<!-- Node10_1&#45;&gt;Node4_1 -->
<g id="edge10" class="edge">
<title>Node10_1&#45;&gt;Node4_1</title>
<path fill="none" stroke="black" d="M617,-133.27C617,-146.58 617,-162.19 617,-173.82"/>
<polygon fill="black" stroke="black" points="620.5,-133.2 617,-123.2 613.5,-133.2 620.5,-133.2"/>
<text text-anchor="middle" x="667" y="-144.8" font-family="Times,serif" font-size="14.00">उपमानम्</text>
</g>
</g>
</svg>
