<?xml version="1.0" encoding="UTF-8" standalone="no"?>
<!DOCTYPE svg PUBLIC "-//W3C//DTD SVG 1.1//EN"
 "http://www.w3.org/Graphics/SVG/1.1/DTD/svg11.dtd">
<!-- Generated by graphviz version 2.43.0 (0)
 -->
<!-- Title: G Pages: 1 -->
<svg width="1058pt" height="479pt"
 viewBox="0.00 0.00 1057.60 479.00" xmlns="http://www.w3.org/2000/svg" xmlns:xlink="http://www.w3.org/1999/xlink">
<g id="graph0" class="graph" transform="scale(1 1) rotate(0) translate(4 475)">
<title>G</title>
<polygon fill="#fffacd" stroke="transparent" points="-4,4 -4,-475 1053.6,-475 1053.6,4 -4,4"/>
<g id="clust1" class="cluster">
<title>cluster_1</title>
<polygon fill="#fffacd" stroke="black" points="570.6,-79 570.6,-218 1030.6,-218 1030.6,-79 570.6,-79"/>
</g>
<g id="clust2" class="cluster">
<title>cluster_2</title>
<polygon fill="#fffacd" stroke="black" points="325.6,-253 325.6,-392 555.6,-392 555.6,-253 325.6,-253"/>
</g>
<g id="clust3" class="cluster">
<title>cluster_3</title>
<polygon fill="#fffacd" stroke="black" points="50.6,-166 50.6,-305 298.6,-305 298.6,-166 50.6,-166"/>
</g>
<!-- Node1_2 -->
<g id="node1" class="node">
<title>Node1_2</title>
<ellipse fill="#40e0d0" stroke="#40e0d0" cx="675.6" cy="-105" rx="96.68" ry="18"/>
<text text-anchor="middle" x="675.6" y="-101.3" font-family="Times,serif" font-size="14.00">रूपिभिः(1.2)</text>
</g>
<!-- Node5_3 -->
<g id="node2" class="node">
<title>Node5_3</title>
<ellipse fill="#40e0d0" stroke="#40e0d0" cx="694.6" cy="-192" rx="115.88" ry="18"/>
<text text-anchor="middle" x="694.6" y="-188.3" font-family="Times,serif" font-size="14.00">गन्धर्वैः(5.3)</text>
</g>
<!-- Node1_2&#45;&gt;Node5_3 -->
<g id="edge2" class="edge">
<title>Node1_2&#45;&gt;Node5_3</title>
<path fill="none" stroke="black" d="M681.69,-133.27C684.67,-146.58 688.16,-162.19 690.76,-173.82"/>
<polygon fill="black" stroke="black" points="685.04,-132.2 679.44,-123.2 678.21,-133.72 685.04,-132.2"/>
<text text-anchor="middle" x="744.1" y="-144.8" font-family="Times,serif" font-size="14.00">विशेषणम्</text>
</g>
<!-- Node2_1 -->
<g id="node4" class="node">
<title>Node2_1</title>
<ellipse fill="#93db70" stroke="#93db70" cx="440.6" cy="-279" rx="106.68" ry="18"/>
<text text-anchor="middle" x="440.6" y="-275.3" font-family="Times,serif" font-size="14.00">आविष्टम्(2.1)</text>
</g>
<!-- Node5_3&#45;&gt;Node2_1 -->
<g id="edge9" class="edge">
<title>Node5_3&#45;&gt;Node2_1</title>
<path fill="none" stroke="black" d="M675.08,-217.74C666.42,-227.08 655.5,-236.91 643.6,-243 612.24,-259.05 574.96,-267.93 540.96,-272.78"/>
<polygon fill="black" stroke="black" points="677.81,-219.93 681.79,-210.11 672.56,-215.31 677.81,-219.93"/>
<text text-anchor="middle" x="700.6" y="-231.8" font-family="Times,serif" font-size="14.00">कर्ता</text>
</g>
<!-- Node4_2 -->
<g id="node3" class="node">
<title>Node4_2</title>
<ellipse fill="#40e0d0" stroke="#40e0d0" cx="906.6" cy="-105" rx="115.88" ry="18"/>
<text text-anchor="middle" x="906.6" y="-101.3" font-family="Times,serif" font-size="14.00">परिच्छदैः(4.2)</text>
</g>
<!-- Node4_2&#45;&gt;Node5_3 -->
<g id="edge6" class="edge">
<title>Node4_2&#45;&gt;Node5_3</title>
<path fill="none" stroke="black" d="M867.25,-127.24C848.83,-136.73 826.4,-147.63 805.6,-156 787.13,-163.43 766.44,-170.32 747.98,-175.99"/>
<polygon fill="black" stroke="black" points="868.96,-130.3 876.22,-122.58 865.73,-124.09 868.96,-130.3"/>
<text text-anchor="middle" x="894.1" y="-144.8" font-family="Times,serif" font-size="14.00">विशेषणम्</text>
</g>
<!-- Node10_1 -->
<g id="node5" class="node">
<title>Node10_1</title>
<ellipse fill="#00bfff" stroke="#00bfff" cx="409.6" cy="-366" rx="75.29" ry="18"/>
<text text-anchor="middle" x="409.6" y="-362.3" font-family="Times,serif" font-size="14.00">तलम्(10.1)</text>
</g>
<!-- Node2_1&#45;&gt;Node10_1 -->
<g id="edge3" class="edge">
<title>Node2_1&#45;&gt;Node10_1</title>
<path fill="none" stroke="black" d="M430.8,-306.87C425.91,-320.27 420.14,-336.08 415.86,-347.82"/>
<polygon fill="black" stroke="black" points="434.18,-307.79 434.32,-297.2 427.61,-305.4 434.18,-307.79"/>
<text text-anchor="middle" x="485.1" y="-318.8" font-family="Times,serif" font-size="14.00">विशेषणम्</text>
</g>
<!-- Node9_1 -->
<g id="node14" class="node">
<title>Node9_1</title>
<ellipse fill="#93db70" stroke="#93db70" cx="197.6" cy="-453" rx="113.18" ry="18"/>
<text text-anchor="middle" x="197.6" y="-449.3" font-family="Times,serif" font-size="14.00">(आविष्टम्)(9.1)</text>
</g>
<!-- Node10_1&#45;&gt;Node9_1 -->
<g id="edge14" class="edge">
<title>Node10_1&#45;&gt;Node9_1</title>
<path fill="none" stroke="black" d="M362.96,-385.7C325.34,-400.78 272.99,-421.77 237.34,-436.07"/>
<polygon fill="black" stroke="black" points="364.69,-388.78 372.67,-381.81 362.08,-382.28 364.69,-388.78"/>
<text text-anchor="middle" x="345.6" y="-405.8" font-family="Times,serif" font-size="14.00">कर्म</text>
</g>
<!-- Node6_1 -->
<g id="node6" class="node">
<title>Node6_1</title>
<ellipse fill="#40e0d0" stroke="#40e0d0" cx="174.6" cy="-192" rx="115.88" ry="18"/>
<text text-anchor="middle" x="174.6" y="-188.3" font-family="Times,serif" font-size="14.00">देवकल्पैः(6.1)</text>
</g>
<!-- Node8_1 -->
<g id="node7" class="node">
<title>Node8_1</title>
<ellipse fill="#ffff00" stroke="#ffff00" cx="174.6" cy="-279" rx="44.39" ry="18"/>
<text text-anchor="middle" x="174.6" y="-275.3" font-family="Times,serif" font-size="14.00">स&#45;(8.1)</text>
</g>
<!-- Node6_1&#45;&gt;Node8_1 -->
<g id="edge10" class="edge">
<title>Node6_1&#45;&gt;Node8_1</title>
<path fill="none" stroke="black" d="M174.6,-220.27C174.6,-233.58 174.6,-249.19 174.6,-260.82"/>
<polygon fill="black" stroke="black" points="178.1,-220.2 174.6,-210.2 171.1,-220.2 178.1,-220.2"/>
<text text-anchor="middle" x="232.1" y="-231.8" font-family="Times,serif" font-size="14.00">विशेषणम्</text>
</g>
<!-- Node8_2 -->
<g id="node15" class="node">
<title>Node8_2</title>
<ellipse fill="#40e0d0" stroke="#40e0d0" cx="197.6" cy="-366" rx="96.68" ry="18"/>
<text text-anchor="middle" x="197.6" y="-362.3" font-family="Times,serif" font-size="14.00">पन्नगैः(8.2)</text>
</g>
<!-- Node8_1&#45;&gt;Node8_2 -->
<g id="edge12" class="edge">
<title>Node8_1&#45;&gt;Node8_2</title>
<path fill="none" stroke="black" d="M174.73,-307.46C175.32,-314.89 176.47,-322.85 178.6,-330 180.41,-336.1 183.37,-342.33 186.42,-347.82"/>
<polygon fill="black" stroke="black" points="178.23,-307.26 174.23,-297.45 171.24,-307.61 178.23,-307.26"/>
<text text-anchor="middle" x="250.1" y="-318.8" font-family="Times,serif" font-size="14.00">बहुव्रीहिः</text>
</g>
<!-- Node1_1 -->
<g id="node8" class="node">
<title>Node1_1</title>
<ellipse fill="#ffff00" stroke="#ffff00" cx="675.6" cy="-18" rx="63.09" ry="18"/>
<text text-anchor="middle" x="675.6" y="-14.3" font-family="Times,serif" font-size="14.00">काम&#45;(1.1)</text>
</g>
<!-- Node1_1&#45;&gt;Node1_2 -->
<g id="edge1" class="edge">
<title>Node1_1&#45;&gt;Node1_2</title>
<path fill="none" stroke="black" d="M675.6,-46.27C675.6,-59.58 675.6,-75.19 675.6,-86.82"/>
<polygon fill="black" stroke="black" points="679.1,-46.2 675.6,-36.2 672.1,-46.2 679.1,-46.2"/>
<text text-anchor="middle" x="747.1" y="-57.8" font-family="Times,serif" font-size="14.00">बहुव्रीहिः</text>
</g>
<!-- Node3_1 -->
<g id="node9" class="node">
<title>Node3_1</title>
<ellipse fill="#ff99ff" stroke="#ff99ff" cx="436.6" cy="-192" rx="124.58" ry="18"/>
<text text-anchor="middle" x="436.6" y="-188.3" font-family="Times,serif" font-size="14.00">अभीक्ष्णम्(3.1)</text>
</g>
<!-- Node3_1&#45;&gt;Node2_1 -->
<g id="edge4" class="edge">
<title>Node3_1&#45;&gt;Node2_1</title>
<path fill="none" stroke="black" d="M437.88,-220.27C438.51,-233.58 439.24,-249.19 439.79,-260.82"/>
<polygon fill="black" stroke="black" points="441.37,-220.03 437.41,-210.2 434.38,-220.35 441.37,-220.03"/>
<text text-anchor="middle" x="539.6" y="-231.8" font-family="Times,serif" font-size="14.00">क्रियाविशेषणम्</text>
</g>
<!-- Node4_1 -->
<g id="node10" class="node">
<title>Node4_1</title>
<ellipse fill="#ffff00" stroke="#ffff00" cx="906.6" cy="-18" rx="44.39" ry="18"/>
<text text-anchor="middle" x="906.6" y="-14.3" font-family="Times,serif" font-size="14.00">स&#45;(4.1)</text>
</g>
<!-- Node4_1&#45;&gt;Node4_2 -->
<g id="edge5" class="edge">
<title>Node4_1&#45;&gt;Node4_2</title>
<path fill="none" stroke="black" d="M906.6,-46.27C906.6,-59.58 906.6,-75.19 906.6,-86.82"/>
<polygon fill="black" stroke="black" points="910.1,-46.2 906.6,-36.2 903.1,-46.2 910.1,-46.2"/>
<text text-anchor="middle" x="978.1" y="-57.8" font-family="Times,serif" font-size="14.00">बहुव्रीहिः</text>
</g>
<!-- Node5_1 -->
<g id="node11" class="node">
<title>Node5_1</title>
<ellipse fill="#ffff00" stroke="#ffff00" cx="469.6" cy="-18" rx="72.29" ry="18"/>
<text text-anchor="middle" x="469.6" y="-14.3" font-family="Times,serif" font-size="14.00">यक्ष&#45;(5.1)</text>
</g>
<!-- Node5_2 -->
<g id="node12" class="node">
<title>Node5_2</title>
<ellipse fill="#ffff00" stroke="#ffff00" cx="469.6" cy="-105" rx="90.98" ry="18"/>
<text text-anchor="middle" x="469.6" y="-101.3" font-family="Times,serif" font-size="14.00">किन्नर&#45;(5.2)</text>
</g>
<!-- Node5_1&#45;&gt;Node5_2 -->
<g id="edge7" class="edge">
<title>Node5_1&#45;&gt;Node5_2</title>
<path fill="none" stroke="black" d="M469.6,-46.27C469.6,-59.58 469.6,-75.19 469.6,-86.82"/>
<polygon fill="black" stroke="black" points="473.1,-46.2 469.6,-36.2 466.1,-46.2 473.1,-46.2"/>
<text text-anchor="middle" x="534.1" y="-57.8" font-family="Times,serif" font-size="14.00">द्वन्द्वः</text>
</g>
<!-- Node5_2&#45;&gt;Node5_3 -->
<g id="edge8" class="edge">
<title>Node5_2&#45;&gt;Node5_3</title>
<path fill="none" stroke="black" d="M500.98,-128.28C515.77,-137.94 534,-148.69 551.6,-156 573.9,-165.27 599.22,-172.46 622.3,-177.85"/>
<polygon fill="black" stroke="black" points="502.52,-125.1 492.26,-122.45 498.63,-130.92 502.52,-125.1"/>
<text text-anchor="middle" x="616.1" y="-144.8" font-family="Times,serif" font-size="14.00">द्वन्द्वः</text>
</g>
<!-- Node7_1 -->
<g id="node13" class="node">
<title>Node7_1</title>
<ellipse fill="#ff99ff" stroke="#ff99ff" cx="41.6" cy="-366" rx="41.69" ry="18"/>
<text text-anchor="middle" x="41.6" y="-362.3" font-family="Times,serif" font-size="14.00">च(7.1)</text>
</g>
<!-- Node7_1&#45;&gt;Node9_1 -->
<g id="edge11" class="edge">
<title>Node7_1&#45;&gt;Node9_1</title>
<path fill="none" stroke="black" d="M55.59,-392.27C61.63,-401.2 69.43,-410.6 78.6,-417 92.63,-426.81 109.42,-433.9 125.91,-439.01"/>
<polygon fill="black" stroke="black" points="58.44,-390.23 50.15,-383.64 52.52,-393.96 58.44,-390.23"/>
<text text-anchor="middle" x="136.1" y="-405.8" font-family="Times,serif" font-size="14.00">सम्बन्धः</text>
</g>
<!-- Node8_2&#45;&gt;Node9_1 -->
<g id="edge13" class="edge">
<title>Node8_2&#45;&gt;Node9_1</title>
<path fill="none" stroke="black" d="M197.6,-394.27C197.6,-407.58 197.6,-423.19 197.6,-434.82"/>
<polygon fill="black" stroke="black" points="201.1,-394.2 197.6,-384.2 194.1,-394.2 201.1,-394.2"/>
<text text-anchor="middle" x="233.6" y="-405.8" font-family="Times,serif" font-size="14.00">कर्ता</text>
</g>
</g>
</svg>
