<svg xmlns="http://www.w3.org/2000/svg" xmlns:xlink="http://www.w3.org/1999/xlink" width="1284" height="479pt" viewBox="0 0 962.79 479"><g id="graph0" class="graph" transform="scale(1 1) rotate(0) translate(4 475)"><title>G</title><polygon fill="#fffacd" stroke="transparent" points="-4 4 -4 -475 958.79 -475 958.79 4 -4 4"/><g id="clust1" class="cluster"><title>cluster_1</title><polygon fill="#fffacd" stroke="#000" points="628.79 -79 628.79 -218 838.79 -218 838.79 -79 628.79 -79"/></g><g id="clust2" class="cluster"><title>cluster_2</title><polygon fill="#fffacd" stroke="#000" points="366.79 -166 366.79 -305 558.79 -305 558.79 -166 366.79 -166"/></g><g id="node1" class="node"><title>Node2_2</title><ellipse cx="733.79" cy="-105" fill="#87ceeb" stroke="#87ceeb" rx="96.68" ry="18"/><text x="733.79" y="-101.3" font-family="Times,serif" font-size="14" text-anchor="middle">नीतायाः(2.2)</text></g><g id="node2" class="node"><title>Node3_1</title><ellipse cx="733.79" cy="-192" fill="#87ceeb" stroke="#87ceeb" rx="96.68" ry="18"/><text x="733.79" y="-188.3" font-family="Times,serif" font-size="14" text-anchor="middle">सीतायाः(3.1)</text></g><g id="edge3" class="edge"><title>Node2_2-&gt;Node3_1</title><path fill="none" stroke="#000" d="M733.79,-133.27C733.79,-146.58 733.79,-162.19 733.79,-173.82"/><polygon fill="#000" stroke="#000" points="737.29 -133.2 733.79 -123.2 730.29 -133.2 737.29 -133.2"/><text x="791.29" y="-144.8" font-family="Times,serif" font-size="14" text-anchor="middle">विशेषणम्</text></g><g id="node8" class="node"><title>Node6_1</title><ellipse cx="669.79" cy="-279" fill="#93db70" stroke="#93db70" rx="69.59" ry="18"/><text x="669.79" y="-275.3" font-family="Times,serif" font-size="14" text-anchor="middle">पदम्(6.1)</text></g><g id="edge4" class="edge"><title>Node3_1-&gt;Node6_1</title><path fill="none" stroke="#000" d="M714.7,-218.36C704.3,-232.18 691.71,-248.9 682.51,-261.11"/><polygon fill="#000" stroke="#000" points="717.62 -220.3 720.84 -210.2 712.03 -216.08 717.62 -220.3"/><text x="797.79" y="-231.8" font-family="Times,serif" font-size="14" text-anchor="middle">षष्ठीसम्बन्धः</text></g><g id="node3" class="node"><title>Node8_2</title><ellipse cx="462.79" cy="-192" fill="#c6e2eb" stroke="#c6e2eb" rx="87.99" ry="18"/><text x="462.79" y="-188.3" font-family="Times,serif" font-size="14" text-anchor="middle">आचरिते(8.2)</text></g><g id="node4" class="node"><title>Node9_1</title><ellipse cx="440.79" cy="-279" fill="#c6e2eb" stroke="#c6e2eb" rx="59.59" ry="18"/><text x="440.79" y="-275.3" font-family="Times,serif" font-size="14" text-anchor="middle">पथि(9.1)</text></g><g id="edge10" class="edge"><title>Node8_2-&gt;Node9_1</title><path fill="none" stroke="#000" d="M455.74,-220.27C452.29,-233.58 448.25,-249.19 445.24,-260.82"/><polygon fill="#000" stroke="#000" points="459.23 -220.76 458.34 -210.2 452.45 -219.01 459.23 -220.76"/><text x="510.29" y="-231.8" font-family="Times,serif" font-size="14" text-anchor="middle">विशेषणम्</text></g><g id="node11" class="node"><title>Node7_1</title><ellipse cx="465.79" cy="-366" fill="#f9f" stroke="#f9f" rx="133.78" ry="18"/><text x="465.79" y="-362.3" font-family="Times,serif" font-size="14" text-anchor="middle">अन्वेष्टुम्(7.1)</text></g><g id="edge11" class="edge"><title>Node9_1-&gt;Node7_1</title><path fill="none" stroke="#000" d="M448.7,-306.87C452.64,-320.27 457.29,-336.08 460.74,-347.82"/><polygon fill="#000" stroke="#000" points="452.03 -305.81 445.85 -297.2 445.32 -307.78 452.03 -305.81"/><text x="532.29" y="-318.8" font-family="Times,serif" font-size="14" text-anchor="middle">देशाधिकरणम्</text></g><g id="node5" class="node"><title>Node1_1</title><ellipse cx="59.79" cy="-366" fill="#f9f" stroke="#f9f" rx="59.59" ry="18"/><text x="59.79" y="-362.3" font-family="Times,serif" font-size="14" text-anchor="middle">ततः(1.1)</text></g><g id="node6" class="node"><title>Node5_1</title><ellipse cx="225.79" cy="-453" fill="#ff1975" stroke="#ff1975" rx="69.59" ry="18"/><text x="225.79" y="-449.3" font-family="Times,serif" font-size="14" text-anchor="middle">इयेष(5.1)</text></g><g id="edge1" class="edge"><title>Node1_1-&gt;Node5_1</title><path fill="none" stroke="#000" d="M78.4,-391.78C86.28,-400.83 96.12,-410.44 106.79,-417 125.97,-428.79 149.31,-436.78 170.24,-442.12"/><polygon fill="#000" stroke="#000" points="81.07 -389.53 72 -384.07 75.69 -394 81.07 -389.53"/><text x="164.29" y="-405.8" font-family="Times,serif" font-size="14" text-anchor="middle">सम्बन्धः</text></g><g id="node7" class="node"><title>Node2_1</title><ellipse cx="733.79" cy="-18" fill="#ff0" stroke="#ff0" rx="72.29" ry="18"/><text x="733.79" y="-14.3" font-family="Times,serif" font-size="14" text-anchor="middle">रावण-(2.1)</text></g><g id="edge2" class="edge"><title>Node2_1-&gt;Node2_2</title><path fill="none" stroke="#000" d="M733.79,-46.27C733.79,-59.58 733.79,-75.19 733.79,-86.82"/><polygon fill="#000" stroke="#000" points="737.29 -46.2 733.79 -36.2 730.29 -46.2 737.29 -46.2"/><text x="844.29" y="-57.8" font-family="Times,serif" font-size="14" text-anchor="middle">तृतीया_तत्पुरुषः</text></g><g id="edge7" class="edge"><title>Node6_1-&gt;Node7_1</title><path fill="none" stroke="#000" d="M648.5,-304.08C639.04,-313.44 627.23,-323.46 614.79,-330 595.86,-339.96 574.11,-347.11 553.17,-352.25"/><polygon fill="#000" stroke="#000" points="651.11 -306.41 655.56 -296.79 646.09 -301.54 651.11 -306.41"/><text x="664.79" y="-318.8" font-family="Times,serif" font-size="14" text-anchor="middle">कर्म</text></g><g id="node9" class="node"><title>Node4_1</title><ellipse cx="225.79" cy="-279" fill="#ff0" stroke="#ff0" rx="81.49" ry="18"/><text x="225.79" y="-275.3" font-family="Times,serif" font-size="14" text-anchor="middle">शत्रु-(4.1)</text></g><g id="node10" class="node"><title>Node4_2</title><ellipse cx="225.79" cy="-366" fill="#00bfff" stroke="#00bfff" rx="87.99" ry="18"/><text x="225.79" y="-362.3" font-family="Times,serif" font-size="14" text-anchor="middle">कर्षणः(4.2)</text></g><g id="edge5" class="edge"><title>Node4_1-&gt;Node4_2</title><path fill="none" stroke="#000" d="M225.79,-307.27C225.79,-320.58 225.79,-336.19 225.79,-347.82"/><polygon fill="#000" stroke="#000" points="229.29 -307.2 225.79 -297.2 222.29 -307.2 229.29 -307.2"/><text x="329.29" y="-318.8" font-family="Times,serif" font-size="14" text-anchor="middle">षष्ठी_तत्पुरुषः</text></g><g id="edge6" class="edge"><title>Node4_2-&gt;Node5_1</title><path fill="none" stroke="#000" d="M225.79,-394.27C225.79,-407.58 225.79,-423.19 225.79,-434.82"/><polygon fill="#000" stroke="#000" points="229.29 -394.2 225.79 -384.2 222.29 -394.2 229.29 -394.2"/><text x="261.79" y="-405.8" font-family="Times,serif" font-size="14" text-anchor="middle">कर्ता</text></g><g id="edge8" class="edge"><title>Node7_1-&gt;Node5_1</title><path fill="none" stroke="#000" d="M411.15,-386.35C366.67,-402.11 304.93,-423.97 265.17,-438.05"/><polygon fill="#000" stroke="#000" points="412.39 -389.63 420.65 -382.99 410.06 -383.03 412.39 -389.63"/><text x="389.79" y="-405.8" font-family="Times,serif" font-size="14" text-anchor="middle">कर्म</text></g><g id="node12" class="node"><title>Node8_1</title><ellipse cx="399.79" cy="-105" fill="#ff0" stroke="#ff0" rx="72.29" ry="18"/><text x="399.79" y="-101.3" font-family="Times,serif" font-size="14" text-anchor="middle">चारण-(8.1)</text></g><g id="edge9" class="edge"><title>Node8_1-&gt;Node8_2</title><path fill="none" stroke="#000" d="M397.44,-133.58C397.95,-141.31 399.68,-149.4 403.79,-156 408.84,-164.08 416.49,-170.53 424.63,-175.58"/><polygon fill="#000" stroke="#000" points="400.94 -133.42 397.39 -123.43 393.94 -133.45 400.94 -133.42"/><text x="514.29" y="-144.8" font-family="Times,serif" font-size="14" text-anchor="middle">तृतीया_तत्पुरुषः</text></g></g></svg>