<?xml version="1.0" encoding="UTF-8" standalone="no"?>
<!DOCTYPE svg PUBLIC "-//W3C//DTD SVG 1.1//EN"
 "http://www.w3.org/Graphics/SVG/1.1/DTD/svg11.dtd">
<!-- Generated by graphviz version 2.43.0 (0)
 -->
<!-- Title: G Pages: 1 -->
<svg width="1553pt" height="305pt"
 viewBox="0.00 0.00 1553.09 305.00" xmlns="http://www.w3.org/2000/svg" xmlns:xlink="http://www.w3.org/1999/xlink">
<g id="graph0" class="graph" transform="scale(1 1) rotate(0) translate(4 301)">
<title>G</title>
<polygon fill="#fffacd" stroke="transparent" points="-4,4 -4,-301 1549.09,-301 1549.09,4 -4,4"/>
<!-- Node1_1 -->
<g id="node1" class="node">
<title>Node1_1</title>
<ellipse fill="#00bfff" stroke="#00bfff" cx="1494.39" cy="-105" rx="50.89" ry="18"/>
<text text-anchor="middle" x="1494.39" y="-101.3" font-family="Times,serif" font-size="14.00">सः(1.1)</text>
</g>
<!-- Node9_1 -->
<g id="node2" class="node">
<title>Node9_1</title>
<ellipse fill="#ff99ff" stroke="#ff99ff" cx="818.39" cy="-192" rx="87.99" ry="18"/>
<text text-anchor="middle" x="818.39" y="-188.3" font-family="Times,serif" font-size="14.00">कृत्वा(9.1)</text>
</g>
<!-- Node1_1&#45;&gt;Node9_1 -->
<g id="edge1" class="edge">
<title>Node1_1&#45;&gt;Node9_1</title>
<path fill="none" stroke="black" d="M1450.79,-121.67C1416.82,-133.19 1368.21,-148.14 1324.39,-156 1179.22,-182.05 1007.4,-189 905.95,-190.68"/>
<polygon fill="black" stroke="black" points="1452.08,-124.93 1460.41,-118.37 1449.81,-118.31 1452.08,-124.93"/>
<text text-anchor="middle" x="1421.39" y="-144.8" font-family="Times,serif" font-size="14.00">कर्ता</text>
</g>
<!-- Node10_1 -->
<g id="node11" class="node">
<title>Node10_1</title>
<ellipse fill="#ff1975" stroke="#ff1975" cx="491.39" cy="-279" rx="75.29" ry="18"/>
<text text-anchor="middle" x="491.39" y="-275.3" font-family="Times,serif" font-size="14.00">चकार(10.1)</text>
</g>
<!-- Node9_1&#45;&gt;Node10_1 -->
<g id="edge10" class="edge">
<title>Node9_1&#45;&gt;Node10_1</title>
<path fill="none" stroke="black" d="M756.45,-209.1C693.75,-225.4 598.07,-250.27 540.44,-265.25"/>
<polygon fill="black" stroke="black" points="757.42,-212.47 766.22,-206.56 755.66,-205.69 757.42,-212.47"/>
<text text-anchor="middle" x="738.89" y="-231.8" font-family="Times,serif" font-size="14.00">पूर्वकालः</text>
</g>
<!-- Node2_1 -->
<g id="node3" class="node">
<title>Node2_1</title>
<ellipse fill="#b0e2ff" stroke="#b0e2ff" cx="267.39" cy="-105" rx="96.68" ry="18"/>
<text text-anchor="middle" x="267.39" y="-101.3" font-family="Times,serif" font-size="14.00">सूर्याय(2.1)</text>
</g>
<!-- Node2_1&#45;&gt;Node9_1 -->
<g id="edge2" class="edge">
<title>Node2_1&#45;&gt;Node9_1</title>
<path fill="none" stroke="black" d="M304.52,-126.98C325.05,-137.56 351.41,-149.5 376.39,-156 441.48,-172.94 623.67,-183.06 732.75,-187.78"/>
<polygon fill="black" stroke="black" points="305.99,-123.81 295.52,-122.24 302.73,-130 305.99,-123.81"/>
<text text-anchor="middle" x="454.89" y="-144.8" font-family="Times,serif" font-size="14.00">सम्प्रदानम्</text>
</g>
<!-- Node3_1 -->
<g id="node4" class="node">
<title>Node3_1</title>
<ellipse fill="#b0e2ff" stroke="#b0e2ff" cx="507.39" cy="-105" rx="124.58" ry="18"/>
<text text-anchor="middle" x="507.39" y="-101.3" font-family="Times,serif" font-size="14.00">महेन्द्राय(3.1)</text>
</g>
<!-- Node3_1&#45;&gt;Node9_1 -->
<g id="edge3" class="edge">
<title>Node3_1&#45;&gt;Node9_1</title>
<path fill="none" stroke="black" d="M527.27,-130.96C536.1,-140.33 547.24,-150.13 559.39,-156 589.83,-170.71 672.58,-180.15 736.43,-185.47"/>
<polygon fill="black" stroke="black" points="529.7,-128.42 520.43,-123.28 524.47,-133.08 529.7,-128.42"/>
<text text-anchor="middle" x="637.89" y="-144.8" font-family="Times,serif" font-size="14.00">सम्प्रदानम्</text>
</g>
<!-- Node4_1 -->
<g id="node5" class="node">
<title>Node4_1</title>
<ellipse fill="#b0e2ff" stroke="#b0e2ff" cx="728.39" cy="-105" rx="78.79" ry="18"/>
<text text-anchor="middle" x="728.39" y="-101.3" font-family="Times,serif" font-size="14.00">पवनाय(4.1)</text>
</g>
<!-- Node4_1&#45;&gt;Node9_1 -->
<g id="edge4" class="edge">
<title>Node4_1&#45;&gt;Node9_1</title>
<path fill="none" stroke="black" d="M720.67,-133.23C719.95,-141.15 720.85,-149.44 725.39,-156 732.76,-166.64 743.79,-174.05 755.71,-179.21"/>
<polygon fill="black" stroke="black" points="724.15,-133.63 722.37,-123.19 717.25,-132.46 724.15,-133.63"/>
<text text-anchor="middle" x="803.89" y="-144.8" font-family="Times,serif" font-size="14.00">सम्प्रदानम्</text>
</g>
<!-- Node5_1 -->
<g id="node6" class="node">
<title>Node5_1</title>
<ellipse fill="#ffff00" stroke="#ffff00" cx="883.39" cy="-18" rx="90.98" ry="18"/>
<text text-anchor="middle" x="883.39" y="-14.3" font-family="Times,serif" font-size="14.00">स्वयम्&#45;(5.1)</text>
</g>
<!-- Node5_2 -->
<g id="node7" class="node">
<title>Node5_2</title>
<ellipse fill="#b0e2ff" stroke="#b0e2ff" cx="894.39" cy="-105" rx="69.59" ry="18"/>
<text text-anchor="middle" x="894.39" y="-101.3" font-family="Times,serif" font-size="14.00">भुवे(5.2)</text>
</g>
<!-- Node5_1&#45;&gt;Node5_2 -->
<g id="edge5" class="edge">
<title>Node5_1&#45;&gt;Node5_2</title>
<path fill="none" stroke="black" d="M882.67,-46.44C882.82,-53.8 883.3,-61.73 884.39,-69 885.28,-74.87 886.86,-81.15 888.51,-86.75"/>
<polygon fill="black" stroke="black" points="886.17,-46.21 882.65,-36.22 879.17,-46.22 886.17,-46.21"/>
<text text-anchor="middle" x="980.89" y="-57.8" font-family="Times,serif" font-size="14.00">उपपद_तत्पुरुषः</text>
</g>
<!-- Node5_2&#45;&gt;Node9_1 -->
<g id="edge6" class="edge">
<title>Node5_2&#45;&gt;Node9_1</title>
<path fill="none" stroke="black" d="M894.59,-133.26C893.5,-141.19 891.13,-149.47 886.39,-156 880.16,-164.6 871.18,-171.24 861.78,-176.31"/>
<polygon fill="black" stroke="black" points="898.08,-133.46 895.37,-123.21 891.1,-132.91 898.08,-133.46"/>
<text text-anchor="middle" x="970.89" y="-144.8" font-family="Times,serif" font-size="14.00">सम्प्रदानम्</text>
</g>
<!-- Node6_1 -->
<g id="node8" class="node">
<title>Node6_1</title>
<ellipse fill="#b0e2ff" stroke="#b0e2ff" cx="1088.39" cy="-105" rx="106.68" ry="18"/>
<text text-anchor="middle" x="1088.39" y="-101.3" font-family="Times,serif" font-size="14.00">भूतेभ्यः(6.1)</text>
</g>
<!-- Node6_1&#45;&gt;Node9_1 -->
<g id="edge7" class="edge">
<title>Node6_1&#45;&gt;Node9_1</title>
<path fill="none" stroke="black" d="M1075.86,-131.95C1070.23,-140.95 1062.72,-150.23 1053.39,-156 1028.31,-171.51 957.92,-180.62 900.67,-185.63"/>
<polygon fill="black" stroke="black" points="1078.95,-133.59 1080.87,-123.17 1072.87,-130.12 1078.95,-133.59"/>
<text text-anchor="middle" x="1146.89" y="-144.8" font-family="Times,serif" font-size="14.00">सम्प्रदानम्</text>
</g>
<!-- Node7_1 -->
<g id="node9" class="node">
<title>Node7_1</title>
<ellipse fill="#ff99ff" stroke="#ff99ff" cx="1099.39" cy="-18" rx="41.69" ry="18"/>
<text text-anchor="middle" x="1099.39" y="-14.3" font-family="Times,serif" font-size="14.00">च(7.1)</text>
</g>
<!-- Node7_1&#45;&gt;Node6_1 -->
<g id="edge8" class="edge">
<title>Node7_1&#45;&gt;Node6_1</title>
<path fill="none" stroke="black" d="M1095.86,-46.27C1094.14,-59.58 1092.12,-75.19 1090.62,-86.82"/>
<polygon fill="black" stroke="black" points="1099.35,-46.57 1097.17,-36.2 1092.41,-45.67 1099.35,-46.57"/>
<text text-anchor="middle" x="1197.89" y="-57.8" font-family="Times,serif" font-size="14.00">समुच्चय_द्योतकः</text>
</g>
<!-- Node8_1 -->
<g id="node10" class="node">
<title>Node8_1</title>
<ellipse fill="#93db70" stroke="#93db70" cx="1319.39" cy="-105" rx="106.68" ry="18"/>
<text text-anchor="middle" x="1319.39" y="-101.3" font-family="Times,serif" font-size="14.00">अञ्जलिम्(8.1)</text>
</g>
<!-- Node8_1&#45;&gt;Node9_1 -->
<g id="edge9" class="edge">
<title>Node8_1&#45;&gt;Node9_1</title>
<path fill="none" stroke="black" d="M1287.12,-128.31C1270.61,-138.56 1249.73,-149.8 1229.39,-156 1170.66,-173.91 1006.16,-183.53 903.97,-187.93"/>
<polygon fill="black" stroke="black" points="1289.28,-131.09 1295.82,-122.75 1285.51,-125.19 1289.28,-131.09"/>
<text text-anchor="middle" x="1291.39" y="-144.8" font-family="Times,serif" font-size="14.00">कर्म</text>
</g>
<!-- Node11_1 -->
<g id="node12" class="node">
<title>Node11_1</title>
<ellipse fill="#c6e2eb" stroke="#c6e2eb" cx="75.39" cy="-105" rx="75.29" ry="18"/>
<text text-anchor="middle" x="75.39" y="-101.3" font-family="Times,serif" font-size="14.00">गमने(11.1)</text>
</g>
<!-- Node12_1 -->
<g id="node13" class="node">
<title>Node12_1</title>
<ellipse fill="#93db70" stroke="#93db70" cx="397.39" cy="-192" rx="84.49" ry="18"/>
<text text-anchor="middle" x="397.39" y="-188.3" font-family="Times,serif" font-size="14.00">मतिम्(12.1)</text>
</g>
<!-- Node11_1&#45;&gt;Node12_1 -->
<g id="edge11" class="edge">
<title>Node11_1&#45;&gt;Node12_1</title>
<path fill="none" stroke="black" d="M69.47,-133.44C69.28,-141.6 70.87,-149.97 76.39,-156 92.29,-173.37 225.56,-183.02 315.31,-187.59"/>
<polygon fill="black" stroke="black" points="72.96,-133.7 70.51,-123.4 66,-132.98 72.96,-133.7"/>
<text text-anchor="middle" x="162.39" y="-144.8" font-family="Times,serif" font-size="14.00">विषयाधिकरणम्</text>
</g>
<!-- Node12_1&#45;&gt;Node10_1 -->
<g id="edge12" class="edge">
<title>Node12_1&#45;&gt;Node10_1</title>
<path fill="none" stroke="black" d="M423.8,-216.88C439.55,-231.12 459.15,-248.84 473.18,-261.53"/>
<polygon fill="black" stroke="black" points="425.73,-213.9 415.96,-209.79 421.03,-219.1 425.73,-213.9"/>
<text text-anchor="middle" x="478.39" y="-231.8" font-family="Times,serif" font-size="14.00">कर्म</text>
</g>
</g>
</svg>
