<svg xmlns="http://www.w3.org/2000/svg" xmlns:xlink="http://www.w3.org/1999/xlink" width="992pt" height="544" viewBox="0 0 992 408"><g id="graph0" class="graph" transform="scale(1 1) rotate(0) translate(4 404)"><title>G</title><polygon fill="#fffacd" stroke="transparent" points="-4 4 -4 -404 988 -404 988 4 -4 4"/><g id="clust1" class="cluster"><title>cluster_1</title><polygon fill="#fffacd" stroke="#000" points="8 -182 8 -321 274 -321 274 -182 8 -182"/></g><g id="clust2" class="cluster"><title>cluster_2</title><polygon fill="#fffacd" stroke="#000" points="652 -182 652 -321 808 -321 808 -182 652 -182"/></g><g id="clust3" class="cluster"><title>cluster_3</title><polygon fill="#fffacd" stroke="#000" points="213 -8 213 -147 580 -147 580 -8 213 -8"/></g><g id="node1" class="node"><title>Node2_1</title><ellipse cx="141" cy="-208" fill="#40e0d0" stroke="#40e0d0" rx="124.58" ry="18"/><text x="141" y="-204.3" font-family="Times,serif" font-size="14" text-anchor="middle">अतिताम्रेण(2.1)</text></g><g id="node2" class="node"><title>Node1_2</title><ellipse cx="187" cy="-295" fill="#40e0d0" stroke="#40e0d0" rx="78.79" ry="18"/><text x="187" y="-291.3" font-family="Times,serif" font-size="14" text-anchor="middle">देशेन(1.2)</text></g><g id="edge3" class="edge"><title>Node2_1-&gt;Node1_2</title><path fill="none" stroke="#000" d="M155.15,-235.15C162.54,-248.81 171.38,-265.13 177.86,-277.11"/><polygon fill="#000" stroke="#000" points="158.15 -233.33 150.31 -226.2 151.99 -236.66 158.15 -233.33"/><text x="224.5" y="-247.8" font-family="Times,serif" font-size="14" text-anchor="middle">विशेषणम्</text></g><g id="node9" class="node"><title>Node3_1</title><ellipse cx="458" cy="-382" fill="#ff1975" stroke="#ff1975" rx="69.59" ry="18"/><text x="458" y="-378.3" font-family="Times,serif" font-size="14" text-anchor="middle">रराज(3.1)</text></g><g id="edge2" class="edge"><title>Node1_2-&gt;Node3_1</title><path fill="none" stroke="#000" d="M241.03,-312.95C292.26,-329.01 368.2,-352.83 415.32,-367.61"/><polygon fill="#000" stroke="#000" points="242.04 -309.59 231.45 -309.94 239.94 -316.27 242.04 -309.59"/><text x="374" y="-334.8" font-family="Times,serif" font-size="14" text-anchor="middle">करणम्</text></g><g id="node3" class="node"><title>Node4_1</title><ellipse cx="711" cy="-208" fill="#00bfff" stroke="#00bfff" rx="50.89" ry="18"/><text x="711" y="-204.3" font-family="Times,serif" font-size="14" text-anchor="middle">सः(4.1)</text></g><g id="node4" class="node"><title>Node5_2</title><ellipse cx="730" cy="-295" fill="#00bfff" stroke="#00bfff" rx="69.59" ry="18"/><text x="730" y="-291.3" font-family="Times,serif" font-size="14" text-anchor="middle">कपिः(5.2)</text></g><g id="edge4" class="edge"><title>Node4_1-&gt;Node5_2</title><path fill="none" stroke="#000" d="M717.09,-236.27C720.07,-249.58 723.56,-265.19 726.16,-276.82"/><polygon fill="#000" stroke="#000" points="720.44 -235.2 714.84 -226.2 713.61 -236.72 720.44 -235.2"/><text x="778.5" y="-247.8" font-family="Times,serif" font-size="14" text-anchor="middle">विशेषणम्</text></g><g id="edge6" class="edge"><title>Node5_2-&gt;Node3_1</title><path fill="none" stroke="#000" d="M677.89,-312.29C626.4,-328.38 548.58,-352.69 500.65,-367.67"/><polygon fill="#000" stroke="#000" points="679 -315.6 687.5 -309.28 676.91 -308.92 679 -315.6"/><text x="646" y="-334.8" font-family="Times,serif" font-size="14" text-anchor="middle">कर्ता</text></g><g id="node5" class="node"><title>Node6_1</title><ellipse cx="502" cy="-34" fill="#40e0d0" stroke="#40e0d0" rx="69.59" ry="18"/><text x="502" y="-30.3" font-family="Times,serif" font-size="14" text-anchor="middle">महता(6.1)</text></g><g id="node6" class="node"><title>Node10_2</title><ellipse cx="467" cy="-121" fill="#40e0d0" stroke="#40e0d0" rx="93.68" ry="18"/><text x="467" y="-117.3" font-family="Times,serif" font-size="14" text-anchor="middle">धातुना(10.2)</text></g><g id="edge7" class="edge"><title>Node6_1-&gt;Node10_2</title><path fill="none" stroke="#000" d="M491.1,-61.48C485.55,-74.96 478.96,-90.96 474.07,-102.82"/><polygon fill="#000" stroke="#000" points="494.35 -62.78 494.92 -52.2 487.87 -60.12 494.35 -62.78"/><text x="543.5" y="-73.8" font-family="Times,serif" font-size="14" text-anchor="middle">विशेषणम्</text></g><g id="node12" class="node"><title>Node9_1</title><ellipse cx="563" cy="-208" fill="#00bfff" stroke="#00bfff" rx="78.79" ry="18"/><text x="563" y="-204.3" font-family="Times,serif" font-size="14" text-anchor="middle">गिरिः(9.1)</text></g><g id="edge12" class="edge"><title>Node10_2-&gt;Node9_1</title><path fill="none" stroke="#000" d="M476.31,-148.4C480.19,-156.7 485.37,-165.41 492,-172 500.48,-180.43 511.39,-187.17 522.11,-192.4"/><polygon fill="#000" stroke="#000" points="479.45 -146.85 472.34 -139 473 -149.57 479.45 -146.85"/><text x="542" y="-160.8" font-family="Times,serif" font-size="14" text-anchor="middle">सहार्थः</text></g><g id="node7" class="node"><title>Node7_1</title><ellipse cx="318" cy="-34" fill="#40e0d0" stroke="#40e0d0" rx="96.68" ry="18"/><text x="318" y="-30.3" font-family="Times,serif" font-size="14" text-anchor="middle">दारितेन(7.1)</text></g><g id="edge8" class="edge"><title>Node7_1-&gt;Node10_2</title><path fill="none" stroke="#000" d="M335.99,-59.86C343.5,-68.81 352.84,-78.32 363,-85 377.17,-94.31 394.06,-101.38 410.06,-106.64"/><polygon fill="#000" stroke="#000" points="338.62 -57.54 329.64 -51.91 333.15 -61.91 338.62 -57.54"/><text x="420.5" y="-73.8" font-family="Times,serif" font-size="14" text-anchor="middle">विशेषणम्</text></g><g id="node8" class="node"><title>Node1_1</title><ellipse cx="375" cy="-208" fill="#ff0" stroke="#ff0" rx="90.98" ry="18"/><text x="375" y="-204.3" font-family="Times,serif" font-size="14" text-anchor="middle">स्फिक्-(1.1)</text></g><g id="edge1" class="edge"><title>Node1_1-&gt;Node1_2</title><path fill="none" stroke="#000" d="M339.72,-230.67C323.67,-240.04 304.21,-250.74 286,-259 268.57,-266.91 248.78,-274.22 231.5,-280.09"/><polygon fill="#000" stroke="#000" points="341.93 -233.43 348.75 -225.33 338.36 -227.41 341.93 -233.43"/><text x="377.5" y="-247.8" font-family="Times,serif" font-size="14" text-anchor="middle">कर्मधारयः</text></g><g id="node10" class="node"><title>Node5_1</title><ellipse cx="879" cy="-208" fill="#ff0" stroke="#ff0" rx="63.09" ry="18"/><text x="879" y="-204.3" font-family="Times,serif" font-size="14" text-anchor="middle">महा-(5.1)</text></g><g id="edge5" class="edge"><title>Node5_1-&gt;Node5_2</title><path fill="none" stroke="#000" d="M863.64,-234.55C857.28,-243.34 849.22,-252.58 840,-259 823.47,-270.51 802.97,-278.38 784.16,-283.69"/><polygon fill="#000" stroke="#000" points="866.71 -236.26 869.43 -226.02 860.92 -232.33 866.71 -236.26"/><text x="919.5" y="-247.8" font-family="Times,serif" font-size="14" text-anchor="middle">कर्मधारयः</text></g><g id="node11" class="node"><title>Node8_1</title><ellipse cx="639" cy="-121" fill="#f9f" stroke="#f9f" rx="50.89" ry="18"/><text x="639" y="-117.3" font-family="Times,serif" font-size="14" text-anchor="middle">इव(8.1)</text></g><g id="edge9" class="edge"><title>Node8_1-&gt;Node9_1</title><path fill="none" stroke="#000" d="M617.36,-146.2C604.83,-160.22 589.36,-177.52 578.13,-190.08"/><polygon fill="#000" stroke="#000" points="620.29 -148.18 624.35 -138.39 615.07 -143.51 620.29 -148.18"/><text x="694" y="-160.8" font-family="Times,serif" font-size="14" text-anchor="middle">उपमान_द्योतकः</text></g><g id="edge10" class="edge"><title>Node9_1-&gt;Node5_2</title><path fill="none" stroke="#000" d="M583.78,-233.4C592.62,-242.51 603.52,-252.27 615,-259 633.81,-270.04 656.43,-277.89 676.61,-283.33"/><polygon fill="#000" stroke="#000" points="586.25 -230.92 576.88 -225.98 581.13 -235.68 586.25 -230.92"/><text x="665" y="-247.8" font-family="Times,serif" font-size="14" text-anchor="middle">उपमानम्</text></g><g id="node13" class="node"><title>Node10_1</title><ellipse cx="677" cy="-34" fill="#ff0" stroke="#ff0" rx="87.18" ry="18"/><text x="677" y="-30.3" font-family="Times,serif" font-size="14" text-anchor="middle">गैरिक-(10.1)</text></g><g id="edge11" class="edge"><title>Node10_1-&gt;Node10_2</title><path fill="none" stroke="#000" d="M649.14,-57.85C636.34,-67.4 620.56,-77.91 605,-85 582.51,-95.25 556.53,-102.83 533.22,-108.27"/><polygon fill="#000" stroke="#000" points="651.28 -60.62 657.09 -51.76 647.02 -55.07 651.28 -60.62"/><text x="694.5" y="-73.8" font-family="Times,serif" font-size="14" text-anchor="middle">कर्मधारयः</text></g></g></svg>