<svg xmlns="http://www.w3.org/2000/svg" xmlns:xlink="http://www.w3.org/1999/xlink" width="2000" height="479pt" viewBox="0 0 1500 479"><g id="graph0" class="graph" transform="scale(1 1) rotate(0) translate(4 475)"><title>G</title><polygon fill="#fffacd" stroke="transparent" points="-4 4 -4 -475 1496 -475 1496 4 -4 4"/><g id="clust1" class="cluster"><title>cluster_1</title><polygon fill="#fffacd" stroke="#000" points="757 -79 757 -305 1484 -305 1484 -79 757 -79"/></g><g id="clust2" class="cluster"><title>cluster_2</title><polygon fill="#fffacd" stroke="#000" points="8 -79 8 -305 443 -305 443 -79 8 -79"/></g><g id="node1" class="node"><title>Node2_1</title><ellipse cx="1351" cy="-192" fill="#93db70" stroke="#93db70" rx="124.58" ry="18"/><text x="1351" y="-188.3" font-family="Times,serif" font-size="14" text-anchor="middle">उच्चावचान्(2.1)</text></g><g id="node2" class="node"><title>Node1_1</title><ellipse cx="936" cy="-279" fill="#93db70" stroke="#93db70" rx="106.68" ry="18"/><text x="936" y="-275.3" font-family="Times,serif" font-size="14" text-anchor="middle">लेह्यान्(1.1)</text></g><g id="edge2" class="edge"><title>Node2_1-&gt;Node1_1</title><path fill="none" stroke="#000" d="M1300.8,-212.69C1272.48,-223.1 1236.2,-235.29 1203,-243 1146.07,-256.21 1081.08,-264.87 1029.47,-270.26"/><polygon fill="#000" stroke="#000" points="1302.32 -215.86 1310.47 -209.09 1299.88 -209.3 1302.32 -215.86"/><text x="1316.5" y="-231.8" font-family="Times,serif" font-size="14" text-anchor="middle">समुच्चितः</text></g><g id="node10" class="node"><title>Node14_1</title><ellipse cx="704" cy="-366" fill="#f9f" stroke="#f9f" rx="100.98" ry="18"/><text x="704" y="-362.3" font-family="Times,serif" font-size="14" text-anchor="middle">(हित्वा)(14.1)</text></g><g id="edge1" class="edge"><title>Node1_1-&gt;Node14_1</title><path fill="none" stroke="#000" d="M884.05,-299.03C842.52,-314.25 785.03,-335.31 746.28,-349.51"/><polygon fill="#000" stroke="#000" points="885.26 -302.32 893.45 -295.59 882.85 -295.74 885.26 -302.32"/><text x="862" y="-318.8" font-family="Times,serif" font-size="14" text-anchor="middle">कर्म</text></g><g id="node3" class="node"><title>Node3_1</title><ellipse cx="1093" cy="-192" fill="#93db70" stroke="#93db70" rx="115.88" ry="18"/><text x="1093" y="-188.3" font-family="Times,serif" font-size="14" text-anchor="middle">भक्ष्यान्(3.1)</text></g><g id="edge3" class="edge"><title>Node3_1-&gt;Node1_1</title><path fill="none" stroke="#000" d="M1078.23,-218.66C1072.05,-227.47 1064.16,-236.69 1055,-243 1040.46,-253.02 1023.03,-260.21 1006.04,-265.36"/><polygon fill="#000" stroke="#000" points="1081.28 -220.4 1083.83 -210.11 1075.42 -216.56 1081.28 -220.4"/><text x="1134.5" y="-231.8" font-family="Times,serif" font-size="14" text-anchor="middle">समुच्चितः</text></g><g id="node4" class="node"><title>Node4_1</title><ellipse cx="862" cy="-192" fill="#93db70" stroke="#93db70" rx="96.68" ry="18"/><text x="862" y="-188.3" font-family="Times,serif" font-size="14" text-anchor="middle">मांसानि(4.1)</text></g><g id="edge4" class="edge"><title>Node4_1-&gt;Node1_1</title><path fill="none" stroke="#000" d="M900.54,-215.2C905.45,-219.06 910.11,-223.35 914,-228 922.03,-237.6 927.63,-250.6 931.17,-260.93"/><polygon fill="#000" stroke="#000" points="902.28 -212.15 892.12 -209.13 898.18 -217.82 902.28 -212.15"/><text x="986.5" y="-231.8" font-family="Times,serif" font-size="14" text-anchor="middle">समुच्चितः</text></g><g id="node5" class="node"><title>Node5_1</title><ellipse cx="872" cy="-105" fill="#93db70" stroke="#93db70" rx="106.68" ry="18"/><text x="872" y="-101.3" font-family="Times,serif" font-size="14" text-anchor="middle">विविधानि(5.1)</text></g><g id="edge5" class="edge"><title>Node5_1-&gt;Node4_1</title><path fill="none" stroke="#000" d="M868.79,-133.27C867.23,-146.58 865.39,-162.19 864.02,-173.82"/><polygon fill="#000" stroke="#000" points="872.28 -133.54 869.98 -123.2 865.33 -132.72 872.28 -133.54"/><text x="924.5" y="-144.8" font-family="Times,serif" font-size="14" text-anchor="middle">विशेषणम्</text></g><g id="node6" class="node"><title>Node7_1</title><ellipse cx="328" cy="-192" fill="#93db70" stroke="#93db70" rx="106.68" ry="18"/><text x="328" y="-188.3" font-family="Times,serif" font-size="14" text-anchor="middle">आर्षभाणि(7.1)</text></g><g id="node7" class="node"><title>Node9_1</title><ellipse cx="329" cy="-279" fill="#93db70" stroke="#93db70" rx="96.68" ry="18"/><text x="329" y="-275.3" font-family="Times,serif" font-size="14" text-anchor="middle">चर्माणि(9.1)</text></g><g id="edge7" class="edge"><title>Node7_1-&gt;Node9_1</title><path fill="none" stroke="#000" d="M328.32,-220.27C328.48,-233.58 328.66,-249.19 328.8,-260.82"/><polygon fill="#000" stroke="#000" points="331.82 -220.16 328.2 -210.2 324.82 -220.24 331.82 -220.16"/><text x="386.5" y="-231.8" font-family="Times,serif" font-size="14" text-anchor="middle">विशेषणम्</text></g><g id="edge9" class="edge"><title>Node9_1-&gt;Node14_1</title><path fill="none" stroke="#000" d="M398.13,-295.67C468.69,-311.66 577.08,-336.23 644.1,-351.42"/><polygon fill="#000" stroke="#000" points="398.53 -292.17 388.01 -293.37 396.99 -299 398.53 -292.17"/><text x="568" y="-318.8" font-family="Times,serif" font-size="14" text-anchor="middle">कर्म</text></g><g id="node8" class="node"><title>Node10_1</title><ellipse cx="110" cy="-192" fill="#93db70" stroke="#93db70" rx="93.68" ry="18"/><text x="110" y="-188.3" font-family="Times,serif" font-size="14" text-anchor="middle">खडगान्(10.1)</text></g><g id="edge10" class="edge"><title>Node10_1-&gt;Node9_1</title><path fill="none" stroke="#000" d="M143.02,-215.01C158.59,-224.64 177.72,-235.44 196,-243 218.29,-252.21 243.69,-259.6 266.28,-265.18"/><polygon fill="#000" stroke="#000" points="144.62 -211.88 134.3 -209.51 140.89 -217.8 144.62 -211.88"/><text x="260.5" y="-231.8" font-family="Times,serif" font-size="14" text-anchor="middle">समुच्चितः</text></g><g id="node9" class="node"><title>Node12_2</title><ellipse cx="119" cy="-105" fill="#93db70" stroke="#93db70" rx="102.88" ry="18"/><text x="119" y="-101.3" font-family="Times,serif" font-size="14" text-anchor="middle">त्सरून्(12.2)</text></g><g id="edge13" class="edge"><title>Node12_2-&gt;Node10_1</title><path fill="none" stroke="#000" d="M116.11,-133.27C114.7,-146.58 113.05,-162.19 111.82,-173.82"/><polygon fill="#000" stroke="#000" points="119.61 -133.51 117.18 -123.2 112.65 -132.78 119.61 -133.51"/><text x="173.5" y="-144.8" font-family="Times,serif" font-size="14" text-anchor="middle">विशेषणम्</text></g><g id="node14" class="node"><title>Node13_1</title><ellipse cx="607" cy="-453" fill="#ff1975" stroke="#ff1975" rx="118.88" ry="18"/><text x="607" y="-449.3" font-family="Times,serif" font-size="14" text-anchor="middle">(उत्पेतुः)(13.1)</text></g><g id="edge14" class="edge"><title>Node14_1-&gt;Node13_1</title><path fill="none" stroke="#000" d="M688.68,-392.61C682.88,-401.01 675.78,-409.98 668,-417 660.11,-424.11 650.54,-430.44 641.34,-435.68"/><polygon fill="#000" stroke="#000" points="691.66 -394.45 694.22 -384.17 685.81 -390.61 691.66 -394.45"/><text x="745.5" y="-405.8" font-family="Times,serif" font-size="14" text-anchor="middle">पूर्वकालः</text></g><g id="node11" class="node"><title>Node6_1</title><ellipse cx="706" cy="-192" fill="#f9f" stroke="#f9f" rx="41.69" ry="18"/><text x="706" y="-188.3" font-family="Times,serif" font-size="14" text-anchor="middle">च(6.1)</text></g><g id="edge6" class="edge"><title>Node6_1-&gt;Node1_1</title><path fill="none" stroke="#000" d="M697.51,-220.23C696.65,-228.38 697.65,-236.79 703,-243 719.98,-262.72 777.65,-271.49 831.36,-275.31"/><polygon fill="#000" stroke="#000" points="700.99 -220.71 699.43 -210.23 694.11 -219.39 700.99 -220.71"/><text x="806.5" y="-231.8" font-family="Times,serif" font-size="14" text-anchor="middle">समुच्चय_द्योतकः</text></g><g id="node12" class="node"><title>Node8_1</title><ellipse cx="494" cy="-192" fill="#f9f" stroke="#f9f" rx="41.69" ry="18"/><text x="494" y="-188.3" font-family="Times,serif" font-size="14" text-anchor="middle">च(8.1)</text></g><g id="edge8" class="edge"><title>Node8_1-&gt;Node9_1</title><path fill="none" stroke="#000" d="M476.22,-217.39C468.46,-226.55 458.69,-236.35 448,-243 431.82,-253.07 412.6,-260.36 394.38,-265.59"/><polygon fill="#000" stroke="#000" points="478.95 -219.58 482.5 -209.6 473.5 -215.19 478.95 -219.58"/><text x="569.5" y="-231.8" font-family="Times,serif" font-size="14" text-anchor="middle">समुच्चय_द्योतकः</text></g><g id="node13" class="node"><title>Node11_1</title><ellipse cx="538" cy="-366" fill="#f9f" stroke="#f9f" rx="47.39" ry="18"/><text x="538" y="-362.3" font-family="Times,serif" font-size="14" text-anchor="middle">च(11.1)</text></g><g id="edge11" class="edge"><title>Node11_1-&gt;Node13_1</title><path fill="none" stroke="#000" d="M542.36,-393.85C544.59,-401.85 547.95,-410.27 553,-417 558.5,-424.33 566.01,-430.55 573.69,-435.63"/><polygon fill="#000" stroke="#000" points="545.77 -393.04 540.1 -384.09 538.95 -394.63 545.77 -393.04"/><text x="610.5" y="-405.8" font-family="Times,serif" font-size="14" text-anchor="middle">सम्बन्धः</text></g><g id="node15" class="node"><title>Node12_1</title><ellipse cx="119" cy="-18" fill="#ff0" stroke="#ff0" rx="68.79" ry="18"/><text x="119" y="-14.3" font-family="Times,serif" font-size="14" text-anchor="middle">कनक-(12.1)</text></g><g id="edge12" class="edge"><title>Node12_1-&gt;Node12_2</title><path fill="none" stroke="#000" d="M119,-46.27C119,-59.58 119,-75.19 119,-86.82"/><polygon fill="#000" stroke="#000" points="122.5 -46.2 119 -36.2 115.5 -46.2 122.5 -46.2"/><text x="222.5" y="-57.8" font-family="Times,serif" font-size="14" text-anchor="middle">षष्ठी_तत्पुरुषः</text></g></g></svg>