<svg xmlns="http://www.w3.org/2000/svg" xmlns:xlink="http://www.w3.org/1999/xlink" width="1792" height="392pt" viewBox="0 0 1343.6 392"><g id="graph0" class="graph" transform="scale(1 1) rotate(0) translate(4 388)"><title>G</title><polygon fill="#fffacd" stroke="transparent" points="-4 4 -4 -388 1339.6 -388 1339.6 4 -4 4"/><g id="clust1" class="cluster"><title>cluster_1</title><polygon fill="#fffacd" stroke="#000" points="266.6 -166 266.6 -305 1288.6 -305 1288.6 -166 266.6 -166"/></g><g id="node1" class="node"><title>Node1_3</title><ellipse cx="353.6" cy="-192" fill="#00bfff" stroke="#00bfff" rx="78.79" ry="18"/><text x="353.6" y="-188.3" font-family="Times,serif" font-size="14" text-anchor="middle">गुणाः(1.3)</text></g><g id="node2" class="node"><title>Node9_2</title><ellipse cx="565.6" cy="-279" fill="#00bfff" stroke="#00bfff" rx="69.59" ry="18"/><text x="565.6" y="-275.3" font-family="Times,serif" font-size="14" text-anchor="middle">धराः(9.2)</text></g><g id="edge3" class="edge"><title>Node1_3-&gt;Node9_2</title><path fill="none" stroke="#000" d="M389.15,-214.36C406.13,-223.98 426.99,-234.95 446.6,-243 469.11,-252.24 494.93,-260.15 516.76,-266.09"/><polygon fill="#000" stroke="#000" points="390.55 -211.13 380.14 -209.18 387.07 -217.2 390.55 -211.13"/><text x="504.1" y="-231.8" font-family="Times,serif" font-size="14" text-anchor="middle">विशेषणम्</text></g><g id="node14" class="node"><title>Node8_1</title><ellipse cx="179.6" cy="-366" fill="#ff1975" stroke="#ff1975" rx="133.78" ry="18"/><text x="179.6" y="-362.3" font-family="Times,serif" font-size="14" text-anchor="middle">प्रतिपेदिरे(8.1)</text></g><g id="edge15" class="edge"><title>Node9_2-&gt;Node8_1</title><path fill="none" stroke="#000" d="M504.29,-293.5C433.91,-309 318.87,-334.33 246.3,-350.31"/><polygon fill="#000" stroke="#000" points="505.33 -296.86 514.34 -291.29 503.82 -290.02 505.33 -296.86"/><text x="431.6" y="-318.8" font-family="Times,serif" font-size="14" text-anchor="middle">कर्ता</text></g><g id="node3" class="node"><title>Node2_1</title><ellipse cx="989.6" cy="-192" fill="#00bfff" stroke="#00bfff" rx="96.68" ry="18"/><text x="989.6" y="-188.3" font-family="Times,serif" font-size="14" text-anchor="middle">क्षीबाः(2.1)</text></g><g id="edge4" class="edge"><title>Node2_1-&gt;Node9_2</title><path fill="none" stroke="#000" d="M939.93,-211.99C910.56,-222.55 872.4,-235.11 837.6,-243 768.06,-258.76 686.8,-268.06 631.33,-273.06"/><polygon fill="#000" stroke="#000" points="941.34 -215.2 949.54 -208.49 938.95 -208.62 941.34 -215.2"/><text x="945.1" y="-231.8" font-family="Times,serif" font-size="14" text-anchor="middle">विशेषणम्</text></g><g id="node4" class="node"><title>Node3_3</title><ellipse cx="565.6" cy="-192" fill="#00bfff" stroke="#00bfff" rx="115.88" ry="18"/><text x="565.6" y="-188.3" font-family="Times,serif" font-size="14" text-anchor="middle">अनुलेपनाः(3.3)</text></g><g id="edge7" class="edge"><title>Node3_3-&gt;Node9_2</title><path fill="none" stroke="#000" d="M565.6,-220.27C565.6,-233.58 565.6,-249.19 565.6,-260.82"/><polygon fill="#000" stroke="#000" points="569.1 -220.2 565.6 -210.2 562.1 -220.2 569.1 -220.2"/><text x="623.1" y="-231.8" font-family="Times,serif" font-size="14" text-anchor="middle">विशेषणम्</text></g><g id="node5" class="node"><title>Node4_2</title><ellipse cx="786.6" cy="-192" fill="#00bfff" stroke="#00bfff" rx="87.99" ry="18"/><text x="786.6" y="-188.3" font-family="Times,serif" font-size="14" text-anchor="middle">अक्षाः(4.2)</text></g><g id="edge9" class="edge"><title>Node4_2-&gt;Node9_2</title><path fill="none" stroke="#000" d="M748.41,-213.64C729.55,-223.33 706.24,-234.58 684.6,-243 661.72,-251.9 635.62,-259.81 613.7,-265.85"/><polygon fill="#000" stroke="#000" points="750.03 -216.74 757.29 -209.02 746.8 -210.53 750.03 -216.74"/><text x="776.1" y="-231.8" font-family="Times,serif" font-size="14" text-anchor="middle">विशेषणम्</text></g><g id="node6" class="node"><title>Node5_2</title><ellipse cx="1192.6" cy="-192" fill="#00bfff" stroke="#00bfff" rx="87.99" ry="18"/><text x="1192.6" y="-188.3" font-family="Times,serif" font-size="14" text-anchor="middle">अक्षाः(5.2)</text></g><g id="edge11" class="edge"><title>Node5_2-&gt;Node9_2</title><path fill="none" stroke="#000" d="M1137.63,-210.63C1100.91,-221.69 1051.32,-235.28 1006.6,-243 876.23,-265.5 721.64,-273.57 634.45,-276.44"/><polygon fill="#000" stroke="#000" points="1139.09 -213.84 1147.63 -207.58 1137.05 -207.14 1139.09 -213.84"/><text x="1131.1" y="-231.8" font-family="Times,serif" font-size="14" text-anchor="middle">विशेषणम्</text></g><g id="node7" class="node"><title>Node1_1</title><ellipse cx="353.6" cy="-18" fill="#ff0" stroke="#ff0" rx="63.09" ry="18"/><text x="353.6" y="-14.3" font-family="Times,serif" font-size="14" text-anchor="middle">कृत-(1.1)</text></g><g id="node8" class="node"><title>Node1_2</title><ellipse cx="353.6" cy="-105" fill="#ff0" stroke="#ff0" rx="72.29" ry="18"/><text x="353.6" y="-101.3" font-family="Times,serif" font-size="14" text-anchor="middle">कण्ठ-(1.2)</text></g><g id="edge1" class="edge"><title>Node1_1-&gt;Node1_2</title><path fill="none" stroke="#000" d="M353.6,-46.27C353.6,-59.58 353.6,-75.19 353.6,-86.82"/><polygon fill="#000" stroke="#000" points="357.1 -46.2 353.6 -36.2 350.1 -46.2 357.1 -46.2"/><text x="425.1" y="-57.8" font-family="Times,serif" font-size="14" text-anchor="middle">बहुव्रीहिः</text></g><g id="edge2" class="edge"><title>Node1_2-&gt;Node1_3</title><path fill="none" stroke="#000" d="M353.6,-133.27C353.6,-146.58 353.6,-162.19 353.6,-173.82"/><polygon fill="#000" stroke="#000" points="357.1 -133.2 353.6 -123.2 350.1 -133.2 357.1 -133.2"/><text x="425.1" y="-144.8" font-family="Times,serif" font-size="14" text-anchor="middle">बहुव्रीहिः</text></g><g id="node9" class="node"><title>Node3_1</title><ellipse cx="565.6" cy="-18" fill="#ff0" stroke="#ff0" rx="72.29" ry="18"/><text x="565.6" y="-14.3" font-family="Times,serif" font-size="14" text-anchor="middle">रक्त-(3.1)</text></g><g id="node10" class="node"><title>Node3_2</title><ellipse cx="565.6" cy="-105" fill="#ff0" stroke="#ff0" rx="81.49" ry="18"/><text x="565.6" y="-101.3" font-family="Times,serif" font-size="14" text-anchor="middle">माल्य-(3.2)</text></g><g id="edge5" class="edge"><title>Node3_1-&gt;Node3_2</title><path fill="none" stroke="#000" d="M565.6,-46.27C565.6,-59.58 565.6,-75.19 565.6,-86.82"/><polygon fill="#000" stroke="#000" points="569.1 -46.2 565.6 -36.2 562.1 -46.2 569.1 -46.2"/><text x="630.1" y="-57.8" font-family="Times,serif" font-size="14" text-anchor="middle">कर्मधारयः</text></g><g id="edge6" class="edge"><title>Node3_2-&gt;Node3_3</title><path fill="none" stroke="#000" d="M565.6,-133.27C565.6,-146.58 565.6,-162.19 565.6,-173.82"/><polygon fill="#000" stroke="#000" points="569.1 -133.2 565.6 -123.2 562.1 -133.2 569.1 -133.2"/><text x="637.1" y="-144.8" font-family="Times,serif" font-size="14" text-anchor="middle">बहुव्रीहिः</text></g><g id="node11" class="node"><title>Node4_1</title><ellipse cx="786.6" cy="-105" fill="#ff0" stroke="#ff0" rx="72.29" ry="18"/><text x="786.6" y="-101.3" font-family="Times,serif" font-size="14" text-anchor="middle">रक्त-(4.1)</text></g><g id="edge8" class="edge"><title>Node4_1-&gt;Node4_2</title><path fill="none" stroke="#000" d="M786.6,-133.27C786.6,-146.58 786.6,-162.19 786.6,-173.82"/><polygon fill="#000" stroke="#000" points="790.1 -133.2 786.6 -123.2 783.1 -133.2 790.1 -133.2"/><text x="858.1" y="-144.8" font-family="Times,serif" font-size="14" text-anchor="middle">बहुव्रीहिः</text></g><g id="node12" class="node"><title>Node5_1</title><ellipse cx="1192.6" cy="-105" fill="#ff0" stroke="#ff0" rx="90.98" ry="18"/><text x="1192.6" y="-101.3" font-family="Times,serif" font-size="14" text-anchor="middle">पुष्कर-(5.1)</text></g><g id="edge10" class="edge"><title>Node5_1-&gt;Node5_2</title><path fill="none" stroke="#000" d="M1192.6,-133.27C1192.6,-146.58 1192.6,-162.19 1192.6,-173.82"/><polygon fill="#000" stroke="#000" points="1196.1 -133.2 1192.6 -123.2 1189.1 -133.2 1196.1 -133.2"/><text x="1264.1" y="-144.8" font-family="Times,serif" font-size="14" text-anchor="middle">बहुव्रीहिः</text></g><g id="node13" class="node"><title>Node6_1</title><ellipse cx="41.6" cy="-279" fill="#f9f" stroke="#f9f" rx="41.69" ry="18"/><text x="41.6" y="-275.3" font-family="Times,serif" font-size="14" text-anchor="middle">च(6.1)</text></g><g id="edge12" class="edge"><title>Node6_1-&gt;Node8_1</title><path fill="none" stroke="#000" d="M46.86,-306.9C49.69,-315.28 54.01,-323.9 60.6,-330 71.03,-339.66 83.99,-346.66 97.48,-351.74"/><polygon fill="#000" stroke="#000" points="50.15 -305.7 44.1 -297 43.41 -307.58 50.15 -305.7"/><text x="118.1" y="-318.8" font-family="Times,serif" font-size="14" text-anchor="middle">सम्बन्धः</text></g><g id="node15" class="node"><title>Node7_1</title><ellipse cx="179.6" cy="-279" fill="#93db70" stroke="#93db70" rx="78.79" ry="18"/><text x="179.6" y="-275.3" font-family="Times,serif" font-size="14" text-anchor="middle">गगनम्(7.1)</text></g><g id="edge13" class="edge"><title>Node7_1-&gt;Node8_1</title><path fill="none" stroke="#000" d="M179.6,-307.27C179.6,-320.58 179.6,-336.19 179.6,-347.82"/><polygon fill="#000" stroke="#000" points="183.1 -307.2 179.6 -297.2 176.1 -307.2 183.1 -307.2"/><text x="208.6" y="-318.8" font-family="Times,serif" font-size="14" text-anchor="middle">कर्म</text></g><g id="node16" class="node"><title>Node9_1</title><ellipse cx="165.6" cy="-192" fill="#ff0" stroke="#ff0" rx="90.98" ry="18"/><text x="165.6" y="-188.3" font-family="Times,serif" font-size="14" text-anchor="middle">विद्या-(9.1)</text></g><g id="edge14" class="edge"><title>Node9_1-&gt;Node9_2</title><path fill="none" stroke="#000" d="M205.25,-213.43C227.2,-223.88 255.3,-235.87 281.6,-243 353.88,-262.6 439.51,-271.25 497.71,-275.06"/><polygon fill="#000" stroke="#000" points="206.76 -210.28 196.24 -209.07 203.71 -216.58 206.76 -210.28"/><text x="346.1" y="-231.8" font-family="Times,serif" font-size="14" text-anchor="middle">तत्पुरुषः</text></g></g></svg>