<?xml version="1.0" encoding="UTF-8" standalone="no"?>
<!DOCTYPE svg PUBLIC "-//W3C//DTD SVG 1.1//EN"
 "http://www.w3.org/Graphics/SVG/1.1/DTD/svg11.dtd">
<!-- Generated by graphviz version 2.43.0 (0)
 -->
<!-- Title: G Pages: 1 -->
<svg width="1802pt" height="392pt"
 viewBox="0.00 0.00 1802.00 392.00" xmlns="http://www.w3.org/2000/svg" xmlns:xlink="http://www.w3.org/1999/xlink">
<g id="graph0" class="graph" transform="scale(1 1) rotate(0) translate(4 388)">
<title>G</title>
<polygon fill="#fffacd" stroke="transparent" points="-4,4 -4,-388 1798,-388 1798,4 -4,4"/>
<g id="clust1" class="cluster">
<title>cluster_1</title>
<polygon fill="#fffacd" stroke="black" points="1179,-79 1179,-218 1752,-218 1752,-79 1179,-79"/>
</g>
<g id="clust2" class="cluster">
<title>cluster_2</title>
<polygon fill="#fffacd" stroke="black" points="8,-166 8,-305 268,-305 268,-166 8,-166"/>
</g>
<!-- Node8_2 -->
<g id="node1" class="node">
<title>Node8_2</title>
<ellipse fill="#93db70" stroke="#93db70" cx="1665" cy="-105" rx="78.79" ry="18"/>
<text text-anchor="middle" x="1665" y="-101.3" font-family="Times,serif" font-size="14.00">धराम्(8.2)</text>
</g>
<!-- Node3_1 -->
<g id="node2" class="node">
<title>Node3_1</title>
<ellipse fill="#93db70" stroke="#93db70" cx="1300" cy="-192" rx="69.59" ry="18"/>
<text text-anchor="middle" x="1300" y="-188.3" font-family="Times,serif" font-size="14.00">भुजौ(3.1)</text>
</g>
<!-- Node8_2&#45;&gt;Node3_1 -->
<g id="edge9" class="edge">
<title>Node8_2&#45;&gt;Node3_1</title>
<path fill="none" stroke="black" d="M1637.79,-128.66C1624.25,-138.71 1607.14,-149.66 1590,-156 1518.05,-182.59 1429.89,-189.98 1369.79,-191.57"/>
<polygon fill="black" stroke="black" points="1639.92,-131.44 1645.72,-122.57 1635.66,-125.88 1639.92,-131.44"/>
<text text-anchor="middle" x="1683.5" y="-144.8" font-family="Times,serif" font-size="14.00">समुच्चितः</text>
</g>
<!-- Node1_1 -->
<g id="node7" class="node">
<title>Node1_1</title>
<ellipse fill="#ff99ff" stroke="#ff99ff" cx="1147" cy="-279" rx="96.68" ry="18"/>
<text text-anchor="middle" x="1147" y="-275.3" font-family="Times,serif" font-size="14.00">संहृत्य(1.1)</text>
</g>
<!-- Node3_1&#45;&gt;Node1_1 -->
<g id="edge3" class="edge">
<title>Node3_1&#45;&gt;Node1_1</title>
<path fill="none" stroke="black" d="M1262.91,-213.61C1236.26,-228.41 1200.83,-248.09 1176.19,-261.79"/>
<polygon fill="black" stroke="black" points="1264.9,-216.51 1271.94,-208.59 1261.5,-210.39 1264.9,-216.51"/>
<text text-anchor="middle" x="1262" y="-231.8" font-family="Times,serif" font-size="14.00">कर्म</text>
</g>
<!-- Node9_1 -->
<g id="node3" class="node">
<title>Node9_1</title>
<ellipse fill="#93db70" stroke="#93db70" cx="1499" cy="-105" rx="69.59" ry="18"/>
<text text-anchor="middle" x="1499" y="-101.3" font-family="Times,serif" font-size="14.00">तेजः(9.1)</text>
</g>
<!-- Node9_1&#45;&gt;Node3_1 -->
<g id="edge10" class="edge">
<title>Node9_1&#45;&gt;Node3_1</title>
<path fill="none" stroke="black" d="M1473.29,-129.22C1461.67,-138.68 1447.35,-149.02 1433,-156 1408.95,-167.7 1380.49,-175.86 1356.08,-181.34"/>
<polygon fill="black" stroke="black" points="1475.83,-131.66 1481.23,-122.54 1471.32,-126.3 1475.83,-131.66"/>
<text text-anchor="middle" x="1521.5" y="-144.8" font-family="Times,serif" font-size="14.00">समुच्चितः</text>
</g>
<!-- Node10_1 -->
<g id="node4" class="node">
<title>Node10_1</title>
<ellipse fill="#93db70" stroke="#93db70" cx="1299" cy="-105" rx="112.38" ry="18"/>
<text text-anchor="middle" x="1299" y="-101.3" font-family="Times,serif" font-size="14.00">सत्त्वम्(10.1)</text>
</g>
<!-- Node10_1&#45;&gt;Node3_1 -->
<g id="edge11" class="edge">
<title>Node10_1&#45;&gt;Node3_1</title>
<path fill="none" stroke="black" d="M1299.32,-133.27C1299.48,-146.58 1299.66,-162.19 1299.8,-173.82"/>
<polygon fill="black" stroke="black" points="1302.82,-133.16 1299.2,-123.2 1295.82,-133.24 1302.82,-133.16"/>
<text text-anchor="middle" x="1364.5" y="-144.8" font-family="Times,serif" font-size="14.00">समुच्चितः</text>
</g>
<!-- Node15_1 -->
<g id="node5" class="node">
<title>Node15_1</title>
<ellipse fill="#00bfff" stroke="#00bfff" cx="138" cy="-192" rx="121.58" ry="18"/>
<text text-anchor="middle" x="138" y="-188.3" font-family="Times,serif" font-size="14.00">वीर्यवान्(15.1)</text>
</g>
<!-- Node14_1 -->
<g id="node6" class="node">
<title>Node14_1</title>
<ellipse fill="#00bfff" stroke="#00bfff" cx="172" cy="-279" rx="56.59" ry="18"/>
<text text-anchor="middle" x="172" y="-275.3" font-family="Times,serif" font-size="14.00">सः(14.1)</text>
</g>
<!-- Node15_1&#45;&gt;Node14_1 -->
<g id="edge15" class="edge">
<title>Node15_1&#45;&gt;Node14_1</title>
<path fill="none" stroke="black" d="M148.62,-219.54C154.05,-233.12 160.5,-249.24 165.25,-261.11"/>
<polygon fill="black" stroke="black" points="151.84,-218.19 144.88,-210.2 145.34,-220.79 151.84,-218.19"/>
<text text-anchor="middle" x="215.5" y="-231.8" font-family="Times,serif" font-size="14.00">विशेषणम्</text>
</g>
<!-- Node13_1 -->
<g id="node8" class="node">
<title>Node13_1</title>
<ellipse fill="#ff1975" stroke="#ff1975" cx="612" cy="-366" rx="93.68" ry="18"/>
<text text-anchor="middle" x="612" y="-362.3" font-family="Times,serif" font-size="14.00">आविवेश(13.1)</text>
</g>
<!-- Node14_1&#45;&gt;Node13_1 -->
<g id="edge14" class="edge">
<title>Node14_1&#45;&gt;Node13_1</title>
<path fill="none" stroke="black" d="M206.06,-300.26C225.57,-310.91 250.91,-323.13 275,-330 355.33,-352.9 450.23,-361.16 518.82,-363.98"/>
<polygon fill="black" stroke="black" points="207.69,-297.17 197.25,-295.35 204.28,-303.28 207.69,-297.17"/>
<text text-anchor="middle" x="311" y="-318.8" font-family="Times,serif" font-size="14.00">कर्ता</text>
</g>
<!-- Node1_1&#45;&gt;Node13_1 -->
<g id="edge1" class="edge">
<title>Node1_1&#45;&gt;Node13_1</title>
<path fill="none" stroke="black" d="M1087.23,-297.19C1047.5,-308.04 993.99,-321.56 946,-330 862.74,-344.64 766.64,-353.93 698.97,-359.23"/>
<polygon fill="black" stroke="black" points="1088.32,-300.52 1097.03,-294.49 1086.46,-293.77 1088.32,-300.52"/>
<text text-anchor="middle" x="1077.5" y="-318.8" font-family="Times,serif" font-size="14.00">पूर्वकालः</text>
</g>
<!-- Node2_1 -->
<g id="node9" class="node">
<title>Node2_1</title>
<ellipse fill="#ff99ff" stroke="#ff99ff" cx="1070" cy="-105" rx="41.69" ry="18"/>
<text text-anchor="middle" x="1070" y="-101.3" font-family="Times,serif" font-size="14.00">च(2.1)</text>
</g>
<!-- Node2_1&#45;&gt;Node3_1 -->
<g id="edge2" class="edge">
<title>Node2_1&#45;&gt;Node3_1</title>
<path fill="none" stroke="black" d="M1074.45,-132.95C1077.22,-141.59 1081.72,-150.36 1089,-156 1105.09,-168.45 1159.91,-162.81 1180,-166 1203.12,-169.67 1228.53,-174.8 1249.99,-179.46"/>
<polygon fill="black" stroke="black" points="1077.8,-131.9 1071.93,-123.08 1071.01,-133.63 1077.8,-131.9"/>
<text text-anchor="middle" x="1192.5" y="-144.8" font-family="Times,serif" font-size="14.00">समुच्चय_द्योतकः</text>
</g>
<!-- Node4_1 -->
<g id="node10" class="node">
<title>Node4_1</title>
<ellipse fill="#00bfff" stroke="#00bfff" cx="1064" cy="-192" rx="106.68" ry="18"/>
<text text-anchor="middle" x="1064" y="-188.3" font-family="Times,serif" font-size="14.00">श्रीमान्(4.1)</text>
</g>
<!-- Node4_1&#45;&gt;Node1_1 -->
<g id="edge4" class="edge">
<title>Node4_1&#45;&gt;Node1_1</title>
<path fill="none" stroke="black" d="M1087.65,-217.22C1101.4,-231.3 1118.37,-248.68 1130.64,-261.24"/>
<polygon fill="black" stroke="black" points="1089.89,-214.5 1080.4,-209.79 1084.88,-219.39 1089.89,-214.5"/>
<text text-anchor="middle" x="1147" y="-231.8" font-family="Times,serif" font-size="14.00">कर्ता</text>
</g>
<!-- Node5_1 -->
<g id="node11" class="node">
<title>Node5_1</title>
<ellipse fill="#ff99ff" stroke="#ff99ff" cx="336" cy="-279" rx="59.59" ry="18"/>
<text text-anchor="middle" x="336" y="-275.3" font-family="Times,serif" font-size="14.00">तथा(5.1)</text>
</g>
<!-- Node5_1&#45;&gt;Node13_1 -->
<g id="edge5" class="edge">
<title>Node5_1&#45;&gt;Node13_1</title>
<path fill="none" stroke="black" d="M345.2,-306.46C349.56,-315.28 355.68,-324.3 364,-330 389.34,-347.35 462.22,-356.21 522.46,-360.66"/>
<polygon fill="black" stroke="black" points="348.34,-304.91 341.14,-297.13 341.92,-307.7 348.34,-304.91"/>
<text text-anchor="middle" x="421.5" y="-318.8" font-family="Times,serif" font-size="14.00">सम्बन्धः</text>
</g>
<!-- Node6_1 -->
<g id="node12" class="node">
<title>Node6_1</title>
<ellipse fill="#ff99ff" stroke="#ff99ff" cx="474" cy="-279" rx="50.89" ry="18"/>
<text text-anchor="middle" x="474" y="-275.3" font-family="Times,serif" font-size="14.00">एव(6.1)</text>
</g>
<!-- Node6_1&#45;&gt;Node13_1 -->
<g id="edge6" class="edge">
<title>Node6_1&#45;&gt;Node13_1</title>
<path fill="none" stroke="black" d="M479.26,-306.9C482.09,-315.28 486.41,-323.9 493,-330 505.64,-341.7 522,-349.51 538.53,-354.71"/>
<polygon fill="black" stroke="black" points="482.56,-305.7 476.5,-297 475.82,-307.58 482.56,-305.7"/>
<text text-anchor="middle" x="550.5" y="-318.8" font-family="Times,serif" font-size="14.00">सम्बन्धः</text>
</g>
<!-- Node7_1 -->
<g id="node13" class="node">
<title>Node7_1</title>
<ellipse fill="#ff99ff" stroke="#ff99ff" cx="612" cy="-279" rx="41.69" ry="18"/>
<text text-anchor="middle" x="612" y="-275.3" font-family="Times,serif" font-size="14.00">च(7.1)</text>
</g>
<!-- Node7_1&#45;&gt;Node13_1 -->
<g id="edge7" class="edge">
<title>Node7_1&#45;&gt;Node13_1</title>
<path fill="none" stroke="black" d="M612,-307.27C612,-320.58 612,-336.19 612,-347.82"/>
<polygon fill="black" stroke="black" points="615.5,-307.2 612,-297.2 608.5,-307.2 615.5,-307.2"/>
<text text-anchor="middle" x="669.5" y="-318.8" font-family="Times,serif" font-size="14.00">सम्बन्धः</text>
</g>
<!-- Node8_1 -->
<g id="node14" class="node">
<title>Node8_1</title>
<ellipse fill="#ffff00" stroke="#ffff00" cx="1665" cy="-18" rx="72.29" ry="18"/>
<text text-anchor="middle" x="1665" y="-14.3" font-family="Times,serif" font-size="14.00">शिरो&#45;(8.1)</text>
</g>
<!-- Node8_1&#45;&gt;Node8_2 -->
<g id="edge8" class="edge">
<title>Node8_1&#45;&gt;Node8_2</title>
<path fill="none" stroke="black" d="M1665,-46.27C1665,-59.58 1665,-75.19 1665,-86.82"/>
<polygon fill="black" stroke="black" points="1668.5,-46.2 1665,-36.2 1661.5,-46.2 1668.5,-46.2"/>
<text text-anchor="middle" x="1729.5" y="-57.8" font-family="Times,serif" font-size="14.00">तत्पुरुषः</text>
</g>
<!-- Node11_1 -->
<g id="node15" class="node">
<title>Node11_1</title>
<ellipse fill="#ff99ff" stroke="#ff99ff" cx="743" cy="-279" rx="65.79" ry="18"/>
<text text-anchor="middle" x="743" y="-275.3" font-family="Times,serif" font-size="14.00">तथा(11.1)</text>
</g>
<!-- Node11_1&#45;&gt;Node13_1 -->
<g id="edge12" class="edge">
<title>Node11_1&#45;&gt;Node13_1</title>
<path fill="none" stroke="black" d="M739.83,-307.43C737.66,-315.59 734.03,-323.96 728,-330 716.33,-341.69 700.91,-349.5 685.14,-354.71"/>
<polygon fill="black" stroke="black" points="743.31,-307.89 741.87,-297.39 736.45,-306.49 743.31,-307.89"/>
<text text-anchor="middle" x="794.5" y="-318.8" font-family="Times,serif" font-size="14.00">सम्बन्धः</text>
</g>
<!-- Node12_1 -->
<g id="node16" class="node">
<title>Node12_1</title>
<ellipse fill="#00bfff" stroke="#00bfff" cx="929" cy="-279" rx="102.88" ry="18"/>
<text text-anchor="middle" x="929" y="-275.3" font-family="Times,serif" font-size="14.00">वीर्यम्(12.1)</text>
</g>
<!-- Node12_1&#45;&gt;Node13_1 -->
<g id="edge13" class="edge">
<title>Node12_1&#45;&gt;Node13_1</title>
<path fill="none" stroke="black" d="M901.61,-303.21C888.58,-313.03 872.32,-323.64 856,-330 807.55,-348.88 750.13,-357.72 703.16,-361.8"/>
<polygon fill="black" stroke="black" points="903.93,-305.84 909.66,-296.93 899.62,-300.32 903.93,-305.84"/>
<text text-anchor="middle" x="913" y="-318.8" font-family="Times,serif" font-size="14.00">कर्म</text>
</g>
</g>
</svg>
