<svg xmlns="http://www.w3.org/2000/svg" xmlns:xlink="http://www.w3.org/1999/xlink" width="971pt" height="392pt" viewBox="0 0 971.24 392"><g id="graph0" class="graph" transform="scale(1 1) rotate(0) translate(4 388)"><title>G</title><polygon fill="#fffacd" stroke="transparent" points="-4 4 -4 -388 967.24 -388 967.24 4 -4 4"/><g id="node1" class="node"><title>Node1_1</title><ellipse cx="279.24" cy="-192" fill="#c6e2eb" stroke="#c6e2eb" rx="78.79" ry="18"/><text x="279.24" y="-188.3" font-family="Times,serif" font-size="14" text-anchor="middle">आपाते(1.1)</text></g><g id="node2" class="node"><title>Node5_1</title><ellipse cx="383.24" cy="-279" fill="#00bfff" stroke="#00bfff" rx="87.99" ry="18"/><text x="383.24" y="-275.3" font-family="Times,serif" font-size="14" text-anchor="middle">व्रजन्(5.1)</text></g><g id="edge1" class="edge"><title>Node1_1-&gt;Node5_1</title><path fill="none" stroke="#000" d="M277.27,-220.22C277.98,-228.28 280.16,-236.63 285.24,-243 293.92,-253.87 306.24,-261.37 319.24,-266.54"/><polygon fill="#000" stroke="#000" points="280.76 -219.93 277.05 -210 273.77 -220.08 280.76 -219.93"/><text x="363.74" y="-231.8" font-family="Times,serif" font-size="14" text-anchor="middle">देशाधिकरणम्</text></g><g id="node9" class="node"><title>Node11_1</title><ellipse cx="501.24" cy="-366" fill="#ff1975" stroke="#ff1975" rx="81.79" ry="18"/><text x="501.24" y="-362.3" font-family="Times,serif" font-size="14" text-anchor="middle">(बभूव)(11.1)</text></g><g id="edge7" class="edge"><title>Node5_1-&gt;Node11_1</title><path fill="none" stroke="#000" d="M378,-307.5C377.93,-315.43 379.42,-323.66 384.24,-330 394.89,-344.01 410.94,-352.61 427.76,-357.84"/><polygon fill="#000" stroke="#000" points="381.49 -307.66 378.84 -297.41 374.52 -307.08 381.49 -307.66"/><text x="491.24" y="-318.8" font-family="Times,serif" font-size="14" text-anchor="middle">वर्तमानसमानकालः</text></g><g id="node3" class="node"><title>Node2_1</title><ellipse cx="81.24" cy="-18" fill="#ff0" stroke="#ff0" rx="81.49" ry="18"/><text x="81.24" y="-14.3" font-family="Times,serif" font-size="14" text-anchor="middle">पक्षि-(2.1)</text></g><g id="node4" class="node"><title>Node2_2</title><ellipse cx="210.24" cy="-105" fill="#87ceeb" stroke="#87ceeb" rx="115.88" ry="18"/><text x="210.24" y="-101.3" font-family="Times,serif" font-size="14" text-anchor="middle">सङ्घानाम्(2.2)</text></g><g id="edge2" class="edge"><title>Node2_1-&gt;Node2_2</title><path fill="none" stroke="#000" d="M84.43,-46.41C86.6,-54.57 90.22,-62.94 96.24,-69 106.38,-79.21 119.42,-86.45 133.04,-91.59"/><polygon fill="#000" stroke="#000" points="87.81 -45.47 82.38 -36.37 80.95 -46.87 87.81 -45.47"/><text x="199.74" y="-57.8" font-family="Times,serif" font-size="14" text-anchor="middle">षष्ठी_तत्पुरुषः</text></g><g id="edge3" class="edge"><title>Node2_2-&gt;Node1_1</title><path fill="none" stroke="#000" d="M230.51,-130.97C241.79,-144.86 255.53,-161.78 265.54,-174.11"/><polygon fill="#000" stroke="#000" points="233.23 -128.76 224.21 -123.2 227.79 -133.17 233.23 -128.76"/><text x="342.24" y="-144.8" font-family="Times,serif" font-size="14" text-anchor="middle">षष्ठीसम्बन्धः</text></g><g id="node5" class="node"><title>Node3_1</title><ellipse cx="311.24" cy="-18" fill="#ff0" stroke="#ff0" rx="81.49" ry="18"/><text x="311.24" y="-14.3" font-family="Times,serif" font-size="14" text-anchor="middle">पक्षि-(3.1)</text></g><g id="node6" class="node"><title>Node3_2</title><ellipse cx="426.24" cy="-105" fill="#00bfff" stroke="#00bfff" rx="69.59" ry="18"/><text x="426.24" y="-101.3" font-family="Times,serif" font-size="14" text-anchor="middle">राजः(3.2)</text></g><g id="edge4" class="edge"><title>Node3_1-&gt;Node3_2</title><path fill="none" stroke="#000" d="M306.02,-46.48C305.96,-54.41 307.44,-62.64 312.24,-69 319.88,-79.12 346.31,-87.57 371.8,-93.63"/><polygon fill="#000" stroke="#000" points="309.52 -46.64 306.86 -36.39 302.55 -46.07 309.52 -46.64"/><text x="415.74" y="-57.8" font-family="Times,serif" font-size="14" text-anchor="middle">षष्ठी_तत्पुरुषः</text></g><g id="node7" class="node"><title>Node6_1</title><ellipse cx="480.24" cy="-192" fill="#00bfff" stroke="#00bfff" rx="96.68" ry="18"/><text x="480.24" y="-188.3" font-family="Times,serif" font-size="14" text-anchor="middle">हनुमान्(6.1)</text></g><g id="edge5" class="edge"><title>Node3_2-&gt;Node6_1</title><path fill="none" stroke="#000" d="M441.43,-131.99C446.09,-139.77 451.29,-148.29 456.24,-156 460.06,-161.95 464.39,-168.36 468.31,-174.05"/><polygon fill="#000" stroke="#000" points="444.38 -130.1 436.26 -123.28 438.36 -133.67 444.38 -130.1"/><text x="506.24" y="-144.8" font-family="Times,serif" font-size="14" text-anchor="middle">उपमानम्</text></g><g id="edge8" class="edge"><title>Node6_1-&gt;Node5_1</title><path fill="none" stroke="#000" d="M465.88,-218.97C460.45,-227.3 453.75,-236.14 446.24,-243 438.02,-250.51 427.9,-257.03 418.2,-262.34"/><polygon fill="#000" stroke="#000" points="468.98 -220.6 471.24 -210.25 463.02 -216.93 468.98 -220.6"/><text x="496.24" y="-231.8" font-family="Times,serif" font-size="14" text-anchor="middle">कर्ता</text></g><g id="node10" class="node"><title>Node8_1</title><ellipse cx="620.24" cy="-279" fill="#00bfff" stroke="#00bfff" rx="115.88" ry="18"/><text x="620.24" y="-275.3" font-family="Times,serif" font-size="14" text-anchor="middle">प्रकर्षन्(8.1)</text></g><g id="edge9" class="edge"><title>Node6_1-&gt;Node8_1</title><path fill="none" stroke="#000" stroke-dasharray="1 5" d="M516.02,-214.72C539.93,-229.24 570.9,-248.04 592.85,-261.37"/><polygon fill="#000" stroke="#000" points="517.6 -211.59 507.24 -209.39 513.97 -217.57 517.6 -211.59"/><text x="594.24" y="-231.8" font-family="Times,serif" font-size="14" text-anchor="middle">कर्ता</text></g><g id="node8" class="node"><title>Node4_1</title><ellipse cx="541.24" cy="-18" fill="#f9f" stroke="#f9f" rx="50.89" ry="18"/><text x="541.24" y="-14.3" font-family="Times,serif" font-size="14" text-anchor="middle">इव(4.1)</text></g><g id="edge6" class="edge"><title>Node4_1-&gt;Node3_2</title><path fill="none" stroke="#000" d="M533.98,-45.76C530.63,-54.09 525.88,-62.72 519.24,-69 507.72,-79.91 492.47,-87.5 477.65,-92.75"/><polygon fill="#000" stroke="#000" points="537.3 -46.89 537.3 -36.29 530.69 -44.57 537.3 -46.89"/><text x="619.24" y="-57.8" font-family="Times,serif" font-size="14" text-anchor="middle">उपमान_द्योतकः</text></g><g id="edge12" class="edge"><title>Node8_1-&gt;Node11_1</title><path fill="none" stroke="#000" d="M613.03,-306.82C609.68,-315.14 604.92,-323.77 598.24,-330 587.06,-340.45 572.52,-347.82 558.12,-353.01"/><polygon fill="#000" stroke="#000" points="616.35 -307.93 616.34 -297.33 609.74 -305.62 616.35 -307.93"/><text x="715.24" y="-318.8" font-family="Times,serif" font-size="14" text-anchor="middle">वर्तमानसमानकालः</text></g><g id="node11" class="node"><title>Node7_1</title><ellipse cx="770.24" cy="-105" fill="#ff0" stroke="#ff0" rx="63.09" ry="18"/><text x="770.24" y="-101.3" font-family="Times,serif" font-size="14" text-anchor="middle">मेघ-(7.1)</text></g><g id="node12" class="node"><title>Node7_2</title><ellipse cx="739.24" cy="-192" fill="#93db70" stroke="#93db70" rx="87.99" ry="18"/><text x="739.24" y="-188.3" font-family="Times,serif" font-size="14" text-anchor="middle">जालानि(7.2)</text></g><g id="edge10" class="edge"><title>Node7_1-&gt;Node7_2</title><path fill="none" stroke="#000" d="M760.44,-132.87C755.56,-146.27 749.79,-162.08 745.51,-173.82"/><polygon fill="#000" stroke="#000" points="763.83 -133.79 763.97 -123.2 757.25 -131.4 763.83 -133.79"/><text x="859.74" y="-144.8" font-family="Times,serif" font-size="14" text-anchor="middle">षष्ठी_तत्पुरुषः</text></g><g id="edge11" class="edge"><title>Node7_2-&gt;Node8_1</title><path fill="none" stroke="#000" d="M708.08,-215.26C688.01,-229.59 662.33,-247.94 643.93,-261.08"/><polygon fill="#000" stroke="#000" points="710.2 -218.05 716.3 -209.39 706.13 -212.35 710.2 -218.05"/><text x="715.24" y="-231.8" font-family="Times,serif" font-size="14" text-anchor="middle">कर्म</text></g><g id="node13" class="node"><title>Node9_1</title><ellipse cx="601.24" cy="-105" fill="#00bfff" stroke="#00bfff" rx="87.99" ry="18"/><text x="601.24" y="-101.3" font-family="Times,serif" font-size="14" text-anchor="middle">मारुतः(9.1)</text></g><g id="edge13" class="edge"><title>Node9_1-&gt;Node6_1</title><path fill="none" stroke="#000" d="M582.52,-130.69C575.03,-139.45 565.89,-148.9 556.24,-156 545.83,-163.67 533.48,-170.23 521.78,-175.54"/><polygon fill="#000" stroke="#000" points="585.27 -132.87 588.91 -122.92 579.86 -128.43 585.27 -132.87"/><text x="622.24" y="-144.8" font-family="Times,serif" font-size="14" text-anchor="middle">उपमानम्</text></g><g id="node14" class="node"><title>Node10_1</title><ellipse cx="742.24" cy="-18" fill="#f9f" stroke="#f9f" rx="65.79" ry="18"/><text x="742.24" y="-14.3" font-family="Times,serif" font-size="14" text-anchor="middle">यथा(10.1)</text></g><g id="edge14" class="edge"><title>Node10_1-&gt;Node9_1</title><path fill="none" stroke="#000" d="M731.24,-45.12C726.49,-53.75 720.18,-62.74 712.24,-69 698.52,-79.83 681.4,-87.33 664.74,-92.52"/><polygon fill="#000" stroke="#000" points="734.43 -46.55 735.77 -36.04 728.17 -43.42 734.43 -46.55"/><text x="813.24" y="-57.8" font-family="Times,serif" font-size="14" text-anchor="middle">उपमान_द्योतकः</text></g></g></svg>