<?xml version="1.0" encoding="UTF-8" standalone="no"?>
<!DOCTYPE svg PUBLIC "-//W3C//DTD SVG 1.1//EN"
 "http://www.w3.org/Graphics/SVG/1.1/DTD/svg11.dtd">
<!-- Generated by graphviz version 2.43.0 (0)
 -->
<!-- Title: G Pages: 1 -->
<svg width="1078pt" height="392pt"
 viewBox="0.00 0.00 1077.99 392.00" xmlns="http://www.w3.org/2000/svg" xmlns:xlink="http://www.w3.org/1999/xlink">
<g id="graph0" class="graph" transform="scale(1 1) rotate(0) translate(4 388)">
<title>G</title>
<polygon fill="#fffacd" stroke="transparent" points="-4,4 -4,-388 1073.99,-388 1073.99,4 -4,4"/>
<g id="clust1" class="cluster">
<title>cluster_1</title>
<polygon fill="#fffacd" stroke="black" points="765.99,-166 765.99,-305 975.99,-305 975.99,-166 765.99,-166"/>
</g>
<!-- Node2_1 -->
<g id="node1" class="node">
<title>Node2_1</title>
<ellipse fill="#00bfff" stroke="#00bfff" cx="862.99" cy="-192" rx="87.99" ry="18"/>
<text text-anchor="middle" x="862.99" y="-188.3" font-family="Times,serif" font-size="14.00">दृष्टः(2.1)</text>
</g>
<!-- Node4_2 -->
<g id="node2" class="node">
<title>Node4_2</title>
<ellipse fill="#00bfff" stroke="#00bfff" cx="870.99" cy="-279" rx="96.68" ry="18"/>
<text text-anchor="middle" x="870.99" y="-275.3" font-family="Times,serif" font-size="14.00">निश्चयः(4.2)</text>
</g>
<!-- Node2_1&#45;&gt;Node4_2 -->
<g id="edge3" class="edge">
<title>Node2_1&#45;&gt;Node4_2</title>
<path fill="none" stroke="black" d="M865.56,-220.27C866.81,-233.58 868.28,-249.19 869.38,-260.82"/>
<polygon fill="black" stroke="black" points="869.03,-219.83 864.61,-210.2 862.06,-220.49 869.03,-219.83"/>
<text text-anchor="middle" x="924.49" y="-231.8" font-family="Times,serif" font-size="14.00">विशेषणम्</text>
</g>
<!-- Node5_1 -->
<g id="node7" class="node">
<title>Node5_1</title>
<ellipse fill="#ff1975" stroke="#ff1975" cx="624.99" cy="-366" rx="78.79" ry="18"/>
<text text-anchor="middle" x="624.99" y="-362.3" font-family="Times,serif" font-size="14.00">ववृधे(5.1)</text>
</g>
<!-- Node4_2&#45;&gt;Node5_1 -->
<g id="edge6" class="edge">
<title>Node4_2&#45;&gt;Node5_1</title>
<path fill="none" stroke="black" d="M817.64,-298.43C772.34,-314.09 708.24,-336.24 666.64,-350.61"/>
<polygon fill="black" stroke="black" points="818.99,-301.67 827.3,-295.1 816.7,-295.06 818.99,-301.67"/>
<text text-anchor="middle" x="797.99" y="-318.8" font-family="Times,serif" font-size="14.00">कर्ता</text>
</g>
<!-- Node1_1 -->
<g id="node3" class="node">
<title>Node1_1</title>
<ellipse fill="#ffff00" stroke="#ffff00" cx="862.99" cy="-18" rx="100.18" ry="18"/>
<text text-anchor="middle" x="862.99" y="-14.3" font-family="Times,serif" font-size="14.00">प्लवङ्ग&#45;(1.1)</text>
</g>
<!-- Node1_2 -->
<g id="node4" class="node">
<title>Node1_2</title>
<ellipse fill="#40e0d0" stroke="#40e0d0" cx="862.99" cy="-105" rx="96.68" ry="18"/>
<text text-anchor="middle" x="862.99" y="-101.3" font-family="Times,serif" font-size="14.00">प्रवरैः(1.2)</text>
</g>
<!-- Node1_1&#45;&gt;Node1_2 -->
<g id="edge1" class="edge">
<title>Node1_1&#45;&gt;Node1_2</title>
<path fill="none" stroke="black" d="M862.99,-46.27C862.99,-59.58 862.99,-75.19 862.99,-86.82"/>
<polygon fill="black" stroke="black" points="866.49,-46.2 862.99,-36.2 859.49,-46.2 866.49,-46.2"/>
<text text-anchor="middle" x="966.49" y="-57.8" font-family="Times,serif" font-size="14.00">षष्ठी_तत्पुरुषः</text>
</g>
<!-- Node1_2&#45;&gt;Node2_1 -->
<g id="edge2" class="edge">
<title>Node1_2&#45;&gt;Node2_1</title>
<path fill="none" stroke="black" d="M862.99,-133.27C862.99,-146.58 862.99,-162.19 862.99,-173.82"/>
<polygon fill="black" stroke="black" points="866.49,-133.2 862.99,-123.2 859.49,-133.2 866.49,-133.2"/>
<text text-anchor="middle" x="898.99" y="-144.8" font-family="Times,serif" font-size="14.00">कर्ता</text>
</g>
<!-- Node3_1 -->
<g id="node5" class="node">
<title>Node3_1</title>
<ellipse fill="#c6e2eb" stroke="#c6e2eb" cx="312.99" cy="-192" rx="87.99" ry="18"/>
<text text-anchor="middle" x="312.99" y="-188.3" font-family="Times,serif" font-size="14.00">प्लवने(3.1)</text>
</g>
<!-- Node3_1&#45;&gt;Node4_2 -->
<g id="edge4" class="edge">
<title>Node3_1&#45;&gt;Node4_2</title>
<path fill="none" stroke="black" d="M342.19,-215.5C357.15,-225.76 376.15,-236.95 394.99,-243 463.29,-264.91 656.91,-273.2 775.11,-276.26"/>
<polygon fill="black" stroke="black" points="344.06,-212.54 333.88,-209.61 340.01,-218.25 344.06,-212.54"/>
<text text-anchor="middle" x="480.99" y="-231.8" font-family="Times,serif" font-size="14.00">विषयाधिकरणम्</text>
</g>
<!-- Node4_1 -->
<g id="node6" class="node">
<title>Node4_1</title>
<ellipse fill="#ffff00" stroke="#ffff00" cx="693.99" cy="-192" rx="63.09" ry="18"/>
<text text-anchor="middle" x="693.99" y="-188.3" font-family="Times,serif" font-size="14.00">कृत&#45;(4.1)</text>
</g>
<!-- Node4_1&#45;&gt;Node4_2 -->
<g id="edge5" class="edge">
<title>Node4_1&#45;&gt;Node4_2</title>
<path fill="none" stroke="black" d="M702.17,-219.7C706.01,-228.27 711.46,-237.07 718.99,-243 737.29,-257.4 760.45,-266.08 783.14,-271.25"/>
<polygon fill="black" stroke="black" points="705.39,-218.32 698.48,-210.28 698.87,-220.87 705.39,-218.32"/>
<text text-anchor="middle" x="790.49" y="-231.8" font-family="Times,serif" font-size="14.00">बहुव्रीहिः</text>
</g>
<!-- Node6_1 -->
<g id="node8" class="node">
<title>Node6_1</title>
<ellipse fill="#ffff00" stroke="#ffff00" cx="90.99" cy="-105" rx="63.09" ry="18"/>
<text text-anchor="middle" x="90.99" y="-101.3" font-family="Times,serif" font-size="14.00">राम&#45;(6.1)</text>
</g>
<!-- Node6_2 -->
<g id="node9" class="node">
<title>Node6_2</title>
<ellipse fill="#ffff00" stroke="#ffff00" cx="90.99" cy="-192" rx="90.98" ry="18"/>
<text text-anchor="middle" x="90.99" y="-188.3" font-family="Times,serif" font-size="14.00">वृद्धि&#45;(6.2)</text>
</g>
<!-- Node6_1&#45;&gt;Node6_2 -->
<g id="edge7" class="edge">
<title>Node6_1&#45;&gt;Node6_2</title>
<path fill="none" stroke="black" d="M90.99,-133.27C90.99,-146.58 90.99,-162.19 90.99,-173.82"/>
<polygon fill="black" stroke="black" points="94.49,-133.2 90.99,-123.2 87.49,-133.2 94.49,-133.2"/>
<text text-anchor="middle" x="194.49" y="-144.8" font-family="Times,serif" font-size="14.00">षष्ठी_तत्पुरुषः</text>
</g>
<!-- Node6_3 -->
<g id="node10" class="node">
<title>Node6_3</title>
<ellipse fill="#00bfff" stroke="#00bfff" cx="378.99" cy="-279" rx="87.99" ry="18"/>
<text text-anchor="middle" x="378.99" y="-275.3" font-family="Times,serif" font-size="14.00">अर्थम्(6.3)</text>
</g>
<!-- Node6_2&#45;&gt;Node6_3 -->
<g id="edge8" class="edge">
<title>Node6_2&#45;&gt;Node6_3</title>
<path fill="none" stroke="black" d="M85.11,-220.39C84.93,-228.56 86.51,-236.93 91.99,-243 105.54,-257.99 215.56,-267.97 295.35,-273.31"/>
<polygon fill="black" stroke="black" points="88.61,-220.67 86.14,-210.36 81.64,-219.95 88.61,-220.67"/>
<text text-anchor="middle" x="209.49" y="-231.8" font-family="Times,serif" font-size="14.00">चतुर्थी_तत्पुरुषः</text>
</g>
<!-- Node6_3&#45;&gt;Node5_1 -->
<g id="edge9" class="edge">
<title>Node6_3&#45;&gt;Node5_1</title>
<path fill="none" stroke="black" d="M431.5,-298.14C476.89,-313.83 541.6,-336.19 583.45,-350.65"/>
<polygon fill="black" stroke="black" points="432.44,-294.76 421.84,-294.81 430.15,-301.38 432.44,-294.76"/>
<text text-anchor="middle" x="581.49" y="-318.8" font-family="Times,serif" font-size="14.00">प्रयोजनम्</text>
</g>
<!-- Node7_1 -->
<g id="node11" class="node">
<title>Node7_1</title>
<ellipse fill="#00bfff" stroke="#00bfff" cx="515.99" cy="-192" rx="96.68" ry="18"/>
<text text-anchor="middle" x="515.99" y="-188.3" font-family="Times,serif" font-size="14.00">समुद्रः(7.1)</text>
</g>
<!-- Node7_1&#45;&gt;Node4_2 -->
<g id="edge10" class="edge">
<title>Node7_1&#45;&gt;Node4_2</title>
<path fill="none" stroke="black" d="M547.55,-215.16C563.47,-225.26 583.5,-236.41 602.99,-243 658.89,-261.88 724.54,-270.66 776.87,-274.7"/>
<polygon fill="black" stroke="black" points="549.45,-212.22 539.16,-209.69 545.63,-218.08 549.45,-212.22"/>
<text text-anchor="middle" x="652.99" y="-231.8" font-family="Times,serif" font-size="14.00">उपमानम्</text>
</g>
<!-- Node8_1 -->
<g id="node12" class="node">
<title>Node8_1</title>
<ellipse fill="#ff99ff" stroke="#ff99ff" cx="388.99" cy="-105" rx="50.89" ry="18"/>
<text text-anchor="middle" x="388.99" y="-101.3" font-family="Times,serif" font-size="14.00">इव(8.1)</text>
</g>
<!-- Node8_1&#45;&gt;Node7_1 -->
<g id="edge11" class="edge">
<title>Node8_1&#45;&gt;Node7_1</title>
<path fill="none" stroke="black" d="M380.94,-132.88C380.1,-141.01 381.01,-149.5 385.99,-156 388.42,-159.17 425.22,-168.91 459.04,-177.31"/>
<polygon fill="black" stroke="black" points="384.4,-133.41 382.77,-122.94 377.52,-132.14 384.4,-133.41"/>
<text text-anchor="middle" x="474.99" y="-144.8" font-family="Times,serif" font-size="14.00">उपमान_द्योतकः</text>
</g>
<!-- Node9_1 -->
<g id="node13" class="node">
<title>Node9_1</title>
<ellipse fill="#c6e2eb" stroke="#c6e2eb" cx="589.99" cy="-105" rx="87.99" ry="18"/>
<text text-anchor="middle" x="589.99" y="-101.3" font-family="Times,serif" font-size="14.00">पर्वसु(9.1)</text>
</g>
<!-- Node9_1&#45;&gt;Node7_1 -->
<g id="edge12" class="edge">
<title>Node9_1&#45;&gt;Node7_1</title>
<path fill="none" stroke="black" d="M581.57,-132.55C578.18,-140.63 573.7,-149.17 567.99,-156 561.92,-163.26 553.97,-169.63 546.12,-174.87"/>
<polygon fill="black" stroke="black" points="584.89,-133.66 585.16,-123.07 578.34,-131.18 584.89,-133.66"/>
<text text-anchor="middle" x="655.49" y="-144.8" font-family="Times,serif" font-size="14.00">कालाधिकरणम्</text>
</g>
</g>
</svg>
