<svg xmlns="http://www.w3.org/2000/svg" xmlns:xlink="http://www.w3.org/1999/xlink" width="1346pt" height="428" viewBox="0 0 1346 321"><g id="graph0" class="graph" transform="scale(1 1) rotate(0) translate(4 317)"><title>G</title><polygon fill="#fffacd" stroke="transparent" points="-4 4 -4 -317 1342 -317 1342 4 -4 4"/><g id="clust1" class="cluster"><title>cluster_1</title><polygon fill="#fffacd" stroke="#000" points="8 -95 8 -234 218 -234 218 -95 8 -95"/></g><g id="clust2" class="cluster"><title>cluster_2</title><polygon fill="#fffacd" stroke="#000" points="226 -95 226 -234 436 -234 436 -95 226 -95"/></g><g id="clust3" class="cluster"><title>cluster_3</title><polygon fill="#fffacd" stroke="#000" points="593 -8 593 -147 915 -147 915 -8 593 -8"/></g><g id="node1" class="node"><title>Node4_1</title><ellipse cx="113" cy="-121" fill="#40e0d0" stroke="#40e0d0" rx="96.68" ry="18"/><text x="113" y="-117.3" font-family="Times,serif" font-size="14" text-anchor="middle">ताम्रया(4.1)</text></g><g id="node2" class="node"><title>Node2_1</title><ellipse cx="113" cy="-208" fill="#40e0d0" stroke="#40e0d0" rx="96.68" ry="18"/><text x="113" y="-204.3" font-family="Times,serif" font-size="14" text-anchor="middle">नासिकया(2.1)</text></g><g id="edge4" class="edge"><title>Node4_1-&gt;Node2_1</title><path fill="none" stroke="#000" d="M107.72,-149.05C106.83,-156.47 106.37,-164.54 107,-172 107.5,-177.9 108.47,-184.29 109.49,-189.98"/><polygon fill="#000" stroke="#000" points="111.19 -149.5 109.21 -139.09 104.27 -148.47 111.19 -149.5"/><text x="164.5" y="-160.8" font-family="Times,serif" font-size="14" text-anchor="middle">विशेषणम्</text></g><g id="node7" class="node"><title>Node6_1</title><ellipse cx="221" cy="-295" fill="#ff1975" stroke="#ff1975" rx="69.59" ry="18"/><text x="221" y="-291.3" font-family="Times,serif" font-size="14" text-anchor="middle">आबभौ(6.1)</text></g><g id="edge2" class="edge"><title>Node2_1-&gt;Node6_1</title><path fill="none" stroke="#000" d="M142.14,-231.94C160.53,-246.41 183.85,-264.76 200.34,-277.74"/><polygon fill="#000" stroke="#000" points="144.1 -229.02 134.08 -225.59 139.77 -234.53 144.1 -229.02"/><text x="210" y="-247.8" font-family="Times,serif" font-size="14" text-anchor="middle">करणम्</text></g><g id="node3" class="node"><title>Node5_1</title><ellipse cx="331" cy="-121" fill="#00bfff" stroke="#00bfff" rx="96.68" ry="18"/><text x="331" y="-117.3" font-family="Times,serif" font-size="14" text-anchor="middle">ताम्रम्(5.1)</text></g><g id="node4" class="node"><title>Node1_1</title><ellipse cx="331" cy="-208" fill="#00bfff" stroke="#00bfff" rx="78.79" ry="18"/><text x="331" y="-204.3" font-family="Times,serif" font-size="14" text-anchor="middle">मुखम्(1.1)</text></g><g id="edge5" class="edge"><title>Node5_1-&gt;Node1_1</title><path fill="none" stroke="#000" d="M331,-149.27C331,-162.58 331,-178.19 331,-189.82"/><polygon fill="#000" stroke="#000" points="334.5 -149.2 331 -139.2 327.5 -149.2 334.5 -149.2"/><text x="388.5" y="-160.8" font-family="Times,serif" font-size="14" text-anchor="middle">विशेषणम्</text></g><g id="edge1" class="edge"><title>Node1_1-&gt;Node6_1</title><path fill="none" stroke="#000" d="M301.84,-231.53C283.06,-246.04 259.09,-264.56 242.14,-277.66"/><polygon fill="#000" stroke="#000" points="304.02 -234.27 309.79 -225.39 299.74 -228.73 304.02 -234.27"/><text x="319" y="-247.8" font-family="Times,serif" font-size="14" text-anchor="middle">कर्ता</text></g><g id="node5" class="node"><title>Node8_1</title><ellipse cx="754" cy="-34" fill="#00bfff" stroke="#00bfff" rx="152.97" ry="18"/><text x="754" y="-30.3" font-family="Times,serif" font-size="14" text-anchor="middle">समभिस्पृष्टम्(8.1)</text></g><g id="node6" class="node"><title>Node11_2</title><ellipse cx="803" cy="-121" fill="#00bfff" stroke="#00bfff" rx="102.88" ry="18"/><text x="803" y="-117.3" font-family="Times,serif" font-size="14" text-anchor="middle">मण्डलम्(11.2)</text></g><g id="edge7" class="edge"><title>Node8_1-&gt;Node11_2</title><path fill="none" stroke="#000" d="M769.04,-61.09C776.86,-74.65 786.2,-90.85 793.1,-102.82"/><polygon fill="#000" stroke="#000" points="771.94 -59.12 763.92 -52.2 765.88 -62.61 771.94 -59.12"/><text x="838.5" y="-73.8" font-family="Times,serif" font-size="14" text-anchor="middle">विशेषणम्</text></g><g id="edge10" class="edge"><title>Node11_2-&gt;Node1_1</title><path fill="none" stroke="#000" d="M756.41,-141.64C729.32,-152.27 694.26,-164.68 662,-172 576.2,-191.46 475.38,-200.15 407.75,-204"/><polygon fill="#000" stroke="#000" points="758.01 -144.77 766.01 -137.82 755.42 -138.27 758.01 -144.77"/><text x="763" y="-160.8" font-family="Times,serif" font-size="14" text-anchor="middle">उपमानम्</text></g><g id="node10" class="node"><title>Node10_1</title><ellipse cx="970" cy="-208" fill="#ff1975" stroke="#ff1975" rx="93.68" ry="18"/><text x="970" y="-204.3" font-family="Times,serif" font-size="14" text-anchor="middle">स्यात्(10.1)</text></g><g id="edge11" class="edge"><title>Node11_2-&gt;Node10_1</title><path fill="none" stroke="#000" stroke-dasharray="1 5" d="M843.93,-142.83C873.13,-157.69 911.82,-177.39 938.6,-191.02"/><polygon fill="#000" stroke="#000" points="845.3 -139.6 834.8 -138.19 842.13 -145.84 845.3 -139.6"/><text x="932" y="-160.8" font-family="Times,serif" font-size="14" text-anchor="middle">कर्ता</text></g><g id="node8" class="node"><title>Node3_1</title><ellipse cx="515" cy="-121" fill="#87ceeb" stroke="#87ceeb" rx="69.59" ry="18"/><text x="515" y="-117.3" font-family="Times,serif" font-size="14" text-anchor="middle">तस्य(3.1)</text></g><g id="edge3" class="edge"><title>Node3_1-&gt;Node1_1</title><path fill="none" stroke="#000" d="M489.38,-145.24C477.98,-154.62 463.99,-164.88 450,-172 430.23,-182.06 407.11,-189.69 386.53,-195.22"/><polygon fill="#000" stroke="#000" points="491.82 -147.77 497.19 -138.63 487.3 -142.42 491.82 -147.77"/><text x="565" y="-160.8" font-family="Times,serif" font-size="14" text-anchor="middle">षष्ठीसम्बन्धः</text></g><g id="node9" class="node"><title>Node7_1</title><ellipse cx="1030" cy="-121" fill="#40e0d0" stroke="#40e0d0" rx="106.68" ry="18"/><text x="1030" y="-117.3" font-family="Times,serif" font-size="14" text-anchor="middle">सन्ध्यया(7.1)</text></g><g id="edge6" class="edge"><title>Node7_1-&gt;Node10_1</title><path fill="none" stroke="#000" d="M1011.82,-147.75C1002.12,-161.49 990.46,-178.01 981.92,-190.11"/><polygon fill="#000" stroke="#000" points="1014.95 -149.39 1017.86 -139.2 1009.23 -145.35 1014.95 -149.39"/><text x="1039" y="-160.8" font-family="Times,serif" font-size="14" text-anchor="middle">करणम्</text></g><g id="node11" class="node"><title>Node9_1</title><ellipse cx="985" cy="-34" fill="#f9f" stroke="#f9f" rx="59.59" ry="18"/><text x="985" y="-30.3" font-family="Times,serif" font-size="14" text-anchor="middle">यथा(9.1)</text></g><g id="edge8" class="edge"><title>Node9_1-&gt;Node11_2</title><path fill="none" stroke="#000" d="M952.41,-56.09C936.9,-65.62 917.88,-76.61 900,-85 884.12,-92.46 866.18,-99.33 850.09,-104.98"/><polygon fill="#000" stroke="#000" points="954.47 -58.93 961.1 -50.68 950.76 -52.99 954.47 -58.93"/><text x="1015" y="-73.8" font-family="Times,serif" font-size="14" text-anchor="middle">उपमान_द्योतकः</text></g><g id="node12" class="node"><title>Node11_1</title><ellipse cx="1168" cy="-34" fill="#ff0" stroke="#ff0" rx="87.18" ry="18"/><text x="1168" y="-30.3" font-family="Times,serif" font-size="14" text-anchor="middle">सूर्य-(11.1)</text></g><g id="edge9" class="edge"><title>Node11_1-&gt;Node11_2</title><path fill="none" stroke="#000" d="M1145.71,-59.52C1135.29,-69.28 1122.09,-79.49 1108,-85 1067.8,-100.74 956.77,-89.13 914,-95 895.51,-97.54 875.54,-101.61 857.71,-105.74"/><polygon fill="#000" stroke="#000" points="1148.43 -61.75 1153.09 -52.23 1143.52 -56.76 1148.43 -61.75"/><text x="1234.5" y="-73.8" font-family="Times,serif" font-size="14" text-anchor="middle">षष्ठी_तत्पुरुषः</text></g></g></svg>