<?xml version="1.0" encoding="UTF-8" standalone="no"?>
<!DOCTYPE svg PUBLIC "-//W3C//DTD SVG 1.1//EN"
 "http://www.w3.org/Graphics/SVG/1.1/DTD/svg11.dtd">
<!-- Generated by graphviz version 2.43.0 (0)
 -->
<!-- Title: G Pages: 1 -->
<svg width="992pt" height="408pt"
 viewBox="0.00 0.00 992.00 408.00" xmlns="http://www.w3.org/2000/svg" xmlns:xlink="http://www.w3.org/1999/xlink">
<g id="graph0" class="graph" transform="scale(1 1) rotate(0) translate(4 404)">
<title>G</title>
<polygon fill="#fffacd" stroke="transparent" points="-4,4 -4,-404 988,-404 988,4 -4,4"/>
<g id="clust1" class="cluster">
<title>cluster_1</title>
<polygon fill="#fffacd" stroke="black" points="8,-182 8,-321 274,-321 274,-182 8,-182"/>
</g>
<g id="clust2" class="cluster">
<title>cluster_2</title>
<polygon fill="#fffacd" stroke="black" points="652,-182 652,-321 808,-321 808,-182 652,-182"/>
</g>
<g id="clust3" class="cluster">
<title>cluster_3</title>
<polygon fill="#fffacd" stroke="black" points="213,-8 213,-147 580,-147 580,-8 213,-8"/>
</g>
<!-- Node2_1 -->
<g id="node1" class="node">
<title>Node2_1</title>
<ellipse fill="#40e0d0" stroke="#40e0d0" cx="141" cy="-208" rx="124.58" ry="18"/>
<text text-anchor="middle" x="141" y="-204.3" font-family="Times,serif" font-size="14.00">अतिताम्रेण(2.1)</text>
</g>
<!-- Node1_2 -->
<g id="node2" class="node">
<title>Node1_2</title>
<ellipse fill="#40e0d0" stroke="#40e0d0" cx="187" cy="-295" rx="78.79" ry="18"/>
<text text-anchor="middle" x="187" y="-291.3" font-family="Times,serif" font-size="14.00">देशेन(1.2)</text>
</g>
<!-- Node2_1&#45;&gt;Node1_2 -->
<g id="edge3" class="edge">
<title>Node2_1&#45;&gt;Node1_2</title>
<path fill="none" stroke="black" d="M155.15,-235.15C162.54,-248.81 171.38,-265.13 177.86,-277.11"/>
<polygon fill="black" stroke="black" points="158.15,-233.33 150.31,-226.2 151.99,-236.66 158.15,-233.33"/>
<text text-anchor="middle" x="224.5" y="-247.8" font-family="Times,serif" font-size="14.00">विशेषणम्</text>
</g>
<!-- Node3_1 -->
<g id="node9" class="node">
<title>Node3_1</title>
<ellipse fill="#ff1975" stroke="#ff1975" cx="458" cy="-382" rx="69.59" ry="18"/>
<text text-anchor="middle" x="458" y="-378.3" font-family="Times,serif" font-size="14.00">रराज(3.1)</text>
</g>
<!-- Node1_2&#45;&gt;Node3_1 -->
<g id="edge2" class="edge">
<title>Node1_2&#45;&gt;Node3_1</title>
<path fill="none" stroke="black" d="M241.03,-312.95C292.26,-329.01 368.2,-352.83 415.32,-367.61"/>
<polygon fill="black" stroke="black" points="242.04,-309.59 231.45,-309.94 239.94,-316.27 242.04,-309.59"/>
<text text-anchor="middle" x="374" y="-334.8" font-family="Times,serif" font-size="14.00">करणम्</text>
</g>
<!-- Node4_1 -->
<g id="node3" class="node">
<title>Node4_1</title>
<ellipse fill="#00bfff" stroke="#00bfff" cx="711" cy="-208" rx="50.89" ry="18"/>
<text text-anchor="middle" x="711" y="-204.3" font-family="Times,serif" font-size="14.00">सः(4.1)</text>
</g>
<!-- Node5_2 -->
<g id="node4" class="node">
<title>Node5_2</title>
<ellipse fill="#00bfff" stroke="#00bfff" cx="730" cy="-295" rx="69.59" ry="18"/>
<text text-anchor="middle" x="730" y="-291.3" font-family="Times,serif" font-size="14.00">कपिः(5.2)</text>
</g>
<!-- Node4_1&#45;&gt;Node5_2 -->
<g id="edge4" class="edge">
<title>Node4_1&#45;&gt;Node5_2</title>
<path fill="none" stroke="black" d="M717.09,-236.27C720.07,-249.58 723.56,-265.19 726.16,-276.82"/>
<polygon fill="black" stroke="black" points="720.44,-235.2 714.84,-226.2 713.61,-236.72 720.44,-235.2"/>
<text text-anchor="middle" x="778.5" y="-247.8" font-family="Times,serif" font-size="14.00">विशेषणम्</text>
</g>
<!-- Node5_2&#45;&gt;Node3_1 -->
<g id="edge6" class="edge">
<title>Node5_2&#45;&gt;Node3_1</title>
<path fill="none" stroke="black" d="M677.89,-312.29C626.4,-328.38 548.58,-352.69 500.65,-367.67"/>
<polygon fill="black" stroke="black" points="679,-315.6 687.5,-309.28 676.91,-308.92 679,-315.6"/>
<text text-anchor="middle" x="646" y="-334.8" font-family="Times,serif" font-size="14.00">कर्ता</text>
</g>
<!-- Node6_1 -->
<g id="node5" class="node">
<title>Node6_1</title>
<ellipse fill="#40e0d0" stroke="#40e0d0" cx="502" cy="-34" rx="69.59" ry="18"/>
<text text-anchor="middle" x="502" y="-30.3" font-family="Times,serif" font-size="14.00">महता(6.1)</text>
</g>
<!-- Node10_2 -->
<g id="node6" class="node">
<title>Node10_2</title>
<ellipse fill="#40e0d0" stroke="#40e0d0" cx="467" cy="-121" rx="93.68" ry="18"/>
<text text-anchor="middle" x="467" y="-117.3" font-family="Times,serif" font-size="14.00">धातुना(10.2)</text>
</g>
<!-- Node6_1&#45;&gt;Node10_2 -->
<g id="edge7" class="edge">
<title>Node6_1&#45;&gt;Node10_2</title>
<path fill="none" stroke="black" d="M491.1,-61.48C485.55,-74.96 478.96,-90.96 474.07,-102.82"/>
<polygon fill="black" stroke="black" points="494.35,-62.78 494.92,-52.2 487.87,-60.12 494.35,-62.78"/>
<text text-anchor="middle" x="543.5" y="-73.8" font-family="Times,serif" font-size="14.00">विशेषणम्</text>
</g>
<!-- Node9_1 -->
<g id="node12" class="node">
<title>Node9_1</title>
<ellipse fill="#00bfff" stroke="#00bfff" cx="563" cy="-208" rx="78.79" ry="18"/>
<text text-anchor="middle" x="563" y="-204.3" font-family="Times,serif" font-size="14.00">गिरिः(9.1)</text>
</g>
<!-- Node10_2&#45;&gt;Node9_1 -->
<g id="edge12" class="edge">
<title>Node10_2&#45;&gt;Node9_1</title>
<path fill="none" stroke="black" d="M476.31,-148.4C480.19,-156.7 485.37,-165.41 492,-172 500.48,-180.43 511.39,-187.17 522.11,-192.4"/>
<polygon fill="black" stroke="black" points="479.45,-146.85 472.34,-139 473,-149.57 479.45,-146.85"/>
<text text-anchor="middle" x="542" y="-160.8" font-family="Times,serif" font-size="14.00">सहार्थः</text>
</g>
<!-- Node7_1 -->
<g id="node7" class="node">
<title>Node7_1</title>
<ellipse fill="#40e0d0" stroke="#40e0d0" cx="318" cy="-34" rx="96.68" ry="18"/>
<text text-anchor="middle" x="318" y="-30.3" font-family="Times,serif" font-size="14.00">दारितेन(7.1)</text>
</g>
<!-- Node7_1&#45;&gt;Node10_2 -->
<g id="edge8" class="edge">
<title>Node7_1&#45;&gt;Node10_2</title>
<path fill="none" stroke="black" d="M335.99,-59.86C343.5,-68.81 352.84,-78.32 363,-85 377.17,-94.31 394.06,-101.38 410.06,-106.64"/>
<polygon fill="black" stroke="black" points="338.62,-57.54 329.64,-51.91 333.15,-61.91 338.62,-57.54"/>
<text text-anchor="middle" x="420.5" y="-73.8" font-family="Times,serif" font-size="14.00">विशेषणम्</text>
</g>
<!-- Node1_1 -->
<g id="node8" class="node">
<title>Node1_1</title>
<ellipse fill="#ffff00" stroke="#ffff00" cx="375" cy="-208" rx="90.98" ry="18"/>
<text text-anchor="middle" x="375" y="-204.3" font-family="Times,serif" font-size="14.00">स्फिक्&#45;(1.1)</text>
</g>
<!-- Node1_1&#45;&gt;Node1_2 -->
<g id="edge1" class="edge">
<title>Node1_1&#45;&gt;Node1_2</title>
<path fill="none" stroke="black" d="M339.72,-230.67C323.67,-240.04 304.21,-250.74 286,-259 268.57,-266.91 248.78,-274.22 231.5,-280.09"/>
<polygon fill="black" stroke="black" points="341.93,-233.43 348.75,-225.33 338.36,-227.41 341.93,-233.43"/>
<text text-anchor="middle" x="377.5" y="-247.8" font-family="Times,serif" font-size="14.00">कर्मधारयः</text>
</g>
<!-- Node5_1 -->
<g id="node10" class="node">
<title>Node5_1</title>
<ellipse fill="#ffff00" stroke="#ffff00" cx="879" cy="-208" rx="63.09" ry="18"/>
<text text-anchor="middle" x="879" y="-204.3" font-family="Times,serif" font-size="14.00">महा&#45;(5.1)</text>
</g>
<!-- Node5_1&#45;&gt;Node5_2 -->
<g id="edge5" class="edge">
<title>Node5_1&#45;&gt;Node5_2</title>
<path fill="none" stroke="black" d="M863.64,-234.55C857.28,-243.34 849.22,-252.58 840,-259 823.47,-270.51 802.97,-278.38 784.16,-283.69"/>
<polygon fill="black" stroke="black" points="866.71,-236.26 869.43,-226.02 860.92,-232.33 866.71,-236.26"/>
<text text-anchor="middle" x="919.5" y="-247.8" font-family="Times,serif" font-size="14.00">कर्मधारयः</text>
</g>
<!-- Node8_1 -->
<g id="node11" class="node">
<title>Node8_1</title>
<ellipse fill="#ff99ff" stroke="#ff99ff" cx="639" cy="-121" rx="50.89" ry="18"/>
<text text-anchor="middle" x="639" y="-117.3" font-family="Times,serif" font-size="14.00">इव(8.1)</text>
</g>
<!-- Node8_1&#45;&gt;Node9_1 -->
<g id="edge9" class="edge">
<title>Node8_1&#45;&gt;Node9_1</title>
<path fill="none" stroke="black" d="M617.36,-146.2C604.83,-160.22 589.36,-177.52 578.13,-190.08"/>
<polygon fill="black" stroke="black" points="620.29,-148.18 624.35,-138.39 615.07,-143.51 620.29,-148.18"/>
<text text-anchor="middle" x="694" y="-160.8" font-family="Times,serif" font-size="14.00">उपमान_द्योतकः</text>
</g>
<!-- Node9_1&#45;&gt;Node5_2 -->
<g id="edge10" class="edge">
<title>Node9_1&#45;&gt;Node5_2</title>
<path fill="none" stroke="black" d="M583.78,-233.4C592.62,-242.51 603.52,-252.27 615,-259 633.81,-270.04 656.43,-277.89 676.61,-283.33"/>
<polygon fill="black" stroke="black" points="586.25,-230.92 576.88,-225.98 581.13,-235.68 586.25,-230.92"/>
<text text-anchor="middle" x="665" y="-247.8" font-family="Times,serif" font-size="14.00">उपमानम्</text>
</g>
<!-- Node10_1 -->
<g id="node13" class="node">
<title>Node10_1</title>
<ellipse fill="#ffff00" stroke="#ffff00" cx="677" cy="-34" rx="87.18" ry="18"/>
<text text-anchor="middle" x="677" y="-30.3" font-family="Times,serif" font-size="14.00">गैरिक&#45;(10.1)</text>
</g>
<!-- Node10_1&#45;&gt;Node10_2 -->
<g id="edge11" class="edge">
<title>Node10_1&#45;&gt;Node10_2</title>
<path fill="none" stroke="black" d="M649.14,-57.85C636.34,-67.4 620.56,-77.91 605,-85 582.51,-95.25 556.53,-102.83 533.22,-108.27"/>
<polygon fill="black" stroke="black" points="651.28,-60.62 657.09,-51.76 647.02,-55.07 651.28,-60.62"/>
<text text-anchor="middle" x="694.5" y="-73.8" font-family="Times,serif" font-size="14.00">कर्मधारयः</text>
</g>
</g>
</svg>
