<?xml version="1.0" encoding="UTF-8" standalone="no"?>
<!DOCTYPE svg PUBLIC "-//W3C//DTD SVG 1.1//EN"
 "http://www.w3.org/Graphics/SVG/1.1/DTD/svg11.dtd">
<!-- Generated by graphviz version 2.43.0 (0)
 -->
<!-- Title: G Pages: 1 -->
<svg width="1186pt" height="305pt"
 viewBox="0.00 0.00 1185.69 305.00" xmlns="http://www.w3.org/2000/svg" xmlns:xlink="http://www.w3.org/1999/xlink">
<g id="graph0" class="graph" transform="scale(1 1) rotate(0) translate(4 301)">
<title>G</title>
<polygon fill="#fffacd" stroke="transparent" points="-4,4 -4,-301 1181.69,-301 1181.69,4 -4,4"/>
<g id="clust1" class="cluster">
<title>cluster_1</title>
<polygon fill="#fffacd" stroke="black" points="470.69,-79 470.69,-218 1169.69,-218 1169.69,-79 470.69,-79"/>
</g>
<!-- Node1_1 -->
<g id="node1" class="node">
<title>Node1_1</title>
<ellipse fill="#00bfff" stroke="#00bfff" cx="1110.69" cy="-105" rx="50.89" ry="18"/>
<text text-anchor="middle" x="1110.69" y="-101.3" font-family="Times,serif" font-size="14.00">सः(1.1)</text>
</g>
<!-- Node4_1 -->
<g id="node2" class="node">
<title>Node4_1</title>
<ellipse fill="#00bfff" stroke="#00bfff" cx="732.69" cy="-192" rx="87.99" ry="18"/>
<text text-anchor="middle" x="732.69" y="-188.3" font-family="Times,serif" font-size="14.00">पर्वतः(4.1)</text>
</g>
<!-- Node1_1&#45;&gt;Node4_1 -->
<g id="edge1" class="edge">
<title>Node1_1&#45;&gt;Node4_1</title>
<path fill="none" stroke="black" d="M1075.26,-125C1053.7,-135.74 1025.29,-148.49 998.69,-156 938.85,-172.91 869.08,-181.7 816.02,-186.24"/>
<polygon fill="black" stroke="black" points="1077.02,-128.03 1084.35,-120.38 1073.85,-121.79 1077.02,-128.03"/>
<text text-anchor="middle" x="1097.19" y="-144.8" font-family="Times,serif" font-size="14.00">विशेषणम्</text>
</g>
<!-- Node6_1 -->
<g id="node8" class="node">
<title>Node6_1</title>
<ellipse fill="#ff1975" stroke="#ff1975" cx="355.69" cy="-279" rx="115.88" ry="18"/>
<text text-anchor="middle" x="355.69" y="-275.3" font-family="Times,serif" font-size="14.00">दर्शयामास(6.1)</text>
</g>
<!-- Node4_1&#45;&gt;Node6_1 -->
<g id="edge5" class="edge">
<title>Node4_1&#45;&gt;Node6_1</title>
<path fill="none" stroke="black" d="M665.82,-208.08C595.92,-223.84 487.08,-248.38 418.67,-263.8"/>
<polygon fill="black" stroke="black" points="666.86,-211.43 675.84,-205.82 665.32,-204.6 666.86,-211.43"/>
<text text-anchor="middle" x="602.69" y="-231.8" font-family="Times,serif" font-size="14.00">कर्ता</text>
</g>
<!-- Node2_2 -->
<g id="node3" class="node">
<title>Node2_2</title>
<ellipse fill="#00bfff" stroke="#00bfff" cx="557.69" cy="-105" rx="78.79" ry="18"/>
<text text-anchor="middle" x="557.69" y="-101.3" font-family="Times,serif" font-size="14.00">आत्मा(2.2)</text>
</g>
<!-- Node2_2&#45;&gt;Node4_1 -->
<g id="edge3" class="edge">
<title>Node2_2&#45;&gt;Node4_1</title>
<path fill="none" stroke="black" d="M580.05,-130.13C589.65,-139.32 601.47,-149.2 613.69,-156 631.76,-166.05 653.01,-173.48 672.52,-178.85"/>
<polygon fill="black" stroke="black" points="582.42,-127.55 572.86,-122.98 577.48,-132.51 582.42,-127.55"/>
<text text-anchor="middle" x="671.19" y="-144.8" font-family="Times,serif" font-size="14.00">विशेषणम्</text>
</g>
<!-- Node5_2 -->
<g id="node4" class="node">
<title>Node5_2</title>
<ellipse fill="#00bfff" stroke="#00bfff" cx="732.69" cy="-105" rx="78.79" ry="18"/>
<text text-anchor="middle" x="732.69" y="-101.3" font-family="Times,serif" font-size="14.00">आवृतः(5.2)</text>
</g>
<!-- Node5_2&#45;&gt;Node4_1 -->
<g id="edge7" class="edge">
<title>Node5_2&#45;&gt;Node4_1</title>
<path fill="none" stroke="black" d="M732.69,-133.27C732.69,-146.58 732.69,-162.19 732.69,-173.82"/>
<polygon fill="black" stroke="black" points="736.19,-133.2 732.69,-123.2 729.19,-133.2 736.19,-133.2"/>
<text text-anchor="middle" x="790.19" y="-144.8" font-family="Times,serif" font-size="14.00">विशेषणम्</text>
</g>
<!-- Node9_1 -->
<g id="node5" class="node">
<title>Node9_1</title>
<ellipse fill="#00bfff" stroke="#00bfff" cx="935.69" cy="-105" rx="106.68" ry="18"/>
<text text-anchor="middle" x="935.69" y="-101.3" font-family="Times,serif" font-size="14.00">नियोजितः(9.1)</text>
</g>
<!-- Node9_1&#45;&gt;Node4_1 -->
<g id="edge10" class="edge">
<title>Node9_1&#45;&gt;Node4_1</title>
<path fill="none" stroke="black" d="M903.07,-128.02C887.92,-137.56 869.37,-148.28 851.69,-156 831.36,-164.87 808.13,-172.27 787.62,-177.94"/>
<polygon fill="black" stroke="black" points="905.04,-130.92 911.57,-122.57 901.26,-125.02 905.04,-130.92"/>
<text text-anchor="middle" x="937.19" y="-144.8" font-family="Times,serif" font-size="14.00">विशेषणम्</text>
</g>
<!-- Node2_1 -->
<g id="node6" class="node">
<title>Node2_1</title>
<ellipse fill="#ffff00" stroke="#ffff00" cx="557.69" cy="-18" rx="63.09" ry="18"/>
<text text-anchor="middle" x="557.69" y="-14.3" font-family="Times,serif" font-size="14.00">महा&#45;(2.1)</text>
</g>
<!-- Node2_1&#45;&gt;Node2_2 -->
<g id="edge2" class="edge">
<title>Node2_1&#45;&gt;Node2_2</title>
<path fill="none" stroke="black" d="M557.69,-46.27C557.69,-59.58 557.69,-75.19 557.69,-86.82"/>
<polygon fill="black" stroke="black" points="561.19,-46.2 557.69,-36.2 554.19,-46.2 561.19,-46.2"/>
<text text-anchor="middle" x="622.19" y="-57.8" font-family="Times,serif" font-size="14.00">कर्मधारयः</text>
</g>
<!-- Node3_1 -->
<g id="node7" class="node">
<title>Node3_1</title>
<ellipse fill="#40e0d0" stroke="#40e0d0" cx="115.69" cy="-192" rx="115.88" ry="18"/>
<text text-anchor="middle" x="115.69" y="-188.3" font-family="Times,serif" font-size="14.00">मुहूर्तेन(3.1)</text>
</g>
<!-- Node3_1&#45;&gt;Node6_1 -->
<g id="edge4" class="edge">
<title>Node3_1&#45;&gt;Node6_1</title>
<path fill="none" stroke="black" d="M128.8,-218.85C134.62,-227.84 142.3,-237.13 151.69,-243 170.13,-254.52 216.71,-262.97 260.71,-268.67"/>
<polygon fill="black" stroke="black" points="131.72,-216.91 123.6,-210.09 125.7,-220.48 131.72,-216.91"/>
<text text-anchor="middle" x="251.69" y="-231.8" font-family="Times,serif" font-size="14.00">क्रियाविशेषणम्</text>
</g>
<!-- Node5_1 -->
<g id="node9" class="node">
<title>Node5_1</title>
<ellipse fill="#ffff00" stroke="#ffff00" cx="721.69" cy="-18" rx="72.29" ry="18"/>
<text text-anchor="middle" x="721.69" y="-14.3" font-family="Times,serif" font-size="14.00">सलिल&#45;(5.1)</text>
</g>
<!-- Node5_1&#45;&gt;Node5_2 -->
<g id="edge6" class="edge">
<title>Node5_1&#45;&gt;Node5_2</title>
<path fill="none" stroke="black" d="M720.97,-46.44C721.12,-53.8 721.6,-61.73 722.69,-69 723.57,-74.87 725.16,-81.15 726.8,-86.75"/>
<polygon fill="black" stroke="black" points="724.47,-46.21 720.94,-36.22 717.47,-46.22 724.47,-46.21"/>
<text text-anchor="middle" x="833.19" y="-57.8" font-family="Times,serif" font-size="14.00">तृतीया_तत्पुरुषः</text>
</g>
<!-- Node7_1 -->
<g id="node10" class="node">
<title>Node7_1</title>
<ellipse fill="#93db70" stroke="#93db70" cx="355.69" cy="-192" rx="106.68" ry="18"/>
<text text-anchor="middle" x="355.69" y="-188.3" font-family="Times,serif" font-size="14.00">शृङ्गाणि(7.1)</text>
</g>
<!-- Node7_1&#45;&gt;Node6_1 -->
<g id="edge8" class="edge">
<title>Node7_1&#45;&gt;Node6_1</title>
<path fill="none" stroke="black" d="M355.69,-220.27C355.69,-233.58 355.69,-249.19 355.69,-260.82"/>
<polygon fill="black" stroke="black" points="359.19,-220.2 355.69,-210.2 352.19,-220.2 359.19,-220.2"/>
<text text-anchor="middle" x="384.69" y="-231.8" font-family="Times,serif" font-size="14.00">कर्म</text>
</g>
<!-- Node8_1 -->
<g id="node11" class="node">
<title>Node8_1</title>
<ellipse fill="#40e0d0" stroke="#40e0d0" cx="965.69" cy="-18" rx="87.99" ry="18"/>
<text text-anchor="middle" x="965.69" y="-14.3" font-family="Times,serif" font-size="14.00">सागरेण(8.1)</text>
</g>
<!-- Node8_1&#45;&gt;Node9_1 -->
<g id="edge9" class="edge">
<title>Node8_1&#45;&gt;Node9_1</title>
<path fill="none" stroke="black" d="M956.21,-45.87C951.48,-59.27 945.9,-75.08 941.75,-86.82"/>
<polygon fill="black" stroke="black" points="959.59,-46.8 959.62,-36.2 952.99,-44.47 959.59,-46.8"/>
<text text-anchor="middle" x="987.69" y="-57.8" font-family="Times,serif" font-size="14.00">कर्ता</text>
</g>
</g>
</svg>
