<svg xmlns="http://www.w3.org/2000/svg" xmlns:xlink="http://www.w3.org/1999/xlink" width="1427pt" height="544" viewBox="0 0 1427 408"><g id="graph0" class="graph" transform="scale(1 1) rotate(0) translate(4 404)"><title>G</title><polygon fill="#fffacd" stroke="transparent" points="-4 4 -4 -404 1423 -404 1423 4 -4 4"/><g id="clust1" class="cluster"><title>cluster_1</title><polygon fill="#fffacd" stroke="#000" points="8 -8 8 -147 256 -147 256 -8 8 -8"/></g><g id="node1" class="node"><title>Node6_1</title><ellipse cx="132" cy="-34" fill="#93db70" stroke="#93db70" rx="115.88" ry="18"/><text x="132" y="-30.3" font-family="Times,serif" font-size="14" text-anchor="middle">प्लवन्तम्(6.1)</text></g><g id="node2" class="node"><title>Node4_1</title><ellipse cx="160" cy="-121" fill="#93db70" stroke="#93db70" rx="59.59" ry="18"/><text x="160" y="-117.3" font-family="Times,serif" font-size="14" text-anchor="middle">तम्(4.1)</text></g><g id="edge5" class="edge"><title>Node6_1-&gt;Node4_1</title><path fill="none" stroke="#000" d="M140.85,-61.87C145.27,-75.27 150.47,-91.08 154.34,-102.82"/><polygon fill="#000" stroke="#000" points="144.12 -60.6 137.67 -52.2 137.47 -62.79 144.12 -60.6"/><text x="205.5" y="-73.8" font-family="Times,serif" font-size="14" text-anchor="middle">विशेषणम्</text></g><g id="node3" class="node"><title>Node1_1</title><ellipse cx="382" cy="-208" fill="#ff1975" stroke="#ff1975" rx="69.59" ry="18"/><text x="382" y="-204.3" font-family="Times,serif" font-size="14" text-anchor="middle">तताप(1.1)</text></g><g id="edge3" class="edge"><title>Node4_1-&gt;Node1_1</title><path fill="none" stroke="#000" d="M189.93,-143.88C204.45,-153.65 222.51,-164.6 240,-172 267.24,-183.52 299.1,-191.81 325.73,-197.41"/><polygon fill="#000" stroke="#000" points="191.6 -140.78 181.38 -137.99 187.63 -146.55 191.6 -140.78"/><text x="269" y="-160.8" font-family="Times,serif" font-size="14" text-anchor="middle">कर्म</text></g><g id="node4" class="node"><title>Node2_1</title><ellipse cx="306" cy="-121" fill="#f9f" stroke="#f9f" rx="41.69" ry="18"/><text x="306" y="-117.3" font-family="Times,serif" font-size="14" text-anchor="middle">न(2.1)</text></g><g id="edge1" class="edge"><title>Node2_1-&gt;Node1_1</title><path fill="none" stroke="#000" d="M301.34,-149.08C301.29,-157.01 302.65,-165.32 307,-172 313.59,-182.12 323.92,-189.36 334.84,-194.53"/><polygon fill="#000" stroke="#000" points="304.83 -149.3 302.08 -139.07 297.85 -148.78 304.83 -149.3"/><text x="371.5" y="-160.8" font-family="Times,serif" font-size="14" text-anchor="middle">प्रतिषेधः</text></g><g id="node5" class="node"><title>Node3_1</title><ellipse cx="458" cy="-121" fill="#f9f" stroke="#f9f" rx="50.89" ry="18"/><text x="458" y="-117.3" font-family="Times,serif" font-size="14" text-anchor="middle">हि(3.1)</text></g><g id="edge2" class="edge"><title>Node3_1-&gt;Node1_1</title><path fill="none" stroke="#000" d="M449.64,-148.61C446.26,-156.69 441.77,-165.22 436,-172 429.41,-179.74 420.68,-186.4 412.17,-191.77"/><polygon fill="#000" stroke="#000" points="452.97 -149.71 453.23 -139.12 446.42 -147.24 452.97 -149.71"/><text x="502.5" y="-160.8" font-family="Times,serif" font-size="14" text-anchor="middle">सम्बन्धः</text></g><g id="node6" class="node"><title>Node5_1</title><ellipse cx="614" cy="-121" fill="#00bfff" stroke="#00bfff" rx="87.99" ry="18"/><text x="614" y="-117.3" font-family="Times,serif" font-size="14" text-anchor="middle">सूर्यः(5.1)</text></g><g id="edge4" class="edge"><title>Node5_1-&gt;Node1_1</title><path fill="none" stroke="#000" d="M594.94,-146.73C586.46,-156.07 575.74,-165.9 564,-172 522.76,-193.43 506.61,-181.11 461,-190 451.91,-191.77 442.26,-193.76 432.94,-195.73"/><polygon fill="#000" stroke="#000" points="597.64 -148.96 601.51 -139.1 592.33 -144.4 597.64 -148.96"/><text x="620" y="-160.8" font-family="Times,serif" font-size="14" text-anchor="middle">कर्ता</text></g><g id="node7" class="node"><title>Node7_1</title><ellipse cx="542" cy="-208" fill="#ff0" stroke="#ff0" rx="72.29" ry="18"/><text x="542" y="-204.3" font-family="Times,serif" font-size="14" text-anchor="middle">वानर-(7.1)</text></g><g id="node8" class="node"><title>Node7_2</title><ellipse cx="542" cy="-295" fill="#93db70" stroke="#93db70" rx="96.68" ry="18"/><text x="542" y="-291.3" font-family="Times,serif" font-size="14" text-anchor="middle">ईश्वरम्(7.2)</text></g><g id="edge6" class="edge"><title>Node7_1-&gt;Node7_2</title><path fill="none" stroke="#000" d="M542,-236.27C542,-249.58 542,-265.19 542,-276.82"/><polygon fill="#000" stroke="#000" points="545.5 -236.2 542 -226.2 538.5 -236.2 545.5 -236.2"/><text x="645.5" y="-247.8" font-family="Times,serif" font-size="14" text-anchor="middle">षष्ठी_तत्पुरुषः</text></g><g id="node9" class="node"><title>Node8_1</title><ellipse cx="836" cy="-382" fill="#ff1975" stroke="#ff1975" rx="87.99" ry="18"/><text x="836" y="-378.3" font-family="Times,serif" font-size="14" text-anchor="middle">सिषेवे(8.1)</text></g><g id="edge7" class="edge"><title>Node7_2-&gt;Node8_1</title><path fill="none" stroke="#000" d="M579,-317.21C597.92,-327.25 621.62,-338.63 644,-346 681.98,-358.5 725.74,-366.92 761.88,-372.35"/><polygon fill="#000" stroke="#000" points="580.59 -314.09 570.13 -312.41 577.26 -320.25 580.59 -314.09"/><text x="673" y="-334.8" font-family="Times,serif" font-size="14" text-anchor="middle">कर्म</text></g><g id="node10" class="node"><title>Node9_1</title><ellipse cx="698" cy="-295" fill="#f9f" stroke="#f9f" rx="41.69" ry="18"/><text x="698" y="-291.3" font-family="Times,serif" font-size="14" text-anchor="middle">च(9.1)</text></g><g id="edge8" class="edge"><title>Node9_1-&gt;Node8_1</title><path fill="none" stroke="#000" d="M703.26,-322.9C706.09,-331.28 710.41,-339.9 717,-346 730.2,-358.22 747.44,-366.19 764.7,-371.38"/><polygon fill="#000" stroke="#000" points="706.56 -321.7 700.5 -313 699.82 -323.58 706.56 -321.7"/><text x="774.5" y="-334.8" font-family="Times,serif" font-size="14" text-anchor="middle">सम्बन्धः</text></g><g id="node11" class="node"><title>Node10_1</title><ellipse cx="836" cy="-295" fill="#f9f" stroke="#f9f" rx="65.79" ry="18"/><text x="836" y="-291.3" font-family="Times,serif" font-size="14" text-anchor="middle">तदा(10.1)</text></g><g id="edge9" class="edge"><title>Node10_1-&gt;Node8_1</title><path fill="none" stroke="#000" d="M836,-323.27C836,-336.58 836,-352.19 836,-363.82"/><polygon fill="#000" stroke="#000" points="839.5 -323.2 836 -313.2 832.5 -323.2 839.5 -323.2"/><text x="914.5" y="-334.8" font-family="Times,serif" font-size="14" text-anchor="middle">कालाधिकरणम्</text></g><g id="node12" class="node"><title>Node11_1</title><ellipse cx="1016" cy="-295" fill="#00bfff" stroke="#00bfff" rx="75.29" ry="18"/><text x="1016" y="-291.3" font-family="Times,serif" font-size="14" text-anchor="middle">वायू(11.1)</text></g><g id="edge10" class="edge"><title>Node11_1-&gt;Node8_1</title><path fill="none" stroke="#000" d="M1009.39,-322.96C1006.07,-331.44 1001.17,-340.12 994,-346 980.48,-357.09 942.74,-365.68 907.54,-371.56"/><polygon fill="#000" stroke="#000" points="1012.78 -323.86 1012.6 -313.27 1006.13 -321.66 1012.78 -323.86"/><text x="1041" y="-334.8" font-family="Times,serif" font-size="14" text-anchor="middle">कर्ता</text></g><g id="node13" class="node"><title>Node12_1</title><ellipse cx="1212" cy="-34" fill="#ff0" stroke="#ff0" rx="68.79" ry="18"/><text x="1212" y="-30.3" font-family="Times,serif" font-size="14" text-anchor="middle">राम-(12.1)</text></g><g id="node14" class="node"><title>Node12_2</title><ellipse cx="1212" cy="-121" fill="#ff0" stroke="#ff0" rx="87.18" ry="18"/><text x="1212" y="-117.3" font-family="Times,serif" font-size="14" text-anchor="middle">कार्य-(12.2)</text></g><g id="edge11" class="edge"><title>Node12_1-&gt;Node12_2</title><path fill="none" stroke="#000" d="M1212,-62.27C1212,-75.58 1212,-91.19 1212,-102.82"/><polygon fill="#000" stroke="#000" points="1215.5 -62.2 1212 -52.2 1208.5 -62.2 1215.5 -62.2"/><text x="1315.5" y="-73.8" font-family="Times,serif" font-size="14" text-anchor="middle">षष्ठी_तत्पुरुषः</text></g><g id="node15" class="node"><title>Node12_3</title><ellipse cx="1212" cy="-208" fill="#ff0" stroke="#ff0" rx="77.99" ry="18"/><text x="1212" y="-204.3" font-family="Times,serif" font-size="14" text-anchor="middle">अर्थ-(12.3)</text></g><g id="edge12" class="edge"><title>Node12_2-&gt;Node12_3</title><path fill="none" stroke="#000" d="M1212,-149.27C1212,-162.58 1212,-178.19 1212,-189.82"/><polygon fill="#000" stroke="#000" points="1215.5 -149.2 1212 -139.2 1208.5 -149.2 1215.5 -149.2"/><text x="1276.5" y="-160.8" font-family="Times,serif" font-size="14" text-anchor="middle">कर्मधारयः</text></g><g id="node16" class="node"><title>Node12_4</title><ellipse cx="1212" cy="-295" fill="#b0e2ff" stroke="#b0e2ff" rx="102.88" ry="18"/><text x="1212" y="-291.3" font-family="Times,serif" font-size="14" text-anchor="middle">सिद्धये(12.4)</text></g><g id="edge13" class="edge"><title>Node12_3-&gt;Node12_4</title><path fill="none" stroke="#000" d="M1212,-236.27C1212,-249.58 1212,-265.19 1212,-276.82"/><polygon fill="#000" stroke="#000" points="1215.5 -236.2 1212 -226.2 1208.5 -236.2 1215.5 -236.2"/><text x="1315.5" y="-247.8" font-family="Times,serif" font-size="14" text-anchor="middle">षष्ठी_तत्पुरुषः</text></g><g id="edge14" class="edge"><title>Node12_4-&gt;Node8_1</title><path fill="none" stroke="#000" d="M1167.03,-316.02C1142.11,-326.38 1110.34,-338.41 1081,-346 1026.51,-360.1 963.63,-368.94 915.22,-374.2"/><polygon fill="#000" stroke="#000" points="1168.71 -319.11 1176.56 -312 1165.99 -312.66 1168.71 -319.11"/><text x="1189.5" y="-334.8" font-family="Times,serif" font-size="14" text-anchor="middle">प्रयोजनम्</text></g></g></svg>