<?xml version="1.0" encoding="UTF-8" standalone="no"?>
<!DOCTYPE svg PUBLIC "-//W3C//DTD SVG 1.1//EN"
 "http://www.w3.org/Graphics/SVG/1.1/DTD/svg11.dtd">
<!-- Generated by graphviz version 2.43.0 (0)
 -->
<!-- Title: G Pages: 1 -->
<svg width="1273pt" height="321pt"
 viewBox="0.00 0.00 1273.00 321.00" xmlns="http://www.w3.org/2000/svg" xmlns:xlink="http://www.w3.org/1999/xlink">
<g id="graph0" class="graph" transform="scale(1 1) rotate(0) translate(4 317)">
<title>G</title>
<polygon fill="#fffacd" stroke="transparent" points="-4,4 -4,-317 1269,-317 1269,4 -4,4"/>
<g id="clust1" class="cluster">
<title>cluster_1</title>
<polygon fill="#fffacd" stroke="black" points="780,-8 780,-147 1010,-147 1010,-8 780,-8"/>
</g>
<g id="clust2" class="cluster">
<title>cluster_2</title>
<polygon fill="#fffacd" stroke="black" points="8,-8 8,-147 192,-147 192,-8 8,-8"/>
</g>
<!-- Node5_1 -->
<g id="node1" class="node">
<title>Node5_1</title>
<ellipse fill="#93db70" stroke="#93db70" cx="887" cy="-34" rx="69.59" ry="18"/>
<text text-anchor="middle" x="887" y="-30.3" font-family="Times,serif" font-size="14.00">ताम्(5.1)</text>
</g>
<!-- Node7_2 -->
<g id="node2" class="node">
<title>Node7_2</title>
<ellipse fill="#93db70" stroke="#93db70" cx="895" cy="-121" rx="106.68" ry="18"/>
<text text-anchor="middle" x="895" y="-117.3" font-family="Times,serif" font-size="14.00">आत्मजाम्(7.2)</text>
</g>
<!-- Node5_1&#45;&gt;Node7_2 -->
<g id="edge4" class="edge">
<title>Node5_1&#45;&gt;Node7_2</title>
<path fill="none" stroke="black" d="M889.57,-62.27C890.82,-75.58 892.29,-91.19 893.38,-102.82"/>
<polygon fill="black" stroke="black" points="893.04,-61.83 888.62,-52.2 886.07,-62.49 893.04,-61.83"/>
<text text-anchor="middle" x="948.5" y="-73.8" font-family="Times,serif" font-size="14.00">विशेषणम्</text>
</g>
<!-- Node3_1 -->
<g id="node6" class="node">
<title>Node3_1</title>
<ellipse fill="#ff1975" stroke="#ff1975" cx="895" cy="-208" rx="133.78" ry="18"/>
<text text-anchor="middle" x="895" y="-204.3" font-family="Times,serif" font-size="14.00">द्रक्ष्यामि(3.1)</text>
</g>
<!-- Node7_2&#45;&gt;Node3_1 -->
<g id="edge7" class="edge">
<title>Node7_2&#45;&gt;Node3_1</title>
<path fill="none" stroke="black" d="M895,-149.27C895,-162.58 895,-178.19 895,-189.82"/>
<polygon fill="black" stroke="black" points="898.5,-149.2 895,-139.2 891.5,-149.2 898.5,-149.2"/>
<text text-anchor="middle" x="924" y="-160.8" font-family="Times,serif" font-size="14.00">कर्म</text>
</g>
<!-- Node8_1 -->
<g id="node3" class="node">
<title>Node8_1</title>
<ellipse fill="#40e0d0" stroke="#40e0d0" cx="86" cy="-34" rx="69.59" ry="18"/>
<text text-anchor="middle" x="86" y="-30.3" font-family="Times,serif" font-size="14.00">अनेन(8.1)</text>
</g>
<!-- Node11_1 -->
<g id="node4" class="node">
<title>Node11_1</title>
<ellipse fill="#40e0d0" stroke="#40e0d0" cx="100" cy="-121" rx="84.49" ry="18"/>
<text text-anchor="middle" x="100" y="-117.3" font-family="Times,serif" font-size="14.00">वेगेन(11.1)</text>
</g>
<!-- Node8_1&#45;&gt;Node11_1 -->
<g id="edge8" class="edge">
<title>Node8_1&#45;&gt;Node11_1</title>
<path fill="none" stroke="black" d="M90.49,-62.27C92.68,-75.58 95.26,-91.19 97.17,-102.82"/>
<polygon fill="black" stroke="black" points="93.91,-61.5 88.83,-52.2 87,-62.64 93.91,-61.5"/>
<text text-anchor="middle" x="151.5" y="-73.8" font-family="Times,serif" font-size="14.00">विशेषणम्</text>
</g>
<!-- Node12_1 -->
<g id="node13" class="node">
<title>Node12_1</title>
<ellipse fill="#ff1975" stroke="#ff1975" cx="353" cy="-208" rx="121.58" ry="18"/>
<text text-anchor="middle" x="353" y="-204.3" font-family="Times,serif" font-size="14.00">गमिष्यामि(12.1)</text>
</g>
<!-- Node11_1&#45;&gt;Node12_1 -->
<g id="edge11" class="edge">
<title>Node11_1&#45;&gt;Node12_1</title>
<path fill="none" stroke="black" d="M128.82,-144.78C142.44,-154.51 159.33,-165.18 176,-172 203.1,-183.1 234.02,-190.76 262.35,-196.01"/>
<polygon fill="black" stroke="black" points="130.51,-141.68 120.38,-138.57 126.36,-147.32 130.51,-141.68"/>
<text text-anchor="middle" x="212" y="-160.8" font-family="Times,serif" font-size="14.00">करणम्</text>
</g>
<!-- Node1_1 -->
<g id="node5" class="node">
<title>Node1_1</title>
<ellipse fill="#ff99ff" stroke="#ff99ff" cx="1061" cy="-121" rx="41.69" ry="18"/>
<text text-anchor="middle" x="1061" y="-117.3" font-family="Times,serif" font-size="14.00">न(1.1)</text>
</g>
<!-- Node1_1&#45;&gt;Node3_1 -->
<g id="edge1" class="edge">
<title>Node1_1&#45;&gt;Node3_1</title>
<path fill="none" stroke="black" d="M1026.58,-140.42C1022.35,-142.65 1018.08,-144.89 1014,-147 985.13,-161.95 952.11,-178.56 928.18,-190.51"/>
<polygon fill="black" stroke="black" points="1028.49,-143.37 1035.69,-135.6 1025.21,-137.18 1028.49,-143.37"/>
<text text-anchor="middle" x="1055.5" y="-160.8" font-family="Times,serif" font-size="14.00">प्रतिषेधः</text>
</g>
<!-- Node4_1 -->
<g id="node8" class="node">
<title>Node4_1</title>
<ellipse fill="#ff99ff" stroke="#ff99ff" cx="577" cy="-295" rx="59.59" ry="18"/>
<text text-anchor="middle" x="577" y="-291.3" font-family="Times,serif" font-size="14.00">यदि(4.1)</text>
</g>
<!-- Node3_1&#45;&gt;Node4_1 -->
<g id="edge3" class="edge">
<title>Node3_1&#45;&gt;Node4_1</title>
<path fill="none" stroke="black" d="M828,-226.91C765.48,-243.62 674.01,-268.07 620.49,-282.38"/>
<polygon fill="black" stroke="black" points="829.02,-230.26 837.78,-224.29 827.22,-223.5 829.02,-230.26"/>
<text text-anchor="middle" x="819.5" y="-247.8" font-family="Times,serif" font-size="14.00">प्रतियोगी</text>
</g>
<!-- Node2_1 -->
<g id="node7" class="node">
<title>Node2_1</title>
<ellipse fill="#ff99ff" stroke="#ff99ff" cx="1192" cy="-121" rx="50.89" ry="18"/>
<text text-anchor="middle" x="1192" y="-117.3" font-family="Times,serif" font-size="14.00">हि(2.1)</text>
</g>
<!-- Node2_1&#45;&gt;Node3_1 -->
<g id="edge2" class="edge">
<title>Node2_1&#45;&gt;Node3_1</title>
<path fill="none" stroke="black" d="M1167.12,-144.83C1154.97,-154.73 1139.62,-165.53 1124,-172 1089.82,-186.16 1050.63,-194.67 1014.45,-199.75"/>
<polygon fill="black" stroke="black" points="1169.62,-147.31 1174.99,-138.18 1165.1,-141.96 1169.62,-147.31"/>
<text text-anchor="middle" x="1207.5" y="-160.8" font-family="Times,serif" font-size="14.00">सम्बन्धः</text>
</g>
<!-- Node6_1 -->
<g id="node9" class="node">
<title>Node6_1</title>
<ellipse fill="#c6e2eb" stroke="#c6e2eb" cx="655" cy="-121" rx="115.88" ry="18"/>
<text text-anchor="middle" x="655" y="-117.3" font-family="Times,serif" font-size="14.00">लङ्कायाम्(6.1)</text>
</g>
<!-- Node6_1&#45;&gt;Node3_1 -->
<g id="edge5" class="edge">
<title>Node6_1&#45;&gt;Node3_1</title>
<path fill="none" stroke="black" d="M685.36,-144.74C699.51,-154.4 716.96,-165.01 734,-172 757.55,-181.66 784.19,-188.83 808.92,-194.08"/>
<polygon fill="black" stroke="black" points="687.2,-141.77 677,-138.9 683.19,-147.5 687.2,-141.77"/>
<text text-anchor="middle" x="812.5" y="-160.8" font-family="Times,serif" font-size="14.00">देशाधिकरणम्</text>
</g>
<!-- Node7_1 -->
<g id="node10" class="node">
<title>Node7_1</title>
<ellipse fill="#ffff00" stroke="#ffff00" cx="657" cy="-34" rx="63.09" ry="18"/>
<text text-anchor="middle" x="657" y="-30.3" font-family="Times,serif" font-size="14.00">जनक&#45;(7.1)</text>
</g>
<!-- Node7_1&#45;&gt;Node7_2 -->
<g id="edge6" class="edge">
<title>Node7_1&#45;&gt;Node7_2</title>
<path fill="none" stroke="black" d="M663.42,-62.19C666.73,-70.7 671.67,-79.33 679,-85 681.85,-87.21 757.47,-99.13 818.43,-108.46"/>
<polygon fill="black" stroke="black" points="666.67,-60.88 660.25,-52.46 660.02,-63.05 666.67,-60.88"/>
<text text-anchor="middle" x="782.5" y="-73.8" font-family="Times,serif" font-size="14.00">षष्ठी_तत्पुरुषः</text>
</g>
<!-- Node9_1 -->
<g id="node11" class="node">
<title>Node9_1</title>
<ellipse fill="#ff99ff" stroke="#ff99ff" cx="251" cy="-34" rx="50.89" ry="18"/>
<text text-anchor="middle" x="251" y="-30.3" font-family="Times,serif" font-size="14.00">एव(9.1)</text>
</g>
<!-- Node9_1&#45;&gt;Node11_1 -->
<g id="edge9" class="edge">
<title>Node9_1&#45;&gt;Node11_1</title>
<path fill="none" stroke="black" d="M236.18,-60.59C229.99,-69.39 222.11,-78.62 213,-85 197.69,-95.72 178.98,-103.24 161.23,-108.48"/>
<polygon fill="black" stroke="black" points="239.22,-62.33 241.79,-52.05 233.37,-58.49 239.22,-62.33"/>
<text text-anchor="middle" x="286.5" y="-73.8" font-family="Times,serif" font-size="14.00">सम्बन्धः</text>
</g>
<!-- Node10_1 -->
<g id="node12" class="node">
<title>Node10_1</title>
<ellipse fill="#ff99ff" stroke="#ff99ff" cx="259" cy="-121" rx="56.59" ry="18"/>
<text text-anchor="middle" x="259" y="-117.3" font-family="Times,serif" font-size="14.00">हि(10.1)</text>
</g>
<!-- Node10_1&#45;&gt;Node12_1 -->
<g id="edge10" class="edge">
<title>Node10_1&#45;&gt;Node12_1</title>
<path fill="none" stroke="black" d="M251.22,-149.26C250.5,-157.19 251.41,-165.47 256,-172 262.59,-181.38 271.94,-188.25 282.27,-193.29"/>
<polygon fill="black" stroke="black" points="254.7,-149.66 252.93,-139.22 247.8,-148.49 254.7,-149.66"/>
<text text-anchor="middle" x="338" y="-160.8" font-family="Times,serif" font-size="14.00">कारण_द्योतकः</text>
</g>
<!-- Node12_1&#45;&gt;Node4_1 -->
<g id="edge12" class="edge">
<title>Node12_1&#45;&gt;Node4_1</title>
<path fill="none" stroke="black" d="M404.61,-228.58C446.49,-244.48 504.45,-266.47 541.33,-280.46"/>
<polygon fill="black" stroke="black" points="405.72,-225.26 395.13,-224.99 403.24,-231.81 405.72,-225.26"/>
<text text-anchor="middle" x="529" y="-247.8" font-family="Times,serif" font-size="14.00">अनुयोगी</text>
</g>
<!-- Node13_1 -->
<g id="node14" class="node">
<title>Node13_1</title>
<ellipse fill="#ffff00" stroke="#ffff00" cx="427" cy="-34" rx="68.79" ry="18"/>
<text text-anchor="middle" x="427" y="-30.3" font-family="Times,serif" font-size="14.00">सुर&#45;(13.1)</text>
</g>
<!-- Node13_2 -->
<g id="node15" class="node">
<title>Node13_2</title>
<ellipse fill="#93db70" stroke="#93db70" cx="432" cy="-121" rx="84.49" ry="18"/>
<text text-anchor="middle" x="432" y="-117.3" font-family="Times,serif" font-size="14.00">आलयम्(13.2)</text>
</g>
<!-- Node13_1&#45;&gt;Node13_2 -->
<g id="edge13" class="edge">
<title>Node13_1&#45;&gt;Node13_2</title>
<path fill="none" stroke="black" d="M427.08,-62.36C427.23,-69.72 427.51,-77.67 428,-85 428.39,-90.86 429.05,-97.24 429.73,-102.94"/>
<polygon fill="black" stroke="black" points="430.58,-62.09 426.95,-52.14 423.58,-62.19 430.58,-62.09"/>
<text text-anchor="middle" x="531.5" y="-73.8" font-family="Times,serif" font-size="14.00">षष्ठी_तत्पुरुषः</text>
</g>
<!-- Node13_2&#45;&gt;Node12_1 -->
<g id="edge14" class="edge">
<title>Node13_2&#45;&gt;Node12_1</title>
<path fill="none" stroke="black" d="M432.26,-149.31C431.17,-157.24 428.79,-165.51 424,-172 418.04,-180.07 409.71,-186.39 400.84,-191.29"/>
<polygon fill="black" stroke="black" points="435.76,-149.5 433.04,-139.26 428.78,-148.96 435.76,-149.5"/>
<text text-anchor="middle" x="460" y="-160.8" font-family="Times,serif" font-size="14.00">कर्म</text>
</g>
</g>
</svg>
