<?xml version="1.0" encoding="UTF-8" standalone="no"?>
<!DOCTYPE svg PUBLIC "-//W3C//DTD SVG 1.1//EN"
 "http://www.w3.org/Graphics/SVG/1.1/DTD/svg11.dtd">
<!-- Generated by graphviz version 2.43.0 (0)
 -->
<!-- Title: G Pages: 1 -->
<svg width="1035pt" height="392pt"
 viewBox="0.00 0.00 1035.00 392.00" xmlns="http://www.w3.org/2000/svg" xmlns:xlink="http://www.w3.org/1999/xlink">
<g id="graph0" class="graph" transform="scale(1 1) rotate(0) translate(4 388)">
<title>G</title>
<polygon fill="#fffacd" stroke="transparent" points="-4,4 -4,-388 1031,-388 1031,4 -4,4"/>
<g id="clust1" class="cluster">
<title>cluster_1</title>
<polygon fill="#fffacd" stroke="black" points="8,-166 8,-305 274,-305 274,-166 8,-166"/>
</g>
<g id="clust2" class="cluster">
<title>cluster_2</title>
<polygon fill="#fffacd" stroke="black" points="287,-79 287,-218 461,-218 461,-79 287,-79"/>
</g>
<g id="clust3" class="cluster">
<title>cluster_3</title>
<polygon fill="#fffacd" stroke="black" points="759,-79 759,-218 1019,-218 1019,-79 759,-79"/>
</g>
<!-- Node2_1 -->
<g id="node1" class="node">
<title>Node2_1</title>
<ellipse fill="#00bfff" stroke="#00bfff" cx="141" cy="-192" rx="124.58" ry="18"/>
<text text-anchor="middle" x="141" y="-188.3" font-family="Times,serif" font-size="14.00">प्राङ्मुखः(2.1)</text>
</g>
<!-- Node10_1 -->
<g id="node2" class="node">
<title>Node10_1</title>
<ellipse fill="#00bfff" stroke="#00bfff" cx="151" cy="-279" rx="102.88" ry="18"/>
<text text-anchor="middle" x="151" y="-275.3" font-family="Times,serif" font-size="14.00">दक्षिणः(10.1)</text>
</g>
<!-- Node2_1&#45;&gt;Node10_1 -->
<g id="edge2" class="edge">
<title>Node2_1&#45;&gt;Node10_1</title>
<path fill="none" stroke="black" d="M144.21,-220.27C145.77,-233.58 147.61,-249.19 148.98,-260.82"/>
<polygon fill="black" stroke="black" points="147.67,-219.72 143.02,-210.2 140.72,-220.54 147.67,-219.72"/>
<text text-anchor="middle" x="204.5" y="-231.8" font-family="Times,serif" font-size="14.00">विशेषणम्</text>
</g>
<!-- Node8_1 -->
<g id="node9" class="node">
<title>Node8_1</title>
<ellipse fill="#ff1975" stroke="#ff1975" cx="585" cy="-366" rx="78.79" ry="18"/>
<text text-anchor="middle" x="585" y="-362.3" font-family="Times,serif" font-size="14.00">ववृधे(8.1)</text>
</g>
<!-- Node10_1&#45;&gt;Node8_1 -->
<g id="edge10" class="edge">
<title>Node10_1&#45;&gt;Node8_1</title>
<path fill="none" stroke="black" d="M196.8,-299.91C222.79,-310.42 256.19,-322.64 287,-330 361.35,-347.77 448.38,-356.67 509.13,-361.03"/>
<polygon fill="black" stroke="black" points="197.8,-296.53 187.22,-295.97 195.14,-303.01 197.8,-296.53"/>
<text text-anchor="middle" x="323" y="-318.8" font-family="Times,serif" font-size="14.00">कर्ता</text>
</g>
<!-- Node5_2 -->
<g id="node3" class="node">
<title>Node5_2</title>
<ellipse fill="#b0e2ff" stroke="#b0e2ff" cx="374" cy="-105" rx="78.79" ry="18"/>
<text text-anchor="middle" x="374" y="-101.3" font-family="Times,serif" font-size="14.00">योनये(5.2)</text>
</g>
<!-- Node4_1 -->
<g id="node4" class="node">
<title>Node4_1</title>
<ellipse fill="#b0e2ff" stroke="#b0e2ff" cx="374" cy="-192" rx="78.79" ry="18"/>
<text text-anchor="middle" x="374" y="-188.3" font-family="Times,serif" font-size="14.00">पवनाय(4.1)</text>
</g>
<!-- Node5_2&#45;&gt;Node4_1 -->
<g id="edge6" class="edge">
<title>Node5_2&#45;&gt;Node4_1</title>
<path fill="none" stroke="black" d="M374,-133.27C374,-146.58 374,-162.19 374,-173.82"/>
<polygon fill="black" stroke="black" points="377.5,-133.2 374,-123.2 370.5,-133.2 377.5,-133.2"/>
<text text-anchor="middle" x="431.5" y="-144.8" font-family="Times,serif" font-size="14.00">विशेषणम्</text>
</g>
<!-- Node3_1 -->
<g id="node8" class="node">
<title>Node3_1</title>
<ellipse fill="#00bfff" stroke="#00bfff" cx="379" cy="-279" rx="96.68" ry="18"/>
<text text-anchor="middle" x="379" y="-275.3" font-family="Times,serif" font-size="14.00">कुर्वन्(3.1)</text>
</g>
<!-- Node4_1&#45;&gt;Node3_1 -->
<g id="edge4" class="edge">
<title>Node4_1&#45;&gt;Node3_1</title>
<path fill="none" stroke="black" d="M375.6,-220.27C376.39,-233.58 377.31,-249.19 377.99,-260.82"/>
<polygon fill="black" stroke="black" points="379.09,-219.98 375.01,-210.2 372.11,-220.39 379.09,-219.98"/>
<text text-anchor="middle" x="455.5" y="-231.8" font-family="Times,serif" font-size="14.00">सम्प्रदानम्</text>
</g>
<!-- Node11_1 -->
<g id="node5" class="node">
<title>Node11_1</title>
<ellipse fill="#93db70" stroke="#93db70" cx="889" cy="-105" rx="121.58" ry="18"/>
<text text-anchor="middle" x="889" y="-101.3" font-family="Times,serif" font-size="14.00">दक्षिणाम्(11.1)</text>
</g>
<!-- Node12_1 -->
<g id="node6" class="node">
<title>Node12_1</title>
<ellipse fill="#93db70" stroke="#93db70" cx="889" cy="-192" rx="84.49" ry="18"/>
<text text-anchor="middle" x="889" y="-188.3" font-family="Times,serif" font-size="14.00">दिशम्(12.1)</text>
</g>
<!-- Node11_1&#45;&gt;Node12_1 -->
<g id="edge11" class="edge">
<title>Node11_1&#45;&gt;Node12_1</title>
<path fill="none" stroke="black" d="M889,-133.27C889,-146.58 889,-162.19 889,-173.82"/>
<polygon fill="black" stroke="black" points="892.5,-133.2 889,-123.2 885.5,-133.2 892.5,-133.2"/>
<text text-anchor="middle" x="946.5" y="-144.8" font-family="Times,serif" font-size="14.00">विशेषणम्</text>
</g>
<!-- Node9_1 -->
<g id="node13" class="node">
<title>Node9_1</title>
<ellipse fill="#ff99ff" stroke="#ff99ff" cx="889" cy="-279" rx="96.68" ry="18"/>
<text text-anchor="middle" x="889" y="-275.3" font-family="Times,serif" font-size="14.00">गन्तुम्(9.1)</text>
</g>
<!-- Node12_1&#45;&gt;Node9_1 -->
<g id="edge12" class="edge">
<title>Node12_1&#45;&gt;Node9_1</title>
<path fill="none" stroke="black" d="M889,-220.27C889,-233.58 889,-249.19 889,-260.82"/>
<polygon fill="black" stroke="black" points="892.5,-220.2 889,-210.2 885.5,-220.2 892.5,-220.2"/>
<text text-anchor="middle" x="918" y="-231.8" font-family="Times,serif" font-size="14.00">कर्म</text>
</g>
<!-- Node1_1 -->
<g id="node7" class="node">
<title>Node1_1</title>
<ellipse fill="#93db70" stroke="#93db70" cx="577" cy="-192" rx="106.68" ry="18"/>
<text text-anchor="middle" x="577" y="-188.3" font-family="Times,serif" font-size="14.00">अञ्जलिम्(1.1)</text>
</g>
<!-- Node1_1&#45;&gt;Node3_1 -->
<g id="edge1" class="edge">
<title>Node1_1&#45;&gt;Node3_1</title>
<path fill="none" stroke="black" d="M562.15,-218.73C555.79,-227.67 547.6,-236.95 538,-243 516,-256.87 489.28,-265.29 464.07,-270.39"/>
<polygon fill="black" stroke="black" points="565.07,-220.67 567.67,-210.4 559.23,-216.8 565.07,-220.67"/>
<text text-anchor="middle" x="584" y="-231.8" font-family="Times,serif" font-size="14.00">कर्म</text>
</g>
<!-- Node3_1&#45;&gt;Node8_1 -->
<g id="edge3" class="edge">
<title>Node3_1&#45;&gt;Node8_1</title>
<path fill="none" stroke="black" d="M364.31,-306.46C361.74,-314.76 361.42,-323.46 367,-330 385,-351.11 452.34,-359.54 507.47,-362.88"/>
<polygon fill="black" stroke="black" points="367.61,-307.62 368.13,-297.04 361.13,-304.99 367.61,-307.62"/>
<text text-anchor="middle" x="474" y="-318.8" font-family="Times,serif" font-size="14.00">वर्तमानसमानकालः</text>
</g>
<!-- Node5_1 -->
<g id="node10" class="node">
<title>Node5_1</title>
<ellipse fill="#ffff00" stroke="#ffff00" cx="374" cy="-18" rx="72.29" ry="18"/>
<text text-anchor="middle" x="374" y="-14.3" font-family="Times,serif" font-size="14.00">आत्म&#45;(5.1)</text>
</g>
<!-- Node5_1&#45;&gt;Node5_2 -->
<g id="edge5" class="edge">
<title>Node5_1&#45;&gt;Node5_2</title>
<path fill="none" stroke="black" d="M374,-46.27C374,-59.58 374,-75.19 374,-86.82"/>
<polygon fill="black" stroke="black" points="377.5,-46.2 374,-36.2 370.5,-46.2 377.5,-46.2"/>
<text text-anchor="middle" x="477.5" y="-57.8" font-family="Times,serif" font-size="14.00">षष्ठी_तत्पुरुषः</text>
</g>
<!-- Node6_1 -->
<g id="node11" class="node">
<title>Node6_1</title>
<ellipse fill="#ff99ff" stroke="#ff99ff" cx="585" cy="-279" rx="59.59" ry="18"/>
<text text-anchor="middle" x="585" y="-275.3" font-family="Times,serif" font-size="14.00">ततः(6.1)</text>
</g>
<!-- Node6_1&#45;&gt;Node8_1 -->
<g id="edge7" class="edge">
<title>Node6_1&#45;&gt;Node8_1</title>
<path fill="none" stroke="black" d="M585,-307.27C585,-320.58 585,-336.19 585,-347.82"/>
<polygon fill="black" stroke="black" points="588.5,-307.2 585,-297.2 581.5,-307.2 588.5,-307.2"/>
<text text-anchor="middle" x="642.5" y="-318.8" font-family="Times,serif" font-size="14.00">सम्बन्धः</text>
</g>
<!-- Node7_1 -->
<g id="node12" class="node">
<title>Node7_1</title>
<ellipse fill="#ff99ff" stroke="#ff99ff" cx="723" cy="-279" rx="50.89" ry="18"/>
<text text-anchor="middle" x="723" y="-275.3" font-family="Times,serif" font-size="14.00">हि(7.1)</text>
</g>
<!-- Node7_1&#45;&gt;Node8_1 -->
<g id="edge8" class="edge">
<title>Node7_1&#45;&gt;Node8_1</title>
<path fill="none" stroke="black" d="M716.13,-306.65C712.79,-315.11 707.94,-323.85 701,-330 686.83,-342.55 668.28,-350.6 650.19,-355.77"/>
<polygon fill="black" stroke="black" points="719.5,-307.62 719.4,-297.02 712.87,-305.37 719.5,-307.62"/>
<text text-anchor="middle" x="768.5" y="-318.8" font-family="Times,serif" font-size="14.00">सम्बन्धः</text>
</g>
<!-- Node9_1&#45;&gt;Node8_1 -->
<g id="edge9" class="edge">
<title>Node9_1&#45;&gt;Node8_1</title>
<path fill="none" stroke="black" d="M866.45,-304.34C856.25,-313.87 843.47,-323.95 830,-330 777.68,-353.52 713.3,-362.03 663.67,-364.78"/>
<polygon fill="black" stroke="black" points="869.02,-306.73 873.72,-297.23 864.12,-301.72 869.02,-306.73"/>
<text text-anchor="middle" x="917.5" y="-318.8" font-family="Times,serif" font-size="14.00">प्रयोजनम्</text>
</g>
</g>
</svg>
