<svg xmlns="http://www.w3.org/2000/svg" xmlns:xlink="http://www.w3.org/1999/xlink" width="898pt" height="479pt" viewBox="0 0 898 479"><g id="graph0" class="graph" transform="scale(1 1) rotate(0) translate(4 475)"><title>G</title><polygon fill="#fffacd" stroke="transparent" points="-4 4 -4 -475 894 -475 894 4 -4 4"/><g id="clust1" class="cluster"><title>cluster_1</title><polygon fill="#fffacd" stroke="#000" points="396 -79 396 -218 662 -218 662 -79 396 -79"/></g><g id="clust2" class="cluster"><title>cluster_2</title><polygon fill="#fffacd" stroke="#000" points="8 -253 8 -392 295 -392 295 -253 8 -253"/></g><g id="node1" class="node"><title>Node4_2</title><ellipse cx="529" cy="-105" fill="#87ceeb" stroke="#87ceeb" rx="124.58" ry="18"/><text x="529" y="-101.3" font-family="Times,serif" font-size="14" text-anchor="middle">वर्ष्मणाम्(4.2)</text></g><g id="node2" class="node"><title>Node2_2</title><ellipse cx="529" cy="-192" fill="#87ceeb" stroke="#87ceeb" rx="106.68" ry="18"/><text x="529" y="-188.3" font-family="Times,serif" font-size="14" text-anchor="middle">जालानाम्(2.2)</text></g><g id="edge6" class="edge"><title>Node4_2-&gt;Node2_2</title><path fill="none" stroke="#000" d="M529,-133.27C529,-146.58 529,-162.19 529,-173.82"/><polygon fill="#000" stroke="#000" points="532.5 -133.2 529 -123.2 525.5 -133.2 532.5 -133.2"/><text x="586.5" y="-144.8" font-family="Times,serif" font-size="14" text-anchor="middle">विशेषणम्</text></g><g id="node8" class="node"><title>Node3_1</title><ellipse cx="529" cy="-279" fill="#40e0d0" stroke="#40e0d0" rx="69.59" ry="18"/><text x="529" y="-275.3" font-family="Times,serif" font-size="14" text-anchor="middle">उरसा(3.1)</text></g><g id="edge3" class="edge"><title>Node2_2-&gt;Node3_1</title><path fill="none" stroke="#000" d="M529,-220.27C529,-233.58 529,-249.19 529,-260.82"/><polygon fill="#000" stroke="#000" points="532.5 -220.2 529 -210.2 525.5 -220.2 532.5 -220.2"/><text x="622" y="-231.8" font-family="Times,serif" font-size="14" text-anchor="middle">षष्ठीसम्बन्धः</text></g><g id="node3" class="node"><title>Node7_2</title><ellipse cx="205" cy="-279" fill="#00bfff" stroke="#00bfff" rx="69.59" ry="18"/><text x="205" y="-275.3" font-family="Times,serif" font-size="14" text-anchor="middle">वेगः(7.2)</text></g><g id="node4" class="node"><title>Node10_2</title><ellipse cx="191" cy="-366" fill="#00bfff" stroke="#00bfff" rx="75.29" ry="18"/><text x="191" y="-362.3" font-family="Times,serif" font-size="14" text-anchor="middle">कपिः(10.2)</text></g><g id="edge10" class="edge"><title>Node7_2-&gt;Node10_2</title><path fill="none" stroke="#000" d="M200.51,-307.27C198.32,-320.58 195.74,-336.19 193.83,-347.82"/><polygon fill="#000" stroke="#000" points="204 -307.64 202.17 -297.2 197.09 -306.5 204 -307.64"/><text x="256.5" y="-318.8" font-family="Times,serif" font-size="14" text-anchor="middle">विशेषणम्</text></g><g id="node11" class="node"><title>Node8_1</title><ellipse cx="354" cy="-453" fill="#ff1975" stroke="#ff1975" rx="106.68" ry="18"/><text x="354" y="-449.3" font-family="Times,serif" font-size="14" text-anchor="middle">पुप्लुवे(8.1)</text></g><g id="edge13" class="edge"><title>Node10_2-&gt;Node8_1</title><path fill="none" stroke="#000" d="M226.15,-388.16C241.84,-397.36 260.66,-408.05 278,-417 290.65,-423.53 304.75,-430.19 317.34,-435.92"/><polygon fill="#000" stroke="#000" points="227.7 -385.01 217.31 -382.95 224.14 -391.04 227.7 -385.01"/><text x="314" y="-405.8" font-family="Times,serif" font-size="14" text-anchor="middle">कर्ता</text></g><g id="node5" class="node"><title>Node9_1</title><ellipse cx="67" cy="-279" fill="#00bfff" stroke="#00bfff" rx="50.89" ry="18"/><text x="67" y="-275.3" font-family="Times,serif" font-size="14" text-anchor="middle">सः(9.1)</text></g><g id="edge11" class="edge"><title>Node9_1-&gt;Node10_2</title><path fill="none" stroke="#000" d="M68.44,-307.31C70.11,-315.46 73.26,-323.86 79,-330 91.45,-343.32 108.89,-351.6 126.3,-356.74"/><polygon fill="#000" stroke="#000" points="71.89 -306.7 67.01 -297.29 64.96 -307.68 71.89 -306.7"/><text x="136.5" y="-318.8" font-family="Times,serif" font-size="14" text-anchor="middle">विशेषणम्</text></g><g id="node6" class="node"><title>Node1_1</title><ellipse cx="289" cy="-105" fill="#87ceeb" stroke="#87ceeb" rx="96.68" ry="18"/><text x="289" y="-101.3" font-family="Times,serif" font-size="14" text-anchor="middle">सागरस्य(1.1)</text></g><g id="edge1" class="edge"><title>Node1_1-&gt;Node2_2</title><path fill="none" stroke="#000" d="M308.09,-130.68C316.57,-140 327.28,-149.84 339,-156 367.21,-170.82 400.64,-179.46 431.55,-184.47"/><polygon fill="#000" stroke="#000" points="310.7 -128.34 301.52 -123.05 305.39 -132.91 310.7 -128.34"/><text x="432" y="-144.8" font-family="Times,serif" font-size="14" text-anchor="middle">षष्ठीसम्बन्धः</text></g><g id="node7" class="node"><title>Node2_1</title><ellipse cx="753" cy="-105" fill="#ff0" stroke="#ff0" rx="81.49" ry="18"/><text x="753" y="-101.3" font-family="Times,serif" font-size="14" text-anchor="middle">ऊर्मि-(2.1)</text></g><g id="edge2" class="edge"><title>Node2_1-&gt;Node2_2</title><path fill="none" stroke="#000" d="M713.63,-126.57C694.19,-136.25 670.2,-147.51 648,-156 627.68,-163.77 604.88,-170.86 584.7,-176.59"/><polygon fill="#000" stroke="#000" points="715.42 -129.59 722.78 -121.96 712.27 -123.34 715.42 -129.59"/><text x="786.5" y="-144.8" font-family="Times,serif" font-size="14" text-anchor="middle">षष्ठी_तत्पुरुषः</text></g><g id="node9" class="node"><title>Node5_1</title><ellipse cx="529" cy="-366" fill="#00bfff" stroke="#00bfff" rx="106.68" ry="18"/><text x="529" y="-362.3" font-family="Times,serif" font-size="14" text-anchor="middle">अभिघ्नन्(5.1)</text></g><g id="edge4" class="edge"><title>Node3_1-&gt;Node5_1</title><path fill="none" stroke="#000" d="M529,-307.27C529,-320.58 529,-336.19 529,-347.82"/><polygon fill="#000" stroke="#000" points="532.5 -307.2 529 -297.2 525.5 -307.2 532.5 -307.2"/><text x="565" y="-318.8" font-family="Times,serif" font-size="14" text-anchor="middle">करणम्</text></g><g id="edge7" class="edge"><title>Node5_1-&gt;Node8_1</title><path fill="none" stroke="#000" d="M506.64,-391.13C497.04,-400.32 485.22,-410.2 473,-417 456.25,-426.31 436.76,-433.38 418.47,-438.64"/><polygon fill="#000" stroke="#000" points="509.21 -393.51 513.83 -383.98 504.27 -388.55 509.21 -393.51"/><text x="600" y="-405.8" font-family="Times,serif" font-size="14" text-anchor="middle">वर्तमानसमानकालः</text></g><g id="node10" class="node"><title>Node4_1</title><ellipse cx="529" cy="-18" fill="#ff0" stroke="#ff0" rx="63.09" ry="18"/><text x="529" y="-14.3" font-family="Times,serif" font-size="14" text-anchor="middle">शैल-(4.1)</text></g><g id="edge5" class="edge"><title>Node4_1-&gt;Node4_2</title><path fill="none" stroke="#000" d="M529,-46.27C529,-59.58 529,-75.19 529,-86.82"/><polygon fill="#000" stroke="#000" points="532.5 -46.2 529 -36.2 525.5 -46.2 532.5 -46.2"/><text x="632.5" y="-57.8" font-family="Times,serif" font-size="14" text-anchor="middle">षष्ठी_तत्पुरुषः</text></g><g id="node12" class="node"><title>Node6_1</title><ellipse cx="354" cy="-366" fill="#f9f" stroke="#f9f" rx="50.89" ry="18"/><text x="354" y="-362.3" font-family="Times,serif" font-size="14" text-anchor="middle">तु(6.1)</text></g><g id="edge8" class="edge"><title>Node6_1-&gt;Node8_1</title><path fill="none" stroke="#000" d="M354,-394.27C354,-407.58 354,-423.19 354,-434.82"/><polygon fill="#000" stroke="#000" points="357.5 -394.2 354 -384.2 350.5 -394.2 357.5 -394.2"/><text x="411.5" y="-405.8" font-family="Times,serif" font-size="14" text-anchor="middle">सम्बन्धः</text></g><g id="node13" class="node"><title>Node7_1</title><ellipse cx="205" cy="-192" fill="#ff0" stroke="#ff0" rx="63.09" ry="18"/><text x="205" y="-188.3" font-family="Times,serif" font-size="14" text-anchor="middle">महा-(7.1)</text></g><g id="edge9" class="edge"><title>Node7_1-&gt;Node7_2</title><path fill="none" stroke="#000" d="M205,-220.27C205,-233.58 205,-249.19 205,-260.82"/><polygon fill="#000" stroke="#000" points="208.5 -220.2 205 -210.2 201.5 -220.2 208.5 -220.2"/><text x="269.5" y="-231.8" font-family="Times,serif" font-size="14" text-anchor="middle">कर्मधारयः</text></g><g id="node14" class="node"><title>Node10_1</title><ellipse cx="372" cy="-279" fill="#ff0" stroke="#ff0" rx="68.79" ry="18"/><text x="372" y="-275.3" font-family="Times,serif" font-size="14" text-anchor="middle">महा-(10.1)</text></g><g id="edge12" class="edge"><title>Node10_1-&gt;Node10_2</title><path fill="none" stroke="#000" d="M350.36,-304.53C341.18,-313.66 329.86,-323.4 318,-330 297.32,-341.51 272.6,-349.44 250.49,-354.79"/><polygon fill="#000" stroke="#000" points="353.12 -306.72 357.54 -297.09 348.08 -301.86 353.12 -306.72"/><text x="402.5" y="-318.8" font-family="Times,serif" font-size="14" text-anchor="middle">कर्मधारयः</text></g></g></svg>