<?xml version="1.0" encoding="UTF-8" standalone="no"?>
<!DOCTYPE svg PUBLIC "-//W3C//DTD SVG 1.1//EN"
 "http://www.w3.org/Graphics/SVG/1.1/DTD/svg11.dtd">
<!-- Generated by graphviz version 2.43.0 (0)
 -->
<!-- Title: G Pages: 1 -->
<svg width="1351pt" height="294pt"
 viewBox="0.00 0.00 1351.00 293.50" xmlns="http://www.w3.org/2000/svg" xmlns:xlink="http://www.w3.org/1999/xlink">
<g id="graph0" class="graph" transform="scale(1 1) rotate(0) translate(4 289.5)">
<title>G</title>
<polygon fill="#fffacd" stroke="transparent" points="-4,4 -4,-289.5 1347,-289.5 1347,4 -4,4"/>
<g id="clust1" class="cluster">
<title>cluster_1</title>
<polygon fill="#fffacd" stroke="black" points="8,-138.5 8,-277.5 493,-277.5 493,-138.5 8,-138.5"/>
</g>
<g id="clust2" class="cluster">
<title>cluster_2</title>
<polygon fill="#fffacd" stroke="black" points="1057,-51.5 1057,-190.5 1335,-190.5 1335,-51.5 1057,-51.5"/>
</g>
<!-- Node4_1 -->
<g id="node1" class="node">
<title>Node4_1</title>
<ellipse fill="#ff1975" stroke="#ff1975" cx="335" cy="-164.5" rx="150.27" ry="18"/>
<text text-anchor="middle" x="335" y="-160.8" font-family="Times,serif" font-size="14.00">विश्रमेत(आर्ष)(4.1)</text>
</g>
<!-- Node13_1 -->
<g id="node2" class="node">
<title>Node13_1</title>
<ellipse fill="#ff1975" stroke="#ff1975" cx="345" cy="-251.5" rx="139.98" ry="18"/>
<text text-anchor="middle" x="345" y="-247.8" font-family="Times,serif" font-size="14.00">अतितरिष्यति(13.1)</text>
</g>
<!-- Node4_1&#45;&gt;Node13_1 -->
<g id="edge3" class="edge">
<title>Node4_1&#45;&gt;Node13_1</title>
<path fill="none" stroke="black" d="M338.21,-192.77C339.77,-206.08 341.61,-221.69 342.98,-233.32"/>
<polygon fill="black" stroke="black" points="341.67,-192.22 337.02,-182.7 334.72,-193.04 341.67,-192.22"/>
<text text-anchor="middle" x="404.5" y="-204.3" font-family="Times,serif" font-size="14.00">समुच्चितः</text>
</g>
<!-- Node11_1 -->
<g id="node3" class="node">
<title>Node11_1</title>
<ellipse fill="#00bfff" stroke="#00bfff" cx="91" cy="-164.5" rx="75.29" ry="18"/>
<text text-anchor="middle" x="91" y="-160.8" font-family="Times,serif" font-size="14.00">सुखी(11.1)</text>
</g>
<!-- Node11_1&#45;&gt;Node13_1 -->
<g id="edge11" class="edge">
<title>Node11_1&#45;&gt;Node13_1</title>
<path fill="none" stroke="black" d="M136.23,-184.26C160.8,-194.15 191.83,-206.12 220,-215.5 241.28,-222.58 264.9,-229.45 285.82,-235.19"/>
<polygon fill="black" stroke="black" points="137.39,-180.96 126.8,-180.45 134.76,-187.45 137.39,-180.96"/>
<text text-anchor="middle" x="277.5" y="-204.3" font-family="Times,serif" font-size="14.00">विशेषणम्</text>
</g>
<!-- Node10_1 -->
<g id="node4" class="node">
<title>Node10_1</title>
<ellipse fill="#00bfff" stroke="#00bfff" cx="1196" cy="-77.5" rx="130.78" ry="18"/>
<text text-anchor="middle" x="1196" y="-73.8" font-family="Times,serif" font-size="14.00">विश्रान्तः(10.1)</text>
</g>
<!-- Node12_1 -->
<g id="node5" class="node">
<title>Node12_1</title>
<ellipse fill="#00bfff" stroke="#00bfff" cx="1196" cy="-164.5" rx="56.59" ry="18"/>
<text text-anchor="middle" x="1196" y="-160.8" font-family="Times,serif" font-size="14.00">सः(12.1)</text>
</g>
<!-- Node10_1&#45;&gt;Node12_1 -->
<g id="edge10" class="edge">
<title>Node10_1&#45;&gt;Node12_1</title>
<path fill="none" stroke="black" d="M1196,-105.77C1196,-119.08 1196,-134.69 1196,-146.32"/>
<polygon fill="black" stroke="black" points="1199.5,-105.7 1196,-95.7 1192.5,-105.7 1199.5,-105.7"/>
<text text-anchor="middle" x="1253.5" y="-117.3" font-family="Times,serif" font-size="14.00">विशेषणम्</text>
</g>
<!-- Node12_1&#45;&gt;Node13_1 -->
<g id="edge12" class="edge">
<title>Node12_1&#45;&gt;Node13_1</title>
<path fill="none" stroke="black" d="M1166.68,-187.06C1150.52,-197.69 1129.6,-209.49 1109,-215.5 1050.68,-232.5 685.34,-243.08 481.72,-247.73"/>
<polygon fill="black" stroke="black" points="1168.83,-189.83 1175.14,-181.32 1164.9,-184.04 1168.83,-189.83"/>
<text text-anchor="middle" x="1177" y="-204.3" font-family="Times,serif" font-size="14.00">कर्ता</text>
</g>
<!-- Node1_1 -->
<g id="node6" class="node">
<title>Node1_1</title>
<ellipse fill="#ff99ff" stroke="#ff99ff" cx="766" cy="-77.5" rx="59.59" ry="18"/>
<text text-anchor="middle" x="766" y="-73.8" font-family="Times,serif" font-size="14.00">तथा(1.1)</text>
</g>
<!-- Node3_1 -->
<g id="node7" class="node">
<title>Node3_1</title>
<ellipse fill="#93db70" stroke="#93db70" cx="628" cy="-164.5" rx="124.58" ry="18"/>
<text text-anchor="middle" x="628" y="-160.8" font-family="Times,serif" font-size="14.00">विधातव्यम्(3.1)</text>
</g>
<!-- Node1_1&#45;&gt;Node3_1 -->
<g id="edge1" class="edge">
<title>Node1_1&#45;&gt;Node3_1</title>
<path fill="none" stroke="black" d="M740.39,-101.53C729.61,-110.58 716.64,-120.66 704,-128.5 692.77,-135.47 679.92,-141.9 668.02,-147.31"/>
<polygon fill="black" stroke="black" points="742.86,-104.02 748.17,-94.86 738.3,-98.71 742.86,-104.02"/>
<text text-anchor="middle" x="780.5" y="-117.3" font-family="Times,serif" font-size="14.00">सम्बन्धः</text>
</g>
<!-- Node2_1 -->
<g id="node8" class="node">
<title>Node2_1</title>
<ellipse fill="#40e0d0" stroke="#40e0d0" cx="628" cy="-77.5" rx="59.59" ry="18"/>
<text text-anchor="middle" x="628" y="-73.8" font-family="Times,serif" font-size="14.00">मया(2.1)</text>
</g>
<!-- Node2_1&#45;&gt;Node3_1 -->
<g id="edge2" class="edge">
<title>Node2_1&#45;&gt;Node3_1</title>
<path fill="none" stroke="black" d="M628,-105.77C628,-119.08 628,-134.69 628,-146.32"/>
<polygon fill="black" stroke="black" points="631.5,-105.7 628,-95.7 624.5,-105.7 631.5,-105.7"/>
<text text-anchor="middle" x="664" y="-117.3" font-family="Times,serif" font-size="14.00">कर्ता</text>
</g>
<!-- Node5_1 -->
<g id="node9" class="node">
<title>Node5_1</title>
<ellipse fill="#ff99ff" stroke="#ff99ff" cx="334" cy="-77.5" rx="59.59" ry="18"/>
<text text-anchor="middle" x="334" y="-73.8" font-family="Times,serif" font-size="14.00">यथा(5.1)</text>
</g>
<!-- Node5_1&#45;&gt;Node4_1 -->
<g id="edge5" class="edge">
<title>Node5_1&#45;&gt;Node4_1</title>
<path fill="none" stroke="black" stroke-dasharray="1,5" d="M334.32,-105.77C334.48,-119.08 334.66,-134.69 334.8,-146.32"/>
<polygon fill="black" stroke="black" points="337.82,-105.66 334.2,-95.7 330.82,-105.74 337.82,-105.66"/>
<text text-anchor="middle" x="391.5" y="-117.3" font-family="Times,serif" font-size="14.00">सम्बन्धः</text>
</g>
<!-- Node5_1&#45;&gt;Node1_1 -->
<g id="edge4" class="edge">
<title>Node5_1&#45;&gt;Node1_1</title>
<path fill="none" stroke="red" stroke-dasharray="5,2" d="M380.3,-59.47C387.54,-56.74 394.96,-54.01 402,-51.5 424.71,-43.42 429.7,-38.33 453.5,-34.5 495.85,-27.69 604.18,-27.57 646.5,-34.5 673.34,-38.9 702.07,-49.04 724.63,-58.38"/>
<polygon fill="red" stroke="red" points="378.69,-56.33 370.59,-63.15 381.18,-62.88 378.69,-56.33"/>
<polygon fill="red" stroke="red" points="723.32,-61.62 733.89,-62.31 726.06,-55.18 723.32,-61.62"/>
<text text-anchor="middle" x="550" y="-30.3" font-family="Times,serif" font-size="14.00">नित्य_सम्बन्धः</text>
</g>
<!-- Node6_1 -->
<g id="node10" class="node">
<title>Node6_1</title>
<ellipse fill="#00bfff" stroke="#00bfff" cx="481" cy="-77.5" rx="69.59" ry="18"/>
<text text-anchor="middle" x="481" y="-73.8" font-family="Times,serif" font-size="14.00">कपिः(6.1)</text>
</g>
<!-- Node6_1&#45;&gt;Node4_1 -->
<g id="edge6" class="edge">
<title>Node6_1&#45;&gt;Node4_1</title>
<path fill="none" stroke="black" d="M470.98,-104.96C466.6,-113.51 460.68,-122.36 453,-128.5 441.73,-137.51 428.2,-144.2 414.39,-149.16"/>
<polygon fill="black" stroke="black" points="474.29,-106.14 475.28,-95.59 467.93,-103.22 474.29,-106.14"/>
<text text-anchor="middle" x="501" y="-117.3" font-family="Times,serif" font-size="14.00">कर्ता</text>
</g>
<!-- Node7_1 -->
<g id="node11" class="node">
<title>Node7_1</title>
<ellipse fill="#93db70" stroke="#93db70" cx="849" cy="-164.5" rx="78.79" ry="18"/>
<text text-anchor="middle" x="849" y="-160.8" font-family="Times,serif" font-size="14.00">शेषम्(7.1)</text>
</g>
<!-- Node7_1&#45;&gt;Node13_1 -->
<g id="edge7" class="edge">
<title>Node7_1&#45;&gt;Node13_1</title>
<path fill="none" stroke="black" d="M794.84,-182.3C784.03,-185.3 772.71,-188.2 762,-190.5 656.52,-213.13 534.15,-229.6 449.38,-239.5"/>
<polygon fill="black" stroke="black" points="795.93,-185.63 804.59,-179.53 794.01,-178.9 795.93,-185.63"/>
<text text-anchor="middle" x="734" y="-204.3" font-family="Times,serif" font-size="14.00">कर्म</text>
</g>
<!-- Node8_1 -->
<g id="node12" class="node">
<title>Node8_1</title>
<ellipse fill="#ff99ff" stroke="#ff99ff" cx="987" cy="-164.5" rx="41.69" ry="18"/>
<text text-anchor="middle" x="987" y="-160.8" font-family="Times,serif" font-size="14.00">च(8.1)</text>
</g>
<!-- Node8_1&#45;&gt;Node13_1 -->
<g id="edge8" class="edge">
<title>Node8_1&#45;&gt;Node13_1</title>
<path fill="none" stroke="black" d="M954.13,-183.76C948.54,-186.34 942.69,-188.71 937,-190.5 864.15,-213.42 842.87,-206.78 767,-215.5 665.85,-227.12 550.63,-236.41 466.17,-242.49"/>
<polygon fill="black" stroke="black" points="955.79,-186.85 963.24,-179.31 952.71,-180.56 955.79,-186.85"/>
<text text-anchor="middle" x="1001.5" y="-204.3" font-family="Times,serif" font-size="14.00">समुच्चय_द्योतकः</text>
</g>
<!-- Node9_1 -->
<g id="node13" class="node">
<title>Node9_1</title>
<ellipse fill="#c6e2eb" stroke="#c6e2eb" cx="196" cy="-77.5" rx="59.59" ry="18"/>
<text text-anchor="middle" x="196" y="-73.8" font-family="Times,serif" font-size="14.00">मयि(9.1)</text>
</g>
<!-- Node9_1&#45;&gt;Node4_1 -->
<g id="edge9" class="edge">
<title>Node9_1&#45;&gt;Node4_1</title>
<path fill="none" stroke="black" d="M201.25,-105.41C204.08,-113.79 208.4,-122.41 215,-128.5 225.04,-137.78 237.41,-144.61 250.35,-149.63"/>
<polygon fill="black" stroke="black" points="204.55,-104.2 198.5,-95.51 197.81,-106.08 204.55,-104.2"/>
<text text-anchor="middle" x="272.5" y="-117.3" font-family="Times,serif" font-size="14.00">अधिकरणम्</text>
</g>
</g>
</svg>
