<?xml version="1.0" encoding="UTF-8" standalone="no"?>
<!DOCTYPE svg PUBLIC "-//W3C//DTD SVG 1.1//EN"
 "http://www.w3.org/Graphics/SVG/1.1/DTD/svg11.dtd">
<!-- Generated by graphviz version 2.43.0 (0)
 -->
<!-- Title: G Pages: 1 -->
<svg width="955pt" height="479pt"
 viewBox="0.00 0.00 954.70 479.00" xmlns="http://www.w3.org/2000/svg" xmlns:xlink="http://www.w3.org/1999/xlink">
<g id="graph0" class="graph" transform="scale(1 1) rotate(0) translate(4 475)">
<title>G</title>
<polygon fill="#fffacd" stroke="transparent" points="-4,4 -4,-475 950.7,-475 950.7,4 -4,4"/>
<g id="clust1" class="cluster">
<title>cluster_1</title>
<polygon fill="#fffacd" stroke="black" points="672.7,-79 672.7,-218 938.7,-218 938.7,-79 672.7,-79"/>
</g>
<g id="clust2" class="cluster">
<title>cluster_2</title>
<polygon fill="#fffacd" stroke="black" points="277.7,-253 277.7,-392 451.7,-392 451.7,-253 277.7,-253"/>
</g>
<!-- Node3_1 -->
<g id="node1" class="node">
<title>Node3_1</title>
<ellipse fill="#87ceeb" stroke="#87ceeb" cx="805.7" cy="-105" rx="124.58" ry="18"/>
<text text-anchor="middle" x="805.7" y="-101.3" font-family="Times,serif" font-size="14.00">प्लवमानस्य(3.1)</text>
</g>
<!-- Node2_2 -->
<g id="node2" class="node">
<title>Node2_2</title>
<ellipse fill="#87ceeb" stroke="#87ceeb" cx="777.7" cy="-192" rx="96.68" ry="18"/>
<text text-anchor="middle" x="777.7" y="-188.3" font-family="Times,serif" font-size="14.00">सिंहस्य(2.2)</text>
</g>
<!-- Node3_1&#45;&gt;Node2_2 -->
<g id="edge4" class="edge">
<title>Node3_1&#45;&gt;Node2_2</title>
<path fill="none" stroke="black" d="M796.84,-132.87C792.43,-146.27 787.22,-162.08 783.35,-173.82"/>
<polygon fill="black" stroke="black" points="800.22,-133.79 800.03,-123.2 793.58,-131.6 800.22,-133.79"/>
<text text-anchor="middle" x="850.2" y="-144.8" font-family="Times,serif" font-size="14.00">विशेषणम्</text>
</g>
<!-- Node5_3 -->
<g id="node3" class="node">
<title>Node5_3</title>
<ellipse fill="#00bfff" stroke="#00bfff" cx="355.7" cy="-279" rx="59.59" ry="18"/>
<text text-anchor="middle" x="355.7" y="-275.3" font-family="Times,serif" font-size="14.00">गतः(5.3)</text>
</g>
<!-- Node2_2&#45;&gt;Node5_3 -->
<g id="edge3" class="edge">
<title>Node2_2&#45;&gt;Node5_3</title>
<path fill="none" stroke="black" d="M715.73,-209.89C676.15,-220.31 623.64,-233.46 576.7,-243 519.78,-254.56 453.97,-264.56 409.07,-270.87"/>
<polygon fill="black" stroke="black" points="716.73,-213.25 725.5,-207.31 714.94,-206.48 716.73,-213.25"/>
<text text-anchor="middle" x="735.7" y="-231.8" font-family="Times,serif" font-size="14.00">षष्ठीसम्बन्धः</text>
</g>
<!-- Node6_1 -->
<g id="node4" class="node">
<title>Node6_1</title>
<ellipse fill="#00bfff" stroke="#00bfff" cx="364.7" cy="-366" rx="78.79" ry="18"/>
<text text-anchor="middle" x="364.7" y="-362.3" font-family="Times,serif" font-size="14.00">वायुः(6.1)</text>
</g>
<!-- Node5_3&#45;&gt;Node6_1 -->
<g id="edge8" class="edge">
<title>Node5_3&#45;&gt;Node6_1</title>
<path fill="none" stroke="black" d="M358.58,-307.27C359.99,-320.58 361.65,-336.19 362.88,-347.82"/>
<polygon fill="black" stroke="black" points="362.05,-306.78 357.52,-297.2 355.09,-307.51 362.05,-306.78"/>
<text text-anchor="middle" x="419.2" y="-318.8" font-family="Times,serif" font-size="14.00">विशेषणम्</text>
</g>
<!-- Node9_1 -->
<g id="node10" class="node">
<title>Node9_1</title>
<ellipse fill="#ff1975" stroke="#ff1975" cx="364.7" cy="-453" rx="87.99" ry="18"/>
<text text-anchor="middle" x="364.7" y="-449.3" font-family="Times,serif" font-size="14.00">गर्जति(9.1)</text>
</g>
<!-- Node6_1&#45;&gt;Node9_1 -->
<g id="edge9" class="edge">
<title>Node6_1&#45;&gt;Node9_1</title>
<path fill="none" stroke="black" d="M364.7,-394.27C364.7,-407.58 364.7,-423.19 364.7,-434.82"/>
<polygon fill="black" stroke="black" points="368.2,-394.2 364.7,-384.2 361.2,-394.2 368.2,-394.2"/>
<text text-anchor="middle" x="400.7" y="-405.8" font-family="Times,serif" font-size="14.00">कर्ता</text>
</g>
<!-- Node1_1 -->
<g id="node5" class="node">
<title>Node1_1</title>
<ellipse fill="#87ceeb" stroke="#87ceeb" cx="251.7" cy="-192" rx="69.59" ry="18"/>
<text text-anchor="middle" x="251.7" y="-188.3" font-family="Times,serif" font-size="14.00">तस्य(1.1)</text>
</g>
<!-- Node1_1&#45;&gt;Node5_3 -->
<g id="edge1" class="edge">
<title>Node1_1&#45;&gt;Node5_3</title>
<path fill="none" stroke="black" d="M243.79,-220.35C243.07,-228.28 244.01,-236.54 248.7,-243 250.79,-245.89 285.3,-256.87 314.57,-265.77"/>
<polygon fill="black" stroke="black" points="247.28,-220.74 245.52,-210.29 240.38,-219.55 247.28,-220.74"/>
<text text-anchor="middle" x="341.7" y="-231.8" font-family="Times,serif" font-size="14.00">षष्ठीसम्बन्धः</text>
</g>
<!-- Node2_1 -->
<g id="node6" class="node">
<title>Node2_1</title>
<ellipse fill="#ffff00" stroke="#ffff00" cx="566.7" cy="-105" rx="72.29" ry="18"/>
<text text-anchor="middle" x="566.7" y="-101.3" font-family="Times,serif" font-size="14.00">वानर&#45;(2.1)</text>
</g>
<!-- Node2_1&#45;&gt;Node2_2 -->
<g id="edge2" class="edge">
<title>Node2_1&#45;&gt;Node2_2</title>
<path fill="none" stroke="black" d="M558.96,-133.19C558.27,-141.34 559.4,-149.76 564.7,-156 580.34,-174.43 634.3,-183.17 683.99,-187.31"/>
<polygon fill="black" stroke="black" points="562.44,-133.64 560.63,-123.2 555.53,-132.48 562.44,-133.64"/>
<text text-anchor="middle" x="675.2" y="-144.8" font-family="Times,serif" font-size="14.00">सप्तमी_तत्पुरुषः</text>
</g>
<!-- Node4_1 -->
<g id="node7" class="node">
<title>Node4_1</title>
<ellipse fill="#93db70" stroke="#93db70" cx="805.7" cy="-18" rx="87.99" ry="18"/>
<text text-anchor="middle" x="805.7" y="-14.3" font-family="Times,serif" font-size="14.00">सागरम्(4.1)</text>
</g>
<!-- Node4_1&#45;&gt;Node3_1 -->
<g id="edge5" class="edge">
<title>Node4_1&#45;&gt;Node3_1</title>
<path fill="none" stroke="black" d="M805.7,-46.27C805.7,-59.58 805.7,-75.19 805.7,-86.82"/>
<polygon fill="black" stroke="black" points="809.2,-46.2 805.7,-36.2 802.2,-46.2 809.2,-46.2"/>
<text text-anchor="middle" x="834.7" y="-57.8" font-family="Times,serif" font-size="14.00">कर्म</text>
</g>
<!-- Node5_1 -->
<g id="node8" class="node">
<title>Node5_1</title>
<ellipse fill="#ffff00" stroke="#ffff00" cx="293.7" cy="-105" rx="81.49" ry="18"/>
<text text-anchor="middle" x="293.7" y="-101.3" font-family="Times,serif" font-size="14.00">कक्षा&#45;(5.1)</text>
</g>
<!-- Node5_2 -->
<g id="node9" class="node">
<title>Node5_2</title>
<ellipse fill="#ffff00" stroke="#ffff00" cx="440.7" cy="-192" rx="81.49" ry="18"/>
<text text-anchor="middle" x="440.7" y="-188.3" font-family="Times,serif" font-size="14.00">अन्तर&#45;(5.2)</text>
</g>
<!-- Node5_1&#45;&gt;Node5_2 -->
<g id="edge6" class="edge">
<title>Node5_1&#45;&gt;Node5_2</title>
<path fill="none" stroke="black" d="M288.24,-133.03C288.08,-141.17 289.57,-149.63 294.7,-156 304.71,-168.44 338.57,-176.99 371.16,-182.52"/>
<polygon fill="black" stroke="black" points="291.73,-133.35 289.19,-123.07 284.76,-132.69 291.73,-133.35"/>
<text text-anchor="middle" x="419.7" y="-144.8" font-family="Times,serif" font-size="14.00">द्वितीया_तत्पुरुषः</text>
</g>
<!-- Node5_2&#45;&gt;Node5_3 -->
<g id="edge7" class="edge">
<title>Node5_2&#45;&gt;Node5_3</title>
<path fill="none" stroke="black" d="M444.89,-220.24C444.78,-228.16 443.24,-236.45 438.7,-243 430.41,-254.96 417.19,-262.84 403.72,-268.04"/>
<polygon fill="black" stroke="black" points="448.38,-219.99 444.34,-210.19 441.39,-220.37 448.38,-219.99"/>
<text text-anchor="middle" x="508.2" y="-231.8" font-family="Times,serif" font-size="14.00">तत्पुरुषः</text>
</g>
<!-- Node7_1 -->
<g id="node11" class="node">
<title>Node7_1</title>
<ellipse fill="#00bfff" stroke="#00bfff" cx="172.7" cy="-279" rx="87.99" ry="18"/>
<text text-anchor="middle" x="172.7" y="-275.3" font-family="Times,serif" font-size="14.00">जीमूतः(7.1)</text>
</g>
<!-- Node7_1&#45;&gt;Node6_1 -->
<g id="edge10" class="edge">
<title>Node7_1&#45;&gt;Node6_1</title>
<path fill="none" stroke="black" d="M204.98,-301.84C219.97,-311.34 238.28,-322.09 255.7,-330 274.7,-338.63 296.45,-346.07 315.5,-351.84"/>
<polygon fill="black" stroke="black" points="206.88,-298.9 196.58,-296.42 203.09,-304.78 206.88,-298.9"/>
<text text-anchor="middle" x="305.7" y="-318.8" font-family="Times,serif" font-size="14.00">उपमानम्</text>
</g>
<!-- Node8_1 -->
<g id="node12" class="node">
<title>Node8_1</title>
<ellipse fill="#ff99ff" stroke="#ff99ff" cx="50.7" cy="-192" rx="50.89" ry="18"/>
<text text-anchor="middle" x="50.7" y="-188.3" font-family="Times,serif" font-size="14.00">इव(8.1)</text>
</g>
<!-- Node8_1&#45;&gt;Node7_1 -->
<g id="edge11" class="edge">
<title>Node8_1&#45;&gt;Node7_1</title>
<path fill="none" stroke="black" d="M52.15,-220.29C53.83,-228.44 56.97,-236.84 62.7,-243 73.61,-254.74 88.45,-262.56 103.69,-267.76"/>
<polygon fill="black" stroke="black" points="55.6,-219.68 50.72,-210.28 48.67,-220.67 55.6,-219.68"/>
<text text-anchor="middle" x="151.7" y="-231.8" font-family="Times,serif" font-size="14.00">उपमान_द्योतकः</text>
</g>
</g>
</svg>
