<?xml version="1.0" encoding="UTF-8" standalone="no"?>
<!DOCTYPE svg PUBLIC "-//W3C//DTD SVG 1.1//EN"
 "http://www.w3.org/Graphics/SVG/1.1/DTD/svg11.dtd">
<!-- Generated by graphviz version 2.43.0 (0)
 -->
<!-- Title: G Pages: 1 -->
<svg width="1297pt" height="392pt"
 viewBox="0.00 0.00 1296.54 392.00" xmlns="http://www.w3.org/2000/svg" xmlns:xlink="http://www.w3.org/1999/xlink">
<g id="graph0" class="graph" transform="scale(1 1) rotate(0) translate(4 388)">
<title>G</title>
<polygon fill="#fffacd" stroke="transparent" points="-4,4 -4,-388 1292.54,-388 1292.54,4 -4,4"/>
<g id="clust1" class="cluster">
<title>cluster_1</title>
<polygon fill="#fffacd" stroke="black" points="857.54,-79 857.54,-218 1049.54,-218 1049.54,-79 857.54,-79"/>
</g>
<g id="clust2" class="cluster">
<title>cluster_2</title>
<polygon fill="#fffacd" stroke="black" points="589.54,-79 589.54,-218 849.54,-218 849.54,-79 589.54,-79"/>
</g>
<!-- Node9_2 -->
<g id="node1" class="node">
<title>Node9_2</title>
<ellipse fill="#93db70" stroke="#93db70" cx="944.54" cy="-105" rx="78.79" ry="18"/>
<text text-anchor="middle" x="944.54" y="-101.3" font-family="Times,serif" font-size="14.00">बहून्(9.2)</text>
</g>
<!-- Node7_1 -->
<g id="node2" class="node">
<title>Node7_1</title>
<ellipse fill="#93db70" stroke="#93db70" cx="953.54" cy="-192" rx="87.99" ry="18"/>
<text text-anchor="middle" x="953.54" y="-188.3" font-family="Times,serif" font-size="14.00">मृगान्(7.1)</text>
</g>
<!-- Node9_2&#45;&gt;Node7_1 -->
<g id="edge13" class="edge">
<title>Node9_2&#45;&gt;Node7_1</title>
<path fill="none" stroke="black" d="M947.43,-133.27C948.84,-146.58 950.49,-162.19 951.73,-173.82"/>
<polygon fill="black" stroke="black" points="950.9,-132.78 946.37,-123.2 943.94,-133.51 950.9,-132.78"/>
<text text-anchor="middle" x="1007.04" y="-144.8" font-family="Times,serif" font-size="14.00">विशेषणम्</text>
</g>
<!-- Node10_1 -->
<g id="node9" class="node">
<title>Node10_1</title>
<ellipse fill="#00bfff" stroke="#00bfff" cx="930.54" cy="-279" rx="102.88" ry="18"/>
<text text-anchor="middle" x="930.54" y="-275.3" font-family="Times,serif" font-size="14.00">निघ्नन्(10.1)</text>
</g>
<!-- Node7_1&#45;&gt;Node10_1 -->
<g id="edge10" class="edge">
<title>Node7_1&#45;&gt;Node10_1</title>
<path fill="none" stroke="black" d="M946.27,-219.87C942.65,-233.27 938.37,-249.08 935.19,-260.82"/>
<polygon fill="black" stroke="black" points="949.66,-220.77 948.89,-210.2 942.9,-218.94 949.66,-220.77"/>
<text text-anchor="middle" x="971.54" y="-231.8" font-family="Times,serif" font-size="14.00">कर्म</text>
</g>
<!-- Node11_1 -->
<g id="node3" class="node">
<title>Node11_1</title>
<ellipse fill="#00bfff" stroke="#00bfff" cx="719.54" cy="-105" rx="121.58" ry="18"/>
<text text-anchor="middle" x="719.54" y="-101.3" font-family="Times,serif" font-size="14.00">प्रवृद्धः(11.1)</text>
</g>
<!-- Node3_1 -->
<g id="node4" class="node">
<title>Node3_1</title>
<ellipse fill="#00bfff" stroke="#00bfff" cx="719.54" cy="-192" rx="87.99" ry="18"/>
<text text-anchor="middle" x="719.54" y="-188.3" font-family="Times,serif" font-size="14.00">धीमान्(3.1)</text>
</g>
<!-- Node11_1&#45;&gt;Node3_1 -->
<g id="edge15" class="edge">
<title>Node11_1&#45;&gt;Node3_1</title>
<path fill="none" stroke="black" d="M719.54,-133.27C719.54,-146.58 719.54,-162.19 719.54,-173.82"/>
<polygon fill="black" stroke="black" points="723.04,-133.2 719.54,-123.2 716.04,-133.2 723.04,-133.2"/>
<text text-anchor="middle" x="777.04" y="-144.8" font-family="Times,serif" font-size="14.00">विशेषणम्</text>
</g>
<!-- Node2_1 -->
<g id="node6" class="node">
<title>Node2_1</title>
<ellipse fill="#00bfff" stroke="#00bfff" cx="508.54" cy="-279" rx="124.58" ry="18"/>
<text text-anchor="middle" x="508.54" y="-275.3" font-family="Times,serif" font-size="14.00">वित्रासयन्(2.1)</text>
</g>
<!-- Node3_1&#45;&gt;Node2_1 -->
<g id="edge4" class="edge">
<title>Node3_1&#45;&gt;Node2_1</title>
<path fill="none" stroke="black" stroke-dasharray="1,5" d="M678,-213.53C669.17,-218.12 659.98,-223.1 651.54,-228 640.99,-234.13 639.63,-237.9 628.54,-243 610.6,-251.25 590.25,-258.05 571.47,-263.4"/>
<polygon fill="black" stroke="black" points="679.72,-216.58 687.01,-208.89 676.52,-210.35 679.72,-216.58"/>
<text text-anchor="middle" x="687.54" y="-231.8" font-family="Times,serif" font-size="14.00">कर्ता</text>
</g>
<!-- Node14_1 -->
<g id="node7" class="node">
<title>Node14_1</title>
<ellipse fill="#ff1975" stroke="#ff1975" cx="737.54" cy="-366" rx="100.98" ry="18"/>
<text text-anchor="middle" x="737.54" y="-362.3" font-family="Times,serif" font-size="14.00">(विचचार)(14.1)</text>
</g>
<!-- Node3_1&#45;&gt;Node14_1 -->
<g id="edge3" class="edge">
<title>Node3_1&#45;&gt;Node14_1</title>
<path fill="none" stroke="black" d="M722.68,-220.13C722.97,-222.79 723.27,-225.45 723.54,-228 728.2,-271.02 733.27,-321.69 735.84,-347.69"/>
<polygon fill="black" stroke="black" points="726.14,-219.63 721.54,-210.09 719.19,-220.42 726.14,-219.63"/>
<text text-anchor="middle" x="766.54" y="-275.3" font-family="Times,serif" font-size="14.00">कर्ता</text>
</g>
<!-- Node6_1 -->
<g id="node8" class="node">
<title>Node6_1</title>
<ellipse fill="#00bfff" stroke="#00bfff" cx="257.54" cy="-279" rx="69.59" ry="18"/>
<text text-anchor="middle" x="257.54" y="-275.3" font-family="Times,serif" font-size="14.00">हरन्(6.1)</text>
</g>
<!-- Node3_1&#45;&gt;Node6_1 -->
<g id="edge5" class="edge">
<title>Node3_1&#45;&gt;Node6_1</title>
<path fill="none" stroke="black" stroke-dasharray="1,5" d="M646.72,-206.66C605.9,-214.6 561.44,-223.84 552.54,-228 542.8,-232.56 543.49,-238.9 533.54,-243 467.78,-270.07 445.08,-251.89 374.54,-261 355.41,-263.47 334.55,-266.42 315.82,-269.16"/>
<polygon fill="black" stroke="black" points="647.56,-210.06 656.71,-204.73 646.23,-203.19 647.56,-210.06"/>
<text text-anchor="middle" x="588.54" y="-231.8" font-family="Times,serif" font-size="14.00">कर्ता</text>
</g>
<!-- Node3_1&#45;&gt;Node10_1 -->
<g id="edge6" class="edge">
<title>Node3_1&#45;&gt;Node10_1</title>
<path fill="none" stroke="black" stroke-dasharray="1,5" d="M767.46,-212.3C804.98,-227.42 856.52,-248.18 891.55,-262.29"/>
<polygon fill="black" stroke="black" points="768.34,-208.88 757.75,-208.39 765.72,-215.38 768.34,-208.88"/>
<text text-anchor="middle" x="873.54" y="-231.8" font-family="Times,serif" font-size="14.00">कर्ता</text>
</g>
<!-- Node1_1 -->
<g id="node5" class="node">
<title>Node1_1</title>
<ellipse fill="#93db70" stroke="#93db70" cx="474.54" cy="-192" rx="106.68" ry="18"/>
<text text-anchor="middle" x="474.54" y="-188.3" font-family="Times,serif" font-size="14.00">द्विजान्(1.1)</text>
</g>
<!-- Node1_1&#45;&gt;Node2_1 -->
<g id="edge1" class="edge">
<title>Node1_1&#45;&gt;Node2_1</title>
<path fill="none" stroke="black" d="M471.54,-220.46C471.66,-227.99 472.69,-236.01 475.54,-243 478.26,-249.65 482.88,-255.78 487.81,-260.99"/>
<polygon fill="black" stroke="black" points="475.04,-220.4 471.89,-210.28 468.05,-220.16 475.04,-220.4"/>
<text text-anchor="middle" x="504.54" y="-231.8" font-family="Times,serif" font-size="14.00">कर्म</text>
</g>
<!-- Node2_1&#45;&gt;Node14_1 -->
<g id="edge2" class="edge">
<title>Node2_1&#45;&gt;Node14_1</title>
<path fill="none" stroke="black" d="M502.78,-307.29C502.6,-315.45 504.15,-323.85 509.54,-330 526.73,-349.62 585.45,-358.34 638.99,-362.16"/>
<polygon fill="black" stroke="black" points="506.27,-307.58 503.79,-297.28 499.3,-306.88 506.27,-307.58"/>
<text text-anchor="middle" x="616.54" y="-318.8" font-family="Times,serif" font-size="14.00">वर्तमानसमानकालः</text>
</g>
<!-- Node6_1&#45;&gt;Node14_1 -->
<g id="edge9" class="edge">
<title>Node6_1&#45;&gt;Node14_1</title>
<path fill="none" stroke="black" d="M266.55,-306.75C270.89,-315.6 277.05,-324.57 285.54,-330 314.54,-348.53 514.84,-358.08 638.87,-362.27"/>
<polygon fill="black" stroke="black" points="269.69,-305.18 262.53,-297.36 263.25,-307.93 269.69,-305.18"/>
<text text-anchor="middle" x="392.54" y="-318.8" font-family="Times,serif" font-size="14.00">वर्तमानसमानकालः</text>
</g>
<!-- Node10_1&#45;&gt;Node14_1 -->
<g id="edge14" class="edge">
<title>Node10_1&#45;&gt;Node14_1</title>
<path fill="none" stroke="black" d="M884.99,-300.06C850.99,-315.03 805.17,-335.21 773.68,-349.08"/>
<polygon fill="black" stroke="black" points="886.5,-303.22 894.24,-295.99 883.68,-296.82 886.5,-303.22"/>
<text text-anchor="middle" x="952.54" y="-318.8" font-family="Times,serif" font-size="14.00">वर्तमानसमानकालः</text>
</g>
<!-- Node4_1 -->
<g id="node10" class="node">
<title>Node4_1</title>
<ellipse fill="#40e0d0" stroke="#40e0d0" cx="69.54" cy="-192" rx="69.59" ry="18"/>
<text text-anchor="middle" x="69.54" y="-188.3" font-family="Times,serif" font-size="14.00">उरसा(4.1)</text>
</g>
<!-- Node4_1&#45;&gt;Node6_1 -->
<g id="edge7" class="edge">
<title>Node4_1&#45;&gt;Node6_1</title>
<path fill="none" stroke="black" d="M111.62,-212.18C132.1,-221.51 157.1,-232.86 179.54,-243 194.15,-249.6 210.32,-256.86 224.13,-263.05"/>
<polygon fill="black" stroke="black" points="112.81,-208.88 102.26,-207.92 109.91,-215.25 112.81,-208.88"/>
<text text-anchor="middle" x="215.54" y="-231.8" font-family="Times,serif" font-size="14.00">करणम्</text>
</g>
<!-- Node5_1 -->
<g id="node11" class="node">
<title>Node5_1</title>
<ellipse fill="#ffff00" stroke="#ffff00" cx="253.54" cy="-192" rx="96.68" ry="18"/>
<text text-anchor="middle" x="253.54" y="-188.3" font-family="Times,serif" font-size="14.00">पादपान्(5.1)</text>
</g>
<!-- Node5_1&#45;&gt;Node6_1 -->
<g id="edge8" class="edge">
<title>Node5_1&#45;&gt;Node6_1</title>
<path fill="none" stroke="black" d="M254.83,-220.27C255.45,-233.58 256.19,-249.19 256.74,-260.82"/>
<polygon fill="black" stroke="black" points="258.32,-220.03 254.35,-210.2 251.33,-220.35 258.32,-220.03"/>
<text text-anchor="middle" x="285.54" y="-231.8" font-family="Times,serif" font-size="14.00">कर्म</text>
</g>
<!-- Node8_1 -->
<g id="node12" class="node">
<title>Node8_1</title>
<ellipse fill="#ff99ff" stroke="#ff99ff" cx="1099.54" cy="-105" rx="41.69" ry="18"/>
<text text-anchor="middle" x="1099.54" y="-101.3" font-family="Times,serif" font-size="14.00">च(8.1)</text>
</g>
<!-- Node8_1&#45;&gt;Node7_1 -->
<g id="edge11" class="edge">
<title>Node8_1&#45;&gt;Node7_1</title>
<path fill="none" stroke="black" d="M1088.04,-132.17C1083.12,-140.8 1076.63,-149.78 1068.54,-156 1054.15,-167.07 1036.26,-174.66 1018.91,-179.85"/>
<polygon fill="black" stroke="black" points="1091.26,-133.57 1092.75,-123.08 1085.04,-130.34 1091.26,-133.57"/>
<text text-anchor="middle" x="1185.04" y="-144.8" font-family="Times,serif" font-size="14.00">समुच्चय_द्योतकः</text>
</g>
<!-- Node9_1 -->
<g id="node13" class="node">
<title>Node9_1</title>
<ellipse fill="#ffff00" stroke="#ffff00" cx="944.54" cy="-18" rx="53.89" ry="18"/>
<text text-anchor="middle" x="944.54" y="-14.3" font-family="Times,serif" font-size="14.00">सु&#45;(9.1)</text>
</g>
<!-- Node9_1&#45;&gt;Node9_2 -->
<g id="edge12" class="edge">
<title>Node9_1&#45;&gt;Node9_2</title>
<path fill="none" stroke="black" d="M944.54,-46.27C944.54,-59.58 944.54,-75.19 944.54,-86.82"/>
<polygon fill="black" stroke="black" points="948.04,-46.2 944.54,-36.2 941.04,-46.2 948.04,-46.2"/>
<text text-anchor="middle" x="1016.04" y="-57.8" font-family="Times,serif" font-size="14.00">बहुव्रीहिः</text>
</g>
<!-- Node12_1 -->
<g id="node14" class="node">
<title>Node12_1</title>
<ellipse fill="#ff99ff" stroke="#ff99ff" cx="1126.54" cy="-279" rx="56.59" ry="18"/>
<text text-anchor="middle" x="1126.54" y="-275.3" font-family="Times,serif" font-size="14.00">इव(12.1)</text>
</g>
<!-- Node12_1&#45;&gt;Node14_1 -->
<g id="edge16" class="edge">
<title>Node12_1&#45;&gt;Node14_1</title>
<path fill="none" stroke="black" d="M1103.57,-303.44C1092.44,-313.34 1078.31,-323.95 1063.54,-330 1023.25,-346.51 914.67,-355.79 833.83,-360.58"/>
<polygon fill="black" stroke="black" points="1106.16,-305.81 1111.11,-296.44 1101.4,-300.69 1106.16,-305.81"/>
<text text-anchor="middle" x="1176.54" y="-318.8" font-family="Times,serif" font-size="14.00">उपमान_द्योतकः</text>
</g>
<!-- Node13_1 -->
<g id="node15" class="node">
<title>Node13_1</title>
<ellipse fill="#00bfff" stroke="#00bfff" cx="1143.54" cy="-192" rx="84.49" ry="18"/>
<text text-anchor="middle" x="1143.54" y="-188.3" font-family="Times,serif" font-size="14.00">केसरी(13.1)</text>
</g>
<!-- Node13_1&#45;&gt;Node12_1 -->
<g id="edge17" class="edge">
<title>Node13_1&#45;&gt;Node12_1</title>
<path fill="none" stroke="black" d="M1138.09,-220.27C1135.43,-233.58 1132.31,-249.19 1129.98,-260.82"/>
<polygon fill="black" stroke="black" points="1141.57,-220.69 1140.1,-210.2 1134.71,-219.32 1141.57,-220.69"/>
<text text-anchor="middle" x="1185.54" y="-231.8" font-family="Times,serif" font-size="14.00">उपमानम्</text>
</g>
</g>
</svg>
