<?xml version="1.0" encoding="UTF-8" standalone="no"?>
<!DOCTYPE svg PUBLIC "-//W3C//DTD SVG 1.1//EN"
 "http://www.w3.org/Graphics/SVG/1.1/DTD/svg11.dtd">
<!-- Generated by graphviz version 2.43.0 (0)
 -->
<!-- Title: G Pages: 1 -->
<svg width="916pt" height="392pt"
 viewBox="0.00 0.00 915.89 392.00" xmlns="http://www.w3.org/2000/svg" xmlns:xlink="http://www.w3.org/1999/xlink">
<g id="graph0" class="graph" transform="scale(1 1) rotate(0) translate(4 388)">
<title>G</title>
<polygon fill="#fffacd" stroke="transparent" points="-4,4 -4,-388 911.89,-388 911.89,4 -4,4"/>
<g id="clust1" class="cluster">
<title>cluster_1</title>
<polygon fill="#fffacd" stroke="black" points="651.89,-166 651.89,-305 899.89,-305 899.89,-166 651.89,-166"/>
</g>
<g id="clust2" class="cluster">
<title>cluster_2</title>
<polygon fill="#fffacd" stroke="black" points="451.89,-79 451.89,-218 643.89,-218 643.89,-79 451.89,-79"/>
</g>
<!-- Node3_1 -->
<g id="node1" class="node">
<title>Node3_1</title>
<ellipse fill="#00bfff" stroke="#00bfff" cx="775.89" cy="-192" rx="106.68" ry="18"/>
<text text-anchor="middle" x="775.89" y="-188.3" font-family="Times,serif" font-size="14.00">आविद्धम्(3.1)</text>
</g>
<!-- Node2_1 -->
<g id="node2" class="node">
<title>Node2_1</title>
<ellipse fill="#00bfff" stroke="#00bfff" cx="775.89" cy="-279" rx="115.88" ry="18"/>
<text text-anchor="middle" x="775.89" y="-275.3" font-family="Times,serif" font-size="14.00">लाङ्गूलम्(2.1)</text>
</g>
<!-- Node3_1&#45;&gt;Node2_1 -->
<g id="edge3" class="edge">
<title>Node3_1&#45;&gt;Node2_1</title>
<path fill="none" stroke="black" d="M775.89,-220.27C775.89,-233.58 775.89,-249.19 775.89,-260.82"/>
<polygon fill="black" stroke="black" points="779.39,-220.2 775.89,-210.2 772.39,-220.2 779.39,-220.2"/>
<text text-anchor="middle" x="833.39" y="-231.8" font-family="Times,serif" font-size="14.00">विशेषणम्</text>
</g>
<!-- Node6_1 -->
<g id="node5" class="node">
<title>Node6_1</title>
<ellipse fill="#ff1975" stroke="#ff1975" cx="534.89" cy="-366" rx="78.79" ry="18"/>
<text text-anchor="middle" x="534.89" y="-362.3" font-family="Times,serif" font-size="14.00">ददृशे(6.1)</text>
</g>
<!-- Node2_1&#45;&gt;Node6_1 -->
<g id="edge2" class="edge">
<title>Node2_1&#45;&gt;Node6_1</title>
<path fill="none" stroke="black" d="M745.11,-302.73C730.77,-312.38 713.11,-323 695.89,-330 665.69,-342.29 630.46,-350.57 600.67,-355.98"/>
<polygon fill="black" stroke="black" points="747.34,-305.45 753.58,-296.89 743.36,-299.69 747.34,-305.45"/>
<text text-anchor="middle" x="751.89" y="-318.8" font-family="Times,serif" font-size="14.00">कर्म</text>
</g>
<!-- Node4_2 -->
<g id="node3" class="node">
<title>Node4_2</title>
<ellipse fill="#87ceeb" stroke="#87ceeb" cx="547.89" cy="-105" rx="87.99" ry="18"/>
<text text-anchor="middle" x="547.89" y="-101.3" font-family="Times,serif" font-size="14.00">वेगस्य(4.2)</text>
</g>
<!-- Node1_1 -->
<g id="node4" class="node">
<title>Node1_1</title>
<ellipse fill="#87ceeb" stroke="#87ceeb" cx="547.89" cy="-192" rx="69.59" ry="18"/>
<text text-anchor="middle" x="547.89" y="-188.3" font-family="Times,serif" font-size="14.00">तस्य(1.1)</text>
</g>
<!-- Node4_2&#45;&gt;Node1_1 -->
<g id="edge5" class="edge">
<title>Node4_2&#45;&gt;Node1_1</title>
<path fill="none" stroke="black" d="M547.89,-133.27C547.89,-146.58 547.89,-162.19 547.89,-173.82"/>
<polygon fill="black" stroke="black" points="551.39,-133.2 547.89,-123.2 544.39,-133.2 551.39,-133.2"/>
<text text-anchor="middle" x="605.39" y="-144.8" font-family="Times,serif" font-size="14.00">विशेषणम्</text>
</g>
<!-- Node1_1&#45;&gt;Node2_1 -->
<g id="edge1" class="edge">
<title>Node1_1&#45;&gt;Node2_1</title>
<path fill="none" stroke="black" d="M561.86,-218.51C568.06,-227.59 576.18,-237.03 585.89,-243 602.93,-253.48 645.32,-261.79 685.75,-267.68"/>
<polygon fill="black" stroke="black" points="564.81,-216.63 556.5,-210.05 558.89,-220.37 564.81,-216.63"/>
<text text-anchor="middle" x="678.89" y="-231.8" font-family="Times,serif" font-size="14.00">षष्ठीसम्बन्धः</text>
</g>
<!-- Node4_1 -->
<g id="node6" class="node">
<title>Node4_1</title>
<ellipse fill="#ffff00" stroke="#ffff00" cx="547.89" cy="-18" rx="63.09" ry="18"/>
<text text-anchor="middle" x="547.89" y="-14.3" font-family="Times,serif" font-size="14.00">अति&#45;(4.1)</text>
</g>
<!-- Node4_1&#45;&gt;Node4_2 -->
<g id="edge4" class="edge">
<title>Node4_1&#45;&gt;Node4_2</title>
<path fill="none" stroke="black" d="M547.89,-46.27C547.89,-59.58 547.89,-75.19 547.89,-86.82"/>
<polygon fill="black" stroke="black" points="551.39,-46.2 547.89,-36.2 544.39,-46.2 551.39,-46.2"/>
<text text-anchor="middle" x="619.39" y="-57.8" font-family="Times,serif" font-size="14.00">अव्ययीभावः</text>
</g>
<!-- Node5_1 -->
<g id="node7" class="node">
<title>Node5_1</title>
<ellipse fill="#ff99ff" stroke="#ff99ff" cx="534.89" cy="-279" rx="96.68" ry="18"/>
<text text-anchor="middle" x="534.89" y="-275.3" font-family="Times,serif" font-size="14.00">पृष्ठतः(5.1)</text>
</g>
<!-- Node5_1&#45;&gt;Node6_1 -->
<g id="edge6" class="edge">
<title>Node5_1&#45;&gt;Node6_1</title>
<path fill="none" stroke="black" d="M534.89,-307.27C534.89,-320.58 534.89,-336.19 534.89,-347.82"/>
<polygon fill="black" stroke="black" points="538.39,-307.2 534.89,-297.2 531.39,-307.2 538.39,-307.2"/>
<text text-anchor="middle" x="613.39" y="-318.8" font-family="Times,serif" font-size="14.00">देशाधिकरणम्</text>
</g>
<!-- Node7_1 -->
<g id="node8" class="node">
<title>Node7_1</title>
<ellipse fill="#40e0d0" stroke="#40e0d0" cx="355.89" cy="-192" rx="87.99" ry="18"/>
<text text-anchor="middle" x="355.89" y="-188.3" font-family="Times,serif" font-size="14.00">गरुडेन(7.1)</text>
</g>
<!-- Node9_1 -->
<g id="node9" class="node">
<title>Node9_1</title>
<ellipse fill="#00bfff" stroke="#00bfff" cx="241.89" cy="-279" rx="115.88" ry="18"/>
<text text-anchor="middle" x="241.89" y="-275.3" font-family="Times,serif" font-size="14.00">ह्रियमाणः(9.1)</text>
</g>
<!-- Node7_1&#45;&gt;Node9_1 -->
<g id="edge7" class="edge">
<title>Node7_1&#45;&gt;Node9_1</title>
<path fill="none" stroke="black" d="M344.35,-219.11C339.61,-227.59 333.43,-236.49 325.89,-243 316.33,-251.26 304.54,-257.78 292.85,-262.83"/>
<polygon fill="black" stroke="black" points="347.48,-220.69 348.94,-210.2 341.25,-217.49 347.48,-220.69"/>
<text text-anchor="middle" x="374.89" y="-231.8" font-family="Times,serif" font-size="14.00">कर्ता</text>
</g>
<!-- Node9_1&#45;&gt;Node6_1 -->
<g id="edge9" class="edge">
<title>Node9_1&#45;&gt;Node6_1</title>
<path fill="none" stroke="black" d="M270.18,-303.07C283.59,-312.86 300.28,-323.49 316.89,-330 362.31,-347.8 416.44,-356.55 459.4,-360.85"/>
<polygon fill="black" stroke="black" points="271.97,-300.04 261.88,-296.81 267.76,-305.63 271.97,-300.04"/>
<text text-anchor="middle" x="423.89" y="-318.8" font-family="Times,serif" font-size="14.00">वर्तमानसमानकालः</text>
</g>
<!-- Node8_1 -->
<g id="node10" class="node">
<title>Node8_1</title>
<ellipse fill="#ff99ff" stroke="#ff99ff" cx="220.89" cy="-105" rx="50.89" ry="18"/>
<text text-anchor="middle" x="220.89" y="-101.3" font-family="Times,serif" font-size="14.00">इव(8.1)</text>
</g>
<!-- Node10_2 -->
<g id="node11" class="node">
<title>Node10_2</title>
<ellipse fill="#00bfff" stroke="#00bfff" cx="163.89" cy="-192" rx="75.29" ry="18"/>
<text text-anchor="middle" x="163.89" y="-188.3" font-family="Times,serif" font-size="14.00">उरगः(10.2)</text>
</g>
<!-- Node8_1&#45;&gt;Node10_2 -->
<g id="edge8" class="edge">
<title>Node8_1&#45;&gt;Node10_2</title>
<path fill="none" stroke="black" d="M211.37,-132.56C207.99,-140.43 203.79,-148.85 198.89,-156 194.43,-162.53 188.65,-168.88 183.09,-174.35"/>
<polygon fill="black" stroke="black" points="214.73,-133.6 215.21,-123.02 208.23,-130.99 214.73,-133.6"/>
<text text-anchor="middle" x="296.89" y="-144.8" font-family="Times,serif" font-size="14.00">उपमान_द्योतकः</text>
</g>
<!-- Node10_2&#45;&gt;Node9_1 -->
<g id="edge11" class="edge">
<title>Node10_2&#45;&gt;Node9_1</title>
<path fill="none" stroke="black" d="M197.36,-215.44C202.16,-219.35 206.84,-223.58 210.89,-228 219.87,-237.78 227.73,-250.52 233.28,-260.69"/>
<polygon fill="black" stroke="black" points="199.31,-212.53 189.25,-209.2 195.04,-218.07 199.31,-212.53"/>
<text text-anchor="middle" x="271.89" y="-231.8" font-family="Times,serif" font-size="14.00">उपमानम्</text>
</g>
<!-- Node10_2&#45;&gt;Node9_1 -->
<g id="edge12" class="edge">
<title>Node10_2&#45;&gt;Node9_1</title>
<path fill="none" stroke="black" stroke-dasharray="1,5" d="M147.73,-219.09C144.79,-227.23 144,-235.93 148.89,-243 155.37,-252.36 164.69,-259.22 174.96,-264.25"/>
<polygon fill="black" stroke="black" points="150.96,-220.45 151.95,-209.9 144.6,-217.53 150.96,-220.45"/>
<text text-anchor="middle" x="177.89" y="-231.8" font-family="Times,serif" font-size="14.00">कर्म</text>
</g>
<!-- Node10_1 -->
<g id="node12" class="node">
<title>Node10_1</title>
<ellipse fill="#ffff00" stroke="#ffff00" cx="68.89" cy="-105" rx="68.79" ry="18"/>
<text text-anchor="middle" x="68.89" y="-101.3" font-family="Times,serif" font-size="14.00">महा&#45;(10.1)</text>
</g>
<!-- Node10_1&#45;&gt;Node10_2 -->
<g id="edge10" class="edge">
<title>Node10_1&#45;&gt;Node10_2</title>
<path fill="none" stroke="black" d="M61.1,-133.27C60.38,-141.2 61.3,-149.48 65.89,-156 74.58,-168.33 88.03,-176.34 102.21,-181.54"/>
<polygon fill="black" stroke="black" points="64.58,-133.67 62.81,-123.22 57.68,-132.49 64.58,-133.67"/>
<text text-anchor="middle" x="130.39" y="-144.8" font-family="Times,serif" font-size="14.00">कर्मधारयः</text>
</g>
</g>
</svg>
