<?xml version="1.0" encoding="UTF-8" standalone="no"?>
<!DOCTYPE svg PUBLIC "-//W3C//DTD SVG 1.1//EN"
 "http://www.w3.org/Graphics/SVG/1.1/DTD/svg11.dtd">
<!-- Generated by graphviz version 2.43.0 (0)
 -->
<!-- Title: G Pages: 1 -->
<svg width="1231pt" height="321pt"
 viewBox="0.00 0.00 1231.00 321.00" xmlns="http://www.w3.org/2000/svg" xmlns:xlink="http://www.w3.org/1999/xlink">
<g id="graph0" class="graph" transform="scale(1 1) rotate(0) translate(4 317)">
<title>G</title>
<polygon fill="#fffacd" stroke="transparent" points="-4,4 -4,-317 1227,-317 1227,4 -4,4"/>
<g id="clust1" class="cluster">
<title>cluster_1</title>
<polygon fill="#fffacd" stroke="black" points="375,-95 375,-234 1204,-234 1204,-95 375,-95"/>
</g>
<g id="clust2" class="cluster">
<title>cluster_2</title>
<polygon fill="#fffacd" stroke="black" points="8,-8 8,-147 218,-147 218,-8 8,-8"/>
</g>
<!-- Node1_2 -->
<g id="node1" class="node">
<title>Node1_2</title>
<ellipse fill="#00bfff" stroke="#00bfff" cx="462" cy="-121" rx="78.79" ry="18"/>
<text text-anchor="middle" x="462" y="-117.3" font-family="Times,serif" font-size="14.00">चक्रः(1.2)</text>
</g>
<!-- Node2_1 -->
<g id="node2" class="node">
<title>Node2_1</title>
<ellipse fill="#00bfff" stroke="#00bfff" cx="665" cy="-208" rx="96.68" ry="18"/>
<text text-anchor="middle" x="665" y="-204.3" font-family="Times,serif" font-size="14.00">हनुमान्(2.1)</text>
</g>
<!-- Node1_2&#45;&gt;Node2_1 -->
<g id="edge2" class="edge">
<title>Node1_2&#45;&gt;Node2_1</title>
<path fill="none" stroke="black" d="M494.29,-143.81C509.5,-153.4 528.19,-164.23 546,-172 565.64,-180.57 587.99,-187.77 607.97,-193.36"/>
<polygon fill="black" stroke="black" points="496.07,-140.8 485.76,-138.34 492.29,-146.69 496.07,-140.8"/>
<text text-anchor="middle" x="603.5" y="-160.8" font-family="Times,serif" font-size="14.00">विशेषणम्</text>
</g>
<!-- Node5_1 -->
<g id="node9" class="node">
<title>Node5_1</title>
<ellipse fill="#ff1975" stroke="#ff1975" cx="665" cy="-295" rx="96.68" ry="18"/>
<text text-anchor="middle" x="665" y="-291.3" font-family="Times,serif" font-size="14.00">व्यरोचत(5.1)</text>
</g>
<!-- Node2_1&#45;&gt;Node5_1 -->
<g id="edge3" class="edge">
<title>Node2_1&#45;&gt;Node5_1</title>
<path fill="none" stroke="black" d="M665,-236.27C665,-249.58 665,-265.19 665,-276.82"/>
<polygon fill="black" stroke="black" points="668.5,-236.2 665,-226.2 661.5,-236.2 668.5,-236.2"/>
<text text-anchor="middle" x="701" y="-247.8" font-family="Times,serif" font-size="14.00">कर्ता</text>
</g>
<!-- Node3_2 -->
<g id="node3" class="node">
<title>Node3_2</title>
<ellipse fill="#00bfff" stroke="#00bfff" cx="665" cy="-121" rx="106.68" ry="18"/>
<text text-anchor="middle" x="665" y="-117.3" font-family="Times,serif" font-size="14.00">दंष्ट्रः(3.2)</text>
</g>
<!-- Node3_2&#45;&gt;Node2_1 -->
<g id="edge5" class="edge">
<title>Node3_2&#45;&gt;Node2_1</title>
<path fill="none" stroke="black" d="M665,-149.27C665,-162.58 665,-178.19 665,-189.82"/>
<polygon fill="black" stroke="black" points="668.5,-149.2 665,-139.2 661.5,-149.2 668.5,-149.2"/>
<text text-anchor="middle" x="722.5" y="-160.8" font-family="Times,serif" font-size="14.00">विशेषणम्</text>
</g>
<!-- Node4_2 -->
<g id="node4" class="node">
<title>Node4_2</title>
<ellipse fill="#00bfff" stroke="#00bfff" cx="877" cy="-121" rx="87.99" ry="18"/>
<text text-anchor="middle" x="877" y="-117.3" font-family="Times,serif" font-size="14.00">आत्मजः(4.2)</text>
</g>
<!-- Node4_2&#45;&gt;Node2_1 -->
<g id="edge7" class="edge">
<title>Node4_2&#45;&gt;Node2_1</title>
<path fill="none" stroke="black" d="M841.45,-143.36C824.46,-152.98 803.6,-163.95 784,-172 763.78,-180.3 740.89,-187.52 720.62,-193.22"/>
<polygon fill="black" stroke="black" points="843.53,-146.2 850.46,-138.18 840.04,-140.13 843.53,-146.2"/>
<text text-anchor="middle" x="873.5" y="-160.8" font-family="Times,serif" font-size="14.00">विशेषणम्</text>
</g>
<!-- Node6_2 -->
<g id="node5" class="node">
<title>Node6_2</title>
<ellipse fill="#00bfff" stroke="#00bfff" cx="1089" cy="-121" rx="106.68" ry="18"/>
<text text-anchor="middle" x="1089" y="-117.3" font-family="Times,serif" font-size="14.00">प्राज्ञः(6.2)</text>
</g>
<!-- Node6_2&#45;&gt;Node2_1 -->
<g id="edge9" class="edge">
<title>Node6_2&#45;&gt;Node2_1</title>
<path fill="none" stroke="black" d="M1038.03,-141.18C1008.35,-151.68 969.99,-164.12 935,-172 874.48,-185.62 805.04,-194.48 751.74,-199.87"/>
<polygon fill="black" stroke="black" points="1039.51,-144.36 1047.75,-137.7 1037.15,-137.77 1039.51,-144.36"/>
<text text-anchor="middle" x="1044.5" y="-160.8" font-family="Times,serif" font-size="14.00">विशेषणम्</text>
</g>
<!-- Node7_1 -->
<g id="node6" class="node">
<title>Node7_1</title>
<ellipse fill="#00bfff" stroke="#00bfff" cx="113" cy="-34" rx="96.68" ry="18"/>
<text text-anchor="middle" x="113" y="-30.3" font-family="Times,serif" font-size="14.00">परिवेषी(7.1)</text>
</g>
<!-- Node9_1 -->
<g id="node7" class="node">
<title>Node9_1</title>
<ellipse fill="#00bfff" stroke="#00bfff" cx="113" cy="-121" rx="96.68" ry="18"/>
<text text-anchor="middle" x="113" y="-117.3" font-family="Times,serif" font-size="14.00">भास्करः(9.1)</text>
</g>
<!-- Node7_1&#45;&gt;Node9_1 -->
<g id="edge10" class="edge">
<title>Node7_1&#45;&gt;Node9_1</title>
<path fill="none" stroke="black" d="M113,-62.27C113,-75.58 113,-91.19 113,-102.82"/>
<polygon fill="black" stroke="black" points="116.5,-62.2 113,-52.2 109.5,-62.2 116.5,-62.2"/>
<text text-anchor="middle" x="170.5" y="-73.8" font-family="Times,serif" font-size="14.00">विशेषणम्</text>
</g>
<!-- Node9_1&#45;&gt;Node2_1 -->
<g id="edge12" class="edge">
<title>Node9_1&#45;&gt;Node2_1</title>
<path fill="none" stroke="black" d="M190.95,-135.52C251.67,-145.91 338.11,-160.41 414,-172 472.5,-180.94 538.81,-190.14 588.58,-196.87"/>
<polygon fill="black" stroke="black" points="191.51,-132.07 181.06,-133.83 190.32,-138.97 191.51,-132.07"/>
<text text-anchor="middle" x="464" y="-160.8" font-family="Times,serif" font-size="14.00">उपमानम्</text>
</g>
<!-- Node1_1 -->
<g id="node8" class="node">
<title>Node1_1</title>
<ellipse fill="#ffff00" stroke="#ffff00" cx="464" cy="-34" rx="100.18" ry="18"/>
<text text-anchor="middle" x="464" y="-30.3" font-family="Times,serif" font-size="14.00">लाङ्गूल&#45;(1.1)</text>
</g>
<!-- Node1_1&#45;&gt;Node1_2 -->
<g id="edge1" class="edge">
<title>Node1_1&#45;&gt;Node1_2</title>
<path fill="none" stroke="black" d="M463.36,-62.27C463.05,-75.58 462.68,-91.19 462.4,-102.82"/>
<polygon fill="black" stroke="black" points="466.86,-62.28 463.6,-52.2 459.86,-62.12 466.86,-62.28"/>
<text text-anchor="middle" x="535.5" y="-73.8" font-family="Times,serif" font-size="14.00">बहुव्रीहिः</text>
</g>
<!-- Node3_1 -->
<g id="node10" class="node">
<title>Node3_1</title>
<ellipse fill="#ffff00" stroke="#ffff00" cx="665" cy="-34" rx="81.49" ry="18"/>
<text text-anchor="middle" x="665" y="-30.3" font-family="Times,serif" font-size="14.00">शुक्ल&#45;(3.1)</text>
</g>
<!-- Node3_1&#45;&gt;Node3_2 -->
<g id="edge4" class="edge">
<title>Node3_1&#45;&gt;Node3_2</title>
<path fill="none" stroke="black" d="M665,-62.27C665,-75.58 665,-91.19 665,-102.82"/>
<polygon fill="black" stroke="black" points="668.5,-62.2 665,-52.2 661.5,-62.2 668.5,-62.2"/>
<text text-anchor="middle" x="736.5" y="-73.8" font-family="Times,serif" font-size="14.00">बहुव्रीहिः</text>
</g>
<!-- Node4_1 -->
<g id="node11" class="node">
<title>Node4_1</title>
<ellipse fill="#ffff00" stroke="#ffff00" cx="868" cy="-34" rx="72.29" ry="18"/>
<text text-anchor="middle" x="868" y="-30.3" font-family="Times,serif" font-size="14.00">अनिल&#45;(4.1)</text>
</g>
<!-- Node4_1&#45;&gt;Node4_2 -->
<g id="edge6" class="edge">
<title>Node4_1&#45;&gt;Node4_2</title>
<path fill="none" stroke="black" d="M867.54,-62.41C867.69,-69.77 868.1,-77.7 869,-85 869.72,-90.82 870.98,-97.08 872.3,-102.68"/>
<polygon fill="black" stroke="black" points="871.04,-62.17 867.48,-52.19 864.04,-62.21 871.04,-62.17"/>
<text text-anchor="middle" x="972.5" y="-73.8" font-family="Times,serif" font-size="14.00">षष्ठी_तत्पुरुषः</text>
</g>
<!-- Node6_1 -->
<g id="node12" class="node">
<title>Node6_1</title>
<ellipse fill="#ffff00" stroke="#ffff00" cx="1098" cy="-34" rx="63.09" ry="18"/>
<text text-anchor="middle" x="1098" y="-30.3" font-family="Times,serif" font-size="14.00">महा&#45;(6.1)</text>
</g>
<!-- Node6_1&#45;&gt;Node6_2 -->
<g id="edge8" class="edge">
<title>Node6_1&#45;&gt;Node6_2</title>
<path fill="none" stroke="black" d="M1095.11,-62.27C1093.7,-75.58 1092.05,-91.19 1090.82,-102.82"/>
<polygon fill="black" stroke="black" points="1098.61,-62.51 1096.18,-52.2 1091.65,-61.78 1098.61,-62.51"/>
<text text-anchor="middle" x="1158.5" y="-73.8" font-family="Times,serif" font-size="14.00">कर्मधारयः</text>
</g>
<!-- Node8_1 -->
<g id="node13" class="node">
<title>Node8_1</title>
<ellipse fill="#ff99ff" stroke="#ff99ff" cx="279" cy="-34" rx="50.89" ry="18"/>
<text text-anchor="middle" x="279" y="-30.3" font-family="Times,serif" font-size="14.00">इव(8.1)</text>
</g>
<!-- Node8_1&#45;&gt;Node9_1 -->
<g id="edge11" class="edge">
<title>Node8_1&#45;&gt;Node9_1</title>
<path fill="none" stroke="black" d="M260.75,-59.38C252.8,-68.54 242.83,-78.34 232,-85 215.67,-95.04 196.31,-102.33 178.01,-107.56"/>
<polygon fill="black" stroke="black" points="263.51,-61.53 267.18,-51.59 258.11,-57.07 263.51,-61.53"/>
<text text-anchor="middle" x="339" y="-73.8" font-family="Times,serif" font-size="14.00">उपमान_द्योतकः</text>
</g>
</g>
</svg>
