<?xml version="1.0" encoding="UTF-8" standalone="no"?>
<!DOCTYPE svg PUBLIC "-//W3C//DTD SVG 1.1//EN"
 "http://www.w3.org/Graphics/SVG/1.1/DTD/svg11.dtd">
<!-- Generated by graphviz version 2.43.0 (0)
 -->
<!-- Title: G Pages: 1 -->
<svg width="1436pt" height="392pt"
 viewBox="0.00 0.00 1436.00 392.00" xmlns="http://www.w3.org/2000/svg" xmlns:xlink="http://www.w3.org/1999/xlink">
<g id="graph0" class="graph" transform="scale(1 1) rotate(0) translate(4 388)">
<title>G</title>
<polygon fill="#fffacd" stroke="transparent" points="-4,4 -4,-388 1432,-388 1432,4 -4,4"/>
<g id="clust1" class="cluster">
<title>cluster_1</title>
<polygon fill="#fffacd" stroke="black" points="692,-166 692,-305 1420,-305 1420,-166 692,-166"/>
</g>
<g id="clust2" class="cluster">
<title>cluster_2</title>
<polygon fill="#fffacd" stroke="black" points="8,-166 8,-305 200,-305 200,-166 8,-166"/>
</g>
<!-- Node1_1 -->
<g id="node1" class="node">
<title>Node1_1</title>
<ellipse fill="#40e0d0" stroke="#40e0d0" cx="1287" cy="-192" rx="124.58" ry="18"/>
<text text-anchor="middle" x="1287" y="-188.3" font-family="Times,serif" font-size="14.00">जातरूपमयैः(1.1)</text>
</g>
<!-- Node2_1 -->
<g id="node2" class="node">
<title>Node2_1</title>
<ellipse fill="#40e0d0" stroke="#40e0d0" cx="884" cy="-279" rx="96.68" ry="18"/>
<text text-anchor="middle" x="884" y="-275.3" font-family="Times,serif" font-size="14.00">शृङ्गैः(2.1)</text>
</g>
<!-- Node1_1&#45;&gt;Node2_1 -->
<g id="edge1" class="edge">
<title>Node1_1&#45;&gt;Node2_1</title>
<path fill="none" stroke="black" d="M1224.68,-211.23C1188.25,-221.47 1141.26,-233.96 1099,-243 1052.96,-252.85 1000.85,-261.39 959.46,-267.58"/>
<polygon fill="black" stroke="black" points="1225.99,-214.49 1234.66,-208.4 1224.09,-207.76 1225.99,-214.49"/>
<text text-anchor="middle" x="1218.5" y="-231.8" font-family="Times,serif" font-size="14.00">विशेषणम्</text>
</g>
<!-- Node7_1 -->
<g id="node7" class="node">
<title>Node7_1</title>
<ellipse fill="#ff1975" stroke="#ff1975" cx="491" cy="-366" rx="78.79" ry="18"/>
<text text-anchor="middle" x="491" y="-362.3" font-family="Times,serif" font-size="14.00">अभवत्(7.1)</text>
</g>
<!-- Node2_1&#45;&gt;Node7_1 -->
<g id="edge2" class="edge">
<title>Node2_1&#45;&gt;Node7_1</title>
<path fill="none" stroke="black" d="M835.66,-299.13C807.55,-309.61 771.21,-322.04 738,-330 679.67,-343.99 612.16,-353.08 562.47,-358.49"/>
<polygon fill="black" stroke="black" points="837.12,-302.32 845.24,-295.52 834.65,-295.77 837.12,-302.32"/>
<text text-anchor="middle" x="822" y="-318.8" font-family="Times,serif" font-size="14.00">करणम्</text>
</g>
<!-- Node3_1 -->
<g id="node3" class="node">
<title>Node3_1</title>
<ellipse fill="#40e0d0" stroke="#40e0d0" cx="1019" cy="-192" rx="124.58" ry="18"/>
<text text-anchor="middle" x="1019" y="-188.3" font-family="Times,serif" font-size="14.00">भ्राजमानैः(3.1)</text>
</g>
<!-- Node3_1&#45;&gt;Node2_1 -->
<g id="edge3" class="edge">
<title>Node3_1&#45;&gt;Node2_1</title>
<path fill="none" stroke="black" d="M994.03,-216.77C983.94,-225.66 971.88,-235.43 960,-243 948.48,-250.34 935.18,-257.01 922.95,-262.51"/>
<polygon fill="black" stroke="black" points="996.58,-219.19 1001.66,-209.89 991.89,-213.99 996.58,-219.19"/>
<text text-anchor="middle" x="1037.5" y="-231.8" font-family="Times,serif" font-size="14.00">विशेषणम्</text>
</g>
<!-- Node4_2 -->
<g id="node4" class="node">
<title>Node4_2</title>
<ellipse fill="#40e0d0" stroke="#40e0d0" cx="788" cy="-192" rx="87.99" ry="18"/>
<text text-anchor="middle" x="788" y="-188.3" font-family="Times,serif" font-size="14.00">प्रभैः(4.2)</text>
</g>
<!-- Node4_2&#45;&gt;Node2_1 -->
<g id="edge5" class="edge">
<title>Node4_2&#45;&gt;Node2_1</title>
<path fill="none" stroke="black" d="M814.48,-216.44C830.52,-230.65 850.62,-248.44 865.07,-261.24"/>
<polygon fill="black" stroke="black" points="816.77,-213.8 806.97,-209.79 812.13,-219.04 816.77,-213.8"/>
<text text-anchor="middle" x="898.5" y="-231.8" font-family="Times,serif" font-size="14.00">विशेषणम्</text>
</g>
<!-- Node6_1 -->
<g id="node5" class="node">
<title>Node6_1</title>
<ellipse fill="#00bfff" stroke="#00bfff" cx="77" cy="-192" rx="50.89" ry="18"/>
<text text-anchor="middle" x="77" y="-188.3" font-family="Times,serif" font-size="14.00">सः(6.1)</text>
</g>
<!-- Node8_2 -->
<g id="node6" class="node">
<title>Node8_2</title>
<ellipse fill="#00bfff" stroke="#00bfff" cx="104" cy="-279" rx="87.99" ry="18"/>
<text text-anchor="middle" x="104" y="-275.3" font-family="Times,serif" font-size="14.00">सत्तमः(8.2)</text>
</g>
<!-- Node6_1&#45;&gt;Node8_2 -->
<g id="edge10" class="edge">
<title>Node6_1&#45;&gt;Node8_2</title>
<path fill="none" stroke="black" d="M85.54,-219.87C89.79,-233.27 94.81,-249.08 98.54,-260.82"/>
<polygon fill="black" stroke="black" points="88.83,-218.67 82.46,-210.2 82.16,-220.79 88.83,-218.67"/>
<text text-anchor="middle" x="150.5" y="-231.8" font-family="Times,serif" font-size="14.00">विशेषणम्</text>
</g>
<!-- Node8_2&#45;&gt;Node7_1 -->
<g id="edge12" class="edge">
<title>Node8_2&#45;&gt;Node7_1</title>
<path fill="none" stroke="black" d="M171.36,-294.8C246.53,-311.3 366.7,-337.7 436.3,-352.98"/>
<polygon fill="black" stroke="black" points="172.04,-291.36 161.52,-292.63 170.54,-298.2 172.04,-291.36"/>
<text text-anchor="middle" x="357" y="-318.8" font-family="Times,serif" font-size="14.00">कर्ता</text>
</g>
<!-- Node4_1 -->
<g id="node8" class="node">
<title>Node4_1</title>
<ellipse fill="#ffff00" stroke="#ffff00" cx="788" cy="-105" rx="63.09" ry="18"/>
<text text-anchor="middle" x="788" y="-101.3" font-family="Times,serif" font-size="14.00">महा&#45;(4.1)</text>
</g>
<!-- Node4_1&#45;&gt;Node4_2 -->
<g id="edge4" class="edge">
<title>Node4_1&#45;&gt;Node4_2</title>
<path fill="none" stroke="black" d="M788,-133.27C788,-146.58 788,-162.19 788,-173.82"/>
<polygon fill="black" stroke="black" points="791.5,-133.2 788,-123.2 784.5,-133.2 791.5,-133.2"/>
<text text-anchor="middle" x="859.5" y="-144.8" font-family="Times,serif" font-size="14.00">बहुव्रीहिः</text>
</g>
<!-- Node5_1 -->
<g id="node9" class="node">
<title>Node5_1</title>
<ellipse fill="#ffff00" stroke="#ffff00" cx="491" cy="-18" rx="90.98" ry="18"/>
<text text-anchor="middle" x="491" y="-14.3" font-family="Times,serif" font-size="14.00">आदित्य&#45;(5.1)</text>
</g>
<!-- Node5_2 -->
<g id="node10" class="node">
<title>Node5_2</title>
<ellipse fill="#ffff00" stroke="#ffff00" cx="491" cy="-105" rx="53.89" ry="18"/>
<text text-anchor="middle" x="491" y="-101.3" font-family="Times,serif" font-size="14.00">शत&#45;(5.2)</text>
</g>
<!-- Node5_1&#45;&gt;Node5_2 -->
<g id="edge6" class="edge">
<title>Node5_1&#45;&gt;Node5_2</title>
<path fill="none" stroke="black" d="M491,-46.27C491,-59.58 491,-75.19 491,-86.82"/>
<polygon fill="black" stroke="black" points="494.5,-46.2 491,-36.2 487.5,-46.2 494.5,-46.2"/>
<text text-anchor="middle" x="594.5" y="-57.8" font-family="Times,serif" font-size="14.00">षष्ठी_तत्पुरुषः</text>
</g>
<!-- Node5_3 -->
<g id="node11" class="node">
<title>Node5_3</title>
<ellipse fill="#ffff00" stroke="#ffff00" cx="491" cy="-192" rx="63.09" ry="18"/>
<text text-anchor="middle" x="491" y="-188.3" font-family="Times,serif" font-size="14.00">सम्&#45;(5.3)</text>
</g>
<!-- Node5_2&#45;&gt;Node5_3 -->
<g id="edge7" class="edge">
<title>Node5_2&#45;&gt;Node5_3</title>
<path fill="none" stroke="black" d="M491,-133.27C491,-146.58 491,-162.19 491,-173.82"/>
<polygon fill="black" stroke="black" points="494.5,-133.2 491,-123.2 487.5,-133.2 494.5,-133.2"/>
<text text-anchor="middle" x="555.5" y="-144.8" font-family="Times,serif" font-size="14.00">कर्मधारयः</text>
</g>
<!-- Node5_4 -->
<g id="node12" class="node">
<title>Node5_4</title>
<ellipse fill="#00bfff" stroke="#00bfff" cx="491" cy="-279" rx="69.59" ry="18"/>
<text text-anchor="middle" x="491" y="-275.3" font-family="Times,serif" font-size="14.00">काशः(5.4)</text>
</g>
<!-- Node5_3&#45;&gt;Node5_4 -->
<g id="edge8" class="edge">
<title>Node5_3&#45;&gt;Node5_4</title>
<path fill="none" stroke="black" d="M491,-220.27C491,-233.58 491,-249.19 491,-260.82"/>
<polygon fill="black" stroke="black" points="494.5,-220.2 491,-210.2 487.5,-220.2 494.5,-220.2"/>
<text text-anchor="middle" x="587.5" y="-231.8" font-family="Times,serif" font-size="14.00">उपपद_तत्पुरुषः</text>
</g>
<!-- Node5_4&#45;&gt;Node7_1 -->
<g id="edge9" class="edge">
<title>Node5_4&#45;&gt;Node7_1</title>
<path fill="none" stroke="black" d="M491,-307.27C491,-320.58 491,-336.19 491,-347.82"/>
<polygon fill="black" stroke="black" points="494.5,-307.2 491,-297.2 487.5,-307.2 494.5,-307.2"/>
<text text-anchor="middle" x="612.5" y="-318.8" font-family="Times,serif" font-size="14.00">कर्तृसमानाधिकरणम्</text>
</g>
<!-- Node8_1 -->
<g id="node13" class="node">
<title>Node8_1</title>
<ellipse fill="#ffff00" stroke="#ffff00" cx="280" cy="-192" rx="72.29" ry="18"/>
<text text-anchor="middle" x="280" y="-188.3" font-family="Times,serif" font-size="14.00">गिरि&#45;(8.1)</text>
</g>
<!-- Node8_1&#45;&gt;Node8_2 -->
<g id="edge11" class="edge">
<title>Node8_1&#45;&gt;Node8_2</title>
<path fill="none" stroke="black" d="M253.3,-215.73C241.26,-225.14 226.51,-235.56 212,-243 194.81,-251.81 174.96,-259.01 156.99,-264.53"/>
<polygon fill="black" stroke="black" points="255.55,-218.42 261.16,-209.43 251.17,-212.95 255.55,-218.42"/>
<text text-anchor="middle" x="346.5" y="-231.8" font-family="Times,serif" font-size="14.00">सप्तमी_तत्पुरुषः</text>
</g>
</g>
</svg>
