<?xml version="1.0" encoding="UTF-8" standalone="no"?>
<!DOCTYPE svg PUBLIC "-//W3C//DTD SVG 1.1//EN"
 "http://www.w3.org/Graphics/SVG/1.1/DTD/svg11.dtd">
<!-- Generated by graphviz version 2.43.0 (0)
 -->
<!-- Title: G Pages: 1 -->
<svg width="1097pt" height="408pt"
 viewBox="0.00 0.00 1097.00 408.00" xmlns="http://www.w3.org/2000/svg" xmlns:xlink="http://www.w3.org/1999/xlink">
<g id="graph0" class="graph" transform="scale(1 1) rotate(0) translate(4 404)">
<title>G</title>
<polygon fill="#fffacd" stroke="transparent" points="-4,4 -4,-404 1093,-404 1093,4 -4,4"/>
<g id="clust1" class="cluster">
<title>cluster_1</title>
<polygon fill="#fffacd" stroke="black" points="658,-8 658,-234 1081,-234 1081,-8 658,-8"/>
</g>
<g id="clust2" class="cluster">
<title>cluster_2</title>
<polygon fill="#fffacd" stroke="black" points="8,-95 8,-234 212,-234 212,-95 8,-95"/>
</g>
<!-- Node4_1 -->
<g id="node1" class="node">
<title>Node4_1</title>
<ellipse fill="#00bfff" stroke="#00bfff" cx="754" cy="-121" rx="87.99" ry="18"/>
<text text-anchor="middle" x="754" y="-117.3" font-family="Times,serif" font-size="14.00">यक्षाः(4.1)</text>
</g>
<!-- Node1_1 -->
<g id="node2" class="node">
<title>Node1_1</title>
<ellipse fill="#00bfff" stroke="#00bfff" cx="762" cy="-208" rx="78.79" ry="18"/>
<text text-anchor="middle" x="762" y="-204.3" font-family="Times,serif" font-size="14.00">नागाः(1.1)</text>
</g>
<!-- Node4_1&#45;&gt;Node1_1 -->
<g id="edge4" class="edge">
<title>Node4_1&#45;&gt;Node1_1</title>
<path fill="none" stroke="black" d="M756.57,-149.27C757.82,-162.58 759.29,-178.19 760.38,-189.82"/>
<polygon fill="black" stroke="black" points="760.04,-148.83 755.62,-139.2 753.07,-149.49 760.04,-148.83"/>
<text text-anchor="middle" x="822.5" y="-160.8" font-family="Times,serif" font-size="14.00">समुच्चितः</text>
</g>
<!-- Node3_1 -->
<g id="node8" class="node">
<title>Node3_1</title>
<ellipse fill="#ff1975" stroke="#ff1975" cx="494" cy="-382" rx="115.88" ry="18"/>
<text text-anchor="middle" x="494" y="-378.3" font-family="Times,serif" font-size="14.00">तुष्टुवुः(3.1)</text>
</g>
<!-- Node1_1&#45;&gt;Node3_1 -->
<g id="edge1" class="edge">
<title>Node1_1&#45;&gt;Node3_1</title>
<path fill="none" stroke="black" d="M765.99,-236.31C768.84,-267.44 768.03,-317.67 739,-346 719.86,-364.68 661.39,-373.47 606.37,-377.57"/>
<polygon fill="black" stroke="black" points="769.44,-235.71 764.86,-226.16 762.48,-236.49 769.44,-235.71"/>
<text text-anchor="middle" x="802" y="-291.3" font-family="Times,serif" font-size="14.00">कर्ता</text>
</g>
<!-- Node8_1 -->
<g id="node9" class="node">
<title>Node8_1</title>
<ellipse fill="#ff99ff" stroke="#ff99ff" cx="321" cy="-295" rx="115.88" ry="18"/>
<text text-anchor="middle" x="321" y="-291.3" font-family="Times,serif" font-size="14.00">प्रेक्ष्य(8.1)</text>
</g>
<!-- Node1_1&#45;&gt;Node8_1 -->
<g id="edge2" class="edge">
<title>Node1_1&#45;&gt;Node8_1</title>
<path fill="none" stroke="black" stroke-dasharray="1,5" d="M693.88,-222.13C611.48,-238.01 473.52,-264.6 390.5,-280.6"/>
<polygon fill="black" stroke="black" points="694.74,-225.53 703.89,-220.2 693.41,-218.66 694.74,-225.53"/>
<text text-anchor="middle" x="603" y="-247.8" font-family="Times,serif" font-size="14.00">कर्ता</text>
</g>
<!-- Node5_1 -->
<g id="node3" class="node">
<title>Node5_1</title>
<ellipse fill="#00bfff" stroke="#00bfff" cx="966" cy="-121" rx="106.68" ry="18"/>
<text text-anchor="middle" x="966" y="-117.3" font-family="Times,serif" font-size="14.00">रक्षांसि(5.1)</text>
</g>
<!-- Node5_1&#45;&gt;Node1_1 -->
<g id="edge5" class="edge">
<title>Node5_1&#45;&gt;Node1_1</title>
<path fill="none" stroke="black" d="M936.5,-144.89C923.18,-154.35 906.89,-164.78 891,-172 868.5,-182.22 842.39,-190 819.58,-195.59"/>
<polygon fill="black" stroke="black" points="938.76,-147.57 944.78,-138.86 934.64,-141.91 938.76,-147.57"/>
<text text-anchor="middle" x="981.5" y="-160.8" font-family="Times,serif" font-size="14.00">समुच्चितः</text>
</g>
<!-- Node6_1 -->
<g id="node4" class="node">
<title>Node6_1</title>
<ellipse fill="#00bfff" stroke="#00bfff" cx="958" cy="-34" rx="106.68" ry="18"/>
<text text-anchor="middle" x="958" y="-30.3" font-family="Times,serif" font-size="14.00">विविधानि(6.1)</text>
</g>
<!-- Node6_1&#45;&gt;Node5_1 -->
<g id="edge6" class="edge">
<title>Node6_1&#45;&gt;Node5_1</title>
<path fill="none" stroke="black" d="M960.57,-62.27C961.82,-75.58 963.29,-91.19 964.38,-102.82"/>
<polygon fill="black" stroke="black" points="964.04,-61.83 959.62,-52.2 957.07,-62.49 964.04,-61.83"/>
<text text-anchor="middle" x="1019.5" y="-73.8" font-family="Times,serif" font-size="14.00">विशेषणम्</text>
</g>
<!-- Node9_1 -->
<g id="node5" class="node">
<title>Node9_1</title>
<ellipse fill="#00bfff" stroke="#00bfff" cx="754" cy="-34" rx="78.79" ry="18"/>
<text text-anchor="middle" x="754" y="-30.3" font-family="Times,serif" font-size="14.00">सर्वे(9.1)</text>
</g>
<!-- Node9_1&#45;&gt;Node4_1 -->
<g id="edge9" class="edge">
<title>Node9_1&#45;&gt;Node4_1</title>
<path fill="none" stroke="black" d="M754,-62.27C754,-75.58 754,-91.19 754,-102.82"/>
<polygon fill="black" stroke="black" points="757.5,-62.2 754,-52.2 750.5,-62.2 757.5,-62.2"/>
<text text-anchor="middle" x="811.5" y="-73.8" font-family="Times,serif" font-size="14.00">विशेषणम्</text>
</g>
<!-- Node12_2 -->
<g id="node6" class="node">
<title>Node12_2</title>
<ellipse fill="#93db70" stroke="#93db70" cx="110" cy="-121" rx="93.68" ry="18"/>
<text text-anchor="middle" x="110" y="-117.3" font-family="Times,serif" font-size="14.00">क्लमम्(12.2)</text>
</g>
<!-- Node10_2 -->
<g id="node7" class="node">
<title>Node10_2</title>
<ellipse fill="#93db70" stroke="#93db70" cx="129" cy="-208" rx="75.29" ry="18"/>
<text text-anchor="middle" x="129" y="-204.3" font-family="Times,serif" font-size="14.00">वरम्(10.2)</text>
</g>
<!-- Node12_2&#45;&gt;Node10_2 -->
<g id="edge15" class="edge">
<title>Node12_2&#45;&gt;Node10_2</title>
<path fill="none" stroke="black" d="M116.09,-149.27C119.07,-162.58 122.56,-178.19 125.16,-189.82"/>
<polygon fill="black" stroke="black" points="119.44,-148.2 113.84,-139.2 112.61,-149.72 119.44,-148.2"/>
<text text-anchor="middle" x="178.5" y="-160.8" font-family="Times,serif" font-size="14.00">विशेषणम्</text>
</g>
<!-- Node10_2&#45;&gt;Node3_1 -->
<g id="edge12" class="edge">
<title>Node10_2&#45;&gt;Node3_1</title>
<path fill="none" stroke="black" stroke-dasharray="1,5" d="M123.15,-236.13C119.83,-259.45 119.47,-292.47 138,-313 170.83,-349.38 295.49,-366.66 388.08,-374.62"/>
<polygon fill="black" stroke="black" points="126.62,-236.63 124.83,-226.18 119.72,-235.46 126.62,-236.63"/>
<text text-anchor="middle" x="167" y="-291.3" font-family="Times,serif" font-size="14.00">कर्म</text>
</g>
<!-- Node10_2&#45;&gt;Node8_1 -->
<g id="edge11" class="edge">
<title>Node10_2&#45;&gt;Node8_1</title>
<path fill="none" stroke="black" d="M172.49,-228.25C206.23,-243.19 252.48,-263.67 284.36,-277.78"/>
<polygon fill="black" stroke="black" points="173.89,-225.04 163.33,-224.2 171.05,-231.44 173.89,-225.04"/>
<text text-anchor="middle" x="266" y="-247.8" font-family="Times,serif" font-size="14.00">कर्म</text>
</g>
<!-- Node8_1&#45;&gt;Node3_1 -->
<g id="edge8" class="edge">
<title>Node8_1&#45;&gt;Node3_1</title>
<path fill="none" stroke="black" d="M337,-321.51C343.73,-330.42 352.27,-339.74 362,-346 378.05,-356.32 397.06,-363.62 415.58,-368.76"/>
<polygon fill="black" stroke="black" points="339.75,-319.35 331.12,-313.22 334.04,-323.4 339.75,-319.35"/>
<text text-anchor="middle" x="426.5" y="-334.8" font-family="Times,serif" font-size="14.00">पूर्वकालः</text>
</g>
<!-- Node2_1 -->
<g id="node10" class="node">
<title>Node2_1</title>
<ellipse fill="#ff99ff" stroke="#ff99ff" cx="496" cy="-295" rx="41.69" ry="18"/>
<text text-anchor="middle" x="496" y="-291.3" font-family="Times,serif" font-size="14.00">च(2.1)</text>
</g>
<!-- Node2_1&#45;&gt;Node3_1 -->
<g id="edge3" class="edge">
<title>Node2_1&#45;&gt;Node3_1</title>
<path fill="none" stroke="black" d="M495.2,-323.13C495.13,-325.79 495.06,-328.45 495,-331 494.73,-341.94 494.49,-354.22 494.31,-363.87"/>
<polygon fill="black" stroke="black" points="498.7,-323.18 495.48,-313.09 491.7,-322.99 498.7,-323.18"/>
<text text-anchor="middle" x="552.5" y="-334.8" font-family="Times,serif" font-size="14.00">सम्बन्धः</text>
</g>
<!-- Node7_1 -->
<g id="node11" class="node">
<title>Node7_1</title>
<ellipse fill="#ff99ff" stroke="#ff99ff" cx="533" cy="-121" rx="41.69" ry="18"/>
<text text-anchor="middle" x="533" y="-117.3" font-family="Times,serif" font-size="14.00">च(7.1)</text>
</g>
<!-- Node7_1&#45;&gt;Node1_1 -->
<g id="edge7" class="edge">
<title>Node7_1&#45;&gt;Node1_1</title>
<path fill="none" stroke="black" d="M534.39,-149.21C536.16,-157.6 539.59,-166.16 546,-172 566.23,-190.41 632.04,-199.19 685.76,-203.34"/>
<polygon fill="black" stroke="black" points="537.84,-148.64 532.95,-139.25 530.91,-149.64 537.84,-148.64"/>
<text text-anchor="middle" x="649.5" y="-160.8" font-family="Times,serif" font-size="14.00">समुच्चय_द्योतकः</text>
</g>
<!-- Node10_1 -->
<g id="node12" class="node">
<title>Node10_1</title>
<ellipse fill="#ffff00" stroke="#ffff00" cx="290" cy="-121" rx="68.79" ry="18"/>
<text text-anchor="middle" x="290" y="-117.3" font-family="Times,serif" font-size="14.00">कपि&#45;(10.1)</text>
</g>
<!-- Node10_1&#45;&gt;Node10_2 -->
<g id="edge10" class="edge">
<title>Node10_1&#45;&gt;Node10_2</title>
<path fill="none" stroke="black" d="M269.88,-146.64C261.45,-155.67 251.04,-165.3 240,-172 222.81,-182.43 202.22,-190.04 183.46,-195.45"/>
<polygon fill="black" stroke="black" points="272.7,-148.74 276.75,-138.95 267.48,-144.08 272.7,-148.74"/>
<text text-anchor="middle" x="369.5" y="-160.8" font-family="Times,serif" font-size="14.00">सप्तमी_तत्पुरुषः</text>
</g>
<!-- Node11_1 -->
<g id="node13" class="node">
<title>Node11_1</title>
<ellipse fill="#ff99ff" stroke="#ff99ff" cx="632" cy="-295" rx="75.29" ry="18"/>
<text text-anchor="middle" x="632" y="-291.3" font-family="Times,serif" font-size="14.00">सहसा(11.1)</text>
</g>
<!-- Node11_1&#45;&gt;Node3_1 -->
<g id="edge13" class="edge">
<title>Node11_1&#45;&gt;Node3_1</title>
<path fill="none" stroke="black" d="M625.13,-322.65C621.79,-331.11 616.94,-339.85 610,-346 598.66,-356.04 584.52,-363.2 570.06,-368.31"/>
<polygon fill="black" stroke="black" points="628.5,-323.62 628.4,-313.02 621.87,-321.37 628.5,-323.62"/>
<text text-anchor="middle" x="677.5" y="-334.8" font-family="Times,serif" font-size="14.00">सम्बन्धः</text>
</g>
<!-- Node12_1 -->
<g id="node14" class="node">
<title>Node12_1</title>
<ellipse fill="#ffff00" stroke="#ffff00" cx="110" cy="-34" rx="77.99" ry="18"/>
<text text-anchor="middle" x="110" y="-30.3" font-family="Times,serif" font-size="14.00">विगत&#45;(12.1)</text>
</g>
<!-- Node12_1&#45;&gt;Node12_2 -->
<g id="edge14" class="edge">
<title>Node12_1&#45;&gt;Node12_2</title>
<path fill="none" stroke="black" d="M110,-62.27C110,-75.58 110,-91.19 110,-102.82"/>
<polygon fill="black" stroke="black" points="113.5,-62.2 110,-52.2 106.5,-62.2 113.5,-62.2"/>
<text text-anchor="middle" x="181.5" y="-73.8" font-family="Times,serif" font-size="14.00">बहुव्रीहिः</text>
</g>
</g>
</svg>
