<?xml version="1.0" encoding="UTF-8" standalone="no"?>
<!DOCTYPE svg PUBLIC "-//W3C//DTD SVG 1.1//EN"
 "http://www.w3.org/Graphics/SVG/1.1/DTD/svg11.dtd">
<!-- Generated by graphviz version 2.43.0 (0)
 -->
<!-- Title: G Pages: 1 -->
<svg width="810pt" height="392pt"
 viewBox="0.00 0.00 809.99 392.00" xmlns="http://www.w3.org/2000/svg" xmlns:xlink="http://www.w3.org/1999/xlink">
<g id="graph0" class="graph" transform="scale(1 1) rotate(0) translate(4 388)">
<title>G</title>
<polygon fill="#fffacd" stroke="transparent" points="-4,4 -4,-388 805.99,-388 805.99,4 -4,4"/>
<g id="clust1" class="cluster">
<title>cluster_1</title>
<polygon fill="#fffacd" stroke="black" points="567.99,-166 567.99,-305 777.99,-305 777.99,-166 567.99,-166"/>
</g>
<g id="clust2" class="cluster">
<title>cluster_2</title>
<polygon fill="#fffacd" stroke="black" points="227.99,-79 227.99,-218 401.99,-218 401.99,-79 227.99,-79"/>
</g>
<g id="clust3" class="cluster">
<title>cluster_3</title>
<polygon fill="#fffacd" stroke="black" points="13.99,-166 13.99,-305 205.99,-305 205.99,-166 13.99,-166"/>
</g>
<!-- Node4_2 -->
<g id="node1" class="node">
<title>Node4_2</title>
<ellipse fill="#00bfff" stroke="#00bfff" cx="672.99" cy="-192" rx="96.68" ry="18"/>
<text text-anchor="middle" x="672.99" y="-188.3" font-family="Times,serif" font-size="14.00">इन्द्रः(4.2)</text>
</g>
<!-- Node6_1 -->
<g id="node2" class="node">
<title>Node6_1</title>
<ellipse fill="#00bfff" stroke="#00bfff" cx="663.99" cy="-279" rx="87.99" ry="18"/>
<text text-anchor="middle" x="663.99" y="-275.3" font-family="Times,serif" font-size="14.00">पर्वतः(6.1)</text>
</g>
<!-- Node4_2&#45;&gt;Node6_1 -->
<g id="edge5" class="edge">
<title>Node4_2&#45;&gt;Node6_1</title>
<path fill="none" stroke="black" d="M670.1,-220.27C668.7,-233.58 667.04,-249.19 665.81,-260.82"/>
<polygon fill="black" stroke="black" points="673.6,-220.51 671.17,-210.2 666.64,-219.78 673.6,-220.51"/>
<text text-anchor="middle" x="726.49" y="-231.8" font-family="Times,serif" font-size="14.00">विशेषणम्</text>
</g>
<!-- Node8_1 -->
<g id="node8" class="node">
<title>Node8_1</title>
<ellipse fill="#ff1975" stroke="#ff1975" cx="333.99" cy="-366" rx="152.97" ry="18"/>
<text text-anchor="middle" x="333.99" y="-362.3" font-family="Times,serif" font-size="14.00">निर्वर्तयामास(8.1)</text>
</g>
<!-- Node6_1&#45;&gt;Node8_1 -->
<g id="edge7" class="edge">
<title>Node6_1&#45;&gt;Node8_1</title>
<path fill="none" stroke="black" d="M624.95,-300.45C603.85,-310.72 577.06,-322.53 551.99,-330 517,-340.42 477.87,-347.94 442.52,-353.26"/>
<polygon fill="black" stroke="black" points="626.5,-303.59 633.91,-296.01 623.4,-297.31 626.5,-303.59"/>
<text text-anchor="middle" x="624.99" y="-318.8" font-family="Times,serif" font-size="14.00">कर्ता</text>
</g>
<!-- Node5_1 -->
<g id="node3" class="node">
<title>Node5_1</title>
<ellipse fill="#40e0d0" stroke="#40e0d0" cx="295.99" cy="-105" rx="59.59" ry="18"/>
<text text-anchor="middle" x="295.99" y="-101.3" font-family="Times,serif" font-size="14.00">तेन(5.1)</text>
</g>
<!-- Node3_1 -->
<g id="node4" class="node">
<title>Node3_1</title>
<ellipse fill="#40e0d0" stroke="#40e0d0" cx="314.99" cy="-192" rx="78.79" ry="18"/>
<text text-anchor="middle" x="314.99" y="-188.3" font-family="Times,serif" font-size="14.00">बलिना(3.1)</text>
</g>
<!-- Node5_1&#45;&gt;Node3_1 -->
<g id="edge6" class="edge">
<title>Node5_1&#45;&gt;Node3_1</title>
<path fill="none" stroke="black" d="M302.09,-133.27C305.06,-146.58 308.55,-162.19 311.15,-173.82"/>
<polygon fill="black" stroke="black" points="305.43,-132.2 299.84,-123.2 298.6,-133.72 305.43,-132.2"/>
<text text-anchor="middle" x="364.49" y="-144.8" font-family="Times,serif" font-size="14.00">विशेषणम्</text>
</g>
<!-- Node1_1 -->
<g id="node7" class="node">
<title>Node1_1</title>
<ellipse fill="#00bfff" stroke="#00bfff" cx="333.99" cy="-279" rx="115.88" ry="18"/>
<text text-anchor="middle" x="333.99" y="-275.3" font-family="Times,serif" font-size="14.00">पीड्यमानः(1.1)</text>
</g>
<!-- Node3_1&#45;&gt;Node1_1 -->
<g id="edge3" class="edge">
<title>Node3_1&#45;&gt;Node1_1</title>
<path fill="none" stroke="black" d="M321.09,-220.27C324.06,-233.58 327.55,-249.19 330.15,-260.82"/>
<polygon fill="black" stroke="black" points="324.43,-219.2 318.84,-210.2 317.6,-220.72 324.43,-219.2"/>
<text text-anchor="middle" x="361.99" y="-231.8" font-family="Times,serif" font-size="14.00">कर्ता</text>
</g>
<!-- Node9_3 -->
<g id="node5" class="node">
<title>Node9_3</title>
<ellipse fill="#93db70" stroke="#93db70" cx="109.99" cy="-192" rx="87.99" ry="18"/>
<text text-anchor="middle" x="109.99" y="-188.3" font-family="Times,serif" font-size="14.00">राजतीः(9.3)</text>
</g>
<!-- Node7_1 -->
<g id="node6" class="node">
<title>Node7_1</title>
<ellipse fill="#93db70" stroke="#93db70" cx="113.99" cy="-279" rx="78.79" ry="18"/>
<text text-anchor="middle" x="113.99" y="-275.3" font-family="Times,serif" font-size="14.00">रीतीः(7.1)</text>
</g>
<!-- Node9_3&#45;&gt;Node7_1 -->
<g id="edge11" class="edge">
<title>Node9_3&#45;&gt;Node7_1</title>
<path fill="none" stroke="black" d="M111.28,-220.27C111.9,-233.58 112.64,-249.19 113.18,-260.82"/>
<polygon fill="black" stroke="black" points="114.77,-220.03 110.8,-210.2 107.78,-220.35 114.77,-220.03"/>
<text text-anchor="middle" x="170.49" y="-231.8" font-family="Times,serif" font-size="14.00">विशेषणम्</text>
</g>
<!-- Node7_1&#45;&gt;Node8_1 -->
<g id="edge8" class="edge">
<title>Node7_1&#45;&gt;Node8_1</title>
<path fill="none" stroke="black" d="M161.8,-298.47C200.48,-313.42 254.45,-334.27 291.61,-348.62"/>
<polygon fill="black" stroke="black" points="162.9,-295.15 152.31,-294.81 160.38,-301.67 162.9,-295.15"/>
<text text-anchor="middle" x="266.99" y="-318.8" font-family="Times,serif" font-size="14.00">कर्म</text>
</g>
<!-- Node1_1&#45;&gt;Node8_1 -->
<g id="edge1" class="edge">
<title>Node1_1&#45;&gt;Node8_1</title>
<path fill="none" stroke="black" d="M333.99,-307.27C333.99,-320.58 333.99,-336.19 333.99,-347.82"/>
<polygon fill="black" stroke="black" points="337.49,-307.2 333.99,-297.2 330.49,-307.2 337.49,-307.2"/>
<text text-anchor="middle" x="440.99" y="-318.8" font-family="Times,serif" font-size="14.00">वर्तमानसमानकालः</text>
</g>
<!-- Node2_1 -->
<g id="node9" class="node">
<title>Node2_1</title>
<ellipse fill="#ff99ff" stroke="#ff99ff" cx="461.99" cy="-192" rx="50.89" ry="18"/>
<text text-anchor="middle" x="461.99" y="-188.3" font-family="Times,serif" font-size="14.00">तु(2.1)</text>
</g>
<!-- Node2_1&#45;&gt;Node1_1 -->
<g id="edge2" class="edge">
<title>Node2_1&#45;&gt;Node1_1</title>
<path fill="none" stroke="black" d="M437.14,-215.81C426.69,-224.83 414.15,-234.94 401.99,-243 391.7,-249.82 379.91,-256.3 369.07,-261.79"/>
<polygon fill="black" stroke="black" points="439.48,-218.41 444.68,-209.18 434.86,-213.15 439.48,-218.41"/>
<text text-anchor="middle" x="479.49" y="-231.8" font-family="Times,serif" font-size="14.00">सम्बन्धः</text>
</g>
<!-- Node4_1 -->
<g id="node10" class="node">
<title>Node4_1</title>
<ellipse fill="#ffff00" stroke="#ffff00" cx="672.99" cy="-105" rx="63.09" ry="18"/>
<text text-anchor="middle" x="672.99" y="-101.3" font-family="Times,serif" font-size="14.00">महा&#45;(4.1)</text>
</g>
<!-- Node4_1&#45;&gt;Node4_2 -->
<g id="edge4" class="edge">
<title>Node4_1&#45;&gt;Node4_2</title>
<path fill="none" stroke="black" d="M672.99,-133.27C672.99,-146.58 672.99,-162.19 672.99,-173.82"/>
<polygon fill="black" stroke="black" points="676.49,-133.2 672.99,-123.2 669.49,-133.2 676.49,-133.2"/>
<text text-anchor="middle" x="737.49" y="-144.8" font-family="Times,serif" font-size="14.00">कर्मधारयः</text>
</g>
<!-- Node9_1 -->
<g id="node11" class="node">
<title>Node9_1</title>
<ellipse fill="#ffff00" stroke="#ffff00" cx="90.99" cy="-18" rx="90.98" ry="18"/>
<text text-anchor="middle" x="90.99" y="-14.3" font-family="Times,serif" font-size="14.00">काञ्चन&#45;(9.1)</text>
</g>
<!-- Node9_2 -->
<g id="node12" class="node">
<title>Node9_2</title>
<ellipse fill="#ffff00" stroke="#ffff00" cx="90.99" cy="-105" rx="81.49" ry="18"/>
<text text-anchor="middle" x="90.99" y="-101.3" font-family="Times,serif" font-size="14.00">अञ्जन&#45;(9.2)</text>
</g>
<!-- Node9_1&#45;&gt;Node9_2 -->
<g id="edge9" class="edge">
<title>Node9_1&#45;&gt;Node9_2</title>
<path fill="none" stroke="black" d="M90.99,-46.27C90.99,-59.58 90.99,-75.19 90.99,-86.82"/>
<polygon fill="black" stroke="black" points="94.49,-46.2 90.99,-36.2 87.49,-46.2 94.49,-46.2"/>
<text text-anchor="middle" x="155.49" y="-57.8" font-family="Times,serif" font-size="14.00">द्वन्द्वः</text>
</g>
<!-- Node9_2&#45;&gt;Node9_3 -->
<g id="edge10" class="edge">
<title>Node9_2&#45;&gt;Node9_3</title>
<path fill="none" stroke="black" d="M91.57,-133.34C92.16,-140.77 93.2,-148.76 94.99,-156 96.48,-162.03 98.9,-168.35 101.37,-173.94"/>
<polygon fill="black" stroke="black" points="95.06,-133.13 91,-123.35 88.08,-133.53 95.06,-133.13"/>
<text text-anchor="middle" x="159.49" y="-144.8" font-family="Times,serif" font-size="14.00">द्वन्द्वः</text>
</g>
</g>
</svg>
