<svg xmlns="http://www.w3.org/2000/svg" xmlns:xlink="http://www.w3.org/1999/xlink" width="1075pt" height="392pt" viewBox="0 0 1074.74 392"><g id="graph0" class="graph" transform="scale(1 1) rotate(0) translate(4 388)"><title>G</title><polygon fill="#fffacd" stroke="transparent" points="-4 4 -4 -388 1070.74 -388 1070.74 4 -4 4"/><g id="clust1" class="cluster"><title>cluster_1</title><polygon fill="#fffacd" stroke="#000" points="8 -166 8 -305 461 -305 461 -166 8 -166"/></g><g id="node1" class="node"><title>Node5_1</title><ellipse cx="346" cy="-192" fill="#00bfff" stroke="#00bfff" rx="106.68" ry="18"/><text x="346" y="-188.3" font-family="Times,serif" font-size="14" text-anchor="middle">आत्मवान्(5.1)</text></g><g id="node2" class="node"><title>Node1_1</title><ellipse cx="338" cy="-279" fill="#00bfff" stroke="#00bfff" rx="50.89" ry="18"/><text x="338" y="-275.3" font-family="Times,serif" font-size="14" text-anchor="middle">सः(1.1)</text></g><g id="edge7" class="edge"><title>Node5_1-&gt;Node1_1</title><path fill="none" stroke="#000" d="M343.43,-220.27C342.18,-233.58 340.71,-249.19 339.62,-260.82"/><polygon fill="#000" stroke="#000" points="346.93 -220.49 344.38 -210.2 339.96 -219.83 346.93 -220.49"/><text x="399.5" y="-231.8" font-family="Times,serif" font-size="14" text-anchor="middle">विशेषणम्</text></g><g id="node4" class="node"><title>Node9_1</title><ellipse cx="576" cy="-366" fill="#ff1975" stroke="#ff1975" rx="69.59" ry="18"/><text x="576" y="-362.3" font-family="Times,serif" font-size="14" text-anchor="middle">चकार(9.1)</text></g><g id="edge1" class="edge"><title>Node1_1-&gt;Node9_1</title><path fill="none" stroke="#000" d="M382,-295.72C426.41,-311.58 494.34,-335.84 536.91,-351.04"/><polygon fill="#000" stroke="#000" points="382.95 -292.34 372.35 -292.27 380.59 -298.93 382.95 -292.34"/><text x="507" y="-318.8" font-family="Times,serif" font-size="14" text-anchor="middle">कर्ता</text></g><g id="node3" class="node"><title>Node10_1</title><ellipse cx="119" cy="-192" fill="#00bfff" stroke="#00bfff" rx="102.88" ry="18"/><text x="119" y="-188.3" font-family="Times,serif" font-size="14" text-anchor="middle">मतिमान्(10.1)</text></g><g id="edge11" class="edge"><title>Node10_1-&gt;Node1_1</title><path fill="none" stroke="#000" d="M158.44,-213.97C177.36,-223.55 200.52,-234.61 222,-243 246.88,-252.72 275.63,-261.41 298.28,-267.7"/><polygon fill="#000" stroke="#000" points="160.02 -210.85 149.53 -209.41 156.83 -217.08 160.02 -210.85"/><text x="279.5" y="-231.8" font-family="Times,serif" font-size="14" text-anchor="middle">विशेषणम्</text></g><g id="node5" class="node"><title>Node2_1</title><ellipse cx="577" cy="-18" fill="#ff0" stroke="#ff0" rx="63.09" ry="18"/><text x="577" y="-14.3" font-family="Times,serif" font-size="14" text-anchor="middle">महा-(2.1)</text></g><g id="node6" class="node"><title>Node2_2</title><ellipse cx="577" cy="-105" fill="#ff0" stroke="#ff0" rx="63.09" ry="18"/><text x="577" y="-101.3" font-family="Times,serif" font-size="14" text-anchor="middle">मेघ-(2.2)</text></g><g id="edge2" class="edge"><title>Node2_1-&gt;Node2_2</title><path fill="none" stroke="#000" d="M577,-46.27C577,-59.58 577,-75.19 577,-86.82"/><polygon fill="#000" stroke="#000" points="580.5 -46.2 577 -36.2 573.5 -46.2 580.5 -46.2"/><text x="641.5" y="-57.8" font-family="Times,serif" font-size="14" text-anchor="middle">कर्मधारयः</text></g><g id="node7" class="node"><title>Node2_3</title><ellipse cx="577" cy="-192" fill="#00bfff" stroke="#00bfff" rx="106.68" ry="18"/><text x="577" y="-188.3" font-family="Times,serif" font-size="14" text-anchor="middle">सङ्काशम्(2.3)</text></g><g id="edge3" class="edge"><title>Node2_2-&gt;Node2_3</title><path fill="none" stroke="#000" d="M577,-133.27C577,-146.58 577,-162.19 577,-173.82"/><polygon fill="#000" stroke="#000" points="580.5 -133.2 577 -123.2 573.5 -133.2 580.5 -133.2"/><text x="641.5" y="-144.8" font-family="Times,serif" font-size="14" text-anchor="middle">कर्मधारयः</text></g><g id="node8" class="node"><title>Node3_1</title><ellipse cx="576" cy="-279" fill="#f9f" stroke="#f9f" rx="106.68" ry="18"/><text x="576" y="-275.3" font-family="Times,serif" font-size="14" text-anchor="middle">समीक्ष्य(3.1)</text></g><g id="edge4" class="edge"><title>Node2_3-&gt;Node3_1</title><path fill="none" stroke="#000" d="M576.68,-220.27C576.52,-233.58 576.34,-249.19 576.2,-260.82"/><polygon fill="#000" stroke="#000" points="580.18 -220.24 576.8 -210.2 573.18 -220.16 580.18 -220.24"/><text x="690.5" y="-231.8" font-family="Times,serif" font-size="14" text-anchor="middle">कर्मसमानाधिकरणम्</text></g><g id="edge5" class="edge"><title>Node3_1-&gt;Node9_1</title><path fill="none" stroke="#000" d="M576,-307.27C576,-320.58 576,-336.19 576,-347.82"/><polygon fill="#000" stroke="#000" points="579.5 -307.2 576 -297.2 572.5 -307.2 579.5 -307.2"/><text x="640.5" y="-318.8" font-family="Times,serif" font-size="14" text-anchor="middle">पूर्वकालः</text></g><g id="node9" class="node"><title>Node4_1</title><ellipse cx="828" cy="-192" fill="#93db70" stroke="#93db70" rx="106.68" ry="18"/><text x="828" y="-188.3" font-family="Times,serif" font-size="14" text-anchor="middle">आत्मानम्(4.1)</text></g><g id="edge6" class="edge"><title>Node4_1-&gt;Node3_1</title><path fill="none" stroke="#000" d="M821.86,-219.58C818.56,-228.29 813.55,-237.22 806,-243 804.44,-244.19 719.92,-256.85 653.79,-266.6"/><polygon fill="#000" stroke="#000" points="825.21 -220.59 824.91 -210 818.54 -218.47 825.21 -220.59"/><text x="846" y="-231.8" font-family="Times,serif" font-size="14" text-anchor="middle">कर्म</text></g><g id="node10" class="node"><title>Node6_1</title><ellipse cx="828" cy="-105" fill="#93db70" stroke="#93db70" rx="143.77" ry="18"/><text x="828" y="-101.3" font-family="Times,serif" font-size="14" text-anchor="middle">निरुन्धन्तम्(6.1)</text></g><g id="edge8" class="edge"><title>Node6_1-&gt;Node4_1</title><path fill="none" stroke="#000" d="M828,-133.27C828,-146.58 828,-162.19 828,-173.82"/><polygon fill="#000" stroke="#000" points="831.5 -133.2 828 -123.2 824.5 -133.2 831.5 -133.2"/><text x="878" y="-144.8" font-family="Times,serif" font-size="14" text-anchor="middle">उपमानम्</text></g><g id="node11" class="node"><title>Node7_1</title><ellipse cx="778" cy="-18" fill="#f9f" stroke="#f9f" rx="50.89" ry="18"/><text x="778" y="-14.3" font-family="Times,serif" font-size="14" text-anchor="middle">इव(7.1)</text></g><g id="edge9" class="edge"><title>Node7_1-&gt;Node6_1</title><path fill="none" stroke="#000" d="M774.12,-46.25C774.17,-53.97 775.38,-62.14 779,-69 782.85,-76.31 788.99,-82.43 795.64,-87.42"/><polygon fill="#000" stroke="#000" points="777.62 -46.33 774.66 -36.16 770.63 -45.96 777.62 -46.33"/><text x="868" y="-57.8" font-family="Times,serif" font-size="14" text-anchor="middle">उपमान_द्योतकः</text></g><g id="node12" class="node"><title>Node8_1</title><ellipse cx="979" cy="-18" fill="#93db70" stroke="#93db70" rx="87.99" ry="18"/><text x="979" y="-14.3" font-family="Times,serif" font-size="14" text-anchor="middle">आकाशम्(8.1)</text></g><g id="edge10" class="edge"><title>Node8_1-&gt;Node6_1</title><path fill="none" stroke="#000" d="M972.23,-45.77C968.89,-54.23 964.03,-62.95 957,-69 945.74,-78.69 932.05,-85.72 917.85,-90.82"/><polygon fill="#000" stroke="#000" points="975.6 -46.71 975.47 -36.11 968.97 -44.48 975.6 -46.71"/><text x="996" y="-57.8" font-family="Times,serif" font-size="14" text-anchor="middle">कर्म</text></g><g id="node13" class="node"><title>Node11_1</title><ellipse cx="785" cy="-279" fill="#93db70" stroke="#93db70" rx="84.49" ry="18"/><text x="785" y="-275.3" font-family="Times,serif" font-size="14" text-anchor="middle">मतिम्(11.1)</text></g><g id="edge12" class="edge"><title>Node11_1-&gt;Node9_1</title><path fill="none" stroke="#000" d="M755.38,-302.72C741.83,-312.25 725.21,-322.77 709,-330 684.25,-341.04 655.3,-349.17 630.75,-354.8"/><polygon fill="#000" stroke="#000" points="757.74 -305.34 763.81 -296.65 753.65 -299.66 757.74 -305.34"/><text x="764" y="-318.8" font-family="Times,serif" font-size="14" text-anchor="middle">कर्म</text></g></g></svg>