<svg xmlns="http://www.w3.org/2000/svg" xmlns:xlink="http://www.w3.org/1999/xlink" width="1804" height="544" viewBox="0 0 1353 408"><g id="graph0" class="graph" transform="scale(1 1) rotate(0) translate(4 404)"><title>G</title><polygon fill="#fffacd" stroke="transparent" points="-4 4 -4 -404 1349 -404 1349 4 -4 4"/><g id="clust1" class="cluster"><title>cluster_1</title><polygon fill="#fffacd" stroke="#000" points="8 -8 8 -147 449 -147 449 -8 8 -8"/></g><g id="clust2" class="cluster"><title>cluster_2</title><polygon fill="#fffacd" stroke="#000" points="649 -95 649 -234 1257 -234 1257 -95 649 -95"/></g><g id="node1" class="node"><title>Node1_1</title><ellipse cx="334" cy="-34" fill="#93db70" stroke="#93db70" rx="106.68" ry="18"/><text x="334" y="-30.3" font-family="Times,serif" font-size="14" text-anchor="middle">राक्षसम्(1.1)</text></g><g id="node2" class="node"><title>Node2_1</title><ellipse cx="326" cy="-121" fill="#93db70" stroke="#93db70" rx="78.79" ry="18"/><text x="326" y="-117.3" font-family="Times,serif" font-size="14" text-anchor="middle">रूपम्(2.1)</text></g><g id="edge1" class="edge"><title>Node1_1-&gt;Node2_1</title><path fill="none" stroke="#000" d="M331.43,-62.27C330.18,-75.58 328.71,-91.19 327.62,-102.82"/><polygon fill="#000" stroke="#000" points="334.93 -62.49 332.38 -52.2 327.96 -61.83 334.93 -62.49"/><text x="388.5" y="-73.8" font-family="Times,serif" font-size="14" text-anchor="middle">विशेषणम्</text></g><g id="node8" class="node"><title>Node3_1</title><ellipse cx="540" cy="-208" fill="#f9f" stroke="#f9f" rx="87.99" ry="18"/><text x="540" y="-204.3" font-family="Times,serif" font-size="14" text-anchor="middle">आस्थाय(3.1)</text></g><g id="edge2" class="edge"><title>Node2_1-&gt;Node3_1</title><path fill="none" stroke="#000" d="M373.22,-140.76C411.77,-156.07 465.57,-177.43 501.53,-191.72"/><polygon fill="#000" stroke="#000" points="374.35 -137.44 363.77 -137 371.77 -143.94 374.35 -137.44"/><text x="475" y="-160.8" font-family="Times,serif" font-size="14" text-anchor="middle">कर्म</text></g><g id="node3" class="node"><title>Node5_1</title><ellipse cx="113" cy="-34" fill="#93db70" stroke="#93db70" rx="96.68" ry="18"/><text x="113" y="-30.3" font-family="Times,serif" font-size="14" text-anchor="middle">सुघोरम्(5.1)</text></g><g id="edge4" class="edge"><title>Node5_1-&gt;Node2_1</title><path fill="none" stroke="#000" d="M150.52,-56.11C168.48,-65.7 190.49,-76.72 211,-85 232,-93.47 255.85,-101.05 276.37,-106.97"/><polygon fill="#000" stroke="#000" points="151.99 -52.93 141.53 -51.25 148.67 -59.09 151.99 -52.93"/><text x="268.5" y="-73.8" font-family="Times,serif" font-size="14" text-anchor="middle">विशेषणम्</text></g><g id="node4" class="node"><title>Node7_2</title><ellipse cx="968" cy="-121" fill="#93db70" stroke="#93db70" rx="87.99" ry="18"/><text x="968" y="-117.3" font-family="Times,serif" font-size="14" text-anchor="middle">करालम्(7.2)</text></g><g id="node5" class="node"><title>Node9_1</title><ellipse cx="848" cy="-208" fill="#93db70" stroke="#93db70" rx="106.68" ry="18"/><text x="848" y="-204.3" font-family="Times,serif" font-size="14" text-anchor="middle">वक्त्रम्(9.1)</text></g><g id="edge8" class="edge"><title>Node7_2-&gt;Node9_1</title><path fill="none" stroke="#000" d="M951.14,-147.1C944.4,-155.8 936.07,-165.1 927,-172 916.73,-179.81 904.45,-186.33 892.66,-191.53"/><polygon fill="#000" stroke="#000" points="953.97 -149.16 957.1 -139.04 948.34 -145 953.97 -149.16"/><text x="999.5" y="-160.8" font-family="Times,serif" font-size="14" text-anchor="middle">विशेषणम्</text></g><g id="node9" class="node"><title>Node10_1</title><ellipse cx="696" cy="-295" fill="#f9f" stroke="#f9f" rx="93.68" ry="18"/><text x="696" y="-291.3" font-family="Times,serif" font-size="14" text-anchor="middle">कृत्वा(10.1)</text></g><g id="edge11" class="edge"><title>Node9_1-&gt;Node10_1</title><path fill="none" stroke="#000" d="M809.75,-230.39C783.43,-245.11 749.01,-264.35 724.96,-277.81"/><polygon fill="#000" stroke="#000" points="811.67 -233.32 818.69 -225.39 808.26 -227.21 811.67 -233.32"/><text x="810" y="-247.8" font-family="Times,serif" font-size="14" text-anchor="middle">कर्म</text></g><g id="node6" class="node"><title>Node8_2</title><ellipse cx="1161" cy="-121" fill="#93db70" stroke="#93db70" rx="87.99" ry="18"/><text x="1161" y="-117.3" font-family="Times,serif" font-size="14" text-anchor="middle">अक्षम्(8.2)</text></g><g id="edge10" class="edge"><title>Node8_2-&gt;Node9_1</title><path fill="none" stroke="#000" d="M1124.97,-143.32C1106.43,-153.43 1083.12,-164.84 1061,-172 1021.61,-184.76 976.53,-193.03 938.03,-198.3"/><polygon fill="#000" stroke="#000" points="1126.9 -146.26 1133.93 -138.34 1123.49 -140.14 1126.9 -146.26"/><text x="1154.5" y="-160.8" font-family="Times,serif" font-size="14" text-anchor="middle">विशेषणम्</text></g><g id="node7" class="node"><title>Node11_2</title><ellipse cx="760" cy="-121" fill="#93db70" stroke="#93db70" rx="102.88" ry="18"/><text x="760" y="-117.3" font-family="Times,serif" font-size="14" text-anchor="middle">स्पृशम्(11.2)</text></g><g id="edge14" class="edge"><title>Node11_2-&gt;Node9_1</title><path fill="none" stroke="#000" d="M784.62,-145.78C799.16,-159.83 817.23,-177.28 830.35,-189.95"/><polygon fill="#000" stroke="#000" points="787.01 -143.22 777.39 -138.79 782.15 -148.26 787.01 -143.22"/><text x="866.5" y="-160.8" font-family="Times,serif" font-size="14" text-anchor="middle">विशेषणम्</text></g><g id="edge3" class="edge"><title>Node3_1-&gt;Node10_1</title><path fill="none" stroke="#000" d="M577.31,-230.3C593.19,-239.27 611.94,-249.75 629,-259 640.65,-265.32 653.54,-272.1 664.87,-277.99"/><polygon fill="#000" stroke="#000" points="578.76 -227.09 568.34 -225.21 575.31 -233.18 578.76 -227.09"/><text x="693.5" y="-247.8" font-family="Times,serif" font-size="14" text-anchor="middle">पूर्वकालः</text></g><g id="node14" class="node"><title>Node12_1</title><ellipse cx="807" cy="-382" fill="#ff1975" stroke="#ff1975" rx="72.59" ry="18"/><text x="807" y="-378.3" font-family="Times,serif" font-size="14" text-anchor="middle">(आचर)(12.1)</text></g><g id="edge12" class="edge"><title>Node10_1-&gt;Node12_1</title><path fill="none" stroke="#000" d="M710.18,-321.65C715.83,-330.19 722.91,-339.24 731,-346 741.37,-354.66 754.23,-361.65 766.41,-367.03"/><polygon fill="#000" stroke="#000" points="713.09 -319.69 704.85 -313.04 707.14 -323.38 713.09 -319.69"/><text x="795.5" y="-334.8" font-family="Times,serif" font-size="14" text-anchor="middle">पूर्वकालः</text></g><g id="node10" class="node"><title>Node6_1</title><ellipse cx="540" cy="-34" fill="#ff0" stroke="#ff0" rx="81.49" ry="18"/><text x="540" y="-30.3" font-family="Times,serif" font-size="14" text-anchor="middle">पर्वत-(6.1)</text></g><g id="node11" class="node"><title>Node6_2</title><ellipse cx="540" cy="-121" fill="#93db70" stroke="#93db70" rx="78.79" ry="18"/><text x="540" y="-117.3" font-family="Times,serif" font-size="14" text-anchor="middle">उपमम्(6.2)</text></g><g id="edge5" class="edge"><title>Node6_1-&gt;Node6_2</title><path fill="none" stroke="#000" d="M540,-62.27C540,-75.58 540,-91.19 540,-102.82"/><polygon fill="#000" stroke="#000" points="543.5 -62.2 540 -52.2 536.5 -62.2 543.5 -62.2"/><text x="636.5" y="-73.8" font-family="Times,serif" font-size="14" text-anchor="middle">षष्ठी_सम्बन्धः</text></g><g id="edge6" class="edge"><title>Node6_2-&gt;Node3_1</title><path fill="none" stroke="#000" d="M540,-149.27C540,-162.58 540,-178.19 540,-189.82"/><polygon fill="#000" stroke="#000" points="543.5 -149.2 540 -139.2 536.5 -149.2 543.5 -149.2"/><text x="576" y="-160.8" font-family="Times,serif" font-size="14" text-anchor="middle">कर्ता</text></g><g id="node12" class="node"><title>Node7_1</title><ellipse cx="972" cy="-34" fill="#ff0" stroke="#ff0" rx="109.38" ry="18"/><text x="972" y="-30.3" font-family="Times,serif" font-size="14" text-anchor="middle">दंष्ट्रा-(7.1)</text></g><g id="edge7" class="edge"><title>Node7_1-&gt;Node7_2</title><path fill="none" stroke="#000" d="M970.72,-62.27C970.09,-75.58 969.36,-91.19 968.81,-102.82"/><polygon fill="#000" stroke="#000" points="974.22 -62.35 971.19 -52.2 967.22 -62.03 974.22 -62.35"/><text x="1080.5" y="-73.8" font-family="Times,serif" font-size="14" text-anchor="middle">तृतीया_तत्पुरुषः</text></g><g id="node13" class="node"><title>Node8_1</title><ellipse cx="1216" cy="-34" fill="#ff0" stroke="#ff0" rx="81.49" ry="18"/><text x="1216" y="-30.3" font-family="Times,serif" font-size="14" text-anchor="middle">पिङ्ग-(8.1)</text></g><g id="edge9" class="edge"><title>Node8_1-&gt;Node8_2</title><path fill="none" stroke="#000" d="M1206.19,-61.83C1202.83,-69.59 1198.71,-77.89 1194,-85 1189.76,-91.4 1184.3,-97.73 1179.05,-103.2"/><polygon fill="#000" stroke="#000" points="1209.5 -62.99 1210.03 -52.41 1203.02 -60.35 1209.5 -62.99"/><text x="1273.5" y="-73.8" font-family="Times,serif" font-size="14" text-anchor="middle">बहुव्रीहिः</text></g><g id="node15" class="node"><title>Node11_1</title><ellipse cx="756" cy="-34" fill="#ff0" stroke="#ff0" rx="68.79" ry="18"/><text x="756" y="-30.3" font-family="Times,serif" font-size="14" text-anchor="middle">नभः-(11.1)</text></g><g id="edge13" class="edge"><title>Node11_1-&gt;Node11_2</title><path fill="none" stroke="#000" d="M757.28,-62.27C757.91,-75.58 758.64,-91.19 759.19,-102.82"/><polygon fill="#000" stroke="#000" points="760.78 -62.03 756.81 -52.2 753.78 -62.35 760.78 -62.03"/><text x="854.5" y="-73.8" font-family="Times,serif" font-size="14" text-anchor="middle">उपपद_तत्पुरुषः</text></g><g id="node16" class="node"><title>Node13_1</title><ellipse cx="917" cy="-295" fill="#93db70" stroke="#93db70" rx="109.68" ry="18"/><text x="917" y="-291.3" font-family="Times,serif" font-size="14" text-anchor="middle">(विघ्नम्)(13.1)</text></g><g id="edge15" class="edge"><title>Node13_1-&gt;Node12_1</title><path fill="none" stroke="#000" d="M893.28,-320.37C884.44,-328.9 874.1,-338.27 864,-346 854.96,-352.92 844.49,-359.67 835.01,-365.37"/><polygon fill="#000" stroke="#000" points="895.94 -322.66 900.61 -313.15 891.03 -317.67 895.94 -322.66"/><text x="909" y="-334.8" font-family="Times,serif" font-size="14" text-anchor="middle">कर्म</text></g></g></svg>