<?xml version="1.0" encoding="UTF-8" standalone="no"?>
<!DOCTYPE svg PUBLIC "-//W3C//DTD SVG 1.1//EN"
 "http://www.w3.org/Graphics/SVG/1.1/DTD/svg11.dtd">
<!-- Generated by graphviz version 2.43.0 (0)
 -->
<!-- Title: G Pages: 1 -->
<svg width="1435pt" height="305pt"
 viewBox="0.00 0.00 1435.24 305.00" xmlns="http://www.w3.org/2000/svg" xmlns:xlink="http://www.w3.org/1999/xlink">
<g id="graph0" class="graph" transform="scale(1 1) rotate(0) translate(4 301)">
<title>G</title>
<polygon fill="#fffacd" stroke="transparent" points="-4,4 -4,-301 1431.24,-301 1431.24,4 -4,4"/>
<!-- Node1_1 -->
<g id="node1" class="node">
<title>Node1_1</title>
<ellipse fill="#ff1975" stroke="#ff1975" cx="150.24" cy="-192" rx="87.99" ry="18"/>
<text text-anchor="middle" x="150.24" y="-188.3" font-family="Times,serif" font-size="14.00">त्वरते(1.1)</text>
</g>
<!-- Node2_1 -->
<g id="node2" class="node">
<title>Node2_1</title>
<ellipse fill="#ffff00" stroke="#ffff00" cx="81.24" cy="-18" rx="81.49" ry="18"/>
<text text-anchor="middle" x="81.24" y="-14.3" font-family="Times,serif" font-size="14.00">कार्य&#45;(2.1)</text>
</g>
<!-- Node2_2 -->
<g id="node3" class="node">
<title>Node2_2</title>
<ellipse fill="#00bfff" stroke="#00bfff" cx="81.24" cy="-105" rx="69.59" ry="18"/>
<text text-anchor="middle" x="81.24" y="-101.3" font-family="Times,serif" font-size="14.00">कालः(2.2)</text>
</g>
<!-- Node2_1&#45;&gt;Node2_2 -->
<g id="edge1" class="edge">
<title>Node2_1&#45;&gt;Node2_2</title>
<path fill="none" stroke="black" d="M81.24,-46.27C81.24,-59.58 81.24,-75.19 81.24,-86.82"/>
<polygon fill="black" stroke="black" points="84.74,-46.2 81.24,-36.2 77.74,-46.2 84.74,-46.2"/>
<text text-anchor="middle" x="184.74" y="-57.8" font-family="Times,serif" font-size="14.00">षष्ठी_तत्पुरुषः</text>
</g>
<!-- Node2_2&#45;&gt;Node1_1 -->
<g id="edge2" class="edge">
<title>Node2_2&#45;&gt;Node1_1</title>
<path fill="none" stroke="black" d="M101.18,-130.56C112.47,-144.47 126.3,-161.51 136.4,-173.95"/>
<polygon fill="black" stroke="black" points="103.89,-128.35 94.87,-122.79 98.46,-132.76 103.89,-128.35"/>
<text text-anchor="middle" x="156.24" y="-144.8" font-family="Times,serif" font-size="14.00">कर्ता</text>
</g>
<!-- Node3_1 -->
<g id="node4" class="node">
<title>Node3_1</title>
<ellipse fill="#87ceeb" stroke="#87ceeb" cx="219.24" cy="-105" rx="50.89" ry="18"/>
<text text-anchor="middle" x="219.24" y="-101.3" font-family="Times,serif" font-size="14.00">मे(3.1)</text>
</g>
<!-- Node3_1&#45;&gt;Node1_1 -->
<g id="edge3" class="edge">
<title>Node3_1&#45;&gt;Node1_1</title>
<path fill="none" stroke="black" d="M210,-132.35C206.44,-140.42 201.85,-149 196.24,-156 190.72,-162.89 183.56,-169.18 176.54,-174.47"/>
<polygon fill="black" stroke="black" points="213.32,-133.48 213.83,-122.9 206.83,-130.85 213.32,-133.48"/>
<text text-anchor="middle" x="298.24" y="-144.8" font-family="Times,serif" font-size="14.00">षष्ठीसम्बन्धः</text>
</g>
<!-- Node4_1 -->
<g id="node5" class="node">
<title>Node4_1</title>
<ellipse fill="#00bfff" stroke="#00bfff" cx="311.24" cy="-18" rx="59.59" ry="18"/>
<text text-anchor="middle" x="311.24" y="-14.3" font-family="Times,serif" font-size="14.00">अहः(4.1)</text>
</g>
<!-- Node5_1 -->
<g id="node6" class="node">
<title>Node5_1</title>
<ellipse fill="#ff1975" stroke="#ff1975" cx="436.24" cy="-105" rx="115.88" ry="18"/>
<text text-anchor="middle" x="436.24" y="-101.3" font-family="Times,serif" font-size="14.00">अतिवर्तते(5.1)</text>
</g>
<!-- Node4_1&#45;&gt;Node5_1 -->
<g id="edge4" class="edge">
<title>Node4_1&#45;&gt;Node5_1</title>
<path fill="none" stroke="black" d="M331.71,-43.34C339.95,-52.17 349.94,-61.75 360.24,-69 370.69,-76.36 382.94,-82.8 394.51,-88.07"/>
<polygon fill="black" stroke="black" points="334.25,-40.93 324.95,-35.85 329.05,-45.62 334.25,-40.93"/>
<text text-anchor="middle" x="396.24" y="-57.8" font-family="Times,serif" font-size="14.00">कर्ता</text>
</g>
<!-- Node6_1 -->
<g id="node7" class="node">
<title>Node6_1</title>
<ellipse fill="#00bfff" stroke="#00bfff" cx="756.24" cy="-192" rx="115.88" ry="18"/>
<text text-anchor="middle" x="756.24" y="-188.3" font-family="Times,serif" font-size="14.00">प्रतिज्ञा(6.1)</text>
</g>
<!-- Node9_1 -->
<g id="node8" class="node">
<title>Node9_1</title>
<ellipse fill="#00bfff" stroke="#00bfff" cx="803.24" cy="-279" rx="78.79" ry="18"/>
<text text-anchor="middle" x="803.24" y="-275.3" font-family="Times,serif" font-size="14.00">दत्ता(9.1)</text>
</g>
<!-- Node6_1&#45;&gt;Node9_1 -->
<g id="edge5" class="edge">
<title>Node6_1&#45;&gt;Node9_1</title>
<path fill="none" stroke="black" d="M770.7,-219.15C778.25,-232.81 787.28,-249.13 793.91,-261.11"/>
<polygon fill="black" stroke="black" points="773.66,-217.26 765.75,-210.2 767.53,-220.65 773.66,-217.26"/>
<text text-anchor="middle" x="819.24" y="-231.8" font-family="Times,serif" font-size="14.00">कर्ता</text>
</g>
<!-- Node7_1 -->
<g id="node9" class="node">
<title>Node7_1</title>
<ellipse fill="#ff99ff" stroke="#ff99ff" cx="712.24" cy="-18" rx="41.69" ry="18"/>
<text text-anchor="middle" x="712.24" y="-14.3" font-family="Times,serif" font-size="14.00">च(7.1)</text>
</g>
<!-- Node11_1 -->
<g id="node10" class="node">
<title>Node11_1</title>
<ellipse fill="#93db70" stroke="#93db70" cx="955.24" cy="-105" rx="130.78" ry="18"/>
<text text-anchor="middle" x="955.24" y="-101.3" font-family="Times,serif" font-size="14.00">स्थातव्यम्(11.1)</text>
</g>
<!-- Node7_1&#45;&gt;Node11_1 -->
<g id="edge6" class="edge">
<title>Node7_1&#45;&gt;Node11_1</title>
<path fill="none" stroke="black" d="M723.46,-45.12C728.55,-54.02 735.43,-63.19 744.24,-69 761.95,-80.68 805.88,-88.9 849.1,-94.43"/>
<polygon fill="black" stroke="black" points="726.5,-43.37 718.8,-36.09 720.27,-46.58 726.5,-43.37"/>
<text text-anchor="middle" x="801.74" y="-57.8" font-family="Times,serif" font-size="14.00">सम्बन्धः</text>
</g>
<!-- Node16_1 -->
<g id="node13" class="node">
<title>Node16_1</title>
<ellipse fill="#ff99ff" stroke="#ff99ff" cx="955.24" cy="-192" rx="65.79" ry="18"/>
<text text-anchor="middle" x="955.24" y="-188.3" font-family="Times,serif" font-size="14.00">इति(16.1)</text>
</g>
<!-- Node11_1&#45;&gt;Node16_1 -->
<g id="edge9" class="edge">
<title>Node11_1&#45;&gt;Node16_1</title>
<path fill="none" stroke="black" d="M955.24,-133.27C955.24,-146.58 955.24,-162.19 955.24,-173.82"/>
<polygon fill="black" stroke="black" points="958.74,-133.2 955.24,-123.2 951.74,-133.2 958.74,-133.2"/>
<text text-anchor="middle" x="1019.74" y="-144.8" font-family="Times,serif" font-size="14.00">वाक्यकर्म</text>
</g>
<!-- Node8_1 -->
<g id="node11" class="node">
<title>Node8_1</title>
<ellipse fill="#40e0d0" stroke="#40e0d0" cx="841.24" cy="-18" rx="59.59" ry="18"/>
<text text-anchor="middle" x="841.24" y="-14.3" font-family="Times,serif" font-size="14.00">मया(8.1)</text>
</g>
<!-- Node8_1&#45;&gt;Node11_1 -->
<g id="edge7" class="edge">
<title>Node8_1&#45;&gt;Node11_1</title>
<path fill="none" stroke="black" d="M856.46,-44.65C862.45,-53.19 869.89,-62.25 878.24,-69 887.6,-76.57 898.87,-82.89 909.86,-87.97"/>
<polygon fill="black" stroke="black" points="859.21,-42.46 850.78,-36.04 853.37,-46.32 859.21,-42.46"/>
<text text-anchor="middle" x="914.24" y="-57.8" font-family="Times,serif" font-size="14.00">कर्ता</text>
</g>
<!-- Node10_1 -->
<g id="node12" class="node">
<title>Node10_1</title>
<ellipse fill="#ff99ff" stroke="#ff99ff" cx="966.24" cy="-18" rx="47.39" ry="18"/>
<text text-anchor="middle" x="966.24" y="-14.3" font-family="Times,serif" font-size="14.00">न(10.1)</text>
</g>
<!-- Node10_1&#45;&gt;Node11_1 -->
<g id="edge8" class="edge">
<title>Node10_1&#45;&gt;Node11_1</title>
<path fill="none" stroke="black" d="M957.86,-45.69C957.21,-48.48 956.65,-51.28 956.24,-54 954.62,-64.82 954.35,-77.1 954.5,-86.78"/>
<polygon fill="black" stroke="black" points="961.27,-46.46 960.46,-35.9 954.51,-44.66 961.27,-46.46"/>
<text text-anchor="middle" x="1020.74" y="-57.8" font-family="Times,serif" font-size="14.00">प्रतिषेधः</text>
</g>
<!-- Node16_1&#45;&gt;Node9_1 -->
<g id="edge14" class="edge">
<title>Node16_1&#45;&gt;Node9_1</title>
<path fill="none" stroke="black" d="M918.67,-213.45C891.93,-228.41 856.18,-248.39 831.59,-262.15"/>
<polygon fill="black" stroke="black" points="920.7,-216.33 927.72,-208.39 917.28,-210.22 920.7,-216.33"/>
<text text-anchor="middle" x="1005.74" y="-231.8" font-family="Times,serif" font-size="14.00">वाक्यकर्म_द्योतकः</text>
</g>
<!-- Node12_1 -->
<g id="node14" class="node">
<title>Node12_1</title>
<ellipse fill="#ff99ff" stroke="#ff99ff" cx="1107.24" cy="-18" rx="56.59" ry="18"/>
<text text-anchor="middle" x="1107.24" y="-14.3" font-family="Times,serif" font-size="14.00">इह(12.1)</text>
</g>
<!-- Node12_1&#45;&gt;Node11_1 -->
<g id="edge10" class="edge">
<title>Node12_1&#45;&gt;Node11_1</title>
<path fill="none" stroke="black" d="M1100.48,-45.77C1097.14,-54.24 1092.28,-62.96 1085.24,-69 1073.36,-79.2 1058.8,-86.46 1043.76,-91.62"/>
<polygon fill="black" stroke="black" points="1103.85,-46.71 1103.72,-36.12 1097.22,-44.48 1103.85,-46.71"/>
<text text-anchor="middle" x="1173.74" y="-57.8" font-family="Times,serif" font-size="14.00">कालाधिकरणम्</text>
</g>
<!-- Node13_1 -->
<g id="node15" class="node">
<title>Node13_1</title>
<ellipse fill="#ff99ff" stroke="#ff99ff" cx="1287.24" cy="-18" rx="93.68" ry="18"/>
<text text-anchor="middle" x="1287.24" y="-14.3" font-family="Times,serif" font-size="14.00">अन्तरा(13.1)</text>
</g>
<!-- Node13_1&#45;&gt;Node11_1 -->
<g id="edge11" class="edge">
<title>Node13_1&#45;&gt;Node11_1</title>
<path fill="none" stroke="black" d="M1276.69,-45.34C1271.8,-54.27 1265.07,-63.39 1256.24,-69 1227.38,-87.33 1150.21,-96.07 1081.24,-100.23"/>
<polygon fill="black" stroke="black" points="1279.88,-46.78 1281.14,-36.26 1273.6,-43.7 1279.88,-46.78"/>
<text text-anchor="middle" x="1348.74" y="-57.8" font-family="Times,serif" font-size="14.00">देशाधिकरणम्</text>
</g>
<!-- Node14_1 -->
<g id="node16" class="node">
<title>Node14_1</title>
<ellipse fill="#ff99ff" stroke="#ff99ff" cx="436.24" cy="-18" rx="47.39" ry="18"/>
<text text-anchor="middle" x="436.24" y="-14.3" font-family="Times,serif" font-size="14.00">च(14.1)</text>
</g>
<!-- Node14_1&#45;&gt;Node5_1 -->
<g id="edge12" class="edge">
<title>Node14_1&#45;&gt;Node5_1</title>
<path fill="none" stroke="black" d="M436.24,-46.27C436.24,-59.58 436.24,-75.19 436.24,-86.82"/>
<polygon fill="black" stroke="black" points="439.74,-46.2 436.24,-36.2 432.74,-46.2 439.74,-46.2"/>
<text text-anchor="middle" x="493.74" y="-57.8" font-family="Times,serif" font-size="14.00">सम्बन्धः</text>
</g>
<!-- Node15_1 -->
<g id="node17" class="node">
<title>Node15_1</title>
<ellipse fill="#ff99ff" stroke="#ff99ff" cx="574.24" cy="-18" rx="65.79" ry="18"/>
<text text-anchor="middle" x="574.24" y="-14.3" font-family="Times,serif" font-size="14.00">अपि(15.1)</text>
</g>
<!-- Node15_1&#45;&gt;Node5_1 -->
<g id="edge13" class="edge">
<title>Node15_1&#45;&gt;Node5_1</title>
<path fill="none" stroke="black" d="M567.37,-45.65C564.03,-54.11 559.18,-62.85 552.24,-69 540.9,-79.04 526.77,-86.2 512.3,-91.31"/>
<polygon fill="black" stroke="black" points="570.74,-46.62 570.64,-36.02 564.11,-44.37 570.74,-46.62"/>
<text text-anchor="middle" x="620.74" y="-57.8" font-family="Times,serif" font-size="14.00">सम्बन्धः</text>
</g>
</g>
</svg>
