<?xml version="1.0" encoding="UTF-8" standalone="no"?>
<!DOCTYPE svg PUBLIC "-//W3C//DTD SVG 1.1//EN"
 "http://www.w3.org/Graphics/SVG/1.1/DTD/svg11.dtd">
<!-- Generated by graphviz version 2.43.0 (0)
 -->
<!-- Title: G Pages: 1 -->
<svg width="1310pt" height="392pt"
 viewBox="0.00 0.00 1310.00 392.00" xmlns="http://www.w3.org/2000/svg" xmlns:xlink="http://www.w3.org/1999/xlink">
<g id="graph0" class="graph" transform="scale(1 1) rotate(0) translate(4 388)">
<title>G</title>
<polygon fill="#fffacd" stroke="transparent" points="-4,4 -4,-388 1306,-388 1306,4 -4,4"/>
<g id="clust1" class="cluster">
<title>cluster_1</title>
<polygon fill="#fffacd" stroke="black" points="598,-166 598,-305 1095,-305 1095,-166 598,-166"/>
</g>
<g id="clust2" class="cluster">
<title>cluster_2</title>
<polygon fill="#fffacd" stroke="black" points="8,-166 8,-305 274,-305 274,-166 8,-166"/>
</g>
<g id="clust3" class="cluster">
<title>cluster_3</title>
<polygon fill="#fffacd" stroke="black" points="282,-79 282,-218 474,-218 474,-79 282,-79"/>
</g>
<!-- Node1_1 -->
<g id="node1" class="node">
<title>Node1_1</title>
<ellipse fill="#00bfff" stroke="#00bfff" cx="750" cy="-192" rx="143.77" ry="18"/>
<text text-anchor="middle" x="750" y="-188.3" font-family="Times,serif" font-size="14.00">प्रदृश्यमानः(1.1)</text>
</g>
<!-- Node3_1 -->
<g id="node2" class="node">
<title>Node3_1</title>
<ellipse fill="#00bfff" stroke="#00bfff" cx="726" cy="-279" rx="96.68" ry="18"/>
<text text-anchor="middle" x="726" y="-275.3" font-family="Times,serif" font-size="14.00">हनूमान्(3.1)</text>
</g>
<!-- Node1_1&#45;&gt;Node3_1 -->
<g id="edge1" class="edge">
<title>Node1_1&#45;&gt;Node3_1</title>
<path fill="none" stroke="black" d="M742.41,-219.87C738.63,-233.27 734.17,-249.08 730.85,-260.82"/>
<polygon fill="black" stroke="black" points="745.79,-220.78 745.14,-210.2 739.06,-218.87 745.79,-220.78"/>
<text text-anchor="middle" x="797.5" y="-231.8" font-family="Times,serif" font-size="14.00">विशेषणम्</text>
</g>
<!-- Node5_1 -->
<g id="node9" class="node">
<title>Node5_1</title>
<ellipse fill="#ff1975" stroke="#ff1975" cx="506" cy="-366" rx="69.59" ry="18"/>
<text text-anchor="middle" x="506" y="-362.3" font-family="Times,serif" font-size="14.00">भेजे(5.1)</text>
</g>
<!-- Node3_1&#45;&gt;Node5_1 -->
<g id="edge3" class="edge">
<title>Node3_1&#45;&gt;Node5_1</title>
<path fill="none" stroke="black" d="M676.51,-299.12C636.12,-314.73 579.91,-336.44 543.25,-350.61"/>
<polygon fill="black" stroke="black" points="677.84,-302.36 685.9,-295.49 675.32,-295.83 677.84,-302.36"/>
<text text-anchor="middle" x="666" y="-318.8" font-family="Times,serif" font-size="14.00">कर्ता</text>
</g>
<!-- Node4_2 -->
<g id="node3" class="node">
<title>Node4_2</title>
<ellipse fill="#00bfff" stroke="#00bfff" cx="999" cy="-192" rx="87.99" ry="18"/>
<text text-anchor="middle" x="999" y="-188.3" font-family="Times,serif" font-size="14.00">आत्मजः(4.2)</text>
</g>
<!-- Node4_2&#45;&gt;Node3_1 -->
<g id="edge5" class="edge">
<title>Node4_2&#45;&gt;Node3_1</title>
<path fill="none" stroke="black" d="M949.97,-211.67C923.26,-221.55 889.52,-233.55 859,-243 834.02,-250.73 806.08,-258.25 782.28,-264.33"/>
<polygon fill="black" stroke="black" points="951.32,-214.9 959.48,-208.14 948.88,-208.34 951.32,-214.9"/>
<text text-anchor="middle" x="959.5" y="-231.8" font-family="Times,serif" font-size="14.00">विशेषणम्</text>
</g>
<!-- Node7_1 -->
<g id="node4" class="node">
<title>Node7_1</title>
<ellipse fill="#93db70" stroke="#93db70" cx="141" cy="-192" rx="124.58" ry="18"/>
<text text-anchor="middle" x="141" y="-188.3" font-family="Times,serif" font-size="14.00">निरालम्बम्(7.1)</text>
</g>
<!-- Node6_1 -->
<g id="node5" class="node">
<title>Node6_1</title>
<ellipse fill="#93db70" stroke="#93db70" cx="160" cy="-279" rx="96.68" ry="18"/>
<text text-anchor="middle" x="160" y="-275.3" font-family="Times,serif" font-size="14.00">अम्बरम्(6.1)</text>
</g>
<!-- Node7_1&#45;&gt;Node6_1 -->
<g id="edge7" class="edge">
<title>Node7_1&#45;&gt;Node6_1</title>
<path fill="none" stroke="black" d="M147.09,-220.27C150.07,-233.58 153.56,-249.19 156.16,-260.82"/>
<polygon fill="black" stroke="black" points="150.44,-219.2 144.84,-210.2 143.61,-220.72 150.44,-219.2"/>
<text text-anchor="middle" x="209.5" y="-231.8" font-family="Times,serif" font-size="14.00">विशेषणम्</text>
</g>
<!-- Node6_1&#45;&gt;Node5_1 -->
<g id="edge6" class="edge">
<title>Node6_1&#45;&gt;Node5_1</title>
<path fill="none" stroke="black" d="M226.09,-296.23C293.64,-312.83 396.97,-338.21 457.37,-353.05"/>
<polygon fill="black" stroke="black" points="226.52,-292.74 215.98,-293.75 224.85,-299.54 226.52,-292.74"/>
<text text-anchor="middle" x="383" y="-318.8" font-family="Times,serif" font-size="14.00">कर्म</text>
</g>
<!-- Node8_2 -->
<g id="node6" class="node">
<title>Node8_2</title>
<ellipse fill="#00bfff" stroke="#00bfff" cx="378" cy="-105" rx="87.99" ry="18"/>
<text text-anchor="middle" x="378" y="-101.3" font-family="Times,serif" font-size="14.00">युक्तः(8.2)</text>
</g>
<!-- Node10_2 -->
<g id="node7" class="node">
<title>Node10_2</title>
<ellipse fill="#00bfff" stroke="#00bfff" cx="391" cy="-192" rx="75.29" ry="18"/>
<text text-anchor="middle" x="391" y="-188.3" font-family="Times,serif" font-size="14.00">राट्(10.2)</text>
</g>
<!-- Node8_2&#45;&gt;Node10_2 -->
<g id="edge9" class="edge">
<title>Node8_2&#45;&gt;Node10_2</title>
<path fill="none" stroke="black" d="M355.08,-131.26C350.64,-139.1 348.35,-147.82 352,-156 355.19,-163.14 360.64,-169.44 366.46,-174.65"/>
<polygon fill="black" stroke="black" points="358.06,-133.11 360.81,-122.88 352.28,-129.16 358.06,-133.11"/>
<text text-anchor="middle" x="409.5" y="-144.8" font-family="Times,serif" font-size="14.00">विशेषणम्</text>
</g>
<!-- Node10_2&#45;&gt;Node3_1 -->
<g id="edge12" class="edge">
<title>Node10_2&#45;&gt;Node3_1</title>
<path fill="none" stroke="black" d="M450.51,-208.1C513.02,-223.96 610.52,-248.7 671.2,-264.1"/>
<polygon fill="black" stroke="black" points="451.34,-204.7 440.79,-205.63 449.62,-211.49 451.34,-204.7"/>
<text text-anchor="middle" x="629" y="-231.8" font-family="Times,serif" font-size="14.00">उपमानम्</text>
</g>
<!-- Node2_1 -->
<g id="node8" class="node">
<title>Node2_1</title>
<ellipse fill="#ff99ff" stroke="#ff99ff" cx="920" cy="-105" rx="96.68" ry="18"/>
<text text-anchor="middle" x="920" y="-101.3" font-family="Times,serif" font-size="14.00">सर्वत्र(2.1)</text>
</g>
<!-- Node2_1&#45;&gt;Node1_1 -->
<g id="edge2" class="edge">
<title>Node2_1&#45;&gt;Node1_1</title>
<path fill="none" stroke="black" d="M913.34,-132.9C910.02,-141.38 905.12,-150.07 898,-156 885.22,-166.64 869.76,-174.17 853.72,-179.46"/>
<polygon fill="black" stroke="black" points="916.72,-133.81 916.56,-123.22 910.08,-131.6 916.72,-133.81"/>
<text text-anchor="middle" x="987.5" y="-144.8" font-family="Times,serif" font-size="14.00">देशाधिकरणम्</text>
</g>
<!-- Node4_1 -->
<g id="node10" class="node">
<title>Node4_1</title>
<ellipse fill="#ffff00" stroke="#ffff00" cx="1116" cy="-105" rx="81.49" ry="18"/>
<text text-anchor="middle" x="1116" y="-101.3" font-family="Times,serif" font-size="14.00">मारुत&#45;(4.1)</text>
</g>
<!-- Node4_1&#45;&gt;Node4_2 -->
<g id="edge4" class="edge">
<title>Node4_1&#45;&gt;Node4_2</title>
<path fill="none" stroke="black" d="M1101.92,-131.78C1096.29,-140.33 1089.18,-149.36 1081,-156 1070.42,-164.58 1057.43,-171.4 1044.93,-176.65"/>
<polygon fill="black" stroke="black" points="1104.97,-133.5 1107.24,-123.15 1099.01,-129.82 1104.97,-133.5"/>
<text text-anchor="middle" x="1198.5" y="-144.8" font-family="Times,serif" font-size="14.00">षष्ठी_तत्पुरुषः</text>
</g>
<!-- Node8_1 -->
<g id="node11" class="node">
<title>Node8_1</title>
<ellipse fill="#ffff00" stroke="#ffff00" cx="378" cy="-18" rx="72.29" ry="18"/>
<text text-anchor="middle" x="378" y="-14.3" font-family="Times,serif" font-size="14.00">पक्ष&#45;(8.1)</text>
</g>
<!-- Node8_1&#45;&gt;Node8_2 -->
<g id="edge8" class="edge">
<title>Node8_1&#45;&gt;Node8_2</title>
<path fill="none" stroke="black" d="M378,-46.27C378,-59.58 378,-75.19 378,-86.82"/>
<polygon fill="black" stroke="black" points="381.5,-46.2 378,-36.2 374.5,-46.2 381.5,-46.2"/>
<text text-anchor="middle" x="488.5" y="-57.8" font-family="Times,serif" font-size="14.00">तृतीया_तत्पुरुषः</text>
</g>
<!-- Node9_1 -->
<g id="node12" class="node">
<title>Node9_1</title>
<ellipse fill="#ff99ff" stroke="#ff99ff" cx="534" cy="-105" rx="50.89" ry="18"/>
<text text-anchor="middle" x="534" y="-101.3" font-family="Times,serif" font-size="14.00">इव(9.1)</text>
</g>
<!-- Node9_1&#45;&gt;Node10_2 -->
<g id="edge10" class="edge">
<title>Node9_1&#45;&gt;Node10_2</title>
<path fill="none" stroke="black" d="M506.95,-128.22C495.09,-137.42 480.75,-147.82 467,-156 454.51,-163.42 440.19,-170.39 427.36,-176.12"/>
<polygon fill="black" stroke="black" points="509.42,-130.72 515.11,-121.78 505.09,-125.23 509.42,-130.72"/>
<text text-anchor="middle" x="578" y="-144.8" font-family="Times,serif" font-size="14.00">उपमान_द्योतकः</text>
</g>
<!-- Node10_1 -->
<g id="node13" class="node">
<title>Node10_1</title>
<ellipse fill="#ffff00" stroke="#ffff00" cx="690" cy="-105" rx="87.18" ry="18"/>
<text text-anchor="middle" x="690" y="-101.3" font-family="Times,serif" font-size="14.00">अद्रि&#45;(10.1)</text>
</g>
<!-- Node10_1&#45;&gt;Node10_2 -->
<g id="edge11" class="edge">
<title>Node10_1&#45;&gt;Node10_2</title>
<path fill="none" stroke="black" d="M683.94,-132.69C680.65,-141.41 675.62,-150.31 668,-156 666.94,-156.79 537.89,-172.86 456.33,-182.94"/>
<polygon fill="black" stroke="black" points="687.3,-133.68 686.97,-123.09 680.62,-131.57 687.3,-133.68"/>
<text text-anchor="middle" x="783.5" y="-144.8" font-family="Times,serif" font-size="14.00">षष्ठी_तत्पुरुषः</text>
</g>
</g>
</svg>
