<svg xmlns="http://www.w3.org/2000/svg" xmlns:xlink="http://www.w3.org/1999/xlink" width="1219pt" height="305pt" viewBox="0 0 1219 305"><g id="graph0" class="graph" transform="scale(1 1) rotate(0) translate(4 301)"><title>G</title><polygon fill="#fffacd" stroke="transparent" points="-4 4 -4 -301 1215 -301 1215 4 -4 4"/><g id="clust1" class="cluster"><title>cluster_1</title><polygon fill="#fffacd" stroke="#000" points="818 -79 818 -218 1203 -218 1203 -79 818 -79"/></g><g id="clust2" class="cluster"><title>cluster_2</title><polygon fill="#fffacd" stroke="#000" points="8 -79 8 -218 218 -218 218 -79 8 -79"/></g><g id="clust3" class="cluster"><title>cluster_3</title><polygon fill="#fffacd" stroke="#000" points="226 -79 226 -218 474 -218 474 -79 226 -79"/></g><g id="node1" class="node"><title>Node3_1</title><ellipse cx="1107" cy="-105" fill="#00bfff" stroke="#00bfff" rx="87.99" ry="18"/><text x="1107" y="-101.3" font-family="Times,serif" font-size="14" text-anchor="middle">धीमान्(3.1)</text></g><g id="node2" class="node"><title>Node10_2</title><ellipse cx="908" cy="-192" fill="#00bfff" stroke="#00bfff" rx="75.29" ry="18"/><text x="908" y="-188.3" font-family="Times,serif" font-size="14" text-anchor="middle">पतिः(10.2)</text></g><g id="edge2" class="edge"><title>Node3_1-&gt;Node10_2</title><path fill="none" stroke="#000" d="M1076.88,-128.54C1063.13,-138.03 1046.3,-148.57 1030,-156 1008.45,-165.82 983.48,-173.57 961.77,-179.25"/><polygon fill="#000" stroke="#000" points="1079.28 -131.12 1085.43 -122.5 1075.25 -125.41 1079.28 -131.12"/><text x="1113.5" y="-144.8" font-family="Times,serif" font-size="14" text-anchor="middle">विशेषणम्</text></g><g id="node8" class="node"><title>Node1_1</title><ellipse cx="536" cy="-279" fill="#ff1975" stroke="#ff1975" rx="69.59" ry="18"/><text x="536" y="-275.3" font-family="Times,serif" font-size="14" text-anchor="middle">उवाच(1.1)</text></g><g id="edge13" class="edge"><title>Node10_2-&gt;Node1_1</title><path fill="none" stroke="#000" d="M845.53,-207.27C772.68,-223.92 653.71,-251.1 586.46,-266.47"/><polygon fill="#000" stroke="#000" points="846.52 -210.64 855.49 -205 844.96 -203.81 846.52 -210.64"/><text x="780" y="-231.8" font-family="Times,serif" font-size="14" text-anchor="middle">कर्ता</text></g><g id="node3" class="node"><title>Node8_1</title><ellipse cx="914" cy="-105" fill="#f9f" stroke="#f9f" rx="87.99" ry="18"/><text x="914" y="-101.3" font-family="Times,serif" font-size="14" text-anchor="middle">स्वयम्(8.1)</text></g><g id="edge10" class="edge"><title>Node8_1-&gt;Node10_2</title><path fill="none" stroke="#000" d="M912.08,-133.27C911.14,-146.58 910.03,-162.19 909.21,-173.82"/><polygon fill="#000" stroke="#000" points="915.57 -133.42 912.79 -123.2 908.59 -132.93 915.57 -133.42"/><text x="968.5" y="-144.8" font-family="Times,serif" font-size="14" text-anchor="middle">विशेषणम्</text></g><g id="node4" class="node"><title>Node5_2</title><ellipse cx="113" cy="-105" fill="#93db70" stroke="#93db70" rx="96.68" ry="18"/><text x="113" y="-101.3" font-family="Times,serif" font-size="14" text-anchor="middle">गद्गदम्(5.2)</text></g><g id="node5" class="node"><title>Node2_1</title><ellipse cx="113" cy="-192" fill="#93db70" stroke="#93db70" rx="78.79" ry="18"/><text x="113" y="-188.3" font-family="Times,serif" font-size="14" text-anchor="middle">वचनम्(2.1)</text></g><g id="edge5" class="edge"><title>Node5_2-&gt;Node2_1</title><path fill="none" stroke="#000" d="M107.72,-133.05C106.83,-140.47 106.37,-148.54 107,-156 107.5,-161.9 108.47,-168.29 109.49,-173.98"/><polygon fill="#000" stroke="#000" points="111.19 -133.5 109.21 -123.09 104.27 -132.47 111.19 -133.5"/><text x="164.5" y="-144.8" font-family="Times,serif" font-size="14" text-anchor="middle">विशेषणम्</text></g><g id="edge1" class="edge"><title>Node2_1-&gt;Node1_1</title><path fill="none" stroke="#000" d="M175.41,-207.73C190.63,-211.21 206.88,-214.82 222,-218 312.3,-236.98 417.74,-256.61 480.57,-268.04"/><polygon fill="#000" stroke="#000" points="176.11 -204.3 165.58 -205.47 174.55 -211.12 176.11 -204.3"/><text x="372" y="-231.8" font-family="Times,serif" font-size="14" text-anchor="middle">कर्म</text></g><g id="node6" class="node"><title>Node7_2</title><ellipse cx="350" cy="-105" fill="#93db70" stroke="#93db70" rx="115.88" ry="18"/><text x="350" y="-101.3" font-family="Times,serif" font-size="14" text-anchor="middle">श्रेष्ठम्(7.2)</text></g><g id="node7" class="node"><title>Node6_2</title><ellipse cx="386" cy="-192" fill="#93db70" stroke="#93db70" rx="78.79" ry="18"/><text x="386" y="-188.3" font-family="Times,serif" font-size="14" text-anchor="middle">नाभम्(6.2)</text></g><g id="edge9" class="edge"><title>Node7_2-&gt;Node6_2</title><path fill="none" stroke="#000" d="M361.21,-132.48C366.92,-145.96 373.7,-161.96 378.73,-173.82"/><polygon fill="#000" stroke="#000" points="364.41 -131.04 357.29 -123.2 357.96 -133.77 364.41 -131.04"/><text x="428.5" y="-144.8" font-family="Times,serif" font-size="14" text-anchor="middle">विशेषणम्</text></g><g id="edge7" class="edge"><title>Node6_2-&gt;Node1_1</title><path fill="none" stroke="#000" d="M416.19,-215.42C429.05,-224.51 444.43,-234.78 459,-243 472.17,-250.43 487.21,-257.55 500.48,-263.4"/><polygon fill="#000" stroke="#000" points="417.89 -212.33 407.72 -209.35 413.81 -218.02 417.89 -212.33"/><text x="509" y="-231.8" font-family="Times,serif" font-size="14" text-anchor="middle">गौणकर्म</text></g><g id="node9" class="node"><title>Node4_1</title><ellipse cx="598" cy="-192" fill="#b4ffb4" stroke="#b4ffb4" rx="115.88" ry="18"/><text x="598" y="-188.3" font-family="Times,serif" font-size="14" text-anchor="middle">परितोषात्(4.1)</text></g><g id="edge3" class="edge"><title>Node4_1-&gt;Node1_1</title><path fill="none" stroke="#000" d="M579.5,-218.36C569.42,-232.18 557.23,-248.9 548.32,-261.11"/><polygon fill="#000" stroke="#000" points="582.39 -220.34 585.45 -210.2 576.73 -216.22 582.39 -220.34"/><text x="610.5" y="-231.8" font-family="Times,serif" font-size="14" text-anchor="middle">हेतुः5</text></g><g id="node10" class="node"><title>Node5_1</title><ellipse cx="113" cy="-18" fill="#ff0" stroke="#ff0" rx="41.69" ry="18"/><text x="113" y="-14.3" font-family="Times,serif" font-size="14" text-anchor="middle">स(5.1)</text></g><g id="edge4" class="edge"><title>Node5_1-&gt;Node5_2</title><path fill="none" stroke="#000" d="M113,-46.27C113,-59.58 113,-75.19 113,-86.82"/><polygon fill="#000" stroke="#000" points="116.5 -46.2 113 -36.2 109.5 -46.2 116.5 -46.2"/><text x="184.5" y="-57.8" font-family="Times,serif" font-size="14" text-anchor="middle">बहुव्रीहिः</text></g><g id="node11" class="node"><title>Node6_1</title><ellipse cx="538" cy="-105" fill="#ff0" stroke="#ff0" rx="53.89" ry="18"/><text x="538" y="-101.3" font-family="Times,serif" font-size="14" text-anchor="middle">सु-(6.1)</text></g><g id="edge6" class="edge"><title>Node6_1-&gt;Node6_2</title><path fill="none" stroke="#000" d="M518.78,-130.55C510.7,-139.57 500.69,-149.22 490,-156 474.48,-165.85 455.88,-173.24 438.73,-178.64"/><polygon fill="#000" stroke="#000" points="521.51 -132.75 525.36 -122.88 516.19 -128.2 521.51 -132.75"/><text x="578.5" y="-144.8" font-family="Times,serif" font-size="14" text-anchor="middle">बहुव्रीहिः</text></g><g id="node12" class="node"><title>Node7_1</title><ellipse cx="350" cy="-18" fill="#ff0" stroke="#ff0" rx="81.49" ry="18"/><text x="350" y="-14.3" font-family="Times,serif" font-size="14" text-anchor="middle">पर्वत-(7.1)</text></g><g id="edge8" class="edge"><title>Node7_1-&gt;Node7_2</title><path fill="none" stroke="#000" d="M350,-46.27C350,-59.58 350,-75.19 350,-86.82"/><polygon fill="#000" stroke="#000" points="353.5 -46.2 350 -36.2 346.5 -46.2 353.5 -46.2"/><text x="460.5" y="-57.8" font-family="Times,serif" font-size="14" text-anchor="middle">सप्तमी_तत्पुरुषः</text></g><g id="node13" class="node"><title>Node9_1</title><ellipse cx="914" cy="-18" fill="#f9f" stroke="#f9f" rx="50.89" ry="18"/><text x="914" y="-14.3" font-family="Times,serif" font-size="14" text-anchor="middle">एव(9.1)</text></g><g id="edge11" class="edge"><title>Node9_1-&gt;Node8_1</title><path fill="none" stroke="#000" d="M914,-46.27C914,-59.58 914,-75.19 914,-86.82"/><polygon fill="#000" stroke="#000" points="917.5 -46.2 914 -36.2 910.5 -46.2 917.5 -46.2"/><text x="971.5" y="-57.8" font-family="Times,serif" font-size="14" text-anchor="middle">सम्बन्धः</text></g><g id="node14" class="node"><title>Node10_1</title><ellipse cx="691" cy="-105" fill="#ff0" stroke="#ff0" rx="68.79" ry="18"/><text x="691" y="-101.3" font-family="Times,serif" font-size="14" text-anchor="middle">शची-(10.1)</text></g><g id="edge12" class="edge"><title>Node10_1-&gt;Node10_2</title><path fill="none" stroke="#000" d="M689.51,-133.26C690.46,-141.55 693.08,-150.03 699,-156 717.79,-174.93 782.35,-183.64 834.79,-187.64"/><polygon fill="#000" stroke="#000" points="693 -132.91 689.07 -123.07 686.01 -133.21 693 -132.91"/><text x="802.5" y="-144.8" font-family="Times,serif" font-size="14" text-anchor="middle">षष्ठी_तत्पुरुषः</text></g></g></svg>