<?xml version="1.0" encoding="UTF-8" standalone="no"?>
<!DOCTYPE svg PUBLIC "-//W3C//DTD SVG 1.1//EN"
 "http://www.w3.org/Graphics/SVG/1.1/DTD/svg11.dtd">
<!-- Generated by graphviz version 2.43.0 (0)
 -->
<!-- Title: G Pages: 1 -->
<svg width="1708pt" height="408pt"
 viewBox="0.00 0.00 1708.19 408.00" xmlns="http://www.w3.org/2000/svg" xmlns:xlink="http://www.w3.org/1999/xlink">
<g id="graph0" class="graph" transform="scale(1 1) rotate(0) translate(4 404)">
<title>G</title>
<polygon fill="#fffacd" stroke="transparent" points="-4,4 -4,-404 1704.19,-404 1704.19,4 -4,4"/>
<g id="clust1" class="cluster">
<title>cluster_1</title>
<polygon fill="#fffacd" stroke="black" points="228.19,-95 228.19,-234 402.19,-234 402.19,-95 228.19,-95"/>
</g>
<g id="clust2" class="cluster">
<title>cluster_2</title>
<polygon fill="#fffacd" stroke="black" points="421.19,-182 421.19,-321 769.19,-321 769.19,-182 421.19,-182"/>
</g>
<g id="clust3" class="cluster">
<title>cluster_3</title>
<polygon fill="#fffacd" stroke="black" points="777.19,-8 777.19,-234 1260.19,-234 1260.19,-8 777.19,-8"/>
</g>
<!-- Node2_1 -->
<g id="node1" class="node">
<title>Node2_1</title>
<ellipse fill="#00bfff" stroke="#00bfff" cx="315.19" cy="-121" rx="78.79" ry="18"/>
<text text-anchor="middle" x="315.19" y="-117.3" font-family="Times,serif" font-size="14.00">उक्तः(2.1)</text>
</g>
<!-- Node4_2 -->
<g id="node2" class="node">
<title>Node4_2</title>
<ellipse fill="#00bfff" stroke="#00bfff" cx="306.19" cy="-208" rx="69.59" ry="18"/>
<text text-anchor="middle" x="306.19" y="-204.3" font-family="Times,serif" font-size="14.00">वदनः(4.2)</text>
</g>
<!-- Node2_1&#45;&gt;Node4_2 -->
<g id="edge2" class="edge">
<title>Node2_1&#45;&gt;Node4_2</title>
<path fill="none" stroke="black" d="M312.3,-149.27C310.89,-162.58 309.24,-178.19 308.01,-189.82"/>
<polygon fill="black" stroke="black" points="315.8,-149.51 313.37,-139.2 308.84,-148.78 315.8,-149.51"/>
<text text-anchor="middle" x="368.69" y="-160.8" font-family="Times,serif" font-size="14.00">विशेषणम्</text>
</g>
<!-- Node5_1 -->
<g id="node13" class="node">
<title>Node5_1</title>
<ellipse fill="#ff1975" stroke="#ff1975" cx="306.19" cy="-295" rx="106.68" ry="18"/>
<text text-anchor="middle" x="306.19" y="-291.3" font-family="Times,serif" font-size="14.00">अब्रवीत्(5.1)</text>
</g>
<!-- Node4_2&#45;&gt;Node5_1 -->
<g id="edge5" class="edge">
<title>Node4_2&#45;&gt;Node5_1</title>
<path fill="none" stroke="black" d="M306.19,-236.27C306.19,-249.58 306.19,-265.19 306.19,-276.82"/>
<polygon fill="black" stroke="black" points="309.69,-236.2 306.19,-226.2 302.69,-236.2 309.69,-236.2"/>
<text text-anchor="middle" x="342.19" y="-247.8" font-family="Times,serif" font-size="14.00">कर्ता</text>
</g>
<!-- Node7_1 -->
<g id="node3" class="node">
<title>Node7_1</title>
<ellipse fill="#00bfff" stroke="#00bfff" cx="664.19" cy="-208" rx="96.68" ry="18"/>
<text text-anchor="middle" x="664.19" y="-204.3" font-family="Times,serif" font-size="14.00">दाशरथिः(7.1)</text>
</g>
<!-- Node6_1 -->
<g id="node4" class="node">
<title>Node6_1</title>
<ellipse fill="#00bfff" stroke="#00bfff" cx="668.19" cy="-295" rx="69.59" ry="18"/>
<text text-anchor="middle" x="668.19" y="-291.3" font-family="Times,serif" font-size="14.00">रामः(6.1)</text>
</g>
<!-- Node7_1&#45;&gt;Node6_1 -->
<g id="edge7" class="edge">
<title>Node7_1&#45;&gt;Node6_1</title>
<path fill="none" stroke="black" d="M665.47,-236.27C666.1,-249.58 666.83,-265.19 667.38,-276.82"/>
<polygon fill="black" stroke="black" points="668.97,-236.03 665,-226.2 661.97,-236.35 668.97,-236.03"/>
<text text-anchor="middle" x="723.69" y="-247.8" font-family="Times,serif" font-size="14.00">विशेषणम्</text>
</g>
<!-- Node9_1 -->
<g id="node14" class="node">
<title>Node9_1</title>
<ellipse fill="#00bfff" stroke="#00bfff" cx="1027.19" cy="-382" rx="115.88" ry="18"/>
<text text-anchor="middle" x="1027.19" y="-378.3" font-family="Times,serif" font-size="14.00">प्रविष्टः(9.1)</text>
</g>
<!-- Node6_1&#45;&gt;Node9_1 -->
<g id="edge6" class="edge">
<title>Node6_1&#45;&gt;Node9_1</title>
<path fill="none" stroke="black" d="M727.58,-310.06C793.66,-325.71 899.87,-350.85 966.48,-366.62"/>
<polygon fill="black" stroke="black" points="728.27,-306.63 717.73,-307.73 726.66,-313.44 728.27,-306.63"/>
<text text-anchor="middle" x="904.19" y="-334.8" font-family="Times,serif" font-size="14.00">कर्ता</text>
</g>
<!-- Node8_1 -->
<g id="node5" class="node">
<title>Node8_1</title>
<ellipse fill="#ff99ff" stroke="#ff99ff" cx="489.19" cy="-208" rx="59.59" ry="18"/>
<text text-anchor="middle" x="489.19" y="-204.3" font-family="Times,serif" font-size="14.00">नाम(8.1)</text>
</g>
<!-- Node8_1&#45;&gt;Node6_1 -->
<g id="edge8" class="edge">
<title>Node8_1&#45;&gt;Node6_1</title>
<path fill="none" stroke="black" d="M511.56,-232.75C521.42,-242.06 533.61,-252.13 546.19,-259 566.98,-270.35 591.82,-278.34 613.65,-283.79"/>
<polygon fill="black" stroke="black" points="513.78,-230.03 504.19,-225.53 508.88,-235.03 513.78,-230.03"/>
<text text-anchor="middle" x="603.69" y="-247.8" font-family="Times,serif" font-size="14.00">विशेषणम्</text>
</g>
<!-- Node13_1 -->
<g id="node6" class="node">
<title>Node13_1</title>
<ellipse fill="#40e0d0" stroke="#40e0d0" cx="1140.19" cy="-121" rx="112.38" ry="18"/>
<text text-anchor="middle" x="1140.19" y="-117.3" font-family="Times,serif" font-size="14.00">भ्रात्रा(13.1)</text>
</g>
<!-- Node11_1 -->
<g id="node7" class="node">
<title>Node11_1</title>
<ellipse fill="#40e0d0" stroke="#40e0d0" cx="1129.19" cy="-208" rx="121.58" ry="18"/>
<text text-anchor="middle" x="1129.19" y="-204.3" font-family="Times,serif" font-size="14.00">लक्ष्मणेन(11.1)</text>
</g>
<!-- Node13_1&#45;&gt;Node11_1 -->
<g id="edge13" class="edge">
<title>Node13_1&#45;&gt;Node11_1</title>
<path fill="none" stroke="black" d="M1136.66,-149.27C1134.94,-162.58 1132.92,-178.19 1131.41,-189.82"/>
<polygon fill="black" stroke="black" points="1140.15,-149.57 1137.96,-139.2 1133.21,-148.67 1140.15,-149.57"/>
<text text-anchor="middle" x="1192.69" y="-160.8" font-family="Times,serif" font-size="14.00">विशेषणम्</text>
</g>
<!-- Node11_1&#45;&gt;Node6_1 -->
<g id="edge11" class="edge">
<title>Node11_1&#45;&gt;Node6_1</title>
<path fill="none" stroke="black" d="M1046.41,-224.26C952.93,-241.5 803.44,-269.06 723.26,-283.85"/>
<polygon fill="black" stroke="black" points="1047.2,-227.68 1056.4,-222.42 1045.93,-220.79 1047.2,-227.68"/>
<text text-anchor="middle" x="976.19" y="-247.8" font-family="Times,serif" font-size="14.00">सहार्थः</text>
</g>
<!-- Node14_1 -->
<g id="node8" class="node">
<title>Node14_1</title>
<ellipse fill="#40e0d0" stroke="#40e0d0" cx="897.19" cy="-121" rx="112.38" ry="18"/>
<text text-anchor="middle" x="897.19" y="-117.3" font-family="Times,serif" font-size="14.00">वैदेह्या(14.1)</text>
</g>
<!-- Node14_1&#45;&gt;Node11_1 -->
<g id="edge14" class="edge">
<title>Node14_1&#45;&gt;Node11_1</title>
<path fill="none" stroke="black" d="M936.11,-143.03C955.08,-152.72 978.43,-163.85 1000.19,-172 1021.38,-179.94 1045.14,-186.91 1066.44,-192.49"/>
<polygon fill="black" stroke="black" points="937.67,-139.9 927.18,-138.41 934.45,-146.11 937.67,-139.9"/>
<text text-anchor="middle" x="1064.69" y="-160.8" font-family="Times,serif" font-size="14.00">समुच्चितः</text>
</g>
<!-- Node17_1 -->
<g id="node9" class="node">
<title>Node17_1</title>
<ellipse fill="#40e0d0" stroke="#40e0d0" cx="897.19" cy="-34" rx="102.88" ry="18"/>
<text text-anchor="middle" x="897.19" y="-30.3" font-family="Times,serif" font-size="14.00">भार्यया(17.1)</text>
</g>
<!-- Node17_1&#45;&gt;Node14_1 -->
<g id="edge17" class="edge">
<title>Node17_1&#45;&gt;Node14_1</title>
<path fill="none" stroke="black" d="M897.19,-62.27C897.19,-75.58 897.19,-91.19 897.19,-102.82"/>
<polygon fill="black" stroke="black" points="900.69,-62.2 897.19,-52.2 893.69,-62.2 900.69,-62.2"/>
<text text-anchor="middle" x="954.69" y="-73.8" font-family="Times,serif" font-size="14.00">विशेषणम्</text>
</g>
<!-- Node1_1 -->
<g id="node10" class="node">
<title>Node1_1</title>
<ellipse fill="#ff99ff" stroke="#ff99ff" cx="227.19" cy="-34" rx="69.59" ry="18"/>
<text text-anchor="middle" x="227.19" y="-30.3" font-family="Times,serif" font-size="14.00">एवम्(1.1)</text>
</g>
<!-- Node1_1&#45;&gt;Node2_1 -->
<g id="edge1" class="edge">
<title>Node1_1&#45;&gt;Node2_1</title>
<path fill="none" stroke="black" d="M226.12,-62.43C227.04,-70.36 229.32,-78.6 234.19,-85 241.71,-94.87 252.58,-102 263.93,-107.13"/>
<polygon fill="black" stroke="black" points="229.61,-62.15 225.59,-52.35 222.62,-62.52 229.61,-62.15"/>
<text text-anchor="middle" x="291.69" y="-73.8" font-family="Times,serif" font-size="14.00">सम्बन्धः</text>
</g>
<!-- Node3_1 -->
<g id="node11" class="node">
<title>Node3_1</title>
<ellipse fill="#40e0d0" stroke="#40e0d0" cx="402.19" cy="-34" rx="87.99" ry="18"/>
<text text-anchor="middle" x="402.19" y="-30.3" font-family="Times,serif" font-size="14.00">सुरसया(3.1)</text>
</g>
<!-- Node3_1&#45;&gt;Node2_1 -->
<g id="edge3" class="edge">
<title>Node3_1&#45;&gt;Node2_1</title>
<path fill="none" stroke="black" d="M377.8,-58.83C363.32,-72.97 345.32,-90.56 332.34,-103.24"/>
<polygon fill="black" stroke="black" points="380.3,-61.29 385,-51.79 375.4,-56.28 380.3,-61.29"/>
<text text-anchor="middle" x="399.19" y="-73.8" font-family="Times,serif" font-size="14.00">कर्ता</text>
</g>
<!-- Node4_1 -->
<g id="node12" class="node">
<title>Node4_1</title>
<ellipse fill="#ffff00" stroke="#ffff00" cx="109.19" cy="-121" rx="109.38" ry="18"/>
<text text-anchor="middle" x="109.19" y="-117.3" font-family="Times,serif" font-size="14.00">प्रहृष्ट&#45;(4.1)</text>
</g>
<!-- Node4_1&#45;&gt;Node4_2 -->
<g id="edge4" class="edge">
<title>Node4_1&#45;&gt;Node4_2</title>
<path fill="none" stroke="black" d="M130.25,-146.73C139.24,-155.89 150.38,-165.59 162.19,-172 187.63,-185.81 218.52,-194.24 245.15,-199.35"/>
<polygon fill="black" stroke="black" points="132.64,-144.15 123.24,-139.25 127.53,-148.94 132.64,-144.15"/>
<text text-anchor="middle" x="233.69" y="-160.8" font-family="Times,serif" font-size="14.00">बहुव्रीहिः</text>
</g>
<!-- Node10_1 -->
<g id="node15" class="node">
<title>Node10_1</title>
<ellipse fill="#ffff00" stroke="#ffff00" cx="1365.19" cy="-208" rx="96.68" ry="18"/>
<text text-anchor="middle" x="1365.19" y="-204.3" font-family="Times,serif" font-size="14.00">दण्डका&#45;(10.1)</text>
</g>
<!-- Node10_2 -->
<g id="node16" class="node">
<title>Node10_2</title>
<ellipse fill="#93db70" stroke="#93db70" cx="1298.19" cy="-295" rx="75.29" ry="18"/>
<text text-anchor="middle" x="1298.19" y="-291.3" font-family="Times,serif" font-size="14.00">वनम्(10.2)</text>
</g>
<!-- Node10_1&#45;&gt;Node10_2 -->
<g id="edge9" class="edge">
<title>Node10_1&#45;&gt;Node10_2</title>
<path fill="none" stroke="black" d="M1345.2,-234.36C1334.31,-248.18 1321.13,-264.9 1311.5,-277.11"/>
<polygon fill="black" stroke="black" points="1348.19,-236.22 1351.63,-226.2 1342.69,-231.89 1348.19,-236.22"/>
<text text-anchor="middle" x="1399.69" y="-247.8" font-family="Times,serif" font-size="14.00">कर्मधारयः</text>
</g>
<!-- Node10_2&#45;&gt;Node9_1 -->
<g id="edge10" class="edge">
<title>Node10_2&#45;&gt;Node9_1</title>
<path fill="none" stroke="black" d="M1244.58,-312.82C1195.67,-328.16 1123.98,-350.64 1076.48,-365.54"/>
<polygon fill="black" stroke="black" points="1245.85,-316.08 1254.35,-309.75 1243.76,-309.4 1245.85,-316.08"/>
<text text-anchor="middle" x="1207.19" y="-334.8" font-family="Times,serif" font-size="14.00">कर्म</text>
</g>
<!-- Node12_1 -->
<g id="node17" class="node">
<title>Node12_1</title>
<ellipse fill="#ff99ff" stroke="#ff99ff" cx="1327.19" cy="-121" rx="56.59" ry="18"/>
<text text-anchor="middle" x="1327.19" y="-117.3" font-family="Times,serif" font-size="14.00">सह(12.1)</text>
</g>
<!-- Node12_1&#45;&gt;Node11_1 -->
<g id="edge12" class="edge">
<title>Node12_1&#45;&gt;Node11_1</title>
<path fill="none" stroke="black" d="M1299.38,-144.24C1286.28,-153.86 1270.06,-164.59 1254.19,-172 1235.71,-180.63 1214.67,-187.53 1195.2,-192.85"/>
<polygon fill="black" stroke="black" points="1301.62,-146.94 1307.51,-138.13 1297.41,-141.34 1301.62,-146.94"/>
<text text-anchor="middle" x="1375.69" y="-160.8" font-family="Times,serif" font-size="14.00">सहार्थ_द्योतकः</text>
</g>
<!-- Node15_1 -->
<g id="node18" class="node">
<title>Node15_1</title>
<ellipse fill="#ff99ff" stroke="#ff99ff" cx="1517.19" cy="-121" rx="47.39" ry="18"/>
<text text-anchor="middle" x="1517.19" y="-117.3" font-family="Times,serif" font-size="14.00">च(15.1)</text>
</g>
<!-- Node15_1&#45;&gt;Node11_1 -->
<g id="edge15" class="edge">
<title>Node15_1&#45;&gt;Node11_1</title>
<path fill="none" stroke="black" d="M1502.64,-147.57C1495.88,-156.96 1486.95,-166.6 1476.19,-172 1454.62,-182.82 1283.16,-179.16 1259.19,-182 1237.74,-184.54 1214.51,-188.59 1193.71,-192.69"/>
<polygon fill="black" stroke="black" points="1505.61,-149.42 1508.22,-139.15 1499.78,-145.56 1505.61,-149.42"/>
<text text-anchor="middle" x="1596.69" y="-160.8" font-family="Times,serif" font-size="14.00">समुच्चय_द्योतकः</text>
</g>
<!-- Node16_1 -->
<g id="node19" class="node">
<title>Node16_1</title>
<ellipse fill="#ff99ff" stroke="#ff99ff" cx="1334.19" cy="-34" rx="65.79" ry="18"/>
<text text-anchor="middle" x="1334.19" y="-30.3" font-family="Times,serif" font-size="14.00">अपि(16.1)</text>
</g>
<!-- Node16_1&#45;&gt;Node14_1 -->
<g id="edge16" class="edge">
<title>Node16_1&#45;&gt;Node14_1</title>
<path fill="none" stroke="black" d="M1277.66,-49.06C1273.11,-50.09 1268.58,-51.08 1264.19,-52 1155.97,-74.61 1127.8,-74.35 1019.19,-95 1000.71,-98.51 980.7,-102.53 962.34,-106.29"/>
<polygon fill="black" stroke="black" points="1278.64,-52.42 1287.6,-46.76 1277.06,-45.6 1278.64,-52.42"/>
<text text-anchor="middle" x="1223.69" y="-73.8" font-family="Times,serif" font-size="14.00">सम्बन्धः</text>
</g>
</g>
</svg>
