<svg xmlns="http://www.w3.org/2000/svg" xmlns:xlink="http://www.w3.org/1999/xlink" width="1111pt" height="392pt" viewBox="0 0 1110.69 392"><g id="graph0" class="graph" transform="scale(1 1) rotate(0) translate(4 388)"><title>G</title><polygon fill="#fffacd" stroke="transparent" points="-4 4 -4 -388 1106.69 -388 1106.69 4 -4 4"/><g id="clust1" class="cluster"><title>cluster_1</title><polygon fill="#fffacd" stroke="#000" points="240.69 -166 240.69 -305 875.69 -305 875.69 -166 240.69 -166"/></g><g id="clust2" class="cluster"><title>cluster_2</title><polygon fill="#fffacd" stroke="#000" points="240.69 -79 240.69 -131 470.69 -131 470.69 -79 240.69 -79"/></g><g id="node1" class="node"><title>Node1_1</title><ellipse cx="779.69" cy="-192" fill="#93db70" stroke="#93db70" rx="87.99" ry="18"/><text x="779.69" y="-188.3" font-family="Times,serif" font-size="14" text-anchor="middle">सागरम्(1.1)</text></g><g id="node2" class="node"><title>Node8_1</title><ellipse cx="576.69" cy="-279" fill="#93db70" stroke="#93db70" rx="87.99" ry="18"/><text x="576.69" y="-275.3" font-family="Times,serif" font-size="14" text-anchor="middle">मुखानि(8.1)</text></g><g id="edge1" class="edge"><title>Node1_1-&gt;Node8_1</title><path fill="none" stroke="#000" d="M752.31,-216.09C739.94,-225.56 724.74,-235.94 709.69,-243 687.75,-253.3 662.3,-260.93 639.57,-266.39"/><polygon fill="#000" stroke="#000" points="754.69 -218.67 760.38 -209.73 750.36 -213.17 754.69 -218.67"/><text x="798.19" y="-231.8" font-family="Times,serif" font-size="14" text-anchor="middle">समुच्चितः</text></g><g id="node11" class="node"><title>Node10_1</title><ellipse cx="576.69" cy="-366" fill="#ff1975" stroke="#ff1975" rx="155.97" ry="18"/><text x="576.69" y="-362.3" font-family="Times,serif" font-size="14" text-anchor="middle">विलोकयत्(आर्ष)(10.1)</text></g><g id="edge10" class="edge"><title>Node8_1-&gt;Node10_1</title><path fill="none" stroke="#000" d="M576.69,-307.27C576.69,-320.58 576.69,-336.19 576.69,-347.82"/><polygon fill="#000" stroke="#000" points="580.19 -307.2 576.69 -297.2 573.19 -307.2 580.19 -307.2"/><text x="605.69" y="-318.8" font-family="Times,serif" font-size="14" text-anchor="middle">कर्म</text></g><g id="node3" class="node"><title>Node2_2</title><ellipse cx="576.69" cy="-192" fill="#93db70" stroke="#93db70" rx="96.68" ry="18"/><text x="576.69" y="-188.3" font-family="Times,serif" font-size="14" text-anchor="middle">अनूपान्(2.2)</text></g><g id="edge3" class="edge"><title>Node2_2-&gt;Node8_1</title><path fill="none" stroke="#000" d="M576.69,-220.27C576.69,-233.58 576.69,-249.19 576.69,-260.82"/><polygon fill="#000" stroke="#000" points="580.19 -220.2 576.69 -210.2 573.19 -220.2 580.19 -220.2"/><text x="641.19" y="-231.8" font-family="Times,serif" font-size="14" text-anchor="middle">समुच्चितः</text></g><g id="node4" class="node"><title>Node4_1</title><ellipse cx="355.69" cy="-192" fill="#93db70" stroke="#93db70" rx="106.68" ry="18"/><text x="355.69" y="-188.3" font-family="Times,serif" font-size="14" text-anchor="middle">द्रुमान्(4.1)</text></g><g id="edge6" class="edge"><title>Node4_1-&gt;Node8_1</title><path fill="none" stroke="#000" d="M389.89,-215.19C405.77,-224.76 425.19,-235.46 443.69,-243 467.02,-252.51 493.7,-260.12 517.02,-265.79"/><polygon fill="#000" stroke="#000" points="391.33 -211.97 380.98 -209.71 387.67 -217.93 391.33 -211.97"/><text x="508.19" y="-231.8" font-family="Times,serif" font-size="14" text-anchor="middle">समुच्चितः</text></g><g id="node5" class="node"><title>Node3_2</title><ellipse cx="355.69" cy="-105" fill="#93db70" stroke="#93db70" rx="106.68" ry="18"/><text x="355.69" y="-101.3" font-family="Times,serif" font-size="14" text-anchor="middle">अनूपजान्(3.2)</text></g><g id="edge5" class="edge"><title>Node3_2-&gt;Node4_1</title><path fill="none" stroke="#000" d="M355.69,-133.27C355.69,-146.58 355.69,-162.19 355.69,-173.82"/><polygon fill="#000" stroke="#000" points="359.19 -133.2 355.69 -123.2 352.19 -133.2 359.19 -133.2"/><text x="413.19" y="-144.8" font-family="Times,serif" font-size="14" text-anchor="middle">विशेषणम्</text></g><g id="node6" class="node"><title>Node2_1</title><ellipse cx="576.69" cy="-105" fill="#ff0" stroke="#ff0" rx="72.29" ry="18"/><text x="576.69" y="-101.3" font-family="Times,serif" font-size="14" text-anchor="middle">सागर-(2.1)</text></g><g id="edge2" class="edge"><title>Node2_1-&gt;Node2_2</title><path fill="none" stroke="#000" d="M576.69,-133.27C576.69,-146.58 576.69,-162.19 576.69,-173.82"/><polygon fill="#000" stroke="#000" points="580.19 -133.2 576.69 -123.2 573.19 -133.2 580.19 -133.2"/><text x="680.19" y="-144.8" font-family="Times,serif" font-size="14" text-anchor="middle">षष्ठी_तत्पुरुषः</text></g><g id="node7" class="node"><title>Node3_1</title><ellipse cx="355.69" cy="-18" fill="#ff0" stroke="#ff0" rx="72.29" ry="18"/><text x="355.69" y="-14.3" font-family="Times,serif" font-size="14" text-anchor="middle">सागर-(3.1)</text></g><g id="edge4" class="edge"><title>Node3_1-&gt;Node3_2</title><path fill="none" stroke="#000" d="M355.69,-46.27C355.69,-59.58 355.69,-75.19 355.69,-86.82"/><polygon fill="#000" stroke="#000" points="359.19 -46.2 355.69 -36.2 352.19 -46.2 359.19 -46.2"/><text x="459.19" y="-57.8" font-family="Times,serif" font-size="14" text-anchor="middle">षष्ठी_तत्पुरुषः</text></g><g id="node8" class="node"><title>Node5_1</title><ellipse cx="115.69" cy="-105" fill="#87ceeb" stroke="#87ceeb" rx="96.68" ry="18"/><text x="115.69" y="-101.3" font-family="Times,serif" font-size="14" text-anchor="middle">सागरस्य(5.1)</text></g><g id="node9" class="node"><title>Node7_1</title><ellipse cx="115.69" cy="-192" fill="#87ceeb" stroke="#87ceeb" rx="115.88" ry="18"/><text x="115.69" y="-188.3" font-family="Times,serif" font-size="14" text-anchor="middle">पत्नीनाम्(7.1)</text></g><g id="edge7" class="edge"><title>Node5_1-&gt;Node7_1</title><path fill="none" stroke="#000" d="M115.69,-133.27C115.69,-146.58 115.69,-162.19 115.69,-173.82"/><polygon fill="#000" stroke="#000" points="119.19 -133.2 115.69 -123.2 112.19 -133.2 119.19 -133.2"/><text x="208.69" y="-144.8" font-family="Times,serif" font-size="14" text-anchor="middle">षष्ठीसम्बन्धः</text></g><g id="edge9" class="edge"><title>Node7_1-&gt;Node8_1</title><path fill="none" stroke="#000" d="M153.26,-214.39C173.25,-224.77 198.62,-236.39 222.69,-243 311.28,-267.31 416.44,-275.19 489,-277.52"/><polygon fill="#000" stroke="#000" points="154.66 -211.17 144.19 -209.57 151.38 -217.35 154.66 -211.17"/><text x="315.69" y="-231.8" font-family="Times,serif" font-size="14" text-anchor="middle">षष्ठीसम्बन्धः</text></g><g id="node10" class="node"><title>Node6_1</title><ellipse cx="115.69" cy="-18" fill="#f9f" stroke="#f9f" rx="41.69" ry="18"/><text x="115.69" y="-14.3" font-family="Times,serif" font-size="14" text-anchor="middle">च(6.1)</text></g><g id="edge8" class="edge"><title>Node6_1-&gt;Node5_1</title><path fill="none" stroke="#000" d="M115.69,-46.27C115.69,-59.58 115.69,-75.19 115.69,-86.82"/><polygon fill="#000" stroke="#000" points="119.19 -46.2 115.69 -36.2 112.19 -46.2 119.19 -46.2"/><text x="173.19" y="-57.8" font-family="Times,serif" font-size="14" text-anchor="middle">सम्बन्धः</text></g><g id="node12" class="node"><title>Node9_1</title><ellipse cx="945.69" cy="-192" fill="#f9f" stroke="#f9f" rx="59.59" ry="18"/><text x="945.69" y="-188.3" font-family="Times,serif" font-size="14" text-anchor="middle">अपि(9.1)</text></g><g id="edge11" class="edge"><title>Node9_1-&gt;Node8_1</title><path fill="none" stroke="#000" d="M917.45,-215.21C903.06,-225.37 884.8,-236.55 866.69,-243 801.36,-266.27 723.08,-274.67 664.32,-277.44"/><polygon fill="#000" stroke="#000" points="919.86 -217.79 925.88 -209.07 915.74 -212.13 919.86 -217.79"/><text x="999.19" y="-231.8" font-family="Times,serif" font-size="14" text-anchor="middle">समुच्चय_द्योतकः</text></g></g></svg>