<svg xmlns="http://www.w3.org/2000/svg" xmlns:xlink="http://www.w3.org/1999/xlink" width="787pt" height="653pt" viewBox="0 0 786.99 653"><g id="graph0" class="graph" transform="scale(1 1) rotate(0) translate(4 649)"><title>G</title><polygon fill="#fffacd" stroke="transparent" points="-4 4 -4 -649 782.99 -649 782.99 4 -4 4"/><g id="clust1" class="cluster"><title>cluster_1</title><polygon fill="#fffacd" stroke="#000" points="486.99 -253 486.99 -392 770.99 -392 770.99 -253 486.99 -253"/></g><g id="clust2" class="cluster"><title>cluster_2</title><polygon fill="#fffacd" stroke="#000" points="504.99 -79 504.99 -218 752.99 -218 752.99 -79 504.99 -79"/></g><g id="clust3" class="cluster"><title>cluster_3</title><polygon fill="#fffacd" stroke="#000" points="215.99 -427 215.99 -566 638.99 -566 638.99 -427 215.99 -427"/></g><g id="node1" class="node"><title>Node1_1</title><ellipse cx="628.99" cy="-279" fill="#40e0d0" stroke="#40e0d0" rx="69.59" ry="18"/><text x="628.99" y="-275.3" font-family="Times,serif" font-size="14" text-anchor="middle">वहता(1.1)</text></g><g id="node2" class="node"><title>Node5_1</title><ellipse cx="628.99" cy="-366" fill="#40e0d0" stroke="#40e0d0" rx="133.78" ry="18"/><text x="628.99" y="-362.3" font-family="Times,serif" font-size="14" text-anchor="middle">चित्रभानुना(5.1)</text></g><g id="edge1" class="edge"><title>Node1_1-&gt;Node5_1</title><path fill="none" stroke="#000" d="M628.99,-307.27C628.99,-320.58 628.99,-336.19 628.99,-347.82"/><polygon fill="#000" stroke="#000" points="632.49 -307.2 628.99 -297.2 625.49 -307.2 632.49 -307.2"/><text x="686.49" y="-318.8" font-family="Times,serif" font-size="14" text-anchor="middle">विशेषणम्</text></g><g id="node5" class="node"><title>Node4_1</title><ellipse cx="542.99" cy="-453" fill="#c6e2eb" stroke="#c6e2eb" rx="87.99" ry="18"/><text x="542.99" y="-449.3" font-family="Times,serif" font-size="14" text-anchor="middle">सेविते(4.1)</text></g><g id="edge5" class="edge"><title>Node5_1-&gt;Node4_1</title><path fill="none" stroke="#000" d="M604.12,-391.58C589.99,-405.55 572.67,-422.67 560.07,-435.11"/><polygon fill="#000" stroke="#000" points="606.94 -393.72 611.59 -384.2 602.01 -388.74 606.94 -393.72"/><text x="626.99" y="-405.8" font-family="Times,serif" font-size="14" text-anchor="middle">कर्ता</text></g><g id="node3" class="node"><title>Node3_1</title><ellipse cx="628.99" cy="-105" fill="#00bfff" stroke="#00bfff" rx="115.88" ry="18"/><text x="628.99" y="-101.3" font-family="Times,serif" font-size="14" text-anchor="middle">अत्यन्तम्(3.1)</text></g><g id="node4" class="node"><title>Node2_1</title><ellipse cx="628.99" cy="-192" fill="#00bfff" stroke="#00bfff" rx="87.99" ry="18"/><text x="628.99" y="-188.3" font-family="Times,serif" font-size="14" text-anchor="middle">हव्यम्(2.1)</text></g><g id="edge3" class="edge"><title>Node3_1-&gt;Node2_1</title><path fill="none" stroke="#000" d="M628.99,-133.27C628.99,-146.58 628.99,-162.19 628.99,-173.82"/><polygon fill="#000" stroke="#000" points="632.49 -133.2 628.99 -123.2 625.49 -133.2 632.49 -133.2"/><text x="686.49" y="-144.8" font-family="Times,serif" font-size="14" text-anchor="middle">विशेषणम्</text></g><g id="edge2" class="edge"><title>Node2_1-&gt;Node1_1</title><path fill="none" stroke="#000" d="M628.99,-220.27C628.99,-233.58 628.99,-249.19 628.99,-260.82"/><polygon fill="#000" stroke="#000" points="632.49 -220.2 628.99 -210.2 625.49 -220.2 632.49 -220.2"/><text x="657.99" y="-231.8" font-family="Times,serif" font-size="14" text-anchor="middle">कर्म</text></g><g id="node6" class="node"><title>Node9_2</title><ellipse cx="321.99" cy="-540" fill="#c6e2eb" stroke="#c6e2eb" rx="87.99" ry="18"/><text x="321.99" y="-536.3" font-family="Times,serif" font-size="14" text-anchor="middle">मार्गे(9.2)</text></g><g id="edge4" class="edge"><title>Node4_1-&gt;Node9_2</title><path fill="none" stroke="#000" d="M506.34,-475.11C488.52,-484.79 466.55,-495.89 445.99,-504 423.93,-512.7 398.88,-520.19 377.1,-525.99"/><polygon fill="#000" stroke="#000" points="508.18 -478.09 515.25 -470.2 504.8 -471.96 508.18 -478.09"/><text x="535.49" y="-492.8" font-family="Times,serif" font-size="14" text-anchor="middle">विशेषणम्</text></g><g id="node15" class="node"><title>Node8_1</title><ellipse cx="150.99" cy="-627" fill="#ff1975" stroke="#ff1975" rx="76.09" ry="18"/><text x="150.99" y="-623.3" font-family="Times,serif" font-size="14" text-anchor="middle">(जगाम)(8.1)</text></g><g id="edge15" class="edge"><title>Node9_2-&gt;Node8_1</title><path fill="none" stroke="#000" d="M281.18,-561.29C250.84,-576.37 210.08,-596.63 182.29,-610.44"/><polygon fill="#000" stroke="#000" points="282.83 -564.37 290.23 -556.79 279.72 -558.11 282.83 -564.37"/><text x="325.49" y="-579.8" font-family="Times,serif" font-size="14" text-anchor="middle">देशाधिकरणम्</text></g><g id="node7" class="node"><title>Node6_7</title><ellipse cx="330.99" cy="-453" fill="#c6e2eb" stroke="#c6e2eb" rx="106.68" ry="18"/><text x="330.99" y="-449.3" font-family="Times,serif" font-size="14" text-anchor="middle">विभूषिते(6.7)</text></g><g id="edge12" class="edge"><title>Node6_7-&gt;Node9_2</title><path fill="none" stroke="#000" d="M328.1,-481.27C326.69,-494.58 325.04,-510.19 323.81,-521.82"/><polygon fill="#000" stroke="#000" points="331.6 -481.51 329.17 -471.2 324.64 -480.78 331.6 -481.51"/><text x="384.49" y="-492.8" font-family="Times,serif" font-size="14" text-anchor="middle">विशेषणम्</text></g><g id="node8" class="node"><title>Node6_1</title><ellipse cx="109.99" cy="-18" fill="#ff0" stroke="#ff0" rx="72.29" ry="18"/><text x="109.99" y="-14.3" font-family="Times,serif" font-size="14" text-anchor="middle">ग्रह-(6.1)</text></g><g id="node9" class="node"><title>Node6_2</title><ellipse cx="109.99" cy="-105" fill="#ff0" stroke="#ff0" rx="100.18" ry="18"/><text x="109.99" y="-101.3" font-family="Times,serif" font-size="14" text-anchor="middle">नक्षत्र-(6.2)</text></g><g id="edge6" class="edge"><title>Node6_1-&gt;Node6_2</title><path fill="none" stroke="#000" d="M109.99,-46.27C109.99,-59.58 109.99,-75.19 109.99,-86.82"/><polygon fill="#000" stroke="#000" points="113.49 -46.2 109.99 -36.2 106.49 -46.2 113.49 -46.2"/><text x="174.49" y="-57.8" font-family="Times,serif" font-size="14" text-anchor="middle">द्वन्द्वः</text></g><g id="node10" class="node"><title>Node6_3</title><ellipse cx="109.99" cy="-192" fill="#ff0" stroke="#ff0" rx="90.98" ry="18"/><text x="109.99" y="-188.3" font-family="Times,serif" font-size="14" text-anchor="middle">चन्द्र-(6.3)</text></g><g id="edge7" class="edge"><title>Node6_2-&gt;Node6_3</title><path fill="none" stroke="#000" d="M109.99,-133.27C109.99,-146.58 109.99,-162.19 109.99,-173.82"/><polygon fill="#000" stroke="#000" points="113.49 -133.2 109.99 -123.2 106.49 -133.2 113.49 -133.2"/><text x="174.49" y="-144.8" font-family="Times,serif" font-size="14" text-anchor="middle">द्वन्द्वः</text></g><g id="node11" class="node"><title>Node6_4</title><ellipse cx="109.99" cy="-279" fill="#ff0" stroke="#ff0" rx="72.29" ry="18"/><text x="109.99" y="-275.3" font-family="Times,serif" font-size="14" text-anchor="middle">अर्क-(6.4)</text></g><g id="edge8" class="edge"><title>Node6_3-&gt;Node6_4</title><path fill="none" stroke="#000" d="M109.99,-220.27C109.99,-233.58 109.99,-249.19 109.99,-260.82"/><polygon fill="#000" stroke="#000" points="113.49 -220.2 109.99 -210.2 106.49 -220.2 113.49 -220.2"/><text x="174.49" y="-231.8" font-family="Times,serif" font-size="14" text-anchor="middle">द्वन्द्वः</text></g><g id="node12" class="node"><title>Node6_6</title><ellipse cx="271.99" cy="-366" fill="#ff0" stroke="#ff0" rx="53.89" ry="18"/><text x="271.99" y="-362.3" font-family="Times,serif" font-size="14" text-anchor="middle">गण-(6.6)</text></g><g id="edge9" class="edge"><title>Node6_4-&gt;Node6_6</title><path fill="none" stroke="#000" d="M120.3,-306.33C124.85,-314.98 131.02,-323.92 138.99,-330 162.25,-347.73 193.71,-356.51 220.19,-360.84"/><polygon fill="#000" stroke="#000" points="123.42 -304.75 115.98 -297.21 117.1 -307.74 123.42 -304.75"/><text x="203.49" y="-318.8" font-family="Times,serif" font-size="14" text-anchor="middle">द्वन्द्वः</text></g><g id="edge11" class="edge"><title>Node6_6-&gt;Node6_7</title><path fill="none" stroke="#000" d="M289.58,-392.34C299.13,-406.1 310.68,-422.74 319.16,-434.95"/><polygon fill="#000" stroke="#000" points="292.22 -390.01 283.65 -383.79 286.47 -394 292.22 -390.01"/><text x="415.49" y="-405.8" font-family="Times,serif" font-size="14" text-anchor="middle">तृतीया_तत्पुरुषः</text></g><g id="node13" class="node"><title>Node6_5</title><ellipse cx="271.99" cy="-279" fill="#ff0" stroke="#ff0" rx="72.29" ry="18"/><text x="271.99" y="-275.3" font-family="Times,serif" font-size="14" text-anchor="middle">तारा-(6.5)</text></g><g id="edge10" class="edge"><title>Node6_5-&gt;Node6_6</title><path fill="none" stroke="#000" d="M271.99,-307.27C271.99,-320.58 271.99,-336.19 271.99,-347.82"/><polygon fill="#000" stroke="#000" points="275.49 -307.2 271.99 -297.2 268.49 -307.2 275.49 -307.2"/><text x="375.49" y="-318.8" font-family="Times,serif" font-size="14" text-anchor="middle">षष्ठी_तत्पुरुषः</text></g><g id="node14" class="node"><title>Node7_1</title><ellipse cx="103.99" cy="-540" fill="#00bfff" stroke="#00bfff" rx="103.98" ry="18"/><text x="103.99" y="-536.3" font-family="Times,serif" font-size="14" text-anchor="middle">(मारुतिः)(7.1)</text></g><g id="edge13" class="edge"><title>Node7_1-&gt;Node8_1</title><path fill="none" stroke="#000" d="M118.45,-567.15C126,-580.81 135.03,-597.13 141.65,-609.11"/><polygon fill="#000" stroke="#000" points="121.4 -565.26 113.5 -558.2 115.28 -568.65 121.4 -565.26"/><text x="166.99" y="-579.8" font-family="Times,serif" font-size="14" text-anchor="middle">कर्ता</text></g><g id="node16" class="node"><title>Node9_1</title><ellipse cx="100.99" cy="-453" fill="#ff0" stroke="#ff0" rx="72.29" ry="18"/><text x="100.99" y="-449.3" font-family="Times,serif" font-size="14" text-anchor="middle">वायु-(9.1)</text></g><g id="edge14" class="edge"><title>Node9_1-&gt;Node9_2</title><path fill="none" stroke="#000" d="M102.4,-481.19C104.18,-489.58 107.6,-498.14 113.99,-504 115.33,-505.23 194.99,-518.39 255.33,-528.22"/><polygon fill="#000" stroke="#000" points="105.85 -480.62 100.95 -471.23 98.93 -481.63 105.85 -480.62"/><text x="217.49" y="-492.8" font-family="Times,serif" font-size="14" text-anchor="middle">षष्ठी_तत्पुरुषः</text></g></g></svg>