<?xml version="1.0" encoding="UTF-8" standalone="no"?>
<!DOCTYPE svg PUBLIC "-//W3C//DTD SVG 1.1//EN"
 "http://www.w3.org/Graphics/SVG/1.1/DTD/svg11.dtd">
<!-- Generated by graphviz version 2.43.0 (0)
 -->
<!-- Title: G Pages: 1 -->
<svg width="834pt" height="479pt"
 viewBox="0.00 0.00 834.00 479.00" xmlns="http://www.w3.org/2000/svg" xmlns:xlink="http://www.w3.org/1999/xlink">
<g id="graph0" class="graph" transform="scale(1 1) rotate(0) translate(4 475)">
<title>G</title>
<polygon fill="#fffacd" stroke="transparent" points="-4,4 -4,-475 830,-475 830,4 -4,4"/>
<g id="clust1" class="cluster">
<title>cluster_1</title>
<polygon fill="#fffacd" stroke="black" points="389,-166 389,-305 737,-305 737,-166 389,-166"/>
</g>
<g id="clust2" class="cluster">
<title>cluster_2</title>
<polygon fill="#fffacd" stroke="black" points="43,-166 43,-218 273,-218 273,-166 43,-166"/>
</g>
<g id="clust3" class="cluster">
<title>cluster_3</title>
<polygon fill="#fffacd" stroke="black" points="8,-253 8,-392 182,-392 182,-253 8,-253"/>
</g>
<g id="clust4" class="cluster">
<title>cluster_4</title>
<polygon fill="#fffacd" stroke="black" points="190,-253 190,-392 374,-392 374,-253 190,-253"/>
</g>
<!-- Node1_1 -->
<g id="node1" class="node">
<title>Node1_1</title>
<ellipse fill="#93db70" stroke="#93db70" cx="669" cy="-192" rx="59.59" ry="18"/>
<text text-anchor="middle" x="669" y="-188.3" font-family="Times,serif" font-size="14.00">तम्(1.1)</text>
</g>
<!-- Node13_1 -->
<g id="node2" class="node">
<title>Node13_1</title>
<ellipse fill="#93db70" stroke="#93db70" cx="491" cy="-279" rx="93.68" ry="18"/>
<text text-anchor="middle" x="491" y="-275.3" font-family="Times,serif" font-size="14.00">वानरम्(13.1)</text>
</g>
<!-- Node1_1&#45;&gt;Node13_1 -->
<g id="edge1" class="edge">
<title>Node1_1&#45;&gt;Node13_1</title>
<path fill="none" stroke="black" d="M639.38,-214.65C625.46,-224.18 608.36,-235 592,-243 575.66,-250.99 557.03,-257.99 540.26,-263.59"/>
<polygon fill="black" stroke="black" points="641.4,-217.51 647.6,-208.92 637.39,-211.77 641.4,-217.51"/>
<text text-anchor="middle" x="675.5" y="-231.8" font-family="Times,serif" font-size="14.00">विशेषणम्</text>
</g>
<!-- Node2_1 -->
<g id="node9" class="node">
<title>Node2_1</title>
<ellipse fill="#ff99ff" stroke="#ff99ff" cx="491" cy="-366" rx="106.68" ry="18"/>
<text text-anchor="middle" x="491" y="-362.3" font-family="Times,serif" font-size="14.00">दृष्ट्वा(2.1)</text>
</g>
<!-- Node13_1&#45;&gt;Node2_1 -->
<g id="edge14" class="edge">
<title>Node13_1&#45;&gt;Node2_1</title>
<path fill="none" stroke="black" d="M491,-307.27C491,-320.58 491,-336.19 491,-347.82"/>
<polygon fill="black" stroke="black" points="494.5,-307.2 491,-297.2 487.5,-307.2 494.5,-307.2"/>
<text text-anchor="middle" x="520" y="-318.8" font-family="Times,serif" font-size="14.00">कर्म</text>
</g>
<!-- Node4_1 -->
<g id="node3" class="node">
<title>Node4_1</title>
<ellipse fill="#93db70" stroke="#93db70" cx="494" cy="-192" rx="96.68" ry="18"/>
<text text-anchor="middle" x="494" y="-188.3" font-family="Times,serif" font-size="14.00">मुक्तम्(4.1)</text>
</g>
<!-- Node4_1&#45;&gt;Node13_1 -->
<g id="edge5" class="edge">
<title>Node4_1&#45;&gt;Node13_1</title>
<path fill="none" stroke="black" stroke-dasharray="1,5" d="M479.64,-219.47C478.57,-222.29 477.65,-225.16 477,-228 474.45,-239.07 477.81,-251.35 481.87,-260.98"/>
<polygon fill="black" stroke="black" points="482.88,-220.79 483.72,-210.23 476.48,-217.96 482.88,-220.79"/>
<text text-anchor="middle" x="534.5" y="-231.8" font-family="Times,serif" font-size="14.00">विशेषणम्</text>
</g>
<!-- Node5_1 -->
<g id="node4" class="node">
<title>Node5_1</title>
<ellipse fill="#93db70" stroke="#93db70" cx="158" cy="-192" rx="106.68" ry="18"/>
<text text-anchor="middle" x="158" y="-188.3" font-family="Times,serif" font-size="14.00">चन्द्रम्(5.1)</text>
</g>
<!-- Node4_1&#45;&gt;Node5_1 -->
<g id="edge4" class="edge">
<title>Node4_1&#45;&gt;Node5_1</title>
<path fill="none" stroke="black" d="M386.59,-192C347.64,-192 303.67,-192 264.77,-192"/>
<polygon fill="black" stroke="black" points="386.9,-195.5 396.9,-192 386.9,-188.5 386.9,-195.5"/>
<text text-anchor="middle" x="330.87" y="-177.8" font-family="Times,serif" font-size="14.00">विशेषणम्</text>
</g>
<!-- Node5_1&#45;&gt;Node13_1 -->
<g id="edge6" class="edge">
<title>Node5_1&#45;&gt;Node13_1</title>
<path fill="none" stroke="black" d="M223.87,-209.81C286.31,-225.75 378.99,-249.41 437.14,-264.25"/>
<polygon fill="black" stroke="black" points="224.67,-206.41 214.11,-207.32 222.94,-213.19 224.67,-206.41"/>
<text text-anchor="middle" x="395" y="-231.8" font-family="Times,serif" font-size="14.00">उपमानम्</text>
</g>
<!-- Node10_1 -->
<g id="node5" class="node">
<title>Node10_1</title>
<ellipse fill="#00bfff" stroke="#00bfff" cx="91" cy="-279" rx="75.29" ry="18"/>
<text text-anchor="middle" x="91" y="-275.3" font-family="Times,serif" font-size="14.00">देवी(10.1)</text>
</g>
<!-- Node9_1 -->
<g id="node6" class="node">
<title>Node9_1</title>
<ellipse fill="#00bfff" stroke="#00bfff" cx="95" cy="-366" rx="78.79" ry="18"/>
<text text-anchor="middle" x="95" y="-362.3" font-family="Times,serif" font-size="14.00">सुरसा(9.1)</text>
</g>
<!-- Node10_1&#45;&gt;Node9_1 -->
<g id="edge11" class="edge">
<title>Node10_1&#45;&gt;Node9_1</title>
<path fill="none" stroke="black" d="M73.49,-305.78C70.23,-313.48 68.52,-322 71,-330 73.01,-336.47 76.67,-342.82 80.54,-348.28"/>
<polygon fill="black" stroke="black" points="76.6,-307.37 78.07,-296.88 70.38,-304.17 76.6,-307.37"/>
<text text-anchor="middle" x="128.5" y="-318.8" font-family="Times,serif" font-size="14.00">विशेषणम्</text>
</g>
<!-- Node8_1 -->
<g id="node10" class="node">
<title>Node8_1</title>
<ellipse fill="#ff1975" stroke="#ff1975" cx="282" cy="-453" rx="106.68" ry="18"/>
<text text-anchor="middle" x="282" y="-449.3" font-family="Times,serif" font-size="14.00">अब्रवीत्(8.1)</text>
</g>
<!-- Node9_1&#45;&gt;Node8_1 -->
<g id="edge10" class="edge">
<title>Node9_1&#45;&gt;Node8_1</title>
<path fill="none" stroke="black" d="M138.25,-386.66C171.21,-401.64 216.02,-422.01 246.8,-436"/>
<polygon fill="black" stroke="black" points="139.42,-383.34 128.86,-382.39 136.52,-389.72 139.42,-383.34"/>
<text text-anchor="middle" x="236" y="-405.8" font-family="Times,serif" font-size="14.00">कर्ता</text>
</g>
<!-- Node11_1 -->
<g id="node7" class="node">
<title>Node11_1</title>
<ellipse fill="#40e0d0" stroke="#40e0d0" cx="282" cy="-279" rx="84.49" ry="18"/>
<text text-anchor="middle" x="282" y="-275.3" font-family="Times,serif" font-size="14.00">स्वेन(11.1)</text>
</g>
<!-- Node12_1 -->
<g id="node8" class="node">
<title>Node12_1</title>
<ellipse fill="#40e0d0" stroke="#40e0d0" cx="282" cy="-366" rx="84.49" ry="18"/>
<text text-anchor="middle" x="282" y="-362.3" font-family="Times,serif" font-size="14.00">रूपेण(12.1)</text>
</g>
<!-- Node11_1&#45;&gt;Node12_1 -->
<g id="edge12" class="edge">
<title>Node11_1&#45;&gt;Node12_1</title>
<path fill="none" stroke="black" d="M282,-307.27C282,-320.58 282,-336.19 282,-347.82"/>
<polygon fill="black" stroke="black" points="285.5,-307.2 282,-297.2 278.5,-307.2 285.5,-307.2"/>
<text text-anchor="middle" x="339.5" y="-318.8" font-family="Times,serif" font-size="14.00">विशेषणम्</text>
</g>
<!-- Node12_1&#45;&gt;Node8_1 -->
<g id="edge13" class="edge">
<title>Node12_1&#45;&gt;Node8_1</title>
<path fill="none" stroke="black" d="M282,-394.27C282,-407.58 282,-423.19 282,-434.82"/>
<polygon fill="black" stroke="black" points="285.5,-394.2 282,-384.2 278.5,-394.2 285.5,-394.2"/>
<text text-anchor="middle" x="318" y="-405.8" font-family="Times,serif" font-size="14.00">करणम्</text>
</g>
<!-- Node2_1&#45;&gt;Node8_1 -->
<g id="edge2" class="edge">
<title>Node2_1&#45;&gt;Node8_1</title>
<path fill="none" stroke="black" d="M442.61,-386.68C405.64,-401.71 355.36,-422.16 320.97,-436.15"/>
<polygon fill="black" stroke="black" points="444.23,-389.8 452.18,-382.79 441.6,-383.31 444.23,-389.8"/>
<text text-anchor="middle" x="464.5" y="-405.8" font-family="Times,serif" font-size="14.00">पूर्वकालः</text>
</g>
<!-- Node3_1 -->
<g id="node11" class="node">
<title>Node3_1</title>
<ellipse fill="#b4ffb4" stroke="#b4ffb4" cx="426" cy="-105" rx="87.99" ry="18"/>
<text text-anchor="middle" x="426" y="-101.3" font-family="Times,serif" font-size="14.00">वदनात्(3.1)</text>
</g>
<!-- Node3_1&#45;&gt;Node4_1 -->
<g id="edge3" class="edge">
<title>Node3_1&#45;&gt;Node4_1</title>
<path fill="none" stroke="black" d="M438.45,-132.14C442.83,-140.17 448.15,-148.78 454,-156 459.35,-162.59 466.02,-168.97 472.37,-174.43"/>
<polygon fill="black" stroke="black" points="441.47,-130.37 433.75,-123.11 435.26,-133.6 441.47,-130.37"/>
<text text-anchor="middle" x="511.5" y="-144.8" font-family="Times,serif" font-size="14.00">अपादानम्</text>
</g>
<!-- Node6_1 -->
<g id="node12" class="node">
<title>Node6_1</title>
<ellipse fill="#ffff00" stroke="#ffff00" cx="619" cy="-18" rx="72.29" ry="18"/>
<text text-anchor="middle" x="619" y="-14.3" font-family="Times,serif" font-size="14.00">राहु&#45;(6.1)</text>
</g>
<!-- Node6_2 -->
<g id="node13" class="node">
<title>Node6_2</title>
<ellipse fill="#b4ffb4" stroke="#b4ffb4" cx="619" cy="-105" rx="87.99" ry="18"/>
<text text-anchor="middle" x="619" y="-101.3" font-family="Times,serif" font-size="14.00">मुखात्(6.2)</text>
</g>
<!-- Node6_1&#45;&gt;Node6_2 -->
<g id="edge7" class="edge">
<title>Node6_1&#45;&gt;Node6_2</title>
<path fill="none" stroke="black" d="M619,-46.27C619,-59.58 619,-75.19 619,-86.82"/>
<polygon fill="black" stroke="black" points="622.5,-46.2 619,-36.2 615.5,-46.2 622.5,-46.2"/>
<text text-anchor="middle" x="722.5" y="-57.8" font-family="Times,serif" font-size="14.00">षष्ठी_तत्पुरुषः</text>
</g>
<!-- Node6_2&#45;&gt;Node4_1 -->
<g id="edge8" class="edge">
<title>Node6_2&#45;&gt;Node4_1</title>
<path fill="none" stroke="black" d="M598.02,-130.29C589.6,-139.12 579.42,-148.7 569,-156 558.29,-163.5 545.72,-170.09 533.96,-175.47"/>
<polygon fill="black" stroke="black" points="600.72,-132.53 604.94,-122.81 595.58,-127.78 600.72,-132.53"/>
<text text-anchor="middle" x="643.5" y="-144.8" font-family="Times,serif" font-size="14.00">अपादानम्</text>
</g>
<!-- Node7_1 -->
<g id="node14" class="node">
<title>Node7_1</title>
<ellipse fill="#ff99ff" stroke="#ff99ff" cx="158" cy="-105" rx="50.89" ry="18"/>
<text text-anchor="middle" x="158" y="-101.3" font-family="Times,serif" font-size="14.00">इव(7.1)</text>
</g>
<!-- Node7_1&#45;&gt;Node5_1 -->
<g id="edge9" class="edge">
<title>Node7_1&#45;&gt;Node5_1</title>
<path fill="none" stroke="black" d="M158,-133.27C158,-146.58 158,-162.19 158,-173.82"/>
<polygon fill="black" stroke="black" points="161.5,-133.2 158,-123.2 154.5,-133.2 161.5,-133.2"/>
<text text-anchor="middle" x="247" y="-144.8" font-family="Times,serif" font-size="14.00">उपमान_द्योतकः</text>
</g>
</g>
</svg>
