<svg xmlns="http://www.w3.org/2000/svg" xmlns:xlink="http://www.w3.org/1999/xlink" width="1388" height="392pt" viewBox="0 0 1041.24 392"><g id="graph0" class="graph" transform="scale(1 1) rotate(0) translate(4 388)"><title>G</title><polygon fill="#fffacd" stroke="transparent" points="-4 4 -4 -388 1037.24 -388 1037.24 4 -4 4"/><g id="clust1" class="cluster"><title>cluster_1</title><polygon fill="#fffacd" stroke="#000" points="195.24 -79 195.24 -131 793.24 -131 793.24 -79 195.24 -79"/></g><g id="node1" class="node"><title>Node1_1</title><ellipse cx="310.24" cy="-105" fill="#00bfff" stroke="#00bfff" rx="106.68" ry="18"/><text x="310.24" y="-101.3" font-family="Times,serif" font-size="14" text-anchor="middle">वेगवन्तः(1.1)</text></g><g id="node2" class="node"><title>Node3_1</title><ellipse cx="541.24" cy="-192" fill="#00bfff" stroke="#00bfff" rx="50.89" ry="18"/><text x="541.24" y="-188.3" font-family="Times,serif" font-size="14" text-anchor="middle">ये(3.1)</text></g><g id="edge1" class="edge"><title>Node1_1-&gt;Node3_1</title><path fill="none" stroke="#000" d="M352.73,-126.58C373.43,-136.19 398.85,-147.38 422.24,-156 448.21,-165.57 478.09,-174.35 501.41,-180.72"/><polygon fill="#000" stroke="#000" points="354.12 -123.36 343.57 -122.29 351.15 -129.7 354.12 -123.36"/><text x="479.74" y="-144.8" font-family="Times,serif" font-size="14" text-anchor="middle">विशेषणम्</text></g><g id="node5" class="node"><title>Node6_1</title><ellipse cx="890.24" cy="-192" fill="#87ceeb" stroke="#87ceeb" rx="87.99" ry="18"/><text x="890.24" y="-188.3" font-family="Times,serif" font-size="14" text-anchor="middle">तेषाम्(6.1)</text></g><g id="edge3" class="edge"><title>Node3_1-&gt;Node6_1</title><path fill="none" stroke="red" stroke-dasharray="5 2" d="M602,-192C654.42,-192 731.11,-192 792.21,-192"/><polygon fill="red" stroke="red" points="601.99 -188.5 591.99 -192 601.99 -195.5 601.99 -188.5"/><polygon fill="red" stroke="red" points="792.26 -195.5 802.26 -192 792.26 -188.5 792.26 -195.5"/><text x="697.22" y="-177.8" font-family="Times,serif" font-size="14" text-anchor="middle">नित्य_सम्बन्धः</text></g><g id="node3" class="node"><title>Node2_1</title><ellipse cx="541.24" cy="-105" fill="#00bfff" stroke="#00bfff" rx="106.68" ry="18"/><text x="541.24" y="-101.3" font-family="Times,serif" font-size="14" text-anchor="middle">प्लवन्तः(2.1)</text></g><g id="edge2" class="edge"><title>Node2_1-&gt;Node3_1</title><path fill="none" stroke="#000" d="M541.24,-133.27C541.24,-146.58 541.24,-162.19 541.24,-173.82"/><polygon fill="#000" stroke="#000" points="544.74 -133.2 541.24 -123.2 537.74 -133.2 544.74 -133.2"/><text x="598.74" y="-144.8" font-family="Times,serif" font-size="14" text-anchor="middle">विशेषणम्</text></g><g id="node4" class="node"><title>Node4_2</title><ellipse cx="725.24" cy="-105" fill="#00bfff" stroke="#00bfff" rx="59.59" ry="18"/><text x="725.24" y="-101.3" font-family="Times,serif" font-size="14" text-anchor="middle">गाः(4.2)</text></g><g id="edge5" class="edge"><title>Node4_2-&gt;Node3_1</title><path fill="none" stroke="#000" d="M699.88,-129.04C688.43,-138.47 674.33,-148.83 660.24,-156 636.35,-168.16 607.55,-176.77 584.27,-182.41"/><polygon fill="#000" stroke="#000" points="702.34 -131.53 707.7 -122.4 697.81 -126.2 702.34 -131.53"/><text x="740.74" y="-144.8" font-family="Times,serif" font-size="14" text-anchor="middle">विशेषणम्</text></g><g id="node10" class="node"><title>Node7_1</title><ellipse cx="890.24" cy="-279" fill="#93db70" stroke="#93db70" rx="115.88" ry="18"/><text x="890.24" y="-275.3" font-family="Times,serif" font-size="14" text-anchor="middle">मुख्यतमम्(7.1)</text></g><g id="edge8" class="edge"><title>Node6_1-&gt;Node7_1</title><path fill="none" stroke="#000" d="M890.24,-220.27C890.24,-233.58 890.24,-249.19 890.24,-260.82"/><polygon fill="#000" stroke="#000" points="893.74 -220.2 890.24 -210.2 886.74 -220.2 893.74 -220.2"/><text x="961.74" y="-231.8" font-family="Times,serif" font-size="14" text-anchor="middle">निर्धारणम्</text></g><g id="node6" class="node"><title>Node4_1</title><ellipse cx="725.24" cy="-18" fill="#ff0" stroke="#ff0" rx="72.29" ry="18"/><text x="725.24" y="-14.3" font-family="Times,serif" font-size="14" text-anchor="middle">प्लव-(4.1)</text></g><g id="edge4" class="edge"><title>Node4_1-&gt;Node4_2</title><path fill="none" stroke="#000" d="M725.24,-46.27C725.24,-59.58 725.24,-75.19 725.24,-86.82"/><polygon fill="#000" stroke="#000" points="728.74 -46.2 725.24 -36.2 721.74 -46.2 728.74 -46.2"/><text x="821.74" y="-57.8" font-family="Times,serif" font-size="14" text-anchor="middle">उपपद_तत्पुरुषः</text></g><g id="node7" class="node"><title>Node5_1</title><ellipse cx="81.24" cy="-192" fill="#ff0" stroke="#ff0" rx="81.49" ry="18"/><text x="81.24" y="-188.3" font-family="Times,serif" font-size="14" text-anchor="middle">मारुत-(5.1)</text></g><g id="node8" class="node"><title>Node5_2</title><ellipse cx="101.24" cy="-279" fill="#6fffc3" stroke="#6fffc3" rx="78.79" ry="18"/><text x="101.24" y="-275.3" font-family="Times,serif" font-size="14" text-anchor="middle">आत्मज(5.2)</text></g><g id="edge6" class="edge"><title>Node5_1-&gt;Node5_2</title><path fill="none" stroke="#000" d="M87.66,-220.27C90.79,-233.58 94.46,-249.19 97.2,-260.82"/><polygon fill="#000" stroke="#000" points="90.99 -219.13 85.29 -210.2 84.17 -220.74 90.99 -219.13"/><text x="196.74" y="-231.8" font-family="Times,serif" font-size="14" text-anchor="middle">षष्ठी_तत्पुरुषः</text></g><g id="node9" class="node"><title>Node8_1</title><ellipse cx="500.24" cy="-366" fill="#ff1975" stroke="#ff1975" rx="78.79" ry="18"/><text x="500.24" y="-362.3" font-family="Times,serif" font-size="14" text-anchor="middle">मन्ये(8.1)</text></g><g id="edge7" class="edge"><title>Node5_2-&gt;Node8_1</title><path fill="none" stroke="#000" d="M138.84,-300.56C159.6,-311.02 186.2,-322.97 211.24,-330 281.44,-349.7 364.28,-358.31 423.24,-362.07"/><polygon fill="#000" stroke="#000" points="140.23 -297.34 129.74 -295.89 137.03 -303.57 140.23 -297.34"/><text x="275.74" y="-318.8" font-family="Times,serif" font-size="14" text-anchor="middle">सम्बोध्यः</text></g><g id="edge9" class="edge"><title>Node7_1-&gt;Node8_1</title><path fill="none" stroke="#000" d="M821.01,-297.02C779.66,-307.01 726.05,-319.67 678.24,-330 638.69,-338.55 593.99,-347.34 559.28,-353.97"/><polygon fill="#000" stroke="#000" points="822.08 -300.36 830.98 -294.6 820.44 -293.56 822.08 -300.36"/><text x="856.74" y="-318.8" font-family="Times,serif" font-size="14" text-anchor="middle">कर्मसमानाधिकरणम्</text></g><g id="node11" class="node"><title>Node9_1</title><ellipse cx="500.24" cy="-279" fill="#93db70" stroke="#93db70" rx="87.99" ry="18"/><text x="500.24" y="-275.3" font-family="Times,serif" font-size="14" text-anchor="middle">त्वाम्(9.1)</text></g><g id="edge10" class="edge"><title>Node9_1-&gt;Node8_1</title><path fill="none" stroke="#000" d="M500.24,-307.27C500.24,-320.58 500.24,-336.19 500.24,-347.82"/><polygon fill="#000" stroke="#000" points="503.74 -307.2 500.24 -297.2 496.74 -307.2 503.74 -307.2"/><text x="529.24" y="-318.8" font-family="Times,serif" font-size="14" text-anchor="middle">कर्म</text></g><g id="node12" class="node"><title>Node10_1</title><ellipse cx="681.24" cy="-279" fill="#00bfff" stroke="#00bfff" rx="75.29" ry="18"/><text x="681.24" y="-275.3" font-family="Times,serif" font-size="14" text-anchor="middle">अहम्(10.1)</text></g><g id="edge11" class="edge"><title>Node10_1-&gt;Node8_1</title><path fill="none" stroke="#000" d="M639.26,-299.72C606.93,-314.9 562.87,-335.59 533.08,-349.58"/><polygon fill="#000" stroke="#000" points="640.9 -302.81 648.47 -295.39 637.93 -296.48 640.9 -302.81"/><text x="638.24" y="-318.8" font-family="Times,serif" font-size="14" text-anchor="middle">कर्ता</text></g><g id="node13" class="node"><title>Node11_1</title><ellipse cx="311.24" cy="-192" fill="#ff0" stroke="#ff0" rx="68.79" ry="18"/><text x="311.24" y="-188.3" font-family="Times,serif" font-size="14" text-anchor="middle">कपि-(11.1)</text></g><g id="node14" class="node"><title>Node11_2</title><ellipse cx="301.24" cy="-279" fill="#6fffc3" stroke="#6fffc3" rx="93.68" ry="18"/><text x="301.24" y="-275.3" font-family="Times,serif" font-size="14" text-anchor="middle">कुञ्जर(11.2)</text></g><g id="edge12" class="edge"><title>Node11_1-&gt;Node11_2</title><path fill="none" stroke="#000" d="M308.04,-220.27C306.47,-233.58 304.63,-249.19 303.26,-260.82"/><polygon fill="#000" stroke="#000" points="311.53 -220.54 309.22 -210.2 304.57 -219.72 311.53 -220.54"/><text x="417.74" y="-231.8" font-family="Times,serif" font-size="14" text-anchor="middle">सप्तमी_तत्पुरुषः</text></g><g id="edge13" class="edge"><title>Node11_2-&gt;Node8_1</title><path fill="none" stroke="#000" d="M327.21,-303.43C338.78,-312.83 352.99,-323.07 367.24,-330 389.89,-341.02 416.46,-348.9 439.87,-354.36"/><polygon fill="#000" stroke="#000" points="329.2 -300.53 319.29 -296.78 324.7 -305.89 329.2 -300.53"/><text x="431.74" y="-318.8" font-family="Times,serif" font-size="14" text-anchor="middle">सम्बोध्यः</text></g></g></svg>