<?xml version="1.0" encoding="UTF-8" standalone="no"?>
<!DOCTYPE svg PUBLIC "-//W3C//DTD SVG 1.1//EN"
 "http://www.w3.org/Graphics/SVG/1.1/DTD/svg11.dtd">
<!-- Generated by graphviz version 2.43.0 (0)
 -->
<!-- Title: G Pages: 1 -->
<svg width="2354pt" height="321pt"
 viewBox="0.00 0.00 2354.00 321.00" xmlns="http://www.w3.org/2000/svg" xmlns:xlink="http://www.w3.org/1999/xlink">
<g id="graph0" class="graph" transform="scale(1 1) rotate(0) translate(4 317)">
<title>G</title>
<polygon fill="#fffacd" stroke="transparent" points="-4,4 -4,-317 2350,-317 2350,4 -4,4"/>
<g id="clust1" class="cluster">
<title>cluster_1</title>
<polygon fill="#fffacd" stroke="black" points="8,-8 8,-147 230,-147 230,-8 8,-8"/>
</g>
<g id="clust2" class="cluster">
<title>cluster_2</title>
<polygon fill="#fffacd" stroke="black" points="238,-95 238,-234 1056,-234 1056,-95 238,-95"/>
</g>
<!-- Node1_1 -->
<g id="node1" class="node">
<title>Node1_1</title>
<ellipse fill="#00bfff" stroke="#00bfff" cx="107" cy="-34" rx="59.59" ry="18"/>
<text text-anchor="middle" x="107" y="-30.3" font-family="Times,serif" font-size="14.00">तत्(1.1)</text>
</g>
<!-- Node10_2 -->
<g id="node2" class="node">
<title>Node10_2</title>
<ellipse fill="#00bfff" stroke="#00bfff" cx="119" cy="-121" rx="102.88" ry="18"/>
<text text-anchor="middle" x="119" y="-117.3" font-family="Times,serif" font-size="14.00">दर्शनम्(10.2)</text>
</g>
<!-- Node1_1&#45;&gt;Node10_2 -->
<g id="edge1" class="edge">
<title>Node1_1&#45;&gt;Node10_2</title>
<path fill="none" stroke="black" d="M110.85,-62.27C112.73,-75.58 114.93,-91.19 116.58,-102.82"/>
<polygon fill="black" stroke="black" points="114.29,-61.61 109.43,-52.2 107.36,-62.59 114.29,-61.61"/>
<text text-anchor="middle" x="171.5" y="-73.8" font-family="Times,serif" font-size="14.00">विशेषणम्</text>
</g>
<!-- Node9_1 -->
<g id="node3" class="node">
<title>Node9_1</title>
<ellipse fill="#00bfff" stroke="#00bfff" cx="480" cy="-208" rx="106.68" ry="18"/>
<text text-anchor="middle" x="480" y="-204.3" font-family="Times,serif" font-size="14.00">सत्त्वम्(9.1)</text>
</g>
<!-- Node10_2&#45;&gt;Node9_1 -->
<g id="edge10" class="edge">
<title>Node10_2&#45;&gt;Node9_1</title>
<path fill="none" stroke="black" d="M157.48,-143.21C177.63,-153.43 203.04,-164.97 227,-172 277.52,-186.83 335.61,-195.43 383.38,-200.4"/>
<polygon fill="black" stroke="black" points="158.82,-139.96 148.33,-138.48 155.61,-146.18 158.82,-139.96"/>
<text text-anchor="middle" x="284.5" y="-160.8" font-family="Times,serif" font-size="14.00">विशेषणम्</text>
</g>
<!-- Node18_1 -->
<g id="node16" class="node">
<title>Node18_1</title>
<ellipse fill="#ff1975" stroke="#ff1975" cx="480" cy="-295" rx="90.98" ry="18"/>
<text text-anchor="middle" x="480" y="-291.3" font-family="Times,serif" font-size="14.00">(अस्ति)(18.1)</text>
</g>
<!-- Node9_1&#45;&gt;Node18_1 -->
<g id="edge8" class="edge">
<title>Node9_1&#45;&gt;Node18_1</title>
<path fill="none" stroke="black" d="M480,-236.27C480,-249.58 480,-265.19 480,-276.82"/>
<polygon fill="black" stroke="black" points="483.5,-236.2 480,-226.2 476.5,-236.2 483.5,-236.2"/>
<text text-anchor="middle" x="516" y="-247.8" font-family="Times,serif" font-size="14.00">कर्ता</text>
</g>
<!-- Node11_1 -->
<g id="node4" class="node">
<title>Node11_1</title>
<ellipse fill="#00bfff" stroke="#00bfff" cx="917" cy="-121" rx="130.78" ry="18"/>
<text text-anchor="middle" x="917" y="-117.3" font-family="Times,serif" font-size="14.00">छायाग्राहि(11.1)</text>
</g>
<!-- Node11_1&#45;&gt;Node9_1 -->
<g id="edge11" class="edge">
<title>Node11_1&#45;&gt;Node9_1</title>
<path fill="none" stroke="black" d="M859.1,-140.84C825.26,-151.27 781.56,-163.75 742,-172 685.28,-183.83 620.79,-192.5 569.98,-198.25"/>
<polygon fill="black" stroke="black" points="860.31,-144.13 868.82,-137.82 858.23,-137.44 860.31,-144.13"/>
<text text-anchor="middle" x="858.5" y="-160.8" font-family="Times,serif" font-size="14.00">विशेषणम्</text>
</g>
<!-- Node12_2 -->
<g id="node5" class="node">
<title>Node12_2</title>
<ellipse fill="#00bfff" stroke="#00bfff" cx="666" cy="-121" rx="102.88" ry="18"/>
<text text-anchor="middle" x="666" y="-117.3" font-family="Times,serif" font-size="14.00">वीर्यम्(12.2)</text>
</g>
<!-- Node12_2&#45;&gt;Node9_1 -->
<g id="edge13" class="edge">
<title>Node12_2&#45;&gt;Node9_1</title>
<path fill="none" stroke="black" d="M639.23,-145.42C627.51,-154.73 613.21,-164.9 599,-172 581.18,-180.91 560.7,-187.95 541.82,-193.31"/>
<polygon fill="black" stroke="black" points="641.75,-147.88 647.27,-138.84 637.32,-142.46 641.75,-147.88"/>
<text text-anchor="middle" x="680.5" y="-160.8" font-family="Times,serif" font-size="14.00">विशेषणम्</text>
</g>
<!-- Node13_1 -->
<g id="node6" class="node">
<title>Node13_1</title>
<ellipse fill="#00bfff" stroke="#00bfff" cx="480" cy="-121" rx="65.79" ry="18"/>
<text text-anchor="middle" x="480" y="-117.3" font-family="Times,serif" font-size="14.00">तत्(13.1)</text>
</g>
<!-- Node13_1&#45;&gt;Node9_1 -->
<g id="edge14" class="edge">
<title>Node13_1&#45;&gt;Node9_1</title>
<path fill="none" stroke="black" d="M480,-149.27C480,-162.58 480,-178.19 480,-189.82"/>
<polygon fill="black" stroke="black" points="483.5,-149.2 480,-139.2 476.5,-149.2 483.5,-149.2"/>
<text text-anchor="middle" x="537.5" y="-160.8" font-family="Times,serif" font-size="14.00">विशेषणम्</text>
</g>
<!-- Node14_1 -->
<g id="node7" class="node">
<title>Node14_1</title>
<ellipse fill="#00bfff" stroke="#00bfff" cx="321" cy="-121" rx="75.29" ry="18"/>
<text text-anchor="middle" x="321" y="-117.3" font-family="Times,serif" font-size="14.00">इदम्(14.1)</text>
</g>
<!-- Node14_1&#45;&gt;Node9_1 -->
<g id="edge15" class="edge">
<title>Node14_1&#45;&gt;Node9_1</title>
<path fill="none" stroke="black" d="M336.58,-147.38C343.15,-156.27 351.49,-165.62 361,-172 375.84,-181.96 393.57,-189.14 410.75,-194.3"/>
<polygon fill="black" stroke="black" points="339.43,-145.33 330.85,-139.11 333.67,-149.32 339.43,-145.33"/>
<text text-anchor="middle" x="418.5" y="-160.8" font-family="Times,serif" font-size="14.00">विशेषणम्</text>
</g>
<!-- Node2_1 -->
<g id="node8" class="node">
<title>Node2_1</title>
<ellipse fill="#ff99ff" stroke="#ff99ff" cx="1383" cy="-121" rx="106.68" ry="18"/>
<text text-anchor="middle" x="1383" y="-117.3" font-family="Times,serif" font-size="14.00">दृष्ट्वा(2.1)</text>
</g>
<!-- Node3_1 -->
<g id="node9" class="node">
<title>Node3_1</title>
<ellipse fill="#ff1975" stroke="#ff1975" cx="1255" cy="-208" rx="124.58" ry="18"/>
<text text-anchor="middle" x="1255" y="-204.3" font-family="Times,serif" font-size="14.00">चिन्तयामास(3.1)</text>
</g>
<!-- Node2_1&#45;&gt;Node3_1 -->
<g id="edge2" class="edge">
<title>Node2_1&#45;&gt;Node3_1</title>
<path fill="none" stroke="black" d="M1349.46,-144.27C1327.83,-158.64 1300.15,-177.02 1280.36,-190.16"/>
<polygon fill="black" stroke="black" points="1351.62,-147.04 1358.02,-138.59 1347.75,-141.21 1351.62,-147.04"/>
<text text-anchor="middle" x="1390.5" y="-160.8" font-family="Times,serif" font-size="14.00">पूर्वकालः</text>
</g>
<!-- Node4_1 -->
<g id="node10" class="node">
<title>Node4_1</title>
<ellipse fill="#00bfff" stroke="#00bfff" cx="1162" cy="-121" rx="96.68" ry="18"/>
<text text-anchor="middle" x="1162" y="-117.3" font-family="Times,serif" font-size="14.00">मारुतिः(4.1)</text>
</g>
<!-- Node4_1&#45;&gt;Node3_1 -->
<g id="edge3" class="edge">
<title>Node4_1&#45;&gt;Node3_1</title>
<path fill="none" stroke="black" d="M1188.02,-145.78C1203.39,-159.83 1222.48,-177.28 1236.35,-189.95"/>
<polygon fill="black" stroke="black" points="1190.12,-142.96 1180.37,-138.79 1185.39,-148.12 1190.12,-142.96"/>
<text text-anchor="middle" x="1250" y="-160.8" font-family="Times,serif" font-size="14.00">कर्ता</text>
</g>
<!-- Node5_1 -->
<g id="node11" class="node">
<title>Node5_1</title>
<ellipse fill="#93db70" stroke="#93db70" cx="1383" cy="-34" rx="133.78" ry="18"/>
<text text-anchor="middle" x="1383" y="-30.3" font-family="Times,serif" font-size="14.00">विकृताननाम्(5.1)</text>
</g>
<!-- Node5_1&#45;&gt;Node2_1 -->
<g id="edge4" class="edge">
<title>Node5_1&#45;&gt;Node2_1</title>
<path fill="none" stroke="black" d="M1383,-62.27C1383,-75.58 1383,-91.19 1383,-102.82"/>
<polygon fill="black" stroke="black" points="1386.5,-62.2 1383,-52.2 1379.5,-62.2 1386.5,-62.2"/>
<text text-anchor="middle" x="1412" y="-73.8" font-family="Times,serif" font-size="14.00">कर्म</text>
</g>
<!-- Node6_1 -->
<g id="node12" class="node">
<title>Node6_1</title>
<ellipse fill="#ffff00" stroke="#ffff00" cx="1598" cy="-34" rx="63.09" ry="18"/>
<text text-anchor="middle" x="1598" y="-30.3" font-family="Times,serif" font-size="14.00">कपि&#45;(6.1)</text>
</g>
<!-- Node6_2 -->
<g id="node13" class="node">
<title>Node6_2</title>
<ellipse fill="#40e0d0" stroke="#40e0d0" cx="1598" cy="-121" rx="87.99" ry="18"/>
<text text-anchor="middle" x="1598" y="-117.3" font-family="Times,serif" font-size="14.00">राज्ञा(6.2)</text>
</g>
<!-- Node6_1&#45;&gt;Node6_2 -->
<g id="edge5" class="edge">
<title>Node6_1&#45;&gt;Node6_2</title>
<path fill="none" stroke="black" d="M1598,-62.27C1598,-75.58 1598,-91.19 1598,-102.82"/>
<polygon fill="black" stroke="black" points="1601.5,-62.2 1598,-52.2 1594.5,-62.2 1601.5,-62.2"/>
<text text-anchor="middle" x="1701.5" y="-73.8" font-family="Times,serif" font-size="14.00">षष्ठी_तत्पुरुषः</text>
</g>
<!-- Node8_1 -->
<g id="node14" class="node">
<title>Node8_1</title>
<ellipse fill="#00bfff" stroke="#00bfff" cx="1699" cy="-208" rx="106.68" ry="18"/>
<text text-anchor="middle" x="1699" y="-204.3" font-family="Times,serif" font-size="14.00">आख्यातम्(8.1)</text>
</g>
<!-- Node6_2&#45;&gt;Node8_1 -->
<g id="edge6" class="edge">
<title>Node6_2&#45;&gt;Node8_1</title>
<path fill="none" stroke="black" d="M1622.07,-145.93C1630.94,-154.42 1641.22,-163.87 1651,-172 1658.46,-178.19 1666.91,-184.56 1674.62,-190.13"/>
<polygon fill="black" stroke="black" points="1624.3,-143.22 1614.69,-138.78 1619.44,-148.25 1624.3,-143.22"/>
<text text-anchor="middle" x="1687" y="-160.8" font-family="Times,serif" font-size="14.00">कर्ता</text>
</g>
<!-- Node7_1 -->
<g id="node15" class="node">
<title>Node7_1</title>
<ellipse fill="#ff99ff" stroke="#ff99ff" cx="1764" cy="-121" rx="59.59" ry="18"/>
<text text-anchor="middle" x="1764" y="-117.3" font-family="Times,serif" font-size="14.00">यथा(7.1)</text>
</g>
<!-- Node7_1&#45;&gt;Node8_1 -->
<g id="edge7" class="edge">
<title>Node7_1&#45;&gt;Node8_1</title>
<path fill="none" stroke="black" d="M1744.92,-146.95C1734.34,-160.78 1721.46,-177.63 1712.04,-189.95"/>
<polygon fill="black" stroke="black" points="1747.86,-148.86 1751.16,-138.79 1742.3,-144.61 1747.86,-148.86"/>
<text text-anchor="middle" x="1792.5" y="-160.8" font-family="Times,serif" font-size="14.00">सम्बन्धः</text>
</g>
<!-- Node10_1 -->
<g id="node17" class="node">
<title>Node10_1</title>
<ellipse fill="#ffff00" stroke="#ffff00" cx="335" cy="-34" rx="96.68" ry="18"/>
<text text-anchor="middle" x="335" y="-30.3" font-family="Times,serif" font-size="14.00">अद्भुत&#45;(10.1)</text>
</g>
<!-- Node10_1&#45;&gt;Node10_2 -->
<g id="edge9" class="edge">
<title>Node10_1&#45;&gt;Node10_2</title>
<path fill="none" stroke="black" d="M296.1,-55.87C277.34,-65.46 254.33,-76.56 233,-85 213.46,-92.73 191.49,-99.84 172.1,-105.59"/>
<polygon fill="black" stroke="black" points="297.94,-58.86 305.21,-51.15 294.72,-52.64 297.94,-58.86"/>
<text text-anchor="middle" x="339.5" y="-73.8" font-family="Times,serif" font-size="14.00">बहुव्रीहिः</text>
</g>
<!-- Node12_1 -->
<g id="node18" class="node">
<title>Node12_1</title>
<ellipse fill="#ffff00" stroke="#ffff00" cx="1869" cy="-34" rx="68.79" ry="18"/>
<text text-anchor="middle" x="1869" y="-30.3" font-family="Times,serif" font-size="14.00">महा&#45;(12.1)</text>
</g>
<!-- Node13_2 -->
<g id="node19" class="node">
<title>Node13_2</title>
<ellipse fill="lightgrey" stroke="black" cx="1869" cy="-121" rx="27" ry="18"/>
</g>
<!-- Node12_1&#45;&gt;Node13_2 -->
<g id="edge12" class="edge">
<title>Node12_1&#45;&gt;Node13_2</title>
<path fill="none" stroke="black" d="M1869,-62.27C1869,-75.58 1869,-91.19 1869,-102.82"/>
<polygon fill="black" stroke="black" points="1872.5,-62.2 1869,-52.2 1865.5,-62.2 1872.5,-62.2"/>
<text text-anchor="middle" x="1940.5" y="-73.8" font-family="Times,serif" font-size="14.00">बहुव्रीहिः</text>
</g>
<!-- Node15_1 -->
<g id="node20" class="node">
<title>Node15_1</title>
<ellipse fill="#ff99ff" stroke="#ff99ff" cx="2035" cy="-34" rx="47.39" ry="18"/>
<text text-anchor="middle" x="2035" y="-30.3" font-family="Times,serif" font-size="14.00">न(15.1)</text>
</g>
<!-- Node17_1 -->
<g id="node21" class="node">
<title>Node17_1</title>
<ellipse fill="#00bfff" stroke="#00bfff" cx="2111" cy="-121" rx="84.49" ry="18"/>
<text text-anchor="middle" x="2111" y="-117.3" font-family="Times,serif" font-size="14.00">संशयः(17.1)</text>
</g>
<!-- Node15_1&#45;&gt;Node17_1 -->
<g id="edge16" class="edge">
<title>Node15_1&#45;&gt;Node17_1</title>
<path fill="none" stroke="black" d="M2030.34,-62.08C2030.29,-70.01 2031.65,-78.32 2036,-85 2042.11,-94.39 2051.47,-101.31 2061.51,-106.39"/>
<polygon fill="black" stroke="black" points="2033.83,-62.3 2031.08,-52.07 2026.85,-61.78 2033.83,-62.3"/>
<text text-anchor="middle" x="2100.5" y="-73.8" font-family="Times,serif" font-size="14.00">प्रतिषेधः</text>
</g>
<!-- Node16_1 -->
<g id="node22" class="node">
<title>Node16_1</title>
<ellipse fill="#ff99ff" stroke="#ff99ff" cx="2187" cy="-34" rx="75.29" ry="18"/>
<text text-anchor="middle" x="2187" y="-30.3" font-family="Times,serif" font-size="14.00">अत्र(16.1)</text>
</g>
<!-- Node16_1&#45;&gt;Node17_1 -->
<g id="edge17" class="edge">
<title>Node16_1&#45;&gt;Node17_1</title>
<path fill="none" stroke="black" d="M2178.64,-61.61C2175.26,-69.69 2170.77,-78.22 2165,-85 2158.63,-92.49 2150.26,-98.96 2142.01,-104.24"/>
<polygon fill="black" stroke="black" points="2181.97,-62.71 2182.23,-52.12 2175.42,-60.24 2181.97,-62.71"/>
<text text-anchor="middle" x="2260" y="-73.8" font-family="Times,serif" font-size="14.00">विषयाधिकरणम्</text>
</g>
</g>
</svg>
