<?xml version="1.0" encoding="UTF-8" standalone="no"?>
<!DOCTYPE svg PUBLIC "-//W3C//DTD SVG 1.1//EN"
 "http://www.w3.org/Graphics/SVG/1.1/DTD/svg11.dtd">
<!-- Generated by graphviz version 2.43.0 (0)
 -->
<!-- Title: G Pages: 1 -->
<svg width="1401pt" height="321pt"
 viewBox="0.00 0.00 1401.00 321.00" xmlns="http://www.w3.org/2000/svg" xmlns:xlink="http://www.w3.org/1999/xlink">
<g id="graph0" class="graph" transform="scale(1 1) rotate(0) translate(4 317)">
<title>G</title>
<polygon fill="#fffacd" stroke="transparent" points="-4,4 -4,-317 1397,-317 1397,4 -4,4"/>
<g id="clust1" class="cluster">
<title>cluster_1</title>
<polygon fill="#fffacd" stroke="black" points="8,-8 8,-147 256,-147 256,-8 8,-8"/>
</g>
<!-- Node7_1 -->
<g id="node1" class="node">
<title>Node7_1</title>
<ellipse fill="#93db70" stroke="#93db70" cx="132" cy="-34" rx="115.88" ry="18"/>
<text text-anchor="middle" x="132" y="-30.3" font-family="Times,serif" font-size="14.00">पराक्रमम्(7.1)</text>
</g>
<!-- Node1_1 -->
<g id="node2" class="node">
<title>Node1_1</title>
<ellipse fill="#93db70" stroke="#93db70" cx="178" cy="-121" rx="69.59" ry="18"/>
<text text-anchor="middle" x="178" y="-117.3" font-family="Times,serif" font-size="14.00">बलम्(1.1)</text>
</g>
<!-- Node7_1&#45;&gt;Node1_1 -->
<g id="edge6" class="edge">
<title>Node7_1&#45;&gt;Node1_1</title>
<path fill="none" stroke="black" d="M131.68,-62.19C132.52,-69.91 134.35,-78.09 138,-85 141.79,-92.18 147.7,-98.56 153.83,-103.84"/>
<polygon fill="black" stroke="black" points="135.17,-61.88 131.07,-52.11 128.18,-62.3 135.17,-61.88"/>
<text text-anchor="middle" x="202.5" y="-73.8" font-family="Times,serif" font-size="14.00">समुच्चितः</text>
</g>
<!-- Node3_1 -->
<g id="node3" class="node">
<title>Node3_1</title>
<ellipse fill="#ff99ff" stroke="#ff99ff" cx="178" cy="-208" rx="106.68" ry="18"/>
<text text-anchor="middle" x="178" y="-204.3" font-family="Times,serif" font-size="14.00">ज्ञातुम्(3.1)</text>
</g>
<!-- Node1_1&#45;&gt;Node3_1 -->
<g id="edge1" class="edge">
<title>Node1_1&#45;&gt;Node3_1</title>
<path fill="none" stroke="black" d="M178,-149.27C178,-162.58 178,-178.19 178,-189.82"/>
<polygon fill="black" stroke="black" points="181.5,-149.2 178,-139.2 174.5,-149.2 181.5,-149.2"/>
<text text-anchor="middle" x="207" y="-160.8" font-family="Times,serif" font-size="14.00">कर्म</text>
</g>
<!-- Node2_1 -->
<g id="node4" class="node">
<title>Node2_1</title>
<ellipse fill="#ff1975" stroke="#ff1975" cx="275" cy="-295" rx="150.27" ry="18"/>
<text text-anchor="middle" x="275" y="-291.3" font-family="Times,serif" font-size="14.00">इच्छामहे(आर्ष)(2.1)</text>
</g>
<!-- Node3_1&#45;&gt;Node2_1 -->
<g id="edge2" class="edge">
<title>Node3_1&#45;&gt;Node2_1</title>
<path fill="none" stroke="black" d="M204.7,-232.4C220.8,-246.51 240.95,-264.16 255.54,-276.95"/>
<polygon fill="black" stroke="black" points="206.99,-229.75 197.16,-225.79 202.38,-235.02 206.99,-229.75"/>
<text text-anchor="middle" x="262" y="-247.8" font-family="Times,serif" font-size="14.00">कर्म</text>
</g>
<!-- Node4_1 -->
<g id="node5" class="node">
<title>Node4_1</title>
<ellipse fill="#ff99ff" stroke="#ff99ff" cx="372" cy="-208" rx="69.59" ry="18"/>
<text text-anchor="middle" x="372" y="-204.3" font-family="Times,serif" font-size="14.00">भूयः(4.1)</text>
</g>
<!-- Node4_1&#45;&gt;Node2_1 -->
<g id="edge3" class="edge">
<title>Node4_1&#45;&gt;Node2_1</title>
<path fill="none" stroke="black" d="M345.72,-232.03C329.49,-246.25 309.04,-264.17 294.31,-277.08"/>
<polygon fill="black" stroke="black" points="348.08,-234.61 353.3,-225.39 343.47,-229.35 348.08,-234.61"/>
<text text-anchor="middle" x="387.5" y="-247.8" font-family="Times,serif" font-size="14.00">सम्बन्धः</text>
</g>
<!-- Node5_1 -->
<g id="node6" class="node">
<title>Node5_1</title>
<ellipse fill="#ff99ff" stroke="#ff99ff" cx="307" cy="-34" rx="41.69" ry="18"/>
<text text-anchor="middle" x="307" y="-30.3" font-family="Times,serif" font-size="14.00">च(5.1)</text>
</g>
<!-- Node5_1&#45;&gt;Node1_1 -->
<g id="edge4" class="edge">
<title>Node5_1&#45;&gt;Node1_1</title>
<path fill="none" stroke="black" d="M291.1,-59.93C284.5,-68.77 276.22,-78.2 267,-85 254.04,-94.56 238.12,-101.9 223.35,-107.33"/>
<polygon fill="black" stroke="black" points="293.98,-61.93 296.89,-51.74 288.26,-57.89 293.98,-61.93"/>
<text text-anchor="middle" x="386.5" y="-73.8" font-family="Times,serif" font-size="14.00">समुच्चय_द्योतकः</text>
</g>
<!-- Node6_1 -->
<g id="node7" class="node">
<title>Node6_1</title>
<ellipse fill="#87ceeb" stroke="#87ceeb" cx="519" cy="-34" rx="69.59" ry="18"/>
<text text-anchor="middle" x="519" y="-30.3" font-family="Times,serif" font-size="14.00">अस्य(6.1)</text>
</g>
<!-- Node6_1&#45;&gt;Node1_1 -->
<g id="edge5" class="edge">
<title>Node6_1&#45;&gt;Node1_1</title>
<path fill="none" stroke="black" d="M511.36,-61.82C507.55,-70.56 501.98,-79.44 494,-85 455.45,-111.87 328.42,-118.48 247.64,-119.89"/>
<polygon fill="black" stroke="black" points="514.74,-62.79 514.97,-52.19 508.18,-60.33 514.74,-62.79"/>
<text text-anchor="middle" x="600" y="-73.8" font-family="Times,serif" font-size="14.00">षष्ठीसम्बन्धः</text>
</g>
<!-- Node8_1 -->
<g id="node8" class="node">
<title>Node8_1</title>
<ellipse fill="#93db70" stroke="#93db70" cx="728" cy="-34" rx="87.99" ry="18"/>
<text text-anchor="middle" x="728" y="-30.3" font-family="Times,serif" font-size="14.00">त्वाम्(8.1)</text>
</g>
<!-- Node9_1 -->
<g id="node9" class="node">
<title>Node9_1</title>
<ellipse fill="#ff1975" stroke="#ff1975" cx="789" cy="-121" rx="159.47" ry="18"/>
<text text-anchor="middle" x="789" y="-117.3" font-family="Times,serif" font-size="14.00">विजेष्यति(आर्ष)(9.1)</text>
</g>
<!-- Node8_1&#45;&gt;Node9_1 -->
<g id="edge7" class="edge">
<title>Node8_1&#45;&gt;Node9_1</title>
<path fill="none" stroke="black" d="M746.44,-60.7C756.23,-74.34 768,-90.73 776.67,-102.82"/>
<polygon fill="black" stroke="black" points="749.02,-58.28 740.34,-52.2 743.33,-62.37 749.02,-58.28"/>
<text text-anchor="middle" x="792" y="-73.8" font-family="Times,serif" font-size="14.00">कर्म</text>
</g>
<!-- Node10_1 -->
<g id="node10" class="node">
<title>Node10_1</title>
<ellipse fill="#40e0d0" stroke="#40e0d0" cx="927" cy="-34" rx="93.68" ry="18"/>
<text text-anchor="middle" x="927" y="-30.3" font-family="Times,serif" font-size="14.00">उपायेन(10.1)</text>
</g>
<!-- Node10_1&#45;&gt;Node9_1 -->
<g id="edge8" class="edge">
<title>Node10_1&#45;&gt;Node9_1</title>
<path fill="none" stroke="black" d="M891.79,-56.69C868.39,-71.1 838.1,-89.76 816.47,-103.08"/>
<polygon fill="black" stroke="black" points="893.71,-59.61 900.39,-51.39 890.04,-53.65 893.71,-59.61"/>
<text text-anchor="middle" x="903" y="-73.8" font-family="Times,serif" font-size="14.00">करणम्</text>
</g>
<!-- Node11_1 -->
<g id="node11" class="node">
<title>Node11_1</title>
<ellipse fill="#93db70" stroke="#93db70" cx="1141" cy="-34" rx="102.88" ry="18"/>
<text text-anchor="middle" x="1141" y="-30.3" font-family="Times,serif" font-size="14.00">विषादम्(11.1)</text>
</g>
<!-- Node13_1 -->
<g id="node12" class="node">
<title>Node13_1</title>
<ellipse fill="#ff1975" stroke="#ff1975" cx="1229" cy="-121" rx="112.38" ry="18"/>
<text text-anchor="middle" x="1229" y="-117.3" font-family="Times,serif" font-size="14.00">गमिष्यति(13.1)</text>
</g>
<!-- Node11_1&#45;&gt;Node13_1 -->
<g id="edge9" class="edge">
<title>Node11_1&#45;&gt;Node13_1</title>
<path fill="none" stroke="black" d="M1165.62,-58.78C1180.16,-72.83 1198.23,-90.28 1211.35,-102.95"/>
<polygon fill="black" stroke="black" points="1168.01,-56.22 1158.39,-51.79 1163.15,-61.26 1168.01,-56.22"/>
<text text-anchor="middle" x="1219" y="-73.8" font-family="Times,serif" font-size="14.00">कर्म</text>
</g>
<!-- Node12_1 -->
<g id="node13" class="node">
<title>Node12_1</title>
<ellipse fill="#ff99ff" stroke="#ff99ff" cx="1318" cy="-34" rx="56.59" ry="18"/>
<text text-anchor="middle" x="1318" y="-30.3" font-family="Times,serif" font-size="14.00">वा(12.1)</text>
</g>
<!-- Node12_1&#45;&gt;Node13_1 -->
<g id="edge10" class="edge">
<title>Node12_1&#45;&gt;Node13_1</title>
<path fill="none" stroke="black" d="M1293.48,-58.42C1278.66,-72.57 1260.11,-90.29 1246.72,-103.08"/>
<polygon fill="black" stroke="black" points="1296.03,-60.83 1300.84,-51.39 1291.19,-55.76 1296.03,-60.83"/>
<text text-anchor="middle" x="1335.5" y="-73.8" font-family="Times,serif" font-size="14.00">सम्बन्धः</text>
</g>
</g>
</svg>
