<svg xmlns="http://www.w3.org/2000/svg" xmlns:xlink="http://www.w3.org/1999/xlink" width="842pt" height="479pt" viewBox="0 0 842 479"><g id="graph0" class="graph" transform="scale(1 1) rotate(0) translate(4 475)"><title>G</title><polygon fill="#fffacd" stroke="transparent" points="-4 4 -4 -475 838 -475 838 4 -4 4"/><g id="clust1" class="cluster"><title>cluster_1</title><polygon fill="#fffacd" stroke="#000" points="578 -166 578 -305 826 -305 826 -166 578 -166"/></g><g id="clust2" class="cluster"><title>cluster_2</title><polygon fill="#fffacd" stroke="#000" points="8 -166 8 -305 230 -305 230 -166 8 -166"/></g><g id="node1" class="node"><title>Node4_1</title><ellipse cx="702" cy="-192" fill="#40e0d0" stroke="#40e0d0" rx="115.88" ry="18"/><text x="702" y="-188.3" font-family="Times,serif" font-size="14" text-anchor="middle">तीक्ष्णैः(4.1)</text></g><g id="node2" class="node"><title>Node3_1</title><ellipse cx="679" cy="-279" fill="#40e0d0" stroke="#40e0d0" rx="69.59" ry="18"/><text x="679" y="-275.3" font-family="Times,serif" font-size="14" text-anchor="middle">नखैः(3.1)</text></g><g id="edge4" class="edge"><title>Node4_1-&gt;Node3_1</title><path fill="none" stroke="#000" d="M694.73,-219.87C691.1,-233.27 686.83,-249.08 683.65,-260.82"/><polygon fill="#000" stroke="#000" points="698.11 -220.77 697.35 -210.2 691.36 -218.94 698.11 -220.77"/><text x="748.5" y="-231.8" font-family="Times,serif" font-size="14" text-anchor="middle">विशेषणम्</text></g><g id="node6" class="node"><title>Node6_1</title><ellipse cx="322" cy="-366" fill="#f9f" stroke="#f9f" rx="106.68" ry="18"/><text x="322" y="-362.3" font-family="Times,serif" font-size="14" text-anchor="middle">उत्कृत्य(6.1)</text></g><g id="edge3" class="edge"><title>Node3_1-&gt;Node6_1</title><path fill="none" stroke="#000" d="M627.5,-296.5C593.74,-306.95 548.52,-320.29 508,-330 471.25,-338.81 429.99,-346.76 395.68,-352.86"/><polygon fill="#000" stroke="#000" points="628.64 -299.81 637.14 -293.49 626.56 -293.13 628.64 -299.81"/><text x="600" y="-318.8" font-family="Times,serif" font-size="14" text-anchor="middle">करणम्</text></g><g id="node3" class="node"><title>Node11_3</title><ellipse cx="119" cy="-192" fill="#00bfff" stroke="#00bfff" rx="102.88" ry="18"/><text x="119" y="-188.3" font-family="Times,serif" font-size="14" text-anchor="middle">विक्रमः(11.3)</text></g><g id="node4" class="node"><title>Node7_1</title><ellipse cx="125" cy="-279" fill="#00bfff" stroke="#00bfff" rx="78.79" ry="18"/><text x="125" y="-275.3" font-family="Times,serif" font-size="14" text-anchor="middle">वानरः(7.1)</text></g><g id="edge13" class="edge"><title>Node11_3-&gt;Node7_1</title><path fill="none" stroke="#000" d="M120.92,-220.27C121.86,-233.58 122.97,-249.19 123.79,-260.82"/><polygon fill="#000" stroke="#000" points="124.41 -219.93 120.21 -210.2 117.43 -220.42 124.41 -219.93"/><text x="180.5" y="-231.8" font-family="Times,serif" font-size="14" text-anchor="middle">विशेषणम्</text></g><g id="edge8" class="edge"><title>Node7_1-&gt;Node6_1</title><path fill="none" stroke="#000" stroke-dasharray="1 5" d="M166.1,-299.98C185.89,-309.4 210.03,-320.61 232,-330 247.57,-336.66 264.86,-343.51 280.1,-349.37"/><polygon fill="#000" stroke="#000" points="167.59 -296.82 157.06 -295.66 164.57 -303.13 167.59 -296.82"/><text x="268" y="-318.8" font-family="Times,serif" font-size="14" text-anchor="middle">कर्ता</text></g><g id="node9" class="node"><title>Node8_1</title><ellipse cx="420" cy="-453" fill="#ff1975" stroke="#ff1975" rx="96.68" ry="18"/><text x="420" y="-449.3" font-family="Times,serif" font-size="14" text-anchor="middle">उत्पपात(8.1)</text></g><g id="edge7" class="edge"><title>Node7_1-&gt;Node8_1</title><path fill="none" stroke="#000" d="M119.38,-306.93C116.21,-330.12 115.93,-363.06 134,-384 160.38,-414.58 263.43,-433.33 338.29,-443.2"/><polygon fill="#000" stroke="#000" points="122.84 -307.48 120.98 -297.05 115.93 -306.36 122.84 -307.48"/><text x="170" y="-362.3" font-family="Times,serif" font-size="14" text-anchor="middle">कर्ता</text></g><g id="node5" class="node"><title>Node1_1</title><ellipse cx="298" cy="-279" fill="#f9f" stroke="#f9f" rx="59.59" ry="18"/><text x="298" y="-275.3" font-family="Times,serif" font-size="14" text-anchor="middle">ततः(1.1)</text></g><g id="edge1" class="edge"><title>Node1_1-&gt;Node6_1</title><path fill="none" stroke="#000" d="M305.59,-306.87C309.37,-320.27 313.83,-336.08 317.15,-347.82"/><polygon fill="#000" stroke="#000" points="308.94 -305.87 302.86 -297.2 302.21 -307.78 308.94 -305.87"/><text x="368.5" y="-318.8" font-family="Times,serif" font-size="14" text-anchor="middle">सम्बन्धः</text></g><g id="edge6" class="edge"><title>Node6_1-&gt;Node8_1</title><path fill="none" stroke="#000" d="M323.14,-394.01C324.67,-402.15 327.59,-410.61 333,-417 340.89,-426.32 351.62,-433.18 362.86,-438.23"/><polygon fill="#000" stroke="#000" points="326.61 -393.52 321.87 -384.05 319.67 -394.41 326.61 -393.52"/><text x="397.5" y="-405.8" font-family="Times,serif" font-size="14" text-anchor="middle">पूर्वकालः</text></g><g id="node7" class="node"><title>Node2_1</title><ellipse cx="384" cy="-192" fill="#87ceeb" stroke="#87ceeb" rx="87.99" ry="18"/><text x="384" y="-188.3" font-family="Times,serif" font-size="14" text-anchor="middle">तस्याः(2.1)</text></g><g id="node8" class="node"><title>Node5_1</title><ellipse cx="473" cy="-279" fill="#93db70" stroke="#93db70" rx="96.68" ry="18"/><text x="473" y="-275.3" font-family="Times,serif" font-size="14" text-anchor="middle">मर्माणि(5.1)</text></g><g id="edge2" class="edge"><title>Node2_1-&gt;Node5_1</title><path fill="none" stroke="#000" d="M381.01,-220.36C381.44,-228.29 383.29,-236.54 388,-243 394.86,-252.41 404.72,-259.3 415.32,-264.35"/><polygon fill="#000" stroke="#000" points="384.51 -220.33 381.14 -210.29 377.51 -220.25 384.51 -220.33"/><text x="481" y="-231.8" font-family="Times,serif" font-size="14" text-anchor="middle">षष्ठीसम्बन्धः</text></g><g id="edge5" class="edge"><title>Node5_1-&gt;Node6_1</title><path fill="none" stroke="#000" d="M455.82,-305.22C448.71,-314.09 439.82,-323.46 430,-330 416.21,-339.17 399.85,-346.09 384.08,-351.25"/><polygon fill="#000" stroke="#000" points="458.81 -307.06 462.06 -296.97 453.23 -302.83 458.81 -307.06"/><text x="475" y="-318.8" font-family="Times,serif" font-size="14" text-anchor="middle">कर्म</text></g><g id="node10" class="node"><title>Node9_1</title><ellipse cx="497" cy="-366" fill="#f9f" stroke="#f9f" rx="50.89" ry="18"/><text x="497" y="-362.3" font-family="Times,serif" font-size="14" text-anchor="middle">अथ(9.1)</text></g><g id="edge9" class="edge"><title>Node9_1-&gt;Node8_1</title><path fill="none" stroke="#000" d="M483.52,-392.7C478.59,-400.92 472.59,-409.75 466,-417 459.93,-423.68 452.44,-429.99 445.28,-435.37"/><polygon fill="#000" stroke="#000" points="486.68 -394.22 488.61 -383.81 480.61 -390.75 486.68 -394.22"/><text x="533.5" y="-405.8" font-family="Times,serif" font-size="14" text-anchor="middle">सम्बन्धः</text></g><g id="node11" class="node"><title>Node10_1</title><ellipse cx="650" cy="-366" fill="#40e0d0" stroke="#40e0d0" rx="84.49" ry="18"/><text x="650" y="-362.3" font-family="Times,serif" font-size="14" text-anchor="middle">वेगेन(10.1)</text></g><g id="edge10" class="edge"><title>Node10_1-&gt;Node8_1</title><path fill="none" stroke="#000" d="M628.81,-391.28C619.37,-400.67 607.54,-410.67 595,-417 567.48,-430.9 534.92,-439.28 505.39,-444.33"/><polygon fill="#000" stroke="#000" points="631.44 -393.6 635.85 -383.96 626.4 -388.75 631.44 -393.6"/><text x="652" y="-405.8" font-family="Times,serif" font-size="14" text-anchor="middle">करणम्</text></g><g id="node12" class="node"><title>Node11_1</title><ellipse cx="119" cy="-18" fill="#ff0" stroke="#ff0" rx="68.79" ry="18"/><text x="119" y="-14.3" font-family="Times,serif" font-size="14" text-anchor="middle">मनः-(11.1)</text></g><g id="node13" class="node"><title>Node11_2</title><ellipse cx="119" cy="-105" fill="#ff0" stroke="#ff0" rx="96.68" ry="18"/><text x="119" y="-101.3" font-family="Times,serif" font-size="14" text-anchor="middle">सम्पात-(11.2)</text></g><g id="edge11" class="edge"><title>Node11_1-&gt;Node11_2</title><path fill="none" stroke="#000" d="M119,-46.27C119,-59.58 119,-75.19 119,-86.82"/><polygon fill="#000" stroke="#000" points="122.5 -46.2 119 -36.2 115.5 -46.2 122.5 -46.2"/><text x="183.5" y="-57.8" font-family="Times,serif" font-size="14" text-anchor="middle">कर्मधारयः</text></g><g id="edge12" class="edge"><title>Node11_2-&gt;Node11_3</title><path fill="none" stroke="#000" d="M119,-133.27C119,-146.58 119,-162.19 119,-173.82"/><polygon fill="#000" stroke="#000" points="122.5 -133.2 119 -123.2 115.5 -133.2 122.5 -133.2"/><text x="183.5" y="-144.8" font-family="Times,serif" font-size="14" text-anchor="middle">कर्मधारयः</text></g></g></svg>