<?xml version="1.0" encoding="UTF-8" standalone="no"?>
<!DOCTYPE svg PUBLIC "-//W3C//DTD SVG 1.1//EN"
 "http://www.w3.org/Graphics/SVG/1.1/DTD/svg11.dtd">
<!-- Generated by graphviz version 2.43.0 (0)
 -->
<!-- Title: G Pages: 1 -->
<svg width="1756pt" height="392pt"
 viewBox="0.00 0.00 1756.00 392.00" xmlns="http://www.w3.org/2000/svg" xmlns:xlink="http://www.w3.org/1999/xlink">
<g id="graph0" class="graph" transform="scale(1 1) rotate(0) translate(4 388)">
<title>G</title>
<polygon fill="#fffacd" stroke="transparent" points="-4,4 -4,-388 1752,-388 1752,4 -4,4"/>
<g id="clust1" class="cluster">
<title>cluster_1</title>
<polygon fill="#fffacd" stroke="black" points="1245,-166 1245,-305 1713,-305 1713,-166 1245,-166"/>
</g>
<g id="clust2" class="cluster">
<title>cluster_2</title>
<polygon fill="#fffacd" stroke="black" points="8,-166 8,-305 829,-305 829,-166 8,-166"/>
</g>
<g id="clust3" class="cluster">
<title>cluster_3</title>
<polygon fill="#fffacd" stroke="black" points="1015,-79 1015,-218 1237,-218 1237,-79 1015,-79"/>
</g>
<!-- Node1_1 -->
<g id="node1" class="node">
<title>Node1_1</title>
<ellipse fill="#93db70" stroke="#93db70" cx="1645" cy="-192" rx="59.59" ry="18"/>
<text text-anchor="middle" x="1645" y="-188.3" font-family="Times,serif" font-size="14.00">तम्(1.1)</text>
</g>
<!-- Node11_1 -->
<g id="node2" class="node">
<title>Node11_1</title>
<ellipse fill="#93db70" stroke="#93db70" cx="1395" cy="-279" rx="84.49" ry="18"/>
<text text-anchor="middle" x="1395" y="-275.3" font-family="Times,serif" font-size="14.00">कपिम्(11.1)</text>
</g>
<!-- Node1_1&#45;&gt;Node11_1 -->
<g id="edge1" class="edge">
<title>Node1_1&#45;&gt;Node11_1</title>
<path fill="none" stroke="black" d="M1616.73,-215.04C1602.76,-224.94 1585.23,-235.96 1568,-243 1536.23,-255.98 1499.14,-264.3 1467.48,-269.55"/>
<polygon fill="black" stroke="black" points="1618.92,-217.78 1624.94,-209.06 1614.8,-212.12 1618.92,-217.78"/>
<text text-anchor="middle" x="1654.5" y="-231.8" font-family="Times,serif" font-size="14.00">विशेषणम्</text>
</g>
<!-- Node9_1 -->
<g id="node16" class="node">
<title>Node9_1</title>
<ellipse fill="#ff1975" stroke="#ff1975" cx="1006" cy="-366" rx="106.68" ry="18"/>
<text text-anchor="middle" x="1006" y="-362.3" font-family="Times,serif" font-size="14.00">अब्रवीत्(9.1)</text>
</g>
<!-- Node11_1&#45;&gt;Node9_1 -->
<g id="edge12" class="edge">
<title>Node11_1&#45;&gt;Node9_1</title>
<path fill="none" stroke="black" d="M1361.92,-301.49C1344.48,-311.8 1322.33,-323.32 1301,-330 1239.35,-349.3 1167.42,-358.1 1110.01,-362.04"/>
<polygon fill="black" stroke="black" points="1363.84,-304.42 1370.58,-296.25 1360.21,-298.43 1363.84,-304.42"/>
<text text-anchor="middle" x="1386" y="-318.8" font-family="Times,serif" font-size="14.00">गौणकर्म</text>
</g>
<!-- Node2_2 -->
<g id="node3" class="node">
<title>Node2_2</title>
<ellipse fill="#93db70" stroke="#93db70" cx="1498" cy="-192" rx="69.59" ry="18"/>
<text text-anchor="middle" x="1498" y="-188.3" font-family="Times,serif" font-size="14.00">गतम्(2.2)</text>
</g>
<!-- Node2_2&#45;&gt;Node11_1 -->
<g id="edge3" class="edge">
<title>Node2_2&#45;&gt;Node11_1</title>
<path fill="none" stroke="black" d="M1468.69,-215.45C1463.43,-219.58 1458.02,-223.88 1453,-228 1439.73,-238.87 1425.11,-251.48 1413.86,-261.32"/>
<polygon fill="black" stroke="black" points="1471.03,-218.07 1476.76,-209.16 1466.72,-212.55 1471.03,-218.07"/>
<text text-anchor="middle" x="1510.5" y="-231.8" font-family="Times,serif" font-size="14.00">विशेषणम्</text>
</g>
<!-- Node3_1 -->
<g id="node4" class="node">
<title>Node3_1</title>
<ellipse fill="#93db70" stroke="#93db70" cx="1332" cy="-192" rx="78.79" ry="18"/>
<text text-anchor="middle" x="1332" y="-188.3" font-family="Times,serif" font-size="14.00">वीरम्(3.1)</text>
</g>
<!-- Node3_1&#45;&gt;Node11_1 -->
<g id="edge4" class="edge">
<title>Node3_1&#45;&gt;Node11_1</title>
<path fill="none" stroke="black" d="M1314.47,-219.21C1311.31,-227.23 1310.31,-235.83 1315,-243 1321.39,-252.77 1331.17,-259.83 1341.73,-264.92"/>
<polygon fill="black" stroke="black" points="1317.65,-220.68 1318.96,-210.16 1311.38,-217.56 1317.65,-220.68"/>
<text text-anchor="middle" x="1372.5" y="-231.8" font-family="Times,serif" font-size="14.00">विशेषणम्</text>
</g>
<!-- Node5_1 -->
<g id="node5" class="node">
<title>Node5_1</title>
<ellipse fill="#00bfff" stroke="#00bfff" cx="141" cy="-192" rx="124.58" ry="18"/>
<text text-anchor="middle" x="141" y="-188.3" font-family="Times,serif" font-size="14.00">समुपस्थितः(5.1)</text>
</g>
<!-- Node10_1 -->
<g id="node6" class="node">
<title>Node10_1</title>
<ellipse fill="#00bfff" stroke="#00bfff" cx="528" cy="-279" rx="93.68" ry="18"/>
<text text-anchor="middle" x="528" y="-275.3" font-family="Times,serif" font-size="14.00">पर्वतः(10.1)</text>
</g>
<!-- Node5_1&#45;&gt;Node10_1 -->
<g id="edge6" class="edge">
<title>Node5_1&#45;&gt;Node10_1</title>
<path fill="none" stroke="black" d="M185.76,-213.34C210.2,-223.68 241.25,-235.59 270,-243 326.68,-257.61 392.04,-266.4 442.79,-271.51"/>
<polygon fill="black" stroke="black" points="186.97,-210.05 176.4,-209.32 184.21,-216.49 186.97,-210.05"/>
<text text-anchor="middle" x="327.5" y="-231.8" font-family="Times,serif" font-size="14.00">विशेषणम्</text>
</g>
<!-- Node10_1&#45;&gt;Node9_1 -->
<g id="edge11" class="edge">
<title>Node10_1&#45;&gt;Node9_1</title>
<path fill="none" stroke="black" d="M604.2,-293.55C695.36,-309.76 846.73,-336.68 935.36,-352.44"/>
<polygon fill="black" stroke="black" points="604.67,-290.08 594.21,-291.77 603.45,-296.97 604.67,-290.08"/>
<text text-anchor="middle" x="832" y="-318.8" font-family="Times,serif" font-size="14.00">कर्ता</text>
</g>
<!-- Node6_1 -->
<g id="node7" class="node">
<title>Node6_1</title>
<ellipse fill="#00bfff" stroke="#00bfff" cx="528" cy="-192" rx="87.99" ry="18"/>
<text text-anchor="middle" x="528" y="-188.3" font-family="Times,serif" font-size="14.00">प्रीतः(6.1)</text>
</g>
<!-- Node6_1&#45;&gt;Node10_1 -->
<g id="edge7" class="edge">
<title>Node6_1&#45;&gt;Node10_1</title>
<path fill="none" stroke="black" d="M528,-220.27C528,-233.58 528,-249.19 528,-260.82"/>
<polygon fill="black" stroke="black" points="531.5,-220.2 528,-210.2 524.5,-220.2 531.5,-220.2"/>
<text text-anchor="middle" x="585.5" y="-231.8" font-family="Times,serif" font-size="14.00">विशेषणम्</text>
</g>
<!-- Node7_2 -->
<g id="node8" class="node">
<title>Node7_2</title>
<ellipse fill="#00bfff" stroke="#00bfff" cx="353" cy="-192" rx="69.59" ry="18"/>
<text text-anchor="middle" x="353" y="-188.3" font-family="Times,serif" font-size="14.00">मनाः(7.2)</text>
</g>
<!-- Node7_2&#45;&gt;Node10_1 -->
<g id="edge9" class="edge">
<title>Node7_2&#45;&gt;Node10_1</title>
<path fill="none" stroke="black" d="M375.36,-217.13C384.96,-226.32 396.78,-236.2 409,-243 426.6,-252.78 447.21,-260.09 466.3,-265.42"/>
<polygon fill="black" stroke="black" points="377.73,-214.55 368.17,-209.98 372.79,-219.51 377.73,-214.55"/>
<text text-anchor="middle" x="466.5" y="-231.8" font-family="Times,serif" font-size="14.00">विशेषणम्</text>
</g>
<!-- Node17_1 -->
<g id="node9" class="node">
<title>Node17_1</title>
<ellipse fill="#00bfff" stroke="#00bfff" cx="727" cy="-192" rx="93.68" ry="18"/>
<text text-anchor="middle" x="727" y="-188.3" font-family="Times,serif" font-size="14.00">स्थितः(17.1)</text>
</g>
<!-- Node17_1&#45;&gt;Node10_1 -->
<g id="edge18" class="edge">
<title>Node17_1&#45;&gt;Node10_1</title>
<path fill="none" stroke="black" d="M695.66,-215.37C681.33,-224.85 663.83,-235.44 647,-243 627.36,-251.83 604.9,-259.1 584.83,-264.68"/>
<polygon fill="black" stroke="black" points="697.81,-218.14 704.14,-209.64 693.89,-212.34 697.81,-218.14"/>
<text text-anchor="middle" x="732.5" y="-231.8" font-family="Times,serif" font-size="14.00">विशेषणम्</text>
</g>
<!-- Node12_1 -->
<g id="node10" class="node">
<title>Node12_1</title>
<ellipse fill="#93db70" stroke="#93db70" cx="1126" cy="-105" rx="102.88" ry="18"/>
<text text-anchor="middle" x="1126" y="-101.3" font-family="Times,serif" font-size="14.00">मानुषम्(12.1)</text>
</g>
<!-- Node14_1 -->
<g id="node11" class="node">
<title>Node14_1</title>
<ellipse fill="#93db70" stroke="#93db70" cx="1128" cy="-192" rx="84.49" ry="18"/>
<text text-anchor="middle" x="1128" y="-188.3" font-family="Times,serif" font-size="14.00">रूपम्(14.1)</text>
</g>
<!-- Node12_1&#45;&gt;Node14_1 -->
<g id="edge13" class="edge">
<title>Node12_1&#45;&gt;Node14_1</title>
<path fill="none" stroke="black" d="M1126.64,-133.27C1126.95,-146.58 1127.32,-162.19 1127.6,-173.82"/>
<polygon fill="black" stroke="black" points="1130.14,-133.12 1126.4,-123.2 1123.14,-133.28 1130.14,-133.12"/>
<text text-anchor="middle" x="1184.5" y="-144.8" font-family="Times,serif" font-size="14.00">विशेषणम्</text>
</g>
<!-- Node13_1 -->
<g id="node17" class="node">
<title>Node13_1</title>
<ellipse fill="#00bfff" stroke="#00bfff" cx="1142" cy="-279" rx="93.68" ry="18"/>
<text text-anchor="middle" x="1142" y="-275.3" font-family="Times,serif" font-size="14.00">धारयन्(13.1)</text>
</g>
<!-- Node14_1&#45;&gt;Node13_1 -->
<g id="edge15" class="edge">
<title>Node14_1&#45;&gt;Node13_1</title>
<path fill="none" stroke="black" d="M1132.49,-220.27C1134.68,-233.58 1137.26,-249.19 1139.17,-260.82"/>
<polygon fill="black" stroke="black" points="1135.91,-219.5 1130.83,-210.2 1129,-220.64 1135.91,-219.5"/>
<text text-anchor="middle" x="1164" y="-231.8" font-family="Times,serif" font-size="14.00">कर्म</text>
</g>
<!-- Node2_1 -->
<g id="node12" class="node">
<title>Node2_1</title>
<ellipse fill="#ffff00" stroke="#ffff00" cx="1498" cy="-105" rx="72.29" ry="18"/>
<text text-anchor="middle" x="1498" y="-101.3" font-family="Times,serif" font-size="14.00">आकाश&#45;(2.1)</text>
</g>
<!-- Node2_1&#45;&gt;Node2_2 -->
<g id="edge2" class="edge">
<title>Node2_1&#45;&gt;Node2_2</title>
<path fill="none" stroke="black" d="M1498,-133.27C1498,-146.58 1498,-162.19 1498,-173.82"/>
<polygon fill="black" stroke="black" points="1501.5,-133.2 1498,-123.2 1494.5,-133.2 1501.5,-133.2"/>
<text text-anchor="middle" x="1623" y="-144.8" font-family="Times,serif" font-size="14.00">द्वितीया_तत्पुरुषः</text>
</g>
<!-- Node4_1 -->
<g id="node13" class="node">
<title>Node4_1</title>
<ellipse fill="#c6e2eb" stroke="#c6e2eb" cx="141" cy="-105" rx="78.79" ry="18"/>
<text text-anchor="middle" x="141" y="-101.3" font-family="Times,serif" font-size="14.00">आकाशे(4.1)</text>
</g>
<!-- Node4_1&#45;&gt;Node5_1 -->
<g id="edge5" class="edge">
<title>Node4_1&#45;&gt;Node5_1</title>
<path fill="none" stroke="black" d="M141,-133.27C141,-146.58 141,-162.19 141,-173.82"/>
<polygon fill="black" stroke="black" points="144.5,-133.2 141,-123.2 137.5,-133.2 144.5,-133.2"/>
<text text-anchor="middle" x="219.5" y="-144.8" font-family="Times,serif" font-size="14.00">देशाधिकरणम्</text>
</g>
<!-- Node7_1 -->
<g id="node14" class="node">
<title>Node7_1</title>
<ellipse fill="#ffff00" stroke="#ffff00" cx="353" cy="-105" rx="81.49" ry="18"/>
<text text-anchor="middle" x="353" y="-101.3" font-family="Times,serif" font-size="14.00">हृष्ट&#45;(7.1)</text>
</g>
<!-- Node7_1&#45;&gt;Node7_2 -->
<g id="edge8" class="edge">
<title>Node7_1&#45;&gt;Node7_2</title>
<path fill="none" stroke="black" d="M353,-133.27C353,-146.58 353,-162.19 353,-173.82"/>
<polygon fill="black" stroke="black" points="356.5,-133.2 353,-123.2 349.5,-133.2 356.5,-133.2"/>
<text text-anchor="middle" x="424.5" y="-144.8" font-family="Times,serif" font-size="14.00">बहुव्रीहिः</text>
</g>
<!-- Node8_1 -->
<g id="node15" class="node">
<title>Node8_1</title>
<ellipse fill="#93db70" stroke="#93db70" cx="934" cy="-279" rx="96.68" ry="18"/>
<text text-anchor="middle" x="934" y="-275.3" font-family="Times,serif" font-size="14.00">वाक्यम्(8.1)</text>
</g>
<!-- Node8_1&#45;&gt;Node9_1 -->
<g id="edge10" class="edge">
<title>Node8_1&#45;&gt;Node9_1</title>
<path fill="none" stroke="black" d="M955.15,-304.97C966.92,-318.86 981.25,-335.78 991.7,-348.11"/>
<polygon fill="black" stroke="black" points="957.7,-302.57 948.57,-297.2 952.36,-307.09 957.7,-302.57"/>
<text text-anchor="middle" x="1004" y="-318.8" font-family="Times,serif" font-size="14.00">कर्म</text>
</g>
<!-- Node13_1&#45;&gt;Node9_1 -->
<g id="edge14" class="edge">
<title>Node13_1&#45;&gt;Node9_1</title>
<path fill="none" stroke="black" d="M1107.24,-301.72C1084.02,-316.24 1053.93,-335.04 1032.61,-348.37"/>
<polygon fill="black" stroke="black" points="1109.15,-304.66 1115.78,-296.39 1105.44,-298.72 1109.15,-304.66"/>
<text text-anchor="middle" x="1190" y="-318.8" font-family="Times,serif" font-size="14.00">वर्तमानसमानकालः</text>
</g>
<!-- Node15_1 -->
<g id="node18" class="node">
<title>Node15_1</title>
<ellipse fill="#87ceeb" stroke="#87ceeb" cx="727" cy="-18" rx="93.68" ry="18"/>
<text text-anchor="middle" x="727" y="-14.3" font-family="Times,serif" font-size="14.00">आत्मनः(15.1)</text>
</g>
<!-- Node16_1 -->
<g id="node19" class="node">
<title>Node16_1</title>
<ellipse fill="#c6e2eb" stroke="#c6e2eb" cx="727" cy="-105" rx="84.49" ry="18"/>
<text text-anchor="middle" x="727" y="-101.3" font-family="Times,serif" font-size="14.00">शिखरे(16.1)</text>
</g>
<!-- Node15_1&#45;&gt;Node16_1 -->
<g id="edge16" class="edge">
<title>Node15_1&#45;&gt;Node16_1</title>
<path fill="none" stroke="black" d="M727,-46.27C727,-59.58 727,-75.19 727,-86.82"/>
<polygon fill="black" stroke="black" points="730.5,-46.2 727,-36.2 723.5,-46.2 730.5,-46.2"/>
<text text-anchor="middle" x="820" y="-57.8" font-family="Times,serif" font-size="14.00">षष्ठीसम्बन्धः</text>
</g>
<!-- Node16_1&#45;&gt;Node17_1 -->
<g id="edge17" class="edge">
<title>Node16_1&#45;&gt;Node17_1</title>
<path fill="none" stroke="black" d="M727,-133.27C727,-146.58 727,-162.19 727,-173.82"/>
<polygon fill="black" stroke="black" points="730.5,-133.2 727,-123.2 723.5,-133.2 730.5,-133.2"/>
<text text-anchor="middle" x="784.5" y="-144.8" font-family="Times,serif" font-size="14.00">अधिकरणम्</text>
</g>
</g>
</svg>
