<?xml version="1.0" encoding="UTF-8" standalone="no"?>
<!DOCTYPE svg PUBLIC "-//W3C//DTD SVG 1.1//EN"
 "http://www.w3.org/Graphics/SVG/1.1/DTD/svg11.dtd">
<!-- Generated by graphviz version 2.43.0 (0)
 -->
<!-- Title: G Pages: 1 -->
<svg width="1218pt" height="392pt"
 viewBox="0.00 0.00 1217.74 392.00" xmlns="http://www.w3.org/2000/svg" xmlns:xlink="http://www.w3.org/1999/xlink">
<g id="graph0" class="graph" transform="scale(1 1) rotate(0) translate(4 388)">
<title>G</title>
<polygon fill="#fffacd" stroke="transparent" points="-4,4 -4,-388 1213.74,-388 1213.74,4 -4,4"/>
<g id="clust1" class="cluster">
<title>cluster_1</title>
<polygon fill="#fffacd" stroke="black" points="359.74,-166 359.74,-305 782.74,-305 782.74,-166 359.74,-166"/>
</g>
<g id="clust2" class="cluster">
<title>cluster_2</title>
<polygon fill="#fffacd" stroke="black" points="917.74,-79 917.74,-218 1201.74,-218 1201.74,-79 917.74,-79"/>
</g>
<!-- Node6_3 -->
<g id="node1" class="node">
<title>Node6_3</title>
<ellipse fill="#93db70" stroke="#93db70" cx="474.74" cy="-192" rx="106.68" ry="18"/>
<text text-anchor="middle" x="474.74" y="-188.3" font-family="Times,serif" font-size="14.00">सवर्णानि(6.3)</text>
</g>
<!-- Node2_2 -->
<g id="node2" class="node">
<title>Node2_2</title>
<ellipse fill="#93db70" stroke="#93db70" cx="464.74" cy="-279" rx="87.99" ry="18"/>
<text text-anchor="middle" x="464.74" y="-275.3" font-family="Times,serif" font-size="14.00">जालानि(2.2)</text>
</g>
<!-- Node6_3&#45;&gt;Node2_2 -->
<g id="edge8" class="edge">
<title>Node6_3&#45;&gt;Node2_2</title>
<path fill="none" stroke="black" d="M471.53,-220.27C469.97,-233.58 468.13,-249.19 466.76,-260.82"/>
<polygon fill="black" stroke="black" points="475.03,-220.54 472.72,-210.2 468.07,-219.72 475.03,-220.54"/>
<text text-anchor="middle" x="528.24" y="-231.8" font-family="Times,serif" font-size="14.00">विशेषणम्</text>
</g>
<!-- Node3_1 -->
<g id="node7" class="node">
<title>Node3_1</title>
<ellipse fill="#ff1975" stroke="#ff1975" cx="287.74" cy="-366" rx="124.58" ry="18"/>
<text text-anchor="middle" x="287.74" y="-362.3" font-family="Times,serif" font-size="14.00">प्राकर्षन्(3.1)</text>
</g>
<!-- Node2_2&#45;&gt;Node3_1 -->
<g id="edge3" class="edge">
<title>Node2_2&#45;&gt;Node3_1</title>
<path fill="none" stroke="black" d="M441.45,-304.1C431.49,-313.29 419.27,-323.18 406.74,-330 390.67,-338.76 372.15,-345.56 354.58,-350.73"/>
<polygon fill="black" stroke="black" points="444.11,-306.4 448.92,-296.96 439.28,-301.34 444.11,-306.4"/>
<text text-anchor="middle" x="456.74" y="-318.8" font-family="Times,serif" font-size="14.00">कर्म</text>
</g>
<!-- Node7_3 -->
<g id="node3" class="node">
<title>Node7_3</title>
<ellipse fill="#93db70" stroke="#93db70" cx="686.74" cy="-192" rx="87.99" ry="18"/>
<text text-anchor="middle" x="686.74" y="-188.3" font-family="Times,serif" font-size="14.00">सितानि(7.3)</text>
</g>
<!-- Node7_3&#45;&gt;Node2_2 -->
<g id="edge11" class="edge">
<title>Node7_3&#45;&gt;Node2_2</title>
<path fill="none" stroke="black" d="M650.1,-214.13C632.28,-223.82 610.31,-234.92 589.74,-243 567.51,-251.74 542.26,-259.24 520.3,-265.03"/>
<polygon fill="black" stroke="black" points="651.94,-217.11 659.01,-209.21 648.56,-210.98 651.94,-217.11"/>
<text text-anchor="middle" x="679.24" y="-231.8" font-family="Times,serif" font-size="14.00">विशेषणम्</text>
</g>
<!-- Node9_2 -->
<g id="node4" class="node">
<title>Node9_2</title>
<ellipse fill="#00bfff" stroke="#00bfff" cx="1059.74" cy="-105" rx="133.78" ry="18"/>
<text text-anchor="middle" x="1059.74" y="-101.3" font-family="Times,serif" font-size="14.00">कृष्यमाणानि(9.2)</text>
</g>
<!-- Node10_2 -->
<g id="node5" class="node">
<title>Node10_2</title>
<ellipse fill="#00bfff" stroke="#00bfff" cx="1043.74" cy="-192" rx="102.88" ry="18"/>
<text text-anchor="middle" x="1043.74" y="-188.3" font-family="Times,serif" font-size="14.00">अभ्राणि(10.2)</text>
</g>
<!-- Node9_2&#45;&gt;Node10_2 -->
<g id="edge14" class="edge">
<title>Node9_2&#45;&gt;Node10_2</title>
<path fill="none" stroke="black" d="M1054.61,-133.27C1052.1,-146.58 1049.16,-162.19 1046.98,-173.82"/>
<polygon fill="black" stroke="black" points="1058.09,-133.68 1056.5,-123.2 1051.21,-132.38 1058.09,-133.68"/>
<text text-anchor="middle" x="1109.24" y="-144.8" font-family="Times,serif" font-size="14.00">विशेषणम्</text>
</g>
<!-- Node11_1 -->
<g id="node18" class="node">
<title>Node11_1</title>
<ellipse fill="#ff1975" stroke="#ff1975" cx="1043.74" cy="-279" rx="102.88" ry="18"/>
<text text-anchor="middle" x="1043.74" y="-275.3" font-family="Times,serif" font-size="14.00">चकाशिरे(11.1)</text>
</g>
<!-- Node10_2&#45;&gt;Node11_1 -->
<g id="edge16" class="edge">
<title>Node10_2&#45;&gt;Node11_1</title>
<path fill="none" stroke="black" d="M1043.74,-220.27C1043.74,-233.58 1043.74,-249.19 1043.74,-260.82"/>
<polygon fill="black" stroke="black" points="1047.24,-220.2 1043.74,-210.2 1040.24,-220.2 1047.24,-220.2"/>
<text text-anchor="middle" x="1079.74" y="-231.8" font-family="Times,serif" font-size="14.00">कर्ता</text>
</g>
<!-- Node1_1 -->
<g id="node6" class="node">
<title>Node1_1</title>
<ellipse fill="#00bfff" stroke="#00bfff" cx="125.74" cy="-279" rx="96.68" ry="18"/>
<text text-anchor="middle" x="125.74" y="-275.3" font-family="Times,serif" font-size="14.00">हनुमान्(1.1)</text>
</g>
<!-- Node1_1&#45;&gt;Node3_1 -->
<g id="edge1" class="edge">
<title>Node1_1&#45;&gt;Node3_1</title>
<path fill="none" stroke="black" d="M161.16,-301.61C176.52,-310.71 194.83,-321.22 211.74,-330 224.25,-336.5 238.19,-343.09 250.68,-348.78"/>
<polygon fill="black" stroke="black" points="162.87,-298.55 152.49,-296.43 159.28,-304.56 162.87,-298.55"/>
<text text-anchor="middle" x="247.74" y="-318.8" font-family="Times,serif" font-size="14.00">कर्ता</text>
</g>
<!-- Node2_1 -->
<g id="node8" class="node">
<title>Node2_1</title>
<ellipse fill="#ffff00" stroke="#ffff00" cx="256.74" cy="-192" rx="63.09" ry="18"/>
<text text-anchor="middle" x="256.74" y="-188.3" font-family="Times,serif" font-size="14.00">मेघ&#45;(2.1)</text>
</g>
<!-- Node2_1&#45;&gt;Node2_2 -->
<g id="edge2" class="edge">
<title>Node2_1&#45;&gt;Node2_2</title>
<path fill="none" stroke="black" d="M251.65,-220.3C251.64,-228.46 253.34,-236.85 258.74,-243 263.34,-248.23 336.49,-259.77 394.32,-268.17"/>
<polygon fill="black" stroke="black" points="255.15,-220.53 252.43,-210.29 248.17,-219.98 255.15,-220.53"/>
<text text-anchor="middle" x="362.24" y="-231.8" font-family="Times,serif" font-size="14.00">षष्ठी_तत्पुरुषः</text>
</g>
<!-- Node4_1 -->
<g id="node9" class="node">
<title>Node4_1</title>
<ellipse fill="#00bfff" stroke="#00bfff" cx="87.74" cy="-192" rx="87.99" ry="18"/>
<text text-anchor="middle" x="87.74" y="-188.3" font-family="Times,serif" font-size="14.00">मारुतः(4.1)</text>
</g>
<!-- Node4_1&#45;&gt;Node1_1 -->
<g id="edge4" class="edge">
<title>Node4_1&#45;&gt;Node1_1</title>
<path fill="none" stroke="black" d="M99.58,-219.48C105.61,-232.96 112.76,-248.96 118.06,-260.82"/>
<polygon fill="black" stroke="black" points="102.71,-217.9 95.43,-210.2 96.32,-220.76 102.71,-217.9"/>
<text text-anchor="middle" x="159.74" y="-231.8" font-family="Times,serif" font-size="14.00">उपमानम्</text>
</g>
<!-- Node5_1 -->
<g id="node10" class="node">
<title>Node5_1</title>
<ellipse fill="#ff99ff" stroke="#ff99ff" cx="87.74" cy="-105" rx="59.59" ry="18"/>
<text text-anchor="middle" x="87.74" y="-101.3" font-family="Times,serif" font-size="14.00">यथा(5.1)</text>
</g>
<!-- Node5_1&#45;&gt;Node4_1 -->
<g id="edge5" class="edge">
<title>Node5_1&#45;&gt;Node4_1</title>
<path fill="none" stroke="black" d="M87.74,-133.27C87.74,-146.58 87.74,-162.19 87.74,-173.82"/>
<polygon fill="black" stroke="black" points="91.24,-133.2 87.74,-123.2 84.24,-133.2 91.24,-133.2"/>
<text text-anchor="middle" x="176.74" y="-144.8" font-family="Times,serif" font-size="14.00">उपमान_द्योतकः</text>
</g>
<!-- Node6_1 -->
<g id="node11" class="node">
<title>Node6_1</title>
<ellipse fill="#ffff00" stroke="#ffff00" cx="474.74" cy="-18" rx="63.09" ry="18"/>
<text text-anchor="middle" x="474.74" y="-14.3" font-family="Times,serif" font-size="14.00">काल&#45;(6.1)</text>
</g>
<!-- Node6_2 -->
<g id="node12" class="node">
<title>Node6_2</title>
<ellipse fill="#ffff00" stroke="#ffff00" cx="474.74" cy="-105" rx="81.49" ry="18"/>
<text text-anchor="middle" x="474.74" y="-101.3" font-family="Times,serif" font-size="14.00">अगुरु&#45;(6.2)</text>
</g>
<!-- Node6_1&#45;&gt;Node6_2 -->
<g id="edge6" class="edge">
<title>Node6_1&#45;&gt;Node6_2</title>
<path fill="none" stroke="black" d="M474.74,-46.27C474.74,-59.58 474.74,-75.19 474.74,-86.82"/>
<polygon fill="black" stroke="black" points="478.24,-46.2 474.74,-36.2 471.24,-46.2 478.24,-46.2"/>
<text text-anchor="middle" x="539.24" y="-57.8" font-family="Times,serif" font-size="14.00">कर्मधारयः</text>
</g>
<!-- Node6_2&#45;&gt;Node6_3 -->
<g id="edge7" class="edge">
<title>Node6_2&#45;&gt;Node6_3</title>
<path fill="none" stroke="black" d="M474.74,-133.27C474.74,-146.58 474.74,-162.19 474.74,-173.82"/>
<polygon fill="black" stroke="black" points="478.24,-133.2 474.74,-123.2 471.24,-133.2 478.24,-133.2"/>
<text text-anchor="middle" x="539.24" y="-144.8" font-family="Times,serif" font-size="14.00">कर्मधारयः</text>
</g>
<!-- Node7_1 -->
<g id="node13" class="node">
<title>Node7_1</title>
<ellipse fill="#ffff00" stroke="#ffff00" cx="686.74" cy="-18" rx="72.29" ry="18"/>
<text text-anchor="middle" x="686.74" y="-14.3" font-family="Times,serif" font-size="14.00">रक्त&#45;(7.1)</text>
</g>
<!-- Node7_2 -->
<g id="node14" class="node">
<title>Node7_2</title>
<ellipse fill="#ffff00" stroke="#ffff00" cx="686.74" cy="-105" rx="63.09" ry="18"/>
<text text-anchor="middle" x="686.74" y="-101.3" font-family="Times,serif" font-size="14.00">पीत&#45;(7.2)</text>
</g>
<!-- Node7_1&#45;&gt;Node7_2 -->
<g id="edge9" class="edge">
<title>Node7_1&#45;&gt;Node7_2</title>
<path fill="none" stroke="black" d="M686.74,-46.27C686.74,-59.58 686.74,-75.19 686.74,-86.82"/>
<polygon fill="black" stroke="black" points="690.24,-46.2 686.74,-36.2 683.24,-46.2 690.24,-46.2"/>
<text text-anchor="middle" x="751.24" y="-57.8" font-family="Times,serif" font-size="14.00">द्वन्द्वः</text>
</g>
<!-- Node7_2&#45;&gt;Node7_3 -->
<g id="edge10" class="edge">
<title>Node7_2&#45;&gt;Node7_3</title>
<path fill="none" stroke="black" d="M686.74,-133.27C686.74,-146.58 686.74,-162.19 686.74,-173.82"/>
<polygon fill="black" stroke="black" points="690.24,-133.2 686.74,-123.2 683.24,-133.2 690.24,-133.2"/>
<text text-anchor="middle" x="751.24" y="-144.8" font-family="Times,serif" font-size="14.00">द्वन्द्वः</text>
</g>
<!-- Node8_1 -->
<g id="node15" class="node">
<title>Node8_1</title>
<ellipse fill="#ff99ff" stroke="#ff99ff" cx="287.74" cy="-279" rx="41.69" ry="18"/>
<text text-anchor="middle" x="287.74" y="-275.3" font-family="Times,serif" font-size="14.00">च(8.1)</text>
</g>
<!-- Node8_1&#45;&gt;Node3_1 -->
<g id="edge12" class="edge">
<title>Node8_1&#45;&gt;Node3_1</title>
<path fill="none" stroke="black" d="M287.74,-307.27C287.74,-320.58 287.74,-336.19 287.74,-347.82"/>
<polygon fill="black" stroke="black" points="291.24,-307.2 287.74,-297.2 284.24,-307.2 291.24,-307.2"/>
<text text-anchor="middle" x="345.24" y="-318.8" font-family="Times,serif" font-size="14.00">सम्बन्धः</text>
</g>
<!-- Node9_1 -->
<g id="node16" class="node">
<title>Node9_1</title>
<ellipse fill="#40e0d0" stroke="#40e0d0" cx="1059.74" cy="-18" rx="78.79" ry="18"/>
<text text-anchor="middle" x="1059.74" y="-14.3" font-family="Times,serif" font-size="14.00">कपिना(9.1)</text>
</g>
<!-- Node9_1&#45;&gt;Node9_2 -->
<g id="edge13" class="edge">
<title>Node9_1&#45;&gt;Node9_2</title>
<path fill="none" stroke="black" d="M1059.74,-46.27C1059.74,-59.58 1059.74,-75.19 1059.74,-86.82"/>
<polygon fill="black" stroke="black" points="1063.24,-46.2 1059.74,-36.2 1056.24,-46.2 1063.24,-46.2"/>
<text text-anchor="middle" x="1095.74" y="-57.8" font-family="Times,serif" font-size="14.00">कर्ता</text>
</g>
<!-- Node10_1 -->
<g id="node17" class="node">
<title>Node10_1</title>
<ellipse fill="#ffff00" stroke="#ffff00" cx="838.74" cy="-105" rx="68.79" ry="18"/>
<text text-anchor="middle" x="838.74" y="-101.3" font-family="Times,serif" font-size="14.00">महा&#45;(10.1)</text>
</g>
<!-- Node10_1&#45;&gt;Node10_2 -->
<g id="edge15" class="edge">
<title>Node10_1&#45;&gt;Node10_2</title>
<path fill="none" stroke="black" d="M868.98,-128.09C883.23,-137.71 900.79,-148.48 917.74,-156 937.87,-164.93 960.84,-172.12 981.6,-177.6"/>
<polygon fill="black" stroke="black" points="870.79,-125.08 860.57,-122.29 866.82,-130.85 870.79,-125.08"/>
<text text-anchor="middle" x="982.24" y="-144.8" font-family="Times,serif" font-size="14.00">कर्मधारयः</text>
</g>
</g>
</svg>
