<?xml version="1.0" encoding="UTF-8" standalone="no"?>
<!DOCTYPE svg PUBLIC "-//W3C//DTD SVG 1.1//EN"
 "http://www.w3.org/Graphics/SVG/1.1/DTD/svg11.dtd">
<!-- Generated by graphviz version 2.43.0 (0)
 -->
<!-- Title: G Pages: 1 -->
<svg width="1182pt" height="392pt"
 viewBox="0.00 0.00 1181.54 392.00" xmlns="http://www.w3.org/2000/svg" xmlns:xlink="http://www.w3.org/1999/xlink">
<g id="graph0" class="graph" transform="scale(1 1) rotate(0) translate(4 388)">
<title>G</title>
<polygon fill="#fffacd" stroke="transparent" points="-4,4 -4,-388 1177.54,-388 1177.54,4 -4,4"/>
<g id="clust1" class="cluster">
<title>cluster_1</title>
<polygon fill="#fffacd" stroke="black" points="787.54,-79 787.54,-218 1165.54,-218 1165.54,-79 787.54,-79"/>
</g>
<!-- Node4_1 -->
<g id="node1" class="node">
<title>Node4_1</title>
<ellipse fill="#93db70" stroke="#93db70" cx="1097.54" cy="-105" rx="59.59" ry="18"/>
<text text-anchor="middle" x="1097.54" y="-101.3" font-family="Times,serif" font-size="14.00">तत्(4.1)</text>
</g>
<!-- Node2_1 -->
<g id="node2" class="node">
<title>Node2_1</title>
<ellipse fill="#93db70" stroke="#93db70" cx="904.54" cy="-192" rx="87.99" ry="18"/>
<text text-anchor="middle" x="904.54" y="-188.3" font-family="Times,serif" font-size="14.00">शरीरम्(2.1)</text>
</g>
<!-- Node4_1&#45;&gt;Node2_1 -->
<g id="edge4" class="edge">
<title>Node4_1&#45;&gt;Node2_1</title>
<path fill="none" stroke="black" d="M1068.37,-127.75C1054.43,-137.39 1037.19,-148.28 1020.54,-156 1001.27,-164.94 979.15,-172.28 959.43,-177.88"/>
<polygon fill="black" stroke="black" points="1070.44,-130.57 1076.59,-121.94 1066.4,-124.85 1070.44,-130.57"/>
<text text-anchor="middle" x="1104.04" y="-144.8" font-family="Times,serif" font-size="14.00">विशेषणम्</text>
</g>
<!-- Node3_1 -->
<g id="node5" class="node">
<title>Node3_1</title>
<ellipse fill="#ff99ff" stroke="#ff99ff" cx="773.54" cy="-279" rx="124.58" ry="18"/>
<text text-anchor="middle" x="773.54" y="-275.3" font-family="Times,serif" font-size="14.00">सङ्क्षिप्य(3.1)</text>
</g>
<!-- Node2_1&#45;&gt;Node3_1 -->
<g id="edge2" class="edge">
<title>Node2_1&#45;&gt;Node3_1</title>
<path fill="none" stroke="black" d="M895.75,-219.96C891.9,-228.29 886.61,-236.89 879.54,-243 868.99,-252.13 855.99,-258.89 842.75,-263.89"/>
<polygon fill="black" stroke="black" points="899.09,-221.03 899.62,-210.45 892.61,-218.39 899.09,-221.03"/>
<text text-anchor="middle" x="919.54" y="-231.8" font-family="Times,serif" font-size="14.00">कर्म</text>
</g>
<!-- Node11_2 -->
<g id="node3" class="node">
<title>Node11_2</title>
<ellipse fill="#93db70" stroke="#93db70" cx="907.54" cy="-105" rx="112.38" ry="18"/>
<text text-anchor="middle" x="907.54" y="-101.3" font-family="Times,serif" font-size="14.00">सन्निभम्(11.2)</text>
</g>
<!-- Node11_2&#45;&gt;Node2_1 -->
<g id="edge12" class="edge">
<title>Node11_2&#45;&gt;Node2_1</title>
<path fill="none" stroke="black" d="M905.89,-133.13C905.76,-135.79 905.64,-138.45 905.54,-141 905.12,-151.93 904.87,-164.21 904.73,-173.87"/>
<polygon fill="black" stroke="black" points="909.39,-133.26 906.44,-123.08 902.4,-132.88 909.39,-133.26"/>
<text text-anchor="middle" x="963.04" y="-144.8" font-family="Times,serif" font-size="14.00">विशेषणम्</text>
</g>
<!-- Node1_1 -->
<g id="node4" class="node">
<title>Node1_1</title>
<ellipse fill="#ff99ff" stroke="#ff99ff" cx="719.54" cy="-192" rx="59.59" ry="18"/>
<text text-anchor="middle" x="719.54" y="-188.3" font-family="Times,serif" font-size="14.00">ततः(1.1)</text>
</g>
<!-- Node1_1&#45;&gt;Node3_1 -->
<g id="edge1" class="edge">
<title>Node1_1&#45;&gt;Node3_1</title>
<path fill="none" stroke="black" d="M716.84,-220.37C717.2,-228.1 718.72,-236.23 722.54,-243 726.72,-250.38 733.17,-256.54 740.11,-261.53"/>
<polygon fill="black" stroke="black" points="720.34,-220.3 716.96,-210.26 713.34,-220.22 720.34,-220.3"/>
<text text-anchor="middle" x="801.04" y="-231.8" font-family="Times,serif" font-size="14.00">कालाधिकरणम्</text>
</g>
<!-- Node7_1 -->
<g id="node6" class="node">
<title>Node7_1</title>
<ellipse fill="#ff1975" stroke="#ff1975" cx="353.54" cy="-366" rx="78.79" ry="18"/>
<text text-anchor="middle" x="353.54" y="-362.3" font-family="Times,serif" font-size="14.00">आपेदे(7.1)</text>
</g>
<!-- Node3_1&#45;&gt;Node7_1 -->
<g id="edge3" class="edge">
<title>Node3_1&#45;&gt;Node7_1</title>
<path fill="none" stroke="black" d="M694.33,-296.03C611.58,-312.78 483.83,-338.63 410.52,-353.47"/>
<polygon fill="black" stroke="black" points="695.08,-299.45 704.19,-294.04 693.69,-292.59 695.08,-299.45"/>
<text text-anchor="middle" x="654.04" y="-318.8" font-family="Times,serif" font-size="14.00">पूर्वकालः</text>
</g>
<!-- Node5_1 -->
<g id="node7" class="node">
<title>Node5_1</title>
<ellipse fill="#ff99ff" stroke="#ff99ff" cx="69.54" cy="-279" rx="69.59" ry="18"/>
<text text-anchor="middle" x="69.54" y="-275.3" font-family="Times,serif" font-size="14.00">पुनः(5.1)</text>
</g>
<!-- Node5_1&#45;&gt;Node7_1 -->
<g id="edge5" class="edge">
<title>Node5_1&#45;&gt;Node7_1</title>
<path fill="none" stroke="black" d="M110.67,-299.35C133.52,-309.54 162.68,-321.62 189.54,-330 222.89,-340.41 261.01,-348.75 292.1,-354.67"/>
<polygon fill="black" stroke="black" points="111.84,-296.04 101.29,-295.12 108.96,-302.42 111.84,-296.04"/>
<text text-anchor="middle" x="247.04" y="-318.8" font-family="Times,serif" font-size="14.00">सम्बन्धः</text>
</g>
<!-- Node6_1 -->
<g id="node8" class="node">
<title>Node6_1</title>
<ellipse fill="#93db70" stroke="#93db70" cx="272.54" cy="-279" rx="115.88" ry="18"/>
<text text-anchor="middle" x="272.54" y="-275.3" font-family="Times,serif" font-size="14.00">प्रकृतिम्(6.1)</text>
</g>
<!-- Node6_1&#45;&gt;Node7_1 -->
<g id="edge6" class="edge">
<title>Node6_1&#45;&gt;Node7_1</title>
<path fill="none" stroke="black" d="M295.97,-304.58C309.28,-318.55 325.59,-335.67 337.45,-348.11"/>
<polygon fill="black" stroke="black" points="298.37,-302.03 288.94,-297.2 293.3,-306.85 298.37,-302.03"/>
<text text-anchor="middle" x="347.54" y="-318.8" font-family="Times,serif" font-size="14.00">कर्म</text>
</g>
<!-- Node8_1 -->
<g id="node9" class="node">
<title>Node8_1</title>
<ellipse fill="#ffff00" stroke="#ffff00" cx="421.54" cy="-105" rx="63.09" ry="18"/>
<text text-anchor="middle" x="421.54" y="-101.3" font-family="Times,serif" font-size="14.00">वीत&#45;(8.1)</text>
</g>
<!-- Node8_2 -->
<g id="node10" class="node">
<title>Node8_2</title>
<ellipse fill="#00bfff" stroke="#00bfff" cx="518.54" cy="-192" rx="69.59" ry="18"/>
<text text-anchor="middle" x="518.54" y="-188.3" font-family="Times,serif" font-size="14.00">मोहः(8.2)</text>
</g>
<!-- Node8_1&#45;&gt;Node8_2 -->
<g id="edge7" class="edge">
<title>Node8_1&#45;&gt;Node8_2</title>
<path fill="none" stroke="black" d="M413.72,-133.29C413,-141.22 413.93,-149.49 418.54,-156 428.02,-169.35 442.99,-177.65 458.49,-182.79"/>
<polygon fill="black" stroke="black" points="417.21,-133.69 415.44,-123.24 410.31,-132.51 417.21,-133.69"/>
<text text-anchor="middle" x="490.04" y="-144.8" font-family="Times,serif" font-size="14.00">बहुव्रीहिः</text>
</g>
<!-- Node10_1 -->
<g id="node11" class="node">
<title>Node10_1</title>
<ellipse fill="#00bfff" stroke="#00bfff" cx="518.54" cy="-279" rx="112.38" ry="18"/>
<text text-anchor="middle" x="518.54" y="-275.3" font-family="Times,serif" font-size="14.00">आत्मवान्(10.1)</text>
</g>
<!-- Node8_2&#45;&gt;Node10_1 -->
<g id="edge8" class="edge">
<title>Node8_2&#45;&gt;Node10_1</title>
<path fill="none" stroke="black" d="M518.54,-220.27C518.54,-233.58 518.54,-249.19 518.54,-260.82"/>
<polygon fill="black" stroke="black" points="522.04,-220.2 518.54,-210.2 515.04,-220.2 522.04,-220.2"/>
<text text-anchor="middle" x="568.54" y="-231.8" font-family="Times,serif" font-size="14.00">उपमानम्</text>
</g>
<!-- Node10_1&#45;&gt;Node7_1 -->
<g id="edge10" class="edge">
<title>Node10_1&#45;&gt;Node7_1</title>
<path fill="none" stroke="black" d="M477.65,-301.07C448.6,-316.03 410.21,-335.81 383.87,-349.38"/>
<polygon fill="black" stroke="black" points="479.44,-304.08 486.73,-296.39 476.24,-297.86 479.44,-304.08"/>
<text text-anchor="middle" x="482.54" y="-318.8" font-family="Times,serif" font-size="14.00">कर्ता</text>
</g>
<!-- Node9_1 -->
<g id="node12" class="node">
<title>Node9_1</title>
<ellipse fill="#ff99ff" stroke="#ff99ff" cx="587.54" cy="-105" rx="50.89" ry="18"/>
<text text-anchor="middle" x="587.54" y="-101.3" font-family="Times,serif" font-size="14.00">इव(9.1)</text>
</g>
<!-- Node9_1&#45;&gt;Node8_2 -->
<g id="edge9" class="edge">
<title>Node9_1&#45;&gt;Node8_2</title>
<path fill="none" stroke="black" d="M578.92,-132.39C575.52,-140.46 571.09,-149.04 565.54,-156 559.84,-163.16 552.34,-169.61 545.01,-174.97"/>
<polygon fill="black" stroke="black" points="582.23,-133.53 582.55,-122.94 575.7,-131.02 582.23,-133.53"/>
<text text-anchor="middle" x="663.54" y="-144.8" font-family="Times,serif" font-size="14.00">उपमान_द्योतकः</text>
</g>
<!-- Node11_1 -->
<g id="node13" class="node">
<title>Node11_1</title>
<ellipse fill="#ffff00" stroke="#ffff00" cx="907.54" cy="-18" rx="87.18" ry="18"/>
<text text-anchor="middle" x="907.54" y="-14.3" font-family="Times,serif" font-size="14.00">महीधर&#45;(11.1)</text>
</g>
<!-- Node11_1&#45;&gt;Node11_2 -->
<g id="edge11" class="edge">
<title>Node11_1&#45;&gt;Node11_2</title>
<path fill="none" stroke="black" d="M907.54,-46.27C907.54,-59.58 907.54,-75.19 907.54,-86.82"/>
<polygon fill="black" stroke="black" points="911.04,-46.2 907.54,-36.2 904.04,-46.2 911.04,-46.2"/>
<text text-anchor="middle" x="972.04" y="-57.8" font-family="Times,serif" font-size="14.00">कर्मधारयः</text>
</g>
</g>
</svg>
