<?xml version="1.0" encoding="UTF-8" standalone="no"?>
<!DOCTYPE svg PUBLIC "-//W3C//DTD SVG 1.1//EN"
 "http://www.w3.org/Graphics/SVG/1.1/DTD/svg11.dtd">
<!-- Generated by graphviz version 2.43.0 (0)
 -->
<!-- Title: G Pages: 1 -->
<svg width="1000pt" height="479pt"
 viewBox="0.00 0.00 999.64 479.00" xmlns="http://www.w3.org/2000/svg" xmlns:xlink="http://www.w3.org/1999/xlink">
<g id="graph0" class="graph" transform="scale(1 1) rotate(0) translate(4 475)">
<title>G</title>
<polygon fill="#fffacd" stroke="transparent" points="-4,4 -4,-475 995.64,-475 995.64,4 -4,4"/>
<g id="clust1" class="cluster">
<title>cluster_1</title>
<polygon fill="#fffacd" stroke="black" points="8,-79 8,-218 449,-218 449,-79 8,-79"/>
</g>
<g id="clust2" class="cluster">
<title>cluster_2</title>
<polygon fill="#fffacd" stroke="black" points="457,-79 457,-218 623,-218 623,-79 457,-79"/>
</g>
<!-- Node3_1 -->
<g id="node1" class="node">
<title>Node3_1</title>
<ellipse fill="#93db70" stroke="#93db70" cx="316" cy="-105" rx="124.58" ry="18"/>
<text text-anchor="middle" x="316" y="-101.3" font-family="Times,serif" font-size="14.00">अनाधृष्यम्(3.1)</text>
</g>
<!-- Node2_1 -->
<g id="node2" class="node">
<title>Node2_1</title>
<ellipse fill="#93db70" stroke="#93db70" cx="316" cy="-192" rx="87.99" ry="18"/>
<text text-anchor="middle" x="316" y="-188.3" font-family="Times,serif" font-size="14.00">सागरम्(2.1)</text>
</g>
<!-- Node3_1&#45;&gt;Node2_1 -->
<g id="edge5" class="edge">
<title>Node3_1&#45;&gt;Node2_1</title>
<path fill="none" stroke="black" d="M316,-133.27C316,-146.58 316,-162.19 316,-173.82"/>
<polygon fill="black" stroke="black" points="319.5,-133.2 316,-123.2 312.5,-133.2 319.5,-133.2"/>
<text text-anchor="middle" x="373.5" y="-144.8" font-family="Times,serif" font-size="14.00">विशेषणम्</text>
</g>
<!-- Node4_1 -->
<g id="node7" class="node">
<title>Node4_1</title>
<ellipse fill="#ff99ff" stroke="#ff99ff" cx="368" cy="-279" rx="106.68" ry="18"/>
<text text-anchor="middle" x="368" y="-275.3" font-family="Times,serif" font-size="14.00">अभ्येत्य(4.1)</text>
</g>
<!-- Node2_1&#45;&gt;Node4_1 -->
<g id="edge4" class="edge">
<title>Node2_1&#45;&gt;Node4_1</title>
<path fill="none" stroke="black" d="M327.92,-219.21C331.79,-227.04 336.31,-235.52 341,-243 344.83,-249.11 349.49,-255.45 353.85,-261.03"/>
<polygon fill="black" stroke="black" points="331.03,-217.61 323.55,-210.11 324.72,-220.64 331.03,-217.61"/>
<text text-anchor="middle" x="370" y="-231.8" font-family="Times,serif" font-size="14.00">कर्म</text>
</g>
<!-- Node5_2 -->
<g id="node3" class="node">
<title>Node5_2</title>
<ellipse fill="#93db70" stroke="#93db70" cx="95" cy="-105" rx="78.79" ry="18"/>
<text text-anchor="middle" x="95" y="-101.3" font-family="Times,serif" font-size="14.00">आलयम्(5.2)</text>
</g>
<!-- Node5_2&#45;&gt;Node2_1 -->
<g id="edge8" class="edge">
<title>Node5_2&#45;&gt;Node2_1</title>
<path fill="none" stroke="black" d="M132.77,-126.42C151.71,-136.17 175.2,-147.52 197,-156 218.27,-164.27 242.33,-171.7 263.22,-177.55"/>
<polygon fill="black" stroke="black" points="134.35,-123.3 123.87,-121.79 131.12,-129.51 134.35,-123.3"/>
<text text-anchor="middle" x="254.5" y="-144.8" font-family="Times,serif" font-size="14.00">विशेषणम्</text>
</g>
<!-- Node10_2 -->
<g id="node4" class="node">
<title>Node10_2</title>
<ellipse fill="#00bfff" stroke="#00bfff" cx="540" cy="-105" rx="75.29" ry="18"/>
<text text-anchor="middle" x="540" y="-101.3" font-family="Times,serif" font-size="14.00">उपमः(10.2)</text>
</g>
<!-- Node1_1 -->
<g id="node5" class="node">
<title>Node1_1</title>
<ellipse fill="#00bfff" stroke="#00bfff" cx="516" cy="-192" rx="50.89" ry="18"/>
<text text-anchor="middle" x="516" y="-188.3" font-family="Times,serif" font-size="14.00">सः(1.1)</text>
</g>
<!-- Node10_2&#45;&gt;Node1_1 -->
<g id="edge13" class="edge">
<title>Node10_2&#45;&gt;Node1_1</title>
<path fill="none" stroke="black" d="M532.41,-132.87C528.63,-146.27 524.17,-162.08 520.85,-173.82"/>
<polygon fill="black" stroke="black" points="535.79,-133.78 535.14,-123.2 529.06,-131.87 535.79,-133.78"/>
<text text-anchor="middle" x="586.5" y="-144.8" font-family="Times,serif" font-size="14.00">विशेषणम्</text>
</g>
<!-- Node6_1 -->
<g id="node6" class="node">
<title>Node6_1</title>
<ellipse fill="#ff1975" stroke="#ff1975" cx="806" cy="-453" rx="69.59" ry="18"/>
<text text-anchor="middle" x="806" y="-449.3" font-family="Times,serif" font-size="14.00">जगाम(6.1)</text>
</g>
<!-- Node1_1&#45;&gt;Node6_1 -->
<g id="edge1" class="edge">
<title>Node1_1&#45;&gt;Node6_1</title>
<path fill="none" stroke="black" d="M573.77,-199.71C644.84,-209.24 759.51,-229.15 787,-261 830.22,-311.07 817.84,-398.33 810.1,-435"/>
<polygon fill="black" stroke="black" points="573.98,-196.21 563.61,-198.38 573.07,-203.15 573.98,-196.21"/>
<text text-anchor="middle" x="851" y="-318.8" font-family="Times,serif" font-size="14.00">कर्ता</text>
</g>
<!-- Node1_1&#45;&gt;Node4_1 -->
<g id="edge2" class="edge">
<title>Node1_1&#45;&gt;Node4_1</title>
<path fill="none" stroke="black" stroke-dasharray="1,5" d="M474.22,-209.73C467.15,-212.52 459.87,-215.36 453,-218 441.05,-222.58 437.02,-221.5 426,-228 410.66,-237.05 395.49,-250.33 384.51,-260.92"/>
<polygon fill="black" stroke="black" points="475.67,-212.93 483.68,-205.99 473.1,-206.42 475.67,-212.93"/>
<text text-anchor="middle" x="462" y="-231.8" font-family="Times,serif" font-size="14.00">कर्ता</text>
</g>
<!-- Node8_1 -->
<g id="node8" class="node">
<title>Node8_1</title>
<ellipse fill="#ff99ff" stroke="#ff99ff" cx="549" cy="-366" rx="87.99" ry="18"/>
<text text-anchor="middle" x="549" y="-362.3" font-family="Times,serif" font-size="14.00">आविश्य(8.1)</text>
</g>
<!-- Node1_1&#45;&gt;Node8_1 -->
<g id="edge3" class="edge">
<title>Node1_1&#45;&gt;Node8_1</title>
<path fill="none" stroke="black" stroke-dasharray="1,5" d="M514.79,-220.38C514.45,-241.55 515.31,-271.46 521,-297 525.03,-315.07 533.48,-334.48 540.04,-347.92"/>
<polygon fill="black" stroke="black" points="518.29,-220.26 515.05,-210.17 511.29,-220.08 518.29,-220.26"/>
<text text-anchor="middle" x="557" y="-275.3" font-family="Times,serif" font-size="14.00">कर्ता</text>
</g>
<!-- Node4_1&#45;&gt;Node8_1 -->
<g id="edge6" class="edge">
<title>Node4_1&#45;&gt;Node8_1</title>
<path fill="none" stroke="black" d="M362.38,-307.17C362.21,-315.32 363.73,-323.74 369,-330 382.01,-345.47 426.41,-354.2 467.86,-359.08"/>
<polygon fill="black" stroke="black" points="365.87,-307.47 363.36,-297.18 358.9,-306.79 365.87,-307.47"/>
<text text-anchor="middle" x="433.5" y="-318.8" font-family="Times,serif" font-size="14.00">पूर्वकालः</text>
</g>
<!-- Node8_1&#45;&gt;Node6_1 -->
<g id="edge10" class="edge">
<title>Node8_1&#45;&gt;Node6_1</title>
<path fill="none" stroke="black" d="M590.43,-387.24C611.76,-397.13 638.39,-408.66 663,-417 692.17,-426.88 725.56,-435.22 752.74,-441.27"/>
<polygon fill="black" stroke="black" points="591.87,-384.05 581.33,-382.98 588.9,-390.39 591.87,-384.05"/>
<text text-anchor="middle" x="727.5" y="-405.8" font-family="Times,serif" font-size="14.00">पूर्वकालः</text>
</g>
<!-- Node5_1 -->
<g id="node9" class="node">
<title>Node5_1</title>
<ellipse fill="#ffff00" stroke="#ffff00" cx="95" cy="-18" rx="72.29" ry="18"/>
<text text-anchor="middle" x="95" y="-14.3" font-family="Times,serif" font-size="14.00">वरुण&#45;(5.1)</text>
</g>
<!-- Node5_1&#45;&gt;Node5_2 -->
<g id="edge7" class="edge">
<title>Node5_1&#45;&gt;Node5_2</title>
<path fill="none" stroke="black" d="M95,-46.27C95,-59.58 95,-75.19 95,-86.82"/>
<polygon fill="black" stroke="black" points="98.5,-46.2 95,-36.2 91.5,-46.2 98.5,-46.2"/>
<text text-anchor="middle" x="198.5" y="-57.8" font-family="Times,serif" font-size="14.00">षष्ठी_तत्पुरुषः</text>
</g>
<!-- Node7_1 -->
<g id="node10" class="node">
<title>Node7_1</title>
<ellipse fill="#93db70" stroke="#93db70" cx="690" cy="-279" rx="87.99" ry="18"/>
<text text-anchor="middle" x="690" y="-275.3" font-family="Times,serif" font-size="14.00">आकाशम्(7.1)</text>
</g>
<!-- Node7_1&#45;&gt;Node8_1 -->
<g id="edge9" class="edge">
<title>Node7_1&#45;&gt;Node8_1</title>
<path fill="none" stroke="black" d="M654.57,-301.36C630.28,-316 598.54,-335.13 576.23,-348.58"/>
<polygon fill="black" stroke="black" points="656.39,-304.35 663.15,-296.19 652.78,-298.35 656.39,-304.35"/>
<text text-anchor="middle" x="656" y="-318.8" font-family="Times,serif" font-size="14.00">कर्म</text>
</g>
<!-- Node9_1 -->
<g id="node11" class="node">
<title>Node9_1</title>
<ellipse fill="#40e0d0" stroke="#40e0d0" cx="913" cy="-366" rx="78.79" ry="18"/>
<text text-anchor="middle" x="913" y="-362.3" font-family="Times,serif" font-size="14.00">वेगेन(9.1)</text>
</g>
<!-- Node9_1&#45;&gt;Node6_1 -->
<g id="edge11" class="edge">
<title>Node9_1&#45;&gt;Node6_1</title>
<path fill="none" stroke="black" d="M884.39,-389.73C866.16,-404.21 842.98,-422.62 826.57,-435.66"/>
<polygon fill="black" stroke="black" points="886.72,-392.35 892.37,-383.39 882.36,-386.87 886.72,-392.35"/>
<text text-anchor="middle" x="901" y="-405.8" font-family="Times,serif" font-size="14.00">करणम्</text>
</g>
<!-- Node10_1 -->
<g id="node12" class="node">
<title>Node10_1</title>
<ellipse fill="#ffff00" stroke="#ffff00" cx="540" cy="-18" rx="77.99" ry="18"/>
<text text-anchor="middle" x="540" y="-14.3" font-family="Times,serif" font-size="14.00">गरुड&#45;(10.1)</text>
</g>
<!-- Node10_1&#45;&gt;Node10_2 -->
<g id="edge12" class="edge">
<title>Node10_1&#45;&gt;Node10_2</title>
<path fill="none" stroke="black" d="M540,-46.27C540,-59.58 540,-75.19 540,-86.82"/>
<polygon fill="black" stroke="black" points="543.5,-46.2 540,-36.2 536.5,-46.2 543.5,-46.2"/>
<text text-anchor="middle" x="604.5" y="-57.8" font-family="Times,serif" font-size="14.00">कर्मधारयः</text>
</g>
</g>
</svg>
