<?xml version="1.0" encoding="UTF-8" standalone="no"?>
<!DOCTYPE svg PUBLIC "-//W3C//DTD SVG 1.1//EN"
 "http://www.w3.org/Graphics/SVG/1.1/DTD/svg11.dtd">
<!-- Generated by graphviz version 2.43.0 (0)
 -->
<!-- Title: G Pages: 1 -->
<svg width="1579pt" height="740pt"
 viewBox="0.00 0.00 1578.99 740.00" xmlns="http://www.w3.org/2000/svg" xmlns:xlink="http://www.w3.org/1999/xlink">
<g id="graph0" class="graph" transform="scale(1 1) rotate(0) translate(4 736)">
<title>G</title>
<polygon fill="#fffacd" stroke="transparent" points="-4,4 -4,-736 1574.99,-736 1574.99,4 -4,4"/>
<g id="clust1" class="cluster">
<title>cluster_1</title>
<polygon fill="#fffacd" stroke="black" points="215.99,-514 215.99,-653 1255.99,-653 1255.99,-514 215.99,-514"/>
</g>
<!-- Node1_7 -->
<g id="node1" class="node">
<title>Node1_7</title>
<ellipse fill="#c6e2eb" stroke="#c6e2eb" cx="1150.99" cy="-540" rx="96.68" ry="18"/>
<text text-anchor="middle" x="1150.99" y="-536.3" font-family="Times,serif" font-size="14.00">समाकुले(1.7)</text>
</g>
<!-- Node8_2 -->
<g id="node2" class="node">
<title>Node8_2</title>
<ellipse fill="#c6e2eb" stroke="#c6e2eb" cx="542.99" cy="-627" rx="94.78" ry="18"/>
<text text-anchor="middle" x="542.99" y="-623.3" font-family="Times,serif" font-size="14.00">(मार्गे)(8.2)</text>
</g>
<!-- Node1_7&#45;&gt;Node8_2 -->
<g id="edge7" class="edge">
<title>Node1_7&#45;&gt;Node8_2</title>
<path fill="none" stroke="black" d="M1095.46,-559.05C1059.49,-570.02 1011.43,-583.35 967.99,-591 854.8,-610.95 722.59,-619.57 636.06,-623.27"/>
<polygon fill="black" stroke="black" points="1096.75,-562.31 1105.27,-556.02 1094.68,-555.62 1096.75,-562.31"/>
<text text-anchor="middle" x="1091.49" y="-579.8" font-family="Times,serif" font-size="14.00">विशेषणम्</text>
</g>
<!-- Node7_1 -->
<g id="node16" class="node">
<title>Node7_1</title>
<ellipse fill="#ff1975" stroke="#ff1975" cx="150.99" cy="-714" rx="76.09" ry="18"/>
<text text-anchor="middle" x="150.99" y="-710.3" font-family="Times,serif" font-size="14.00">(जगाम)(7.1)</text>
</g>
<!-- Node8_2&#45;&gt;Node7_1 -->
<g id="edge15" class="edge">
<title>Node8_2&#45;&gt;Node7_1</title>
<path fill="none" stroke="black" d="M472.97,-643.18C396.19,-659.83 274.68,-686.18 204.95,-701.3"/>
<polygon fill="black" stroke="black" points="474,-646.54 483.03,-641 472.51,-639.7 474,-646.54"/>
<text text-anchor="middle" x="448.49" y="-666.8" font-family="Times,serif" font-size="14.00">देशाधिकरणम्</text>
</g>
<!-- Node2_1 -->
<g id="node3" class="node">
<title>Node2_1</title>
<ellipse fill="#c6e2eb" stroke="#c6e2eb" cx="929.99" cy="-540" rx="106.68" ry="18"/>
<text text-anchor="middle" x="929.99" y="-536.3" font-family="Times,serif" font-size="14.00">विविक्ते(2.1)</text>
</g>
<!-- Node2_1&#45;&gt;Node8_2 -->
<g id="edge8" class="edge">
<title>Node2_1&#45;&gt;Node8_2</title>
<path fill="none" stroke="black" d="M886.47,-561.15C862.35,-571.55 831.54,-583.58 802.99,-591 746.24,-605.76 680.81,-614.53 629.78,-619.59"/>
<polygon fill="black" stroke="black" points="887.95,-564.33 895.71,-557.11 885.14,-557.92 887.95,-564.33"/>
<text text-anchor="middle" x="906.49" y="-579.8" font-family="Times,serif" font-size="14.00">विशेषणम्</text>
</g>
<!-- Node3_1 -->
<g id="node4" class="node">
<title>Node3_1</title>
<ellipse fill="#c6e2eb" stroke="#c6e2eb" cx="726.99" cy="-540" rx="78.79" ry="18"/>
<text text-anchor="middle" x="726.99" y="-536.3" font-family="Times,serif" font-size="14.00">विमले(3.1)</text>
</g>
<!-- Node3_1&#45;&gt;Node8_2 -->
<g id="edge9" class="edge">
<title>Node3_1&#45;&gt;Node8_2</title>
<path fill="none" stroke="black" d="M701.37,-564.24C689.97,-573.62 675.98,-583.88 661.99,-591 643.66,-600.33 622.45,-607.57 603.05,-612.98"/>
<polygon fill="black" stroke="black" points="703.81,-566.77 709.18,-557.63 699.29,-561.42 703.81,-566.77"/>
<text text-anchor="middle" x="741.49" y="-579.8" font-family="Times,serif" font-size="14.00">विशेषणम्</text>
</g>
<!-- Node4_1 -->
<g id="node5" class="node">
<title>Node4_1</title>
<ellipse fill="#c6e2eb" stroke="#c6e2eb" cx="542.99" cy="-540" rx="87.99" ry="18"/>
<text text-anchor="middle" x="542.99" y="-536.3" font-family="Times,serif" font-size="14.00">विश्वे(4.1)</text>
</g>
<!-- Node4_1&#45;&gt;Node8_2 -->
<g id="edge10" class="edge">
<title>Node4_1&#45;&gt;Node8_2</title>
<path fill="none" stroke="black" d="M542.99,-568.27C542.99,-581.58 542.99,-597.19 542.99,-608.82"/>
<polygon fill="black" stroke="black" points="546.49,-568.2 542.99,-558.2 539.49,-568.2 546.49,-568.2"/>
<text text-anchor="middle" x="600.49" y="-579.8" font-family="Times,serif" font-size="14.00">विशेषणम्</text>
</g>
<!-- Node5_2 -->
<g id="node6" class="node">
<title>Node5_2</title>
<ellipse fill="#c6e2eb" stroke="#c6e2eb" cx="330.99" cy="-540" rx="106.68" ry="18"/>
<text text-anchor="middle" x="330.99" y="-536.3" font-family="Times,serif" font-size="14.00">निषेविते(5.2)</text>
</g>
<!-- Node5_2&#45;&gt;Node8_2 -->
<g id="edge12" class="edge">
<title>Node5_2&#45;&gt;Node8_2</title>
<path fill="none" stroke="black" d="M366.91,-562.57C383.83,-572.14 404.53,-583.01 423.99,-591 444.31,-599.34 467.33,-606.6 487.67,-612.3"/>
<polygon fill="black" stroke="black" points="368.35,-559.36 357.94,-557.42 364.87,-565.43 368.35,-559.36"/>
<text text-anchor="middle" x="481.49" y="-579.8" font-family="Times,serif" font-size="14.00">विशेषणम्</text>
</g>
<!-- Node1_1 -->
<g id="node7" class="node">
<title>Node1_1</title>
<ellipse fill="#ffff00" stroke="#ffff00" cx="1150.99" cy="-18" rx="63.09" ry="18"/>
<text text-anchor="middle" x="1150.99" y="-14.3" font-family="Times,serif" font-size="14.00">महा&#45;(1.1)</text>
</g>
<!-- Node1_2 -->
<g id="node8" class="node">
<title>Node1_2</title>
<ellipse fill="#ffff00" stroke="#ffff00" cx="1150.99" cy="-105" rx="63.09" ry="18"/>
<text text-anchor="middle" x="1150.99" y="-101.3" font-family="Times,serif" font-size="14.00">ऋषि&#45;(1.2)</text>
</g>
<!-- Node1_1&#45;&gt;Node1_2 -->
<g id="edge1" class="edge">
<title>Node1_1&#45;&gt;Node1_2</title>
<path fill="none" stroke="black" d="M1150.99,-46.27C1150.99,-59.58 1150.99,-75.19 1150.99,-86.82"/>
<polygon fill="black" stroke="black" points="1154.49,-46.2 1150.99,-36.2 1147.49,-46.2 1154.49,-46.2"/>
<text text-anchor="middle" x="1215.49" y="-57.8" font-family="Times,serif" font-size="14.00">कर्मधारयः</text>
</g>
<!-- Node1_3 -->
<g id="node9" class="node">
<title>Node1_3</title>
<ellipse fill="#ffff00" stroke="#ffff00" cx="1150.99" cy="-192" rx="53.89" ry="18"/>
<text text-anchor="middle" x="1150.99" y="-188.3" font-family="Times,serif" font-size="14.00">गण&#45;(1.3)</text>
</g>
<!-- Node1_2&#45;&gt;Node1_3 -->
<g id="edge2" class="edge">
<title>Node1_2&#45;&gt;Node1_3</title>
<path fill="none" stroke="black" d="M1150.99,-133.27C1150.99,-146.58 1150.99,-162.19 1150.99,-173.82"/>
<polygon fill="black" stroke="black" points="1154.49,-133.2 1150.99,-123.2 1147.49,-133.2 1154.49,-133.2"/>
<text text-anchor="middle" x="1254.49" y="-144.8" font-family="Times,serif" font-size="14.00">षष्ठी_तत्पुरुषः</text>
</g>
<!-- Node1_4 -->
<g id="node10" class="node">
<title>Node1_4</title>
<ellipse fill="#ffff00" stroke="#ffff00" cx="1150.99" cy="-279" rx="100.18" ry="18"/>
<text text-anchor="middle" x="1150.99" y="-275.3" font-family="Times,serif" font-size="14.00">गन्धर्व&#45;(1.4)</text>
</g>
<!-- Node1_3&#45;&gt;Node1_4 -->
<g id="edge3" class="edge">
<title>Node1_3&#45;&gt;Node1_4</title>
<path fill="none" stroke="black" d="M1150.99,-220.27C1150.99,-233.58 1150.99,-249.19 1150.99,-260.82"/>
<polygon fill="black" stroke="black" points="1154.49,-220.2 1150.99,-210.2 1147.49,-220.2 1154.49,-220.2"/>
<text text-anchor="middle" x="1215.49" y="-231.8" font-family="Times,serif" font-size="14.00">द्वन्द्वः</text>
</g>
<!-- Node1_5 -->
<g id="node11" class="node">
<title>Node1_5</title>
<ellipse fill="#ffff00" stroke="#ffff00" cx="1150.99" cy="-366" rx="63.09" ry="18"/>
<text text-anchor="middle" x="1150.99" y="-362.3" font-family="Times,serif" font-size="14.00">नाग&#45;(1.5)</text>
</g>
<!-- Node1_4&#45;&gt;Node1_5 -->
<g id="edge4" class="edge">
<title>Node1_4&#45;&gt;Node1_5</title>
<path fill="none" stroke="black" d="M1150.99,-307.27C1150.99,-320.58 1150.99,-336.19 1150.99,-347.82"/>
<polygon fill="black" stroke="black" points="1154.49,-307.2 1150.99,-297.2 1147.49,-307.2 1154.49,-307.2"/>
<text text-anchor="middle" x="1215.49" y="-318.8" font-family="Times,serif" font-size="14.00">द्वन्द्वः</text>
</g>
<!-- Node1_6 -->
<g id="node12" class="node">
<title>Node1_6</title>
<ellipse fill="#ffff00" stroke="#ffff00" cx="1150.99" cy="-453" rx="72.29" ry="18"/>
<text text-anchor="middle" x="1150.99" y="-449.3" font-family="Times,serif" font-size="14.00">यक्ष&#45;(1.6)</text>
</g>
<!-- Node1_5&#45;&gt;Node1_6 -->
<g id="edge5" class="edge">
<title>Node1_5&#45;&gt;Node1_6</title>
<path fill="none" stroke="black" d="M1150.99,-394.27C1150.99,-407.58 1150.99,-423.19 1150.99,-434.82"/>
<polygon fill="black" stroke="black" points="1154.49,-394.2 1150.99,-384.2 1147.49,-394.2 1154.49,-394.2"/>
<text text-anchor="middle" x="1215.49" y="-405.8" font-family="Times,serif" font-size="14.00">द्वन्द्वः</text>
</g>
<!-- Node1_6&#45;&gt;Node1_7 -->
<g id="edge6" class="edge">
<title>Node1_6&#45;&gt;Node1_7</title>
<path fill="none" stroke="black" d="M1150.99,-481.27C1150.99,-494.58 1150.99,-510.19 1150.99,-521.82"/>
<polygon fill="black" stroke="black" points="1154.49,-481.2 1150.99,-471.2 1147.49,-481.2 1154.49,-481.2"/>
<text text-anchor="middle" x="1261.49" y="-492.8" font-family="Times,serif" font-size="14.00">तृतीया_तत्पुरुषः</text>
</g>
<!-- Node5_1 -->
<g id="node13" class="node">
<title>Node5_1</title>
<ellipse fill="#ffff00" stroke="#ffff00" cx="1349.99" cy="-18" rx="118.08" ry="18"/>
<text text-anchor="middle" x="1349.99" y="-14.3" font-family="Times,serif" font-size="14.00">विश्वावसु&#45;(5.1)</text>
</g>
<!-- Node5_3 -->
<g id="node14" class="node">
<title>Node5_3</title>
<ellipse fill="lightgrey" stroke="black" cx="1349.99" cy="-105" rx="27" ry="18"/>
</g>
<!-- Node5_1&#45;&gt;Node5_3 -->
<g id="edge11" class="edge">
<title>Node5_1&#45;&gt;Node5_3</title>
<path fill="none" stroke="black" d="M1349.99,-46.27C1349.99,-59.58 1349.99,-75.19 1349.99,-86.82"/>
<polygon fill="black" stroke="black" points="1353.49,-46.2 1349.99,-36.2 1346.49,-46.2 1353.49,-46.2"/>
<text text-anchor="middle" x="1460.49" y="-57.8" font-family="Times,serif" font-size="14.00">तृतीया_तत्पुरुषः</text>
</g>
<!-- Node6_1 -->
<g id="node15" class="node">
<title>Node6_1</title>
<ellipse fill="#00bfff" stroke="#00bfff" cx="103.99" cy="-627" rx="103.98" ry="18"/>
<text text-anchor="middle" x="103.99" y="-623.3" font-family="Times,serif" font-size="14.00">(मारुतिः)(6.1)</text>
</g>
<!-- Node6_1&#45;&gt;Node7_1 -->
<g id="edge13" class="edge">
<title>Node6_1&#45;&gt;Node7_1</title>
<path fill="none" stroke="black" d="M118.45,-654.15C126,-667.81 135.03,-684.13 141.65,-696.11"/>
<polygon fill="black" stroke="black" points="121.4,-652.26 113.5,-645.2 115.28,-655.65 121.4,-652.26"/>
<text text-anchor="middle" x="166.99" y="-666.8" font-family="Times,serif" font-size="14.00">कर्ता</text>
</g>
<!-- Node8_1 -->
<g id="node17" class="node">
<title>Node8_1</title>
<ellipse fill="#ffff00" stroke="#ffff00" cx="126.99" cy="-540" rx="79.09" ry="18"/>
<text text-anchor="middle" x="126.99" y="-536.3" font-family="Times,serif" font-size="14.00">(वायु)&#45;(8.1)</text>
</g>
<!-- Node8_1&#45;&gt;Node8_2 -->
<g id="edge14" class="edge">
<title>Node8_1&#45;&gt;Node8_2</title>
<path fill="none" stroke="black" d="M147.02,-565.5C156.29,-575.12 168.11,-585.22 180.99,-591 227.37,-611.8 358.59,-620.28 449.6,-623.71"/>
<polygon fill="black" stroke="black" points="149.48,-563.01 140.15,-557.99 144.31,-567.73 149.48,-563.01"/>
<text text-anchor="middle" x="284.49" y="-579.8" font-family="Times,serif" font-size="14.00">षष्ठी_तत्पुरुषः</text>
</g>
</g>
</svg>
