<?xml version="1.0" encoding="UTF-8" standalone="no"?>
<!DOCTYPE svg PUBLIC "-//W3C//DTD SVG 1.1//EN"
 "http://www.w3.org/Graphics/SVG/1.1/DTD/svg11.dtd">
<!-- Generated by graphviz version 2.43.0 (0)
 -->
<!-- Title: G Pages: 1 -->
<svg width="1102pt" height="305pt"
 viewBox="0.00 0.00 1102.00 305.00" xmlns="http://www.w3.org/2000/svg" xmlns:xlink="http://www.w3.org/1999/xlink">
<g id="graph0" class="graph" transform="scale(1 1) rotate(0) translate(4 301)">
<title>G</title>
<polygon fill="#fffacd" stroke="transparent" points="-4,4 -4,-301 1098,-301 1098,4 -4,4"/>
<g id="clust1" class="cluster">
<title>cluster_1</title>
<polygon fill="#fffacd" stroke="black" points="799,-79 799,-218 1086,-218 1086,-79 799,-79"/>
</g>
<g id="clust2" class="cluster">
<title>cluster_2</title>
<polygon fill="#fffacd" stroke="black" points="8,-79 8,-218 449,-218 449,-79 8,-79"/>
</g>
<!-- Node1_1 -->
<g id="node1" class="node">
<title>Node1_1</title>
<ellipse fill="#00bfff" stroke="#00bfff" cx="1016" cy="-105" rx="50.89" ry="18"/>
<text text-anchor="middle" x="1016" y="-101.3" font-family="Times,serif" font-size="14.00">सः(1.1)</text>
</g>
<!-- Node6_2 -->
<g id="node2" class="node">
<title>Node6_2</title>
<ellipse fill="#00bfff" stroke="#00bfff" cx="877" cy="-192" rx="69.59" ry="18"/>
<text text-anchor="middle" x="877" y="-188.3" font-family="Times,serif" font-size="14.00">कपिः(6.2)</text>
</g>
<!-- Node1_1&#45;&gt;Node6_2 -->
<g id="edge1" class="edge">
<title>Node1_1&#45;&gt;Node6_2</title>
<path fill="none" stroke="black" d="M985.58,-127.16C972.1,-136.3 955.94,-146.96 941,-156 929.84,-162.75 917.3,-169.74 906.3,-175.68"/>
<polygon fill="black" stroke="black" points="987.73,-129.93 994.01,-121.4 983.78,-124.15 987.73,-129.93"/>
<text text-anchor="middle" x="1021.5" y="-144.8" font-family="Times,serif" font-size="14.00">विशेषणम्</text>
</g>
<!-- Node8_1 -->
<g id="node10" class="node">
<title>Node8_1</title>
<ellipse fill="#ff1975" stroke="#ff1975" cx="623" cy="-279" rx="106.68" ry="18"/>
<text text-anchor="middle" x="623" y="-275.3" font-family="Times,serif" font-size="14.00">पातयामास(8.1)</text>
</g>
<!-- Node6_2&#45;&gt;Node8_1 -->
<g id="edge8" class="edge">
<title>Node6_2&#45;&gt;Node8_1</title>
<path fill="none" stroke="black" d="M826.44,-209.92C780.49,-225.3 713.29,-247.79 668.86,-262.65"/>
<polygon fill="black" stroke="black" points="827.82,-213.15 836.19,-206.66 825.6,-206.51 827.82,-213.15"/>
<text text-anchor="middle" x="801" y="-231.8" font-family="Times,serif" font-size="14.00">कर्ता</text>
</g>
<!-- Node5_2 -->
<g id="node3" class="node">
<title>Node5_2</title>
<ellipse fill="#00bfff" stroke="#00bfff" cx="878" cy="-105" rx="69.59" ry="18"/>
<text text-anchor="middle" x="878" y="-101.3" font-family="Times,serif" font-size="14.00">वेगः(5.2)</text>
</g>
<!-- Node5_2&#45;&gt;Node6_2 -->
<g id="edge6" class="edge">
<title>Node5_2&#45;&gt;Node6_2</title>
<path fill="none" stroke="black" d="M837.24,-127.2C832.74,-131.18 828.78,-135.77 826,-141 818.72,-154.68 830.71,-166.92 844.88,-175.87"/>
<polygon fill="black" stroke="black" points="839.42,-129.93 845.21,-121.06 835.15,-124.38 839.42,-129.93"/>
<text text-anchor="middle" x="883.5" y="-144.8" font-family="Times,serif" font-size="14.00">विशेषणम्</text>
</g>
<!-- Node2_1 -->
<g id="node4" class="node">
<title>Node2_1</title>
<ellipse fill="#93db70" stroke="#93db70" cx="381" cy="-105" rx="59.59" ry="18"/>
<text text-anchor="middle" x="381" y="-101.3" font-family="Times,serif" font-size="14.00">तम्(2.1)</text>
</g>
<!-- Node9_1 -->
<g id="node5" class="node">
<title>Node9_1</title>
<ellipse fill="#93db70" stroke="#93db70" cx="326" cy="-192" rx="96.68" ry="18"/>
<text text-anchor="middle" x="326" y="-188.3" font-family="Times,serif" font-size="14.00">जीमूतम्(9.1)</text>
</g>
<!-- Node2_1&#45;&gt;Node9_1 -->
<g id="edge2" class="edge">
<title>Node2_1&#45;&gt;Node9_1</title>
<path fill="none" stroke="black" d="M364.6,-131.34C355.7,-145.1 344.93,-161.74 337.03,-173.95"/>
<polygon fill="black" stroke="black" points="367.64,-133.09 370.13,-122.79 361.76,-129.29 367.64,-133.09"/>
<text text-anchor="middle" x="414.5" y="-144.8" font-family="Times,serif" font-size="14.00">विशेषणम्</text>
</g>
<!-- Node9_1&#45;&gt;Node8_1 -->
<g id="edge10" class="edge">
<title>Node9_1&#45;&gt;Node8_1</title>
<path fill="none" stroke="black" d="M386.24,-210.24C440.63,-225.81 519.82,-248.47 571.37,-263.22"/>
<polygon fill="black" stroke="black" points="386.96,-206.81 376.38,-207.42 385.03,-213.54 386.96,-206.81"/>
<text text-anchor="middle" x="521" y="-231.8" font-family="Times,serif" font-size="14.00">कर्म</text>
</g>
<!-- Node3_1 -->
<g id="node6" class="node">
<title>Node3_1</title>
<ellipse fill="#93db70" stroke="#93db70" cx="160" cy="-105" rx="143.77" ry="18"/>
<text text-anchor="middle" x="160" y="-101.3" font-family="Times,serif" font-size="14.00">उच्छ्र्रितम्(3.1)</text>
</g>
<!-- Node3_1&#45;&gt;Node9_1 -->
<g id="edge3" class="edge">
<title>Node3_1&#45;&gt;Node9_1</title>
<path fill="none" stroke="black" d="M189.46,-128.96C202.1,-138.13 217.32,-148.32 232,-156 246.82,-163.75 263.74,-170.6 279.1,-176.15"/>
<polygon fill="black" stroke="black" points="191.28,-125.95 181.16,-122.81 187.11,-131.57 191.28,-125.95"/>
<text text-anchor="middle" x="289.5" y="-144.8" font-family="Times,serif" font-size="14.00">विशेषणम्</text>
</g>
<!-- Node4_1 -->
<g id="node7" class="node">
<title>Node4_1</title>
<ellipse fill="#ff99ff" stroke="#ff99ff" cx="160" cy="-18" rx="115.88" ry="18"/>
<text text-anchor="middle" x="160" y="-14.3" font-family="Times,serif" font-size="14.00">अत्यर्थम्(4.1)</text>
</g>
<!-- Node4_1&#45;&gt;Node3_1 -->
<g id="edge4" class="edge">
<title>Node4_1&#45;&gt;Node3_1</title>
<path fill="none" stroke="black" d="M160,-46.27C160,-59.58 160,-75.19 160,-86.82"/>
<polygon fill="black" stroke="black" points="163.5,-46.2 160,-36.2 156.5,-46.2 163.5,-46.2"/>
<text text-anchor="middle" x="217.5" y="-57.8" font-family="Times,serif" font-size="14.00">सम्बन्धः</text>
</g>
<!-- Node5_1 -->
<g id="node8" class="node">
<title>Node5_1</title>
<ellipse fill="#ffff00" stroke="#ffff00" cx="888" cy="-18" rx="63.09" ry="18"/>
<text text-anchor="middle" x="888" y="-14.3" font-family="Times,serif" font-size="14.00">महा&#45;(5.1)</text>
</g>
<!-- Node5_1&#45;&gt;Node5_2 -->
<g id="edge5" class="edge">
<title>Node5_1&#45;&gt;Node5_2</title>
<path fill="none" stroke="black" d="M884.79,-46.27C883.23,-59.58 881.39,-75.19 880.02,-86.82"/>
<polygon fill="black" stroke="black" points="888.28,-46.54 885.98,-36.2 881.33,-45.72 888.28,-46.54"/>
<text text-anchor="middle" x="947.5" y="-57.8" font-family="Times,serif" font-size="14.00">कर्मधारयः</text>
</g>
<!-- Node6_1 -->
<g id="node9" class="node">
<title>Node6_1</title>
<ellipse fill="#ffff00" stroke="#ffff00" cx="522" cy="-105" rx="63.09" ry="18"/>
<text text-anchor="middle" x="522" y="-101.3" font-family="Times,serif" font-size="14.00">महा&#45;(6.1)</text>
</g>
<!-- Node6_1&#45;&gt;Node6_2 -->
<g id="edge7" class="edge">
<title>Node6_1&#45;&gt;Node6_2</title>
<path fill="none" stroke="black" d="M541.44,-130.67C550.31,-140.18 561.61,-150.16 574,-156 584.67,-161.03 727.38,-176.02 813.08,-184.67"/>
<polygon fill="black" stroke="black" points="543.82,-128.08 534.58,-122.89 538.57,-132.71 543.82,-128.08"/>
<text text-anchor="middle" x="638.5" y="-144.8" font-family="Times,serif" font-size="14.00">कर्मधारयः</text>
</g>
<!-- Node7_1 -->
<g id="node11" class="node">
<title>Node7_1</title>
<ellipse fill="#40e0d0" stroke="#40e0d0" cx="623" cy="-192" rx="69.59" ry="18"/>
<text text-anchor="middle" x="623" y="-188.3" font-family="Times,serif" font-size="14.00">उरसा(7.1)</text>
</g>
<!-- Node7_1&#45;&gt;Node8_1 -->
<g id="edge9" class="edge">
<title>Node7_1&#45;&gt;Node8_1</title>
<path fill="none" stroke="black" d="M623,-220.27C623,-233.58 623,-249.19 623,-260.82"/>
<polygon fill="black" stroke="black" points="626.5,-220.2 623,-210.2 619.5,-220.2 626.5,-220.2"/>
<text text-anchor="middle" x="659" y="-231.8" font-family="Times,serif" font-size="14.00">करणम्</text>
</g>
<!-- Node10_1 -->
<g id="node12" class="node">
<title>Node10_1</title>
<ellipse fill="#ff99ff" stroke="#ff99ff" cx="687" cy="-18" rx="56.59" ry="18"/>
<text text-anchor="middle" x="687" y="-14.3" font-family="Times,serif" font-size="14.00">इव(10.1)</text>
</g>
<!-- Node11_1 -->
<g id="node13" class="node">
<title>Node11_1</title>
<ellipse fill="#00bfff" stroke="#00bfff" cx="697" cy="-105" rx="93.68" ry="18"/>
<text text-anchor="middle" x="697" y="-101.3" font-family="Times,serif" font-size="14.00">मारुतः(11.1)</text>
</g>
<!-- Node10_1&#45;&gt;Node11_1 -->
<g id="edge11" class="edge">
<title>Node10_1&#45;&gt;Node11_1</title>
<path fill="none" stroke="black" d="M690.21,-46.27C691.77,-59.58 693.61,-75.19 694.98,-86.82"/>
<polygon fill="black" stroke="black" points="693.67,-45.72 689.02,-36.2 686.72,-46.54 693.67,-45.72"/>
<text text-anchor="middle" x="781" y="-57.8" font-family="Times,serif" font-size="14.00">उपमान_द्योतकः</text>
</g>
<!-- Node11_1&#45;&gt;Node6_2 -->
<g id="edge12" class="edge">
<title>Node11_1&#45;&gt;Node6_2</title>
<path fill="none" stroke="black" d="M703.61,-132.96C706.93,-141.44 711.83,-150.12 719,-156 733.88,-168.21 778.08,-177.37 815.96,-183.26"/>
<polygon fill="black" stroke="black" points="706.87,-131.66 700.4,-123.27 700.22,-133.86 706.87,-131.66"/>
<text text-anchor="middle" x="769" y="-144.8" font-family="Times,serif" font-size="14.00">उपमानम्</text>
</g>
</g>
</svg>
