<?xml version="1.0" encoding="UTF-8" standalone="no"?>
<!DOCTYPE svg PUBLIC "-//W3C//DTD SVG 1.1//EN"
 "http://www.w3.org/Graphics/SVG/1.1/DTD/svg11.dtd">
<!-- Generated by graphviz version 2.43.0 (0)
 -->
<!-- Title: G Pages: 1 -->
<svg width="1371pt" height="566pt"
 viewBox="0.00 0.00 1370.99 566.00" xmlns="http://www.w3.org/2000/svg" xmlns:xlink="http://www.w3.org/1999/xlink">
<g id="graph0" class="graph" transform="scale(1 1) rotate(0) translate(4 562)">
<title>G</title>
<polygon fill="#fffacd" stroke="transparent" points="-4,4 -4,-562 1366.99,-562 1366.99,4 -4,4"/>
<g id="clust1" class="cluster">
<title>cluster_1</title>
<polygon fill="#fffacd" stroke="black" points="215.99,-340 215.99,-479 1256.99,-479 1256.99,-340 215.99,-340"/>
</g>
<!-- Node1_7 -->
<g id="node1" class="node">
<title>Node1_7</title>
<ellipse fill="#c6e2eb" stroke="#c6e2eb" cx="320.99" cy="-366" rx="96.68" ry="18"/>
<text text-anchor="middle" x="320.99" y="-362.3" font-family="Times,serif" font-size="14.00">समाकुले(1.7)</text>
</g>
<!-- Node8_2 -->
<g id="node2" class="node">
<title>Node8_2</title>
<ellipse fill="#c6e2eb" stroke="#c6e2eb" cx="523.99" cy="-453" rx="94.78" ry="18"/>
<text text-anchor="middle" x="523.99" y="-449.3" font-family="Times,serif" font-size="14.00">(मार्गे)(8.2)</text>
</g>
<!-- Node1_7&#45;&gt;Node8_2 -->
<g id="edge7" class="edge">
<title>Node1_7&#45;&gt;Node8_2</title>
<path fill="none" stroke="black" d="M353.61,-389.02C368.76,-398.56 387.31,-409.28 404.99,-417 424.73,-425.61 447.2,-432.84 467.27,-438.44"/>
<polygon fill="black" stroke="black" points="355.42,-386.02 345.11,-383.57 351.64,-391.92 355.42,-386.02"/>
<text text-anchor="middle" x="462.49" y="-405.8" font-family="Times,serif" font-size="14.00">विशेषणम्</text>
</g>
<!-- Node7_1 -->
<g id="node15" class="node">
<title>Node7_1</title>
<ellipse fill="#ff1975" stroke="#ff1975" cx="150.99" cy="-540" rx="76.09" ry="18"/>
<text text-anchor="middle" x="150.99" y="-536.3" font-family="Times,serif" font-size="14.00">(जगाम)(7.1)</text>
</g>
<!-- Node8_2&#45;&gt;Node7_1 -->
<g id="edge15" class="edge">
<title>Node8_2&#45;&gt;Node7_1</title>
<path fill="none" stroke="black" d="M455.74,-469.55C383.13,-486.1 269.81,-511.92 203.74,-526.98"/>
<polygon fill="black" stroke="black" points="456.74,-472.92 465.71,-467.28 455.18,-466.09 456.74,-472.92"/>
<text text-anchor="middle" x="437.49" y="-492.8" font-family="Times,serif" font-size="14.00">देशाधिकरणम्</text>
</g>
<!-- Node2_1 -->
<g id="node3" class="node">
<title>Node2_1</title>
<ellipse fill="#c6e2eb" stroke="#c6e2eb" cx="910.99" cy="-366" rx="106.68" ry="18"/>
<text text-anchor="middle" x="910.99" y="-362.3" font-family="Times,serif" font-size="14.00">विविक्ते(2.1)</text>
</g>
<!-- Node2_1&#45;&gt;Node8_2 -->
<g id="edge8" class="edge">
<title>Node2_1&#45;&gt;Node8_2</title>
<path fill="none" stroke="black" d="M867.47,-387.15C843.35,-397.55 812.54,-409.58 783.99,-417 727.24,-431.76 661.81,-440.53 610.78,-445.59"/>
<polygon fill="black" stroke="black" points="868.95,-390.33 876.71,-383.11 866.14,-383.92 868.95,-390.33"/>
<text text-anchor="middle" x="887.49" y="-405.8" font-family="Times,serif" font-size="14.00">विशेषणम्</text>
</g>
<!-- Node3_1 -->
<g id="node4" class="node">
<title>Node3_1</title>
<ellipse fill="#c6e2eb" stroke="#c6e2eb" cx="707.99" cy="-366" rx="78.79" ry="18"/>
<text text-anchor="middle" x="707.99" y="-362.3" font-family="Times,serif" font-size="14.00">विमले(3.1)</text>
</g>
<!-- Node3_1&#45;&gt;Node8_2 -->
<g id="edge9" class="edge">
<title>Node3_1&#45;&gt;Node8_2</title>
<path fill="none" stroke="black" d="M682.37,-390.24C670.97,-399.62 656.98,-409.88 642.99,-417 624.66,-426.33 603.45,-433.57 584.05,-438.98"/>
<polygon fill="black" stroke="black" points="684.81,-392.77 690.18,-383.63 680.29,-387.42 684.81,-392.77"/>
<text text-anchor="middle" x="722.49" y="-405.8" font-family="Times,serif" font-size="14.00">विशेषणम्</text>
</g>
<!-- Node4_1 -->
<g id="node5" class="node">
<title>Node4_1</title>
<ellipse fill="#c6e2eb" stroke="#c6e2eb" cx="523.99" cy="-366" rx="87.99" ry="18"/>
<text text-anchor="middle" x="523.99" y="-362.3" font-family="Times,serif" font-size="14.00">विश्वे(4.1)</text>
</g>
<!-- Node4_1&#45;&gt;Node8_2 -->
<g id="edge10" class="edge">
<title>Node4_1&#45;&gt;Node8_2</title>
<path fill="none" stroke="black" d="M523.99,-394.27C523.99,-407.58 523.99,-423.19 523.99,-434.82"/>
<polygon fill="black" stroke="black" points="527.49,-394.2 523.99,-384.2 520.49,-394.2 527.49,-394.2"/>
<text text-anchor="middle" x="581.49" y="-405.8" font-family="Times,serif" font-size="14.00">विशेषणम्</text>
</g>
<!-- Node5_2 -->
<g id="node6" class="node">
<title>Node5_2</title>
<ellipse fill="#c6e2eb" stroke="#c6e2eb" cx="1141.99" cy="-366" rx="106.68" ry="18"/>
<text text-anchor="middle" x="1141.99" y="-362.3" font-family="Times,serif" font-size="14.00">निषेविते(5.2)</text>
</g>
<!-- Node5_2&#45;&gt;Node8_2 -->
<g id="edge12" class="edge">
<title>Node5_2&#45;&gt;Node8_2</title>
<path fill="none" stroke="black" d="M1083.45,-384.96C1045.47,-395.91 994.73,-409.25 948.99,-417 835.48,-436.23 703.06,-445.01 616.58,-448.94"/>
<polygon fill="black" stroke="black" points="1084.69,-388.24 1093.31,-382.09 1082.73,-381.52 1084.69,-388.24"/>
<text text-anchor="middle" x="1075.49" y="-405.8" font-family="Times,serif" font-size="14.00">विशेषणम्</text>
</g>
<!-- Node1_1 -->
<g id="node7" class="node">
<title>Node1_1</title>
<ellipse fill="#ffff00" stroke="#ffff00" cx="148.99" cy="-18" rx="63.09" ry="18"/>
<text text-anchor="middle" x="148.99" y="-14.3" font-family="Times,serif" font-size="14.00">महा&#45;(1.1)</text>
</g>
<!-- Node1_2 -->
<g id="node8" class="node">
<title>Node1_2</title>
<ellipse fill="#ffff00" stroke="#ffff00" cx="148.99" cy="-105" rx="63.09" ry="18"/>
<text text-anchor="middle" x="148.99" y="-101.3" font-family="Times,serif" font-size="14.00">ऋषि&#45;(1.2)</text>
</g>
<!-- Node1_1&#45;&gt;Node1_2 -->
<g id="edge1" class="edge">
<title>Node1_1&#45;&gt;Node1_2</title>
<path fill="none" stroke="black" d="M148.99,-46.27C148.99,-59.58 148.99,-75.19 148.99,-86.82"/>
<polygon fill="black" stroke="black" points="152.49,-46.2 148.99,-36.2 145.49,-46.2 152.49,-46.2"/>
<text text-anchor="middle" x="213.49" y="-57.8" font-family="Times,serif" font-size="14.00">कर्मधारयः</text>
</g>
<!-- Node1_3 -->
<g id="node9" class="node">
<title>Node1_3</title>
<ellipse fill="#ffff00" stroke="#ffff00" cx="148.99" cy="-192" rx="53.89" ry="18"/>
<text text-anchor="middle" x="148.99" y="-188.3" font-family="Times,serif" font-size="14.00">गण&#45;(1.3)</text>
</g>
<!-- Node1_2&#45;&gt;Node1_3 -->
<g id="edge2" class="edge">
<title>Node1_2&#45;&gt;Node1_3</title>
<path fill="none" stroke="black" d="M148.99,-133.27C148.99,-146.58 148.99,-162.19 148.99,-173.82"/>
<polygon fill="black" stroke="black" points="152.49,-133.2 148.99,-123.2 145.49,-133.2 152.49,-133.2"/>
<text text-anchor="middle" x="252.49" y="-144.8" font-family="Times,serif" font-size="14.00">षष्ठी_तत्पुरुषः</text>
</g>
<!-- Node1_6 -->
<g id="node10" class="node">
<title>Node1_6</title>
<ellipse fill="#ffff00" stroke="#ffff00" cx="320.99" cy="-279" rx="72.29" ry="18"/>
<text text-anchor="middle" x="320.99" y="-275.3" font-family="Times,serif" font-size="14.00">यक्ष&#45;(1.6)</text>
</g>
<!-- Node1_3&#45;&gt;Node1_6 -->
<g id="edge3" class="edge">
<title>Node1_3&#45;&gt;Node1_6</title>
<path fill="none" stroke="black" d="M163.69,-218.13C170.11,-227.16 178.38,-236.66 187.99,-243 208.72,-256.67 234.56,-265.01 257.93,-270.09"/>
<polygon fill="black" stroke="black" points="166.57,-216.14 158.13,-209.75 160.74,-220.01 166.57,-216.14"/>
<text text-anchor="middle" x="252.49" y="-231.8" font-family="Times,serif" font-size="14.00">द्वन्द्वः</text>
</g>
<!-- Node1_6&#45;&gt;Node1_7 -->
<g id="edge6" class="edge">
<title>Node1_6&#45;&gt;Node1_7</title>
<path fill="none" stroke="black" d="M320.99,-307.27C320.99,-320.58 320.99,-336.19 320.99,-347.82"/>
<polygon fill="black" stroke="black" points="324.49,-307.2 320.99,-297.2 317.49,-307.2 324.49,-307.2"/>
<text text-anchor="middle" x="431.49" y="-318.8" font-family="Times,serif" font-size="14.00">तृतीया_तत्पुरुषः</text>
</g>
<!-- Node1_4 -->
<g id="node11" class="node">
<title>Node1_4</title>
<ellipse fill="#ffff00" stroke="#ffff00" cx="320.99" cy="-192" rx="100.18" ry="18"/>
<text text-anchor="middle" x="320.99" y="-188.3" font-family="Times,serif" font-size="14.00">गन्धर्व&#45;(1.4)</text>
</g>
<!-- Node1_4&#45;&gt;Node1_6 -->
<g id="edge4" class="edge">
<title>Node1_4&#45;&gt;Node1_6</title>
<path fill="none" stroke="black" d="M320.99,-220.27C320.99,-233.58 320.99,-249.19 320.99,-260.82"/>
<polygon fill="black" stroke="black" points="324.49,-220.2 320.99,-210.2 317.49,-220.2 324.49,-220.2"/>
<text text-anchor="middle" x="385.49" y="-231.8" font-family="Times,serif" font-size="14.00">द्वन्द्वः</text>
</g>
<!-- Node1_5 -->
<g id="node12" class="node">
<title>Node1_5</title>
<ellipse fill="#ffff00" stroke="#ffff00" cx="501.99" cy="-192" rx="63.09" ry="18"/>
<text text-anchor="middle" x="501.99" y="-188.3" font-family="Times,serif" font-size="14.00">नाग&#45;(1.5)</text>
</g>
<!-- Node1_5&#45;&gt;Node1_6 -->
<g id="edge5" class="edge">
<title>Node1_5&#45;&gt;Node1_6</title>
<path fill="none" stroke="black" d="M483.36,-217.53C475.25,-226.72 465.06,-236.49 453.99,-243 432.17,-255.83 405.62,-264.03 382,-269.25"/>
<polygon fill="black" stroke="black" points="486.17,-219.62 489.92,-209.71 480.81,-215.12 486.17,-219.62"/>
<text text-anchor="middle" x="536.49" y="-231.8" font-family="Times,serif" font-size="14.00">द्वन्द्वः</text>
</g>
<!-- Node5_1 -->
<g id="node13" class="node">
<title>Node5_1</title>
<ellipse fill="#ffff00" stroke="#ffff00" cx="1141.99" cy="-279" rx="118.08" ry="18"/>
<text text-anchor="middle" x="1141.99" y="-275.3" font-family="Times,serif" font-size="14.00">विश्वावसु&#45;(5.1)</text>
</g>
<!-- Node5_1&#45;&gt;Node5_2 -->
<g id="edge11" class="edge">
<title>Node5_1&#45;&gt;Node5_2</title>
<path fill="none" stroke="black" d="M1141.99,-307.27C1141.99,-320.58 1141.99,-336.19 1141.99,-347.82"/>
<polygon fill="black" stroke="black" points="1145.49,-307.2 1141.99,-297.2 1138.49,-307.2 1145.49,-307.2"/>
<text text-anchor="middle" x="1252.49" y="-318.8" font-family="Times,serif" font-size="14.00">तृतीया_तत्पुरुषः</text>
</g>
<!-- Node6_1 -->
<g id="node14" class="node">
<title>Node6_1</title>
<ellipse fill="#00bfff" stroke="#00bfff" cx="103.99" cy="-453" rx="103.98" ry="18"/>
<text text-anchor="middle" x="103.99" y="-449.3" font-family="Times,serif" font-size="14.00">(मारुतिः)(6.1)</text>
</g>
<!-- Node6_1&#45;&gt;Node7_1 -->
<g id="edge13" class="edge">
<title>Node6_1&#45;&gt;Node7_1</title>
<path fill="none" stroke="black" d="M118.45,-480.15C126,-493.81 135.03,-510.13 141.65,-522.11"/>
<polygon fill="black" stroke="black" points="121.4,-478.26 113.5,-471.2 115.28,-481.65 121.4,-478.26"/>
<text text-anchor="middle" x="166.99" y="-492.8" font-family="Times,serif" font-size="14.00">कर्ता</text>
</g>
<!-- Node8_1 -->
<g id="node16" class="node">
<title>Node8_1</title>
<ellipse fill="#ffff00" stroke="#ffff00" cx="126.99" cy="-366" rx="79.09" ry="18"/>
<text text-anchor="middle" x="126.99" y="-362.3" font-family="Times,serif" font-size="14.00">(वायु)&#45;(8.1)</text>
</g>
<!-- Node8_1&#45;&gt;Node8_2 -->
<g id="edge14" class="edge">
<title>Node8_1&#45;&gt;Node8_2</title>
<path fill="none" stroke="black" d="M140.43,-392.56C146.63,-401.81 154.89,-411.36 164.99,-417 208.8,-441.45 338.44,-449.01 429.28,-451.24"/>
<polygon fill="black" stroke="black" points="143.34,-390.6 135.12,-383.91 137.37,-394.26 143.34,-390.6"/>
<text text-anchor="middle" x="268.49" y="-405.8" font-family="Times,serif" font-size="14.00">षष्ठी_तत्पुरुषः</text>
</g>
</g>
</svg>
