<svg xmlns="http://www.w3.org/2000/svg" xmlns:xlink="http://www.w3.org/1999/xlink" width="1332" height="392pt" viewBox="0 0 999 392"><g id="graph0" class="graph" transform="scale(1 1) rotate(0) translate(4 388)"><title>G</title><polygon fill="#fffacd" stroke="transparent" points="-4 4 -4 -388 995 -388 995 4 -4 4"/><g id="clust1" class="cluster"><title>cluster_1</title><polygon fill="#fffacd" stroke="#000" points="8 -79 8 -218 274 -218 274 -79 8 -79"/></g><g id="clust2" class="cluster"><title>cluster_2</title><polygon fill="#fffacd" stroke="#000" points="282 -79 282 -218 569 -218 569 -79 282 -79"/></g><g id="node1" class="node"><title>Node1_1</title><ellipse cx="141" cy="-105" fill="#93db70" stroke="#93db70" rx="59.59" ry="18"/><text x="141" y="-101.3" font-family="Times,serif" font-size="14" text-anchor="middle">तम्(1.1)</text></g><g id="node2" class="node"><title>Node2_1</title><ellipse cx="141" cy="-192" fill="#93db70" stroke="#93db70" rx="124.58" ry="18"/><text x="141" y="-188.3" font-family="Times,serif" font-size="14" text-anchor="middle">प्रयान्तम्(2.1)</text></g><g id="edge1" class="edge"><title>Node1_1-&gt;Node2_1</title><path fill="none" stroke="#000" d="M141,-133.27C141,-146.58 141,-162.19 141,-173.82"/><polygon fill="#000" stroke="#000" points="144.5 -133.2 141 -123.2 137.5 -133.2 144.5 -133.2"/><text x="198.5" y="-144.8" font-family="Times,serif" font-size="14" text-anchor="middle">विशेषणम्</text></g><g id="node6" class="node"><title>Node3_1</title><ellipse cx="189" cy="-279" fill="#f9f" stroke="#f9f" rx="143.77" ry="18"/><text x="189" y="-275.3" font-family="Times,serif" font-size="14" text-anchor="middle">समुद्वीक्ष्य(3.1)</text></g><g id="edge2" class="edge"><title>Node2_1-&gt;Node3_1</title><path fill="none" stroke="#000" d="M155.73,-219.09C163.39,-232.65 172.54,-248.85 179.3,-260.82"/><polygon fill="#000" stroke="#000" points="158.68 -217.19 150.71 -210.2 152.58 -220.63 158.68 -217.19"/><text x="197" y="-231.8" font-family="Times,serif" font-size="14" text-anchor="middle">कर्म</text></g><g id="node3" class="node"><title>Node9_1</title><ellipse cx="509" cy="-105" fill="#00bfff" stroke="#00bfff" rx="50.89" ry="18"/><text x="509" y="-101.3" font-family="Times,serif" font-size="14" text-anchor="middle">सा(9.1)</text></g><g id="node4" class="node"><title>Node4_1</title><ellipse cx="369" cy="-192" fill="#00bfff" stroke="#00bfff" rx="78.79" ry="18"/><text x="369" y="-188.3" font-family="Times,serif" font-size="14" text-anchor="middle">सुरसा(4.1)</text></g><g id="edge9" class="edge"><title>Node9_1-&gt;Node4_1</title><path fill="none" stroke="#000" d="M475.98,-126.05C451.42,-140.96 418.33,-161.05 395.49,-174.92"/><polygon fill="#000" stroke="#000" points="477.88 -128.99 484.61 -120.81 474.25 -123 477.88 -128.99"/><text x="505.5" y="-144.8" font-family="Times,serif" font-size="14" text-anchor="middle">विशेषणम्</text></g><g id="edge5" class="edge"><title>Node4_1-&gt;Node3_1</title><path fill="none" stroke="#000" stroke-dasharray="1 5" d="M320.8,-211.6C308.38,-216.67 295.1,-222.34 283,-228 261.07,-238.26 236.97,-251.12 218.66,-261.22"/><polygon fill="#000" stroke="#000" points="322.14 -214.84 330.11 -207.85 319.52 -208.34 322.14 -214.84"/><text x="319" y="-231.8" font-family="Times,serif" font-size="14" text-anchor="middle">कर्ता</text></g><g id="node7" class="node"><title>Node6_1</title><ellipse cx="462" cy="-366" fill="#ff1975" stroke="#ff1975" rx="106.68" ry="18"/><text x="462" y="-362.3" font-family="Times,serif" font-size="14" text-anchor="middle">अब्रवीत्(6.1)</text></g><g id="edge4" class="edge"><title>Node4_1-&gt;Node6_1</title><path fill="none" stroke="#000" d="M365.73,-220.35C364.38,-242.33 365.43,-273.34 378,-297 389.79,-319.2 412.26,-336.79 430.99,-348.52"/><polygon fill="#000" stroke="#000" points="369.22 -220.6 366.55 -210.35 362.24 -220.03 369.22 -220.6"/><text x="414" y="-275.3" font-family="Times,serif" font-size="14" text-anchor="middle">कर्ता</text></g><g id="node5" class="node"><title>Node10_2</title><ellipse cx="365" cy="-105" fill="#00bfff" stroke="#00bfff" rx="75.29" ry="18"/><text x="365" y="-101.3" font-family="Times,serif" font-size="14" text-anchor="middle">माता(10.2)</text></g><g id="edge11" class="edge"><title>Node10_2-&gt;Node4_1</title><path fill="none" stroke="#000" d="M320.65,-126.54C309.6,-134.64 302.52,-144.72 309,-156 313.87,-164.47 321.66,-171.08 330.04,-176.17"/><polygon fill="#000" stroke="#000" points="322.75 -129.35 329.27 -120.99 318.96 -123.46 322.75 -129.35"/><text x="366.5" y="-144.8" font-family="Times,serif" font-size="14" text-anchor="middle">विशेषणम्</text></g><g id="edge3" class="edge"><title>Node3_1-&gt;Node6_1</title><path fill="none" stroke="#000" d="M202.54,-305.97C208.53,-314.98 216.42,-324.25 226,-330 249.4,-344.04 311.22,-352.9 365.72,-358.19"/><polygon fill="#000" stroke="#000" points="205.39 -303.91 197.19 -297.19 199.41 -307.55 205.39 -303.91"/><text x="290.5" y="-318.8" font-family="Times,serif" font-size="14" text-anchor="middle">पूर्वकालः</text></g><g id="node8" class="node"><title>Node5_1</title><ellipse cx="556" cy="-279" fill="#00bfff" stroke="#00bfff" rx="96.68" ry="18"/><text x="556" y="-275.3" font-family="Times,serif" font-size="14" text-anchor="middle">वाक्यम्(5.1)</text></g><g id="edge6" class="edge"><title>Node5_1-&gt;Node6_1</title><path fill="none" stroke="#000" d="M529.65,-303.83C514,-317.97 494.56,-335.56 480.53,-348.24"/><polygon fill="#000" stroke="#000" points="532.36 -306.1 537.43 -296.79 527.66 -300.9 532.36 -306.1"/><text x="544" y="-318.8" font-family="Times,serif" font-size="14" text-anchor="middle">कर्म</text></g><g id="node9" class="node"><title>Node7_1</title><ellipse cx="805" cy="-192" fill="#93db70" stroke="#93db70" rx="69.59" ry="18"/><text x="805" y="-188.3" font-family="Times,serif" font-size="14" text-anchor="middle">बलम्(7.1)</text></g><g id="node10" class="node"><title>Node8_1</title><ellipse cx="805" cy="-279" fill="#00bfff" stroke="#00bfff" rx="133.78" ry="18"/><text x="805" y="-275.3" font-family="Times,serif" font-size="14" text-anchor="middle">जिज्ञासमाना(8.1)</text></g><g id="edge7" class="edge"><title>Node7_1-&gt;Node8_1</title><path fill="none" stroke="#000" d="M805,-220.27C805,-233.58 805,-249.19 805,-260.82"/><polygon fill="#000" stroke="#000" points="808.5 -220.2 805 -210.2 801.5 -220.2 808.5 -220.2"/><text x="834" y="-231.8" font-family="Times,serif" font-size="14" text-anchor="middle">कर्म</text></g><g id="edge8" class="edge"><title>Node8_1-&gt;Node6_1</title><path fill="none" stroke="#000" d="M734.13,-297.56C670.6,-313.31 578.57,-336.11 519.51,-350.75"/><polygon fill="#000" stroke="#000" points="735.21 -300.9 744.07 -295.1 733.53 -294.11 735.21 -300.9"/><text x="761" y="-318.8" font-family="Times,serif" font-size="14" text-anchor="middle">वर्तमानसमानकालः</text></g><g id="node11" class="node"><title>Node10_1</title><ellipse cx="365" cy="-18" fill="#ff0" stroke="#ff0" rx="68.79" ry="18"/><text x="365" y="-14.3" font-family="Times,serif" font-size="14" text-anchor="middle">नाग-(10.1)</text></g><g id="edge10" class="edge"><title>Node10_1-&gt;Node10_2</title><path fill="none" stroke="#000" d="M365,-46.27C365,-59.58 365,-75.19 365,-86.82"/><polygon fill="#000" stroke="#000" points="368.5 -46.2 365 -36.2 361.5 -46.2 368.5 -46.2"/><text x="468.5" y="-57.8" font-family="Times,serif" font-size="14" text-anchor="middle">षष्ठी_तत्पुरुषः</text></g><g id="node12" class="node"><title>Node11_1</title><ellipse cx="805" cy="-105" fill="#87ceeb" stroke="#87ceeb" rx="93.68" ry="18"/><text x="805" y="-101.3" font-family="Times,serif" font-size="14" text-anchor="middle">हनूमतः(11.1)</text></g><g id="edge12" class="edge"><title>Node11_1-&gt;Node7_1</title><path fill="none" stroke="#000" d="M805,-133.27C805,-146.58 805,-162.19 805,-173.82"/><polygon fill="#000" stroke="#000" points="808.5 -133.2 805 -123.2 801.5 -133.2 808.5 -133.2"/><text x="898" y="-144.8" font-family="Times,serif" font-size="14" text-anchor="middle">षष्ठीसम्बन्धः</text></g></g></svg>