<svg xmlns="http://www.w3.org/2000/svg" xmlns:xlink="http://www.w3.org/1999/xlink" width="2188" height="544" viewBox="0 0 1641 408"><g id="graph0" class="graph" transform="scale(1 1) rotate(0) translate(4 404)"><title>G</title><polygon fill="#fffacd" stroke="transparent" points="-4 4 -4 -404 1637 -404 1637 4 -4 4"/><g id="clust1" class="cluster"><title>cluster_1</title><polygon fill="#fffacd" stroke="#000" points="8 -95 8 -234 182 -234 182 -95 8 -95"/></g><g id="clust2" class="cluster"><title>cluster_2</title><polygon fill="#fffacd" stroke="#000" points="503 -182 503 -321 713 -321 713 -182 503 -182"/></g><g id="clust3" class="cluster"><title>cluster_3</title><polygon fill="#fffacd" stroke="#000" points="823 -8 823 -147 1176 -147 1176 -8 823 -8"/></g><g id="node1" class="node"><title>Node6_1</title><ellipse cx="67" cy="-121" fill="#00bfff" stroke="#00bfff" rx="50.89" ry="18"/><text x="67" y="-117.3" font-family="Times,serif" font-size="14" text-anchor="middle">सः(6.1)</text></g><g id="node2" class="node"><title>Node4_1</title><ellipse cx="95" cy="-208" fill="#00bfff" stroke="#00bfff" rx="78.79" ry="18"/><text x="95" y="-204.3" font-family="Times,serif" font-size="14" text-anchor="middle">उदधिः(4.1)</text></g><g id="edge5" class="edge"><title>Node6_1-&gt;Node4_1</title><path fill="none" stroke="#000" d="M75.85,-148.87C80.27,-162.27 85.47,-178.08 89.34,-189.82"/><polygon fill="#000" stroke="#000" points="79.12 -147.6 72.67 -139.2 72.47 -149.79 79.12 -147.6"/><text x="140.5" y="-160.8" font-family="Times,serif" font-size="14" text-anchor="middle">विशेषणम्</text></g><g id="node11" class="node"><title>Node5_1</title><ellipse cx="182" cy="-295" fill="#00bfff" stroke="#00bfff" rx="124.58" ry="18"/><text x="182" y="-291.3" font-family="Times,serif" font-size="14" text-anchor="middle">परिवर्धितः(5.1)</text></g><g id="edge4" class="edge"><title>Node4_1-&gt;Node5_1</title><path fill="none" stroke="#000" d="M119.34,-232.78C133.72,-246.83 151.58,-264.28 164.55,-276.95"/><polygon fill="#000" stroke="#000" points="121.79 -230.28 112.19 -225.79 116.9 -235.29 121.79 -230.28"/><text x="173" y="-247.8" font-family="Times,serif" font-size="14" text-anchor="middle">कर्म</text></g><g id="node3" class="node"><title>Node9_1</title><ellipse cx="608" cy="-208" fill="#93db70" stroke="#93db70" rx="96.68" ry="18"/><text x="608" y="-204.3" font-family="Times,serif" font-size="14" text-anchor="middle">युक्तम्(9.1)</text></g><g id="node4" class="node"><title>Node7_1</title><ellipse cx="599" cy="-295" fill="#93db70" stroke="#93db70" rx="87.99" ry="18"/><text x="599" y="-291.3" font-family="Times,serif" font-size="14" text-anchor="middle">त्वाम्(7.1)</text></g><g id="edge9" class="edge"><title>Node9_1-&gt;Node7_1</title><path fill="none" stroke="#000" d="M605.11,-236.27C603.7,-249.58 602.05,-265.19 600.82,-276.82"/><polygon fill="#000" stroke="#000" points="608.61 -236.51 606.18 -226.2 601.65 -235.78 608.61 -236.51"/><text x="662.5" y="-247.8" font-family="Times,serif" font-size="14" text-anchor="middle">विशेषणम्</text></g><g id="node12" class="node"><title>Node10_1</title><ellipse cx="456" cy="-382" fill="#ff1975" stroke="#ff1975" rx="149.47" ry="18"/><text x="456" y="-378.3" font-family="Times,serif" font-size="14" text-anchor="middle">प्रत्यर्चयति(10.1)</text></g><g id="edge6" class="edge"><title>Node7_1-&gt;Node10_1</title><path fill="none" stroke="#000" d="M563.12,-317.33C538.66,-331.87 506.73,-350.85 484.11,-364.29"/><polygon fill="#000" stroke="#000" points="564.96 -320.31 571.77 -312.19 561.38 -314.29 564.96 -320.31"/><text x="566" y="-334.8" font-family="Times,serif" font-size="14" text-anchor="middle">कर्म</text></g><g id="node5" class="node"><title>Node15_1</title><ellipse cx="1102" cy="-34" fill="#00bfff" stroke="#00bfff" rx="65.79" ry="18"/><text x="1102" y="-30.3" font-family="Times,serif" font-size="14" text-anchor="middle">एषः(15.1)</text></g><g id="node6" class="node"><title>Node16_1</title><ellipse cx="1053" cy="-121" fill="#00bfff" stroke="#00bfff" rx="84.49" ry="18"/><text x="1053" y="-117.3" font-family="Times,serif" font-size="14" text-anchor="middle">धर्मः(16.1)</text></g><g id="edge14" class="edge"><title>Node15_1-&gt;Node16_1</title><path fill="none" stroke="#000" d="M1086.93,-61.15C1079.05,-74.81 1069.64,-91.13 1062.73,-103.11"/><polygon fill="#000" stroke="#000" points="1090.12 -62.61 1092.08 -52.2 1084.06 -59.12 1090.12 -62.61"/><text x="1138.5" y="-73.8" font-family="Times,serif" font-size="14" text-anchor="middle">विशेषणम्</text></g><g id="node19" class="node"><title>Node18_1</title><ellipse cx="1203" cy="-208" fill="#ff1975" stroke="#ff1975" rx="81.79" ry="18"/><text x="1203" y="-204.3" font-family="Times,serif" font-size="14" text-anchor="middle">(भवति)(18.1)</text></g><g id="edge15" class="edge"><title>Node16_1-&gt;Node18_1</title><path fill="none" stroke="#000" d="M1090.11,-143.03C1116.34,-157.89 1150.96,-177.51 1174.91,-191.08"/><polygon fill="#000" stroke="#000" points="1091.64 -139.87 1081.21 -137.99 1088.19 -145.96 1091.64 -139.87"/><text x="1173" y="-160.8" font-family="Times,serif" font-size="14" text-anchor="middle">कर्ता</text></g><g id="node7" class="node"><title>Node17_1</title><ellipse cx="925" cy="-34" fill="#00bfff" stroke="#00bfff" rx="93.68" ry="18"/><text x="925" y="-30.3" font-family="Times,serif" font-size="14" text-anchor="middle">सनातनः(17.1)</text></g><g id="edge16" class="edge"><title>Node17_1-&gt;Node16_1</title><path fill="none" stroke="#000" d="M936.9,-61.32C941.81,-69.82 948.19,-78.67 956,-85 968.17,-94.86 983.35,-102.07 998.07,-107.29"/><polygon fill="#000" stroke="#000" points="939.94 -59.57 932.17 -52.37 933.75 -62.85 939.94 -59.57"/><text x="1013.5" y="-73.8" font-family="Times,serif" font-size="14" text-anchor="middle">विशेषणम्</text></g><g id="node8" class="node"><title>Node1_1</title><ellipse cx="270" cy="-34" fill="#87ceeb" stroke="#87ceeb" rx="96.68" ry="18"/><text x="270" y="-30.3" font-family="Times,serif" font-size="14" text-anchor="middle">राघवस्य(1.1)</text></g><g id="node9" class="node"><title>Node2_1</title><ellipse cx="270" cy="-121" fill="#c6e2eb" stroke="#c6e2eb" rx="69.59" ry="18"/><text x="270" y="-117.3" font-family="Times,serif" font-size="14" text-anchor="middle">कुले(2.1)</text></g><g id="edge1" class="edge"><title>Node1_1-&gt;Node2_1</title><path fill="none" stroke="#000" d="M270,-62.27C270,-75.58 270,-91.19 270,-102.82"/><polygon fill="#000" stroke="#000" points="273.5 -62.2 270 -52.2 266.5 -62.2 273.5 -62.2"/><text x="366.5" y="-73.8" font-family="Times,serif" font-size="14" text-anchor="middle">षष्ठी_सम्बन्धः</text></g><g id="node10" class="node"><title>Node3_1</title><ellipse cx="270" cy="-208" fill="#40e0d0" stroke="#40e0d0" rx="78.79" ry="18"/><text x="270" y="-204.3" font-family="Times,serif" font-size="14" text-anchor="middle">जातैः(3.1)</text></g><g id="edge2" class="edge"><title>Node2_1-&gt;Node3_1</title><path fill="none" stroke="#000" d="M270,-149.27C270,-162.58 270,-178.19 270,-189.82"/><polygon fill="#000" stroke="#000" points="273.5 -149.2 270 -139.2 266.5 -149.2 273.5 -149.2"/><text x="348.5" y="-160.8" font-family="Times,serif" font-size="14" text-anchor="middle">देशाधिकरणम्</text></g><g id="edge3" class="edge"><title>Node3_1-&gt;Node5_1</title><path fill="none" stroke="#000" d="M245.38,-232.78C230.84,-246.83 212.77,-264.28 199.65,-276.95"/><polygon fill="#000" stroke="#000" points="247.85 -235.26 252.61 -225.79 242.99 -230.22 247.85 -235.26"/><text x="268" y="-247.8" font-family="Times,serif" font-size="14" text-anchor="middle">कर्ता</text></g><g id="node13" class="node"><title>Node8_1</title><ellipse cx="608" cy="-34" fill="#ff0" stroke="#ff0" rx="63.09" ry="18"/><text x="608" y="-30.3" font-family="Times,serif" font-size="14" text-anchor="middle">राम-(8.1)</text></g><g id="node14" class="node"><title>Node8_2</title><ellipse cx="608" cy="-121" fill="#c6e2eb" stroke="#c6e2eb" rx="69.59" ry="18"/><text x="608" y="-117.3" font-family="Times,serif" font-size="14" text-anchor="middle">हिते(8.2)</text></g><g id="edge7" class="edge"><title>Node8_1-&gt;Node8_2</title><path fill="none" stroke="#000" d="M608,-62.27C608,-75.58 608,-91.19 608,-102.82"/><polygon fill="#000" stroke="#000" points="611.5 -62.2 608 -52.2 604.5 -62.2 611.5 -62.2"/><text x="711.5" y="-73.8" font-family="Times,serif" font-size="14" text-anchor="middle">षष्ठी_तत्पुरुषः</text></g><g id="edge8" class="edge"><title>Node8_2-&gt;Node9_1</title><path fill="none" stroke="#000" d="M608,-149.27C608,-162.58 608,-178.19 608,-189.82"/><polygon fill="#000" stroke="#000" points="611.5 -149.2 608 -139.2 604.5 -149.2 611.5 -149.2"/><text x="665.5" y="-160.8" font-family="Times,serif" font-size="14" text-anchor="middle">अधिकरणम्</text></g><g id="node15" class="node"><title>Node11_1</title><ellipse cx="409" cy="-295" fill="#00bfff" stroke="#00bfff" rx="84.49" ry="18"/><text x="409" y="-291.3" font-family="Times,serif" font-size="14" text-anchor="middle">सागरः(11.1)</text></g><g id="edge10" class="edge"><title>Node11_1-&gt;Node10_1</title><path fill="none" stroke="#000" d="M423.42,-322.09C430.92,-335.65 439.88,-351.85 446.5,-363.82"/><polygon fill="#000" stroke="#000" points="426.41 -320.26 418.51 -313.2 420.29 -323.65 426.41 -320.26"/><text x="472" y="-334.8" font-family="Times,serif" font-size="14" text-anchor="middle">कर्ता</text></g><g id="node16" class="node"><title>Node12_1</title><ellipse cx="1306" cy="-34" fill="#c6e2eb" stroke="#c6e2eb" rx="75.29" ry="18"/><text x="1306" y="-30.3" font-family="Times,serif" font-size="14" text-anchor="middle">कृते(12.1)</text></g><g id="node17" class="node"><title>Node14_1</title><ellipse cx="1352" cy="-121" fill="#93db70" stroke="#93db70" rx="167.87" ry="18"/><text x="1352" y="-117.3" font-family="Times,serif" font-size="14" text-anchor="middle">प्रतिकर्तव्यम्(14.1)</text></g><g id="edge11" class="edge"><title>Node12_1-&gt;Node14_1</title><path fill="none" stroke="#000" d="M1302.3,-62.16C1302.35,-69.88 1303.52,-78.06 1307,-85 1310.55,-92.08 1316.28,-98.15 1322.47,-103.15"/><polygon fill="#000" stroke="#000" points="1305.8 -62.25 1302.81 -52.08 1298.81 -61.89 1305.8 -62.25"/><text x="1407" y="-73.8" font-family="Times,serif" font-size="14" text-anchor="middle">भावलक्षणसप्तमी</text></g><g id="edge13" class="edge"><title>Node14_1-&gt;Node18_1</title><path fill="none" stroke="#000" d="M1313.81,-143.78C1288.1,-158.46 1254.74,-177.49 1231.37,-190.82"/><polygon fill="#000" stroke="#000" points="1315.61 -146.79 1322.56 -138.79 1312.14 -140.71 1315.61 -146.79"/><text x="1408.5" y="-160.8" font-family="Times,serif" font-size="14" text-anchor="middle">कर्तृसमानाधिकरणम्</text></g><g id="node18" class="node"><title>Node13_1</title><ellipse cx="1529" cy="-34" fill="#f9f" stroke="#f9f" rx="47.39" ry="18"/><text x="1529" y="-30.3" font-family="Times,serif" font-size="14" text-anchor="middle">च(13.1)</text></g><g id="edge12" class="edge"><title>Node13_1-&gt;Node14_1</title><path fill="none" stroke="#000" d="M1522.37,-61.94C1519.05,-70.42 1514.15,-79.1 1507,-85 1494.76,-95.09 1480.2,-102.41 1464.97,-107.7"/><polygon fill="#000" stroke="#000" points="1525.76 -62.85 1525.59 -52.25 1519.12 -60.64 1525.76 -62.85"/><text x="1575.5" y="-73.8" font-family="Times,serif" font-size="14" text-anchor="middle">सम्बन्धः</text></g></g></svg>