<svg xmlns="http://www.w3.org/2000/svg" xmlns:xlink="http://www.w3.org/1999/xlink" width="1652" height="660" viewBox="0 0 1238.54 495"><g id="graph0" class="graph" transform="scale(1 1) rotate(0) translate(4 491)"><title>G</title><polygon fill="#fffacd" stroke="transparent" points="-4 4 -4 -491 1234.54 -491 1234.54 4 -4 4"/><g id="clust1" class="cluster"><title>cluster_1</title><polygon fill="#fffacd" stroke="#000" points="793 -269 793 -408 1023 -408 1023 -269 793 -269"/></g><g id="clust2" class="cluster"><title>cluster_2</title><polygon fill="#fffacd" stroke="#000" points="8 -269 8 -408 218 -408 218 -269 8 -269"/></g><g id="clust3" class="cluster"><title>cluster_3</title><polygon fill="#fffacd" stroke="#000" points="1007 -8 1007 -147 1211 -147 1211 -8 1007 -8"/></g><g id="node1" class="node"><title>Node2_1</title><ellipse cx="900" cy="-295" fill="#00bfff" stroke="#00bfff" rx="78.79" ry="18"/><text x="900" y="-291.3" font-family="Times,serif" font-size="14" text-anchor="middle">उक्तः(2.1)</text></g><g id="node2" class="node"><title>Node3_2</title><ellipse cx="908" cy="-382" fill="#00bfff" stroke="#00bfff" rx="106.68" ry="18"/><text x="908" y="-378.3" font-family="Times,serif" font-size="14" text-anchor="middle">श्रेष्ठः(3.2)</text></g><g id="edge2" class="edge"><title>Node2_1-&gt;Node3_2</title><path fill="none" stroke="#000" d="M902.57,-323.27C903.82,-336.58 905.29,-352.19 906.38,-363.82"/><polygon fill="#000" stroke="#000" points="906.04 -322.83 901.62 -313.2 899.07 -323.49 906.04 -322.83"/><text x="961.5" y="-334.8" font-family="Times,serif" font-size="14" text-anchor="middle">विशेषणम्</text></g><g id="node9" class="node"><title>Node6_1</title><ellipse cx="500" cy="-469" fill="#ff1975" stroke="#ff1975" rx="106.68" ry="18"/><text x="500" y="-465.3" font-family="Times,serif" font-size="14" text-anchor="middle">अब्रवीत्(6.1)</text></g><g id="edge4" class="edge"><title>Node3_2-&gt;Node6_1</title><path fill="none" stroke="#000" d="M852.71,-401.52C819.95,-411.95 777.46,-424.54 739,-433 688.83,-444.04 631.95,-452.53 586.27,-458.38"/><polygon fill="#000" stroke="#000" points="854.1 -404.75 862.55 -398.36 851.96 -398.09 854.1 -404.75"/><text x="831" y="-421.8" font-family="Times,serif" font-size="14" text-anchor="middle">कर्ता</text></g><g id="node3" class="node"><title>Node4_1</title><ellipse cx="95" cy="-295" fill="#93db70" stroke="#93db70" rx="59.59" ry="18"/><text x="95" y="-291.3" font-family="Times,serif" font-size="14" text-anchor="middle">तम्(4.1)</text></g><g id="node4" class="node"><title>Node5_2</title><ellipse cx="113" cy="-382" fill="#93db70" stroke="#93db70" rx="96.68" ry="18"/><text x="113" y="-378.3" font-family="Times,serif" font-size="14" text-anchor="middle">उत्तमम्(5.2)</text></g><g id="edge5" class="edge"><title>Node4_1-&gt;Node5_2</title><path fill="none" stroke="#000" d="M100.77,-323.27C103.59,-336.58 106.9,-352.19 109.36,-363.82"/><polygon fill="#000" stroke="#000" points="104.14 -322.26 98.64 -313.2 97.29 -323.71 104.14 -322.26"/><text x="163.5" y="-334.8" font-family="Times,serif" font-size="14" text-anchor="middle">विशेषणम्</text></g><g id="edge7" class="edge"><title>Node5_2-&gt;Node6_1</title><path fill="none" stroke="#000" d="M183.03,-398.38C255.7,-414.34 368.29,-439.07 437.89,-454.36"/><polygon fill="#000" stroke="#000" points="183.56 -394.91 173.04 -396.19 182.06 -401.75 183.56 -394.91"/><text x="358" y="-421.8" font-family="Times,serif" font-size="14" text-anchor="middle">कर्म</text></g><g id="node5" class="node"><title>Node12_1</title><ellipse cx="1088" cy="-34" fill="#00bfff" stroke="#00bfff" rx="65.79" ry="18"/><text x="1088" y="-30.3" font-family="Times,serif" font-size="14" text-anchor="middle">एषः(12.1)</text></g><g id="node6" class="node"><title>Node11_1</title><ellipse cx="1109" cy="-121" fill="#00bfff" stroke="#00bfff" rx="93.68" ry="18"/><text x="1109" y="-117.3" font-family="Times,serif" font-size="14" text-anchor="middle">मन्युः(11.1)</text></g><g id="edge13" class="edge"><title>Node12_1-&gt;Node11_1</title><path fill="none" stroke="#000" d="M1094.74,-62.27C1098.03,-75.58 1101.88,-91.19 1104.76,-102.82"/><polygon fill="#000" stroke="#000" points="1098.05 -61.07 1092.25 -52.2 1091.25 -62.75 1098.05 -61.07"/><text x="1156.5" y="-73.8" font-family="Times,serif" font-size="14" text-anchor="middle">विशेषणम्</text></g><g id="node17" class="node"><title>Node13_1</title><ellipse cx="1109" cy="-208" fill="#ff1975" stroke="#ff1975" rx="121.58" ry="18"/><text x="1109" y="-204.3" font-family="Times,serif" font-size="14" text-anchor="middle">अपनीयताम्(13.1)</text></g><g id="edge12" class="edge"><title>Node11_1-&gt;Node13_1</title><path fill="none" stroke="#000" d="M1109,-149.27C1109,-162.58 1109,-178.19 1109,-189.82"/><polygon fill="#000" stroke="#000" points="1112.5 -149.2 1109 -139.2 1105.5 -149.2 1112.5 -149.2"/><text x="1138" y="-160.8" font-family="Times,serif" font-size="14" text-anchor="middle">कर्म</text></g><g id="node7" class="node"><title>Node1_1</title><ellipse cx="900" cy="-208" fill="#f9f" stroke="#f9f" rx="69.59" ry="18"/><text x="900" y="-204.3" font-family="Times,serif" font-size="14" text-anchor="middle">एवम्(1.1)</text></g><g id="edge1" class="edge"><title>Node1_1-&gt;Node2_1</title><path fill="none" stroke="#000" d="M900,-236.27C900,-249.58 900,-265.19 900,-276.82"/><polygon fill="#000" stroke="#000" points="903.5 -236.2 900 -226.2 896.5 -236.2 903.5 -236.2"/><text x="957.5" y="-247.8" font-family="Times,serif" font-size="14" text-anchor="middle">सम्बन्धः</text></g><g id="node8" class="node"><title>Node3_1</title><ellipse cx="656" cy="-295" fill="#ff0" stroke="#ff0" rx="63.09" ry="18"/><text x="656" y="-291.3" font-family="Times,serif" font-size="14" text-anchor="middle">कपि-(3.1)</text></g><g id="edge3" class="edge"><title>Node3_1-&gt;Node3_2</title><path fill="none" stroke="#000" d="M662.14,-322.58C665.44,-331.29 670.45,-340.22 678,-346 698.56,-361.75 756.25,-370.5 808.7,-375.32"/><polygon fill="#000" stroke="#000" points="665.46 -321.47 659.09 -313 658.79 -323.59 665.46 -321.47"/><text x="788.5" y="-334.8" font-family="Times,serif" font-size="14" text-anchor="middle">सप्तमी_तत्पुरुषः</text></g><g id="node10" class="node"><title>Node5_1</title><ellipse cx="280" cy="-295" fill="#ff0" stroke="#ff0" rx="53.89" ry="18"/><text x="280" y="-291.3" font-family="Times,serif" font-size="14" text-anchor="middle">नग-(5.1)</text></g><g id="edge6" class="edge"><title>Node5_1-&gt;Node5_2</title><path fill="none" stroke="#000" d="M258.47,-319.64C248.96,-328.92 237.19,-339.01 225,-346 208.83,-355.27 189.91,-362.38 172.27,-367.7"/><polygon fill="#000" stroke="#000" points="261.04 -322.01 265.56 -312.43 256.05 -317.1 261.04 -322.01"/><text x="354.5" y="-334.8" font-family="Times,serif" font-size="14" text-anchor="middle">सप्तमी_तत्पुरुषः</text></g><g id="node11" class="node"><title>Node7_1</title><ellipse cx="420" cy="-208" fill="#00bfff" stroke="#00bfff" rx="87.99" ry="18"/><text x="420" y="-204.3" font-family="Times,serif" font-size="14" text-anchor="middle">प्रीतः(7.1)</text></g><g id="node12" class="node"><title>Node8_1</title><ellipse cx="496" cy="-295" fill="#ff1975" stroke="#ff1975" rx="78.79" ry="18"/><text x="496" y="-291.3" font-family="Times,serif" font-size="14" text-anchor="middle">अस्मि(8.1)</text></g><g id="edge8" class="edge"><title>Node7_1-&gt;Node8_1</title><path fill="none" stroke="#000" d="M442.01,-233.61C454.53,-247.62 469.89,-264.79 481.02,-277.24"/><polygon fill="#000" stroke="#000" points="444.29 -230.92 435.02 -225.79 439.07 -235.58 444.29 -230.92"/><text x="498" y="-247.8" font-family="Times,serif" font-size="14" text-anchor="middle">कर्ता</text></g><g id="node13" class="node"><title>Node15_1</title><ellipse cx="500" cy="-382" fill="#f9f" stroke="#f9f" rx="72.59" ry="18"/><text x="500" y="-378.3" font-family="Times,serif" font-size="14" text-anchor="middle">(इति)(15.1)</text></g><g id="edge9" class="edge"><title>Node8_1-&gt;Node15_1</title><path fill="none" stroke="#000" d="M497.28,-323.27C497.91,-336.58 498.64,-352.19 499.19,-363.82"/><polygon fill="#000" stroke="#000" points="500.78 -323.03 496.81 -313.2 493.78 -323.35 500.78 -323.03"/><text x="562.5" y="-334.8" font-family="Times,serif" font-size="14" text-anchor="middle">वाक्यकर्म</text></g><g id="edge15" class="edge"><title>Node15_1-&gt;Node6_1</title><path fill="none" stroke="#000" d="M500,-410.27C500,-423.58 500,-439.19 500,-450.82"/><polygon fill="#000" stroke="#000" points="503.5 -410.2 500 -400.2 496.5 -410.2 503.5 -410.2"/><text x="617.5" y="-421.8" font-family="Times,serif" font-size="14" text-anchor="middle">वाक्यकर्म_द्योतकः</text></g><g id="node14" class="node"><title>Node9_1</title><ellipse cx="626" cy="-121" fill="#93db70" stroke="#93db70" rx="78.79" ry="18"/><text x="626" y="-117.3" font-family="Times,serif" font-size="14" text-anchor="middle">कृतम्(9.1)</text></g><g id="node15" class="node"><title>Node14_1</title><ellipse cx="626" cy="-208" fill="#f9f" stroke="#f9f" rx="100.98" ry="18"/><text x="626" y="-204.3" font-family="Times,serif" font-size="14" text-anchor="middle">(इत्यतः)(14.1)</text></g><g id="edge10" class="edge"><title>Node9_1-&gt;Node14_1</title><path fill="none" stroke="#000" d="M626,-149.27C626,-162.58 626,-178.19 626,-189.82"/><polygon fill="#000" stroke="#000" points="629.5 -149.2 626 -139.2 622.5 -149.2 629.5 -149.2"/><text x="683.5" y="-160.8" font-family="Times,serif" font-size="14" text-anchor="middle">सम्बन्धः</text></g><g id="edge14" class="edge"><title>Node14_1-&gt;Node8_1</title><path fill="none" stroke="#000" d="M592.11,-231.16C569.8,-245.75 541.08,-264.52 520.87,-277.74"/><polygon fill="#000" stroke="#000" points="594.17 -233.99 600.63 -225.59 590.34 -228.13 594.17 -233.99"/><text x="608.5" y="-247.8" font-family="Times,serif" font-size="14" text-anchor="middle">हेतुः5</text></g><g id="node16" class="node"><title>Node10_1</title><ellipse cx="626" cy="-34" fill="#93db70" stroke="#93db70" rx="112.38" ry="18"/><text x="626" y="-30.3" font-family="Times,serif" font-size="14" text-anchor="middle">आतिथ्यम्(10.1)</text></g><g id="edge11" class="edge"><title>Node10_1-&gt;Node9_1</title><path fill="none" stroke="#000" d="M626,-62.27C626,-75.58 626,-91.19 626,-102.82"/><polygon fill="#000" stroke="#000" points="629.5 -62.2 626 -52.2 622.5 -62.2 629.5 -62.2"/><text x="655" y="-73.8" font-family="Times,serif" font-size="14" text-anchor="middle">कर्म</text></g></g></svg>