<svg xmlns="http://www.w3.org/2000/svg" xmlns:xlink="http://www.w3.org/1999/xlink" width="1360pt" height="392pt" viewBox="0 0 1359.89 392"><g id="graph0" class="graph" transform="scale(1 1) rotate(0) translate(4 388)"><title>G</title><polygon fill="#fffacd" stroke="transparent" points="-4 4 -4 -388 1355.89 -388 1355.89 4 -4 4"/><g id="clust1" class="cluster"><title>cluster_1</title><polygon fill="#fffacd" stroke="#000" points="8 -79 8 -218 200 -218 200 -79 8 -79"/></g><g id="clust2" class="cluster"><title>cluster_2</title><polygon fill="#fffacd" stroke="#000" points="769 -79 769 -218 1204 -218 1204 -79 769 -79"/></g><g id="node1" class="node"><title>Node7_1</title><ellipse cx="77" cy="-105" fill="#93db70" stroke="#93db70" rx="59.59" ry="18"/><text x="77" y="-101.3" font-family="Times,serif" font-size="14" text-anchor="middle">तम्(7.1)</text></g><g id="node2" class="node"><title>Node6_1</title><ellipse cx="104" cy="-192" fill="#93db70" stroke="#93db70" rx="87.99" ry="18"/><text x="104" y="-188.3" font-family="Times,serif" font-size="14" text-anchor="middle">गिरिम्(6.1)</text></g><g id="edge7" class="edge"><title>Node7_1-&gt;Node6_1</title><path fill="none" stroke="#000" d="M85.54,-132.87C89.79,-146.27 94.81,-162.08 98.54,-173.82"/><polygon fill="#000" stroke="#000" points="88.83 -131.67 82.46 -123.2 82.16 -133.79 88.83 -131.67"/><text x="150.5" y="-144.8" font-family="Times,serif" font-size="14" text-anchor="middle">विशेषणम्</text></g><g id="node12" class="node"><title>Node8_1</title><ellipse cx="184" cy="-279" fill="#00bfff" stroke="#00bfff" rx="106.68" ry="18"/><text x="184" y="-275.3" font-family="Times,serif" font-size="14" text-anchor="middle">अवलोकयन्(8.1)</text></g><g id="edge6" class="edge"><title>Node6_1-&gt;Node8_1</title><path fill="none" stroke="#000" d="M126.75,-217.17C139.9,-231.15 156.14,-248.39 167.95,-260.95"/><polygon fill="#000" stroke="#000" points="129.21 -214.68 119.81 -209.79 124.11 -219.47 129.21 -214.68"/><text x="178" y="-231.8" font-family="Times,serif" font-size="14" text-anchor="middle">कर्म</text></g><g id="node3" class="node"><title>Node9_2</title><ellipse cx="1117" cy="-105" fill="#00bfff" stroke="#00bfff" rx="78.79" ry="18"/><text x="1117" y="-101.3" font-family="Times,serif" font-size="14" text-anchor="middle">सूनुः(9.2)</text></g><g id="node4" class="node"><title>Node12_2</title><ellipse cx="899" cy="-192" fill="#00bfff" stroke="#00bfff" rx="102.88" ry="18"/><text x="899" y="-188.3" font-family="Times,serif" font-size="14" text-anchor="middle">कुञ्जरः(12.2)</text></g><g id="edge10" class="edge"><title>Node9_2-&gt;Node12_2</title><path fill="none" stroke="#000" d="M1080.15,-126.62C1061.83,-136.35 1039.14,-147.63 1018,-156 997.78,-164 974.99,-171.14 954.81,-176.85"/><polygon fill="#000" stroke="#000" points="1081.89 -129.66 1089.04 -121.84 1078.57 -123.5 1081.89 -129.66"/><text x="1109.5" y="-144.8" font-family="Times,serif" font-size="14" text-anchor="middle">विशेषणम्</text></g><g id="node7" class="node"><title>Node5_1</title><ellipse cx="592" cy="-279" fill="#f9f" stroke="#f9f" rx="96.68" ry="18"/><text x="592" y="-275.3" font-family="Times,serif" font-size="14" text-anchor="middle">प्राप्य(5.1)</text></g><g id="edge14" class="edge"><title>Node12_2-&gt;Node5_1</title><path fill="none" stroke="#000" stroke-dasharray="1 5" d="M841.63,-211.04C809.75,-220.87 769.3,-233.03 733,-243 705.64,-250.51 675.09,-258.18 649.45,-264.42"/><polygon fill="#000" stroke="#000" points="842.72 -214.37 851.24 -208.07 840.65 -207.68 842.72 -214.37"/><text x="820" y="-231.8" font-family="Times,serif" font-size="14" text-anchor="middle">कर्ता</text></g><g id="node11" class="node"><title>Node11_1</title><ellipse cx="592" cy="-366" fill="#ff1975" stroke="#ff1975" rx="75.29" ry="18"/><text x="592" y="-362.3" font-family="Times,serif" font-size="14" text-anchor="middle">जगाम(11.1)</text></g><g id="edge13" class="edge"><title>Node12_2-&gt;Node11_1</title><path fill="none" stroke="#000" d="M882.06,-218.05C875.7,-226.5 868.05,-235.65 860,-243 807.31,-291.15 790.32,-301.23 725,-330 700.96,-340.59 673.03,-348.54 648.98,-354.16"/><polygon fill="#000" stroke="#000" points="884.92 -220.08 887.96 -209.93 879.26 -215.96 884.92 -220.08"/><text x="876" y="-275.3" font-family="Times,serif" font-size="14" text-anchor="middle">कर्ता</text></g><g id="node5" class="node"><title>Node10_1</title><ellipse cx="899" cy="-105" fill="#00bfff" stroke="#00bfff" rx="121.58" ry="18"/><text x="899" y="-101.3" font-family="Times,serif" font-size="14" text-anchor="middle">निरालम्बः(10.1)</text></g><g id="edge11" class="edge"><title>Node10_1-&gt;Node12_2</title><path fill="none" stroke="#000" d="M899,-133.27C899,-146.58 899,-162.19 899,-173.82"/><polygon fill="#000" stroke="#000" points="902.5 -133.2 899 -123.2 895.5 -133.2 902.5 -133.2"/><text x="956.5" y="-144.8" font-family="Times,serif" font-size="14" text-anchor="middle">विशेषणम्</text></g><g id="node6" class="node"><title>Node1_1</title><ellipse cx="279" cy="-192" fill="#f9f" stroke="#f9f" rx="69.59" ry="18"/><text x="279" y="-188.3" font-family="Times,serif" font-size="14" text-anchor="middle">भूयः(1.1)</text></g><g id="edge1" class="edge"><title>Node1_1-&gt;Node5_1</title><path fill="none" stroke="#000" d="M276.13,-220.34C276.73,-228.64 279.07,-237.11 285,-243 300.15,-258.06 415.25,-267.92 500.09,-273.23"/><polygon fill="#000" stroke="#000" points="279.63 -220.14 276.16 -210.13 272.63 -220.12 279.63 -220.14"/><text x="385" y="-231.8" font-family="Times,serif" font-size="14" text-anchor="middle">क्रियाविशेषणम्</text></g><g id="edge5" class="edge"><title>Node5_1-&gt;Node11_1</title><path fill="none" stroke="#000" d="M592,-307.27C592,-320.58 592,-336.19 592,-347.82"/><polygon fill="#000" stroke="#000" points="595.5 -307.2 592 -297.2 588.5 -307.2 595.5 -307.2"/><text x="656.5" y="-318.8" font-family="Times,serif" font-size="14" text-anchor="middle">पूर्वकालः</text></g><g id="node8" class="node"><title>Node2_1</title><ellipse cx="479" cy="-105" fill="#f9f" stroke="#f9f" rx="41.69" ry="18"/><text x="479" y="-101.3" font-family="Times,serif" font-size="14" text-anchor="middle">च(2.1)</text></g><g id="node9" class="node"><title>Node3_1</title><ellipse cx="479" cy="-192" fill="#f9f" stroke="#f9f" rx="106.68" ry="18"/><text x="479" y="-188.3" font-family="Times,serif" font-size="14" text-anchor="middle">ऊर्ध्वम्(3.1)</text></g><g id="edge2" class="edge"><title>Node2_1-&gt;Node3_1</title><path fill="none" stroke="#000" d="M479,-133.27C479,-146.58 479,-162.19 479,-173.82"/><polygon fill="#000" stroke="#000" points="482.5 -133.2 479 -123.2 475.5 -133.2 482.5 -133.2"/><text x="536.5" y="-144.8" font-family="Times,serif" font-size="14" text-anchor="middle">सम्बन्धः</text></g><g id="edge3" class="edge"><title>Node3_1-&gt;Node5_1</title><path fill="none" stroke="#000" d="M485.23,-220.01C488.24,-228.25 492.64,-236.77 499,-243 508.61,-252.42 521,-259.34 533.58,-264.43"/><polygon fill="#000" stroke="#000" points="488.51 -218.78 482.2 -210.27 481.83 -220.86 488.51 -218.78"/><text x="577.5" y="-231.8" font-family="Times,serif" font-size="14" text-anchor="middle">देशाधिकरणम्</text></g><g id="node10" class="node"><title>Node4_1</title><ellipse cx="682" cy="-192" fill="#93db70" stroke="#93db70" rx="78.79" ry="18"/><text x="682" y="-188.3" font-family="Times,serif" font-size="14" text-anchor="middle">गतिम्(4.1)</text></g><g id="edge4" class="edge"><title>Node4_1-&gt;Node5_1</title><path fill="none" stroke="#000" d="M674.04,-219.97C670.68,-228.07 666.1,-236.52 660,-243 652.45,-251.03 642.65,-257.53 632.84,-262.65"/><polygon fill="#000" stroke="#000" points="677.39 -221.01 677.55 -210.41 670.82 -218.59 677.39 -221.01"/><text x="700" y="-231.8" font-family="Times,serif" font-size="14" text-anchor="middle">कर्म</text></g><g id="edge8" class="edge"><title>Node8_1-&gt;Node11_1</title><path fill="none" stroke="#000" d="M244.55,-297.56C281.7,-307.92 330.35,-320.77 374,-330 425.38,-340.86 484.2,-350.12 527.78,-356.38"/><polygon fill="#000" stroke="#000" points="245.46 -294.18 234.88 -294.84 243.56 -300.92 245.46 -294.18"/><text x="481" y="-318.8" font-family="Times,serif" font-size="14" text-anchor="middle">वर्तमानसमानकालः</text></g><g id="node13" class="node"><title>Node9_1</title><ellipse cx="1117" cy="-18" fill="#ff0" stroke="#ff0" rx="72.29" ry="18"/><text x="1117" y="-14.3" font-family="Times,serif" font-size="14" text-anchor="middle">वायु-(9.1)</text></g><g id="edge9" class="edge"><title>Node9_1-&gt;Node9_2</title><path fill="none" stroke="#000" d="M1117,-46.27C1117,-59.58 1117,-75.19 1117,-86.82"/><polygon fill="#000" stroke="#000" points="1120.5 -46.2 1117 -36.2 1113.5 -46.2 1120.5 -46.2"/><text x="1220.5" y="-57.8" font-family="Times,serif" font-size="14" text-anchor="middle">षष्ठी_तत्पुरुषः</text></g><g id="node14" class="node"><title>Node12_1</title><ellipse cx="1283" cy="-105" fill="#ff0" stroke="#ff0" rx="68.79" ry="18"/><text x="1283" y="-101.3" font-family="Times,serif" font-size="14" text-anchor="middle">कपि-(12.1)</text></g><g id="edge12" class="edge"><title>Node12_1-&gt;Node12_2</title><path fill="none" stroke="#000" d="M1245.38,-126.11C1224.12,-136.63 1196.71,-148.77 1171,-156 1113.82,-172.07 1047.78,-180.79 995.09,-185.5"/><polygon fill="#000" stroke="#000" points="1247.04 -129.2 1254.4 -121.57 1243.89 -122.95 1247.04 -129.2"/><text x="1276.5" y="-144.8" font-family="Times,serif" font-size="14" text-anchor="middle">कर्मधारयः</text></g></g></svg>