<svg xmlns="http://www.w3.org/2000/svg" xmlns:xlink="http://www.w3.org/1999/xlink" width="1862pt" height="392pt" viewBox="0 0 1862 392"><g id="graph0" class="graph" transform="scale(1 1) rotate(0) translate(4 388)"><title>G</title><polygon fill="#fffacd" stroke="transparent" points="-4 4 -4 -388 1858 -388 1858 4 -4 4"/><g id="clust1" class="cluster"><title>cluster_1</title><polygon fill="#fffacd" stroke="#000" points="8 -79 8 -218 1015 -218 1015 -79 8 -79"/></g><g id="node1" class="node"><title>Node7_1</title><ellipse cx="947" cy="-105" fill="#93db70" stroke="#93db70" rx="59.59" ry="18"/><text x="947" y="-101.3" font-family="Times,serif" font-size="14" text-anchor="middle">तत्(7.1)</text></g><g id="node2" class="node"><title>Node11_3</title><ellipse cx="646" cy="-192" fill="#93db70" stroke="#93db70" rx="75.29" ry="18"/><text x="646" y="-188.3" font-family="Times,serif" font-size="14" text-anchor="middle">फलम्(11.3)</text></g><g id="edge6" class="edge"><title>Node7_1-&gt;Node11_3</title><path fill="none" stroke="#000" d="M919.17,-128.17C905.18,-138.21 887.51,-149.3 870,-156 821.57,-174.53 763.66,-183.26 718.85,-187.37"/><polygon fill="#000" stroke="#000" points="921.41 -130.86 927.37 -122.1 917.25 -125.24 921.41 -130.86"/><text x="957.5" y="-144.8" font-family="Times,serif" font-size="14" text-anchor="middle">विशेषणम्</text></g><g id="node17" class="node"><title>Node14_1</title><ellipse cx="783" cy="-279" fill="#f9f" stroke="#f9f" rx="112.38" ry="18"/><text x="783" y="-275.3" font-family="Times,serif" font-size="14" text-anchor="middle">आस्वाद्य(14.1)</text></g><g id="edge12" class="edge"><title>Node11_3-&gt;Node14_1</title><path fill="none" stroke="#000" d="M680.41,-214.35C703.96,-228.96 734.74,-248.05 756.41,-261.5"/><polygon fill="#000" stroke="#000" points="682.11 -211.29 671.77 -208.99 678.42 -217.23 682.11 -211.29"/><text x="752" y="-231.8" font-family="Times,serif" font-size="14" text-anchor="middle">कर्म</text></g><g id="node3" class="node"><title>Node8_1</title><ellipse cx="800" cy="-105" fill="#93db70" stroke="#93db70" rx="69.59" ry="18"/><text x="800" y="-101.3" font-family="Times,serif" font-size="14" text-anchor="middle">इदम्(8.1)</text></g><g id="edge7" class="edge"><title>Node8_1-&gt;Node11_3</title><path fill="none" stroke="#000" d="M770.63,-128.71C756.06,-139.75 739.91,-151.57 732,-156 717.79,-163.95 701.41,-171.08 686.78,-176.79"/><polygon fill="#000" stroke="#000" points="773.13 -131.21 778.96 -122.36 768.88 -125.64 773.13 -131.21"/><text x="811.5" y="-144.8" font-family="Times,serif" font-size="14" text-anchor="middle">विशेषणम्</text></g><g id="node4" class="node"><title>Node9_1</title><ellipse cx="616" cy="-105" fill="#93db70" stroke="#93db70" rx="96.68" ry="18"/><text x="616" y="-101.3" font-family="Times,serif" font-size="14" text-anchor="middle">गन्धवत्(9.1)</text></g><g id="edge8" class="edge"><title>Node9_1-&gt;Node11_3</title><path fill="none" stroke="#000" d="M613.29,-133.34C613.41,-140.88 614.37,-148.92 617,-156 619.47,-162.66 623.79,-168.96 628.35,-174.33"/><polygon fill="#000" stroke="#000" points="616.79 -133.29 613.6 -123.19 609.8 -133.08 616.79 -133.29"/><text x="674.5" y="-144.8" font-family="Times,serif" font-size="14" text-anchor="middle">विशेषणम्</text></g><g id="node5" class="node"><title>Node10_1</title><ellipse cx="408" cy="-105" fill="#93db70" stroke="#93db70" rx="93.68" ry="18"/><text x="408" y="-101.3" font-family="Times,serif" font-size="14" text-anchor="middle">स्वादु(10.1)</text></g><g id="edge9" class="edge"><title>Node10_1-&gt;Node11_3</title><path fill="none" stroke="#000" d="M440.99,-128.03C456.78,-137.77 476.3,-148.64 495,-156 523.8,-167.33 557.2,-175.54 585.25,-181.15"/><polygon fill="#000" stroke="#000" points="442.48 -124.83 432.15 -122.47 438.75 -130.76 442.48 -124.83"/><text x="552.5" y="-144.8" font-family="Times,serif" font-size="14" text-anchor="middle">विशेषणम्</text></g><g id="node6" class="node"><title>Node12_1</title><ellipse cx="231" cy="-105" fill="#93db70" stroke="#93db70" rx="65.79" ry="18"/><text x="231" y="-101.3" font-family="Times,serif" font-size="14" text-anchor="middle">बहु(12.1)</text></g><g id="edge13" class="edge"><title>Node12_1-&gt;Node11_3</title><path fill="none" stroke="#000" d="M269.25,-125.83C291.4,-136.46 320.12,-148.8 347,-156 422.09,-176.12 510.87,-184.67 572.08,-188.31"/><polygon fill="#000" stroke="#000" points="270.71 -122.65 260.19 -121.41 267.64 -128.94 270.71 -122.65"/><text x="404.5" y="-144.8" font-family="Times,serif" font-size="14" text-anchor="middle">विशेषणम्</text></g><g id="node7" class="node"><title>Node13_1</title><ellipse cx="82" cy="-105" fill="#93db70" stroke="#93db70" rx="65.79" ry="18"/><text x="82" y="-101.3" font-family="Times,serif" font-size="14" text-anchor="middle">तत्(13.1)</text></g><g id="edge14" class="edge"><title>Node13_1-&gt;Node11_3</title><path fill="none" stroke="#000" d="M116.74,-126.74C136.38,-137.41 161.78,-149.5 186,-156 256.59,-174.93 460.31,-184.66 571.47,-188.68"/><polygon fill="#000" stroke="#000" points="118.32 -123.61 107.88 -121.8 114.91 -129.72 118.32 -123.61"/><text x="243.5" y="-144.8" font-family="Times,serif" font-size="14" text-anchor="middle">विशेषणम्</text></g><g id="node8" class="node"><title>Node1_1</title><ellipse cx="1332" cy="-192" fill="#ff1975" stroke="#ff1975" rx="78.79" ry="18"/><text x="1332" y="-188.3" font-family="Times,serif" font-size="14" text-anchor="middle">तिष्ठ(1.1)</text></g><g id="node9" class="node"><title>Node2_1</title><ellipse cx="1260" cy="-105" fill="#00bfff" stroke="#00bfff" rx="78.79" ry="18"/><text x="1260" y="-101.3" font-family="Times,serif" font-size="14" text-anchor="middle">त्वम्(2.1)</text></g><g id="edge1" class="edge"><title>Node2_1-&gt;Node1_1</title><path fill="none" stroke="#000" d="M1280.85,-130.61C1292.71,-144.62 1307.26,-161.79 1317.8,-174.24"/><polygon fill="#000" stroke="#000" points="1283.36 -128.16 1274.22 -122.79 1278.02 -132.69 1283.36 -128.16"/><text x="1336" y="-144.8" font-family="Times,serif" font-size="14" text-anchor="middle">कर्ता</text></g><g id="node10" class="node"><title>Node3_1</title><ellipse cx="1453" cy="-18" fill="#ff0" stroke="#ff0" rx="63.09" ry="18"/><text x="1453" y="-14.3" font-family="Times,serif" font-size="14" text-anchor="middle">हरि-(3.1)</text></g><g id="node11" class="node"><title>Node3_2</title><ellipse cx="1453" cy="-105" fill="#6fffc3" stroke="#6fffc3" rx="96.68" ry="18"/><text x="1453" y="-101.3" font-family="Times,serif" font-size="14" text-anchor="middle">शार्दूल(3.2)</text></g><g id="edge2" class="edge"><title>Node3_1-&gt;Node3_2</title><path fill="none" stroke="#000" d="M1453,-46.27C1453,-59.58 1453,-75.19 1453,-86.82"/><polygon fill="#000" stroke="#000" points="1456.5 -46.2 1453 -36.2 1449.5 -46.2 1456.5 -46.2"/><text x="1563.5" y="-57.8" font-family="Times,serif" font-size="14" text-anchor="middle">सप्तमी_तत्पुरुषः</text></g><g id="edge3" class="edge"><title>Node3_2-&gt;Node1_1</title><path fill="none" stroke="#000" d="M1421.18,-128.35C1400.45,-142.91 1373.88,-161.58 1355.15,-174.74"/><polygon fill="#000" stroke="#000" points="1423.21 -131.2 1429.38 -122.59 1419.19 -125.47 1423.21 -131.2"/><text x="1463.5" y="-144.8" font-family="Times,serif" font-size="14" text-anchor="middle">सम्बोध्यः</text></g><g id="node12" class="node"><title>Node4_1</title><ellipse cx="1697" cy="-18" fill="#c6e2eb" stroke="#c6e2eb" rx="59.59" ry="18"/><text x="1697" y="-14.3" font-family="Times,serif" font-size="14" text-anchor="middle">मयि(4.1)</text></g><g id="node13" class="node"><title>Node5_1</title><ellipse cx="1697" cy="-105" fill="#f9f" stroke="#f9f" rx="106.68" ry="18"/><text x="1697" y="-101.3" font-family="Times,serif" font-size="14" text-anchor="middle">विश्रम्य(5.1)</text></g><g id="edge4" class="edge"><title>Node4_1-&gt;Node5_1</title><path fill="none" stroke="#000" d="M1697,-46.27C1697,-59.58 1697,-75.19 1697,-86.82"/><polygon fill="#000" stroke="#000" points="1700.5 -46.2 1697 -36.2 1693.5 -46.2 1700.5 -46.2"/><text x="1775.5" y="-57.8" font-family="Times,serif" font-size="14" text-anchor="middle">देशाधिकरणम्</text></g><g id="node14" class="node"><title>Node6_1</title><ellipse cx="1697" cy="-192" fill="#ff1975" stroke="#ff1975" rx="106.68" ry="18"/><text x="1697" y="-188.3" font-family="Times,serif" font-size="14" text-anchor="middle">गम्यताम्(6.1)</text></g><g id="edge5" class="edge"><title>Node5_1-&gt;Node6_1</title><path fill="none" stroke="#000" d="M1697,-133.27C1697,-146.58 1697,-162.19 1697,-173.82"/><polygon fill="#000" stroke="#000" points="1700.5 -133.2 1697 -123.2 1693.5 -133.2 1700.5 -133.2"/><text x="1761.5" y="-144.8" font-family="Times,serif" font-size="14" text-anchor="middle">पूर्वकालः</text></g><g id="node15" class="node"><title>Node11_1</title><ellipse cx="1094" cy="-18" fill="#ff0" stroke="#ff0" rx="77.99" ry="18"/><text x="1094" y="-14.3" font-family="Times,serif" font-size="14" text-anchor="middle">कन्द-(11.1)</text></g><g id="node16" class="node"><title>Node11_2</title><ellipse cx="1094" cy="-105" fill="#ff0" stroke="#ff0" rx="68.79" ry="18"/><text x="1094" y="-101.3" font-family="Times,serif" font-size="14" text-anchor="middle">मूल-(11.2)</text></g><g id="edge10" class="edge"><title>Node11_1-&gt;Node11_2</title><path fill="none" stroke="#000" d="M1094,-46.27C1094,-59.58 1094,-75.19 1094,-86.82"/><polygon fill="#000" stroke="#000" points="1097.5 -46.2 1094 -36.2 1090.5 -46.2 1097.5 -46.2"/><text x="1158.5" y="-57.8" font-family="Times,serif" font-size="14" text-anchor="middle">द्वन्द्वः</text></g><g id="edge11" class="edge"><title>Node11_2-&gt;Node11_3</title><path fill="none" stroke="#000" d="M1067.15,-128.65C1053.58,-138.8 1036.34,-149.85 1019,-156 965.67,-174.91 812.52,-184.28 719.88,-188.35"/><polygon fill="#000" stroke="#000" points="1069.33 -131.39 1075.09 -122.5 1065.04 -125.85 1069.33 -131.39"/><text x="1112.5" y="-144.8" font-family="Times,serif" font-size="14" text-anchor="middle">द्वन्द्वः</text></g><g id="node18" class="node"><title>Node18_1</title><ellipse cx="1251" cy="-366" fill="#ff1975" stroke="#ff1975" rx="112.38" ry="18"/><text x="1251" y="-362.3" font-family="Times,serif" font-size="14" text-anchor="middle">गमिष्यसि(18.1)</text></g><g id="edge15" class="edge"><title>Node14_1-&gt;Node18_1</title><path fill="none" stroke="#000" d="M848.37,-297.23C889.87,-307.73 944.83,-320.85 994,-330 1049.45,-340.32 1112.16,-348.92 1161.75,-355.01"/><polygon fill="#000" stroke="#000" points="849.22 -293.83 838.66 -294.75 847.49 -300.61 849.22 -293.83"/><text x="1058.5" y="-318.8" font-family="Times,serif" font-size="14" text-anchor="middle">पूर्वकालः</text></g><g id="node19" class="node"><title>Node15_1</title><ellipse cx="1092" cy="-192" fill="#ff0" stroke="#ff0" rx="68.79" ry="18"/><text x="1092" y="-188.3" font-family="Times,serif" font-size="14" text-anchor="middle">हरि-(15.1)</text></g><g id="node20" class="node"><title>Node15_2</title><ellipse cx="1077" cy="-279" fill="#6fffc3" stroke="#6fffc3" rx="102.88" ry="18"/><text x="1077" y="-275.3" font-family="Times,serif" font-size="14" text-anchor="middle">श्रेष्ठ(15.2)</text></g><g id="edge16" class="edge"><title>Node15_1-&gt;Node15_2</title><path fill="none" stroke="#000" d="M1087.19,-220.27C1084.84,-233.58 1082.08,-249.19 1080.03,-260.82"/><polygon fill="#000" stroke="#000" points="1090.67 -220.66 1088.96 -210.2 1083.78 -219.44 1090.67 -220.66"/><text x="1196.5" y="-231.8" font-family="Times,serif" font-size="14" text-anchor="middle">सप्तमी_तत्पुरुषः</text></g><g id="edge17" class="edge"><title>Node15_2-&gt;Node18_1</title><path fill="none" stroke="#000" d="M1107.07,-302.54C1120.38,-311.84 1136.5,-322.25 1152,-330 1167.33,-337.67 1184.74,-344.42 1200.65,-349.9"/><polygon fill="#000" stroke="#000" points="1108.94 -299.57 1098.76 -296.62 1104.88 -305.27 1108.94 -299.57"/><text x="1216.5" y="-318.8" font-family="Times,serif" font-size="14" text-anchor="middle">सम्बोध्यः</text></g><g id="node21" class="node"><title>Node16_1</title><ellipse cx="1328" cy="-279" fill="#00bfff" stroke="#00bfff" rx="130.78" ry="18"/><text x="1328" y="-275.3" font-family="Times,serif" font-size="14" text-anchor="middle">विश्रान्तः(16.1)</text></g><g id="edge18" class="edge"><title>Node16_1-&gt;Node18_1</title><path fill="none" stroke="#000" d="M1305.38,-304.97C1292.79,-318.86 1277.47,-335.78 1266.3,-348.11"/><polygon fill="#000" stroke="#000" points="1308.3 -306.96 1312.42 -297.2 1303.11 -302.26 1308.3 -306.96"/><text x="1330" y="-318.8" font-family="Times,serif" font-size="14" text-anchor="middle">कर्ता</text></g><g id="node22" class="node"><title>Node17_1</title><ellipse cx="1533" cy="-279" fill="#f9f" stroke="#f9f" rx="56.59" ry="18"/><text x="1533" y="-275.3" font-family="Times,serif" font-size="14" text-anchor="middle">अथ(17.1)</text></g><g id="edge19" class="edge"><title>Node17_1-&gt;Node18_1</title><path fill="none" stroke="#000" d="M1484.18,-295.14C1451.82,-305.13 1408.41,-318.46 1370,-330 1347.93,-336.63 1323.52,-343.83 1302.58,-349.97"/><polygon fill="#000" stroke="#000" points="1485.32 -298.45 1493.85 -292.15 1483.26 -291.76 1485.32 -298.45"/><text x="1476.5" y="-318.8" font-family="Times,serif" font-size="14" text-anchor="middle">सम्बन्धः</text></g></g></svg>