<svg xmlns="http://www.w3.org/2000/svg" xmlns:xlink="http://www.w3.org/1999/xlink" width="1435pt" height="428" viewBox="0 0 1434.64 321"><g id="graph0" class="graph" transform="scale(1 1) rotate(0) translate(4 317)"><title>G</title><polygon fill="#fffacd" stroke="transparent" points="-4 4 -4 -317 1430.64 -317 1430.64 4 -4 4"/><g id="clust1" class="cluster"><title>cluster_1</title><polygon fill="#fffacd" stroke="#000" points="8 -8 8 -147 164 -147 164 -8 8 -8"/></g><g id="node1" class="node"><title>Node6_1</title><ellipse cx="76" cy="-34" fill="#00bfff" stroke="#00bfff" rx="59.59" ry="18"/><text x="76" y="-30.3" font-family="Times,serif" font-size="14" text-anchor="middle">एषः(6.1)</text></g><g id="node2" class="node"><title>Node5_1</title><ellipse cx="86" cy="-121" fill="#00bfff" stroke="#00bfff" rx="69.59" ry="18"/><text x="86" y="-117.3" font-family="Times,serif" font-size="14" text-anchor="middle">कपिः(5.1)</text></g><g id="edge6" class="edge"><title>Node6_1-&gt;Node5_1</title><path fill="none" stroke="#000" d="M79.21,-62.27C80.77,-75.58 82.61,-91.19 83.98,-102.82"/><polygon fill="#000" stroke="#000" points="82.67 -61.72 78.02 -52.2 75.72 -62.54 82.67 -61.72"/><text x="139.5" y="-73.8" font-family="Times,serif" font-size="14" text-anchor="middle">विशेषणम्</text></g><g id="node5" class="node"><title>Node8_1</title><ellipse cx="513" cy="-208" fill="#00bfff" stroke="#00bfff" rx="96.68" ry="18"/><text x="513" y="-204.3" font-family="Times,serif" font-size="14" text-anchor="middle">आप्लुतः(8.1)</text></g><g id="edge5" class="edge"><title>Node5_1-&gt;Node8_1</title><path fill="none" stroke="#000" d="M123.21,-142.3C144.26,-152.87 171.43,-165.01 197,-172 269.68,-191.86 354.69,-200.49 418.22,-204.22"/><polygon fill="#000" stroke="#000" points="124.79 -139.17 114.29 -137.73 121.6 -145.4 124.79 -139.17"/><text x="233" y="-160.8" font-family="Times,serif" font-size="14" text-anchor="middle">कर्ता</text></g><g id="node3" class="node"><title>Node1_1</title><ellipse cx="288" cy="-34" fill="#87ceeb" stroke="#87ceeb" rx="115.88" ry="18"/><text x="288" y="-30.3" font-family="Times,serif" font-size="14" text-anchor="middle">योजनानाम्(1.1)</text></g><g id="node4" class="node"><title>Node2_1</title><ellipse cx="275" cy="-121" fill="#93db70" stroke="#93db70" rx="69.59" ry="18"/><text x="275" y="-117.3" font-family="Times,serif" font-size="14" text-anchor="middle">शतम्(2.1)</text></g><g id="edge1" class="edge"><title>Node1_1-&gt;Node2_1</title><path fill="none" stroke="#000" d="M283.83,-62.27C281.79,-75.58 279.41,-91.19 277.63,-102.82"/><polygon fill="#000" stroke="#000" points="287.32 -62.62 285.37 -52.2 280.4 -61.56 287.32 -62.62"/><text x="354.5" y="-73.8" font-family="Times,serif" font-size="14" text-anchor="middle">निर्धारणम्</text></g><g id="edge2" class="edge"><title>Node2_1-&gt;Node8_1</title><path fill="none" stroke="#000" d="M271.66,-149.17C272.1,-157.45 274.25,-165.96 280,-172 298.96,-191.93 362.32,-200.58 418.18,-204.3"/><polygon fill="#000" stroke="#000" points="275.16 -149.07 271.87 -138.99 268.16 -148.92 275.16 -149.07"/><text x="394.5" y="-160.8" font-family="Times,serif" font-size="14" text-anchor="middle">कर्मसमानाधिकरणम्</text></g><g id="node6" class="node"><title>Node3_1</title><ellipse cx="513" cy="-121" fill="#f9f" stroke="#f9f" rx="41.69" ry="18"/><text x="513" y="-117.3" font-family="Times,serif" font-size="14" text-anchor="middle">च(3.1)</text></g><g id="edge3" class="edge"><title>Node3_1-&gt;Node8_1</title><path fill="none" stroke="#000" d="M513,-149.27C513,-162.58 513,-178.19 513,-189.82"/><polygon fill="#000" stroke="#000" points="516.5 -149.2 513 -139.2 509.5 -149.2 516.5 -149.2"/><text x="570.5" y="-160.8" font-family="Times,serif" font-size="14" text-anchor="middle">सम्बन्धः</text></g><g id="node7" class="node"><title>Node4_1</title><ellipse cx="651" cy="-121" fill="#f9f" stroke="#f9f" rx="59.59" ry="18"/><text x="651" y="-117.3" font-family="Times,serif" font-size="14" text-anchor="middle">अपि(4.1)</text></g><g id="edge4" class="edge"><title>Node4_1-&gt;Node8_1</title><path fill="none" stroke="#000" d="M644.13,-148.65C640.79,-157.11 635.94,-165.85 629,-172 616.48,-183.09 600.55,-190.66 584.53,-195.84"/><polygon fill="#000" stroke="#000" points="647.5 -149.62 647.4 -139.02 640.87 -147.37 647.5 -149.62"/><text x="696.5" y="-160.8" font-family="Times,serif" font-size="14" text-anchor="middle">सम्बन्धः</text></g><g id="node8" class="node"><title>Node7_1</title><ellipse cx="789" cy="-121" fill="#93db70" stroke="#93db70" rx="59.59" ry="18"/><text x="789" y="-117.3" font-family="Times,serif" font-size="14" text-anchor="middle">खम्(7.1)</text></g><g id="edge7" class="edge"><title>Node7_1-&gt;Node8_1</title><path fill="none" stroke="#000" d="M778.37,-148.22C773.47,-157.13 766.76,-166.28 758,-172 733.05,-188.31 663.17,-197.22 604.4,-201.96"/><polygon fill="#000" stroke="#000" points="781.55 -149.68 782.83 -139.16 775.27 -146.58 781.55 -149.68"/><text x="801" y="-160.8" font-family="Times,serif" font-size="14" text-anchor="middle">कर्म</text></g><g id="node9" class="node"><title>Node9_1</title><ellipse cx="960" cy="-34" fill="#87ceeb" stroke="#87ceeb" rx="50.89" ry="18"/><text x="960" y="-30.3" font-family="Times,serif" font-size="14" text-anchor="middle">तव(9.1)</text></g><g id="node10" class="node"><title>Node10_1</title><ellipse cx="960" cy="-121" fill="#c6e2eb" stroke="#c6e2eb" rx="93.68" ry="18"/><text x="960" y="-117.3" font-family="Times,serif" font-size="14" text-anchor="middle">सानुषु(10.1)</text></g><g id="edge8" class="edge"><title>Node9_1-&gt;Node10_1</title><path fill="none" stroke="#000" d="M960,-62.27C960,-75.58 960,-91.19 960,-102.82"/><polygon fill="#000" stroke="#000" points="963.5 -62.2 960 -52.2 956.5 -62.2 963.5 -62.2"/><text x="1056.5" y="-73.8" font-family="Times,serif" font-size="14" text-anchor="middle">षष्ठी_सम्बन्धः</text></g><g id="node11" class="node"><title>Node11_1</title><ellipse cx="960" cy="-208" fill="#00bfff" stroke="#00bfff" rx="130.78" ry="18"/><text x="960" y="-204.3" font-family="Times,serif" font-size="14" text-anchor="middle">विश्रान्तः(11.1)</text></g><g id="edge9" class="edge"><title>Node10_1-&gt;Node11_1</title><path fill="none" stroke="#000" d="M960,-149.27C960,-162.58 960,-178.19 960,-189.82"/><polygon fill="#000" stroke="#000" points="963.5 -149.2 960 -139.2 956.5 -149.2 963.5 -149.2"/><text x="1038.5" y="-160.8" font-family="Times,serif" font-size="14" text-anchor="middle">देशाधिकरणम्</text></g><g id="node12" class="node"><title>Node13_1</title><ellipse cx="1193" cy="-295" fill="#ff1975" stroke="#ff1975" rx="139.98" ry="18"/><text x="1193" y="-291.3" font-family="Times,serif" font-size="14" text-anchor="middle">प्रक्रमताम्(13.1)</text></g><g id="edge10" class="edge"><title>Node11_1-&gt;Node13_1</title><path fill="none" stroke="#000" d="M1013.36,-228.47C1054.28,-243.39 1110.08,-263.75 1148.58,-277.79"/><polygon fill="#000" stroke="#000" points="1014.42 -225.13 1003.83 -224.99 1012.02 -231.7 1014.42 -225.13"/><text x="1126" y="-247.8" font-family="Times,serif" font-size="14" text-anchor="middle">कर्ता</text></g><g id="node13" class="node"><title>Node12_1</title><ellipse cx="1193" cy="-208" fill="#93db70" stroke="#93db70" rx="84.49" ry="18"/><text x="1193" y="-204.3" font-family="Times,serif" font-size="14" text-anchor="middle">शेषम्(12.1)</text></g><g id="edge11" class="edge"><title>Node12_1-&gt;Node13_1</title><path fill="none" stroke="#000" d="M1193,-236.27C1193,-249.58 1193,-265.19 1193,-276.82"/><polygon fill="#000" stroke="#000" points="1196.5 -236.2 1193 -226.2 1189.5 -236.2 1196.5 -236.2"/><text x="1222" y="-247.8" font-family="Times,serif" font-size="14" text-anchor="middle">कर्म</text></g><g id="node14" class="node"><title>Node14_1</title><ellipse cx="1361" cy="-208" fill="#f9f" stroke="#f9f" rx="65.79" ry="18"/><text x="1361" y="-204.3" font-family="Times,serif" font-size="14" text-anchor="middle">इति(14.1)</text></g><g id="edge12" class="edge"><title>Node14_1-&gt;Node13_1</title><path fill="none" stroke="#000" d="M1321.87,-228.8C1292.65,-243.58 1253.17,-263.55 1225.64,-277.48"/><polygon fill="#000" stroke="#000" points="1323.62 -231.83 1330.96 -224.2 1320.46 -225.59 1323.62 -231.83"/><text x="1344.5" y="-247.8" font-family="Times,serif" font-size="14" text-anchor="middle">सम्बन्धः</text></g></g></svg>