<?xml version="1.0" encoding="UTF-8" standalone="no"?>
<!DOCTYPE svg PUBLIC "-//W3C//DTD SVG 1.1//EN"
 "http://www.w3.org/Graphics/SVG/1.1/DTD/svg11.dtd">
<!-- Generated by graphviz version 2.43.0 (0)
 -->
<!-- Title: G Pages: 1 -->
<svg width="1330pt" height="305pt"
 viewBox="0.00 0.00 1329.59 305.00" xmlns="http://www.w3.org/2000/svg" xmlns:xlink="http://www.w3.org/1999/xlink">
<g id="graph0" class="graph" transform="scale(1 1) rotate(0) translate(4 301)">
<title>G</title>
<polygon fill="#fffacd" stroke="transparent" points="-4,4 -4,-301 1325.59,-301 1325.59,4 -4,4"/>
<g id="clust1" class="cluster">
<title>cluster_1</title>
<polygon fill="#fffacd" stroke="black" points="541,-79 541,-218 819,-218 819,-79 541,-79"/>
</g>
<g id="clust2" class="cluster">
<title>cluster_2</title>
<polygon fill="#fffacd" stroke="black" points="8,-79 8,-218 238,-218 238,-79 8,-79"/>
</g>
<!-- Node2_1 -->
<g id="node1" class="node">
<title>Node2_1</title>
<ellipse fill="#00bfff" stroke="#00bfff" cx="680" cy="-105" rx="78.79" ry="18"/>
<text text-anchor="middle" x="680" y="-101.3" font-family="Times,serif" font-size="14.00">उक्तः(2.1)</text>
</g>
<!-- Node12_1 -->
<g id="node2" class="node">
<title>Node12_1</title>
<ellipse fill="#ff1975" stroke="#ff1975" cx="680" cy="-192" rx="130.78" ry="18"/>
<text text-anchor="middle" x="680" y="-188.3" font-family="Times,serif" font-size="14.00">विषहिष्यसि(12.1)</text>
</g>
<!-- Node2_1&#45;&gt;Node12_1 -->
<g id="edge2" class="edge">
<title>Node2_1&#45;&gt;Node12_1</title>
<path fill="none" stroke="black" d="M680,-133.27C680,-146.58 680,-162.19 680,-173.82"/>
<polygon fill="black" stroke="black" points="683.5,-133.2 680,-123.2 676.5,-133.2 683.5,-133.2"/>
<text text-anchor="middle" x="737.5" y="-144.8" font-family="Times,serif" font-size="14.00">विशेषणम्</text>
</g>
<!-- Node6_1 -->
<g id="node8" class="node">
<title>Node6_1</title>
<ellipse fill="#ff1975" stroke="#ff1975" cx="463" cy="-279" rx="106.68" ry="18"/>
<text text-anchor="middle" x="463" y="-275.3" font-family="Times,serif" font-size="14.00">अब्रवीत्(6.1)</text>
</g>
<!-- Node12_1&#45;&gt;Node6_1 -->
<g id="edge11" class="edge">
<title>Node12_1&#45;&gt;Node6_1</title>
<path fill="none" stroke="black" d="M629.47,-212.79C591.01,-227.86 538.8,-248.31 503.17,-262.27"/>
<polygon fill="black" stroke="black" points="630.89,-215.99 638.93,-209.09 628.34,-209.48 630.89,-215.99"/>
<text text-anchor="middle" x="649.5" y="-231.8" font-family="Times,serif" font-size="14.00">वाक्यकर्म</text>
</g>
<!-- Node4_1 -->
<g id="node3" class="node">
<title>Node4_1</title>
<ellipse fill="#00bfff" stroke="#00bfff" cx="123" cy="-105" rx="106.68" ry="18"/>
<text text-anchor="middle" x="123" y="-101.3" font-family="Times,serif" font-size="14.00">क्रुद्धः(4.1)</text>
</g>
<!-- Node5_2 -->
<g id="node4" class="node">
<title>Node5_2</title>
<ellipse fill="#00bfff" stroke="#00bfff" cx="133" cy="-192" rx="96.68" ry="18"/>
<text text-anchor="middle" x="133" y="-188.3" font-family="Times,serif" font-size="14.00">पुङ्गवः(5.2)</text>
</g>
<!-- Node4_1&#45;&gt;Node5_2 -->
<g id="edge4" class="edge">
<title>Node4_1&#45;&gt;Node5_2</title>
<path fill="none" stroke="black" d="M126.21,-133.27C127.77,-146.58 129.61,-162.19 130.98,-173.82"/>
<polygon fill="black" stroke="black" points="129.67,-132.72 125.02,-123.2 122.72,-133.54 129.67,-132.72"/>
<text text-anchor="middle" x="186.5" y="-144.8" font-family="Times,serif" font-size="14.00">विशेषणम्</text>
</g>
<!-- Node5_2&#45;&gt;Node6_1 -->
<g id="edge6" class="edge">
<title>Node5_2&#45;&gt;Node6_1</title>
<path fill="none" stroke="black" d="M197.03,-209.49C258.06,-225.21 349.04,-248.65 407.19,-263.63"/>
<polygon fill="black" stroke="black" points="197.68,-206.05 187.12,-206.94 195.93,-212.82 197.68,-206.05"/>
<text text-anchor="middle" x="354" y="-231.8" font-family="Times,serif" font-size="14.00">कर्ता</text>
</g>
<!-- Node1_1 -->
<g id="node5" class="node">
<title>Node1_1</title>
<ellipse fill="#ff99ff" stroke="#ff99ff" cx="593" cy="-18" rx="69.59" ry="18"/>
<text text-anchor="middle" x="593" y="-14.3" font-family="Times,serif" font-size="14.00">एवम्(1.1)</text>
</g>
<!-- Node1_1&#45;&gt;Node2_1 -->
<g id="edge1" class="edge">
<title>Node1_1&#45;&gt;Node2_1</title>
<path fill="none" stroke="black" d="M610.08,-44.51C616.2,-52.77 623.45,-61.67 631,-69 638.05,-75.85 646.53,-82.38 654.44,-87.91"/>
<polygon fill="black" stroke="black" points="612.83,-42.33 604.16,-36.24 607.14,-46.41 612.83,-42.33"/>
<text text-anchor="middle" x="688.5" y="-57.8" font-family="Times,serif" font-size="14.00">सम्बन्धः</text>
</g>
<!-- Node3_1 -->
<g id="node6" class="node">
<title>Node3_1</title>
<ellipse fill="#40e0d0" stroke="#40e0d0" cx="768" cy="-18" rx="87.99" ry="18"/>
<text text-anchor="middle" x="768" y="-14.3" font-family="Times,serif" font-size="14.00">सुरसया(3.1)</text>
</g>
<!-- Node3_1&#45;&gt;Node2_1 -->
<g id="edge3" class="edge">
<title>Node3_1&#45;&gt;Node2_1</title>
<path fill="none" stroke="black" d="M759.99,-45.92C756.63,-54.02 752.06,-62.48 746,-69 738.32,-77.26 728.23,-83.95 718.27,-89.19"/>
<polygon fill="black" stroke="black" points="763.34,-46.97 763.51,-36.37 756.77,-44.55 763.34,-46.97"/>
<text text-anchor="middle" x="793" y="-57.8" font-family="Times,serif" font-size="14.00">कर्ता</text>
</g>
<!-- Node5_1 -->
<g id="node7" class="node">
<title>Node5_1</title>
<ellipse fill="#ffff00" stroke="#ffff00" cx="320" cy="-105" rx="72.29" ry="18"/>
<text text-anchor="middle" x="320" y="-101.3" font-family="Times,serif" font-size="14.00">वानर&#45;(5.1)</text>
</g>
<!-- Node5_1&#45;&gt;Node5_2 -->
<g id="edge5" class="edge">
<title>Node5_1&#45;&gt;Node5_2</title>
<path fill="none" stroke="black" d="M291.98,-128.51C279.14,-138 263.39,-148.54 248,-156 229.88,-164.78 209.08,-171.92 190.19,-177.4"/>
<polygon fill="black" stroke="black" points="294.09,-131.3 299.95,-122.47 289.87,-125.72 294.09,-131.3"/>
<text text-anchor="middle" x="384.5" y="-144.8" font-family="Times,serif" font-size="14.00">सप्तमी_तत्पुरुषः</text>
</g>
<!-- Node7_1 -->
<g id="node9" class="node">
<title>Node7_1</title>
<ellipse fill="#ff1975" stroke="#ff1975" cx="1215" cy="-105" rx="69.59" ry="18"/>
<text text-anchor="middle" x="1215" y="-101.3" font-family="Times,serif" font-size="14.00">कुरु(7.1)</text>
</g>
<!-- Node8_1 -->
<g id="node10" class="node">
<title>Node8_1</title>
<ellipse fill="#ff99ff" stroke="#ff99ff" cx="482" cy="-105" rx="50.89" ry="18"/>
<text text-anchor="middle" x="482" y="-101.3" font-family="Times,serif" font-size="14.00">वै(8.1)</text>
</g>
<!-- Node8_1&#45;&gt;Node12_1 -->
<g id="edge7" class="edge">
<title>Node8_1&#45;&gt;Node12_1</title>
<path fill="none" stroke="black" d="M511.37,-127.35C525.78,-137.09 543.73,-148.18 561,-156 578.75,-164.04 598.83,-170.77 617.36,-176.11"/>
<polygon fill="black" stroke="black" points="513.1,-124.29 502.88,-121.49 509.12,-130.05 513.1,-124.29"/>
<text text-anchor="middle" x="618.5" y="-144.8" font-family="Times,serif" font-size="14.00">सम्बन्धः</text>
</g>
<!-- Node9_1 -->
<g id="node11" class="node">
<title>Node9_1</title>
<ellipse fill="#93db70" stroke="#93db70" cx="1215" cy="-18" rx="106.68" ry="18"/>
<text text-anchor="middle" x="1215" y="-14.3" font-family="Times,serif" font-size="14.00">वक्त्रम्(9.1)</text>
</g>
<!-- Node9_1&#45;&gt;Node7_1 -->
<g id="edge8" class="edge">
<title>Node9_1&#45;&gt;Node7_1</title>
<path fill="none" stroke="black" d="M1215,-46.27C1215,-59.58 1215,-75.19 1215,-86.82"/>
<polygon fill="black" stroke="black" points="1218.5,-46.2 1215,-36.2 1211.5,-46.2 1218.5,-46.2"/>
<text text-anchor="middle" x="1244" y="-57.8" font-family="Times,serif" font-size="14.00">कर्म</text>
</g>
<!-- Node10_1 -->
<g id="node12" class="node">
<title>Node10_1</title>
<ellipse fill="#40e0d0" stroke="#40e0d0" cx="893" cy="-105" rx="65.79" ry="18"/>
<text text-anchor="middle" x="893" y="-101.3" font-family="Times,serif" font-size="14.00">येन(10.1)</text>
</g>
<!-- Node10_1&#45;&gt;Node12_1 -->
<g id="edge9" class="edge">
<title>Node10_1&#45;&gt;Node12_1</title>
<path fill="none" stroke="black" d="M857.79,-126.92C840.48,-136.63 819.07,-147.81 799,-156 780.16,-163.69 759.01,-170.47 739.83,-175.97"/>
<polygon fill="black" stroke="black" points="859.99,-129.69 866.95,-121.7 856.53,-123.61 859.99,-129.69"/>
<text text-anchor="middle" x="867" y="-144.8" font-family="Times,serif" font-size="14.00">करणम्</text>
</g>
<!-- Node11_1 -->
<g id="node13" class="node">
<title>Node11_1</title>
<ellipse fill="#93db70" stroke="#93db70" cx="1052" cy="-105" rx="75.29" ry="18"/>
<text text-anchor="middle" x="1052" y="-101.3" font-family="Times,serif" font-size="14.00">माम्(11.1)</text>
</g>
<!-- Node11_1&#45;&gt;Node12_1 -->
<g id="edge10" class="edge">
<title>Node11_1&#45;&gt;Node12_1</title>
<path fill="none" stroke="black" d="M1005.43,-124.44C977.3,-134.98 940.53,-147.71 907,-156 864.9,-166.41 817.61,-174.3 777.13,-179.92"/>
<polygon fill="black" stroke="black" points="1006.89,-127.63 1015,-120.82 1004.41,-121.09 1006.89,-127.63"/>
<text text-anchor="middle" x="984" y="-144.8" font-family="Times,serif" font-size="14.00">कर्म</text>
</g>
</g>
</svg>
