<?xml version="1.0" encoding="UTF-8" standalone="no"?>
<!DOCTYPE svg PUBLIC "-//W3C//DTD SVG 1.1//EN"
 "http://www.w3.org/Graphics/SVG/1.1/DTD/svg11.dtd">
<!-- Generated by graphviz version 2.43.0 (0)
 -->
<!-- Title: G Pages: 1 -->
<svg width="1432pt" height="392pt"
 viewBox="0.00 0.00 1432.14 392.00" xmlns="http://www.w3.org/2000/svg" xmlns:xlink="http://www.w3.org/1999/xlink">
<g id="graph0" class="graph" transform="scale(1 1) rotate(0) translate(4 388)">
<title>G</title>
<polygon fill="#fffacd" stroke="transparent" points="-4,4 -4,-388 1428.14,-388 1428.14,4 -4,4"/>
<g id="clust1" class="cluster">
<title>cluster_1</title>
<polygon fill="#fffacd" stroke="black" points="728,-166 728,-305 1299,-305 1299,-166 728,-166"/>
</g>
<g id="clust2" class="cluster">
<title>cluster_2</title>
<polygon fill="#fffacd" stroke="black" points="8,-79 8,-218 375,-218 375,-79 8,-79"/>
</g>
<!-- Node2_4 -->
<g id="node1" class="node">
<title>Node2_4</title>
<ellipse fill="#00bfff" stroke="#00bfff" cx="833" cy="-192" rx="96.68" ry="18"/>
<text text-anchor="middle" x="833" y="-188.3" font-family="Times,serif" font-size="14.00">रूपधारी(2.4)</text>
</g>
<!-- Node1_1 -->
<g id="node2" class="node">
<title>Node1_1</title>
<ellipse fill="#00bfff" stroke="#00bfff" cx="912" cy="-279" rx="50.89" ry="18"/>
<text text-anchor="middle" x="912" y="-275.3" font-family="Times,serif" font-size="14.00">सः(1.1)</text>
</g>
<!-- Node2_4&#45;&gt;Node1_1 -->
<g id="edge5" class="edge">
<title>Node2_4&#45;&gt;Node1_1</title>
<path fill="none" stroke="black" d="M850.46,-218.14C856.6,-226.37 863.78,-235.35 871,-243 877.43,-249.8 885.09,-256.63 892.04,-262.43"/>
<polygon fill="black" stroke="black" points="853.2,-215.95 844.48,-209.93 847.54,-220.07 853.2,-215.95"/>
<text text-anchor="middle" x="928.5" y="-231.8" font-family="Times,serif" font-size="14.00">विशेषणम्</text>
</g>
<!-- Node11_1 -->
<g id="node8" class="node">
<title>Node11_1</title>
<ellipse fill="#ff1975" stroke="#ff1975" cx="522" cy="-366" rx="90.98" ry="18"/>
<text text-anchor="middle" x="522" y="-362.3" font-family="Times,serif" font-size="14.00">(अभूत्)(11.1)</text>
</g>
<!-- Node1_1&#45;&gt;Node11_1 -->
<g id="edge1" class="edge">
<title>Node1_1&#45;&gt;Node11_1</title>
<path fill="none" stroke="black" d="M870.64,-296.88C842.43,-307.79 803.98,-321.49 769,-330 714.19,-343.33 651.21,-352.16 602.57,-357.61"/>
<polygon fill="black" stroke="black" points="872.13,-300.06 880.17,-293.15 869.58,-293.54 872.13,-300.06"/>
<text text-anchor="middle" x="853" y="-318.8" font-family="Times,serif" font-size="14.00">कर्ता</text>
</g>
<!-- Node9_2 -->
<g id="node3" class="node">
<title>Node9_2</title>
<ellipse fill="#00bfff" stroke="#00bfff" cx="1026" cy="-192" rx="78.79" ry="18"/>
<text text-anchor="middle" x="1026" y="-188.3" font-family="Times,serif" font-size="14.00">आत्मा(9.2)</text>
</g>
<!-- Node9_2&#45;&gt;Node1_1 -->
<g id="edge15" class="edge">
<title>Node9_2&#45;&gt;Node1_1</title>
<path fill="none" stroke="black" d="M1009.36,-218.26C1002.81,-226.88 994.76,-236.07 986,-243 974.18,-252.34 959.46,-259.95 946.27,-265.65"/>
<polygon fill="black" stroke="black" points="1012.34,-220.1 1015.37,-209.95 1006.67,-216 1012.34,-220.1"/>
<text text-anchor="middle" x="1059.5" y="-231.8" font-family="Times,serif" font-size="14.00">विशेषणम्</text>
</g>
<!-- Node10_2 -->
<g id="node4" class="node">
<title>Node10_2</title>
<ellipse fill="#00bfff" stroke="#00bfff" cx="1207" cy="-192" rx="84.49" ry="18"/>
<text text-anchor="middle" x="1207" y="-188.3" font-family="Times,serif" font-size="14.00">अर्थः(10.2)</text>
</g>
<!-- Node10_2&#45;&gt;Node1_1 -->
<g id="edge17" class="edge">
<title>Node10_2&#45;&gt;Node1_1</title>
<path fill="none" stroke="black" d="M1175.29,-215.14C1159.61,-225.1 1140.01,-236.14 1121,-243 1068.4,-261.98 1004.58,-270.76 961.41,-274.76"/>
<polygon fill="black" stroke="black" points="1177.57,-217.83 1184.04,-209.44 1173.75,-211.97 1177.57,-217.83"/>
<text text-anchor="middle" x="1211.5" y="-231.8" font-family="Times,serif" font-size="14.00">विशेषणम्</text>
</g>
<!-- Node3_1 -->
<g id="node5" class="node">
<title>Node3_1</title>
<ellipse fill="#93db70" stroke="#93db70" cx="297" cy="-105" rx="69.59" ry="18"/>
<text text-anchor="middle" x="297" y="-101.3" font-family="Times,serif" font-size="14.00">परम्(3.1)</text>
</g>
<!-- Node5_2 -->
<g id="node6" class="node">
<title>Node5_2</title>
<ellipse fill="#93db70" stroke="#93db70" cx="261" cy="-192" rx="78.79" ry="18"/>
<text text-anchor="middle" x="261" y="-188.3" font-family="Times,serif" font-size="14.00">तीरम्(5.2)</text>
</g>
<!-- Node3_1&#45;&gt;Node5_2 -->
<g id="edge6" class="edge">
<title>Node3_1&#45;&gt;Node5_2</title>
<path fill="none" stroke="black" d="M285.79,-132.48C280.08,-145.96 273.3,-161.96 268.27,-173.82"/>
<polygon fill="black" stroke="black" points="289.04,-133.77 289.71,-123.2 282.59,-131.04 289.04,-133.77"/>
<text text-anchor="middle" x="339.5" y="-144.8" font-family="Times,serif" font-size="14.00">विशेषणम्</text>
</g>
<!-- Node4_1 -->
<g id="node12" class="node">
<title>Node4_1</title>
<ellipse fill="#ff99ff" stroke="#ff99ff" cx="309" cy="-279" rx="106.68" ry="18"/>
<text text-anchor="middle" x="309" y="-275.3" font-family="Times,serif" font-size="14.00">समासाद्य(4.1)</text>
</g>
<!-- Node5_2&#45;&gt;Node4_1 -->
<g id="edge9" class="edge">
<title>Node5_2&#45;&gt;Node4_1</title>
<path fill="none" stroke="black" d="M275.73,-219.09C283.39,-232.65 292.54,-248.85 299.3,-260.82"/>
<polygon fill="black" stroke="black" points="278.68,-217.19 270.71,-210.2 272.58,-220.63 278.68,-217.19"/>
<text text-anchor="middle" x="317" y="-231.8" font-family="Times,serif" font-size="14.00">कर्म</text>
</g>
<!-- Node7_1 -->
<g id="node7" class="node">
<title>Node7_1</title>
<ellipse fill="#93db70" stroke="#93db70" cx="113" cy="-105" rx="96.68" ry="18"/>
<text text-anchor="middle" x="113" y="-101.3" font-family="Times,serif" font-size="14.00">अशक्यम्(7.1)</text>
</g>
<!-- Node7_1&#45;&gt;Node5_2 -->
<g id="edge11" class="edge">
<title>Node7_1&#45;&gt;Node5_2</title>
<path fill="none" stroke="black" d="M131,-130.85C138.51,-139.79 147.85,-149.31 158,-156 173.06,-165.93 191.22,-173.32 208.07,-178.68"/>
<polygon fill="black" stroke="black" points="133.63,-128.53 124.65,-122.9 128.16,-132.9 133.63,-128.53"/>
<text text-anchor="middle" x="215.5" y="-144.8" font-family="Times,serif" font-size="14.00">विशेषणम्</text>
</g>
<!-- Node2_1 -->
<g id="node9" class="node">
<title>Node2_1</title>
<ellipse fill="#ffff00" stroke="#ffff00" cx="681" cy="-105" rx="72.29" ry="18"/>
<text text-anchor="middle" x="681" y="-101.3" font-family="Times,serif" font-size="14.00">चारु&#45;(2.1)</text>
</g>
<!-- Node2_1&#45;&gt;Node2_4 -->
<g id="edge2" class="edge">
<title>Node2_1&#45;&gt;Node2_4</title>
<path fill="none" stroke="black" d="M686.64,-132.75C689.63,-141.22 694.16,-149.94 701,-156 715.29,-168.65 733.64,-176.81 752.09,-182.04"/>
<polygon fill="black" stroke="black" points="689.98,-131.7 683.79,-123.1 683.26,-133.68 689.98,-131.7"/>
<text text-anchor="middle" x="765.5" y="-144.8" font-family="Times,serif" font-size="14.00">कर्मधारयः</text>
</g>
<!-- Node2_2 -->
<g id="node10" class="node">
<title>Node2_2</title>
<ellipse fill="#ffff00" stroke="#ffff00" cx="834" cy="-18" rx="72.29" ry="18"/>
<text text-anchor="middle" x="834" y="-14.3" font-family="Times,serif" font-size="14.00">नाना&#45;(2.2)</text>
</g>
<!-- Node2_3 -->
<g id="node11" class="node">
<title>Node2_3</title>
<ellipse fill="#ffff00" stroke="#ffff00" cx="834" cy="-105" rx="63.09" ry="18"/>
<text text-anchor="middle" x="834" y="-101.3" font-family="Times,serif" font-size="14.00">विध&#45;(2.3)</text>
</g>
<!-- Node2_2&#45;&gt;Node2_3 -->
<g id="edge3" class="edge">
<title>Node2_2&#45;&gt;Node2_3</title>
<path fill="none" stroke="black" d="M834,-46.27C834,-59.58 834,-75.19 834,-86.82"/>
<polygon fill="black" stroke="black" points="837.5,-46.2 834,-36.2 830.5,-46.2 837.5,-46.2"/>
<text text-anchor="middle" x="905.5" y="-57.8" font-family="Times,serif" font-size="14.00">बहुव्रीहिः</text>
</g>
<!-- Node2_3&#45;&gt;Node2_4 -->
<g id="edge4" class="edge">
<title>Node2_3&#45;&gt;Node2_4</title>
<path fill="none" stroke="black" d="M833.68,-133.27C833.52,-146.58 833.34,-162.19 833.2,-173.82"/>
<polygon fill="black" stroke="black" points="837.18,-133.24 833.8,-123.2 830.18,-133.16 837.18,-133.24"/>
<text text-anchor="middle" x="930.5" y="-144.8" font-family="Times,serif" font-size="14.00">उपपद_तत्पुरुषः</text>
</g>
<!-- Node4_1&#45;&gt;Node11_1 -->
<g id="edge7" class="edge">
<title>Node4_1&#45;&gt;Node11_1</title>
<path fill="none" stroke="black" d="M339.92,-302.39C354.29,-311.97 371.94,-322.63 389,-330 411.36,-339.66 437.01,-347.18 459.79,-352.73"/>
<polygon fill="black" stroke="black" points="341.67,-299.34 331.44,-296.6 337.73,-305.12 341.67,-299.34"/>
<text text-anchor="middle" x="453.5" y="-318.8" font-family="Times,serif" font-size="14.00">पूर्वकालः</text>
</g>
<!-- Node5_1 -->
<g id="node13" class="node">
<title>Node5_1</title>
<ellipse fill="#ffff00" stroke="#ffff00" cx="476" cy="-105" rx="90.98" ry="18"/>
<text text-anchor="middle" x="476" y="-101.3" font-family="Times,serif" font-size="14.00">समुद्र&#45;(5.1)</text>
</g>
<!-- Node5_1&#45;&gt;Node5_2 -->
<g id="edge8" class="edge">
<title>Node5_1&#45;&gt;Node5_2</title>
<path fill="none" stroke="black" d="M446.86,-128.83C433.5,-138.38 417.08,-148.89 401,-156 376.03,-167.05 346.94,-175.03 321.77,-180.56"/>
<polygon fill="black" stroke="black" points="449.17,-131.48 455.16,-122.75 445.02,-125.84 449.17,-131.48"/>
<text text-anchor="middle" x="531.5" y="-144.8" font-family="Times,serif" font-size="14.00">षष्ठी_तत्पुरुषः</text>
</g>
<!-- Node6_1 -->
<g id="node14" class="node">
<title>Node6_1</title>
<ellipse fill="#40e0d0" stroke="#40e0d0" cx="113" cy="-18" rx="69.59" ry="18"/>
<text text-anchor="middle" x="113" y="-14.3" font-family="Times,serif" font-size="14.00">परैः(6.1)</text>
</g>
<!-- Node6_1&#45;&gt;Node7_1 -->
<g id="edge10" class="edge">
<title>Node6_1&#45;&gt;Node7_1</title>
<path fill="none" stroke="black" d="M113,-46.27C113,-59.58 113,-75.19 113,-86.82"/>
<polygon fill="black" stroke="black" points="116.5,-46.2 113,-36.2 109.5,-46.2 116.5,-46.2"/>
<text text-anchor="middle" x="149" y="-57.8" font-family="Times,serif" font-size="14.00">कर्ता</text>
</g>
<!-- Node8_1 -->
<g id="node15" class="node">
<title>Node8_1</title>
<ellipse fill="#ffff00" stroke="#ffff00" cx="522" cy="-192" rx="118.08" ry="18"/>
<text text-anchor="middle" x="522" y="-188.3" font-family="Times,serif" font-size="14.00">प्रतिपन्न&#45;(8.1)</text>
</g>
<!-- Node8_2 -->
<g id="node16" class="node">
<title>Node8_2</title>
<ellipse fill="#00bfff" stroke="#00bfff" cx="522" cy="-279" rx="69.59" ry="18"/>
<text text-anchor="middle" x="522" y="-275.3" font-family="Times,serif" font-size="14.00">रूपः(8.2)</text>
</g>
<!-- Node8_1&#45;&gt;Node8_2 -->
<g id="edge12" class="edge">
<title>Node8_1&#45;&gt;Node8_2</title>
<path fill="none" stroke="black" d="M522,-220.27C522,-233.58 522,-249.19 522,-260.82"/>
<polygon fill="black" stroke="black" points="525.5,-220.2 522,-210.2 518.5,-220.2 525.5,-220.2"/>
<text text-anchor="middle" x="593.5" y="-231.8" font-family="Times,serif" font-size="14.00">बहुव्रीहिः</text>
</g>
<!-- Node8_2&#45;&gt;Node11_1 -->
<g id="edge13" class="edge">
<title>Node8_2&#45;&gt;Node11_1</title>
<path fill="none" stroke="black" d="M522,-307.27C522,-320.58 522,-336.19 522,-347.82"/>
<polygon fill="black" stroke="black" points="525.5,-307.2 522,-297.2 518.5,-307.2 525.5,-307.2"/>
<text text-anchor="middle" x="643.5" y="-318.8" font-family="Times,serif" font-size="14.00">कर्तृसमानाधिकरणम्</text>
</g>
<!-- Node9_1 -->
<g id="node17" class="node">
<title>Node9_1</title>
<ellipse fill="#ffff00" stroke="#ffff00" cx="1049" cy="-105" rx="109.38" ry="18"/>
<text text-anchor="middle" x="1049" y="-101.3" font-family="Times,serif" font-size="14.00">समीक्षित&#45;(9.1)</text>
</g>
<!-- Node9_1&#45;&gt;Node9_2 -->
<g id="edge14" class="edge">
<title>Node9_1&#45;&gt;Node9_2</title>
<path fill="none" stroke="black" d="M1041.73,-132.87C1038.1,-146.27 1033.83,-162.08 1030.65,-173.82"/>
<polygon fill="black" stroke="black" points="1045.11,-133.77 1044.35,-123.2 1038.36,-131.94 1045.11,-133.77"/>
<text text-anchor="middle" x="1110.5" y="-144.8" font-family="Times,serif" font-size="14.00">बहुव्रीहिः</text>
</g>
<!-- Node10_1 -->
<g id="node18" class="node">
<title>Node10_1</title>
<ellipse fill="#ffff00" stroke="#ffff00" cx="1300" cy="-105" rx="124.28" ry="18"/>
<text text-anchor="middle" x="1300" y="-101.3" font-family="Times,serif" font-size="14.00">समवेक्षित&#45;(10.1)</text>
</g>
<!-- Node10_1&#45;&gt;Node10_2 -->
<g id="edge16" class="edge">
<title>Node10_1&#45;&gt;Node10_2</title>
<path fill="none" stroke="black" d="M1273.47,-130.24C1258.01,-144.38 1238.91,-161.83 1225.16,-174.4"/>
<polygon fill="black" stroke="black" points="1276.16,-132.53 1281.18,-123.2 1271.44,-127.36 1276.16,-132.53"/>
<text text-anchor="middle" x="1330.5" y="-144.8" font-family="Times,serif" font-size="14.00">बहुव्रीहिः</text>
</g>
</g>
</svg>
