<?xml version="1.0" encoding="UTF-8" standalone="no"?>
<!DOCTYPE svg PUBLIC "-//W3C//DTD SVG 1.1//EN"
 "http://www.w3.org/Graphics/SVG/1.1/DTD/svg11.dtd">
<!-- Generated by graphviz version 2.43.0 (0)
 -->
<!-- Title: G Pages: 1 -->
<svg width="1046pt" height="408pt"
 viewBox="0.00 0.00 1045.69 408.00" xmlns="http://www.w3.org/2000/svg" xmlns:xlink="http://www.w3.org/1999/xlink">
<g id="graph0" class="graph" transform="scale(1 1) rotate(0) translate(4 404)">
<title>G</title>
<polygon fill="#fffacd" stroke="transparent" points="-4,4 -4,-404 1041.69,-404 1041.69,4 -4,4"/>
<g id="clust1" class="cluster">
<title>cluster_1</title>
<polygon fill="#fffacd" stroke="black" points="380.04,-182 380.04,-321 870.04,-321 870.04,-182 380.04,-182"/>
</g>
<g id="clust2" class="cluster">
<title>cluster_2</title>
<polygon fill="#fffacd" stroke="black" points="402.04,-8 402.04,-147 606.04,-147 606.04,-8 402.04,-8"/>
</g>
<!-- Node8_1 -->
<g id="node1" class="node">
<title>Node8_1</title>
<ellipse fill="#87ceeb" stroke="#87ceeb" cx="504.04" cy="-208" rx="115.88" ry="18"/>
<text text-anchor="middle" x="504.04" y="-204.3" font-family="Times,serif" font-size="14.00">प्रख्यातः(8.1)</text>
</g>
<!-- Node3_1 -->
<g id="node2" class="node">
<title>Node3_1</title>
<ellipse fill="#00bfff" stroke="#00bfff" cx="516.04" cy="-295" rx="106.68" ry="18"/>
<text text-anchor="middle" x="516.04" y="-291.3" font-family="Times,serif" font-size="14.00">सम्बन्धः(3.1)</text>
</g>
<!-- Node8_1&#45;&gt;Node3_1 -->
<g id="edge8" class="edge">
<title>Node8_1&#45;&gt;Node3_1</title>
<path fill="none" stroke="black" d="M507.89,-236.27C509.77,-249.58 511.98,-265.19 513.62,-276.82"/>
<polygon fill="black" stroke="black" points="511.34,-235.61 506.47,-226.2 504.41,-236.59 511.34,-235.61"/>
<text text-anchor="middle" x="567.54" y="-247.8" font-family="Times,serif" font-size="14.00">विशेषणम्</text>
</g>
<!-- Node6_1 -->
<g id="node8" class="node">
<title>Node6_1</title>
<ellipse fill="#ff1975" stroke="#ff1975" cx="307.04" cy="-382" rx="78.79" ry="18"/>
<text text-anchor="middle" x="307.04" y="-378.3" font-family="Times,serif" font-size="14.00">अस्ति(6.1)</text>
</g>
<!-- Node3_1&#45;&gt;Node6_1 -->
<g id="edge3" class="edge">
<title>Node3_1&#45;&gt;Node6_1</title>
<path fill="none" stroke="black" d="M481.36,-317.63C465,-327.21 444.96,-338.08 426.04,-346 404.59,-354.98 380.06,-362.62 358.87,-368.44"/>
<polygon fill="black" stroke="black" points="483.23,-320.59 490.04,-312.47 479.65,-314.57 483.23,-320.59"/>
<text text-anchor="middle" x="492.04" y="-334.8" font-family="Times,serif" font-size="14.00">कर्ता</text>
</g>
<!-- Node11_3 -->
<g id="node3" class="node">
<title>Node11_3</title>
<ellipse fill="#00bfff" stroke="#00bfff" cx="750.04" cy="-208" rx="112.38" ry="18"/>
<text text-anchor="middle" x="750.04" y="-204.3" font-family="Times,serif" font-size="14.00">परिग्रहः(11.3)</text>
</g>
<!-- Node11_3&#45;&gt;Node3_1 -->
<g id="edge13" class="edge">
<title>Node11_3&#45;&gt;Node3_1</title>
<path fill="none" stroke="black" d="M704.29,-229.07C681.81,-238.63 654.21,-249.93 629.04,-259 609.05,-266.21 586.75,-273.31 567.28,-279.21"/>
<polygon fill="black" stroke="black" points="705.77,-232.24 713.58,-225.09 703.01,-225.81 705.77,-232.24"/>
<text text-anchor="middle" x="722.54" y="-247.8" font-family="Times,serif" font-size="14.00">विशेषणम्</text>
</g>
<!-- Node9_1 -->
<g id="node4" class="node">
<title>Node9_1</title>
<ellipse fill="#c6e2eb" stroke="#c6e2eb" cx="498.04" cy="-34" rx="87.99" ry="18"/>
<text text-anchor="middle" x="498.04" y="-30.3" font-family="Times,serif" font-size="14.00">त्रिषु(9.1)</text>
</g>
<!-- Node10_1 -->
<g id="node5" class="node">
<title>Node10_1</title>
<ellipse fill="#c6e2eb" stroke="#c6e2eb" cx="504.04" cy="-121" rx="93.68" ry="18"/>
<text text-anchor="middle" x="504.04" y="-117.3" font-family="Times,serif" font-size="14.00">लोकेषु(10.1)</text>
</g>
<!-- Node9_1&#45;&gt;Node10_1 -->
<g id="edge9" class="edge">
<title>Node9_1&#45;&gt;Node10_1</title>
<path fill="none" stroke="black" d="M499.97,-62.27C500.91,-75.58 502.01,-91.19 502.83,-102.82"/>
<polygon fill="black" stroke="black" points="503.45,-61.93 499.26,-52.2 496.47,-62.42 503.45,-61.93"/>
<text text-anchor="middle" x="558.54" y="-73.8" font-family="Times,serif" font-size="14.00">विशेषणम्</text>
</g>
<!-- Node10_1&#45;&gt;Node8_1 -->
<g id="edge10" class="edge">
<title>Node10_1&#45;&gt;Node8_1</title>
<path fill="none" stroke="black" d="M504.04,-149.27C504.04,-162.58 504.04,-178.19 504.04,-189.82"/>
<polygon fill="black" stroke="black" points="507.54,-149.2 504.04,-139.2 500.54,-149.2 507.54,-149.2"/>
<text text-anchor="middle" x="582.54" y="-160.8" font-family="Times,serif" font-size="14.00">देशाधिकरणम्</text>
</g>
<!-- Node1_1 -->
<g id="node6" class="node">
<title>Node1_1</title>
<ellipse fill="#87ceeb" stroke="#87ceeb" cx="264.04" cy="-208" rx="106.68" ry="18"/>
<text text-anchor="middle" x="264.04" y="-204.3" font-family="Times,serif" font-size="14.00">अस्माकम्(1.1)</text>
</g>
<!-- Node1_1&#45;&gt;Node3_1 -->
<g id="edge1" class="edge">
<title>Node1_1&#45;&gt;Node3_1</title>
<path fill="none" stroke="black" d="M285.16,-233.42C294.6,-242.83 306.43,-252.8 319.04,-259 349.67,-274.05 385.81,-282.71 418.71,-287.66"/>
<polygon fill="black" stroke="black" points="287.58,-230.88 278.14,-226.07 282.52,-235.72 287.58,-230.88"/>
<text text-anchor="middle" x="412.04" y="-247.8" font-family="Times,serif" font-size="14.00">षष्ठीसम्बन्धः</text>
</g>
<!-- Node2_1 -->
<g id="node7" class="node">
<title>Node2_1</title>
<ellipse fill="#ff99ff" stroke="#ff99ff" cx="264.04" cy="-121" rx="59.59" ry="18"/>
<text text-anchor="middle" x="264.04" y="-117.3" font-family="Times,serif" font-size="14.00">अपि(2.1)</text>
</g>
<!-- Node2_1&#45;&gt;Node1_1 -->
<g id="edge2" class="edge">
<title>Node2_1&#45;&gt;Node1_1</title>
<path fill="none" stroke="black" d="M264.04,-149.27C264.04,-162.58 264.04,-178.19 264.04,-189.82"/>
<polygon fill="black" stroke="black" points="267.54,-149.2 264.04,-139.2 260.54,-149.2 267.54,-149.2"/>
<text text-anchor="middle" x="321.54" y="-160.8" font-family="Times,serif" font-size="14.00">सम्बन्धः</text>
</g>
<!-- Node4_1 -->
<g id="node9" class="node">
<title>Node4_1</title>
<ellipse fill="#ffff00" stroke="#ffff00" cx="63.04" cy="-208" rx="63.09" ry="18"/>
<text text-anchor="middle" x="63.04" y="-204.3" font-family="Times,serif" font-size="14.00">कपि&#45;(4.1)</text>
</g>
<!-- Node4_2 -->
<g id="node10" class="node">
<title>Node4_2</title>
<ellipse fill="#6fffc3" stroke="#6fffc3" cx="116.04" cy="-295" rx="78.79" ry="18"/>
<text text-anchor="middle" x="116.04" y="-291.3" font-family="Times,serif" font-size="14.00">मुख्य(4.2)</text>
</g>
<!-- Node4_1&#45;&gt;Node4_2 -->
<g id="edge4" class="edge">
<title>Node4_1&#45;&gt;Node4_2</title>
<path fill="none" stroke="black" d="M59.04,-236.31C59.09,-244.04 60.33,-252.19 64.04,-259 68.37,-266.93 75.35,-273.4 82.82,-278.52"/>
<polygon fill="black" stroke="black" points="62.54,-236.39 59.61,-226.21 55.55,-236 62.54,-236.39"/>
<text text-anchor="middle" x="174.54" y="-247.8" font-family="Times,serif" font-size="14.00">सप्तमी_तत्पुरुषः</text>
</g>
<!-- Node4_2&#45;&gt;Node6_1 -->
<g id="edge5" class="edge">
<title>Node4_2&#45;&gt;Node6_1</title>
<path fill="none" stroke="black" d="M139.24,-320.28C149.19,-329.5 161.42,-339.36 174.04,-346 195.91,-357.51 221.84,-365.43 244.97,-370.79"/>
<polygon fill="black" stroke="black" points="141.41,-317.52 131.78,-313.11 136.56,-322.57 141.41,-317.52"/>
<text text-anchor="middle" x="238.54" y="-334.8" font-family="Times,serif" font-size="14.00">सम्बोध्यः</text>
</g>
<!-- Node5_1 -->
<g id="node11" class="node">
<title>Node5_1</title>
<ellipse fill="#40e0d0" stroke="#40e0d0" cx="959.04" cy="-208" rx="78.79" ry="18"/>
<text text-anchor="middle" x="959.04" y="-204.3" font-family="Times,serif" font-size="14.00">त्वया(5.1)</text>
</g>
<!-- Node5_1&#45;&gt;Node3_1 -->
<g id="edge6" class="edge">
<title>Node5_1&#45;&gt;Node3_1</title>
<path fill="none" stroke="black" d="M906.48,-226.23C871.99,-236.98 825.72,-250.37 784.04,-259 725.57,-271.1 659.01,-279.82 606.85,-285.53"/>
<polygon fill="black" stroke="black" points="907.85,-229.47 916.34,-223.13 905.75,-222.79 907.85,-229.47"/>
<text text-anchor="middle" x="892.04" y="-247.8" font-family="Times,serif" font-size="14.00">सहार्थः</text>
</g>
<!-- Node7_1 -->
<g id="node12" class="node">
<title>Node7_1</title>
<ellipse fill="#ff99ff" stroke="#ff99ff" cx="307.04" cy="-295" rx="50.89" ry="18"/>
<text text-anchor="middle" x="307.04" y="-291.3" font-family="Times,serif" font-size="14.00">वै(7.1)</text>
</g>
<!-- Node7_1&#45;&gt;Node6_1 -->
<g id="edge7" class="edge">
<title>Node7_1&#45;&gt;Node6_1</title>
<path fill="none" stroke="black" d="M307.04,-323.27C307.04,-336.58 307.04,-352.19 307.04,-363.82"/>
<polygon fill="black" stroke="black" points="310.54,-323.2 307.04,-313.2 303.54,-323.2 310.54,-323.2"/>
<text text-anchor="middle" x="364.54" y="-334.8" font-family="Times,serif" font-size="14.00">सम्बन्धः</text>
</g>
<!-- Node11_1 -->
<g id="node13" class="node">
<title>Node11_1</title>
<ellipse fill="#ffff00" stroke="#ffff00" cx="750.04" cy="-34" rx="68.79" ry="18"/>
<text text-anchor="middle" x="750.04" y="-30.3" font-family="Times,serif" font-size="14.00">महा&#45;(11.1)</text>
</g>
<!-- Node11_2 -->
<g id="node14" class="node">
<title>Node11_2</title>
<ellipse fill="#ffff00" stroke="#ffff00" cx="750.04" cy="-121" rx="68.79" ry="18"/>
<text text-anchor="middle" x="750.04" y="-117.3" font-family="Times,serif" font-size="14.00">गुण&#45;(11.2)</text>
</g>
<!-- Node11_1&#45;&gt;Node11_2 -->
<g id="edge11" class="edge">
<title>Node11_1&#45;&gt;Node11_2</title>
<path fill="none" stroke="black" d="M750.04,-62.27C750.04,-75.58 750.04,-91.19 750.04,-102.82"/>
<polygon fill="black" stroke="black" points="753.54,-62.2 750.04,-52.2 746.54,-62.2 753.54,-62.2"/>
<text text-anchor="middle" x="814.54" y="-73.8" font-family="Times,serif" font-size="14.00">कर्मधारयः</text>
</g>
<!-- Node11_2&#45;&gt;Node11_3 -->
<g id="edge12" class="edge">
<title>Node11_2&#45;&gt;Node11_3</title>
<path fill="none" stroke="black" d="M750.04,-149.27C750.04,-162.58 750.04,-178.19 750.04,-189.82"/>
<polygon fill="black" stroke="black" points="753.54,-149.2 750.04,-139.2 746.54,-149.2 753.54,-149.2"/>
<text text-anchor="middle" x="821.54" y="-160.8" font-family="Times,serif" font-size="14.00">बहुव्रीहिः</text>
</g>
</g>
</svg>
