<?xml version="1.0" encoding="UTF-8" standalone="no"?>
<!DOCTYPE svg PUBLIC "-//W3C//DTD SVG 1.1//EN"
 "http://www.w3.org/Graphics/SVG/1.1/DTD/svg11.dtd">
<!-- Generated by graphviz version 2.43.0 (0)
 -->
<!-- Title: G Pages: 1 -->
<svg width="1198pt" height="392pt"
 viewBox="0.00 0.00 1198.00 392.00" xmlns="http://www.w3.org/2000/svg" xmlns:xlink="http://www.w3.org/1999/xlink">
<g id="graph0" class="graph" transform="scale(1 1) rotate(0) translate(4 388)">
<title>G</title>
<polygon fill="#fffacd" stroke="transparent" points="-4,4 -4,-388 1194,-388 1194,4 -4,4"/>
<g id="clust1" class="cluster">
<title>cluster_1</title>
<polygon fill="#fffacd" stroke="black" points="640,-79 640,-218 1182,-218 1182,-79 640,-79"/>
</g>
<g id="clust2" class="cluster">
<title>cluster_2</title>
<polygon fill="#fffacd" stroke="black" points="8,-166 8,-305 200,-305 200,-166 8,-166"/>
</g>
<g id="clust3" class="cluster">
<title>cluster_3</title>
<polygon fill="#fffacd" stroke="black" points="208,-166 208,-305 430,-305 430,-166 208,-166"/>
</g>
<!-- Node1_1 -->
<g id="node1" class="node">
<title>Node1_1</title>
<ellipse fill="#93db70" stroke="#93db70" cx="1104" cy="-105" rx="69.59" ry="18"/>
<text text-anchor="middle" x="1104" y="-101.3" font-family="Times,serif" font-size="14.00">ताम्(1.1)</text>
</g>
<!-- Node7_1 -->
<g id="node2" class="node">
<title>Node7_1</title>
<ellipse fill="#93db70" stroke="#93db70" cx="857" cy="-192" rx="115.88" ry="18"/>
<text text-anchor="middle" x="857" y="-188.3" font-family="Times,serif" font-size="14.00">सिंहिकाम्(7.1)</text>
</g>
<!-- Node1_1&#45;&gt;Node7_1 -->
<g id="edge1" class="edge">
<title>Node1_1&#45;&gt;Node7_1</title>
<path fill="none" stroke="black" d="M1073.77,-127.83C1058.83,-137.73 1040.13,-148.79 1022,-156 995.88,-166.38 966.14,-173.9 939.18,-179.24"/>
<polygon fill="black" stroke="black" points="1075.8,-130.69 1082.11,-122.18 1071.87,-124.9 1075.8,-130.69"/>
<text text-anchor="middle" x="1107.5" y="-144.8" font-family="Times,serif" font-size="14.00">विशेषणम्</text>
</g>
<!-- Node6_1 -->
<g id="node11" class="node">
<title>Node6_1</title>
<ellipse fill="#ff99ff" stroke="#ff99ff" cx="671" cy="-279" rx="96.68" ry="18"/>
<text text-anchor="middle" x="671" y="-275.3" font-family="Times,serif" font-size="14.00">वीक्ष्य(6.1)</text>
</g>
<!-- Node7_1&#45;&gt;Node6_1 -->
<g id="edge7" class="edge">
<title>Node7_1&#45;&gt;Node6_1</title>
<path fill="none" stroke="black" d="M817.51,-214.51C800.08,-223.7 779.22,-234.29 760,-243 744.72,-249.92 727.65,-256.83 712.57,-262.65"/>
<polygon fill="black" stroke="black" points="819.62,-217.35 826.81,-209.57 816.33,-211.17 819.62,-217.35"/>
<text text-anchor="middle" x="819" y="-231.8" font-family="Times,serif" font-size="14.00">कर्म</text>
</g>
<!-- Node2_1 -->
<g id="node3" class="node">
<title>Node2_1</title>
<ellipse fill="#93db70" stroke="#93db70" cx="938" cy="-105" rx="78.79" ry="18"/>
<text text-anchor="middle" x="938" y="-101.3" font-family="Times,serif" font-size="14.00">हताम्(2.1)</text>
</g>
<!-- Node2_1&#45;&gt;Node7_1 -->
<g id="edge2" class="edge">
<title>Node2_1&#45;&gt;Node7_1</title>
<path fill="none" stroke="black" d="M914.97,-130.17C901.65,-144.15 885.21,-161.39 873.25,-173.95"/>
<polygon fill="black" stroke="black" points="917.63,-132.45 922,-122.79 912.56,-127.62 917.63,-132.45"/>
<text text-anchor="middle" x="960.5" y="-144.8" font-family="Times,serif" font-size="14.00">विशेषणम्</text>
</g>
<!-- Node5_1 -->
<g id="node4" class="node">
<title>Node5_1</title>
<ellipse fill="#93db70" stroke="#93db70" cx="745" cy="-105" rx="96.68" ry="18"/>
<text text-anchor="middle" x="745" y="-101.3" font-family="Times,serif" font-size="14.00">पतिताम्(5.1)</text>
</g>
<!-- Node5_1&#45;&gt;Node7_1 -->
<g id="edge5" class="edge">
<title>Node5_1&#45;&gt;Node7_1</title>
<path fill="none" stroke="black" d="M756.16,-132.37C760.72,-140.76 766.67,-149.54 774,-156 783.27,-164.17 794.72,-170.63 806.13,-175.65"/>
<polygon fill="black" stroke="black" points="759.19,-130.59 751.61,-123.19 752.92,-133.7 759.19,-130.59"/>
<text text-anchor="middle" x="831.5" y="-144.8" font-family="Times,serif" font-size="14.00">विशेषणम्</text>
</g>
<!-- Node9_2 -->
<g id="node5" class="node">
<title>Node9_2</title>
<ellipse fill="#00bfff" stroke="#00bfff" cx="104" cy="-192" rx="87.99" ry="18"/>
<text text-anchor="middle" x="104" y="-188.3" font-family="Times,serif" font-size="14.00">चारीणि(9.2)</text>
</g>
<!-- Node8_1 -->
<g id="node6" class="node">
<title>Node8_1</title>
<ellipse fill="#00bfff" stroke="#00bfff" cx="104" cy="-279" rx="87.99" ry="18"/>
<text text-anchor="middle" x="104" y="-275.3" font-family="Times,serif" font-size="14.00">भूतानि(8.1)</text>
</g>
<!-- Node9_2&#45;&gt;Node8_1 -->
<g id="edge10" class="edge">
<title>Node9_2&#45;&gt;Node8_1</title>
<path fill="none" stroke="black" d="M91,-219.34C88.66,-226.91 87.4,-235.22 89,-243 90.25,-249.09 92.6,-255.42 95.08,-261"/>
<polygon fill="black" stroke="black" points="94.29,-220.52 94.55,-209.93 87.74,-218.05 94.29,-220.52"/>
<text text-anchor="middle" x="146.5" y="-231.8" font-family="Times,serif" font-size="14.00">विशेषणम्</text>
</g>
<!-- Node11_1 -->
<g id="node12" class="node">
<title>Node11_1</title>
<ellipse fill="#ff1975" stroke="#ff1975" cx="319" cy="-366" rx="75.29" ry="18"/>
<text text-anchor="middle" x="319" y="-362.3" font-family="Times,serif" font-size="14.00">ऊचुः(11.1)</text>
</g>
<!-- Node8_1&#45;&gt;Node11_1 -->
<g id="edge8" class="edge">
<title>Node8_1&#45;&gt;Node11_1</title>
<path fill="none" stroke="black" d="M152.04,-298.99C191.18,-314.47 245.67,-336.01 281.62,-350.22"/>
<polygon fill="black" stroke="black" points="153.02,-295.62 142.44,-295.2 150.45,-302.13 153.02,-295.62"/>
<text text-anchor="middle" x="261" y="-318.8" font-family="Times,serif" font-size="14.00">कर्ता</text>
</g>
<!-- Node10_1 -->
<g id="node7" class="node">
<title>Node10_1</title>
<ellipse fill="#93db70" stroke="#93db70" cx="307" cy="-192" rx="65.79" ry="18"/>
<text text-anchor="middle" x="307" y="-188.3" font-family="Times,serif" font-size="14.00">तम्(10.1)</text>
</g>
<!-- Node12_2 -->
<g id="node8" class="node">
<title>Node12_2</title>
<ellipse fill="#93db70" stroke="#93db70" cx="319" cy="-279" rx="102.88" ry="18"/>
<text text-anchor="middle" x="319" y="-275.3" font-family="Times,serif" font-size="14.00">उत्तमम्(12.2)</text>
</g>
<!-- Node10_1&#45;&gt;Node12_2 -->
<g id="edge11" class="edge">
<title>Node10_1&#45;&gt;Node12_2</title>
<path fill="none" stroke="black" d="M310.85,-220.27C312.73,-233.58 314.93,-249.19 316.58,-260.82"/>
<polygon fill="black" stroke="black" points="314.29,-219.61 309.43,-210.2 307.36,-220.59 314.29,-219.61"/>
<text text-anchor="middle" x="371.5" y="-231.8" font-family="Times,serif" font-size="14.00">विशेषणम्</text>
</g>
<!-- Node12_2&#45;&gt;Node11_1 -->
<g id="edge13" class="edge">
<title>Node12_2&#45;&gt;Node11_1</title>
<path fill="none" stroke="black" d="M319,-307.27C319,-320.58 319,-336.19 319,-347.82"/>
<polygon fill="black" stroke="black" points="322.5,-307.2 319,-297.2 315.5,-307.2 322.5,-307.2"/>
<text text-anchor="middle" x="348" y="-318.8" font-family="Times,serif" font-size="14.00">कर्म</text>
</g>
<!-- Node3_1 -->
<g id="node9" class="node">
<title>Node3_1</title>
<ellipse fill="#40e0d0" stroke="#40e0d0" cx="855" cy="-18" rx="87.99" ry="18"/>
<text text-anchor="middle" x="855" y="-14.3" font-family="Times,serif" font-size="14.00">वानरेण(3.1)</text>
</g>
<!-- Node3_1&#45;&gt;Node2_1 -->
<g id="edge3" class="edge">
<title>Node3_1&#45;&gt;Node2_1</title>
<path fill="none" stroke="black" d="M878.65,-43.22C892.4,-57.3 909.37,-74.68 921.64,-87.24"/>
<polygon fill="black" stroke="black" points="880.89,-40.5 871.4,-35.79 875.88,-45.39 880.89,-40.5"/>
<text text-anchor="middle" x="938" y="-57.8" font-family="Times,serif" font-size="14.00">कर्ता</text>
</g>
<!-- Node4_1 -->
<g id="node10" class="node">
<title>Node4_1</title>
<ellipse fill="#ff99ff" stroke="#ff99ff" cx="1021" cy="-18" rx="59.59" ry="18"/>
<text text-anchor="middle" x="1021" y="-14.3" font-family="Times,serif" font-size="14.00">आशु(4.1)</text>
</g>
<!-- Node4_1&#45;&gt;Node2_1 -->
<g id="edge4" class="edge">
<title>Node4_1&#45;&gt;Node2_1</title>
<path fill="none" stroke="black" d="M1001,-43.65C993.97,-51.93 985.86,-61.07 978,-69 971.76,-75.29 964.58,-81.79 958.03,-87.45"/>
<polygon fill="black" stroke="black" points="1003.89,-45.65 1007.62,-35.73 998.52,-41.16 1003.89,-45.65"/>
<text text-anchor="middle" x="1048.5" y="-57.8" font-family="Times,serif" font-size="14.00">सम्बन्धः</text>
</g>
<!-- Node6_1&#45;&gt;Node11_1 -->
<g id="edge6" class="edge">
<title>Node6_1&#45;&gt;Node11_1</title>
<path fill="none" stroke="black" d="M604.66,-296.02C536.52,-312.47 431.91,-337.74 369.98,-352.69"/>
<polygon fill="black" stroke="black" points="605.55,-299.41 614.45,-293.66 603.9,-292.6 605.55,-299.41"/>
<text text-anchor="middle" x="581.5" y="-318.8" font-family="Times,serif" font-size="14.00">पूर्वकालः</text>
</g>
<!-- Node9_1 -->
<g id="node13" class="node">
<title>Node9_1</title>
<ellipse fill="#ffff00" stroke="#ffff00" cx="104" cy="-105" rx="72.29" ry="18"/>
<text text-anchor="middle" x="104" y="-101.3" font-family="Times,serif" font-size="14.00">आकाश&#45;(9.1)</text>
</g>
<!-- Node9_1&#45;&gt;Node9_2 -->
<g id="edge9" class="edge">
<title>Node9_1&#45;&gt;Node9_2</title>
<path fill="none" stroke="black" d="M104,-133.27C104,-146.58 104,-162.19 104,-173.82"/>
<polygon fill="black" stroke="black" points="107.5,-133.2 104,-123.2 100.5,-133.2 107.5,-133.2"/>
<text text-anchor="middle" x="200.5" y="-144.8" font-family="Times,serif" font-size="14.00">उपपद_तत्पुरुषः</text>
</g>
<!-- Node12_1 -->
<g id="node14" class="node">
<title>Node12_1</title>
<ellipse fill="#ffff00" stroke="#ffff00" cx="535" cy="-192" rx="96.68" ry="18"/>
<text text-anchor="middle" x="535" y="-188.3" font-family="Times,serif" font-size="14.00">प्लवगा&#45;(12.1)</text>
</g>
<!-- Node12_1&#45;&gt;Node12_2 -->
<g id="edge12" class="edge">
<title>Node12_1&#45;&gt;Node12_2</title>
<path fill="none" stroke="black" d="M496.1,-213.87C477.34,-223.46 454.33,-234.56 433,-243 413.46,-250.73 391.49,-257.84 372.1,-263.59"/>
<polygon fill="black" stroke="black" points="497.94,-216.86 505.21,-209.15 494.72,-210.64 497.94,-216.86"/>
<text text-anchor="middle" x="578.5" y="-231.8" font-family="Times,serif" font-size="14.00">सप्तमी_तत्पुरुषः</text>
</g>
</g>
</svg>
