<?xml version="1.0" encoding="UTF-8" standalone="no"?>
<!DOCTYPE svg PUBLIC "-//W3C//DTD SVG 1.1//EN"
 "http://www.w3.org/Graphics/SVG/1.1/DTD/svg11.dtd">
<!-- Generated by graphviz version 2.43.0 (0)
 -->
<!-- Title: G Pages: 1 -->
<svg width="1471pt" height="479pt"
 viewBox="0.00 0.00 1470.99 479.00" xmlns="http://www.w3.org/2000/svg" xmlns:xlink="http://www.w3.org/1999/xlink">
<g id="graph0" class="graph" transform="scale(1 1) rotate(0) translate(4 475)">
<title>G</title>
<polygon fill="#fffacd" stroke="transparent" points="-4,4 -4,-475 1466.99,-475 1466.99,4 -4,4"/>
<g id="clust1" class="cluster">
<title>cluster_1</title>
<polygon fill="#fffacd" stroke="black" points="215.99,-253 215.99,-392 1356.99,-392 1356.99,-253 215.99,-253"/>
</g>
<!-- Node1_4 -->
<g id="node1" class="node">
<title>Node1_4</title>
<ellipse fill="#93db70" stroke="#93db70" cx="339.99" cy="-279" rx="115.88" ry="18"/>
<text text-anchor="middle" x="339.99" y="-275.3" font-family="Times,serif" font-size="14.00">आक्रान्ते(1.4)</text>
</g>
<!-- Node10_2 -->
<g id="node2" class="node">
<title>Node10_2</title>
<ellipse fill="#c6e2eb" stroke="#c6e2eb" cx="628.99" cy="-366" rx="100.98" ry="18"/>
<text text-anchor="middle" x="628.99" y="-362.3" font-family="Times,serif" font-size="14.00">(मार्गे)(10.2)</text>
</g>
<!-- Node1_4&#45;&gt;Node10_2 -->
<g id="edge4" class="edge">
<title>Node1_4&#45;&gt;Node10_2</title>
<path fill="none" stroke="black" d="M376.73,-301.72C394.93,-311.65 417.55,-322.78 438.99,-330 473.8,-341.72 513.59,-349.82 547.73,-355.25"/>
<polygon fill="black" stroke="black" points="378.09,-298.47 367.65,-296.67 374.69,-304.59 378.09,-298.47"/>
<text text-anchor="middle" x="496.49" y="-318.8" font-family="Times,serif" font-size="14.00">विशेषणम्</text>
</g>
<!-- Node9_1 -->
<g id="node17" class="node">
<title>Node9_1</title>
<ellipse fill="#ff1975" stroke="#ff1975" cx="150.99" cy="-453" rx="76.09" ry="18"/>
<text text-anchor="middle" x="150.99" y="-449.3" font-family="Times,serif" font-size="14.00">(जगाम)(9.1)</text>
</g>
<!-- Node10_2&#45;&gt;Node9_1 -->
<g id="edge17" class="edge">
<title>Node10_2&#45;&gt;Node9_1</title>
<path fill="none" stroke="black" d="M550.34,-380.99C454.73,-397.99 295.54,-426.3 209.87,-441.53"/>
<polygon fill="black" stroke="black" points="551.02,-384.42 560.25,-379.22 549.79,-377.53 551.02,-384.42"/>
<text text-anchor="middle" x="496.49" y="-405.8" font-family="Times,serif" font-size="14.00">देशाधिकरणम्</text>
</g>
<!-- Node2_3 -->
<g id="node3" class="node">
<title>Node2_3</title>
<ellipse fill="#c6e2eb" stroke="#c6e2eb" cx="707.99" cy="-279" rx="59.59" ry="18"/>
<text text-anchor="middle" x="707.99" y="-275.3" font-family="Times,serif" font-size="14.00">पथे(2.3)</text>
</g>
<!-- Node2_3&#45;&gt;Node10_2 -->
<g id="edge7" class="edge">
<title>Node2_3&#45;&gt;Node10_2</title>
<path fill="none" stroke="black" d="M696.84,-306.25C692.62,-314.41 687.28,-323.07 680.99,-330 674.56,-337.09 666.4,-343.45 658.47,-348.73"/>
<polygon fill="black" stroke="black" points="700.09,-307.57 701.28,-297.04 693.79,-304.53 700.09,-307.57"/>
<text text-anchor="middle" x="748.49" y="-318.8" font-family="Times,serif" font-size="14.00">विशेषणम्</text>
</g>
<!-- Node3_1 -->
<g id="node4" class="node">
<title>Node3_1</title>
<ellipse fill="#c6e2eb" stroke="#c6e2eb" cx="854.99" cy="-279" rx="69.59" ry="18"/>
<text text-anchor="middle" x="854.99" y="-275.3" font-family="Times,serif" font-size="14.00">शिवे(3.1)</text>
</g>
<!-- Node3_1&#45;&gt;Node10_2 -->
<g id="edge8" class="edge">
<title>Node3_1&#45;&gt;Node10_2</title>
<path fill="none" stroke="black" d="M837.77,-305.2C830.27,-314.35 820.73,-323.93 809.99,-330 783.24,-345.12 751.1,-353.82 721.38,-358.79"/>
<polygon fill="black" stroke="black" points="840.74,-307.08 844.06,-297.02 835.19,-302.81 840.74,-307.08"/>
<text text-anchor="middle" x="885.49" y="-318.8" font-family="Times,serif" font-size="14.00">विशेषणम्</text>
</g>
<!-- Node4_1 -->
<g id="node5" class="node">
<title>Node4_1</title>
<ellipse fill="#c6e2eb" stroke="#c6e2eb" cx="1029.99" cy="-279" rx="87.99" ry="18"/>
<text text-anchor="middle" x="1029.99" y="-275.3" font-family="Times,serif" font-size="14.00">विताने(4.1)</text>
</g>
<!-- Node4_1&#45;&gt;Node10_2 -->
<g id="edge9" class="edge">
<title>Node4_1&#45;&gt;Node10_2</title>
<path fill="none" stroke="black" d="M999.98,-302.42C984.86,-312.55 965.78,-323.65 946.99,-330 906.74,-343.6 801.01,-353.45 722.45,-359.17"/>
<polygon fill="black" stroke="black" points="1002.15,-305.17 1008.4,-296.61 998.18,-299.41 1002.15,-305.17"/>
<text text-anchor="middle" x="1035.49" y="-318.8" font-family="Times,serif" font-size="14.00">विशेषणम्</text>
</g>
<!-- Node6_1 -->
<g id="node6" class="node">
<title>Node6_1</title>
<ellipse fill="#c6e2eb" stroke="#c6e2eb" cx="551.99" cy="-279" rx="78.79" ry="18"/>
<text text-anchor="middle" x="551.99" y="-275.3" font-family="Times,serif" font-size="14.00">विमले(6.1)</text>
</g>
<!-- Node6_1&#45;&gt;Node10_2 -->
<g id="edge12" class="edge">
<title>Node6_1&#45;&gt;Node10_2</title>
<path fill="none" stroke="black" d="M555.55,-307.31C557.61,-315.24 560.86,-323.51 565.99,-330 572.19,-337.86 580.67,-344.22 589.4,-349.26"/>
<polygon fill="black" stroke="black" points="558.93,-306.34 553.47,-297.26 552.07,-307.76 558.93,-306.34"/>
<text text-anchor="middle" x="623.49" y="-318.8" font-family="Times,serif" font-size="14.00">विशेषणम्</text>
</g>
<!-- Node7_2 -->
<g id="node7" class="node">
<title>Node7_2</title>
<ellipse fill="#00bfff" stroke="#00bfff" cx="1241.99" cy="-279" rx="106.68" ry="18"/>
<text text-anchor="middle" x="1241.99" y="-275.3" font-family="Times,serif" font-size="14.00">निर्मिते(7.2)</text>
</g>
<!-- Node7_2&#45;&gt;Node10_2 -->
<g id="edge14" class="edge">
<title>Node7_2&#45;&gt;Node10_2</title>
<path fill="none" stroke="black" d="M1195.06,-299.63C1167.08,-310.46 1130.58,-323.07 1096.99,-330 972.31,-355.71 825.48,-363.07 729.99,-364.91"/>
<polygon fill="black" stroke="black" points="1196.55,-302.81 1204.58,-295.89 1193.99,-296.29 1196.55,-302.81"/>
<text text-anchor="middle" x="1206.49" y="-318.8" font-family="Times,serif" font-size="14.00">विशेषणम्</text>
</g>
<!-- Node1_1 -->
<g id="node8" class="node">
<title>Node1_1</title>
<ellipse fill="#ffff00" stroke="#ffff00" cx="339.99" cy="-18" rx="63.09" ry="18"/>
<text text-anchor="middle" x="339.99" y="-14.3" font-family="Times,serif" font-size="14.00">देव&#45;(1.1)</text>
</g>
<!-- Node1_2 -->
<g id="node9" class="node">
<title>Node1_2</title>
<ellipse fill="#ffff00" stroke="#ffff00" cx="339.99" cy="-105" rx="63.09" ry="18"/>
<text text-anchor="middle" x="339.99" y="-101.3" font-family="Times,serif" font-size="14.00">राज&#45;(1.2)</text>
</g>
<!-- Node1_1&#45;&gt;Node1_2 -->
<g id="edge1" class="edge">
<title>Node1_1&#45;&gt;Node1_2</title>
<path fill="none" stroke="black" d="M339.99,-46.27C339.99,-59.58 339.99,-75.19 339.99,-86.82"/>
<polygon fill="black" stroke="black" points="343.49,-46.2 339.99,-36.2 336.49,-46.2 343.49,-46.2"/>
<text text-anchor="middle" x="443.49" y="-57.8" font-family="Times,serif" font-size="14.00">षष्ठी_तत्पुरुषः</text>
</g>
<!-- Node1_3 -->
<g id="node10" class="node">
<title>Node1_3</title>
<ellipse fill="#ffff00" stroke="#ffff00" cx="339.99" cy="-192" rx="53.89" ry="18"/>
<text text-anchor="middle" x="339.99" y="-188.3" font-family="Times,serif" font-size="14.00">गज&#45;(1.3)</text>
</g>
<!-- Node1_2&#45;&gt;Node1_3 -->
<g id="edge2" class="edge">
<title>Node1_2&#45;&gt;Node1_3</title>
<path fill="none" stroke="black" d="M339.99,-133.27C339.99,-146.58 339.99,-162.19 339.99,-173.82"/>
<polygon fill="black" stroke="black" points="343.49,-133.2 339.99,-123.2 336.49,-133.2 343.49,-133.2"/>
<text text-anchor="middle" x="443.49" y="-144.8" font-family="Times,serif" font-size="14.00">षष्ठी_तत्पुरुषः</text>
</g>
<!-- Node1_3&#45;&gt;Node1_4 -->
<g id="edge3" class="edge">
<title>Node1_3&#45;&gt;Node1_4</title>
<path fill="none" stroke="black" d="M339.99,-220.27C339.99,-233.58 339.99,-249.19 339.99,-260.82"/>
<polygon fill="black" stroke="black" points="343.49,-220.2 339.99,-210.2 336.49,-220.2 343.49,-220.2"/>
<text text-anchor="middle" x="450.49" y="-231.8" font-family="Times,serif" font-size="14.00">तृतीया_तत्पुरुषः</text>
</g>
<!-- Node2_1 -->
<g id="node11" class="node">
<title>Node2_1</title>
<ellipse fill="#ffff00" stroke="#ffff00" cx="707.99" cy="-105" rx="90.98" ry="18"/>
<text text-anchor="middle" x="707.99" y="-101.3" font-family="Times,serif" font-size="14.00">चन्द्र&#45;(2.1)</text>
</g>
<!-- Node2_2 -->
<g id="node12" class="node">
<title>Node2_2</title>
<ellipse fill="#ffff00" stroke="#ffff00" cx="707.99" cy="-192" rx="81.49" ry="18"/>
<text text-anchor="middle" x="707.99" y="-188.3" font-family="Times,serif" font-size="14.00">सूर्य&#45;(2.2)</text>
</g>
<!-- Node2_1&#45;&gt;Node2_2 -->
<g id="edge5" class="edge">
<title>Node2_1&#45;&gt;Node2_2</title>
<path fill="none" stroke="black" d="M707.99,-133.27C707.99,-146.58 707.99,-162.19 707.99,-173.82"/>
<polygon fill="black" stroke="black" points="711.49,-133.2 707.99,-123.2 704.49,-133.2 711.49,-133.2"/>
<text text-anchor="middle" x="772.49" y="-144.8" font-family="Times,serif" font-size="14.00">द्वन्द्वः</text>
</g>
<!-- Node2_2&#45;&gt;Node2_3 -->
<g id="edge6" class="edge">
<title>Node2_2&#45;&gt;Node2_3</title>
<path fill="none" stroke="black" d="M707.99,-220.27C707.99,-233.58 707.99,-249.19 707.99,-260.82"/>
<polygon fill="black" stroke="black" points="711.49,-220.2 707.99,-210.2 704.49,-220.2 711.49,-220.2"/>
<text text-anchor="middle" x="811.49" y="-231.8" font-family="Times,serif" font-size="14.00">षष्ठी_तत्पुरुषः</text>
</g>
<!-- Node5_1 -->
<g id="node13" class="node">
<title>Node5_1</title>
<ellipse fill="#ffff00" stroke="#ffff00" cx="1029.99" cy="-105" rx="63.09" ry="18"/>
<text text-anchor="middle" x="1029.99" y="-101.3" font-family="Times,serif" font-size="14.00">जीव&#45;(5.1)</text>
</g>
<!-- Node5_2 -->
<g id="node14" class="node">
<title>Node5_2</title>
<ellipse fill="#87ceeb" stroke="#87ceeb" cx="1029.99" cy="-192" rx="87.99" ry="18"/>
<text text-anchor="middle" x="1029.99" y="-188.3" font-family="Times,serif" font-size="14.00">लोकस्य(5.2)</text>
</g>
<!-- Node5_1&#45;&gt;Node5_2 -->
<g id="edge10" class="edge">
<title>Node5_1&#45;&gt;Node5_2</title>
<path fill="none" stroke="black" d="M1029.99,-133.27C1029.99,-146.58 1029.99,-162.19 1029.99,-173.82"/>
<polygon fill="black" stroke="black" points="1033.49,-133.2 1029.99,-123.2 1026.49,-133.2 1033.49,-133.2"/>
<text text-anchor="middle" x="1133.49" y="-144.8" font-family="Times,serif" font-size="14.00">षष्ठी_तत्पुरुषः</text>
</g>
<!-- Node5_2&#45;&gt;Node4_1 -->
<g id="edge11" class="edge">
<title>Node5_2&#45;&gt;Node4_1</title>
<path fill="none" stroke="black" d="M1029.99,-220.27C1029.99,-233.58 1029.99,-249.19 1029.99,-260.82"/>
<polygon fill="black" stroke="black" points="1033.49,-220.2 1029.99,-210.2 1026.49,-220.2 1033.49,-220.2"/>
<text text-anchor="middle" x="1122.99" y="-231.8" font-family="Times,serif" font-size="14.00">षष्ठीसम्बन्धः</text>
</g>
<!-- Node7_1 -->
<g id="node15" class="node">
<title>Node7_1</title>
<ellipse fill="#ffff00" stroke="#ffff00" cx="1241.99" cy="-192" rx="90.98" ry="18"/>
<text text-anchor="middle" x="1241.99" y="-188.3" font-family="Times,serif" font-size="14.00">ब्रह्म&#45;(7.1)</text>
</g>
<!-- Node7_1&#45;&gt;Node7_2 -->
<g id="edge13" class="edge">
<title>Node7_1&#45;&gt;Node7_2</title>
<path fill="none" stroke="black" d="M1241.99,-220.27C1241.99,-233.58 1241.99,-249.19 1241.99,-260.82"/>
<polygon fill="black" stroke="black" points="1245.49,-220.2 1241.99,-210.2 1238.49,-220.2 1245.49,-220.2"/>
<text text-anchor="middle" x="1352.49" y="-231.8" font-family="Times,serif" font-size="14.00">तृतीया_तत्पुरुषः</text>
</g>
<!-- Node8_1 -->
<g id="node16" class="node">
<title>Node8_1</title>
<ellipse fill="#00bfff" stroke="#00bfff" cx="103.99" cy="-366" rx="103.98" ry="18"/>
<text text-anchor="middle" x="103.99" y="-362.3" font-family="Times,serif" font-size="14.00">(मारुतिः)(8.1)</text>
</g>
<!-- Node8_1&#45;&gt;Node9_1 -->
<g id="edge15" class="edge">
<title>Node8_1&#45;&gt;Node9_1</title>
<path fill="none" stroke="black" d="M118.45,-393.15C126,-406.81 135.03,-423.13 141.65,-435.11"/>
<polygon fill="black" stroke="black" points="121.4,-391.26 113.5,-384.2 115.28,-394.65 121.4,-391.26"/>
<text text-anchor="middle" x="166.99" y="-405.8" font-family="Times,serif" font-size="14.00">कर्ता</text>
</g>
<!-- Node10_1 -->
<g id="node18" class="node">
<title>Node10_1</title>
<ellipse fill="#ffff00" stroke="#ffff00" cx="120.99" cy="-279" rx="85.29" ry="18"/>
<text text-anchor="middle" x="120.99" y="-275.3" font-family="Times,serif" font-size="14.00">(वायु)&#45;(10.1)</text>
</g>
<!-- Node10_1&#45;&gt;Node10_2 -->
<g id="edge16" class="edge">
<title>Node10_1&#45;&gt;Node10_2</title>
<path fill="none" stroke="black" d="M147.37,-303.04C160.49,-313.14 177.12,-324.03 193.99,-330 253.62,-351.12 420.57,-359.58 529.44,-362.91"/>
<polygon fill="black" stroke="black" points="149.29,-300.09 139.29,-296.58 144.92,-305.56 149.29,-300.09"/>
<text text-anchor="middle" x="297.49" y="-318.8" font-family="Times,serif" font-size="14.00">षष्ठी_तत्पुरुषः</text>
</g>
</g>
</svg>
