<svg xmlns="http://www.w3.org/2000/svg" xmlns:xlink="http://www.w3.org/1999/xlink" width="1460pt" height="428" viewBox="0 0 1460 321"><g id="graph0" class="graph" transform="scale(1 1) rotate(0) translate(4 317)"><title>G</title><polygon fill="#fffacd" stroke="transparent" points="-4 4 -4 -317 1456 -317 1456 4 -4 4"/><g id="clust1" class="cluster"><title>cluster_1</title><polygon fill="#fffacd" stroke="#000" points="8 -8 8 -147 256 -147 256 -8 8 -8"/></g><g id="clust2" class="cluster"><title>cluster_2</title><polygon fill="#fffacd" stroke="#000" points="439 -95 439 -234 1272 -234 1272 -95 439 -95"/></g><g id="node1" class="node"><title>Node3_1</title><ellipse cx="132" cy="-34" fill="#93db70" stroke="#93db70" rx="59.59" ry="18"/><text x="132" y="-30.3" font-family="Times,serif" font-size="14" text-anchor="middle">तम्(3.1)</text></g><g id="node2" class="node"><title>Node1_1</title><ellipse cx="132" cy="-121" fill="#93db70" stroke="#93db70" rx="115.88" ry="18"/><text x="132" y="-117.3" font-family="Times,serif" font-size="14" text-anchor="middle">प्लवमानम्(1.1)</text></g><g id="edge3" class="edge"><title>Node3_1-&gt;Node1_1</title><path fill="none" stroke="#000" d="M132,-62.27C132,-75.58 132,-91.19 132,-102.82"/><polygon fill="#000" stroke="#000" points="135.5 -62.2 132 -52.2 128.5 -62.2 135.5 -62.2"/><text x="189.5" y="-73.8" font-family="Times,serif" font-size="14" text-anchor="middle">विशेषणम्</text></g><g id="node8" class="node"><title>Node4_1</title><ellipse cx="316" cy="-208" fill="#f9f" stroke="#f9f" rx="106.68" ry="18"/><text x="316" y="-204.3" font-family="Times,serif" font-size="14" text-anchor="middle">दृष्ट्वा(4.1)</text></g><g id="edge1" class="edge"><title>Node1_1-&gt;Node4_1</title><path fill="none" stroke="#000" d="M176.23,-142.43C208.39,-157.29 251.33,-177.12 281.09,-190.87"/><polygon fill="#000" stroke="#000" points="177.59 -139.2 167.04 -138.19 174.65 -145.56 177.59 -139.2"/><text x="265" y="-160.8" font-family="Times,serif" font-size="14" text-anchor="middle">कर्म</text></g><g id="node3" class="node"><title>Node7_1</title><ellipse cx="1167" cy="-121" fill="#00bfff" stroke="#00bfff" rx="96.68" ry="18"/><text x="1167" y="-117.3" font-family="Times,serif" font-size="14" text-anchor="middle">राक्षसी(7.1)</text></g><g id="node4" class="node"><title>Node5_1</title><ellipse cx="879" cy="-208" fill="#00bfff" stroke="#00bfff" rx="96.68" ry="18"/><text x="879" y="-204.3" font-family="Times,serif" font-size="14" text-anchor="middle">सिंहिका(5.1)</text></g><g id="edge7" class="edge"><title>Node7_1-&gt;Node5_1</title><path fill="none" stroke="#000" d="M1127.04,-142.67C1106.29,-152.71 1080.27,-164.25 1056,-172 1022.73,-182.63 984.86,-190.64 952.72,-196.29"/><polygon fill="#000" stroke="#000" points="1128.74 -145.73 1136.17 -138.18 1125.65 -139.45 1128.74 -145.73"/><text x="1150.5" y="-160.8" font-family="Times,serif" font-size="14" text-anchor="middle">विशेषणम्</text></g><g id="node10" class="node"><title>Node9_1</title><ellipse cx="545" cy="-295" fill="#ff1975" stroke="#ff1975" rx="124.58" ry="18"/><text x="545" y="-291.3" font-family="Times,serif" font-size="14" text-anchor="middle">चिन्तयामास(9.1)</text></g><g id="edge5" class="edge"><title>Node5_1-&gt;Node9_1</title><path fill="none" stroke="#000" d="M814.32,-225.46C753.33,-240.98 662.72,-264.04 603.75,-279.05"/><polygon fill="#000" stroke="#000" points="815.39 -228.8 824.22 -222.94 813.67 -222.02 815.39 -228.8"/><text x="767" y="-247.8" font-family="Times,serif" font-size="14" text-anchor="middle">कर्ता</text></g><g id="node5" class="node"><title>Node8_1</title><ellipse cx="983" cy="-121" fill="#00bfff" stroke="#00bfff" rx="69.59" ry="18"/><text x="983" y="-117.3" font-family="Times,serif" font-size="14" text-anchor="middle">मनसा(8.1)</text></g><g id="edge8" class="edge"><title>Node8_1-&gt;Node5_1</title><path fill="none" stroke="#000" d="M954.76,-145.08C937.25,-159.39 915.15,-177.46 899.35,-190.37"/><polygon fill="#000" stroke="#000" points="957.42 -147.43 962.95 -138.39 952.99 -142.01 957.42 -147.43"/><text x="994.5" y="-160.8" font-family="Times,serif" font-size="14" text-anchor="middle">विशेषणम्</text></g><g id="node6" class="node"><title>Node10_1</title><ellipse cx="774" cy="-121" fill="#00bfff" stroke="#00bfff" rx="121.58" ry="18"/><text x="774" y="-117.3" font-family="Times,serif" font-size="14" text-anchor="middle">प्रवृद्धा(10.1)</text></g><g id="edge9" class="edge"><title>Node10_1-&gt;Node5_1</title><path fill="none" stroke="#000" d="M786.26,-147.91C791.19,-156.37 797.5,-165.31 805,-172 814.01,-180.04 825.2,-186.61 836.12,-191.78"/><polygon fill="#000" stroke="#000" points="789.29 -146.16 781.45 -139.03 783.14 -149.49 789.29 -146.16"/><text x="862.5" y="-160.8" font-family="Times,serif" font-size="14" text-anchor="middle">विशेषणम्</text></g><g id="node7" class="node"><title>Node11_2</title><ellipse cx="541" cy="-121" fill="#00bfff" stroke="#00bfff" rx="93.68" ry="18"/><text x="541" y="-117.3" font-family="Times,serif" font-size="14" text-anchor="middle">रूपिणी(11.2)</text></g><g id="edge11" class="edge"><title>Node11_2-&gt;Node5_1</title><path fill="none" stroke="#000" d="M586.08,-141.57C611.26,-151.86 643.43,-163.97 673,-172 714.48,-183.27 761.7,-191.6 800.46,-197.31"/><polygon fill="#000" stroke="#000" points="587.37 -138.31 576.79 -137.72 584.7 -144.78 587.37 -138.31"/><text x="730.5" y="-160.8" font-family="Times,serif" font-size="14" text-anchor="middle">विशेषणम्</text></g><g id="edge4" class="edge"><title>Node4_1-&gt;Node9_1</title><path fill="none" stroke="#000" d="M367.45,-228.1C408.01,-243.15 463.92,-263.91 502.1,-278.08"/><polygon fill="#000" stroke="#000" points="368.6 -224.79 358 -224.59 366.16 -231.35 368.6 -224.79"/><text x="508.5" y="-247.8" font-family="Times,serif" font-size="14" text-anchor="middle">पूर्वकालः</text></g><g id="node9" class="node"><title>Node2_1</title><ellipse cx="316" cy="-121" fill="#f9f" stroke="#f9f" rx="50.89" ry="18"/><text x="316" y="-117.3" font-family="Times,serif" font-size="14" text-anchor="middle">तु(2.1)</text></g><g id="edge2" class="edge"><title>Node2_1-&gt;Node4_1</title><path fill="none" stroke="#000" d="M316,-149.27C316,-162.58 316,-178.19 316,-189.82"/><polygon fill="#000" stroke="#000" points="319.5 -149.2 316 -139.2 312.5 -149.2 319.5 -149.2"/><text x="373.5" y="-160.8" font-family="Times,serif" font-size="14" text-anchor="middle">सम्बन्धः</text></g><g id="node11" class="node"><title>Node6_1</title><ellipse cx="1342" cy="-121" fill="#00bfff" stroke="#00bfff" rx="59.59" ry="18"/><text x="1342" y="-117.3" font-family="Times,serif" font-size="14" text-anchor="middle">नाम(6.1)</text></g><g id="edge6" class="edge"><title>Node6_1-&gt;Node5_1</title><path fill="none" stroke="#000" d="M1301.96,-140.55C1276.69,-151.45 1243.06,-164.53 1212,-172 1132.73,-191.06 1040.37,-199.74 973.05,-203.69"/><polygon fill="#000" stroke="#000" points="1303.46 -143.71 1311.21 -136.49 1300.65 -137.3 1303.46 -143.71"/><text x="1355.5" y="-160.8" font-family="Times,serif" font-size="14" text-anchor="middle">संज्ञा_द्योतकः</text></g><g id="node12" class="node"><title>Node11_1</title><ellipse cx="541" cy="-34" fill="#ff0" stroke="#ff0" rx="68.79" ry="18"/><text x="541" y="-30.3" font-family="Times,serif" font-size="14" text-anchor="middle">काम-(11.1)</text></g><g id="edge10" class="edge"><title>Node11_1-&gt;Node11_2</title><path fill="none" stroke="#000" d="M541,-62.27C541,-75.58 541,-91.19 541,-102.82"/><polygon fill="#000" stroke="#000" points="544.5 -62.2 541 -52.2 537.5 -62.2 544.5 -62.2"/><text x="612.5" y="-73.8" font-family="Times,serif" font-size="14" text-anchor="middle">बहुव्रीहिः</text></g></g></svg>