<?xml version="1.0" encoding="UTF-8" standalone="no"?>
<!DOCTYPE svg PUBLIC "-//W3C//DTD SVG 1.1//EN"
 "http://www.w3.org/Graphics/SVG/1.1/DTD/svg11.dtd">
<!-- Generated by graphviz version 2.43.0 (0)
 -->
<!-- Title: G Pages: 1 -->
<svg width="1904pt" height="305pt"
 viewBox="0.00 0.00 1903.59 305.00" xmlns="http://www.w3.org/2000/svg" xmlns:xlink="http://www.w3.org/1999/xlink">
<g id="graph0" class="graph" transform="scale(1 1) rotate(0) translate(4 301)">
<title>G</title>
<polygon fill="#fffacd" stroke="transparent" points="-4,4 -4,-301 1899.59,-301 1899.59,4 -4,4"/>
<g id="clust1" class="cluster">
<title>cluster_1</title>
<polygon fill="#fffacd" stroke="black" points="894.59,-79 894.59,-218 1355.59,-218 1355.59,-79 894.59,-79"/>
</g>
<!-- Node1_1 -->
<g id="node1" class="node">
<title>Node1_1</title>
<ellipse fill="#00bfff" stroke="#00bfff" cx="1240.59" cy="-105" rx="106.68" ry="18"/>
<text text-anchor="middle" x="1240.59" y="-101.3" font-family="Times,serif" font-size="14.00">प्रविशन्(1.1)</text>
</g>
<!-- Node14_1 -->
<g id="node2" class="node">
<title>Node14_1</title>
<ellipse fill="#00bfff" stroke="#00bfff" cx="997.59" cy="-192" rx="81.79" ry="18"/>
<text text-anchor="middle" x="997.59" y="-188.3" font-family="Times,serif" font-size="14.00">(कपिः)(14.1)</text>
</g>
<!-- Node1_1&#45;&gt;Node14_1 -->
<g id="edge1" class="edge">
<title>Node1_1&#45;&gt;Node14_1</title>
<path fill="none" stroke="black" d="M1196.55,-126.24C1174.59,-135.93 1147.47,-147.29 1122.59,-156 1098.98,-164.27 1072.35,-171.95 1049.75,-177.99"/>
<polygon fill="black" stroke="black" points="1198.23,-129.33 1205.94,-122.07 1195.38,-122.93 1198.23,-129.33"/>
<text text-anchor="middle" x="1216.09" y="-144.8" font-family="Times,serif" font-size="14.00">विशेषणम्</text>
</g>
<!-- Node10_1 -->
<g id="node11" class="node">
<title>Node10_1</title>
<ellipse fill="#ff1975" stroke="#ff1975" cx="583.59" cy="-279" rx="84.49" ry="18"/>
<text text-anchor="middle" x="583.59" y="-275.3" font-family="Times,serif" font-size="14.00">आभाति(10.1)</text>
</g>
<!-- Node14_1&#45;&gt;Node10_1 -->
<g id="edge13" class="edge">
<title>Node14_1&#45;&gt;Node10_1</title>
<path fill="none" stroke="black" d="M972.6,-216.4C960.52,-226.32 945.26,-236.97 929.59,-243 883.03,-260.92 752.41,-270.29 665.65,-274.68"/>
<polygon fill="black" stroke="black" points="975.1,-218.87 980.43,-209.71 970.55,-213.55 975.1,-218.87"/>
<text text-anchor="middle" x="991.59" y="-231.8" font-family="Times,serif" font-size="14.00">कर्ता</text>
</g>
<!-- Node3_1 -->
<g id="node3" class="node">
<title>Node3_1</title>
<ellipse fill="#00bfff" stroke="#00bfff" cx="1009.59" cy="-105" rx="106.68" ry="18"/>
<text text-anchor="middle" x="1009.59" y="-101.3" font-family="Times,serif" font-size="14.00">निष्पतन्(3.1)</text>
</g>
<!-- Node3_1&#45;&gt;Node14_1 -->
<g id="edge4" class="edge">
<title>Node3_1&#45;&gt;Node14_1</title>
<path fill="none" stroke="black" d="M1005.74,-133.27C1003.86,-146.58 1001.66,-162.19 1000.02,-173.82"/>
<polygon fill="black" stroke="black" points="1009.23,-133.59 1007.16,-123.2 1002.3,-132.61 1009.23,-133.59"/>
<text text-anchor="middle" x="1061.09" y="-144.8" font-family="Times,serif" font-size="14.00">विशेषणम्</text>
</g>
<!-- Node2_1 -->
<g id="node4" class="node">
<title>Node2_1</title>
<ellipse fill="#ffff00" stroke="#ffff00" cx="1418.59" cy="-18" rx="72.29" ry="18"/>
<text text-anchor="middle" x="1418.59" y="-14.3" font-family="Times,serif" font-size="14.00">अभ्र&#45;(2.1)</text>
</g>
<!-- Node6_2 -->
<g id="node5" class="node">
<title>Node6_2</title>
<ellipse fill="lightgrey" stroke="black" cx="1418.59" cy="-105" rx="27" ry="18"/>
</g>
<!-- Node2_1&#45;&gt;Node6_2 -->
<g id="edge2" class="edge">
<title>Node2_1&#45;&gt;Node6_2</title>
<path fill="none" stroke="black" d="M1418.59,-46.27C1418.59,-59.58 1418.59,-75.19 1418.59,-86.82"/>
<polygon fill="black" stroke="black" points="1422.09,-46.2 1418.59,-36.2 1415.09,-46.2 1422.09,-46.2"/>
<text text-anchor="middle" x="1522.09" y="-57.8" font-family="Times,serif" font-size="14.00">षष्ठी_तत्पुरुषः</text>
</g>
<!-- Node2_2 -->
<g id="node6" class="node">
<title>Node2_2</title>
<ellipse fill="#93db70" stroke="#93db70" cx="1240.59" cy="-18" rx="87.99" ry="18"/>
<text text-anchor="middle" x="1240.59" y="-14.3" font-family="Times,serif" font-size="14.00">जालानि(2.2)</text>
</g>
<!-- Node2_2&#45;&gt;Node1_1 -->
<g id="edge3" class="edge">
<title>Node2_2&#45;&gt;Node1_1</title>
<path fill="none" stroke="black" d="M1240.59,-46.27C1240.59,-59.58 1240.59,-75.19 1240.59,-86.82"/>
<polygon fill="black" stroke="black" points="1244.09,-46.2 1240.59,-36.2 1237.09,-46.2 1244.09,-46.2"/>
<text text-anchor="middle" x="1269.59" y="-57.8" font-family="Times,serif" font-size="14.00">कर्म</text>
</g>
<!-- Node4_1 -->
<g id="node7" class="node">
<title>Node4_1</title>
<ellipse fill="#ff99ff" stroke="#ff99ff" cx="1589.59" cy="-18" rx="41.69" ry="18"/>
<text text-anchor="middle" x="1589.59" y="-14.3" font-family="Times,serif" font-size="14.00">च(4.1)</text>
</g>
<!-- Node5_1 -->
<g id="node8" class="node">
<title>Node5_1</title>
<ellipse fill="#ff99ff" stroke="#ff99ff" cx="1737.59" cy="-18" rx="69.59" ry="18"/>
<text text-anchor="middle" x="1737.59" y="-14.3" font-family="Times,serif" font-size="14.00">पुनः(5.1)</text>
</g>
<!-- Node6_1 -->
<g id="node9" class="node">
<title>Node6_1</title>
<ellipse fill="#ff99ff" stroke="#ff99ff" cx="1747.59" cy="-105" rx="69.59" ry="18"/>
<text text-anchor="middle" x="1747.59" y="-101.3" font-family="Times,serif" font-size="14.00">पुनः(6.1)</text>
</g>
<!-- Node5_1&#45;&gt;Node6_1 -->
<g id="edge5" class="edge">
<title>Node5_1&#45;&gt;Node6_1</title>
<path fill="none" stroke="black" d="M1701.93,-41.14C1693.41,-49.3 1688.15,-59 1693.59,-69 1698.13,-77.34 1705.6,-84 1713.57,-89.18"/>
<polygon fill="black" stroke="black" points="1704.24,-43.77 1709.69,-34.68 1699.77,-38.39 1704.24,-43.77"/>
<text text-anchor="middle" x="1736.59" y="-57.8" font-family="Times,serif" font-size="14.00">वीप्सा</text>
</g>
<!-- Node6_1&#45;&gt;Node5_1 -->
<g id="edge6" class="edge">
<title>Node6_1&#45;&gt;Node5_1</title>
<path fill="none" stroke="black" d="M1774.84,-79.69C1780.51,-71.75 1783.68,-62.73 1779.59,-54 1776.13,-46.61 1770.25,-40.23 1763.98,-35.02"/>
<polygon fill="black" stroke="black" points="1772.01,-77.62 1768.23,-87.51 1777.36,-82.14 1772.01,-77.62"/>
<text text-anchor="middle" x="1838.09" y="-57.8" font-family="Times,serif" font-size="14.00">सम्बन्धः</text>
</g>
<!-- Node7_1 -->
<g id="node10" class="node">
<title>Node7_1</title>
<ellipse fill="#c6e2eb" stroke="#c6e2eb" cx="106.59" cy="-192" rx="106.68" ry="18"/>
<text text-anchor="middle" x="106.59" y="-188.3" font-family="Times,serif" font-size="14.00">प्रावृषि(7.1)</text>
</g>
<!-- Node7_1&#45;&gt;Node10_1 -->
<g id="edge7" class="edge">
<title>Node7_1&#45;&gt;Node10_1</title>
<path fill="none" stroke="black" d="M149.95,-213.18C174.55,-223.77 206.2,-235.96 235.59,-243 324.46,-264.28 429.12,-272.63 500.28,-275.91"/>
<polygon fill="black" stroke="black" points="151.11,-209.87 140.55,-209.07 148.31,-216.29 151.11,-209.87"/>
<text text-anchor="middle" x="293.09" y="-231.8" font-family="Times,serif" font-size="14.00">अधिकरणम्</text>
</g>
<!-- Node8_1 -->
<g id="node12" class="node">
<title>Node8_1</title>
<ellipse fill="#00bfff" stroke="#00bfff" cx="797.59" cy="-105" rx="87.99" ry="18"/>
<text text-anchor="middle" x="797.59" y="-101.3" font-family="Times,serif" font-size="14.00">इन्दुः(8.1)</text>
</g>
<!-- Node8_1&#45;&gt;Node14_1 -->
<g id="edge8" class="edge">
<title>Node8_1&#45;&gt;Node14_1</title>
<path fill="none" stroke="black" d="M836.66,-126.71C855.19,-136.17 877.78,-147.21 898.59,-156 916.39,-163.52 936.42,-170.81 953.79,-176.78"/>
<polygon fill="black" stroke="black" points="838.14,-123.53 827.65,-122.06 834.93,-129.75 838.14,-123.53"/>
<text text-anchor="middle" x="948.59" y="-144.8" font-family="Times,serif" font-size="14.00">उपमानम्</text>
</g>
<!-- Node9_1 -->
<g id="node13" class="node">
<title>Node9_1</title>
<ellipse fill="#ff99ff" stroke="#ff99ff" cx="797.59" cy="-18" rx="50.89" ry="18"/>
<text text-anchor="middle" x="797.59" y="-14.3" font-family="Times,serif" font-size="14.00">इव(9.1)</text>
</g>
<!-- Node9_1&#45;&gt;Node8_1 -->
<g id="edge9" class="edge">
<title>Node9_1&#45;&gt;Node8_1</title>
<path fill="none" stroke="black" d="M797.59,-46.27C797.59,-59.58 797.59,-75.19 797.59,-86.82"/>
<polygon fill="black" stroke="black" points="801.09,-46.2 797.59,-36.2 794.09,-46.2 801.09,-46.2"/>
<text text-anchor="middle" x="886.59" y="-57.8" font-family="Times,serif" font-size="14.00">उपमान_द्योतकः</text>
</g>
<!-- Node11_1 -->
<g id="node14" class="node">
<title>Node11_1</title>
<ellipse fill="#00bfff" stroke="#00bfff" cx="343.59" cy="-192" rx="112.38" ry="18"/>
<text text-anchor="middle" x="343.59" y="-188.3" font-family="Times,serif" font-size="14.00">निष्पतन्(11.1)</text>
</g>
<!-- Node11_1&#45;&gt;Node10_1 -->
<g id="edge10" class="edge">
<title>Node11_1&#45;&gt;Node10_1</title>
<path fill="none" stroke="black" d="M350.45,-219.94C353.93,-228.54 359.07,-237.29 366.59,-243 387.94,-259.22 451.21,-268.18 503.97,-272.96"/>
<polygon fill="black" stroke="black" points="353.76,-218.79 347.19,-210.48 347.14,-221.07 353.76,-218.79"/>
<text text-anchor="middle" x="473.59" y="-231.8" font-family="Times,serif" font-size="14.00">वर्तमानसमानकालः</text>
</g>
<!-- Node12_1 -->
<g id="node15" class="node">
<title>Node12_1</title>
<ellipse fill="#00bfff" stroke="#00bfff" cx="586.59" cy="-192" rx="112.38" ry="18"/>
<text text-anchor="middle" x="586.59" y="-188.3" font-family="Times,serif" font-size="14.00">प्रविशन्(12.1)</text>
</g>
<!-- Node12_1&#45;&gt;Node10_1 -->
<g id="edge11" class="edge">
<title>Node12_1&#45;&gt;Node10_1</title>
<path fill="none" stroke="black" d="M584.94,-220.13C584.81,-222.79 584.69,-225.45 584.59,-228 584.17,-238.93 583.92,-251.21 583.78,-260.87"/>
<polygon fill="black" stroke="black" points="588.44,-220.26 585.49,-210.08 581.45,-219.88 588.44,-220.26"/>
<text text-anchor="middle" x="691.59" y="-231.8" font-family="Times,serif" font-size="14.00">वर्तमानसमानकालः</text>
</g>
<!-- Node13_1 -->
<g id="node16" class="node">
<title>Node13_1</title>
<ellipse fill="#ff99ff" stroke="#ff99ff" cx="820.59" cy="-192" rx="65.79" ry="18"/>
<text text-anchor="middle" x="820.59" y="-188.3" font-family="Times,serif" font-size="14.00">तथा(13.1)</text>
</g>
<!-- Node13_1&#45;&gt;Node10_1 -->
<g id="edge12" class="edge">
<title>Node13_1&#45;&gt;Node10_1</title>
<path fill="none" stroke="black" d="M814.17,-220.19C810.86,-228.69 805.92,-237.32 798.59,-243 777.7,-259.18 715.54,-268.12 663.4,-272.91"/>
<polygon fill="black" stroke="black" points="817.57,-221.05 817.34,-210.45 810.91,-218.88 817.57,-221.05"/>
<text text-anchor="middle" x="868.09" y="-231.8" font-family="Times,serif" font-size="14.00">सम्बन्धः</text>
</g>
</g>
</svg>
