<svg xmlns="http://www.w3.org/2000/svg" xmlns:xlink="http://www.w3.org/1999/xlink" width="1356" height="653pt" viewBox="0 0 1016.99 653"><g id="graph0" class="graph" transform="scale(1 1) rotate(0) translate(4 649)"><title>G</title><polygon fill="#fffacd" stroke="transparent" points="-4 4 -4 -649 1012.99 -649 1012.99 4 -4 4"/><g id="clust1" class="cluster"><title>cluster_1</title><polygon fill="#fffacd" stroke="#000" points="654.99 -166 654.99 -305 920.99 -305 920.99 -166 654.99 -166"/></g><g id="clust2" class="cluster"><title>cluster_2</title><polygon fill="#fffacd" stroke="#000" points="215.99 -427 215.99 -566 638.99 -566 638.99 -427 215.99 -427"/></g><g id="clust3" class="cluster"><title>cluster_3</title><polygon fill="#fffacd" stroke="#000" points="59.99 -253 59.99 -392 444.99 -392 444.99 -253 59.99 -253"/></g><g id="node1" class="node"><title>Node1_3</title><ellipse cx="787.99" cy="-192" fill="#40e0d0" stroke="#40e0d0" rx="124.58" ry="18"/><text x="787.99" y="-188.3" font-family="Times,serif" font-size="14" text-anchor="middle">समस्पर्शैः(1.3)</text></g><g id="node2" class="node"><title>Node2_1</title><ellipse cx="756.99" cy="-279" fill="#40e0d0" stroke="#40e0d0" rx="87.99" ry="18"/><text x="756.99" y="-275.3" font-family="Times,serif" font-size="14" text-anchor="middle">पावकैः(2.1)</text></g><g id="edge3" class="edge"><title>Node1_3-&gt;Node2_1</title><path fill="none" stroke="#000" d="M778.19,-219.87C773.3,-233.27 767.54,-249.08 763.25,-260.82"/><polygon fill="#000" stroke="#000" points="781.58 -220.79 781.72 -210.2 775 -218.4 781.58 -220.79"/><text x="831.49" y="-231.8" font-family="Times,serif" font-size="14" text-anchor="middle">विशेषणम्</text></g><g id="node7" class="node"><title>Node7_2</title><ellipse cx="330.99" cy="-366" fill="#40e0d0" stroke="#40e0d0" rx="96.68" ry="18"/><text x="330.99" y="-362.3" font-family="Times,serif" font-size="14" text-anchor="middle">जिद्भिः(7.2)</text></g><g id="edge4" class="edge"><title>Node2_1-&gt;Node7_2</title><path fill="none" stroke="#000" d="M732.01,-303.42C719.93,-313.35 704.67,-324 688.99,-330 642.41,-347.84 514.56,-357.04 425,-361.44"/><polygon fill="#000" stroke="#000" points="734.51 -305.89 739.83 -296.73 729.96 -300.57 734.51 -305.89"/><text x="764.99" y="-318.8" font-family="Times,serif" font-size="14" text-anchor="middle">उपमानम्</text></g><g id="node3" class="node"><title>Node4_1</title><ellipse cx="542.99" cy="-453" fill="#c6e2eb" stroke="#c6e2eb" rx="87.99" ry="18"/><text x="542.99" y="-449.3" font-family="Times,serif" font-size="14" text-anchor="middle">शोभिते(4.1)</text></g><g id="node4" class="node"><title>Node11_2</title><ellipse cx="324.99" cy="-540" fill="#c6e2eb" stroke="#c6e2eb" rx="93.68" ry="18"/><text x="324.99" y="-536.3" font-family="Times,serif" font-size="14" text-anchor="middle">मार्गे(11.2)</text></g><g id="edge6" class="edge"><title>Node4_1-&gt;Node11_2</title><path fill="none" stroke="#000" d="M506.73,-475.09C489.09,-484.77 467.35,-495.87 446.99,-504 425.81,-512.45 401.81,-519.79 380.74,-525.54"/><polygon fill="#000" stroke="#000" points="508.51 -478.1 515.54 -470.18 505.1 -471.99 508.51 -478.1"/><text x="536.49" y="-492.8" font-family="Times,serif" font-size="14" text-anchor="middle">विशेषणम्</text></g><g id="node16" class="node"><title>Node10_1</title><ellipse cx="150.99" cy="-627" fill="#ff1975" stroke="#ff1975" rx="81.79" ry="18"/><text x="150.99" y="-623.3" font-family="Times,serif" font-size="14" text-anchor="middle">(जगाम)(10.1)</text></g><g id="edge16" class="edge"><title>Node11_2-&gt;Node10_1</title><path fill="none" stroke="#000" d="M283.07,-561.48C252.3,-576.51 211.13,-596.62 182.98,-610.37"/><polygon fill="#000" stroke="#000" points="284.81 -564.52 292.26 -556.99 281.74 -558.23 284.81 -564.52"/><text x="326.49" y="-579.8" font-family="Times,serif" font-size="14" text-anchor="middle">देशाधिकरणम्</text></g><g id="node5" class="node"><title>Node8_1</title><ellipse cx="330.99" cy="-453" fill="#c6e2eb" stroke="#c6e2eb" rx="106.68" ry="18"/><text x="330.99" y="-449.3" font-family="Times,serif" font-size="14" text-anchor="middle">अधिष्ठते(8.1)</text></g><g id="edge13" class="edge"><title>Node8_1-&gt;Node11_2</title><path fill="none" stroke="#000" d="M329.07,-481.27C328.13,-494.58 327.02,-510.19 326.2,-521.82"/><polygon fill="#000" stroke="#000" points="332.56 -481.42 329.78 -471.2 325.58 -480.93 332.56 -481.42"/><text x="385.49" y="-492.8" font-family="Times,serif" font-size="14" text-anchor="middle">विशेषणम्</text></g><g id="node6" class="node"><title>Node5_2</title><ellipse cx="164.99" cy="-279" fill="#40e0d0" stroke="#40e0d0" rx="96.68" ry="18"/><text x="164.99" y="-275.3" font-family="Times,serif" font-size="14" text-anchor="middle">पुण्यैः(5.2)</text></g><g id="edge8" class="edge"><title>Node5_2-&gt;Node7_2</title><path fill="none" stroke="#000" d="M188.38,-303.93C198.36,-313.09 210.56,-323.01 222.99,-330 238.88,-338.94 257.39,-345.99 274.55,-351.34"/><polygon fill="#000" stroke="#000" points="190.55 -301.17 180.89 -296.82 185.73 -306.24 190.55 -301.17"/><text x="280.49" y="-318.8" font-family="Times,serif" font-size="14" text-anchor="middle">विशेषणम्</text></g><g id="edge12" class="edge"><title>Node7_2-&gt;Node8_1</title><path fill="none" stroke="#000" d="M330.99,-394.27C330.99,-407.58 330.99,-423.19 330.99,-434.82"/><polygon fill="#000" stroke="#000" points="334.49 -394.2 330.99 -384.2 327.49 -394.2 334.49 -394.2"/><text x="366.99" y="-405.8" font-family="Times,serif" font-size="14" text-anchor="middle">कर्ता</text></g><g id="node8" class="node"><title>Node6_2</title><ellipse cx="357.99" cy="-279" fill="#40e0d0" stroke="#40e0d0" rx="78.79" ry="18"/><text x="357.99" y="-275.3" font-family="Times,serif" font-size="14" text-anchor="middle">भागैः(6.2)</text></g><g id="edge10" class="edge"><title>Node6_2-&gt;Node7_2</title><path fill="none" stroke="#000" d="M349.46,-306.87C345.2,-320.27 340.18,-336.08 336.45,-347.82"/><polygon fill="#000" stroke="#000" points="352.84 -307.79 352.53 -297.2 346.16 -305.67 352.84 -307.79"/><text x="403.49" y="-318.8" font-family="Times,serif" font-size="14" text-anchor="middle">विशेषणम्</text></g><g id="node9" class="node"><title>Node1_1</title><ellipse cx="787.99" cy="-18" fill="#ff0" stroke="#ff0" rx="72.29" ry="18"/><text x="787.99" y="-14.3" font-family="Times,serif" font-size="14" text-anchor="middle">वज्र-(1.1)</text></g><g id="node10" class="node"><title>Node1_2</title><ellipse cx="787.99" cy="-105" fill="#ff0" stroke="#ff0" rx="72.29" ry="18"/><text x="787.99" y="-101.3" font-family="Times,serif" font-size="14" text-anchor="middle">अशनि-(1.2)</text></g><g id="edge1" class="edge"><title>Node1_1-&gt;Node1_2</title><path fill="none" stroke="#000" d="M787.99,-46.27C787.99,-59.58 787.99,-75.19 787.99,-86.82"/><polygon fill="#000" stroke="#000" points="791.49 -46.2 787.99 -36.2 784.49 -46.2 791.49 -46.2"/><text x="852.49" y="-57.8" font-family="Times,serif" font-size="14" text-anchor="middle">कर्मधारयः</text></g><g id="edge2" class="edge"><title>Node1_2-&gt;Node1_3</title><path fill="none" stroke="#000" d="M787.99,-133.27C787.99,-146.58 787.99,-162.19 787.99,-173.82"/><polygon fill="#000" stroke="#000" points="791.49 -133.2 787.99 -123.2 784.49 -133.2 791.49 -133.2"/><text x="898.49" y="-144.8" font-family="Times,serif" font-size="14" text-anchor="middle">तृतीया_तत्पुरुषः</text></g><g id="node11" class="node"><title>Node3_1</title><ellipse cx="586.99" cy="-192" fill="#f9f" stroke="#f9f" rx="50.89" ry="18"/><text x="586.99" y="-188.3" font-family="Times,serif" font-size="14" text-anchor="middle">इव(3.1)</text></g><g id="edge5" class="edge"><title>Node3_1-&gt;Node2_1</title><path fill="none" stroke="#000" d="M581.3,-220.23C581.12,-228.39 582.66,-236.8 587.99,-243 596.52,-252.92 633.16,-250.45 645.99,-253 664.2,-256.62 684.01,-260.95 701.78,-264.98"/><polygon fill="#000" stroke="#000" points="584.78 -220.53 582.29 -210.23 577.82 -219.84 584.78 -220.53"/><text x="676.99" y="-231.8" font-family="Times,serif" font-size="14" text-anchor="middle">उपमान_द्योतकः</text></g><g id="node12" class="node"><title>Node5_1</title><ellipse cx="164.99" cy="-192" fill="#ff0" stroke="#ff0" rx="63.09" ry="18"/><text x="164.99" y="-188.3" font-family="Times,serif" font-size="14" text-anchor="middle">कृत-(5.1)</text></g><g id="edge7" class="edge"><title>Node5_1-&gt;Node5_2</title><path fill="none" stroke="#000" d="M164.99,-220.27C164.99,-233.58 164.99,-249.19 164.99,-260.82"/><polygon fill="#000" stroke="#000" points="168.49 -220.2 164.99 -210.2 161.49 -220.2 168.49 -220.2"/><text x="236.49" y="-231.8" font-family="Times,serif" font-size="14" text-anchor="middle">बहुव्रीहिः</text></g><g id="node13" class="node"><title>Node6_1</title><ellipse cx="357.99" cy="-192" fill="#ff0" stroke="#ff0" rx="63.09" ry="18"/><text x="357.99" y="-188.3" font-family="Times,serif" font-size="14" text-anchor="middle">महा-(6.1)</text></g><g id="edge9" class="edge"><title>Node6_1-&gt;Node6_2</title><path fill="none" stroke="#000" d="M357.99,-220.27C357.99,-233.58 357.99,-249.19 357.99,-260.82"/><polygon fill="#000" stroke="#000" points="361.49 -220.2 357.99 -210.2 354.49 -220.2 361.49 -220.2"/><text x="422.49" y="-231.8" font-family="Times,serif" font-size="14" text-anchor="middle">कर्मधारयः</text></g><g id="node14" class="node"><title>Node7_1</title><ellipse cx="545.99" cy="-279" fill="#ff0" stroke="#ff0" rx="90.98" ry="18"/><text x="545.99" y="-275.3" font-family="Times,serif" font-size="14" text-anchor="middle">स्वर्ग-(7.1)</text></g><g id="edge11" class="edge"><title>Node7_1-&gt;Node7_2</title><path fill="none" stroke="#000" d="M514.65,-302.38C500.1,-311.97 482.23,-322.63 464.99,-330 442.88,-339.46 417.6,-346.87 395,-352.39"/><polygon fill="#000" stroke="#000" points="516.91 -305.08 523.25 -296.59 513 -299.28 516.91 -305.08"/><text x="588.49" y="-318.8" font-family="Times,serif" font-size="14" text-anchor="middle">उपपद_तत्पुरुषः</text></g><g id="node15" class="node"><title>Node9_1</title><ellipse cx="103.99" cy="-540" fill="#00bfff" stroke="#00bfff" rx="103.98" ry="18"/><text x="103.99" y="-536.3" font-family="Times,serif" font-size="14" text-anchor="middle">(मारुतिः)(9.1)</text></g><g id="edge14" class="edge"><title>Node9_1-&gt;Node10_1</title><path fill="none" stroke="#000" d="M118.45,-567.15C126,-580.81 135.03,-597.13 141.65,-609.11"/><polygon fill="#000" stroke="#000" points="121.4 -565.26 113.5 -558.2 115.28 -568.65 121.4 -565.26"/><text x="165.99" y="-579.8" font-family="Times,serif" font-size="14" text-anchor="middle">कर्ता</text></g><g id="node17" class="node"><title>Node11_1</title><ellipse cx="100.99" cy="-453" fill="#ff0" stroke="#ff0" rx="77.99" ry="18"/><text x="100.99" y="-449.3" font-family="Times,serif" font-size="14" text-anchor="middle">वायु-(11.1)</text></g><g id="edge15" class="edge"><title>Node11_1-&gt;Node11_2</title><path fill="none" stroke="#000" d="M103.55,-481.26C105.67,-489.65 109.42,-498.2 115.99,-504 117.34,-505.19 195.4,-518.05 255.72,-527.83"/><polygon fill="#000" stroke="#000" points="106.97 -480.48 101.69 -471.29 100.08 -481.76 106.97 -480.48"/><text x="219.49" y="-492.8" font-family="Times,serif" font-size="14" text-anchor="middle">षष्ठी_तत्पुरुषः</text></g></g></svg>