<?xml version="1.0" encoding="UTF-8" standalone="no"?>
<!DOCTYPE svg PUBLIC "-//W3C//DTD SVG 1.1//EN"
 "http://www.w3.org/Graphics/SVG/1.1/DTD/svg11.dtd">
<!-- Generated by graphviz version 2.43.0 (0)
 -->
<!-- Title: G Pages: 1 -->
<svg width="1600pt" height="305pt"
 viewBox="0.00 0.00 1600.00 305.00" xmlns="http://www.w3.org/2000/svg" xmlns:xlink="http://www.w3.org/1999/xlink">
<g id="graph0" class="graph" transform="scale(1 1) rotate(0) translate(4 301)">
<title>G</title>
<polygon fill="#fffacd" stroke="transparent" points="-4,4 -4,-301 1596,-301 1596,4 -4,4"/>
<g id="clust1" class="cluster">
<title>cluster_1</title>
<polygon fill="#fffacd" stroke="black" points="387,-79 387,-218 665,-218 665,-79 387,-79"/>
</g>
<g id="clust2" class="cluster">
<title>cluster_2</title>
<polygon fill="#fffacd" stroke="black" points="8,-79 8,-218 238,-218 238,-79 8,-79"/>
</g>
<!-- Node2_1 -->
<g id="node1" class="node">
<title>Node2_1</title>
<ellipse fill="#00bfff" stroke="#00bfff" cx="526" cy="-105" rx="78.79" ry="18"/>
<text text-anchor="middle" x="526" y="-101.3" font-family="Times,serif" font-size="14.00">उक्तः(2.1)</text>
</g>
<!-- Node12_1 -->
<g id="node2" class="node">
<title>Node12_1</title>
<ellipse fill="#ff1975" stroke="#ff1975" cx="526" cy="-192" rx="130.78" ry="18"/>
<text text-anchor="middle" x="526" y="-188.3" font-family="Times,serif" font-size="14.00">विषहिष्यसि(12.1)</text>
</g>
<!-- Node2_1&#45;&gt;Node12_1 -->
<g id="edge2" class="edge">
<title>Node2_1&#45;&gt;Node12_1</title>
<path fill="none" stroke="black" d="M526,-133.27C526,-146.58 526,-162.19 526,-173.82"/>
<polygon fill="black" stroke="black" points="529.5,-133.2 526,-123.2 522.5,-133.2 529.5,-133.2"/>
<text text-anchor="middle" x="583.5" y="-144.8" font-family="Times,serif" font-size="14.00">विशेषणम्</text>
</g>
<!-- Node13_1 -->
<g id="node9" class="node">
<title>Node13_1</title>
<ellipse fill="lightgrey" stroke="black" cx="363" cy="-279" rx="27" ry="18"/>
</g>
<!-- Node12_1&#45;&gt;Node13_1 -->
<g id="edge11" class="edge">
<title>Node12_1&#45;&gt;Node13_1</title>
<path fill="none" stroke="black" d="M485.01,-214.38C452.81,-231.17 409.29,-253.86 383.87,-267.12"/>
<polygon fill="black" stroke="black" points="486.94,-217.32 494.19,-209.59 483.7,-211.11 486.94,-217.32"/>
<text text-anchor="middle" x="519.5" y="-231.8" font-family="Times,serif" font-size="14.00">वाक्यकर्म</text>
</g>
<!-- Node4_1 -->
<g id="node3" class="node">
<title>Node4_1</title>
<ellipse fill="#00bfff" stroke="#00bfff" cx="123" cy="-105" rx="106.68" ry="18"/>
<text text-anchor="middle" x="123" y="-101.3" font-family="Times,serif" font-size="14.00">क्रुद्धः(4.1)</text>
</g>
<!-- Node5_2 -->
<g id="node4" class="node">
<title>Node5_2</title>
<ellipse fill="#00bfff" stroke="#00bfff" cx="124" cy="-192" rx="96.68" ry="18"/>
<text text-anchor="middle" x="124" y="-188.3" font-family="Times,serif" font-size="14.00">पुङ्गवः(5.2)</text>
</g>
<!-- Node4_1&#45;&gt;Node5_2 -->
<g id="edge4" class="edge">
<title>Node4_1&#45;&gt;Node5_2</title>
<path fill="none" stroke="black" d="M123.32,-133.27C123.48,-146.58 123.66,-162.19 123.8,-173.82"/>
<polygon fill="black" stroke="black" points="126.82,-133.16 123.2,-123.2 119.82,-133.24 126.82,-133.16"/>
<text text-anchor="middle" x="181.5" y="-144.8" font-family="Times,serif" font-size="14.00">विशेषणम्</text>
</g>
<!-- Node5_2&#45;&gt;Node13_1 -->
<g id="edge6" class="edge">
<title>Node5_2&#45;&gt;Node13_1</title>
<path fill="none" stroke="black" d="M176.26,-211.59C227.18,-229.7 302.26,-256.4 339.82,-269.76"/>
<polygon fill="black" stroke="black" points="177.32,-208.25 166.73,-208.2 174.98,-214.84 177.32,-208.25"/>
<text text-anchor="middle" x="294" y="-231.8" font-family="Times,serif" font-size="14.00">कर्ता</text>
</g>
<!-- Node1_1 -->
<g id="node5" class="node">
<title>Node1_1</title>
<ellipse fill="#ff99ff" stroke="#ff99ff" cx="521" cy="-18" rx="69.59" ry="18"/>
<text text-anchor="middle" x="521" y="-14.3" font-family="Times,serif" font-size="14.00">एवम्(1.1)</text>
</g>
<!-- Node1_1&#45;&gt;Node2_1 -->
<g id="edge1" class="edge">
<title>Node1_1&#45;&gt;Node2_1</title>
<path fill="none" stroke="black" d="M522.6,-46.27C523.39,-59.58 524.31,-75.19 524.99,-86.82"/>
<polygon fill="black" stroke="black" points="526.09,-45.98 522.01,-36.2 519.11,-46.39 526.09,-45.98"/>
<text text-anchor="middle" x="581.5" y="-57.8" font-family="Times,serif" font-size="14.00">सम्बन्धः</text>
</g>
<!-- Node3_1 -->
<g id="node6" class="node">
<title>Node3_1</title>
<ellipse fill="#40e0d0" stroke="#40e0d0" cx="696" cy="-18" rx="87.99" ry="18"/>
<text text-anchor="middle" x="696" y="-14.3" font-family="Times,serif" font-size="14.00">सुरसया(3.1)</text>
</g>
<!-- Node3_1&#45;&gt;Node2_1 -->
<g id="edge3" class="edge">
<title>Node3_1&#45;&gt;Node2_1</title>
<path fill="none" stroke="black" d="M674.76,-43.41C665.75,-52.53 654.64,-62.28 643,-69 624.73,-79.55 602.99,-87.18 583.23,-92.58"/>
<polygon fill="black" stroke="black" points="677.46,-45.65 681.8,-35.99 672.38,-40.84 677.46,-45.65"/>
<text text-anchor="middle" x="699" y="-57.8" font-family="Times,serif" font-size="14.00">कर्ता</text>
</g>
<!-- Node5_1 -->
<g id="node7" class="node">
<title>Node5_1</title>
<ellipse fill="#ffff00" stroke="#ffff00" cx="874" cy="-18" rx="72.29" ry="18"/>
<text text-anchor="middle" x="874" y="-14.3" font-family="Times,serif" font-size="14.00">वानर&#45;(5.1)</text>
</g>
<!-- Node12_2 -->
<g id="node8" class="node">
<title>Node12_2</title>
<ellipse fill="lightgrey" stroke="black" cx="874" cy="-105" rx="27" ry="18"/>
</g>
<!-- Node5_1&#45;&gt;Node12_2 -->
<g id="edge5" class="edge">
<title>Node5_1&#45;&gt;Node12_2</title>
<path fill="none" stroke="black" d="M874,-46.27C874,-59.58 874,-75.19 874,-86.82"/>
<polygon fill="black" stroke="black" points="877.5,-46.2 874,-36.2 870.5,-46.2 877.5,-46.2"/>
<text text-anchor="middle" x="984.5" y="-57.8" font-family="Times,serif" font-size="14.00">सप्तमी_तत्पुरुषः</text>
</g>
<!-- Node6_1 -->
<g id="node10" class="node">
<title>Node6_1</title>
<ellipse fill="#ff1975" stroke="#ff1975" cx="1071" cy="-18" rx="106.68" ry="18"/>
<text text-anchor="middle" x="1071" y="-14.3" font-family="Times,serif" font-size="14.00">अब्रवीत्(6.1)</text>
</g>
<!-- Node7_1 -->
<g id="node11" class="node">
<title>Node7_1</title>
<ellipse fill="#ff1975" stroke="#ff1975" cx="1302" cy="-105" rx="69.59" ry="18"/>
<text text-anchor="middle" x="1302" y="-101.3" font-family="Times,serif" font-size="14.00">कुरु(7.1)</text>
</g>
<!-- Node8_1 -->
<g id="node12" class="node">
<title>Node8_1</title>
<ellipse fill="#ff99ff" stroke="#ff99ff" cx="1477" cy="-18" rx="50.89" ry="18"/>
<text text-anchor="middle" x="1477" y="-14.3" font-family="Times,serif" font-size="14.00">वै(8.1)</text>
</g>
<!-- Node27_1 -->
<g id="node13" class="node">
<title>Node27_1</title>
<ellipse fill="lightgrey" stroke="black" cx="1477" cy="-105" rx="27" ry="18"/>
</g>
<!-- Node8_1&#45;&gt;Node27_1 -->
<g id="edge7" class="edge">
<title>Node8_1&#45;&gt;Node27_1</title>
<path fill="none" stroke="black" d="M1477,-46.27C1477,-59.58 1477,-75.19 1477,-86.82"/>
<polygon fill="black" stroke="black" points="1480.5,-46.2 1477,-36.2 1473.5,-46.2 1480.5,-46.2"/>
<text text-anchor="middle" x="1534.5" y="-57.8" font-family="Times,serif" font-size="14.00">सम्बन्धः</text>
</g>
<!-- Node9_1 -->
<g id="node14" class="node">
<title>Node9_1</title>
<ellipse fill="#93db70" stroke="#93db70" cx="1302" cy="-18" rx="106.68" ry="18"/>
<text text-anchor="middle" x="1302" y="-14.3" font-family="Times,serif" font-size="14.00">वक्त्रम्(9.1)</text>
</g>
<!-- Node9_1&#45;&gt;Node7_1 -->
<g id="edge8" class="edge">
<title>Node9_1&#45;&gt;Node7_1</title>
<path fill="none" stroke="black" d="M1302,-46.27C1302,-59.58 1302,-75.19 1302,-86.82"/>
<polygon fill="black" stroke="black" points="1305.5,-46.2 1302,-36.2 1298.5,-46.2 1305.5,-46.2"/>
<text text-anchor="middle" x="1331" y="-57.8" font-family="Times,serif" font-size="14.00">कर्म</text>
</g>
<!-- Node10_1 -->
<g id="node15" class="node">
<title>Node10_1</title>
<ellipse fill="#40e0d0" stroke="#40e0d0" cx="313" cy="-105" rx="65.79" ry="18"/>
<text text-anchor="middle" x="313" y="-101.3" font-family="Times,serif" font-size="14.00">येन(10.1)</text>
</g>
<!-- Node10_1&#45;&gt;Node12_1 -->
<g id="edge9" class="edge">
<title>Node10_1&#45;&gt;Node12_1</title>
<path fill="none" stroke="black" d="M358.36,-124.1C396.07,-139.15 449.22,-160.36 485.5,-174.84"/>
<polygon fill="black" stroke="black" points="359.24,-120.68 348.65,-120.23 356.64,-127.18 359.24,-120.68"/>
<text text-anchor="middle" x="469" y="-144.8" font-family="Times,serif" font-size="14.00">करणम्</text>
</g>
<!-- Node11_1 -->
<g id="node16" class="node">
<title>Node11_1</title>
<ellipse fill="#93db70" stroke="#93db70" cx="748" cy="-105" rx="75.29" ry="18"/>
<text text-anchor="middle" x="748" y="-101.3" font-family="Times,serif" font-size="14.00">माम्(11.1)</text>
</g>
<!-- Node11_1&#45;&gt;Node12_1 -->
<g id="edge10" class="edge">
<title>Node11_1&#45;&gt;Node12_1</title>
<path fill="none" stroke="black" d="M709.84,-126.4C690.71,-136.14 666.99,-147.5 645,-156 625.62,-163.5 603.94,-170.31 584.45,-175.9"/>
<polygon fill="black" stroke="black" points="711.54,-129.46 718.83,-121.77 708.34,-123.24 711.54,-129.46"/>
<text text-anchor="middle" x="709" y="-144.8" font-family="Times,serif" font-size="14.00">कर्म</text>
</g>
</g>
</svg>
