<svg xmlns="http://www.w3.org/2000/svg" xmlns:xlink="http://www.w3.org/1999/xlink" width="1544" height="392pt" viewBox="0 0 1158 392"><g id="graph0" class="graph" transform="scale(1 1) rotate(0) translate(4 388)"><title>G</title><polygon fill="#fffacd" stroke="transparent" points="-4 4 -4 -388 1154 -388 1154 4 -4 4"/><g id="clust1" class="cluster"><title>cluster_1</title><polygon fill="#fffacd" stroke="#000" points="8 -166 8 -305 356 -305 356 -166 8 -166"/></g><g id="clust2" class="cluster"><title>cluster_2</title><polygon fill="#fffacd" stroke="#000" points="825 -79 825 -218 1017 -218 1017 -79 825 -79"/></g><g id="clust3" class="cluster"><title>cluster_3</title><polygon fill="#fffacd" stroke="#000" points="364 -79 364 -218 817 -218 817 -79 364 -79"/></g><g id="node1" class="node"><title>Node2_1</title><ellipse cx="288" cy="-192" fill="#93db70" stroke="#93db70" rx="59.59" ry="18"/><text x="288" y="-188.3" font-family="Times,serif" font-size="14" text-anchor="middle">तत्(2.1)</text></g><g id="node2" class="node"><title>Node3_1</title><ellipse cx="232" cy="-279" fill="#93db70" stroke="#93db70" rx="115.88" ry="18"/><text x="232" y="-275.3" font-family="Times,serif" font-size="14" text-anchor="middle">प्रहर्षम्(3.1)</text></g><g id="edge3" class="edge"><title>Node2_1-&gt;Node3_1</title><path fill="none" stroke="#000" d="M271.3,-218.34C262.24,-232.1 251.27,-248.74 243.23,-260.95"/><polygon fill="#000" stroke="#000" points="274.36 -220.07 276.94 -209.79 268.51 -216.22 274.36 -220.07"/><text x="321.5" y="-231.8" font-family="Times,serif" font-size="14" text-anchor="middle">विशेषणम्</text></g><g id="node9" class="node"><title>Node4_1</title><ellipse cx="714" cy="-366" fill="#ff1975" stroke="#ff1975" rx="78.79" ry="18"/><text x="714" y="-362.3" font-family="Times,serif" font-size="14" text-anchor="middle">अलभत्(4.1)</text></g><g id="edge4" class="edge"><title>Node3_1-&gt;Node4_1</title><path fill="none" stroke="#000" d="M315.47,-294.72C411.89,-311.72 568.16,-339.28 653.55,-354.34"/><polygon fill="#000" stroke="#000" points="315.92 -291.25 305.47 -292.96 314.71 -298.14 315.92 -291.25"/><text x="531" y="-318.8" font-family="Times,serif" font-size="14" text-anchor="middle">कर्म</text></g><g id="node3" class="node"><title>Node5_1</title><ellipse cx="113" cy="-192" fill="#93db70" stroke="#93db70" rx="96.68" ry="18"/><text x="113" y="-188.3" font-family="Times,serif" font-size="14" text-anchor="middle">विपुलम्(5.1)</text></g><g id="edge5" class="edge"><title>Node5_1-&gt;Node3_1</title><path fill="none" stroke="#000" d="M121.93,-219.8C125.79,-228.13 131.05,-236.75 138,-243 147.85,-251.84 160.13,-258.52 172.54,-263.54"/><polygon fill="#000" stroke="#000" points="125.07 -218.24 118.03 -210.32 118.6 -220.9 125.07 -218.24"/><text x="195.5" y="-231.8" font-family="Times,serif" font-size="14" text-anchor="middle">विशेषणम्</text></g><g id="node4" class="node"><title>Node6_2</title><ellipse cx="921" cy="-105" fill="#00bfff" stroke="#00bfff" rx="87.99" ry="18"/><text x="921" y="-101.3" font-family="Times,serif" font-size="14" text-anchor="middle">उत्तमः(6.2)</text></g><g id="node5" class="node"><title>Node1_1</title><ellipse cx="884" cy="-192" fill="#00bfff" stroke="#00bfff" rx="50.89" ry="18"/><text x="884" y="-188.3" font-family="Times,serif" font-size="14" text-anchor="middle">सः(1.1)</text></g><g id="edge7" class="edge"><title>Node6_2-&gt;Node1_1</title><path fill="none" stroke="#000" d="M909.45,-132.54C903.54,-146.12 896.52,-162.24 891.35,-174.11"/><polygon fill="#000" stroke="#000" points="912.73 -133.77 913.51 -123.2 906.31 -130.97 912.73 -133.77"/><text x="962.5" y="-144.8" font-family="Times,serif" font-size="14" text-anchor="middle">विशेषणम्</text></g><g id="edge1" class="edge"><title>Node1_1-&gt;Node4_1</title><path fill="none" stroke="#000" d="M884.28,-220.49C883.06,-251.37 876.24,-300.95 847,-330 831.16,-345.73 809.15,-354.64 787.59,-359.62"/><polygon fill="#000" stroke="#000" points="887.78 -220.49 884.51 -210.42 880.79 -220.34 887.78 -220.49"/><text x="916" y="-275.3" font-family="Times,serif" font-size="14" text-anchor="middle">कर्ता</text></g><g id="node10" class="node"><title>Node9_1</title><ellipse cx="714" cy="-279" fill="#f9f" stroke="#f9f" rx="106.68" ry="18"/><text x="714" y="-275.3" font-family="Times,serif" font-size="14" text-anchor="middle">दृष्ट्वा(9.1)</text></g><g id="edge2" class="edge"><title>Node1_1-&gt;Node9_1</title><path fill="none" stroke="#000" stroke-dasharray="1 5" d="M842.22,-209.73C835.15,-212.52 827.87,-215.36 821,-218 809.05,-222.58 805.49,-222.36 794,-228 774.3,-237.68 753.31,-250.92 737.77,-261.35"/><polygon fill="#000" stroke="#000" points="843.67 -212.93 851.68 -205.99 841.1 -206.42 843.67 -212.93"/><text x="830" y="-231.8" font-family="Times,serif" font-size="14" text-anchor="middle">कर्ता</text></g><g id="node6" class="node"><title>Node8_1</title><ellipse cx="730" cy="-105" fill="#93db70" stroke="#93db70" rx="78.79" ry="18"/><text x="730" y="-101.3" font-family="Times,serif" font-size="14" text-anchor="middle">पतिम्(8.1)</text></g><g id="node7" class="node"><title>Node11_1</title><ellipse cx="687" cy="-192" fill="#93db70" stroke="#93db70" rx="121.58" ry="18"/><text x="687" y="-188.3" font-family="Times,serif" font-size="14" text-anchor="middle">शतक्रतुम्(11.1)</text></g><g id="edge9" class="edge"><title>Node8_1-&gt;Node11_1</title><path fill="none" stroke="#000" d="M711.52,-131.47C709.54,-134.62 707.66,-137.84 706,-141 700.49,-151.53 695.74,-164.03 692.37,-173.9"/><polygon fill="#000" stroke="#000" points="714.57 -133.2 717.19 -122.94 708.74 -129.33 714.57 -133.2"/><text x="763.5" y="-144.8" font-family="Times,serif" font-size="14" text-anchor="middle">विशेषणम्</text></g><g id="edge12" class="edge"><title>Node11_1-&gt;Node9_1</title><path fill="none" stroke="#000" d="M695.54,-219.87C699.79,-233.27 704.81,-249.08 708.54,-260.82"/><polygon fill="#000" stroke="#000" points="698.83 -218.67 692.46 -210.2 692.16 -220.79 698.83 -218.67"/><text x="732" y="-231.8" font-family="Times,serif" font-size="14" text-anchor="middle">कर्म</text></g><g id="node8" class="node"><title>Node10_1</title><ellipse cx="503" cy="-105" fill="#93db70" stroke="#93db70" rx="130.78" ry="18"/><text x="503" y="-101.3" font-family="Times,serif" font-size="14" text-anchor="middle">परितुष्टम्(10.1)</text></g><g id="edge11" class="edge"><title>Node10_1-&gt;Node11_1</title><path fill="none" stroke="#000" d="M534.61,-128.83C548.4,-138.11 565.04,-148.4 581,-156 597.18,-163.71 615.51,-170.42 632.32,-175.84"/><polygon fill="#000" stroke="#000" points="536.23 -125.7 526 -122.93 532.27 -131.47 536.23 -125.7"/><text x="638.5" y="-144.8" font-family="Times,serif" font-size="14" text-anchor="middle">विशेषणम्</text></g><g id="edge10" class="edge"><title>Node9_1-&gt;Node4_1</title><path fill="none" stroke="#000" d="M714,-307.27C714,-320.58 714,-336.19 714,-347.82"/><polygon fill="#000" stroke="#000" points="717.5 -307.2 714 -297.2 710.5 -307.2 717.5 -307.2"/><text x="778.5" y="-318.8" font-family="Times,serif" font-size="14" text-anchor="middle">पूर्वकालः</text></g><g id="node11" class="node"><title>Node6_1</title><ellipse cx="934" cy="-18" fill="#ff0" stroke="#ff0" rx="81.49" ry="18"/><text x="934" y="-14.3" font-family="Times,serif" font-size="14" text-anchor="middle">पर्वत-(6.1)</text></g><g id="edge6" class="edge"><title>Node6_1-&gt;Node6_2</title><path fill="none" stroke="#000" d="M929.83,-46.27C927.79,-59.58 925.41,-75.19 923.63,-86.82"/><polygon fill="#000" stroke="#000" points="933.32 -46.62 931.37 -36.2 926.4 -45.56 933.32 -46.62"/><text x="1039.5" y="-57.8" font-family="Times,serif" font-size="14" text-anchor="middle">सप्तमी_तत्पुरुषः</text></g><g id="node12" class="node"><title>Node7_1</title><ellipse cx="718" cy="-18" fill="#87ceeb" stroke="#87ceeb" rx="115.88" ry="18"/><text x="718" y="-14.3" font-family="Times,serif" font-size="14" text-anchor="middle">देवतानाम्(7.1)</text></g><g id="edge8" class="edge"><title>Node7_1-&gt;Node8_1</title><path fill="none" stroke="#000" d="M717.15,-46.46C717.3,-53.82 717.81,-61.75 719,-69 719.97,-74.91 721.71,-81.2 723.52,-86.79"/><polygon fill="#000" stroke="#000" points="720.65 -46.23 717.14 -36.23 713.65 -46.24 720.65 -46.23"/><text x="815.5" y="-57.8" font-family="Times,serif" font-size="14" text-anchor="middle">षष्ठी_सम्बन्धः</text></g></g></svg>