<?xml version="1.0" encoding="UTF-8" standalone="no"?>
<!DOCTYPE svg PUBLIC "-//W3C//DTD SVG 1.1//EN"
 "http://www.w3.org/Graphics/SVG/1.1/DTD/svg11.dtd">
<!-- Generated by graphviz version 2.43.0 (0)
 -->
<!-- Title: G Pages: 1 -->
<svg width="1432pt" height="321pt"
 viewBox="0.00 0.00 1432.00 321.00" xmlns="http://www.w3.org/2000/svg" xmlns:xlink="http://www.w3.org/1999/xlink">
<g id="graph0" class="graph" transform="scale(1 1) rotate(0) translate(4 317)">
<title>G</title>
<polygon fill="#fffacd" stroke="transparent" points="-4,4 -4,-317 1428,-317 1428,4 -4,4"/>
<g id="clust1" class="cluster">
<title>cluster_1</title>
<polygon fill="#fffacd" stroke="black" points="8,-8 8,-147 357,-147 357,-8 8,-8"/>
</g>
<g id="clust2" class="cluster">
<title>cluster_2</title>
<polygon fill="#fffacd" stroke="black" points="1179,-95 1179,-234 1401,-234 1401,-95 1179,-95"/>
</g>
<!-- Node1_1 -->
<g id="node1" class="node">
<title>Node1_1</title>
<ellipse fill="#00bfff" stroke="#00bfff" cx="298" cy="-34" rx="50.89" ry="18"/>
<text text-anchor="middle" x="298" y="-30.3" font-family="Times,serif" font-size="14.00">सः(1.1)</text>
</g>
<!-- Node7_2 -->
<g id="node2" class="node">
<title>Node7_2</title>
<ellipse fill="#00bfff" stroke="#00bfff" cx="250" cy="-121" rx="69.59" ry="18"/>
<text text-anchor="middle" x="250" y="-117.3" font-family="Times,serif" font-size="14.00">राट्(7.2)</text>
</g>
<!-- Node1_1&#45;&gt;Node7_2 -->
<g id="edge1" class="edge">
<title>Node1_1&#45;&gt;Node7_2</title>
<path fill="none" stroke="black" d="M283.47,-60.74C275.74,-74.42 266.46,-90.86 259.63,-102.95"/>
<polygon fill="black" stroke="black" points="286.65,-62.22 288.52,-51.79 280.55,-58.78 286.65,-62.22"/>
<text text-anchor="middle" x="333.5" y="-73.8" font-family="Times,serif" font-size="14.00">विशेषणम्</text>
</g>
<!-- Node3_1 -->
<g id="node7" class="node">
<title>Node3_1</title>
<ellipse fill="#00bfff" stroke="#00bfff" cx="437" cy="-295" rx="78.79" ry="18"/>
<text text-anchor="middle" x="437" y="-291.3" font-family="Times,serif" font-size="14.00">उपगतः(3.1)</text>
</g>
<!-- Node7_2&#45;&gt;Node3_1 -->
<g id="edge7" class="edge">
<title>Node7_2&#45;&gt;Node3_1</title>
<path fill="none" stroke="black" d="M244.41,-149.39C241.02,-174.11 240.39,-210.16 259,-234 283.99,-266 326.77,-281.07 364.13,-288.1"/>
<polygon fill="black" stroke="black" points="247.91,-149.66 246.05,-139.23 241,-148.55 247.91,-149.66"/>
<text text-anchor="middle" x="295" y="-204.3" font-family="Times,serif" font-size="14.00">कर्ता</text>
</g>
<!-- Node6_1 -->
<g id="node9" class="node">
<title>Node6_1</title>
<ellipse fill="#ff99ff" stroke="#ff99ff" cx="437" cy="-208" rx="96.68" ry="18"/>
<text text-anchor="middle" x="437" y="-204.3" font-family="Times,serif" font-size="14.00">उद्यम्य(6.1)</text>
</g>
<!-- Node7_2&#45;&gt;Node6_1 -->
<g id="edge8" class="edge">
<title>Node7_2&#45;&gt;Node6_1</title>
<path fill="none" stroke="black" stroke-dasharray="1,5" d="M292.43,-141.29C325.57,-156.35 371.06,-177.03 402.11,-191.14"/>
<polygon fill="black" stroke="black" points="293.55,-137.95 283,-137 290.66,-144.33 293.55,-137.95"/>
<text text-anchor="middle" x="390" y="-160.8" font-family="Times,serif" font-size="14.00">कर्ता</text>
</g>
<!-- Node4_1 -->
<g id="node3" class="node">
<title>Node4_1</title>
<ellipse fill="#00bfff" stroke="#00bfff" cx="123" cy="-34" rx="106.68" ry="18"/>
<text text-anchor="middle" x="123" y="-30.3" font-family="Times,serif" font-size="14.00">क्रुद्धः(4.1)</text>
</g>
<!-- Node4_1&#45;&gt;Node7_2 -->
<g id="edge3" class="edge">
<title>Node4_1&#45;&gt;Node7_2</title>
<path fill="none" stroke="black" d="M133.96,-61.61C138.5,-70.02 144.49,-78.75 152,-85 165.19,-95.98 182.09,-103.63 198.12,-108.91"/>
<polygon fill="black" stroke="black" points="136.98,-59.82 129.44,-52.38 130.69,-62.9 136.98,-59.82"/>
<text text-anchor="middle" x="209.5" y="-73.8" font-family="Times,serif" font-size="14.00">विशेषणम्</text>
</g>
<!-- Node13_2 -->
<g id="node4" class="node">
<title>Node13_2</title>
<ellipse fill="#40e0d0" stroke="#40e0d0" cx="1281" cy="-121" rx="93.68" ry="18"/>
<text text-anchor="middle" x="1281" y="-117.3" font-family="Times,serif" font-size="14.00">आत्मना(13.2)</text>
</g>
<!-- Node12_1 -->
<g id="node5" class="node">
<title>Node12_1</title>
<ellipse fill="#40e0d0" stroke="#40e0d0" cx="1290" cy="-208" rx="102.88" ry="18"/>
<text text-anchor="middle" x="1290" y="-204.3" font-family="Times,serif" font-size="14.00">श्वसनेन(12.1)</text>
</g>
<!-- Node13_2&#45;&gt;Node12_1 -->
<g id="edge14" class="edge">
<title>Node13_2&#45;&gt;Node12_1</title>
<path fill="none" stroke="black" d="M1283.89,-149.27C1285.3,-162.58 1286.95,-178.19 1288.18,-189.82"/>
<polygon fill="black" stroke="black" points="1287.35,-148.78 1282.82,-139.2 1280.39,-149.51 1287.35,-148.78"/>
<text text-anchor="middle" x="1343.5" y="-160.8" font-family="Times,serif" font-size="14.00">विशेषणम्</text>
</g>
<!-- Node11_1 -->
<g id="node12" class="node">
<title>Node11_1</title>
<ellipse fill="#00bfff" stroke="#00bfff" cx="1021" cy="-295" rx="112.38" ry="18"/>
<text text-anchor="middle" x="1021" y="-291.3" font-family="Times,serif" font-size="14.00">क्षिप्तः(11.1)</text>
</g>
<!-- Node12_1&#45;&gt;Node11_1 -->
<g id="edge12" class="edge">
<title>Node12_1&#45;&gt;Node11_1</title>
<path fill="none" stroke="black" d="M1249.9,-229.68C1229.4,-239.62 1203.82,-251.06 1180,-259 1152.51,-268.16 1121.55,-275.59 1094.3,-281.22"/>
<polygon fill="black" stroke="black" points="1251.51,-232.8 1258.94,-225.24 1248.42,-226.51 1251.51,-232.8"/>
<text text-anchor="middle" x="1253" y="-247.8" font-family="Times,serif" font-size="14.00">कर्ता</text>
</g>
<!-- Node2_1 -->
<g id="node6" class="node">
<title>Node2_1</title>
<ellipse fill="#93db70" stroke="#93db70" cx="621" cy="-208" rx="69.59" ry="18"/>
<text text-anchor="middle" x="621" y="-204.3" font-family="Times,serif" font-size="14.00">माम्(2.1)</text>
</g>
<!-- Node2_1&#45;&gt;Node3_1 -->
<g id="edge2" class="edge">
<title>Node2_1&#45;&gt;Node3_1</title>
<path fill="none" stroke="black" d="M601.2,-233.23C592.5,-242.49 581.62,-252.4 570,-259 548.82,-271.03 523.41,-279.02 500.49,-284.3"/>
<polygon fill="black" stroke="black" points="603.89,-235.47 607.97,-225.69 598.68,-230.8 603.89,-235.47"/>
<text text-anchor="middle" x="617" y="-247.8" font-family="Times,serif" font-size="14.00">कर्म</text>
</g>
<!-- Node5_1 -->
<g id="node8" class="node">
<title>Node5_1</title>
<ellipse fill="#93db70" stroke="#93db70" cx="453" cy="-121" rx="87.99" ry="18"/>
<text text-anchor="middle" x="453" y="-117.3" font-family="Times,serif" font-size="14.00">वज्रम्(5.1)</text>
</g>
<!-- Node5_1&#45;&gt;Node6_1 -->
<g id="edge4" class="edge">
<title>Node5_1&#45;&gt;Node6_1</title>
<path fill="none" stroke="black" d="M447.87,-149.27C445.36,-162.58 442.42,-178.19 440.23,-189.82"/>
<polygon fill="black" stroke="black" points="451.35,-149.68 449.76,-139.2 444.47,-148.38 451.35,-149.68"/>
<text text-anchor="middle" x="474" y="-160.8" font-family="Times,serif" font-size="14.00">कर्म</text>
</g>
<!-- Node6_1&#45;&gt;Node3_1 -->
<g id="edge5" class="edge">
<title>Node6_1&#45;&gt;Node3_1</title>
<path fill="none" stroke="black" d="M437,-236.27C437,-249.58 437,-265.19 437,-276.82"/>
<polygon fill="black" stroke="black" points="440.5,-236.2 437,-226.2 433.5,-236.2 440.5,-236.2"/>
<text text-anchor="middle" x="501.5" y="-247.8" font-family="Times,serif" font-size="14.00">पूर्वकालः</text>
</g>
<!-- Node7_1 -->
<g id="node10" class="node">
<title>Node7_1</title>
<ellipse fill="#ffff00" stroke="#ffff00" cx="430" cy="-34" rx="63.09" ry="18"/>
<text text-anchor="middle" x="430" y="-30.3" font-family="Times,serif" font-size="14.00">देव&#45;(7.1)</text>
</g>
<!-- Node7_1&#45;&gt;Node7_2 -->
<g id="edge6" class="edge">
<title>Node7_1&#45;&gt;Node7_2</title>
<path fill="none" stroke="black" d="M416.76,-61.18C411.15,-69.93 403.84,-78.97 395,-85 393.96,-85.71 341.03,-98.39 299.42,-108.28"/>
<polygon fill="black" stroke="black" points="419.92,-62.7 421.99,-52.31 413.89,-59.15 419.92,-62.7"/>
<text text-anchor="middle" x="513.5" y="-73.8" font-family="Times,serif" font-size="14.00">षष्ठी_तत्पुरुषः</text>
</g>
<!-- Node8_1 -->
<g id="node11" class="node">
<title>Node8_1</title>
<ellipse fill="#ff99ff" stroke="#ff99ff" cx="768" cy="-208" rx="59.59" ry="18"/>
<text text-anchor="middle" x="768" y="-204.3" font-family="Times,serif" font-size="14.00">ततः(8.1)</text>
</g>
<!-- Node8_1&#45;&gt;Node11_1 -->
<g id="edge9" class="edge">
<title>Node8_1&#45;&gt;Node11_1</title>
<path fill="none" stroke="black" d="M783.39,-234.62C790.13,-243.71 798.83,-253.13 809,-259 829.19,-270.66 880.21,-279.28 927.13,-285.05"/>
<polygon fill="black" stroke="black" points="786.11,-232.39 777.55,-226.14 780.34,-236.36 786.11,-232.39"/>
<text text-anchor="middle" x="887.5" y="-247.8" font-family="Times,serif" font-size="14.00">कालाधिकरणम्</text>
</g>
<!-- Node9_1 -->
<g id="node13" class="node">
<title>Node9_1</title>
<ellipse fill="#00bfff" stroke="#00bfff" cx="931" cy="-208" rx="69.59" ry="18"/>
<text text-anchor="middle" x="931" y="-204.3" font-family="Times,serif" font-size="14.00">अहम्(9.1)</text>
</g>
<!-- Node9_1&#45;&gt;Node11_1 -->
<g id="edge10" class="edge">
<title>Node9_1&#45;&gt;Node11_1</title>
<path fill="none" stroke="black" d="M956.18,-232.78C971.05,-246.83 989.53,-264.28 1002.95,-276.95"/>
<polygon fill="black" stroke="black" points="958.45,-230.11 948.78,-225.79 953.65,-235.2 958.45,-230.11"/>
<text text-anchor="middle" x="1010" y="-247.8" font-family="Times,serif" font-size="14.00">कर्म</text>
</g>
<!-- Node10_1 -->
<g id="node14" class="node">
<title>Node10_1</title>
<ellipse fill="#ff99ff" stroke="#ff99ff" cx="1094" cy="-208" rx="75.29" ry="18"/>
<text text-anchor="middle" x="1094" y="-204.3" font-family="Times,serif" font-size="14.00">सहसा(10.1)</text>
</g>
<!-- Node10_1&#45;&gt;Node11_1 -->
<g id="edge11" class="edge">
<title>Node10_1&#45;&gt;Node11_1</title>
<path fill="none" stroke="black" d="M1072.91,-233.56C1060.96,-247.47 1046.33,-264.51 1035.64,-276.95"/>
<polygon fill="black" stroke="black" points="1075.72,-235.66 1079.58,-225.79 1070.41,-231.1 1075.72,-235.66"/>
<text text-anchor="middle" x="1118.5" y="-247.8" font-family="Times,serif" font-size="14.00">सम्बन्धः</text>
</g>
<!-- Node13_1 -->
<g id="node15" class="node">
<title>Node13_1</title>
<ellipse fill="#ffff00" stroke="#ffff00" cx="1281" cy="-34" rx="68.79" ry="18"/>
<text text-anchor="middle" x="1281" y="-30.3" font-family="Times,serif" font-size="14.00">महा&#45;(13.1)</text>
</g>
<!-- Node13_1&#45;&gt;Node13_2 -->
<g id="edge13" class="edge">
<title>Node13_1&#45;&gt;Node13_2</title>
<path fill="none" stroke="black" d="M1281,-62.27C1281,-75.58 1281,-91.19 1281,-102.82"/>
<polygon fill="black" stroke="black" points="1284.5,-62.2 1281,-52.2 1277.5,-62.2 1284.5,-62.2"/>
<text text-anchor="middle" x="1352.5" y="-73.8" font-family="Times,serif" font-size="14.00">बहुव्रीहिः</text>
</g>
</g>
</svg>
