<?xml version="1.0" encoding="UTF-8" standalone="no"?>
<!DOCTYPE svg PUBLIC "-//W3C//DTD SVG 1.1//EN"
 "http://www.w3.org/Graphics/SVG/1.1/DTD/svg11.dtd">
<!-- Generated by graphviz version 2.43.0 (0)
 -->
<!-- Title: G Pages: 1 -->
<svg width="1226pt" height="479pt"
 viewBox="0.00 0.00 1225.94 479.00" xmlns="http://www.w3.org/2000/svg" xmlns:xlink="http://www.w3.org/1999/xlink">
<g id="graph0" class="graph" transform="scale(1 1) rotate(0) translate(4 475)">
<title>G</title>
<polygon fill="#fffacd" stroke="transparent" points="-4,4 -4,-475 1221.94,-475 1221.94,4 -4,4"/>
<g id="clust1" class="cluster">
<title>cluster_1</title>
<polygon fill="#fffacd" stroke="black" points="999.94,-253 999.94,-392 1209.94,-392 1209.94,-253 999.94,-253"/>
</g>
<g id="clust2" class="cluster">
<title>cluster_2</title>
<polygon fill="#fffacd" stroke="black" points="245.94,-166 245.94,-305 991.94,-305 991.94,-166 245.94,-166"/>
</g>
<!-- Node4_1 -->
<g id="node1" class="node">
<title>Node4_1</title>
<ellipse fill="#93db70" stroke="#93db70" cx="1095.94" cy="-279" rx="87.99" ry="18"/>
<text text-anchor="middle" x="1095.94" y="-275.3" font-family="Times,serif" font-size="14.00">सुमहत्(4.1)</text>
</g>
<!-- Node1_1 -->
<g id="node2" class="node">
<title>Node1_1</title>
<ellipse fill="#93db70" stroke="#93db70" cx="1104.94" cy="-366" rx="96.68" ry="18"/>
<text text-anchor="middle" x="1104.94" y="-362.3" font-family="Times,serif" font-size="14.00">साह्यम्(1.1)</text>
</g>
<!-- Node4_1&#45;&gt;Node1_1 -->
<g id="edge3" class="edge">
<title>Node4_1&#45;&gt;Node1_1</title>
<path fill="none" stroke="black" d="M1098.83,-307.27C1100.24,-320.58 1101.89,-336.19 1103.12,-347.82"/>
<polygon fill="black" stroke="black" points="1102.29,-306.78 1097.76,-297.2 1095.33,-307.51 1102.29,-306.78"/>
<text text-anchor="middle" x="1158.44" y="-318.8" font-family="Times,serif" font-size="14.00">विशेषणम्</text>
</g>
<!-- Node2_1 -->
<g id="node7" class="node">
<title>Node2_1</title>
<ellipse fill="#93db70" stroke="#93db70" cx="817.94" cy="-453" rx="78.79" ry="18"/>
<text text-anchor="middle" x="817.94" y="-449.3" font-family="Times,serif" font-size="14.00">कृतम्(2.1)</text>
</g>
<!-- Node1_1&#45;&gt;Node2_1 -->
<g id="edge1" class="edge">
<title>Node1_1&#45;&gt;Node2_1</title>
<path fill="none" stroke="black" d="M1045.85,-384.5C992.04,-400.44 913.66,-423.65 864.26,-438.28"/>
<polygon fill="black" stroke="black" points="1047.01,-387.81 1055.6,-381.61 1045.02,-381.1 1047.01,-387.81"/>
<text text-anchor="middle" x="1006.94" y="-405.8" font-family="Times,serif" font-size="14.00">कर्म</text>
</g>
<!-- Node5_1 -->
<g id="node3" class="node">
<title>Node5_1</title>
<ellipse fill="#87ceeb" stroke="#87ceeb" cx="839.94" cy="-192" rx="143.77" ry="18"/>
<text text-anchor="middle" x="839.94" y="-188.3" font-family="Times,serif" font-size="14.00">विश्रान्तस्य(5.1)</text>
</g>
<!-- Node6_1 -->
<g id="node4" class="node">
<title>Node6_1</title>
<ellipse fill="#87ceeb" stroke="#87ceeb" cx="690.94" cy="-279" rx="87.99" ry="18"/>
<text text-anchor="middle" x="690.94" y="-275.3" font-family="Times,serif" font-size="14.00">हनूमतः(6.1)</text>
</g>
<!-- Node5_1&#45;&gt;Node6_1 -->
<g id="edge4" class="edge">
<title>Node5_1&#45;&gt;Node6_1</title>
<path fill="none" stroke="black" d="M808.27,-215.6C795.14,-224.58 779.58,-234.72 764.94,-243 752.69,-249.93 738.85,-256.73 726.48,-262.47"/>
<polygon fill="black" stroke="black" points="810.28,-218.47 816.52,-209.9 806.3,-212.71 810.28,-218.47"/>
<text text-anchor="middle" x="845.44" y="-231.8" font-family="Times,serif" font-size="14.00">विशेषणम्</text>
</g>
<!-- Node6_1&#45;&gt;Node1_1 -->
<g id="edge5" class="edge">
<title>Node6_1&#45;&gt;Node1_1</title>
<path fill="none" stroke="black" d="M755.27,-295.62C798.58,-305.93 857.05,-319.42 908.94,-330 950.77,-338.53 997.85,-346.97 1035.39,-353.43"/>
<polygon fill="black" stroke="black" points="755.97,-292.19 745.43,-293.27 754.34,-299 755.97,-292.19"/>
<text text-anchor="middle" x="1001.94" y="-318.8" font-family="Times,serif" font-size="14.00">षष्ठीसम्बन्धः</text>
</g>
<!-- Node7_1 -->
<g id="node5" class="node">
<title>Node7_1</title>
<ellipse fill="#87ceeb" stroke="#87ceeb" cx="590.94" cy="-192" rx="87.99" ry="18"/>
<text text-anchor="middle" x="590.94" y="-188.3" font-family="Times,serif" font-size="14.00">क्रमतः(7.1)</text>
</g>
<!-- Node7_1&#45;&gt;Node6_1 -->
<g id="edge6" class="edge">
<title>Node7_1&#45;&gt;Node6_1</title>
<path fill="none" stroke="black" d="M618.52,-216.44C635.24,-230.65 656.17,-248.44 671.22,-261.24"/>
<polygon fill="black" stroke="black" points="620.58,-213.6 610.7,-209.79 616.05,-218.94 620.58,-213.6"/>
<text text-anchor="middle" x="703.44" y="-231.8" font-family="Times,serif" font-size="14.00">विशेषणम्</text>
</g>
<!-- Node9_1 -->
<g id="node6" class="node">
<title>Node9_1</title>
<ellipse fill="#87ceeb" stroke="#87ceeb" cx="369.94" cy="-192" rx="115.88" ry="18"/>
<text text-anchor="middle" x="369.94" y="-188.3" font-family="Times,serif" font-size="14.00">निर्भयस्य(9.1)</text>
</g>
<!-- Node9_1&#45;&gt;Node6_1 -->
<g id="edge9" class="edge">
<title>Node9_1&#45;&gt;Node6_1</title>
<path fill="none" stroke="black" d="M420.85,-212.29C448.67,-222.36 483.89,-234.35 515.94,-243 551.69,-252.65 592.19,-260.92 625.22,-266.99"/>
<polygon fill="black" stroke="black" points="421.93,-208.96 411.34,-208.82 419.53,-215.54 421.93,-208.96"/>
<text text-anchor="middle" x="573.44" y="-231.8" font-family="Times,serif" font-size="14.00">विशेषणम्</text>
</g>
<!-- Node3_1 -->
<g id="node8" class="node">
<title>Node3_1</title>
<ellipse fill="#87ceeb" stroke="#87ceeb" cx="817.94" cy="-366" rx="103.98" ry="18"/>
<text text-anchor="middle" x="817.94" y="-362.3" font-family="Times,serif" font-size="14.00">ते(त्वया)(3.1)</text>
</g>
<!-- Node3_1&#45;&gt;Node2_1 -->
<g id="edge2" class="edge">
<title>Node3_1&#45;&gt;Node2_1</title>
<path fill="none" stroke="black" d="M817.94,-394.27C817.94,-407.58 817.94,-423.19 817.94,-434.82"/>
<polygon fill="black" stroke="black" points="821.44,-394.2 817.94,-384.2 814.44,-394.2 821.44,-394.2"/>
<text text-anchor="middle" x="853.94" y="-405.8" font-family="Times,serif" font-size="14.00">कर्ता</text>
</g>
<!-- Node8_1 -->
<g id="node9" class="node">
<title>Node8_1</title>
<ellipse fill="#ffff00" stroke="#ffff00" cx="590.94" cy="-18" rx="72.29" ry="18"/>
<text text-anchor="middle" x="590.94" y="-14.3" font-family="Times,serif" font-size="14.00">योजन&#45;(8.1)</text>
</g>
<!-- Node8_2 -->
<g id="node10" class="node">
<title>Node8_2</title>
<ellipse fill="#93db70" stroke="#93db70" cx="590.94" cy="-105" rx="69.59" ry="18"/>
<text text-anchor="middle" x="590.94" y="-101.3" font-family="Times,serif" font-size="14.00">शतम्(8.2)</text>
</g>
<!-- Node8_1&#45;&gt;Node8_2 -->
<g id="edge7" class="edge">
<title>Node8_1&#45;&gt;Node8_2</title>
<path fill="none" stroke="black" d="M590.94,-46.27C590.94,-59.58 590.94,-75.19 590.94,-86.82"/>
<polygon fill="black" stroke="black" points="594.44,-46.2 590.94,-36.2 587.44,-46.2 594.44,-46.2"/>
<text text-anchor="middle" x="694.44" y="-57.8" font-family="Times,serif" font-size="14.00">षष्ठी_तत्पुरुषः</text>
</g>
<!-- Node8_2&#45;&gt;Node7_1 -->
<g id="edge8" class="edge">
<title>Node8_2&#45;&gt;Node7_1</title>
<path fill="none" stroke="black" d="M590.94,-133.27C590.94,-146.58 590.94,-162.19 590.94,-173.82"/>
<polygon fill="black" stroke="black" points="594.44,-133.2 590.94,-123.2 587.44,-133.2 594.44,-133.2"/>
<text text-anchor="middle" x="619.94" y="-144.8" font-family="Times,serif" font-size="14.00">कर्म</text>
</g>
<!-- Node10_1 -->
<g id="node11" class="node">
<title>Node10_1</title>
<ellipse fill="#c6e2eb" stroke="#c6e2eb" cx="390.94" cy="-366" rx="98.28" ry="18"/>
<text text-anchor="middle" x="390.94" y="-362.3" font-family="Times,serif" font-size="14.00">भये_सति(10.1)</text>
</g>
<!-- Node10_1&#45;&gt;Node2_1 -->
<g id="edge10" class="edge">
<title>Node10_1&#45;&gt;Node2_1</title>
<path fill="none" stroke="black" d="M457.82,-382.93C502.02,-393.22 561.29,-406.59 613.94,-417 661.18,-426.34 714.86,-435.49 755.29,-442.09"/>
<polygon fill="black" stroke="black" points="458.6,-379.51 448.06,-380.65 457,-386.33 458.6,-379.51"/>
<text text-anchor="middle" x="713.94" y="-405.8" font-family="Times,serif" font-size="14.00">भावलक्षणसप्तमी</text>
</g>
<!-- Node11_1 -->
<g id="node12" class="node">
<title>Node11_1</title>
<ellipse fill="#87ceeb" stroke="#87ceeb" cx="118.94" cy="-279" rx="118.88" ry="18"/>
<text text-anchor="middle" x="118.94" y="-275.3" font-family="Times,serif" font-size="14.00">(अस्माकम्)(11.1)</text>
</g>
<!-- Node11_1&#45;&gt;Node10_1 -->
<g id="edge11" class="edge">
<title>Node11_1&#45;&gt;Node10_1</title>
<path fill="none" stroke="black" d="M177.82,-298.4C227.39,-313.89 297.36,-335.76 343.42,-350.15"/>
<polygon fill="black" stroke="black" points="178.79,-295.03 168.2,-295.39 176.7,-301.72 178.79,-295.03"/>
<text text-anchor="middle" x="367.44" y="-318.8" font-family="Times,serif" font-size="14.00">षष्ठी_सम्बन्धः</text>
</g>
</g>
</svg>
