<?xml version="1.0" encoding="UTF-8" standalone="no"?>
<!DOCTYPE svg PUBLIC "-//W3C//DTD SVG 1.1//EN"
 "http://www.w3.org/Graphics/SVG/1.1/DTD/svg11.dtd">
<!-- Generated by graphviz version 2.43.0 (0)
 -->
<!-- Title: G Pages: 1 -->
<svg width="1527pt" height="234pt"
 viewBox="0.00 0.00 1527.00 234.00" xmlns="http://www.w3.org/2000/svg" xmlns:xlink="http://www.w3.org/1999/xlink">
<g id="graph0" class="graph" transform="scale(1 1) rotate(0) translate(4 230)">
<title>G</title>
<polygon fill="#fffacd" stroke="transparent" points="-4,4 -4,-230 1523,-230 1523,4 -4,4"/>
<g id="clust1" class="cluster">
<title>cluster_1</title>
<polygon fill="#fffacd" stroke="black" points="8,-8 8,-147 182,-147 182,-8 8,-8"/>
</g>
<g id="clust2" class="cluster">
<title>cluster_2</title>
<polygon fill="#fffacd" stroke="black" points="339,-8 339,-147 569,-147 569,-8 339,-8"/>
</g>
<g id="clust3" class="cluster">
<title>cluster_3</title>
<polygon fill="#fffacd" stroke="black" points="744,-8 744,-147 1264,-147 1264,-8 744,-8"/>
</g>
<!-- Node1_1 -->
<g id="node1" class="node">
<title>Node1_1</title>
<ellipse fill="#93db70" stroke="#93db70" cx="95" cy="-34" rx="78.79" ry="18"/>
<text text-anchor="middle" x="95" y="-30.3" font-family="Times,serif" font-size="14.00">भीमम्(1.1)</text>
</g>
<!-- Node4_1 -->
<g id="node2" class="node">
<title>Node4_1</title>
<ellipse fill="#93db70" stroke="#93db70" cx="95" cy="-121" rx="69.59" ry="18"/>
<text text-anchor="middle" x="95" y="-117.3" font-family="Times,serif" font-size="14.00">कर्म(4.1)</text>
</g>
<!-- Node1_1&#45;&gt;Node4_1 -->
<g id="edge1" class="edge">
<title>Node1_1&#45;&gt;Node4_1</title>
<path fill="none" stroke="black" d="M95,-62.27C95,-75.58 95,-91.19 95,-102.82"/>
<polygon fill="black" stroke="black" points="98.5,-62.2 95,-52.2 91.5,-62.2 98.5,-62.2"/>
<text text-anchor="middle" x="152.5" y="-73.8" font-family="Times,serif" font-size="14.00">विशेषणम्</text>
</g>
<!-- Node3_1 -->
<g id="node9" class="node">
<title>Node3_1</title>
<ellipse fill="#00bfff" stroke="#00bfff" cx="220" cy="-208" rx="78.79" ry="18"/>
<text text-anchor="middle" x="220" y="-204.3" font-family="Times,serif" font-size="14.00">कृतम्(3.1)</text>
</g>
<!-- Node4_1&#45;&gt;Node3_1 -->
<g id="edge3" class="edge">
<title>Node4_1&#45;&gt;Node3_1</title>
<path fill="none" stroke="black" d="M127.02,-143.77C148.59,-158.44 176.56,-177.46 196.17,-190.79"/>
<polygon fill="black" stroke="black" points="128.75,-140.72 118.51,-137.99 124.81,-146.51 128.75,-140.72"/>
<text text-anchor="middle" x="194" y="-160.8" font-family="Times,serif" font-size="14.00">कर्म</text>
</g>
<!-- Node5_1 -->
<g id="node3" class="node">
<title>Node5_1</title>
<ellipse fill="#93db70" stroke="#93db70" cx="446" cy="-34" rx="69.59" ry="18"/>
<text text-anchor="middle" x="446" y="-30.3" font-family="Times,serif" font-size="14.00">महत्(5.1)</text>
</g>
<!-- Node6_1 -->
<g id="node4" class="node">
<title>Node6_1</title>
<ellipse fill="#93db70" stroke="#93db70" cx="454" cy="-121" rx="106.68" ry="18"/>
<text text-anchor="middle" x="454" y="-117.3" font-family="Times,serif" font-size="14.00">सत्त्वम्(6.1)</text>
</g>
<!-- Node5_1&#45;&gt;Node6_1 -->
<g id="edge4" class="edge">
<title>Node5_1&#45;&gt;Node6_1</title>
<path fill="none" stroke="black" d="M448.57,-62.27C449.82,-75.58 451.29,-91.19 452.38,-102.82"/>
<polygon fill="black" stroke="black" points="452.04,-61.83 447.62,-52.2 445.07,-62.49 452.04,-61.83"/>
<text text-anchor="middle" x="508.5" y="-73.8" font-family="Times,serif" font-size="14.00">विशेषणम्</text>
</g>
<!-- Node8_1 -->
<g id="node10" class="node">
<title>Node8_1</title>
<ellipse fill="#93db70" stroke="#93db70" cx="586" cy="-208" rx="69.59" ry="18"/>
<text text-anchor="middle" x="586" y="-204.3" font-family="Times,serif" font-size="14.00">हतम्(8.1)</text>
</g>
<!-- Node6_1&#45;&gt;Node8_1 -->
<g id="edge5" class="edge">
<title>Node6_1&#45;&gt;Node8_1</title>
<path fill="none" stroke="black" d="M488.47,-144.19C511.28,-158.89 540.67,-177.81 561.19,-191.03"/>
<polygon fill="black" stroke="black" points="490.07,-141.06 479.76,-138.59 486.28,-146.95 490.07,-141.06"/>
<text text-anchor="middle" x="557" y="-160.8" font-family="Times,serif" font-size="14.00">कर्म</text>
</g>
<!-- Node11_1 -->
<g id="node5" class="node">
<title>Node11_1</title>
<ellipse fill="#93db70" stroke="#93db70" cx="1125" cy="-34" rx="130.78" ry="18"/>
<text text-anchor="middle" x="1125" y="-30.3" font-family="Times,serif" font-size="14.00">अभिप्रेतम्(11.1)</text>
</g>
<!-- Node10_1 -->
<g id="node6" class="node">
<title>Node10_1</title>
<ellipse fill="#93db70" stroke="#93db70" cx="1125" cy="-121" rx="93.68" ry="18"/>
<text text-anchor="middle" x="1125" y="-117.3" font-family="Times,serif" font-size="14.00">अर्थम्(10.1)</text>
</g>
<!-- Node11_1&#45;&gt;Node10_1 -->
<g id="edge8" class="edge">
<title>Node11_1&#45;&gt;Node10_1</title>
<path fill="none" stroke="black" d="M1125,-62.27C1125,-75.58 1125,-91.19 1125,-102.82"/>
<polygon fill="black" stroke="black" points="1128.5,-62.2 1125,-52.2 1121.5,-62.2 1128.5,-62.2"/>
<text text-anchor="middle" x="1182.5" y="-73.8" font-family="Times,serif" font-size="14.00">विशेषणम्</text>
</g>
<!-- Node9_1 -->
<g id="node12" class="node">
<title>Node9_1</title>
<ellipse fill="#ff1975" stroke="#ff1975" cx="1255" cy="-208" rx="69.59" ry="18"/>
<text text-anchor="middle" x="1255" y="-204.3" font-family="Times,serif" font-size="14.00">साधय(9.1)</text>
</g>
<!-- Node10_1&#45;&gt;Node9_1 -->
<g id="edge7" class="edge">
<title>Node10_1&#45;&gt;Node9_1</title>
<path fill="none" stroke="black" d="M1158.63,-143.99C1181.1,-158.68 1210.15,-177.67 1230.45,-190.95"/>
<polygon fill="black" stroke="black" points="1160.35,-140.93 1150.07,-138.39 1156.52,-146.79 1160.35,-140.93"/>
<text text-anchor="middle" x="1227" y="-160.8" font-family="Times,serif" font-size="14.00">कर्म</text>
</g>
<!-- Node12_1 -->
<g id="node7" class="node">
<title>Node12_1</title>
<ellipse fill="#93db70" stroke="#93db70" cx="864" cy="-34" rx="112.38" ry="18"/>
<text text-anchor="middle" x="864" y="-30.3" font-family="Times,serif" font-size="14.00">अरिष्टम्(12.1)</text>
</g>
<!-- Node12_1&#45;&gt;Node10_1 -->
<g id="edge9" class="edge">
<title>Node12_1&#45;&gt;Node10_1</title>
<path fill="none" stroke="black" d="M916.22,-54.13C942.96,-63.73 976.1,-75.34 1006,-85 1028.34,-92.21 1053.23,-99.63 1074.45,-105.77"/>
<polygon fill="black" stroke="black" points="917.27,-50.78 906.68,-50.69 914.9,-57.37 917.27,-50.78"/>
<text text-anchor="middle" x="1063.5" y="-73.8" font-family="Times,serif" font-size="14.00">विशेषणम्</text>
</g>
<!-- Node2_1 -->
<g id="node8" class="node">
<title>Node2_1</title>
<ellipse fill="#ff99ff" stroke="#ff99ff" cx="260" cy="-121" rx="69.59" ry="18"/>
<text text-anchor="middle" x="260" y="-117.3" font-family="Times,serif" font-size="14.00">अद्य(2.1)</text>
</g>
<!-- Node2_1&#45;&gt;Node3_1 -->
<g id="edge2" class="edge">
<title>Node2_1&#45;&gt;Node3_1</title>
<path fill="none" stroke="black" d="M247.54,-148.48C241.19,-161.96 233.66,-177.96 228.08,-189.82"/>
<polygon fill="black" stroke="black" points="250.81,-149.74 251.91,-139.2 244.48,-146.76 250.81,-149.74"/>
<text text-anchor="middle" x="321.5" y="-160.8" font-family="Times,serif" font-size="14.00">कालाधिकरणम्</text>
</g>
<!-- Node7_1 -->
<g id="node11" class="node">
<title>Node7_1</title>
<ellipse fill="#40e0d0" stroke="#40e0d0" cx="657" cy="-121" rx="78.79" ry="18"/>
<text text-anchor="middle" x="657" y="-117.3" font-family="Times,serif" font-size="14.00">त्वया(7.1)</text>
</g>
<!-- Node7_1&#45;&gt;Node8_1 -->
<g id="edge6" class="edge">
<title>Node7_1&#45;&gt;Node8_1</title>
<path fill="none" stroke="black" d="M636.44,-146.61C624.74,-160.62 610.4,-177.79 600,-190.24"/>
<polygon fill="black" stroke="black" points="639.25,-148.71 642.97,-138.79 633.88,-144.22 639.25,-148.71"/>
<text text-anchor="middle" x="662" y="-160.8" font-family="Times,serif" font-size="14.00">कर्ता</text>
</g>
<!-- Node13_1 -->
<g id="node13" class="node">
<title>Node13_1</title>
<ellipse fill="#87ceeb" stroke="#87ceeb" cx="1386" cy="-34" rx="112.38" ry="18"/>
<text text-anchor="middle" x="1386" y="-30.3" font-family="Times,serif" font-size="14.00">प्लवताम्(13.1)</text>
</g>
<!-- Node14_1 -->
<g id="node14" class="node">
<title>Node14_1</title>
<ellipse fill="#6fffc3" stroke="#6fffc3" cx="1364" cy="-121" rx="56.59" ry="18"/>
<text text-anchor="middle" x="1364" y="-117.3" font-family="Times,serif" font-size="14.00">वर(14.1)</text>
</g>
<!-- Node13_1&#45;&gt;Node14_1 -->
<g id="edge10" class="edge">
<title>Node13_1&#45;&gt;Node14_1</title>
<path fill="none" stroke="black" d="M1378.94,-62.27C1375.5,-75.58 1371.46,-91.19 1368.45,-102.82"/>
<polygon fill="black" stroke="black" points="1382.43,-62.76 1381.55,-52.2 1375.65,-61.01 1382.43,-62.76"/>
<text text-anchor="middle" x="1447.5" y="-73.8" font-family="Times,serif" font-size="14.00">निर्धारणम्</text>
</g>
<!-- Node14_1&#45;&gt;Node9_1 -->
<g id="edge11" class="edge">
<title>Node14_1&#45;&gt;Node9_1</title>
<path fill="none" stroke="black" d="M1335.57,-144.17C1316.84,-158.78 1292.73,-177.58 1275.78,-190.79"/>
<polygon fill="black" stroke="black" points="1337.76,-146.9 1343.5,-137.99 1333.46,-141.38 1337.76,-146.9"/>
<text text-anchor="middle" x="1380.5" y="-160.8" font-family="Times,serif" font-size="14.00">सम्बोध्यः</text>
</g>
</g>
</svg>
