<?xml version="1.0" encoding="UTF-8" standalone="no"?>
<!DOCTYPE svg PUBLIC "-//W3C//DTD SVG 1.1//EN"
 "http://www.w3.org/Graphics/SVG/1.1/DTD/svg11.dtd">
<!-- Generated by graphviz version 2.43.0 (0)
 -->
<!-- Title: G Pages: 1 -->
<svg width="1291pt" height="479pt"
 viewBox="0.00 0.00 1291.00 479.00" xmlns="http://www.w3.org/2000/svg" xmlns:xlink="http://www.w3.org/1999/xlink">
<g id="graph0" class="graph" transform="scale(1 1) rotate(0) translate(4 475)">
<title>G</title>
<polygon fill="#fffacd" stroke="transparent" points="-4,4 -4,-475 1287,-475 1287,4 -4,4"/>
<g id="clust1" class="cluster">
<title>cluster_1</title>
<polygon fill="#fffacd" stroke="black" points="1065,-166 1065,-305 1275,-305 1275,-166 1065,-166"/>
</g>
<g id="clust2" class="cluster">
<title>cluster_2</title>
<polygon fill="#fffacd" stroke="black" points="459,-253 459,-392 1057,-392 1057,-253 459,-253"/>
</g>
<g id="clust3" class="cluster">
<title>cluster_3</title>
<polygon fill="#fffacd" stroke="black" points="8,-253 8,-392 416,-392 416,-253 8,-253"/>
</g>
<!-- Node3_1 -->
<g id="node1" class="node">
<title>Node3_1</title>
<ellipse fill="#87ceeb" stroke="#87ceeb" cx="1170" cy="-192" rx="96.68" ry="18"/>
<text text-anchor="middle" x="1170" y="-188.3" font-family="Times,serif" font-size="14.00">लम्बस्य(3.1)</text>
</g>
<!-- Node4_1 -->
<g id="node2" class="node">
<title>Node4_1</title>
<ellipse fill="#87ceeb" stroke="#87ceeb" cx="1152" cy="-279" rx="78.79" ry="18"/>
<text text-anchor="middle" x="1152" y="-275.3" font-family="Times,serif" font-size="14.00">गिरेः(4.1)</text>
</g>
<!-- Node3_1&#45;&gt;Node4_1 -->
<g id="edge3" class="edge">
<title>Node3_1&#45;&gt;Node4_1</title>
<path fill="none" stroke="black" d="M1164.23,-220.27C1161.41,-233.58 1158.1,-249.19 1155.64,-260.82"/>
<polygon fill="black" stroke="black" points="1167.71,-220.71 1166.36,-210.2 1160.86,-219.26 1167.71,-220.71"/>
<text text-anchor="middle" x="1219.5" y="-231.8" font-family="Times,serif" font-size="14.00">विशेषणम्</text>
</g>
<!-- Node8_1 -->
<g id="node4" class="node">
<title>Node8_1</title>
<ellipse fill="#c6e2eb" stroke="#c6e2eb" cx="851" cy="-366" rx="69.59" ry="18"/>
<text text-anchor="middle" x="851" y="-362.3" font-family="Times,serif" font-size="14.00">कूटे(8.1)</text>
</g>
<!-- Node4_1&#45;&gt;Node8_1 -->
<g id="edge4" class="edge">
<title>Node4_1&#45;&gt;Node8_1</title>
<path fill="none" stroke="black" d="M1112.51,-300.19C1091.2,-310.38 1064.17,-322.21 1039,-330 997.46,-342.87 949.2,-351.73 911.98,-357.32"/>
<polygon fill="black" stroke="black" points="1114.1,-303.3 1121.57,-295.79 1111.05,-297.01 1114.1,-303.3"/>
<text text-anchor="middle" x="1170" y="-318.8" font-family="Times,serif" font-size="14.00">षष्ठीसम्बन्धः</text>
</g>
<!-- Node5_1 -->
<g id="node3" class="node">
<title>Node5_1</title>
<ellipse fill="#c6e2eb" stroke="#c6e2eb" cx="952" cy="-279" rx="96.68" ry="18"/>
<text text-anchor="middle" x="952" y="-275.3" font-family="Times,serif" font-size="14.00">समृद्धे(5.1)</text>
</g>
<!-- Node5_1&#45;&gt;Node8_1 -->
<g id="edge5" class="edge">
<title>Node5_1&#45;&gt;Node8_1</title>
<path fill="none" stroke="black" d="M930.99,-304.69C923.23,-313.15 914.1,-322.4 905,-330 896.68,-336.95 886.91,-343.65 877.99,-349.3"/>
<polygon fill="black" stroke="black" points="933.63,-306.99 937.69,-297.2 928.41,-302.32 933.63,-306.99"/>
<text text-anchor="middle" x="977.5" y="-318.8" font-family="Times,serif" font-size="14.00">विशेषणम्</text>
</g>
<!-- Node7_1 -->
<g id="node11" class="node">
<title>Node7_1</title>
<ellipse fill="#ff1975" stroke="#ff1975" cx="851" cy="-453" rx="87.99" ry="18"/>
<text text-anchor="middle" x="851" y="-449.3" font-family="Times,serif" font-size="14.00">निपपात(7.1)</text>
</g>
<!-- Node8_1&#45;&gt;Node7_1 -->
<g id="edge8" class="edge">
<title>Node8_1&#45;&gt;Node7_1</title>
<path fill="none" stroke="black" d="M851,-394.27C851,-407.58 851,-423.19 851,-434.82"/>
<polygon fill="black" stroke="black" points="854.5,-394.2 851,-384.2 847.5,-394.2 854.5,-394.2"/>
<text text-anchor="middle" x="929.5" y="-405.8" font-family="Times,serif" font-size="14.00">देशाधिकरणम्</text>
</g>
<!-- Node6_2 -->
<g id="node5" class="node">
<title>Node6_2</title>
<ellipse fill="#c6e2eb" stroke="#c6e2eb" cx="768" cy="-279" rx="69.59" ry="18"/>
<text text-anchor="middle" x="768" y="-275.3" font-family="Times,serif" font-size="14.00">कूटे(6.2)</text>
</g>
<!-- Node6_2&#45;&gt;Node8_1 -->
<g id="edge7" class="edge">
<title>Node6_2&#45;&gt;Node8_1</title>
<path fill="none" stroke="black" d="M776.14,-306.8C779.51,-314.9 784.05,-323.38 790,-330 797.35,-338.17 807.07,-344.92 816.58,-350.24"/>
<polygon fill="black" stroke="black" points="779.36,-305.43 772.59,-297.28 772.8,-307.87 779.36,-305.43"/>
<text text-anchor="middle" x="847.5" y="-318.8" font-family="Times,serif" font-size="14.00">विशेषणम्</text>
</g>
<!-- Node9_4 -->
<g id="node6" class="node">
<title>Node9_4</title>
<ellipse fill="#c6e2eb" stroke="#c6e2eb" cx="574" cy="-279" rx="106.68" ry="18"/>
<text text-anchor="middle" x="574" y="-275.3" font-family="Times,serif" font-size="14.00">नारिकेले(9.4)</text>
</g>
<!-- Node9_4&#45;&gt;Node8_1 -->
<g id="edge12" class="edge">
<title>Node9_4&#45;&gt;Node8_1</title>
<path fill="none" stroke="black" d="M606.5,-302.21C622.32,-312.08 642,-323.02 661,-330 701.62,-344.91 749.54,-353.68 787.1,-358.72"/>
<polygon fill="black" stroke="black" points="607.97,-298.99 597.66,-296.56 604.2,-304.89 607.97,-298.99"/>
<text text-anchor="middle" x="718.5" y="-318.8" font-family="Times,serif" font-size="14.00">विशेषणम्</text>
</g>
<!-- Node10_4 -->
<g id="node7" class="node">
<title>Node10_4</title>
<ellipse fill="#00bfff" stroke="#00bfff" cx="305" cy="-279" rx="102.88" ry="18"/>
<text text-anchor="middle" x="305" y="-275.3" font-family="Times,serif" font-size="14.00">प्रतिमः(10.4)</text>
</g>
<!-- Node2_1 -->
<g id="node8" class="node">
<title>Node2_1</title>
<ellipse fill="#00bfff" stroke="#00bfff" cx="293" cy="-366" rx="50.89" ry="18"/>
<text text-anchor="middle" x="293" y="-362.3" font-family="Times,serif" font-size="14.00">सः(2.1)</text>
</g>
<!-- Node10_4&#45;&gt;Node2_1 -->
<g id="edge16" class="edge">
<title>Node10_4&#45;&gt;Node2_1</title>
<path fill="none" stroke="black" d="M301.15,-307.27C299.27,-320.58 297.07,-336.19 295.42,-347.82"/>
<polygon fill="black" stroke="black" points="304.64,-307.59 302.57,-297.2 297.71,-306.61 304.64,-307.59"/>
<text text-anchor="middle" x="357.5" y="-318.8" font-family="Times,serif" font-size="14.00">विशेषणम्</text>
</g>
<!-- Node2_1&#45;&gt;Node7_1 -->
<g id="edge2" class="edge">
<title>Node2_1&#45;&gt;Node7_1</title>
<path fill="none" stroke="black" d="M348.64,-375.63C379.9,-380.46 419.62,-386.59 455,-392 569.96,-409.58 703.73,-429.8 782.67,-441.7"/>
<polygon fill="black" stroke="black" points="348.8,-372.11 338.38,-374.04 347.73,-379.03 348.8,-372.11"/>
<text text-anchor="middle" x="654" y="-405.8" font-family="Times,serif" font-size="14.00">कर्ता</text>
</g>
<!-- Node11_2 -->
<g id="node9" class="node">
<title>Node11_2</title>
<ellipse fill="#00bfff" stroke="#00bfff" cx="100" cy="-279" rx="84.49" ry="18"/>
<text text-anchor="middle" x="100" y="-275.3" font-family="Times,serif" font-size="14.00">आत्मा(11.2)</text>
</g>
<!-- Node11_2&#45;&gt;Node2_1 -->
<g id="edge18" class="edge">
<title>Node11_2&#45;&gt;Node2_1</title>
<path fill="none" stroke="black" d="M131.39,-302.25C145.73,-311.72 163.23,-322.32 180,-330 203.15,-340.6 230.39,-349.15 252.32,-355.14"/>
<polygon fill="black" stroke="black" points="133.16,-299.22 122.91,-296.55 129.25,-305.03 133.16,-299.22"/>
<text text-anchor="middle" x="237.5" y="-318.8" font-family="Times,serif" font-size="14.00">विशेषणम्</text>
</g>
<!-- Node1_1 -->
<g id="node10" class="node">
<title>Node1_1</title>
<ellipse fill="#ff99ff" stroke="#ff99ff" cx="1125" cy="-366" rx="59.59" ry="18"/>
<text text-anchor="middle" x="1125" y="-362.3" font-family="Times,serif" font-size="14.00">ततः(1.1)</text>
</g>
<!-- Node1_1&#45;&gt;Node7_1 -->
<g id="edge1" class="edge">
<title>Node1_1&#45;&gt;Node7_1</title>
<path fill="none" stroke="black" d="M1086.77,-386.24C1065.23,-396.48 1037.58,-408.65 1012,-417 981.13,-427.07 945.99,-435.09 916.43,-440.9"/>
<polygon fill="black" stroke="black" points="1088.41,-389.33 1095.9,-381.84 1085.37,-383.02 1088.41,-389.33"/>
<text text-anchor="middle" x="1128.5" y="-405.8" font-family="Times,serif" font-size="14.00">कालाधिकरणम्</text>
</g>
<!-- Node6_1 -->
<g id="node12" class="node">
<title>Node6_1</title>
<ellipse fill="#ffff00" stroke="#ffff00" cx="826" cy="-192" rx="100.18" ry="18"/>
<text text-anchor="middle" x="826" y="-188.3" font-family="Times,serif" font-size="14.00">विचित्र&#45;(6.1)</text>
</g>
<!-- Node6_1&#45;&gt;Node6_2 -->
<g id="edge6" class="edge">
<title>Node6_1&#45;&gt;Node6_2</title>
<path fill="none" stroke="black" d="M808.43,-218.75C799.05,-232.49 787.78,-249.01 779.52,-261.11"/>
<polygon fill="black" stroke="black" points="811.52,-220.43 814.26,-210.2 805.74,-216.49 811.52,-220.43"/>
<text text-anchor="middle" x="864.5" y="-231.8" font-family="Times,serif" font-size="14.00">कर्मधारयः</text>
</g>
<!-- Node9_1 -->
<g id="node13" class="node">
<title>Node9_1</title>
<ellipse fill="#ffff00" stroke="#ffff00" cx="453" cy="-105" rx="44.39" ry="18"/>
<text text-anchor="middle" x="453" y="-101.3" font-family="Times,serif" font-size="14.00">स&#45;(9.1)</text>
</g>
<!-- Node9_2 -->
<g id="node14" class="node">
<title>Node9_2</title>
<ellipse fill="#ffff00" stroke="#ffff00" cx="418" cy="-192" rx="72.29" ry="18"/>
<text text-anchor="middle" x="418" y="-188.3" font-family="Times,serif" font-size="14.00">केतक&#45;(9.2)</text>
</g>
<!-- Node9_1&#45;&gt;Node9_2 -->
<g id="edge9" class="edge">
<title>Node9_1&#45;&gt;Node9_2</title>
<path fill="none" stroke="black" d="M442.24,-132.13C436.64,-145.73 429.95,-161.98 425.02,-173.95"/>
<polygon fill="black" stroke="black" points="445.51,-133.37 446.09,-122.79 439.04,-130.71 445.51,-133.37"/>
<text text-anchor="middle" x="509.5" y="-144.8" font-family="Times,serif" font-size="14.00">बहुव्रीहिः</text>
</g>
<!-- Node9_2&#45;&gt;Node9_4 -->
<g id="edge10" class="edge">
<title>Node9_2&#45;&gt;Node9_4</title>
<path fill="none" stroke="black" d="M432.78,-218.65C438.96,-227.46 446.85,-236.68 456,-243 470.42,-252.96 487.7,-260.13 504.54,-265.28"/>
<polygon fill="black" stroke="black" points="435.59,-216.55 427.18,-210.1 429.73,-220.39 435.59,-216.55"/>
<text text-anchor="middle" x="520.5" y="-231.8" font-family="Times,serif" font-size="14.00">द्वन्द्वः</text>
</g>
<!-- Node9_3 -->
<g id="node15" class="node">
<title>Node9_3</title>
<ellipse fill="#ffff00" stroke="#ffff00" cx="608" cy="-192" rx="100.18" ry="18"/>
<text text-anchor="middle" x="608" y="-188.3" font-family="Times,serif" font-size="14.00">उद्दालक&#45;(9.3)</text>
</g>
<!-- Node9_3&#45;&gt;Node9_4 -->
<g id="edge11" class="edge">
<title>Node9_3&#45;&gt;Node9_4</title>
<path fill="none" stroke="black" d="M597.25,-219.87C591.89,-233.27 585.57,-249.08 580.87,-260.82"/>
<polygon fill="black" stroke="black" points="600.66,-220.79 601.12,-210.2 594.16,-218.19 600.66,-220.79"/>
<text text-anchor="middle" x="658.5" y="-231.8" font-family="Times,serif" font-size="14.00">द्वन्द्वः</text>
</g>
<!-- Node10_1 -->
<g id="node16" class="node">
<title>Node10_1</title>
<ellipse fill="#ffff00" stroke="#ffff00" cx="223" cy="-18" rx="68.79" ry="18"/>
<text text-anchor="middle" x="223" y="-14.3" font-family="Times,serif" font-size="14.00">महा&#45;(10.1)</text>
</g>
<!-- Node10_2 -->
<g id="node17" class="node">
<title>Node10_2</title>
<ellipse fill="#ffff00" stroke="#ffff00" cx="223" cy="-105" rx="77.99" ry="18"/>
<text text-anchor="middle" x="223" y="-101.3" font-family="Times,serif" font-size="14.00">अभ्र&#45;(10.2)</text>
</g>
<!-- Node10_1&#45;&gt;Node10_2 -->
<g id="edge13" class="edge">
<title>Node10_1&#45;&gt;Node10_2</title>
<path fill="none" stroke="black" d="M223,-46.27C223,-59.58 223,-75.19 223,-86.82"/>
<polygon fill="black" stroke="black" points="226.5,-46.2 223,-36.2 219.5,-46.2 226.5,-46.2"/>
<text text-anchor="middle" x="287.5" y="-57.8" font-family="Times,serif" font-size="14.00">कर्मधारयः</text>
</g>
<!-- Node10_3 -->
<g id="node18" class="node">
<title>Node10_3</title>
<ellipse fill="#ffff00" stroke="#ffff00" cx="258" cy="-192" rx="68.79" ry="18"/>
<text text-anchor="middle" x="258" y="-188.3" font-family="Times,serif" font-size="14.00">कूट&#45;(10.3)</text>
</g>
<!-- Node10_2&#45;&gt;Node10_3 -->
<g id="edge14" class="edge">
<title>Node10_2&#45;&gt;Node10_3</title>
<path fill="none" stroke="black" d="M219.22,-133.48C219.18,-141.01 220.11,-149.02 223,-156 225.89,-162.99 230.93,-169.31 236.3,-174.59"/>
<polygon fill="black" stroke="black" points="222.73,-133.49 219.81,-123.3 215.74,-133.08 222.73,-133.49"/>
<text text-anchor="middle" x="326.5" y="-144.8" font-family="Times,serif" font-size="14.00">षष्ठी_तत्पुरुषः</text>
</g>
<!-- Node10_3&#45;&gt;Node10_4 -->
<g id="edge15" class="edge">
<title>Node10_3&#45;&gt;Node10_4</title>
<path fill="none" stroke="black" d="M272.42,-219.09C279.92,-232.65 288.88,-248.85 295.5,-260.82"/>
<polygon fill="black" stroke="black" points="275.41,-217.26 267.51,-210.2 269.29,-220.65 275.41,-217.26"/>
<text text-anchor="middle" x="349.5" y="-231.8" font-family="Times,serif" font-size="14.00">कर्मधारयः</text>
</g>
<!-- Node11_1 -->
<g id="node19" class="node">
<title>Node11_1</title>
<ellipse fill="#ffff00" stroke="#ffff00" cx="100" cy="-192" rx="68.79" ry="18"/>
<text text-anchor="middle" x="100" y="-188.3" font-family="Times,serif" font-size="14.00">महा&#45;(11.1)</text>
</g>
<!-- Node11_1&#45;&gt;Node11_2 -->
<g id="edge17" class="edge">
<title>Node11_1&#45;&gt;Node11_2</title>
<path fill="none" stroke="black" d="M100,-220.27C100,-233.58 100,-249.19 100,-260.82"/>
<polygon fill="black" stroke="black" points="103.5,-220.2 100,-210.2 96.5,-220.2 103.5,-220.2"/>
<text text-anchor="middle" x="171.5" y="-231.8" font-family="Times,serif" font-size="14.00">बहुव्रीहिः</text>
</g>
</g>
</svg>
