<?xml version="1.0" encoding="UTF-8" standalone="no"?>
<!DOCTYPE svg PUBLIC "-//W3C//DTD SVG 1.1//EN"
 "http://www.w3.org/Graphics/SVG/1.1/DTD/svg11.dtd">
<!-- Generated by graphviz version 2.43.0 (0)
 -->
<!-- Title: G Pages: 1 -->
<svg width="1211pt" height="479pt"
 viewBox="0.00 0.00 1211.49 479.00" xmlns="http://www.w3.org/2000/svg" xmlns:xlink="http://www.w3.org/1999/xlink">
<g id="graph0" class="graph" transform="scale(1 1) rotate(0) translate(4 475)">
<title>G</title>
<polygon fill="#fffacd" stroke="transparent" points="-4,4 -4,-475 1207.49,-475 1207.49,4 -4,4"/>
<g id="clust1" class="cluster">
<title>cluster_1</title>
<polygon fill="#fffacd" stroke="black" points="328.49,-166 328.49,-305 732.49,-305 732.49,-166 328.49,-166"/>
</g>
<!-- Node3_3 -->
<g id="node1" class="node">
<title>Node3_3</title>
<ellipse fill="#93db70" stroke="#93db70" cx="636.49" cy="-192" rx="87.99" ry="18"/>
<text text-anchor="middle" x="636.49" y="-188.3" font-family="Times,serif" font-size="14.00">आयुतम्(3.3)</text>
</g>
<!-- Node2_1 -->
<g id="node2" class="node">
<title>Node2_1</title>
<ellipse fill="#93db70" stroke="#93db70" cx="548.49" cy="-279" rx="87.99" ry="18"/>
<text text-anchor="middle" x="548.49" y="-275.3" font-family="Times,serif" font-size="14.00">सागरम्(2.1)</text>
</g>
<!-- Node3_3&#45;&gt;Node2_1 -->
<g id="edge7" class="edge">
<title>Node3_3&#45;&gt;Node2_1</title>
<path fill="none" stroke="black" d="M611.82,-216.83C597.18,-230.97 578.97,-248.56 565.84,-261.24"/>
<polygon fill="black" stroke="black" points="614.35,-219.26 619.11,-209.79 609.48,-214.22 614.35,-219.26"/>
<text text-anchor="middle" x="654.99" y="-231.8" font-family="Times,serif" font-size="14.00">विशेषणम्</text>
</g>
<!-- Node5_1 -->
<g id="node7" class="node">
<title>Node5_1</title>
<ellipse fill="#ff99ff" stroke="#ff99ff" cx="548.49" cy="-366" rx="106.68" ry="18"/>
<text text-anchor="middle" x="548.49" y="-362.3" font-family="Times,serif" font-size="14.00">विक्रम्य(5.1)</text>
</g>
<!-- Node2_1&#45;&gt;Node5_1 -->
<g id="edge4" class="edge">
<title>Node2_1&#45;&gt;Node5_1</title>
<path fill="none" stroke="black" d="M548.49,-307.27C548.49,-320.58 548.49,-336.19 548.49,-347.82"/>
<polygon fill="black" stroke="black" points="551.99,-307.2 548.49,-297.2 544.99,-307.2 551.99,-307.2"/>
<text text-anchor="middle" x="577.49" y="-318.8" font-family="Times,serif" font-size="14.00">कर्म</text>
</g>
<!-- Node6_3 -->
<g id="node3" class="node">
<title>Node6_3</title>
<ellipse fill="#00bfff" stroke="#00bfff" cx="433.49" cy="-192" rx="96.68" ry="18"/>
<text text-anchor="middle" x="433.49" y="-188.3" font-family="Times,serif" font-size="14.00">मालिनम्(6.3)</text>
</g>
<!-- Node6_3&#45;&gt;Node2_1 -->
<g id="edge12" class="edge">
<title>Node6_3&#45;&gt;Node2_1</title>
<path fill="none" stroke="black" d="M447.06,-218.76C452.52,-227.32 459.45,-236.35 467.49,-243 477.77,-251.49 490.41,-258.25 502.63,-263.48"/>
<polygon fill="black" stroke="black" points="450.04,-216.93 441.91,-210.14 444.03,-220.52 450.04,-216.93"/>
<text text-anchor="middle" x="524.99" y="-231.8" font-family="Times,serif" font-size="14.00">विशेषणम्</text>
</g>
<!-- Node1_1 -->
<g id="node4" class="node">
<title>Node1_1</title>
<ellipse fill="#00bfff" stroke="#00bfff" cx="269.49" cy="-279" rx="50.89" ry="18"/>
<text text-anchor="middle" x="269.49" y="-275.3" font-family="Times,serif" font-size="14.00">सः(1.1)</text>
</g>
<!-- Node12_1 -->
<g id="node5" class="node">
<title>Node12_1</title>
<ellipse fill="#ff1975" stroke="#ff1975" cx="624.49" cy="-453" rx="84.49" ry="18"/>
<text text-anchor="middle" x="624.49" y="-449.3" font-family="Times,serif" font-size="14.00">ददर्श(12.1)</text>
</g>
<!-- Node1_1&#45;&gt;Node12_1 -->
<g id="edge1" class="edge">
<title>Node1_1&#45;&gt;Node12_1</title>
<path fill="none" stroke="black" d="M308.94,-298.86C316.04,-303.46 322.93,-308.85 328.49,-315 351.16,-340.08 334.51,-362.37 360.49,-384 411.32,-426.32 485.33,-442.7 542.06,-448.85"/>
<polygon fill="black" stroke="black" points="310.31,-295.6 299.93,-293.47 306.71,-301.61 310.31,-295.6"/>
<text text-anchor="middle" x="396.49" y="-362.3" font-family="Times,serif" font-size="14.00">कर्ता</text>
</g>
<!-- Node7_1 -->
<g id="node6" class="node">
<title>Node7_1</title>
<ellipse fill="#ff99ff" stroke="#ff99ff" cx="207.49" cy="-366" rx="87.99" ry="18"/>
<text text-anchor="middle" x="207.49" y="-362.3" font-family="Times,serif" font-size="14.00">निपत्य(7.1)</text>
</g>
<!-- Node1_1&#45;&gt;Node7_1 -->
<g id="edge2" class="edge">
<title>Node1_1&#45;&gt;Node7_1</title>
<path fill="none" stroke="black" stroke-dasharray="1,5" d="M257.32,-305.94C253.08,-313.95 248,-322.61 242.49,-330 237.77,-336.34 231.92,-342.64 226.37,-348.12"/>
<polygon fill="black" stroke="black" points="260.48,-307.44 261.88,-296.94 254.24,-304.28 260.48,-307.44"/>
<text text-anchor="middle" x="288.49" y="-318.8" font-family="Times,serif" font-size="14.00">कर्ता</text>
</g>
<!-- Node1_1&#45;&gt;Node5_1 -->
<g id="edge3" class="edge">
<title>Node1_1&#45;&gt;Node5_1</title>
<path fill="none" stroke="black" stroke-dasharray="1,5" d="M307.09,-298.21C312.85,-300.67 318.78,-303.02 324.49,-305 342.22,-311.13 347.33,-310.31 365.49,-315 409.66,-326.42 459.6,-340.12 496.14,-350.28"/>
<polygon fill="black" stroke="black" points="308.19,-294.87 297.63,-294.01 305.35,-301.27 308.19,-294.87"/>
<text text-anchor="middle" x="456.49" y="-318.8" font-family="Times,serif" font-size="14.00">कर्ता</text>
</g>
<!-- Node7_1&#45;&gt;Node12_1 -->
<g id="edge13" class="edge">
<title>Node7_1&#45;&gt;Node12_1</title>
<path fill="none" stroke="black" d="M201.49,-394.15C201.24,-402.44 202.81,-410.94 208.49,-417 230.68,-440.66 425.23,-448.34 540.25,-450.83"/>
<polygon fill="black" stroke="black" points="204.99,-394.31 202.62,-383.98 198.04,-393.53 204.99,-394.31"/>
<text text-anchor="middle" x="272.99" y="-405.8" font-family="Times,serif" font-size="14.00">पूर्वकालः</text>
</g>
<!-- Node5_1&#45;&gt;Node12_1 -->
<g id="edge9" class="edge">
<title>Node5_1&#45;&gt;Node12_1</title>
<path fill="none" stroke="black" d="M544.47,-394.12C544.59,-402.04 546.09,-410.35 550.49,-417 556.61,-426.24 565.87,-433.11 575.79,-438.18"/>
<polygon fill="black" stroke="black" points="547.97,-394.26 544.99,-384.1 540.98,-393.9 547.97,-394.26"/>
<text text-anchor="middle" x="614.99" y="-405.8" font-family="Times,serif" font-size="14.00">पूर्वकालः</text>
</g>
<!-- Node3_1 -->
<g id="node8" class="node">
<title>Node3_1</title>
<ellipse fill="#ffff00" stroke="#ffff00" cx="636.49" cy="-18" rx="72.29" ry="18"/>
<text text-anchor="middle" x="636.49" y="-14.3" font-family="Times,serif" font-size="14.00">दानव&#45;(3.1)</text>
</g>
<!-- Node3_2 -->
<g id="node9" class="node">
<title>Node3_2</title>
<ellipse fill="#ffff00" stroke="#ffff00" cx="636.49" cy="-105" rx="81.49" ry="18"/>
<text text-anchor="middle" x="636.49" y="-101.3" font-family="Times,serif" font-size="14.00">पन्नग&#45;(3.2)</text>
</g>
<!-- Node3_1&#45;&gt;Node3_2 -->
<g id="edge5" class="edge">
<title>Node3_1&#45;&gt;Node3_2</title>
<path fill="none" stroke="black" d="M636.49,-46.27C636.49,-59.58 636.49,-75.19 636.49,-86.82"/>
<polygon fill="black" stroke="black" points="639.99,-46.2 636.49,-36.2 632.99,-46.2 639.99,-46.2"/>
<text text-anchor="middle" x="700.99" y="-57.8" font-family="Times,serif" font-size="14.00">द्वन्द्वः</text>
</g>
<!-- Node3_2&#45;&gt;Node3_3 -->
<g id="edge6" class="edge">
<title>Node3_2&#45;&gt;Node3_3</title>
<path fill="none" stroke="black" d="M636.49,-133.27C636.49,-146.58 636.49,-162.19 636.49,-173.82"/>
<polygon fill="black" stroke="black" points="639.99,-133.2 636.49,-123.2 632.99,-133.2 639.99,-133.2"/>
<text text-anchor="middle" x="746.99" y="-144.8" font-family="Times,serif" font-size="14.00">तृतीया_तत्पुरुषः</text>
</g>
<!-- Node4_1 -->
<g id="node10" class="node">
<title>Node4_1</title>
<ellipse fill="#40e0d0" stroke="#40e0d0" cx="810.49" cy="-279" rx="69.59" ry="18"/>
<text text-anchor="middle" x="810.49" y="-275.3" font-family="Times,serif" font-size="14.00">बलेन(4.1)</text>
</g>
<!-- Node4_1&#45;&gt;Node5_1 -->
<g id="edge8" class="edge">
<title>Node4_1&#45;&gt;Node5_1</title>
<path fill="none" stroke="black" d="M760.55,-297C752.51,-299.7 744.28,-302.44 736.49,-305 689.13,-320.56 634.88,-337.81 596.86,-349.81"/>
<polygon fill="black" stroke="black" points="761.85,-300.26 770.21,-293.75 759.61,-293.62 761.85,-300.26"/>
<text text-anchor="middle" x="741.49" y="-318.8" font-family="Times,serif" font-size="14.00">करणम्</text>
</g>
<!-- Node6_1 -->
<g id="node11" class="node">
<title>Node6_1</title>
<ellipse fill="#ffff00" stroke="#ffff00" cx="433.49" cy="-18" rx="63.09" ry="18"/>
<text text-anchor="middle" x="433.49" y="-14.3" font-family="Times,serif" font-size="14.00">महा&#45;(6.1)</text>
</g>
<!-- Node6_2 -->
<g id="node12" class="node">
<title>Node6_2</title>
<ellipse fill="#ffff00" stroke="#ffff00" cx="433.49" cy="-105" rx="81.49" ry="18"/>
<text text-anchor="middle" x="433.49" y="-101.3" font-family="Times,serif" font-size="14.00">ऊर्मि&#45;(6.2)</text>
</g>
<!-- Node6_1&#45;&gt;Node6_2 -->
<g id="edge10" class="edge">
<title>Node6_1&#45;&gt;Node6_2</title>
<path fill="none" stroke="black" d="M433.49,-46.27C433.49,-59.58 433.49,-75.19 433.49,-86.82"/>
<polygon fill="black" stroke="black" points="436.99,-46.2 433.49,-36.2 429.99,-46.2 436.99,-46.2"/>
<text text-anchor="middle" x="497.99" y="-57.8" font-family="Times,serif" font-size="14.00">कर्मधारयः</text>
</g>
<!-- Node6_2&#45;&gt;Node6_3 -->
<g id="edge11" class="edge">
<title>Node6_2&#45;&gt;Node6_3</title>
<path fill="none" stroke="black" d="M433.49,-133.27C433.49,-146.58 433.49,-162.19 433.49,-173.82"/>
<polygon fill="black" stroke="black" points="436.99,-133.2 433.49,-123.2 429.99,-133.2 436.99,-133.2"/>
<text text-anchor="middle" x="504.99" y="-144.8" font-family="Times,serif" font-size="14.00">बहुव्रीहिः</text>
</g>
<!-- Node8_1 -->
<g id="node13" class="node">
<title>Node8_1</title>
<ellipse fill="#c6e2eb" stroke="#c6e2eb" cx="84.49" cy="-279" rx="69.59" ry="18"/>
<text text-anchor="middle" x="84.49" y="-275.3" font-family="Times,serif" font-size="14.00">तीरे(8.1)</text>
</g>
<!-- Node8_1&#45;&gt;Node7_1 -->
<g id="edge14" class="edge">
<title>Node8_1&#45;&gt;Node7_1</title>
<path fill="none" stroke="black" d="M76.41,-307.48C75.68,-315.42 76.66,-323.65 81.49,-330 89.32,-340.3 115.17,-348.37 141.43,-354.15"/>
<polygon fill="black" stroke="black" points="79.9,-307.85 78.17,-297.4 73,-306.64 79.9,-307.85"/>
<text text-anchor="middle" x="159.99" y="-318.8" font-family="Times,serif" font-size="14.00">देशाधिकरणम्</text>
</g>
<!-- Node9_1 -->
<g id="node14" class="node">
<title>Node9_1</title>
<ellipse fill="#ff99ff" stroke="#ff99ff" cx="714.49" cy="-366" rx="41.69" ry="18"/>
<text text-anchor="middle" x="714.49" y="-362.3" font-family="Times,serif" font-size="14.00">च(9.1)</text>
</g>
<!-- Node9_1&#45;&gt;Node12_1 -->
<g id="edge15" class="edge">
<title>Node9_1&#45;&gt;Node12_1</title>
<path fill="none" stroke="black" d="M699.78,-392.05C694.09,-400.54 687.11,-409.71 679.49,-417 672.05,-424.12 662.95,-430.6 654.31,-436"/>
<polygon fill="black" stroke="black" points="702.77,-393.86 705.21,-383.56 696.87,-390.09 702.77,-393.86"/>
<text text-anchor="middle" x="748.99" y="-405.8" font-family="Times,serif" font-size="14.00">सम्बन्धः</text>
</g>
<!-- Node10_1 -->
<g id="node15" class="node">
<title>Node10_1</title>
<ellipse fill="#ffff00" stroke="#ffff00" cx="84.49" cy="-105" rx="68.79" ry="18"/>
<text text-anchor="middle" x="84.49" y="-101.3" font-family="Times,serif" font-size="14.00">महा&#45;(10.1)</text>
</g>
<!-- Node10_2 -->
<g id="node16" class="node">
<title>Node10_2</title>
<ellipse fill="#87ceeb" stroke="#87ceeb" cx="84.49" cy="-192" rx="84.49" ry="18"/>
<text text-anchor="middle" x="84.49" y="-188.3" font-family="Times,serif" font-size="14.00">उदधेः(10.2)</text>
</g>
<!-- Node10_1&#45;&gt;Node10_2 -->
<g id="edge16" class="edge">
<title>Node10_1&#45;&gt;Node10_2</title>
<path fill="none" stroke="black" d="M84.49,-133.27C84.49,-146.58 84.49,-162.19 84.49,-173.82"/>
<polygon fill="black" stroke="black" points="87.99,-133.2 84.49,-123.2 80.99,-133.2 87.99,-133.2"/>
<text text-anchor="middle" x="148.99" y="-144.8" font-family="Times,serif" font-size="14.00">कर्मधारयः</text>
</g>
<!-- Node10_2&#45;&gt;Node8_1 -->
<g id="edge17" class="edge">
<title>Node10_2&#45;&gt;Node8_1</title>
<path fill="none" stroke="black" d="M84.49,-220.27C84.49,-233.58 84.49,-249.19 84.49,-260.82"/>
<polygon fill="black" stroke="black" points="87.99,-220.2 84.49,-210.2 80.99,-220.2 87.99,-220.2"/>
<text text-anchor="middle" x="177.49" y="-231.8" font-family="Times,serif" font-size="14.00">षष्ठीसम्बन्धः</text>
</g>
<!-- Node11_1 -->
<g id="node17" class="node">
<title>Node11_1</title>
<ellipse fill="#ff99ff" stroke="#ff99ff" cx="839.49" cy="-366" rx="65.79" ry="18"/>
<text text-anchor="middle" x="839.49" y="-362.3" font-family="Times,serif" font-size="14.00">तदा(11.1)</text>
</g>
<!-- Node11_1&#45;&gt;Node12_1 -->
<g id="edge18" class="edge">
<title>Node11_1&#45;&gt;Node12_1</title>
<path fill="none" stroke="black" d="M829.62,-393.27C825.07,-402.07 818.8,-411.13 810.49,-417 792.52,-429.71 742.4,-438.71 698.71,-444.39"/>
<polygon fill="black" stroke="black" points="832.89,-394.53 833.89,-383.98 826.53,-391.6 832.89,-394.53"/>
<text text-anchor="middle" x="901.99" y="-405.8" font-family="Times,serif" font-size="14.00">कालाधिकरणम्</text>
</g>
<!-- Node13_1 -->
<g id="node18" class="node">
<title>Node13_1</title>
<ellipse fill="#93db70" stroke="#93db70" cx="1025.49" cy="-366" rx="102.88" ry="18"/>
<text text-anchor="middle" x="1025.49" y="-362.3" font-family="Times,serif" font-size="14.00">लङ्काम्(13.1)</text>
</g>
<!-- Node13_1&#45;&gt;Node12_1 -->
<g id="edge19" class="edge">
<title>Node13_1&#45;&gt;Node12_1</title>
<path fill="none" stroke="black" d="M1010.8,-392.3C1004.02,-401.65 995.11,-411.33 984.49,-417 938.38,-441.62 799.97,-449.02 708.82,-451.19"/>
<polygon fill="black" stroke="black" points="1013.74,-394.19 1016.41,-383.93 1007.93,-390.29 1013.74,-394.19"/>
<text text-anchor="middle" x="1030.49" y="-405.8" font-family="Times,serif" font-size="14.00">कर्म</text>
</g>
<!-- Node14_1 -->
<g id="node19" class="node">
<title>Node14_1</title>
<ellipse fill="#93db70" stroke="#93db70" cx="1025.49" cy="-279" rx="121.58" ry="18"/>
<text text-anchor="middle" x="1025.49" y="-275.3" font-family="Times,serif" font-size="14.00">अमरावतीम्(14.1)</text>
</g>
<!-- Node14_1&#45;&gt;Node13_1 -->
<g id="edge20" class="edge">
<title>Node14_1&#45;&gt;Node13_1</title>
<path fill="none" stroke="black" d="M1025.49,-307.27C1025.49,-320.58 1025.49,-336.19 1025.49,-347.82"/>
<polygon fill="black" stroke="black" points="1028.99,-307.2 1025.49,-297.2 1021.99,-307.2 1028.99,-307.2"/>
<text text-anchor="middle" x="1075.49" y="-318.8" font-family="Times,serif" font-size="14.00">उपमानम्</text>
</g>
<!-- Node15_1 -->
<g id="node20" class="node">
<title>Node15_1</title>
<ellipse fill="#ff99ff" stroke="#ff99ff" cx="1025.49" cy="-192" rx="56.59" ry="18"/>
<text text-anchor="middle" x="1025.49" y="-188.3" font-family="Times,serif" font-size="14.00">इव(15.1)</text>
</g>
<!-- Node15_1&#45;&gt;Node14_1 -->
<g id="edge21" class="edge">
<title>Node15_1&#45;&gt;Node14_1</title>
<path fill="none" stroke="black" d="M1025.49,-220.27C1025.49,-233.58 1025.49,-249.19 1025.49,-260.82"/>
<polygon fill="black" stroke="black" points="1028.99,-220.2 1025.49,-210.2 1021.99,-220.2 1028.99,-220.2"/>
<text text-anchor="middle" x="1114.49" y="-231.8" font-family="Times,serif" font-size="14.00">उपमान_द्योतकः</text>
</g>
</g>
</svg>
