<?xml version="1.0" encoding="UTF-8" standalone="no"?>
<!DOCTYPE svg PUBLIC "-//W3C//DTD SVG 1.1//EN"
 "http://www.w3.org/Graphics/SVG/1.1/DTD/svg11.dtd">
<!-- Generated by graphviz version 2.43.0 (0)
 -->
<!-- Title: G Pages: 1 -->
<svg width="1787pt" height="392pt"
 viewBox="0.00 0.00 1787.14 392.00" xmlns="http://www.w3.org/2000/svg" xmlns:xlink="http://www.w3.org/1999/xlink">
<g id="graph0" class="graph" transform="scale(1 1) rotate(0) translate(4 388)">
<title>G</title>
<polygon fill="#fffacd" stroke="transparent" points="-4,4 -4,-388 1783.14,-388 1783.14,4 -4,4"/>
<g id="clust1" class="cluster">
<title>cluster_1</title>
<polygon fill="#fffacd" stroke="black" points="265.14,-79 265.14,-305 1343.14,-305 1343.14,-79 265.14,-79"/>
</g>
<!-- Node1_3 -->
<g id="node1" class="node">
<title>Node1_3</title>
<ellipse fill="#93db70" stroke="#93db70" cx="860.14" cy="-192" rx="106.68" ry="18"/>
<text text-anchor="middle" x="860.14" y="-188.3" font-family="Times,serif" font-size="14.00">आकीर्णाः(1.3)</text>
</g>
<!-- Node9_2 -->
<g id="node2" class="node">
<title>Node9_2</title>
<ellipse fill="#93db70" stroke="#93db70" cx="745.14" cy="-279" rx="87.99" ry="18"/>
<text text-anchor="middle" x="745.14" y="-275.3" font-family="Times,serif" font-size="14.00">आशयान्(9.2)</text>
</g>
<!-- Node1_3&#45;&gt;Node9_2 -->
<g id="edge3" class="edge">
<title>Node1_3&#45;&gt;Node9_2</title>
<path fill="none" stroke="black" d="M829.15,-215.9C809.67,-230.31 784.98,-248.55 767.43,-261.53"/>
<polygon fill="black" stroke="black" points="831.46,-218.55 837.42,-209.79 827.3,-212.92 831.46,-218.55"/>
<text text-anchor="middle" x="873.64" y="-231.8" font-family="Times,serif" font-size="14.00">समुच्चितः</text>
</g>
<!-- Node11_1 -->
<g id="node15" class="node">
<title>Node11_1</title>
<ellipse fill="#ff1975" stroke="#ff1975" cx="369.14" cy="-366" rx="90.98" ry="18"/>
<text text-anchor="middle" x="369.14" y="-362.3" font-family="Times,serif" font-size="14.00">(ददर्श)(11.1)</text>
</g>
<!-- Node9_2&#45;&gt;Node11_1 -->
<g id="edge14" class="edge">
<title>Node9_2&#45;&gt;Node11_1</title>
<path fill="none" stroke="black" d="M678.63,-295.04C607.08,-311.21 494.45,-336.67 426.61,-352.01"/>
<polygon fill="black" stroke="black" points="679.46,-298.44 688.45,-292.82 677.92,-291.61 679.46,-298.44"/>
<text text-anchor="middle" x="608.14" y="-318.8" font-family="Times,serif" font-size="14.00">कर्म</text>
</g>
<!-- Node2_1 -->
<g id="node3" class="node">
<title>Node2_1</title>
<ellipse fill="#93db70" stroke="#93db70" cx="1063.14" cy="-192" rx="78.79" ry="18"/>
<text text-anchor="middle" x="1063.14" y="-188.3" font-family="Times,serif" font-size="14.00">वापीः(2.1)</text>
</g>
<!-- Node2_1&#45;&gt;Node9_2 -->
<g id="edge4" class="edge">
<title>Node2_1&#45;&gt;Node9_2</title>
<path fill="none" stroke="black" d="M1021.84,-212.68C998.81,-222.97 969.38,-235.06 942.14,-243 901.79,-254.77 855.58,-263.23 818.05,-268.89"/>
<polygon fill="black" stroke="black" points="1023.3,-215.86 1030.96,-208.54 1020.41,-209.48 1023.3,-215.86"/>
<text text-anchor="middle" x="1046.64" y="-231.8" font-family="Times,serif" font-size="14.00">समुच्चितः</text>
</g>
<!-- Node3_3 -->
<g id="node4" class="node">
<title>Node3_3</title>
<ellipse fill="#93db70" stroke="#93db70" cx="1247.14" cy="-192" rx="87.99" ry="18"/>
<text text-anchor="middle" x="1247.14" y="-188.3" font-family="Times,serif" font-size="14.00">आवृताः(3.3)</text>
</g>
<!-- Node3_3&#45;&gt;Node9_2 -->
<g id="edge7" class="edge">
<title>Node3_3&#45;&gt;Node9_2</title>
<path fill="none" stroke="black" d="M1204.14,-212.65C1178.77,-223.38 1145.73,-235.9 1115.14,-243 1019.93,-265.11 907.82,-273.31 832.17,-276.32"/>
<polygon fill="black" stroke="black" points="1205.66,-215.8 1213.46,-208.63 1202.9,-209.37 1205.66,-215.8"/>
<text text-anchor="middle" x="1227.64" y="-231.8" font-family="Times,serif" font-size="14.00">समुच्चितः</text>
</g>
<!-- Node4_1 -->
<g id="node5" class="node">
<title>Node4_1</title>
<ellipse fill="#93db70" stroke="#93db70" cx="389.14" cy="-192" rx="115.88" ry="18"/>
<text text-anchor="middle" x="389.14" y="-188.3" font-family="Times,serif" font-size="14.00">आक्रीडान्(4.1)</text>
</g>
<!-- Node4_1&#45;&gt;Node9_2 -->
<g id="edge8" class="edge">
<title>Node4_1&#45;&gt;Node9_2</title>
<path fill="none" stroke="black" d="M433.18,-213.33C457,-223.59 487.19,-235.43 515.14,-243 564.95,-256.48 622.32,-265.23 667.31,-270.6"/>
<polygon fill="black" stroke="black" points="434.29,-209.99 423.72,-209.19 431.48,-216.4 434.29,-209.99"/>
<text text-anchor="middle" x="579.64" y="-231.8" font-family="Times,serif" font-size="14.00">समुच्चितः</text>
</g>
<!-- Node5_1 -->
<g id="node6" class="node">
<title>Node5_1</title>
<ellipse fill="#93db70" stroke="#93db70" cx="629.14" cy="-192" rx="106.68" ry="18"/>
<text text-anchor="middle" x="629.14" y="-188.3" font-family="Times,serif" font-size="14.00">विविधान्(5.1)</text>
</g>
<!-- Node5_1&#45;&gt;Node9_2 -->
<g id="edge9" class="edge">
<title>Node5_1&#45;&gt;Node9_2</title>
<path fill="none" stroke="black" d="M642.31,-219.08C647.57,-227.56 654.27,-236.46 662.14,-243 672.61,-251.69 685.55,-258.52 698.07,-263.75"/>
<polygon fill="black" stroke="black" points="645.21,-217.09 637.18,-210.18 639.14,-220.59 645.21,-217.09"/>
<text text-anchor="middle" x="726.64" y="-231.8" font-family="Times,serif" font-size="14.00">समुच्चितः</text>
</g>
<!-- Node6_1 -->
<g id="node7" class="node">
<title>Node6_1</title>
<ellipse fill="#93db70" stroke="#93db70" cx="604.14" cy="-105" rx="96.68" ry="18"/>
<text text-anchor="middle" x="604.14" y="-101.3" font-family="Times,serif" font-size="14.00">रम्यान्(6.1)</text>
</g>
<!-- Node6_1&#45;&gt;Node4_1 -->
<g id="edge10" class="edge">
<title>Node6_1&#45;&gt;Node4_1</title>
<path fill="none" stroke="black" d="M566.22,-127.11C548.08,-136.7 525.85,-147.72 505.14,-156 486,-163.65 464.52,-170.58 445.29,-176.21"/>
<polygon fill="black" stroke="black" points="568.14,-130.06 575.31,-122.25 564.84,-123.88 568.14,-130.06"/>
<text text-anchor="middle" x="595.64" y="-144.8" font-family="Times,serif" font-size="14.00">विशेषणम्</text>
</g>
<!-- Node7_1 -->
<g id="node8" class="node">
<title>Node7_1</title>
<ellipse fill="#93db70" stroke="#93db70" cx="383.14" cy="-105" rx="106.68" ry="18"/>
<text text-anchor="middle" x="383.14" y="-101.3" font-family="Times,serif" font-size="14.00">विविधान्(7.1)</text>
</g>
<!-- Node7_1&#45;&gt;Node4_1 -->
<g id="edge11" class="edge">
<title>Node7_1&#45;&gt;Node4_1</title>
<path fill="none" stroke="black" d="M385.07,-133.27C386.01,-146.58 387.11,-162.19 387.93,-173.82"/>
<polygon fill="black" stroke="black" points="388.55,-132.93 384.36,-123.2 381.57,-133.42 388.55,-132.93"/>
<text text-anchor="middle" x="443.64" y="-144.8" font-family="Times,serif" font-size="14.00">विशेषणम्</text>
</g>
<!-- Node1_1 -->
<g id="node9" class="node">
<title>Node1_1</title>
<ellipse fill="#ffff00" stroke="#ffff00" cx="1451.14" cy="-18" rx="63.09" ry="18"/>
<text text-anchor="middle" x="1451.14" y="-14.3" font-family="Times,serif" font-size="14.00">हंस&#45;(1.1)</text>
</g>
<!-- Node1_2 -->
<g id="node10" class="node">
<title>Node1_2</title>
<ellipse fill="#ffff00" stroke="#ffff00" cx="1451.14" cy="-105" rx="100.18" ry="18"/>
<text text-anchor="middle" x="1451.14" y="-101.3" font-family="Times,serif" font-size="14.00">कारण्डव&#45;(1.2)</text>
</g>
<!-- Node1_1&#45;&gt;Node1_2 -->
<g id="edge1" class="edge">
<title>Node1_1&#45;&gt;Node1_2</title>
<path fill="none" stroke="black" d="M1451.14,-46.27C1451.14,-59.58 1451.14,-75.19 1451.14,-86.82"/>
<polygon fill="black" stroke="black" points="1454.64,-46.2 1451.14,-36.2 1447.64,-46.2 1454.64,-46.2"/>
<text text-anchor="middle" x="1515.64" y="-57.8" font-family="Times,serif" font-size="14.00">द्वन्द्वः</text>
</g>
<!-- Node1_2&#45;&gt;Node1_3 -->
<g id="edge2" class="edge">
<title>Node1_2&#45;&gt;Node1_3</title>
<path fill="none" stroke="black" d="M1370.88,-119.46C1362.86,-120.7 1354.85,-121.9 1347.14,-123 1281.54,-132.35 1264.82,-132.17 1199.14,-141 1099.41,-154.41 1074.7,-159.31 975.14,-174 962.96,-175.8 950.06,-177.7 937.47,-179.56"/>
<polygon fill="black" stroke="black" points="1371.66,-122.88 1381,-117.87 1370.57,-115.96 1371.66,-122.88"/>
<text text-anchor="middle" x="1309.64" y="-144.8" font-family="Times,serif" font-size="14.00">तृतीया_तत्पुरुषः</text>
</g>
<!-- Node3_1 -->
<g id="node11" class="node">
<title>Node3_1</title>
<ellipse fill="#ffff00" stroke="#ffff00" cx="1650.14" cy="-18" rx="72.29" ry="18"/>
<text text-anchor="middle" x="1650.14" y="-14.3" font-family="Times,serif" font-size="14.00">पद्म&#45;(3.1)</text>
</g>
<!-- Node3_2 -->
<g id="node12" class="node">
<title>Node3_2</title>
<ellipse fill="#ffff00" stroke="#ffff00" cx="1650.14" cy="-105" rx="81.49" ry="18"/>
<text text-anchor="middle" x="1650.14" y="-101.3" font-family="Times,serif" font-size="14.00">उत्पल&#45;(3.2)</text>
</g>
<!-- Node3_1&#45;&gt;Node3_2 -->
<g id="edge5" class="edge">
<title>Node3_1&#45;&gt;Node3_2</title>
<path fill="none" stroke="black" d="M1650.14,-46.27C1650.14,-59.58 1650.14,-75.19 1650.14,-86.82"/>
<polygon fill="black" stroke="black" points="1653.64,-46.2 1650.14,-36.2 1646.64,-46.2 1653.64,-46.2"/>
<text text-anchor="middle" x="1714.64" y="-57.8" font-family="Times,serif" font-size="14.00">द्वन्द्वः</text>
</g>
<!-- Node3_2&#45;&gt;Node3_3 -->
<g id="edge6" class="edge">
<title>Node3_2&#45;&gt;Node3_3</title>
<path fill="none" stroke="black" d="M1583.14,-120.13C1505.79,-136.45 1379.77,-163.03 1306.03,-178.58"/>
<polygon fill="black" stroke="black" points="1584.2,-123.49 1593.26,-118 1582.75,-116.64 1584.2,-123.49"/>
<text text-anchor="middle" x="1582.64" y="-144.8" font-family="Times,serif" font-size="14.00">तृतीया_तत्पुरुषः</text>
</g>
<!-- Node8_1 -->
<g id="node13" class="node">
<title>Node8_1</title>
<ellipse fill="#ff99ff" stroke="#ff99ff" cx="214.14" cy="-192" rx="41.69" ry="18"/>
<text text-anchor="middle" x="214.14" y="-188.3" font-family="Times,serif" font-size="14.00">च(8.1)</text>
</g>
<!-- Node8_1&#45;&gt;Node9_2 -->
<g id="edge12" class="edge">
<title>Node8_1&#45;&gt;Node9_2</title>
<path fill="none" stroke="black" d="M231.06,-217.79C239,-227.38 249.33,-237.38 261.14,-243 296.06,-259.62 529.91,-270.41 659.34,-275.17"/>
<polygon fill="black" stroke="black" points="233.6,-215.36 224.72,-209.59 228.07,-219.64 233.6,-215.36"/>
<text text-anchor="middle" x="364.64" y="-231.8" font-family="Times,serif" font-size="14.00">समुच्चय_द्योतकः</text>
</g>
<!-- Node9_1 -->
<g id="node14" class="node">
<title>Node9_1</title>
<ellipse fill="#ffff00" stroke="#ffff00" cx="1407.14" cy="-192" rx="53.89" ry="18"/>
<text text-anchor="middle" x="1407.14" y="-188.3" font-family="Times,serif" font-size="14.00">जल&#45;(9.1)</text>
</g>
<!-- Node9_1&#45;&gt;Node9_2 -->
<g id="edge13" class="edge">
<title>Node9_1&#45;&gt;Node9_2</title>
<path fill="none" stroke="black" d="M1372.22,-212.66C1350.93,-223.63 1322.77,-236.39 1296.14,-243 1210.73,-264.2 964.36,-273 831.88,-276.27"/>
<polygon fill="black" stroke="black" points="1373.98,-215.68 1381.2,-207.93 1370.72,-209.49 1373.98,-215.68"/>
<text text-anchor="middle" x="1440.64" y="-231.8" font-family="Times,serif" font-size="14.00">षष्ठी_तत्पुरुषः</text>
</g>
<!-- Node10_1 -->
<g id="node16" class="node">
<title>Node10_1</title>
<ellipse fill="#ffff00" stroke="#ffff00" cx="72.14" cy="-192" rx="72.29" ry="18"/>
<text text-anchor="middle" x="72.14" y="-188.3" font-family="Times,serif" font-size="14.00">(कपि&#45;(10.1)</text>
</g>
<!-- Node10_2 -->
<g id="node17" class="node">
<title>Node10_2</title>
<ellipse fill="#00bfff" stroke="#00bfff" cx="111.14" cy="-279" rx="106.68" ry="18"/>
<text text-anchor="middle" x="111.14" y="-275.3" font-family="Times,serif" font-size="14.00">कुञ्जरः)(10.2)</text>
</g>
<!-- Node10_1&#45;&gt;Node10_2 -->
<g id="edge15" class="edge">
<title>Node10_1&#45;&gt;Node10_2</title>
<path fill="none" stroke="black" d="M68.82,-220.6C68.93,-228.13 70.04,-236.11 73.14,-243 76.24,-249.87 81.39,-256 86.92,-261.13"/>
<polygon fill="black" stroke="black" points="72.32,-220.53 69.22,-210.4 65.33,-220.26 72.32,-220.53"/>
<text text-anchor="middle" x="137.64" y="-231.8" font-family="Times,serif" font-size="14.00">कर्मधारयः</text>
</g>
<!-- Node10_2&#45;&gt;Node11_1 -->
<g id="edge16" class="edge">
<title>Node10_2&#45;&gt;Node11_1</title>
<path fill="none" stroke="black" d="M167.31,-298.51C214.42,-314.03 280.81,-335.9 324.39,-350.26"/>
<polygon fill="black" stroke="black" points="168.16,-295.1 157.57,-295.29 165.97,-301.75 168.16,-295.1"/>
<text text-anchor="middle" x="292.14" y="-318.8" font-family="Times,serif" font-size="14.00">कर्ता</text>
</g>
</g>
</svg>
