<?xml version="1.0" encoding="UTF-8" standalone="no"?>
<!DOCTYPE svg PUBLIC "-//W3C//DTD SVG 1.1//EN"
 "http://www.w3.org/Graphics/SVG/1.1/DTD/svg11.dtd">
<!-- Generated by graphviz version 2.43.0 (0)
 -->
<!-- Title: G Pages: 1 -->
<svg width="1243pt" height="305pt"
 viewBox="0.00 0.00 1242.84 305.00" xmlns="http://www.w3.org/2000/svg" xmlns:xlink="http://www.w3.org/1999/xlink">
<g id="graph0" class="graph" transform="scale(1 1) rotate(0) translate(4 301)">
<title>G</title>
<polygon fill="#fffacd" stroke="transparent" points="-4,4 -4,-301 1238.84,-301 1238.84,4 -4,4"/>
<!-- Node1_1 -->
<g id="node1" class="node">
<title>Node1_1</title>
<ellipse fill="#ff99ff" stroke="#ff99ff" cx="372.84" cy="-105" rx="78.79" ry="18"/>
<text text-anchor="middle" x="372.84" y="-101.3" font-family="Times,serif" font-size="14.00">आगत्य(1.1)</text>
</g>
<!-- Node5_1 -->
<g id="node2" class="node">
<title>Node5_1</title>
<ellipse fill="#ff1975" stroke="#ff1975" cx="236.84" cy="-192" rx="124.58" ry="18"/>
<text text-anchor="middle" x="236.84" y="-188.3" font-family="Times,serif" font-size="14.00">भविष्यन्ति(5.1)</text>
</g>
<!-- Node1_1&#45;&gt;Node5_1 -->
<g id="edge1" class="edge">
<title>Node1_1&#45;&gt;Node5_1</title>
<path fill="none" stroke="black" d="M364.95,-132.36C361.25,-140.91 356.04,-149.78 348.84,-156 337.9,-165.46 324.41,-172.37 310.64,-177.41"/>
<polygon fill="black" stroke="black" points="368.22,-133.6 368.49,-123.01 361.67,-131.12 368.22,-133.6"/>
<text text-anchor="middle" x="425.34" y="-144.8" font-family="Times,serif" font-size="14.00">पूर्वकालः</text>
</g>
<!-- Node2_1 -->
<g id="node3" class="node">
<title>Node2_1</title>
<ellipse fill="#ff99ff" stroke="#ff99ff" cx="253.84" cy="-18" rx="59.59" ry="18"/>
<text text-anchor="middle" x="253.84" y="-14.3" font-family="Times,serif" font-size="14.00">अपि(2.1)</text>
</g>
<!-- Node2_1&#45;&gt;Node1_1 -->
<g id="edge2" class="edge">
<title>Node2_1&#45;&gt;Node1_1</title>
<path fill="none" stroke="black" d="M253.51,-46.18C254.69,-54.33 257.36,-62.75 262.84,-69 274.15,-81.88 290.17,-90.06 306.5,-95.24"/>
<polygon fill="black" stroke="black" points="257,-45.88 252.71,-36.19 250.02,-46.44 257,-45.88"/>
<text text-anchor="middle" x="320.34" y="-57.8" font-family="Times,serif" font-size="14.00">सम्बन्धः</text>
</g>
<!-- Node3_1 -->
<g id="node4" class="node">
<title>Node3_1</title>
<ellipse fill="#ff99ff" stroke="#ff99ff" cx="391.84" cy="-18" rx="50.89" ry="18"/>
<text text-anchor="middle" x="391.84" y="-14.3" font-family="Times,serif" font-size="14.00">इह(3.1)</text>
</g>
<!-- Node3_1&#45;&gt;Node1_1 -->
<g id="edge3" class="edge">
<title>Node3_1&#45;&gt;Node1_1</title>
<path fill="none" stroke="black" d="M385.75,-46.27C382.77,-59.58 379.28,-75.19 376.68,-86.82"/>
<polygon fill="black" stroke="black" points="389.23,-46.72 388,-36.2 382.4,-45.2 389.23,-46.72"/>
<text text-anchor="middle" x="462.34" y="-57.8" font-family="Times,serif" font-size="14.00">देशाधिकरणम्</text>
</g>
<!-- Node4_1 -->
<g id="node5" class="node">
<title>Node4_1</title>
<ellipse fill="#00bfff" stroke="#00bfff" cx="571.84" cy="-18" rx="69.59" ry="18"/>
<text text-anchor="middle" x="571.84" y="-14.3" font-family="Times,serif" font-size="14.00">हरयः(4.1)</text>
</g>
<!-- Node4_1&#45;&gt;Node1_1 -->
<g id="edge4" class="edge">
<title>Node4_1&#45;&gt;Node1_1</title>
<path fill="none" stroke="black" d="M562.66,-45.83C558.48,-54.42 552.67,-63.19 544.84,-69 528.38,-81.21 481.74,-90.25 441.17,-96.08"/>
<polygon fill="black" stroke="black" points="565.98,-46.96 566.71,-36.39 559.55,-44.2 565.98,-46.96"/>
<text text-anchor="middle" x="594.84" y="-57.8" font-family="Times,serif" font-size="14.00">कर्ता</text>
</g>
<!-- Node6_1 -->
<g id="node6" class="node">
<title>Node6_1</title>
<ellipse fill="#ffff00" stroke="#ffff00" cx="87.84" cy="-18" rx="72.29" ry="18"/>
<text text-anchor="middle" x="87.84" y="-14.3" font-family="Times,serif" font-size="14.00">निर्&#45;(6.1)</text>
</g>
<!-- Node6_2 -->
<g id="node7" class="node">
<title>Node6_2</title>
<ellipse fill="#00bfff" stroke="#00bfff" cx="96.84" cy="-105" rx="96.68" ry="18"/>
<text text-anchor="middle" x="96.84" y="-101.3" font-family="Times,serif" font-size="14.00">अर्थकाः(6.2)</text>
</g>
<!-- Node6_1&#45;&gt;Node6_2 -->
<g id="edge5" class="edge">
<title>Node6_1&#45;&gt;Node6_2</title>
<path fill="none" stroke="black" d="M87.38,-46.41C87.53,-53.77 87.94,-61.7 88.84,-69 89.56,-74.82 90.83,-81.08 92.14,-86.68"/>
<polygon fill="black" stroke="black" points="90.88,-46.17 87.32,-36.19 83.88,-46.21 90.88,-46.17"/>
<text text-anchor="middle" x="160.34" y="-57.8" font-family="Times,serif" font-size="14.00">बहुव्रीहिः</text>
</g>
<!-- Node6_2&#45;&gt;Node5_1 -->
<g id="edge6" class="edge">
<title>Node6_2&#45;&gt;Node5_1</title>
<path fill="none" stroke="black" d="M93.92,-133.46C94.45,-141.52 96.55,-149.83 101.84,-156 109.76,-165.24 132.26,-172.62 156.69,-178.17"/>
<polygon fill="black" stroke="black" points="97.42,-133.22 93.98,-123.19 90.42,-133.17 97.42,-133.22"/>
<text text-anchor="middle" x="223.34" y="-144.8" font-family="Times,serif" font-size="14.00">कर्तृसमानाधिकरणम्</text>
</g>
<!-- Node7_1 -->
<g id="node8" class="node">
<title>Node7_1</title>
<ellipse fill="#ff99ff" stroke="#ff99ff" cx="420.84" cy="-192" rx="41.69" ry="18"/>
<text text-anchor="middle" x="420.84" y="-188.3" font-family="Times,serif" font-size="14.00">न(7.1)</text>
</g>
<!-- Node12_1 -->
<g id="node9" class="node">
<title>Node12_1</title>
<ellipse fill="#ff1975" stroke="#ff1975" cx="724.84" cy="-279" rx="84.49" ry="18"/>
<text text-anchor="middle" x="724.84" y="-275.3" font-family="Times,serif" font-size="14.00">शक्या(12.1)</text>
</g>
<!-- Node7_1&#45;&gt;Node12_1 -->
<g id="edge7" class="edge">
<title>Node7_1&#45;&gt;Node12_1</title>
<path fill="none" stroke="black" d="M433.08,-218.65C438.73,-227.79 446.33,-237.23 455.84,-243 486.45,-261.55 575.55,-270.41 642.88,-274.55"/>
<polygon fill="black" stroke="black" points="436.03,-216.76 428.07,-209.76 429.93,-220.19 436.03,-216.76"/>
<text text-anchor="middle" x="520.34" y="-231.8" font-family="Times,serif" font-size="14.00">प्रतिषेधः</text>
</g>
<!-- Node8_1 -->
<g id="node10" class="node">
<title>Node8_1</title>
<ellipse fill="#ff99ff" stroke="#ff99ff" cx="558.84" cy="-192" rx="50.89" ry="18"/>
<text text-anchor="middle" x="558.84" y="-188.3" font-family="Times,serif" font-size="14.00">हि(8.1)</text>
</g>
<!-- Node8_1&#45;&gt;Node12_1 -->
<g id="edge8" class="edge">
<title>Node8_1&#45;&gt;Node12_1</title>
<path fill="none" stroke="black" d="M577.1,-217.38C585.04,-226.54 595.01,-236.34 605.84,-243 623.27,-253.71 644.15,-261.3 663.52,-266.6"/>
<polygon fill="black" stroke="black" points="579.73,-215.07 570.67,-209.59 574.33,-219.53 579.73,-215.07"/>
<text text-anchor="middle" x="663.34" y="-231.8" font-family="Times,serif" font-size="14.00">सम्बन्धः</text>
</g>
<!-- Node9_1 -->
<g id="node11" class="node">
<title>Node9_1</title>
<ellipse fill="#40e0d0" stroke="#40e0d0" cx="724.84" cy="-192" rx="96.68" ry="18"/>
<text text-anchor="middle" x="724.84" y="-188.3" font-family="Times,serif" font-size="14.00">युद्धेन(9.1)</text>
</g>
<!-- Node9_1&#45;&gt;Node12_1 -->
<g id="edge9" class="edge">
<title>Node9_1&#45;&gt;Node12_1</title>
<path fill="none" stroke="black" d="M724.84,-220.27C724.84,-233.58 724.84,-249.19 724.84,-260.82"/>
<polygon fill="black" stroke="black" points="728.34,-220.2 724.84,-210.2 721.34,-220.2 728.34,-220.2"/>
<text text-anchor="middle" x="760.84" y="-231.8" font-family="Times,serif" font-size="14.00">करणम्</text>
</g>
<!-- Node10_1 -->
<g id="node12" class="node">
<title>Node10_1</title>
<ellipse fill="#ff99ff" stroke="#ff99ff" cx="724.84" cy="-105" rx="56.59" ry="18"/>
<text text-anchor="middle" x="724.84" y="-101.3" font-family="Times,serif" font-size="14.00">वै(10.1)</text>
</g>
<!-- Node10_1&#45;&gt;Node9_1 -->
<g id="edge10" class="edge">
<title>Node10_1&#45;&gt;Node9_1</title>
<path fill="none" stroke="black" d="M724.84,-133.27C724.84,-146.58 724.84,-162.19 724.84,-173.82"/>
<polygon fill="black" stroke="black" points="728.34,-133.2 724.84,-123.2 721.34,-133.2 728.34,-133.2"/>
<text text-anchor="middle" x="782.34" y="-144.8" font-family="Times,serif" font-size="14.00">सम्बन्धः</text>
</g>
<!-- Node11_1 -->
<g id="node13" class="node">
<title>Node11_1</title>
<ellipse fill="#00bfff" stroke="#00bfff" cx="923.84" cy="-192" rx="84.49" ry="18"/>
<text text-anchor="middle" x="923.84" y="-188.3" font-family="Times,serif" font-size="14.00">लङ्का(11.1)</text>
</g>
<!-- Node11_1&#45;&gt;Node12_1 -->
<g id="edge11" class="edge">
<title>Node11_1&#45;&gt;Node12_1</title>
<path fill="none" stroke="black" d="M878.59,-212.33C842.97,-227.54 793.97,-248.47 760.95,-262.58"/>
<polygon fill="black" stroke="black" points="879.98,-215.54 887.8,-208.39 877.23,-209.1 879.98,-215.54"/>
<text text-anchor="middle" x="865.84" y="-231.8" font-family="Times,serif" font-size="14.00">कर्म</text>
</g>
<!-- Node13_1 -->
<g id="node14" class="node">
<title>Node13_1</title>
<ellipse fill="#ff99ff" stroke="#ff99ff" cx="1119.84" cy="-192" rx="93.68" ry="18"/>
<text text-anchor="middle" x="1119.84" y="-188.3" font-family="Times,serif" font-size="14.00">जेतुम्(13.1)</text>
</g>
<!-- Node13_1&#45;&gt;Node12_1 -->
<g id="edge12" class="edge">
<title>Node13_1&#45;&gt;Node12_1</title>
<path fill="none" stroke="black" d="M1052.74,-208.62C1008.98,-218.7 950.59,-231.94 898.84,-243 861.02,-251.08 818.47,-259.65 784.91,-266.29"/>
<polygon fill="black" stroke="black" points="1053.73,-211.98 1062.69,-206.33 1052.16,-205.16 1053.73,-211.98"/>
<text text-anchor="middle" x="1030.34" y="-231.8" font-family="Times,serif" font-size="14.00">प्रयोजनम्</text>
</g>
<!-- Node14_1 -->
<g id="node15" class="node">
<title>Node14_1</title>
<ellipse fill="#40e0d0" stroke="#40e0d0" cx="1119.84" cy="-105" rx="84.49" ry="18"/>
<text text-anchor="middle" x="1119.84" y="-101.3" font-family="Times,serif" font-size="14.00">सुरैः(14.1)</text>
</g>
<!-- Node14_1&#45;&gt;Node13_1 -->
<g id="edge13" class="edge">
<title>Node14_1&#45;&gt;Node13_1</title>
<path fill="none" stroke="black" d="M1119.84,-133.27C1119.84,-146.58 1119.84,-162.19 1119.84,-173.82"/>
<polygon fill="black" stroke="black" points="1123.34,-133.2 1119.84,-123.2 1116.34,-133.2 1123.34,-133.2"/>
<text text-anchor="middle" x="1155.84" y="-144.8" font-family="Times,serif" font-size="14.00">करणम्</text>
</g>
<!-- Node15_1 -->
<g id="node16" class="node">
<title>Node15_1</title>
<ellipse fill="#ff99ff" stroke="#ff99ff" cx="1119.84" cy="-18" rx="65.79" ry="18"/>
<text text-anchor="middle" x="1119.84" y="-14.3" font-family="Times,serif" font-size="14.00">अपि(15.1)</text>
</g>
<!-- Node15_1&#45;&gt;Node14_1 -->
<g id="edge14" class="edge">
<title>Node15_1&#45;&gt;Node14_1</title>
<path fill="none" stroke="black" d="M1119.84,-46.27C1119.84,-59.58 1119.84,-75.19 1119.84,-86.82"/>
<polygon fill="black" stroke="black" points="1123.34,-46.2 1119.84,-36.2 1116.34,-46.2 1123.34,-46.2"/>
<text text-anchor="middle" x="1177.34" y="-57.8" font-family="Times,serif" font-size="14.00">सम्बन्धः</text>
</g>
</g>
</svg>
