<?xml version="1.0" encoding="UTF-8" standalone="no"?>
<!DOCTYPE svg PUBLIC "-//W3C//DTD SVG 1.1//EN"
 "http://www.w3.org/Graphics/SVG/1.1/DTD/svg11.dtd">
<!-- Generated by graphviz version 2.43.0 (0)
 -->
<!-- Title: G Pages: 1 -->
<svg width="1457pt" height="321pt"
 viewBox="0.00 0.00 1457.00 321.00" xmlns="http://www.w3.org/2000/svg" xmlns:xlink="http://www.w3.org/1999/xlink">
<g id="graph0" class="graph" transform="scale(1 1) rotate(0) translate(4 317)">
<title>G</title>
<polygon fill="#fffacd" stroke="transparent" points="-4,4 -4,-317 1453,-317 1453,4 -4,4"/>
<g id="clust1" class="cluster">
<title>cluster_1</title>
<polygon fill="#fffacd" stroke="black" points="525,-8 525,-234 966,-234 966,-8 525,-8"/>
</g>
<g id="clust2" class="cluster">
<title>cluster_2</title>
<polygon fill="#fffacd" stroke="black" points="8,-95 8,-234 386,-234 386,-95 8,-95"/>
</g>
<!-- Node3_2 -->
<g id="node1" class="node">
<title>Node3_2</title>
<ellipse fill="#93db70" stroke="#93db70" cx="658" cy="-121" rx="124.58" ry="18"/>
<text text-anchor="middle" x="658" y="-117.3" font-family="Times,serif" font-size="14.00">सञ्छन्नान्(3.2)</text>
</g>
<!-- Node1_1 -->
<g id="node2" class="node">
<title>Node1_1</title>
<ellipse fill="#93db70" stroke="#93db70" cx="644" cy="-208" rx="87.99" ry="18"/>
<text text-anchor="middle" x="644" y="-204.3" font-family="Times,serif" font-size="14.00">शैलान्(1.1)</text>
</g>
<!-- Node3_2&#45;&gt;Node1_1 -->
<g id="edge4" class="edge">
<title>Node3_2&#45;&gt;Node1_1</title>
<path fill="none" stroke="black" d="M653.51,-149.27C651.32,-162.58 648.74,-178.19 646.83,-189.82"/>
<polygon fill="black" stroke="black" points="657,-149.64 655.17,-139.2 650.09,-148.5 657,-149.64"/>
<text text-anchor="middle" x="709.5" y="-160.8" font-family="Times,serif" font-size="14.00">विशेषणम्</text>
</g>
<!-- Node7_1 -->
<g id="node8" class="node">
<title>Node7_1</title>
<ellipse fill="#ff1975" stroke="#ff1975" cx="455" cy="-295" rx="115.88" ry="18"/>
<text text-anchor="middle" x="455" y="-291.3" font-family="Times,serif" font-size="14.00">अभिचक्राम(7.1)</text>
</g>
<!-- Node1_1&#45;&gt;Node7_1 -->
<g id="edge1" class="edge">
<title>Node1_1&#45;&gt;Node7_1</title>
<path fill="none" stroke="black" d="M616.52,-231.89C604.13,-241.32 588.95,-251.72 574,-259 556.38,-267.58 536.25,-274.48 517.62,-279.82"/>
<polygon fill="black" stroke="black" points="618.89,-234.48 624.61,-225.56 614.58,-228.96 618.89,-234.48"/>
<text text-anchor="middle" x="628" y="-247.8" font-family="Times,serif" font-size="14.00">कर्म</text>
</g>
<!-- Node4_2 -->
<g id="node3" class="node">
<title>Node4_2</title>
<ellipse fill="#93db70" stroke="#93db70" cx="879" cy="-121" rx="78.79" ry="18"/>
<text text-anchor="middle" x="879" y="-117.3" font-family="Times,serif" font-size="14.00">राजीः(4.2)</text>
</g>
<!-- Node4_2&#45;&gt;Node1_1 -->
<g id="edge6" class="edge">
<title>Node4_2&#45;&gt;Node1_1</title>
<path fill="none" stroke="black" d="M839.22,-142.33C819.1,-152.12 794.11,-163.53 771,-172 747.81,-180.5 721.58,-188.06 699.01,-193.95"/>
<polygon fill="black" stroke="black" points="840.95,-145.38 848.38,-137.82 837.86,-139.1 840.95,-145.38"/>
<text text-anchor="middle" x="872.5" y="-160.8" font-family="Times,serif" font-size="14.00">समुच्चितः</text>
</g>
<!-- Node6_1 -->
<g id="node4" class="node">
<title>Node6_1</title>
<ellipse fill="#93db70" stroke="#93db70" cx="840" cy="-34" rx="115.88" ry="18"/>
<text text-anchor="middle" x="840" y="-30.3" font-family="Times,serif" font-size="14.00">पुष्पिताः(6.1)</text>
</g>
<!-- Node6_1&#45;&gt;Node4_2 -->
<g id="edge8" class="edge">
<title>Node6_1&#45;&gt;Node4_2</title>
<path fill="none" stroke="black" d="M852.15,-61.48C858.33,-74.96 865.68,-90.96 871.12,-102.82"/>
<polygon fill="black" stroke="black" points="855.24,-59.83 847.89,-52.2 848.88,-62.75 855.24,-59.83"/>
<text text-anchor="middle" x="919.5" y="-73.8" font-family="Times,serif" font-size="14.00">विशेषणम्</text>
</g>
<!-- Node8_1 -->
<g id="node5" class="node">
<title>Node8_1</title>
<ellipse fill="#00bfff" stroke="#00bfff" cx="281" cy="-121" rx="96.68" ry="18"/>
<text text-anchor="middle" x="281" y="-117.3" font-family="Times,serif" font-size="14.00">तेजस्वी(8.1)</text>
</g>
<!-- Node9_1 -->
<g id="node6" class="node">
<title>Node9_1</title>
<ellipse fill="#00bfff" stroke="#00bfff" cx="263" cy="-208" rx="96.68" ry="18"/>
<text text-anchor="middle" x="263" y="-204.3" font-family="Times,serif" font-size="14.00">हनूमान्(9.1)</text>
</g>
<!-- Node8_1&#45;&gt;Node9_1 -->
<g id="edge9" class="edge">
<title>Node8_1&#45;&gt;Node9_1</title>
<path fill="none" stroke="black" d="M275.23,-149.27C272.41,-162.58 269.1,-178.19 266.64,-189.82"/>
<polygon fill="black" stroke="black" points="278.71,-149.71 277.36,-139.2 271.86,-148.26 278.71,-149.71"/>
<text text-anchor="middle" x="331.5" y="-160.8" font-family="Times,serif" font-size="14.00">विशेषणम्</text>
</g>
<!-- Node9_1&#45;&gt;Node7_1 -->
<g id="edge10" class="edge">
<title>Node9_1&#45;&gt;Node7_1</title>
<path fill="none" stroke="black" d="M307.83,-228.85C341.52,-243.76 387.09,-263.93 418.55,-277.86"/>
<polygon fill="black" stroke="black" points="309.22,-225.64 298.66,-224.79 306.39,-232.04 309.22,-225.64"/>
<text text-anchor="middle" x="407" y="-247.8" font-family="Times,serif" font-size="14.00">कर्ता</text>
</g>
<!-- Node10_2 -->
<g id="node7" class="node">
<title>Node10_2</title>
<ellipse fill="#00bfff" stroke="#00bfff" cx="91" cy="-121" rx="75.29" ry="18"/>
<text text-anchor="middle" x="91" y="-117.3" font-family="Times,serif" font-size="14.00">ऋषभः(10.2)</text>
</g>
<!-- Node10_2&#45;&gt;Node9_1 -->
<g id="edge12" class="edge">
<title>Node10_2&#45;&gt;Node9_1</title>
<path fill="none" stroke="black" d="M115.21,-145.45C125.83,-154.75 138.85,-164.89 152,-172 168.62,-180.99 187.9,-188.08 205.69,-193.47"/>
<polygon fill="black" stroke="black" points="117.36,-142.68 107.59,-138.58 112.67,-147.88 117.36,-142.68"/>
<text text-anchor="middle" x="209.5" y="-160.8" font-family="Times,serif" font-size="14.00">विशेषणम्</text>
</g>
<!-- Node2_1 -->
<g id="node9" class="node">
<title>Node2_1</title>
<ellipse fill="#ff99ff" stroke="#ff99ff" cx="437" cy="-121" rx="41.69" ry="18"/>
<text text-anchor="middle" x="437" y="-117.3" font-family="Times,serif" font-size="14.00">च(2.1)</text>
</g>
<!-- Node2_1&#45;&gt;Node1_1 -->
<g id="edge2" class="edge">
<title>Node2_1&#45;&gt;Node1_1</title>
<path fill="none" stroke="black" d="M432.53,-149.35C432.68,-157.51 434.53,-165.9 440,-172 448.78,-181.8 514.32,-191.85 568.78,-198.65"/>
<polygon fill="black" stroke="black" points="436.03,-149.51 433.1,-139.33 429.04,-149.12 436.03,-149.51"/>
<text text-anchor="middle" x="543.5" y="-160.8" font-family="Times,serif" font-size="14.00">समुच्चय_द्योतकः</text>
</g>
<!-- Node3_1 -->
<g id="node10" class="node">
<title>Node3_1</title>
<ellipse fill="#ffff00" stroke="#ffff00" cx="1037" cy="-34" rx="63.09" ry="18"/>
<text text-anchor="middle" x="1037" y="-30.3" font-family="Times,serif" font-size="14.00">तरु&#45;(3.1)</text>
</g>
<!-- Node3_1&#45;&gt;Node3_2 -->
<g id="edge3" class="edge">
<title>Node3_1&#45;&gt;Node3_2</title>
<path fill="none" stroke="black" d="M1016.89,-59.08C1007.16,-68.96 994.64,-79.38 981,-85 941.91,-101.1 832.98,-89.97 791,-95 769.19,-97.61 745.57,-101.65 724.37,-105.73"/>
<polygon fill="black" stroke="black" points="1019.49,-61.42 1023.76,-51.72 1014.38,-56.65 1019.49,-61.42"/>
<text text-anchor="middle" x="1113.5" y="-73.8" font-family="Times,serif" font-size="14.00">तृतीया_तत्पुरुषः</text>
</g>
<!-- Node4_1 -->
<g id="node11" class="node">
<title>Node4_1</title>
<ellipse fill="#ffff00" stroke="#ffff00" cx="1252" cy="-34" rx="53.89" ry="18"/>
<text text-anchor="middle" x="1252" y="-30.3" font-family="Times,serif" font-size="14.00">वन&#45;(4.1)</text>
</g>
<!-- Node4_1&#45;&gt;Node4_2 -->
<g id="edge5" class="edge">
<title>Node4_1&#45;&gt;Node4_2</title>
<path fill="none" stroke="black" d="M1246.02,-61.8C1242.74,-70.53 1237.7,-79.41 1230,-85 1208.29,-100.76 1051.81,-111.34 955.26,-116.45"/>
<polygon fill="black" stroke="black" points="1249.39,-62.77 1249.04,-52.18 1242.71,-60.67 1249.39,-62.77"/>
<text text-anchor="middle" x="1345.5" y="-73.8" font-family="Times,serif" font-size="14.00">षष्ठी_तत्पुरुषः</text>
</g>
<!-- Node5_1 -->
<g id="node12" class="node">
<title>Node5_1</title>
<ellipse fill="#ff99ff" stroke="#ff99ff" cx="455" cy="-208" rx="41.69" ry="18"/>
<text text-anchor="middle" x="455" y="-204.3" font-family="Times,serif" font-size="14.00">च(5.1)</text>
</g>
<!-- Node5_1&#45;&gt;Node7_1 -->
<g id="edge7" class="edge">
<title>Node5_1&#45;&gt;Node7_1</title>
<path fill="none" stroke="black" d="M455,-236.27C455,-249.58 455,-265.19 455,-276.82"/>
<polygon fill="black" stroke="black" points="458.5,-236.2 455,-226.2 451.5,-236.2 458.5,-236.2"/>
<text text-anchor="middle" x="512.5" y="-247.8" font-family="Times,serif" font-size="14.00">सम्बन्धः</text>
</g>
<!-- Node10_1 -->
<g id="node13" class="node">
<title>Node10_1</title>
<ellipse fill="#ffff00" stroke="#ffff00" cx="91" cy="-34" rx="87.18" ry="18"/>
<text text-anchor="middle" x="91" y="-30.3" font-family="Times,serif" font-size="14.00">प्लवग&#45;(10.1)</text>
</g>
<!-- Node10_1&#45;&gt;Node10_2 -->
<g id="edge11" class="edge">
<title>Node10_1&#45;&gt;Node10_2</title>
<path fill="none" stroke="black" d="M91,-62.27C91,-75.58 91,-91.19 91,-102.82"/>
<polygon fill="black" stroke="black" points="94.5,-62.2 91,-52.2 87.5,-62.2 94.5,-62.2"/>
<text text-anchor="middle" x="155.5" y="-73.8" font-family="Times,serif" font-size="14.00">कर्मधारयः</text>
</g>
</g>
</svg>
