<svg xmlns="http://www.w3.org/2000/svg" xmlns:xlink="http://www.w3.org/1999/xlink" width="1351pt" height="392pt" viewBox="0 0 1350.6 392"><g id="graph0" class="graph" transform="scale(1 1) rotate(0) translate(4 388)"><title>G</title><polygon fill="#fffacd" stroke="transparent" points="-4 4 -4 -388 1346.6 -388 1346.6 4 -4 4"/><g id="clust1" class="cluster"><title>cluster_1</title><polygon fill="#fffacd" stroke="#000" points="447.6 -79 447.6 -218 900.6 -218 900.6 -79 447.6 -79"/></g><g id="clust2" class="cluster"><title>cluster_2</title><polygon fill="#fffacd" stroke="#000" points="482.6 -253 482.6 -305 644.6 -305 644.6 -253 482.6 -253"/></g><g id="node1" class="node"><title>Node6_2</title><ellipse cx="571.6" cy="-105" fill="#40e0d0" stroke="#40e0d0" rx="115.88" ry="18"/><text x="571.6" y="-101.3" font-family="Times,serif" font-size="14" text-anchor="middle">विज्ञातेन(6.2)</text></g><g id="node2" class="node"><title>Node9_2</title><ellipse cx="702.6" cy="-192" fill="#40e0d0" stroke="#40e0d0" rx="78.79" ry="18"/><text x="702.6" y="-188.3" font-family="Times,serif" font-size="14" text-anchor="middle">रूपेण(9.2)</text></g><g id="edge6" class="edge"><title>Node6_2-&gt;Node9_2</title><path fill="none" stroke="#000" d="M594.63,-130.39C603.73,-139.17 614.62,-148.7 625.6,-156 637.34,-163.81 651.1,-170.68 663.72,-176.22"/><polygon fill="#000" stroke="#000" points="597.01 -127.82 587.45 -123.26 592.07 -132.79 597.01 -127.82"/><text x="683.1" y="-144.8" font-family="Times,serif" font-size="14" text-anchor="middle">विशेषणम्</text></g><g id="node4" class="node"><title>Node13_1</title><ellipse cx="563.6" cy="-279" fill="#40e0d0" stroke="#40e0d0" rx="72.59" ry="18"/><text x="563.6" y="-275.3" font-family="Times,serif" font-size="14" text-anchor="middle">(मया)(13.1)</text></g><g id="edge10" class="edge"><title>Node9_2-&gt;Node13_1</title><path fill="none" stroke="#000" d="M667.89,-214.22C643.62,-229.07 611.72,-248.57 589.62,-262.08"/><polygon fill="#000" stroke="#000" points="669.75 -217.19 676.45 -208.99 666.09 -211.22 669.75 -217.19"/><text x="698.1" y="-231.8" font-family="Times,serif" font-size="14" text-anchor="middle">विशेषणम्</text></g><g id="node3" class="node"><title>Node11_1</title><ellipse cx="798.6" cy="-105" fill="#40e0d0" stroke="#40e0d0" rx="93.68" ry="18"/><text x="798.6" y="-101.3" font-family="Times,serif" font-size="14" text-anchor="middle">अन्येन(11.1)</text></g><g id="edge12" class="edge"><title>Node11_1-&gt;Node9_2</title><path fill="none" stroke="#000" d="M772.12,-129.44C756.07,-143.65 735.98,-161.44 721.52,-174.24"/><polygon fill="#000" stroke="#000" points="774.46 -132.04 779.63 -122.79 769.82 -126.8 774.46 -132.04"/><text x="805.6" y="-144.8" font-family="Times,serif" font-size="14" text-anchor="middle">अन्यतरः</text></g><g id="node6" class="node"><title>Node3_1</title><ellipse cx="262.6" cy="-366" fill="#00bfff" stroke="#00bfff" rx="87.99" ry="18"/><text x="262.6" y="-362.3" font-family="Times,serif" font-size="14" text-anchor="middle">शक्यम्(3.1)</text></g><g id="edge14" class="edge"><title>Node13_1-&gt;Node3_1</title><path fill="none" stroke="#000" d="M531.1,-301.62C514.53,-311.7 493.67,-322.99 473.6,-330 431.44,-344.71 382.33,-353.32 342.1,-358.32"/><polygon fill="#000" stroke="#000" points="533.2 -304.44 539.83 -296.18 529.5 -298.49 533.2 -304.44"/><text x="542.6" y="-318.8" font-family="Times,serif" font-size="14" text-anchor="middle">कर्ता</text></g><g id="node5" class="node"><title>Node1_1</title><ellipse cx="41.6" cy="-279" fill="#f9f" stroke="#f9f" rx="41.69" ry="18"/><text x="41.6" y="-275.3" font-family="Times,serif" font-size="14" text-anchor="middle">न(1.1)</text></g><g id="edge1" class="edge"><title>Node1_1-&gt;Node3_1</title><path fill="none" stroke="#000" d="M50.92,-306.28C55.29,-315.09 61.39,-324.14 69.6,-330 88.06,-343.18 139.6,-352.12 184.77,-357.67"/><polygon fill="#000" stroke="#000" points="54.06 -304.74 46.84 -296.99 47.66 -307.56 54.06 -304.74"/><text x="134.1" y="-318.8" font-family="Times,serif" font-size="14" text-anchor="middle">प्रतिषेधः</text></g><g id="node7" class="node"><title>Node2_1</title><ellipse cx="183.6" cy="-279" fill="#f9f" stroke="#f9f" rx="50.89" ry="18"/><text x="183.6" y="-275.3" font-family="Times,serif" font-size="14" text-anchor="middle">हि(2.1)</text></g><g id="edge2" class="edge"><title>Node2_1-&gt;Node3_1</title><path fill="none" stroke="#000" d="M195.8,-305.89C200.38,-314.12 206.09,-322.91 212.6,-330 219.05,-337.02 227.14,-343.44 234.93,-348.8"/><polygon fill="#000" stroke="#000" points="198.86 -304.19 191.11 -296.96 192.66 -307.44 198.86 -304.19"/><text x="270.1" y="-318.8" font-family="Times,serif" font-size="14" text-anchor="middle">सम्बन्धः</text></g><g id="node8" class="node"><title>Node4_1</title><ellipse cx="342.6" cy="-192" fill="#f9f" stroke="#f9f" rx="96.68" ry="18"/><text x="342.6" y="-188.3" font-family="Times,serif" font-size="14" text-anchor="middle">क्वचित्(4.1)</text></g><g id="node9" class="node"><title>Node5_1</title><ellipse cx="358.6" cy="-279" fill="#f9f" stroke="#f9f" rx="106.68" ry="18"/><text x="358.6" y="-275.3" font-family="Times,serif" font-size="14" text-anchor="middle">स्थातुम्(5.1)</text></g><g id="edge3" class="edge"><title>Node4_1-&gt;Node5_1</title><path fill="none" stroke="#000" d="M347.73,-220.27C350.24,-233.58 353.17,-249.19 355.36,-260.82"/><polygon fill="#000" stroke="#000" points="351.12 -219.38 345.83 -210.2 344.24 -220.68 351.12 -219.38"/><text x="430.1" y="-231.8" font-family="Times,serif" font-size="14" text-anchor="middle">देशाधिकरणम्</text></g><g id="edge4" class="edge"><title>Node5_1-&gt;Node3_1</title><path fill="none" stroke="#000" d="M345.76,-306.33C340.87,-314.59 334.73,-323.29 327.6,-330 319.38,-337.73 309.13,-344.28 299.22,-349.55"/><polygon fill="#000" stroke="#000" points="348.96 -307.77 350.73 -297.33 342.83 -304.39 348.96 -307.77"/><text x="405.1" y="-318.8" font-family="Times,serif" font-size="14" text-anchor="middle">प्रयोजनम्</text></g><g id="node10" class="node"><title>Node6_1</title><ellipse cx="374.6" cy="-18" fill="#ff0" stroke="#ff0" rx="44.39" ry="18"/><text x="374.6" y="-14.3" font-family="Times,serif" font-size="14" text-anchor="middle">अ-(6.1)</text></g><g id="edge5" class="edge"><title>Node6_1-&gt;Node6_2</title><path fill="none" stroke="#000" d="M377.76,-46.26C380.05,-54.66 383.96,-63.21 390.6,-69 409.98,-85.91 422.32,-74.24 447.6,-79 466.26,-82.52 486.47,-86.51 505.05,-90.26"/><polygon fill="#000" stroke="#000" points="381.15 -45.37 375.69 -36.29 374.29 -46.79 381.15 -45.37"/><text x="479.6" y="-57.8" font-family="Times,serif" font-size="14" text-anchor="middle">नञ्_तत्पुरुषः</text></g><g id="node11" class="node"><title>Node7_1</title><ellipse cx="575.6" cy="-18" fill="#40e0d0" stroke="#40e0d0" rx="106.68" ry="18"/><text x="575.6" y="-14.3" font-family="Times,serif" font-size="14" text-anchor="middle">राक्षसैः(7.1)</text></g><g id="edge7" class="edge"><title>Node7_1-&gt;Node6_2</title><path fill="none" stroke="#000" d="M574.31,-46.27C573.69,-59.58 572.95,-75.19 572.4,-86.82"/><polygon fill="#000" stroke="#000" points="577.81 -46.35 574.79 -36.2 570.82 -46.03 577.81 -46.35"/><text x="609.6" y="-57.8" font-family="Times,serif" font-size="14" text-anchor="middle">कर्ता</text></g><g id="node12" class="node"><title>Node8_1</title><ellipse cx="378.6" cy="-105" fill="#f9f" stroke="#f9f" rx="59.59" ry="18"/><text x="378.6" y="-101.3" font-family="Times,serif" font-size="14" text-anchor="middle">अपि(8.1)</text></g><g id="edge8" class="edge"><title>Node8_1-&gt;Node9_2</title><path fill="none" stroke="#000" d="M414.73,-125.75C435.26,-136.2 461.75,-148.39 486.6,-156 533.64,-170.4 588.36,-179.19 630.95,-184.36"/><polygon fill="#000" stroke="#000" points="416.23 -122.59 405.74 -121.1 413.02 -128.81 416.23 -122.59"/><text x="544.1" y="-144.8" font-family="Times,serif" font-size="14" text-anchor="middle">सम्बन्धः</text></g><g id="node13" class="node"><title>Node9_1</title><ellipse cx="1001.6" cy="-105" fill="#ff0" stroke="#ff0" rx="90.98" ry="18"/><text x="1001.6" y="-101.3" font-family="Times,serif" font-size="14" text-anchor="middle">राक्षस-(9.1)</text></g><g id="edge9" class="edge"><title>Node9_1-&gt;Node9_2</title><path fill="none" stroke="#000" d="M952.57,-124.89C925.42,-134.93 890.93,-147.03 859.6,-156 827.25,-165.27 790.57,-173.56 760.8,-179.75"/><polygon fill="#000" stroke="#000" points="954.07 -128.06 962.22 -121.29 951.63 -121.5 954.07 -128.06"/><text x="1010.1" y="-144.8" font-family="Times,serif" font-size="14" text-anchor="middle">षष्ठी_तत्पुरुषः</text></g><g id="node14" class="node"><title>Node10_1</title><ellipse cx="793.6" cy="-18" fill="#f9f" stroke="#f9f" rx="84.49" ry="18"/><text x="793.6" y="-14.3" font-family="Times,serif" font-size="14" text-anchor="middle">किमुत(10.1)</text></g><g id="edge11" class="edge"><title>Node10_1-&gt;Node11_1</title><path fill="none" stroke="#000" d="M795.2,-46.27C795.98,-59.58 796.9,-75.19 797.59,-86.82"/><polygon fill="#000" stroke="#000" points="798.69 -45.98 794.61 -36.2 791.7 -46.39 798.69 -45.98"/><text x="853.1" y="-57.8" font-family="Times,serif" font-size="14" text-anchor="middle">सम्बन्धः</text></g><g id="node15" class="node"><title>Node12_1</title><ellipse cx="998.6" cy="-18" fill="#f9f" stroke="#f9f" rx="102.88" ry="18"/><text x="998.6" y="-14.3" font-family="Times,serif" font-size="14" text-anchor="middle">केनचित्(12.1)</text></g><g id="edge13" class="edge"><title>Node12_1-&gt;Node11_1</title><path fill="none" stroke="#000" d="M965.95,-40.96C950.79,-50.49 932.25,-61.22 914.6,-69 895.25,-77.52 873.22,-84.75 853.59,-90.38"/><polygon fill="#000" stroke="#000" points="967.91 -43.86 974.45 -35.53 964.14 -37.97 967.91 -43.86"/><text x="1000.1" y="-57.8" font-family="Times,serif" font-size="14" text-anchor="middle">सम्बन्धः</text></g><g id="node16" class="node"><title>Node14_1</title><ellipse cx="1202.6" cy="-105" fill="#f9f" stroke="#f9f" rx="63.89" ry="18"/><text x="1202.6" y="-101.3" font-family="Times,serif" font-size="14" text-anchor="middle">(वा)(14.1)</text></g><g id="edge15" class="edge"><title>Node14_1-&gt;Node9_2</title><path fill="none" stroke="#000" d="M1172.84,-127.97C1157.2,-138.33 1137.24,-149.75 1117.6,-156 1056.79,-175.34 882.56,-184.65 780.21,-188.57"/><polygon fill="#000" stroke="#000" points="1175.23 -130.58 1181.51 -122.05 1171.28 -124.8 1175.23 -130.58"/><text x="1246.1" y="-144.8" font-family="Times,serif" font-size="14" text-anchor="middle">अन्यतर_द्योतकः</text></g></g></svg>