<?xml version="1.0" encoding="UTF-8" standalone="no"?>
<!DOCTYPE svg PUBLIC "-//W3C//DTD SVG 1.1//EN"
 "http://www.w3.org/Graphics/SVG/1.1/DTD/svg11.dtd">
<!-- Generated by graphviz version 2.43.0 (0)
 -->
<!-- Title: G Pages: 1 -->
<svg width="1344pt" height="392pt"
 viewBox="0.00 0.00 1344.00 392.00" xmlns="http://www.w3.org/2000/svg" xmlns:xlink="http://www.w3.org/1999/xlink">
<g id="graph0" class="graph" transform="scale(1 1) rotate(0) translate(4 388)">
<title>G</title>
<polygon fill="#fffacd" stroke="transparent" points="-4,4 -4,-388 1340,-388 1340,4 -4,4"/>
<g id="clust1" class="cluster">
<title>cluster_1</title>
<polygon fill="#fffacd" stroke="black" points="832,-79 832,-218 1328,-218 1328,-79 832,-79"/>
</g>
<g id="clust2" class="cluster">
<title>cluster_2</title>
<polygon fill="#fffacd" stroke="black" points="8,-166 8,-305 218,-305 218,-166 8,-166"/>
</g>
<g id="clust3" class="cluster">
<title>cluster_3</title>
<polygon fill="#fffacd" stroke="black" points="465,-166 465,-305 687,-305 687,-166 465,-166"/>
</g>
<!-- Node1_1 -->
<g id="node1" class="node">
<title>Node1_1</title>
<ellipse fill="#93db70" stroke="#93db70" cx="1186" cy="-105" rx="133.78" ry="18"/>
<text text-anchor="middle" x="1186" y="-101.3" font-family="Times,serif" font-size="14.00">अचिन्त्याम्(1.1)</text>
</g>
<!-- Node4_1 -->
<g id="node2" class="node">
<title>Node4_1</title>
<ellipse fill="#93db70" stroke="#93db70" cx="938" cy="-192" rx="96.68" ry="18"/>
<text text-anchor="middle" x="938" y="-188.3" font-family="Times,serif" font-size="14.00">लङ्काम्(4.1)</text>
</g>
<!-- Node1_1&#45;&gt;Node4_1 -->
<g id="edge1" class="edge">
<title>Node1_1&#45;&gt;Node4_1</title>
<path fill="none" stroke="black" d="M1136.86,-125.95C1112.67,-135.5 1082.98,-146.83 1056,-156 1034.35,-163.36 1010.19,-170.68 989.39,-176.71"/>
<polygon fill="black" stroke="black" points="1138.18,-129.19 1146.18,-122.25 1135.6,-122.69 1138.18,-129.19"/>
<text text-anchor="middle" x="1152.5" y="-144.8" font-family="Times,serif" font-size="14.00">विशेषणम्</text>
</g>
<!-- Node3_1 -->
<g id="node9" class="node">
<title>Node3_1</title>
<ellipse fill="#ff99ff" stroke="#ff99ff" cx="864" cy="-279" rx="106.68" ry="18"/>
<text text-anchor="middle" x="864" y="-275.3" font-family="Times,serif" font-size="14.00">दृष्ट्वा(3.1)</text>
</g>
<!-- Node4_1&#45;&gt;Node3_1 -->
<g id="edge5" class="edge">
<title>Node4_1&#45;&gt;Node3_1</title>
<path fill="none" stroke="black" d="M916.26,-217.97C904.17,-231.86 889.44,-248.78 878.7,-261.11"/>
<polygon fill="black" stroke="black" points="919.1,-220.04 923.02,-210.2 913.82,-215.45 919.1,-220.04"/>
<text text-anchor="middle" x="935" y="-231.8" font-family="Times,serif" font-size="14.00">कर्म</text>
</g>
<!-- Node2_2 -->
<g id="node3" class="node">
<title>Node2_2</title>
<ellipse fill="#93db70" stroke="#93db70" cx="937" cy="-105" rx="96.68" ry="18"/>
<text text-anchor="middle" x="937" y="-101.3" font-family="Times,serif" font-size="14.00">आकाराम्(2.2)</text>
</g>
<!-- Node2_2&#45;&gt;Node4_1 -->
<g id="edge3" class="edge">
<title>Node2_2&#45;&gt;Node4_1</title>
<path fill="none" stroke="black" d="M937.32,-133.27C937.48,-146.58 937.66,-162.19 937.8,-173.82"/>
<polygon fill="black" stroke="black" points="940.82,-133.16 937.2,-123.2 933.82,-133.24 940.82,-133.16"/>
<text text-anchor="middle" x="994.5" y="-144.8" font-family="Times,serif" font-size="14.00">विशेषणम्</text>
</g>
<!-- Node8_1 -->
<g id="node4" class="node">
<title>Node8_1</title>
<ellipse fill="#00bfff" stroke="#00bfff" cx="104" cy="-192" rx="87.99" ry="18"/>
<text text-anchor="middle" x="104" y="-188.3" font-family="Times,serif" font-size="14.00">हृष्टः(8.1)</text>
</g>
<!-- Node7_1 -->
<g id="node5" class="node">
<title>Node7_1</title>
<ellipse fill="#00bfff" stroke="#00bfff" cx="113" cy="-279" rx="96.68" ry="18"/>
<text text-anchor="middle" x="113" y="-275.3" font-family="Times,serif" font-size="14.00">विषण्णः(7.1)</text>
</g>
<!-- Node8_1&#45;&gt;Node7_1 -->
<g id="edge9" class="edge">
<title>Node8_1&#45;&gt;Node7_1</title>
<path fill="none" stroke="black" d="M98.43,-220.21C97.68,-227.64 97.59,-235.66 99,-243 100.16,-249.04 102.36,-255.36 104.67,-260.95"/>
<polygon fill="black" stroke="black" points="101.9,-220.63 99.83,-210.24 94.97,-219.65 101.9,-220.63"/>
<text text-anchor="middle" x="163.5" y="-231.8" font-family="Times,serif" font-size="14.00">समुच्चितः</text>
</g>
<!-- Node6_1 -->
<g id="node10" class="node">
<title>Node6_1</title>
<ellipse fill="#ff1975" stroke="#ff1975" cx="586" cy="-366" rx="78.79" ry="18"/>
<text text-anchor="middle" x="586" y="-362.3" font-family="Times,serif" font-size="14.00">आसीत्(6.1)</text>
</g>
<!-- Node7_1&#45;&gt;Node6_1 -->
<g id="edge8" class="edge">
<title>Node7_1&#45;&gt;Node6_1</title>
<path fill="none" stroke="black" d="M179.32,-296.08C224.21,-306.62 284.96,-320.21 339,-330 399.3,-340.93 468.4,-350.47 518.16,-356.82"/>
<polygon fill="black" stroke="black" points="179.95,-292.64 169.41,-293.75 178.34,-299.45 179.95,-292.64"/>
<text text-anchor="middle" x="460.5" y="-318.8" font-family="Times,serif" font-size="14.00">कर्तृसमानाधिकरणम्</text>
</g>
<!-- Node11_2 -->
<g id="node6" class="node">
<title>Node11_2</title>
<ellipse fill="#00bfff" stroke="#00bfff" cx="576" cy="-192" rx="102.88" ry="18"/>
<text text-anchor="middle" x="576" y="-188.3" font-family="Times,serif" font-size="14.00">उत्सुकः(11.2)</text>
</g>
<!-- Node5_2 -->
<g id="node7" class="node">
<title>Node5_2</title>
<ellipse fill="#00bfff" stroke="#00bfff" cx="586" cy="-279" rx="69.59" ry="18"/>
<text text-anchor="middle" x="586" y="-275.3" font-family="Times,serif" font-size="14.00">कपिः(5.2)</text>
</g>
<!-- Node11_2&#45;&gt;Node5_2 -->
<g id="edge13" class="edge">
<title>Node11_2&#45;&gt;Node5_2</title>
<path fill="none" stroke="black" d="M579.21,-220.27C580.77,-233.58 582.61,-249.19 583.98,-260.82"/>
<polygon fill="black" stroke="black" points="582.67,-219.72 578.02,-210.2 575.72,-220.54 582.67,-219.72"/>
<text text-anchor="middle" x="639.5" y="-231.8" font-family="Times,serif" font-size="14.00">विशेषणम्</text>
</g>
<!-- Node5_2&#45;&gt;Node6_1 -->
<g id="edge7" class="edge">
<title>Node5_2&#45;&gt;Node6_1</title>
<path fill="none" stroke="black" d="M586,-307.27C586,-320.58 586,-336.19 586,-347.82"/>
<polygon fill="black" stroke="black" points="589.5,-307.2 586,-297.2 582.5,-307.2 589.5,-307.2"/>
<text text-anchor="middle" x="622" y="-318.8" font-family="Times,serif" font-size="14.00">कर्ता</text>
</g>
<!-- Node2_1 -->
<g id="node8" class="node">
<title>Node2_1</title>
<ellipse fill="#ffff00" stroke="#ffff00" cx="937" cy="-18" rx="90.98" ry="18"/>
<text text-anchor="middle" x="937" y="-14.3" font-family="Times,serif" font-size="14.00">अद्भुत&#45;(2.1)</text>
</g>
<!-- Node2_1&#45;&gt;Node2_2 -->
<g id="edge2" class="edge">
<title>Node2_1&#45;&gt;Node2_2</title>
<path fill="none" stroke="black" d="M937,-46.27C937,-59.58 937,-75.19 937,-86.82"/>
<polygon fill="black" stroke="black" points="940.5,-46.2 937,-36.2 933.5,-46.2 940.5,-46.2"/>
<text text-anchor="middle" x="1008.5" y="-57.8" font-family="Times,serif" font-size="14.00">बहुव्रीहिः</text>
</g>
<!-- Node3_1&#45;&gt;Node6_1 -->
<g id="edge4" class="edge">
<title>Node3_1&#45;&gt;Node6_1</title>
<path fill="none" stroke="black" d="M805.2,-297.98C753.31,-313.84 678.75,-336.64 631.35,-351.13"/>
<polygon fill="black" stroke="black" points="806.4,-301.27 814.94,-295 804.35,-294.58 806.4,-301.27"/>
<text text-anchor="middle" x="806.5" y="-318.8" font-family="Times,serif" font-size="14.00">पूर्वकालः</text>
</g>
<!-- Node5_1 -->
<g id="node11" class="node">
<title>Node5_1</title>
<ellipse fill="#ffff00" stroke="#ffff00" cx="760" cy="-192" rx="63.09" ry="18"/>
<text text-anchor="middle" x="760" y="-188.3" font-family="Times,serif" font-size="14.00">महा&#45;(5.1)</text>
</g>
<!-- Node5_1&#45;&gt;Node5_2 -->
<g id="edge6" class="edge">
<title>Node5_1&#45;&gt;Node5_2</title>
<path fill="none" stroke="black" d="M736.51,-216.75C726.31,-226 713.78,-236.03 701,-243 681.58,-253.59 658.52,-261.41 638.17,-266.94"/>
<polygon fill="black" stroke="black" points="738.93,-219.29 743.83,-209.9 734.14,-214.18 738.93,-219.29"/>
<text text-anchor="middle" x="787.5" y="-231.8" font-family="Times,serif" font-size="14.00">कर्मधारयः</text>
</g>
<!-- Node9_1 -->
<g id="node12" class="node">
<title>Node9_1</title>
<ellipse fill="#ff99ff" stroke="#ff99ff" cx="268" cy="-192" rx="41.69" ry="18"/>
<text text-anchor="middle" x="268" y="-188.3" font-family="Times,serif" font-size="14.00">च(9.1)</text>
</g>
<!-- Node9_1&#45;&gt;Node7_1 -->
<g id="edge10" class="edge">
<title>Node9_1&#45;&gt;Node7_1</title>
<path fill="none" stroke="black" d="M252.67,-217.94C246.06,-226.94 237.62,-236.48 228,-243 213.06,-253.13 195.08,-260.41 177.83,-265.61"/>
<polygon fill="black" stroke="black" points="255.63,-219.81 258.43,-209.59 249.87,-215.83 255.63,-219.81"/>
<text text-anchor="middle" x="347.5" y="-231.8" font-family="Times,serif" font-size="14.00">समुच्चय_द्योतकः</text>
</g>
<!-- Node10_1 -->
<g id="node13" class="node">
<title>Node10_1</title>
<ellipse fill="#87ceeb" stroke="#87ceeb" cx="355" cy="-105" rx="121.58" ry="18"/>
<text text-anchor="middle" x="355" y="-101.3" font-family="Times,serif" font-size="14.00">वैदेह्याः(10.1)</text>
</g>
<!-- Node10_1&#45;&gt;Node11_2 -->
<g id="edge11" class="edge">
<title>Node10_1&#45;&gt;Node11_2</title>
<path fill="none" stroke="black" d="M364.11,-132.93C368.28,-141.53 374.11,-150.28 382,-156 399.18,-168.45 445.24,-177.05 488.16,-182.61"/>
<polygon fill="black" stroke="black" points="367.22,-131.3 360.07,-123.47 360.78,-134.04 367.22,-131.3"/>
<text text-anchor="middle" x="478.5" y="-144.8" font-family="Times,serif" font-size="14.00">षष्ठी_सम्बन्धः</text>
</g>
<!-- Node11_1 -->
<g id="node14" class="node">
<title>Node11_1</title>
<ellipse fill="#ffff00" stroke="#ffff00" cx="582" cy="-105" rx="87.18" ry="18"/>
<text text-anchor="middle" x="582" y="-101.3" font-family="Times,serif" font-size="14.00">दर्शन&#45;(11.1)</text>
</g>
<!-- Node11_1&#45;&gt;Node11_2 -->
<g id="edge12" class="edge">
<title>Node11_1&#45;&gt;Node11_2</title>
<path fill="none" stroke="black" d="M580.08,-133.27C579.14,-146.58 578.03,-162.19 577.21,-173.82"/>
<polygon fill="black" stroke="black" points="583.57,-133.42 580.79,-123.2 576.59,-132.93 583.57,-133.42"/>
<text text-anchor="middle" x="697.5" y="-144.8" font-family="Times,serif" font-size="14.00">चतुर्थी_तत्पुरुषः</text>
</g>
</g>
</svg>
