<svg xmlns="http://www.w3.org/2000/svg" xmlns:xlink="http://www.w3.org/1999/xlink" width="1163pt" height="428" viewBox="0 0 1163 321"><g id="graph0" class="graph" transform="scale(1 1) rotate(0) translate(4 317)"><title>G</title><polygon fill="#fffacd" stroke="transparent" points="-4 4 -4 -317 1159 -317 1159 4 -4 4"/><g id="clust1" class="cluster"><title>cluster_1</title><polygon fill="#fffacd" stroke="#000" points="604 -8 604 -147 852 -147 852 -8 604 -8"/></g><g id="clust2" class="cluster"><title>cluster_2</title><polygon fill="#fffacd" stroke="#000" points="8 -95 8 -234 218 -234 218 -95 8 -95"/></g><g id="node1" class="node"><title>Node5_1</title><ellipse cx="728" cy="-34" fill="#00bfff" stroke="#00bfff" rx="115.88" ry="18"/><text x="728" y="-30.3" font-family="Times,serif" font-size="14" text-anchor="middle">वीर्यवान्(5.1)</text></g><g id="node2" class="node"><title>Node2_1</title><ellipse cx="719" cy="-121" fill="#00bfff" stroke="#00bfff" rx="96.68" ry="18"/><text x="719" y="-117.3" font-family="Times,serif" font-size="14" text-anchor="middle">हनुमान्(2.1)</text></g><g id="edge6" class="edge"><title>Node5_1-&gt;Node2_1</title><path fill="none" stroke="#000" d="M725.11,-62.27C723.7,-75.58 722.05,-91.19 720.82,-102.82"/><polygon fill="#000" stroke="#000" points="728.61 -62.51 726.18 -52.2 721.65 -61.78 728.61 -62.51"/><text x="781.5" y="-73.8" font-family="Times,serif" font-size="14" text-anchor="middle">विशेषणम्</text></g><g id="node7" class="node"><title>Node4_1</title><ellipse cx="586" cy="-208" fill="#f9f" stroke="#f9f" rx="96.68" ry="18"/><text x="586" y="-204.3" font-family="Times,serif" font-size="14" text-anchor="middle">उत्पत्य(4.1)</text></g><g id="edge3" class="edge"><title>Node2_1-&gt;Node4_1</title><path fill="none" stroke="#000" d="M690.41,-144.85C678.78,-153.74 665.03,-163.75 652,-172 641.48,-178.66 629.57,-185.25 618.79,-190.88"/><polygon fill="#000" stroke="#000" points="692.7 -147.51 698.46 -138.62 688.41 -141.97 692.7 -147.51"/><text x="708" y="-160.8" font-family="Times,serif" font-size="14" text-anchor="middle">कर्ता</text></g><g id="node3" class="node"><title>Node8_1</title><ellipse cx="113" cy="-121" fill="#93db70" stroke="#93db70" rx="96.68" ry="18"/><text x="113" y="-117.3" font-family="Times,serif" font-size="14" text-anchor="middle">रम्याम्(8.1)</text></g><g id="node4" class="node"><title>Node7_1</title><ellipse cx="122" cy="-208" fill="#93db70" stroke="#93db70" rx="87.99" ry="18"/><text x="122" y="-204.3" font-family="Times,serif" font-size="14" text-anchor="middle">पुरीम्(7.1)</text></g><g id="edge8" class="edge"><title>Node8_1-&gt;Node7_1</title><path fill="none" stroke="#000" d="M115.89,-149.27C117.3,-162.58 118.95,-178.19 120.18,-189.82"/><polygon fill="#000" stroke="#000" points="119.35 -148.78 114.82 -139.2 112.39 -149.51 119.35 -148.78"/><text x="176.5" y="-160.8" font-family="Times,serif" font-size="14" text-anchor="middle">विशेषणम्</text></g><g id="node9" class="node"><title>Node6_1</title><ellipse cx="347" cy="-295" fill="#ff1975" stroke="#ff1975" rx="106.68" ry="18"/><text x="347" y="-291.3" font-family="Times,serif" font-size="14" text-anchor="middle">प्रविवेश(6.1)</text></g><g id="edge7" class="edge"><title>Node7_1-&gt;Node6_1</title><path fill="none" stroke="#000" d="M171.56,-227.72C211.73,-242.9 267.67,-264.03 305.5,-278.32"/><polygon fill="#000" stroke="#000" points="172.56 -224.36 161.97 -224.1 170.08 -230.91 172.56 -224.36"/><text x="277" y="-247.8" font-family="Times,serif" font-size="14" text-anchor="middle">कर्म</text></g><g id="node5" class="node"><title>Node1_1</title><ellipse cx="953" cy="-34" fill="#ff0" stroke="#ff0" rx="90.98" ry="18"/><text x="953" y="-30.3" font-family="Times,serif" font-size="14" text-anchor="middle">प्रदोष-(1.1)</text></g><g id="node6" class="node"><title>Node1_2</title><ellipse cx="942" cy="-121" fill="#c6e2eb" stroke="#c6e2eb" rx="69.59" ry="18"/><text x="942" y="-117.3" font-family="Times,serif" font-size="14" text-anchor="middle">काले(1.2)</text></g><g id="edge1" class="edge"><title>Node1_1-&gt;Node1_2</title><path fill="none" stroke="#000" d="M949.47,-62.27C947.75,-75.58 945.73,-91.19 944.22,-102.82"/><polygon fill="#000" stroke="#000" points="952.96 -62.57 950.77 -52.2 946.02 -61.67 952.96 -62.57"/><text x="1051.5" y="-73.8" font-family="Times,serif" font-size="14" text-anchor="middle">षष्ठी_तत्पुरुषः</text></g><g id="edge2" class="edge"><title>Node1_2-&gt;Node4_1</title><path fill="none" stroke="#000" d="M888.65,-138.01C877.87,-141.1 866.6,-144.24 856,-147 785.72,-165.33 704.24,-182.95 649.32,-194.29"/><polygon fill="#000" stroke="#000" points="889.75 -141.33 898.38 -135.19 887.8 -134.61 889.75 -141.33"/><text x="890.5" y="-160.8" font-family="Times,serif" font-size="14" text-anchor="middle">कालाधिकरणम्</text></g><g id="edge5" class="edge"><title>Node4_1-&gt;Node6_1</title><path fill="none" stroke="#000" d="M533.58,-227.64C490.72,-242.89 430.83,-264.19 390.57,-278.5"/><polygon fill="#000" stroke="#000" points="535.02 -230.84 543.27 -224.2 532.68 -224.25 535.02 -230.84"/><text x="544.5" y="-247.8" font-family="Times,serif" font-size="14" text-anchor="middle">पूर्वकालः</text></g><g id="node8" class="node"><title>Node3_1</title><ellipse cx="499" cy="-121" fill="#00bfff" stroke="#00bfff" rx="96.68" ry="18"/><text x="499" y="-117.3" font-family="Times,serif" font-size="14" text-anchor="middle">तूर्णम्(3.1)</text></g><g id="edge4" class="edge"><title>Node3_1-&gt;Node4_1</title><path fill="none" stroke="#000" d="M516.08,-147.51C522.2,-155.77 529.45,-164.67 537,-172 543.9,-178.7 552.17,-185.1 559.93,-190.56"/><polygon fill="#000" stroke="#000" points="518.83 -145.33 510.16 -139.24 513.14 -149.41 518.83 -145.33"/><text x="594.5" y="-160.8" font-family="Times,serif" font-size="14" text-anchor="middle">सम्बन्धः</text></g><g id="node10" class="node"><title>Node9_1</title><ellipse cx="380" cy="-34" fill="#ff0" stroke="#ff0" rx="118.08" ry="18"/><text x="380" y="-30.3" font-family="Times,serif" font-size="14" text-anchor="middle">प्रविभक्त-(9.1)</text></g><g id="node11" class="node"><title>Node9_3</title><ellipse cx="306" cy="-121" fill="#87ceeb" stroke="#87ceeb" rx="78.79" ry="18"/><text x="306" y="-117.3" font-family="Times,serif" font-size="14" text-anchor="middle">पथाम्(9.3)</text></g><g id="edge9" class="edge"><title>Node9_1-&gt;Node9_3</title><path fill="none" stroke="#000" d="M358.26,-59.97C346.17,-73.86 331.44,-90.78 320.7,-103.11"/><polygon fill="#000" stroke="#000" points="361.1 -62.04 365.02 -52.2 355.82 -57.45 361.1 -62.04"/><text x="419.5" y="-73.8" font-family="Times,serif" font-size="14" text-anchor="middle">बहुव्रीहिः</text></g><g id="edge11" class="edge"><title>Node9_3-&gt;Node7_1</title><path fill="none" stroke="#000" d="M279.37,-144.87C267.35,-154.3 252.59,-164.71 238,-172 219.37,-181.31 197.8,-188.66 178.36,-194.16"/><polygon fill="#000" stroke="#000" points="281.63 -147.55 287.22 -138.55 277.24 -142.1 281.63 -147.55"/><text x="355" y="-160.8" font-family="Times,serif" font-size="14" text-anchor="middle">षष्ठीसम्बन्धः</text></g><g id="node12" class="node"><title>Node9_2</title><ellipse cx="181" cy="-34" fill="#ff0" stroke="#ff0" rx="63.09" ry="18"/><text x="181" y="-30.3" font-family="Times,serif" font-size="14" text-anchor="middle">महा-(9.2)</text></g><g id="edge10" class="edge"><title>Node9_2-&gt;Node9_3</title><path fill="none" stroke="#000" d="M189.86,-61.88C193.71,-70.22 198.98,-78.82 206,-85 214.18,-92.2 236.21,-100.24 257.52,-106.79"/><polygon fill="#000" stroke="#000" points="193 -60.32 185.97 -52.39 186.52 -62.97 193 -60.32"/><text x="270.5" y="-73.8" font-family="Times,serif" font-size="14" text-anchor="middle">कर्मधारयः</text></g></g></svg>