<?xml version="1.0" encoding="UTF-8" standalone="no"?>
<!DOCTYPE svg PUBLIC "-//W3C//DTD SVG 1.1//EN"
 "http://www.w3.org/Graphics/SVG/1.1/DTD/svg11.dtd">
<!-- Generated by graphviz version 2.43.0 (0)
 -->
<!-- Title: G Pages: 1 -->
<svg width="1143pt" height="234pt"
 viewBox="0.00 0.00 1143.00 234.00" xmlns="http://www.w3.org/2000/svg" xmlns:xlink="http://www.w3.org/1999/xlink">
<g id="graph0" class="graph" transform="scale(1 1) rotate(0) translate(4 230)">
<title>G</title>
<polygon fill="#fffacd" stroke="transparent" points="-4,4 -4,-230 1139,-230 1139,4 -4,4"/>
<g id="clust1" class="cluster">
<title>cluster_1</title>
<polygon fill="#fffacd" stroke="black" points="8,-8 8,-147 292,-147 292,-8 8,-8"/>
</g>
<!-- Node8_1 -->
<g id="node1" class="node">
<title>Node8_1</title>
<ellipse fill="#00bfff" stroke="#00bfff" cx="150" cy="-34" rx="133.78" ry="18"/>
<text text-anchor="middle" x="150" y="-30.3" font-family="Times,serif" font-size="14.00">सत्त्ववन्तः(8.1)</text>
</g>
<!-- Node9_2 -->
<g id="node2" class="node">
<title>Node9_2</title>
<ellipse fill="#00bfff" stroke="#00bfff" cx="213" cy="-121" rx="69.59" ry="18"/>
<text text-anchor="middle" x="213" y="-117.3" font-family="Times,serif" font-size="14.00">बलाः(9.2)</text>
</g>
<!-- Node8_1&#45;&gt;Node9_2 -->
<g id="edge7" class="edge">
<title>Node8_1&#45;&gt;Node9_2</title>
<path fill="none" stroke="black" d="M168.8,-60.36C179.04,-74.18 191.43,-90.9 200.48,-103.11"/>
<polygon fill="black" stroke="black" points="171.52,-58.15 162.75,-52.2 165.89,-62.32 171.52,-58.15"/>
<text text-anchor="middle" x="243.5" y="-73.8" font-family="Times,serif" font-size="14.00">विशेषणम्</text>
</g>
<!-- Node7_1 -->
<g id="node10" class="node">
<title>Node7_1</title>
<ellipse fill="#ff1975" stroke="#ff1975" cx="370" cy="-208" rx="115.88" ry="18"/>
<text text-anchor="middle" x="370" y="-204.3" font-family="Times,serif" font-size="14.00">तिष्ठन्ति(7.1)</text>
</g>
<!-- Node9_2&#45;&gt;Node7_1 -->
<g id="edge9" class="edge">
<title>Node9_2&#45;&gt;Node7_1</title>
<path fill="none" stroke="black" d="M245.97,-143.61C260.47,-152.78 277.84,-163.33 294,-172 306.29,-178.59 320.05,-185.16 332.45,-190.8"/>
<polygon fill="black" stroke="black" points="247.67,-140.54 237.36,-138.11 243.9,-146.44 247.67,-140.54"/>
<text text-anchor="middle" x="330" y="-160.8" font-family="Times,serif" font-size="14.00">कर्ता</text>
</g>
<!-- Node1_1 -->
<g id="node3" class="node">
<title>Node1_1</title>
<ellipse fill="#ff1975" stroke="#ff1975" cx="702" cy="-208" rx="87.99" ry="18"/>
<text text-anchor="middle" x="702" y="-204.3" font-family="Times,serif" font-size="14.00">प्रसीद(1.1)</text>
</g>
<!-- Node2_1 -->
<g id="node4" class="node">
<title>Node2_1</title>
<ellipse fill="#ffff00" stroke="#ffff00" cx="702" cy="-34" rx="81.49" ry="18"/>
<text text-anchor="middle" x="702" y="-30.3" font-family="Times,serif" font-size="14.00">सुमहा&#45;(2.1)</text>
</g>
<!-- Node2_2 -->
<g id="node5" class="node">
<title>Node2_2</title>
<ellipse fill="#6fffc3" stroke="#6fffc3" cx="702" cy="-121" rx="69.59" ry="18"/>
<text text-anchor="middle" x="702" y="-117.3" font-family="Times,serif" font-size="14.00">बाहो(2.2)</text>
</g>
<!-- Node2_1&#45;&gt;Node2_2 -->
<g id="edge1" class="edge">
<title>Node2_1&#45;&gt;Node2_2</title>
<path fill="none" stroke="black" d="M702,-62.27C702,-75.58 702,-91.19 702,-102.82"/>
<polygon fill="black" stroke="black" points="705.5,-62.2 702,-52.2 698.5,-62.2 705.5,-62.2"/>
<text text-anchor="middle" x="773.5" y="-73.8" font-family="Times,serif" font-size="14.00">बहुव्रीहिः</text>
</g>
<!-- Node2_2&#45;&gt;Node1_1 -->
<g id="edge2" class="edge">
<title>Node2_2&#45;&gt;Node1_1</title>
<path fill="none" stroke="black" d="M702,-149.27C702,-162.58 702,-178.19 702,-189.82"/>
<polygon fill="black" stroke="black" points="705.5,-149.2 702,-139.2 698.5,-149.2 705.5,-149.2"/>
<text text-anchor="middle" x="766.5" y="-160.8" font-family="Times,serif" font-size="14.00">सम्बोध्यः</text>
</g>
<!-- Node3_1 -->
<g id="node6" class="node">
<title>Node3_1</title>
<ellipse fill="#ff1975" stroke="#ff1975" cx="914" cy="-208" rx="106.68" ry="18"/>
<text text-anchor="middle" x="914" y="-204.3" font-family="Times,serif" font-size="14.00">त्रायस्व(3.1)</text>
</g>
<!-- Node4_1 -->
<g id="node7" class="node">
<title>Node4_1</title>
<ellipse fill="#ffff00" stroke="#ffff00" cx="914" cy="-34" rx="63.09" ry="18"/>
<text text-anchor="middle" x="914" y="-30.3" font-family="Times,serif" font-size="14.00">हरि&#45;(4.1)</text>
</g>
<!-- Node4_2 -->
<g id="node8" class="node">
<title>Node4_2</title>
<ellipse fill="#6fffc3" stroke="#6fffc3" cx="914" cy="-121" rx="78.79" ry="18"/>
<text text-anchor="middle" x="914" y="-117.3" font-family="Times,serif" font-size="14.00">सत्तम(4.2)</text>
</g>
<!-- Node4_1&#45;&gt;Node4_2 -->
<g id="edge3" class="edge">
<title>Node4_1&#45;&gt;Node4_2</title>
<path fill="none" stroke="black" d="M914,-62.27C914,-75.58 914,-91.19 914,-102.82"/>
<polygon fill="black" stroke="black" points="917.5,-62.2 914,-52.2 910.5,-62.2 917.5,-62.2"/>
<text text-anchor="middle" x="1024.5" y="-73.8" font-family="Times,serif" font-size="14.00">सप्तमी_तत्पुरुषः</text>
</g>
<!-- Node4_2&#45;&gt;Node3_1 -->
<g id="edge4" class="edge">
<title>Node4_2&#45;&gt;Node3_1</title>
<path fill="none" stroke="black" d="M914,-149.27C914,-162.58 914,-178.19 914,-189.82"/>
<polygon fill="black" stroke="black" points="917.5,-149.2 914,-139.2 910.5,-149.2 917.5,-149.2"/>
<text text-anchor="middle" x="978.5" y="-160.8" font-family="Times,serif" font-size="14.00">सम्बोध्यः</text>
</g>
<!-- Node5_1 -->
<g id="node9" class="node">
<title>Node5_1</title>
<ellipse fill="#c6e2eb" stroke="#c6e2eb" cx="370" cy="-121" rx="69.59" ry="18"/>
<text text-anchor="middle" x="370" y="-117.3" font-family="Times,serif" font-size="14.00">समये(5.1)</text>
</g>
<!-- Node5_1&#45;&gt;Node7_1 -->
<g id="edge5" class="edge">
<title>Node5_1&#45;&gt;Node7_1</title>
<path fill="none" stroke="black" d="M370,-149.27C370,-162.58 370,-178.19 370,-189.82"/>
<polygon fill="black" stroke="black" points="373.5,-149.2 370,-139.2 366.5,-149.2 373.5,-149.2"/>
<text text-anchor="middle" x="427.5" y="-160.8" font-family="Times,serif" font-size="14.00">अधिकरणम्</text>
</g>
<!-- Node6_1 -->
<g id="node11" class="node">
<title>Node6_1</title>
<ellipse fill="#6fffc3" stroke="#6fffc3" cx="536" cy="-121" rx="78.79" ry="18"/>
<text text-anchor="middle" x="536" y="-117.3" font-family="Times,serif" font-size="14.00">सौम्य(6.1)</text>
</g>
<!-- Node6_1&#45;&gt;Node7_1 -->
<g id="edge6" class="edge">
<title>Node6_1&#45;&gt;Node7_1</title>
<path fill="none" stroke="black" d="M517.4,-146.78C509.51,-155.83 499.68,-165.44 489,-172 473.77,-181.36 455.91,-188.33 438.72,-193.48"/>
<polygon fill="black" stroke="black" points="520.11,-149 523.8,-139.07 514.72,-144.53 520.11,-149"/>
<text text-anchor="middle" x="570.5" y="-160.8" font-family="Times,serif" font-size="14.00">सम्बोध्यः</text>
</g>
<!-- Node9_1 -->
<g id="node12" class="node">
<title>Node9_1</title>
<ellipse fill="#ffff00" stroke="#ffff00" cx="365" cy="-34" rx="63.09" ry="18"/>
<text text-anchor="middle" x="365" y="-30.3" font-family="Times,serif" font-size="14.00">महा&#45;(9.1)</text>
</g>
<!-- Node9_1&#45;&gt;Node9_2 -->
<g id="edge8" class="edge">
<title>Node9_1&#45;&gt;Node9_2</title>
<path fill="none" stroke="black" d="M340.81,-58.3C330.38,-67.48 317.69,-77.58 305,-85 289.95,-93.8 272.29,-101.14 256.49,-106.79"/>
<polygon fill="black" stroke="black" points="343.24,-60.83 348.3,-51.52 338.54,-55.64 343.24,-60.83"/>
<text text-anchor="middle" x="391.5" y="-73.8" font-family="Times,serif" font-size="14.00">कर्मधारयः</text>
</g>
</g>
</svg>
