<?xml version="1.0" encoding="UTF-8" standalone="no"?>
<!DOCTYPE svg PUBLIC "-//W3C//DTD SVG 1.1//EN"
 "http://www.w3.org/Graphics/SVG/1.1/DTD/svg11.dtd">
<!-- Generated by graphviz version 2.43.0 (0)
 -->
<!-- Title: G Pages: 1 -->
<svg width="2978pt" height="479pt"
 viewBox="0.00 0.00 2978.44 479.00" xmlns="http://www.w3.org/2000/svg" xmlns:xlink="http://www.w3.org/1999/xlink">
<g id="graph0" class="graph" transform="scale(1 1) rotate(0) translate(4 475)">
<title>G</title>
<polygon fill="#fffacd" stroke="transparent" points="-4,4 -4,-475 2974.44,-475 2974.44,4 -4,4"/>
<g id="clust1" class="cluster">
<title>cluster_1</title>
<polygon fill="#fffacd" stroke="black" points="238.6,-166 238.6,-305 642.6,-305 642.6,-166 238.6,-166"/>
</g>
<g id="clust2" class="cluster">
<title>cluster_2</title>
<polygon fill="#fffacd" stroke="black" points="1901.6,-166 1901.6,-392 2585.6,-392 2585.6,-166 1901.6,-166"/>
</g>
<g id="clust3" class="cluster">
<title>cluster_3</title>
<polygon fill="#fffacd" stroke="black" points="2593.6,-166 2593.6,-218 2767.6,-218 2767.6,-166 2593.6,-166"/>
</g>
<g id="clust4" class="cluster">
<title>cluster_4</title>
<polygon fill="#fffacd" stroke="black" points="650.6,-253 650.6,-392 854.6,-392 854.6,-253 650.6,-253"/>
</g>
<!-- Node1_3 -->
<g id="node1" class="node">
<title>Node1_3</title>
<ellipse fill="#93db70" stroke="#93db70" cx="343.6" cy="-192" rx="96.68" ry="18"/>
<text text-anchor="middle" x="343.6" y="-188.3" font-family="Times,serif" font-size="14.00">वितताम्(1.3)</text>
</g>
<!-- Node11_2 -->
<g id="node2" class="node">
<title>Node11_2</title>
<ellipse fill="#93db70" stroke="#93db70" cx="342.6" cy="-279" rx="93.68" ry="18"/>
<text text-anchor="middle" x="342.6" y="-275.3" font-family="Times,serif" font-size="14.00">पुरीम्(11.2)</text>
</g>
<!-- Node1_3&#45;&gt;Node11_2 -->
<g id="edge3" class="edge">
<title>Node1_3&#45;&gt;Node11_2</title>
<path fill="none" stroke="black" d="M343.28,-220.27C343.12,-233.58 342.94,-249.19 342.8,-260.82"/>
<polygon fill="black" stroke="black" points="346.78,-220.24 343.39,-210.2 339.78,-220.16 346.78,-220.24"/>
<text text-anchor="middle" x="400.1" y="-231.8" font-family="Times,serif" font-size="14.00">विशेषणम्</text>
</g>
<!-- Node10_1 -->
<g id="node25" class="node">
<title>Node10_1</title>
<ellipse fill="#ff1975" stroke="#ff1975" cx="179.6" cy="-366" rx="84.49" ry="18"/>
<text text-anchor="middle" x="179.6" y="-362.3" font-family="Times,serif" font-size="14.00">ददर्श(10.1)</text>
</g>
<!-- Node11_2&#45;&gt;Node10_1 -->
<g id="edge21" class="edge">
<title>Node11_2&#45;&gt;Node10_1</title>
<path fill="none" stroke="black" d="M306.74,-301.58C291.2,-310.68 272.68,-321.18 255.6,-330 242.43,-336.8 227.69,-343.73 214.72,-349.62"/>
<polygon fill="black" stroke="black" points="308.68,-304.5 315.52,-296.4 305.12,-298.47 308.68,-304.5"/>
<text text-anchor="middle" x="311.6" y="-318.8" font-family="Times,serif" font-size="14.00">कर्म</text>
</g>
<!-- Node6_3 -->
<g id="node3" class="node">
<title>Node6_3</title>
<ellipse fill="#93db70" stroke="#93db70" cx="546.6" cy="-192" rx="87.99" ry="18"/>
<text text-anchor="middle" x="546.6" y="-188.3" font-family="Times,serif" font-size="14.00">उपमाम्(6.3)</text>
</g>
<!-- Node6_3&#45;&gt;Node11_2 -->
<g id="edge13" class="edge">
<title>Node6_3&#45;&gt;Node11_2</title>
<path fill="none" stroke="black" d="M513.89,-214.79C498.49,-224.38 479.59,-235.2 461.6,-243 441.64,-251.65 418.91,-258.92 398.69,-264.56"/>
<polygon fill="black" stroke="black" points="515.95,-217.63 522.52,-209.32 512.2,-211.72 515.95,-217.63"/>
<text text-anchor="middle" x="548.1" y="-231.8" font-family="Times,serif" font-size="14.00">विशेषणम्</text>
</g>
<!-- Node2_1 -->
<g id="node4" class="node">
<title>Node2_1</title>
<ellipse fill="#40e0d0" stroke="#40e0d0" cx="2016.6" cy="-279" rx="106.68" ry="18"/>
<text text-anchor="middle" x="2016.6" y="-275.3" font-family="Times,serif" font-size="14.00">स्तम्भैः(2.1)</text>
</g>
<!-- Node16_1 -->
<g id="node5" class="node">
<title>Node16_1</title>
<ellipse fill="#40e0d0" stroke="#40e0d0" cx="2016.6" cy="-366" rx="65.79" ry="18"/>
<text text-anchor="middle" x="2016.6" y="-362.3" font-family="Times,serif" font-size="14.00">तैः(16.1)</text>
</g>
<!-- Node2_1&#45;&gt;Node16_1 -->
<g id="edge4" class="edge">
<title>Node2_1&#45;&gt;Node16_1</title>
<path fill="none" stroke="black" d="M2016.6,-307.27C2016.6,-320.58 2016.6,-336.19 2016.6,-347.82"/>
<polygon fill="black" stroke="black" points="2020.1,-307.2 2016.6,-297.2 2013.1,-307.2 2020.1,-307.2"/>
<text text-anchor="middle" x="2074.1" y="-318.8" font-family="Times,serif" font-size="14.00">विशेषणम्</text>
</g>
<!-- Node17_1 -->
<g id="node23" class="node">
<title>Node17_1</title>
<ellipse fill="#ff1975" stroke="#ff1975" cx="1447.6" cy="-453" rx="112.38" ry="18"/>
<text text-anchor="middle" x="1447.6" y="-449.3" font-family="Times,serif" font-size="14.00">शुशुभिरे(17.1)</text>
</g>
<!-- Node16_1&#45;&gt;Node17_1 -->
<g id="edge28" class="edge">
<title>Node16_1&#45;&gt;Node17_1</title>
<path fill="none" stroke="black" d="M1968.13,-383.84C1934,-395.02 1887.02,-409.04 1844.6,-417 1748.03,-435.11 1636.44,-443.9 1556.21,-448.14"/>
<polygon fill="black" stroke="black" points="1969.45,-387.09 1977.84,-380.62 1967.25,-380.44 1969.45,-387.09"/>
<text text-anchor="middle" x="1942.6" y="-405.8" font-family="Times,serif" font-size="14.00">करणम्</text>
</g>
<!-- Node3_2 -->
<g id="node6" class="node">
<title>Node3_2</title>
<ellipse fill="#40e0d0" stroke="#40e0d0" cx="2016.6" cy="-192" rx="106.68" ry="18"/>
<text text-anchor="middle" x="2016.6" y="-188.3" font-family="Times,serif" font-size="14.00">सन्निभैः(3.2)</text>
</g>
<!-- Node3_2&#45;&gt;Node2_1 -->
<g id="edge6" class="edge">
<title>Node3_2&#45;&gt;Node2_1</title>
<path fill="none" stroke="black" d="M2016.6,-220.27C2016.6,-233.58 2016.6,-249.19 2016.6,-260.82"/>
<polygon fill="black" stroke="black" points="2020.1,-220.2 2016.6,-210.2 2013.1,-220.2 2020.1,-220.2"/>
<text text-anchor="middle" x="2074.1" y="-231.8" font-family="Times,serif" font-size="14.00">विशेषणम्</text>
</g>
<!-- Node5_1 -->
<g id="node7" class="node">
<title>Node5_1</title>
<ellipse fill="#40e0d0" stroke="#40e0d0" cx="2219.6" cy="-279" rx="78.79" ry="18"/>
<text text-anchor="middle" x="2219.6" y="-275.3" font-family="Times,serif" font-size="14.00">जालैः(5.1)</text>
</g>
<!-- Node5_1&#45;&gt;Node16_1 -->
<g id="edge10" class="edge">
<title>Node5_1&#45;&gt;Node16_1</title>
<path fill="none" stroke="black" d="M2187.31,-301.81C2172.1,-311.4 2153.41,-322.23 2135.6,-330 2113.1,-339.82 2087.04,-347.83 2065.05,-353.7"/>
<polygon fill="black" stroke="black" points="2189.31,-304.69 2195.83,-296.34 2185.53,-298.8 2189.31,-304.69"/>
<text text-anchor="middle" x="2221.1" y="-318.8" font-family="Times,serif" font-size="14.00">विशेषणम्</text>
</g>
<!-- Node13_2 -->
<g id="node8" class="node">
<title>Node13_2</title>
<ellipse fill="#40e0d0" stroke="#40e0d0" cx="2446.6" cy="-279" rx="130.78" ry="18"/>
<text text-anchor="middle" x="2446.6" y="-275.3" font-family="Times,serif" font-size="14.00">सङ्कीर्णैः(13.2)</text>
</g>
<!-- Node13_2&#45;&gt;Node16_1 -->
<g id="edge24" class="edge">
<title>Node13_2&#45;&gt;Node16_1</title>
<path fill="none" stroke="black" d="M2392.02,-299.11C2360.4,-309.56 2319.64,-321.97 2282.6,-330 2213.4,-344.99 2132.6,-354.52 2078.37,-359.79"/>
<polygon fill="black" stroke="black" points="2393.15,-302.43 2401.53,-295.94 2390.94,-295.79 2393.15,-302.43"/>
<text text-anchor="middle" x="2394.1" y="-318.8" font-family="Times,serif" font-size="14.00">विशेषणम्</text>
</g>
<!-- Node4_3 -->
<g id="node9" class="node">
<title>Node4_3</title>
<ellipse fill="#40e0d0" stroke="#40e0d0" cx="2680.6" cy="-192" rx="78.79" ry="18"/>
<text text-anchor="middle" x="2680.6" y="-188.3" font-family="Times,serif" font-size="14.00">निभैः(4.3)</text>
</g>
<!-- Node4_3&#45;&gt;Node5_1 -->
<g id="edge9" class="edge">
<title>Node4_3&#45;&gt;Node5_1</title>
<path fill="none" stroke="black" d="M2625.77,-209.44C2613.92,-212.61 2601.4,-215.66 2589.6,-218 2527.44,-230.31 2368.68,-240.32 2306.6,-253 2292.43,-255.89 2277.21,-259.94 2263.52,-263.93"/>
<polygon fill="black" stroke="black" points="2626.82,-212.78 2635.54,-206.77 2624.97,-206.03 2626.82,-212.78"/>
<text text-anchor="middle" x="2570.1" y="-231.8" font-family="Times,serif" font-size="14.00">विशेषणम्</text>
</g>
<!-- Node18_1 -->
<g id="node10" class="node">
<title>Node18_1</title>
<ellipse fill="#00bfff" stroke="#00bfff" cx="733.6" cy="-279" rx="75.29" ry="18"/>
<text text-anchor="middle" x="733.6" y="-275.3" font-family="Times,serif" font-size="14.00">तानि(18.1)</text>
</g>
<!-- Node19_1 -->
<g id="node11" class="node">
<title>Node19_1</title>
<ellipse fill="#00bfff" stroke="#00bfff" cx="752.6" cy="-366" rx="93.68" ry="18"/>
<text text-anchor="middle" x="752.6" y="-362.3" font-family="Times,serif" font-size="14.00">भवनानि(19.1)</text>
</g>
<!-- Node18_1&#45;&gt;Node19_1 -->
<g id="edge29" class="edge">
<title>Node18_1&#45;&gt;Node19_1</title>
<path fill="none" stroke="black" d="M739.69,-307.27C742.67,-320.58 746.16,-336.19 748.76,-347.82"/>
<polygon fill="black" stroke="black" points="743.04,-306.2 737.44,-297.2 736.21,-307.72 743.04,-306.2"/>
<text text-anchor="middle" x="801.1" y="-318.8" font-family="Times,serif" font-size="14.00">विशेषणम्</text>
</g>
<!-- Node19_1&#45;&gt;Node17_1 -->
<g id="edge30" class="edge">
<title>Node19_1&#45;&gt;Node17_1</title>
<path fill="none" stroke="black" d="M839.49,-377.63C973.17,-393.98 1227.76,-425.11 1361.16,-441.43"/>
<polygon fill="black" stroke="black" points="839.65,-374.12 829.29,-376.38 838.8,-381.07 839.65,-374.12"/>
<text text-anchor="middle" x="1177.6" y="-405.8" font-family="Times,serif" font-size="14.00">कर्ता</text>
</g>
<!-- Node1_1 -->
<g id="node12" class="node">
<title>Node1_1</title>
<ellipse fill="#ffff00" stroke="#ffff00" cx="323.6" cy="-18" rx="100.18" ry="18"/>
<text text-anchor="middle" x="323.6" y="-14.3" font-family="Times,serif" font-size="14.00">प्रासाद&#45;(1.1)</text>
</g>
<!-- Node1_2 -->
<g id="node13" class="node">
<title>Node1_2</title>
<ellipse fill="#ffff00" stroke="#ffff00" cx="323.6" cy="-105" rx="72.29" ry="18"/>
<text text-anchor="middle" x="323.6" y="-101.3" font-family="Times,serif" font-size="14.00">माला&#45;(1.2)</text>
</g>
<!-- Node1_1&#45;&gt;Node1_2 -->
<g id="edge1" class="edge">
<title>Node1_1&#45;&gt;Node1_2</title>
<path fill="none" stroke="black" d="M323.6,-46.27C323.6,-59.58 323.6,-75.19 323.6,-86.82"/>
<polygon fill="black" stroke="black" points="327.1,-46.2 323.6,-36.2 320.1,-46.2 327.1,-46.2"/>
<text text-anchor="middle" x="427.1" y="-57.8" font-family="Times,serif" font-size="14.00">षष्ठी_तत्पुरुषः</text>
</g>
<!-- Node1_2&#45;&gt;Node1_3 -->
<g id="edge2" class="edge">
<title>Node1_2&#45;&gt;Node1_3</title>
<path fill="none" stroke="black" d="M321.81,-133.41C321.95,-140.84 322.69,-148.81 324.6,-156 326.22,-162.15 329.13,-168.4 332.2,-173.88"/>
<polygon fill="black" stroke="black" points="325.31,-133.45 321.94,-123.4 318.31,-133.36 325.31,-133.45"/>
<text text-anchor="middle" x="435.1" y="-144.8" font-family="Times,serif" font-size="14.00">तृतीया_तत्पुरुषः</text>
</g>
<!-- Node3_1 -->
<g id="node14" class="node">
<title>Node3_1</title>
<ellipse fill="#ffff00" stroke="#ffff00" cx="2016.6" cy="-105" rx="90.98" ry="18"/>
<text text-anchor="middle" x="2016.6" y="-101.3" font-family="Times,serif" font-size="14.00">काञ्चन&#45;(3.1)</text>
</g>
<!-- Node3_1&#45;&gt;Node3_2 -->
<g id="edge5" class="edge">
<title>Node3_1&#45;&gt;Node3_2</title>
<path fill="none" stroke="black" d="M2016.6,-133.27C2016.6,-146.58 2016.6,-162.19 2016.6,-173.82"/>
<polygon fill="black" stroke="black" points="2020.1,-133.2 2016.6,-123.2 2013.1,-133.2 2020.1,-133.2"/>
<text text-anchor="middle" x="2081.1" y="-144.8" font-family="Times,serif" font-size="14.00">कर्मधारयः</text>
</g>
<!-- Node4_1 -->
<g id="node15" class="node">
<title>Node4_1</title>
<ellipse fill="#ffff00" stroke="#ffff00" cx="2680.6" cy="-18" rx="63.09" ry="18"/>
<text text-anchor="middle" x="2680.6" y="-14.3" font-family="Times,serif" font-size="14.00">शात&#45;(4.1)</text>
</g>
<!-- Node4_2 -->
<g id="node16" class="node">
<title>Node4_2</title>
<ellipse fill="#ffff00" stroke="#ffff00" cx="2680.6" cy="-105" rx="81.49" ry="18"/>
<text text-anchor="middle" x="2680.6" y="-101.3" font-family="Times,serif" font-size="14.00">कुम्भ&#45;(4.2)</text>
</g>
<!-- Node4_1&#45;&gt;Node4_2 -->
<g id="edge7" class="edge">
<title>Node4_1&#45;&gt;Node4_2</title>
<path fill="none" stroke="black" d="M2680.6,-46.27C2680.6,-59.58 2680.6,-75.19 2680.6,-86.82"/>
<polygon fill="black" stroke="black" points="2684.1,-46.2 2680.6,-36.2 2677.1,-46.2 2684.1,-46.2"/>
<text text-anchor="middle" x="2784.1" y="-57.8" font-family="Times,serif" font-size="14.00">षष्ठी_तत्पुरुषः</text>
</g>
<!-- Node4_2&#45;&gt;Node4_3 -->
<g id="edge8" class="edge">
<title>Node4_2&#45;&gt;Node4_3</title>
<path fill="none" stroke="black" d="M2680.6,-133.27C2680.6,-146.58 2680.6,-162.19 2680.6,-173.82"/>
<polygon fill="black" stroke="black" points="2684.1,-133.2 2680.6,-123.2 2677.1,-133.2 2684.1,-133.2"/>
<text text-anchor="middle" x="2745.1" y="-144.8" font-family="Times,serif" font-size="14.00">कर्मधारयः</text>
</g>
<!-- Node6_1 -->
<g id="node17" class="node">
<title>Node6_1</title>
<ellipse fill="#ffff00" stroke="#ffff00" cx="567.6" cy="-18" rx="100.18" ry="18"/>
<text text-anchor="middle" x="567.6" y="-14.3" font-family="Times,serif" font-size="14.00">गन्धर्व&#45;(6.1)</text>
</g>
<!-- Node6_2 -->
<g id="node18" class="node">
<title>Node6_2</title>
<ellipse fill="#ffff00" stroke="#ffff00" cx="567.6" cy="-105" rx="63.09" ry="18"/>
<text text-anchor="middle" x="567.6" y="-101.3" font-family="Times,serif" font-size="14.00">नगर&#45;(6.2)</text>
</g>
<!-- Node6_1&#45;&gt;Node6_2 -->
<g id="edge11" class="edge">
<title>Node6_1&#45;&gt;Node6_2</title>
<path fill="none" stroke="black" d="M567.6,-46.27C567.6,-59.58 567.6,-75.19 567.6,-86.82"/>
<polygon fill="black" stroke="black" points="571.1,-46.2 567.6,-36.2 564.1,-46.2 571.1,-46.2"/>
<text text-anchor="middle" x="671.1" y="-57.8" font-family="Times,serif" font-size="14.00">षष्ठी_तत्पुरुषः</text>
</g>
<!-- Node6_2&#45;&gt;Node6_3 -->
<g id="edge12" class="edge">
<title>Node6_2&#45;&gt;Node6_3</title>
<path fill="none" stroke="black" d="M560.86,-133.27C557.57,-146.58 553.71,-162.19 550.84,-173.82"/>
<polygon fill="black" stroke="black" points="564.35,-133.75 563.35,-123.2 557.55,-132.07 564.35,-133.75"/>
<text text-anchor="middle" x="622.1" y="-144.8" font-family="Times,serif" font-size="14.00">कर्मधारयः</text>
</g>
<!-- Node7_1 -->
<g id="node19" class="node">
<title>Node7_1</title>
<ellipse fill="#ffff00" stroke="#ffff00" cx="1175.6" cy="-192" rx="72.29" ry="18"/>
<text text-anchor="middle" x="1175.6" y="-188.3" font-family="Times,serif" font-size="14.00">सप्त&#45;(7.1)</text>
</g>
<!-- Node7_2 -->
<g id="node20" class="node">
<title>Node7_2</title>
<ellipse fill="#ffff00" stroke="#ffff00" cx="1175.6" cy="-279" rx="63.09" ry="18"/>
<text text-anchor="middle" x="1175.6" y="-275.3" font-family="Times,serif" font-size="14.00">भौम&#45;(7.2)</text>
</g>
<!-- Node7_1&#45;&gt;Node7_2 -->
<g id="edge14" class="edge">
<title>Node7_1&#45;&gt;Node7_2</title>
<path fill="none" stroke="black" d="M1175.6,-220.27C1175.6,-233.58 1175.6,-249.19 1175.6,-260.82"/>
<polygon fill="black" stroke="black" points="1179.1,-220.2 1175.6,-210.2 1172.1,-220.2 1179.1,-220.2"/>
<text text-anchor="middle" x="1225.6" y="-231.8" font-family="Times,serif" font-size="14.00">द्विगुः</text>
</g>
<!-- Node7_4 -->
<g id="node21" class="node">
<title>Node7_4</title>
<ellipse fill="#40e0d0" stroke="#40e0d0" cx="1175.6" cy="-366" rx="78.79" ry="18"/>
<text text-anchor="middle" x="1175.6" y="-362.3" font-family="Times,serif" font-size="14.00">भौमैः(7.4)</text>
</g>
<!-- Node7_2&#45;&gt;Node7_4 -->
<g id="edge15" class="edge">
<title>Node7_2&#45;&gt;Node7_4</title>
<path fill="none" stroke="black" d="M1175.6,-307.27C1175.6,-320.58 1175.6,-336.19 1175.6,-347.82"/>
<polygon fill="black" stroke="black" points="1179.1,-307.2 1175.6,-297.2 1172.1,-307.2 1179.1,-307.2"/>
<text text-anchor="middle" x="1240.1" y="-318.8" font-family="Times,serif" font-size="14.00">द्वन्द्वः</text>
</g>
<!-- Node7_4&#45;&gt;Node17_1 -->
<g id="edge17" class="edge">
<title>Node7_4&#45;&gt;Node17_1</title>
<path fill="none" stroke="black" d="M1226.64,-384.61C1255.57,-394.44 1292.5,-406.74 1325.6,-417 1347.91,-423.92 1372.66,-431.1 1394,-437.16"/>
<polygon fill="black" stroke="black" points="1227.74,-381.29 1217.15,-381.38 1225.49,-387.92 1227.74,-381.29"/>
<text text-anchor="middle" x="1361.6" y="-405.8" font-family="Times,serif" font-size="14.00">करणम्</text>
</g>
<!-- Node7_3 -->
<g id="node22" class="node">
<title>Node7_3</title>
<ellipse fill="#ffff00" stroke="#ffff00" cx="1328.6" cy="-279" rx="72.29" ry="18"/>
<text text-anchor="middle" x="1328.6" y="-275.3" font-family="Times,serif" font-size="14.00">अष्ट&#45;(7.3)</text>
</g>
<!-- Node7_3&#45;&gt;Node7_4 -->
<g id="edge16" class="edge">
<title>Node7_3&#45;&gt;Node7_4</title>
<path fill="none" stroke="black" d="M1321.84,-306.78C1318.51,-315.25 1313.63,-323.97 1306.6,-330 1295.52,-339.5 1264.43,-348.01 1235.33,-354.26"/>
<polygon fill="black" stroke="black" points="1325.21,-307.72 1325.08,-297.13 1318.58,-305.49 1325.21,-307.72"/>
<text text-anchor="middle" x="1366.6" y="-318.8" font-family="Times,serif" font-size="14.00">द्विगुः</text>
</g>
<!-- Node8_1 -->
<g id="node24" class="node">
<title>Node8_1</title>
<ellipse fill="#ff99ff" stroke="#ff99ff" cx="41.6" cy="-279" rx="41.69" ry="18"/>
<text text-anchor="middle" x="41.6" y="-275.3" font-family="Times,serif" font-size="14.00">च(8.1)</text>
</g>
<!-- Node8_1&#45;&gt;Node10_1 -->
<g id="edge18" class="edge">
<title>Node8_1&#45;&gt;Node10_1</title>
<path fill="none" stroke="black" d="M46.86,-306.9C49.69,-315.28 54.01,-323.9 60.6,-330 74.19,-342.58 92.08,-350.66 109.84,-355.84"/>
<polygon fill="black" stroke="black" points="50.15,-305.7 44.1,-297 43.41,-307.58 50.15,-305.7"/>
<text text-anchor="middle" x="118.1" y="-318.8" font-family="Times,serif" font-size="14.00">सम्बन्धः</text>
</g>
<!-- Node9_1 -->
<g id="node26" class="node">
<title>Node9_1</title>
<ellipse fill="#00bfff" stroke="#00bfff" cx="179.6" cy="-279" rx="50.89" ry="18"/>
<text text-anchor="middle" x="179.6" y="-275.3" font-family="Times,serif" font-size="14.00">सः(9.1)</text>
</g>
<!-- Node9_1&#45;&gt;Node10_1 -->
<g id="edge19" class="edge">
<title>Node9_1&#45;&gt;Node10_1</title>
<path fill="none" stroke="black" d="M179.6,-307.27C179.6,-320.58 179.6,-336.19 179.6,-347.82"/>
<polygon fill="black" stroke="black" points="183.1,-307.2 179.6,-297.2 176.1,-307.2 183.1,-307.2"/>
<text text-anchor="middle" x="215.6" y="-318.8" font-family="Times,serif" font-size="14.00">कर्ता</text>
</g>
<!-- Node11_1 -->
<g id="node27" class="node">
<title>Node11_1</title>
<ellipse fill="#ffff00" stroke="#ffff00" cx="159.6" cy="-192" rx="68.79" ry="18"/>
<text text-anchor="middle" x="159.6" y="-188.3" font-family="Times,serif" font-size="14.00">महा&#45;(11.1)</text>
</g>
<!-- Node11_1&#45;&gt;Node11_2 -->
<g id="edge20" class="edge">
<title>Node11_1&#45;&gt;Node11_2</title>
<path fill="none" stroke="black" d="M178.92,-217.24C187.44,-226.5 198.12,-236.41 209.6,-243 216.58,-247.01 253.19,-256.53 286.23,-264.62"/>
<polygon fill="black" stroke="black" points="181.54,-214.91 172.31,-209.7 176.27,-219.52 181.54,-214.91"/>
<text text-anchor="middle" x="274.1" y="-231.8" font-family="Times,serif" font-size="14.00">कर्मधारयः</text>
</g>
<!-- Node12_1 -->
<g id="node28" class="node">
<title>Node12_1</title>
<ellipse fill="#40e0d0" stroke="#40e0d0" cx="1365.6" cy="-366" rx="93.68" ry="18"/>
<text text-anchor="middle" x="1365.6" y="-362.3" font-family="Times,serif" font-size="14.00">स्थलैः(12.1)</text>
</g>
<!-- Node12_1&#45;&gt;Node17_1 -->
<g id="edge22" class="edge">
<title>Node12_1&#45;&gt;Node17_1</title>
<path fill="none" stroke="black" d="M1388.91,-391.17C1402.4,-405.15 1419.04,-422.39 1431.15,-434.95"/>
<polygon fill="black" stroke="black" points="1391.26,-388.56 1381.8,-383.79 1386.22,-393.42 1391.26,-388.56"/>
<text text-anchor="middle" x="1446.6" y="-405.8" font-family="Times,serif" font-size="14.00">करणम्</text>
</g>
<!-- Node13_1 -->
<g id="node29" class="node">
<title>Node13_1</title>
<ellipse fill="#ffff00" stroke="#ffff00" cx="2873.6" cy="-192" rx="96.68" ry="18"/>
<text text-anchor="middle" x="2873.6" y="-188.3" font-family="Times,serif" font-size="14.00">स्फटिक&#45;(13.1)</text>
</g>
<!-- Node13_1&#45;&gt;Node13_2 -->
<g id="edge23" class="edge">
<title>Node13_1&#45;&gt;Node13_2</title>
<path fill="none" stroke="black" d="M2809.33,-209.35C2796.84,-212.36 2783.83,-215.37 2771.6,-218 2688.15,-235.91 2591.95,-253.27 2525.99,-264.66"/>
<polygon fill="black" stroke="black" points="2810.32,-212.71 2819.21,-206.95 2808.66,-205.91 2810.32,-212.71"/>
<text text-anchor="middle" x="2822.1" y="-231.8" font-family="Times,serif" font-size="14.00">षष्ठी_तत्पुरुषः</text>
</g>
<!-- Node14_1 -->
<g id="node30" class="node">
<title>Node14_1</title>
<ellipse fill="#ffff00" stroke="#ffff00" cx="1588.6" cy="-279" rx="124.28" ry="18"/>
<text text-anchor="middle" x="1588.6" y="-275.3" font-family="Times,serif" font-size="14.00">कार्तस्वर&#45;(14.1)</text>
</g>
<!-- Node14_2 -->
<g id="node31" class="node">
<title>Node14_2</title>
<ellipse fill="#40e0d0" stroke="#40e0d0" cx="1598.6" cy="-366" rx="121.58" ry="18"/>
<text text-anchor="middle" x="1598.6" y="-362.3" font-family="Times,serif" font-size="14.00">विभूषितैः(14.2)</text>
</g>
<!-- Node14_1&#45;&gt;Node14_2 -->
<g id="edge25" class="edge">
<title>Node14_1&#45;&gt;Node14_2</title>
<path fill="none" stroke="black" d="M1588,-307.43C1588.15,-314.78 1588.6,-322.72 1589.6,-330 1590.4,-335.84 1591.82,-342.11 1593.31,-347.71"/>
<polygon fill="black" stroke="black" points="1591.5,-307.19 1587.96,-297.2 1584.5,-307.21 1591.5,-307.19"/>
<text text-anchor="middle" x="1700.1" y="-318.8" font-family="Times,serif" font-size="14.00">तृतीया_तत्पुरुषः</text>
</g>
<!-- Node14_2&#45;&gt;Node17_1 -->
<g id="edge26" class="edge">
<title>Node14_2&#45;&gt;Node17_1</title>
<path fill="none" stroke="black" d="M1560.29,-388.56C1534.32,-403.18 1500.52,-422.21 1476.74,-435.6"/>
<polygon fill="black" stroke="black" points="1562.13,-391.55 1569.12,-383.59 1558.69,-385.45 1562.13,-391.55"/>
<text text-anchor="middle" x="1567.6" y="-405.8" font-family="Times,serif" font-size="14.00">करणम्</text>
</g>
<!-- Node15_1 -->
<g id="node32" class="node">
<title>Node15_1</title>
<ellipse fill="#40e0d0" stroke="#40e0d0" cx="1826.6" cy="-279" rx="65.79" ry="18"/>
<text text-anchor="middle" x="1826.6" y="-275.3" font-family="Times,serif" font-size="14.00">तैः(15.1)</text>
</g>
<!-- Node15_1&#45;&gt;Node16_1 -->
<g id="edge27" class="edge">
<title>Node15_1&#45;&gt;Node16_1</title>
<path fill="none" stroke="black" d="M1864.57,-300.03C1883.09,-309.52 1905.8,-320.78 1926.6,-330 1943.46,-337.47 1962.44,-344.99 1978.62,-351.13"/>
<polygon fill="black" stroke="black" points="1866.06,-296.86 1855.57,-295.38 1862.85,-303.08 1866.06,-296.86"/>
<text text-anchor="middle" x="1969.6" y="-318.8" font-family="Times,serif" font-size="14.00">वीप्सा</text>
</g>
<!-- Node20_1 -->
<g id="node33" class="node">
<title>Node20_1</title>
<ellipse fill="#ff99ff" stroke="#ff99ff" cx="1813.6" cy="-366" rx="75.29" ry="18"/>
<text text-anchor="middle" x="1813.6" y="-362.3" font-family="Times,serif" font-size="14.00">अत्र(20.1)</text>
</g>
<!-- Node20_1&#45;&gt;Node17_1 -->
<g id="edge31" class="edge">
<title>Node20_1&#45;&gt;Node17_1</title>
<path fill="none" stroke="black" d="M1759.89,-383.68C1749.86,-386.59 1739.44,-389.49 1729.6,-392 1657.69,-410.32 1574.49,-427.54 1517.2,-438.8"/>
<polygon fill="black" stroke="black" points="1761.15,-386.95 1769.75,-380.77 1759.17,-380.24 1761.15,-386.95"/>
<text text-anchor="middle" x="1762.1" y="-405.8" font-family="Times,serif" font-size="14.00">देशाधिकरणम्</text>
</g>
<!-- Node21_1 -->
<g id="node34" class="node">
<title>Node21_1</title>
<ellipse fill="#87ceeb" stroke="#87ceeb" cx="974.6" cy="-279" rx="112.38" ry="18"/>
<text text-anchor="middle" x="974.6" y="-275.3" font-family="Times,serif" font-size="14.00">रक्षसाम्(21.1)</text>
</g>
<!-- Node21_1&#45;&gt;Node19_1 -->
<g id="edge32" class="edge">
<title>Node21_1&#45;&gt;Node19_1</title>
<path fill="none" stroke="black" d="M931.56,-300.57C910.93,-310.08 885.72,-321.19 862.6,-330 842.93,-337.49 820.89,-344.72 801.74,-350.65"/>
<polygon fill="black" stroke="black" points="933.1,-303.71 940.7,-296.32 930.15,-297.36 933.1,-303.71"/>
<text text-anchor="middle" x="989.6" y="-318.8" font-family="Times,serif" font-size="14.00">षष्ठीसम्बन्धः</text>
</g>
</g>
</svg>
