<?xml version="1.0" encoding="UTF-8" standalone="no"?>
<!DOCTYPE svg PUBLIC "-//W3C//DTD SVG 1.1//EN"
 "http://www.w3.org/Graphics/SVG/1.1/DTD/svg11.dtd">
<!-- Generated by graphviz version 2.43.0 (0)
 -->
<!-- Title: G Pages: 1 -->
<svg width="1260pt" height="566pt"
 viewBox="0.00 0.00 1260.14 566.00" xmlns="http://www.w3.org/2000/svg" xmlns:xlink="http://www.w3.org/1999/xlink">
<g id="graph0" class="graph" transform="scale(1 1) rotate(0) translate(4 562)">
<title>G</title>
<polygon fill="#fffacd" stroke="transparent" points="-4,4 -4,-562 1256.14,-562 1256.14,4 -4,4"/>
<g id="clust1" class="cluster">
<title>cluster_1</title>
<polygon fill="#fffacd" stroke="black" points="165.14,-340 165.14,-479 1141.14,-479 1141.14,-340 165.14,-340"/>
</g>
<g id="clust2" class="cluster">
<title>cluster_2</title>
<polygon fill="#fffacd" stroke="black" points="224.14,-166 224.14,-305 380.14,-305 380.14,-166 224.14,-166"/>
</g>
<!-- Node1_5 -->
<g id="node1" class="node">
<title>Node1_5</title>
<ellipse fill="#93db70" stroke="#93db70" cx="815.14" cy="-366" rx="106.68" ry="18"/>
<text text-anchor="middle" x="815.14" y="-362.3" font-family="Times,serif" font-size="14.00">मालिनीम्(1.5)</text>
</g>
<!-- Node4_3 -->
<g id="node2" class="node">
<title>Node4_3</title>
<ellipse fill="#93db70" stroke="#93db70" cx="566.14" cy="-453" rx="106.68" ry="18"/>
<text text-anchor="middle" x="566.14" y="-449.3" font-family="Times,serif" font-size="14.00">पालिताम्(4.3)</text>
</g>
<!-- Node1_5&#45;&gt;Node4_3 -->
<g id="edge5" class="edge">
<title>Node1_5&#45;&gt;Node4_3</title>
<path fill="none" stroke="black" d="M767.1,-386.55C742.72,-396.19 712.54,-407.72 685.14,-417 663.83,-424.22 640.09,-431.38 619.45,-437.32"/>
<polygon fill="black" stroke="black" points="768.48,-389.77 776.48,-382.82 765.89,-383.26 768.48,-389.77"/>
<text text-anchor="middle" x="781.64" y="-405.8" font-family="Times,serif" font-size="14.00">विशेषणम्</text>
</g>
<!-- Node8_1 -->
<g id="node18" class="node">
<title>Node8_1</title>
<ellipse fill="#ff1975" stroke="#ff1975" cx="566.14" cy="-540" rx="113.18" ry="18"/>
<text text-anchor="middle" x="566.14" y="-536.3" font-family="Times,serif" font-size="14.00">(प्रविवेश)(8.1)</text>
</g>
<!-- Node4_3&#45;&gt;Node8_1 -->
<g id="edge14" class="edge">
<title>Node4_3&#45;&gt;Node8_1</title>
<path fill="none" stroke="black" d="M566.14,-481.27C566.14,-494.58 566.14,-510.19 566.14,-521.82"/>
<polygon fill="black" stroke="black" points="569.64,-481.2 566.14,-471.2 562.64,-481.2 569.64,-481.2"/>
<text text-anchor="middle" x="595.14" y="-492.8" font-family="Times,serif" font-size="14.00">कर्म</text>
</g>
<!-- Node2_5 -->
<g id="node3" class="node">
<title>Node2_5</title>
<ellipse fill="#93db70" stroke="#93db70" cx="1036.14" cy="-366" rx="96.68" ry="18"/>
<text text-anchor="middle" x="1036.14" y="-362.3" font-family="Times,serif" font-size="14.00">तोरणाम्(2.5)</text>
</g>
<!-- Node2_5&#45;&gt;Node4_3 -->
<g id="edge10" class="edge">
<title>Node2_5&#45;&gt;Node4_3</title>
<path fill="none" stroke="black" d="M977.09,-384.39C939.11,-395.06 888.55,-408.29 843.14,-417 781.38,-428.85 711.07,-437.68 656.74,-443.51"/>
<polygon fill="black" stroke="black" points="978.29,-387.69 986.96,-381.6 976.38,-380.96 978.29,-387.69"/>
<text text-anchor="middle" x="964.64" y="-405.8" font-family="Times,serif" font-size="14.00">विशेषणम्</text>
</g>
<!-- Node3_1 -->
<g id="node4" class="node">
<title>Node3_1</title>
<ellipse fill="#93db70" stroke="#93db70" cx="566.14" cy="-366" rx="124.58" ry="18"/>
<text text-anchor="middle" x="566.14" y="-362.3" font-family="Times,serif" font-size="14.00">यशस्विनीम्(3.1)</text>
</g>
<!-- Node3_1&#45;&gt;Node4_3 -->
<g id="edge11" class="edge">
<title>Node3_1&#45;&gt;Node4_3</title>
<path fill="none" stroke="black" d="M566.14,-394.27C566.14,-407.58 566.14,-423.19 566.14,-434.82"/>
<polygon fill="black" stroke="black" points="569.64,-394.2 566.14,-384.2 562.64,-394.2 569.64,-394.2"/>
<text text-anchor="middle" x="623.64" y="-405.8" font-family="Times,serif" font-size="14.00">विशेषणम्</text>
</g>
<!-- Node7_1 -->
<g id="node5" class="node">
<title>Node7_1</title>
<ellipse fill="#93db70" stroke="#93db70" cx="298.14" cy="-366" rx="124.58" ry="18"/>
<text text-anchor="middle" x="298.14" y="-362.3" font-family="Times,serif" font-size="14.00">सुपालिताम्(7.1)</text>
</g>
<!-- Node7_1&#45;&gt;Node4_3 -->
<g id="edge19" class="edge">
<title>Node7_1&#45;&gt;Node4_3</title>
<path fill="none" stroke="black" d="M353.27,-386.05C381.3,-395.6 415.95,-407.18 447.14,-417 469.02,-423.89 493.29,-431.1 514.18,-437.18"/>
<polygon fill="black" stroke="black" points="354.24,-382.68 343.65,-382.76 351.98,-389.31 354.24,-382.68"/>
<text text-anchor="middle" x="504.64" y="-405.8" font-family="Times,serif" font-size="14.00">विशेषणम्</text>
</g>
<!-- Node6_2 -->
<g id="node6" class="node">
<title>Node6_2</title>
<ellipse fill="#40e0d0" stroke="#40e0d0" cx="302.14" cy="-192" rx="69.59" ry="18"/>
<text text-anchor="middle" x="302.14" y="-188.3" font-family="Times,serif" font-size="14.00">बलैः(6.2)</text>
</g>
<!-- Node5_2 -->
<g id="node7" class="node">
<title>Node5_2</title>
<ellipse fill="#40e0d0" stroke="#40e0d0" cx="302.14" cy="-279" rx="69.59" ry="18"/>
<text text-anchor="middle" x="302.14" y="-275.3" font-family="Times,serif" font-size="14.00">चरैः(5.2)</text>
</g>
<!-- Node6_2&#45;&gt;Node5_2 -->
<g id="edge18" class="edge">
<title>Node6_2&#45;&gt;Node5_2</title>
<path fill="none" stroke="black" d="M302.14,-220.27C302.14,-233.58 302.14,-249.19 302.14,-260.82"/>
<polygon fill="black" stroke="black" points="305.64,-220.2 302.14,-210.2 298.64,-220.2 305.64,-220.2"/>
<text text-anchor="middle" x="359.64" y="-231.8" font-family="Times,serif" font-size="14.00">विशेषणम्</text>
</g>
<!-- Node5_2&#45;&gt;Node7_1 -->
<g id="edge16" class="edge">
<title>Node5_2&#45;&gt;Node7_1</title>
<path fill="none" stroke="black" d="M300.86,-307.27C300.23,-320.58 299.5,-336.19 298.95,-347.82"/>
<polygon fill="black" stroke="black" points="304.36,-307.35 301.33,-297.2 297.37,-307.03 304.36,-307.35"/>
<text text-anchor="middle" x="337.14" y="-318.8" font-family="Times,serif" font-size="14.00">कर्ता</text>
</g>
<!-- Node1_1 -->
<g id="node8" class="node">
<title>Node1_1</title>
<ellipse fill="#ffff00" stroke="#ffff00" cx="809.14" cy="-18" rx="44.39" ry="18"/>
<text text-anchor="middle" x="809.14" y="-14.3" font-family="Times,serif" font-size="14.00">स&#45;(1.1)</text>
</g>
<!-- Node1_2 -->
<g id="node9" class="node">
<title>Node1_2</title>
<ellipse fill="#ffff00" stroke="#ffff00" cx="809.14" cy="-105" rx="100.18" ry="18"/>
<text text-anchor="middle" x="809.14" y="-101.3" font-family="Times,serif" font-size="14.00">पाण्डुर&#45;(1.2)</text>
</g>
<!-- Node1_1&#45;&gt;Node1_2 -->
<g id="edge1" class="edge">
<title>Node1_1&#45;&gt;Node1_2</title>
<path fill="none" stroke="black" d="M809.14,-46.27C809.14,-59.58 809.14,-75.19 809.14,-86.82"/>
<polygon fill="black" stroke="black" points="812.64,-46.2 809.14,-36.2 805.64,-46.2 812.64,-46.2"/>
<text text-anchor="middle" x="880.64" y="-57.8" font-family="Times,serif" font-size="14.00">बहुव्रीहिः</text>
</g>
<!-- Node1_3 -->
<g id="node10" class="node">
<title>Node1_3</title>
<ellipse fill="#ffff00" stroke="#ffff00" cx="810.14" cy="-192" rx="90.98" ry="18"/>
<text text-anchor="middle" x="810.14" y="-188.3" font-family="Times,serif" font-size="14.00">आविद्ध&#45;(1.3)</text>
</g>
<!-- Node1_2&#45;&gt;Node1_3 -->
<g id="edge2" class="edge">
<title>Node1_2&#45;&gt;Node1_3</title>
<path fill="none" stroke="black" d="M809.46,-133.27C809.62,-146.58 809.8,-162.19 809.94,-173.82"/>
<polygon fill="black" stroke="black" points="812.96,-133.16 809.35,-123.2 805.96,-133.24 812.96,-133.16"/>
<text text-anchor="middle" x="919.64" y="-144.8" font-family="Times,serif" font-size="14.00">तृतीया_तत्पुरुषः</text>
</g>
<!-- Node1_4 -->
<g id="node11" class="node">
<title>Node1_4</title>
<ellipse fill="#ffff00" stroke="#ffff00" cx="811.14" cy="-279" rx="81.49" ry="18"/>
<text text-anchor="middle" x="811.14" y="-275.3" font-family="Times,serif" font-size="14.00">विमान&#45;(1.4)</text>
</g>
<!-- Node1_3&#45;&gt;Node1_4 -->
<g id="edge3" class="edge">
<title>Node1_3&#45;&gt;Node1_4</title>
<path fill="none" stroke="black" d="M810.46,-220.27C810.62,-233.58 810.8,-249.19 810.94,-260.82"/>
<polygon fill="black" stroke="black" points="813.96,-220.16 810.35,-210.2 806.96,-220.24 813.96,-220.16"/>
<text text-anchor="middle" x="874.64" y="-231.8" font-family="Times,serif" font-size="14.00">कर्मधारयः</text>
</g>
<!-- Node1_4&#45;&gt;Node1_5 -->
<g id="edge4" class="edge">
<title>Node1_4&#45;&gt;Node1_5</title>
<path fill="none" stroke="black" d="M812.43,-307.27C813.05,-320.58 813.79,-336.19 814.34,-347.82"/>
<polygon fill="black" stroke="black" points="815.92,-307.03 811.95,-297.2 808.93,-307.35 815.92,-307.03"/>
<text text-anchor="middle" x="884.64" y="-318.8" font-family="Times,serif" font-size="14.00">बहुव्रीहिः</text>
</g>
<!-- Node2_1 -->
<g id="node12" class="node">
<title>Node2_1</title>
<ellipse fill="#ffff00" stroke="#ffff00" cx="1053.14" cy="-18" rx="63.09" ry="18"/>
<text text-anchor="middle" x="1053.14" y="-14.3" font-family="Times,serif" font-size="14.00">महा&#45;(2.1)</text>
</g>
<!-- Node2_2 -->
<g id="node13" class="node">
<title>Node2_2</title>
<ellipse fill="#ffff00" stroke="#ffff00" cx="1053.14" cy="-105" rx="72.29" ry="18"/>
<text text-anchor="middle" x="1053.14" y="-101.3" font-family="Times,serif" font-size="14.00">अर्ह&#45;(2.2)</text>
</g>
<!-- Node2_1&#45;&gt;Node2_2 -->
<g id="edge6" class="edge">
<title>Node2_1&#45;&gt;Node2_2</title>
<path fill="none" stroke="black" d="M1053.14,-46.27C1053.14,-59.58 1053.14,-75.19 1053.14,-86.82"/>
<polygon fill="black" stroke="black" points="1056.64,-46.2 1053.14,-36.2 1049.64,-46.2 1056.64,-46.2"/>
<text text-anchor="middle" x="1117.64" y="-57.8" font-family="Times,serif" font-size="14.00">कर्मधारयः</text>
</g>
<!-- Node2_3 -->
<g id="node14" class="node">
<title>Node2_3</title>
<ellipse fill="#ffff00" stroke="#ffff00" cx="1053.14" cy="-192" rx="109.38" ry="18"/>
<text text-anchor="middle" x="1053.14" y="-188.3" font-family="Times,serif" font-size="14.00">जाम्बूनद&#45;(2.3)</text>
</g>
<!-- Node2_2&#45;&gt;Node2_3 -->
<g id="edge7" class="edge">
<title>Node2_2&#45;&gt;Node2_3</title>
<path fill="none" stroke="black" d="M1053.14,-133.27C1053.14,-146.58 1053.14,-162.19 1053.14,-173.82"/>
<polygon fill="black" stroke="black" points="1056.64,-133.2 1053.14,-123.2 1049.64,-133.2 1056.64,-133.2"/>
<text text-anchor="middle" x="1117.64" y="-144.8" font-family="Times,serif" font-size="14.00">कर्मधारयः</text>
</g>
<!-- Node2_4 -->
<g id="node15" class="node">
<title>Node2_4</title>
<ellipse fill="#ffff00" stroke="#ffff00" cx="1036.14" cy="-279" rx="63.09" ry="18"/>
<text text-anchor="middle" x="1036.14" y="-275.3" font-family="Times,serif" font-size="14.00">जाल&#45;(2.4)</text>
</g>
<!-- Node2_3&#45;&gt;Node2_4 -->
<g id="edge8" class="edge">
<title>Node2_3&#45;&gt;Node2_4</title>
<path fill="none" stroke="black" d="M1047.69,-220.27C1045.03,-233.58 1041.9,-249.19 1039.58,-260.82"/>
<polygon fill="black" stroke="black" points="1051.17,-220.69 1049.7,-210.2 1044.31,-219.32 1051.17,-220.69"/>
<text text-anchor="middle" x="1148.64" y="-231.8" font-family="Times,serif" font-size="14.00">षष्ठी_तत्पुरुषः</text>
</g>
<!-- Node2_4&#45;&gt;Node2_5 -->
<g id="edge9" class="edge">
<title>Node2_4&#45;&gt;Node2_5</title>
<path fill="none" stroke="black" d="M1036.14,-307.27C1036.14,-320.58 1036.14,-336.19 1036.14,-347.82"/>
<polygon fill="black" stroke="black" points="1039.64,-307.2 1036.14,-297.2 1032.64,-307.2 1039.64,-307.2"/>
<text text-anchor="middle" x="1107.64" y="-318.8" font-family="Times,serif" font-size="14.00">बहुव्रीहिः</text>
</g>
<!-- Node4_1 -->
<g id="node16" class="node">
<title>Node4_1</title>
<ellipse fill="#ffff00" stroke="#ffff00" cx="72.14" cy="-279" rx="72.29" ry="18"/>
<text text-anchor="middle" x="72.14" y="-275.3" font-family="Times,serif" font-size="14.00">रावण&#45;(4.1)</text>
</g>
<!-- Node4_2 -->
<g id="node17" class="node">
<title>Node4_2</title>
<ellipse fill="#ffff00" stroke="#ffff00" cx="76.14" cy="-366" rx="72.29" ry="18"/>
<text text-anchor="middle" x="76.14" y="-362.3" font-family="Times,serif" font-size="14.00">बाहु&#45;(4.2)</text>
</g>
<!-- Node4_1&#45;&gt;Node4_2 -->
<g id="edge12" class="edge">
<title>Node4_1&#45;&gt;Node4_2</title>
<path fill="none" stroke="black" d="M72.37,-307.35C72.52,-314.71 72.76,-322.66 73.14,-330 73.45,-335.85 73.95,-342.23 74.45,-347.93"/>
<polygon fill="black" stroke="black" points="75.86,-307.08 72.21,-297.13 68.86,-307.19 75.86,-307.08"/>
<text text-anchor="middle" x="176.64" y="-318.8" font-family="Times,serif" font-size="14.00">षष्ठी_तत्पुरुषः</text>
</g>
<!-- Node4_2&#45;&gt;Node4_3 -->
<g id="edge13" class="edge">
<title>Node4_2&#45;&gt;Node4_3</title>
<path fill="none" stroke="black" d="M110.5,-387.99C129.46,-398.53 153.84,-410.43 177.14,-417 229.36,-431.71 368.26,-441.71 465.09,-447.13"/>
<polygon fill="black" stroke="black" points="112.07,-384.86 101.65,-382.95 108.61,-390.94 112.07,-384.86"/>
<text text-anchor="middle" x="287.64" y="-405.8" font-family="Times,serif" font-size="14.00">तृतीया_तत्पुरुषः</text>
</g>
<!-- Node5_1 -->
<g id="node19" class="node">
<title>Node5_1</title>
<ellipse fill="#ffff00" stroke="#ffff00" cx="471.14" cy="-192" rx="81.49" ry="18"/>
<text text-anchor="middle" x="471.14" y="-188.3" font-family="Times,serif" font-size="14.00">क्षपा&#45;(5.1)</text>
</g>
<!-- Node5_1&#45;&gt;Node5_2 -->
<g id="edge15" class="edge">
<title>Node5_1&#45;&gt;Node5_2</title>
<path fill="none" stroke="black" d="M451.09,-217.75C442.67,-226.79 432.25,-236.41 421.14,-243 401.7,-254.54 378.19,-262.5 357.21,-267.88"/>
<polygon fill="black" stroke="black" points="453.92,-219.84 457.95,-210.04 448.69,-215.19 453.92,-219.84"/>
<text text-anchor="middle" x="536.64" y="-231.8" font-family="Times,serif" font-size="14.00">उपपद_तत्पुरुषः</text>
</g>
<!-- Node6_1 -->
<g id="node20" class="node">
<title>Node6_1</title>
<ellipse fill="#ffff00" stroke="#ffff00" cx="302.14" cy="-105" rx="63.09" ry="18"/>
<text text-anchor="middle" x="302.14" y="-101.3" font-family="Times,serif" font-size="14.00">भीम&#45;(6.1)</text>
</g>
<!-- Node6_1&#45;&gt;Node6_2 -->
<g id="edge17" class="edge">
<title>Node6_1&#45;&gt;Node6_2</title>
<path fill="none" stroke="black" d="M302.14,-133.27C302.14,-146.58 302.14,-162.19 302.14,-173.82"/>
<polygon fill="black" stroke="black" points="305.64,-133.2 302.14,-123.2 298.64,-133.2 305.64,-133.2"/>
<text text-anchor="middle" x="373.64" y="-144.8" font-family="Times,serif" font-size="14.00">बहुव्रीहिः</text>
</g>
</g>
</svg>
