<?xml version="1.0" encoding="UTF-8" standalone="no"?>
<!DOCTYPE svg PUBLIC "-//W3C//DTD SVG 1.1//EN"
 "http://www.w3.org/Graphics/SVG/1.1/DTD/svg11.dtd">
<!-- Generated by graphviz version 2.43.0 (0)
 -->
<!-- Title: G Pages: 1 -->
<svg width="1092pt" height="392pt"
 viewBox="0.00 0.00 1091.59 392.00" xmlns="http://www.w3.org/2000/svg" xmlns:xlink="http://www.w3.org/1999/xlink">
<g id="graph0" class="graph" transform="scale(1 1) rotate(0) translate(4 388)">
<title>G</title>
<polygon fill="#fffacd" stroke="transparent" points="-4,4 -4,-388 1087.59,-388 1087.59,4 -4,4"/>
<g id="clust1" class="cluster">
<title>cluster_1</title>
<polygon fill="#fffacd" stroke="black" points="371.59,-79 371.59,-218 1075.59,-218 1075.59,-79 371.59,-79"/>
</g>
<!-- Node6_1 -->
<g id="node1" class="node">
<title>Node6_1</title>
<ellipse fill="#00bfff" stroke="#00bfff" cx="997.59" cy="-105" rx="69.59" ry="18"/>
<text text-anchor="middle" x="997.59" y="-101.3" font-family="Times,serif" font-size="14.00">कपिः(6.1)</text>
</g>
<!-- Node3_1 -->
<g id="node2" class="node">
<title>Node3_1</title>
<ellipse fill="#00bfff" stroke="#00bfff" cx="646.59" cy="-192" rx="96.68" ry="18"/>
<text text-anchor="middle" x="646.59" y="-188.3" font-family="Times,serif" font-size="14.00">हनुमान्(3.1)</text>
</g>
<!-- Node6_1&#45;&gt;Node3_1 -->
<g id="edge7" class="edge">
<title>Node6_1&#45;&gt;Node3_1</title>
<path fill="none" stroke="black" d="M966.66,-128C950.89,-138.15 930.99,-149.38 911.59,-156 856.69,-174.74 792.23,-183.52 740.62,-187.61"/>
<polygon fill="black" stroke="black" points="969.02,-130.64 975.42,-122.2 965.15,-124.8 969.02,-130.64"/>
<text text-anchor="middle" x="1001.09" y="-144.8" font-family="Times,serif" font-size="14.00">विशेषणम्</text>
</g>
<!-- Node2_1 -->
<g id="node7" class="node">
<title>Node2_1</title>
<ellipse fill="#ff99ff" stroke="#ff99ff" cx="489.59" cy="-279" rx="115.88" ry="18"/>
<text text-anchor="middle" x="489.59" y="-275.3" font-family="Times,serif" font-size="14.00">निश्चित्य(2.1)</text>
</g>
<!-- Node3_1&#45;&gt;Node2_1 -->
<g id="edge4" class="edge">
<title>Node3_1&#45;&gt;Node2_1</title>
<path fill="none" stroke="black" stroke-dasharray="1,5" d="M593.68,-211.95C582.2,-216.7 570.3,-222.13 559.59,-228 542.17,-237.55 523.96,-250.67 510.48,-261.08"/>
<polygon fill="black" stroke="black" points="595.21,-215.1 603.18,-208.12 592.6,-208.61 595.21,-215.1"/>
<text text-anchor="middle" x="595.59" y="-231.8" font-family="Times,serif" font-size="14.00">कर्ता</text>
</g>
<!-- Node7_1 -->
<g id="node8" class="node">
<title>Node7_1</title>
<ellipse fill="#ff1975" stroke="#ff1975" cx="392.59" cy="-366" rx="124.58" ry="18"/>
<text text-anchor="middle" x="392.59" y="-362.3" font-family="Times,serif" font-size="14.00">आचकाङ्क्षे(7.1)</text>
</g>
<!-- Node3_1&#45;&gt;Node7_1 -->
<g id="edge3" class="edge">
<title>Node3_1&#45;&gt;Node7_1</title>
<path fill="none" stroke="black" d="M646.49,-220.57C644.79,-251.96 636.94,-302.42 605.59,-330 589.69,-343.98 546.33,-352.44 502.84,-357.53"/>
<polygon fill="black" stroke="black" points="650,-220.46 646.87,-210.34 643.01,-220.2 650,-220.46"/>
<text text-anchor="middle" x="676.59" y="-275.3" font-family="Times,serif" font-size="14.00">कर्ता</text>
</g>
<!-- Node9_1 -->
<g id="node3" class="node">
<title>Node9_1</title>
<ellipse fill="#00bfff" stroke="#00bfff" cx="840.59" cy="-105" rx="69.59" ry="18"/>
<text text-anchor="middle" x="840.59" y="-101.3" font-family="Times,serif" font-size="14.00">वीरः(9.1)</text>
</g>
<!-- Node9_1&#45;&gt;Node3_1 -->
<g id="edge9" class="edge">
<title>Node9_1&#45;&gt;Node3_1</title>
<path fill="none" stroke="black" d="M812.47,-128.39C799.41,-137.94 783.32,-148.58 767.59,-156 748.41,-165.06 726.39,-172.27 706.44,-177.75"/>
<polygon fill="black" stroke="black" points="814.68,-131.11 820.58,-122.31 810.48,-125.5 814.68,-131.11"/>
<text text-anchor="middle" x="850.09" y="-144.8" font-family="Times,serif" font-size="14.00">विशेषणम्</text>
</g>
<!-- Node11_2 -->
<g id="node4" class="node">
<title>Node11_2</title>
<ellipse fill="#00bfff" stroke="#00bfff" cx="650.59" cy="-105" rx="102.88" ry="18"/>
<text text-anchor="middle" x="650.59" y="-101.3" font-family="Times,serif" font-size="14.00">उत्सुकः(11.2)</text>
</g>
<!-- Node11_2&#45;&gt;Node3_1 -->
<g id="edge12" class="edge">
<title>Node11_2&#45;&gt;Node3_1</title>
<path fill="none" stroke="black" d="M649.31,-133.27C648.68,-146.58 647.95,-162.19 647.4,-173.82"/>
<polygon fill="black" stroke="black" points="652.81,-133.35 649.78,-123.2 645.81,-133.03 652.81,-133.35"/>
<text text-anchor="middle" x="706.09" y="-144.8" font-family="Times,serif" font-size="14.00">विशेषणम्</text>
</g>
<!-- Node12_2 -->
<g id="node5" class="node">
<title>Node12_2</title>
<ellipse fill="#00bfff" stroke="#00bfff" cx="454.59" cy="-105" rx="75.29" ry="18"/>
<text text-anchor="middle" x="454.59" y="-101.3" font-family="Times,serif" font-size="14.00">अयम्(12.2)</text>
</g>
<!-- Node12_2&#45;&gt;Node3_1 -->
<g id="edge13" class="edge">
<title>Node12_2&#45;&gt;Node3_1</title>
<path fill="none" stroke="black" d="M483.45,-128.53C496.65,-138.01 512.83,-148.56 528.59,-156 547.33,-164.85 568.81,-172.02 588.27,-177.51"/>
<polygon fill="black" stroke="black" points="485.37,-125.59 475.24,-122.49 481.22,-131.23 485.37,-125.59"/>
<text text-anchor="middle" x="586.09" y="-144.8" font-family="Times,serif" font-size="14.00">विशेषणम्</text>
</g>
<!-- Node1_1 -->
<g id="node6" class="node">
<title>Node1_1</title>
<ellipse fill="#ff99ff" stroke="#ff99ff" cx="303.59" cy="-192" rx="59.59" ry="18"/>
<text text-anchor="middle" x="303.59" y="-188.3" font-family="Times,serif" font-size="14.00">इति(1.1)</text>
</g>
<!-- Node1_1&#45;&gt;Node2_1 -->
<g id="edge1" class="edge">
<title>Node1_1&#45;&gt;Node2_1</title>
<path fill="none" stroke="black" d="M344.45,-211.67C377.23,-226.65 422.79,-247.47 454.07,-261.77"/>
<polygon fill="black" stroke="black" points="345.69,-208.39 335.14,-207.42 342.78,-214.76 345.69,-208.39"/>
<text text-anchor="middle" x="465.09" y="-231.8" font-family="Times,serif" font-size="14.00">सम्बन्धः</text>
</g>
<!-- Node2_1&#45;&gt;Node7_1 -->
<g id="edge2" class="edge">
<title>Node2_1&#45;&gt;Node7_1</title>
<path fill="none" stroke="black" d="M478.51,-306.45C474.13,-314.72 468.47,-323.39 461.59,-330 453.74,-337.53 443.95,-343.8 434.23,-348.86"/>
<polygon fill="black" stroke="black" points="481.68,-307.95 482.92,-297.43 475.39,-304.88 481.68,-307.95"/>
<text text-anchor="middle" x="537.09" y="-318.8" font-family="Times,serif" font-size="14.00">पूर्वकालः</text>
</g>
<!-- Node4_1 -->
<g id="node9" class="node">
<title>Node4_1</title>
<ellipse fill="#87ceeb" stroke="#87ceeb" cx="106.59" cy="-192" rx="106.68" ry="18"/>
<text text-anchor="middle" x="106.59" y="-188.3" font-family="Times,serif" font-size="14.00">सूर्यस्य(4.1)</text>
</g>
<!-- Node5_1 -->
<g id="node10" class="node">
<title>Node5_1</title>
<ellipse fill="#93db70" stroke="#93db70" cx="122.59" cy="-279" rx="87.99" ry="18"/>
<text text-anchor="middle" x="122.59" y="-275.3" font-family="Times,serif" font-size="14.00">अस्तम्(5.1)</text>
</g>
<!-- Node4_1&#45;&gt;Node5_1 -->
<g id="edge5" class="edge">
<title>Node4_1&#45;&gt;Node5_1</title>
<path fill="none" stroke="black" d="M105.25,-220.56C105.41,-227.91 106.04,-235.82 107.59,-243 108.9,-249.07 111.27,-255.41 113.75,-260.99"/>
<polygon fill="black" stroke="black" points="108.75,-220.34 105.32,-210.31 101.75,-220.29 108.75,-220.34"/>
<text text-anchor="middle" x="200.59" y="-231.8" font-family="Times,serif" font-size="14.00">षष्ठीसम्बन्धः</text>
</g>
<!-- Node5_1&#45;&gt;Node7_1 -->
<g id="edge6" class="edge">
<title>Node5_1&#45;&gt;Node7_1</title>
<path fill="none" stroke="black" d="M163.11,-300.26C184.3,-310.26 210.92,-321.88 235.59,-330 261.98,-338.69 291.58,-345.91 317.9,-351.49"/>
<polygon fill="black" stroke="black" points="164.61,-297.1 154.08,-295.94 161.59,-303.41 164.61,-297.1"/>
<text text-anchor="middle" x="264.59" y="-318.8" font-family="Times,serif" font-size="14.00">कर्म</text>
</g>
<!-- Node8_1 -->
<g id="node11" class="node">
<title>Node8_1</title>
<ellipse fill="#ff99ff" stroke="#ff99ff" cx="296.59" cy="-279" rx="59.59" ry="18"/>
<text text-anchor="middle" x="296.59" y="-275.3" font-family="Times,serif" font-size="14.00">तदा(8.1)</text>
</g>
<!-- Node8_1&#45;&gt;Node7_1 -->
<g id="edge8" class="edge">
<title>Node8_1&#45;&gt;Node7_1</title>
<path fill="none" stroke="black" d="M296.02,-307.55C297.09,-315.49 299.55,-323.7 304.59,-330 311.58,-338.73 321.07,-345.29 331.23,-350.21"/>
<polygon fill="black" stroke="black" points="299.5,-307.18 295.3,-297.45 292.52,-307.68 299.5,-307.18"/>
<text text-anchor="middle" x="383.09" y="-318.8" font-family="Times,serif" font-size="14.00">कालाधिकरणम्</text>
</g>
<!-- Node10_1 -->
<g id="node12" class="node">
<title>Node10_1</title>
<ellipse fill="#87ceeb" stroke="#87ceeb" cx="536.59" cy="-18" rx="121.58" ry="18"/>
<text text-anchor="middle" x="536.59" y="-14.3" font-family="Times,serif" font-size="14.00">वैदेह्याः(10.1)</text>
</g>
<!-- Node10_1&#45;&gt;Node11_2 -->
<g id="edge10" class="edge">
<title>Node10_1&#45;&gt;Node11_2</title>
<path fill="none" stroke="black" d="M530.74,-46.42C530.52,-54.35 531.86,-62.59 536.59,-69 545.08,-80.49 557.28,-88.33 570.56,-93.65"/>
<polygon fill="black" stroke="black" points="534.24,-46.65 531.8,-36.34 527.28,-45.92 534.24,-46.65"/>
<text text-anchor="middle" x="629.59" y="-57.8" font-family="Times,serif" font-size="14.00">षष्ठीसम्बन्धः</text>
</g>
<!-- Node11_1 -->
<g id="node13" class="node">
<title>Node11_1</title>
<ellipse fill="#ffff00" stroke="#ffff00" cx="763.59" cy="-18" rx="87.18" ry="18"/>
<text text-anchor="middle" x="763.59" y="-14.3" font-family="Times,serif" font-size="14.00">दर्शन&#45;(11.1)</text>
</g>
<!-- Node11_1&#45;&gt;Node11_2 -->
<g id="edge11" class="edge">
<title>Node11_1&#45;&gt;Node11_2</title>
<path fill="none" stroke="black" d="M748.35,-44.62C742.37,-53.17 734.92,-62.22 726.59,-69 716.9,-76.88 705.14,-83.42 693.8,-88.62"/>
<polygon fill="black" stroke="black" points="751.44,-46.3 754.04,-36.02 745.6,-42.43 751.44,-46.3"/>
<text text-anchor="middle" x="858.09" y="-57.8" font-family="Times,serif" font-size="14.00">चतुर्थी_तत्पुरुषः</text>
</g>
</g>
</svg>
