<?xml version="1.0" encoding="UTF-8" standalone="no"?>
<!DOCTYPE svg PUBLIC "-//W3C//DTD SVG 1.1//EN"
 "http://www.w3.org/Graphics/SVG/1.1/DTD/svg11.dtd">
<!-- Generated by graphviz version 2.43.0 (0)
 -->
<!-- Title: G Pages: 1 -->
<svg width="1345pt" height="305pt"
 viewBox="0.00 0.00 1345.00 305.00" xmlns="http://www.w3.org/2000/svg" xmlns:xlink="http://www.w3.org/1999/xlink">
<g id="graph0" class="graph" transform="scale(1 1) rotate(0) translate(4 301)">
<title>G</title>
<polygon fill="#fffacd" stroke="transparent" points="-4,4 -4,-301 1341,-301 1341,4 -4,4"/>
<g id="clust1" class="cluster">
<title>cluster_1</title>
<polygon fill="#fffacd" stroke="black" points="8,-79 8,-218 182,-218 182,-79 8,-79"/>
</g>
<g id="clust2" class="cluster">
<title>cluster_2</title>
<polygon fill="#fffacd" stroke="black" points="190,-79 190,-218 346,-218 346,-79 190,-79"/>
</g>
<!-- Node3_1 -->
<g id="node1" class="node">
<title>Node3_1</title>
<ellipse fill="#40e0d0" stroke="#40e0d0" cx="95" cy="-105" rx="78.79" ry="18"/>
<text text-anchor="middle" x="95" y="-101.3" font-family="Times,serif" font-size="14.00">स्वेन(3.1)</text>
</g>
<!-- Node4_1 -->
<g id="node2" class="node">
<title>Node4_1</title>
<ellipse fill="#40e0d0" stroke="#40e0d0" cx="95" cy="-192" rx="78.79" ry="18"/>
<text text-anchor="middle" x="95" y="-188.3" font-family="Times,serif" font-size="14.00">रूपेण(4.1)</text>
</g>
<!-- Node3_1&#45;&gt;Node4_1 -->
<g id="edge3" class="edge">
<title>Node3_1&#45;&gt;Node4_1</title>
<path fill="none" stroke="black" d="M75.23,-131.19C73.51,-134.36 72.03,-137.66 71,-141 67.47,-152.4 72.99,-164.49 79.62,-173.92"/>
<polygon fill="black" stroke="black" points="78.19,-133.05 80.54,-122.72 72.26,-129.33 78.19,-133.05"/>
<text text-anchor="middle" x="128.5" y="-144.8" font-family="Times,serif" font-size="14.00">विशेषणम्</text>
</g>
<!-- Node9_1 -->
<g id="node6" class="node">
<title>Node9_1</title>
<ellipse fill="#ff1975" stroke="#ff1975" cx="507" cy="-279" rx="143.77" ry="18"/>
<text text-anchor="middle" x="507" y="-275.3" font-family="Times,serif" font-size="14.00">अभिपतिष्यामि(9.1)</text>
</g>
<!-- Node4_1&#45;&gt;Node9_1 -->
<g id="edge4" class="edge">
<title>Node4_1&#45;&gt;Node9_1</title>
<path fill="none" stroke="black" d="M146.24,-210.62C178.78,-221.27 221.98,-234.4 261,-243 306.92,-253.12 358.33,-260.97 402.24,-266.64"/>
<polygon fill="black" stroke="black" points="147.09,-207.22 136.5,-207.41 144.89,-213.87 147.09,-207.22"/>
<text text-anchor="middle" x="297" y="-231.8" font-family="Times,serif" font-size="14.00">करणम्</text>
</g>
<!-- Node7_1 -->
<g id="node3" class="node">
<title>Node7_1</title>
<ellipse fill="#00bfff" stroke="#00bfff" cx="258" cy="-105" rx="59.59" ry="18"/>
<text text-anchor="middle" x="258" y="-101.3" font-family="Times,serif" font-size="14.00">गतः(7.1)</text>
</g>
<!-- Node2_1 -->
<g id="node4" class="node">
<title>Node2_1</title>
<ellipse fill="#00bfff" stroke="#00bfff" cx="268" cy="-192" rx="69.59" ry="18"/>
<text text-anchor="middle" x="268" y="-188.3" font-family="Times,serif" font-size="14.00">अहम्(2.1)</text>
</g>
<!-- Node7_1&#45;&gt;Node2_1 -->
<g id="edge7" class="edge">
<title>Node7_1&#45;&gt;Node2_1</title>
<path fill="none" stroke="black" d="M261.21,-133.27C262.77,-146.58 264.61,-162.19 265.98,-173.82"/>
<polygon fill="black" stroke="black" points="264.67,-132.72 260.02,-123.2 257.72,-133.54 264.67,-132.72"/>
<text text-anchor="middle" x="321.5" y="-144.8" font-family="Times,serif" font-size="14.00">विशेषणम्</text>
</g>
<!-- Node2_1&#45;&gt;Node9_1 -->
<g id="edge2" class="edge">
<title>Node2_1&#45;&gt;Node9_1</title>
<path fill="none" stroke="black" d="M305.6,-213.27C325.04,-223.17 349.37,-234.71 372,-243 393.37,-250.82 417.25,-257.62 438.91,-263.09"/>
<polygon fill="black" stroke="black" points="306.98,-210.04 296.49,-208.56 303.76,-216.26 306.98,-210.04"/>
<text text-anchor="middle" x="408" y="-231.8" font-family="Times,serif" font-size="14.00">कर्ता</text>
</g>
<!-- Node1_1 -->
<g id="node5" class="node">
<title>Node1_1</title>
<ellipse fill="#00bfff" stroke="#00bfff" cx="415" cy="-192" rx="59.59" ry="18"/>
<text text-anchor="middle" x="415" y="-188.3" font-family="Times,serif" font-size="14.00">तत्(1.1)</text>
</g>
<!-- Node1_1&#45;&gt;Node9_1 -->
<g id="edge1" class="edge">
<title>Node1_1&#45;&gt;Node9_1</title>
<path fill="none" stroke="black" d="M436.39,-217.26C444.18,-225.68 453.23,-235.02 462,-243 468.88,-249.26 476.77,-255.65 484.01,-261.22"/>
<polygon fill="black" stroke="black" points="438.95,-214.87 429.63,-209.84 433.77,-219.59 438.95,-214.87"/>
<text text-anchor="middle" x="519.5" y="-231.8" font-family="Times,serif" font-size="14.00">सम्बन्धः</text>
</g>
<!-- Node5_1 -->
<g id="node7" class="node">
<title>Node5_1</title>
<ellipse fill="#c6e2eb" stroke="#c6e2eb" cx="599" cy="-192" rx="106.68" ry="18"/>
<text text-anchor="middle" x="599" y="-188.3" font-family="Times,serif" font-size="14.00">रजन्याम्(5.1)</text>
</g>
<!-- Node5_1&#45;&gt;Node9_1 -->
<g id="edge5" class="edge">
<title>Node5_1&#45;&gt;Node9_1</title>
<path fill="none" stroke="black" d="M591.09,-220.01C587.73,-228.12 583.14,-236.55 577,-243 569.79,-250.58 560.58,-256.76 551.23,-261.71"/>
<polygon fill="black" stroke="black" points="594.44,-221.04 594.59,-210.45 587.87,-218.63 594.44,-221.04"/>
<text text-anchor="middle" x="665.5" y="-231.8" font-family="Times,serif" font-size="14.00">कालाधिकरणम्</text>
</g>
<!-- Node6_1 -->
<g id="node8" class="node">
<title>Node6_1</title>
<ellipse fill="#93db70" stroke="#93db70" cx="258" cy="-18" rx="124.58" ry="18"/>
<text text-anchor="middle" x="258" y="-14.3" font-family="Times,serif" font-size="14.00">ह्रस्वताम्(6.1)</text>
</g>
<!-- Node6_1&#45;&gt;Node7_1 -->
<g id="edge6" class="edge">
<title>Node6_1&#45;&gt;Node7_1</title>
<path fill="none" stroke="black" d="M258,-46.27C258,-59.58 258,-75.19 258,-86.82"/>
<polygon fill="black" stroke="black" points="261.5,-46.2 258,-36.2 254.5,-46.2 261.5,-46.2"/>
<text text-anchor="middle" x="287" y="-57.8" font-family="Times,serif" font-size="14.00">कर्म</text>
</g>
<!-- Node8_1 -->
<g id="node9" class="node">
<title>Node8_1</title>
<ellipse fill="#93db70" stroke="#93db70" cx="820" cy="-192" rx="96.68" ry="18"/>
<text text-anchor="middle" x="820" y="-188.3" font-family="Times,serif" font-size="14.00">लङ्काम्(8.1)</text>
</g>
<!-- Node8_1&#45;&gt;Node9_1 -->
<g id="edge8" class="edge">
<title>Node8_1&#45;&gt;Node9_1</title>
<path fill="none" stroke="black" d="M793.3,-215.99C780.42,-225.87 764.26,-236.59 748,-243 712.4,-257.04 671.86,-265.52 634.31,-270.63"/>
<polygon fill="black" stroke="black" points="795.6,-218.64 801.26,-209.68 791.25,-213.15 795.6,-218.64"/>
<text text-anchor="middle" x="804" y="-231.8" font-family="Times,serif" font-size="14.00">कर्म</text>
</g>
<!-- Node10_1 -->
<g id="node10" class="node">
<title>Node10_1</title>
<ellipse fill="#87ceeb" stroke="#87ceeb" cx="933" cy="-105" rx="102.88" ry="18"/>
<text text-anchor="middle" x="933" y="-101.3" font-family="Times,serif" font-size="14.00">राघवस्य(10.1)</text>
</g>
<!-- Node11_2 -->
<g id="node11" class="node">
<title>Node11_2</title>
<ellipse fill="#b0e2ff" stroke="#b0e2ff" cx="1038" cy="-192" rx="102.88" ry="18"/>
<text text-anchor="middle" x="1038" y="-188.3" font-family="Times,serif" font-size="14.00">सिद्धये(11.2)</text>
</g>
<!-- Node10_1&#45;&gt;Node11_2 -->
<g id="edge9" class="edge">
<title>Node10_1&#45;&gt;Node11_2</title>
<path fill="none" stroke="black" d="M925.09,-133.36C924.36,-141.29 925.31,-149.54 930,-156 938,-167 949.53,-174.61 962.11,-179.86"/>
<polygon fill="black" stroke="black" points="928.57,-133.74 926.82,-123.29 921.67,-132.55 928.57,-133.74"/>
<text text-anchor="middle" x="1023" y="-144.8" font-family="Times,serif" font-size="14.00">षष्ठीसम्बन्धः</text>
</g>
<!-- Node11_2&#45;&gt;Node9_1 -->
<g id="edge11" class="edge">
<title>Node11_2&#45;&gt;Node9_1</title>
<path fill="none" stroke="black" d="M977.42,-210.39C937.77,-221.2 884.66,-234.59 837,-243 768.21,-255.14 690.55,-263.64 627.86,-269.21"/>
<polygon fill="black" stroke="black" points="978.48,-213.73 987.2,-207.71 976.63,-206.98 978.48,-213.73"/>
<text text-anchor="middle" x="967.5" y="-231.8" font-family="Times,serif" font-size="14.00">प्रयोजनम्</text>
</g>
<!-- Node11_1 -->
<g id="node12" class="node">
<title>Node11_1</title>
<ellipse fill="#ffff00" stroke="#ffff00" cx="1142" cy="-105" rx="77.99" ry="18"/>
<text text-anchor="middle" x="1142" y="-101.3" font-family="Times,serif" font-size="14.00">अर्थ&#45;(11.1)</text>
</g>
<!-- Node11_1&#45;&gt;Node11_2 -->
<g id="edge10" class="edge">
<title>Node11_1&#45;&gt;Node11_2</title>
<path fill="none" stroke="black" d="M1134.58,-132.6C1131.22,-140.91 1126.49,-149.58 1120,-156 1111.31,-164.6 1100.17,-171.22 1088.92,-176.27"/>
<polygon fill="black" stroke="black" points="1137.88,-133.75 1137.93,-123.16 1131.29,-131.41 1137.88,-133.75"/>
<text text-anchor="middle" x="1233.5" y="-144.8" font-family="Times,serif" font-size="14.00">षष्ठी_तत्पुरुषः</text>
</g>
</g>
</svg>
