<svg xmlns="http://www.w3.org/2000/svg" xmlns:xlink="http://www.w3.org/1999/xlink" width="1463pt" height="544" viewBox="0 0 1463 408"><g id="graph0" class="graph" transform="scale(1 1) rotate(0) translate(4 404)"><title>G</title><polygon fill="#fffacd" stroke="transparent" points="-4 4 -4 -404 1459 -404 1459 4 -4 4"/><g id="clust1" class="cluster"><title>cluster_1</title><polygon fill="#fffacd" stroke="#000" points="599 -182 599 -321 1122 -321 1122 -182 599 -182"/></g><g id="clust2" class="cluster"><title>cluster_2</title><polygon fill="#fffacd" stroke="#000" points="710 -8 710 -147 1133 -147 1133 -8 710 -8"/></g><g id="clust3" class="cluster"><title>cluster_3</title><polygon fill="#fffacd" stroke="#000" points="8 -182 8 -321 368 -321 368 -182 8 -182"/></g><g id="clust4" class="cluster"><title>cluster_4</title><polygon fill="#fffacd" stroke="#000" points="376 -95 376 -234 580 -234 580 -95 376 -95"/></g><g id="node1" class="node"><title>Node2_1</title><ellipse cx="1007" cy="-208" fill="#93db70" stroke="#93db70" rx="106.68" ry="18"/><text x="1007" y="-204.3" font-family="Times,serif" font-size="14" text-anchor="middle">स्थिताम्(2.1)</text></g><g id="node2" class="node"><title>Node3_1</title><ellipse cx="724" cy="-295" fill="#93db70" stroke="#93db70" rx="96.68" ry="18"/><text x="724" y="-291.3" font-family="Times,serif" font-size="14" text-anchor="middle">लङ्काम्(3.1)</text></g><g id="edge3" class="edge"><title>Node2_1-&gt;Node3_1</title><path fill="none" stroke="#000" d="M952.81,-227.65C923.9,-237.39 887.65,-249.28 855,-259 830.07,-266.42 802.25,-273.96 778.69,-280.13"/><polygon fill="#000" stroke="#000" points="953.96 -230.96 962.32 -224.44 951.72 -224.33 953.96 -230.96"/><text x="959.5" y="-247.8" font-family="Times,serif" font-size="14" text-anchor="middle">विशेषणम्</text></g><g id="node14" class="node"><title>Node7_1</title><ellipse cx="532" cy="-382" fill="#ff1975" stroke="#ff1975" rx="78.79" ry="18"/><text x="532" y="-378.3" font-family="Times,serif" font-size="14" text-anchor="middle">ददर्श(7.1)</text></g><g id="edge4" class="edge"><title>Node3_1-&gt;Node7_1</title><path fill="none" stroke="#000" d="M678.99,-315.93C644.62,-331.14 597.96,-351.8 566.5,-365.73"/><polygon fill="#000" stroke="#000" points="680.61 -319.04 688.34 -311.79 677.78 -312.64 680.61 -319.04"/><text x="669" y="-334.8" font-family="Times,serif" font-size="14" text-anchor="middle">कर्म</text></g><g id="node3" class="node"><title>Node14_1</title><ellipse cx="745" cy="-208" fill="#93db70" stroke="#93db70" rx="137.58" ry="18"/><text x="745" y="-204.3" font-family="Times,serif" font-size="14" text-anchor="middle">(अलङ्कृताम्)(14.1)</text></g><g id="edge15" class="edge"><title>Node14_1-&gt;Node3_1</title><path fill="none" stroke="#000" d="M738.26,-236.27C734.97,-249.58 731.12,-265.19 728.24,-276.82"/><polygon fill="#000" stroke="#000" points="741.75 -236.75 740.75 -226.2 734.95 -235.07 741.75 -236.75"/><text x="793.5" y="-247.8" font-family="Times,serif" font-size="14" text-anchor="middle">विशेषणम्</text></g><g id="node4" class="node"><title>Node4_1</title><ellipse cx="1009" cy="-34" fill="#40e0d0" stroke="#40e0d0" rx="115.88" ry="18"/><text x="1009" y="-30.3" font-family="Times,serif" font-size="14" text-anchor="middle">पाण्डुरैः(4.1)</text></g><g id="node5" class="node"><title>Node5_1</title><ellipse cx="822" cy="-121" fill="#40e0d0" stroke="#40e0d0" rx="78.79" ry="18"/><text x="822" y="-117.3" font-family="Times,serif" font-size="14" text-anchor="middle">भवनैः(5.1)</text></g><g id="edge5" class="edge"><title>Node4_1-&gt;Node5_1</title><path fill="none" stroke="#000" d="M977.68,-57.38C963.57,-66.78 946.43,-77.29 930,-85 911.35,-93.75 889.94,-101.19 871.11,-106.93"/><polygon fill="#000" stroke="#000" points="979.72 -60.22 986.03 -51.71 975.79 -54.43 979.72 -60.22"/><text x="1015.5" y="-73.8" font-family="Times,serif" font-size="14" text-anchor="middle">विशेषणम्</text></g><g id="edge6" class="edge"><title>Node5_1-&gt;Node14_1</title><path fill="none" stroke="#000" d="M813.68,-148.64C810.3,-156.73 805.8,-165.25 800,-172 793.88,-179.13 785.95,-185.31 778.02,-190.42"/><polygon fill="#000" stroke="#000" points="817.01 -149.73 817.25 -139.14 810.46 -147.27 817.01 -149.73"/><text x="846" y="-160.8" font-family="Times,serif" font-size="14" text-anchor="middle">करणम्</text></g><g id="node6" class="node"><title>Node6_1</title><ellipse cx="797" cy="-34" fill="#40e0d0" stroke="#40e0d0" rx="78.79" ry="18"/><text x="797" y="-30.3" font-family="Times,serif" font-size="14" text-anchor="middle">शुभैः(6.1)</text></g><g id="edge7" class="edge"><title>Node6_1-&gt;Node5_1</title><path fill="none" stroke="#000" d="M804.9,-61.87C808.84,-75.27 813.49,-91.08 816.95,-102.82"/><polygon fill="#000" stroke="#000" points="808.24 -60.81 802.06 -52.2 801.52 -62.78 808.24 -60.81"/><text x="868.5" y="-73.8" font-family="Times,serif" font-size="14" text-anchor="middle">विशेषणम्</text></g><g id="node7" class="node"><title>Node8_1</title><ellipse cx="309" cy="-208" fill="#00bfff" stroke="#00bfff" rx="50.89" ry="18"/><text x="309" y="-204.3" font-family="Times,serif" font-size="14" text-anchor="middle">सः(8.1)</text></g><g id="node8" class="node"><title>Node9_1</title><ellipse cx="245" cy="-295" fill="#00bfff" stroke="#00bfff" rx="69.59" ry="18"/><text x="245" y="-291.3" font-family="Times,serif" font-size="14" text-anchor="middle">कपिः(9.1)</text></g><g id="edge8" class="edge"><title>Node8_1-&gt;Node9_1</title><path fill="none" stroke="#000" d="M290.17,-234.01C279.68,-247.94 266.9,-264.91 257.62,-277.24"/><polygon fill="#000" stroke="#000" points="293.14 -235.89 296.36 -225.79 287.54 -231.68 293.14 -235.89"/><text x="338.5" y="-247.8" font-family="Times,serif" font-size="14" text-anchor="middle">विशेषणम्</text></g><g id="edge9" class="edge"><title>Node9_1-&gt;Node7_1</title><path fill="none" stroke="#000" d="M298.62,-311.88C352.48,-327.83 434.63,-352.16 485.72,-367.29"/><polygon fill="#000" stroke="#000" points="299.48 -308.49 288.9 -309 297.5 -315.2 299.48 -308.49"/><text x="442" y="-334.8" font-family="Times,serif" font-size="14" text-anchor="middle">कर्ता</text></g><g id="node9" class="node"><title>Node10_1</title><ellipse cx="128" cy="-208" fill="#00bfff" stroke="#00bfff" rx="112.38" ry="18"/><text x="128" y="-204.3" font-family="Times,serif" font-size="14" text-anchor="middle">श्रीमान्(10.1)</text></g><g id="edge10" class="edge"><title>Node10_1-&gt;Node9_1</title><path fill="none" stroke="#000" d="M137.96,-235.48C142.17,-243.89 147.8,-252.64 155,-259 166.69,-269.32 181.76,-276.76 196.22,-282.05"/><polygon fill="#000" stroke="#000" points="141.11 -233.95 133.8 -226.28 134.73 -236.84 141.11 -233.95"/><text x="212.5" y="-247.8" font-family="Times,serif" font-size="14" text-anchor="middle">विशेषणम्</text></g><g id="node10" class="node"><title>Node12_2</title><ellipse cx="459" cy="-121" fill="#93db70" stroke="#93db70" rx="75.29" ry="18"/><text x="459" y="-117.3" font-family="Times,serif" font-size="14" text-anchor="middle">गाम्(12.2)</text></g><g id="node11" class="node"><title>Node11_1</title><ellipse cx="478" cy="-208" fill="#93db70" stroke="#93db70" rx="93.68" ry="18"/><text x="478" y="-204.3" font-family="Times,serif" font-size="14" text-anchor="middle">पुरीम्(11.1)</text></g><g id="edge13" class="edge"><title>Node12_2-&gt;Node11_1</title><path fill="none" stroke="#000" d="M465.09,-149.27C468.07,-162.58 471.56,-178.19 474.16,-189.82"/><polygon fill="#000" stroke="#000" points="468.44 -148.2 462.84 -139.2 461.61 -149.72 468.44 -148.2"/><text x="527.5" y="-160.8" font-family="Times,serif" font-size="14" text-anchor="middle">विशेषणम्</text></g><g id="edge11" class="edge"><title>Node11_1-&gt;Node3_1</title><path fill="none" stroke="#000" d="M530.91,-227.28C575.46,-242.67 638.42,-264.43 680.19,-278.86"/><polygon fill="#000" stroke="#000" points="532.01 -223.96 521.41 -224 529.72 -230.57 532.01 -223.96"/><text x="666" y="-247.8" font-family="Times,serif" font-size="14" text-anchor="middle">उपमानम्</text></g><g id="node12" class="node"><title>Node1_1</title><ellipse cx="1248" cy="-34" fill="#ff0" stroke="#ff0" rx="72.29" ry="18"/><text x="1248" y="-30.3" font-family="Times,serif" font-size="14" text-anchor="middle">गिरि-(1.1)</text></g><g id="node13" class="node"><title>Node1_2</title><ellipse cx="1248" cy="-121" fill="#c6e2eb" stroke="#c6e2eb" rx="106.68" ry="18"/><text x="1248" y="-117.3" font-family="Times,serif" font-size="14" text-anchor="middle">मूर्ध्नि(1.2)</text></g><g id="edge1" class="edge"><title>Node1_1-&gt;Node1_2</title><path fill="none" stroke="#000" d="M1248,-62.27C1248,-75.58 1248,-91.19 1248,-102.82"/><polygon fill="#000" stroke="#000" points="1251.5 -62.2 1248 -52.2 1244.5 -62.2 1251.5 -62.2"/><text x="1351.5" y="-73.8" font-family="Times,serif" font-size="14" text-anchor="middle">षष्ठी_तत्पुरुषः</text></g><g id="edge2" class="edge"><title>Node1_2-&gt;Node2_1</title><path fill="none" stroke="#000" d="M1194.59,-140.84C1151.45,-156.05 1091.45,-177.21 1051.03,-191.47"/><polygon fill="#000" stroke="#000" points="1195.81 -144.12 1204.08 -137.49 1193.48 -137.52 1195.81 -144.12"/><text x="1220.5" y="-160.8" font-family="Times,serif" font-size="14" text-anchor="middle">देशाधिकरणम्</text></g><g id="node15" class="node"><title>Node12_1</title><ellipse cx="459" cy="-34" fill="#ff0" stroke="#ff0" rx="77.99" ry="18"/><text x="459" y="-30.3" font-family="Times,serif" font-size="14" text-anchor="middle">आकाश-(12.1)</text></g><g id="edge12" class="edge"><title>Node12_1-&gt;Node12_2</title><path fill="none" stroke="#000" d="M459,-62.27C459,-75.58 459,-91.19 459,-102.82"/><polygon fill="#000" stroke="#000" points="462.5 -62.2 459 -52.2 455.5 -62.2 462.5 -62.2"/><text x="555.5" y="-73.8" font-family="Times,serif" font-size="14" text-anchor="middle">उपपद_तत्पुरुषः</text></g><g id="node16" class="node"><title>Node13_1</title><ellipse cx="645" cy="-121" fill="#f9f" stroke="#f9f" rx="56.59" ry="18"/><text x="645" y="-117.3" font-family="Times,serif" font-size="14" text-anchor="middle">इव(13.1)</text></g><g id="edge14" class="edge"><title>Node13_1-&gt;Node11_1</title><path fill="none" stroke="#000" d="M623,-145.61C613.31,-154.89 601.34,-164.98 589,-172 572.67,-181.29 553.55,-188.45 535.83,-193.8"/><polygon fill="#000" stroke="#000" points="625.61 -147.94 630.24 -138.41 620.68 -142.97 625.61 -147.94"/><text x="699" y="-160.8" font-family="Times,serif" font-size="14" text-anchor="middle">उपमान_द्योतकः</text></g></g></svg>