<?xml version="1.0" encoding="UTF-8" standalone="no"?>
<!DOCTYPE svg PUBLIC "-//W3C//DTD SVG 1.1//EN"
 "http://www.w3.org/Graphics/SVG/1.1/DTD/svg11.dtd">
<!-- Generated by graphviz version 2.43.0 (0)
 -->
<!-- Title: G Pages: 1 -->
<svg width="1009pt" height="479pt"
 viewBox="0.00 0.00 1009.00 479.00" xmlns="http://www.w3.org/2000/svg" xmlns:xlink="http://www.w3.org/1999/xlink">
<g id="graph0" class="graph" transform="scale(1 1) rotate(0) translate(4 475)">
<title>G</title>
<polygon fill="#fffacd" stroke="transparent" points="-4,4 -4,-475 1005,-475 1005,4 -4,4"/>
<g id="clust1" class="cluster">
<title>cluster_1</title>
<polygon fill="#fffacd" stroke="black" points="573,-79 573,-218 958,-218 958,-79 573,-79"/>
</g>
<g id="clust2" class="cluster">
<title>cluster_2</title>
<polygon fill="#fffacd" stroke="black" points="208,-253 208,-392 705,-392 705,-253 208,-253"/>
</g>
<g id="clust3" class="cluster">
<title>cluster_3</title>
<polygon fill="#fffacd" stroke="black" points="8,-253 8,-392 200,-392 200,-253 8,-253"/>
</g>
<!-- Node2_2 -->
<g id="node1" class="node">
<title>Node2_2</title>
<ellipse fill="#87ceeb" stroke="#87ceeb" cx="669" cy="-105" rx="87.99" ry="18"/>
<text text-anchor="middle" x="669" y="-101.3" font-family="Times,serif" font-size="14.00">राजस्य(2.2)</text>
</g>
<!-- Node3_1 -->
<g id="node2" class="node">
<title>Node3_1</title>
<ellipse fill="#87ceeb" stroke="#87ceeb" cx="689" cy="-192" rx="96.68" ry="18"/>
<text text-anchor="middle" x="689" y="-188.3" font-family="Times,serif" font-size="14.00">रावणस्य(3.1)</text>
</g>
<!-- Node2_2&#45;&gt;Node3_1 -->
<g id="edge3" class="edge">
<title>Node2_2&#45;&gt;Node3_1</title>
<path fill="none" stroke="black" d="M675.42,-133.27C678.55,-146.58 682.22,-162.19 684.96,-173.82"/>
<polygon fill="black" stroke="black" points="678.74,-132.13 673.05,-123.2 671.93,-133.74 678.74,-132.13"/>
<text text-anchor="middle" x="737.5" y="-144.8" font-family="Times,serif" font-size="14.00">विशेषणम्</text>
</g>
<!-- Node5_2 -->
<g id="node4" class="node">
<title>Node5_2</title>
<ellipse fill="#00bfff" stroke="#00bfff" cx="581" cy="-279" rx="115.88" ry="18"/>
<text text-anchor="middle" x="581" y="-275.3" font-family="Times,serif" font-size="14.00">प्रतीक्षा(5.2)</text>
</g>
<!-- Node3_1&#45;&gt;Node5_2 -->
<g id="edge4" class="edge">
<title>Node3_1&#45;&gt;Node5_2</title>
<path fill="none" stroke="black" d="M681.64,-219.66C678.28,-227.98 673.55,-236.63 667,-243 658.22,-251.54 647.07,-258.09 635.73,-263.09"/>
<polygon fill="black" stroke="black" points="684.95,-220.8 684.98,-210.21 678.35,-218.47 684.95,-220.8"/>
<text text-anchor="middle" x="770" y="-231.8" font-family="Times,serif" font-size="14.00">षष्ठीसम्बन्धः</text>
</g>
<!-- Node4_2 -->
<g id="node3" class="node">
<title>Node4_2</title>
<ellipse fill="#87ceeb" stroke="#87ceeb" cx="862" cy="-105" rx="87.99" ry="18"/>
<text text-anchor="middle" x="862" y="-101.3" font-family="Times,serif" font-size="14.00">आत्मनः(4.2)</text>
</g>
<!-- Node4_2&#45;&gt;Node3_1 -->
<g id="edge6" class="edge">
<title>Node4_2&#45;&gt;Node3_1</title>
<path fill="none" stroke="black" d="M836.64,-129.61C825.69,-138.83 812.36,-148.89 799,-156 782.37,-164.86 763.13,-171.93 745.42,-177.33"/>
<polygon fill="black" stroke="black" points="839.25,-131.98 844.5,-122.77 834.65,-126.69 839.25,-131.98"/>
<text text-anchor="middle" x="878.5" y="-144.8" font-family="Times,serif" font-size="14.00">विशेषणम्</text>
</g>
<!-- Node1_1 -->
<g id="node5" class="node">
<title>Node1_1</title>
<ellipse fill="#00bfff" stroke="#00bfff" cx="332" cy="-366" rx="69.59" ry="18"/>
<text text-anchor="middle" x="332" y="-362.3" font-family="Times,serif" font-size="14.00">अहम्(1.1)</text>
</g>
<!-- Node5_2&#45;&gt;Node1_1 -->
<g id="edge8" class="edge">
<title>Node5_2&#45;&gt;Node1_1</title>
<path fill="none" stroke="black" d="M532.41,-299.76C508.13,-309.36 478.19,-320.79 451,-330 427.14,-338.08 400.23,-346.09 378.04,-352.4"/>
<polygon fill="black" stroke="black" points="533.76,-302.99 541.76,-296.05 531.18,-296.49 533.76,-302.99"/>
<text text-anchor="middle" x="547.5" y="-318.8" font-family="Times,serif" font-size="14.00">विशेषणम्</text>
</g>
<!-- Node7_1 -->
<g id="node9" class="node">
<title>Node7_1</title>
<ellipse fill="#ff1975" stroke="#ff1975" cx="236" cy="-453" rx="96.68" ry="18"/>
<text text-anchor="middle" x="236" y="-449.3" font-family="Times,serif" font-size="14.00">रक्षामि(7.1)</text>
</g>
<!-- Node1_1&#45;&gt;Node7_1 -->
<g id="edge1" class="edge">
<title>Node1_1&#45;&gt;Node7_1</title>
<path fill="none" stroke="black" d="M305.99,-390.03C289.93,-404.25 269.69,-422.17 255.11,-435.08"/>
<polygon fill="black" stroke="black" points="308.32,-392.64 313.49,-383.39 303.68,-387.4 308.32,-392.64"/>
<text text-anchor="middle" x="325" y="-405.8" font-family="Times,serif" font-size="14.00">कर्ता</text>
</g>
<!-- Node6_1 -->
<g id="node6" class="node">
<title>Node6_1</title>
<ellipse fill="#00bfff" stroke="#00bfff" cx="332" cy="-279" rx="115.88" ry="18"/>
<text text-anchor="middle" x="332" y="-275.3" font-family="Times,serif" font-size="14.00">दुर्धर्षा(6.1)</text>
</g>
<!-- Node6_1&#45;&gt;Node1_1 -->
<g id="edge9" class="edge">
<title>Node6_1&#45;&gt;Node1_1</title>
<path fill="none" stroke="black" d="M332,-307.27C332,-320.58 332,-336.19 332,-347.82"/>
<polygon fill="black" stroke="black" points="335.5,-307.2 332,-297.2 328.5,-307.2 335.5,-307.2"/>
<text text-anchor="middle" x="389.5" y="-318.8" font-family="Times,serif" font-size="14.00">विशेषणम्</text>
</g>
<!-- Node9_1 -->
<g id="node7" class="node">
<title>Node9_1</title>
<ellipse fill="#93db70" stroke="#93db70" cx="95" cy="-279" rx="78.79" ry="18"/>
<text text-anchor="middle" x="95" y="-275.3" font-family="Times,serif" font-size="14.00">इमाम्(9.1)</text>
</g>
<!-- Node8_1 -->
<g id="node8" class="node">
<title>Node8_1</title>
<ellipse fill="#93db70" stroke="#93db70" cx="104" cy="-366" rx="87.99" ry="18"/>
<text text-anchor="middle" x="104" y="-362.3" font-family="Times,serif" font-size="14.00">नगरीम्(8.1)</text>
</g>
<!-- Node9_1&#45;&gt;Node8_1 -->
<g id="edge11" class="edge">
<title>Node9_1&#45;&gt;Node8_1</title>
<path fill="none" stroke="black" d="M88.57,-307.21C87.67,-314.64 87.49,-322.67 89,-330 90.25,-336.09 92.6,-342.42 95.08,-348"/>
<polygon fill="black" stroke="black" points="92.04,-307.68 90.22,-297.24 85.13,-306.53 92.04,-307.68"/>
<text text-anchor="middle" x="146.5" y="-318.8" font-family="Times,serif" font-size="14.00">विशेषणम्</text>
</g>
<!-- Node8_1&#45;&gt;Node7_1 -->
<g id="edge10" class="edge">
<title>Node8_1&#45;&gt;Node7_1</title>
<path fill="none" stroke="black" d="M138.03,-388.91C160.53,-403.4 189.57,-422.1 210.18,-435.37"/>
<polygon fill="black" stroke="black" points="139.75,-385.86 129.45,-383.39 135.96,-391.75 139.75,-385.86"/>
<text text-anchor="middle" x="206" y="-405.8" font-family="Times,serif" font-size="14.00">कर्म</text>
</g>
<!-- Node2_1 -->
<g id="node10" class="node">
<title>Node2_1</title>
<ellipse fill="#ffff00" stroke="#ffff00" cx="651" cy="-18" rx="90.98" ry="18"/>
<text text-anchor="middle" x="651" y="-14.3" font-family="Times,serif" font-size="14.00">राक्षस&#45;(2.1)</text>
</g>
<!-- Node2_1&#45;&gt;Node2_2 -->
<g id="edge2" class="edge">
<title>Node2_1&#45;&gt;Node2_2</title>
<path fill="none" stroke="black" d="M649.43,-46.61C649.59,-53.97 650.28,-61.85 652,-69 653.49,-75.17 656.17,-81.53 658.98,-87.11"/>
<polygon fill="black" stroke="black" points="652.94,-46.39 649.53,-36.36 645.94,-46.32 652.94,-46.39"/>
<text text-anchor="middle" x="755.5" y="-57.8" font-family="Times,serif" font-size="14.00">षष्ठी_तत्पुरुषः</text>
</g>
<!-- Node4_1 -->
<g id="node11" class="node">
<title>Node4_1</title>
<ellipse fill="#ffff00" stroke="#ffff00" cx="881" cy="-18" rx="63.09" ry="18"/>
<text text-anchor="middle" x="881" y="-14.3" font-family="Times,serif" font-size="14.00">महा&#45;(4.1)</text>
</g>
<!-- Node4_1&#45;&gt;Node4_2 -->
<g id="edge5" class="edge">
<title>Node4_1&#45;&gt;Node4_2</title>
<path fill="none" stroke="black" d="M874.91,-46.27C871.93,-59.58 868.44,-75.19 865.84,-86.82"/>
<polygon fill="black" stroke="black" points="878.39,-46.72 877.16,-36.2 871.56,-45.2 878.39,-46.72"/>
<text text-anchor="middle" x="936.5" y="-57.8" font-family="Times,serif" font-size="14.00">कर्मधारयः</text>
</g>
<!-- Node5_1 -->
<g id="node12" class="node">
<title>Node5_1</title>
<ellipse fill="#ffff00" stroke="#ffff00" cx="473" cy="-192" rx="81.49" ry="18"/>
<text text-anchor="middle" x="473" y="-188.3" font-family="Times,serif" font-size="14.00">आज्ञा&#45;(5.1)</text>
</g>
<!-- Node5_1&#45;&gt;Node5_2 -->
<g id="edge7" class="edge">
<title>Node5_1&#45;&gt;Node5_2</title>
<path fill="none" stroke="black" d="M465.05,-220.38C464.33,-228.32 465.28,-236.56 470,-243 477.65,-253.43 488.41,-260.83 500.25,-266.07"/>
<polygon fill="black" stroke="black" points="468.54,-220.76 466.79,-210.31 461.64,-219.57 468.54,-220.76"/>
<text text-anchor="middle" x="566.5" y="-231.8" font-family="Times,serif" font-size="14.00">उपपद_तत्पुरुषः</text>
</g>
</g>
</svg>
