<svg xmlns="http://www.w3.org/2000/svg" xmlns:xlink="http://www.w3.org/1999/xlink" width="907pt" height="392pt" viewBox="0 0 906.59 392"><g id="graph0" class="graph" transform="scale(1 1) rotate(0) translate(4 388)"><title>G</title><polygon fill="#fffacd" stroke="transparent" points="-4 4 -4 -388 902.59 -388 902.59 4 -4 4"/><g id="clust1" class="cluster"><title>cluster_1</title><polygon fill="#fffacd" stroke="#000" points="673.59 -79 673.59 -218 865.59 -218 865.59 -79 673.59 -79"/></g><g id="clust2" class="cluster"><title>cluster_2</title><polygon fill="#fffacd" stroke="#000" points="19.59 -79 19.59 -218 211.59 -218 211.59 -79 19.59 -79"/></g><g id="node1" class="node"><title>Node5_2</title><ellipse cx="769.59" cy="-105" fill="#93db70" stroke="#93db70" rx="87.99" ry="18"/><text x="769.59" y="-101.3" font-family="Times,serif" font-size="14" text-anchor="middle">आसदाम्(5.2)</text></g><g id="node2" class="node"><title>Node2_1</title><ellipse cx="769.59" cy="-192" fill="#93db70" stroke="#93db70" rx="87.99" ry="18"/><text x="769.59" y="-188.3" font-family="Times,serif" font-size="14" text-anchor="middle">पुरीम्(2.1)</text></g><g id="edge6" class="edge"><title>Node5_2-&gt;Node2_1</title><path fill="none" stroke="#000" d="M769.59,-133.27C769.59,-146.58 769.59,-162.19 769.59,-173.82"/><polygon fill="#000" stroke="#000" points="773.09 -133.2 769.59 -123.2 766.09 -133.2 773.09 -133.2"/><text x="827.09" y="-144.8" font-family="Times,serif" font-size="14" text-anchor="middle">विशेषणम्</text></g><g id="node6" class="node"><title>Node4_1</title><ellipse cx="580.59" cy="-279" fill="#f9f" stroke="#f9f" rx="106.68" ry="18"/><text x="580.59" y="-275.3" font-family="Times,serif" font-size="14" text-anchor="middle">प्रविश्य(4.1)</text></g><g id="edge2" class="edge"><title>Node2_1-&gt;Node4_1</title><path fill="none" stroke="#000" d="M759.42,-219.52C754.88,-228.18 748.69,-237.09 740.59,-243 721.64,-256.83 698.29,-265.38 675.34,-270.61"/><polygon fill="#000" stroke="#000" points="762.64 -220.9 763.72 -210.36 756.3 -217.93 762.64 -220.9"/><text x="783.59" y="-231.8" font-family="Times,serif" font-size="14" text-anchor="middle">कर्म</text></g><g id="node3" class="node"><title>Node8_1</title><ellipse cx="115.59" cy="-105" fill="#93db70" stroke="#93db70" rx="87.99" ry="18"/><text x="115.59" y="-101.3" font-family="Times,serif" font-size="14" text-anchor="middle">सर्वम्(8.1)</text></g><g id="node4" class="node"><title>Node7_1</title><ellipse cx="106.59" cy="-192" fill="#93db70" stroke="#93db70" rx="78.79" ry="18"/><text x="106.59" y="-188.3" font-family="Times,serif" font-size="14" text-anchor="middle">भवनम्(7.1)</text></g><g id="edge9" class="edge"><title>Node8_1-&gt;Node7_1</title><path fill="none" stroke="#000" d="M112.7,-133.27C111.29,-146.58 109.64,-162.19 108.41,-173.82"/><polygon fill="#000" stroke="#000" points="116.2 -133.51 113.77 -123.2 109.24 -132.78 116.2 -133.51"/><text x="170.09" y="-144.8" font-family="Times,serif" font-size="14" text-anchor="middle">विशेषणम्</text></g><g id="node10" class="node"><title>Node6_1</title><ellipse cx="106.59" cy="-279" fill="#f9f" stroke="#f9f" rx="106.68" ry="18"/><text x="106.59" y="-275.3" font-family="Times,serif" font-size="14" text-anchor="middle">प्रविश्य(6.1)</text></g><g id="edge8" class="edge"><title>Node7_1-&gt;Node6_1</title><path fill="none" stroke="#000" d="M106.59,-220.27C106.59,-233.58 106.59,-249.19 106.59,-260.82"/><polygon fill="#000" stroke="#000" points="110.09 -220.2 106.59 -210.2 103.09 -220.2 110.09 -220.2"/><text x="135.59" y="-231.8" font-family="Times,serif" font-size="14" text-anchor="middle">कर्म</text></g><g id="node5" class="node"><title>Node1_1</title><ellipse cx="533.59" cy="-105" fill="#87ceeb" stroke="#87ceeb" rx="96.68" ry="18"/><text x="533.59" y="-101.3" font-family="Times,serif" font-size="14" text-anchor="middle">रावणस्य(1.1)</text></g><g id="edge1" class="edge"><title>Node1_1-&gt;Node2_1</title><path fill="none" stroke="#000" d="M551.03,-130.97C558.74,-140.21 568.57,-149.91 579.59,-156 582.43,-157.57 651.49,-170.07 705.53,-179.69"/><polygon fill="#000" stroke="#000" points="553.75 -128.76 544.82 -123.06 548.24 -133.09 553.75 -128.76"/><text x="672.59" y="-144.8" font-family="Times,serif" font-size="14" text-anchor="middle">षष्ठीसम्बन्धः</text></g><g id="node8" class="node"><title>Node9_1</title><ellipse cx="343.59" cy="-366" fill="#ff1975" stroke="#ff1975" rx="133.78" ry="18"/><text x="343.59" y="-362.3" font-family="Times,serif" font-size="14" text-anchor="middle">द्रक्ष्यामि(9.1)</text></g><g id="edge4" class="edge"><title>Node4_1-&gt;Node9_1</title><path fill="none" stroke="#000" d="M527.93,-298.89C486.08,-313.9 428.18,-334.66 388.5,-348.89"/><polygon fill="#000" stroke="#000" points="529.17 -302.16 537.4 -295.49 526.8 -295.57 529.17 -302.16"/><text x="541.09" y="-318.8" font-family="Times,serif" font-size="14" text-anchor="middle">पूर्वकालः</text></g><g id="node7" class="node"><title>Node3_1</title><ellipse cx="576.59" cy="-192" fill="#c6e2eb" stroke="#c6e2eb" rx="87.99" ry="18"/><text x="576.59" y="-188.3" font-family="Times,serif" font-size="14" text-anchor="middle">रात्रौ(3.1)</text></g><g id="edge3" class="edge"><title>Node3_1-&gt;Node4_1</title><path fill="none" stroke="#000" d="M577.87,-220.27C578.5,-233.58 579.23,-249.19 579.78,-260.82"/><polygon fill="#000" stroke="#000" points="581.37 -220.03 577.4 -210.2 574.37 -220.35 581.37 -220.03"/><text x="658.09" y="-231.8" font-family="Times,serif" font-size="14" text-anchor="middle">कालाधिकरणम्</text></g><g id="node9" class="node"><title>Node5_1</title><ellipse cx="769.59" cy="-18" fill="#ff0" stroke="#ff0" rx="90.98" ry="18"/><text x="769.59" y="-14.3" font-family="Times,serif" font-size="14" text-anchor="middle">सुदुर्-(5.1)</text></g><g id="edge5" class="edge"><title>Node5_1-&gt;Node5_2</title><path fill="none" stroke="#000" d="M769.59,-46.27C769.59,-59.58 769.59,-75.19 769.59,-86.82"/><polygon fill="#000" stroke="#000" points="773.09 -46.2 769.59 -36.2 766.09 -46.2 773.09 -46.2"/><text x="834.09" y="-57.8" font-family="Times,serif" font-size="14" text-anchor="middle">तत्पुरुषः</text></g><g id="edge7" class="edge"><title>Node6_1-&gt;Node9_1</title><path fill="none" stroke="#000" d="M145.88,-301.08C165.03,-310.79 188.62,-321.91 210.59,-330 231.99,-337.88 255.93,-344.75 277.54,-350.27"/><polygon fill="#000" stroke="#000" points="147.36 -297.91 136.87 -296.45 144.16 -304.14 147.36 -297.91"/><text x="275.09" y="-318.8" font-family="Times,serif" font-size="14" text-anchor="middle">पूर्वकालः</text></g><g id="node11" class="node"><title>Node10_1</title><ellipse cx="343.59" cy="-192" fill="#ff0" stroke="#ff0" rx="68.79" ry="18"/><text x="343.59" y="-188.3" font-family="Times,serif" font-size="14" text-anchor="middle">जनक-(10.1)</text></g><g id="node12" class="node"><title>Node10_2</title><ellipse cx="343.59" cy="-279" fill="#93db70" stroke="#93db70" rx="112.38" ry="18"/><text x="343.59" y="-275.3" font-family="Times,serif" font-size="14" text-anchor="middle">आत्मजाम्(10.2)</text></g><g id="edge10" class="edge"><title>Node10_1-&gt;Node10_2</title><path fill="none" stroke="#000" d="M343.59,-220.27C343.59,-233.58 343.59,-249.19 343.59,-260.82"/><polygon fill="#000" stroke="#000" points="347.09 -220.2 343.59 -210.2 340.09 -220.2 347.09 -220.2"/><text x="447.09" y="-231.8" font-family="Times,serif" font-size="14" text-anchor="middle">षष्ठी_तत्पुरुषः</text></g><g id="edge11" class="edge"><title>Node10_2-&gt;Node9_1</title><path fill="none" stroke="#000" d="M343.59,-307.27C343.59,-320.58 343.59,-336.19 343.59,-347.82"/><polygon fill="#000" stroke="#000" points="347.09 -307.2 343.59 -297.2 340.09 -307.2 347.09 -307.2"/><text x="372.59" y="-318.8" font-family="Times,serif" font-size="14" text-anchor="middle">कर्म</text></g></g></svg>