<?xml version="1.0" encoding="UTF-8" standalone="no"?>
<!DOCTYPE svg PUBLIC "-//W3C//DTD SVG 1.1//EN"
 "http://www.w3.org/Graphics/SVG/1.1/DTD/svg11.dtd">
<!-- Generated by graphviz version 2.43.0 (0)
 -->
<!-- Title: G Pages: 1 -->
<svg width="1157pt" height="321pt"
 viewBox="0.00 0.00 1157.00 321.00" xmlns="http://www.w3.org/2000/svg" xmlns:xlink="http://www.w3.org/1999/xlink">
<g id="graph0" class="graph" transform="scale(1 1) rotate(0) translate(4 317)">
<title>G</title>
<polygon fill="#fffacd" stroke="transparent" points="-4,4 -4,-317 1153,-317 1153,4 -4,4"/>
<g id="clust1" class="cluster">
<title>cluster_1</title>
<polygon fill="#fffacd" stroke="black" points="8,-8 8,-147 331,-147 331,-8 8,-8"/>
</g>
<g id="clust2" class="cluster">
<title>cluster_2</title>
<polygon fill="#fffacd" stroke="black" points="499,-8 499,-147 729,-147 729,-8 499,-8"/>
</g>
<!-- Node4_1 -->
<g id="node1" class="node">
<title>Node4_1</title>
<ellipse fill="#00bfff" stroke="#00bfff" cx="272" cy="-34" rx="50.89" ry="18"/>
<text text-anchor="middle" x="272" y="-30.3" font-family="Times,serif" font-size="14.00">सा(4.1)</text>
</g>
<!-- Node6_1 -->
<g id="node2" class="node">
<title>Node6_1</title>
<ellipse fill="#00bfff" stroke="#00bfff" cx="234" cy="-121" rx="78.79" ry="18"/>
<text text-anchor="middle" x="234" y="-117.3" font-family="Times,serif" font-size="14.00">लङ्का(6.1)</text>
</g>
<!-- Node4_1&#45;&gt;Node6_1 -->
<g id="edge5" class="edge">
<title>Node4_1&#45;&gt;Node6_1</title>
<path fill="none" stroke="black" d="M246.34,-58.25C243.45,-61.92 240.88,-65.87 239,-70 234.37,-80.16 233.12,-92.66 233.03,-102.62"/>
<polygon fill="black" stroke="black" points="248.99,-60.54 252.99,-50.73 243.74,-55.9 248.99,-60.54"/>
<text text-anchor="middle" x="296.5" y="-73.8" font-family="Times,serif" font-size="14.00">विशेषणम्</text>
</g>
<!-- Node10_1 -->
<g id="node7" class="node">
<title>Node10_1</title>
<ellipse fill="#ff1975" stroke="#ff1975" cx="578" cy="-295" rx="112.38" ry="18"/>
<text text-anchor="middle" x="578" y="-291.3" font-family="Times,serif" font-size="14.00">ताडयामास(10.1)</text>
</g>
<!-- Node6_1&#45;&gt;Node10_1 -->
<g id="edge7" class="edge">
<title>Node6_1&#45;&gt;Node10_1</title>
<path fill="none" stroke="black" d="M228.21,-149.08C224.93,-172.36 224.59,-205.36 243,-226 273.72,-260.43 390.72,-278.12 477.85,-286.71"/>
<polygon fill="black" stroke="black" points="231.67,-149.59 229.87,-139.15 224.77,-148.44 231.67,-149.59"/>
<text text-anchor="middle" x="279" y="-204.3" font-family="Times,serif" font-size="14.00">कर्ता</text>
</g>
<!-- Node2_1 -->
<g id="node8" class="node">
<title>Node2_1</title>
<ellipse fill="#ff99ff" stroke="#ff99ff" cx="412" cy="-208" rx="87.99" ry="18"/>
<text text-anchor="middle" x="412" y="-204.3" font-family="Times,serif" font-size="14.00">कृत्वा(2.1)</text>
</g>
<!-- Node6_1&#45;&gt;Node2_1 -->
<g id="edge8" class="edge">
<title>Node6_1&#45;&gt;Node2_1</title>
<path fill="none" stroke="black" stroke-dasharray="1,5" d="M274.7,-142.23C293.33,-151.42 315.73,-162.37 336,-172 349.51,-178.42 364.46,-185.34 377.49,-191.32"/>
<polygon fill="black" stroke="black" points="276.12,-139.03 265.61,-137.74 273.02,-145.31 276.12,-139.03"/>
<text text-anchor="middle" x="372" y="-160.8" font-family="Times,serif" font-size="14.00">कर्ता</text>
</g>
<!-- Node11_1 -->
<g id="node3" class="node">
<title>Node11_1</title>
<ellipse fill="#00bfff" stroke="#00bfff" cx="110" cy="-34" rx="93.68" ry="18"/>
<text text-anchor="middle" x="110" y="-30.3" font-family="Times,serif" font-size="14.00">वेगिता(11.1)</text>
</g>
<!-- Node11_1&#45;&gt;Node6_1 -->
<g id="edge13" class="edge">
<title>Node11_1&#45;&gt;Node6_1</title>
<path fill="none" stroke="black" d="M107.82,-62.4C108.52,-70.46 110.75,-78.77 116,-85 127.99,-99.21 145.46,-107.8 163.3,-112.95"/>
<polygon fill="black" stroke="black" points="111.31,-62.08 107.64,-52.14 104.31,-62.2 111.31,-62.08"/>
<text text-anchor="middle" x="173.5" y="-73.8" font-family="Times,serif" font-size="14.00">विशेषणम्</text>
</g>
<!-- Node7_1 -->
<g id="node4" class="node">
<title>Node7_1</title>
<ellipse fill="#93db70" stroke="#93db70" cx="614" cy="-34" rx="106.68" ry="18"/>
<text text-anchor="middle" x="614" y="-30.3" font-family="Times,serif" font-size="14.00">भयङ्करम्(7.1)</text>
</g>
<!-- Node3_2 -->
<g id="node5" class="node">
<title>Node3_2</title>
<ellipse fill="#93db70" stroke="#93db70" cx="596" cy="-121" rx="78.79" ry="18"/>
<text text-anchor="middle" x="596" y="-117.3" font-family="Times,serif" font-size="14.00">नादम्(3.2)</text>
</g>
<!-- Node7_1&#45;&gt;Node3_2 -->
<g id="edge9" class="edge">
<title>Node7_1&#45;&gt;Node3_2</title>
<path fill="none" stroke="black" d="M608.23,-62.27C605.41,-75.58 602.1,-91.19 599.64,-102.82"/>
<polygon fill="black" stroke="black" points="611.71,-62.71 610.36,-52.2 604.86,-61.26 611.71,-62.71"/>
<text text-anchor="middle" x="663.5" y="-73.8" font-family="Times,serif" font-size="14.00">विशेषणम्</text>
</g>
<!-- Node3_2&#45;&gt;Node2_1 -->
<g id="edge4" class="edge">
<title>Node3_2&#45;&gt;Node2_1</title>
<path fill="none" stroke="black" d="M575.82,-146.63C567.19,-155.78 556.46,-165.49 545,-172 524.96,-183.38 501.13,-191.15 479.22,-196.42"/>
<polygon fill="black" stroke="black" points="578.46,-148.94 582.55,-139.17 573.26,-144.25 578.46,-148.94"/>
<text text-anchor="middle" x="592" y="-160.8" font-family="Times,serif" font-size="14.00">कर्म</text>
</g>
<!-- Node1_1 -->
<g id="node6" class="node">
<title>Node1_1</title>
<ellipse fill="#ff99ff" stroke="#ff99ff" cx="578" cy="-208" rx="59.59" ry="18"/>
<text text-anchor="middle" x="578" y="-204.3" font-family="Times,serif" font-size="14.00">ततः(1.1)</text>
</g>
<!-- Node1_1&#45;&gt;Node10_1 -->
<g id="edge1" class="edge">
<title>Node1_1&#45;&gt;Node10_1</title>
<path fill="none" stroke="black" d="M578,-236.27C578,-249.58 578,-265.19 578,-276.82"/>
<polygon fill="black" stroke="black" points="581.5,-236.2 578,-226.2 574.5,-236.2 581.5,-236.2"/>
<text text-anchor="middle" x="635.5" y="-247.8" font-family="Times,serif" font-size="14.00">सम्बन्धः</text>
</g>
<!-- Node2_1&#45;&gt;Node10_1 -->
<g id="edge2" class="edge">
<title>Node2_1&#45;&gt;Node10_1</title>
<path fill="none" stroke="black" d="M424.27,-235.07C429.54,-243.81 436.47,-252.88 445,-259 460.13,-269.86 478.39,-277.35 496.46,-282.51"/>
<polygon fill="black" stroke="black" points="427.28,-233.29 419.38,-226.22 421.15,-236.67 427.28,-233.29"/>
<text text-anchor="middle" x="509.5" y="-247.8" font-family="Times,serif" font-size="14.00">पूर्वकालः</text>
</g>
<!-- Node3_1 -->
<g id="node9" class="node">
<title>Node3_1</title>
<ellipse fill="#ffff00" stroke="#ffff00" cx="412" cy="-121" rx="63.09" ry="18"/>
<text text-anchor="middle" x="412" y="-117.3" font-family="Times,serif" font-size="14.00">महा&#45;(3.1)</text>
</g>
<!-- Node3_1&#45;&gt;Node2_1 -->
<g id="edge3" class="edge">
<title>Node3_1&#45;&gt;Node2_1</title>
<path fill="none" stroke="black" d="M412,-149.27C412,-162.58 412,-178.19 412,-189.82"/>
<polygon fill="black" stroke="black" points="415.5,-149.2 412,-139.2 408.5,-149.2 415.5,-149.2"/>
<text text-anchor="middle" x="476.5" y="-160.8" font-family="Times,serif" font-size="14.00">कर्मधारयः</text>
</g>
<!-- Node5_1 -->
<g id="node10" class="node">
<title>Node5_1</title>
<ellipse fill="#ff99ff" stroke="#ff99ff" cx="391" cy="-34" rx="50.89" ry="18"/>
<text text-anchor="middle" x="391" y="-30.3" font-family="Times,serif" font-size="14.00">वै(5.1)</text>
</g>
<!-- Node5_1&#45;&gt;Node6_1 -->
<g id="edge6" class="edge">
<title>Node5_1&#45;&gt;Node6_1</title>
<path fill="none" stroke="black" d="M376.75,-60.67C370.75,-69.48 363.04,-78.7 354,-85 337,-96.85 315.98,-104.73 296.31,-109.95"/>
<polygon fill="black" stroke="black" points="379.77,-62.44 382.17,-52.12 373.86,-58.69 379.77,-62.44"/>
<text text-anchor="middle" x="425.5" y="-73.8" font-family="Times,serif" font-size="14.00">सम्बन्धः</text>
</g>
<!-- Node8_1 -->
<g id="node11" class="node">
<title>Node8_1</title>
<ellipse fill="#40e0d0" stroke="#40e0d0" cx="725" cy="-208" rx="69.59" ry="18"/>
<text text-anchor="middle" x="725" y="-204.3" font-family="Times,serif" font-size="14.00">तलेन(8.1)</text>
</g>
<!-- Node8_1&#45;&gt;Node10_1 -->
<g id="edge10" class="edge">
<title>Node8_1&#45;&gt;Node10_1</title>
<path fill="none" stroke="black" d="M715.13,-235.19C710.74,-243.83 704.77,-252.8 697,-259 684.2,-269.2 668.52,-276.43 652.78,-281.56"/>
<polygon fill="black" stroke="black" points="718.31,-236.65 719.28,-226.1 711.95,-233.74 718.31,-236.65"/>
<text text-anchor="middle" x="745" y="-247.8" font-family="Times,serif" font-size="14.00">करणम्</text>
</g>
<!-- Node9_1 -->
<g id="node12" class="node">
<title>Node9_1</title>
<ellipse fill="#ffff00" stroke="#ffff00" cx="928" cy="-121" rx="72.29" ry="18"/>
<text text-anchor="middle" x="928" y="-117.3" font-family="Times,serif" font-size="14.00">वानर&#45;(9.1)</text>
</g>
<!-- Node9_2 -->
<g id="node13" class="node">
<title>Node9_2</title>
<ellipse fill="#93db70" stroke="#93db70" cx="928" cy="-208" rx="115.88" ry="18"/>
<text text-anchor="middle" x="928" y="-204.3" font-family="Times,serif" font-size="14.00">श्रेष्ठम्(9.2)</text>
</g>
<!-- Node9_1&#45;&gt;Node9_2 -->
<g id="edge11" class="edge">
<title>Node9_1&#45;&gt;Node9_2</title>
<path fill="none" stroke="black" d="M928,-149.27C928,-162.58 928,-178.19 928,-189.82"/>
<polygon fill="black" stroke="black" points="931.5,-149.2 928,-139.2 924.5,-149.2 931.5,-149.2"/>
<text text-anchor="middle" x="1038.5" y="-160.8" font-family="Times,serif" font-size="14.00">सप्तमी_तत्पुरुषः</text>
</g>
<!-- Node9_2&#45;&gt;Node10_1 -->
<g id="edge12" class="edge">
<title>Node9_2&#45;&gt;Node10_1</title>
<path fill="none" stroke="black" d="M878.5,-228.63C851.26,-238.84 816.64,-250.85 785,-259 745.11,-269.27 700.11,-277.29 662.27,-283.05"/>
<polygon fill="black" stroke="black" points="880.07,-231.77 888.18,-224.96 877.59,-225.23 880.07,-231.77"/>
<text text-anchor="middle" x="861" y="-247.8" font-family="Times,serif" font-size="14.00">कर्म</text>
</g>
</g>
</svg>
