<svg xmlns="http://www.w3.org/2000/svg" xmlns:xlink="http://www.w3.org/1999/xlink" width="1532" height="312" viewBox="0 0 1149 234"><g id="graph0" class="graph" transform="scale(1 1) rotate(0) translate(4 230)"><title>G</title><polygon fill="#fffacd" stroke="transparent" points="-4 4 -4 -230 1145 -230 1145 4 -4 4"/><g id="clust1" class="cluster"><title>cluster_1</title><polygon fill="#fffacd" stroke="#000" points="8 -8 8 -147 523 -147 523 -8 8 -8"/></g><g id="clust2" class="cluster"><title>cluster_2</title><polygon fill="#fffacd" stroke="#000" points="531 -8 531 -147 815 -147 815 -8 531 -8"/></g><g id="node1" class="node"><title>Node1_1</title><ellipse cx="399" cy="-34" fill="#00bfff" stroke="#00bfff" rx="115.88" ry="18"/><text x="399" y="-30.3" font-family="Times,serif" font-size="14" text-anchor="middle">काञ्चनानि(1.1)</text></g><g id="node2" class="node"><title>Node3_1</title><ellipse cx="399" cy="-121" fill="#00bfff" stroke="#00bfff" rx="96.68" ry="18"/><text x="399" y="-117.3" font-family="Times,serif" font-size="14" text-anchor="middle">तोरणानि(3.1)</text></g><g id="edge1" class="edge"><title>Node1_1-&gt;Node3_1</title><path fill="none" stroke="#000" d="M399,-62.27C399,-75.58 399,-91.19 399,-102.82"/><polygon fill="#000" stroke="#000" points="402.5 -62.2 399 -52.2 395.5 -62.2 402.5 -62.2"/><text x="456.5" y="-73.8" font-family="Times,serif" font-size="14" text-anchor="middle">विशेषणम्</text></g><g id="node6" class="node"><title>Node7_1</title><ellipse cx="824" cy="-208" fill="#ff1975" stroke="#ff1975" rx="152.97" ry="18"/><text x="824" y="-204.3" font-family="Times,serif" font-size="14" text-anchor="middle">उद्योतयामासुः(7.1)</text></g><g id="edge3" class="edge"><title>Node3_1-&gt;Node7_1</title><path fill="none" stroke="#000" d="M472.82,-136.76C550.51,-152.3 672.12,-176.62 749.92,-192.18"/><polygon fill="#000" stroke="#000" points="473.12 -133.25 462.63 -134.73 471.75 -140.12 473.12 -133.25"/><text x="672" y="-160.8" font-family="Times,serif" font-size="14" text-anchor="middle">कर्ता</text></g><g id="node3" class="node"><title>Node2_1</title><ellipse cx="141" cy="-34" fill="#00bfff" stroke="#00bfff" rx="124.58" ry="18"/><text x="141" y="-30.3" font-family="Times,serif" font-size="14" text-anchor="middle">विचित्राणि(2.1)</text></g><g id="edge2" class="edge"><title>Node2_1-&gt;Node3_1</title><path fill="none" stroke="#000" d="M193.01,-54.54C219.01,-64.09 251.03,-75.54 280,-85 302.11,-92.22 326.74,-99.58 347.84,-105.67"/><polygon fill="#000" stroke="#000" points="193.95 -51.15 183.36 -50.97 191.53 -57.72 193.95 -51.15"/><text x="337.5" y="-73.8" font-family="Times,serif" font-size="14" text-anchor="middle">विशेषणम्</text></g><g id="node4" class="node"><title>Node9_1</title><ellipse cx="673" cy="-34" fill="#93db70" stroke="#93db70" rx="133.78" ry="18"/><text x="673" y="-30.3" font-family="Times,serif" font-size="14" text-anchor="middle">समलङ्कृताम्(9.1)</text></g><g id="node5" class="node"><title>Node6_1</title><ellipse cx="709" cy="-121" fill="#93db70" stroke="#93db70" rx="96.68" ry="18"/><text x="709" y="-117.3" font-family="Times,serif" font-size="14" text-anchor="middle">लङ्काम्(6.1)</text></g><g id="edge8" class="edge"><title>Node9_1-&gt;Node6_1</title><path fill="none" stroke="#000" d="M684.21,-61.48C689.92,-74.96 696.7,-90.96 701.73,-102.82"/><polygon fill="#000" stroke="#000" points="687.41 -60.04 680.29 -52.2 680.96 -62.77 687.41 -60.04"/><text x="750.5" y="-73.8" font-family="Times,serif" font-size="14" text-anchor="middle">विशेषणम्</text></g><g id="edge6" class="edge"><title>Node6_1-&gt;Node7_1</title><path fill="none" stroke="#000" d="M739.65,-144.66C759.01,-158.96 783.59,-177.13 801.22,-190.16"/><polygon fill="#000" stroke="#000" points="741.57 -141.72 731.45 -138.59 737.41 -147.35 741.57 -141.72"/><text x="802" y="-160.8" font-family="Times,serif" font-size="14" text-anchor="middle">कर्म</text></g><g id="node7" class="node"><title>Node4_1</title><ellipse cx="865" cy="-121" fill="#f9f" stroke="#f9f" rx="41.69" ry="18"/><text x="865" y="-117.3" font-family="Times,serif" font-size="14" text-anchor="middle">च(4.1)</text></g><g id="edge4" class="edge"><title>Node4_1-&gt;Node7_1</title><path fill="none" stroke="#000" d="M852.4,-148.13C845.83,-161.73 838,-177.98 832.22,-189.95"/><polygon fill="#000" stroke="#000" points="855.71 -149.32 856.9 -138.79 849.4 -146.28 855.71 -149.32"/><text x="903.5" y="-160.8" font-family="Times,serif" font-size="14" text-anchor="middle">सम्बन्धः</text></g><g id="node8" class="node"><title>Node5_1</title><ellipse cx="931" cy="-34" fill="#87ceeb" stroke="#87ceeb" rx="106.68" ry="18"/><text x="931" y="-30.3" font-family="Times,serif" font-size="14" text-anchor="middle">रक्षसाम्(5.1)</text></g><g id="edge5" class="edge"><title>Node5_1-&gt;Node6_1</title><path fill="none" stroke="#000" d="M885.38,-55.05C863.35,-64.51 836.46,-75.72 812,-85 793.55,-92 773,-99.12 755.14,-105.09"/><polygon fill="#000" stroke="#000" points="887.01 -58.16 894.81 -50.99 884.24 -51.73 887.01 -58.16"/><text x="941" y="-73.8" font-family="Times,serif" font-size="14" text-anchor="middle">षष्ठीसम्बन्धः</text></g><g id="node9" class="node"><title>Node8_1</title><ellipse cx="1012" cy="-121" fill="#f9f" stroke="#f9f" rx="87.99" ry="18"/><text x="1012" y="-117.3" font-family="Times,serif" font-size="14" text-anchor="middle">सर्वतः(8.1)</text></g><g id="edge7" class="edge"><title>Node8_1-&gt;Node7_1</title><path fill="none" stroke="#000" d="M993.54,-147.02C985.68,-156.1 975.81,-165.67 965,-172 949,-181.37 930.57,-188.24 912.42,-193.28"/><polygon fill="#000" stroke="#000" points="996.27 -149.21 999.92 -139.26 990.86 -144.77 996.27 -149.21"/><text x="1062.5" y="-160.8" font-family="Times,serif" font-size="14" text-anchor="middle">देशाधिकरणम्</text></g></g></svg>