<?xml version="1.0" encoding="UTF-8" standalone="no"?>
<!DOCTYPE svg PUBLIC "-//W3C//DTD SVG 1.1//EN"
 "http://www.w3.org/Graphics/SVG/1.1/DTD/svg11.dtd">
<!-- Generated by graphviz version 2.43.0 (0)
 -->
<!-- Title: G Pages: 1 -->
<svg width="1081pt" height="479pt"
 viewBox="0.00 0.00 1080.74 479.00" xmlns="http://www.w3.org/2000/svg" xmlns:xlink="http://www.w3.org/1999/xlink">
<g id="graph0" class="graph" transform="scale(1 1) rotate(0) translate(4 475)">
<title>G</title>
<polygon fill="#fffacd" stroke="transparent" points="-4,4 -4,-475 1076.74,-475 1076.74,4 -4,4"/>
<g id="clust1" class="cluster">
<title>cluster_1</title>
<polygon fill="#fffacd" stroke="black" points="786.74,-166 786.74,-305 1034.74,-305 1034.74,-166 786.74,-166"/>
</g>
<g id="clust2" class="cluster">
<title>cluster_2</title>
<polygon fill="#fffacd" stroke="black" points="370.74,-79 370.74,-218 712.74,-218 712.74,-79 370.74,-79"/>
</g>
<!-- Node1_2 -->
<g id="node1" class="node">
<title>Node1_2</title>
<ellipse fill="#40e0d0" stroke="#40e0d0" cx="910.74" cy="-192" rx="115.88" ry="18"/>
<text text-anchor="middle" x="910.74" y="-188.3" font-family="Times,serif" font-size="14.00">अलक्ष्येण(1.2)</text>
</g>
<!-- Node2_1 -->
<g id="node2" class="node">
<title>Node2_1</title>
<ellipse fill="#40e0d0" stroke="#40e0d0" cx="891.74" cy="-279" rx="78.79" ry="18"/>
<text text-anchor="middle" x="891.74" y="-275.3" font-family="Times,serif" font-size="14.00">रूपेण(2.1)</text>
</g>
<!-- Node1_2&#45;&gt;Node2_1 -->
<g id="edge2" class="edge">
<title>Node1_2&#45;&gt;Node2_1</title>
<path fill="none" stroke="black" d="M904.65,-220.27C901.67,-233.58 898.18,-249.19 895.58,-260.82"/>
<polygon fill="black" stroke="black" points="908.13,-220.72 906.9,-210.2 901.3,-219.2 908.13,-220.72"/>
<text text-anchor="middle" x="959.24" y="-231.8" font-family="Times,serif" font-size="14.00">विशेषणम्</text>
</g>
<!-- Node7_1 -->
<g id="node7" class="node">
<title>Node7_1</title>
<ellipse fill="#ff99ff" stroke="#ff99ff" cx="409.74" cy="-366" rx="133.78" ry="18"/>
<text text-anchor="middle" x="409.74" y="-362.3" font-family="Times,serif" font-size="14.00">प्रवेष्टुम्(7.1)</text>
</g>
<!-- Node2_1&#45;&gt;Node7_1 -->
<g id="edge3" class="edge">
<title>Node2_1&#45;&gt;Node7_1</title>
<path fill="none" stroke="black" d="M828.16,-294.52C780.34,-305.16 713.13,-319.51 653.74,-330 604.12,-338.76 548.52,-346.87 502.95,-353.07"/>
<polygon fill="black" stroke="black" points="829.06,-297.91 838.06,-292.31 827.53,-291.08 829.06,-297.91"/>
<text text-anchor="middle" x="761.74" y="-318.8" font-family="Times,serif" font-size="14.00">करणम्</text>
</g>
<!-- Node6_2 -->
<g id="node3" class="node">
<title>Node6_2</title>
<ellipse fill="#00bfff" stroke="#00bfff" cx="625.74" cy="-105" rx="78.79" ry="18"/>
<text text-anchor="middle" x="625.74" y="-101.3" font-family="Times,serif" font-size="14.00">कालम्(6.2)</text>
</g>
<!-- Node9_1 -->
<g id="node4" class="node">
<title>Node9_1</title>
<ellipse fill="#00bfff" stroke="#00bfff" cx="594.74" cy="-192" rx="96.68" ry="18"/>
<text text-anchor="middle" x="594.74" y="-188.3" font-family="Times,serif" font-size="14.00">कृत्यम्(9.1)</text>
</g>
<!-- Node6_2&#45;&gt;Node9_1 -->
<g id="edge9" class="edge">
<title>Node6_2&#45;&gt;Node9_1</title>
<path fill="none" stroke="black" d="M615.85,-132.55C614.8,-135.4 613.74,-138.26 612.74,-141 608.75,-151.92 604.33,-164.2 600.86,-173.86"/>
<polygon fill="black" stroke="black" points="619.17,-133.67 619.36,-123.08 612.6,-131.24 619.17,-133.67"/>
<text text-anchor="middle" x="670.24" y="-144.8" font-family="Times,serif" font-size="14.00">विशेषणम्</text>
</g>
<!-- Node10_1 -->
<g id="node15" class="node">
<title>Node10_1</title>
<ellipse fill="#ff99ff" stroke="#ff99ff" cx="608.74" cy="-279" rx="121.58" ry="18"/>
<text text-anchor="middle" x="608.74" y="-275.3" font-family="Times,serif" font-size="14.00">साधयितुम्(10.1)</text>
</g>
<!-- Node9_1&#45;&gt;Node10_1 -->
<g id="edge12" class="edge">
<title>Node9_1&#45;&gt;Node10_1</title>
<path fill="none" stroke="black" d="M599.23,-220.27C601.43,-233.58 604,-249.19 605.91,-260.82"/>
<polygon fill="black" stroke="black" points="602.65,-219.5 597.58,-210.2 595.75,-220.64 602.65,-219.5"/>
<text text-anchor="middle" x="630.74" y="-231.8" font-family="Times,serif" font-size="14.00">कर्म</text>
</g>
<!-- Node11_1 -->
<g id="node5" class="node">
<title>Node11_1</title>
<ellipse fill="#00bfff" stroke="#00bfff" cx="453.74" cy="-105" rx="75.29" ry="18"/>
<text text-anchor="middle" x="453.74" y="-101.3" font-family="Times,serif" font-size="14.00">महत्(11.1)</text>
</g>
<!-- Node11_1&#45;&gt;Node9_1 -->
<g id="edge14" class="edge">
<title>Node11_1&#45;&gt;Node9_1</title>
<path fill="none" stroke="black" d="M467.26,-131.78C472.9,-140.49 480.16,-149.62 488.74,-156 501.8,-165.72 517.71,-172.82 533.18,-177.99"/>
<polygon fill="black" stroke="black" points="470.13,-129.76 461.98,-122.99 464.13,-133.37 470.13,-129.76"/>
<text text-anchor="middle" x="546.24" y="-144.8" font-family="Times,serif" font-size="14.00">विशेषणम्</text>
</g>
<!-- Node1_1 -->
<g id="node6" class="node">
<title>Node1_1</title>
<ellipse fill="#ffff00" stroke="#ffff00" cx="958.74" cy="-105" rx="90.98" ry="18"/>
<text text-anchor="middle" x="958.74" y="-101.3" font-family="Times,serif" font-size="14.00">लक्ष्य&#45;(1.1)</text>
</g>
<!-- Node1_1&#45;&gt;Node1_2 -->
<g id="edge1" class="edge">
<title>Node1_1&#45;&gt;Node1_2</title>
<path fill="none" stroke="black" d="M948.4,-132.5C945.03,-140.25 941.03,-148.62 936.74,-156 933.17,-162.15 928.71,-168.5 924.5,-174.08"/>
<polygon fill="black" stroke="black" points="951.69,-133.71 952.32,-123.13 945.23,-131 951.69,-133.71"/>
<text text-anchor="middle" x="1008.24" y="-144.8" font-family="Times,serif" font-size="14.00">द्वन्द्वः</text>
</g>
<!-- Node12_1 -->
<g id="node13" class="node">
<title>Node12_1</title>
<ellipse fill="#00bfff" stroke="#00bfff" cx="409.74" cy="-453" rx="90.98" ry="18"/>
<text text-anchor="middle" x="409.74" y="-449.3" font-family="Times,serif" font-size="14.00">(शक्या)(12.1)</text>
</g>
<!-- Node7_1&#45;&gt;Node12_1 -->
<g id="edge10" class="edge">
<title>Node7_1&#45;&gt;Node12_1</title>
<path fill="none" stroke="black" d="M409.74,-394.27C409.74,-407.58 409.74,-423.19 409.74,-434.82"/>
<polygon fill="black" stroke="black" points="413.24,-394.2 409.74,-384.2 406.24,-394.2 413.24,-394.2"/>
<text text-anchor="middle" x="474.24" y="-405.8" font-family="Times,serif" font-size="14.00">प्रयोजनम्</text>
</g>
<!-- Node3_1 -->
<g id="node8" class="node">
<title>Node3_1</title>
<ellipse fill="#c6e2eb" stroke="#c6e2eb" cx="87.74" cy="-279" rx="87.99" ry="18"/>
<text text-anchor="middle" x="87.74" y="-275.3" font-family="Times,serif" font-size="14.00">रात्रौ(3.1)</text>
</g>
<!-- Node3_1&#45;&gt;Node7_1 -->
<g id="edge4" class="edge">
<title>Node3_1&#45;&gt;Node7_1</title>
<path fill="none" stroke="black" d="M115.27,-303.01C128.52,-312.89 145.12,-323.61 161.74,-330 201.01,-345.1 246.01,-353.79 286.82,-358.75"/>
<polygon fill="black" stroke="black" points="117.13,-300.03 107.07,-296.69 112.86,-305.57 117.13,-300.03"/>
<text text-anchor="middle" x="240.24" y="-318.8" font-family="Times,serif" font-size="14.00">कालाधिकरणम्</text>
</g>
<!-- Node4_1 -->
<g id="node9" class="node">
<title>Node4_1</title>
<ellipse fill="#ffff00" stroke="#ffff00" cx="262.74" cy="-192" rx="81.49" ry="18"/>
<text text-anchor="middle" x="262.74" y="-188.3" font-family="Times,serif" font-size="14.00">लङ्का&#45;(4.1)</text>
</g>
<!-- Node4_2 -->
<g id="node10" class="node">
<title>Node4_2</title>
<ellipse fill="#93db70" stroke="#93db70" cx="262.74" cy="-279" rx="69.59" ry="18"/>
<text text-anchor="middle" x="262.74" y="-275.3" font-family="Times,serif" font-size="14.00">पुरी(4.2)</text>
</g>
<!-- Node4_1&#45;&gt;Node4_2 -->
<g id="edge5" class="edge">
<title>Node4_1&#45;&gt;Node4_2</title>
<path fill="none" stroke="black" d="M262.74,-220.27C262.74,-233.58 262.74,-249.19 262.74,-260.82"/>
<polygon fill="black" stroke="black" points="266.24,-220.2 262.74,-210.2 259.24,-220.2 266.24,-220.2"/>
<text text-anchor="middle" x="327.24" y="-231.8" font-family="Times,serif" font-size="14.00">कर्मधारयः</text>
</g>
<!-- Node4_2&#45;&gt;Node7_1 -->
<g id="edge6" class="edge">
<title>Node4_2&#45;&gt;Node7_1</title>
<path fill="none" stroke="black" d="M297.74,-300.77C313.05,-309.82 331.25,-320.5 347.74,-330 358.24,-336.05 369.78,-342.6 380.04,-348.37"/>
<polygon fill="black" stroke="black" points="299.48,-297.74 289.09,-295.66 295.92,-303.76 299.48,-297.74"/>
<text text-anchor="middle" x="376.74" y="-318.8" font-family="Times,serif" font-size="14.00">कर्म</text>
</g>
<!-- Node5_1 -->
<g id="node11" class="node">
<title>Node5_1</title>
<ellipse fill="#40e0d0" stroke="#40e0d0" cx="409.74" cy="-279" rx="59.59" ry="18"/>
<text text-anchor="middle" x="409.74" y="-275.3" font-family="Times,serif" font-size="14.00">मया(5.1)</text>
</g>
<!-- Node5_1&#45;&gt;Node7_1 -->
<g id="edge7" class="edge">
<title>Node5_1&#45;&gt;Node7_1</title>
<path fill="none" stroke="black" d="M409.74,-307.27C409.74,-320.58 409.74,-336.19 409.74,-347.82"/>
<polygon fill="black" stroke="black" points="413.24,-307.2 409.74,-297.2 406.24,-307.2 413.24,-307.2"/>
<text text-anchor="middle" x="445.74" y="-318.8" font-family="Times,serif" font-size="14.00">कर्ता</text>
</g>
<!-- Node6_1 -->
<g id="node12" class="node">
<title>Node6_1</title>
<ellipse fill="#ffff00" stroke="#ffff00" cx="625.74" cy="-18" rx="100.18" ry="18"/>
<text text-anchor="middle" x="625.74" y="-14.3" font-family="Times,serif" font-size="14.00">प्राप्त&#45;(6.1)</text>
</g>
<!-- Node6_1&#45;&gt;Node6_2 -->
<g id="edge8" class="edge">
<title>Node6_1&#45;&gt;Node6_2</title>
<path fill="none" stroke="black" d="M625.74,-46.27C625.74,-59.58 625.74,-75.19 625.74,-86.82"/>
<polygon fill="black" stroke="black" points="629.24,-46.2 625.74,-36.2 622.24,-46.2 629.24,-46.2"/>
<text text-anchor="middle" x="697.24" y="-57.8" font-family="Times,serif" font-size="14.00">बहुव्रीहिः</text>
</g>
<!-- Node8_1 -->
<g id="node14" class="node">
<title>Node8_1</title>
<ellipse fill="#87ceeb" stroke="#87ceeb" cx="772.74" cy="-105" rx="50.89" ry="18"/>
<text text-anchor="middle" x="772.74" y="-101.3" font-family="Times,serif" font-size="14.00">मे(8.1)</text>
</g>
<!-- Node8_1&#45;&gt;Node9_1 -->
<g id="edge11" class="edge">
<title>Node8_1&#45;&gt;Node9_1</title>
<path fill="none" stroke="black" d="M755.31,-130.83C747.78,-139.94 738.28,-149.58 727.74,-156 709.5,-167.13 687.75,-174.75 667.19,-179.96"/>
<polygon fill="black" stroke="black" points="758.24,-132.76 761.64,-122.73 752.73,-128.45 758.24,-132.76"/>
<text text-anchor="middle" x="837.74" y="-144.8" font-family="Times,serif" font-size="14.00">षष्ठीसम्बन्धः</text>
</g>
<!-- Node10_1&#45;&gt;Node7_1 -->
<g id="edge13" class="edge">
<title>Node10_1&#45;&gt;Node7_1</title>
<path fill="none" stroke="black" d="M561.39,-300.23C526.67,-315.05 480.16,-334.92 447.84,-348.73"/>
<polygon fill="black" stroke="black" points="563.02,-303.33 570.84,-296.19 560.27,-296.9 563.02,-303.33"/>
<text text-anchor="middle" x="585.24" y="-318.8" font-family="Times,serif" font-size="14.00">प्रयोजनम्</text>
</g>
</g>
</svg>
