<?xml version="1.0" encoding="UTF-8" standalone="no"?>
<!DOCTYPE svg PUBLIC "-//W3C//DTD SVG 1.1//EN"
 "http://www.w3.org/Graphics/SVG/1.1/DTD/svg11.dtd">
<!-- Generated by graphviz version 2.43.0 (0)
 -->
<!-- Title: G Pages: 1 -->
<svg width="4431pt" height="653pt"
 viewBox="0.00 0.00 4431.04 653.00" xmlns="http://www.w3.org/2000/svg" xmlns:xlink="http://www.w3.org/1999/xlink">
<g id="graph0" class="graph" transform="scale(1 1) rotate(0) translate(4 649)">
<title>G</title>
<polygon fill="#fffacd" stroke="transparent" points="-4,4 -4,-649 4427.04,-649 4427.04,4 -4,4"/>
<g id="clust1" class="cluster">
<title>cluster_1</title>
<polygon fill="#fffacd" stroke="black" points="3884.04,-427 3884.04,-566 4226.04,-566 4226.04,-427 3884.04,-427"/>
</g>
<g id="clust2" class="cluster">
<title>cluster_2</title>
<polygon fill="#fffacd" stroke="black" points="73.04,-166 73.04,-305 3323.04,-305 3323.04,-166 73.04,-166"/>
</g>
<g id="clust3" class="cluster">
<title>cluster_3</title>
<polygon fill="#fffacd" stroke="black" points="3052.04,-340 3052.04,-479 3814.04,-479 3814.04,-340 3052.04,-340"/>
</g>
<!-- Node1_3 -->
<g id="node1" class="node">
<title>Node1_3</title>
<ellipse fill="#00bfff" stroke="#00bfff" cx="4139.04" cy="-453" rx="78.79" ry="18"/>
<text text-anchor="middle" x="4139.04" y="-449.3" font-family="Times,serif" font-size="14.00">हृदयः(1.3)</text>
</g>
<!-- Node33_1 -->
<g id="node2" class="node">
<title>Node33_1</title>
<ellipse fill="#00bfff" stroke="#00bfff" cx="3995.04" cy="-540" rx="102.88" ry="18"/>
<text text-anchor="middle" x="3995.04" y="-536.3" font-family="Times,serif" font-size="14.00">हनुमान्(33.1)</text>
</g>
<!-- Node1_3&#45;&gt;Node33_1 -->
<g id="edge3" class="edge">
<title>Node1_3&#45;&gt;Node33_1</title>
<path fill="none" stroke="black" d="M4114.94,-477.88C4105.01,-486.86 4093.03,-496.66 4081.04,-504 4068.53,-511.65 4054.04,-518.29 4040.57,-523.66"/>
<polygon fill="black" stroke="black" points="4117.49,-480.28 4122.43,-470.91 4112.72,-475.16 4117.49,-480.28"/>
<text text-anchor="middle" x="4158.54" y="-492.8" font-family="Times,serif" font-size="14.00">विशेषणम्</text>
</g>
<!-- Node32_1 -->
<g id="node26" class="node">
<title>Node32_1</title>
<ellipse fill="#ff1975" stroke="#ff1975" cx="3606.04" cy="-627" rx="84.49" ry="18"/>
<text text-anchor="middle" x="3606.04" y="-623.3" font-family="Times,serif" font-size="14.00">जहर्ष(32.1)</text>
</g>
<!-- Node33_1&#45;&gt;Node32_1 -->
<g id="edge52" class="edge">
<title>Node33_1&#45;&gt;Node32_1</title>
<path fill="none" stroke="black" d="M3947.14,-560.53C3919.94,-570.94 3885.04,-583.18 3853.04,-591 3796.56,-604.8 3731.39,-613.75 3682.17,-619.15"/>
<polygon fill="black" stroke="black" points="3948.73,-563.67 3956.79,-556.79 3946.2,-557.14 3948.73,-563.67"/>
<text text-anchor="middle" x="3936.04" y="-579.8" font-family="Times,serif" font-size="14.00">कर्ता</text>
</g>
<!-- Node34_1 -->
<g id="node3" class="node">
<title>Node34_1</title>
<ellipse fill="#00bfff" stroke="#00bfff" cx="3967.04" cy="-453" rx="75.29" ry="18"/>
<text text-anchor="middle" x="3967.04" y="-449.3" font-family="Times,serif" font-size="14.00">कपिः(34.1)</text>
</g>
<!-- Node34_1&#45;&gt;Node33_1 -->
<g id="edge53" class="edge">
<title>Node34_1&#45;&gt;Node33_1</title>
<path fill="none" stroke="black" d="M3962.96,-481.31C3962.77,-488.84 3963.48,-496.89 3966.04,-504 3968.39,-510.53 3972.56,-516.71 3977.01,-522"/>
<polygon fill="black" stroke="black" points="3966.46,-481.39 3963.71,-471.16 3959.48,-480.87 3966.46,-481.39"/>
<text text-anchor="middle" x="4023.54" y="-492.8" font-family="Times,serif" font-size="14.00">विशेषणम्</text>
</g>
<!-- Node5_1 -->
<g id="node4" class="node">
<title>Node5_1</title>
<ellipse fill="#40e0d0" stroke="#40e0d0" cx="3171.04" cy="-192" rx="143.77" ry="18"/>
<text text-anchor="middle" x="3171.04" y="-188.3" font-family="Times,serif" font-size="14.00">जाम्बूनदमयैः(5.1)</text>
</g>
<!-- Node6_1 -->
<g id="node5" class="node">
<title>Node6_1</title>
<ellipse fill="#40e0d0" stroke="#40e0d0" cx="1845.04" cy="-279" rx="96.68" ry="18"/>
<text text-anchor="middle" x="1845.04" y="-275.3" font-family="Times,serif" font-size="14.00">द्वारैः(6.1)</text>
</g>
<!-- Node5_1&#45;&gt;Node6_1 -->
<g id="edge7" class="edge">
<title>Node5_1&#45;&gt;Node6_1</title>
<path fill="none" stroke="black" d="M3074.76,-207.96C2996.83,-219.47 2884.13,-234.76 2785.04,-243 2477.65,-268.58 2112.16,-275.46 1941.63,-277.32"/>
<polygon fill="black" stroke="black" points="3075.67,-211.37 3085.04,-206.43 3074.64,-204.44 3075.67,-211.37"/>
<text text-anchor="middle" x="2980.54" y="-231.8" font-family="Times,serif" font-size="14.00">विशेषणम्</text>
</g>
<!-- Node23_1 -->
<g id="node18" class="node">
<title>Node23_1</title>
<ellipse fill="#93db70" stroke="#93db70" cx="3405.04" cy="-366" rx="139.98" ry="18"/>
<text text-anchor="middle" x="3405.04" y="-362.3" font-family="Times,serif" font-size="14.00">परिनादिताम्(23.1)</text>
</g>
<!-- Node6_1&#45;&gt;Node23_1 -->
<g id="edge8" class="edge">
<title>Node6_1&#45;&gt;Node23_1</title>
<path fill="none" stroke="black" d="M1952.38,-280C2188.79,-280.99 2771.96,-288.93 3257.04,-340 3281.27,-342.55 3307.54,-346.57 3331.13,-350.65"/>
<polygon fill="black" stroke="black" points="1952.08,-276.5 1942.07,-279.96 1952.06,-283.5 1952.08,-276.5"/>
<text text-anchor="middle" x="3179.04" y="-318.8" font-family="Times,serif" font-size="14.00">करणम्</text>
</g>
<!-- Node7_2 -->
<g id="node6" class="node">
<title>Node7_2</title>
<ellipse fill="#40e0d0" stroke="#40e0d0" cx="178.04" cy="-192" rx="96.68" ry="18"/>
<text text-anchor="middle" x="178.04" y="-188.3" font-family="Times,serif" font-size="14.00">वेदिकैः(7.2)</text>
</g>
<!-- Node7_2&#45;&gt;Node6_1 -->
<g id="edge10" class="edge">
<title>Node7_2&#45;&gt;Node6_1</title>
<path fill="none" stroke="black" d="M249.77,-207.95C309.9,-219.78 398.17,-235.51 476.04,-243 723.35,-266.79 1479.31,-275.06 1748.56,-277.3"/>
<polygon fill="black" stroke="black" points="250.12,-204.45 239.63,-205.94 248.76,-211.32 250.12,-204.45"/>
<text text-anchor="middle" x="533.54" y="-231.8" font-family="Times,serif" font-size="14.00">विशेषणम्</text>
</g>
<!-- Node8_3 -->
<g id="node7" class="node">
<title>Node8_3</title>
<ellipse fill="#40e0d0" stroke="#40e0d0" cx="409.04" cy="-192" rx="115.88" ry="18"/>
<text text-anchor="middle" x="409.04" y="-188.3" font-family="Times,serif" font-size="14.00">मुक्ताभिः(8.3)</text>
</g>
<!-- Node8_3&#45;&gt;Node6_1 -->
<g id="edge13" class="edge">
<title>Node8_3&#45;&gt;Node6_1</title>
<path fill="none" stroke="black" d="M483.91,-208.88C542.24,-220.53 625.4,-235.56 699.04,-243 901.41,-263.43 1511.06,-273.55 1748.71,-276.8"/>
<polygon fill="black" stroke="black" points="484.54,-205.44 474.04,-206.9 483.15,-212.3 484.54,-205.44"/>
<text text-anchor="middle" x="756.54" y="-231.8" font-family="Times,serif" font-size="14.00">विशेषणम्</text>
</g>
<!-- Node9_3 -->
<g id="node8" class="node">
<title>Node9_3</title>
<ellipse fill="#40e0d0" stroke="#40e0d0" cx="640.04" cy="-192" rx="96.68" ry="18"/>
<text text-anchor="middle" x="640.04" y="-188.3" font-family="Times,serif" font-size="14.00">भूषितैः(9.3)</text>
</g>
<!-- Node9_3&#45;&gt;Node6_1 -->
<g id="edge16" class="edge">
<title>Node9_3&#45;&gt;Node6_1</title>
<path fill="none" stroke="black" d="M709.78,-208.4C765.56,-220.04 845.92,-235.28 917.04,-243 1218.97,-275.78 1579.03,-279.27 1748.19,-278.83"/>
<polygon fill="black" stroke="black" points="710.17,-204.91 699.66,-206.28 708.73,-211.76 710.17,-204.91"/>
<text text-anchor="middle" x="974.54" y="-231.8" font-family="Times,serif" font-size="14.00">विशेषणम्</text>
</g>
<!-- Node10_3 -->
<g id="node9" class="node">
<title>Node10_3</title>
<ellipse fill="#40e0d0" stroke="#40e0d0" cx="1063.04" cy="-192" rx="121.58" ry="18"/>
<text text-anchor="middle" x="1063.04" y="-188.3" font-family="Times,serif" font-size="14.00">निर्यूहैः(10.3)</text>
</g>
<!-- Node10_3&#45;&gt;Node6_1 -->
<g id="edge19" class="edge">
<title>Node10_3&#45;&gt;Node6_1</title>
<path fill="none" stroke="black" d="M1143.89,-208.56C1204.11,-219.65 1288.45,-234.1 1363.04,-243 1497.79,-259.09 1654.68,-268.82 1751.94,-273.8"/>
<polygon fill="black" stroke="black" points="1144.16,-205.05 1133.69,-206.68 1142.89,-211.94 1144.16,-205.05"/>
<text text-anchor="middle" x="1420.54" y="-231.8" font-family="Times,serif" font-size="14.00">विशेषणम्</text>
</g>
<!-- Node11_3 -->
<g id="node10" class="node">
<title>Node11_3</title>
<ellipse fill="#40e0d0" stroke="#40e0d0" cx="1324.04" cy="-192" rx="121.58" ry="18"/>
<text text-anchor="middle" x="1324.04" y="-188.3" font-family="Times,serif" font-size="14.00">पाण्डुरैः(11.3)</text>
</g>
<!-- Node11_3&#45;&gt;Node6_1 -->
<g id="edge22" class="edge">
<title>Node11_3&#45;&gt;Node6_1</title>
<path fill="none" stroke="black" d="M1395.56,-209.92C1441.96,-220.48 1503.85,-233.77 1559.04,-243 1627,-254.37 1704.63,-263.63 1761.85,-269.77"/>
<polygon fill="black" stroke="black" points="1396.13,-206.47 1385.6,-207.65 1394.57,-213.29 1396.13,-206.47"/>
<text text-anchor="middle" x="1616.54" y="-231.8" font-family="Times,serif" font-size="14.00">विशेषणम्</text>
</g>
<!-- Node12_2 -->
<g id="node11" class="node">
<title>Node12_2</title>
<ellipse fill="#40e0d0" stroke="#40e0d0" cx="1566.04" cy="-192" rx="102.88" ry="18"/>
<text text-anchor="middle" x="1566.04" y="-188.3" font-family="Times,serif" font-size="14.00">सोपानैः(12.2)</text>
</g>
<!-- Node12_2&#45;&gt;Node6_1 -->
<g id="edge24" class="edge">
<title>Node12_2&#45;&gt;Node6_1</title>
<path fill="none" stroke="black" d="M1623.2,-211.12C1653.68,-220.72 1691.86,-232.63 1726.04,-243 1748.71,-249.88 1773.87,-257.3 1795.19,-263.54"/>
<polygon fill="black" stroke="black" points="1624.17,-207.76 1613.58,-208.09 1622.07,-214.43 1624.17,-207.76"/>
<text text-anchor="middle" x="1783.54" y="-231.8" font-family="Times,serif" font-size="14.00">विशेषणम्</text>
</g>
<!-- Node13_2 -->
<g id="node12" class="node">
<title>Node13_2</title>
<ellipse fill="#40e0d0" stroke="#40e0d0" cx="1845.04" cy="-192" rx="158.67" ry="18"/>
<text text-anchor="middle" x="1845.04" y="-188.3" font-family="Times,serif" font-size="14.00">अन्तरपांसुभिः(13.2)</text>
</g>
<!-- Node13_2&#45;&gt;Node6_1 -->
<g id="edge26" class="edge">
<title>Node13_2&#45;&gt;Node6_1</title>
<path fill="none" stroke="black" d="M1845.04,-220.27C1845.04,-233.58 1845.04,-249.19 1845.04,-260.82"/>
<polygon fill="black" stroke="black" points="1848.54,-220.2 1845.04,-210.2 1841.54,-220.2 1848.54,-220.2"/>
<text text-anchor="middle" x="1902.54" y="-231.8" font-family="Times,serif" font-size="14.00">विशेषणम्</text>
</g>
<!-- Node14_3 -->
<g id="node13" class="node">
<title>Node14_3</title>
<ellipse fill="#40e0d0" stroke="#40e0d0" cx="2115.04" cy="-192" rx="93.68" ry="18"/>
<text text-anchor="middle" x="2115.04" y="-188.3" font-family="Times,serif" font-size="14.00">उपेतैः(14.3)</text>
</g>
<!-- Node14_3&#45;&gt;Node6_1 -->
<g id="edge29" class="edge">
<title>Node14_3&#45;&gt;Node6_1</title>
<path fill="none" stroke="black" d="M2061.74,-211.13C2032.9,-220.83 1996.6,-232.82 1964.04,-243 1941.63,-250 1916.74,-257.39 1895.53,-263.56"/>
<polygon fill="black" stroke="black" points="2062.86,-214.45 2071.22,-207.94 2060.63,-207.82 2062.86,-214.45"/>
<text text-anchor="middle" x="2066.54" y="-231.8" font-family="Times,serif" font-size="14.00">विशेषणम्</text>
</g>
<!-- Node18_1 -->
<g id="node14" class="node">
<title>Node18_1</title>
<ellipse fill="#40e0d0" stroke="#40e0d0" cx="839.04" cy="-192" rx="84.49" ry="18"/>
<text text-anchor="middle" x="839.04" y="-188.3" font-family="Times,serif" font-size="14.00">शुभैः(18.1)</text>
</g>
<!-- Node18_1&#45;&gt;Node6_1 -->
<g id="edge33" class="edge">
<title>Node18_1&#45;&gt;Node6_1</title>
<path fill="none" stroke="black" d="M908.3,-206.76C970.12,-218.46 1063.24,-234.64 1145.04,-243 1360.2,-264.99 1614.05,-273.31 1749.13,-276.35"/>
<polygon fill="black" stroke="black" points="908.76,-203.28 898.28,-204.85 907.45,-210.16 908.76,-203.28"/>
<text text-anchor="middle" x="1202.54" y="-231.8" font-family="Times,serif" font-size="14.00">विशेषणम्</text>
</g>
<!-- Node19_3 -->
<g id="node15" class="node">
<title>Node19_3</title>
<ellipse fill="#40e0d0" stroke="#40e0d0" cx="2357.04" cy="-192" rx="130.78" ry="18"/>
<text text-anchor="middle" x="2357.04" y="-188.3" font-family="Times,serif" font-size="14.00">सङ्घुष्टैः(19.3)</text>
</g>
<!-- Node19_3&#45;&gt;Node6_1 -->
<g id="edge36" class="edge">
<title>Node19_3&#45;&gt;Node6_1</title>
<path fill="none" stroke="black" d="M2285.66,-210.35C2240.65,-220.86 2181.18,-233.93 2128.04,-243 2061.18,-254.41 1984.83,-263.63 1928.3,-269.74"/>
<polygon fill="black" stroke="black" points="2286.68,-213.71 2295.62,-208.02 2285.08,-206.9 2286.68,-213.71"/>
<text text-anchor="middle" x="2260.54" y="-231.8" font-family="Times,serif" font-size="14.00">विशेषणम्</text>
</g>
<!-- Node20_2 -->
<g id="node16" class="node">
<title>Node20_2</title>
<ellipse fill="#40e0d0" stroke="#40e0d0" cx="2627.04" cy="-192" rx="121.58" ry="18"/>
<text text-anchor="middle" x="2627.04" y="-188.3" font-family="Times,serif" font-size="14.00">निषेवितैः(20.2)</text>
</g>
<!-- Node20_2&#45;&gt;Node6_1 -->
<g id="edge38" class="edge">
<title>Node20_2&#45;&gt;Node6_1</title>
<path fill="none" stroke="black" d="M2545.51,-208.4C2484.24,-219.47 2398.13,-233.99 2322.04,-243 2188.87,-258.77 2033.88,-268.57 1937.61,-273.66"/>
<polygon fill="black" stroke="black" points="2546.29,-211.81 2555.5,-206.58 2545.04,-204.93 2546.29,-211.81"/>
<text text-anchor="middle" x="2480.54" y="-231.8" font-family="Times,serif" font-size="14.00">विशेषणम्</text>
</g>
<!-- Node21_2 -->
<g id="node17" class="node">
<title>Node21_2</title>
<ellipse fill="#40e0d0" stroke="#40e0d0" cx="2888.04" cy="-192" rx="121.58" ry="18"/>
<text text-anchor="middle" x="2888.04" y="-188.3" font-family="Times,serif" font-size="14.00">निर्घोषैः(21.2)</text>
</g>
<!-- Node21_2&#45;&gt;Node6_1 -->
<g id="edge40" class="edge">
<title>Node21_2&#45;&gt;Node6_1</title>
<path fill="none" stroke="black" d="M2801.94,-207.72C2732.1,-219.11 2631,-234.36 2542.04,-243 2327.84,-263.81 2075.33,-272.59 1940.79,-276.02"/>
<polygon fill="black" stroke="black" points="2802.71,-211.14 2812.01,-206.07 2801.58,-204.24 2802.71,-211.14"/>
<text text-anchor="middle" x="2723.54" y="-231.8" font-family="Times,serif" font-size="14.00">विशेषणम्</text>
</g>
<!-- Node31_1 -->
<g id="node19" class="node">
<title>Node31_1</title>
<ellipse fill="#93db70" stroke="#93db70" cx="3508.04" cy="-453" rx="102.88" ry="18"/>
<text text-anchor="middle" x="3508.04" y="-449.3" font-family="Times,serif" font-size="14.00">लङ्काम्(31.1)</text>
</g>
<!-- Node23_1&#45;&gt;Node31_1 -->
<g id="edge42" class="edge">
<title>Node23_1&#45;&gt;Node31_1</title>
<path fill="none" stroke="black" d="M3433.89,-390.81C3450.98,-404.91 3472.22,-422.44 3487.58,-435.11"/>
<polygon fill="black" stroke="black" points="3435.82,-387.87 3425.88,-384.2 3431.37,-393.27 3435.82,-387.87"/>
<text text-anchor="middle" x="3519.54" y="-405.8" font-family="Times,serif" font-size="14.00">विशेषणम्</text>
</g>
<!-- Node25_1 -->
<g id="node50" class="node">
<title>Node25_1</title>
<ellipse fill="#ff99ff" stroke="#ff99ff" cx="3508.04" cy="-540" rx="112.38" ry="18"/>
<text text-anchor="middle" x="3508.04" y="-536.3" font-family="Times,serif" font-size="14.00">समीक्ष्य(25.1)</text>
</g>
<!-- Node31_1&#45;&gt;Node25_1 -->
<g id="edge51" class="edge">
<title>Node31_1&#45;&gt;Node25_1</title>
<path fill="none" stroke="black" d="M3508.04,-481.27C3508.04,-494.58 3508.04,-510.19 3508.04,-521.82"/>
<polygon fill="black" stroke="black" points="3511.54,-481.2 3508.04,-471.2 3504.54,-481.2 3511.54,-481.2"/>
<text text-anchor="middle" x="3537.04" y="-492.8" font-family="Times,serif" font-size="14.00">कर्म</text>
</g>
<!-- Node24_2 -->
<g id="node20" class="node">
<title>Node24_2</title>
<ellipse fill="#93db70" stroke="#93db70" cx="3684.04" cy="-366" rx="121.58" ry="18"/>
<text text-anchor="middle" x="3684.04" y="-362.3" font-family="Times,serif" font-size="14.00">प्रतिमाम्(24.2)</text>
</g>
<!-- Node24_2&#45;&gt;Node31_1 -->
<g id="edge44" class="edge">
<title>Node24_2&#45;&gt;Node31_1</title>
<path fill="none" stroke="black" d="M3641.14,-387.88C3622.66,-396.86 3600.8,-407.47 3581.04,-417 3568.25,-423.17 3554.19,-429.92 3541.86,-435.83"/>
<polygon fill="black" stroke="black" points="3642.73,-391 3650.19,-383.48 3639.67,-384.71 3642.73,-391"/>
<text text-anchor="middle" x="3666.54" y="-405.8" font-family="Times,serif" font-size="14.00">विशेषणम्</text>
</g>
<!-- Node26_1 -->
<g id="node21" class="node">
<title>Node26_1</title>
<ellipse fill="#93db70" stroke="#93db70" cx="3154.04" cy="-366" rx="93.68" ry="18"/>
<text text-anchor="middle" x="3154.04" y="-362.3" font-family="Times,serif" font-size="14.00">नगरीम्(26.1)</text>
</g>
<!-- Node26_1&#45;&gt;Node31_1 -->
<g id="edge46" class="edge">
<title>Node26_1&#45;&gt;Node31_1</title>
<path fill="none" stroke="black" d="M3211.73,-384.56C3246.18,-394.73 3290.91,-407.38 3331.04,-417 3366.37,-425.47 3406.03,-433.45 3438.83,-439.65"/>
<polygon fill="black" stroke="black" points="3212.43,-381.12 3201.85,-381.63 3210.44,-387.83 3212.43,-381.12"/>
<text text-anchor="middle" x="3388.54" y="-405.8" font-family="Times,serif" font-size="14.00">विशेषणम्</text>
</g>
<!-- Node1_1 -->
<g id="node22" class="node">
<title>Node1_1</title>
<ellipse fill="#ffff00" stroke="#ffff00" cx="4204.04" cy="-279" rx="90.98" ry="18"/>
<text text-anchor="middle" x="4204.04" y="-275.3" font-family="Times,serif" font-size="14.00">विस्मय&#45;(1.1)</text>
</g>
<!-- Node1_2 -->
<g id="node23" class="node">
<title>Node1_2</title>
<ellipse fill="#ffff00" stroke="#ffff00" cx="4201.04" cy="-366" rx="90.98" ry="18"/>
<text text-anchor="middle" x="4201.04" y="-362.3" font-family="Times,serif" font-size="14.00">आविष्ट&#45;(1.2)</text>
</g>
<!-- Node1_1&#45;&gt;Node1_2 -->
<g id="edge1" class="edge">
<title>Node1_1&#45;&gt;Node1_2</title>
<path fill="none" stroke="black" d="M4203.08,-307.27C4202.61,-320.58 4202.06,-336.19 4201.64,-347.82"/>
<polygon fill="black" stroke="black" points="4206.58,-307.32 4203.43,-297.2 4199.58,-307.07 4206.58,-307.32"/>
<text text-anchor="middle" x="4312.54" y="-318.8" font-family="Times,serif" font-size="14.00">तृतीया_तत्पुरुषः</text>
</g>
<!-- Node1_2&#45;&gt;Node1_3 -->
<g id="edge2" class="edge">
<title>Node1_2&#45;&gt;Node1_3</title>
<path fill="none" stroke="black" d="M4182.54,-392.36C4172.46,-406.18 4160.27,-422.9 4151.36,-435.11"/>
<polygon fill="black" stroke="black" points="4185.43,-394.34 4188.49,-384.2 4179.77,-390.22 4185.43,-394.34"/>
<text text-anchor="middle" x="4244.54" y="-405.8" font-family="Times,serif" font-size="14.00">बहुव्रीहिः</text>
</g>
<!-- Node2_1 -->
<g id="node24" class="node">
<title>Node2_1</title>
<ellipse fill="#93db70" stroke="#93db70" cx="2763.04" cy="-453" rx="87.99" ry="18"/>
<text text-anchor="middle" x="2763.04" y="-449.3" font-family="Times,serif" font-size="14.00">पुरीम्(2.1)</text>
</g>
<!-- Node3_1 -->
<g id="node25" class="node">
<title>Node3_1</title>
<ellipse fill="#ff99ff" stroke="#ff99ff" cx="2956.04" cy="-540" rx="87.99" ry="18"/>
<text text-anchor="middle" x="2956.04" y="-536.3" font-family="Times,serif" font-size="14.00">आलोक्य(3.1)</text>
</g>
<!-- Node2_1&#45;&gt;Node3_1 -->
<g id="edge4" class="edge">
<title>Node2_1&#45;&gt;Node3_1</title>
<path fill="none" stroke="black" d="M2807.79,-473.71C2842.21,-488.87 2889.1,-509.52 2920.86,-523.51"/>
<polygon fill="black" stroke="black" points="2809,-470.42 2798.44,-469.59 2806.18,-476.82 2809,-470.42"/>
<text text-anchor="middle" x="2900.04" y="-492.8" font-family="Times,serif" font-size="14.00">कर्म</text>
</g>
<!-- Node3_1&#45;&gt;Node32_1 -->
<g id="edge5" class="edge">
<title>Node3_1&#45;&gt;Node32_1</title>
<path fill="none" stroke="black" d="M3037.98,-551.72C3166.93,-568.58 3414.96,-601.01 3536.06,-616.85"/>
<polygon fill="black" stroke="black" points="3038.14,-548.21 3027.77,-550.38 3037.23,-555.15 3038.14,-548.21"/>
<text text-anchor="middle" x="3383.54" y="-579.8" font-family="Times,serif" font-size="14.00">पूर्वकालः</text>
</g>
<!-- Node4_1 -->
<g id="node27" class="node">
<title>Node4_1</title>
<ellipse fill="#ff99ff" stroke="#ff99ff" cx="2956.04" cy="-453" rx="87.99" ry="18"/>
<text text-anchor="middle" x="2956.04" y="-449.3" font-family="Times,serif" font-size="14.00">सर्वतः(4.1)</text>
</g>
<!-- Node4_1&#45;&gt;Node3_1 -->
<g id="edge6" class="edge">
<title>Node4_1&#45;&gt;Node3_1</title>
<path fill="none" stroke="black" d="M2956.04,-481.27C2956.04,-494.58 2956.04,-510.19 2956.04,-521.82"/>
<polygon fill="black" stroke="black" points="2959.54,-481.2 2956.04,-471.2 2952.54,-481.2 2959.54,-481.2"/>
<text text-anchor="middle" x="3034.54" y="-492.8" font-family="Times,serif" font-size="14.00">देशाधिकरणम्</text>
</g>
<!-- Node7_1 -->
<g id="node28" class="node">
<title>Node7_1</title>
<ellipse fill="#ffff00" stroke="#ffff00" cx="128.04" cy="-105" rx="128.08" ry="18"/>
<text text-anchor="middle" x="128.04" y="-101.3" font-family="Times,serif" font-size="14.00">वैदूर्यकृत&#45;(7.1)</text>
</g>
<!-- Node7_1&#45;&gt;Node7_2 -->
<g id="edge9" class="edge">
<title>Node7_1&#45;&gt;Node7_2</title>
<path fill="none" stroke="black" d="M143.38,-132.09C151.36,-145.65 160.89,-161.85 167.94,-173.82"/>
<polygon fill="black" stroke="black" points="146.24,-130.05 138.16,-123.2 140.21,-133.59 146.24,-130.05"/>
<text text-anchor="middle" x="227.54" y="-144.8" font-family="Times,serif" font-size="14.00">बहुव्रीहिः</text>
</g>
<!-- Node8_1 -->
<g id="node29" class="node">
<title>Node8_1</title>
<ellipse fill="#ffff00" stroke="#ffff00" cx="337.04" cy="-105" rx="63.09" ry="18"/>
<text text-anchor="middle" x="337.04" y="-101.3" font-family="Times,serif" font-size="14.00">मणि&#45;(8.1)</text>
</g>
<!-- Node8_1&#45;&gt;Node8_3 -->
<g id="edge11" class="edge">
<title>Node8_1&#45;&gt;Node8_3</title>
<path fill="none" stroke="black" d="M344.93,-132.52C348.15,-140.6 352.46,-149.15 358.04,-156 363.8,-163.08 371.36,-169.31 378.89,-174.49"/>
<polygon fill="black" stroke="black" points="348.2,-131.27 341.52,-123.05 341.61,-133.64 348.2,-131.27"/>
<text text-anchor="middle" x="422.54" y="-144.8" font-family="Times,serif" font-size="14.00">द्वन्द्वः</text>
</g>
<!-- Node8_2 -->
<g id="node30" class="node">
<title>Node8_2</title>
<ellipse fill="#ffff00" stroke="#ffff00" cx="509.04" cy="-105" rx="90.98" ry="18"/>
<text text-anchor="middle" x="509.04" y="-101.3" font-family="Times,serif" font-size="14.00">स्फटिक&#45;(8.2)</text>
</g>
<!-- Node8_2&#45;&gt;Node8_3 -->
<g id="edge12" class="edge">
<title>Node8_2&#45;&gt;Node8_3</title>
<path fill="none" stroke="black" d="M501.55,-132.53C498.18,-140.84 493.47,-149.52 487.04,-156 478.88,-164.22 468.46,-170.67 457.9,-175.68"/>
<polygon fill="black" stroke="black" points="504.85,-133.69 504.91,-123.1 498.26,-131.34 504.85,-133.69"/>
<text text-anchor="middle" x="562.54" y="-144.8" font-family="Times,serif" font-size="14.00">द्वन्द्वः</text>
</g>
<!-- Node9_1 -->
<g id="node31" class="node">
<title>Node9_1</title>
<ellipse fill="#ffff00" stroke="#ffff00" cx="718.04" cy="-18" rx="63.09" ry="18"/>
<text text-anchor="middle" x="718.04" y="-14.3" font-family="Times,serif" font-size="14.00">मणि&#45;(9.1)</text>
</g>
<!-- Node9_2 -->
<g id="node32" class="node">
<title>Node9_2</title>
<ellipse fill="#ffff00" stroke="#ffff00" cx="718.04" cy="-105" rx="100.18" ry="18"/>
<text text-anchor="middle" x="718.04" y="-101.3" font-family="Times,serif" font-size="14.00">कुट्टिम&#45;(9.2)</text>
</g>
<!-- Node9_1&#45;&gt;Node9_2 -->
<g id="edge14" class="edge">
<title>Node9_1&#45;&gt;Node9_2</title>
<path fill="none" stroke="black" d="M718.04,-46.27C718.04,-59.58 718.04,-75.19 718.04,-86.82"/>
<polygon fill="black" stroke="black" points="721.54,-46.2 718.04,-36.2 714.54,-46.2 721.54,-46.2"/>
<text text-anchor="middle" x="821.54" y="-57.8" font-family="Times,serif" font-size="14.00">षष्ठी_तत्पुरुषः</text>
</g>
<!-- Node9_2&#45;&gt;Node9_3 -->
<g id="edge15" class="edge">
<title>Node9_2&#45;&gt;Node9_3</title>
<path fill="none" stroke="black" d="M695.86,-130.17C683.03,-144.15 667.21,-161.39 655.68,-173.95"/>
<polygon fill="black" stroke="black" points="698.45,-132.53 702.63,-122.79 693.29,-127.79 698.45,-132.53"/>
<text text-anchor="middle" x="794.54" y="-144.8" font-family="Times,serif" font-size="14.00">तृतीया_तत्पुरुषः</text>
</g>
<!-- Node10_1 -->
<g id="node33" class="node">
<title>Node10_1</title>
<ellipse fill="#ffff00" stroke="#ffff00" cx="1063.04" cy="-18" rx="77.99" ry="18"/>
<text text-anchor="middle" x="1063.04" y="-14.3" font-family="Times,serif" font-size="14.00">तप्त&#45;(10.1)</text>
</g>
<!-- Node10_2 -->
<g id="node34" class="node">
<title>Node10_2</title>
<ellipse fill="#ffff00" stroke="#ffff00" cx="1063.04" cy="-105" rx="77.99" ry="18"/>
<text text-anchor="middle" x="1063.04" y="-101.3" font-family="Times,serif" font-size="14.00">हाटक&#45;(10.2)</text>
</g>
<!-- Node10_1&#45;&gt;Node10_2 -->
<g id="edge17" class="edge">
<title>Node10_1&#45;&gt;Node10_2</title>
<path fill="none" stroke="black" d="M1063.04,-46.27C1063.04,-59.58 1063.04,-75.19 1063.04,-86.82"/>
<polygon fill="black" stroke="black" points="1066.54,-46.2 1063.04,-36.2 1059.54,-46.2 1066.54,-46.2"/>
<text text-anchor="middle" x="1127.54" y="-57.8" font-family="Times,serif" font-size="14.00">कर्मधारयः</text>
</g>
<!-- Node10_2&#45;&gt;Node10_3 -->
<g id="edge18" class="edge">
<title>Node10_2&#45;&gt;Node10_3</title>
<path fill="none" stroke="black" d="M1063.04,-133.27C1063.04,-146.58 1063.04,-162.19 1063.04,-173.82"/>
<polygon fill="black" stroke="black" points="1066.54,-133.2 1063.04,-123.2 1059.54,-133.2 1066.54,-133.2"/>
<text text-anchor="middle" x="1173.54" y="-144.8" font-family="Times,serif" font-size="14.00">तृतीया_तत्पुरुषः</text>
</g>
<!-- Node11_1 -->
<g id="node35" class="node">
<title>Node11_1</title>
<ellipse fill="#ffff00" stroke="#ffff00" cx="1324.04" cy="-18" rx="77.99" ry="18"/>
<text text-anchor="middle" x="1324.04" y="-14.3" font-family="Times,serif" font-size="14.00">राजत&#45;(11.1)</text>
</g>
<!-- Node11_2 -->
<g id="node36" class="node">
<title>Node11_2</title>
<ellipse fill="#ffff00" stroke="#ffff00" cx="1324.04" cy="-105" rx="68.79" ry="18"/>
<text text-anchor="middle" x="1324.04" y="-101.3" font-family="Times,serif" font-size="14.00">अमल&#45;(11.2)</text>
</g>
<!-- Node11_1&#45;&gt;Node11_2 -->
<g id="edge20" class="edge">
<title>Node11_1&#45;&gt;Node11_2</title>
<path fill="none" stroke="black" d="M1324.04,-46.27C1324.04,-59.58 1324.04,-75.19 1324.04,-86.82"/>
<polygon fill="black" stroke="black" points="1327.54,-46.2 1324.04,-36.2 1320.54,-46.2 1327.54,-46.2"/>
<text text-anchor="middle" x="1388.54" y="-57.8" font-family="Times,serif" font-size="14.00">कर्मधारयः</text>
</g>
<!-- Node11_2&#45;&gt;Node11_3 -->
<g id="edge21" class="edge">
<title>Node11_2&#45;&gt;Node11_3</title>
<path fill="none" stroke="black" d="M1324.04,-133.27C1324.04,-146.58 1324.04,-162.19 1324.04,-173.82"/>
<polygon fill="black" stroke="black" points="1327.54,-133.2 1324.04,-123.2 1320.54,-133.2 1327.54,-133.2"/>
<text text-anchor="middle" x="1388.54" y="-144.8" font-family="Times,serif" font-size="14.00">कर्मधारयः</text>
</g>
<!-- Node12_1 -->
<g id="node37" class="node">
<title>Node12_1</title>
<ellipse fill="#ffff00" stroke="#ffff00" cx="1566.04" cy="-105" rx="133.78" ry="18"/>
<text text-anchor="middle" x="1566.04" y="-101.3" font-family="Times,serif" font-size="14.00">वैदूर्यकृत&#45;(12.1)</text>
</g>
<!-- Node12_1&#45;&gt;Node12_2 -->
<g id="edge23" class="edge">
<title>Node12_1&#45;&gt;Node12_2</title>
<path fill="none" stroke="black" d="M1566.04,-133.27C1566.04,-146.58 1566.04,-162.19 1566.04,-173.82"/>
<polygon fill="black" stroke="black" points="1569.54,-133.2 1566.04,-123.2 1562.54,-133.2 1569.54,-133.2"/>
<text text-anchor="middle" x="1637.54" y="-144.8" font-family="Times,serif" font-size="14.00">बहुव्रीहिः</text>
</g>
<!-- Node13_1 -->
<g id="node38" class="node">
<title>Node13_1</title>
<ellipse fill="#ffff00" stroke="#ffff00" cx="1845.04" cy="-105" rx="105.88" ry="18"/>
<text text-anchor="middle" x="1845.04" y="-101.3" font-family="Times,serif" font-size="14.00">स्फाटिक&#45;(13.1)</text>
</g>
<!-- Node13_1&#45;&gt;Node13_2 -->
<g id="edge25" class="edge">
<title>Node13_1&#45;&gt;Node13_2</title>
<path fill="none" stroke="black" d="M1845.04,-133.27C1845.04,-146.58 1845.04,-162.19 1845.04,-173.82"/>
<polygon fill="black" stroke="black" points="1848.54,-133.2 1845.04,-123.2 1841.54,-133.2 1848.54,-133.2"/>
<text text-anchor="middle" x="1909.54" y="-144.8" font-family="Times,serif" font-size="14.00">कर्मधारयः</text>
</g>
<!-- Node14_1 -->
<g id="node39" class="node">
<title>Node14_1</title>
<ellipse fill="#ffff00" stroke="#ffff00" cx="2114.04" cy="-18" rx="77.99" ry="18"/>
<text text-anchor="middle" x="2114.04" y="-14.3" font-family="Times,serif" font-size="14.00">चारु&#45;(14.1)</text>
</g>
<!-- Node14_2 -->
<g id="node40" class="node">
<title>Node14_2</title>
<ellipse fill="#ffff00" stroke="#ffff00" cx="2114.04" cy="-105" rx="87.18" ry="18"/>
<text text-anchor="middle" x="2114.04" y="-101.3" font-family="Times,serif" font-size="14.00">संजवन&#45;(14.2)</text>
</g>
<!-- Node14_1&#45;&gt;Node14_2 -->
<g id="edge27" class="edge">
<title>Node14_1&#45;&gt;Node14_2</title>
<path fill="none" stroke="black" d="M2114.04,-46.27C2114.04,-59.58 2114.04,-75.19 2114.04,-86.82"/>
<polygon fill="black" stroke="black" points="2117.54,-46.2 2114.04,-36.2 2110.54,-46.2 2117.54,-46.2"/>
<text text-anchor="middle" x="2178.54" y="-57.8" font-family="Times,serif" font-size="14.00">कर्मधारयः</text>
</g>
<!-- Node14_2&#45;&gt;Node14_3 -->
<g id="edge28" class="edge">
<title>Node14_2&#45;&gt;Node14_3</title>
<path fill="none" stroke="black" d="M2114.36,-133.27C2114.52,-146.58 2114.7,-162.19 2114.84,-173.82"/>
<polygon fill="black" stroke="black" points="2117.86,-133.16 2114.24,-123.2 2110.86,-133.24 2117.86,-133.16"/>
<text text-anchor="middle" x="2224.54" y="-144.8" font-family="Times,serif" font-size="14.00">तृतीया_तत्पुरुषः</text>
</g>
<!-- Node15_1 -->
<g id="node41" class="node">
<title>Node15_1</title>
<ellipse fill="#93db70" stroke="#93db70" cx="3384.04" cy="-105" rx="65.79" ry="18"/>
<text text-anchor="middle" x="3384.04" y="-101.3" font-family="Times,serif" font-size="14.00">खम्(15.1)</text>
</g>
<!-- Node17_1 -->
<g id="node42" class="node">
<title>Node17_1</title>
<ellipse fill="#40e0d0" stroke="#40e0d0" cx="3454.04" cy="-192" rx="121.58" ry="18"/>
<text text-anchor="middle" x="3454.04" y="-188.3" font-family="Times,serif" font-size="14.00">उत्पतितैः(17.1)</text>
</g>
<!-- Node15_1&#45;&gt;Node17_1 -->
<g id="edge30" class="edge">
<title>Node15_1&#45;&gt;Node17_1</title>
<path fill="none" stroke="black" d="M3404.26,-130.56C3415.72,-144.47 3429.75,-161.51 3440,-173.95"/>
<polygon fill="black" stroke="black" points="3406.93,-128.29 3397.87,-122.79 3401.52,-132.74 3406.93,-128.29"/>
<text text-anchor="middle" x="3452.04" y="-144.8" font-family="Times,serif" font-size="14.00">कर्म</text>
</g>
<!-- Node17_1&#45;&gt;Node6_1 -->
<g id="edge32" class="edge">
<title>Node17_1&#45;&gt;Node6_1</title>
<path fill="none" stroke="black" d="M3362.24,-206.73C3278.91,-218.58 3152.53,-235 3042.04,-243 2633.8,-272.55 2145.53,-277.35 1941.77,-277.99"/>
<polygon fill="black" stroke="black" points="3362.78,-210.19 3372.19,-205.31 3361.79,-203.26 3362.78,-210.19"/>
<text text-anchor="middle" x="3239.04" y="-231.8" font-family="Times,serif" font-size="14.00">उपमानम्</text>
</g>
<!-- Node16_1 -->
<g id="node43" class="node">
<title>Node16_1</title>
<ellipse fill="#ff99ff" stroke="#ff99ff" cx="3524.04" cy="-105" rx="56.59" ry="18"/>
<text text-anchor="middle" x="3524.04" y="-101.3" font-family="Times,serif" font-size="14.00">इव(16.1)</text>
</g>
<!-- Node16_1&#45;&gt;Node17_1 -->
<g id="edge31" class="edge">
<title>Node16_1&#45;&gt;Node17_1</title>
<path fill="none" stroke="black" d="M3505.1,-130.91C3498.82,-139 3491.73,-147.96 3485.04,-156 3480.06,-161.99 3474.45,-168.41 3469.39,-174.1"/>
<polygon fill="black" stroke="black" points="3507.96,-132.93 3511.3,-122.87 3502.42,-128.66 3507.96,-132.93"/>
<text text-anchor="middle" x="3586.04" y="-144.8" font-family="Times,serif" font-size="14.00">उपमान_द्योतकः</text>
</g>
<!-- Node19_1 -->
<g id="node44" class="node">
<title>Node19_1</title>
<ellipse fill="#ffff00" stroke="#ffff00" cx="2358.04" cy="-18" rx="105.88" ry="18"/>
<text text-anchor="middle" x="2358.04" y="-14.3" font-family="Times,serif" font-size="14.00">क्रौञ्च&#45;(19.1)</text>
</g>
<!-- Node19_2 -->
<g id="node45" class="node">
<title>Node19_2</title>
<ellipse fill="#ffff00" stroke="#ffff00" cx="2358.04" cy="-105" rx="96.68" ry="18"/>
<text text-anchor="middle" x="2358.04" y="-101.3" font-family="Times,serif" font-size="14.00">बर्हिण&#45;(19.2)</text>
</g>
<!-- Node19_1&#45;&gt;Node19_2 -->
<g id="edge34" class="edge">
<title>Node19_1&#45;&gt;Node19_2</title>
<path fill="none" stroke="black" d="M2358.04,-46.27C2358.04,-59.58 2358.04,-75.19 2358.04,-86.82"/>
<polygon fill="black" stroke="black" points="2361.54,-46.2 2358.04,-36.2 2354.54,-46.2 2361.54,-46.2"/>
<text text-anchor="middle" x="2422.54" y="-57.8" font-family="Times,serif" font-size="14.00">द्वन्द्वः</text>
</g>
<!-- Node19_2&#45;&gt;Node19_3 -->
<g id="edge35" class="edge">
<title>Node19_2&#45;&gt;Node19_3</title>
<path fill="none" stroke="black" d="M2357.72,-133.27C2357.56,-146.58 2357.38,-162.19 2357.24,-173.82"/>
<polygon fill="black" stroke="black" points="2361.22,-133.24 2357.84,-123.2 2354.22,-133.16 2361.22,-133.24"/>
<text text-anchor="middle" x="2428.54" y="-144.8" font-family="Times,serif" font-size="14.00">बहुव्रीहिः</text>
</g>
<!-- Node20_1 -->
<g id="node46" class="node">
<title>Node20_1</title>
<ellipse fill="#ffff00" stroke="#ffff00" cx="2627.04" cy="-105" rx="96.68" ry="18"/>
<text text-anchor="middle" x="2627.04" y="-101.3" font-family="Times,serif" font-size="14.00">राजहंस&#45;(20.1)</text>
</g>
<!-- Node20_1&#45;&gt;Node20_2 -->
<g id="edge37" class="edge">
<title>Node20_1&#45;&gt;Node20_2</title>
<path fill="none" stroke="black" d="M2627.04,-133.27C2627.04,-146.58 2627.04,-162.19 2627.04,-173.82"/>
<polygon fill="black" stroke="black" points="2630.54,-133.2 2627.04,-123.2 2623.54,-133.2 2630.54,-133.2"/>
<text text-anchor="middle" x="2737.54" y="-144.8" font-family="Times,serif" font-size="14.00">तृतीया_तत्पुरुषः</text>
</g>
<!-- Node21_1 -->
<g id="node47" class="node">
<title>Node21_1</title>
<ellipse fill="#ffff00" stroke="#ffff00" cx="2888.04" cy="-105" rx="124.28" ry="18"/>
<text text-anchor="middle" x="2888.04" y="-101.3" font-family="Times,serif" font-size="14.00">तूर्याभरण&#45;(21.1)</text>
</g>
<!-- Node21_1&#45;&gt;Node21_2 -->
<g id="edge39" class="edge">
<title>Node21_1&#45;&gt;Node21_2</title>
<path fill="none" stroke="black" d="M2888.04,-133.27C2888.04,-146.58 2888.04,-162.19 2888.04,-173.82"/>
<polygon fill="black" stroke="black" points="2891.54,-133.2 2888.04,-123.2 2884.54,-133.2 2891.54,-133.2"/>
<text text-anchor="middle" x="2952.54" y="-144.8" font-family="Times,serif" font-size="14.00">कर्मधारयः</text>
</g>
<!-- Node22_1 -->
<g id="node48" class="node">
<title>Node22_1</title>
<ellipse fill="#ff99ff" stroke="#ff99ff" cx="3425.04" cy="-279" rx="93.68" ry="18"/>
<text text-anchor="middle" x="3425.04" y="-275.3" font-family="Times,serif" font-size="14.00">सर्वतः(22.1)</text>
</g>
<!-- Node22_1&#45;&gt;Node23_1 -->
<g id="edge41" class="edge">
<title>Node22_1&#45;&gt;Node23_1</title>
<path fill="none" stroke="black" d="M3418.62,-307.27C3415.49,-320.58 3411.82,-336.19 3409.08,-347.82"/>
<polygon fill="black" stroke="black" points="3422.11,-307.74 3420.99,-297.2 3415.29,-306.13 3422.11,-307.74"/>
<text text-anchor="middle" x="3494.54" y="-318.8" font-family="Times,serif" font-size="14.00">देशाधिकरणम्</text>
</g>
<!-- Node24_1 -->
<g id="node49" class="node">
<title>Node24_1</title>
<ellipse fill="#ffff00" stroke="#ffff00" cx="3680.04" cy="-279" rx="124.28" ry="18"/>
<text text-anchor="middle" x="3680.04" y="-275.3" font-family="Times,serif" font-size="14.00">वस्वोकसार&#45;(24.1)</text>
</g>
<!-- Node24_1&#45;&gt;Node24_2 -->
<g id="edge43" class="edge">
<title>Node24_1&#45;&gt;Node24_2</title>
<path fill="none" stroke="black" d="M3681.32,-307.27C3681.95,-320.58 3682.68,-336.19 3683.23,-347.82"/>
<polygon fill="black" stroke="black" points="3684.81,-307.03 3680.85,-297.2 3677.82,-307.35 3684.81,-307.03"/>
<text text-anchor="middle" x="3746.54" y="-318.8" font-family="Times,serif" font-size="14.00">कर्मधारयः</text>
</g>
<!-- Node25_1&#45;&gt;Node32_1 -->
<g id="edge45" class="edge">
<title>Node25_1&#45;&gt;Node32_1</title>
<path fill="none" stroke="black" d="M3528.28,-565.96C3535.65,-574.36 3544.32,-583.49 3553.04,-591 3560.89,-597.76 3570.13,-604.28 3578.67,-609.82"/>
<polygon fill="black" stroke="black" points="3530.81,-563.54 3521.65,-558.22 3525.49,-568.09 3530.81,-563.54"/>
<text text-anchor="middle" x="3617.54" y="-579.8" font-family="Times,serif" font-size="14.00">पूर्वकालः</text>
</g>
<!-- Node27_1 -->
<g id="node51" class="node">
<title>Node27_1</title>
<ellipse fill="#ff99ff" stroke="#ff99ff" cx="3704.04" cy="-540" rx="65.79" ry="18"/>
<text text-anchor="middle" x="3704.04" y="-536.3" font-family="Times,serif" font-size="14.00">ततः(27.1)</text>
</g>
<!-- Node27_1&#45;&gt;Node32_1 -->
<g id="edge47" class="edge">
<title>Node27_1&#45;&gt;Node32_1</title>
<path fill="none" stroke="black" d="M3696.51,-567.49C3693.14,-575.8 3688.44,-584.49 3682.04,-591 3673.48,-599.7 3662.36,-606.46 3651.28,-611.62"/>
<polygon fill="black" stroke="black" points="3699.81,-568.66 3699.88,-558.07 3693.22,-566.31 3699.81,-568.66"/>
<text text-anchor="middle" x="3770.54" y="-579.8" font-family="Times,serif" font-size="14.00">कालाधिकरणम्</text>
</g>
<!-- Node28_1 -->
<g id="node52" class="node">
<title>Node28_1</title>
<ellipse fill="#93db70" stroke="#93db70" cx="3888.04" cy="-279" rx="65.79" ry="18"/>
<text text-anchor="middle" x="3888.04" y="-275.3" font-family="Times,serif" font-size="14.00">खम्(28.1)</text>
</g>
<!-- Node30_1 -->
<g id="node53" class="node">
<title>Node30_1</title>
<ellipse fill="#93db70" stroke="#93db70" cx="3954.04" cy="-366" rx="130.78" ry="18"/>
<text text-anchor="middle" x="3954.04" y="-362.3" font-family="Times,serif" font-size="14.00">उत्पतिताम्(30.1)</text>
</g>
<!-- Node28_1&#45;&gt;Node30_1 -->
<g id="edge48" class="edge">
<title>Node28_1&#45;&gt;Node30_1</title>
<path fill="none" stroke="black" d="M3904.94,-305.33C3910.51,-313.36 3916.87,-322.18 3923.04,-330 3927.76,-335.99 3933.2,-342.3 3938.18,-347.89"/>
<polygon fill="black" stroke="black" points="3907.78,-303.29 3899.24,-297.01 3902,-307.24 3907.78,-303.29"/>
<text text-anchor="middle" x="3952.04" y="-318.8" font-family="Times,serif" font-size="14.00">कर्म</text>
</g>
<!-- Node30_1&#45;&gt;Node31_1 -->
<g id="edge50" class="edge">
<title>Node30_1&#45;&gt;Node31_1</title>
<path fill="none" stroke="black" d="M3881.62,-384.18C3837.39,-394.39 3779.61,-407.2 3728.04,-417 3680.54,-426.02 3626.98,-434.58 3584.6,-440.97"/>
<polygon fill="black" stroke="black" points="3882.46,-387.58 3891.41,-381.91 3880.88,-380.76 3882.46,-387.58"/>
<text text-anchor="middle" x="3846.04" y="-405.8" font-family="Times,serif" font-size="14.00">उपमानम्</text>
</g>
<!-- Node29_1 -->
<g id="node54" class="node">
<title>Node29_1</title>
<ellipse fill="#ff99ff" stroke="#ff99ff" cx="4028.04" cy="-279" rx="56.59" ry="18"/>
<text text-anchor="middle" x="4028.04" y="-275.3" font-family="Times,serif" font-size="14.00">इव(29.1)</text>
</g>
<!-- Node29_1&#45;&gt;Node30_1 -->
<g id="edge49" class="edge">
<title>Node29_1&#45;&gt;Node30_1</title>
<path fill="none" stroke="black" d="M4006.66,-304.56C3994.55,-318.47 3979.71,-335.51 3968.88,-347.95"/>
<polygon fill="black" stroke="black" points="4009.49,-306.63 4013.42,-296.79 4004.21,-302.04 4009.49,-306.63"/>
<text text-anchor="middle" x="4084.04" y="-318.8" font-family="Times,serif" font-size="14.00">उपमान_द्योतकः</text>
</g>
</g>
</svg>
