<svg xmlns="http://www.w3.org/2000/svg" xmlns:xlink="http://www.w3.org/1999/xlink" width="1152" height="566pt" viewBox="0 0 864.45 566"><g id="graph0" class="graph" transform="scale(1 1) rotate(0) translate(4 562)"><title>G</title><polygon fill="#fffacd" stroke="transparent" points="-4 4 -4 -562 860.45 -562 860.45 4 -4 4"/><g id="clust1" class="cluster"><title>cluster_1</title><polygon fill="#fffacd" stroke="#000" points="8 -340 8 -479 157 -479 157 -340 8 -340"/></g><g id="clust2" class="cluster"><title>cluster_2</title><polygon fill="#fffacd" stroke="#000" points="206 -79 206 -218 436 -218 436 -79 206 -79"/></g><g id="clust3" class="cluster"><title>cluster_3</title><polygon fill="#fffacd" stroke="#000" points="337 -340 337 -479 559 -479 559 -340 337 -340"/></g><g id="node1" class="node"><title>Node1_1</title><ellipse cx="67" cy="-366" fill="#00bfff" stroke="#00bfff" rx="50.89" ry="18"/><text x="67" y="-362.3" font-family="Times,serif" font-size="14" text-anchor="middle">सः(1.1)</text></g><g id="node2" class="node"><title>Node5_2</title><ellipse cx="89" cy="-453" fill="#00bfff" stroke="#00bfff" rx="59.59" ry="18"/><text x="89" y="-449.3" font-family="Times,serif" font-size="14" text-anchor="middle">बलः(5.2)</text></g><g id="edge1" class="edge"><title>Node1_1-&gt;Node5_2</title><path fill="none" stroke="#000" d="M60.96,-394.2C60.32,-401.73 60.62,-409.81 63,-417 65.19,-423.61 69.16,-429.99 73.35,-435.45"/><polygon fill="#000" stroke="#000" points="64.46 -394.45 62.37 -384.06 57.53 -393.48 64.46 -394.45"/><text x="120.5" y="-405.8" font-family="Times,serif" font-size="14" text-anchor="middle">विशेषणम्</text></g><g id="node10" class="node"><title>Node11_1</title><ellipse cx="604" cy="-540" fill="#ff1975" stroke="#ff1975" rx="84.49" ry="18"/><text x="604" y="-536.3" font-family="Times,serif" font-size="14" text-anchor="middle">ददर्श(11.1)</text></g><g id="edge7" class="edge"><title>Node5_2-&gt;Node11_1</title><path fill="none" stroke="#000" d="M150.31,-464.12C248.29,-480.29 439.28,-511.81 539.34,-528.33"/><polygon fill="#000" stroke="#000" points="150.7 -460.64 140.26 -462.46 149.56 -467.54 150.7 -460.64"/><text x="413" y="-492.8" font-family="Times,serif" font-size="14" text-anchor="middle">कर्ता</text></g><g id="node3" class="node"><title>Node3_2</title><ellipse cx="321" cy="-105" fill="#93db70" stroke="#93db70" rx="106.68" ry="18"/><text x="321" y="-101.3" font-family="Times,serif" font-size="14" text-anchor="middle">आधृष्यम्(3.2)</text></g><g id="node4" class="node"><title>Node2_1</title><ellipse cx="326" cy="-192" fill="#93db70" stroke="#93db70" rx="87.99" ry="18"/><text x="326" y="-188.3" font-family="Times,serif" font-size="14" text-anchor="middle">सागरम्(2.1)</text></g><g id="edge4" class="edge"><title>Node3_2-&gt;Node2_1</title><path fill="none" stroke="#000" d="M322.6,-133.27C323.39,-146.58 324.31,-162.19 324.99,-173.82"/><polygon fill="#000" stroke="#000" points="326.09 -132.98 322.01 -123.2 319.11 -133.39 326.09 -132.98"/><text x="380.5" y="-144.8" font-family="Times,serif" font-size="14" text-anchor="middle">विशेषणम्</text></g><g id="node7" class="node"><title>Node4_1</title><ellipse cx="335" cy="-279" fill="#f9f" stroke="#f9f" rx="115.88" ry="18"/><text x="335" y="-275.3" font-family="Times,serif" font-size="14" text-anchor="middle">अतिक्रम्य(4.1)</text></g><g id="edge2" class="edge"><title>Node2_1-&gt;Node4_1</title><path fill="none" stroke="#000" d="M328.89,-220.27C330.3,-233.58 331.95,-249.19 333.18,-260.82"/><polygon fill="#000" stroke="#000" points="332.35 -219.78 327.82 -210.2 325.39 -220.51 332.35 -219.78"/><text x="360" y="-231.8" font-family="Times,serif" font-size="14" text-anchor="middle">कर्म</text></g><g id="node5" class="node"><title>Node9_1</title><ellipse cx="436" cy="-366" fill="#00bfff" stroke="#00bfff" rx="87.99" ry="18"/><text x="436" y="-362.3" font-family="Times,serif" font-size="14" text-anchor="middle">स्थितः(9.1)</text></g><g id="node6" class="node"><title>Node10_1</title><ellipse cx="448" cy="-453" fill="#00bfff" stroke="#00bfff" rx="102.88" ry="18"/><text x="448" y="-449.3" font-family="Times,serif" font-size="14" text-anchor="middle">स्वस्थः(10.1)</text></g><g id="edge12" class="edge"><title>Node9_1-&gt;Node10_1</title><path fill="none" stroke="#000" d="M439.85,-394.27C441.73,-407.58 443.93,-423.19 445.58,-434.82"/><polygon fill="#000" stroke="#000" points="443.29 -393.61 438.43 -384.2 436.36 -394.59 443.29 -393.61"/><text x="499.5" y="-405.8" font-family="Times,serif" font-size="14" text-anchor="middle">विशेषणम्</text></g><g id="edge13" class="edge"><title>Node10_1-&gt;Node11_1</title><path fill="none" stroke="#000" d="M486.96,-475.23C514.2,-490.07 550.01,-509.58 574.81,-523.09"/><polygon fill="#000" stroke="#000" points="488.53 -472.1 478.08 -470.39 485.18 -478.25 488.53 -472.1"/><text x="571" y="-492.8" font-family="Times,serif" font-size="14" text-anchor="middle">कर्ता</text></g><g id="edge5" class="edge"><title>Node4_1-&gt;Node9_1</title><path fill="none" stroke="#000" d="M341.41,-306.83C344.43,-315.06 348.79,-323.62 355,-330 363.76,-339 375.22,-345.83 386.75,-350.95"/><polygon fill="#000" stroke="#000" points="344.69 -305.61 338.34 -297.13 338.02 -307.72 344.69 -305.61"/><text x="419.5" y="-318.8" font-family="Times,serif" font-size="14" text-anchor="middle">पूर्वकालः</text></g><g id="node8" class="node"><title>Node3_1</title><ellipse cx="321" cy="-18" fill="#ff0" stroke="#ff0" rx="63.09" ry="18"/><text x="321" y="-14.3" font-family="Times,serif" font-size="14" text-anchor="middle">अन्-(3.1)</text></g><g id="edge3" class="edge"><title>Node3_1-&gt;Node3_2</title><path fill="none" stroke="#000" d="M321,-46.27C321,-59.58 321,-75.19 321,-86.82"/><polygon fill="#000" stroke="#000" points="324.5 -46.2 321 -36.2 317.5 -46.2 324.5 -46.2"/><text x="410" y="-57.8" font-family="Times,serif" font-size="14" text-anchor="middle">नञ्_तत्पुरुषः</text></g><g id="node9" class="node"><title>Node5_1</title><ellipse cx="228" cy="-366" fill="#ff0" stroke="#ff0" rx="63.09" ry="18"/><text x="228" y="-362.3" font-family="Times,serif" font-size="14" text-anchor="middle">महा-(5.1)</text></g><g id="edge6" class="edge"><title>Node5_1-&gt;Node5_2</title><path fill="none" stroke="#000" d="M207.63,-391.24C199.17,-400.22 188.8,-409.92 178,-417 163.42,-426.55 145.83,-434.16 130.15,-439.81"/><polygon fill="#000" stroke="#000" points="210.42 -393.38 214.55 -383.63 205.23 -388.68 210.42 -393.38"/><text x="261.5" y="-405.8" font-family="Times,serif" font-size="14" text-anchor="middle">कर्मधारयः</text></g><g id="node11" class="node"><title>Node6_1</title><ellipse cx="532" cy="-105" fill="#ff0" stroke="#ff0" rx="72.29" ry="18"/><text x="532" y="-101.3" font-family="Times,serif" font-size="14" text-anchor="middle">त्रि-(6.1)</text></g><g id="node12" class="node"><title>Node6_2</title><ellipse cx="532" cy="-192" fill="#87ceeb" stroke="#87ceeb" rx="87.99" ry="18"/><text x="532" y="-188.3" font-family="Times,serif" font-size="14" text-anchor="middle">कूटस्य(6.2)</text></g><g id="edge8" class="edge"><title>Node6_1-&gt;Node6_2</title><path fill="none" stroke="#000" d="M532,-133.27C532,-146.58 532,-162.19 532,-173.82"/><polygon fill="#000" stroke="#000" points="535.5 -133.2 532 -123.2 528.5 -133.2 535.5 -133.2"/><text x="603.5" y="-144.8" font-family="Times,serif" font-size="14" text-anchor="middle">बहुव्रीहिः</text></g><g id="node13" class="node"><title>Node7_1</title><ellipse cx="530" cy="-279" fill="#c6e2eb" stroke="#c6e2eb" rx="59.59" ry="18"/><text x="530" y="-275.3" font-family="Times,serif" font-size="14" text-anchor="middle">तटे(7.1)</text></g><g id="edge9" class="edge"><title>Node6_2-&gt;Node7_1</title><path fill="none" stroke="#000" d="M531.36,-220.27C531.05,-233.58 530.68,-249.19 530.4,-260.82"/><polygon fill="#000" stroke="#000" points="534.86 -220.28 531.6 -210.2 527.86 -220.12 534.86 -220.28"/><text x="624" y="-231.8" font-family="Times,serif" font-size="14" text-anchor="middle">षष्ठीसम्बन्धः</text></g><g id="edge10" class="edge"><title>Node7_1-&gt;Node9_1</title><path fill="none" stroke="#000" d="M511.4,-304.88C504.52,-313.32 496.35,-322.5 488,-330 480.47,-336.77 471.55,-343.24 463.24,-348.73"/><polygon fill="#000" stroke="#000" points="514.35 -306.8 517.82 -296.79 508.86 -302.45 514.35 -306.8"/><text x="579.5" y="-318.8" font-family="Times,serif" font-size="14" text-anchor="middle">देशाधिकरणम्</text></g><g id="node14" class="node"><title>Node8_1</title><ellipse cx="656" cy="-453" fill="#93db70" stroke="#93db70" rx="87.99" ry="18"/><text x="656" y="-449.3" font-family="Times,serif" font-size="14" text-anchor="middle">लङ्कां(8.1)</text></g><g id="edge11" class="edge"><title>Node8_1-&gt;Node11_1</title><path fill="none" stroke="#000" d="M640.24,-479.75C631.84,-493.49 621.73,-510.01 614.33,-522.11"/><polygon fill="#000" stroke="#000" points="643.24 -481.56 645.48 -471.2 637.27 -477.9 643.24 -481.56"/><text x="662" y="-492.8" font-family="Times,serif" font-size="14" text-anchor="middle">कर्म</text></g><g id="node15" class="node"><title>Node12_1</title><ellipse cx="809" cy="-453" fill="#f9f" stroke="#f9f" rx="47.39" ry="18"/><text x="809" y="-449.3" font-family="Times,serif" font-size="14" text-anchor="middle">ह(12.1)</text></g><g id="edge14" class="edge"><title>Node12_1-&gt;Node11_1</title><path fill="none" stroke="#000" d="M770.17,-471.41C764.42,-473.97 758.56,-476.56 753,-479 727.29,-490.28 720.99,-493.4 695,-504 678.38,-510.77 659.93,-517.94 644,-524.01"/><polygon fill="#000" stroke="#000" points="771.97 -474.44 779.68 -467.18 769.12 -468.05 771.97 -474.44"/><text x="786.5" y="-492.8" font-family="Times,serif" font-size="14" text-anchor="middle">सम्बन्धः</text></g></g></svg>