<svg xmlns="http://www.w3.org/2000/svg" xmlns:xlink="http://www.w3.org/1999/xlink" width="1292pt" height="305pt" viewBox="0 0 1292.48 305"><g id="graph0" class="graph" transform="scale(1 1) rotate(0) translate(4 301)"><title>G</title><polygon fill="#fffacd" stroke="transparent" points="-4 4 -4 -301 1288.48 -301 1288.48 4 -4 4"/><g id="clust1" class="cluster"><title>cluster_1</title><polygon fill="#fffacd" stroke="#000" points="333.84 -79 333.84 -218 655.84 -218 655.84 -79 333.84 -79"/></g><g id="node1" class="node"><title>Node12_2</title><ellipse cx="494.84" cy="-105" fill="#00bfff" stroke="#00bfff" rx="93.68" ry="18"/><text x="494.84" y="-101.3" font-family="Times,serif" font-size="14" text-anchor="middle">दर्शनः(12.2)</text></g><g id="node2" class="node"><title>Node9_1</title><ellipse cx="494.84" cy="-192" fill="#00bfff" stroke="#00bfff" rx="152.97" ry="18"/><text x="494.84" y="-188.3" font-family="Times,serif" font-size="14" text-anchor="middle">वृषदंशकमात्रः(9.1)</text></g><g id="edge11" class="edge"><title>Node12_2-&gt;Node9_1</title><path fill="none" stroke="#000" d="M494.84,-133.27C494.84,-146.58 494.84,-162.19 494.84,-173.82"/><polygon fill="#000" stroke="#000" points="498.34 -133.2 494.84 -123.2 491.34 -133.2 498.34 -133.2"/><text x="552.34" y="-144.8" font-family="Times,serif" font-size="14" text-anchor="middle">विशेषणम्</text></g><g id="node11" class="node"><title>Node11_1</title><ellipse cx="267.84" cy="-279" fill="#ff1975" stroke="#ff1975" rx="75.29" ry="18"/><text x="267.84" y="-275.3" font-family="Times,serif" font-size="14" text-anchor="middle">बभूव(11.1)</text></g><g id="edge8" class="edge"><title>Node9_1-&gt;Node11_1</title><path fill="none" stroke="#000" d="M453.23,-214.01C433.42,-223.56 409.21,-234.58 386.84,-243 364.27,-251.49 338.67,-259.25 317.01,-265.3"/><polygon fill="#000" stroke="#000" points="454.83 -217.13 462.29 -209.6 451.77 -210.83 454.83 -217.13"/><text x="541.34" y="-231.8" font-family="Times,serif" font-size="14" text-anchor="middle">कर्तृसमानाधिकरणम्</text></g><g id="node3" class="node"><title>Node1_1</title><ellipse cx="697.84" cy="-18" fill="#c6e2eb" stroke="#c6e2eb" rx="87.99" ry="18"/><text x="697.84" y="-14.3" font-family="Times,serif" font-size="14" text-anchor="middle">सूर्ये(1.1)</text></g><g id="node4" class="node"><title>Node3_1</title><ellipse cx="798.84" cy="-105" fill="#93db70" stroke="#93db70" rx="87.99" ry="18"/><text x="798.84" y="-101.3" font-family="Times,serif" font-size="14" text-anchor="middle">अस्तम्(3.1)</text></g><g id="edge1" class="edge"><title>Node1_1-&gt;Node3_1</title><path fill="none" stroke="#000" d="M717.63,-43.7C725.07,-52.21 733.89,-61.49 742.84,-69 751.01,-75.85 760.63,-82.35 769.58,-87.84"/><polygon fill="#000" stroke="#000" points="720.11 -41.21 710.98 -35.85 714.78 -45.74 720.11 -41.21"/><text x="778.84" y="-57.8" font-family="Times,serif" font-size="14" text-anchor="middle">कर्ता</text></g><g id="node6" class="node"><title>Node4_1</title><ellipse cx="798.84" cy="-192" fill="#c6e2eb" stroke="#c6e2eb" rx="59.59" ry="18"/><text x="798.84" y="-188.3" font-family="Times,serif" font-size="14" text-anchor="middle">गते(4.1)</text></g><g id="edge3" class="edge"><title>Node3_1-&gt;Node4_1</title><path fill="none" stroke="#000" d="M798.84,-133.27C798.84,-146.58 798.84,-162.19 798.84,-173.82"/><polygon fill="#000" stroke="#000" points="802.34 -133.2 798.84 -123.2 795.34 -133.2 802.34 -133.2"/><text x="827.84" y="-144.8" font-family="Times,serif" font-size="14" text-anchor="middle">कर्म</text></g><g id="node5" class="node"><title>Node2_1</title><ellipse cx="844.84" cy="-18" fill="#f9f" stroke="#f9f" rx="41.69" ry="18"/><text x="844.84" y="-14.3" font-family="Times,serif" font-size="14" text-anchor="middle">च(2.1)</text></g><g id="edge2" class="edge"><title>Node2_1-&gt;Node3_1</title><path fill="none" stroke="#000" d="M830.91,-44.74C823.51,-58.42 814.61,-74.86 808.07,-86.95"/><polygon fill="#000" stroke="#000" points="834.07 -46.25 835.75 -35.79 827.92 -42.92 834.07 -46.25"/><text x="881.34" y="-57.8" font-family="Times,serif" font-size="14" text-anchor="middle">सम्बन्धः</text></g><g id="node7" class="node"><title>Node7_1</title><ellipse cx="1021.84" cy="-279" fill="#ff1975" stroke="#ff1975" rx="124.58" ry="18"/><text x="1021.84" y="-275.3" font-family="Times,serif" font-size="14" text-anchor="middle">सङ्क्षिप्य(7.1)</text></g><g id="edge4" class="edge"><title>Node4_1-&gt;Node7_1</title><path fill="none" stroke="#000" d="M803.61,-220.08C806.41,-228.58 810.83,-237.23 817.84,-243 833.41,-255.82 874.55,-264.13 915.84,-269.41"/><polygon fill="#000" stroke="#000" points="806.98 -219.13 801.02 -210.37 800.22 -220.93 806.98 -219.13"/><text x="917.84" y="-231.8" font-family="Times,serif" font-size="14" text-anchor="middle">भावलक्षणसप्तमी</text></g><g id="node8" class="node"><title>Node5_1</title><ellipse cx="1021.84" cy="-192" fill="#c6e2eb" stroke="#c6e2eb" rx="87.99" ry="18"/><text x="1021.84" y="-188.3" font-family="Times,serif" font-size="14" text-anchor="middle">रात्रौ(5.1)</text></g><g id="edge5" class="edge"><title>Node5_1-&gt;Node7_1</title><path fill="none" stroke="#000" d="M1021.84,-220.27C1021.84,-233.58 1021.84,-249.19 1021.84,-260.82"/><polygon fill="#000" stroke="#000" points="1025.34 -220.2 1021.84 -210.2 1018.34 -220.2 1025.34 -220.2"/><text x="1100.34" y="-231.8" font-family="Times,serif" font-size="14" text-anchor="middle">कालाधिकरणम्</text></g><g id="node9" class="node"><title>Node6_1</title><ellipse cx="1205.84" cy="-192" fill="#93db70" stroke="#93db70" rx="78.79" ry="18"/><text x="1205.84" y="-188.3" font-family="Times,serif" font-size="14" text-anchor="middle">देहम्(6.1)</text></g><g id="edge6" class="edge"><title>Node6_1-&gt;Node7_1</title><path fill="none" stroke="#000" d="M1198.69,-219.99C1195.2,-228.48 1190.12,-237.15 1182.84,-243 1170.86,-252.63 1140.55,-260.34 1109.42,-266.05"/><polygon fill="#000" stroke="#000" points="1202.08 -220.89 1202.1 -210.29 1195.48 -218.57 1202.08 -220.89"/><text x="1223.84" y="-231.8" font-family="Times,serif" font-size="14" text-anchor="middle">कर्म</text></g><g id="node10" class="node"><title>Node8_1</title><ellipse cx="96.84" cy="-192" fill="#00bfff" stroke="#00bfff" rx="96.68" ry="18"/><text x="96.84" y="-188.3" font-family="Times,serif" font-size="14" text-anchor="middle">मारुतिः(8.1)</text></g><g id="edge7" class="edge"><title>Node8_1-&gt;Node11_1</title><path fill="none" stroke="#000" d="M135.72,-214.05C152.82,-223.17 173.22,-233.82 191.84,-243 205.52,-249.74 220.77,-256.84 233.99,-262.87"/><polygon fill="#000" stroke="#000" points="137.05 -210.8 126.58 -209.17 133.75 -216.97 137.05 -210.8"/><text x="227.84" y="-231.8" font-family="Times,serif" font-size="14" text-anchor="middle">कर्ता</text></g><g id="node12" class="node"><title>Node10_1</title><ellipse cx="267.84" cy="-192" fill="#f9f" stroke="#f9f" rx="56.59" ry="18"/><text x="267.84" y="-188.3" font-family="Times,serif" font-size="14" text-anchor="middle">अथ(10.1)</text></g><g id="edge9" class="edge"><title>Node10_1-&gt;Node11_1</title><path fill="none" stroke="#000" d="M267.84,-220.27C267.84,-233.58 267.84,-249.19 267.84,-260.82"/><polygon fill="#000" stroke="#000" points="271.34 -220.2 267.84 -210.2 264.34 -220.2 271.34 -220.2"/><text x="325.34" y="-231.8" font-family="Times,serif" font-size="14" text-anchor="middle">सम्बन्धः</text></g><g id="node13" class="node"><title>Node12_1</title><ellipse cx="494.84" cy="-18" fill="#ff0" stroke="#ff0" rx="96.68" ry="18"/><text x="494.84" y="-14.3" font-family="Times,serif" font-size="14" text-anchor="middle">अद्भुत-(12.1)</text></g><g id="edge10" class="edge"><title>Node12_1-&gt;Node12_2</title><path fill="none" stroke="#000" d="M494.84,-46.27C494.84,-59.58 494.84,-75.19 494.84,-86.82"/><polygon fill="#000" stroke="#000" points="498.34 -46.2 494.84 -36.2 491.34 -46.2 498.34 -46.2"/><text x="566.34" y="-57.8" font-family="Times,serif" font-size="14" text-anchor="middle">बहुव्रीहिः</text></g></g></svg>