<svg xmlns="http://www.w3.org/2000/svg" xmlns:xlink="http://www.w3.org/1999/xlink" width="1571pt" height="479pt" viewBox="0 0 1571 479"><g id="graph0" class="graph" transform="scale(1 1) rotate(0) translate(4 475)"><title>G</title><polygon fill="#fffacd" stroke="transparent" points="-4 4 -4 -475 1567 -475 1567 4 -4 4"/><g id="clust1" class="cluster"><title>cluster_1</title><polygon fill="#fffacd" stroke="#000" points="605 -166 605 -305 1555 -305 1555 -166 605 -166"/></g><g id="clust2" class="cluster"><title>cluster_2</title><polygon fill="#fffacd" stroke="#000" points="8 -166 8 -305 375 -305 375 -166 8 -166"/></g><g id="node1" class="node"><title>Node1_1</title><ellipse cx="1496" cy="-192" fill="#00bfff" stroke="#00bfff" rx="50.89" ry="18"/><text x="1496" y="-188.3" font-family="Times,serif" font-size="14" text-anchor="middle">सः(1.1)</text></g><g id="node2" class="node"><title>Node8_1</title><ellipse cx="909" cy="-279" fill="#00bfff" stroke="#00bfff" rx="96.68" ry="18"/><text x="909" y="-275.3" font-family="Times,serif" font-size="14" text-anchor="middle">हनुमान्(8.1)</text></g><g id="edge1" class="edge"><title>Node1_1-&gt;Node8_1</title><path fill="none" stroke="#000" d="M1455.62,-210.26C1427.41,-221.54 1388.57,-235.51 1353,-243 1235.15,-267.81 1096.36,-275.39 1005.72,-277.52"/><polygon fill="#000" stroke="#000" points="1457.19 -213.4 1465.14 -206.4 1454.56 -206.92 1457.19 -213.4"/><text x="1462.5" y="-231.8" font-family="Times,serif" font-size="14" text-anchor="middle">विशेषणम्</text></g><g id="node11" class="node"><title>Node6_1</title><ellipse cx="655" cy="-366" fill="#f9f" stroke="#f9f" rx="87.99" ry="18"/><text x="655" y="-362.3" font-family="Times,serif" font-size="14" text-anchor="middle">आस्थाय(6.1)</text></g><g id="edge12" class="edge"><title>Node8_1-&gt;Node6_1</title><path fill="none" stroke="#000" stroke-dasharray="1 5" d="M804.99,-284.72C770.98,-289.57 734,-298.58 703,-315 688.33,-322.77 675.52,-336.69 666.84,-347.88"/><polygon fill="#000" stroke="#000" points="805.51 -288.18 814.97 -283.4 804.59 -281.24 805.51 -288.18"/><text x="739" y="-318.8" font-family="Times,serif" font-size="14" text-anchor="middle">कर्ता</text></g><g id="node15" class="node"><title>Node13_1</title><ellipse cx="541" cy="-453" fill="#ff1975" stroke="#ff1975" rx="84.49" ry="18"/><text x="541" y="-449.3" font-family="Times,serif" font-size="14" text-anchor="middle">विवेश(13.1)</text></g><g id="edge11" class="edge"><title>Node8_1-&gt;Node13_1</title><path fill="none" stroke="#000" d="M886.28,-304.62C855.77,-336.06 798.37,-389.63 738,-417 701.46,-433.57 657.79,-442.31 620.86,-446.91"/><polygon fill="#000" stroke="#000" points="889.06 -306.78 893.45 -297.14 884 -301.94 889.06 -306.78"/><text x="874" y="-362.3" font-family="Times,serif" font-size="14" text-anchor="middle">कर्ता</text></g><g id="node3" class="node"><title>Node7_1</title><ellipse cx="1340" cy="-192" fill="#00bfff" stroke="#00bfff" rx="87.99" ry="18"/><text x="1340" y="-188.3" font-family="Times,serif" font-size="14" text-anchor="middle">मेधावी(7.1)</text></g><g id="edge10" class="edge"><title>Node7_1-&gt;Node8_1</title><path fill="none" stroke="#000" d="M1289.99,-211.36C1259.22,-222.01 1218.76,-234.9 1182,-243 1120.4,-256.58 1049.75,-265.46 995.75,-270.88"/><polygon fill="#000" stroke="#000" points="1291.34 -214.59 1299.62 -207.98 1289.03 -207.98 1291.34 -214.59"/><text x="1291.5" y="-231.8" font-family="Times,serif" font-size="14" text-anchor="middle">विशेषणम्</text></g><g id="node4" class="node"><title>Node9_2</title><ellipse cx="701" cy="-192" fill="#00bfff" stroke="#00bfff" rx="87.99" ry="18"/><text x="701" y="-188.3" font-family="Times,serif" font-size="14" text-anchor="middle">आत्मजः(9.2)</text></g><g id="edge14" class="edge"><title>Node9_2-&gt;Node8_1</title><path fill="none" stroke="#000" d="M734.91,-214.44C751.15,-224.08 771.12,-235.04 790,-243 809.94,-251.41 832.57,-258.61 852.69,-264.25"/><polygon fill="#000" stroke="#000" points="736.68 -211.42 726.31 -209.25 733.07 -217.42 736.68 -211.42"/><text x="847.5" y="-231.8" font-family="Times,serif" font-size="14" text-anchor="middle">विशेषणम्</text></g><g id="node5" class="node"><title>Node12_2</title><ellipse cx="909" cy="-192" fill="#00bfff" stroke="#00bfff" rx="102.88" ry="18"/><text x="909" y="-188.3" font-family="Times,serif" font-size="14" text-anchor="middle">सत्त्वः(12.2)</text></g><g id="edge18" class="edge"><title>Node12_2-&gt;Node8_1</title><path fill="none" stroke="#000" d="M909,-220.27C909,-233.58 909,-249.19 909,-260.82"/><polygon fill="#000" stroke="#000" points="912.5 -220.2 909 -210.2 905.5 -220.2 912.5 -220.2"/><text x="966.5" y="-231.8" font-family="Times,serif" font-size="14" text-anchor="middle">विशेषणम्</text></g><g id="node6" class="node"><title>Node14_2</title><ellipse cx="1132" cy="-192" fill="#00bfff" stroke="#00bfff" rx="102.88" ry="18"/><text x="1132" y="-188.3" font-family="Times,serif" font-size="14" text-anchor="middle">कुञ्जरः(14.2)</text></g><g id="edge20" class="edge"><title>Node14_2-&gt;Node8_1</title><path fill="none" stroke="#000" d="M1092.6,-213.81C1073.43,-223.44 1049.85,-234.6 1028,-243 1007.2,-251 983.76,-258.25 963.23,-264.05"/><polygon fill="#000" stroke="#000" points="1094.3 -216.87 1101.63 -209.21 1091.13 -210.63 1094.3 -216.87"/><text x="1120.5" y="-231.8" font-family="Times,serif" font-size="14" text-anchor="middle">विशेषणम्</text></g><g id="node7" class="node"><title>Node2_2</title><ellipse cx="95" cy="-192" fill="#c6e2eb" stroke="#c6e2eb" rx="78.79" ry="18"/><text x="95" y="-188.3" font-family="Times,serif" font-size="14" text-anchor="middle">शिखरे(2.2)</text></g><g id="node8" class="node"><title>Node3_1</title><ellipse cx="252" cy="-279" fill="#c6e2eb" stroke="#c6e2eb" rx="78.79" ry="18"/><text x="252" y="-275.3" font-family="Times,serif" font-size="14" text-anchor="middle">लम्बे(3.1)</text></g><g id="edge3" class="edge"><title>Node2_2-&gt;Node3_1</title><path fill="none" stroke="#000" d="M115.16,-217.58C123.59,-226.6 134,-236.24 145,-243 161.16,-252.92 180.43,-260.35 198.14,-265.75"/><polygon fill="#000" stroke="#000" points="117.56 -215.01 108.28 -209.9 112.35 -219.68 117.56 -215.01"/><text x="202.5" y="-231.8" font-family="Times,serif" font-size="14" text-anchor="middle">विशेषणम्</text></g><g id="edge4" class="edge"><title>Node3_1-&gt;Node6_1</title><path fill="none" stroke="#000" d="M299.14,-298.52C328.33,-309.28 366.84,-322.21 402,-330 470.57,-345.19 489.5,-337.87 559,-348 569.8,-349.57 581.26,-351.43 592.35,-353.34"/><polygon fill="#000" stroke="#000" points="300.2 -295.18 289.61 -294.96 297.75 -301.74 300.2 -295.18"/><text x="480.5" y="-318.8" font-family="Times,serif" font-size="14" text-anchor="middle">देशाधिकरणम्</text></g><g id="node9" class="node"><title>Node4_3</title><ellipse cx="279" cy="-192" fill="#c6e2eb" stroke="#c6e2eb" rx="87.99" ry="18"/><text x="279" y="-188.3" font-family="Times,serif" font-size="14" text-anchor="middle">संनिभे(4.3)</text></g><g id="edge7" class="edge"><title>Node4_3-&gt;Node3_1</title><path fill="none" stroke="#000" d="M270.46,-219.87C266.21,-233.27 261.19,-249.08 257.46,-260.82"/><polygon fill="#000" stroke="#000" points="273.84 -220.79 273.54 -210.2 267.17 -218.67 273.84 -220.79"/><text x="325.5" y="-231.8" font-family="Times,serif" font-size="14" text-anchor="middle">विशेषणम्</text></g><g id="node10" class="node"><title>Node2_1</title><ellipse cx="95" cy="-105" fill="#ff0" stroke="#ff0" rx="72.29" ry="18"/><text x="95" y="-101.3" font-family="Times,serif" font-size="14" text-anchor="middle">लम्ब-(2.1)</text></g><g id="edge2" class="edge"><title>Node2_1-&gt;Node2_2</title><path fill="none" stroke="#000" d="M95,-133.27C95,-146.58 95,-162.19 95,-173.82"/><polygon fill="#000" stroke="#000" points="98.5 -133.2 95 -123.2 91.5 -133.2 98.5 -133.2"/><text x="159.5" y="-144.8" font-family="Times,serif" font-size="14" text-anchor="middle">कर्मधारयः</text></g><g id="edge9" class="edge"><title>Node6_1-&gt;Node13_1</title><path fill="none" stroke="#000" d="M624.56,-389.7C605.24,-404.1 580.68,-422.42 563.19,-435.45"/><polygon fill="#000" stroke="#000" points="626.82 -392.37 632.75 -383.59 622.64 -386.76 626.82 -392.37"/><text x="669.5" y="-405.8" font-family="Times,serif" font-size="14" text-anchor="middle">पूर्वकालः</text></g><g id="node12" class="node"><title>Node4_1</title><ellipse cx="279" cy="-18" fill="#ff0" stroke="#ff0" rx="72.29" ry="18"/><text x="279" y="-14.3" font-family="Times,serif" font-size="14" text-anchor="middle">लम्ब-(4.1)</text></g><g id="node13" class="node"><title>Node4_2</title><ellipse cx="279" cy="-105" fill="#ff0" stroke="#ff0" rx="72.29" ry="18"/><text x="279" y="-101.3" font-family="Times,serif" font-size="14" text-anchor="middle">तोयद-(4.2)</text></g><g id="edge5" class="edge"><title>Node4_1-&gt;Node4_2</title><path fill="none" stroke="#000" d="M279,-46.27C279,-59.58 279,-75.19 279,-86.82"/><polygon fill="#000" stroke="#000" points="282.5 -46.2 279 -36.2 275.5 -46.2 282.5 -46.2"/><text x="343.5" y="-57.8" font-family="Times,serif" font-size="14" text-anchor="middle">कर्मधारयः</text></g><g id="edge6" class="edge"><title>Node4_2-&gt;Node4_3</title><path fill="none" stroke="#000" d="M279,-133.27C279,-146.58 279,-162.19 279,-173.82"/><polygon fill="#000" stroke="#000" points="282.5 -133.2 279 -123.2 275.5 -133.2 282.5 -133.2"/><text x="343.5" y="-144.8" font-family="Times,serif" font-size="14" text-anchor="middle">कर्मधारयः</text></g><g id="node14" class="node"><title>Node5_1</title><ellipse cx="490" cy="-279" fill="#93db70" stroke="#93db70" rx="106.68" ry="18"/><text x="490" y="-275.3" font-family="Times,serif" font-size="14" text-anchor="middle">सत्त्वम्(5.1)</text></g><g id="edge8" class="edge"><title>Node5_1-&gt;Node6_1</title><path fill="none" stroke="#000" d="M530.83,-301.04C559.69,-315.9 597.78,-335.52 624.12,-349.09"/><polygon fill="#000" stroke="#000" points="532.31 -297.86 521.81 -296.39 529.1 -304.08 532.31 -297.86"/><text x="612" y="-318.8" font-family="Times,serif" font-size="14" text-anchor="middle">कर्म</text></g><g id="node16" class="node"><title>Node9_1</title><ellipse cx="690" cy="-105" fill="#ff0" stroke="#ff0" rx="81.49" ry="18"/><text x="690" y="-101.3" font-family="Times,serif" font-size="14" text-anchor="middle">मारुत-(9.1)</text></g><g id="edge13" class="edge"><title>Node9_1-&gt;Node9_2</title><path fill="none" stroke="#000" d="M689.28,-133.44C689.43,-140.8 689.91,-148.73 691,-156 691.88,-161.87 693.47,-168.15 695.12,-173.75"/><polygon fill="#000" stroke="#000" points="692.78 -133.21 689.25 -123.22 685.78 -133.22 692.78 -133.21"/><text x="794.5" y="-144.8" font-family="Times,serif" font-size="14" text-anchor="middle">षष्ठी_तत्पुरुषः</text></g><g id="node17" class="node"><title>Node10_1</title><ellipse cx="251" cy="-366" fill="#c6e2eb" stroke="#c6e2eb" rx="75.29" ry="18"/><text x="251" y="-362.3" font-family="Times,serif" font-size="14" text-anchor="middle">निशि(10.1)</text></g><g id="edge15" class="edge"><title>Node10_1-&gt;Node13_1</title><path fill="none" stroke="#000" d="M279.45,-389.53C293.35,-399.44 310.77,-410.33 328,-417 370.46,-433.44 420.6,-442.16 461.56,-446.78"/><polygon fill="#000" stroke="#000" points="281.41 -386.63 271.28 -383.53 277.27 -392.27 281.41 -386.63"/><text x="406.5" y="-405.8" font-family="Times,serif" font-size="14" text-anchor="middle">कालाधिकरणम्</text></g><g id="node18" class="node"><title>Node11_1</title><ellipse cx="447" cy="-366" fill="#93db70" stroke="#93db70" rx="102.88" ry="18"/><text x="447" y="-362.3" font-family="Times,serif" font-size="14" text-anchor="middle">लङ्काम्(11.1)</text></g><g id="edge16" class="edge"><title>Node11_1-&gt;Node13_1</title><path fill="none" stroke="#000" d="M473.35,-390.83C489,-404.97 508.44,-422.56 522.47,-435.24"/><polygon fill="#000" stroke="#000" points="475.34 -387.9 465.57 -383.79 470.64 -393.1 475.34 -387.9"/><text x="529" y="-405.8" font-family="Times,serif" font-size="14" text-anchor="middle">कर्म</text></g><g id="node19" class="node"><title>Node12_1</title><ellipse cx="920" cy="-105" fill="#ff0" stroke="#ff0" rx="68.79" ry="18"/><text x="920" y="-101.3" font-family="Times,serif" font-size="14" text-anchor="middle">महा-(12.1)</text></g><g id="edge17" class="edge"><title>Node12_1-&gt;Node12_2</title><path fill="none" stroke="#000" d="M916.47,-133.27C914.75,-146.58 912.73,-162.19 911.22,-173.82"/><polygon fill="#000" stroke="#000" points="919.96 -133.57 917.77 -123.2 913.02 -132.67 919.96 -133.57"/><text x="979.5" y="-144.8" font-family="Times,serif" font-size="14" text-anchor="middle">कर्मधारयः</text></g><g id="node20" class="node"><title>Node14_1</title><ellipse cx="1132" cy="-105" fill="#ff0" stroke="#ff0" rx="68.79" ry="18"/><text x="1132" y="-101.3" font-family="Times,serif" font-size="14" text-anchor="middle">कपि-(14.1)</text></g><g id="edge19" class="edge"><title>Node14_1-&gt;Node14_2</title><path fill="none" stroke="#000" d="M1132,-133.27C1132,-146.58 1132,-162.19 1132,-173.82"/><polygon fill="#000" stroke="#000" points="1135.5 -133.2 1132 -123.2 1128.5 -133.2 1135.5 -133.2"/><text x="1196.5" y="-144.8" font-family="Times,serif" font-size="14" text-anchor="middle">कर्मधारयः</text></g></g></svg>