<?xml version="1.0" encoding="UTF-8" standalone="no"?>
<!DOCTYPE svg PUBLIC "-//W3C//DTD SVG 1.1//EN"
 "http://www.w3.org/Graphics/SVG/1.1/DTD/svg11.dtd">
<!-- Generated by graphviz version 2.43.0 (0)
 -->
<!-- Title: G Pages: 1 -->
<svg width="1256pt" height="408pt"
 viewBox="0.00 0.00 1255.60 408.00" xmlns="http://www.w3.org/2000/svg" xmlns:xlink="http://www.w3.org/1999/xlink">
<g id="graph0" class="graph" transform="scale(1 1) rotate(0) translate(4 404)">
<title>G</title>
<polygon fill="#fffacd" stroke="transparent" points="-4,4 -4,-404 1251.6,-404 1251.6,4 -4,4"/>
<g id="clust1" class="cluster">
<title>cluster_1</title>
<polygon fill="#fffacd" stroke="black" points="281.6,-95 281.6,-234 473.6,-234 473.6,-95 281.6,-95"/>
</g>
<g id="clust2" class="cluster">
<title>cluster_2</title>
<polygon fill="#fffacd" stroke="black" points="528.6,-8 528.6,-147 768.6,-147 768.6,-8 528.6,-8"/>
</g>
<!-- Node6_2 -->
<g id="node1" class="node">
<title>Node6_2</title>
<ellipse fill="#93db70" stroke="#93db70" cx="377.6" cy="-121" rx="87.99" ry="18"/>
<text text-anchor="middle" x="377.6" y="-117.3" font-family="Times,serif" font-size="14.00">आत्मनः(6.2)</text>
</g>
<!-- Node5_1 -->
<g id="node2" class="node">
<title>Node5_1</title>
<ellipse fill="#87ceeb" stroke="#87ceeb" cx="377.6" cy="-208" rx="87.99" ry="18"/>
<text text-anchor="middle" x="377.6" y="-204.3" font-family="Times,serif" font-size="14.00">रामस्य(5.1)</text>
</g>
<!-- Node6_2&#45;&gt;Node5_1 -->
<g id="edge6" class="edge">
<title>Node6_2&#45;&gt;Node5_1</title>
<path fill="none" stroke="black" d="M377.6,-149.27C377.6,-162.58 377.6,-178.19 377.6,-189.82"/>
<polygon fill="black" stroke="black" points="381.1,-149.2 377.6,-139.2 374.1,-149.2 381.1,-149.2"/>
<text text-anchor="middle" x="435.1" y="-160.8" font-family="Times,serif" font-size="14.00">विशेषणम्</text>
</g>
<!-- Node4_1 -->
<g id="node8" class="node">
<title>Node4_1</title>
<ellipse fill="#93db70" stroke="#93db70" cx="377.6" cy="-295" rx="96.68" ry="18"/>
<text text-anchor="middle" x="377.6" y="-291.3" font-family="Times,serif" font-size="14.00">कार्यम्(4.1)</text>
</g>
<!-- Node5_1&#45;&gt;Node4_1 -->
<g id="edge4" class="edge">
<title>Node5_1&#45;&gt;Node4_1</title>
<path fill="none" stroke="black" d="M377.6,-236.27C377.6,-249.58 377.6,-265.19 377.6,-276.82"/>
<polygon fill="black" stroke="black" points="381.1,-236.2 377.6,-226.2 374.1,-236.2 381.1,-236.2"/>
<text text-anchor="middle" x="470.6" y="-247.8" font-family="Times,serif" font-size="14.00">षष्ठीसम्बन्धः</text>
</g>
<!-- Node7_1 -->
<g id="node3" class="node">
<title>Node7_1</title>
<ellipse fill="#93db70" stroke="#93db70" cx="645.6" cy="-34" rx="78.79" ry="18"/>
<text text-anchor="middle" x="645.6" y="-30.3" font-family="Times,serif" font-size="14.00">एकाम्(7.1)</text>
</g>
<!-- Node12_2 -->
<g id="node4" class="node">
<title>Node12_2</title>
<ellipse fill="#93db70" stroke="#93db70" cx="648.6" cy="-121" rx="112.38" ry="18"/>
<text text-anchor="middle" x="648.6" y="-117.3" font-family="Times,serif" font-size="14.00">आत्मजाम्(12.2)</text>
</g>
<!-- Node7_1&#45;&gt;Node12_2 -->
<g id="edge7" class="edge">
<title>Node7_1&#45;&gt;Node12_2</title>
<path fill="none" stroke="black" d="M646.56,-62.27C647.03,-75.58 647.58,-91.19 647.99,-102.82"/>
<polygon fill="black" stroke="black" points="650.05,-62.07 646.2,-52.2 643.06,-62.32 650.05,-62.07"/>
<text text-anchor="middle" x="705.1" y="-73.8" font-family="Times,serif" font-size="14.00">विशेषणम्</text>
</g>
<!-- Node10_1 -->
<g id="node11" class="node">
<title>Node10_1</title>
<ellipse fill="#ff1975" stroke="#ff1975" cx="902.6" cy="-208" rx="112.38" ry="18"/>
<text text-anchor="middle" x="902.6" y="-204.3" font-family="Times,serif" font-size="14.00">पश्येयम्(10.1)</text>
</g>
<!-- Node12_2&#45;&gt;Node10_1 -->
<g id="edge12" class="edge">
<title>Node12_2&#45;&gt;Node10_1</title>
<path fill="none" stroke="black" d="M704.6,-140.74C750.09,-155.97 813.5,-177.18 856.19,-191.47"/>
<polygon fill="black" stroke="black" points="705.48,-137.35 694.89,-137.49 703.26,-143.98 705.48,-137.35"/>
<text text-anchor="middle" x="819.6" y="-160.8" font-family="Times,serif" font-size="14.00">कर्म</text>
</g>
<!-- Node1_1 -->
<g id="node5" class="node">
<title>Node1_1</title>
<ellipse fill="#ff99ff" stroke="#ff99ff" cx="41.6" cy="-295" rx="41.69" ry="18"/>
<text text-anchor="middle" x="41.6" y="-291.3" font-family="Times,serif" font-size="14.00">न(1.1)</text>
</g>
<!-- Node2_1 -->
<g id="node6" class="node">
<title>Node2_1</title>
<ellipse fill="#ff1975" stroke="#ff1975" cx="193.6" cy="-382" rx="115.88" ry="18"/>
<text text-anchor="middle" x="193.6" y="-378.3" font-family="Times,serif" font-size="14.00">विनश्येत्(2.1)</text>
</g>
<!-- Node1_1&#45;&gt;Node2_1 -->
<g id="edge1" class="edge">
<title>Node1_1&#45;&gt;Node2_1</title>
<path fill="none" stroke="black" d="M46.66,-322.74C49.48,-331.21 53.85,-339.93 60.6,-346 73.2,-357.34 89.04,-365.08 105.36,-370.34"/>
<polygon fill="black" stroke="black" points="50.04,-321.81 44.02,-313.09 43.29,-323.66 50.04,-321.81"/>
<text text-anchor="middle" x="125.1" y="-334.8" font-family="Times,serif" font-size="14.00">प्रतिषेधः</text>
</g>
<!-- Node3_1 -->
<g id="node7" class="node">
<title>Node3_1</title>
<ellipse fill="#ff99ff" stroke="#ff99ff" cx="193.6" cy="-295" rx="69.59" ry="18"/>
<text text-anchor="middle" x="193.6" y="-291.3" font-family="Times,serif" font-size="14.00">कथम्(3.1)</text>
</g>
<!-- Node3_1&#45;&gt;Node2_1 -->
<g id="edge2" class="edge">
<title>Node3_1&#45;&gt;Node2_1</title>
<path fill="none" stroke="black" d="M193.6,-323.27C193.6,-336.58 193.6,-352.19 193.6,-363.82"/>
<polygon fill="black" stroke="black" points="197.1,-323.2 193.6,-313.2 190.1,-323.2 197.1,-323.2"/>
<text text-anchor="middle" x="251.1" y="-334.8" font-family="Times,serif" font-size="14.00">सम्बन्धः</text>
</g>
<!-- Node4_1&#45;&gt;Node2_1 -->
<g id="edge3" class="edge">
<title>Node4_1&#45;&gt;Node2_1</title>
<path fill="none" stroke="black" d="M351.73,-319.45C340.37,-328.77 326.48,-338.93 312.6,-346 295.42,-354.74 275.71,-361.65 257.33,-366.94"/>
<polygon fill="black" stroke="black" points="354.14,-322 359.51,-312.87 349.62,-316.65 354.14,-322"/>
<text text-anchor="middle" x="371.6" y="-334.8" font-family="Times,serif" font-size="14.00">कर्ता</text>
</g>
<!-- Node6_1 -->
<g id="node9" class="node">
<title>Node6_1</title>
<ellipse fill="#ffff00" stroke="#ffff00" cx="377.6" cy="-34" rx="81.49" ry="18"/>
<text text-anchor="middle" x="377.6" y="-30.3" font-family="Times,serif" font-size="14.00">विदित&#45;(6.1)</text>
</g>
<!-- Node6_1&#45;&gt;Node6_2 -->
<g id="edge5" class="edge">
<title>Node6_1&#45;&gt;Node6_2</title>
<path fill="none" stroke="black" d="M377.6,-62.27C377.6,-75.58 377.6,-91.19 377.6,-102.82"/>
<polygon fill="black" stroke="black" points="381.1,-62.2 377.6,-52.2 374.1,-62.2 381.1,-62.2"/>
<text text-anchor="middle" x="449.1" y="-73.8" font-family="Times,serif" font-size="14.00">बहुव्रीहिः</text>
</g>
<!-- Node8_1 -->
<g id="node10" class="node">
<title>Node8_1</title>
<ellipse fill="#00bfff" stroke="#00bfff" cx="838.6" cy="-121" rx="59.59" ry="18"/>
<text text-anchor="middle" x="838.6" y="-117.3" font-family="Times,serif" font-size="14.00">एकः(8.1)</text>
</g>
<!-- Node8_1&#45;&gt;Node10_1 -->
<g id="edge8" class="edge">
<title>Node8_1&#45;&gt;Node10_1</title>
<path fill="none" stroke="black" d="M855.18,-147.57C860.56,-155.53 866.67,-164.25 872.6,-172 877.17,-177.98 882.43,-184.28 887.25,-189.87"/>
<polygon fill="black" stroke="black" points="857.93,-145.38 849.47,-139 852.1,-149.26 857.93,-145.38"/>
<text text-anchor="middle" x="908.6" y="-160.8" font-family="Times,serif" font-size="14.00">कर्ता</text>
</g>
<!-- Node9_1 -->
<g id="node12" class="node">
<title>Node9_1</title>
<ellipse fill="#ff99ff" stroke="#ff99ff" cx="966.6" cy="-121" rx="50.89" ry="18"/>
<text text-anchor="middle" x="966.6" y="-117.3" font-family="Times,serif" font-size="14.00">तु(9.1)</text>
</g>
<!-- Node9_1&#45;&gt;Node10_1 -->
<g id="edge9" class="edge">
<title>Node9_1&#45;&gt;Node10_1</title>
<path fill="none" stroke="black" d="M957.59,-148.58C954.2,-156.53 949.87,-165 944.6,-172 939.57,-178.67 933.04,-184.89 926.63,-190.19"/>
<polygon fill="black" stroke="black" points="960.85,-149.84 961.24,-139.26 954.33,-147.29 960.85,-149.84"/>
<text text-anchor="middle" x="1010.1" y="-160.8" font-family="Times,serif" font-size="14.00">सम्बन्धः</text>
</g>
<!-- Node11_1 -->
<g id="node13" class="node">
<title>Node11_1</title>
<ellipse fill="#c6e2eb" stroke="#c6e2eb" cx="1119.6" cy="-121" rx="84.49" ry="18"/>
<text text-anchor="middle" x="1119.6" y="-117.3" font-family="Times,serif" font-size="14.00">रहिते(11.1)</text>
</g>
<!-- Node11_1&#45;&gt;Node10_1 -->
<g id="edge10" class="edge">
<title>Node11_1&#45;&gt;Node10_1</title>
<path fill="none" stroke="black" d="M1101.13,-146.84C1093.05,-156.06 1082.84,-165.79 1071.6,-172 1048.65,-184.68 1021.65,-192.79 996.04,-197.96"/>
<polygon fill="black" stroke="black" points="1103.98,-148.89 1107.67,-138.96 1098.59,-144.42 1103.98,-148.89"/>
<text text-anchor="middle" x="1169.1" y="-160.8" font-family="Times,serif" font-size="14.00">देशाधिकरणम्</text>
</g>
<!-- Node12_1 -->
<g id="node14" class="node">
<title>Node12_1</title>
<ellipse fill="#ffff00" stroke="#ffff00" cx="845.6" cy="-34" rx="68.79" ry="18"/>
<text text-anchor="middle" x="845.6" y="-30.3" font-family="Times,serif" font-size="14.00">जनक&#45;(12.1)</text>
</g>
<!-- Node12_1&#45;&gt;Node12_2 -->
<g id="edge11" class="edge">
<title>Node12_1&#45;&gt;Node12_2</title>
<path fill="none" stroke="black" d="M815.3,-56.95C801.04,-66.54 783.49,-77.33 766.6,-85 748.31,-93.31 727.54,-100.23 708.58,-105.67"/>
<polygon fill="black" stroke="black" points="817.45,-59.72 823.72,-51.17 813.49,-53.95 817.45,-59.72"/>
<text text-anchor="middle" x="897.1" y="-73.8" font-family="Times,serif" font-size="14.00">षष्ठी_तत्पुरुषः</text>
</g>
</g>
</svg>
