<?xml version="1.0" encoding="UTF-8" standalone="no"?>
<!DOCTYPE svg PUBLIC "-//W3C//DTD SVG 1.1//EN"
 "http://www.w3.org/Graphics/SVG/1.1/DTD/svg11.dtd">
<!-- Generated by graphviz version 2.43.0 (0)
 -->
<!-- Title: G Pages: 1 -->
<svg width="969pt" height="566pt"
 viewBox="0.00 0.00 969.00 566.00" xmlns="http://www.w3.org/2000/svg" xmlns:xlink="http://www.w3.org/1999/xlink">
<g id="graph0" class="graph" transform="scale(1 1) rotate(0) translate(4 562)">
<title>G</title>
<polygon fill="#fffacd" stroke="transparent" points="-4,4 -4,-562 965,-562 965,4 -4,4"/>
<g id="clust1" class="cluster">
<title>cluster_1</title>
<polygon fill="#fffacd" stroke="black" points="8,-340 8,-479 292,-479 292,-340 8,-340"/>
</g>
<g id="clust2" class="cluster">
<title>cluster_2</title>
<polygon fill="#fffacd" stroke="black" points="358,-253 358,-392 855,-392 855,-253 358,-253"/>
</g>
<g id="clust3" class="cluster">
<title>cluster_3</title>
<polygon fill="#fffacd" stroke="black" points="149,-79 149,-218 628,-218 628,-79 149,-79"/>
</g>
<!-- Node3_1 -->
<g id="node1" class="node">
<title>Node3_1</title>
<ellipse fill="#00bfff" stroke="#00bfff" cx="150" cy="-366" rx="133.78" ry="18"/>
<text text-anchor="middle" x="150" y="-362.3" font-family="Times,serif" font-size="14.00">लक्ष्मीवान्(3.1)</text>
</g>
<!-- Node11_1 -->
<g id="node2" class="node">
<title>Node11_1</title>
<ellipse fill="#00bfff" stroke="#00bfff" cx="162" cy="-453" rx="109.68" ry="18"/>
<text text-anchor="middle" x="162" y="-449.3" font-family="Times,serif" font-size="14.00">(हनुमान्)(11.1)</text>
</g>
<!-- Node3_1&#45;&gt;Node11_1 -->
<g id="edge3" class="edge">
<title>Node3_1&#45;&gt;Node11_1</title>
<path fill="none" stroke="black" d="M153.85,-394.27C155.73,-407.58 157.93,-423.19 159.58,-434.82"/>
<polygon fill="black" stroke="black" points="157.29,-393.61 152.43,-384.2 150.36,-394.59 157.29,-393.61"/>
<text text-anchor="middle" x="214.5" y="-405.8" font-family="Times,serif" font-size="14.00">विशेषणम्</text>
</g>
<!-- Node10_1 -->
<g id="node10" class="node">
<title>Node10_1</title>
<ellipse fill="#ff1975" stroke="#ff1975" cx="406" cy="-540" rx="90.98" ry="18"/>
<text text-anchor="middle" x="406" y="-536.3" font-family="Times,serif" font-size="14.00">(ददर्श)(10.1)</text>
</g>
<!-- Node11_1&#45;&gt;Node10_1 -->
<g id="edge14" class="edge">
<title>Node11_1&#45;&gt;Node10_1</title>
<path fill="none" stroke="black" d="M215.92,-472.78C260.2,-488.21 322.08,-509.77 363.06,-524.04"/>
<polygon fill="black" stroke="black" points="217.06,-469.48 206.47,-469.49 214.76,-476.09 217.06,-469.48"/>
<text text-anchor="middle" x="334" y="-492.8" font-family="Times,serif" font-size="14.00">कर्ता</text>
</g>
<!-- Node5_2 -->
<g id="node3" class="node">
<title>Node5_2</title>
<ellipse fill="#93db70" stroke="#93db70" cx="740" cy="-279" rx="106.68" ry="18"/>
<text text-anchor="middle" x="740" y="-275.3" font-family="Times,serif" font-size="14.00">पालिताम्(5.2)</text>
</g>
<!-- Node4_1 -->
<g id="node4" class="node">
<title>Node4_1</title>
<ellipse fill="#93db70" stroke="#93db70" cx="521" cy="-366" rx="96.68" ry="18"/>
<text text-anchor="middle" x="521" y="-362.3" font-family="Times,serif" font-size="14.00">लङ्काम्(4.1)</text>
</g>
<!-- Node5_2&#45;&gt;Node4_1 -->
<g id="edge7" class="edge">
<title>Node5_2&#45;&gt;Node4_1</title>
<path fill="none" stroke="black" d="M696.11,-300.37C675.08,-309.84 649.44,-320.98 626,-330 607.35,-337.18 586.52,-344.3 568.37,-350.23"/>
<polygon fill="black" stroke="black" points="697.76,-303.47 705.42,-296.15 694.87,-297.09 697.76,-303.47"/>
<text text-anchor="middle" x="717.5" y="-318.8" font-family="Times,serif" font-size="14.00">विशेषणम्</text>
</g>
<!-- Node1_1 -->
<g id="node9" class="node">
<title>Node1_1</title>
<ellipse fill="#ff99ff" stroke="#ff99ff" cx="407" cy="-453" rx="106.68" ry="18"/>
<text text-anchor="middle" x="407" y="-449.3" font-family="Times,serif" font-size="14.00">समासाद्य(1.1)</text>
</g>
<!-- Node4_1&#45;&gt;Node1_1 -->
<g id="edge5" class="edge">
<title>Node4_1&#45;&gt;Node1_1</title>
<path fill="none" stroke="black" stroke-dasharray="1,5" d="M490.61,-389.66C471.43,-403.96 447.06,-422.13 429.58,-435.16"/>
<polygon fill="black" stroke="black" points="492.82,-392.37 498.75,-383.59 488.64,-386.76 492.82,-392.37"/>
<text text-anchor="middle" x="499" y="-405.8" font-family="Times,serif" font-size="14.00">कर्म</text>
</g>
<!-- Node4_1&#45;&gt;Node10_1 -->
<g id="edge4" class="edge">
<title>Node4_1&#45;&gt;Node10_1</title>
<path fill="none" stroke="black" d="M533.97,-393.6C546.5,-423.58 560.32,-472.26 536,-504 528,-514.44 501.93,-522.46 475.21,-528.17"/>
<polygon fill="black" stroke="black" points="537.06,-391.94 529.82,-384.2 530.65,-394.77 537.06,-391.94"/>
<text text-anchor="middle" x="578" y="-449.3" font-family="Times,serif" font-size="14.00">कर्म</text>
</g>
<!-- Node9_1 -->
<g id="node5" class="node">
<title>Node9_1</title>
<ellipse fill="#93db70" stroke="#93db70" cx="491" cy="-279" rx="124.58" ry="18"/>
<text text-anchor="middle" x="491" y="-275.3" font-family="Times,serif" font-size="14.00">अलङ्कृताम्(9.1)</text>
</g>
<!-- Node9_1&#45;&gt;Node4_1 -->
<g id="edge13" class="edge">
<title>Node9_1&#45;&gt;Node4_1</title>
<path fill="none" stroke="black" d="M500.48,-306.87C505.21,-320.27 510.79,-336.08 514.94,-347.82"/>
<polygon fill="black" stroke="black" points="503.7,-305.47 497.07,-297.2 497.1,-307.8 503.7,-305.47"/>
<text text-anchor="middle" x="564.5" y="-318.8" font-family="Times,serif" font-size="14.00">विशेषणम्</text>
</g>
<!-- Node7_2 -->
<g id="node6" class="node">
<title>Node7_2</title>
<ellipse fill="#40e0d0" stroke="#40e0d0" cx="264" cy="-105" rx="106.68" ry="18"/>
<text text-anchor="middle" x="264" y="-101.3" font-family="Times,serif" font-size="14.00">पद्माभिः(7.2)</text>
</g>
<!-- Node6_1 -->
<g id="node7" class="node">
<title>Node6_1</title>
<ellipse fill="#40e0d0" stroke="#40e0d0" cx="491" cy="-192" rx="106.68" ry="18"/>
<text text-anchor="middle" x="491" y="-188.3" font-family="Times,serif" font-size="14.00">परिखाभिः(6.1)</text>
</g>
<!-- Node7_2&#45;&gt;Node6_1 -->
<g id="edge10" class="edge">
<title>Node7_2&#45;&gt;Node6_1</title>
<path fill="none" stroke="black" d="M301.82,-127.36C319.94,-137 342.19,-147.99 363,-156 384.61,-164.31 408.98,-171.49 430.61,-177.15"/>
<polygon fill="black" stroke="black" points="303.22,-124.13 292.75,-122.46 299.89,-130.29 303.22,-124.13"/>
<text text-anchor="middle" x="427.5" y="-144.8" font-family="Times,serif" font-size="14.00">समुच्चितः</text>
</g>
<!-- Node6_1&#45;&gt;Node9_1 -->
<g id="edge8" class="edge">
<title>Node6_1&#45;&gt;Node9_1</title>
<path fill="none" stroke="black" d="M491,-220.27C491,-233.58 491,-249.19 491,-260.82"/>
<polygon fill="black" stroke="black" points="494.5,-220.2 491,-210.2 487.5,-220.2 494.5,-220.2"/>
<text text-anchor="middle" x="527" y="-231.8" font-family="Times,serif" font-size="14.00">करणम्</text>
</g>
<!-- Node8_2 -->
<g id="node8" class="node">
<title>Node8_2</title>
<ellipse fill="#40e0d0" stroke="#40e0d0" cx="504" cy="-105" rx="115.88" ry="18"/>
<text text-anchor="middle" x="504" y="-101.3" font-family="Times,serif" font-size="14.00">उत्पलाभिः(8.2)</text>
</g>
<!-- Node8_2&#45;&gt;Node6_1 -->
<g id="edge12" class="edge">
<title>Node8_2&#45;&gt;Node6_1</title>
<path fill="none" stroke="black" d="M499.83,-133.27C497.79,-146.58 495.41,-162.19 493.63,-173.82"/>
<polygon fill="black" stroke="black" points="503.32,-133.62 501.37,-123.2 496.4,-132.56 503.32,-133.62"/>
<text text-anchor="middle" x="562.5" y="-144.8" font-family="Times,serif" font-size="14.00">समुच्चितः</text>
</g>
<!-- Node1_1&#45;&gt;Node10_1 -->
<g id="edge1" class="edge">
<title>Node1_1&#45;&gt;Node10_1</title>
<path fill="none" stroke="black" d="M406.68,-481.27C406.52,-494.58 406.34,-510.19 406.2,-521.82"/>
<polygon fill="black" stroke="black" points="410.18,-481.24 406.8,-471.2 403.18,-481.16 410.18,-481.24"/>
<text text-anchor="middle" x="470.5" y="-492.8" font-family="Times,serif" font-size="14.00">पूर्वकालः</text>
</g>
<!-- Node2_1 -->
<g id="node11" class="node">
<title>Node2_1</title>
<ellipse fill="#ff99ff" stroke="#ff99ff" cx="679" cy="-105" rx="41.69" ry="18"/>
<text text-anchor="middle" x="679" y="-101.3" font-family="Times,serif" font-size="14.00">च(2.1)</text>
</g>
<!-- Node2_1&#45;&gt;Node6_1 -->
<g id="edge2" class="edge">
<title>Node2_1&#45;&gt;Node6_1</title>
<path fill="none" stroke="black" d="M660.76,-130.2C652.6,-139.51 642.27,-149.46 631,-156 612.14,-166.93 589.93,-174.48 568.83,-179.67"/>
<polygon fill="black" stroke="black" points="663.64,-132.22 667.34,-122.29 658.26,-127.74 663.64,-132.22"/>
<text text-anchor="middle" x="753.5" y="-144.8" font-family="Times,serif" font-size="14.00">समुच्चय_द्योतकः</text>
</g>
<!-- Node5_1 -->
<g id="node12" class="node">
<title>Node5_1</title>
<ellipse fill="#ffff00" stroke="#ffff00" cx="740" cy="-192" rx="72.29" ry="18"/>
<text text-anchor="middle" x="740" y="-188.3" font-family="Times,serif" font-size="14.00">रावण&#45;(5.1)</text>
</g>
<!-- Node5_1&#45;&gt;Node5_2 -->
<g id="edge6" class="edge">
<title>Node5_1&#45;&gt;Node5_2</title>
<path fill="none" stroke="black" d="M740,-220.27C740,-233.58 740,-249.19 740,-260.82"/>
<polygon fill="black" stroke="black" points="743.5,-220.2 740,-210.2 736.5,-220.2 743.5,-220.2"/>
<text text-anchor="middle" x="850.5" y="-231.8" font-family="Times,serif" font-size="14.00">तृतीया_तत्पुरुषः</text>
</g>
<!-- Node7_1 -->
<g id="node13" class="node">
<title>Node7_1</title>
<ellipse fill="#ffff00" stroke="#ffff00" cx="264" cy="-18" rx="44.39" ry="18"/>
<text text-anchor="middle" x="264" y="-14.3" font-family="Times,serif" font-size="14.00">स&#45;(7.1)</text>
</g>
<!-- Node7_1&#45;&gt;Node7_2 -->
<g id="edge9" class="edge">
<title>Node7_1&#45;&gt;Node7_2</title>
<path fill="none" stroke="black" d="M264,-46.27C264,-59.58 264,-75.19 264,-86.82"/>
<polygon fill="black" stroke="black" points="267.5,-46.2 264,-36.2 260.5,-46.2 267.5,-46.2"/>
<text text-anchor="middle" x="335.5" y="-57.8" font-family="Times,serif" font-size="14.00">बहुव्रीहिः</text>
</g>
<!-- Node8_1 -->
<g id="node14" class="node">
<title>Node8_1</title>
<ellipse fill="#ffff00" stroke="#ffff00" cx="504" cy="-18" rx="44.39" ry="18"/>
<text text-anchor="middle" x="504" y="-14.3" font-family="Times,serif" font-size="14.00">स&#45;(8.1)</text>
</g>
<!-- Node8_1&#45;&gt;Node8_2 -->
<g id="edge11" class="edge">
<title>Node8_1&#45;&gt;Node8_2</title>
<path fill="none" stroke="black" d="M504,-46.27C504,-59.58 504,-75.19 504,-86.82"/>
<polygon fill="black" stroke="black" points="507.5,-46.2 504,-36.2 500.5,-46.2 507.5,-46.2"/>
<text text-anchor="middle" x="575.5" y="-57.8" font-family="Times,serif" font-size="14.00">बहुव्रीहिः</text>
</g>
</g>
</svg>
