<?xml version="1.0" encoding="UTF-8" standalone="no"?>
<!DOCTYPE svg PUBLIC "-//W3C//DTD SVG 1.1//EN"
 "http://www.w3.org/Graphics/SVG/1.1/DTD/svg11.dtd">
<!-- Generated by graphviz version 2.43.0 (0)
 -->
<!-- Title: G Pages: 1 -->
<svg width="907pt" height="392pt"
 viewBox="0.00 0.00 906.59 392.00" xmlns="http://www.w3.org/2000/svg" xmlns:xlink="http://www.w3.org/1999/xlink">
<g id="graph0" class="graph" transform="scale(1 1) rotate(0) translate(4 388)">
<title>G</title>
<polygon fill="#fffacd" stroke="transparent" points="-4,4 -4,-388 902.59,-388 902.59,4 -4,4"/>
<g id="clust1" class="cluster">
<title>cluster_1</title>
<polygon fill="#fffacd" stroke="black" points="673.59,-79 673.59,-218 865.59,-218 865.59,-79 673.59,-79"/>
</g>
<g id="clust2" class="cluster">
<title>cluster_2</title>
<polygon fill="#fffacd" stroke="black" points="19.59,-79 19.59,-218 211.59,-218 211.59,-79 19.59,-79"/>
</g>
<!-- Node5_2 -->
<g id="node1" class="node">
<title>Node5_2</title>
<ellipse fill="#93db70" stroke="#93db70" cx="769.59" cy="-105" rx="87.99" ry="18"/>
<text text-anchor="middle" x="769.59" y="-101.3" font-family="Times,serif" font-size="14.00">आसदाम्(5.2)</text>
</g>
<!-- Node2_1 -->
<g id="node2" class="node">
<title>Node2_1</title>
<ellipse fill="#93db70" stroke="#93db70" cx="769.59" cy="-192" rx="87.99" ry="18"/>
<text text-anchor="middle" x="769.59" y="-188.3" font-family="Times,serif" font-size="14.00">पुरीम्(2.1)</text>
</g>
<!-- Node5_2&#45;&gt;Node2_1 -->
<g id="edge6" class="edge">
<title>Node5_2&#45;&gt;Node2_1</title>
<path fill="none" stroke="black" d="M769.59,-133.27C769.59,-146.58 769.59,-162.19 769.59,-173.82"/>
<polygon fill="black" stroke="black" points="773.09,-133.2 769.59,-123.2 766.09,-133.2 773.09,-133.2"/>
<text text-anchor="middle" x="827.09" y="-144.8" font-family="Times,serif" font-size="14.00">विशेषणम्</text>
</g>
<!-- Node4_1 -->
<g id="node6" class="node">
<title>Node4_1</title>
<ellipse fill="#ff99ff" stroke="#ff99ff" cx="580.59" cy="-279" rx="106.68" ry="18"/>
<text text-anchor="middle" x="580.59" y="-275.3" font-family="Times,serif" font-size="14.00">प्रविश्य(4.1)</text>
</g>
<!-- Node2_1&#45;&gt;Node4_1 -->
<g id="edge2" class="edge">
<title>Node2_1&#45;&gt;Node4_1</title>
<path fill="none" stroke="black" d="M759.42,-219.52C754.88,-228.18 748.69,-237.09 740.59,-243 721.64,-256.83 698.29,-265.38 675.34,-270.61"/>
<polygon fill="black" stroke="black" points="762.64,-220.9 763.72,-210.36 756.3,-217.93 762.64,-220.9"/>
<text text-anchor="middle" x="783.59" y="-231.8" font-family="Times,serif" font-size="14.00">कर्म</text>
</g>
<!-- Node8_1 -->
<g id="node3" class="node">
<title>Node8_1</title>
<ellipse fill="#93db70" stroke="#93db70" cx="115.59" cy="-105" rx="87.99" ry="18"/>
<text text-anchor="middle" x="115.59" y="-101.3" font-family="Times,serif" font-size="14.00">सर्वम्(8.1)</text>
</g>
<!-- Node7_1 -->
<g id="node4" class="node">
<title>Node7_1</title>
<ellipse fill="#93db70" stroke="#93db70" cx="106.59" cy="-192" rx="78.79" ry="18"/>
<text text-anchor="middle" x="106.59" y="-188.3" font-family="Times,serif" font-size="14.00">भवनम्(7.1)</text>
</g>
<!-- Node8_1&#45;&gt;Node7_1 -->
<g id="edge9" class="edge">
<title>Node8_1&#45;&gt;Node7_1</title>
<path fill="none" stroke="black" d="M112.7,-133.27C111.29,-146.58 109.64,-162.19 108.41,-173.82"/>
<polygon fill="black" stroke="black" points="116.2,-133.51 113.77,-123.2 109.24,-132.78 116.2,-133.51"/>
<text text-anchor="middle" x="170.09" y="-144.8" font-family="Times,serif" font-size="14.00">विशेषणम्</text>
</g>
<!-- Node6_1 -->
<g id="node10" class="node">
<title>Node6_1</title>
<ellipse fill="#ff99ff" stroke="#ff99ff" cx="106.59" cy="-279" rx="106.68" ry="18"/>
<text text-anchor="middle" x="106.59" y="-275.3" font-family="Times,serif" font-size="14.00">प्रविश्य(6.1)</text>
</g>
<!-- Node7_1&#45;&gt;Node6_1 -->
<g id="edge8" class="edge">
<title>Node7_1&#45;&gt;Node6_1</title>
<path fill="none" stroke="black" d="M106.59,-220.27C106.59,-233.58 106.59,-249.19 106.59,-260.82"/>
<polygon fill="black" stroke="black" points="110.09,-220.2 106.59,-210.2 103.09,-220.2 110.09,-220.2"/>
<text text-anchor="middle" x="135.59" y="-231.8" font-family="Times,serif" font-size="14.00">कर्म</text>
</g>
<!-- Node1_1 -->
<g id="node5" class="node">
<title>Node1_1</title>
<ellipse fill="#87ceeb" stroke="#87ceeb" cx="533.59" cy="-105" rx="96.68" ry="18"/>
<text text-anchor="middle" x="533.59" y="-101.3" font-family="Times,serif" font-size="14.00">रावणस्य(1.1)</text>
</g>
<!-- Node1_1&#45;&gt;Node2_1 -->
<g id="edge1" class="edge">
<title>Node1_1&#45;&gt;Node2_1</title>
<path fill="none" stroke="black" d="M551.03,-130.97C558.74,-140.21 568.57,-149.91 579.59,-156 582.43,-157.57 651.49,-170.07 705.53,-179.69"/>
<polygon fill="black" stroke="black" points="553.75,-128.76 544.82,-123.06 548.24,-133.09 553.75,-128.76"/>
<text text-anchor="middle" x="672.59" y="-144.8" font-family="Times,serif" font-size="14.00">षष्ठीसम्बन्धः</text>
</g>
<!-- Node9_1 -->
<g id="node8" class="node">
<title>Node9_1</title>
<ellipse fill="#ff1975" stroke="#ff1975" cx="343.59" cy="-366" rx="133.78" ry="18"/>
<text text-anchor="middle" x="343.59" y="-362.3" font-family="Times,serif" font-size="14.00">द्रक्ष्यामि(9.1)</text>
</g>
<!-- Node4_1&#45;&gt;Node9_1 -->
<g id="edge4" class="edge">
<title>Node4_1&#45;&gt;Node9_1</title>
<path fill="none" stroke="black" d="M527.93,-298.89C486.08,-313.9 428.18,-334.66 388.5,-348.89"/>
<polygon fill="black" stroke="black" points="529.17,-302.16 537.4,-295.49 526.8,-295.57 529.17,-302.16"/>
<text text-anchor="middle" x="541.09" y="-318.8" font-family="Times,serif" font-size="14.00">पूर्वकालः</text>
</g>
<!-- Node3_1 -->
<g id="node7" class="node">
<title>Node3_1</title>
<ellipse fill="#c6e2eb" stroke="#c6e2eb" cx="576.59" cy="-192" rx="87.99" ry="18"/>
<text text-anchor="middle" x="576.59" y="-188.3" font-family="Times,serif" font-size="14.00">रात्रौ(3.1)</text>
</g>
<!-- Node3_1&#45;&gt;Node4_1 -->
<g id="edge3" class="edge">
<title>Node3_1&#45;&gt;Node4_1</title>
<path fill="none" stroke="black" d="M577.87,-220.27C578.5,-233.58 579.23,-249.19 579.78,-260.82"/>
<polygon fill="black" stroke="black" points="581.37,-220.03 577.4,-210.2 574.37,-220.35 581.37,-220.03"/>
<text text-anchor="middle" x="658.09" y="-231.8" font-family="Times,serif" font-size="14.00">कालाधिकरणम्</text>
</g>
<!-- Node5_1 -->
<g id="node9" class="node">
<title>Node5_1</title>
<ellipse fill="#ffff00" stroke="#ffff00" cx="769.59" cy="-18" rx="90.98" ry="18"/>
<text text-anchor="middle" x="769.59" y="-14.3" font-family="Times,serif" font-size="14.00">सुदुर्&#45;(5.1)</text>
</g>
<!-- Node5_1&#45;&gt;Node5_2 -->
<g id="edge5" class="edge">
<title>Node5_1&#45;&gt;Node5_2</title>
<path fill="none" stroke="black" d="M769.59,-46.27C769.59,-59.58 769.59,-75.19 769.59,-86.82"/>
<polygon fill="black" stroke="black" points="773.09,-46.2 769.59,-36.2 766.09,-46.2 773.09,-46.2"/>
<text text-anchor="middle" x="834.09" y="-57.8" font-family="Times,serif" font-size="14.00">तत्पुरुषः</text>
</g>
<!-- Node6_1&#45;&gt;Node9_1 -->
<g id="edge7" class="edge">
<title>Node6_1&#45;&gt;Node9_1</title>
<path fill="none" stroke="black" d="M145.88,-301.08C165.03,-310.79 188.62,-321.91 210.59,-330 231.99,-337.88 255.93,-344.75 277.54,-350.27"/>
<polygon fill="black" stroke="black" points="147.36,-297.91 136.87,-296.45 144.16,-304.14 147.36,-297.91"/>
<text text-anchor="middle" x="275.09" y="-318.8" font-family="Times,serif" font-size="14.00">पूर्वकालः</text>
</g>
<!-- Node10_1 -->
<g id="node11" class="node">
<title>Node10_1</title>
<ellipse fill="#ffff00" stroke="#ffff00" cx="343.59" cy="-192" rx="68.79" ry="18"/>
<text text-anchor="middle" x="343.59" y="-188.3" font-family="Times,serif" font-size="14.00">जनक&#45;(10.1)</text>
</g>
<!-- Node10_2 -->
<g id="node12" class="node">
<title>Node10_2</title>
<ellipse fill="#93db70" stroke="#93db70" cx="343.59" cy="-279" rx="112.38" ry="18"/>
<text text-anchor="middle" x="343.59" y="-275.3" font-family="Times,serif" font-size="14.00">आत्मजाम्(10.2)</text>
</g>
<!-- Node10_1&#45;&gt;Node10_2 -->
<g id="edge10" class="edge">
<title>Node10_1&#45;&gt;Node10_2</title>
<path fill="none" stroke="black" d="M343.59,-220.27C343.59,-233.58 343.59,-249.19 343.59,-260.82"/>
<polygon fill="black" stroke="black" points="347.09,-220.2 343.59,-210.2 340.09,-220.2 347.09,-220.2"/>
<text text-anchor="middle" x="447.09" y="-231.8" font-family="Times,serif" font-size="14.00">षष्ठी_तत्पुरुषः</text>
</g>
<!-- Node10_2&#45;&gt;Node9_1 -->
<g id="edge11" class="edge">
<title>Node10_2&#45;&gt;Node9_1</title>
<path fill="none" stroke="black" d="M343.59,-307.27C343.59,-320.58 343.59,-336.19 343.59,-347.82"/>
<polygon fill="black" stroke="black" points="347.09,-307.2 343.59,-297.2 340.09,-307.2 347.09,-307.2"/>
<text text-anchor="middle" x="372.59" y="-318.8" font-family="Times,serif" font-size="14.00">कर्म</text>
</g>
</g>
</svg>
