<?xml version="1.0" encoding="UTF-8" standalone="no"?>
<!DOCTYPE svg PUBLIC "-//W3C//DTD SVG 1.1//EN"
 "http://www.w3.org/Graphics/SVG/1.1/DTD/svg11.dtd">
<!-- Generated by graphviz version 2.43.0 (0)
 -->
<!-- Title: G Pages: 1 -->
<svg width="864pt" height="566pt"
 viewBox="0.00 0.00 864.45 566.00" xmlns="http://www.w3.org/2000/svg" xmlns:xlink="http://www.w3.org/1999/xlink">
<g id="graph0" class="graph" transform="scale(1 1) rotate(0) translate(4 562)">
<title>G</title>
<polygon fill="#fffacd" stroke="transparent" points="-4,4 -4,-562 860.45,-562 860.45,4 -4,4"/>
<g id="clust1" class="cluster">
<title>cluster_1</title>
<polygon fill="#fffacd" stroke="black" points="8,-340 8,-479 157,-479 157,-340 8,-340"/>
</g>
<g id="clust2" class="cluster">
<title>cluster_2</title>
<polygon fill="#fffacd" stroke="black" points="206,-79 206,-218 436,-218 436,-79 206,-79"/>
</g>
<g id="clust3" class="cluster">
<title>cluster_3</title>
<polygon fill="#fffacd" stroke="black" points="337,-340 337,-479 559,-479 559,-340 337,-340"/>
</g>
<!-- Node1_1 -->
<g id="node1" class="node">
<title>Node1_1</title>
<ellipse fill="#00bfff" stroke="#00bfff" cx="67" cy="-366" rx="50.89" ry="18"/>
<text text-anchor="middle" x="67" y="-362.3" font-family="Times,serif" font-size="14.00">सः(1.1)</text>
</g>
<!-- Node5_2 -->
<g id="node2" class="node">
<title>Node5_2</title>
<ellipse fill="#00bfff" stroke="#00bfff" cx="89" cy="-453" rx="59.59" ry="18"/>
<text text-anchor="middle" x="89" y="-449.3" font-family="Times,serif" font-size="14.00">बलः(5.2)</text>
</g>
<!-- Node1_1&#45;&gt;Node5_2 -->
<g id="edge1" class="edge">
<title>Node1_1&#45;&gt;Node5_2</title>
<path fill="none" stroke="black" d="M60.96,-394.2C60.32,-401.73 60.62,-409.81 63,-417 65.19,-423.61 69.16,-429.99 73.35,-435.45"/>
<polygon fill="black" stroke="black" points="64.46,-394.45 62.37,-384.06 57.53,-393.48 64.46,-394.45"/>
<text text-anchor="middle" x="120.5" y="-405.8" font-family="Times,serif" font-size="14.00">विशेषणम्</text>
</g>
<!-- Node11_1 -->
<g id="node10" class="node">
<title>Node11_1</title>
<ellipse fill="#ff1975" stroke="#ff1975" cx="604" cy="-540" rx="84.49" ry="18"/>
<text text-anchor="middle" x="604" y="-536.3" font-family="Times,serif" font-size="14.00">ददर्श(11.1)</text>
</g>
<!-- Node5_2&#45;&gt;Node11_1 -->
<g id="edge7" class="edge">
<title>Node5_2&#45;&gt;Node11_1</title>
<path fill="none" stroke="black" d="M150.31,-464.12C248.29,-480.29 439.28,-511.81 539.34,-528.33"/>
<polygon fill="black" stroke="black" points="150.7,-460.64 140.26,-462.46 149.56,-467.54 150.7,-460.64"/>
<text text-anchor="middle" x="413" y="-492.8" font-family="Times,serif" font-size="14.00">कर्ता</text>
</g>
<!-- Node3_2 -->
<g id="node3" class="node">
<title>Node3_2</title>
<ellipse fill="#93db70" stroke="#93db70" cx="321" cy="-105" rx="106.68" ry="18"/>
<text text-anchor="middle" x="321" y="-101.3" font-family="Times,serif" font-size="14.00">आधृष्यम्(3.2)</text>
</g>
<!-- Node2_1 -->
<g id="node4" class="node">
<title>Node2_1</title>
<ellipse fill="#93db70" stroke="#93db70" cx="326" cy="-192" rx="87.99" ry="18"/>
<text text-anchor="middle" x="326" y="-188.3" font-family="Times,serif" font-size="14.00">सागरम्(2.1)</text>
</g>
<!-- Node3_2&#45;&gt;Node2_1 -->
<g id="edge4" class="edge">
<title>Node3_2&#45;&gt;Node2_1</title>
<path fill="none" stroke="black" d="M322.6,-133.27C323.39,-146.58 324.31,-162.19 324.99,-173.82"/>
<polygon fill="black" stroke="black" points="326.09,-132.98 322.01,-123.2 319.11,-133.39 326.09,-132.98"/>
<text text-anchor="middle" x="380.5" y="-144.8" font-family="Times,serif" font-size="14.00">विशेषणम्</text>
</g>
<!-- Node4_1 -->
<g id="node7" class="node">
<title>Node4_1</title>
<ellipse fill="#ff99ff" stroke="#ff99ff" cx="335" cy="-279" rx="115.88" ry="18"/>
<text text-anchor="middle" x="335" y="-275.3" font-family="Times,serif" font-size="14.00">अतिक्रम्य(4.1)</text>
</g>
<!-- Node2_1&#45;&gt;Node4_1 -->
<g id="edge2" class="edge">
<title>Node2_1&#45;&gt;Node4_1</title>
<path fill="none" stroke="black" d="M328.89,-220.27C330.3,-233.58 331.95,-249.19 333.18,-260.82"/>
<polygon fill="black" stroke="black" points="332.35,-219.78 327.82,-210.2 325.39,-220.51 332.35,-219.78"/>
<text text-anchor="middle" x="360" y="-231.8" font-family="Times,serif" font-size="14.00">कर्म</text>
</g>
<!-- Node9_1 -->
<g id="node5" class="node">
<title>Node9_1</title>
<ellipse fill="#00bfff" stroke="#00bfff" cx="436" cy="-366" rx="87.99" ry="18"/>
<text text-anchor="middle" x="436" y="-362.3" font-family="Times,serif" font-size="14.00">स्थितः(9.1)</text>
</g>
<!-- Node10_1 -->
<g id="node6" class="node">
<title>Node10_1</title>
<ellipse fill="#00bfff" stroke="#00bfff" cx="448" cy="-453" rx="102.88" ry="18"/>
<text text-anchor="middle" x="448" y="-449.3" font-family="Times,serif" font-size="14.00">स्वस्थः(10.1)</text>
</g>
<!-- Node9_1&#45;&gt;Node10_1 -->
<g id="edge12" class="edge">
<title>Node9_1&#45;&gt;Node10_1</title>
<path fill="none" stroke="black" d="M439.85,-394.27C441.73,-407.58 443.93,-423.19 445.58,-434.82"/>
<polygon fill="black" stroke="black" points="443.29,-393.61 438.43,-384.2 436.36,-394.59 443.29,-393.61"/>
<text text-anchor="middle" x="499.5" y="-405.8" font-family="Times,serif" font-size="14.00">विशेषणम्</text>
</g>
<!-- Node10_1&#45;&gt;Node11_1 -->
<g id="edge13" class="edge">
<title>Node10_1&#45;&gt;Node11_1</title>
<path fill="none" stroke="black" d="M486.96,-475.23C514.2,-490.07 550.01,-509.58 574.81,-523.09"/>
<polygon fill="black" stroke="black" points="488.53,-472.1 478.08,-470.39 485.18,-478.25 488.53,-472.1"/>
<text text-anchor="middle" x="571" y="-492.8" font-family="Times,serif" font-size="14.00">कर्ता</text>
</g>
<!-- Node4_1&#45;&gt;Node9_1 -->
<g id="edge5" class="edge">
<title>Node4_1&#45;&gt;Node9_1</title>
<path fill="none" stroke="black" d="M341.41,-306.83C344.43,-315.06 348.79,-323.62 355,-330 363.76,-339 375.22,-345.83 386.75,-350.95"/>
<polygon fill="black" stroke="black" points="344.69,-305.61 338.34,-297.13 338.02,-307.72 344.69,-305.61"/>
<text text-anchor="middle" x="419.5" y="-318.8" font-family="Times,serif" font-size="14.00">पूर्वकालः</text>
</g>
<!-- Node3_1 -->
<g id="node8" class="node">
<title>Node3_1</title>
<ellipse fill="#ffff00" stroke="#ffff00" cx="321" cy="-18" rx="63.09" ry="18"/>
<text text-anchor="middle" x="321" y="-14.3" font-family="Times,serif" font-size="14.00">अन्&#45;(3.1)</text>
</g>
<!-- Node3_1&#45;&gt;Node3_2 -->
<g id="edge3" class="edge">
<title>Node3_1&#45;&gt;Node3_2</title>
<path fill="none" stroke="black" d="M321,-46.27C321,-59.58 321,-75.19 321,-86.82"/>
<polygon fill="black" stroke="black" points="324.5,-46.2 321,-36.2 317.5,-46.2 324.5,-46.2"/>
<text text-anchor="middle" x="410" y="-57.8" font-family="Times,serif" font-size="14.00">नञ्_तत्पुरुषः</text>
</g>
<!-- Node5_1 -->
<g id="node9" class="node">
<title>Node5_1</title>
<ellipse fill="#ffff00" stroke="#ffff00" cx="228" cy="-366" rx="63.09" ry="18"/>
<text text-anchor="middle" x="228" y="-362.3" font-family="Times,serif" font-size="14.00">महा&#45;(5.1)</text>
</g>
<!-- Node5_1&#45;&gt;Node5_2 -->
<g id="edge6" class="edge">
<title>Node5_1&#45;&gt;Node5_2</title>
<path fill="none" stroke="black" d="M207.63,-391.24C199.17,-400.22 188.8,-409.92 178,-417 163.42,-426.55 145.83,-434.16 130.15,-439.81"/>
<polygon fill="black" stroke="black" points="210.42,-393.38 214.55,-383.63 205.23,-388.68 210.42,-393.38"/>
<text text-anchor="middle" x="261.5" y="-405.8" font-family="Times,serif" font-size="14.00">कर्मधारयः</text>
</g>
<!-- Node6_1 -->
<g id="node11" class="node">
<title>Node6_1</title>
<ellipse fill="#ffff00" stroke="#ffff00" cx="532" cy="-105" rx="72.29" ry="18"/>
<text text-anchor="middle" x="532" y="-101.3" font-family="Times,serif" font-size="14.00">त्रि&#45;(6.1)</text>
</g>
<!-- Node6_2 -->
<g id="node12" class="node">
<title>Node6_2</title>
<ellipse fill="#87ceeb" stroke="#87ceeb" cx="532" cy="-192" rx="87.99" ry="18"/>
<text text-anchor="middle" x="532" y="-188.3" font-family="Times,serif" font-size="14.00">कूटस्य(6.2)</text>
</g>
<!-- Node6_1&#45;&gt;Node6_2 -->
<g id="edge8" class="edge">
<title>Node6_1&#45;&gt;Node6_2</title>
<path fill="none" stroke="black" d="M532,-133.27C532,-146.58 532,-162.19 532,-173.82"/>
<polygon fill="black" stroke="black" points="535.5,-133.2 532,-123.2 528.5,-133.2 535.5,-133.2"/>
<text text-anchor="middle" x="603.5" y="-144.8" font-family="Times,serif" font-size="14.00">बहुव्रीहिः</text>
</g>
<!-- Node7_1 -->
<g id="node13" class="node">
<title>Node7_1</title>
<ellipse fill="#c6e2eb" stroke="#c6e2eb" cx="530" cy="-279" rx="59.59" ry="18"/>
<text text-anchor="middle" x="530" y="-275.3" font-family="Times,serif" font-size="14.00">तटे(7.1)</text>
</g>
<!-- Node6_2&#45;&gt;Node7_1 -->
<g id="edge9" class="edge">
<title>Node6_2&#45;&gt;Node7_1</title>
<path fill="none" stroke="black" d="M531.36,-220.27C531.05,-233.58 530.68,-249.19 530.4,-260.82"/>
<polygon fill="black" stroke="black" points="534.86,-220.28 531.6,-210.2 527.86,-220.12 534.86,-220.28"/>
<text text-anchor="middle" x="624" y="-231.8" font-family="Times,serif" font-size="14.00">षष्ठीसम्बन्धः</text>
</g>
<!-- Node7_1&#45;&gt;Node9_1 -->
<g id="edge10" class="edge">
<title>Node7_1&#45;&gt;Node9_1</title>
<path fill="none" stroke="black" d="M511.4,-304.88C504.52,-313.32 496.35,-322.5 488,-330 480.47,-336.77 471.55,-343.24 463.24,-348.73"/>
<polygon fill="black" stroke="black" points="514.35,-306.8 517.82,-296.79 508.86,-302.45 514.35,-306.8"/>
<text text-anchor="middle" x="579.5" y="-318.8" font-family="Times,serif" font-size="14.00">देशाधिकरणम्</text>
</g>
<!-- Node8_1 -->
<g id="node14" class="node">
<title>Node8_1</title>
<ellipse fill="#93db70" stroke="#93db70" cx="656" cy="-453" rx="87.99" ry="18"/>
<text text-anchor="middle" x="656" y="-449.3" font-family="Times,serif" font-size="14.00">लङ्कां(8.1)</text>
</g>
<!-- Node8_1&#45;&gt;Node11_1 -->
<g id="edge11" class="edge">
<title>Node8_1&#45;&gt;Node11_1</title>
<path fill="none" stroke="black" d="M640.24,-479.75C631.84,-493.49 621.73,-510.01 614.33,-522.11"/>
<polygon fill="black" stroke="black" points="643.24,-481.56 645.48,-471.2 637.27,-477.9 643.24,-481.56"/>
<text text-anchor="middle" x="662" y="-492.8" font-family="Times,serif" font-size="14.00">कर्म</text>
</g>
<!-- Node12_1 -->
<g id="node15" class="node">
<title>Node12_1</title>
<ellipse fill="#ff99ff" stroke="#ff99ff" cx="809" cy="-453" rx="47.39" ry="18"/>
<text text-anchor="middle" x="809" y="-449.3" font-family="Times,serif" font-size="14.00">ह(12.1)</text>
</g>
<!-- Node12_1&#45;&gt;Node11_1 -->
<g id="edge14" class="edge">
<title>Node12_1&#45;&gt;Node11_1</title>
<path fill="none" stroke="black" d="M770.17,-471.41C764.42,-473.97 758.56,-476.56 753,-479 727.29,-490.28 720.99,-493.4 695,-504 678.38,-510.77 659.93,-517.94 644,-524.01"/>
<polygon fill="black" stroke="black" points="771.97,-474.44 779.68,-467.18 769.12,-468.05 771.97,-474.44"/>
<text text-anchor="middle" x="786.5" y="-492.8" font-family="Times,serif" font-size="14.00">सम्बन्धः</text>
</g>
</g>
</svg>
