<svg xmlns="http://www.w3.org/2000/svg" xmlns:xlink="http://www.w3.org/1999/xlink" width="1300" height="392pt" viewBox="0 0 975 392"><g id="graph0" class="graph" transform="scale(1 1) rotate(0) translate(4 388)"><title>G</title><polygon fill="#fffacd" stroke="transparent" points="-4 4 -4 -388 971 -388 971 4 -4 4"/><g id="clust1" class="cluster"><title>cluster_1</title><polygon fill="#fffacd" stroke="#000" points="8 -166 8 -305 200 -305 200 -166 8 -166"/></g><g id="clust2" class="cluster"><title>cluster_2</title><polygon fill="#fffacd" stroke="#000" points="208 -166 208 -305 438 -305 438 -166 208 -166"/></g><g id="clust3" class="cluster"><title>cluster_3</title><polygon fill="#fffacd" stroke="#000" points="492 -79 492 -218 915 -218 915 -79 492 -79"/></g><g id="node1" class="node"><title>Node1_1</title><ellipse cx="77" cy="-192" fill="#40e0d0" stroke="#40e0d0" rx="59.59" ry="18"/><text x="77" y="-188.3" font-family="Times,serif" font-size="14" text-anchor="middle">केन(1.1)</text></g><g id="node2" class="node"><title>Node2_1</title><ellipse cx="104" cy="-279" fill="#40e0d0" stroke="#40e0d0" rx="87.99" ry="18"/><text x="104" y="-275.3" font-family="Times,serif" font-size="14" text-anchor="middle">उपायेन(2.1)</text></g><g id="edge1" class="edge"><title>Node1_1-&gt;Node2_1</title><path fill="none" stroke="#000" d="M82.67,-220.32C84.45,-227.75 86.59,-235.74 89,-243 90.96,-248.9 93.5,-255.18 95.93,-260.78"/><polygon fill="#000" stroke="#000" points="86.03 -219.3 80.4 -210.33 79.21 -220.85 86.03 -219.3"/><text x="146.5" y="-231.8" font-family="Times,serif" font-size="14" text-anchor="middle">विशेषणम्</text></g><g id="node8" class="node"><title>Node3_1</title><ellipse cx="323" cy="-366" fill="#ff1975" stroke="#ff1975" rx="106.68" ry="18"/><text x="323" y="-362.3" font-family="Times,serif" font-size="14" text-anchor="middle">पश्येयम्(3.1)</text></g><g id="edge2" class="edge"><title>Node2_1-&gt;Node3_1</title><path fill="none" stroke="#000" d="M152.71,-298.91C191.67,-314.03 245.66,-334.98 282.33,-349.22"/><polygon fill="#000" stroke="#000" points="153.74 -295.55 143.15 -295.2 151.21 -302.08 153.74 -295.55"/><text x="263" y="-318.8" font-family="Times,serif" font-size="14" text-anchor="middle">करणम्</text></g><g id="node3" class="node"><title>Node5_2</title><ellipse cx="323" cy="-192" fill="#93db70" stroke="#93db70" rx="106.68" ry="18"/><text x="323" y="-188.3" font-family="Times,serif" font-size="14" text-anchor="middle">आत्मजाम्(5.2)</text></g><g id="node4" class="node"><title>Node4_1</title><ellipse cx="323" cy="-279" fill="#93db70" stroke="#93db70" rx="106.68" ry="18"/><text x="323" y="-275.3" font-family="Times,serif" font-size="14" text-anchor="middle">मैथिलीम्(4.1)</text></g><g id="edge5" class="edge"><title>Node5_2-&gt;Node4_1</title><path fill="none" stroke="#000" d="M323,-220.27C323,-233.58 323,-249.19 323,-260.82"/><polygon fill="#000" stroke="#000" points="326.5 -220.2 323 -210.2 319.5 -220.2 326.5 -220.2"/><text x="380.5" y="-231.8" font-family="Times,serif" font-size="14" text-anchor="middle">विशेषणम्</text></g><g id="edge3" class="edge"><title>Node4_1-&gt;Node3_1</title><path fill="none" stroke="#000" d="M323,-307.27C323,-320.58 323,-336.19 323,-347.82"/><polygon fill="#000" stroke="#000" points="326.5 -307.2 323 -297.2 319.5 -307.2 326.5 -307.2"/><text x="352" y="-318.8" font-family="Times,serif" font-size="14" text-anchor="middle">कर्म</text></g><g id="node5" class="node"><title>Node7_2</title><ellipse cx="607" cy="-105" fill="#40e0d0" stroke="#40e0d0" rx="106.68" ry="18"/><text x="607" y="-101.3" font-family="Times,serif" font-size="14" text-anchor="middle">इन्द्रेण(7.2)</text></g><g id="node6" class="node"><title>Node8_1</title><ellipse cx="607" cy="-192" fill="#40e0d0" stroke="#40e0d0" rx="87.99" ry="18"/><text x="607" y="-188.3" font-family="Times,serif" font-size="14" text-anchor="middle">रावणेन(8.1)</text></g><g id="edge8" class="edge"><title>Node7_2-&gt;Node8_1</title><path fill="none" stroke="#000" d="M607,-133.27C607,-146.58 607,-162.19 607,-173.82"/><polygon fill="#000" stroke="#000" points="610.5 -133.2 607 -123.2 603.5 -133.2 610.5 -133.2"/><text x="664.5" y="-144.8" font-family="Times,serif" font-size="14" text-anchor="middle">विशेषणम्</text></g><g id="node10" class="node"><title>Node6_1</title><ellipse cx="572" cy="-279" fill="#00bfff" stroke="#00bfff" rx="96.68" ry="18"/><text x="572" y="-275.3" font-family="Times,serif" font-size="14" text-anchor="middle">अदृष्टः(6.1)</text></g><g id="edge9" class="edge"><title>Node8_1-&gt;Node6_1</title><path fill="none" stroke="#000" d="M596.1,-219.48C590.55,-232.96 583.96,-248.96 579.07,-260.82"/><polygon fill="#000" stroke="#000" points="599.35 -220.78 599.92 -210.2 592.87 -218.12 599.35 -220.78"/><text x="627" y="-231.8" font-family="Times,serif" font-size="14" text-anchor="middle">कर्ता</text></g><g id="node7" class="node"><title>Node9_2</title><ellipse cx="819" cy="-105" fill="#40e0d0" stroke="#40e0d0" rx="87.99" ry="18"/><text x="819" y="-101.3" font-family="Times,serif" font-size="14" text-anchor="middle">आत्मना(9.2)</text></g><g id="edge11" class="edge"><title>Node9_2-&gt;Node8_1</title><path fill="none" stroke="#000" d="M783.45,-127.36C766.46,-136.98 745.6,-147.95 726,-156 705.18,-164.55 681.53,-171.95 660.83,-177.72"/><polygon fill="#000" stroke="#000" points="785.53 -130.2 792.46 -122.18 782.04 -124.13 785.53 -130.2"/><text x="814.5" y="-144.8" font-family="Times,serif" font-size="14" text-anchor="middle">विशेषणम्</text></g><g id="node9" class="node"><title>Node5_1</title><ellipse cx="277" cy="-105" fill="#ff0" stroke="#ff0" rx="63.09" ry="18"/><text x="277" y="-101.3" font-family="Times,serif" font-size="14" text-anchor="middle">जनक-(5.1)</text></g><g id="edge4" class="edge"><title>Node5_1-&gt;Node5_2</title><path fill="none" stroke="#000" d="M275.33,-133.19C275.85,-140.91 277.42,-149.09 281,-156 284.67,-163.08 290.45,-169.28 296.56,-174.42"/><polygon fill="#000" stroke="#000" points="278.83 -133.05 275.17 -123.11 271.83 -133.16 278.83 -133.05"/><text x="384.5" y="-144.8" font-family="Times,serif" font-size="14" text-anchor="middle">षष्ठी_तत्पुरुषः</text></g><g id="edge6" class="edge"><title>Node6_1-&gt;Node3_1</title><path fill="none" stroke="#000" d="M518.22,-298.36C473.4,-313.66 410.28,-335.2 368.08,-349.61"/><polygon fill="#000" stroke="#000" points="519.44 -301.64 527.77 -295.1 517.18 -295.02 519.44 -301.64"/><text x="499" y="-318.8" font-family="Times,serif" font-size="14" text-anchor="middle">कर्ता</text></g><g id="node11" class="node"><title>Node7_1</title><ellipse cx="598" cy="-18" fill="#ff0" stroke="#ff0" rx="90.98" ry="18"/><text x="598" y="-14.3" font-family="Times,serif" font-size="14" text-anchor="middle">राक्षस-(7.1)</text></g><g id="edge7" class="edge"><title>Node7_1-&gt;Node7_2</title><path fill="none" stroke="#000" d="M597.54,-46.41C597.69,-53.77 598.1,-61.7 599,-69 599.72,-74.82 600.98,-81.08 602.3,-86.68"/><polygon fill="#000" stroke="#000" points="601.04 -46.17 597.48 -36.19 594.04 -46.21 601.04 -46.17"/><text x="702.5" y="-57.8" font-family="Times,serif" font-size="14" text-anchor="middle">षष्ठी_तत्पुरुषः</text></g><g id="node12" class="node"><title>Node9_1</title><ellipse cx="828" cy="-18" fill="#ff0" stroke="#ff0" rx="72.29" ry="18"/><text x="828" y="-14.3" font-family="Times,serif" font-size="14" text-anchor="middle">दुरा-(9.1)</text></g><g id="edge10" class="edge"><title>Node9_1-&gt;Node9_2</title><path fill="none" stroke="#000" d="M825.11,-46.27C823.7,-59.58 822.05,-75.19 820.82,-86.82"/><polygon fill="#000" stroke="#000" points="828.61 -46.51 826.18 -36.2 821.65 -45.78 828.61 -46.51"/><text x="895.5" y="-57.8" font-family="Times,serif" font-size="14" text-anchor="middle">बहुव्रीहिः</text></g></g></svg>