<svg xmlns="http://www.w3.org/2000/svg" xmlns:xlink="http://www.w3.org/1999/xlink" width="5315pt" height="653pt" viewBox="0 0 5314.64 653"><g id="graph0" class="graph" transform="scale(1 1) rotate(0) translate(4 649)"><title>G</title><polygon fill="#fffacd" stroke="transparent" points="-4 4 -4 -649 5310.64 -649 5310.64 4 -4 4"/><g id="clust1" class="cluster"><title>cluster_1</title><polygon fill="#fffacd" stroke="#000" points="774.64 -253 774.64 -392 5063.64 -392 5063.64 -253 774.64 -253"/></g><g id="clust2" class="cluster"><title>cluster_2</title><polygon fill="#fffacd" stroke="#000" points="775.64 -79 775.64 -218 1005.64 -218 1005.64 -79 775.64 -79"/></g><g id="clust3" class="cluster"><title>cluster_3</title><polygon fill="#fffacd" stroke="#000" points="1013.64 -79 1013.64 -218 1459.64 -218 1459.64 -79 1013.64 -79"/></g><g id="node1" class="node"><title>Node1_4</title><ellipse cx="1445.64" cy="-279" fill="#93db70" stroke="#93db70" rx="96.68" ry="18"/><text x="1445.64" y="-275.3" font-family="Times,serif" font-size="14" text-anchor="middle">आढ्याम्(1.4)</text></g><g id="node2" class="node"><title>Node2_1</title><ellipse cx="2431.64" cy="-366" fill="#93db70" stroke="#93db70" rx="87.99" ry="18"/><text x="2431.64" y="-362.3" font-family="Times,serif" font-size="14" text-anchor="middle">पुरीम्(2.1)</text></g><g id="edge4" class="edge"><title>Node1_4-&gt;Node2_1</title><path fill="none" stroke="#000" d="M1512.69,-295.86C1564.09,-307.35 1636.94,-322.17 1701.64,-330 1932.31,-357.91 2206.51,-363.8 2343.93,-364.89"/><polygon fill="#000" stroke="#000" points="1513.23 -292.4 1502.71 -293.61 1511.69 -299.22 1513.23 -292.4"/><text x="1759.14" y="-318.8" font-family="Times,serif" font-size="14" text-anchor="middle">विशेषणम्</text></g><g id="node27" class="node"><title>Node34_1</title><ellipse cx="2431.64" cy="-453" fill="#f9f" stroke="#f9f" rx="93.68" ry="18"/><text x="2431.64" y="-449.3" font-family="Times,serif" font-size="14" text-anchor="middle">आसाद्य(34.1)</text></g><g id="edge5" class="edge"><title>Node2_1-&gt;Node34_1</title><path fill="none" stroke="#000" d="M2431.64,-394.27C2431.64,-407.58 2431.64,-423.19 2431.64,-434.82"/><polygon fill="#000" stroke="#000" points="2435.14 -394.2 2431.64 -384.2 2428.14 -394.2 2435.14 -394.2"/><text x="2460.64" y="-405.8" font-family="Times,serif" font-size="14" text-anchor="middle">कर्म</text></g><g id="node3" class="node"><title>Node3_2</title><ellipse cx="1666.64" cy="-279" fill="#93db70" stroke="#93db70" rx="106.68" ry="18"/><text x="1666.64" y="-275.3" font-family="Times,serif" font-size="14" text-anchor="middle">पालिताम्(3.2)</text></g><g id="edge7" class="edge"><title>Node3_2-&gt;Node2_1</title><path fill="none" stroke="#000" d="M1734.17,-296.61C1782.25,-307.8 1848.55,-321.94 1907.64,-330 2060.76,-350.9 2240.83,-359.46 2345.04,-362.87"/><polygon fill="#000" stroke="#000" points="1734.73 -293.15 1724.2 -294.28 1733.14 -299.97 1734.73 -293.15"/><text x="1965.14" y="-318.8" font-family="Times,serif" font-size="14" text-anchor="middle">विशेषणम्</text></g><g id="node4" class="node"><title>Node6_1</title><ellipse cx="907.64" cy="-279" fill="#93db70" stroke="#93db70" rx="124.58" ry="18"/><text x="907.64" y="-275.3" font-family="Times,serif" font-size="14" text-anchor="middle">उपशोभिताम्(6.1)</text></g><g id="edge12" class="edge"><title>Node6_1-&gt;Node2_1</title><path fill="none" stroke="#000" d="M994.12,-294.89C1065.82,-306.59 1170.54,-322.16 1262.64,-330 1665.49,-364.3 2148.91,-366.41 2343.83,-365.66"/><polygon fill="#000" stroke="#000" points="994.66 -291.44 984.23 -293.27 993.53 -298.34 994.66 -291.44"/><text x="1320.14" y="-318.8" font-family="Times,serif" font-size="14" text-anchor="middle">विशेषणम्</text></g><g id="node5" class="node"><title>Node7_3</title><ellipse cx="1915.64" cy="-279" fill="#93db70" stroke="#93db70" rx="124.58" ry="18"/><text x="1915.64" y="-275.3" font-family="Times,serif" font-size="14" text-anchor="middle">निर्घोषाम्(7.3)</text></g><g id="edge15" class="edge"><title>Node7_3-&gt;Node2_1</title><path fill="none" stroke="#000" d="M1972.01,-298.84C2006.01,-309.52 2050.4,-322.25 2090.64,-330 2177.57,-346.74 2278.6,-355.85 2348.01,-360.53"/><polygon fill="#000" stroke="#000" points="1972.85 -295.44 1962.26 -295.75 1970.73 -302.11 1972.85 -295.44"/><text x="2148.14" y="-318.8" font-family="Times,serif" font-size="14" text-anchor="middle">विशेषणम्</text></g><g id="node6" class="node"><title>Node8_3</title><ellipse cx="2781.64" cy="-279" fill="#93db70" stroke="#93db70" rx="106.68" ry="18"/><text x="2781.64" y="-275.3" font-family="Times,serif" font-size="14" text-anchor="middle">सेविताम्(8.3)</text></g><g id="edge18" class="edge"><title>Node8_3-&gt;Node2_1</title><path fill="none" stroke="#000" d="M2731.72,-299.31C2703.79,-309.56 2668.15,-321.7 2635.64,-330 2592.29,-341.07 2542.86,-349.65 2503.51,-355.54"/><polygon fill="#000" stroke="#000" points="2733.1 -302.54 2741.26 -295.78 2730.67 -295.97 2733.1 -302.54"/><text x="2741.14" y="-318.8" font-family="Times,serif" font-size="14" text-anchor="middle">विशेषणम्</text></g><g id="node7" class="node"><title>Node9_3</title><ellipse cx="3039.64" cy="-279" fill="#93db70" stroke="#93db70" rx="133.78" ry="18"/><text x="3039.64" y="-275.3" font-family="Times,serif" font-size="14" text-anchor="middle">सम्पुष्टाम्(9.3)</text></g><g id="edge21" class="edge"><title>Node9_3-&gt;Node2_1</title><path fill="none" stroke="#000" d="M2968.36,-297.25C2921.51,-308.04 2858.72,-321.47 2802.64,-330 2704.14,-344.99 2589.89,-354.61 2514.49,-359.9"/><polygon fill="#000" stroke="#000" points="2969.16 -300.66 2978.11 -294.99 2967.58 -293.84 2969.16 -300.66"/><text x="2938.14" y="-318.8" font-family="Times,serif" font-size="14" text-anchor="middle">विशेषणम्</text></g><g id="node8" class="node"><title>Node13_3</title><ellipse cx="3322.64" cy="-279" fill="#93db70" stroke="#93db70" rx="130.78" ry="18"/><text x="3322.64" y="-275.3" font-family="Times,serif" font-size="14" text-anchor="middle">निर्यूहाम्(13.3)</text></g><g id="edge27" class="edge"><title>Node13_3-&gt;Node2_1</title><path fill="none" stroke="#000" d="M3236.68,-295.51C3171.77,-306.69 3080.37,-321.28 2999.64,-330 2829.21,-348.4 2628.9,-357.94 2517.49,-362.17"/><polygon fill="#000" stroke="#000" points="3237.61 -298.9 3246.87 -293.75 3236.42 -292.01 3237.61 -298.9"/><text x="3163.14" y="-318.8" font-family="Times,serif" font-size="14" text-anchor="middle">विशेषणम्</text></g><g id="node9" class="node"><title>Node14_3</title><ellipse cx="3573.64" cy="-279" fill="#93db70" stroke="#93db70" rx="102.88" ry="18"/><text x="3573.64" y="-275.3" font-family="Times,serif" font-size="14" text-anchor="middle">तोरणाम्(14.3)</text></g><g id="edge30" class="edge"><title>Node14_3-&gt;Node2_1</title><path fill="none" stroke="#000" d="M3493.22,-293.92C3422.66,-305.55 3317.16,-321.56 3224.64,-330 2968.86,-353.33 2665.2,-361.24 2518.95,-363.82"/><polygon fill="#000" stroke="#000" points="3494.07 -297.32 3503.37 -292.23 3492.93 -290.42 3494.07 -297.32"/><text x="3407.14" y="-318.8" font-family="Times,serif" font-size="14" text-anchor="middle">विशेषणम्</text></g><g id="node10" class="node"><title>Node15_2</title><ellipse cx="3806.64" cy="-279" fill="#93db70" stroke="#93db70" rx="112.38" ry="18"/><text x="3806.64" y="-275.3" font-family="Times,serif" font-size="14" text-anchor="middle">आचरिताम्(15.2)</text></g><g id="edge32" class="edge"><title>Node15_2-&gt;Node2_1</title><path fill="none" stroke="#000" d="M3725.12,-294.7C3656.85,-306.38 3556.72,-322.02 3468.64,-330 3118.13,-361.74 2698.63,-365.42 2519.59,-365.38"/><polygon fill="#000" stroke="#000" points="3726.12 -298.08 3735.38 -292.94 3724.93 -291.18 3726.12 -298.08"/><text x="3647.14" y="-318.8" font-family="Times,serif" font-size="14" text-anchor="middle">विशेषणम्</text></g><g id="node11" class="node"><title>Node16_1</title><ellipse cx="2544.64" cy="-279" fill="#93db70" stroke="#93db70" rx="112.38" ry="18"/><text x="2544.64" y="-275.3" font-family="Times,serif" font-size="14" text-anchor="middle">गुप्ताम्(16.1)</text></g><g id="edge33" class="edge"><title>Node16_1-&gt;Node2_1</title><path fill="none" stroke="#000" d="M2525.72,-305.17C2518.5,-313.73 2509.78,-322.91 2500.64,-330 2490.87,-337.57 2479.21,-344.22 2468.28,-349.63"/><polygon fill="#000" stroke="#000" points="2528.57 -307.22 2532.16 -297.25 2523.14 -302.8 2528.57 -307.22"/><text x="2574.14" y="-318.8" font-family="Times,serif" font-size="14" text-anchor="middle">विशेषणम्</text></g><g id="node12" class="node"><title>Node17_1</title><ellipse cx="2320.64" cy="-279" fill="#93db70" stroke="#93db70" rx="93.68" ry="18"/><text x="2320.64" y="-275.3" font-family="Times,serif" font-size="14" text-anchor="middle">शुभाम्(17.1)</text></g><g id="edge34" class="edge"><title>Node17_1-&gt;Node2_1</title><path fill="none" stroke="#000" d="M2350.38,-302.93C2361.44,-311.45 2374.1,-321.18 2385.64,-330 2393.45,-335.98 2402.02,-342.51 2409.63,-348.29"/><polygon fill="#000" stroke="#000" points="2352.34 -300.02 2342.28 -296.7 2348.07 -305.57 2352.34 -300.02"/><text x="2443.14" y="-318.8" font-family="Times,serif" font-size="14" text-anchor="middle">विशेषणम्</text></g><g id="node13" class="node"><title>Node20_1</title><ellipse cx="2133.64" cy="-279" fill="#93db70" stroke="#93db70" rx="75.29" ry="18"/><text x="2133.64" y="-275.3" font-family="Times,serif" font-size="14" text-anchor="middle">ताम्(20.1)</text></g><g id="edge37" class="edge"><title>Node20_1-&gt;Node2_1</title><path fill="none" stroke="#000" d="M2173.42,-299.89C2195.19,-310.11 2222.91,-322.05 2248.64,-330 2284.95,-341.22 2326.48,-349.51 2360.79,-355.2"/><polygon fill="#000" stroke="#000" points="2174.7 -296.63 2164.17 -295.49 2171.69 -302.95 2174.7 -296.63"/><text x="2306.14" y="-318.8" font-family="Times,serif" font-size="14" text-anchor="middle">विशेषणम्</text></g><g id="node14" class="node"><title>Node21_4</title><ellipse cx="4058.64" cy="-279" fill="#93db70" stroke="#93db70" rx="121.58" ry="18"/><text x="4058.64" y="-275.3" font-family="Times,serif" font-size="14" text-anchor="middle">आकीर्णाम्(21.4)</text></g><g id="edge41" class="edge"><title>Node21_4-&gt;Node2_1</title><path fill="none" stroke="#000" d="M3973.63,-294.92C3902.95,-306.66 3799.58,-322.28 3708.64,-330 3476.87,-349.67 2767.63,-360.6 2518.93,-363.91"/><polygon fill="#000" stroke="#000" points="3974.53 -298.32 3983.82 -293.22 3973.38 -291.42 3974.53 -298.32"/><text x="3891.14" y="-318.8" font-family="Times,serif" font-size="14" text-anchor="middle">विशेषणम्</text></g><g id="node15" class="node"><title>Node22_3</title><ellipse cx="4328.64" cy="-279" fill="#93db70" stroke="#93db70" rx="130.78" ry="18"/><text x="4328.64" y="-275.3" font-family="Times,serif" font-size="14" text-anchor="middle">निषेविताम्(22.3)</text></g><g id="edge44" class="edge"><title>Node22_3-&gt;Node2_1</title><path fill="none" stroke="#000" d="M4238.21,-294.85C4162.23,-306.64 4050.66,-322.38 3952.64,-330 3671.2,-351.89 2799.36,-361.62 2519.25,-364.24"/><polygon fill="#000" stroke="#000" points="4238.89 -298.28 4248.23 -293.28 4237.81 -291.37 4238.89 -298.28"/><text x="4144.14" y="-318.8" font-family="Times,serif" font-size="14" text-anchor="middle">विशेषणम्</text></g><g id="node16" class="node"><title>Node23_3</title><ellipse cx="4626.64" cy="-279" fill="#93db70" stroke="#93db70" rx="149.47" ry="18"/><text x="4626.64" y="-275.3" font-family="Times,serif" font-size="14" text-anchor="middle">निर्ह्रादाम्(23.3)</text></g><g id="edge47" class="edge"><title>Node23_3-&gt;Node2_1</title><path fill="none" stroke="#000" d="M4526.22,-294.75C4441.09,-306.57 4315.65,-322.4 4205.64,-330 3872.11,-353.04 2828.79,-362.17 2519.13,-364.42"/><polygon fill="#000" stroke="#000" points="4526.71 -298.21 4536.13 -293.36 4525.75 -291.28 4526.71 -298.21"/><text x="4413.14" y="-318.8" font-family="Times,serif" font-size="14" text-anchor="middle">विशेषणम्</text></g><g id="node17" class="node"><title>Node33_1</title><ellipse cx="4924.64" cy="-279" fill="#93db70" stroke="#93db70" rx="130.78" ry="18"/><text x="4924.64" y="-275.3" font-family="Times,serif" font-size="14" text-anchor="middle">अलङ्कृताम्(33.1)</text></g><g id="edge59" class="edge"><title>Node33_1-&gt;Node2_1</title><path fill="none" stroke="#000" d="M4826.46,-293.72C4735.46,-305.77 4596.2,-322.5 4474.64,-330 4085.5,-354 2858.39,-362.59 2519.24,-364.54"/><polygon fill="#000" stroke="#000" points="4827.03 -297.17 4836.49 -292.38 4826.11 -290.23 4827.03 -297.17"/><text x="4705.14" y="-318.8" font-family="Times,serif" font-size="14" text-anchor="middle">विशेषणम्</text></g><g id="node18" class="node"><title>Node39_1</title><ellipse cx="1190.64" cy="-279" fill="#93db70" stroke="#93db70" rx="139.98" ry="18"/><text x="1190.64" y="-275.3" font-family="Times,serif" font-size="14" text-anchor="middle">अभिसंवृताम्(39.1)</text></g><g id="edge64" class="edge"><title>Node39_1-&gt;Node2_1</title><path fill="none" stroke="#000" d="M1272.03,-296.52C1331.94,-307.97 1415.52,-322.46 1489.64,-330 1802.65,-361.85 2176.79,-365.6 2343.72,-365.5"/><polygon fill="#000" stroke="#000" points="1272.36 -293.02 1261.88 -294.57 1271.04 -299.89 1272.36 -293.02"/><text x="1547.14" y="-318.8" font-family="Times,serif" font-size="14" text-anchor="middle">विशेषणम्</text></g><g id="node19" class="node"><title>Node4_3</title><ellipse cx="890.64" cy="-105" fill="#40e0d0" stroke="#40e0d0" rx="106.68" ry="18"/><text x="890.64" y="-101.3" font-family="Times,serif" font-size="14" text-anchor="middle">प्रख्यैः(4.3)</text></g><g id="node20" class="node"><title>Node5_1</title><ellipse cx="894.64" cy="-192" fill="#40e0d0" stroke="#40e0d0" rx="78.79" ry="18"/><text x="894.64" y="-188.3" font-family="Times,serif" font-size="14" text-anchor="middle">भवनैः(5.1)</text></g><g id="edge10" class="edge"><title>Node4_3-&gt;Node5_1</title><path fill="none" stroke="#000" d="M891.92,-133.27C892.55,-146.58 893.28,-162.19 893.83,-173.82"/><polygon fill="#000" stroke="#000" points="895.41 -133.03 891.45 -123.2 888.42 -133.35 895.41 -133.03"/><text x="950.14" y="-144.8" font-family="Times,serif" font-size="14" text-anchor="middle">विशेषणम्</text></g><g id="edge11" class="edge"><title>Node5_1-&gt;Node6_1</title><path fill="none" stroke="#000" d="M898.81,-220.27C900.84,-233.58 903.23,-249.19 905.01,-260.82"/><polygon fill="#000" stroke="#000" points="902.24 -219.56 897.27 -210.2 895.32 -220.62 902.24 -219.56"/><text x="937.64" y="-231.8" font-family="Times,serif" font-size="14" text-anchor="middle">करणम्</text></g><g id="node21" class="node"><title>Node28_1</title><ellipse cx="1320.64" cy="-105" fill="#40e0d0" stroke="#40e0d0" rx="130.78" ry="18"/><text x="1320.64" y="-101.3" font-family="Times,serif" font-size="14" text-anchor="middle">शातकुम्भेन(28.1)</text></g><g id="node22" class="node"><title>Node30_1</title><ellipse cx="1190.64" cy="-192" fill="#40e0d0" stroke="#40e0d0" rx="121.58" ry="18"/><text x="1190.64" y="-188.3" font-family="Times,serif" font-size="14" text-anchor="middle">प्राकारेण(30.1)</text></g><g id="edge52" class="edge"><title>Node28_1-&gt;Node30_1</title><path fill="none" stroke="#000" d="M1298.1,-130.41C1289.17,-139.2 1278.47,-148.73 1267.64,-156 1256.79,-163.29 1244.18,-169.74 1232.34,-175.05"/><polygon fill="#000" stroke="#000" points="1300.61 -132.85 1305.14 -123.28 1295.62 -127.94 1300.61 -132.85"/><text x="1343.14" y="-144.8" font-family="Times,serif" font-size="14" text-anchor="middle">विशेषणम्</text></g><g id="edge54" class="edge"><title>Node30_1-&gt;Node39_1</title><path fill="none" stroke="#000" d="M1190.64,-220.27C1190.64,-233.58 1190.64,-249.19 1190.64,-260.82"/><polygon fill="#000" stroke="#000" points="1194.14 -220.2 1190.64 -210.2 1187.14 -220.2 1194.14 -220.2"/><text x="1226.64" y="-231.8" font-family="Times,serif" font-size="14" text-anchor="middle">करणम्</text></g><g id="node23" class="node"><title>Node29_1</title><ellipse cx="1096.64" cy="-105" fill="#40e0d0" stroke="#40e0d0" rx="75.29" ry="18"/><text x="1096.64" y="-101.3" font-family="Times,serif" font-size="14" text-anchor="middle">महता(29.1)</text></g><g id="edge53" class="edge"><title>Node29_1-&gt;Node30_1</title><path fill="none" stroke="#000" d="M1122.94,-129.78C1138.47,-143.83 1157.77,-161.28 1171.78,-173.95"/><polygon fill="#000" stroke="#000" points="1124.97 -126.9 1115.21 -122.79 1120.28 -132.1 1124.97 -126.9"/><text x="1206.14" y="-144.8" font-family="Times,serif" font-size="14" text-anchor="middle">विशेषणम्</text></g><g id="node24" class="node"><title>Node1_1</title><ellipse cx="1541.64" cy="-18" fill="#ff0" stroke="#ff0" rx="72.29" ry="18"/><text x="1541.64" y="-14.3" font-family="Times,serif" font-size="14" text-anchor="middle">रम्य-(1.1)</text></g><g id="node25" class="node"><title>Node1_2</title><ellipse cx="1541.64" cy="-105" fill="#ff0" stroke="#ff0" rx="72.29" ry="18"/><text x="1541.64" y="-101.3" font-family="Times,serif" font-size="14" text-anchor="middle">कानन-(1.2)</text></g><g id="edge1" class="edge"><title>Node1_1-&gt;Node1_2</title><path fill="none" stroke="#000" d="M1541.64,-46.27C1541.64,-59.58 1541.64,-75.19 1541.64,-86.82"/><polygon fill="#000" stroke="#000" points="1545.14 -46.2 1541.64 -36.2 1538.14 -46.2 1545.14 -46.2"/><text x="1606.14" y="-57.8" font-family="Times,serif" font-size="14" text-anchor="middle">कर्मधारयः</text></g><g id="node26" class="node"><title>Node1_3</title><ellipse cx="1533.64" cy="-192" fill="#ff0" stroke="#ff0" rx="63.09" ry="18"/><text x="1533.64" y="-188.3" font-family="Times,serif" font-size="14" text-anchor="middle">तोय-(1.3)</text></g><g id="edge2" class="edge"><title>Node1_2-&gt;Node1_3</title><path fill="none" stroke="#000" d="M1539.07,-133.27C1537.82,-146.58 1536.35,-162.19 1535.25,-173.82"/><polygon fill="#000" stroke="#000" points="1542.57 -133.49 1540.02 -123.2 1535.6 -132.83 1542.57 -133.49"/><text x="1602.14" y="-144.8" font-family="Times,serif" font-size="14" text-anchor="middle">द्वन्द्वः</text></g><g id="edge3" class="edge"><title>Node1_3-&gt;Node1_4</title><path fill="none" stroke="#000" d="M1482.84,-209.56C1468.31,-215.31 1455.17,-221.86 1450.64,-228 1443.8,-237.27 1442.69,-250.27 1443.21,-260.69"/><polygon fill="#000" stroke="#000" points="1484.4 -212.72 1492.52 -205.91 1481.92 -206.17 1484.4 -212.72"/><text x="1561.14" y="-231.8" font-family="Times,serif" font-size="14" text-anchor="middle">तृतीया_तत्पुरुषः</text></g><g id="node62" class="node"><title>Node36_1</title><ellipse cx="2325.64" cy="-540" fill="#00bfff" stroke="#00bfff" rx="93.68" ry="18"/><text x="2325.64" y="-536.3" font-family="Times,serif" font-size="14" text-anchor="middle">हृष्टः(36.1)</text></g><g id="edge60" class="edge"><title>Node34_1-&gt;Node36_1</title><path fill="none" stroke="#000" d="M2411.15,-478.5C2403.33,-487.09 2394.03,-496.47 2384.64,-504 2376,-510.93 2365.85,-517.44 2356.43,-522.93"/><polygon fill="#000" stroke="#000" points="2413.87 -480.71 2417.88 -470.9 2408.63 -476.07 2413.87 -480.71"/><text x="2464.14" y="-492.8" font-family="Times,serif" font-size="14" text-anchor="middle">पूर्वकालः</text></g><g id="node28" class="node"><title>Node3_1</title><ellipse cx="1688.64" cy="-192" fill="#ff0" stroke="#ff0" rx="72.29" ry="18"/><text x="1688.64" y="-188.3" font-family="Times,serif" font-size="14" text-anchor="middle">रावण-(3.1)</text></g><g id="edge6" class="edge"><title>Node3_1-&gt;Node3_2</title><path fill="none" stroke="#000" d="M1681.58,-220.27C1678.14,-233.58 1674.09,-249.19 1671.08,-260.82"/><polygon fill="#000" stroke="#000" points="1685.07 -220.76 1684.19 -210.2 1678.29 -219.01 1685.07 -220.76"/><text x="1782.14" y="-231.8" font-family="Times,serif" font-size="14" text-anchor="middle">षष्ठी_तत्पुरुषः</text></g><g id="node29" class="node"><title>Node4_1</title><ellipse cx="795.64" cy="-18" fill="#ff0" stroke="#ff0" rx="72.29" ry="18"/><text x="795.64" y="-14.3" font-family="Times,serif" font-size="14" text-anchor="middle">शारद-(4.1)</text></g><g id="edge8" class="edge"><title>Node4_1-&gt;Node4_3</title><path fill="none" stroke="#000" d="M812.52,-44.12C818.88,-52.57 826.54,-61.7 834.64,-69 842.3,-75.91 851.5,-82.28 860.2,-87.65"/><polygon fill="#000" stroke="#000" points="815.33 -42.03 806.63 -35.98 809.66 -46.13 815.33 -42.03"/><text x="899.14" y="-57.8" font-family="Times,serif" font-size="14" text-anchor="middle">कर्मधारयः</text></g><g id="node30" class="node"><title>Node4_2</title><ellipse cx="985.64" cy="-18" fill="#ff0" stroke="#ff0" rx="100.18" ry="18"/><text x="985.64" y="-14.3" font-family="Times,serif" font-size="14" text-anchor="middle">अम्बुधर-(4.2)</text></g><g id="edge9" class="edge"><title>Node4_2-&gt;Node4_3</title><path fill="none" stroke="#000" d="M977.94,-45.7C974.58,-53.92 969.92,-62.51 963.64,-69 955.82,-77.08 945.76,-83.53 935.62,-88.57"/><polygon fill="#000" stroke="#000" points="981.33 -46.62 981.43 -36.02 974.75 -44.24 981.33 -46.62"/><text x="1038.14" y="-57.8" font-family="Times,serif" font-size="14" text-anchor="middle">कर्मधारयः</text></g><g id="node31" class="node"><title>Node7_1</title><ellipse cx="1918.64" cy="-105" fill="#ff0" stroke="#ff0" rx="72.29" ry="18"/><text x="1918.64" y="-101.3" font-family="Times,serif" font-size="14" text-anchor="middle">सागर-(7.1)</text></g><g id="node32" class="node"><title>Node7_2</title><ellipse cx="1918.64" cy="-192" fill="#ff0" stroke="#ff0" rx="63.09" ry="18"/><text x="1918.64" y="-188.3" font-family="Times,serif" font-size="14" text-anchor="middle">उपम-(7.2)</text></g><g id="edge13" class="edge"><title>Node7_1-&gt;Node7_2</title><path fill="none" stroke="#000" d="M1918.64,-133.27C1918.64,-146.58 1918.64,-162.19 1918.64,-173.82"/><polygon fill="#000" stroke="#000" points="1922.14 -133.2 1918.64 -123.2 1915.14 -133.2 1922.14 -133.2"/><text x="1983.14" y="-144.8" font-family="Times,serif" font-size="14" text-anchor="middle">कर्मधारयः</text></g><g id="edge14" class="edge"><title>Node7_2-&gt;Node7_3</title><path fill="none" stroke="#000" d="M1917.68,-220.27C1917.21,-233.58 1916.66,-249.19 1916.24,-260.82"/><polygon fill="#000" stroke="#000" points="1921.18 -220.32 1918.03 -210.2 1914.18 -220.07 1921.18 -220.32"/><text x="1988.14" y="-231.8" font-family="Times,serif" font-size="14" text-anchor="middle">बहुव्रीहिः</text></g><g id="node33" class="node"><title>Node8_1</title><ellipse cx="2781.64" cy="-105" fill="#ff0" stroke="#ff0" rx="72.29" ry="18"/><text x="2781.64" y="-101.3" font-family="Times,serif" font-size="14" text-anchor="middle">सागर-(8.1)</text></g><g id="node34" class="node"><title>Node8_2</title><ellipse cx="2781.64" cy="-192" fill="#ff0" stroke="#ff0" rx="72.29" ry="18"/><text x="2781.64" y="-188.3" font-family="Times,serif" font-size="14" text-anchor="middle">अनिल-(8.2)</text></g><g id="edge16" class="edge"><title>Node8_1-&gt;Node8_2</title><path fill="none" stroke="#000" d="M2781.64,-133.27C2781.64,-146.58 2781.64,-162.19 2781.64,-173.82"/><polygon fill="#000" stroke="#000" points="2785.14 -133.2 2781.64 -123.2 2778.14 -133.2 2785.14 -133.2"/><text x="2846.14" y="-144.8" font-family="Times,serif" font-size="14" text-anchor="middle">द्वन्द्वः</text></g><g id="edge17" class="edge"><title>Node8_2-&gt;Node8_3</title><path fill="none" stroke="#000" d="M2781.64,-220.27C2781.64,-233.58 2781.64,-249.19 2781.64,-260.82"/><polygon fill="#000" stroke="#000" points="2785.14 -220.2 2781.64 -210.2 2778.14 -220.2 2785.14 -220.2"/><text x="2892.14" y="-231.8" font-family="Times,serif" font-size="14" text-anchor="middle">तृतीया_तत्पुरुषः</text></g><g id="node35" class="node"><title>Node9_1</title><ellipse cx="3039.64" cy="-105" fill="#ff0" stroke="#ff0" rx="100.18" ry="18"/><text x="3039.64" y="-101.3" font-family="Times,serif" font-size="14" text-anchor="middle">सुपुष्ट-(9.1)</text></g><g id="node36" class="node"><title>Node9_2</title><ellipse cx="3039.64" cy="-192" fill="#ff0" stroke="#ff0" rx="53.89" ry="18"/><text x="3039.64" y="-188.3" font-family="Times,serif" font-size="14" text-anchor="middle">बल-(9.2)</text></g><g id="edge19" class="edge"><title>Node9_1-&gt;Node9_2</title><path fill="none" stroke="#000" d="M3039.64,-133.27C3039.64,-146.58 3039.64,-162.19 3039.64,-173.82"/><polygon fill="#000" stroke="#000" points="3043.14 -133.2 3039.64 -123.2 3036.14 -133.2 3043.14 -133.2"/><text x="3104.14" y="-144.8" font-family="Times,serif" font-size="14" text-anchor="middle">कर्मधारयः</text></g><g id="edge20" class="edge"><title>Node9_2-&gt;Node9_3</title><path fill="none" stroke="#000" d="M3039.64,-220.27C3039.64,-233.58 3039.64,-249.19 3039.64,-260.82"/><polygon fill="#000" stroke="#000" points="3043.14 -220.2 3039.64 -210.2 3036.14 -220.2 3043.14 -220.2"/><text x="3150.14" y="-231.8" font-family="Times,serif" font-size="14" text-anchor="middle">तृतीया_तत्पुरुषः</text></g><g id="node37" class="node"><title>Node10_1</title><ellipse cx="130.64" cy="-192" fill="#f9f" stroke="#f9f" rx="65.79" ry="18"/><text x="130.64" y="-188.3" font-family="Times,serif" font-size="14" text-anchor="middle">यथा(10.1)</text></g><g id="node38" class="node"><title>Node12_1</title><ellipse cx="130.64" cy="-279" fill="#93db70" stroke="#93db70" rx="130.78" ry="18"/><text x="130.64" y="-275.3" font-family="Times,serif" font-size="14" text-anchor="middle">विटपावतीम्(12.1)</text></g><g id="edge22" class="edge"><title>Node10_1-&gt;Node12_1</title><path fill="none" stroke="#000" d="M130.64,-220.27C130.64,-233.58 130.64,-249.19 130.64,-260.82"/><polygon fill="#000" stroke="#000" points="134.14 -220.2 130.64 -210.2 127.14 -220.2 134.14 -220.2"/><text x="219.64" y="-231.8" font-family="Times,serif" font-size="14" text-anchor="middle">उपमान_द्योतकः</text></g><g id="edge24" class="edge"><title>Node12_1-&gt;Node2_1</title><path fill="none" stroke="#000" d="M223.67,-294.46C304.56,-306.36 425.04,-322.45 530.64,-330 890.24,-355.71 2020.23,-363.03 2344.09,-364.62"/><polygon fill="#000" stroke="#000" points="223.91 -290.96 213.51 -292.96 222.89 -297.89 223.91 -290.96"/><text x="580.64" y="-318.8" font-family="Times,serif" font-size="14" text-anchor="middle">उपमानम्</text></g><g id="node39" class="node"><title>Node11_1</title><ellipse cx="130.64" cy="-105" fill="#f9f" stroke="#f9f" rx="56.59" ry="18"/><text x="130.64" y="-101.3" font-family="Times,serif" font-size="14" text-anchor="middle">एव(11.1)</text></g><g id="edge23" class="edge"><title>Node11_1-&gt;Node10_1</title><path fill="none" stroke="#000" d="M130.64,-133.27C130.64,-146.58 130.64,-162.19 130.64,-173.82"/><polygon fill="#000" stroke="#000" points="134.14 -133.2 130.64 -123.2 127.14 -133.2 134.14 -133.2"/><text x="188.14" y="-144.8" font-family="Times,serif" font-size="14" text-anchor="middle">सम्बन्धः</text></g><g id="node40" class="node"><title>Node13_1</title><ellipse cx="3322.64" cy="-105" fill="#ff0" stroke="#ff0" rx="77.99" ry="18"/><text x="3322.64" y="-101.3" font-family="Times,serif" font-size="14" text-anchor="middle">चारु-(13.1)</text></g><g id="node41" class="node"><title>Node13_2</title><ellipse cx="3322.64" cy="-192" fill="#ff0" stroke="#ff0" rx="77.99" ry="18"/><text x="3322.64" y="-188.3" font-family="Times,serif" font-size="14" text-anchor="middle">तोरण-(13.2)</text></g><g id="edge25" class="edge"><title>Node13_1-&gt;Node13_2</title><path fill="none" stroke="#000" d="M3322.64,-133.27C3322.64,-146.58 3322.64,-162.19 3322.64,-173.82"/><polygon fill="#000" stroke="#000" points="3326.14 -133.2 3322.64 -123.2 3319.14 -133.2 3326.14 -133.2"/><text x="3387.14" y="-144.8" font-family="Times,serif" font-size="14" text-anchor="middle">कर्मधारयः</text></g><g id="edge26" class="edge"><title>Node13_2-&gt;Node13_3</title><path fill="none" stroke="#000" d="M3322.64,-220.27C3322.64,-233.58 3322.64,-249.19 3322.64,-260.82"/><polygon fill="#000" stroke="#000" points="3326.14 -220.2 3322.64 -210.2 3319.14 -220.2 3326.14 -220.2"/><text x="3433.14" y="-231.8" font-family="Times,serif" font-size="14" text-anchor="middle">तृतीया_तत्पुरुषः</text></g><g id="node42" class="node"><title>Node14_1</title><ellipse cx="3573.64" cy="-105" fill="#ff0" stroke="#ff0" rx="105.88" ry="18"/><text x="3573.64" y="-101.3" font-family="Times,serif" font-size="14" text-anchor="middle">पाण्डुर-(14.1)</text></g><g id="node43" class="node"><title>Node14_2</title><ellipse cx="3573.64" cy="-192" fill="#ff0" stroke="#ff0" rx="87.18" ry="18"/><text x="3573.64" y="-188.3" font-family="Times,serif" font-size="14" text-anchor="middle">द्वार-(14.2)</text></g><g id="edge28" class="edge"><title>Node14_1-&gt;Node14_2</title><path fill="none" stroke="#000" d="M3573.64,-133.27C3573.64,-146.58 3573.64,-162.19 3573.64,-173.82"/><polygon fill="#000" stroke="#000" points="3577.14 -133.2 3573.64 -123.2 3570.14 -133.2 3577.14 -133.2"/><text x="3638.14" y="-144.8" font-family="Times,serif" font-size="14" text-anchor="middle">कर्मधारयः</text></g><g id="edge29" class="edge"><title>Node14_2-&gt;Node14_3</title><path fill="none" stroke="#000" d="M3573.64,-220.27C3573.64,-233.58 3573.64,-249.19 3573.64,-260.82"/><polygon fill="#000" stroke="#000" points="3577.14 -220.2 3573.64 -210.2 3570.14 -220.2 3577.14 -220.2"/><text x="3645.14" y="-231.8" font-family="Times,serif" font-size="14" text-anchor="middle">बहुव्रीहिः</text></g><g id="node44" class="node"><title>Node15_1</title><ellipse cx="3806.64" cy="-192" fill="#ff0" stroke="#ff0" rx="77.99" ry="18"/><text x="3806.64" y="-188.3" font-family="Times,serif" font-size="14" text-anchor="middle">भुजग-(15.1)</text></g><g id="edge31" class="edge"><title>Node15_1-&gt;Node15_2</title><path fill="none" stroke="#000" d="M3806.64,-220.27C3806.64,-233.58 3806.64,-249.19 3806.64,-260.82"/><polygon fill="#000" stroke="#000" points="3810.14 -220.2 3806.64 -210.2 3803.14 -220.2 3810.14 -220.2"/><text x="3917.14" y="-231.8" font-family="Times,serif" font-size="14" text-anchor="middle">तृतीया_तत्पुरुषः</text></g><g id="node45" class="node"><title>Node18_1</title><ellipse cx="391.64" cy="-279" fill="#93db70" stroke="#93db70" rx="112.38" ry="18"/><text x="391.64" y="-275.3" font-family="Times,serif" font-size="14" text-anchor="middle">भोगवतीम्(18.1)</text></g><g id="edge35" class="edge"><title>Node18_1-&gt;Node2_1</title><path fill="none" stroke="#000" d="M478.45,-293.77C558.5,-305.79 680.75,-322.47 787.64,-330 1094.48,-351.62 2049.7,-361.64 2344.26,-364.27"/><polygon fill="#000" stroke="#000" points="478.83 -290.28 468.42 -292.25 477.78 -297.2 478.83 -290.28"/><text x="837.64" y="-318.8" font-family="Times,serif" font-size="14" text-anchor="middle">उपमानम्</text></g><g id="node46" class="node"><title>Node19_1</title><ellipse cx="391.64" cy="-192" fill="#f9f" stroke="#f9f" rx="56.59" ry="18"/><text x="391.64" y="-188.3" font-family="Times,serif" font-size="14" text-anchor="middle">इव(19.1)</text></g><g id="edge36" class="edge"><title>Node19_1-&gt;Node18_1</title><path fill="none" stroke="#000" d="M391.64,-220.27C391.64,-233.58 391.64,-249.19 391.64,-260.82"/><polygon fill="#000" stroke="#000" points="395.14 -220.2 391.64 -210.2 388.14 -220.2 395.14 -220.2"/><text x="480.64" y="-231.8" font-family="Times,serif" font-size="14" text-anchor="middle">उपमान_द्योतकः</text></g><g id="node47" class="node"><title>Node21_1</title><ellipse cx="4058.64" cy="-18" fill="#ff0" stroke="#ff0" rx="50.09" ry="18"/><text x="4058.64" y="-14.3" font-family="Times,serif" font-size="14" text-anchor="middle">स-(21.1)</text></g><g id="node48" class="node"><title>Node21_2</title><ellipse cx="4058.64" cy="-105" fill="#ff0" stroke="#ff0" rx="115.08" ry="18"/><text x="4058.64" y="-101.3" font-family="Times,serif" font-size="14" text-anchor="middle">विद्युत्-(21.2)</text></g><g id="edge38" class="edge"><title>Node21_1-&gt;Node21_2</title><path fill="none" stroke="#000" d="M4058.64,-46.27C4058.64,-59.58 4058.64,-75.19 4058.64,-86.82"/><polygon fill="#000" stroke="#000" points="4062.14 -46.2 4058.64 -36.2 4055.14 -46.2 4062.14 -46.2"/><text x="4130.14" y="-57.8" font-family="Times,serif" font-size="14" text-anchor="middle">बहुव्रीहिः</text></g><g id="node49" class="node"><title>Node21_3</title><ellipse cx="4058.64" cy="-192" fill="#ff0" stroke="#ff0" rx="59.59" ry="18"/><text x="4058.64" y="-188.3" font-family="Times,serif" font-size="14" text-anchor="middle">घन-(21.3)</text></g><g id="edge39" class="edge"><title>Node21_2-&gt;Node21_3</title><path fill="none" stroke="#000" d="M4058.64,-133.27C4058.64,-146.58 4058.64,-162.19 4058.64,-173.82"/><polygon fill="#000" stroke="#000" points="4062.14 -133.2 4058.64 -123.2 4055.14 -133.2 4062.14 -133.2"/><text x="4123.14" y="-144.8" font-family="Times,serif" font-size="14" text-anchor="middle">कर्मधारयः</text></g><g id="edge40" class="edge"><title>Node21_3-&gt;Node21_4</title><path fill="none" stroke="#000" d="M4058.64,-220.27C4058.64,-233.58 4058.64,-249.19 4058.64,-260.82"/><polygon fill="#000" stroke="#000" points="4062.14 -220.2 4058.64 -210.2 4055.14 -220.2 4062.14 -220.2"/><text x="4169.14" y="-231.8" font-family="Times,serif" font-size="14" text-anchor="middle">तृतीया_तत्पुरुषः</text></g><g id="node50" class="node"><title>Node22_1</title><ellipse cx="4328.64" cy="-105" fill="#ff0" stroke="#ff0" rx="96.68" ry="18"/><text x="4328.64" y="-101.3" font-family="Times,serif" font-size="14" text-anchor="middle">ज्योति-(22.1)</text></g><g id="node51" class="node"><title>Node22_2</title><ellipse cx="4328.64" cy="-192" fill="#ff0" stroke="#ff0" rx="59.59" ry="18"/><text x="4328.64" y="-188.3" font-family="Times,serif" font-size="14" text-anchor="middle">गण-(22.2)</text></g><g id="edge42" class="edge"><title>Node22_1-&gt;Node22_2</title><path fill="none" stroke="#000" d="M4328.64,-133.27C4328.64,-146.58 4328.64,-162.19 4328.64,-173.82"/><polygon fill="#000" stroke="#000" points="4332.14 -133.2 4328.64 -123.2 4325.14 -133.2 4332.14 -133.2"/><text x="4432.14" y="-144.8" font-family="Times,serif" font-size="14" text-anchor="middle">षष्ठी_तत्पुरुषः</text></g><g id="edge43" class="edge"><title>Node22_2-&gt;Node22_3</title><path fill="none" stroke="#000" d="M4328.64,-220.27C4328.64,-233.58 4328.64,-249.19 4328.64,-260.82"/><polygon fill="#000" stroke="#000" points="4332.14 -220.2 4328.64 -210.2 4325.14 -220.2 4332.14 -220.2"/><text x="4439.14" y="-231.8" font-family="Times,serif" font-size="14" text-anchor="middle">तृतीया_तत्पुरुषः</text></g><g id="node52" class="node"><title>Node23_1</title><ellipse cx="4626.64" cy="-105" fill="#ff0" stroke="#ff0" rx="77.99" ry="18"/><text x="4626.64" y="-101.3" font-family="Times,serif" font-size="14" text-anchor="middle">चण्ड-(23.1)</text></g><g id="node53" class="node"><title>Node23_2</title><ellipse cx="4626.64" cy="-192" fill="#ff0" stroke="#ff0" rx="87.18" ry="18"/><text x="4626.64" y="-188.3" font-family="Times,serif" font-size="14" text-anchor="middle">मारुत-(23.2)</text></g><g id="edge45" class="edge"><title>Node23_1-&gt;Node23_2</title><path fill="none" stroke="#000" d="M4626.64,-133.27C4626.64,-146.58 4626.64,-162.19 4626.64,-173.82"/><polygon fill="#000" stroke="#000" points="4630.14 -133.2 4626.64 -123.2 4623.14 -133.2 4630.14 -133.2"/><text x="4691.14" y="-144.8" font-family="Times,serif" font-size="14" text-anchor="middle">कर्मधारयः</text></g><g id="edge46" class="edge"><title>Node23_2-&gt;Node23_3</title><path fill="none" stroke="#000" d="M4626.64,-220.27C4626.64,-233.58 4626.64,-249.19 4626.64,-260.82"/><polygon fill="#000" stroke="#000" points="4630.14 -220.2 4626.64 -210.2 4623.14 -220.2 4630.14 -220.2"/><text x="4698.14" y="-231.8" font-family="Times,serif" font-size="14" text-anchor="middle">बहुव्रीहिः</text></g><g id="node54" class="node"><title>Node24_1</title><ellipse cx="643.64" cy="-192" fill="#f9f" stroke="#f9f" rx="65.79" ry="18"/><text x="643.64" y="-188.3" font-family="Times,serif" font-size="14" text-anchor="middle">यथा(24.1)</text></g><g id="node55" class="node"><title>Node27_1</title><ellipse cx="643.64" cy="-279" fill="#93db70" stroke="#93db70" rx="121.58" ry="18"/><text x="643.64" y="-275.3" font-family="Times,serif" font-size="14" text-anchor="middle">अमरावतीम्(27.1)</text></g><g id="edge48" class="edge"><title>Node24_1-&gt;Node27_1</title><path fill="none" stroke="#000" d="M643.64,-220.27C643.64,-233.58 643.64,-249.19 643.64,-260.82"/><polygon fill="#000" stroke="#000" points="647.14 -220.2 643.64 -210.2 640.14 -220.2 647.14 -220.2"/><text x="732.64" y="-231.8" font-family="Times,serif" font-size="14" text-anchor="middle">उपमान_द्योतकः</text></g><g id="edge51" class="edge"><title>Node27_1-&gt;Node2_1</title><path fill="none" stroke="#000" d="M733,-294.27C811.26,-306.12 928.17,-322.24 1030.64,-330 1287.65,-349.47 2078.9,-360.69 2344.03,-363.97"/><polygon fill="#000" stroke="#000" points="733.11 -290.75 722.69 -292.7 732.05 -297.67 733.11 -290.75"/><text x="1080.64" y="-318.8" font-family="Times,serif" font-size="14" text-anchor="middle">उपमानम्</text></g><g id="node56" class="node"><title>Node25_1</title><ellipse cx="510.64" cy="-105" fill="#f9f" stroke="#f9f" rx="47.39" ry="18"/><text x="510.64" y="-101.3" font-family="Times,serif" font-size="14" text-anchor="middle">च(25.1)</text></g><g id="edge49" class="edge"><title>Node25_1-&gt;Node24_1</title><path fill="none" stroke="#000" d="M514.31,-133.19C516.64,-141.44 520.44,-149.92 526.64,-156 541.92,-171 563.36,-179.61 583.71,-184.54"/><polygon fill="#000" stroke="#000" points="517.72 -132.42 512.14 -123.42 510.89 -133.94 517.72 -132.42"/><text x="584.14" y="-144.8" font-family="Times,serif" font-size="14" text-anchor="middle">सम्बन्धः</text></g><g id="node57" class="node"><title>Node26_1</title><ellipse cx="648.64" cy="-105" fill="#f9f" stroke="#f9f" rx="65.79" ry="18"/><text x="648.64" y="-101.3" font-family="Times,serif" font-size="14" text-anchor="middle">अपि(26.1)</text></g><g id="edge50" class="edge"><title>Node26_1-&gt;Node24_1</title><path fill="none" stroke="#000" d="M647.03,-133.27C646.25,-146.58 645.33,-162.19 644.65,-173.82"/><polygon fill="#000" stroke="#000" points="650.53 -133.39 647.63 -123.2 643.55 -132.98 650.53 -133.39"/><text x="703.14" y="-144.8" font-family="Times,serif" font-size="14" text-anchor="middle">सम्बन्धः</text></g><g id="node58" class="node"><title>Node31_1</title><ellipse cx="4880.64" cy="-105" fill="#ff0" stroke="#ff0" rx="115.08" ry="18"/><text x="4880.64" y="-101.3" font-family="Times,serif" font-size="14" text-anchor="middle">किङ्किणी-(31.1)</text></g><g id="node59" class="node"><title>Node31_3</title><ellipse cx="4902.64" cy="-192" fill="#40e0d0" stroke="#40e0d0" rx="102.88" ry="18"/><text x="4902.64" y="-188.3" font-family="Times,serif" font-size="14" text-anchor="middle">घोषाभिः(31.3)</text></g><g id="edge55" class="edge"><title>Node31_1-&gt;Node31_3</title><path fill="none" stroke="#000" d="M4878.65,-133.46C4878.79,-140.89 4879.58,-148.85 4881.64,-156 4883.44,-162.27 4886.66,-168.55 4890.05,-174.03"/><polygon fill="#000" stroke="#000" points="4882.15 -133.51 4878.81 -123.45 4875.15 -133.39 4882.15 -133.51"/><text x="4985.14" y="-144.8" font-family="Times,serif" font-size="14" text-anchor="middle">षष्ठी_तत्पुरुषः</text></g><g id="edge57" class="edge"><title>Node31_3-&gt;Node33_1</title><path fill="none" stroke="#000" d="M4909.7,-220.27C4913.14,-233.58 4917.18,-249.19 4920.19,-260.82"/><polygon fill="#000" stroke="#000" points="4912.98 -219.01 4907.09 -210.2 4906.21 -220.76 4912.98 -219.01"/><text x="4950.64" y="-231.8" font-family="Times,serif" font-size="14" text-anchor="middle">करणम्</text></g><g id="node60" class="node"><title>Node31_2</title><ellipse cx="5110.64" cy="-105" fill="#ff0" stroke="#ff0" rx="68.79" ry="18"/><text x="5110.64" y="-101.3" font-family="Times,serif" font-size="14" text-anchor="middle">जाल-(31.2)</text></g><g id="edge56" class="edge"><title>Node31_2-&gt;Node31_3</title><path fill="none" stroke="#000" d="M5104.13,-133.09C5100.82,-141.58 5095.9,-150.23 5088.64,-156 5083.97,-159.71 5024.72,-170.48 4974.33,-179.1"/><polygon fill="#000" stroke="#000" points="5107.53 -133.96 5107.33 -123.37 5100.88 -131.78 5107.53 -133.96"/><text x="5203.14" y="-144.8" font-family="Times,serif" font-size="14" text-anchor="middle">षष्ठी_तत्पुरुषः</text></g><g id="node61" class="node"><title>Node32_1</title><ellipse cx="5135.64" cy="-192" fill="#40e0d0" stroke="#40e0d0" rx="112.38" ry="18"/><text x="5135.64" y="-188.3" font-family="Times,serif" font-size="14" text-anchor="middle">पताकाभिः(32.1)</text></g><g id="edge58" class="edge"><title>Node32_1-&gt;Node33_1</title><path fill="none" stroke="#000" d="M5086.37,-212.85C5049.41,-227.74 4999.44,-247.87 4964.87,-261.79"/><polygon fill="#000" stroke="#000" points="5087.98 -215.97 5095.95 -208.99 5085.37 -209.48 5087.98 -215.97"/><text x="5078.64" y="-231.8" font-family="Times,serif" font-size="14" text-anchor="middle">करणम्</text></g><g id="node64" class="node"><title>Node38_1</title><ellipse cx="2132.64" cy="-627" fill="#00bfff" stroke="#00bfff" rx="139.98" ry="18"/><text x="2132.64" y="-623.3" font-family="Times,serif" font-size="14" text-anchor="middle">अभिपेदिवान्(38.1)</text></g><g id="edge62" class="edge"><title>Node36_1-&gt;Node38_1</title><path fill="none" stroke="#000" d="M2280.64,-560.82C2247,-575.63 2201.56,-595.65 2169.94,-609.57"/><polygon fill="#000" stroke="#000" points="2282.05 -564.02 2289.79 -556.79 2279.23 -557.62 2282.05 -564.02"/><text x="2276.64" y="-579.8" font-family="Times,serif" font-size="14" text-anchor="middle">कर्ता</text></g><g id="node63" class="node"><title>Node35_1</title><ellipse cx="2244.64" cy="-453" fill="#f9f" stroke="#f9f" rx="75.29" ry="18"/><text x="2244.64" y="-449.3" font-family="Times,serif" font-size="14" text-anchor="middle">सहसा(35.1)</text></g><g id="edge61" class="edge"><title>Node35_1-&gt;Node36_1</title><path fill="none" stroke="#000" d="M2254.52,-480.39C2258.41,-488.56 2263.44,-497.19 2269.64,-504 2276.35,-511.38 2284.97,-517.79 2293.42,-523.03"/><polygon fill="#000" stroke="#000" points="2257.7 -478.92 2250.49 -471.16 2251.28 -481.72 2257.7 -478.92"/><text x="2327.14" y="-492.8" font-family="Times,serif" font-size="14" text-anchor="middle">सम्बन्धः</text></g><g id="node65" class="node"><title>Node37_1</title><ellipse cx="2092.64" cy="-540" fill="#93db70" stroke="#93db70" rx="121.58" ry="18"/><text x="2092.64" y="-536.3" font-family="Times,serif" font-size="14" text-anchor="middle">प्राकारम्(37.1)</text></g><g id="edge63" class="edge"><title>Node37_1-&gt;Node38_1</title><path fill="none" stroke="#000" d="M2105.1,-567.48C2111.44,-580.96 2118.97,-596.96 2124.56,-608.82"/><polygon fill="#000" stroke="#000" points="2108.16 -565.76 2100.73 -558.2 2101.82 -568.74 2108.16 -565.76"/><text x="2143.64" y="-579.8" font-family="Times,serif" font-size="14" text-anchor="middle">कर्म</text></g></g></svg>