<svg xmlns="http://www.w3.org/2000/svg" xmlns:xlink="http://www.w3.org/1999/xlink" width="1345pt" height="392pt" viewBox="0 0 1344.54 392"><g id="graph0" class="graph" transform="scale(1 1) rotate(0) translate(4 388)"><title>G</title><polygon fill="#fffacd" stroke="transparent" points="-4 4 -4 -388 1340.54 -388 1340.54 4 -4 4"/><g id="clust1" class="cluster"><title>cluster_1</title><polygon fill="#fffacd" stroke="#000" points="637.54 -79 637.54 -218 1328.54 -218 1328.54 -79 637.54 -79"/></g><g id="node1" class="node"><title>Node3_1</title><ellipse cx="1213.54" cy="-105" fill="#00bfff" stroke="#00bfff" rx="106.68" ry="18"/><text x="1213.54" y="-101.3" font-family="Times,serif" font-size="14" text-anchor="middle">श्रीमान्(3.1)</text></g><g id="node2" class="node"><title>Node8_1</title><ellipse cx="794.54" cy="-192" fill="#00bfff" stroke="#00bfff" rx="69.59" ry="18"/><text x="794.54" y="-188.3" font-family="Times,serif" font-size="14" text-anchor="middle">कपिः(8.1)</text></g><g id="edge3" class="edge"><title>Node3_1-&gt;Node8_1</title><path fill="none" stroke="#000" d="M1156.72,-124.23C1122.48,-134.7 1077.84,-147.41 1037.54,-156 976.99,-168.9 906.93,-178.43 857.63,-184.26"/><polygon fill="#000" stroke="#000" points="1158.01 -127.5 1166.54 -121.21 1155.95 -120.81 1158.01 -127.5"/><text x="1153.04" y="-144.8" font-family="Times,serif" font-size="14" text-anchor="middle">विशेषणम्</text></g><g id="node7" class="node"><title>Node4_1</title><ellipse cx="651.54" cy="-279" fill="#f9f" stroke="#f9f" rx="106.68" ry="18"/><text x="651.54" y="-275.3" font-family="Times,serif" font-size="14" text-anchor="middle">तीर्त्वा(4.1)</text></g><g id="edge11" class="edge"><title>Node8_1-&gt;Node4_1</title><path fill="none" stroke="#000" stroke-dasharray="1 5" d="M743.91,-210.33C731.93,-215.31 719.47,-221.25 708.54,-228 693.54,-237.27 678.62,-250.53 667.82,-261.07"/><polygon fill="#000" stroke="#000" points="745.39 -213.51 753.37 -206.55 742.79 -207.01 745.39 -213.51"/><text x="744.54" y="-231.8" font-family="Times,serif" font-size="14" text-anchor="middle">कर्ता</text></g><g id="node8" class="node"><title>Node12_1</title><ellipse cx="414.54" cy="-366" fill="#ff1975" stroke="#ff1975" rx="121.58" ry="18"/><text x="414.54" y="-362.3" font-family="Times,serif" font-size="14" text-anchor="middle">अधिगच्छति(12.1)</text></g><g id="edge10" class="edge"><title>Node8_1-&gt;Node12_1</title><path fill="none" stroke="#000" d="M794.14,-220.52C792.37,-243.58 786.36,-276.02 767.54,-297 735.61,-332.6 615.41,-349.95 524.06,-358.14"/><polygon fill="#000" stroke="#000" points="797.64 -220.52 794.69 -210.35 790.65 -220.14 797.64 -220.52"/><text x="821.54" y="-275.3" font-family="Times,serif" font-size="14" text-anchor="middle">कर्ता</text></g><g id="node3" class="node"><title>Node6_2</title><ellipse cx="742.54" cy="-105" fill="#00bfff" stroke="#00bfff" rx="96.68" ry="18"/><text x="742.54" y="-101.3" font-family="Times,serif" font-size="14" text-anchor="middle">विक्रमः(6.2)</text></g><g id="edge7" class="edge"><title>Node6_2-&gt;Node8_1</title><path fill="none" stroke="#000" d="M758.3,-131.75C766.71,-145.49 776.81,-162.01 784.21,-174.11"/><polygon fill="#000" stroke="#000" points="761.27 -129.9 753.07 -123.2 755.3 -133.56 761.27 -129.9"/><text x="829.04" y="-144.8" font-family="Times,serif" font-size="14" text-anchor="middle">विशेषणम्</text></g><g id="node4" class="node"><title>Node7_2</title><ellipse cx="973.54" cy="-105" fill="#00bfff" stroke="#00bfff" rx="115.88" ry="18"/><text x="973.54" y="-101.3" font-family="Times,serif" font-size="14" text-anchor="middle">निःश्वसन्(7.2)</text></g><g id="edge9" class="edge"><title>Node7_2-&gt;Node8_1</title><path fill="none" stroke="#000" d="M940.03,-128.21C925.22,-137.48 907.39,-147.95 890.54,-156 873.42,-164.19 853.84,-171.64 836.85,-177.55"/><polygon fill="#000" stroke="#000" points="942.26 -130.94 948.82 -122.62 938.5 -125.03 942.26 -130.94"/><text x="976.04" y="-144.8" font-family="Times,serif" font-size="14" text-anchor="middle">विशेषणम्</text></g><g id="node5" class="node"><title>Node1_1</title><ellipse cx="422.54" cy="-105" fill="#87ceeb" stroke="#87ceeb" rx="115.88" ry="18"/><text x="422.54" y="-101.3" font-family="Times,serif" font-size="14" text-anchor="middle">योजनानाम्(1.1)</text></g><g id="node6" class="node"><title>Node2_1</title><ellipse cx="422.54" cy="-192" fill="#00bfff" stroke="#00bfff" rx="69.59" ry="18"/><text x="422.54" y="-188.3" font-family="Times,serif" font-size="14" text-anchor="middle">शतम्(2.1)</text></g><g id="edge1" class="edge"><title>Node1_1-&gt;Node2_1</title><path fill="none" stroke="#000" d="M422.54,-133.27C422.54,-146.58 422.54,-162.19 422.54,-173.82"/><polygon fill="#000" stroke="#000" points="426.04 -133.2 422.54 -123.2 419.04 -133.2 426.04 -133.2"/><text x="494.04" y="-144.8" font-family="Times,serif" font-size="14" text-anchor="middle">निर्धारणम्</text></g><g id="edge2" class="edge"><title>Node2_1-&gt;Node4_1</title><path fill="none" stroke="#000" d="M453.17,-215.15C467.82,-224.88 485.97,-235.72 503.54,-243 527.33,-252.85 554.46,-260.27 578.95,-265.69"/><polygon fill="#000" stroke="#000" points="454.77 -212.01 444.54 -209.28 450.84 -217.8 454.77 -212.01"/><text x="532.54" y="-231.8" font-family="Times,serif" font-size="14" text-anchor="middle">कर्म</text></g><g id="edge4" class="edge"><title>Node4_1-&gt;Node12_1</title><path fill="none" stroke="#000" d="M598.82,-298.91C556.69,-314.02 498.32,-334.95 458.65,-349.18"/><polygon fill="#000" stroke="#000" points="600.12 -302.16 608.35 -295.49 597.76 -295.57 600.12 -302.16"/><text x="612.04" y="-318.8" font-family="Times,serif" font-size="14" text-anchor="middle">पूर्वकालः</text></g><g id="node9" class="node"><title>Node5_1</title><ellipse cx="569.54" cy="-192" fill="#f9f" stroke="#f9f" rx="59.59" ry="18"/><text x="569.54" y="-188.3" font-family="Times,serif" font-size="14" text-anchor="middle">अपि(5.1)</text></g><g id="edge5" class="edge"><title>Node5_1-&gt;Node4_1</title><path fill="none" stroke="#000" d="M564.77,-220.16C564.71,-228.09 566.1,-236.38 570.54,-243 576.52,-251.9 585.29,-258.55 594.87,-263.52"/><polygon fill="#000" stroke="#000" points="568.26 -220.37 565.52 -210.13 561.28 -219.84 568.26 -220.37"/><text x="628.04" y="-231.8" font-family="Times,serif" font-size="14" text-anchor="middle">सम्बन्धः</text></g><g id="node10" class="node"><title>Node6_1</title><ellipse cx="742.54" cy="-18" fill="#ff0" stroke="#ff0" rx="81.49" ry="18"/><text x="742.54" y="-14.3" font-family="Times,serif" font-size="14" text-anchor="middle">उत्तम-(6.1)</text></g><g id="edge6" class="edge"><title>Node6_1-&gt;Node6_2</title><path fill="none" stroke="#000" d="M742.54,-46.27C742.54,-59.58 742.54,-75.19 742.54,-86.82"/><polygon fill="#000" stroke="#000" points="746.04 -46.2 742.54 -36.2 739.04 -46.2 746.04 -46.2"/><text x="814.04" y="-57.8" font-family="Times,serif" font-size="14" text-anchor="middle">बहुव्रीहिः</text></g><g id="node11" class="node"><title>Node7_1</title><ellipse cx="973.54" cy="-18" fill="#ff0" stroke="#ff0" rx="44.39" ry="18"/><text x="973.54" y="-14.3" font-family="Times,serif" font-size="14" text-anchor="middle">अ-(7.1)</text></g><g id="edge8" class="edge"><title>Node7_1-&gt;Node7_2</title><path fill="none" stroke="#000" d="M973.54,-46.27C973.54,-59.58 973.54,-75.19 973.54,-86.82"/><polygon fill="#000" stroke="#000" points="977.04 -46.2 973.54 -36.2 970.04 -46.2 977.04 -46.2"/><text x="1062.54" y="-57.8" font-family="Times,serif" font-size="14" text-anchor="middle">नञ्_तत्पुरुषः</text></g><g id="node12" class="node"><title>Node9_1</title><ellipse cx="69.54" cy="-279" fill="#f9f" stroke="#f9f" rx="69.59" ry="18"/><text x="69.54" y="-275.3" font-family="Times,serif" font-size="14" text-anchor="middle">तत्र(9.1)</text></g><g id="edge12" class="edge"><title>Node9_1-&gt;Node12_1</title><path fill="none" stroke="#000" d="M81.46,-306.12C86.9,-315.14 94.24,-324.39 103.54,-330 135.41,-349.23 222.24,-357.9 296.08,-361.81"/><polygon fill="#000" stroke="#000" points="84.52 -304.4 76.65 -297.31 78.37 -307.76 84.52 -304.4"/><text x="182.04" y="-318.8" font-family="Times,serif" font-size="14" text-anchor="middle">देशाधिकरणम्</text></g><g id="node13" class="node"><title>Node10_1</title><ellipse cx="236.54" cy="-279" fill="#f9f" stroke="#f9f" rx="47.39" ry="18"/><text x="236.54" y="-275.3" font-family="Times,serif" font-size="14" text-anchor="middle">न(10.1)</text></g><g id="edge13" class="edge"><title>Node10_1-&gt;Node12_1</title><path fill="none" stroke="#000" d="M253.98,-304.83C261.51,-313.94 271.01,-323.58 281.54,-330 297.85,-339.95 316.96,-347.09 335.51,-352.22"/><polygon fill="#000" stroke="#000" points="256.56 -302.45 247.64 -296.73 251.04 -306.76 256.56 -302.45"/><text x="346.04" y="-318.8" font-family="Times,serif" font-size="14" text-anchor="middle">प्रतिषेधः</text></g><g id="node14" class="node"><title>Node11_1</title><ellipse cx="414.54" cy="-279" fill="#93db70" stroke="#93db70" rx="112.38" ry="18"/><text x="414.54" y="-275.3" font-family="Times,serif" font-size="14" text-anchor="middle">ग्लानिम्(11.1)</text></g><g id="edge14" class="edge"><title>Node11_1-&gt;Node12_1</title><path fill="none" stroke="#000" d="M414.54,-307.27C414.54,-320.58 414.54,-336.19 414.54,-347.82"/><polygon fill="#000" stroke="#000" points="418.04 -307.2 414.54 -297.2 411.04 -307.2 418.04 -307.2"/><text x="443.54" y="-318.8" font-family="Times,serif" font-size="14" text-anchor="middle">कर्म</text></g></g></svg>