<svg xmlns="http://www.w3.org/2000/svg" xmlns:xlink="http://www.w3.org/1999/xlink" width="1003pt" height="653pt" viewBox="0 0 1002.84 653"><g id="graph0" class="graph" transform="scale(1 1) rotate(0) translate(4 649)"><title>G</title><polygon fill="#fffacd" stroke="transparent" points="-4 4 -4 -649 998.84 -649 998.84 4 -4 4"/><g id="clust1" class="cluster"><title>cluster_1</title><polygon fill="#fffacd" stroke="#000" points="623.84 -340 623.84 -479 853.84 -479 853.84 -340 623.84 -340"/></g><g id="clust2" class="cluster"><title>cluster_2</title><polygon fill="#fffacd" stroke="#000" points="526.84 -166 526.84 -305 986.84 -305 986.84 -166 526.84 -166"/></g><g id="clust3" class="cluster"><title>cluster_3</title><polygon fill="#fffacd" stroke="#000" points="218.84 -427 218.84 -566 466.84 -566 466.84 -427 218.84 -427"/></g><g id="node1" class="node"><title>Node1_1</title><ellipse cx="738.84" cy="-366" fill="#93db70" stroke="#93db70" rx="106.68" ry="18"/><text x="738.84" y="-362.3" font-family="Times,serif" font-size="14" text-anchor="middle">सन्ततान्(1.1)</text></g><g id="node2" class="node"><title>Node10_2</title><ellipse cx="728.84" cy="-453" fill="#93db70" stroke="#93db70" rx="93.68" ry="18"/><text x="728.84" y="-449.3" font-family="Times,serif" font-size="14" text-anchor="middle">आशयान्(10.2)</text></g><g id="edge1" class="edge"><title>Node1_1-&gt;Node10_2</title><path fill="none" stroke="#000" d="M735.63,-394.27C734.07,-407.58 732.23,-423.19 730.86,-434.82"/><polygon fill="#000" stroke="#000" points="739.13 -394.54 736.82 -384.2 732.17 -393.72 739.13 -394.54"/><text x="791.34" y="-405.8" font-family="Times,serif" font-size="14" text-anchor="middle">विशेषणम्</text></g><g id="node7" class="node"><title>Node5_1</title><ellipse cx="342.84" cy="-540" fill="#93db70" stroke="#93db70" rx="115.88" ry="18"/><text x="342.84" y="-536.3" font-family="Times,serif" font-size="14" text-anchor="middle">उद्यानानि(5.1)</text></g><g id="edge14" class="edge"><title>Node10_2-&gt;Node5_1</title><path fill="none" stroke="#000" d="M715.44,-480.21C709.47,-489.25 701.56,-498.48 691.84,-504 652.93,-526.12 543.63,-534.37 457.61,-537.4"/><polygon fill="#000" stroke="#000" points="718.6 -481.75 720.76 -471.38 712.6 -478.14 718.6 -481.75"/><text x="772.34" y="-492.8" font-family="Times,serif" font-size="14" text-anchor="middle">समुच्चितः</text></g><g id="node3" class="node"><title>Node2_1</title><ellipse cx="881.84" cy="-192" fill="#40e0d0" stroke="#40e0d0" rx="96.68" ry="18"/><text x="881.84" y="-188.3" font-family="Times,serif" font-size="14" text-anchor="middle">विविधैः(2.1)</text></g><g id="node4" class="node"><title>Node3_1</title><ellipse cx="738.84" cy="-279" fill="#40e0d0" stroke="#40e0d0" rx="96.68" ry="18"/><text x="738.84" y="-275.3" font-family="Times,serif" font-size="14" text-anchor="middle">वृक्षैः(3.1)</text></g><g id="edge2" class="edge"><title>Node2_1-&gt;Node3_1</title><path fill="none" stroke="#000" d="M855.36,-216.53C844.5,-225.49 831.52,-235.37 818.84,-243 806.63,-250.35 792.6,-257.02 779.73,-262.52"/><polygon fill="#000" stroke="#000" points="857.82 -219.03 863.21 -209.91 853.31 -213.68 857.82 -219.03"/><text x="897.34" y="-231.8" font-family="Times,serif" font-size="14" text-anchor="middle">विशेषणम्</text></g><g id="edge3" class="edge"><title>Node3_1-&gt;Node1_1</title><path fill="none" stroke="#000" d="M738.84,-307.27C738.84,-320.58 738.84,-336.19 738.84,-347.82"/><polygon fill="#000" stroke="#000" points="742.34 -307.2 738.84 -297.2 735.34 -307.2 742.34 -307.2"/><text x="774.84" y="-318.8" font-family="Times,serif" font-size="14" text-anchor="middle">करणम्</text></g><g id="node5" class="node"><title>Node4_4</title><ellipse cx="650.84" cy="-192" fill="#40e0d0" stroke="#40e0d0" rx="115.88" ry="18"/><text x="650.84" y="-188.3" font-family="Times,serif" font-size="14" text-anchor="middle">पुष्पितैः(4.4)</text></g><g id="edge7" class="edge"><title>Node4_4-&gt;Node3_1</title><path fill="none" stroke="#000" d="M675.89,-217.2C690.42,-231.23 708.35,-248.55 721.36,-261.11"/><polygon fill="#000" stroke="#000" points="678.27 -214.63 668.65 -210.2 673.41 -219.67 678.27 -214.63"/><text x="757.34" y="-231.8" font-family="Times,serif" font-size="14" text-anchor="middle">विशेषणम्</text></g><g id="node6" class="node"><title>Node7_1</title><ellipse cx="342.84" cy="-453" fill="#93db70" stroke="#93db70" rx="96.68" ry="18"/><text x="342.84" y="-449.3" font-family="Times,serif" font-size="14" text-anchor="middle">रम्याणि(7.1)</text></g><g id="edge10" class="edge"><title>Node7_1-&gt;Node5_1</title><path fill="none" stroke="#000" d="M342.84,-481.27C342.84,-494.58 342.84,-510.19 342.84,-521.82"/><polygon fill="#000" stroke="#000" points="346.34 -481.2 342.84 -471.2 339.34 -481.2 346.34 -481.2"/><text x="400.34" y="-492.8" font-family="Times,serif" font-size="14" text-anchor="middle">विशेषणम्</text></g><g id="node11" class="node"><title>Node8_1</title><ellipse cx="218.84" cy="-627" fill="#ff1975" stroke="#ff1975" rx="78.79" ry="18"/><text x="218.84" y="-623.3" font-family="Times,serif" font-size="14" text-anchor="middle">ददर्श(8.1)</text></g><g id="edge8" class="edge"><title>Node5_1-&gt;Node8_1</title><path fill="none" stroke="#000" d="M309.93,-563.56C288.69,-578.12 261.56,-596.72 242.45,-609.82"/><polygon fill="#000" stroke="#000" points="312.07 -566.33 318.34 -557.79 308.12 -560.56 312.07 -566.33"/><text x="317.84" y="-579.8" font-family="Times,serif" font-size="14" text-anchor="middle">कर्म</text></g><g id="node8" class="node"><title>Node4_1</title><ellipse cx="567.84" cy="-18" fill="#ff0" stroke="#ff0" rx="72.29" ry="18"/><text x="567.84" y="-14.3" font-family="Times,serif" font-size="14" text-anchor="middle">सर्व-(4.1)</text></g><g id="node9" class="node"><title>Node4_2</title><ellipse cx="567.84" cy="-105" fill="#ff0" stroke="#ff0" rx="63.09" ry="18"/><text x="567.84" y="-101.3" font-family="Times,serif" font-size="14" text-anchor="middle">ऋतु-(4.2)</text></g><g id="edge4" class="edge"><title>Node4_1-&gt;Node4_2</title><path fill="none" stroke="#000" d="M567.84,-46.27C567.84,-59.58 567.84,-75.19 567.84,-86.82"/><polygon fill="#000" stroke="#000" points="571.34 -46.2 567.84 -36.2 564.34 -46.2 571.34 -46.2"/><text x="632.34" y="-57.8" font-family="Times,serif" font-size="14" text-anchor="middle">कर्मधारयः</text></g><g id="edge5" class="edge"><title>Node4_2-&gt;Node4_4</title><path fill="none" stroke="#000" d="M563.04,-133.17C562.99,-141.1 564.38,-149.39 568.84,-156 574.73,-164.72 583.28,-171.28 592.65,-176.21"/><polygon fill="#000" stroke="#000" points="566.54 -133.38 563.81 -123.14 559.56 -132.85 566.54 -133.38"/><text x="640.34" y="-144.8" font-family="Times,serif" font-size="14" text-anchor="middle">बहुव्रीहिः</text></g><g id="node10" class="node"><title>Node4_3</title><ellipse cx="733.84" cy="-105" fill="#ff0" stroke="#ff0" rx="53.89" ry="18"/><text x="733.84" y="-101.3" font-family="Times,serif" font-size="14" text-anchor="middle">फल-(4.3)</text></g><g id="edge6" class="edge"><title>Node4_3-&gt;Node4_4</title><path fill="none" stroke="#000" d="M725.7,-132.8C722.33,-140.9 717.79,-149.38 711.84,-156 705.15,-163.45 696.48,-169.71 687.8,-174.79"/><polygon fill="#000" stroke="#000" points="729.04 -133.87 729.25 -123.28 722.48 -131.43 729.04 -133.87"/><text x="785.34" y="-144.8" font-family="Times,serif" font-size="14" text-anchor="middle">द्वन्द्वः</text></g><g id="node12" class="node"><title>Node6_1</title><ellipse cx="516.84" cy="-453" fill="#f9f" stroke="#f9f" rx="41.69" ry="18"/><text x="516.84" y="-449.3" font-family="Times,serif" font-size="14" text-anchor="middle">च(6.1)</text></g><g id="edge9" class="edge"><title>Node6_1-&gt;Node5_1</title><path fill="none" stroke="#000" d="M495.78,-477.33C486.21,-486.75 474.27,-497.02 461.84,-504 445.7,-513.07 426.97,-520 409.22,-525.2"/><polygon fill="#000" stroke="#000" points="498.41 -479.64 502.9 -470.04 493.41 -474.75 498.41 -479.64"/><text x="584.34" y="-492.8" font-family="Times,serif" font-size="14" text-anchor="middle">समुच्चय_द्योतकः</text></g><g id="node13" class="node"><title>Node9_1</title><ellipse cx="81.84" cy="-453" fill="#ff0" stroke="#ff0" rx="63.09" ry="18"/><text x="81.84" y="-449.3" font-family="Times,serif" font-size="14" text-anchor="middle">कपि-(9.1)</text></g><g id="node14" class="node"><title>Node9_2</title><ellipse cx="96.84" cy="-540" fill="#00bfff" stroke="#00bfff" rx="96.68" ry="18"/><text x="96.84" y="-536.3" font-family="Times,serif" font-size="14" text-anchor="middle">कुञ्जरः(9.2)</text></g><g id="edge11" class="edge"><title>Node9_1-&gt;Node9_2</title><path fill="none" stroke="#000" d="M82.93,-481.49C83.52,-488.85 84.43,-496.76 85.84,-504 86.98,-509.88 88.77,-516.16 90.58,-521.75"/><polygon fill="#000" stroke="#000" points="86.4 -481.01 82.27 -471.25 79.42 -481.46 86.4 -481.01"/><text x="150.34" y="-492.8" font-family="Times,serif" font-size="14" text-anchor="middle">कर्मधारयः</text></g><g id="edge12" class="edge"><title>Node9_2-&gt;Node8_1</title><path fill="none" stroke="#000" d="M128.92,-563.35C149.82,-577.91 176.62,-596.58 195.5,-609.74"/><polygon fill="#000" stroke="#000" points="130.86 -560.44 120.65 -557.59 126.86 -566.18 130.86 -560.44"/><text x="201.84" y="-579.8" font-family="Times,serif" font-size="14" text-anchor="middle">कर्ता</text></g><g id="node15" class="node"><title>Node10_1</title><ellipse cx="500.84" cy="-366" fill="#ff0" stroke="#ff0" rx="59.59" ry="18"/><text x="500.84" y="-362.3" font-family="Times,serif" font-size="14" text-anchor="middle">जल-(10.1)</text></g><g id="edge13" class="edge"><title>Node10_1-&gt;Node10_2</title><path fill="none" stroke="#000" d="M506.73,-394.14C509.86,-402.64 514.63,-411.28 521.84,-417 524.61,-419.19 599.91,-431.56 658.9,-440.98"/><polygon fill="#000" stroke="#000" points="510.02 -392.95 503.74 -384.42 503.33 -395 510.02 -392.95"/><text x="625.34" y="-405.8" font-family="Times,serif" font-size="14" text-anchor="middle">षष्ठी_तत्पुरुषः</text></g></g></svg>