<?xml version="1.0" encoding="UTF-8" standalone="no"?>
<!DOCTYPE svg PUBLIC "-//W3C//DTD SVG 1.1//EN"
 "http://www.w3.org/Graphics/SVG/1.1/DTD/svg11.dtd">
<!-- Generated by graphviz version 2.43.0 (0)
 -->
<!-- Title: G Pages: 1 -->
<svg width="1135pt" height="408pt"
 viewBox="0.00 0.00 1134.59 408.00" xmlns="http://www.w3.org/2000/svg" xmlns:xlink="http://www.w3.org/1999/xlink">
<g id="graph0" class="graph" transform="scale(1 1) rotate(0) translate(4 404)">
<title>G</title>
<polygon fill="#fffacd" stroke="transparent" points="-4,4 -4,-404 1130.59,-404 1130.59,4 -4,4"/>
<g id="clust1" class="cluster">
<title>cluster_1</title>
<polygon fill="#fffacd" stroke="black" points="8,-182 8,-321 238,-321 238,-182 8,-182"/>
</g>
<g id="clust2" class="cluster">
<title>cluster_2</title>
<polygon fill="#fffacd" stroke="black" points="472,-8 472,-147 786,-147 786,-8 472,-8"/>
</g>
<!-- Node3_1 -->
<g id="node1" class="node">
<title>Node3_1</title>
<ellipse fill="#00bfff" stroke="#00bfff" cx="123" cy="-208" rx="106.68" ry="18"/>
<text text-anchor="middle" x="123" y="-204.3" font-family="Times,serif" font-size="14.00">निश्चिता(3.1)</text>
</g>
<!-- Node2_1 -->
<g id="node2" class="node">
<title>Node2_1</title>
<ellipse fill="#00bfff" stroke="#00bfff" cx="133" cy="-295" rx="96.68" ry="18"/>
<text text-anchor="middle" x="133" y="-291.3" font-family="Times,serif" font-size="14.00">बुद्धिः(2.1)</text>
</g>
<!-- Node3_1&#45;&gt;Node2_1 -->
<g id="edge5" class="edge">
<title>Node3_1&#45;&gt;Node2_1</title>
<path fill="none" stroke="black" d="M126.21,-236.27C127.77,-249.58 129.61,-265.19 130.98,-276.82"/>
<polygon fill="black" stroke="black" points="129.67,-235.72 125.02,-226.2 122.72,-236.54 129.67,-235.72"/>
<text text-anchor="middle" x="186.5" y="-247.8" font-family="Times,serif" font-size="14.00">विशेषणम्</text>
</g>
<!-- Node6_1 -->
<g id="node8" class="node">
<title>Node6_1</title>
<ellipse fill="#ff1975" stroke="#ff1975" cx="211" cy="-382" rx="78.79" ry="18"/>
<text text-anchor="middle" x="211" y="-378.3" font-family="Times,serif" font-size="14.00">शोभते(6.1)</text>
</g>
<!-- Node2_1&#45;&gt;Node6_1 -->
<g id="edge4" class="edge">
<title>Node2_1&#45;&gt;Node6_1</title>
<path fill="none" stroke="black" d="M155.23,-320.22C168.14,-334.3 184.09,-351.68 195.62,-364.24"/>
<polygon fill="black" stroke="black" points="157.75,-317.79 148.41,-312.79 152.59,-322.53 157.75,-317.79"/>
<text text-anchor="middle" x="213" y="-334.8" font-family="Times,serif" font-size="14.00">कर्ता</text>
</g>
<!-- Node11_1 -->
<g id="node3" class="node">
<title>Node11_1</title>
<ellipse fill="#00bfff" stroke="#00bfff" cx="629" cy="-34" rx="149.47" ry="18"/>
<text text-anchor="middle" x="629" y="-30.3" font-family="Times,serif" font-size="14.00">पण्डितमानिनः(11.1)</text>
</g>
<!-- Node10_1 -->
<g id="node4" class="node">
<title>Node10_1</title>
<ellipse fill="#00bfff" stroke="#00bfff" cx="674" cy="-121" rx="84.49" ry="18"/>
<text text-anchor="middle" x="674" y="-117.3" font-family="Times,serif" font-size="14.00">दूताः(10.1)</text>
</g>
<!-- Node11_1&#45;&gt;Node10_1 -->
<g id="edge11" class="edge">
<title>Node11_1&#45;&gt;Node10_1</title>
<path fill="none" stroke="black" d="M642.81,-61.09C649.99,-74.65 658.57,-90.85 664.91,-102.82"/>
<polygon fill="black" stroke="black" points="645.88,-59.4 638.11,-52.2 639.69,-62.68 645.88,-59.4"/>
<text text-anchor="middle" x="711.5" y="-73.8" font-family="Times,serif" font-size="14.00">विशेषणम्</text>
</g>
<!-- Node7_1 -->
<g id="node11" class="node">
<title>Node7_1</title>
<ellipse fill="#ff1975" stroke="#ff1975" cx="845" cy="-208" rx="106.68" ry="18"/>
<text text-anchor="middle" x="845" y="-204.3" font-family="Times,serif" font-size="14.00">घातयन्ति(7.1)</text>
</g>
<!-- Node10_1&#45;&gt;Node7_1 -->
<g id="edge10" class="edge">
<title>Node10_1&#45;&gt;Node7_1</title>
<path fill="none" stroke="black" d="M712.49,-142.85C729.67,-152 750.24,-162.75 769,-172 782.03,-178.42 796.48,-185.17 809.24,-191"/>
<polygon fill="black" stroke="black" points="713.79,-139.58 703.32,-137.94 710.49,-145.75 713.79,-139.58"/>
<text text-anchor="middle" x="805" y="-160.8" font-family="Times,serif" font-size="14.00">कर्ता</text>
</g>
<!-- Node1_1 -->
<g id="node5" class="node">
<title>Node1_1</title>
<ellipse fill="#ffff00" stroke="#ffff00" cx="335" cy="-34" rx="72.29" ry="18"/>
<text text-anchor="middle" x="335" y="-30.3" font-family="Times,serif" font-size="14.00">अर्थ&#45;(1.1)</text>
</g>
<!-- Node1_2 -->
<g id="node6" class="node">
<title>Node1_2</title>
<ellipse fill="#ffff00" stroke="#ffff00" cx="335" cy="-121" rx="81.49" ry="18"/>
<text text-anchor="middle" x="335" y="-117.3" font-family="Times,serif" font-size="14.00">अनर्थ&#45;(1.2)</text>
</g>
<!-- Node1_1&#45;&gt;Node1_2 -->
<g id="edge1" class="edge">
<title>Node1_1&#45;&gt;Node1_2</title>
<path fill="none" stroke="black" d="M335,-62.27C335,-75.58 335,-91.19 335,-102.82"/>
<polygon fill="black" stroke="black" points="338.5,-62.2 335,-52.2 331.5,-62.2 338.5,-62.2"/>
<text text-anchor="middle" x="399.5" y="-73.8" font-family="Times,serif" font-size="14.00">द्वन्द्वः</text>
</g>
<!-- Node1_3 -->
<g id="node7" class="node">
<title>Node1_3</title>
<ellipse fill="#c6e2eb" stroke="#c6e2eb" cx="335" cy="-208" rx="87.99" ry="18"/>
<text text-anchor="middle" x="335" y="-204.3" font-family="Times,serif" font-size="14.00">अन्तरे(1.3)</text>
</g>
<!-- Node1_2&#45;&gt;Node1_3 -->
<g id="edge2" class="edge">
<title>Node1_2&#45;&gt;Node1_3</title>
<path fill="none" stroke="black" d="M335,-149.27C335,-162.58 335,-178.19 335,-189.82"/>
<polygon fill="black" stroke="black" points="338.5,-149.2 335,-139.2 331.5,-149.2 338.5,-149.2"/>
<text text-anchor="middle" x="438.5" y="-160.8" font-family="Times,serif" font-size="14.00">षष्ठी_तत्पुरुषः</text>
</g>
<!-- Node1_3&#45;&gt;Node2_1 -->
<g id="edge3" class="edge">
<title>Node1_3&#45;&gt;Node2_1</title>
<path fill="none" stroke="black" d="M301.08,-230.88C285.37,-240.39 266.18,-251.13 248,-259 228.85,-267.29 207.11,-274.44 187.73,-280.09"/>
<polygon fill="black" stroke="black" points="303.22,-233.68 309.91,-225.46 299.55,-227.71 303.22,-233.68"/>
<text text-anchor="middle" x="364" y="-247.8" font-family="Times,serif" font-size="14.00">विषयाधिकरणम्</text>
</g>
<!-- Node4_1 -->
<g id="node9" class="node">
<title>Node4_1</title>
<ellipse fill="#ff99ff" stroke="#ff99ff" cx="501" cy="-208" rx="59.59" ry="18"/>
<text text-anchor="middle" x="501" y="-204.3" font-family="Times,serif" font-size="14.00">अपि(4.1)</text>
</g>
<!-- Node4_1&#45;&gt;Node2_1 -->
<g id="edge6" class="edge">
<title>Node4_1&#45;&gt;Node2_1</title>
<path fill="none" stroke="black" d="M483.72,-234.13C475.82,-243.58 465.62,-253.39 454,-259 410.62,-279.94 285.81,-271.15 238,-277 226.09,-278.46 213.45,-280.27 201.23,-282.17"/>
<polygon fill="black" stroke="black" points="486.65,-236.06 490.05,-226.03 481.13,-231.75 486.65,-236.06"/>
<text text-anchor="middle" x="530.5" y="-247.8" font-family="Times,serif" font-size="14.00">सम्बन्धः</text>
</g>
<!-- Node5_1 -->
<g id="node10" class="node">
<title>Node5_1</title>
<ellipse fill="#ff99ff" stroke="#ff99ff" cx="289" cy="-295" rx="41.69" ry="18"/>
<text text-anchor="middle" x="289" y="-291.3" font-family="Times,serif" font-size="14.00">न(5.1)</text>
</g>
<!-- Node5_1&#45;&gt;Node6_1 -->
<g id="edge7" class="edge">
<title>Node5_1&#45;&gt;Node6_1</title>
<path fill="none" stroke="black" d="M272.95,-320.87C267.09,-329.21 260.14,-338.33 253,-346 246.92,-352.53 239.64,-358.98 232.86,-364.53"/>
<polygon fill="black" stroke="black" points="275.88,-322.79 278.62,-312.56 270.09,-318.85 275.88,-322.79"/>
<text text-anchor="middle" x="329.5" y="-334.8" font-family="Times,serif" font-size="14.00">प्रतिषेधः</text>
</g>
<!-- Node8_1 -->
<g id="node12" class="node">
<title>Node8_1</title>
<ellipse fill="#ff99ff" stroke="#ff99ff" cx="845" cy="-121" rx="50.89" ry="18"/>
<text text-anchor="middle" x="845" y="-117.3" font-family="Times,serif" font-size="14.00">इह(8.1)</text>
</g>
<!-- Node8_1&#45;&gt;Node7_1 -->
<g id="edge8" class="edge">
<title>Node8_1&#45;&gt;Node7_1</title>
<path fill="none" stroke="black" d="M845,-149.27C845,-162.58 845,-178.19 845,-189.82"/>
<polygon fill="black" stroke="black" points="848.5,-149.2 845,-139.2 841.5,-149.2 848.5,-149.2"/>
<text text-anchor="middle" x="902.5" y="-160.8" font-family="Times,serif" font-size="14.00">सम्बन्धः</text>
</g>
<!-- Node9_1 -->
<g id="node13" class="node">
<title>Node9_1</title>
<ellipse fill="#93db70" stroke="#93db70" cx="1020" cy="-121" rx="106.68" ry="18"/>
<text text-anchor="middle" x="1020" y="-117.3" font-family="Times,serif" font-size="14.00">कार्याणि(9.1)</text>
</g>
<!-- Node9_1&#45;&gt;Node7_1 -->
<g id="edge9" class="edge">
<title>Node9_1&#45;&gt;Node7_1</title>
<path fill="none" stroke="black" d="M997.64,-146.13C988.04,-155.32 976.22,-165.2 964,-172 947.25,-181.31 927.76,-188.38 909.47,-193.64"/>
<polygon fill="black" stroke="black" points="1000.21,-148.51 1004.83,-138.98 995.27,-143.55 1000.21,-148.51"/>
<text text-anchor="middle" x="1013" y="-160.8" font-family="Times,serif" font-size="14.00">कर्म</text>
</g>
</g>
</svg>
