<svg xmlns="http://www.w3.org/2000/svg" xmlns:xlink="http://www.w3.org/1999/xlink" width="1696" height="479pt" viewBox="0 0 1271.84 479"><g id="graph0" class="graph" transform="scale(1 1) rotate(0) translate(4 475)"><title>G</title><polygon fill="#fffacd" stroke="transparent" points="-4 4 -4 -475 1267.84 -475 1267.84 4 -4 4"/><g id="clust1" class="cluster"><title>cluster_1</title><polygon fill="#fffacd" stroke="#000" points="657.84 -166 657.84 -305 1255.84 -305 1255.84 -166 657.84 -166"/></g><g id="node1" class="node"><title>Node1_1</title><ellipse cx="1177.84" cy="-192" fill="#93db70" stroke="#93db70" rx="69.59" ry="18"/><text x="1177.84" y="-188.3" font-family="Times,serif" font-size="14" text-anchor="middle">ताम्(1.1)</text></g><g id="node2" class="node"><title>Node2_1</title><ellipse cx="937.84" cy="-279" fill="#93db70" stroke="#93db70" rx="87.99" ry="18"/><text x="937.84" y="-275.3" font-family="Times,serif" font-size="14" text-anchor="middle">पुरीम्(2.1)</text></g><g id="edge1" class="edge"><title>Node1_1-&gt;Node2_1</title><path fill="none" stroke="#000" d="M1142.87,-213.82C1125.07,-223.74 1102.81,-235.12 1081.84,-243 1055.71,-252.82 1025.86,-260.6 1000.14,-266.31"/><polygon fill="#000" stroke="#000" points="1144.77 -216.77 1151.74 -208.8 1141.32 -210.68 1144.77 -216.77"/><text x="1171.34" y="-231.8" font-family="Times,serif" font-size="14" text-anchor="middle">विशेषणम्</text></g><g id="node5" class="node"><title>Node4_1</title><ellipse cx="842.84" cy="-366" fill="#f9f" stroke="#f9f" rx="106.68" ry="18"/><text x="842.84" y="-362.3" font-family="Times,serif" font-size="14" text-anchor="middle">दृष्ट्वा(4.1)</text></g><g id="edge2" class="edge"><title>Node2_1-&gt;Node4_1</title><path fill="none" stroke="#000" d="M911.21,-303.83C895.4,-317.97 875.74,-335.56 861.57,-348.24"/><polygon fill="#000" stroke="#000" points="913.95 -306.07 919.07 -296.79 909.29 -300.85 913.95 -306.07"/><text x="924.84" y="-318.8" font-family="Times,serif" font-size="14" text-anchor="middle">कर्म</text></g><g id="node3" class="node"><title>Node3_1</title><ellipse cx="983.84" cy="-192" fill="#93db70" stroke="#93db70" rx="106.68" ry="18"/><text x="983.84" y="-188.3" font-family="Times,serif" font-size="14" text-anchor="middle">तादृशीम्(3.1)</text></g><g id="edge3" class="edge"><title>Node3_1-&gt;Node2_1</title><path fill="none" stroke="#000" d="M969.72,-219.09C962.38,-232.65 953.62,-248.85 947.14,-260.82"/><polygon fill="#000" stroke="#000" points="972.85 -220.66 974.53 -210.2 966.69 -217.33 972.85 -220.66"/><text x="1020.34" y="-231.8" font-family="Times,serif" font-size="14" text-anchor="middle">विशेषणम्</text></g><g id="node4" class="node"><title>Node5_2</title><ellipse cx="762.84" cy="-192" fill="#93db70" stroke="#93db70" rx="96.68" ry="18"/><text x="762.84" y="-188.3" font-family="Times,serif" font-size="14" text-anchor="middle">धर्षाम्(5.2)</text></g><g id="edge6" class="edge"><title>Node5_2-&gt;Node2_1</title><path fill="none" stroke="#000" d="M793.35,-215.51C806.84,-224.82 823.18,-235.22 838.84,-243 855.09,-251.07 873.66,-258.15 890.3,-263.8"/><polygon fill="#000" stroke="#000" points="795.12 -212.48 784.93 -209.6 791.1 -218.21 795.12 -212.48"/><text x="896.34" y="-231.8" font-family="Times,serif" font-size="14" text-anchor="middle">विशेषणम्</text></g><g id="node6" class="node"><title>Node8_1</title><ellipse cx="438.84" cy="-453" fill="#ff1975" stroke="#ff1975" rx="124.58" ry="18"/><text x="438.84" y="-449.3" font-family="Times,serif" font-size="14" text-anchor="middle">चिन्तयामास(8.1)</text></g><g id="edge4" class="edge"><title>Node4_1-&gt;Node8_1</title><path fill="none" stroke="#000" d="M805.97,-388.22C786.35,-398.56 761.46,-410.2 737.84,-417 679.58,-433.78 612.73,-442.54 557.03,-447.1"/><polygon fill="#000" stroke="#000" points="807.73 -391.25 814.87 -383.43 804.41 -385.09 807.73 -391.25"/><text x="840.34" y="-405.8" font-family="Times,serif" font-size="14" text-anchor="middle">पूर्वकालः</text></g><g id="node7" class="node"><title>Node5_1</title><ellipse cx="654.84" cy="-105" fill="#ff0" stroke="#ff0" rx="72.29" ry="18"/><text x="654.84" y="-101.3" font-family="Times,serif" font-size="14" text-anchor="middle">दुरा-(5.1)</text></g><g id="edge5" class="edge"><title>Node5_1-&gt;Node5_2</title><path fill="none" stroke="#000" d="M649.69,-133.42C649.63,-141.36 651.1,-149.6 655.84,-156 664.16,-167.23 676.17,-174.92 689.18,-180.17"/><polygon fill="#000" stroke="#000" points="653.19 -133.6 650.52 -123.35 646.21 -133.03 653.19 -133.6"/><text x="752.34" y="-144.8" font-family="Times,serif" font-size="14" text-anchor="middle">उपपद_तत्पुरुषः</text></g><g id="node8" class="node"><title>Node6_1</title><ellipse cx="870.84" cy="-18" fill="#ff0" stroke="#ff0" rx="63.09" ry="18"/><text x="870.84" y="-14.3" font-family="Times,serif" font-size="14" text-anchor="middle">सुर-(6.1)</text></g><g id="node9" class="node"><title>Node6_2</title><ellipse cx="870.84" cy="-105" fill="#40e0d0" stroke="#40e0d0" rx="87.99" ry="18"/><text x="870.84" y="-101.3" font-family="Times,serif" font-size="14" text-anchor="middle">असुरैः(6.2)</text></g><g id="edge7" class="edge"><title>Node6_1-&gt;Node6_2</title><path fill="none" stroke="#000" d="M870.84,-46.27C870.84,-59.58 870.84,-75.19 870.84,-86.82"/><polygon fill="#000" stroke="#000" points="874.34 -46.2 870.84 -36.2 867.34 -46.2 874.34 -46.2"/><text x="935.34" y="-57.8" font-family="Times,serif" font-size="14" text-anchor="middle">द्वन्द्वः</text></g><g id="edge8" class="edge"><title>Node6_2-&gt;Node5_2</title><path fill="none" stroke="#000" d="M863.48,-132.66C860.12,-140.98 855.39,-149.63 848.84,-156 839.6,-164.99 827.73,-171.78 815.79,-176.87"/><polygon fill="#000" stroke="#000" points="866.79 -133.8 866.82 -123.21 860.19 -131.47 866.79 -133.8"/><text x="894.84" y="-144.8" font-family="Times,serif" font-size="14" text-anchor="middle">कर्ता</text></g><g id="node10" class="node"><title>Node7_1</title><ellipse cx="96.84" cy="-366" fill="#00bfff" stroke="#00bfff" rx="96.68" ry="18"/><text x="96.84" y="-362.3" font-family="Times,serif" font-size="14" text-anchor="middle">हनूमान्(7.1)</text></g><g id="edge9" class="edge"><title>Node7_1-&gt;Node8_1</title><path fill="none" stroke="#000" d="M162.32,-383.27C224.93,-398.84 318.52,-422.1 379.13,-437.16"/><polygon fill="#000" stroke="#000" points="163.1 -379.86 152.55 -380.85 161.41 -386.65 163.1 -379.86"/><text x="324.84" y="-405.8" font-family="Times,serif" font-size="14" text-anchor="middle">कर्ता</text></g><g id="node11" class="node"><title>Node9_1</title><ellipse cx="345.84" cy="-366" fill="#f9f" stroke="#f9f" rx="133.78" ry="18"/><text x="345.84" y="-362.3" font-family="Times,serif" font-size="14" text-anchor="middle">विनिःश्वस्य(9.1)</text></g><g id="edge10" class="edge"><title>Node9_1-&gt;Node8_1</title><path fill="none" stroke="#000" d="M369.26,-391.42C377.49,-399.72 386.91,-408.94 395.84,-417 402.56,-423.06 410.14,-429.39 417.05,-434.97"/><polygon fill="#000" stroke="#000" points="371.59 -388.79 362.09 -384.1 366.6 -393.69 371.59 -388.79"/><text x="453.34" y="-405.8" font-family="Times,serif" font-size="14" text-anchor="middle">सम्बन्धः</text></g><g id="node12" class="node"><title>Node10_1</title><ellipse cx="565.84" cy="-279" fill="#f9f" stroke="#f9f" rx="84.49" ry="18"/><text x="565.84" y="-275.3" font-family="Times,serif" font-size="14" text-anchor="middle">मुहुः(10.1)</text></g><g id="node13" class="node"><title>Node11_1</title><ellipse cx="581.84" cy="-366" fill="#f9f" stroke="#f9f" rx="84.49" ry="18"/><text x="581.84" y="-362.3" font-family="Times,serif" font-size="14" text-anchor="middle">मुहुः(11.1)</text></g><g id="edge11" class="edge"><title>Node10_1-&gt;Node11_1</title><path fill="none" stroke="#000" d="M570.97,-307.27C573.48,-320.58 576.42,-336.19 578.61,-347.82"/><polygon fill="#000" stroke="#000" points="574.37 -306.38 569.08 -297.2 567.49 -307.68 574.37 -306.38"/><text x="617.84" y="-318.8" font-family="Times,serif" font-size="14" text-anchor="middle">वीप्सा</text></g><g id="edge12" class="edge"><title>Node11_1-&gt;Node8_1</title><path fill="none" stroke="#000" d="M552.17,-389.5C539.71,-398.52 524.87,-408.72 510.84,-417 499.59,-423.64 486.89,-430.12 475.33,-435.67"/><polygon fill="#000" stroke="#000" points="554.39 -392.22 560.38 -383.48 550.25 -386.57 554.39 -392.22"/><text x="633.84" y="-405.8" font-family="Times,serif" font-size="14" text-anchor="middle">क्रियाविशेषणम्</text></g></g></svg>