<?xml version="1.0" encoding="UTF-8" standalone="no"?>
<!DOCTYPE svg PUBLIC "-//W3C//DTD SVG 1.1//EN"
 "http://www.w3.org/Graphics/SVG/1.1/DTD/svg11.dtd">
<!-- Generated by graphviz version 2.43.0 (0)
 -->
<!-- Title: G Pages: 1 -->
<svg width="1086pt" height="566pt"
 viewBox="0.00 0.00 1086.00 566.00" xmlns="http://www.w3.org/2000/svg" xmlns:xlink="http://www.w3.org/1999/xlink">
<g id="graph0" class="graph" transform="scale(1 1) rotate(0) translate(4 562)">
<title>G</title>
<polygon fill="#fffacd" stroke="transparent" points="-4,4 -4,-562 1082,-562 1082,4 -4,4"/>
<g id="clust1" class="cluster">
<title>cluster_1</title>
<polygon fill="#fffacd" stroke="black" points="379,-166 379,-305 1070,-305 1070,-166 379,-166"/>
</g>
<g id="clust2" class="cluster">
<title>cluster_2</title>
<polygon fill="#fffacd" stroke="black" points="8,-340 8,-479 218,-479 218,-340 8,-340"/>
</g>
<g id="clust3" class="cluster">
<title>cluster_3</title>
<polygon fill="#fffacd" stroke="black" points="412,-340 412,-479 704,-479 704,-340 412,-340"/>
</g>
<!-- Node2_1 -->
<g id="node1" class="node">
<title>Node2_1</title>
<ellipse fill="#40e0d0" stroke="#40e0d0" cx="955" cy="-192" rx="106.68" ry="18"/>
<text text-anchor="middle" x="955" y="-188.3" font-family="Times,serif" font-size="14.00">काञ्चनैः(2.1)</text>
</g>
<!-- Node1_1 -->
<g id="node2" class="node">
<title>Node1_1</title>
<ellipse fill="#40e0d0" stroke="#40e0d0" cx="666" cy="-279" rx="87.99" ry="18"/>
<text text-anchor="middle" x="666" y="-275.3" font-family="Times,serif" font-size="14.00">तोरणैः(1.1)</text>
</g>
<!-- Node2_1&#45;&gt;Node1_1 -->
<g id="edge2" class="edge">
<title>Node2_1&#45;&gt;Node1_1</title>
<path fill="none" stroke="black" d="M907.8,-212.75C882.88,-222.71 851.6,-234.44 823,-243 792.23,-252.21 757.43,-260.2 728.42,-266.22"/>
<polygon fill="black" stroke="black" points="909.4,-215.88 917.37,-208.9 906.79,-209.39 909.4,-215.88"/>
<text text-anchor="middle" x="924.5" y="-231.8" font-family="Times,serif" font-size="14.00">विशेषणम्</text>
</g>
<!-- Node11_1 -->
<g id="node7" class="node">
<title>Node11_1</title>
<ellipse fill="#93db70" stroke="#93db70" cx="558" cy="-366" rx="137.58" ry="18"/>
<text text-anchor="middle" x="558" y="-362.3" font-family="Times,serif" font-size="14.00">(अलङ्कृताम्)(11.1)</text>
</g>
<!-- Node1_1&#45;&gt;Node11_1 -->
<g id="edge1" class="edge">
<title>Node1_1&#45;&gt;Node11_1</title>
<path fill="none" stroke="black" d="M636.97,-302.85C618.83,-317.12 595.88,-335.19 579.4,-348.16"/>
<polygon fill="black" stroke="black" points="639.23,-305.53 644.92,-296.59 634.9,-300.02 639.23,-305.53"/>
<text text-anchor="middle" x="654" y="-318.8" font-family="Times,serif" font-size="14.00">करणम्</text>
</g>
<!-- Node3_1 -->
<g id="node3" class="node">
<title>Node3_1</title>
<ellipse fill="#40e0d0" stroke="#40e0d0" cx="734" cy="-192" rx="96.68" ry="18"/>
<text text-anchor="middle" x="734" y="-188.3" font-family="Times,serif" font-size="14.00">दिव्यैः(3.1)</text>
</g>
<!-- Node3_1&#45;&gt;Node1_1 -->
<g id="edge3" class="edge">
<title>Node3_1&#45;&gt;Node1_1</title>
<path fill="none" stroke="black" d="M713.71,-218.36C702.66,-232.18 689.28,-248.9 679.51,-261.11"/>
<polygon fill="black" stroke="black" points="716.73,-220.2 720.24,-210.2 711.26,-215.82 716.73,-220.2"/>
<text text-anchor="middle" x="761.5" y="-231.8" font-family="Times,serif" font-size="14.00">विशेषणम्</text>
</g>
<!-- Node4_3 -->
<g id="node4" class="node">
<title>Node4_3</title>
<ellipse fill="#40e0d0" stroke="#40e0d0" cx="503" cy="-192" rx="115.88" ry="18"/>
<text text-anchor="middle" x="503" y="-188.3" font-family="Times,serif" font-size="14.00">विराजितैः(4.3)</text>
</g>
<!-- Node4_3&#45;&gt;Node1_1 -->
<g id="edge6" class="edge">
<title>Node4_3&#45;&gt;Node1_1</title>
<path fill="none" stroke="black" d="M532.96,-215.82C545.8,-224.98 561.21,-235.19 576,-243 590.53,-250.67 607.12,-257.6 622.07,-263.23"/>
<polygon fill="black" stroke="black" points="534.68,-212.74 524.53,-209.7 530.56,-218.41 534.68,-212.74"/>
<text text-anchor="middle" x="633.5" y="-231.8" font-family="Times,serif" font-size="14.00">विशेषणम्</text>
</g>
<!-- Node8_1 -->
<g id="node5" class="node">
<title>Node8_1</title>
<ellipse fill="#00bfff" stroke="#00bfff" cx="95" cy="-366" rx="69.59" ry="18"/>
<text text-anchor="middle" x="95" y="-362.3" font-family="Times,serif" font-size="14.00">देवः(8.1)</text>
</g>
<!-- Node6_1 -->
<g id="node6" class="node">
<title>Node6_1</title>
<ellipse fill="#00bfff" stroke="#00bfff" cx="113" cy="-453" rx="96.68" ry="18"/>
<text text-anchor="middle" x="113" y="-449.3" font-family="Times,serif" font-size="14.00">हनुमान्(6.1)</text>
</g>
<!-- Node8_1&#45;&gt;Node6_1 -->
<g id="edge9" class="edge">
<title>Node8_1&#45;&gt;Node6_1</title>
<path fill="none" stroke="black" d="M100.77,-394.27C103.59,-407.58 106.9,-423.19 109.36,-434.82"/>
<polygon fill="black" stroke="black" points="104.14,-393.26 98.64,-384.2 97.29,-394.71 104.14,-393.26"/>
<text text-anchor="middle" x="162.5" y="-405.8" font-family="Times,serif" font-size="14.00">विशेषणम्</text>
</g>
<!-- Node5_1 -->
<g id="node11" class="node">
<title>Node5_1</title>
<ellipse fill="#ff1975" stroke="#ff1975" cx="353" cy="-540" rx="78.79" ry="18"/>
<text text-anchor="middle" x="353" y="-536.3" font-family="Times,serif" font-size="14.00">ददर्श(5.1)</text>
</g>
<!-- Node6_1&#45;&gt;Node5_1 -->
<g id="edge7" class="edge">
<title>Node6_1&#45;&gt;Node5_1</title>
<path fill="none" stroke="black" d="M165.58,-472.62C209.63,-488.22 271.64,-510.18 312.07,-524.5"/>
<polygon fill="black" stroke="black" points="166.5,-469.24 155.91,-469.2 164.16,-475.83 166.5,-469.24"/>
<text text-anchor="middle" x="283" y="-492.8" font-family="Times,serif" font-size="14.00">कर्ता</text>
</g>
<!-- Node7_1 -->
<g id="node8" class="node">
<title>Node7_1</title>
<ellipse fill="#93db70" stroke="#93db70" cx="517" cy="-453" rx="96.68" ry="18"/>
<text text-anchor="middle" x="517" y="-449.3" font-family="Times,serif" font-size="14.00">लङ्काम्(7.1)</text>
</g>
<!-- Node11_1&#45;&gt;Node7_1 -->
<g id="edge13" class="edge">
<title>Node11_1&#45;&gt;Node7_1</title>
<path fill="none" stroke="black" d="M545.23,-393.48C538.72,-406.96 531.01,-422.96 525.28,-434.82"/>
<polygon fill="black" stroke="black" points="548.51,-394.73 549.7,-384.2 542.21,-391.69 548.51,-394.73"/>
<text text-anchor="middle" x="596.5" y="-405.8" font-family="Times,serif" font-size="14.00">विशेषणम्</text>
</g>
<!-- Node7_1&#45;&gt;Node5_1 -->
<g id="edge8" class="edge">
<title>Node7_1&#45;&gt;Node5_1</title>
<path fill="none" stroke="black" d="M476.75,-474.86C447.88,-489.83 409.59,-509.67 383.29,-523.3"/>
<polygon fill="black" stroke="black" points="478.5,-477.9 485.77,-470.19 475.28,-471.68 478.5,-477.9"/>
<text text-anchor="middle" x="473" y="-492.8" font-family="Times,serif" font-size="14.00">कर्म</text>
</g>
<!-- Node4_1 -->
<g id="node9" class="node">
<title>Node4_1</title>
<ellipse fill="#ffff00" stroke="#ffff00" cx="503" cy="-18" rx="63.09" ry="18"/>
<text text-anchor="middle" x="503" y="-14.3" font-family="Times,serif" font-size="14.00">लता&#45;(4.1)</text>
</g>
<!-- Node4_2 -->
<g id="node10" class="node">
<title>Node4_2</title>
<ellipse fill="#ffff00" stroke="#ffff00" cx="503" cy="-105" rx="100.18" ry="18"/>
<text text-anchor="middle" x="503" y="-101.3" font-family="Times,serif" font-size="14.00">पङ्क्ति&#45;(4.2)</text>
</g>
<!-- Node4_1&#45;&gt;Node4_2 -->
<g id="edge4" class="edge">
<title>Node4_1&#45;&gt;Node4_2</title>
<path fill="none" stroke="black" d="M503,-46.27C503,-59.58 503,-75.19 503,-86.82"/>
<polygon fill="black" stroke="black" points="506.5,-46.2 503,-36.2 499.5,-46.2 506.5,-46.2"/>
<text text-anchor="middle" x="606.5" y="-57.8" font-family="Times,serif" font-size="14.00">षष्ठी_तत्पुरुषः</text>
</g>
<!-- Node4_2&#45;&gt;Node4_3 -->
<g id="edge5" class="edge">
<title>Node4_2&#45;&gt;Node4_3</title>
<path fill="none" stroke="black" d="M503,-133.27C503,-146.58 503,-162.19 503,-173.82"/>
<polygon fill="black" stroke="black" points="506.5,-133.2 503,-123.2 499.5,-133.2 506.5,-133.2"/>
<text text-anchor="middle" x="613.5" y="-144.8" font-family="Times,serif" font-size="14.00">तृतीया_तत्पुरुषः</text>
</g>
<!-- Node9_1 -->
<g id="node12" class="node">
<title>Node9_1</title>
<ellipse fill="#ffff00" stroke="#ffff00" cx="84" cy="-279" rx="63.09" ry="18"/>
<text text-anchor="middle" x="84" y="-275.3" font-family="Times,serif" font-size="14.00">देव&#45;(9.1)</text>
</g>
<!-- Node9_2 -->
<g id="node13" class="node">
<title>Node9_2</title>
<ellipse fill="#93db70" stroke="#93db70" cx="314" cy="-366" rx="87.99" ry="18"/>
<text text-anchor="middle" x="314" y="-362.3" font-family="Times,serif" font-size="14.00">पुरीम्(9.2)</text>
</g>
<!-- Node9_1&#45;&gt;Node9_2 -->
<g id="edge10" class="edge">
<title>Node9_1&#45;&gt;Node9_2</title>
<path fill="none" stroke="black" d="M88.37,-307.06C91.14,-315.7 95.64,-324.46 103,-330 124.19,-345.97 195.87,-335.39 222,-340 237,-342.64 253.1,-346.62 267.57,-350.62"/>
<polygon fill="black" stroke="black" points="91.71,-306 85.87,-297.16 84.93,-307.71 91.71,-306"/>
<text text-anchor="middle" x="206.5" y="-318.8" font-family="Times,serif" font-size="14.00">षष्ठी_तत्पुरुषः</text>
</g>
<!-- Node9_2&#45;&gt;Node7_1 -->
<g id="edge11" class="edge">
<title>Node9_2&#45;&gt;Node7_1</title>
<path fill="none" stroke="black" d="M359.08,-386.48C380.78,-395.8 407.2,-407.07 431,-417 446.47,-423.45 463.57,-430.44 478.41,-436.46"/>
<polygon fill="black" stroke="black" points="360.35,-383.22 349.78,-382.48 357.58,-389.65 360.35,-383.22"/>
<text text-anchor="middle" x="481" y="-405.8" font-family="Times,serif" font-size="14.00">उपमानम्</text>
</g>
<!-- Node10_1 -->
<g id="node14" class="node">
<title>Node10_1</title>
<ellipse fill="#ff99ff" stroke="#ff99ff" cx="314" cy="-279" rx="56.59" ry="18"/>
<text text-anchor="middle" x="314" y="-275.3" font-family="Times,serif" font-size="14.00">इव(10.1)</text>
</g>
<!-- Node10_1&#45;&gt;Node9_2 -->
<g id="edge12" class="edge">
<title>Node10_1&#45;&gt;Node9_2</title>
<path fill="none" stroke="black" d="M314,-307.27C314,-320.58 314,-336.19 314,-347.82"/>
<polygon fill="black" stroke="black" points="317.5,-307.2 314,-297.2 310.5,-307.2 317.5,-307.2"/>
<text text-anchor="middle" x="403" y="-318.8" font-family="Times,serif" font-size="14.00">उपमान_द्योतकः</text>
</g>
</g>
</svg>
