<svg xmlns="http://www.w3.org/2000/svg" xmlns:xlink="http://www.w3.org/1999/xlink" width="1612" height="479pt" viewBox="0 0 1208.79 479"><g id="graph0" class="graph" transform="scale(1 1) rotate(0) translate(4 475)"><title>G</title><polygon fill="#fffacd" stroke="transparent" points="-4 4 -4 -475 1204.79 -475 1204.79 4 -4 4"/><g id="clust1" class="cluster"><title>cluster_1</title><polygon fill="#fffacd" stroke="#000" points="723.79 -79 723.79 -218 933.79 -218 933.79 -79 723.79 -79"/></g><g id="clust2" class="cluster"><title>cluster_2</title><polygon fill="#fffacd" stroke="#000" points="695.79 -253 695.79 -392 1192.79 -392 1192.79 -253 695.79 -253"/></g><g id="node1" class="node"><title>Node2_2</title><ellipse cx="828.79" cy="-105" fill="#40e0d0" stroke="#40e0d0" rx="96.68" ry="18"/><text x="828.79" y="-101.3" font-family="Times,serif" font-size="14" text-anchor="middle">मुक्तेन(2.2)</text></g><g id="node2" class="node"><title>Node3_2</title><ellipse cx="819.79" cy="-192" fill="#40e0d0" stroke="#40e0d0" rx="87.99" ry="18"/><text x="819.79" y="-188.3" font-family="Times,serif" font-size="14" text-anchor="middle">वर्षेण(3.2)</text></g><g id="edge3" class="edge"><title>Node2_2-&gt;Node3_2</title><path fill="none" stroke="#000" d="M825.91,-133.27C824.5,-146.58 822.84,-162.19 821.61,-173.82"/><polygon fill="#000" stroke="#000" points="829.4 -133.51 826.97 -123.2 822.44 -132.78 829.4 -133.51"/><text x="882.29" y="-144.8" font-family="Times,serif" font-size="14" text-anchor="middle">विशेषणम्</text></g><g id="node5" class="node"><title>Node5_1</title><ellipse cx="819.79" cy="-279" fill="#00bfff" stroke="#00bfff" rx="115.88" ry="18"/><text x="819.79" y="-275.3" font-family="Times,serif" font-size="14" text-anchor="middle">अभिवृष्टः(5.1)</text></g><g id="edge5" class="edge"><title>Node3_2-&gt;Node5_1</title><path fill="none" stroke="#000" d="M819.79,-220.27C819.79,-233.58 819.79,-249.19 819.79,-260.82"/><polygon fill="#000" stroke="#000" points="823.29 -220.2 819.79 -210.2 816.29 -220.2 823.29 -220.2"/><text x="855.79" y="-231.8" font-family="Times,serif" font-size="14" text-anchor="middle">करणम्</text></g><g id="node3" class="node"><title>Node4_1</title><ellipse cx="1068.79" cy="-279" fill="#00bfff" stroke="#00bfff" rx="115.88" ry="18"/><text x="1068.79" y="-275.3" font-family="Times,serif" font-size="14" text-anchor="middle">वीर्यवान्(4.1)</text></g><g id="node4" class="node"><title>Node10_1</title><ellipse cx="834.79" cy="-366" fill="#00bfff" stroke="#00bfff" rx="75.29" ry="18"/><text x="834.79" y="-362.3" font-family="Times,serif" font-size="14" text-anchor="middle">हरिः(10.1)</text></g><g id="edge6" class="edge"><title>Node4_1-&gt;Node10_1</title><path fill="none" stroke="#000" d="M1022.38,-300.12C999.76,-309.65 972.04,-320.9 946.79,-330 925.23,-337.77 900.99,-345.47 880.59,-351.66"/><polygon fill="#000" stroke="#000" points="1023.9 -303.28 1031.74 -296.16 1021.17 -296.83 1023.9 -303.28"/><text x="1041.29" y="-318.8" font-family="Times,serif" font-size="14" text-anchor="middle">विशेषणम्</text></g><g id="node7" class="node"><title>Node8_1</title><ellipse cx="381.79" cy="-453" fill="#ff1975" stroke="#ff1975" rx="59.59" ry="18"/><text x="381.79" y="-449.3" font-family="Times,serif" font-size="14" text-anchor="middle">बभौ(8.1)</text></g><g id="edge11" class="edge"><title>Node10_1-&gt;Node8_1</title><path fill="none" stroke="#000" d="M824.86,-393.48C820.16,-402.43 813.6,-411.52 804.79,-417 774.64,-435.76 550.1,-446.11 440.98,-450.08"/><polygon fill="#000" stroke="#000" points="828.06 -394.92 829.11 -384.37 821.71 -391.96 828.06 -394.92"/><text x="854.79" y="-405.8" font-family="Times,serif" font-size="14" text-anchor="middle">कर्ता</text></g><g id="edge7" class="edge"><title>Node5_1-&gt;Node10_1</title><path fill="none" stroke="#000" d="M824.61,-307.27C826.96,-320.58 829.71,-336.19 831.76,-347.82"/><polygon fill="#000" stroke="#000" points="828.01 -306.44 822.83 -297.2 821.12 -307.66 828.01 -306.44"/><text x="885.29" y="-318.8" font-family="Times,serif" font-size="14" text-anchor="middle">विशेषणम्</text></g><g id="node6" class="node"><title>Node1_1</title><ellipse cx="59.79" cy="-366" fill="#f9f" stroke="#f9f" rx="59.59" ry="18"/><text x="59.79" y="-362.3" font-family="Times,serif" font-size="14" text-anchor="middle">ततः(1.1)</text></g><g id="edge1" class="edge"><title>Node1_1-&gt;Node8_1</title><path fill="none" stroke="#000" d="M69.84,-393.31C74.55,-402.23 81.09,-411.36 89.79,-417 127.02,-441.12 248.23,-448.62 322.27,-450.95"/><polygon fill="#000" stroke="#000" points="72.99 -391.79 65.57 -384.24 66.66 -394.77 72.99 -391.79"/><text x="168.29" y="-405.8" font-family="Times,serif" font-size="14" text-anchor="middle">कालाधिकरणम्</text></g><g id="node8" class="node"><title>Node2_1</title><ellipse cx="828.79" cy="-18" fill="#ff0" stroke="#ff0" rx="72.29" ry="18"/><text x="828.79" y="-14.3" font-family="Times,serif" font-size="14" text-anchor="middle">पादप-(2.1)</text></g><g id="edge2" class="edge"><title>Node2_1-&gt;Node2_2</title><path fill="none" stroke="#000" d="M828.79,-46.27C828.79,-59.58 828.79,-75.19 828.79,-86.82"/><polygon fill="#000" stroke="#000" points="832.29 -46.2 828.79 -36.2 825.29 -46.2 832.29 -46.2"/><text x="939.29" y="-57.8" font-family="Times,serif" font-size="14" text-anchor="middle">तृतीया_तत्पुरुषः</text></g><g id="node9" class="node"><title>Node3_1</title><ellipse cx="580.79" cy="-105" fill="#ff0" stroke="#ff0" rx="81.49" ry="18"/><text x="580.79" y="-101.3" font-family="Times,serif" font-size="14" text-anchor="middle">पुष्प-(3.1)</text></g><g id="edge4" class="edge"><title>Node3_1-&gt;Node3_2</title><path fill="none" stroke="#000" d="M591.5,-132.1C596.41,-141 603.11,-150.17 611.79,-156 632.58,-169.96 690.51,-178.99 739.97,-184.38"/><polygon fill="#000" stroke="#000" points="594.6 -130.47 587.02 -123.07 588.33 -133.58 594.6 -130.47"/><text x="715.29" y="-144.8" font-family="Times,serif" font-size="14" text-anchor="middle">षष्ठी_तत्पुरुषः</text></g><g id="node10" class="node"><title>Node6_1</title><ellipse cx="234.79" cy="-366" fill="#f9f" stroke="#f9f" rx="59.59" ry="18"/><text x="234.79" y="-362.3" font-family="Times,serif" font-size="14" text-anchor="middle">ततः(6.1)</text></g><g id="edge8" class="edge"><title>Node6_1-&gt;Node8_1</title><path fill="none" stroke="#000" d="M244.67,-393.19C249.06,-401.83 255.03,-410.8 262.79,-417 281.23,-431.7 305.67,-440.23 327.6,-445.18"/><polygon fill="#000" stroke="#000" points="247.85 -391.74 240.51 -384.1 241.48 -394.65 247.85 -391.74"/><text x="320.29" y="-405.8" font-family="Times,serif" font-size="14" text-anchor="middle">सम्बन्धः</text></g><g id="node11" class="node"><title>Node7_1</title><ellipse cx="381.79" cy="-366" fill="#f9f" stroke="#f9f" rx="69.59" ry="18"/><text x="381.79" y="-362.3" font-family="Times,serif" font-size="14" text-anchor="middle">तत्र(7.1)</text></g><g id="edge9" class="edge"><title>Node7_1-&gt;Node8_1</title><path fill="none" stroke="#000" d="M381.79,-394.27C381.79,-407.58 381.79,-423.19 381.79,-434.82"/><polygon fill="#000" stroke="#000" points="385.29 -394.2 381.79 -384.2 378.29 -394.2 385.29 -394.2"/><text x="460.29" y="-405.8" font-family="Times,serif" font-size="14" text-anchor="middle">देशाधिकरणम्</text></g><g id="node12" class="node"><title>Node9_1</title><ellipse cx="575.79" cy="-366" fill="#00bfff" stroke="#00bfff" rx="106.68" ry="18"/><text x="575.79" y="-362.3" font-family="Times,serif" font-size="14" text-anchor="middle">पुष्पमयः(9.1)</text></g><g id="edge10" class="edge"><title>Node9_1-&gt;Node8_1</title><path fill="none" stroke="#000" d="M563.67,-393.28C558.42,-402.04 551.45,-411.07 542.79,-417 512.95,-437.45 473.28,-446.24 440.8,-449.89"/><polygon fill="#000" stroke="#000" points="566.81 -394.84 568.53 -384.39 560.66 -391.48 566.81 -394.84"/><text x="679.29" y="-405.8" font-family="Times,serif" font-size="14" text-anchor="middle">कर्तृसमानाधिकरणम्</text></g></g></svg>