<?xml version="1.0" encoding="UTF-8" standalone="no"?>
<!DOCTYPE svg PUBLIC "-//W3C//DTD SVG 1.1//EN"
 "http://www.w3.org/Graphics/SVG/1.1/DTD/svg11.dtd">
<!-- Generated by graphviz version 2.43.0 (0)
 -->
<!-- Title: G Pages: 1 -->
<svg width="1767pt" height="392pt"
 viewBox="0.00 0.00 1766.60 392.00" xmlns="http://www.w3.org/2000/svg" xmlns:xlink="http://www.w3.org/1999/xlink">
<g id="graph0" class="graph" transform="scale(1 1) rotate(0) translate(4 388)">
<title>G</title>
<polygon fill="#fffacd" stroke="transparent" points="-4,4 -4,-388 1762.6,-388 1762.6,4 -4,4"/>
<g id="clust1" class="cluster">
<title>cluster_1</title>
<polygon fill="#fffacd" stroke="black" points="657.6,-166 657.6,-305 1652.6,-305 1652.6,-166 657.6,-166"/>
</g>
<!-- Node1_3 -->
<g id="node1" class="node">
<title>Node1_3</title>
<ellipse fill="#93db70" stroke="#93db70" cx="781.6" cy="-192" rx="115.88" ry="18"/>
<text text-anchor="middle" x="781.6" y="-188.3" font-family="Times,serif" font-size="14.00">निबद्धान्(1.3)</text>
</g>
<!-- Node6_2 -->
<g id="node2" class="node">
<title>Node6_2</title>
<ellipse fill="#93db70" stroke="#93db70" cx="894.6" cy="-279" rx="69.59" ry="18"/>
<text text-anchor="middle" x="894.6" y="-275.3" font-family="Times,serif" font-size="14.00">पान्(6.2)</text>
</g>
<!-- Node1_3&#45;&gt;Node6_2 -->
<g id="edge3" class="edge">
<title>Node1_3&#45;&gt;Node6_2</title>
<path fill="none" stroke="black" d="M812.1,-215.95C831.38,-230.45 855.82,-248.84 873.08,-261.82"/>
<polygon fill="black" stroke="black" points="814.02,-213.01 803.92,-209.79 809.81,-218.6 814.02,-213.01"/>
<text text-anchor="middle" x="902.1" y="-231.8" font-family="Times,serif" font-size="14.00">विशेषणम्</text>
</g>
<!-- Node10_1 -->
<g id="node9" class="node">
<title>Node10_1</title>
<ellipse fill="#ff1975" stroke="#ff1975" cx="317.6" cy="-366" rx="90.98" ry="18"/>
<text text-anchor="middle" x="317.6" y="-362.3" font-family="Times,serif" font-size="14.00">(ददर्श)(10.1)</text>
</g>
<!-- Node6_2&#45;&gt;Node10_1 -->
<g id="edge9" class="edge">
<title>Node6_2&#45;&gt;Node10_1</title>
<path fill="none" stroke="black" d="M825.8,-290.13C715.41,-306.4 499.81,-338.16 388.25,-354.59"/>
<polygon fill="black" stroke="black" points="826.44,-293.58 835.83,-288.66 825.42,-286.65 826.44,-293.58"/>
<text text-anchor="middle" x="670.6" y="-318.8" font-family="Times,serif" font-size="14.00">कर्म</text>
</g>
<!-- Node4_1 -->
<g id="node3" class="node">
<title>Node4_1</title>
<ellipse fill="#93db70" stroke="#93db70" cx="1288.6" cy="-192" rx="124.58" ry="18"/>
<text text-anchor="middle" x="1288.6" y="-188.3" font-family="Times,serif" font-size="14.00">मुकुलितान्(4.1)</text>
</g>
<!-- Node4_1&#45;&gt;Node6_2 -->
<g id="edge6" class="edge">
<title>Node4_1&#45;&gt;Node6_2</title>
<path fill="none" stroke="black" d="M1226.55,-211.28C1190.56,-221.48 1144.26,-233.92 1102.6,-243 1052.86,-253.84 995.82,-263.23 954.06,-269.54"/>
<polygon fill="black" stroke="black" points="1227.75,-214.57 1236.41,-208.47 1225.83,-207.84 1227.75,-214.57"/>
<text text-anchor="middle" x="1221.1" y="-231.8" font-family="Times,serif" font-size="14.00">विशेषणम्</text>
</g>
<!-- Node7_2 -->
<g id="node4" class="node">
<title>Node7_2</title>
<ellipse fill="#93db70" stroke="#93db70" cx="1030.6" cy="-192" rx="115.88" ry="18"/>
<text text-anchor="middle" x="1030.6" y="-188.3" font-family="Times,serif" font-size="14.00">आकीर्णान्(7.2)</text>
</g>
<!-- Node7_2&#45;&gt;Node6_2 -->
<g id="edge11" class="edge">
<title>Node7_2&#45;&gt;Node6_2</title>
<path fill="none" stroke="black" d="M1002.08,-215.97C990.46,-224.88 976.7,-234.87 963.6,-243 952.07,-250.15 938.9,-257.11 927.17,-262.91"/>
<polygon fill="black" stroke="black" points="1004.38,-218.62 1010.12,-209.72 1000.08,-213.09 1004.38,-218.62"/>
<text text-anchor="middle" x="1041.1" y="-231.8" font-family="Times,serif" font-size="14.00">विशेषणम्</text>
</g>
<!-- Node8_3 -->
<g id="node5" class="node">
<title>Node8_3</title>
<ellipse fill="#93db70" stroke="#93db70" cx="1537.6" cy="-192" rx="106.68" ry="18"/>
<text text-anchor="middle" x="1537.6" y="-188.3" font-family="Times,serif" font-size="14.00">मस्तकान्(8.3)</text>
</g>
<!-- Node8_3&#45;&gt;Node6_2 -->
<g id="edge14" class="edge">
<title>Node8_3&#45;&gt;Node6_2</title>
<path fill="none" stroke="black" d="M1466.66,-208.96C1415.68,-219.93 1345.19,-234.06 1282.6,-243 1170.61,-258.99 1039.34,-269.02 961.78,-274.06"/>
<polygon fill="black" stroke="black" points="1467.55,-212.35 1476.58,-206.81 1466.07,-205.51 1467.55,-212.35"/>
<text text-anchor="middle" x="1424.1" y="-231.8" font-family="Times,serif" font-size="14.00">विशेषणम्</text>
</g>
<!-- Node1_1 -->
<g id="node6" class="node">
<title>Node1_1</title>
<ellipse fill="#ffff00" stroke="#ffff00" cx="781.6" cy="-18" rx="81.49" ry="18"/>
<text text-anchor="middle" x="781.6" y="-14.3" font-family="Times,serif" font-size="14.00">पुष्प&#45;(1.1)</text>
</g>
<!-- Node1_2 -->
<g id="node7" class="node">
<title>Node1_2</title>
<ellipse fill="#ffff00" stroke="#ffff00" cx="781.6" cy="-105" rx="63.09" ry="18"/>
<text text-anchor="middle" x="781.6" y="-101.3" font-family="Times,serif" font-size="14.00">भार&#45;(1.2)</text>
</g>
<!-- Node1_1&#45;&gt;Node1_2 -->
<g id="edge1" class="edge">
<title>Node1_1&#45;&gt;Node1_2</title>
<path fill="none" stroke="black" d="M781.6,-46.27C781.6,-59.58 781.6,-75.19 781.6,-86.82"/>
<polygon fill="black" stroke="black" points="785.1,-46.2 781.6,-36.2 778.1,-46.2 785.1,-46.2"/>
<text text-anchor="middle" x="885.1" y="-57.8" font-family="Times,serif" font-size="14.00">षष्ठी_तत्पुरुषः</text>
</g>
<!-- Node1_2&#45;&gt;Node1_3 -->
<g id="edge2" class="edge">
<title>Node1_2&#45;&gt;Node1_3</title>
<path fill="none" stroke="black" d="M781.6,-133.27C781.6,-146.58 781.6,-162.19 781.6,-173.82"/>
<polygon fill="black" stroke="black" points="785.1,-133.2 781.6,-123.2 778.1,-133.2 785.1,-133.2"/>
<text text-anchor="middle" x="892.1" y="-144.8" font-family="Times,serif" font-size="14.00">तृतीया_तत्पुरुषः</text>
</g>
<!-- Node2_1 -->
<g id="node8" class="node">
<title>Node2_1</title>
<ellipse fill="#ff99ff" stroke="#ff99ff" cx="41.6" cy="-279" rx="41.69" ry="18"/>
<text text-anchor="middle" x="41.6" y="-275.3" font-family="Times,serif" font-size="14.00">च(2.1)</text>
</g>
<!-- Node2_1&#45;&gt;Node10_1 -->
<g id="edge4" class="edge">
<title>Node2_1&#45;&gt;Node10_1</title>
<path fill="none" stroke="black" d="M50.8,-306.46C55.16,-315.28 61.28,-324.3 69.6,-330 95.25,-347.56 169.63,-356.42 230.29,-360.83"/>
<polygon fill="black" stroke="black" points="53.94,-304.91 46.74,-297.13 47.52,-307.7 53.94,-304.91"/>
<text text-anchor="middle" x="127.1" y="-318.8" font-family="Times,serif" font-size="14.00">सम्बन्धः</text>
</g>
<!-- Node3_1 -->
<g id="node10" class="node">
<title>Node3_1</title>
<ellipse fill="#ff99ff" stroke="#ff99ff" cx="179.6" cy="-279" rx="59.59" ry="18"/>
<text text-anchor="middle" x="179.6" y="-275.3" font-family="Times,serif" font-size="14.00">तथा(3.1)</text>
</g>
<!-- Node3_1&#45;&gt;Node10_1 -->
<g id="edge5" class="edge">
<title>Node3_1&#45;&gt;Node10_1</title>
<path fill="none" stroke="black" d="M184.86,-306.9C187.69,-315.28 192.01,-323.9 198.6,-330 211.48,-341.92 228.22,-349.8 245.05,-355"/>
<polygon fill="black" stroke="black" points="188.15,-305.7 182.1,-297 181.41,-307.58 188.15,-305.7"/>
<text text-anchor="middle" x="256.1" y="-318.8" font-family="Times,serif" font-size="14.00">सम्बन्धः</text>
</g>
<!-- Node5_1 -->
<g id="node11" class="node">
<title>Node5_1</title>
<ellipse fill="#ff99ff" stroke="#ff99ff" cx="317.6" cy="-279" rx="59.59" ry="18"/>
<text text-anchor="middle" x="317.6" y="-275.3" font-family="Times,serif" font-size="14.00">अपि(5.1)</text>
</g>
<!-- Node5_1&#45;&gt;Node10_1 -->
<g id="edge7" class="edge">
<title>Node5_1&#45;&gt;Node10_1</title>
<path fill="none" stroke="black" d="M317.6,-307.27C317.6,-320.58 317.6,-336.19 317.6,-347.82"/>
<polygon fill="black" stroke="black" points="321.1,-307.2 317.6,-297.2 314.1,-307.2 321.1,-307.2"/>
<text text-anchor="middle" x="375.1" y="-318.8" font-family="Times,serif" font-size="14.00">सम्बन्धः</text>
</g>
<!-- Node6_1 -->
<g id="node12" class="node">
<title>Node6_1</title>
<ellipse fill="#ffff00" stroke="#ffff00" cx="584.6" cy="-192" rx="63.09" ry="18"/>
<text text-anchor="middle" x="584.6" y="-188.3" font-family="Times,serif" font-size="14.00">पाद&#45;(6.1)</text>
</g>
<!-- Node6_1&#45;&gt;Node6_2 -->
<g id="edge8" class="edge">
<title>Node6_1&#45;&gt;Node6_2</title>
<path fill="none" stroke="black" d="M602.71,-217.56C611.04,-227.05 621.71,-237.05 633.6,-243 666.6,-259.53 761.84,-269.14 827.65,-273.97"/>
<polygon fill="black" stroke="black" points="605.36,-215.27 596.29,-209.8 599.97,-219.74 605.36,-215.27"/>
<text text-anchor="middle" x="730.1" y="-231.8" font-family="Times,serif" font-size="14.00">उपपद_तत्पुरुषः</text>
</g>
<!-- Node7_1 -->
<g id="node13" class="node">
<title>Node7_1</title>
<ellipse fill="#ffff00" stroke="#ffff00" cx="1030.6" cy="-105" rx="72.29" ry="18"/>
<text text-anchor="middle" x="1030.6" y="-101.3" font-family="Times,serif" font-size="14.00">विहग&#45;(7.1)</text>
</g>
<!-- Node7_1&#45;&gt;Node7_2 -->
<g id="edge10" class="edge">
<title>Node7_1&#45;&gt;Node7_2</title>
<path fill="none" stroke="black" d="M1030.6,-133.27C1030.6,-146.58 1030.6,-162.19 1030.6,-173.82"/>
<polygon fill="black" stroke="black" points="1034.1,-133.2 1030.6,-123.2 1027.1,-133.2 1034.1,-133.2"/>
<text text-anchor="middle" x="1141.1" y="-144.8" font-family="Times,serif" font-size="14.00">तृतीया_तत्पुरुषः</text>
</g>
<!-- Node8_1 -->
<g id="node14" class="node">
<title>Node8_1</title>
<ellipse fill="#ffff00" stroke="#ffff00" cx="1537.6" cy="-18" rx="63.09" ry="18"/>
<text text-anchor="middle" x="1537.6" y="-14.3" font-family="Times,serif" font-size="14.00">पवन&#45;(8.1)</text>
</g>
<!-- Node8_2 -->
<g id="node15" class="node">
<title>Node8_2</title>
<ellipse fill="#ffff00" stroke="#ffff00" cx="1537.6" cy="-105" rx="72.29" ry="18"/>
<text text-anchor="middle" x="1537.6" y="-101.3" font-family="Times,serif" font-size="14.00">आधूत&#45;(8.2)</text>
</g>
<!-- Node8_1&#45;&gt;Node8_2 -->
<g id="edge12" class="edge">
<title>Node8_1&#45;&gt;Node8_2</title>
<path fill="none" stroke="black" d="M1537.6,-46.27C1537.6,-59.58 1537.6,-75.19 1537.6,-86.82"/>
<polygon fill="black" stroke="black" points="1541.1,-46.2 1537.6,-36.2 1534.1,-46.2 1541.1,-46.2"/>
<text text-anchor="middle" x="1648.1" y="-57.8" font-family="Times,serif" font-size="14.00">तृतीया_तत्पुरुषः</text>
</g>
<!-- Node8_2&#45;&gt;Node8_3 -->
<g id="edge13" class="edge">
<title>Node8_2&#45;&gt;Node8_3</title>
<path fill="none" stroke="black" d="M1537.6,-133.27C1537.6,-146.58 1537.6,-162.19 1537.6,-173.82"/>
<polygon fill="black" stroke="black" points="1541.1,-133.2 1537.6,-123.2 1534.1,-133.2 1541.1,-133.2"/>
<text text-anchor="middle" x="1609.1" y="-144.8" font-family="Times,serif" font-size="14.00">बहुव्रीहिः</text>
</g>
<!-- Node9_1 -->
<g id="node16" class="node">
<title>Node9_1</title>
<ellipse fill="#ffff00" stroke="#ffff00" cx="436.6" cy="-192" rx="63.09" ry="18"/>
<text text-anchor="middle" x="436.6" y="-188.3" font-family="Times,serif" font-size="14.00">कपि&#45;(9.1)</text>
</g>
<!-- Node9_2 -->
<g id="node17" class="node">
<title>Node9_2</title>
<ellipse fill="#00bfff" stroke="#00bfff" cx="492.6" cy="-279" rx="96.68" ry="18"/>
<text text-anchor="middle" x="492.6" y="-275.3" font-family="Times,serif" font-size="14.00">कुञ्जरः(9.2)</text>
</g>
<!-- Node9_1&#45;&gt;Node9_2 -->
<g id="edge15" class="edge">
<title>Node9_1&#45;&gt;Node9_2</title>
<path fill="none" stroke="black" d="M432.48,-220.38C432.53,-228.1 433.79,-236.24 437.6,-243 441.98,-250.79 448.89,-257.11 456.36,-262.12"/>
<polygon fill="black" stroke="black" points="435.99,-220.45 433.07,-210.26 429,-220.05 435.99,-220.45"/>
<text text-anchor="middle" x="502.1" y="-231.8" font-family="Times,serif" font-size="14.00">कर्मधारयः</text>
</g>
<!-- Node9_2&#45;&gt;Node10_1 -->
<g id="edge16" class="edge">
<title>Node9_2&#45;&gt;Node10_1</title>
<path fill="none" stroke="black" d="M470.24,-304.13C460.64,-313.32 448.82,-323.2 436.6,-330 418.81,-339.89 397.94,-347.25 378.69,-352.59"/>
<polygon fill="black" stroke="black" points="472.8,-306.51 477.43,-296.98 467.87,-301.55 472.8,-306.51"/>
<text text-anchor="middle" x="493.6" y="-318.8" font-family="Times,serif" font-size="14.00">कर्ता</text>
</g>
</g>
</svg>
