<svg xmlns="http://www.w3.org/2000/svg" xmlns:xlink="http://www.w3.org/1999/xlink" width="1304" height="479pt" viewBox="0 0 978.14 479"><g id="graph0" class="graph" transform="scale(1 1) rotate(0) translate(4 475)"><title>G</title><polygon fill="#fffacd" stroke="transparent" points="-4 4 -4 -475 974.14 -475 974.14 4 -4 4"/><g id="clust1" class="cluster"><title>cluster_1</title><polygon fill="#fffacd" stroke="#000" points="156.14 -79 156.14 -218 386.14 -218 386.14 -79 156.14 -79"/></g><g id="clust2" class="cluster"><title>cluster_2</title><polygon fill="#fffacd" stroke="#000" points="35.14 -340 35.14 -392 265.14 -392 265.14 -340 35.14 -340"/></g><g id="node1" class="node"><title>Node5_2</title><ellipse cx="271.14" cy="-105" fill="#93db70" stroke="#93db70" rx="106.68" ry="18"/><text x="271.14" y="-101.3" font-family="Times,serif" font-size="14" text-anchor="middle">पालिताम्(5.2)</text></g><g id="node2" class="node"><title>Node4_1</title><ellipse cx="275.14" cy="-192" fill="#93db70" stroke="#93db70" rx="87.99" ry="18"/><text x="275.14" y="-188.3" font-family="Times,serif" font-size="14" text-anchor="middle">पुरीम्(4.1)</text></g><g id="edge7" class="edge"><title>Node5_2-&gt;Node4_1</title><path fill="none" stroke="#000" d="M272.43,-133.27C273.05,-146.58 273.79,-162.19 274.34,-173.82"/><polygon fill="#000" stroke="#000" points="275.92 -133.03 271.95 -123.2 268.93 -133.35 275.92 -133.03"/><text x="330.64" y="-144.8" font-family="Times,serif" font-size="14" text-anchor="middle">विशेषणम्</text></g><g id="node6" class="node"><title>Node2_1</title><ellipse cx="426.14" cy="-279" fill="#f9f" stroke="#f9f" rx="106.68" ry="18"/><text x="426.14" y="-275.3" font-family="Times,serif" font-size="14" text-anchor="middle">प्रविश्य(2.1)</text></g><g id="edge5" class="edge"><title>Node4_1-&gt;Node2_1</title><path fill="none" stroke="#000" d="M312.75,-214.17C338.8,-228.83 372.98,-248.07 396.98,-261.58"/><polygon fill="#000" stroke="#000" points="314.33 -211.04 303.9 -209.19 310.9 -217.14 314.33 -211.04"/><text x="388.14" y="-231.8" font-family="Times,serif" font-size="14" text-anchor="middle">कर्म</text></g><g id="node3" class="node"><title>Node9_1</title><ellipse cx="232.14" cy="-279" fill="#93db70" stroke="#93db70" rx="69.59" ry="18"/><text x="232.14" y="-275.3" font-family="Times,serif" font-size="14" text-anchor="middle">यानि(9.1)</text></g><g id="node4" class="node"><title>Node7_2</title><ellipse cx="150.14" cy="-366" fill="#93db70" stroke="#93db70" rx="106.68" ry="18"/><text x="150.14" y="-362.3" font-family="Times,serif" font-size="14" text-anchor="middle">कार्याणि(7.2)</text></g><g id="edge11" class="edge"><title>Node9_1-&gt;Node7_2</title><path fill="none" stroke="#000" d="M221.7,-306.39C217.64,-314.55 212.44,-323.18 206.14,-330 199.45,-337.24 190.94,-343.57 182.58,-348.78"/><polygon fill="#000" stroke="#000" points="224.94 -307.7 225.92 -297.15 218.58 -304.79 224.94 -307.7"/><text x="273.64" y="-318.8" font-family="Times,serif" font-size="14" text-anchor="middle">विशेषणम्</text></g><g id="node14" class="node"><title>Node12_1</title><ellipse cx="844.14" cy="-279" fill="#93db70" stroke="#93db70" rx="81.79" ry="18"/><text x="844.14" y="-275.3" font-family="Times,serif" font-size="14" text-anchor="middle">(तानि)(12.1)</text></g><g id="edge12" class="edge"><title>Node9_1-&gt;Node12_1</title><path fill="none" stroke="red" stroke-dasharray="5 2" d="M292.35,-264.35C298.34,-263.12 304.35,-261.98 310.14,-261 404.11,-245.17 644.7,-216.38 738.14,-235 760.81,-239.52 784.71,-248.98 804.06,-257.97"/><polygon fill="red" stroke="red" points="291.37 -260.98 282.32 -266.49 292.83 -267.83 291.37 -260.98"/><polygon fill="red" stroke="red" points="802.64 -261.17 813.17 -262.33 805.65 -254.86 802.64 -261.17"/><text x="645.14" y="-231.8" font-family="Times,serif" font-size="14" text-anchor="middle">नित्यसम्बन्धः</text></g><g id="node12" class="node"><title>Node11_1</title><ellipse cx="240.14" cy="-453" fill="#ff1975" stroke="#ff1975" rx="102.88" ry="18"/><text x="240.14" y="-449.3" font-family="Times,serif" font-size="14" text-anchor="middle">वाञ्छसि(11.1)</text></g><g id="edge9" class="edge"><title>Node7_2-&gt;Node11_1</title><path fill="none" stroke="#000" d="M175.38,-390.83C190.35,-404.97 208.97,-422.56 222.4,-435.24"/><polygon fill="#000" stroke="#000" points="177.6 -388.11 167.92 -383.79 172.79 -393.2 177.6 -388.11"/><text x="229.14" y="-405.8" font-family="Times,serif" font-size="14" text-anchor="middle">कर्म</text></g><g id="node5" class="node"><title>Node1_1</title><ellipse cx="454.14" cy="-192" fill="#93db70" stroke="#93db70" rx="59.59" ry="18"/><text x="454.14" y="-188.3" font-family="Times,serif" font-size="14" text-anchor="middle">तत्(1.1)</text></g><g id="edge1" class="edge"><title>Node1_1-&gt;Node2_1</title><path fill="none" stroke="#000" d="M437.23,-218.62C435.66,-221.69 434.25,-224.86 433.14,-228 429.4,-238.58 427.65,-251.08 426.84,-260.93"/><polygon fill="#000" stroke="#000" points="440.36 -220.19 442.23 -209.76 434.26 -216.75 440.36 -220.19"/><text x="490.64" y="-231.8" font-family="Times,serif" font-size="14" text-anchor="middle">सम्बन्धः</text></g><g id="node7" class="node"><title>Node6_1</title><ellipse cx="647.14" cy="-366" fill="#ff1975" stroke="#ff1975" rx="106.68" ry="18"/><text x="647.14" y="-362.3" font-family="Times,serif" font-size="14" text-anchor="middle">विधत्स्व(6.1)</text></g><g id="edge2" class="edge"><title>Node2_1-&gt;Node6_1</title><path fill="none" stroke="#000" d="M460.34,-302.19C476.22,-311.76 495.64,-322.46 514.14,-330 535.92,-338.88 560.63,-346.1 582.79,-351.64"/><polygon fill="#000" stroke="#000" points="461.79 -298.97 451.44 -296.71 458.12 -304.93 461.79 -298.97"/><text x="578.64" y="-318.8" font-family="Times,serif" font-size="14" text-anchor="middle">पूर्वकालः</text></g><g id="node8" class="node"><title>Node3_1</title><ellipse cx="761.14" cy="-192" fill="#ff0" stroke="#ff0" rx="63.09" ry="18"/><text x="761.14" y="-188.3" font-family="Times,serif" font-size="14" text-anchor="middle">हरि-(3.1)</text></g><g id="node9" class="node"><title>Node3_2</title><ellipse cx="647.14" cy="-279" fill="#6fffc3" stroke="#6fffc3" rx="96.68" ry="18"/><text x="647.14" y="-275.3" font-family="Times,serif" font-size="14" text-anchor="middle">श्रेष्ठ(3.2)</text></g><g id="edge3" class="edge"><title>Node3_1-&gt;Node3_2</title><path fill="none" stroke="#000" d="M753.87,-219.75C750.52,-228.07 745.76,-236.71 739.14,-243 729.36,-252.3 716.85,-259.19 704.23,-264.28"/><polygon fill="#000" stroke="#000" points="757.19 -220.87 757.19 -210.28 750.58 -218.56 757.19 -220.87"/><text x="859.64" y="-231.8" font-family="Times,serif" font-size="14" text-anchor="middle">सप्तमी_तत्पुरुषः</text></g><g id="edge4" class="edge"><title>Node3_2-&gt;Node6_1</title><path fill="none" stroke="#000" d="M647.14,-307.27C647.14,-320.58 647.14,-336.19 647.14,-347.82"/><polygon fill="#000" stroke="#000" points="650.64 -307.2 647.14 -297.2 643.64 -307.2 650.64 -307.2"/><text x="711.64" y="-318.8" font-family="Times,serif" font-size="14" text-anchor="middle">सम्बोध्यः</text></g><g id="node10" class="node"><title>Node5_1</title><ellipse cx="271.14" cy="-18" fill="#ff0" stroke="#ff0" rx="72.29" ry="18"/><text x="271.14" y="-14.3" font-family="Times,serif" font-size="14" text-anchor="middle">रावण-(5.1)</text></g><g id="edge6" class="edge"><title>Node5_1-&gt;Node5_2</title><path fill="none" stroke="#000" d="M271.14,-46.27C271.14,-59.58 271.14,-75.19 271.14,-86.82"/><polygon fill="#000" stroke="#000" points="274.64 -46.2 271.14 -36.2 267.64 -46.2 274.64 -46.2"/><text x="381.64" y="-57.8" font-family="Times,serif" font-size="14" text-anchor="middle">तृतीया_तत्पुरुषः</text></g><g id="node11" class="node"><title>Node7_1</title><ellipse cx="72.14" cy="-279" fill="#ff0" stroke="#ff0" rx="72.29" ry="18"/><text x="72.14" y="-275.3" font-family="Times,serif" font-size="14" text-anchor="middle">सर्व-(7.1)</text></g><g id="edge8" class="edge"><title>Node7_1-&gt;Node7_2</title><path fill="none" stroke="#000" d="M70,-307.24C70.6,-315.16 72.55,-323.44 77.14,-330 83.12,-338.51 91.74,-345.03 100.97,-349.99"/><polygon fill="#000" stroke="#000" points="73.5 -307.15 69.87 -297.19 66.5 -307.24 73.5 -307.15"/><text x="141.64" y="-318.8" font-family="Times,serif" font-size="14" text-anchor="middle">कर्मधारयः</text></g><g id="node13" class="node"><title>Node8_1</title><ellipse cx="78.14" cy="-192" fill="#93db70" stroke="#93db70" rx="69.59" ry="18"/><text x="78.14" y="-188.3" font-family="Times,serif" font-size="14" text-anchor="middle">यानि(8.1)</text></g><g id="edge10" class="edge"><title>Node8_1-&gt;Node9_1</title><path fill="none" stroke="#000" d="M115.27,-213.49C142.59,-228.57 179.17,-248.76 204.08,-262.51"/><polygon fill="#000" stroke="#000" points="116.84 -210.36 106.39 -208.59 113.45 -216.49 116.84 -210.36"/><text x="207.14" y="-231.8" font-family="Times,serif" font-size="14" text-anchor="middle">वीप्सा</text></g><g id="edge14" class="edge"><title>Node12_1-&gt;Node6_1</title><path fill="none" stroke="#000" d="M819.07,-303.45C807.87,-312.87 794.07,-323.1 780.14,-330 760.46,-339.76 737.75,-347.02 716.73,-352.32"/><polygon fill="#000" stroke="#000" points="821.47 -306 826.73 -296.81 816.89 -300.72 821.47 -306"/><text x="831.14" y="-318.8" font-family="Times,serif" font-size="14" text-anchor="middle">कर्म</text></g><g id="node15" class="node"><title>Node10_1</title><ellipse cx="331.14" cy="-366" fill="#f9f" stroke="#f9f" rx="56.59" ry="18"/><text x="331.14" y="-362.3" font-family="Times,serif" font-size="14" text-anchor="middle">इह(10.1)</text></g><g id="edge13" class="edge"><title>Node10_1-&gt;Node11_1</title><path fill="none" stroke="#000" d="M306.07,-390.42C290.92,-404.57 271.95,-422.29 258.26,-435.08"/><polygon fill="#000" stroke="#000" points="308.68 -392.77 313.6 -383.39 303.9 -387.66 308.68 -392.77"/><text x="368.64" y="-405.8" font-family="Times,serif" font-size="14" text-anchor="middle">देशाधिकरणम्</text></g></g></svg>