<?xml version="1.0" encoding="UTF-8" standalone="no"?>
<!DOCTYPE svg PUBLIC "-//W3C//DTD SVG 1.1//EN"
 "http://www.w3.org/Graphics/SVG/1.1/DTD/svg11.dtd">
<!-- Generated by graphviz version 2.43.0 (0)
 -->
<!-- Title: G Pages: 1 -->
<svg width="1308pt" height="479pt"
 viewBox="0.00 0.00 1307.79 479.00" xmlns="http://www.w3.org/2000/svg" xmlns:xlink="http://www.w3.org/1999/xlink">
<g id="graph0" class="graph" transform="scale(1 1) rotate(0) translate(4 475)">
<title>G</title>
<polygon fill="#fffacd" stroke="transparent" points="-4,4 -4,-475 1303.79,-475 1303.79,4 -4,4"/>
<g id="clust1" class="cluster">
<title>cluster_1</title>
<polygon fill="#fffacd" stroke="black" points="795.79,-166 795.79,-305 1192.79,-305 1192.79,-166 795.79,-166"/>
</g>
<g id="clust2" class="cluster">
<title>cluster_2</title>
<polygon fill="#fffacd" stroke="black" points="565.79,-253 565.79,-392 787.79,-392 787.79,-253 565.79,-253"/>
</g>
<!-- Node6_2 -->
<g id="node1" class="node">
<title>Node6_2</title>
<ellipse fill="#87ceeb" stroke="#87ceeb" cx="891.79" cy="-192" rx="87.99" ry="18"/>
<text text-anchor="middle" x="891.79" y="-188.3" font-family="Times,serif" font-size="14.00">आत्मनः(6.2)</text>
</g>
<!-- Node5_1 -->
<g id="node2" class="node">
<title>Node5_1</title>
<ellipse fill="#87ceeb" stroke="#87ceeb" cx="891.79" cy="-279" rx="87.99" ry="18"/>
<text text-anchor="middle" x="891.79" y="-275.3" font-family="Times,serif" font-size="14.00">रामस्य(5.1)</text>
</g>
<!-- Node6_2&#45;&gt;Node5_1 -->
<g id="edge7" class="edge">
<title>Node6_2&#45;&gt;Node5_1</title>
<path fill="none" stroke="black" d="M891.79,-220.27C891.79,-233.58 891.79,-249.19 891.79,-260.82"/>
<polygon fill="black" stroke="black" points="895.29,-220.2 891.79,-210.2 888.29,-220.2 895.29,-220.2"/>
<text text-anchor="middle" x="949.29" y="-231.8" font-family="Times,serif" font-size="14.00">विशेषणम्</text>
</g>
<!-- Node10_1 -->
<g id="node5" class="node">
<title>Node10_1</title>
<ellipse fill="#00bfff" stroke="#00bfff" cx="676.79" cy="-366" rx="102.88" ry="18"/>
<text text-anchor="middle" x="676.79" y="-362.3" font-family="Times,serif" font-size="14.00">कार्यम्(10.1)</text>
</g>
<!-- Node5_1&#45;&gt;Node10_1 -->
<g id="edge5" class="edge">
<title>Node5_1&#45;&gt;Node10_1</title>
<path fill="none" stroke="black" d="M852.89,-300.84C834.13,-310.43 811.12,-321.53 789.79,-330 770.52,-337.66 748.86,-344.72 729.7,-350.47"/>
<polygon fill="black" stroke="black" points="854.72,-303.83 862,-296.13 851.51,-297.62 854.72,-303.83"/>
<text text-anchor="middle" x="913.79" y="-318.8" font-family="Times,serif" font-size="14.00">षष्ठीसम्बन्धः</text>
</g>
<!-- Node12_1 -->
<g id="node3" class="node">
<title>Node12_1</title>
<ellipse fill="#87ceeb" stroke="#87ceeb" cx="1090.79" cy="-192" rx="93.68" ry="18"/>
<text text-anchor="middle" x="1090.79" y="-188.3" font-family="Times,serif" font-size="14.00">इच्छतः(12.1)</text>
</g>
<!-- Node12_1&#45;&gt;Node5_1 -->
<g id="edge13" class="edge">
<title>Node12_1&#45;&gt;Node5_1</title>
<path fill="none" stroke="black" d="M1059.46,-215.37C1045.13,-224.85 1027.62,-235.44 1010.79,-243 990.76,-252 967.8,-259.39 947.42,-265.02"/>
<polygon fill="black" stroke="black" points="1061.61,-218.14 1067.93,-209.64 1057.69,-212.34 1061.61,-218.14"/>
<text text-anchor="middle" x="1095.29" y="-231.8" font-family="Times,serif" font-size="14.00">विशेषणम्</text>
</g>
<!-- Node9_1 -->
<g id="node4" class="node">
<title>Node9_1</title>
<ellipse fill="#00bfff" stroke="#00bfff" cx="664.79" cy="-279" rx="69.59" ry="18"/>
<text text-anchor="middle" x="664.79" y="-275.3" font-family="Times,serif" font-size="14.00">इदम्(9.1)</text>
</g>
<!-- Node9_1&#45;&gt;Node10_1 -->
<g id="edge9" class="edge">
<title>Node9_1&#45;&gt;Node10_1</title>
<path fill="none" stroke="black" d="M668.64,-307.27C670.52,-320.58 672.73,-336.19 674.37,-347.82"/>
<polygon fill="black" stroke="black" points="672.09,-306.61 667.22,-297.2 665.16,-307.59 672.09,-306.61"/>
<text text-anchor="middle" x="728.29" y="-318.8" font-family="Times,serif" font-size="14.00">विशेषणम्</text>
</g>
<!-- Node7_1 -->
<g id="node8" class="node">
<title>Node7_1</title>
<ellipse fill="#ff1975" stroke="#ff1975" cx="410.79" cy="-453" rx="78.79" ry="18"/>
<text text-anchor="middle" x="410.79" y="-449.3" font-family="Times,serif" font-size="14.00">भवेत्(7.1)</text>
</g>
<!-- Node10_1&#45;&gt;Node7_1 -->
<g id="edge10" class="edge">
<title>Node10_1&#45;&gt;Node7_1</title>
<path fill="none" stroke="black" d="M670.68,-393.61C667.38,-402.33 662.37,-411.25 654.79,-417 629.1,-436.51 549.06,-445.18 487.58,-449.01"/>
<polygon fill="black" stroke="black" points="674.04,-394.62 673.73,-384.03 667.36,-392.5 674.04,-394.62"/>
<text text-anchor="middle" x="701.79" y="-405.8" font-family="Times,serif" font-size="14.00">कर्ता</text>
</g>
<!-- Node1_1 -->
<g id="node6" class="node">
<title>Node1_1</title>
<ellipse fill="#c6e2eb" stroke="#c6e2eb" cx="59.79" cy="-279" rx="59.59" ry="18"/>
<text text-anchor="middle" x="59.79" y="-275.3" font-family="Times,serif" font-size="14.00">मयि(1.1)</text>
</g>
<!-- Node2_1 -->
<g id="node7" class="node">
<title>Node2_1</title>
<ellipse fill="#c6e2eb" stroke="#c6e2eb" cx="187.79" cy="-366" rx="87.99" ry="18"/>
<text text-anchor="middle" x="187.79" y="-362.3" font-family="Times,serif" font-size="14.00">दृष्टे(2.1)</text>
</g>
<!-- Node1_1&#45;&gt;Node2_1 -->
<g id="edge1" class="edge">
<title>Node1_1&#45;&gt;Node2_1</title>
<path fill="none" stroke="black" d="M87.51,-302.31C99.09,-311.28 112.84,-321.49 125.79,-330 135.92,-336.65 147.38,-343.34 157.67,-349.06"/>
<polygon fill="black" stroke="black" points="89.54,-299.45 79.51,-296.04 85.22,-304.96 89.54,-299.45"/>
<text text-anchor="middle" x="154.79" y="-318.8" font-family="Times,serif" font-size="14.00">कर्म</text>
</g>
<!-- Node2_1&#45;&gt;Node7_1 -->
<g id="edge2" class="edge">
<title>Node2_1&#45;&gt;Node7_1</title>
<path fill="none" stroke="black" d="M192.57,-394.08C195.36,-402.58 199.79,-411.23 206.79,-417 226.42,-433.16 286.68,-442.15 336.65,-446.96"/>
<polygon fill="black" stroke="black" points="195.93,-393.13 189.98,-384.37 189.17,-394.93 195.93,-393.13"/>
<text text-anchor="middle" x="306.79" y="-405.8" font-family="Times,serif" font-size="14.00">भावलक्षणसप्तमी</text>
</g>
<!-- Node3_1 -->
<g id="node9" class="node">
<title>Node3_1</title>
<ellipse fill="#ff99ff" stroke="#ff99ff" cx="187.79" cy="-279" rx="50.89" ry="18"/>
<text text-anchor="middle" x="187.79" y="-275.3" font-family="Times,serif" font-size="14.00">तु(3.1)</text>
</g>
<!-- Node3_1&#45;&gt;Node2_1 -->
<g id="edge3" class="edge">
<title>Node3_1&#45;&gt;Node2_1</title>
<path fill="none" stroke="black" d="M187.79,-307.27C187.79,-320.58 187.79,-336.19 187.79,-347.82"/>
<polygon fill="black" stroke="black" points="191.29,-307.2 187.79,-297.2 184.29,-307.2 191.29,-307.2"/>
<text text-anchor="middle" x="245.29" y="-318.8" font-family="Times,serif" font-size="14.00">सम्बन्धः</text>
</g>
<!-- Node4_1 -->
<g id="node10" class="node">
<title>Node4_1</title>
<ellipse fill="#40e0d0" stroke="#40e0d0" cx="362.79" cy="-279" rx="106.68" ry="18"/>
<text text-anchor="middle" x="362.79" y="-275.3" font-family="Times,serif" font-size="14.00">रक्षोभिः(4.1)</text>
</g>
<!-- Node4_1&#45;&gt;Node2_1 -->
<g id="edge4" class="edge">
<title>Node4_1&#45;&gt;Node2_1</title>
<path fill="none" stroke="black" d="M340.44,-304.13C330.83,-313.32 319.02,-323.2 306.79,-330 288.73,-340.05 267.48,-347.48 247.97,-352.85"/>
<polygon fill="black" stroke="black" points="343,-306.51 347.63,-296.98 338.07,-301.55 343,-306.51"/>
<text text-anchor="middle" x="363.79" y="-318.8" font-family="Times,serif" font-size="14.00">कर्ता</text>
</g>
<!-- Node6_1 -->
<g id="node11" class="node">
<title>Node6_1</title>
<ellipse fill="#ffff00" stroke="#ffff00" cx="890.79" cy="-105" rx="81.49" ry="18"/>
<text text-anchor="middle" x="890.79" y="-101.3" font-family="Times,serif" font-size="14.00">विदित&#45;(6.1)</text>
</g>
<!-- Node6_1&#45;&gt;Node6_2 -->
<g id="edge6" class="edge">
<title>Node6_1&#45;&gt;Node6_2</title>
<path fill="none" stroke="black" d="M891.12,-133.27C891.27,-146.58 891.46,-162.19 891.59,-173.82"/>
<polygon fill="black" stroke="black" points="894.61,-133.16 891,-123.2 887.62,-133.24 894.61,-133.16"/>
<text text-anchor="middle" x="962.29" y="-144.8" font-family="Times,serif" font-size="14.00">बहुव्रीहिः</text>
</g>
<!-- Node8_1 -->
<g id="node12" class="node">
<title>Node8_1</title>
<ellipse fill="#00bfff" stroke="#00bfff" cx="410.79" cy="-366" rx="106.68" ry="18"/>
<text text-anchor="middle" x="410.79" y="-362.3" font-family="Times,serif" font-size="14.00">व्यर्थम्(8.1)</text>
</g>
<!-- Node8_1&#45;&gt;Node7_1 -->
<g id="edge8" class="edge">
<title>Node8_1&#45;&gt;Node7_1</title>
<path fill="none" stroke="black" d="M410.79,-394.27C410.79,-407.58 410.79,-423.19 410.79,-434.82"/>
<polygon fill="black" stroke="black" points="414.29,-394.2 410.79,-384.2 407.29,-394.2 414.29,-394.2"/>
<text text-anchor="middle" x="532.29" y="-405.8" font-family="Times,serif" font-size="14.00">कर्तृसमानाधिकरणम्</text>
</g>
<!-- Node11_1 -->
<g id="node13" class="node">
<title>Node11_1</title>
<ellipse fill="#ffff00" stroke="#ffff00" cx="1092.79" cy="-18" rx="77.99" ry="18"/>
<text text-anchor="middle" x="1092.79" y="-14.3" font-family="Times,serif" font-size="14.00">रावण&#45;(11.1)</text>
</g>
<!-- Node11_2 -->
<g id="node14" class="node">
<title>Node11_2</title>
<ellipse fill="#93db70" stroke="#93db70" cx="1092.79" cy="-105" rx="102.88" ry="18"/>
<text text-anchor="middle" x="1092.79" y="-101.3" font-family="Times,serif" font-size="14.00">अनर्थम्(11.2)</text>
</g>
<!-- Node11_1&#45;&gt;Node11_2 -->
<g id="edge11" class="edge">
<title>Node11_1&#45;&gt;Node11_2</title>
<path fill="none" stroke="black" d="M1092.79,-46.27C1092.79,-59.58 1092.79,-75.19 1092.79,-86.82"/>
<polygon fill="black" stroke="black" points="1096.29,-46.2 1092.79,-36.2 1089.29,-46.2 1096.29,-46.2"/>
<text text-anchor="middle" x="1196.29" y="-57.8" font-family="Times,serif" font-size="14.00">षष्ठी_तत्पुरुषः</text>
</g>
<!-- Node11_2&#45;&gt;Node12_1 -->
<g id="edge12" class="edge">
<title>Node11_2&#45;&gt;Node12_1</title>
<path fill="none" stroke="black" d="M1092.15,-133.27C1091.84,-146.58 1091.47,-162.19 1091.2,-173.82"/>
<polygon fill="black" stroke="black" points="1095.65,-133.28 1092.39,-123.2 1088.66,-133.12 1095.65,-133.28"/>
<text text-anchor="middle" x="1120.79" y="-144.8" font-family="Times,serif" font-size="14.00">कर्म</text>
</g>
</g>
</svg>
