<svg xmlns="http://www.w3.org/2000/svg" xmlns:xlink="http://www.w3.org/1999/xlink" width="1009pt" height="544" viewBox="0 0 1008.69 408"><g id="graph0" class="graph" transform="scale(1 1) rotate(0) translate(4 404)"><title>G</title><polygon fill="#fffacd" stroke="transparent" points="-4 4 -4 -404 1004.69 -404 1004.69 4 -4 4"/><g id="clust1" class="cluster"><title>cluster_1</title><polygon fill="#fffacd" stroke="#000" points="665.69 -182 665.69 -321 976.69 -321 976.69 -182 665.69 -182"/></g><g id="clust2" class="cluster"><title>cluster_2</title><polygon fill="#fffacd" stroke="#000" points="565.69 -8 565.69 -147 775.69 -147 775.69 -8 565.69 -8"/></g><g id="node1" class="node"><title>Node2_1</title><ellipse cx="917.69" cy="-208" fill="#00bfff" stroke="#00bfff" rx="50.89" ry="18"/><text x="917.69" y="-204.3" font-family="Times,serif" font-size="14" text-anchor="middle">सः(2.1)</text></g><g id="node2" class="node"><title>Node5_2</title><ellipse cx="770.69" cy="-295" fill="#00bfff" stroke="#00bfff" rx="96.68" ry="18"/><text x="770.69" y="-291.3" font-family="Times,serif" font-size="14" text-anchor="middle">कुञ्जरः(5.2)</text></g><g id="edge2" class="edge"><title>Node2_1-&gt;Node5_2</title><path fill="none" stroke="#000" d="M883.62,-228.87C867.83,-238.06 848.82,-249.11 831.69,-259 821.12,-265.11 809.5,-271.78 799.26,-277.65"/><polygon fill="#000" stroke="#000" points="885.62 -231.75 892.5 -223.7 882.1 -225.7 885.62 -231.75"/><text x="912.19" y="-247.8" font-family="Times,serif" font-size="14" text-anchor="middle">विशेषणम्</text></g><g id="node7" class="node"><title>Node3_1</title><ellipse cx="523.69" cy="-382" fill="#ff1975" stroke="#ff1975" rx="124.58" ry="18"/><text x="523.69" y="-378.3" font-family="Times,serif" font-size="14" text-anchor="middle">चिन्तयामास(3.1)</text></g><g id="edge5" class="edge"><title>Node5_2-&gt;Node3_1</title><path fill="none" stroke="#000" d="M734.03,-317.12C715.76,-326.97 693.04,-338.21 671.69,-346 647.75,-354.74 620.83,-361.86 596.58,-367.34"/><polygon fill="#000" stroke="#000" points="735.8 -320.14 742.89 -312.27 732.44 -314 735.8 -320.14"/><text x="740.69" y="-334.8" font-family="Times,serif" font-size="14" text-anchor="middle">कर्ता</text></g><g id="node3" class="node"><title>Node8_1</title><ellipse cx="761.69" cy="-208" fill="#00bfff" stroke="#00bfff" rx="87.99" ry="18"/><text x="761.69" y="-204.3" font-family="Times,serif" font-size="14" text-anchor="middle">स्थितः(8.1)</text></g><g id="edge8" class="edge"><title>Node8_1-&gt;Node5_2</title><path fill="none" stroke="#000" d="M724.88,-231.42C716.42,-239.48 711.29,-249.06 716.69,-259 720.9,-266.75 727.66,-273.06 734.99,-278.06"/><polygon fill="#000" stroke="#000" points="727.14 -234.09 732.62 -225.02 722.68 -228.7 727.14 -234.09"/><text x="774.19" y="-247.8" font-family="Times,serif" font-size="14" text-anchor="middle">विशेषणम्</text></g><g id="node4" class="node"><title>Node9_1</title><ellipse cx="670.69" cy="-34" fill="#c6e2eb" stroke="#c6e2eb" rx="96.68" ry="18"/><text x="670.69" y="-30.3" font-family="Times,serif" font-size="14" text-anchor="middle">तस्मिन्(9.1)</text></g><g id="node5" class="node"><title>Node7_1</title><ellipse cx="671.69" cy="-121" fill="#c6e2eb" stroke="#c6e2eb" rx="87.99" ry="18"/><text x="671.69" y="-117.3" font-family="Times,serif" font-size="14" text-anchor="middle">शृङ्गे(7.1)</text></g><g id="edge9" class="edge"><title>Node9_1-&gt;Node7_1</title><path fill="none" stroke="#000" d="M671.01,-62.27C671.17,-75.58 671.35,-91.19 671.49,-102.82"/><polygon fill="#000" stroke="#000" points="674.51 -62.16 670.89 -52.2 667.51 -62.24 674.51 -62.16"/><text x="728.19" y="-73.8" font-family="Times,serif" font-size="14" text-anchor="middle">विशेषणम्</text></g><g id="edge7" class="edge"><title>Node7_1-&gt;Node8_1</title><path fill="none" stroke="#000" d="M663.96,-149.23C663.25,-157.15 664.15,-165.44 668.69,-172 676.05,-182.64 687.08,-190.05 699,-195.21"/><polygon fill="#000" stroke="#000" points="667.44 -149.63 665.66 -139.19 660.54 -148.46 667.44 -149.63"/><text x="747.19" y="-160.8" font-family="Times,serif" font-size="14" text-anchor="middle">देशाधिकरणम्</text></g><g id="node6" class="node"><title>Node1_1</title><ellipse cx="851.69" cy="-121" fill="#f9f" stroke="#f9f" rx="59.59" ry="18"/><text x="851.69" y="-117.3" font-family="Times,serif" font-size="14" text-anchor="middle">ततः(1.1)</text></g><g id="edge1" class="edge"><title>Node1_1-&gt;Node8_1</title><path fill="none" stroke="#000" d="M843.73,-148.97C840.37,-157.07 835.79,-165.52 829.69,-172 822.05,-180.12 812.1,-186.68 802.18,-191.83"/><polygon fill="#000" stroke="#000" points="847.08 -150.01 847.24 -139.41 840.51 -147.59 847.08 -150.01"/><text x="918.19" y="-160.8" font-family="Times,serif" font-size="14" text-anchor="middle">कालाधिकरणम्</text></g><g id="node8" class="node"><title>Node4_1</title><ellipse cx="115.69" cy="-295" fill="#93db70" stroke="#93db70" rx="115.88" ry="18"/><text x="115.69" y="-291.3" font-family="Times,serif" font-size="14" text-anchor="middle">मुहूर्तम्(4.1)</text></g><g id="edge3" class="edge"><title>Node4_1-&gt;Node3_1</title><path fill="none" stroke="#000" d="M156.9,-316.65C179.36,-327.05 207.97,-338.92 234.69,-346 291.36,-361.02 356.01,-369.62 409.77,-374.53"/><polygon fill="#000" stroke="#000" points="158.2 -313.4 147.67 -312.3 155.22 -319.73 158.2 -313.4"/><text x="334.69" y="-334.8" font-family="Times,serif" font-size="14" text-anchor="middle">क्रियाविशेषणम्</text></g><g id="node9" class="node"><title>Node5_1</title><ellipse cx="563.69" cy="-208" fill="#ff0" stroke="#ff0" rx="63.09" ry="18"/><text x="563.69" y="-204.3" font-family="Times,serif" font-size="14" text-anchor="middle">कपि-(5.1)</text></g><g id="edge4" class="edge"><title>Node5_1-&gt;Node5_2</title><path fill="none" stroke="#000" d="M567.45,-236.26C569.92,-244.65 573.98,-253.2 580.69,-259 589.6,-266.7 645.96,-276.49 695.01,-283.76"/><polygon fill="#000" stroke="#000" points="570.81 -235.25 565.17 -226.29 563.99 -236.81 570.81 -235.25"/><text x="645.19" y="-247.8" font-family="Times,serif" font-size="14" text-anchor="middle">कर्मधारयः</text></g><g id="node10" class="node"><title>Node6_1</title><ellipse cx="863.69" cy="-34" fill="#87ceeb" stroke="#87ceeb" rx="78.79" ry="18"/><text x="863.69" y="-30.3" font-family="Times,serif" font-size="14" text-anchor="middle">गिरेः(6.1)</text></g><g id="edge6" class="edge"><title>Node6_1-&gt;Node7_1</title><path fill="none" stroke="#000" d="M834.83,-57.53C821.63,-67.01 805.45,-77.56 789.69,-85 770.27,-94.17 747.91,-101.54 727.92,-107.1"/><polygon fill="#000" stroke="#000" points="837.06 -60.23 843.04 -51.49 832.91 -54.59 837.06 -60.23"/><text x="907.69" y="-73.8" font-family="Times,serif" font-size="14" text-anchor="middle">षष्ठीसम्बन्धः</text></g><g id="node11" class="node"><title>Node10_1</title><ellipse cx="354.69" cy="-208" fill="#87ceeb" stroke="#87ceeb" rx="93.68" ry="18"/><text x="354.69" y="-204.3" font-family="Times,serif" font-size="14" text-anchor="middle">रामस्य(10.1)</text></g><g id="node12" class="node"><title>Node11_1</title><ellipse cx="370.69" cy="-295" fill="#93db70" stroke="#93db70" rx="121.58" ry="18"/><text x="370.69" y="-291.3" font-family="Times,serif" font-size="14" text-anchor="middle">अभ्युदयम्(11.1)</text></g><g id="edge10" class="edge"><title>Node10_1-&gt;Node11_1</title><path fill="none" stroke="#000" d="M353.35,-236.56C353.51,-243.91 354.14,-251.82 355.69,-259 357,-265.07 359.37,-271.41 361.85,-276.99"/><polygon fill="#000" stroke="#000" points="356.85 -236.34 353.42 -226.31 349.85 -236.29 356.85 -236.34"/><text x="448.69" y="-247.8" font-family="Times,serif" font-size="14" text-anchor="middle">षष्ठीसम्बन्धः</text></g><g id="edge11" class="edge"><title>Node11_1-&gt;Node3_1</title><path fill="none" stroke="#000" d="M409.47,-317.54C435.7,-332.11 469.81,-351.07 493.9,-364.45"/><polygon fill="#000" stroke="#000" points="410.99 -314.39 400.55 -312.59 407.59 -320.51 410.99 -314.39"/><text x="485.69" y="-334.8" font-family="Times,serif" font-size="14" text-anchor="middle">कर्म</text></g><g id="node13" class="node"><title>Node12_1</title><ellipse cx="575.69" cy="-295" fill="#f9f" stroke="#f9f" rx="65.79" ry="18"/><text x="575.69" y="-291.3" font-family="Times,serif" font-size="14" text-anchor="middle">ततः(12.1)</text></g><g id="edge12" class="edge"><title>Node12_1-&gt;Node3_1</title><path fill="none" stroke="#000" d="M560.19,-321.34C551.77,-335.1 541.59,-351.74 534.12,-363.95"/><polygon fill="#000" stroke="#000" points="563.18 -323.15 565.42 -312.79 557.21 -319.5 563.18 -323.15"/><text x="610.19" y="-334.8" font-family="Times,serif" font-size="14" text-anchor="middle">सम्बन्धः</text></g></g></svg>