<?xml version="1.0" encoding="UTF-8" standalone="no"?>
<!DOCTYPE svg PUBLIC "-//W3C//DTD SVG 1.1//EN"
 "http://www.w3.org/Graphics/SVG/1.1/DTD/svg11.dtd">
<!-- Generated by graphviz version 2.43.0 (0)
 -->
<!-- Title: G Pages: 1 -->
<svg width="1003pt" height="653pt"
 viewBox="0.00 0.00 1002.84 653.00" xmlns="http://www.w3.org/2000/svg" xmlns:xlink="http://www.w3.org/1999/xlink">
<g id="graph0" class="graph" transform="scale(1 1) rotate(0) translate(4 649)">
<title>G</title>
<polygon fill="#fffacd" stroke="transparent" points="-4,4 -4,-649 998.84,-649 998.84,4 -4,4"/>
<g id="clust1" class="cluster">
<title>cluster_1</title>
<polygon fill="#fffacd" stroke="black" points="623.84,-340 623.84,-479 853.84,-479 853.84,-340 623.84,-340"/>
</g>
<g id="clust2" class="cluster">
<title>cluster_2</title>
<polygon fill="#fffacd" stroke="black" points="526.84,-166 526.84,-305 986.84,-305 986.84,-166 526.84,-166"/>
</g>
<g id="clust3" class="cluster">
<title>cluster_3</title>
<polygon fill="#fffacd" stroke="black" points="218.84,-427 218.84,-566 466.84,-566 466.84,-427 218.84,-427"/>
</g>
<!-- Node1_1 -->
<g id="node1" class="node">
<title>Node1_1</title>
<ellipse fill="#93db70" stroke="#93db70" cx="738.84" cy="-366" rx="106.68" ry="18"/>
<text text-anchor="middle" x="738.84" y="-362.3" font-family="Times,serif" font-size="14.00">सन्ततान्(1.1)</text>
</g>
<!-- Node10_2 -->
<g id="node2" class="node">
<title>Node10_2</title>
<ellipse fill="#93db70" stroke="#93db70" cx="728.84" cy="-453" rx="93.68" ry="18"/>
<text text-anchor="middle" x="728.84" y="-449.3" font-family="Times,serif" font-size="14.00">आशयान्(10.2)</text>
</g>
<!-- Node1_1&#45;&gt;Node10_2 -->
<g id="edge1" class="edge">
<title>Node1_1&#45;&gt;Node10_2</title>
<path fill="none" stroke="black" d="M735.63,-394.27C734.07,-407.58 732.23,-423.19 730.86,-434.82"/>
<polygon fill="black" stroke="black" points="739.13,-394.54 736.82,-384.2 732.17,-393.72 739.13,-394.54"/>
<text text-anchor="middle" x="791.34" y="-405.8" font-family="Times,serif" font-size="14.00">विशेषणम्</text>
</g>
<!-- Node5_1 -->
<g id="node7" class="node">
<title>Node5_1</title>
<ellipse fill="#93db70" stroke="#93db70" cx="342.84" cy="-540" rx="115.88" ry="18"/>
<text text-anchor="middle" x="342.84" y="-536.3" font-family="Times,serif" font-size="14.00">उद्यानानि(5.1)</text>
</g>
<!-- Node10_2&#45;&gt;Node5_1 -->
<g id="edge14" class="edge">
<title>Node10_2&#45;&gt;Node5_1</title>
<path fill="none" stroke="black" d="M715.44,-480.21C709.47,-489.25 701.56,-498.48 691.84,-504 652.93,-526.12 543.63,-534.37 457.61,-537.4"/>
<polygon fill="black" stroke="black" points="718.6,-481.75 720.76,-471.38 712.6,-478.14 718.6,-481.75"/>
<text text-anchor="middle" x="772.34" y="-492.8" font-family="Times,serif" font-size="14.00">समुच्चितः</text>
</g>
<!-- Node2_1 -->
<g id="node3" class="node">
<title>Node2_1</title>
<ellipse fill="#40e0d0" stroke="#40e0d0" cx="881.84" cy="-192" rx="96.68" ry="18"/>
<text text-anchor="middle" x="881.84" y="-188.3" font-family="Times,serif" font-size="14.00">विविधैः(2.1)</text>
</g>
<!-- Node3_1 -->
<g id="node4" class="node">
<title>Node3_1</title>
<ellipse fill="#40e0d0" stroke="#40e0d0" cx="738.84" cy="-279" rx="96.68" ry="18"/>
<text text-anchor="middle" x="738.84" y="-275.3" font-family="Times,serif" font-size="14.00">वृक्षैः(3.1)</text>
</g>
<!-- Node2_1&#45;&gt;Node3_1 -->
<g id="edge2" class="edge">
<title>Node2_1&#45;&gt;Node3_1</title>
<path fill="none" stroke="black" d="M855.36,-216.53C844.5,-225.49 831.52,-235.37 818.84,-243 806.63,-250.35 792.6,-257.02 779.73,-262.52"/>
<polygon fill="black" stroke="black" points="857.82,-219.03 863.21,-209.91 853.31,-213.68 857.82,-219.03"/>
<text text-anchor="middle" x="897.34" y="-231.8" font-family="Times,serif" font-size="14.00">विशेषणम्</text>
</g>
<!-- Node3_1&#45;&gt;Node1_1 -->
<g id="edge3" class="edge">
<title>Node3_1&#45;&gt;Node1_1</title>
<path fill="none" stroke="black" d="M738.84,-307.27C738.84,-320.58 738.84,-336.19 738.84,-347.82"/>
<polygon fill="black" stroke="black" points="742.34,-307.2 738.84,-297.2 735.34,-307.2 742.34,-307.2"/>
<text text-anchor="middle" x="774.84" y="-318.8" font-family="Times,serif" font-size="14.00">करणम्</text>
</g>
<!-- Node4_4 -->
<g id="node5" class="node">
<title>Node4_4</title>
<ellipse fill="#40e0d0" stroke="#40e0d0" cx="650.84" cy="-192" rx="115.88" ry="18"/>
<text text-anchor="middle" x="650.84" y="-188.3" font-family="Times,serif" font-size="14.00">पुष्पितैः(4.4)</text>
</g>
<!-- Node4_4&#45;&gt;Node3_1 -->
<g id="edge7" class="edge">
<title>Node4_4&#45;&gt;Node3_1</title>
<path fill="none" stroke="black" d="M675.89,-217.2C690.42,-231.23 708.35,-248.55 721.36,-261.11"/>
<polygon fill="black" stroke="black" points="678.27,-214.63 668.65,-210.2 673.41,-219.67 678.27,-214.63"/>
<text text-anchor="middle" x="757.34" y="-231.8" font-family="Times,serif" font-size="14.00">विशेषणम्</text>
</g>
<!-- Node7_1 -->
<g id="node6" class="node">
<title>Node7_1</title>
<ellipse fill="#93db70" stroke="#93db70" cx="342.84" cy="-453" rx="96.68" ry="18"/>
<text text-anchor="middle" x="342.84" y="-449.3" font-family="Times,serif" font-size="14.00">रम्याणि(7.1)</text>
</g>
<!-- Node7_1&#45;&gt;Node5_1 -->
<g id="edge10" class="edge">
<title>Node7_1&#45;&gt;Node5_1</title>
<path fill="none" stroke="black" d="M342.84,-481.27C342.84,-494.58 342.84,-510.19 342.84,-521.82"/>
<polygon fill="black" stroke="black" points="346.34,-481.2 342.84,-471.2 339.34,-481.2 346.34,-481.2"/>
<text text-anchor="middle" x="400.34" y="-492.8" font-family="Times,serif" font-size="14.00">विशेषणम्</text>
</g>
<!-- Node8_1 -->
<g id="node11" class="node">
<title>Node8_1</title>
<ellipse fill="#ff1975" stroke="#ff1975" cx="218.84" cy="-627" rx="78.79" ry="18"/>
<text text-anchor="middle" x="218.84" y="-623.3" font-family="Times,serif" font-size="14.00">ददर्श(8.1)</text>
</g>
<!-- Node5_1&#45;&gt;Node8_1 -->
<g id="edge8" class="edge">
<title>Node5_1&#45;&gt;Node8_1</title>
<path fill="none" stroke="black" d="M309.93,-563.56C288.69,-578.12 261.56,-596.72 242.45,-609.82"/>
<polygon fill="black" stroke="black" points="312.07,-566.33 318.34,-557.79 308.12,-560.56 312.07,-566.33"/>
<text text-anchor="middle" x="317.84" y="-579.8" font-family="Times,serif" font-size="14.00">कर्म</text>
</g>
<!-- Node4_1 -->
<g id="node8" class="node">
<title>Node4_1</title>
<ellipse fill="#ffff00" stroke="#ffff00" cx="567.84" cy="-18" rx="72.29" ry="18"/>
<text text-anchor="middle" x="567.84" y="-14.3" font-family="Times,serif" font-size="14.00">सर्व&#45;(4.1)</text>
</g>
<!-- Node4_2 -->
<g id="node9" class="node">
<title>Node4_2</title>
<ellipse fill="#ffff00" stroke="#ffff00" cx="567.84" cy="-105" rx="63.09" ry="18"/>
<text text-anchor="middle" x="567.84" y="-101.3" font-family="Times,serif" font-size="14.00">ऋतु&#45;(4.2)</text>
</g>
<!-- Node4_1&#45;&gt;Node4_2 -->
<g id="edge4" class="edge">
<title>Node4_1&#45;&gt;Node4_2</title>
<path fill="none" stroke="black" d="M567.84,-46.27C567.84,-59.58 567.84,-75.19 567.84,-86.82"/>
<polygon fill="black" stroke="black" points="571.34,-46.2 567.84,-36.2 564.34,-46.2 571.34,-46.2"/>
<text text-anchor="middle" x="632.34" y="-57.8" font-family="Times,serif" font-size="14.00">कर्मधारयः</text>
</g>
<!-- Node4_2&#45;&gt;Node4_4 -->
<g id="edge5" class="edge">
<title>Node4_2&#45;&gt;Node4_4</title>
<path fill="none" stroke="black" d="M563.04,-133.17C562.99,-141.1 564.38,-149.39 568.84,-156 574.73,-164.72 583.28,-171.28 592.65,-176.21"/>
<polygon fill="black" stroke="black" points="566.54,-133.38 563.81,-123.14 559.56,-132.85 566.54,-133.38"/>
<text text-anchor="middle" x="640.34" y="-144.8" font-family="Times,serif" font-size="14.00">बहुव्रीहिः</text>
</g>
<!-- Node4_3 -->
<g id="node10" class="node">
<title>Node4_3</title>
<ellipse fill="#ffff00" stroke="#ffff00" cx="733.84" cy="-105" rx="53.89" ry="18"/>
<text text-anchor="middle" x="733.84" y="-101.3" font-family="Times,serif" font-size="14.00">फल&#45;(4.3)</text>
</g>
<!-- Node4_3&#45;&gt;Node4_4 -->
<g id="edge6" class="edge">
<title>Node4_3&#45;&gt;Node4_4</title>
<path fill="none" stroke="black" d="M725.7,-132.8C722.33,-140.9 717.79,-149.38 711.84,-156 705.15,-163.45 696.48,-169.71 687.8,-174.79"/>
<polygon fill="black" stroke="black" points="729.04,-133.87 729.25,-123.28 722.48,-131.43 729.04,-133.87"/>
<text text-anchor="middle" x="785.34" y="-144.8" font-family="Times,serif" font-size="14.00">द्वन्द्वः</text>
</g>
<!-- Node6_1 -->
<g id="node12" class="node">
<title>Node6_1</title>
<ellipse fill="#ff99ff" stroke="#ff99ff" cx="516.84" cy="-453" rx="41.69" ry="18"/>
<text text-anchor="middle" x="516.84" y="-449.3" font-family="Times,serif" font-size="14.00">च(6.1)</text>
</g>
<!-- Node6_1&#45;&gt;Node5_1 -->
<g id="edge9" class="edge">
<title>Node6_1&#45;&gt;Node5_1</title>
<path fill="none" stroke="black" d="M495.78,-477.33C486.21,-486.75 474.27,-497.02 461.84,-504 445.7,-513.07 426.97,-520 409.22,-525.2"/>
<polygon fill="black" stroke="black" points="498.41,-479.64 502.9,-470.04 493.41,-474.75 498.41,-479.64"/>
<text text-anchor="middle" x="584.34" y="-492.8" font-family="Times,serif" font-size="14.00">समुच्चय_द्योतकः</text>
</g>
<!-- Node9_1 -->
<g id="node13" class="node">
<title>Node9_1</title>
<ellipse fill="#ffff00" stroke="#ffff00" cx="81.84" cy="-453" rx="63.09" ry="18"/>
<text text-anchor="middle" x="81.84" y="-449.3" font-family="Times,serif" font-size="14.00">कपि&#45;(9.1)</text>
</g>
<!-- Node9_2 -->
<g id="node14" class="node">
<title>Node9_2</title>
<ellipse fill="#00bfff" stroke="#00bfff" cx="96.84" cy="-540" rx="96.68" ry="18"/>
<text text-anchor="middle" x="96.84" y="-536.3" font-family="Times,serif" font-size="14.00">कुञ्जरः(9.2)</text>
</g>
<!-- Node9_1&#45;&gt;Node9_2 -->
<g id="edge11" class="edge">
<title>Node9_1&#45;&gt;Node9_2</title>
<path fill="none" stroke="black" d="M82.93,-481.49C83.52,-488.85 84.43,-496.76 85.84,-504 86.98,-509.88 88.77,-516.16 90.58,-521.75"/>
<polygon fill="black" stroke="black" points="86.4,-481.01 82.27,-471.25 79.42,-481.46 86.4,-481.01"/>
<text text-anchor="middle" x="150.34" y="-492.8" font-family="Times,serif" font-size="14.00">कर्मधारयः</text>
</g>
<!-- Node9_2&#45;&gt;Node8_1 -->
<g id="edge12" class="edge">
<title>Node9_2&#45;&gt;Node8_1</title>
<path fill="none" stroke="black" d="M128.92,-563.35C149.82,-577.91 176.62,-596.58 195.5,-609.74"/>
<polygon fill="black" stroke="black" points="130.86,-560.44 120.65,-557.59 126.86,-566.18 130.86,-560.44"/>
<text text-anchor="middle" x="201.84" y="-579.8" font-family="Times,serif" font-size="14.00">कर्ता</text>
</g>
<!-- Node10_1 -->
<g id="node15" class="node">
<title>Node10_1</title>
<ellipse fill="#ffff00" stroke="#ffff00" cx="500.84" cy="-366" rx="59.59" ry="18"/>
<text text-anchor="middle" x="500.84" y="-362.3" font-family="Times,serif" font-size="14.00">जल&#45;(10.1)</text>
</g>
<!-- Node10_1&#45;&gt;Node10_2 -->
<g id="edge13" class="edge">
<title>Node10_1&#45;&gt;Node10_2</title>
<path fill="none" stroke="black" d="M506.73,-394.14C509.86,-402.64 514.63,-411.28 521.84,-417 524.61,-419.19 599.91,-431.56 658.9,-440.98"/>
<polygon fill="black" stroke="black" points="510.02,-392.95 503.74,-384.42 503.33,-395 510.02,-392.95"/>
<text text-anchor="middle" x="625.34" y="-405.8" font-family="Times,serif" font-size="14.00">षष्ठी_तत्पुरुषः</text>
</g>
</g>
</svg>
