<?xml version="1.0" encoding="UTF-8" standalone="no"?>
<!DOCTYPE svg PUBLIC "-//W3C//DTD SVG 1.1//EN"
 "http://www.w3.org/Graphics/SVG/1.1/DTD/svg11.dtd">
<!-- Generated by graphviz version 2.43.0 (0)
 -->
<!-- Title: G Pages: 1 -->
<svg width="931pt" height="392pt"
 viewBox="0.00 0.00 931.00 392.00" xmlns="http://www.w3.org/2000/svg" xmlns:xlink="http://www.w3.org/1999/xlink">
<g id="graph0" class="graph" transform="scale(1 1) rotate(0) translate(4 388)">
<title>G</title>
<polygon fill="#fffacd" stroke="transparent" points="-4,4 -4,-388 927,-388 927,4 -4,4"/>
<g id="clust1" class="cluster">
<title>cluster_1</title>
<polygon fill="#fffacd" stroke="black" points="532,-79 532,-218 899,-218 899,-79 532,-79"/>
</g>
<g id="clust2" class="cluster">
<title>cluster_2</title>
<polygon fill="#fffacd" stroke="black" points="294,-166 294,-305 524,-305 524,-166 294,-166"/>
</g>
<g id="clust3" class="cluster">
<title>cluster_3</title>
<polygon fill="#fffacd" stroke="black" points="8,-166 8,-305 286,-305 286,-166 8,-166"/>
</g>
<!-- Node1_2 -->
<g id="node1" class="node">
<title>Node1_2</title>
<ellipse fill="#00bfff" stroke="#00bfff" cx="610" cy="-105" rx="69.59" ry="18"/>
<text text-anchor="middle" x="610" y="-101.3" font-family="Times,serif" font-size="14.00">ओजसः(1.2)</text>
</g>
<!-- Node3_1 -->
<g id="node2" class="node">
<title>Node3_1</title>
<ellipse fill="#00bfff" stroke="#00bfff" cx="637" cy="-192" rx="96.68" ry="18"/>
<text text-anchor="middle" x="637" y="-188.3" font-family="Times,serif" font-size="14.00">बलवन्तः(3.1)</text>
</g>
<!-- Node1_2&#45;&gt;Node3_1 -->
<g id="edge2" class="edge">
<title>Node1_2&#45;&gt;Node3_1</title>
<path fill="none" stroke="black" d="M607.54,-133.26C607.66,-140.79 608.56,-148.85 611,-156 613.2,-162.45 617.07,-168.69 621.16,-174.07"/>
<polygon fill="black" stroke="black" points="611.04,-133.2 607.8,-123.11 604.04,-133.02 611.04,-133.2"/>
<text text-anchor="middle" x="675.5" y="-144.8" font-family="Times,serif" font-size="14.00">समुच्चितः</text>
</g>
<!-- Node5_1 -->
<g id="node4" class="node">
<title>Node5_1</title>
<ellipse fill="#00bfff" stroke="#00bfff" cx="409" cy="-279" rx="106.68" ry="18"/>
<text text-anchor="middle" x="409" y="-275.3" font-family="Times,serif" font-size="14.00">राक्षसाः(5.1)</text>
</g>
<!-- Node3_1&#45;&gt;Node5_1 -->
<g id="edge5" class="edge">
<title>Node3_1&#45;&gt;Node5_1</title>
<path fill="none" stroke="black" d="M594.95,-213.3C574.16,-222.94 548.54,-234.24 525,-243 504.89,-250.49 482.39,-257.56 462.6,-263.37"/>
<polygon fill="black" stroke="black" points="596.56,-216.41 604.13,-209 593.59,-210.06 596.56,-216.41"/>
<text text-anchor="middle" x="617.5" y="-231.8" font-family="Times,serif" font-size="14.00">विशेषणम्</text>
</g>
<!-- Node2_2 -->
<g id="node3" class="node">
<title>Node2_2</title>
<ellipse fill="#00bfff" stroke="#00bfff" cx="794" cy="-105" rx="96.68" ry="18"/>
<text text-anchor="middle" x="794" y="-101.3" font-family="Times,serif" font-size="14.00">वीर्याः(2.2)</text>
</g>
<!-- Node2_2&#45;&gt;Node3_1 -->
<g id="edge4" class="edge">
<title>Node2_2&#45;&gt;Node3_1</title>
<path fill="none" stroke="black" d="M772.16,-130.18C762.95,-139.26 751.66,-149.05 740,-156 725.23,-164.8 707.95,-171.76 691.81,-177.09"/>
<polygon fill="black" stroke="black" points="774.88,-132.4 779.37,-122.8 769.88,-127.5 774.88,-132.4"/>
<text text-anchor="middle" x="823.5" y="-144.8" font-family="Times,serif" font-size="14.00">समुच्चितः</text>
</g>
<!-- Node6_1 -->
<g id="node11" class="node">
<title>Node6_1</title>
<ellipse fill="#00bfff" stroke="#00bfff" cx="320" cy="-366" rx="115.88" ry="18"/>
<text text-anchor="middle" x="320" y="-362.3" font-family="Times,serif" font-size="14.00">वञ्चनीयाः(6.1)</text>
</g>
<!-- Node5_1&#45;&gt;Node6_1 -->
<g id="edge7" class="edge">
<title>Node5_1&#45;&gt;Node6_1</title>
<path fill="none" stroke="black" d="M384.1,-303.78C369.39,-317.83 351.12,-335.28 337.85,-347.95"/>
<polygon fill="black" stroke="black" points="386.6,-306.23 391.42,-296.79 381.77,-301.17 386.6,-306.23"/>
<text text-anchor="middle" x="399" y="-318.8" font-family="Times,serif" font-size="14.00">कर्म</text>
</g>
<!-- Node8_1 -->
<g id="node5" class="node">
<title>Node8_1</title>
<ellipse fill="#00bfff" stroke="#00bfff" cx="401" cy="-192" rx="78.79" ry="18"/>
<text text-anchor="middle" x="401" y="-188.3" font-family="Times,serif" font-size="14.00">सर्वे(8.1)</text>
</g>
<!-- Node8_1&#45;&gt;Node5_1 -->
<g id="edge9" class="edge">
<title>Node8_1&#45;&gt;Node5_1</title>
<path fill="none" stroke="black" d="M403.57,-220.27C404.82,-233.58 406.29,-249.19 407.38,-260.82"/>
<polygon fill="black" stroke="black" points="407.04,-219.83 402.62,-210.2 400.07,-220.49 407.04,-219.83"/>
<text text-anchor="middle" x="463.5" y="-231.8" font-family="Times,serif" font-size="14.00">विशेषणम्</text>
</g>
<!-- Node10_1 -->
<g id="node6" class="node">
<title>Node10_1</title>
<ellipse fill="#40e0d0" stroke="#40e0d0" cx="147" cy="-192" rx="130.78" ry="18"/>
<text text-anchor="middle" x="147" y="-188.3" font-family="Times,serif" font-size="14.00">परिमार्गता(10.1)</text>
</g>
<!-- Node7_1 -->
<g id="node7" class="node">
<title>Node7_1</title>
<ellipse fill="#40e0d0" stroke="#40e0d0" cx="190" cy="-279" rx="59.59" ry="18"/>
<text text-anchor="middle" x="190" y="-275.3" font-family="Times,serif" font-size="14.00">मया(7.1)</text>
</g>
<!-- Node10_1&#45;&gt;Node7_1 -->
<g id="edge11" class="edge">
<title>Node10_1&#45;&gt;Node7_1</title>
<path fill="none" stroke="black" d="M160.23,-219.15C167.14,-232.81 175.39,-249.13 181.46,-261.11"/>
<polygon fill="black" stroke="black" points="163.34,-217.54 155.7,-210.2 157.09,-220.7 163.34,-217.54"/>
<text text-anchor="middle" x="229.5" y="-231.8" font-family="Times,serif" font-size="14.00">विशेषणम्</text>
</g>
<!-- Node7_1&#45;&gt;Node6_1 -->
<g id="edge8" class="edge">
<title>Node7_1&#45;&gt;Node6_1</title>
<path fill="none" stroke="black" d="M222.32,-301.13C244.63,-315.72 273.87,-334.84 294.53,-348.35"/>
<polygon fill="black" stroke="black" points="224.13,-298.13 213.84,-295.59 220.3,-303.99 224.13,-298.13"/>
<text text-anchor="middle" x="299" y="-318.8" font-family="Times,serif" font-size="14.00">कर्ता</text>
</g>
<!-- Node1_1 -->
<g id="node8" class="node">
<title>Node1_1</title>
<ellipse fill="#ffff00" stroke="#ffff00" cx="610" cy="-18" rx="63.09" ry="18"/>
<text text-anchor="middle" x="610" y="-14.3" font-family="Times,serif" font-size="14.00">महा&#45;(1.1)</text>
</g>
<!-- Node1_1&#45;&gt;Node1_2 -->
<g id="edge1" class="edge">
<title>Node1_1&#45;&gt;Node1_2</title>
<path fill="none" stroke="black" d="M610,-46.27C610,-59.58 610,-75.19 610,-86.82"/>
<polygon fill="black" stroke="black" points="613.5,-46.2 610,-36.2 606.5,-46.2 613.5,-46.2"/>
<text text-anchor="middle" x="681.5" y="-57.8" font-family="Times,serif" font-size="14.00">बहुव्रीहिः</text>
</g>
<!-- Node2_1 -->
<g id="node9" class="node">
<title>Node2_1</title>
<ellipse fill="#ffff00" stroke="#ffff00" cx="794" cy="-18" rx="63.09" ry="18"/>
<text text-anchor="middle" x="794" y="-14.3" font-family="Times,serif" font-size="14.00">महा&#45;(2.1)</text>
</g>
<!-- Node2_1&#45;&gt;Node2_2 -->
<g id="edge3" class="edge">
<title>Node2_1&#45;&gt;Node2_2</title>
<path fill="none" stroke="black" d="M794,-46.27C794,-59.58 794,-75.19 794,-86.82"/>
<polygon fill="black" stroke="black" points="797.5,-46.2 794,-36.2 790.5,-46.2 797.5,-46.2"/>
<text text-anchor="middle" x="858.5" y="-57.8" font-family="Times,serif" font-size="14.00">कर्मधारयः</text>
</g>
<!-- Node4_1 -->
<g id="node10" class="node">
<title>Node4_1</title>
<ellipse fill="#ff99ff" stroke="#ff99ff" cx="380" cy="-105" rx="41.69" ry="18"/>
<text text-anchor="middle" x="380" y="-101.3" font-family="Times,serif" font-size="14.00">च(4.1)</text>
</g>
<!-- Node4_1&#45;&gt;Node3_1 -->
<g id="edge6" class="edge">
<title>Node4_1&#45;&gt;Node3_1</title>
<path fill="none" stroke="black" d="M383.23,-133.03C385.64,-141.67 389.81,-150.43 397,-156 408.54,-164.95 513.57,-163.81 528,-166 546.14,-168.76 565.74,-172.88 583.25,-177"/>
<polygon fill="black" stroke="black" points="386.63,-132.19 381.13,-123.13 379.79,-133.64 386.63,-132.19"/>
<text text-anchor="middle" x="500.5" y="-144.8" font-family="Times,serif" font-size="14.00">समुच्चय_द्योतकः</text>
</g>
<!-- Node9_1 -->
<g id="node12" class="node">
<title>Node9_1</title>
<ellipse fill="#93db70" stroke="#93db70" cx="147" cy="-105" rx="96.68" ry="18"/>
<text text-anchor="middle" x="147" y="-101.3" font-family="Times,serif" font-size="14.00">जानकीम्(9.1)</text>
</g>
<!-- Node9_1&#45;&gt;Node10_1 -->
<g id="edge10" class="edge">
<title>Node9_1&#45;&gt;Node10_1</title>
<path fill="none" stroke="black" d="M147,-133.27C147,-146.58 147,-162.19 147,-173.82"/>
<polygon fill="black" stroke="black" points="150.5,-133.2 147,-123.2 143.5,-133.2 150.5,-133.2"/>
<text text-anchor="middle" x="176" y="-144.8" font-family="Times,serif" font-size="14.00">कर्म</text>
</g>
</g>
</svg>
