<?xml version="1.0" encoding="UTF-8" standalone="no"?>
<!DOCTYPE svg PUBLIC "-//W3C//DTD SVG 1.1//EN"
 "http://www.w3.org/Graphics/SVG/1.1/DTD/svg11.dtd">
<!-- Generated by graphviz version 2.43.0 (0)
 -->
<!-- Title: G Pages: 1 -->
<svg width="2770pt" height="566pt"
 viewBox="0.00 0.00 2770.00 566.00" xmlns="http://www.w3.org/2000/svg" xmlns:xlink="http://www.w3.org/1999/xlink">
<g id="graph0" class="graph" transform="scale(1 1) rotate(0) translate(4 562)">
<title>G</title>
<polygon fill="#fffacd" stroke="transparent" points="-4,4 -4,-562 2766,-562 2766,4 -4,4"/>
<g id="clust1" class="cluster">
<title>cluster_1</title>
<polygon fill="#fffacd" stroke="black" points="1536,-253 1536,-392 2736,-392 2736,-253 1536,-253"/>
</g>
<g id="clust2" class="cluster">
<title>cluster_2</title>
<polygon fill="#fffacd" stroke="black" points="8,-253 8,-392 472,-392 472,-253 8,-253"/>
</g>
<g id="clust3" class="cluster">
<title>cluster_3</title>
<polygon fill="#fffacd" stroke="black" points="641,-79 641,-218 919,-218 919,-79 641,-79"/>
</g>
<!-- Node1_3 -->
<g id="node1" class="node">
<title>Node1_3</title>
<ellipse fill="#93db70" stroke="#93db70" cx="1632" cy="-279" rx="87.99" ry="18"/>
<text text-anchor="middle" x="1632" y="-275.3" font-family="Times,serif" font-size="14.00">जघनाम्(1.3)</text>
</g>
<!-- Node7_1 -->
<g id="node2" class="node">
<title>Node7_1</title>
<ellipse fill="#93db70" stroke="#93db70" cx="1844" cy="-366" rx="96.68" ry="18"/>
<text text-anchor="middle" x="1844" y="-362.3" font-family="Times,serif" font-size="14.00">लङ्काम्(7.1)</text>
</g>
<!-- Node1_3&#45;&gt;Node7_1 -->
<g id="edge3" class="edge">
<title>Node1_3&#45;&gt;Node7_1</title>
<path fill="none" stroke="black" d="M1667.55,-301.36C1684.54,-310.98 1705.4,-321.95 1725,-330 1745.22,-338.3 1768.11,-345.52 1788.38,-351.22"/>
<polygon fill="black" stroke="black" points="1668.96,-298.13 1658.54,-296.18 1665.47,-304.2 1668.96,-298.13"/>
<text text-anchor="middle" x="1782.5" y="-318.8" font-family="Times,serif" font-size="14.00">विशेषणम्</text>
</g>
<!-- Node12_1 -->
<g id="node22" class="node">
<title>Node12_1</title>
<ellipse fill="#ff99ff" stroke="#ff99ff" cx="1278" cy="-453" rx="93.68" ry="18"/>
<text text-anchor="middle" x="1278" y="-449.3" font-family="Times,serif" font-size="14.00">आसाद्य(12.1)</text>
</g>
<!-- Node7_1&#45;&gt;Node12_1 -->
<g id="edge14" class="edge">
<title>Node7_1&#45;&gt;Node12_1</title>
<path fill="none" stroke="black" d="M1761,-379.47C1649.73,-396.17 1454.12,-425.55 1349.22,-441.3"/>
<polygon fill="black" stroke="black" points="1761.79,-382.88 1771.16,-377.94 1760.76,-375.96 1761.79,-382.88"/>
<text text-anchor="middle" x="1623" y="-405.8" font-family="Times,serif" font-size="14.00">कर्म</text>
</g>
<!-- Node2_4 -->
<g id="node3" class="node">
<title>Node2_4</title>
<ellipse fill="#93db70" stroke="#93db70" cx="1844" cy="-279" rx="106.68" ry="18"/>
<text text-anchor="middle" x="1844" y="-275.3" font-family="Times,serif" font-size="14.00">अम्बराम्(2.4)</text>
</g>
<!-- Node2_4&#45;&gt;Node7_1 -->
<g id="edge7" class="edge">
<title>Node2_4&#45;&gt;Node7_1</title>
<path fill="none" stroke="black" d="M1844,-307.27C1844,-320.58 1844,-336.19 1844,-347.82"/>
<polygon fill="black" stroke="black" points="1847.5,-307.2 1844,-297.2 1840.5,-307.2 1847.5,-307.2"/>
<text text-anchor="middle" x="1901.5" y="-318.8" font-family="Times,serif" font-size="14.00">विशेषणम्</text>
</g>
<!-- Node3_3 -->
<g id="node4" class="node">
<title>Node3_3</title>
<ellipse fill="#93db70" stroke="#93db70" cx="2093" cy="-279" rx="124.58" ry="18"/>
<text text-anchor="middle" x="2093" y="-275.3" font-family="Times,serif" font-size="14.00">केशान्ताम्(3.3)</text>
</g>
<!-- Node3_3&#45;&gt;Node7_1 -->
<g id="edge10" class="edge">
<title>Node3_3&#45;&gt;Node7_1</title>
<path fill="none" stroke="black" d="M2044.14,-299.87C2019.91,-309.45 1990.09,-320.82 1963,-330 1941.18,-337.39 1916.81,-344.72 1895.83,-350.75"/>
<polygon fill="black" stroke="black" points="2045.48,-303.11 2053.48,-296.16 2042.89,-296.6 2045.48,-303.11"/>
<text text-anchor="middle" x="2059.5" y="-318.8" font-family="Times,serif" font-size="14.00">विशेषणम्</text>
</g>
<!-- Node8_1 -->
<g id="node5" class="node">
<title>Node8_1</title>
<ellipse fill="#93db70" stroke="#93db70" cx="2361" cy="-279" rx="124.58" ry="18"/>
<text text-anchor="middle" x="2361" y="-275.3" font-family="Times,serif" font-size="14.00">निर्मिताम्(8.1)</text>
</g>
<!-- Node8_1&#45;&gt;Node7_1 -->
<g id="edge15" class="edge">
<title>Node8_1&#45;&gt;Node7_1</title>
<path fill="none" stroke="black" d="M2287.97,-296.79C2240.56,-307.3 2177.34,-320.59 2121,-330 2055.74,-340.9 1981.32,-350.13 1926.06,-356.37"/>
<polygon fill="black" stroke="black" points="2288.84,-300.18 2297.84,-294.59 2287.32,-293.35 2288.84,-300.18"/>
<text text-anchor="middle" x="2257.5" y="-318.8" font-family="Times,serif" font-size="14.00">विशेषणम्</text>
</g>
<!-- Node24_2 -->
<g id="node6" class="node">
<title>Node24_2</title>
<ellipse fill="#93db70" stroke="#93db70" cx="2616" cy="-279" rx="112.38" ry="18"/>
<text text-anchor="middle" x="2616" y="-275.3" font-family="Times,serif" font-size="14.00">वतंसकाम्(24.2)</text>
</g>
<!-- Node24_2&#45;&gt;Node7_1 -->
<g id="edge34" class="edge">
<title>Node24_2&#45;&gt;Node7_1</title>
<path fill="none" stroke="black" d="M2537.73,-295.23C2478.01,-306.35 2393.59,-320.99 2319,-330 2186.63,-345.98 2032.55,-355.72 1936.64,-360.73"/>
<polygon fill="black" stroke="black" points="2538.66,-298.61 2547.84,-293.33 2537.37,-291.73 2538.66,-298.61"/>
<text text-anchor="middle" x="2474.5" y="-318.8" font-family="Times,serif" font-size="14.00">विशेषणम्</text>
</g>
<!-- Node11_1 -->
<g id="node7" class="node">
<title>Node11_1</title>
<ellipse fill="#93db70" stroke="#93db70" cx="361" cy="-279" rx="102.88" ry="18"/>
<text text-anchor="middle" x="361" y="-275.3" font-family="Times,serif" font-size="14.00">उत्तरम्(11.1)</text>
</g>
<!-- Node10_1 -->
<g id="node8" class="node">
<title>Node10_1</title>
<ellipse fill="#93db70" stroke="#93db70" cx="361" cy="-366" rx="102.88" ry="18"/>
<text text-anchor="middle" x="361" y="-362.3" font-family="Times,serif" font-size="14.00">द्वारम्(10.1)</text>
</g>
<!-- Node11_1&#45;&gt;Node10_1 -->
<g id="edge18" class="edge">
<title>Node11_1&#45;&gt;Node10_1</title>
<path fill="none" stroke="black" d="M361,-307.27C361,-320.58 361,-336.19 361,-347.82"/>
<polygon fill="black" stroke="black" points="364.5,-307.2 361,-297.2 357.5,-307.2 364.5,-307.2"/>
<text text-anchor="middle" x="418.5" y="-318.8" font-family="Times,serif" font-size="14.00">विशेषणम्</text>
</g>
<!-- Node10_1&#45;&gt;Node12_1 -->
<g id="edge17" class="edge">
<title>Node10_1&#45;&gt;Node12_1</title>
<path fill="none" stroke="black" d="M466.85,-373.12C622.41,-382.74 921.79,-403.58 1175,-435 1186.87,-436.47 1199.47,-438.32 1211.63,-440.24"/>
<polygon fill="black" stroke="black" points="467,-369.63 456.81,-372.5 466.58,-376.61 467,-369.63"/>
<text text-anchor="middle" x="1026" y="-405.8" font-family="Times,serif" font-size="14.00">कर्म</text>
</g>
<!-- Node15_3 -->
<g id="node9" class="node">
<title>Node15_3</title>
<ellipse fill="#93db70" stroke="#93db70" cx="128" cy="-279" rx="112.38" ry="18"/>
<text text-anchor="middle" x="128" y="-275.3" font-family="Times,serif" font-size="14.00">प्रख्यम्(15.3)</text>
</g>
<!-- Node15_3&#45;&gt;Node10_1 -->
<g id="edge23" class="edge">
<title>Node15_3&#45;&gt;Node10_1</title>
<path fill="none" stroke="black" d="M171.28,-300.54C192.36,-310.14 218.23,-321.33 242,-330 262.94,-337.64 286.4,-344.82 306.92,-350.67"/>
<polygon fill="black" stroke="black" points="172.51,-297.25 161.96,-296.25 169.58,-303.61 172.51,-297.25"/>
<text text-anchor="middle" x="299.5" y="-318.8" font-family="Times,serif" font-size="14.00">विशेषणम्</text>
</g>
<!-- Node22_1 -->
<g id="node10" class="node">
<title>Node22_1</title>
<ellipse fill="#40e0d0" stroke="#40e0d0" cx="780" cy="-105" rx="130.78" ry="18"/>
<text text-anchor="middle" x="780" y="-101.3" font-family="Times,serif" font-size="14.00">उच्छ्रितैः(22.1)</text>
</g>
<!-- Node23_2 -->
<g id="node11" class="node">
<title>Node23_2</title>
<ellipse fill="#40e0d0" stroke="#40e0d0" cx="807" cy="-192" rx="102.88" ry="18"/>
<text text-anchor="middle" x="807" y="-188.3" font-family="Times,serif" font-size="14.00">उत्तमैः(23.2)</text>
</g>
<!-- Node22_1&#45;&gt;Node23_2 -->
<g id="edge30" class="edge">
<title>Node22_1&#45;&gt;Node23_2</title>
<path fill="none" stroke="black" d="M788.54,-132.87C792.79,-146.27 797.81,-162.08 801.54,-173.82"/>
<polygon fill="black" stroke="black" points="791.83,-131.67 785.46,-123.2 785.16,-133.79 791.83,-131.67"/>
<text text-anchor="middle" x="852.5" y="-144.8" font-family="Times,serif" font-size="14.00">विशेषणम्</text>
</g>
<!-- Node19_1 -->
<g id="node31" class="node">
<title>Node19_1</title>
<ellipse fill="#93db70" stroke="#93db70" cx="912" cy="-279" rx="130.78" ry="18"/>
<text text-anchor="middle" x="912" y="-275.3" font-family="Times,serif" font-size="14.00">ध्रियमाणम्(19.1)</text>
</g>
<!-- Node23_2&#45;&gt;Node19_1 -->
<g id="edge32" class="edge">
<title>Node23_2&#45;&gt;Node19_1</title>
<path fill="none" stroke="black" d="M832.7,-217C842.05,-225.45 852.82,-234.86 863,-243 870.76,-249.2 879.5,-255.62 887.44,-261.24"/>
<polygon fill="black" stroke="black" points="834.97,-214.34 825.23,-210.19 830.26,-219.51 834.97,-214.34"/>
<text text-anchor="middle" x="899" y="-231.8" font-family="Times,serif" font-size="14.00">करणम्</text>
</g>
<!-- Node1_1 -->
<g id="node12" class="node">
<title>Node1_1</title>
<ellipse fill="#ffff00" stroke="#ffff00" cx="1656" cy="-105" rx="72.29" ry="18"/>
<text text-anchor="middle" x="1656" y="-101.3" font-family="Times,serif" font-size="14.00">वप्र&#45;(1.1)</text>
</g>
<!-- Node1_2 -->
<g id="node13" class="node">
<title>Node1_2</title>
<ellipse fill="#ffff00" stroke="#ffff00" cx="1656" cy="-192" rx="100.18" ry="18"/>
<text text-anchor="middle" x="1656" y="-188.3" font-family="Times,serif" font-size="14.00">प्राकार&#45;(1.2)</text>
</g>
<!-- Node1_1&#45;&gt;Node1_2 -->
<g id="edge1" class="edge">
<title>Node1_1&#45;&gt;Node1_2</title>
<path fill="none" stroke="black" d="M1656,-133.27C1656,-146.58 1656,-162.19 1656,-173.82"/>
<polygon fill="black" stroke="black" points="1659.5,-133.2 1656,-123.2 1652.5,-133.2 1659.5,-133.2"/>
<text text-anchor="middle" x="1720.5" y="-144.8" font-family="Times,serif" font-size="14.00">कर्मधारयः</text>
</g>
<!-- Node1_2&#45;&gt;Node1_3 -->
<g id="edge2" class="edge">
<title>Node1_2&#45;&gt;Node1_3</title>
<path fill="none" stroke="black" d="M1648.41,-219.87C1644.63,-233.27 1640.17,-249.08 1636.85,-260.82"/>
<polygon fill="black" stroke="black" points="1651.79,-220.78 1651.14,-210.2 1645.06,-218.87 1651.79,-220.78"/>
<text text-anchor="middle" x="1716.5" y="-231.8" font-family="Times,serif" font-size="14.00">बहुव्रीहिः</text>
</g>
<!-- Node2_1 -->
<g id="node14" class="node">
<title>Node2_1</title>
<ellipse fill="#ffff00" stroke="#ffff00" cx="1844" cy="-18" rx="81.49" ry="18"/>
<text text-anchor="middle" x="1844" y="-14.3" font-family="Times,serif" font-size="14.00">विपुल&#45;(2.1)</text>
</g>
<!-- Node2_2 -->
<g id="node15" class="node">
<title>Node2_2</title>
<ellipse fill="#ffff00" stroke="#ffff00" cx="1844" cy="-105" rx="81.49" ry="18"/>
<text text-anchor="middle" x="1844" y="-101.3" font-family="Times,serif" font-size="14.00">अम्बु&#45;(2.2)</text>
</g>
<!-- Node2_1&#45;&gt;Node2_2 -->
<g id="edge4" class="edge">
<title>Node2_1&#45;&gt;Node2_2</title>
<path fill="none" stroke="black" d="M1844,-46.27C1844,-59.58 1844,-75.19 1844,-86.82"/>
<polygon fill="black" stroke="black" points="1847.5,-46.2 1844,-36.2 1840.5,-46.2 1847.5,-46.2"/>
<text text-anchor="middle" x="1915.5" y="-57.8" font-family="Times,serif" font-size="14.00">बहुव्रीहिः</text>
</g>
<!-- Node2_3 -->
<g id="node16" class="node">
<title>Node2_3</title>
<ellipse fill="#ffff00" stroke="#ffff00" cx="1844" cy="-192" rx="53.89" ry="18"/>
<text text-anchor="middle" x="1844" y="-188.3" font-family="Times,serif" font-size="14.00">वन&#45;(2.3)</text>
</g>
<!-- Node2_2&#45;&gt;Node2_3 -->
<g id="edge5" class="edge">
<title>Node2_2&#45;&gt;Node2_3</title>
<path fill="none" stroke="black" d="M1844,-133.27C1844,-146.58 1844,-162.19 1844,-173.82"/>
<polygon fill="black" stroke="black" points="1847.5,-133.2 1844,-123.2 1840.5,-133.2 1847.5,-133.2"/>
<text text-anchor="middle" x="1908.5" y="-144.8" font-family="Times,serif" font-size="14.00">द्वन्द्वः</text>
</g>
<!-- Node2_3&#45;&gt;Node2_4 -->
<g id="edge6" class="edge">
<title>Node2_3&#45;&gt;Node2_4</title>
<path fill="none" stroke="black" d="M1844,-220.27C1844,-233.58 1844,-249.19 1844,-260.82"/>
<polygon fill="black" stroke="black" points="1847.5,-220.2 1844,-210.2 1840.5,-220.2 1847.5,-220.2"/>
<text text-anchor="middle" x="1915.5" y="-231.8" font-family="Times,serif" font-size="14.00">बहुव्रीहिः</text>
</g>
<!-- Node3_1 -->
<g id="node17" class="node">
<title>Node3_1</title>
<ellipse fill="#ffff00" stroke="#ffff00" cx="2093" cy="-105" rx="90.98" ry="18"/>
<text text-anchor="middle" x="2093" y="-101.3" font-family="Times,serif" font-size="14.00">शतघ्नी&#45;(3.1)</text>
</g>
<!-- Node3_2 -->
<g id="node18" class="node">
<title>Node3_2</title>
<ellipse fill="#ffff00" stroke="#ffff00" cx="2093" cy="-192" rx="63.09" ry="18"/>
<text text-anchor="middle" x="2093" y="-188.3" font-family="Times,serif" font-size="14.00">शूल&#45;(3.2)</text>
</g>
<!-- Node3_1&#45;&gt;Node3_2 -->
<g id="edge8" class="edge">
<title>Node3_1&#45;&gt;Node3_2</title>
<path fill="none" stroke="black" d="M2093,-133.27C2093,-146.58 2093,-162.19 2093,-173.82"/>
<polygon fill="black" stroke="black" points="2096.5,-133.2 2093,-123.2 2089.5,-133.2 2096.5,-133.2"/>
<text text-anchor="middle" x="2157.5" y="-144.8" font-family="Times,serif" font-size="14.00">द्वन्द्वः</text>
</g>
<!-- Node3_2&#45;&gt;Node3_3 -->
<g id="edge9" class="edge">
<title>Node3_2&#45;&gt;Node3_3</title>
<path fill="none" stroke="black" d="M2093,-220.27C2093,-233.58 2093,-249.19 2093,-260.82"/>
<polygon fill="black" stroke="black" points="2096.5,-220.2 2093,-210.2 2089.5,-220.2 2096.5,-220.2"/>
<text text-anchor="middle" x="2164.5" y="-231.8" font-family="Times,serif" font-size="14.00">बहुव्रीहिः</text>
</g>
<!-- Node4_1 -->
<g id="node19" class="node">
<title>Node4_1</title>
<ellipse fill="#40e0d0" stroke="#40e0d0" cx="1333" cy="-192" rx="69.59" ry="18"/>
<text text-anchor="middle" x="1333" y="-188.3" font-family="Times,serif" font-size="14.00">मनसा(4.1)</text>
</g>
<!-- Node6_1 -->
<g id="node20" class="node">
<title>Node6_1</title>
<ellipse fill="#93db70" stroke="#93db70" cx="1439" cy="-279" rx="87.99" ry="18"/>
<text text-anchor="middle" x="1439" y="-275.3" font-family="Times,serif" font-size="14.00">कृताम्(6.1)</text>
</g>
<!-- Node4_1&#45;&gt;Node6_1 -->
<g id="edge11" class="edge">
<title>Node4_1&#45;&gt;Node6_1</title>
<path fill="none" stroke="black" d="M1352.09,-217.95C1359.34,-226.49 1368.02,-235.71 1377,-243 1385.83,-250.16 1396.32,-256.7 1406.14,-262.13"/>
<polygon fill="black" stroke="black" points="1354.67,-215.58 1345.63,-210.06 1349.26,-220.01 1354.67,-215.58"/>
<text text-anchor="middle" x="1413" y="-231.8" font-family="Times,serif" font-size="14.00">करणम्</text>
</g>
<!-- Node6_1&#45;&gt;Node7_1 -->
<g id="edge13" class="edge">
<title>Node6_1&#45;&gt;Node7_1</title>
<path fill="none" stroke="black" d="M1487.41,-298.68C1516.48,-309.25 1554.41,-321.94 1589,-330 1644.92,-343.04 1708.95,-351.81 1758.86,-357.31"/>
<polygon fill="black" stroke="black" points="1488.5,-295.35 1477.91,-295.18 1486.08,-301.92 1488.5,-295.35"/>
<text text-anchor="middle" x="1639" y="-318.8" font-family="Times,serif" font-size="14.00">उपमानम्</text>
</g>
<!-- Node5_1 -->
<g id="node21" class="node">
<title>Node5_1</title>
<ellipse fill="#ff99ff" stroke="#ff99ff" cx="1471" cy="-192" rx="50.89" ry="18"/>
<text text-anchor="middle" x="1471" y="-188.3" font-family="Times,serif" font-size="14.00">इव(5.1)</text>
</g>
<!-- Node5_1&#45;&gt;Node6_1 -->
<g id="edge12" class="edge">
<title>Node5_1&#45;&gt;Node6_1</title>
<path fill="none" stroke="black" d="M1460.88,-219.87C1455.84,-233.27 1449.89,-249.08 1445.47,-260.82"/>
<polygon fill="black" stroke="black" points="1464.28,-220.79 1464.52,-210.2 1457.73,-218.33 1464.28,-220.79"/>
<text text-anchor="middle" x="1545" y="-231.8" font-family="Times,serif" font-size="14.00">उपमान_द्योतकः</text>
</g>
<!-- Node13_1 -->
<g id="node24" class="node">
<title>Node13_1</title>
<ellipse fill="#ff1975" stroke="#ff1975" cx="1129" cy="-540" rx="130.78" ry="18"/>
<text text-anchor="middle" x="1129" y="-536.3" font-family="Times,serif" font-size="14.00">चिन्तयामास(13.1)</text>
</g>
<!-- Node12_1&#45;&gt;Node13_1 -->
<g id="edge19" class="edge">
<title>Node12_1&#45;&gt;Node13_1</title>
<path fill="none" stroke="black" d="M1240.92,-475.15C1215.3,-489.77 1181.71,-508.93 1158.03,-522.44"/>
<polygon fill="black" stroke="black" points="1242.67,-478.18 1249.62,-470.19 1239.2,-472.1 1242.67,-478.18"/>
<text text-anchor="middle" x="1276.5" y="-492.8" font-family="Times,serif" font-size="14.00">पूर्वकालः</text>
</g>
<!-- Node9_1 -->
<g id="node23" class="node">
<title>Node9_1</title>
<ellipse fill="#40e0d0" stroke="#40e0d0" cx="2355" cy="-192" rx="133.78" ry="18"/>
<text text-anchor="middle" x="2355" y="-188.3" font-family="Times,serif" font-size="14.00">विश्वकर्मणा(9.1)</text>
</g>
<!-- Node9_1&#45;&gt;Node8_1 -->
<g id="edge16" class="edge">
<title>Node9_1&#45;&gt;Node8_1</title>
<path fill="none" stroke="black" d="M2356.92,-220.27C2357.86,-233.58 2358.97,-249.19 2359.79,-260.82"/>
<polygon fill="black" stroke="black" points="2360.41,-219.93 2356.21,-210.2 2353.43,-220.42 2360.41,-219.93"/>
<text text-anchor="middle" x="2394" y="-231.8" font-family="Times,serif" font-size="14.00">कर्ता</text>
</g>
<!-- Node14_1 -->
<g id="node25" class="node">
<title>Node14_1</title>
<ellipse fill="#00bfff" stroke="#00bfff" cx="1082" cy="-453" rx="84.49" ry="18"/>
<text text-anchor="middle" x="1082" y="-449.3" font-family="Times,serif" font-size="14.00">वानरः(14.1)</text>
</g>
<!-- Node14_1&#45;&gt;Node13_1 -->
<g id="edge20" class="edge">
<title>Node14_1&#45;&gt;Node13_1</title>
<path fill="none" stroke="black" d="M1096.42,-480.09C1103.92,-493.65 1112.88,-509.85 1119.5,-521.82"/>
<polygon fill="black" stroke="black" points="1099.41,-478.26 1091.51,-471.2 1093.29,-481.65 1099.41,-478.26"/>
<text text-anchor="middle" x="1144" y="-492.8" font-family="Times,serif" font-size="14.00">कर्ता</text>
</g>
<!-- Node15_1 -->
<g id="node26" class="node">
<title>Node15_1</title>
<ellipse fill="#ffff00" stroke="#ffff00" cx="128" cy="-105" rx="87.18" ry="18"/>
<text text-anchor="middle" x="128" y="-101.3" font-family="Times,serif" font-size="14.00">कैलास&#45;(15.1)</text>
</g>
<!-- Node15_2 -->
<g id="node27" class="node">
<title>Node15_2</title>
<ellipse fill="#ffff00" stroke="#ffff00" cx="128" cy="-192" rx="77.99" ry="18"/>
<text text-anchor="middle" x="128" y="-188.3" font-family="Times,serif" font-size="14.00">निलय&#45;(15.2)</text>
</g>
<!-- Node15_1&#45;&gt;Node15_2 -->
<g id="edge21" class="edge">
<title>Node15_1&#45;&gt;Node15_2</title>
<path fill="none" stroke="black" d="M128,-133.27C128,-146.58 128,-162.19 128,-173.82"/>
<polygon fill="black" stroke="black" points="131.5,-133.2 128,-123.2 124.5,-133.2 131.5,-133.2"/>
<text text-anchor="middle" x="231.5" y="-144.8" font-family="Times,serif" font-size="14.00">षष्ठी_तत्पुरुषः</text>
</g>
<!-- Node15_2&#45;&gt;Node15_3 -->
<g id="edge22" class="edge">
<title>Node15_2&#45;&gt;Node15_3</title>
<path fill="none" stroke="black" d="M128,-220.27C128,-233.58 128,-249.19 128,-260.82"/>
<polygon fill="black" stroke="black" points="131.5,-220.2 128,-210.2 124.5,-220.2 131.5,-220.2"/>
<text text-anchor="middle" x="192.5" y="-231.8" font-family="Times,serif" font-size="14.00">कर्मधारयः</text>
</g>
<!-- Node16_1 -->
<g id="node28" class="node">
<title>Node16_1</title>
<ellipse fill="#93db70" stroke="#93db70" cx="603" cy="-279" rx="121.58" ry="18"/>
<text text-anchor="middle" x="603" y="-275.3" font-family="Times,serif" font-size="14.00">आलिखन्तम्(16.1)</text>
</g>
<!-- Node16_1&#45;&gt;Node10_1 -->
<g id="edge24" class="edge">
<title>Node16_1&#45;&gt;Node10_1</title>
<path fill="none" stroke="black" d="M556.51,-300.18C533.67,-309.77 505.61,-321.05 480,-330 458.76,-337.42 435.03,-344.62 414.38,-350.53"/>
<polygon fill="black" stroke="black" points="558.11,-303.3 565.96,-296.19 555.39,-296.86 558.11,-303.3"/>
<text text-anchor="middle" x="567" y="-318.8" font-family="Times,serif" font-size="14.00">उपमानम्</text>
</g>
<!-- Node17_1 -->
<g id="node29" class="node">
<title>Node17_1</title>
<ellipse fill="#ff99ff" stroke="#ff99ff" cx="341" cy="-192" rx="56.59" ry="18"/>
<text text-anchor="middle" x="341" y="-188.3" font-family="Times,serif" font-size="14.00">इव(17.1)</text>
</g>
<!-- Node17_1&#45;&gt;Node16_1 -->
<g id="edge25" class="edge">
<title>Node17_1&#45;&gt;Node16_1</title>
<path fill="none" stroke="black" d="M354.95,-218.53C361.34,-227.78 369.78,-237.34 380,-243 398.76,-253.4 454.79,-249.81 476,-253 495.89,-255.99 517.39,-259.94 536.95,-263.82"/>
<polygon fill="black" stroke="black" points="357.78,-216.46 349.46,-209.89 351.87,-220.21 357.78,-216.46"/>
<text text-anchor="middle" x="469" y="-231.8" font-family="Times,serif" font-size="14.00">उपमान_द्योतकः</text>
</g>
<!-- Node18_1 -->
<g id="node30" class="node">
<title>Node18_1</title>
<ellipse fill="#93db70" stroke="#93db70" cx="530" cy="-192" rx="102.88" ry="18"/>
<text text-anchor="middle" x="530" y="-188.3" font-family="Times,serif" font-size="14.00">अम्बरम्(18.1)</text>
</g>
<!-- Node18_1&#45;&gt;Node16_1 -->
<g id="edge26" class="edge">
<title>Node18_1&#45;&gt;Node16_1</title>
<path fill="none" stroke="black" d="M551.45,-217.97C563.38,-231.86 577.91,-248.78 588.5,-261.11"/>
<polygon fill="black" stroke="black" points="553.94,-215.51 544.77,-210.2 548.63,-220.07 553.94,-215.51"/>
<text text-anchor="middle" x="599" y="-231.8" font-family="Times,serif" font-size="14.00">कर्म</text>
</g>
<!-- Node19_1&#45;&gt;Node10_1 -->
<g id="edge27" class="edge">
<title>Node19_1&#45;&gt;Node10_1</title>
<path fill="none" stroke="black" d="M826.25,-295.58C768.36,-305.88 690.19,-319.4 621,-330 561.12,-339.17 493.28,-348.26 441.92,-354.88"/>
<polygon fill="black" stroke="black" points="827.22,-298.96 836.45,-293.76 825.99,-292.07 827.22,-298.96"/>
<text text-anchor="middle" x="759" y="-318.8" font-family="Times,serif" font-size="14.00">उपमानम्</text>
</g>
<!-- Node20_1 -->
<g id="node32" class="node">
<title>Node20_1</title>
<ellipse fill="#ff99ff" stroke="#ff99ff" cx="984" cy="-192" rx="56.59" ry="18"/>
<text text-anchor="middle" x="984" y="-188.3" font-family="Times,serif" font-size="14.00">इव(20.1)</text>
</g>
<!-- Node20_1&#45;&gt;Node19_1 -->
<g id="edge28" class="edge">
<title>Node20_1&#45;&gt;Node19_1</title>
<path fill="none" stroke="black" d="M961.52,-217.17C958.29,-220.77 955.03,-224.46 952,-228 942.89,-238.64 933.06,-250.92 925.42,-260.65"/>
<polygon fill="black" stroke="black" points="964.33,-219.29 968.47,-209.53 959.15,-214.57 964.33,-219.29"/>
<text text-anchor="middle" x="1041" y="-231.8" font-family="Times,serif" font-size="14.00">उपमान_द्योतकः</text>
</g>
<!-- Node21_1 -->
<g id="node33" class="node">
<title>Node21_1</title>
<ellipse fill="#93db70" stroke="#93db70" cx="1152" cy="-192" rx="93.68" ry="18"/>
<text text-anchor="middle" x="1152" y="-188.3" font-family="Times,serif" font-size="14.00">आकाशम्(21.1)</text>
</g>
<!-- Node21_1&#45;&gt;Node19_1 -->
<g id="edge29" class="edge">
<title>Node21_1&#45;&gt;Node19_1</title>
<path fill="none" stroke="black" d="M1145.58,-220.2C1142.28,-228.7 1137.34,-237.33 1130,-243 1112.9,-256.21 1068.57,-264.57 1024.32,-269.8"/>
<polygon fill="black" stroke="black" points="1148.99,-221.05 1148.76,-210.46 1142.33,-218.88 1148.99,-221.05"/>
<text text-anchor="middle" x="1170" y="-231.8" font-family="Times,serif" font-size="14.00">कर्म</text>
</g>
<!-- Node23_1 -->
<g id="node34" class="node">
<title>Node23_1</title>
<ellipse fill="#ffff00" stroke="#ffff00" cx="998" cy="-105" rx="68.79" ry="18"/>
<text text-anchor="middle" x="998" y="-101.3" font-family="Times,serif" font-size="14.00">भवन&#45;(23.1)</text>
</g>
<!-- Node23_1&#45;&gt;Node23_2 -->
<g id="edge31" class="edge">
<title>Node23_1&#45;&gt;Node23_2</title>
<path fill="none" stroke="black" d="M965.6,-127.57C950.37,-137.11 931.69,-147.96 914,-156 896.65,-163.88 877,-170.84 859.31,-176.43"/>
<polygon fill="black" stroke="black" points="967.59,-130.45 974.14,-122.13 963.83,-124.55 967.59,-130.45"/>
<text text-anchor="middle" x="1052.5" y="-144.8" font-family="Times,serif" font-size="14.00">सप्तमी_तत्पुरुषः</text>
</g>
<!-- Node24_1 -->
<g id="node35" class="node">
<title>Node24_1</title>
<ellipse fill="#ffff00" stroke="#ffff00" cx="2622" cy="-192" rx="115.08" ry="18"/>
<text text-anchor="middle" x="2622" y="-188.3" font-family="Times,serif" font-size="14.00">अट्टालका&#45;(24.1)</text>
</g>
<!-- Node24_1&#45;&gt;Node24_2 -->
<g id="edge33" class="edge">
<title>Node24_1&#45;&gt;Node24_2</title>
<path fill="none" stroke="black" d="M2620.08,-220.27C2619.14,-233.58 2618.03,-249.19 2617.21,-260.82"/>
<polygon fill="black" stroke="black" points="2623.57,-220.42 2620.79,-210.2 2616.59,-219.93 2623.57,-220.42"/>
<text text-anchor="middle" x="2690.5" y="-231.8" font-family="Times,serif" font-size="14.00">बहुव्रीहिः</text>
</g>
</g>
</svg>
