<?xml version="1.0" encoding="UTF-8" standalone="no"?>
<!DOCTYPE svg PUBLIC "-//W3C//DTD SVG 1.1//EN"
 "http://www.w3.org/Graphics/SVG/1.1/DTD/svg11.dtd">
<!-- Generated by graphviz version 2.43.0 (0)
 -->
<!-- Title: G Pages: 1 -->
<svg width="1089pt" height="479pt"
 viewBox="0.00 0.00 1089.04 479.00" xmlns="http://www.w3.org/2000/svg" xmlns:xlink="http://www.w3.org/1999/xlink">
<g id="graph0" class="graph" transform="scale(1 1) rotate(0) translate(4 475)">
<title>G</title>
<polygon fill="#fffacd" stroke="transparent" points="-4,4 -4,-475 1085.04,-475 1085.04,4 -4,4"/>
<g id="clust1" class="cluster">
<title>cluster_1</title>
<polygon fill="#fffacd" stroke="black" points="278.04,-253 278.04,-392 1051.04,-392 1051.04,-253 278.04,-253"/>
</g>
<!-- Node2_3 -->
<g id="node1" class="node">
<title>Node2_3</title>
<ellipse fill="#00bfff" stroke="#00bfff" cx="576.04" cy="-279" rx="78.79" ry="18"/>
<text text-anchor="middle" x="576.04" y="-275.3" font-family="Times,serif" font-size="14.00">अक्षः(2.3)</text>
</g>
<!-- Node1_1 -->
<g id="node2" class="node">
<title>Node1_1</title>
<ellipse fill="#00bfff" stroke="#00bfff" cx="576.04" cy="-366" rx="69.59" ry="18"/>
<text text-anchor="middle" x="576.04" y="-362.3" font-family="Times,serif" font-size="14.00">रामः(1.1)</text>
</g>
<!-- Node2_3&#45;&gt;Node1_1 -->
<g id="edge4" class="edge">
<title>Node2_3&#45;&gt;Node1_1</title>
<path fill="none" stroke="black" d="M576.04,-307.27C576.04,-320.58 576.04,-336.19 576.04,-347.82"/>
<polygon fill="black" stroke="black" points="579.54,-307.2 576.04,-297.2 572.54,-307.2 579.54,-307.2"/>
<text text-anchor="middle" x="633.54" y="-318.8" font-family="Times,serif" font-size="14.00">विशेषणम्</text>
</g>
<!-- Node8_1 -->
<g id="node6" class="node">
<title>Node8_1</title>
<ellipse fill="#ff1975" stroke="#ff1975" cx="349.04" cy="-453" rx="85.29" ry="18"/>
<text text-anchor="middle" x="349.04" y="-449.3" font-family="Times,serif" font-size="14.00">[अस्ति](8.1)</text>
</g>
<!-- Node1_1&#45;&gt;Node8_1 -->
<g id="edge1" class="edge">
<title>Node1_1&#45;&gt;Node8_1</title>
<path fill="none" stroke="black" d="M528.74,-384.71C487.45,-400.17 428.19,-422.37 389.17,-436.98"/>
<polygon fill="black" stroke="black" points="530.17,-387.92 538.31,-381.13 527.71,-381.36 530.17,-387.92"/>
<text text-anchor="middle" x="512.04" y="-405.8" font-family="Times,serif" font-size="14.00">कर्ता</text>
</g>
<!-- Node3_4 -->
<g id="node3" class="node">
<title>Node3_4</title>
<ellipse fill="#00bfff" stroke="#00bfff" cx="742.04" cy="-279" rx="69.59" ry="18"/>
<text text-anchor="middle" x="742.04" y="-275.3" font-family="Times,serif" font-size="14.00">आननः(3.4)</text>
</g>
<!-- Node3_4&#45;&gt;Node1_1 -->
<g id="edge8" class="edge">
<title>Node3_4&#45;&gt;Node1_1</title>
<path fill="none" stroke="black" d="M723.44,-304.78C715.56,-313.83 705.72,-323.44 695.04,-330 675.87,-341.79 652.52,-349.78 631.6,-355.12"/>
<polygon fill="black" stroke="black" points="726.15,-307 729.84,-297.07 720.76,-302.53 726.15,-307"/>
<text text-anchor="middle" x="769.54" y="-318.8" font-family="Times,serif" font-size="14.00">विशेषणम्</text>
</g>
<!-- Node4_3 -->
<g id="node4" class="node">
<title>Node4_3</title>
<ellipse fill="#00bfff" stroke="#00bfff" cx="936.04" cy="-279" rx="106.68" ry="18"/>
<text text-anchor="middle" x="936.04" y="-275.3" font-family="Times,serif" font-size="14.00">सम्पन्नः(4.3)</text>
</g>
<!-- Node4_3&#45;&gt;Node1_1 -->
<g id="edge11" class="edge">
<title>Node4_3&#45;&gt;Node1_1</title>
<path fill="none" stroke="black" d="M898.7,-301.25C879.13,-311.48 854.42,-323.01 831.04,-330 769.07,-348.52 695.65,-357.29 643.55,-361.41"/>
<polygon fill="black" stroke="black" points="900.41,-304.3 907.59,-296.51 897.12,-298.13 900.41,-304.3"/>
<text text-anchor="middle" x="926.54" y="-318.8" font-family="Times,serif" font-size="14.00">विशेषणम्</text>
</g>
<!-- Node5_1 -->
<g id="node5" class="node">
<title>Node5_1</title>
<ellipse fill="#00bfff" stroke="#00bfff" cx="383.04" cy="-279" rx="96.68" ry="18"/>
<text text-anchor="middle" x="383.04" y="-275.3" font-family="Times,serif" font-size="14.00">प्रसूतः(5.1)</text>
</g>
<!-- Node5_1&#45;&gt;Node1_1 -->
<g id="edge12" class="edge">
<title>Node5_1&#45;&gt;Node1_1</title>
<path fill="none" stroke="black" d="M412.19,-302.75C425.33,-312.19 441.4,-322.63 457.04,-330 478.48,-340.09 503.46,-347.97 524.99,-353.68"/>
<polygon fill="black" stroke="black" points="414.14,-299.84 404,-296.74 409.99,-305.48 414.14,-299.84"/>
<text text-anchor="middle" x="514.54" y="-318.8" font-family="Times,serif" font-size="14.00">विशेषणम्</text>
</g>
<!-- Node2_1 -->
<g id="node7" class="node">
<title>Node2_1</title>
<ellipse fill="#ffff00" stroke="#ffff00" cx="526.04" cy="-105" rx="63.09" ry="18"/>
<text text-anchor="middle" x="526.04" y="-101.3" font-family="Times,serif" font-size="14.00">कमल&#45;(2.1)</text>
</g>
<!-- Node2_2 -->
<g id="node8" class="node">
<title>Node2_2</title>
<ellipse fill="#ffff00" stroke="#ffff00" cx="539.04" cy="-192" rx="72.29" ry="18"/>
<text text-anchor="middle" x="539.04" y="-188.3" font-family="Times,serif" font-size="14.00">पत्र&#45;(2.2)</text>
</g>
<!-- Node2_1&#45;&gt;Node2_2 -->
<g id="edge2" class="edge">
<title>Node2_1&#45;&gt;Node2_2</title>
<path fill="none" stroke="black" d="M525.07,-133.49C525.22,-140.84 525.76,-148.76 527.04,-156 528.1,-161.95 529.99,-168.24 531.97,-173.83"/>
<polygon fill="black" stroke="black" points="528.57,-133.26 525.08,-123.25 521.57,-133.25 528.57,-133.26"/>
<text text-anchor="middle" x="630.54" y="-144.8" font-family="Times,serif" font-size="14.00">षष्ठी_तत्पुरुषः</text>
</g>
<!-- Node2_2&#45;&gt;Node2_3 -->
<g id="edge3" class="edge">
<title>Node2_2&#45;&gt;Node2_3</title>
<path fill="none" stroke="black" d="M550.57,-219.48C556.44,-232.96 563.41,-248.96 568.57,-260.82"/>
<polygon fill="black" stroke="black" points="553.73,-217.97 546.53,-210.2 547.31,-220.77 553.73,-217.97"/>
<text text-anchor="middle" x="630.54" y="-231.8" font-family="Times,serif" font-size="14.00">बहुव्रीहिः</text>
</g>
<!-- Node3_1 -->
<g id="node9" class="node">
<title>Node3_1</title>
<ellipse fill="#ffff00" stroke="#ffff00" cx="756.04" cy="-18" rx="81.49" ry="18"/>
<text text-anchor="middle" x="756.04" y="-14.3" font-family="Times,serif" font-size="14.00">पूर्ण&#45;(3.1)</text>
</g>
<!-- Node3_2 -->
<g id="node10" class="node">
<title>Node3_2</title>
<ellipse fill="#ffff00" stroke="#ffff00" cx="756.04" cy="-105" rx="90.98" ry="18"/>
<text text-anchor="middle" x="756.04" y="-101.3" font-family="Times,serif" font-size="14.00">चन्द्र&#45;(3.2)</text>
</g>
<!-- Node3_1&#45;&gt;Node3_2 -->
<g id="edge5" class="edge">
<title>Node3_1&#45;&gt;Node3_2</title>
<path fill="none" stroke="black" d="M756.04,-46.27C756.04,-59.58 756.04,-75.19 756.04,-86.82"/>
<polygon fill="black" stroke="black" points="759.54,-46.2 756.04,-36.2 752.54,-46.2 759.54,-46.2"/>
<text text-anchor="middle" x="820.54" y="-57.8" font-family="Times,serif" font-size="14.00">कर्मधारयः</text>
</g>
<!-- Node3_3 -->
<g id="node11" class="node">
<title>Node3_3</title>
<ellipse fill="#ffff00" stroke="#ffff00" cx="742.04" cy="-192" rx="63.09" ry="18"/>
<text text-anchor="middle" x="742.04" y="-188.3" font-family="Times,serif" font-size="14.00">निभ&#45;(3.3)</text>
</g>
<!-- Node3_2&#45;&gt;Node3_3 -->
<g id="edge6" class="edge">
<title>Node3_2&#45;&gt;Node3_3</title>
<path fill="none" stroke="black" d="M751.55,-133.27C749.36,-146.58 746.79,-162.19 744.87,-173.82"/>
<polygon fill="black" stroke="black" points="755.04,-133.64 753.21,-123.2 748.13,-132.5 755.04,-133.64"/>
<text text-anchor="middle" x="820.54" y="-144.8" font-family="Times,serif" font-size="14.00">बहुव्रीहिः</text>
</g>
<!-- Node3_3&#45;&gt;Node3_4 -->
<g id="edge7" class="edge">
<title>Node3_3&#45;&gt;Node3_4</title>
<path fill="none" stroke="black" d="M742.04,-220.27C742.04,-233.58 742.04,-249.19 742.04,-260.82"/>
<polygon fill="black" stroke="black" points="745.54,-220.2 742.04,-210.2 738.54,-220.2 745.54,-220.2"/>
<text text-anchor="middle" x="778.04" y="-231.8" font-family="Times,serif" font-size="14.00">समासः</text>
</g>
<!-- Node4_1 -->
<g id="node12" class="node">
<title>Node4_1</title>
<ellipse fill="#ffff00" stroke="#ffff00" cx="941.04" cy="-105" rx="63.09" ry="18"/>
<text text-anchor="middle" x="941.04" y="-101.3" font-family="Times,serif" font-size="14.00">रूप&#45;(4.1)</text>
</g>
<!-- Node4_2 -->
<g id="node13" class="node">
<title>Node4_2</title>
<ellipse fill="#ffff00" stroke="#ffff00" cx="941.04" cy="-192" rx="118.08" ry="18"/>
<text text-anchor="middle" x="941.04" y="-188.3" font-family="Times,serif" font-size="14.00">दाक्षिण्य&#45;(4.2)</text>
</g>
<!-- Node4_1&#45;&gt;Node4_2 -->
<g id="edge9" class="edge">
<title>Node4_1&#45;&gt;Node4_2</title>
<path fill="none" stroke="black" d="M941.04,-133.27C941.04,-146.58 941.04,-162.19 941.04,-173.82"/>
<polygon fill="black" stroke="black" points="944.54,-133.2 941.04,-123.2 937.54,-133.2 944.54,-133.2"/>
<text text-anchor="middle" x="1005.54" y="-144.8" font-family="Times,serif" font-size="14.00">द्वन्द्वः</text>
</g>
<!-- Node4_2&#45;&gt;Node4_3 -->
<g id="edge10" class="edge">
<title>Node4_2&#45;&gt;Node4_3</title>
<path fill="none" stroke="black" d="M939.44,-220.27C938.66,-233.58 937.74,-249.19 937.05,-260.82"/>
<polygon fill="black" stroke="black" points="942.94,-220.39 940.03,-210.2 935.95,-219.98 942.94,-220.39"/>
<text text-anchor="middle" x="1009.54" y="-231.8" font-family="Times,serif" font-size="14.00">बहुव्रीहिः</text>
</g>
<!-- Node6_1 -->
<g id="node14" class="node">
<title>Node6_1</title>
<ellipse fill="#ffff00" stroke="#ffff00" cx="63.04" cy="-279" rx="63.09" ry="18"/>
<text text-anchor="middle" x="63.04" y="-275.3" font-family="Times,serif" font-size="14.00">जनक&#45;(6.1)</text>
</g>
<!-- Node6_2 -->
<g id="node15" class="node">
<title>Node6_2</title>
<ellipse fill="#c6e2eb" stroke="#c6e2eb" cx="122.04" cy="-366" rx="87.99" ry="18"/>
<text text-anchor="middle" x="122.04" y="-362.3" font-family="Times,serif" font-size="14.00">आत्मजे(6.2)</text>
</g>
<!-- Node6_1&#45;&gt;Node6_2 -->
<g id="edge13" class="edge">
<title>Node6_1&#45;&gt;Node6_2</title>
<path fill="none" stroke="black" d="M60.82,-307.5C61.33,-315.23 63.03,-323.33 67.04,-330 71.83,-337.95 79.19,-344.4 86.99,-349.49"/>
<polygon fill="black" stroke="black" points="64.32,-307.34 60.75,-297.37 57.32,-307.39 64.32,-307.34"/>
<text text-anchor="middle" x="170.54" y="-318.8" font-family="Times,serif" font-size="14.00">षष्ठी_तत्पुरुषः</text>
</g>
<!-- Node6_2&#45;&gt;Node8_1 -->
<g id="edge14" class="edge">
<title>Node6_2&#45;&gt;Node8_1</title>
<path fill="none" stroke="black" d="M171.94,-385.68C213.16,-401.12 270.89,-422.74 309.1,-437.04"/>
<polygon fill="black" stroke="black" points="172.96,-382.33 162.37,-382.1 170.5,-388.88 172.96,-382.33"/>
<text text-anchor="middle" x="314.54" y="-405.8" font-family="Times,serif" font-size="14.00">सम्बोध्यः</text>
</g>
</g>
</svg>
