<svg xmlns="http://www.w3.org/2000/svg" xmlns:xlink="http://www.w3.org/1999/xlink" width="1877pt" height="392pt" viewBox="0 0 1876.84 392"><g id="graph0" class="graph" transform="scale(1 1) rotate(0) translate(4 388)"><title>G</title><polygon fill="#fffacd" stroke="transparent" points="-4 4 -4 -388 1872.84 -388 1872.84 4 -4 4"/><g id="clust1" class="cluster"><title>cluster_1</title><polygon fill="#fffacd" stroke="#000" points="201.84 -79 201.84 -305 1095.84 -305 1095.84 -79 201.84 -79"/></g><g id="node1" class="node"><title>Node1_2</title><ellipse cx="445.84" cy="-192" fill="#00bfff" stroke="#00bfff" rx="78.79" ry="18"/><text x="445.84" y="-188.3" font-family="Times,serif" font-size="14" text-anchor="middle">पद्मः(1.2)</text></g><g id="node2" class="node"><title>Node10_1</title><ellipse cx="532.84" cy="-279" fill="#00bfff" stroke="#00bfff" rx="84.49" ry="18"/><text x="532.84" y="-275.3" font-family="Times,serif" font-size="14" text-anchor="middle">राघवः(10.1)</text></g><g id="edge2" class="edge"><title>Node1_2-&gt;Node10_1</title><path fill="none" stroke="#000" d="M457.18,-219.19C461.58,-227.44 467.18,-236.17 473.84,-243 481.24,-250.59 490.63,-257.13 499.72,-262.44"/><polygon fill="#000" stroke="#000" points="460.31 -217.62 452.73 -210.21 454.03 -220.73 460.31 -217.62"/><text x="531.34" y="-231.8" font-family="Times,serif" font-size="14" text-anchor="middle">विशेषणम्</text></g><g id="node16" class="node"><title>Node9_1</title><ellipse cx="143.84" cy="-366" fill="#ff1975" stroke="#ff1975" rx="124.58" ry="18"/><text x="143.84" y="-362.3" font-family="Times,serif" font-size="14" text-anchor="middle">व्याप्नोति(9.1)</text></g><g id="edge15" class="edge"><title>Node10_1-&gt;Node9_1</title><path fill="none" stroke="#000" d="M466.01,-294.6C394.19,-310.3 280.77,-335.08 209.43,-350.67"/><polygon fill="#000" stroke="#000" points="466.84 -298 475.86 -292.45 465.34 -291.17 466.84 -298"/><text x="396.84" y="-318.8" font-family="Times,serif" font-size="14" text-anchor="middle">कर्ता</text></g><g id="node3" class="node"><title>Node2_2</title><ellipse cx="620.84" cy="-192" fill="#00bfff" stroke="#00bfff" rx="78.79" ry="18"/><text x="620.84" y="-188.3" font-family="Times,serif" font-size="14" text-anchor="middle">बृहत्(2.2)</text></g><g id="edge4" class="edge"><title>Node2_2-&gt;Node10_1</title><path fill="none" stroke="#000" d="M607.36,-218.78C602.26,-227.1 595.94,-235.97 588.84,-243 581.51,-250.26 572.41,-256.74 563.69,-262.09"/><polygon fill="#000" stroke="#000" points="610.41 -220.5 612.4 -210.09 604.35 -216.99 610.41 -220.5"/><text x="658.34" y="-231.8" font-family="Times,serif" font-size="14" text-anchor="middle">विशेषणम्</text></g><g id="node4" class="node"><title>Node4_1</title><ellipse cx="823.84" cy="-192" fill="#00bfff" stroke="#00bfff" rx="106.68" ry="18"/><text x="823.84" y="-188.3" font-family="Times,serif" font-size="14" text-anchor="middle">व्याप्तः(4.1)</text></g><g id="edge6" class="edge"><title>Node4_1-&gt;Node10_1</title><path fill="none" stroke="#000" d="M786.05,-214.14C766.75,-224.17 742.58,-235.55 719.84,-243 682.49,-255.24 639.46,-263.66 604.1,-269.17"/><polygon fill="#000" stroke="#000" points="787.91 -217.12 795.11 -209.35 784.63 -210.93 787.91 -217.12"/><text x="812.34" y="-231.8" font-family="Times,serif" font-size="14" text-anchor="middle">विशेषणम्</text></g><g id="node5" class="node"><title>Node5_3</title><ellipse cx="279.84" cy="-192" fill="#00bfff" stroke="#00bfff" rx="69.59" ry="18"/><text x="279.84" y="-188.3" font-family="Times,serif" font-size="14" text-anchor="middle">वान्(5.3)</text></g><g id="edge9" class="edge"><title>Node5_3-&gt;Node10_1</title><path fill="none" stroke="#000" d="M303.51,-216.35C314.6,-226.03 328.52,-236.49 342.84,-243 377.65,-258.82 419.14,-267.49 454.45,-272.24"/><polygon fill="#000" stroke="#000" points="305.72 -213.64 295.96 -209.51 301.02 -218.82 305.72 -213.64"/><text x="400.34" y="-231.8" font-family="Times,serif" font-size="14" text-anchor="middle">विशेषणम्</text></g><g id="node6" class="node"><title>Node6_2</title><ellipse cx="297.84" cy="-105" fill="#00bfff" stroke="#00bfff" rx="87.99" ry="18"/><text x="297.84" y="-101.3" font-family="Times,serif" font-size="14" text-anchor="middle">उन्नतः(6.2)</text></g><g id="edge11" class="edge"><title>Node6_2-&gt;Node5_3</title><path fill="none" stroke="#000" d="M292.07,-133.27C289.25,-146.58 285.94,-162.19 283.48,-173.82"/><polygon fill="#000" stroke="#000" points="295.55 -133.71 294.2 -123.2 288.7 -132.26 295.55 -133.71"/><text x="347.34" y="-144.8" font-family="Times,serif" font-size="14" text-anchor="middle">विशेषणम्</text></g><g id="node7" class="node"><title>Node7_2</title><ellipse cx="1017.84" cy="-192" fill="#00bfff" stroke="#00bfff" rx="69.59" ry="18"/><text x="1017.84" y="-188.3" font-family="Times,serif" font-size="14" text-anchor="middle">तनुः(7.2)</text></g><g id="edge13" class="edge"><title>Node7_2-&gt;Node10_1</title><path fill="none" stroke="#000" d="M973.47,-211.41C945.39,-222.3 908.05,-235.41 873.84,-243 786.84,-262.3 684.94,-270.99 615.34,-274.89"/><polygon fill="#000" stroke="#000" points="974.97 -214.58 983 -207.66 972.41 -208.06 974.97 -214.58"/><text x="983.34" y="-231.8" font-family="Times,serif" font-size="14" text-anchor="middle">विशेषणम्</text></g><g id="node8" class="node"><title>Node1_1</title><ellipse cx="1337.84" cy="-105" fill="#ff0" stroke="#ff0" rx="53.89" ry="18"/><text x="1337.84" y="-101.3" font-family="Times,serif" font-size="14" text-anchor="middle">दश-(1.1)</text></g><g id="edge1" class="edge"><title>Node1_1-&gt;Node1_2</title><path fill="none" stroke="#000" d="M1289.25,-120.04C1284.41,-121.16 1279.55,-122.17 1274.84,-123 1102.2,-153.29 1056.72,-144.15 881.84,-156 726.88,-166.5 687,-155.06 532.84,-174 522.45,-175.28 511.45,-177.07 500.88,-179.03"/><polygon fill="#000" stroke="#000" points="1290.22 -123.41 1299.1 -117.62 1288.56 -116.61 1290.22 -123.41"/><text x="1182.84" y="-144.8" font-family="Times,serif" font-size="14" text-anchor="middle">समासः</text></g><g id="node9" class="node"><title>Node2_1</title><ellipse cx="1463.84" cy="-105" fill="#ff0" stroke="#ff0" rx="53.89" ry="18"/><text x="1463.84" y="-101.3" font-family="Times,serif" font-size="14" text-anchor="middle">दश-(2.1)</text></g><g id="edge3" class="edge"><title>Node2_1-&gt;Node2_2</title><path fill="none" stroke="#000" d="M1445.93,-130.79C1437.41,-140.52 1426.36,-150.63 1413.84,-156 1341.73,-186.95 785.84,-165.45 707.84,-174 697.29,-175.16 686.1,-176.93 675.39,-178.89"/><polygon fill="#000" stroke="#000" points="1448.83 -132.78 1452.46 -122.82 1443.41 -128.34 1448.83 -132.78"/><text x="1471.84" y="-144.8" font-family="Times,serif" font-size="14" text-anchor="middle">समासः</text></g><g id="node10" class="node"><title>Node3_1</title><ellipse cx="1632.84" cy="-105" fill="#40e0d0" stroke="#40e0d0" rx="96.68" ry="18"/><text x="1632.84" y="-101.3" font-family="Times,serif" font-size="14" text-anchor="middle">त्रिभिः(3.1)</text></g><g id="edge5" class="edge"><title>Node3_1-&gt;Node4_1</title><path fill="none" stroke="#000" d="M1600.74,-128.06C1583.5,-138.63 1561.4,-150.23 1539.84,-156 1410.77,-190.56 1071.94,-162.21 938.84,-174 925.27,-175.2 910.86,-176.95 897,-178.88"/><polygon fill="#000" stroke="#000" points="1602.69 -130.96 1609.28 -122.66 1598.96 -125.05 1602.69 -130.96"/><text x="1655.34" y="-144.8" font-family="Times,serif" font-size="14" text-anchor="middle">देशाधिकरणम्</text></g><g id="node11" class="node"><title>Node5_1</title><ellipse cx="1184.84" cy="-18" fill="#ff0" stroke="#ff0" rx="72.29" ry="18"/><text x="1184.84" y="-14.3" font-family="Times,serif" font-size="14" text-anchor="middle">द्वि-(5.1)</text></g><g id="node12" class="node"><title>Node5_2</title><ellipse cx="1184.84" cy="-105" fill="#ff0" stroke="#ff0" rx="81.49" ry="18"/><text x="1184.84" y="-101.3" font-family="Times,serif" font-size="14" text-anchor="middle">शुक्ल-(5.2)</text></g><g id="edge7" class="edge"><title>Node5_1-&gt;Node5_2</title><path fill="none" stroke="#000" d="M1184.84,-46.27C1184.84,-59.58 1184.84,-75.19 1184.84,-86.82"/><polygon fill="#000" stroke="#000" points="1188.34 -46.2 1184.84 -36.2 1181.34 -46.2 1188.34 -46.2"/><text x="1220.84" y="-57.8" font-family="Times,serif" font-size="14" text-anchor="middle">समासः</text></g><g id="edge8" class="edge"><title>Node5_2-&gt;Node5_3</title><path fill="none" stroke="#000" d="M1119.09,-120.07C1112.61,-121.18 1106.11,-122.19 1099.84,-123 970.02,-139.88 936.46,-132.19 805.84,-141 606.64,-154.43 555.42,-145.34 357.84,-174 348.51,-175.35 338.64,-177.19 329.16,-179.15"/><polygon fill="#000" stroke="#000" points="1120.02 -123.46 1129.24 -118.25 1118.78 -116.57 1120.02 -123.46"/><text x="841.84" y="-144.8" font-family="Times,serif" font-size="14" text-anchor="middle">समासः</text></g><g id="node13" class="node"><title>Node6_1</title><ellipse cx="297.84" cy="-18" fill="#ff0" stroke="#ff0" rx="63.09" ry="18"/><text x="297.84" y="-14.3" font-family="Times,serif" font-size="14" text-anchor="middle">षट्-(6.1)</text></g><g id="edge10" class="edge"><title>Node6_1-&gt;Node6_2</title><path fill="none" stroke="#000" d="M297.84,-46.27C297.84,-59.58 297.84,-75.19 297.84,-86.82"/><polygon fill="#000" stroke="#000" points="301.34 -46.2 297.84 -36.2 294.34 -46.2 301.34 -46.2"/><text x="333.84" y="-57.8" font-family="Times,serif" font-size="14" text-anchor="middle">समासः</text></g><g id="node14" class="node"><title>Node7_1</title><ellipse cx="1806.84" cy="-105" fill="#ff0" stroke="#ff0" rx="53.89" ry="18"/><text x="1806.84" y="-101.3" font-family="Times,serif" font-size="14" text-anchor="middle">नव-(7.1)</text></g><g id="edge12" class="edge"><title>Node7_1-&gt;Node7_2</title><path fill="none" stroke="#000" d="M1801.03,-133.03C1797.76,-141.79 1792.68,-150.62 1784.84,-156 1756.32,-175.55 1270.13,-186.4 1086.93,-189.81"/><polygon fill="#000" stroke="#000" points="1804.41 -133.95 1804.01 -123.36 1797.72 -131.89 1804.41 -133.95"/><text x="1832.84" y="-144.8" font-family="Times,serif" font-size="14" text-anchor="middle">समासः</text></g><g id="node15" class="node"><title>Node8_1</title><ellipse cx="96.84" cy="-279" fill="#40e0d0" stroke="#40e0d0" rx="96.68" ry="18"/><text x="96.84" y="-275.3" font-family="Times,serif" font-size="14" text-anchor="middle">त्रिभिः(8.1)</text></g><g id="edge14" class="edge"><title>Node8_1-&gt;Node9_1</title><path fill="none" stroke="#000" d="M111.27,-306.09C118.77,-319.65 127.72,-335.85 134.34,-347.82"/><polygon fill="#000" stroke="#000" points="114.25 -304.26 106.35 -297.2 108.13 -307.65 114.25 -304.26"/><text x="159.84" y="-318.8" font-family="Times,serif" font-size="14" text-anchor="middle">करणम्</text></g></g></svg>