<?xml version="1.0" encoding="UTF-8" standalone="no"?>
<!DOCTYPE svg PUBLIC "-//W3C//DTD SVG 1.1//EN"
 "http://www.w3.org/Graphics/SVG/1.1/DTD/svg11.dtd">
<!-- Generated by graphviz version 2.43.0 (0)
 -->
<!-- Title: G Pages: 1 -->
<svg width="1551pt" height="337pt"
 viewBox="0.00 0.00 1551.00 337.00" xmlns="http://www.w3.org/2000/svg" xmlns:xlink="http://www.w3.org/1999/xlink">
<g id="graph0" class="graph" transform="scale(1 1) rotate(0) translate(4 333)">
<title>G</title>
<polygon fill="#fffacd" stroke="transparent" points="-4,4 -4,-333 1547,-333 1547,4 -4,4"/>
<g id="clust1" class="cluster">
<title>cluster_1</title>
<polygon fill="#fffacd" stroke="black" points="8,-8 8,-147 523,-147 523,-8 8,-8"/>
</g>
<g id="clust2" class="cluster">
<title>cluster_2</title>
<polygon fill="#fffacd" stroke="black" points="467,-182 467,-321 697,-321 697,-182 467,-182"/>
</g>
<!-- Node1_1 -->
<g id="node1" class="node">
<title>Node1_1</title>
<ellipse fill="#00bfff" stroke="#00bfff" cx="399" cy="-34" rx="115.88" ry="18"/>
<text text-anchor="middle" x="399" y="-30.3" font-family="Times,serif" font-size="14.00">स्वनवन्ति(1.1)</text>
</g>
<!-- Node3_1 -->
<g id="node2" class="node">
<title>Node3_1</title>
<ellipse fill="#00bfff" stroke="#00bfff" cx="399" cy="-121" rx="69.59" ry="18"/>
<text text-anchor="middle" x="399" y="-117.3" font-family="Times,serif" font-size="14.00">तानि(3.1)</text>
</g>
<!-- Node1_1&#45;&gt;Node3_1 -->
<g id="edge1" class="edge">
<title>Node1_1&#45;&gt;Node3_1</title>
<path fill="none" stroke="black" d="M399,-62.27C399,-75.58 399,-91.19 399,-102.82"/>
<polygon fill="black" stroke="black" points="402.5,-62.2 399,-52.2 395.5,-62.2 402.5,-62.2"/>
<text text-anchor="middle" x="456.5" y="-73.8" font-family="Times,serif" font-size="14.00">विशेषणम्</text>
</g>
<!-- Node6_1 -->
<g id="node4" class="node">
<title>Node6_1</title>
<ellipse fill="#00bfff" stroke="#00bfff" cx="582" cy="-208" rx="106.68" ry="18"/>
<text text-anchor="middle" x="582" y="-204.3" font-family="Times,serif" font-size="14.00">उपहृतानि(6.1)</text>
</g>
<!-- Node3_1&#45;&gt;Node6_1 -->
<g id="edge3" class="edge">
<title>Node3_1&#45;&gt;Node6_1</title>
<path fill="none" stroke="black" d="M440.46,-141.26C472.68,-156.22 516.84,-176.74 547.23,-190.85"/>
<polygon fill="black" stroke="black" points="441.84,-138.04 431.3,-137 438.89,-144.39 441.84,-138.04"/>
<text text-anchor="middle" x="531" y="-160.8" font-family="Times,serif" font-size="14.00">कर्म</text>
</g>
<!-- Node10_1 -->
<g id="node5" class="node">
<title>Node10_1</title>
<ellipse fill="#00bfff" stroke="#00bfff" cx="586" cy="-295" rx="102.88" ry="18"/>
<text text-anchor="middle" x="586" y="-291.3" font-family="Times,serif" font-size="14.00">दत्तानि(10.1)</text>
</g>
<!-- Node3_1&#45;&gt;Node10_1 -->
<g id="edge4" class="edge">
<title>Node3_1&#45;&gt;Node10_1</title>
<path fill="none" stroke="black" stroke-dasharray="1,5" d="M393.99,-149.07C391.35,-171.86 391.52,-204.14 408,-226 431.6,-257.3 471.49,-274.19 507.54,-283.31"/>
<polygon fill="black" stroke="black" points="397.47,-149.43 395.4,-139.04 390.54,-148.46 397.47,-149.43"/>
<text text-anchor="middle" x="437" y="-204.3" font-family="Times,serif" font-size="14.00">कर्म</text>
</g>
<!-- Node2_1 -->
<g id="node3" class="node">
<title>Node2_1</title>
<ellipse fill="#00bfff" stroke="#00bfff" cx="141" cy="-34" rx="124.58" ry="18"/>
<text text-anchor="middle" x="141" y="-30.3" font-family="Times,serif" font-size="14.00">अवकीर्णानि(2.1)</text>
</g>
<!-- Node2_1&#45;&gt;Node3_1 -->
<g id="edge2" class="edge">
<title>Node2_1&#45;&gt;Node3_1</title>
<path fill="none" stroke="black" d="M193.01,-54.54C219.01,-64.09 251.03,-75.54 280,-85 304.16,-92.89 331.33,-100.94 353.6,-107.33"/>
<polygon fill="black" stroke="black" points="193.95,-51.15 183.36,-50.97 191.53,-57.72 193.95,-51.15"/>
<text text-anchor="middle" x="337.5" y="-73.8" font-family="Times,serif" font-size="14.00">विशेषणम्</text>
</g>
<!-- Node6_1&#45;&gt;Node10_1 -->
<g id="edge7" class="edge">
<title>Node6_1&#45;&gt;Node10_1</title>
<path fill="none" stroke="black" d="M574.44,-236.09C573.25,-243.52 572.76,-251.57 574,-259 574.99,-264.96 576.87,-271.26 578.86,-276.85"/>
<polygon fill="black" stroke="black" points="577.9,-236.63 576.5,-226.13 571.05,-235.22 577.9,-236.63"/>
<text text-anchor="middle" x="638.5" y="-247.8" font-family="Times,serif" font-size="14.00">समुच्चितः</text>
</g>
<!-- Node4_1 -->
<g id="node6" class="node">
<title>Node4_1</title>
<ellipse fill="#40e0d0" stroke="#40e0d0" cx="591" cy="-121" rx="59.59" ry="18"/>
<text text-anchor="middle" x="591" y="-117.3" font-family="Times,serif" font-size="14.00">मया(4.1)</text>
</g>
<!-- Node4_1&#45;&gt;Node6_1 -->
<g id="edge5" class="edge">
<title>Node4_1&#45;&gt;Node6_1</title>
<path fill="none" stroke="black" d="M588.11,-149.27C586.7,-162.58 585.05,-178.19 583.82,-189.82"/>
<polygon fill="black" stroke="black" points="591.61,-149.51 589.18,-139.2 584.65,-148.78 591.61,-149.51"/>
<text text-anchor="middle" x="624" y="-160.8" font-family="Times,serif" font-size="14.00">कर्ता</text>
</g>
<!-- Node5_1 -->
<g id="node7" class="node">
<title>Node5_1</title>
<ellipse fill="#ff99ff" stroke="#ff99ff" cx="591" cy="-34" rx="50.89" ry="18"/>
<text text-anchor="middle" x="591" y="-30.3" font-family="Times,serif" font-size="14.00">एव(5.1)</text>
</g>
<!-- Node5_1&#45;&gt;Node4_1 -->
<g id="edge6" class="edge">
<title>Node5_1&#45;&gt;Node4_1</title>
<path fill="none" stroke="black" d="M591,-62.27C591,-75.58 591,-91.19 591,-102.82"/>
<polygon fill="black" stroke="black" points="594.5,-62.2 591,-52.2 587.5,-62.2 594.5,-62.2"/>
<text text-anchor="middle" x="648.5" y="-73.8" font-family="Times,serif" font-size="14.00">सम्बन्धः</text>
</g>
<!-- Node7_1 -->
<g id="node8" class="node">
<title>Node7_1</title>
<ellipse fill="#c6e2eb" stroke="#c6e2eb" cx="803" cy="-208" rx="96.68" ry="18"/>
<text text-anchor="middle" x="803" y="-204.3" font-family="Times,serif" font-size="14.00">तस्मिन्(7.1)</text>
</g>
<!-- Node7_1&#45;&gt;Node10_1 -->
<g id="edge8" class="edge">
<title>Node7_1&#45;&gt;Node10_1</title>
<path fill="none" stroke="black" d="M756.44,-228.79C746.27,-233.49 735.66,-238.7 726,-244 715.3,-249.88 714.07,-253.86 703,-259 684.54,-267.56 663.47,-274.63 644.34,-280.11"/>
<polygon fill="black" stroke="black" points="757.97,-231.94 765.63,-224.62 755.07,-225.57 757.97,-231.94"/>
<text text-anchor="middle" x="826" y="-247.8" font-family="Times,serif" font-size="14.00">भावलक्षणसप्तमी</text>
</g>
<!-- Node8_1 -->
<g id="node9" class="node">
<title>Node8_1</title>
<ellipse fill="#ffff00" stroke="#ffff00" cx="996" cy="-121" rx="72.29" ry="18"/>
<text text-anchor="middle" x="996" y="-117.3" font-family="Times,serif" font-size="14.00">विहत&#45;(8.1)</text>
</g>
<!-- Node8_2 -->
<g id="node10" class="node">
<title>Node8_2</title>
<ellipse fill="#c6e2eb" stroke="#c6e2eb" cx="996" cy="-208" rx="78.79" ry="18"/>
<text text-anchor="middle" x="996" y="-204.3" font-family="Times,serif" font-size="14.00">चेतसि(8.2)</text>
</g>
<!-- Node8_1&#45;&gt;Node8_2 -->
<g id="edge9" class="edge">
<title>Node8_1&#45;&gt;Node8_2</title>
<path fill="none" stroke="black" d="M996,-149.27C996,-162.58 996,-178.19 996,-189.82"/>
<polygon fill="black" stroke="black" points="999.5,-149.2 996,-139.2 992.5,-149.2 999.5,-149.2"/>
<text text-anchor="middle" x="1067.5" y="-160.8" font-family="Times,serif" font-size="14.00">बहुव्रीहिः</text>
</g>
<!-- Node8_2&#45;&gt;Node10_1 -->
<g id="edge10" class="edge">
<title>Node8_2&#45;&gt;Node10_1</title>
<path fill="none" stroke="black" d="M966.02,-231.5C949.17,-243.95 930.62,-257.25 926,-259 883.19,-275.18 768.53,-284.57 684.15,-289.48"/>
<polygon fill="black" stroke="black" points="968.14,-234.29 974.08,-225.52 963.96,-228.67 968.14,-234.29"/>
<text text-anchor="middle" x="1048" y="-247.8" font-family="Times,serif" font-size="14.00">भावलक्षणसप्तमी</text>
</g>
<!-- Node9_1 -->
<g id="node11" class="node">
<title>Node9_1</title>
<ellipse fill="#b0e2ff" stroke="#b0e2ff" cx="1171" cy="-208" rx="78.79" ry="18"/>
<text text-anchor="middle" x="1171" y="-204.3" font-family="Times,serif" font-size="14.00">रामाय(9.1)</text>
</g>
<!-- Node9_1&#45;&gt;Node10_1 -->
<g id="edge11" class="edge">
<title>Node9_1&#45;&gt;Node10_1</title>
<path fill="none" stroke="black" d="M1165.14,-235.96C1161.86,-244.71 1156.8,-253.56 1149,-259 1112.26,-284.64 840.35,-291.51 688.27,-293.34"/>
<polygon fill="black" stroke="black" points="1168.51,-236.89 1168.13,-226.3 1161.83,-234.82 1168.51,-236.89"/>
<text text-anchor="middle" x="1239.5" y="-247.8" font-family="Times,serif" font-size="14.00">सम्प्रदानम्</text>
</g>
<!-- Node11_1 -->
<g id="node12" class="node">
<title>Node11_1</title>
<ellipse fill="#ff99ff" stroke="#ff99ff" cx="1351" cy="-208" rx="47.39" ry="18"/>
<text text-anchor="middle" x="1351" y="-204.3" font-family="Times,serif" font-size="14.00">च(11.1)</text>
</g>
<!-- Node11_1&#45;&gt;Node10_1 -->
<g id="edge12" class="edge">
<title>Node11_1&#45;&gt;Node10_1</title>
<path fill="none" stroke="black" d="M1341.89,-235.24C1337.36,-244.33 1330.91,-253.58 1322,-259 1269.33,-291.03 878.73,-294.67 688.94,-294.51"/>
<polygon fill="black" stroke="black" points="1345.13,-236.56 1345.93,-226 1338.71,-233.76 1345.13,-236.56"/>
<text text-anchor="middle" x="1439.5" y="-247.8" font-family="Times,serif" font-size="14.00">समुच्चय_द्योतकः</text>
</g>
</g>
</svg>
