<?xml version="1.0" encoding="UTF-8" standalone="no"?>
<!DOCTYPE svg PUBLIC "-//W3C//DTD SVG 1.1//EN"
 "http://www.w3.org/Graphics/SVG/1.1/DTD/svg11.dtd">
<!-- Generated by graphviz version 2.43.0 (0)
 -->
<!-- Title: G Pages: 1 -->
<svg width="1134pt" height="479pt"
 viewBox="0.00 0.00 1133.74 479.00" xmlns="http://www.w3.org/2000/svg" xmlns:xlink="http://www.w3.org/1999/xlink">
<g id="graph0" class="graph" transform="scale(1 1) rotate(0) translate(4 475)">
<title>G</title>
<polygon fill="#fffacd" stroke="transparent" points="-4,4 -4,-475 1129.74,-475 1129.74,4 -4,4"/>
<g id="clust1" class="cluster">
<title>cluster_1</title>
<polygon fill="#fffacd" stroke="black" points="768.74,-166 768.74,-305 1117.74,-305 1117.74,-166 768.74,-166"/>
</g>
<g id="clust2" class="cluster">
<title>cluster_2</title>
<polygon fill="#fffacd" stroke="black" points="530.74,-166 530.74,-305 760.74,-305 760.74,-166 530.74,-166"/>
</g>
<!-- Node1_1 -->
<g id="node1" class="node">
<title>Node1_1</title>
<ellipse fill="#00bfff" stroke="#00bfff" cx="1058.74" cy="-192" rx="50.89" ry="18"/>
<text text-anchor="middle" x="1058.74" y="-188.3" font-family="Times,serif" font-size="14.00">सः(1.1)</text>
</g>
<!-- Node6_1 -->
<g id="node2" class="node">
<title>Node6_1</title>
<ellipse fill="#00bfff" stroke="#00bfff" cx="855.74" cy="-279" rx="78.79" ry="18"/>
<text text-anchor="middle" x="855.74" y="-275.3" font-family="Times,serif" font-size="14.00">राघवः(6.1)</text>
</g>
<!-- Node1_1&#45;&gt;Node6_1 -->
<g id="edge1" class="edge">
<title>Node1_1&#45;&gt;Node6_1</title>
<path fill="none" stroke="black" d="M1027.35,-213.38C1011.19,-223.25 990.91,-234.73 971.74,-243 951.08,-251.92 927.42,-259.49 906.88,-265.29"/>
<polygon fill="black" stroke="black" points="1029.21,-216.33 1035.86,-208.08 1025.52,-210.39 1029.21,-216.33"/>
<text text-anchor="middle" x="1058.24" y="-231.8" font-family="Times,serif" font-size="14.00">विशेषणम्</text>
</g>
<!-- Node5_1 -->
<g id="node7" class="node">
<title>Node5_1</title>
<ellipse fill="#ff1975" stroke="#ff1975" cx="535.74" cy="-453" rx="133.78" ry="18"/>
<text text-anchor="middle" x="535.74" y="-449.3" font-family="Times,serif" font-size="14.00">प्राप्स्यति(5.1)</text>
</g>
<!-- Node6_1&#45;&gt;Node5_1 -->
<g id="edge6" class="edge">
<title>Node6_1&#45;&gt;Node5_1</title>
<path fill="none" stroke="black" d="M857.38,-307.66C857.59,-339.13 852.6,-389.68 821.74,-417 798.66,-437.43 731.51,-446.31 668.08,-450.01"/>
<polygon fill="black" stroke="black" points="860.87,-307.31 857.12,-297.4 853.87,-307.48 860.87,-307.31"/>
<text text-anchor="middle" x="889.74" y="-362.3" font-family="Times,serif" font-size="14.00">कर्ता</text>
</g>
<!-- Node8_1 -->
<g id="node10" class="node">
<title>Node8_1</title>
<ellipse fill="#ff99ff" stroke="#ff99ff" cx="725.74" cy="-366" rx="78.79" ry="18"/>
<text text-anchor="middle" x="725.74" y="-362.3" font-family="Times,serif" font-size="14.00">हत्वा(8.1)</text>
</g>
<!-- Node6_1&#45;&gt;Node8_1 -->
<g id="edge7" class="edge">
<title>Node6_1&#45;&gt;Node8_1</title>
<path fill="none" stroke="black" stroke-dasharray="1,5" d="M800.25,-297.69C789.3,-302.43 778.26,-308.18 768.74,-315 756.27,-323.93 745.07,-337.21 737.23,-347.84"/>
<polygon fill="black" stroke="black" points="801.89,-300.8 809.82,-293.78 799.24,-294.32 801.89,-300.8"/>
<text text-anchor="middle" x="804.74" y="-318.8" font-family="Times,serif" font-size="14.00">कर्ता</text>
</g>
<!-- Node3_2 -->
<g id="node3" class="node">
<title>Node3_2</title>
<ellipse fill="#00bfff" stroke="#00bfff" cx="883.74" cy="-192" rx="106.68" ry="18"/>
<text text-anchor="middle" x="883.74" y="-188.3" font-family="Times,serif" font-size="14.00">शार्दूलः(3.2)</text>
</g>
<!-- Node3_2&#45;&gt;Node6_1 -->
<g id="edge4" class="edge">
<title>Node3_2&#45;&gt;Node6_1</title>
<path fill="none" stroke="black" d="M861.46,-218.21C859.57,-221.35 857.92,-224.64 856.74,-228 853.05,-238.48 852.8,-250.98 853.47,-260.86"/>
<polygon fill="black" stroke="black" points="864.45,-220.05 867.3,-209.85 858.71,-216.04 864.45,-220.05"/>
<text text-anchor="middle" x="914.24" y="-231.8" font-family="Times,serif" font-size="14.00">विशेषणम्</text>
</g>
<!-- Node7_3 -->
<g id="node4" class="node">
<title>Node7_3</title>
<ellipse fill="#93db70" stroke="#93db70" cx="645.74" cy="-192" rx="106.68" ry="18"/>
<text text-anchor="middle" x="645.74" y="-188.3" font-family="Times,serif" font-size="14.00">बान्धवम्(7.3)</text>
</g>
<!-- Node9_1 -->
<g id="node5" class="node">
<title>Node9_1</title>
<ellipse fill="#93db70" stroke="#93db70" cx="650.74" cy="-279" rx="87.99" ry="18"/>
<text text-anchor="middle" x="650.74" y="-275.3" font-family="Times,serif" font-size="14.00">रावणम्(9.1)</text>
</g>
<!-- Node7_3&#45;&gt;Node9_1 -->
<g id="edge10" class="edge">
<title>Node7_3&#45;&gt;Node9_1</title>
<path fill="none" stroke="black" d="M647.35,-220.27C648.13,-233.58 649.05,-249.19 649.73,-260.82"/>
<polygon fill="black" stroke="black" points="650.84,-219.98 646.75,-210.2 643.85,-220.39 650.84,-219.98"/>
<text text-anchor="middle" x="705.24" y="-231.8" font-family="Times,serif" font-size="14.00">विशेषणम्</text>
</g>
<!-- Node9_1&#45;&gt;Node8_1 -->
<g id="edge12" class="edge">
<title>Node9_1&#45;&gt;Node8_1</title>
<path fill="none" stroke="black" d="M667.41,-305.36C673.18,-313.52 679.92,-322.4 686.74,-330 692.46,-336.36 699.23,-342.77 705.52,-348.34"/>
<polygon fill="black" stroke="black" points="670.13,-303.14 661.57,-296.9 664.36,-307.11 670.13,-303.14"/>
<text text-anchor="middle" x="715.74" y="-318.8" font-family="Times,serif" font-size="14.00">कर्म</text>
</g>
<!-- Node2_1 -->
<g id="node6" class="node">
<title>Node2_1</title>
<ellipse fill="#93db70" stroke="#93db70" cx="87.74" cy="-366" rx="87.99" ry="18"/>
<text text-anchor="middle" x="87.74" y="-362.3" font-family="Times,serif" font-size="14.00">त्वाम्(2.1)</text>
</g>
<!-- Node2_1&#45;&gt;Node5_1 -->
<g id="edge2" class="edge">
<title>Node2_1&#45;&gt;Node5_1</title>
<path fill="none" stroke="black" d="M140.46,-384.89C173.75,-395.59 217.86,-408.68 257.74,-417 313.1,-428.55 375.51,-436.82 427.15,-442.42"/>
<polygon fill="black" stroke="black" points="141.52,-381.55 130.93,-381.8 139.36,-388.21 141.52,-381.55"/>
<text text-anchor="middle" x="286.74" y="-405.8" font-family="Times,serif" font-size="14.00">कर्म</text>
</g>
<!-- Node3_1 -->
<g id="node8" class="node">
<title>Node3_1</title>
<ellipse fill="#ffff00" stroke="#ffff00" cx="883.74" cy="-105" rx="72.29" ry="18"/>
<text text-anchor="middle" x="883.74" y="-101.3" font-family="Times,serif" font-size="14.00">मनुज&#45;(3.1)</text>
</g>
<!-- Node3_1&#45;&gt;Node3_2 -->
<g id="edge3" class="edge">
<title>Node3_1&#45;&gt;Node3_2</title>
<path fill="none" stroke="black" d="M883.74,-133.27C883.74,-146.58 883.74,-162.19 883.74,-173.82"/>
<polygon fill="black" stroke="black" points="887.24,-133.2 883.74,-123.2 880.24,-133.2 887.24,-133.2"/>
<text text-anchor="middle" x="986.24" y="-144.8" font-family="Times,serif" font-size="14.00">षष्ठी&#45;तत्पुरुषः</text>
</g>
<!-- Node4_1 -->
<g id="node9" class="node">
<title>Node4_1</title>
<ellipse fill="#ff99ff" stroke="#ff99ff" cx="308.74" cy="-366" rx="115.88" ry="18"/>
<text text-anchor="middle" x="308.74" y="-362.3" font-family="Times,serif" font-size="14.00">क्षिप्रम्(4.1)</text>
</g>
<!-- Node4_1&#45;&gt;Node5_1 -->
<g id="edge5" class="edge">
<title>Node4_1&#45;&gt;Node5_1</title>
<path fill="none" stroke="black" d="M315.64,-393.9C319.12,-402.49 324.25,-411.25 331.74,-417 347.31,-428.95 386.75,-437.08 426.84,-442.47"/>
<polygon fill="black" stroke="black" points="318.94,-392.75 312.37,-384.44 312.33,-395.04 318.94,-392.75"/>
<text text-anchor="middle" x="431.74" y="-405.8" font-family="Times,serif" font-size="14.00">क्रियाविशेषणम्</text>
</g>
<!-- Node8_1&#45;&gt;Node5_1 -->
<g id="edge11" class="edge">
<title>Node8_1&#45;&gt;Node5_1</title>
<path fill="none" stroke="black" d="M703.02,-391.3C693.25,-400.51 681.21,-410.37 668.74,-417 651.46,-426.19 631.6,-433.09 612.59,-438.21"/>
<polygon fill="black" stroke="black" points="705.64,-393.62 710.33,-384.12 700.74,-388.62 705.64,-393.62"/>
<text text-anchor="middle" x="753.24" y="-405.8" font-family="Times,serif" font-size="14.00">पूर्वकालः</text>
</g>
<!-- Node7_1 -->
<g id="node11" class="node">
<title>Node7_1</title>
<ellipse fill="#ffff00" stroke="#ffff00" cx="645.74" cy="-18" rx="44.39" ry="18"/>
<text text-anchor="middle" x="645.74" y="-14.3" font-family="Times,serif" font-size="14.00">स&#45;(7.1)</text>
</g>
<!-- Node7_2 -->
<g id="node12" class="node">
<title>Node7_2</title>
<ellipse fill="#ffff00" stroke="#ffff00" cx="645.74" cy="-105" rx="81.49" ry="18"/>
<text text-anchor="middle" x="645.74" y="-101.3" font-family="Times,serif" font-size="14.00">मित्र&#45;(7.2)</text>
</g>
<!-- Node7_1&#45;&gt;Node7_2 -->
<g id="edge8" class="edge">
<title>Node7_1&#45;&gt;Node7_2</title>
<path fill="none" stroke="black" d="M645.74,-46.27C645.74,-59.58 645.74,-75.19 645.74,-86.82"/>
<polygon fill="black" stroke="black" points="649.24,-46.2 645.74,-36.2 642.24,-46.2 649.24,-46.2"/>
<text text-anchor="middle" x="717.24" y="-57.8" font-family="Times,serif" font-size="14.00">बहुव्रीहिः</text>
</g>
<!-- Node7_2&#45;&gt;Node7_3 -->
<g id="edge9" class="edge">
<title>Node7_2&#45;&gt;Node7_3</title>
<path fill="none" stroke="black" d="M645.74,-133.27C645.74,-146.58 645.74,-162.19 645.74,-173.82"/>
<polygon fill="black" stroke="black" points="649.24,-133.2 645.74,-123.2 642.24,-133.2 649.24,-133.2"/>
<text text-anchor="middle" x="710.24" y="-144.8" font-family="Times,serif" font-size="14.00">द्वन्द्वः</text>
</g>
<!-- Node10_1 -->
<g id="node13" class="node">
<title>Node10_1</title>
<ellipse fill="#ffff00" stroke="#ffff00" cx="453.74" cy="-279" rx="68.79" ry="18"/>
<text text-anchor="middle" x="453.74" y="-275.3" font-family="Times,serif" font-size="14.00">जनक&#45;(10.1)</text>
</g>
<!-- Node10_2 -->
<g id="node14" class="node">
<title>Node10_2</title>
<ellipse fill="#c6e2eb" stroke="#c6e2eb" cx="535.74" cy="-366" rx="93.68" ry="18"/>
<text text-anchor="middle" x="535.74" y="-362.3" font-family="Times,serif" font-size="14.00">आत्मजे(10.2)</text>
</g>
<!-- Node10_1&#45;&gt;Node10_2 -->
<g id="edge13" class="edge">
<title>Node10_1&#45;&gt;Node10_2</title>
<path fill="none" stroke="black" d="M455.93,-307.41C457.66,-315.34 460.65,-323.58 465.74,-330 472.42,-338.4 481.64,-344.95 491.2,-350"/>
<polygon fill="black" stroke="black" points="459.35,-306.65 454.3,-297.33 452.44,-307.76 459.35,-306.65"/>
<text text-anchor="middle" x="568.24" y="-318.8" font-family="Times,serif" font-size="14.00">षष्ठी&#45;तत्पुरुषः</text>
</g>
<!-- Node10_2&#45;&gt;Node5_1 -->
<g id="edge14" class="edge">
<title>Node10_2&#45;&gt;Node5_1</title>
<path fill="none" stroke="black" d="M535.74,-394.27C535.74,-407.58 535.74,-423.19 535.74,-434.82"/>
<polygon fill="black" stroke="black" points="539.24,-394.2 535.74,-384.2 532.24,-394.2 539.24,-394.2"/>
<text text-anchor="middle" x="600.24" y="-405.8" font-family="Times,serif" font-size="14.00">सम्बोध्यः</text>
</g>
</g>
</svg>
