<?xml version="1.0" encoding="UTF-8" standalone="no"?>
<!DOCTYPE svg PUBLIC "-//W3C//DTD SVG 1.1//EN"
 "http://www.w3.org/Graphics/SVG/1.1/DTD/svg11.dtd">
<!-- Generated by graphviz version 2.43.0 (0)
 -->
<!-- Title: G Pages: 1 -->
<svg width="2552pt" height="305pt"
 viewBox="0.00 0.00 2551.84 305.00" xmlns="http://www.w3.org/2000/svg" xmlns:xlink="http://www.w3.org/1999/xlink">
<g id="graph0" class="graph" transform="scale(1 1) rotate(0) translate(4 301)">
<title>G</title>
<polygon fill="#fffacd" stroke="transparent" points="-4,4 -4,-301 2547.84,-301 2547.84,4 -4,4"/>
<!-- Node1_1 -->
<g id="node1" class="node">
<title>Node1_1</title>
<ellipse fill="#93db70" stroke="#93db70" cx="96.84" cy="-105" rx="96.68" ry="18"/>
<text text-anchor="middle" x="96.84" y="-101.3" font-family="Times,serif" font-size="14.00">कीदृशम्(1.1)</text>
</g>
<!-- Node18_1 -->
<g id="node2" class="node">
<title>Node18_1</title>
<ellipse fill="#ff1975" stroke="#ff1975" cx="323.84" cy="-192" rx="90.98" ry="18"/>
<text text-anchor="middle" x="323.84" y="-188.3" font-family="Times,serif" font-size="14.00">[अस्ति](18.1)</text>
</g>
<!-- Node1_1&#45;&gt;Node18_1 -->
<g id="edge1" class="edge">
<title>Node1_1&#45;&gt;Node18_1</title>
<path fill="none" stroke="black" d="M104.29,-132.92C107.94,-141.51 113.25,-150.26 120.84,-156 139.78,-170.31 193.67,-179.19 241.16,-184.42"/>
<polygon fill="black" stroke="black" points="107.55,-131.65 100.83,-123.46 100.98,-134.05 107.55,-131.65"/>
<text text-anchor="middle" x="220.84" y="-144.8" font-family="Times,serif" font-size="14.00">क्रियाविशेषणम्</text>
</g>
<!-- Node2_1 -->
<g id="node3" class="node">
<title>Node2_1</title>
<ellipse fill="#87ceeb" stroke="#87ceeb" cx="327.84" cy="-18" rx="69.59" ry="18"/>
<text text-anchor="middle" x="327.84" y="-14.3" font-family="Times,serif" font-size="14.00">तस्य(2.1)</text>
</g>
<!-- Node3_1 -->
<g id="node4" class="node">
<title>Node3_1</title>
<ellipse fill="#00bfff" stroke="#00bfff" cx="327.84" cy="-105" rx="115.88" ry="18"/>
<text text-anchor="middle" x="327.84" y="-101.3" font-family="Times,serif" font-size="14.00">संस्थानम्(3.1)</text>
</g>
<!-- Node2_1&#45;&gt;Node3_1 -->
<g id="edge2" class="edge">
<title>Node2_1&#45;&gt;Node3_1</title>
<path fill="none" stroke="black" d="M327.84,-46.27C327.84,-59.58 327.84,-75.19 327.84,-86.82"/>
<polygon fill="black" stroke="black" points="331.34,-46.2 327.84,-36.2 324.34,-46.2 331.34,-46.2"/>
<text text-anchor="middle" x="420.84" y="-57.8" font-family="Times,serif" font-size="14.00">षष्ठीसम्बन्धः</text>
</g>
<!-- Node3_1&#45;&gt;Node18_1 -->
<g id="edge3" class="edge">
<title>Node3_1&#45;&gt;Node18_1</title>
<path fill="none" stroke="black" d="M325.34,-133.12C325.15,-135.78 324.98,-138.44 324.84,-141 324.26,-151.92 324.01,-164.21 323.91,-173.87"/>
<polygon fill="black" stroke="black" points="328.84,-133.32 326.15,-123.07 321.86,-132.76 328.84,-133.32"/>
<text text-anchor="middle" x="360.84" y="-144.8" font-family="Times,serif" font-size="14.00">कर्ता</text>
</g>
<!-- Node4_1 -->
<g id="node5" class="node">
<title>Node4_1</title>
<ellipse fill="#00bfff" stroke="#00bfff" cx="817.84" cy="-105" rx="78.79" ry="18"/>
<text text-anchor="middle" x="817.84" y="-101.3" font-family="Times,serif" font-size="14.00">रूपम्(4.1)</text>
</g>
<!-- Node19_1 -->
<g id="node6" class="node">
<title>Node19_1</title>
<ellipse fill="#ff1975" stroke="#ff1975" cx="878.84" cy="-192" rx="90.98" ry="18"/>
<text text-anchor="middle" x="878.84" y="-188.3" font-family="Times,serif" font-size="14.00">[अस्ति](19.1)</text>
</g>
<!-- Node4_1&#45;&gt;Node19_1 -->
<g id="edge4" class="edge">
<title>Node4_1&#45;&gt;Node19_1</title>
<path fill="none" stroke="black" d="M846.86,-129.43C850.48,-133.07 853.93,-136.98 856.84,-141 864.07,-150.98 869.63,-163.72 873.36,-173.84"/>
<polygon fill="black" stroke="black" points="848.99,-126.63 839.31,-122.34 844.2,-131.74 848.99,-126.63"/>
<text text-anchor="middle" x="901.84" y="-144.8" font-family="Times,serif" font-size="14.00">कर्ता</text>
</g>
<!-- Node5_1 -->
<g id="node7" class="node">
<title>Node5_1</title>
<ellipse fill="#87ceeb" stroke="#87ceeb" cx="817.84" cy="-18" rx="69.59" ry="18"/>
<text text-anchor="middle" x="817.84" y="-14.3" font-family="Times,serif" font-size="14.00">तस्य(5.1)</text>
</g>
<!-- Node5_1&#45;&gt;Node4_1 -->
<g id="edge5" class="edge">
<title>Node5_1&#45;&gt;Node4_1</title>
<path fill="none" stroke="black" d="M817.84,-46.27C817.84,-59.58 817.84,-75.19 817.84,-86.82"/>
<polygon fill="black" stroke="black" points="821.34,-46.2 817.84,-36.2 814.34,-46.2 821.34,-46.2"/>
<text text-anchor="middle" x="910.84" y="-57.8" font-family="Times,serif" font-size="14.00">षष्ठीसम्बन्धः</text>
</g>
<!-- Node6_1 -->
<g id="node8" class="node">
<title>Node6_1</title>
<ellipse fill="#ff99ff" stroke="#ff99ff" cx="611.84" cy="-105" rx="41.69" ry="18"/>
<text text-anchor="middle" x="611.84" y="-101.3" font-family="Times,serif" font-size="14.00">च(6.1)</text>
</g>
<!-- Node6_1&#45;&gt;Node18_1 -->
<g id="edge6" class="edge">
<title>Node6_1&#45;&gt;Node18_1</title>
<path fill="none" stroke="black" d="M560.88,-109.75C521.28,-113.96 465.59,-122.77 419.84,-141 408.5,-145.52 407.48,-150.02 396.84,-156 384.71,-162.82 371.05,-169.6 358.85,-175.35"/>
<polygon fill="black" stroke="black" points="561.24,-113.23 570.84,-108.75 560.54,-106.27 561.24,-113.23"/>
<text text-anchor="middle" x="523.34" y="-144.8" font-family="Times,serif" font-size="14.00">समुच्चय_द्योतकः</text>
</g>
<!-- Node6_1&#45;&gt;Node19_1 -->
<g id="edge7" class="edge">
<title>Node6_1&#45;&gt;Node19_1</title>
<path fill="none" stroke="black" stroke-dasharray="1,5" d="M623.87,-131.93C629.33,-140.94 636.64,-150.22 645.84,-156 670.12,-171.27 737.73,-180.31 793.91,-185.37"/>
<polygon fill="black" stroke="black" points="626.93,-130.23 619.04,-123.16 620.8,-133.61 626.93,-130.23"/>
<text text-anchor="middle" x="749.34" y="-144.8" font-family="Times,serif" font-size="14.00">समुच्चय_द्योतकः</text>
</g>
<!-- Node7_1 -->
<g id="node9" class="node">
<title>Node7_1</title>
<ellipse fill="#93db70" stroke="#93db70" cx="1010.84" cy="-105" rx="96.68" ry="18"/>
<text text-anchor="middle" x="1010.84" y="-101.3" font-family="Times,serif" font-size="14.00">कीदृशम्(7.1)</text>
</g>
<!-- Node7_1&#45;&gt;Node19_1 -->
<g id="edge8" class="edge">
<title>Node7_1&#45;&gt;Node19_1</title>
<path fill="none" stroke="black" d="M980.96,-128.85C969.02,-137.67 954.99,-147.62 941.84,-156 931.5,-162.59 919.84,-169.26 909.39,-174.99"/>
<polygon fill="black" stroke="black" points="983.32,-131.46 989.25,-122.68 979.14,-125.85 983.32,-131.46"/>
<text text-anchor="middle" x="1063.84" y="-144.8" font-family="Times,serif" font-size="14.00">क्रियाविशेषणम्</text>
</g>
<!-- Node8_1 -->
<g id="node10" class="node">
<title>Node8_1</title>
<ellipse fill="#ff99ff" stroke="#ff99ff" cx="1233.84" cy="-105" rx="69.59" ry="18"/>
<text text-anchor="middle" x="1233.84" y="-101.3" font-family="Times,serif" font-size="14.00">कथम्(8.1)</text>
</g>
<!-- Node20_1 -->
<g id="node11" class="node">
<title>Node20_1</title>
<ellipse fill="#ff1975" stroke="#ff1975" cx="1456.84" cy="-192" rx="81.79" ry="18"/>
<text text-anchor="middle" x="1456.84" y="-188.3" font-family="Times,serif" font-size="14.00">[स्तः](20.1)</text>
</g>
<!-- Node8_1&#45;&gt;Node20_1 -->
<g id="edge9" class="edge">
<title>Node8_1&#45;&gt;Node20_1</title>
<path fill="none" stroke="black" d="M1238.61,-133.08C1241.41,-141.58 1245.83,-150.23 1252.84,-156 1272.12,-171.87 1330.61,-180.83 1380.04,-185.7"/>
<polygon fill="black" stroke="black" points="1241.98,-132.13 1236.02,-123.37 1235.22,-133.93 1241.98,-132.13"/>
<text text-anchor="middle" x="1352.84" y="-144.8" font-family="Times,serif" font-size="14.00">क्रियाविशेषणम्</text>
</g>
<!-- Node9_1 -->
<g id="node12" class="node">
<title>Node9_1</title>
<ellipse fill="#00bfff" stroke="#00bfff" cx="1456.84" cy="-105" rx="59.59" ry="18"/>
<text text-anchor="middle" x="1456.84" y="-101.3" font-family="Times,serif" font-size="14.00">ऊरू(9.1)</text>
</g>
<!-- Node9_1&#45;&gt;Node20_1 -->
<g id="edge10" class="edge">
<title>Node9_1&#45;&gt;Node20_1</title>
<path fill="none" stroke="black" d="M1456.84,-133.27C1456.84,-146.58 1456.84,-162.19 1456.84,-173.82"/>
<polygon fill="black" stroke="black" points="1460.34,-133.2 1456.84,-123.2 1453.34,-133.2 1460.34,-133.2"/>
<text text-anchor="middle" x="1492.84" y="-144.8" font-family="Times,serif" font-size="14.00">कर्ता</text>
</g>
<!-- Node10_1 -->
<g id="node13" class="node">
<title>Node10_1</title>
<ellipse fill="#ff99ff" stroke="#ff99ff" cx="2011.84" cy="-105" rx="75.29" ry="18"/>
<text text-anchor="middle" x="2011.84" y="-101.3" font-family="Times,serif" font-size="14.00">कथम्(10.1)</text>
</g>
<!-- Node21_1 -->
<g id="node14" class="node">
<title>Node21_1</title>
<ellipse fill="#ff1975" stroke="#ff1975" cx="2122.84" cy="-192" rx="81.79" ry="18"/>
<text text-anchor="middle" x="2122.84" y="-188.3" font-family="Times,serif" font-size="14.00">[स्तः](21.1)</text>
</g>
<!-- Node10_1&#45;&gt;Node21_1 -->
<g id="edge11" class="edge">
<title>Node10_1&#45;&gt;Node21_1</title>
<path fill="none" stroke="black" d="M2003.87,-133.4C2003.14,-141.34 2004.1,-149.58 2008.84,-156 2018.93,-169.65 2034.25,-178.15 2050.42,-183.39"/>
<polygon fill="black" stroke="black" points="2007.35,-133.78 2005.61,-123.33 2000.45,-132.59 2007.35,-133.78"/>
<text text-anchor="middle" x="2108.84" y="-144.8" font-family="Times,serif" font-size="14.00">क्रियाविशेषणम्</text>
</g>
<!-- Node14_1 -->
<g id="node18" class="node">
<title>Node14_1</title>
<ellipse fill="#ff1975" stroke="#ff1975" cx="2200.84" cy="-279" rx="65.79" ry="18"/>
<text text-anchor="middle" x="2200.84" y="-275.3" font-family="Times,serif" font-size="14.00">शंस(14.1)</text>
</g>
<!-- Node21_1&#45;&gt;Node14_1 -->
<g id="edge18" class="edge">
<title>Node21_1&#45;&gt;Node14_1</title>
<path fill="none" stroke="black" d="M2118.14,-220.11C2118.09,-228.03 2119.46,-236.34 2123.84,-243 2130.86,-253.67 2142.01,-261.13 2153.66,-266.33"/>
<polygon fill="black" stroke="black" points="2121.63,-220.32 2118.88,-210.09 2114.65,-219.8 2121.63,-220.32"/>
<text text-anchor="middle" x="2188.34" y="-231.8" font-family="Times,serif" font-size="14.00">वाक्यकर्म</text>
</g>
<!-- Node11_1 -->
<g id="node15" class="node">
<title>Node11_1</title>
<ellipse fill="#00bfff" stroke="#00bfff" cx="2207.84" cy="-105" rx="75.29" ry="18"/>
<text text-anchor="middle" x="2207.84" y="-101.3" font-family="Times,serif" font-size="14.00">बाहू(11.1)</text>
</g>
<!-- Node11_1&#45;&gt;Node21_1 -->
<g id="edge12" class="edge">
<title>Node11_1&#45;&gt;Node21_1</title>
<path fill="none" stroke="black" d="M2216.95,-133.17C2218,-141.09 2217.36,-149.39 2212.84,-156 2205.46,-166.79 2194.22,-174.26 2182.16,-179.42"/>
<polygon fill="black" stroke="black" points="2220.32,-132.18 2214.8,-123.14 2213.48,-133.65 2220.32,-132.18"/>
<text text-anchor="middle" x="2252.84" y="-144.8" font-family="Times,serif" font-size="14.00">कर्ता</text>
</g>
<!-- Node12_1 -->
<g id="node16" class="node">
<title>Node12_1</title>
<ellipse fill="#87ceeb" stroke="#87ceeb" cx="2207.84" cy="-18" rx="130.78" ry="18"/>
<text text-anchor="middle" x="2207.84" y="-14.3" font-family="Times,serif" font-size="14.00">लक्ष्मणस्य(12.1)</text>
</g>
<!-- Node12_1&#45;&gt;Node11_1 -->
<g id="edge13" class="edge">
<title>Node12_1&#45;&gt;Node11_1</title>
<path fill="none" stroke="black" d="M2207.84,-46.27C2207.84,-59.58 2207.84,-75.19 2207.84,-86.82"/>
<polygon fill="black" stroke="black" points="2211.34,-46.2 2207.84,-36.2 2204.34,-46.2 2211.34,-46.2"/>
<text text-anchor="middle" x="2300.84" y="-57.8" font-family="Times,serif" font-size="14.00">षष्ठीसम्बन्धः</text>
</g>
<!-- Node13_1 -->
<g id="node17" class="node">
<title>Node13_1</title>
<ellipse fill="#ff99ff" stroke="#ff99ff" cx="1681.84" cy="-105" rx="47.39" ry="18"/>
<text text-anchor="middle" x="1681.84" y="-101.3" font-family="Times,serif" font-size="14.00">च(13.1)</text>
</g>
<!-- Node13_1&#45;&gt;Node20_1 -->
<g id="edge15" class="edge">
<title>Node13_1&#45;&gt;Node20_1</title>
<path fill="none" stroke="black" stroke-dasharray="1,5" d="M1630.3,-116.08C1606.16,-121.78 1577.39,-129.99 1552.84,-141 1541.71,-145.99 1540.48,-150.02 1529.84,-156 1517.59,-162.89 1503.77,-169.74 1491.48,-175.53"/>
<polygon fill="black" stroke="black" points="1631.36,-119.43 1640.33,-113.8 1629.8,-112.61 1631.36,-119.43"/>
<text text-anchor="middle" x="1656.34" y="-144.8" font-family="Times,serif" font-size="14.00">समुच्चय_द्योतकः</text>
</g>
<!-- Node13_1&#45;&gt;Node21_1 -->
<g id="edge14" class="edge">
<title>Node13_1&#45;&gt;Node21_1</title>
<path fill="none" stroke="black" d="M1720.77,-123.31C1733.27,-128.91 1747.16,-135.18 1759.84,-141 1774.12,-147.55 1776.71,-151.78 1791.84,-156 1874.78,-179.12 1973.3,-187.18 2041.17,-189.88"/>
<polygon fill="black" stroke="black" points="1722.08,-120.07 1711.52,-119.18 1719.22,-126.46 1722.08,-120.07"/>
<text text-anchor="middle" x="1895.34" y="-144.8" font-family="Times,serif" font-size="14.00">समुच्चय_द्योतकः</text>
</g>
<!-- Node15_1 -->
<g id="node19" class="node">
<title>Node15_1</title>
<ellipse fill="#87ceeb" stroke="#87ceeb" cx="2278.84" cy="-192" rx="56.59" ry="18"/>
<text text-anchor="middle" x="2278.84" y="-188.3" font-family="Times,serif" font-size="14.00">मे(15.1)</text>
</g>
<!-- Node15_1&#45;&gt;Node14_1 -->
<g id="edge16" class="edge">
<title>Node15_1&#45;&gt;Node14_1</title>
<path fill="none" stroke="black" d="M2270.55,-219.67C2267.18,-227.76 2262.67,-236.27 2256.84,-243 2249.94,-250.98 2240.77,-257.74 2231.84,-263.13"/>
<polygon fill="black" stroke="black" points="2273.88,-220.76 2274.12,-210.17 2267.33,-218.3 2273.88,-220.76"/>
<text text-anchor="middle" x="2330.34" y="-231.8" font-family="Times,serif" font-size="14.00">प्रयोजनम्</text>
</g>
<!-- Node17_1 -->
<g id="node20" class="node">
<title>Node17_1</title>
<ellipse fill="#ff99ff" stroke="#ff99ff" cx="2373.84" cy="-105" rx="72.59" ry="18"/>
<text text-anchor="middle" x="2373.84" y="-101.3" font-family="Times,serif" font-size="14.00">[इति](17.1)</text>
</g>
<!-- Node17_1&#45;&gt;Node21_1 -->
<g id="edge17" class="edge">
<title>Node17_1&#45;&gt;Node21_1</title>
<path fill="none" stroke="black" d="M2343.62,-128.17C2328.94,-138.01 2310.65,-148.93 2292.84,-156 2282.51,-160.1 2227.65,-171.1 2183,-179.68"/>
<polygon fill="black" stroke="black" points="2346.01,-130.78 2352.26,-122.23 2342.04,-125.01 2346.01,-130.78"/>
<text text-anchor="middle" x="2432.34" y="-144.8" font-family="Times,serif" font-size="14.00">वाक्य&#45;कर्म&#45;द्योतक</text>
</g>
</g>
</svg>
