<?xml version="1.0" encoding="UTF-8" standalone="no"?>
<!DOCTYPE svg PUBLIC "-//W3C//DTD SVG 1.1//EN"
 "http://www.w3.org/Graphics/SVG/1.1/DTD/svg11.dtd">
<!-- Generated by graphviz version 2.43.0 (0)
 -->
<!-- Title: G Pages: 1 -->
<svg width="863pt" height="321pt"
 viewBox="0.00 0.00 863.00 321.00" xmlns="http://www.w3.org/2000/svg" xmlns:xlink="http://www.w3.org/1999/xlink">
<g id="graph0" class="graph" transform="scale(1 1) rotate(0) translate(4 317)">
<title>G</title>
<polygon fill="#fffacd" stroke="transparent" points="-4,4 -4,-317 859,-317 859,4 -4,4"/>
<g id="clust1" class="cluster">
<title>cluster_1</title>
<polygon fill="#fffacd" stroke="black" points="652,-8 652,-147 844,-147 844,-8 652,-8"/>
</g>
<g id="clust2" class="cluster">
<title>cluster_2</title>
<polygon fill="#fffacd" stroke="black" points="8,-8 8,-147 256,-147 256,-8 8,-8"/>
</g>
<!-- Node5_1 -->
<g id="node1" class="node">
<title>Node5_1</title>
<ellipse fill="#40e0d0" stroke="#40e0d0" cx="732" cy="-34" rx="69.59" ry="18"/>
<text text-anchor="middle" x="732" y="-30.3" font-family="Times,serif" font-size="14.00">महता(5.1)</text>
</g>
<!-- Node6_2 -->
<g id="node2" class="node">
<title>Node6_2</title>
<ellipse fill="#40e0d0" stroke="#40e0d0" cx="748" cy="-121" rx="87.99" ry="18"/>
<text text-anchor="middle" x="748" y="-117.3" font-family="Times,serif" font-size="14.00">कम्पेन(6.2)</text>
</g>
<!-- Node5_1&#45;&gt;Node6_2 -->
<g id="edge5" class="edge">
<title>Node5_1&#45;&gt;Node6_2</title>
<path fill="none" stroke="black" d="M737.13,-62.27C739.64,-75.58 742.58,-91.19 744.77,-102.82"/>
<polygon fill="black" stroke="black" points="740.53,-61.38 735.24,-52.2 733.65,-62.68 740.53,-61.38"/>
<text text-anchor="middle" x="797.5" y="-73.8" font-family="Times,serif" font-size="14.00">विशेषणम्</text>
</g>
<!-- Node2_2 -->
<g id="node6" class="node">
<title>Node2_2</title>
<ellipse fill="#40e0d0" stroke="#40e0d0" cx="496" cy="-208" rx="78.79" ry="18"/>
<text text-anchor="middle" x="496" y="-204.3" font-family="Times,serif" font-size="14.00">शोकेन(2.2)</text>
</g>
<!-- Node6_2&#45;&gt;Node2_2 -->
<g id="edge7" class="edge">
<title>Node6_2&#45;&gt;Node2_2</title>
<path fill="none" stroke="black" d="M696.09,-140.12C668.48,-149.71 633.93,-161.61 603,-172 582.16,-179 558.97,-186.61 539.52,-192.94"/>
<polygon fill="black" stroke="black" points="697.25,-143.43 705.55,-136.84 694.96,-136.81 697.25,-143.43"/>
<text text-anchor="middle" x="696" y="-160.8" font-family="Times,serif" font-size="14.00">उपमानम्</text>
</g>
<!-- Node7_1 -->
<g id="node3" class="node">
<title>Node7_1</title>
<ellipse fill="#00bfff" stroke="#00bfff" cx="95" cy="-34" rx="78.79" ry="18"/>
<text text-anchor="middle" x="95" y="-30.3" font-family="Times,serif" font-size="14.00">महान्(7.1)</text>
</g>
<!-- Node9_1 -->
<g id="node4" class="node">
<title>Node9_1</title>
<ellipse fill="#00bfff" stroke="#00bfff" cx="132" cy="-121" rx="115.88" ry="18"/>
<text text-anchor="middle" x="132" y="-117.3" font-family="Times,serif" font-size="14.00">शिलोच्चयः(9.1)</text>
</g>
<!-- Node7_1&#45;&gt;Node9_1 -->
<g id="edge8" class="edge">
<title>Node7_1&#45;&gt;Node9_1</title>
<path fill="none" stroke="black" d="M84.9,-61.74C83.48,-69.53 83.51,-77.86 87,-85 90.57,-92.29 96.46,-98.5 102.84,-103.58"/>
<polygon fill="black" stroke="black" points="88.32,-62.51 87.44,-51.95 81.54,-60.75 88.32,-62.51"/>
<text text-anchor="middle" x="144.5" y="-73.8" font-family="Times,serif" font-size="14.00">विशेषणम्</text>
</g>
<!-- Node3_1 -->
<g id="node9" class="node">
<title>Node3_1</title>
<ellipse fill="#00bfff" stroke="#00bfff" cx="275" cy="-208" rx="78.79" ry="18"/>
<text text-anchor="middle" x="275" y="-204.3" font-family="Times,serif" font-size="14.00">राघवः(3.1)</text>
</g>
<!-- Node9_1&#45;&gt;Node3_1 -->
<g id="edge11" class="edge">
<title>Node9_1&#45;&gt;Node3_1</title>
<path fill="none" stroke="black" d="M166.07,-144.23C179.89,-153.07 196.09,-163.21 211,-172 222.02,-178.49 234.31,-185.31 245.15,-191.18"/>
<polygon fill="black" stroke="black" points="167.67,-141.1 157.36,-138.63 163.88,-146.98 167.67,-141.1"/>
<text text-anchor="middle" x="261" y="-160.8" font-family="Times,serif" font-size="14.00">उपमानम्</text>
</g>
<!-- Node1_1 -->
<g id="node5" class="node">
<title>Node1_1</title>
<ellipse fill="#87ceeb" stroke="#87ceeb" cx="333" cy="-121" rx="50.89" ry="18"/>
<text text-anchor="middle" x="333" y="-117.3" font-family="Times,serif" font-size="14.00">तव(1.1)</text>
</g>
<!-- Node1_1&#45;&gt;Node2_2 -->
<g id="edge1" class="edge">
<title>Node1_1&#45;&gt;Node2_2</title>
<path fill="none" stroke="black" d="M324.74,-149.04C323.88,-157.18 324.84,-165.64 330,-172 342.06,-186.87 384.68,-195.66 423.71,-200.72"/>
<polygon fill="black" stroke="black" points="328.2,-149.55 326.6,-139.08 321.32,-148.26 328.2,-149.55"/>
<text text-anchor="middle" x="423" y="-160.8" font-family="Times,serif" font-size="14.00">षष्ठीसम्बन्धः</text>
</g>
<!-- Node4_1 -->
<g id="node8" class="node">
<title>Node4_1</title>
<ellipse fill="#ff1975" stroke="#ff1975" cx="362" cy="-295" rx="124.58" ry="18"/>
<text text-anchor="middle" x="362" y="-291.3" font-family="Times,serif" font-size="14.00">परिचाल्यते(4.1)</text>
</g>
<!-- Node2_2&#45;&gt;Node4_1 -->
<g id="edge3" class="edge">
<title>Node2_2&#45;&gt;Node4_1</title>
<path fill="none" stroke="black" d="M461.78,-230.71C438.93,-245.2 409.35,-263.97 388.34,-277.29"/>
<polygon fill="black" stroke="black" points="463.91,-233.5 470.48,-225.19 460.16,-227.59 463.91,-233.5"/>
<text text-anchor="middle" x="474" y="-247.8" font-family="Times,serif" font-size="14.00">कर्ता</text>
</g>
<!-- Node2_1 -->
<g id="node7" class="node">
<title>Node2_1</title>
<ellipse fill="#ffff00" stroke="#ffff00" cx="542" cy="-121" rx="90.98" ry="18"/>
<text text-anchor="middle" x="542" y="-117.3" font-family="Times,serif" font-size="14.00">अदर्शन&#45;(2.1)</text>
</g>
<!-- Node2_1&#45;&gt;Node2_2 -->
<g id="edge2" class="edge">
<title>Node2_1&#45;&gt;Node2_2</title>
<path fill="none" stroke="black" d="M531.48,-148.4C528.1,-156.15 524.15,-164.54 520,-172 516.63,-178.05 512.5,-184.38 508.62,-189.96"/>
<polygon fill="black" stroke="black" points="534.76,-149.62 535.43,-139.04 528.31,-146.9 534.76,-149.62"/>
<text text-anchor="middle" x="563" y="-160.8" font-family="Times,serif" font-size="14.00">समासः</text>
</g>
<!-- Node3_1&#45;&gt;Node4_1 -->
<g id="edge4" class="edge">
<title>Node3_1&#45;&gt;Node4_1</title>
<path fill="none" stroke="black" d="M299.34,-232.78C313.72,-246.83 331.58,-264.28 344.55,-276.95"/>
<polygon fill="black" stroke="black" points="301.79,-230.28 292.19,-225.79 296.9,-235.29 301.79,-230.28"/>
<text text-anchor="middle" x="353" y="-247.8" font-family="Times,serif" font-size="14.00">कर्म</text>
</g>
<!-- Node6_1 -->
<g id="node10" class="node">
<title>Node6_1</title>
<ellipse fill="#ffff00" stroke="#ffff00" cx="572" cy="-34" rx="72.29" ry="18"/>
<text text-anchor="middle" x="572" y="-30.3" font-family="Times,serif" font-size="14.00">भूमि&#45;(6.1)</text>
</g>
<!-- Node6_1&#45;&gt;Node6_2 -->
<g id="edge6" class="edge">
<title>Node6_1&#45;&gt;Node6_2</title>
<path fill="none" stroke="black" d="M607.87,-55.92C624.42,-65.26 644.48,-76.13 663,-85 677.68,-92.03 694.16,-99.01 708.67,-104.87"/>
<polygon fill="black" stroke="black" points="609.48,-52.81 599.06,-50.91 606.02,-58.89 609.48,-52.81"/>
<text text-anchor="middle" x="699" y="-73.8" font-family="Times,serif" font-size="14.00">समासः</text>
</g>
<!-- Node8_1 -->
<g id="node11" class="node">
<title>Node8_1</title>
<ellipse fill="#ff99ff" stroke="#ff99ff" cx="370" cy="-34" rx="50.89" ry="18"/>
<text text-anchor="middle" x="370" y="-30.3" font-family="Times,serif" font-size="14.00">इव(8.1)</text>
</g>
<!-- Node8_1&#45;&gt;Node6_2 -->
<g id="edge10" class="edge">
<title>Node8_1&#45;&gt;Node6_2</title>
<path fill="none" stroke="black" stroke-dasharray="1,5" d="M398.69,-56.68C414,-67.07 433.64,-78.61 453,-85 533.13,-111.43 558.3,-92.31 642,-103 655.22,-104.69 669.32,-106.76 682.79,-108.87"/>
<polygon fill="black" stroke="black" points="400.41,-53.61 390.22,-50.74 396.4,-59.34 400.41,-53.61"/>
<text text-anchor="middle" x="542" y="-73.8" font-family="Times,serif" font-size="14.00">उपमान_द्योतकः</text>
</g>
<!-- Node8_1&#45;&gt;Node9_1 -->
<g id="edge9" class="edge">
<title>Node8_1&#45;&gt;Node9_1</title>
<path fill="none" stroke="black" d="M314.42,-43.8C286.81,-49.32 253.38,-57.76 225,-70 213.79,-74.84 212.59,-78.93 202,-85 190.69,-91.49 178.01,-98.03 166.59,-103.68"/>
<polygon fill="black" stroke="black" points="315.14,-47.23 324.3,-41.9 313.82,-40.35 315.14,-47.23"/>
<text text-anchor="middle" x="314" y="-73.8" font-family="Times,serif" font-size="14.00">उपमान_द्योतकः</text>
</g>
</g>
</svg>
