<?xml version="1.0" encoding="UTF-8" standalone="no"?>
<!DOCTYPE svg PUBLIC "-//W3C//DTD SVG 1.1//EN"
 "http://www.w3.org/Graphics/SVG/1.1/DTD/svg11.dtd">
<!-- Generated by graphviz version 2.43.0 (0)
 -->
<!-- Title: G Pages: 1 -->
<svg width="1231pt" height="305pt"
 viewBox="0.00 0.00 1231.00 305.00" xmlns="http://www.w3.org/2000/svg" xmlns:xlink="http://www.w3.org/1999/xlink">
<g id="graph0" class="graph" transform="scale(1 1) rotate(0) translate(4 301)">
<title>G</title>
<polygon fill="#fffacd" stroke="transparent" points="-4,4 -4,-301 1227,-301 1227,4 -4,4"/>
<g id="clust1" class="cluster">
<title>cluster_1</title>
<polygon fill="#fffacd" stroke="black" points="8,-79 8,-218 319,-218 319,-79 8,-79"/>
</g>
<g id="clust2" class="cluster">
<title>cluster_2</title>
<polygon fill="#fffacd" stroke="black" points="646,-79 646,-218 906,-218 906,-79 646,-79"/>
</g>
<!-- Node1_1 -->
<g id="node1" class="node">
<title>Node1_1</title>
<ellipse fill="#00bfff" stroke="#00bfff" cx="232" cy="-105" rx="78.79" ry="18"/>
<text text-anchor="middle" x="232" y="-101.3" font-family="Times,serif" font-size="14.00">सहितौ(1.1)</text>
</g>
<!-- Node2_2 -->
<g id="node2" class="node">
<title>Node2_2</title>
<ellipse fill="#00bfff" stroke="#00bfff" cx="200" cy="-192" rx="106.68" ry="18"/>
<text text-anchor="middle" x="200" y="-188.3" font-family="Times,serif" font-size="14.00">सुग्रीवौ(2.2)</text>
</g>
<!-- Node1_1&#45;&gt;Node2_2 -->
<g id="edge1" class="edge">
<title>Node1_1&#45;&gt;Node2_2</title>
<path fill="none" stroke="black" d="M221.88,-132.87C216.84,-146.27 210.89,-162.08 206.47,-173.82"/>
<polygon fill="black" stroke="black" points="225.28,-133.79 225.52,-123.2 218.73,-131.33 225.28,-133.79"/>
<text text-anchor="middle" x="275.5" y="-144.8" font-family="Times,serif" font-size="14.00">विशेषणम्</text>
</g>
<!-- Node4_1 -->
<g id="node7" class="node">
<title>Node4_1</title>
<ellipse fill="#ff1975" stroke="#ff1975" cx="776" cy="-279" rx="115.88" ry="18"/>
<text text-anchor="middle" x="776" y="-275.3" font-family="Times,serif" font-size="14.00">अकुरुताम्(4.1)</text>
</g>
<!-- Node2_2&#45;&gt;Node4_1 -->
<g id="edge3" class="edge">
<title>Node2_2&#45;&gt;Node4_1</title>
<path fill="none" stroke="black" d="M264.98,-209.94C308.79,-220.8 368.04,-234.43 421,-243 504.91,-256.57 600.89,-265.65 671.87,-271.16"/>
<polygon fill="black" stroke="black" points="265.58,-206.48 255.03,-207.45 263.88,-213.27 265.58,-206.48"/>
<text text-anchor="middle" x="457" y="-231.8" font-family="Times,serif" font-size="14.00">कर्ता</text>
</g>
<!-- Node3_1 -->
<g id="node3" class="node">
<title>Node3_1</title>
<ellipse fill="#00bfff" stroke="#00bfff" cx="76" cy="-105" rx="59.59" ry="18"/>
<text text-anchor="middle" x="76" y="-101.3" font-family="Times,serif" font-size="14.00">उभौ(3.1)</text>
</g>
<!-- Node3_1&#45;&gt;Node2_2 -->
<g id="edge4" class="edge">
<title>Node3_1&#45;&gt;Node2_2</title>
<path fill="none" stroke="black" d="M82.1,-133.14C85.1,-141.39 89.53,-149.88 96,-156 106.38,-165.82 119.61,-172.89 133.12,-177.97"/>
<polygon fill="black" stroke="black" points="85.38,-131.91 79.1,-123.38 78.69,-133.97 85.38,-131.91"/>
<text text-anchor="middle" x="153.5" y="-144.8" font-family="Times,serif" font-size="14.00">विशेषणम्</text>
</g>
<!-- Node8_1 -->
<g id="node4" class="node">
<title>Node8_1</title>
<ellipse fill="#ff99ff" stroke="#ff99ff" cx="752" cy="-105" rx="96.68" ry="18"/>
<text text-anchor="middle" x="752" y="-101.3" font-family="Times,serif" font-size="14.00">हन्तुम्(8.1)</text>
</g>
<!-- Node11_1 -->
<g id="node5" class="node">
<title>Node11_1</title>
<ellipse fill="#93db70" stroke="#93db70" cx="776" cy="-192" rx="121.58" ry="18"/>
<text text-anchor="middle" x="776" y="-188.3" font-family="Times,serif" font-size="14.00">अन्वेषणम्(11.1)</text>
</g>
<!-- Node8_1&#45;&gt;Node11_1 -->
<g id="edge9" class="edge">
<title>Node8_1&#45;&gt;Node11_1</title>
<path fill="none" stroke="black" stroke-dasharray="1,5" d="M750.54,-133.16C750.81,-140.69 751.76,-148.78 754,-156 755.95,-162.31 759.35,-168.6 762.89,-174.08"/>
<polygon fill="black" stroke="black" points="754.04,-133.03 750.53,-123.03 747.04,-133.04 754.04,-133.03"/>
<text text-anchor="middle" x="818.5" y="-144.8" font-family="Times,serif" font-size="14.00">समुच्चितः</text>
</g>
<!-- Node8_1&#45;&gt;Node4_1 -->
<g id="edge8" class="edge">
<title>Node8_1&#45;&gt;Node4_1</title>
<path fill="none" stroke="black" d="M662.29,-116.81C577.66,-130.72 470.1,-160.3 516,-218 536.73,-244.06 616.16,-259.77 681.83,-268.54"/>
<polygon fill="black" stroke="black" points="662.9,-120.26 672.22,-115.23 661.8,-113.35 662.9,-120.26"/>
<text text-anchor="middle" x="580.5" y="-188.3" font-family="Times,serif" font-size="14.00">प्रयोजनम्</text>
</g>
<!-- Node11_1&#45;&gt;Node4_1 -->
<g id="edge12" class="edge">
<title>Node11_1&#45;&gt;Node4_1</title>
<path fill="none" stroke="black" d="M776,-220.27C776,-233.58 776,-249.19 776,-260.82"/>
<polygon fill="black" stroke="black" points="779.5,-220.2 776,-210.2 772.5,-220.2 779.5,-220.2"/>
<text text-anchor="middle" x="840.5" y="-231.8" font-family="Times,serif" font-size="14.00">प्रयोजनम्</text>
</g>
<!-- Node2_1 -->
<g id="node6" class="node">
<title>Node2_1</title>
<ellipse fill="#ffff00" stroke="#ffff00" cx="392" cy="-105" rx="63.09" ry="18"/>
<text text-anchor="middle" x="392" y="-101.3" font-family="Times,serif" font-size="14.00">राम&#45;(2.1)</text>
</g>
<!-- Node2_1&#45;&gt;Node2_2 -->
<g id="edge2" class="edge">
<title>Node2_1&#45;&gt;Node2_2</title>
<path fill="none" stroke="black" d="M370.64,-129.96C361.17,-139.3 349.37,-149.34 337,-156 317.76,-166.36 295.34,-173.75 274.28,-178.97"/>
<polygon fill="black" stroke="black" points="373.24,-132.3 377.71,-122.69 368.23,-127.42 373.24,-132.3"/>
<text text-anchor="middle" x="422.5" y="-144.8" font-family="Times,serif" font-size="14.00">द्वन्द्वः</text>
</g>
<!-- Node5_1 -->
<g id="node8" class="node">
<title>Node5_1</title>
<ellipse fill="#ff99ff" stroke="#ff99ff" cx="975" cy="-192" rx="59.59" ry="18"/>
<text text-anchor="middle" x="975" y="-188.3" font-family="Times,serif" font-size="14.00">तदा(5.1)</text>
</g>
<!-- Node5_1&#45;&gt;Node4_1 -->
<g id="edge5" class="edge">
<title>Node5_1&#45;&gt;Node4_1</title>
<path fill="none" stroke="black" d="M949.54,-216.01C937.88,-225.53 923.46,-235.97 909,-243 889.78,-252.35 867.75,-259.44 847.21,-264.71"/>
<polygon fill="black" stroke="black" points="952.11,-218.43 957.5,-209.31 947.6,-213.07 952.11,-218.43"/>
<text text-anchor="middle" x="1010.5" y="-231.8" font-family="Times,serif" font-size="14.00">कालाधिकरणम्</text>
</g>
<!-- Node6_1 -->
<g id="node9" class="node">
<title>Node6_1</title>
<ellipse fill="#93db70" stroke="#93db70" cx="1143" cy="-192" rx="78.79" ry="18"/>
<text text-anchor="middle" x="1143" y="-188.3" font-family="Times,serif" font-size="14.00">समयम्(6.1)</text>
</g>
<!-- Node6_1&#45;&gt;Node4_1 -->
<g id="edge6" class="edge">
<title>Node6_1&#45;&gt;Node4_1</title>
<path fill="none" stroke="black" d="M1124.49,-217.7C1115.99,-227.22 1105.1,-237.19 1093,-243 1057.37,-260.11 962.91,-269.02 886.31,-273.56"/>
<polygon fill="black" stroke="black" points="1127.29,-219.82 1131.05,-209.91 1121.93,-215.31 1127.29,-219.82"/>
<text text-anchor="middle" x="1142" y="-231.8" font-family="Times,serif" font-size="14.00">कर्म</text>
</g>
<!-- Node7_1 -->
<g id="node10" class="node">
<title>Node7_1</title>
<ellipse fill="#93db70" stroke="#93db70" cx="752" cy="-18" rx="96.68" ry="18"/>
<text text-anchor="middle" x="752" y="-14.3" font-family="Times,serif" font-size="14.00">वालिनम्(7.1)</text>
</g>
<!-- Node7_1&#45;&gt;Node8_1 -->
<g id="edge7" class="edge">
<title>Node7_1&#45;&gt;Node8_1</title>
<path fill="none" stroke="black" d="M752,-46.27C752,-59.58 752,-75.19 752,-86.82"/>
<polygon fill="black" stroke="black" points="755.5,-46.2 752,-36.2 748.5,-46.2 755.5,-46.2"/>
<text text-anchor="middle" x="781" y="-57.8" font-family="Times,serif" font-size="14.00">कर्म</text>
</g>
<!-- Node9_1 -->
<g id="node11" class="node">
<title>Node9_1</title>
<ellipse fill="#87ceeb" stroke="#87ceeb" cx="965" cy="-105" rx="50.89" ry="18"/>
<text text-anchor="middle" x="965" y="-101.3" font-family="Times,serif" font-size="14.00">तव(9.1)</text>
</g>
<!-- Node9_1&#45;&gt;Node11_1 -->
<g id="edge10" class="edge">
<title>Node9_1&#45;&gt;Node11_1</title>
<path fill="none" stroke="black" d="M930.94,-125.87C922.73,-130.75 914.02,-136.01 906,-141 895.64,-147.45 894,-150.72 883,-156 866.79,-163.77 848.41,-170.48 831.51,-175.88"/>
<polygon fill="black" stroke="black" points="932.77,-128.86 939.59,-120.75 929.2,-122.83 932.77,-128.86"/>
<text text-anchor="middle" x="1001" y="-144.8" font-family="Times,serif" font-size="14.00">षष्ठी&#45;सम्बन्धः</text>
</g>
<!-- Node10_1 -->
<g id="node12" class="node">
<title>Node10_1</title>
<ellipse fill="#ff99ff" stroke="#ff99ff" cx="965" cy="-18" rx="47.39" ry="18"/>
<text text-anchor="middle" x="965" y="-14.3" font-family="Times,serif" font-size="14.00">च(10.1)</text>
</g>
<!-- Node10_1&#45;&gt;Node9_1 -->
<g id="edge11" class="edge">
<title>Node10_1&#45;&gt;Node9_1</title>
<path fill="none" stroke="black" d="M965,-46.27C965,-59.58 965,-75.19 965,-86.82"/>
<polygon fill="black" stroke="black" points="968.5,-46.2 965,-36.2 961.5,-46.2 968.5,-46.2"/>
<text text-anchor="middle" x="1068.5" y="-57.8" font-family="Times,serif" font-size="14.00">समुच्चय_द्योतकः</text>
</g>
<!-- Node12_1 -->
<g id="node13" class="node">
<title>Node12_1</title>
<ellipse fill="#ff99ff" stroke="#ff99ff" cx="1118" cy="-105" rx="84.49" ry="18"/>
<text text-anchor="middle" x="1118" y="-101.3" font-family="Times,serif" font-size="14.00">प्रति(12.1)</text>
</g>
<!-- Node12_1&#45;&gt;Node11_1 -->
<g id="edge13" class="edge">
<title>Node12_1&#45;&gt;Node11_1</title>
<path fill="none" stroke="black" d="M1112.04,-132.82C1108.75,-141.56 1103.71,-150.43 1096,-156 1061.62,-180.83 948.14,-169.25 906,-174 891.86,-175.59 876.88,-177.42 862.31,-179.28"/>
<polygon fill="black" stroke="black" points="1115.41,-133.78 1115.05,-123.19 1108.72,-131.69 1115.41,-133.78"/>
<text text-anchor="middle" x="1165.5" y="-144.8" font-family="Times,serif" font-size="14.00">सम्बन्धः</text>
</g>
</g>
</svg>
