<?xml version="1.0" encoding="UTF-8" standalone="no"?>
<!DOCTYPE svg PUBLIC "-//W3C//DTD SVG 1.1//EN"
 "http://www.w3.org/Graphics/SVG/1.1/DTD/svg11.dtd">
<!-- Generated by graphviz version 2.43.0 (0)
 -->
<!-- Title: G Pages: 1 -->
<svg width="1638pt" height="337pt"
 viewBox="0.00 0.00 1638.39 337.00" xmlns="http://www.w3.org/2000/svg" xmlns:xlink="http://www.w3.org/1999/xlink">
<g id="graph0" class="graph" transform="scale(1 1) rotate(0) translate(4 333)">
<title>G</title>
<polygon fill="#fffacd" stroke="transparent" points="-4,4 -4,-333 1634.39,-333 1634.39,4 -4,4"/>
<g id="clust1" class="cluster">
<title>cluster_1</title>
<polygon fill="#fffacd" stroke="black" points="8,-182 8,-321 218,-321 218,-182 8,-182"/>
</g>
<g id="clust2" class="cluster">
<title>cluster_2</title>
<polygon fill="#fffacd" stroke="black" points="226,-95 226,-234 686,-234 686,-95 226,-95"/>
</g>
<g id="clust3" class="cluster">
<title>cluster_3</title>
<polygon fill="#fffacd" stroke="black" points="694,-8 694,-147 916,-147 916,-8 694,-8"/>
</g>
<!-- Node3_1 -->
<g id="node1" class="node">
<title>Node3_1</title>
<ellipse fill="#00bfff" stroke="#00bfff" cx="95" cy="-208" rx="78.79" ry="18"/>
<text text-anchor="middle" x="95" y="-204.3" font-family="Times,serif" font-size="14.00">चिरम्(3.1)</text>
</g>
<!-- Node1_1 -->
<g id="node2" class="node">
<title>Node1_1</title>
<ellipse fill="#00bfff" stroke="#00bfff" cx="113" cy="-295" rx="96.68" ry="18"/>
<text text-anchor="middle" x="113" y="-291.3" font-family="Times,serif" font-size="14.00">शायितम्(1.1)</text>
</g>
<!-- Node3_1&#45;&gt;Node1_1 -->
<g id="edge2" class="edge">
<title>Node3_1&#45;&gt;Node1_1</title>
<path fill="none" stroke="black" d="M100.77,-236.27C103.59,-249.58 106.9,-265.19 109.36,-276.82"/>
<polygon fill="black" stroke="black" points="104.14,-235.26 98.64,-226.2 97.29,-236.71 104.14,-235.26"/>
<text text-anchor="middle" x="163.5" y="-247.8" font-family="Times,serif" font-size="14.00">विशेषणम्</text>
</g>
<!-- Node5_1 -->
<g id="node3" class="node">
<title>Node5_1</title>
<ellipse fill="#40e0d0" stroke="#40e0d0" cx="553" cy="-121" rx="124.58" ry="18"/>
<text text-anchor="middle" x="553" y="-117.3" font-family="Times,serif" font-size="14.00">दुःखार्तेन(5.1)</text>
</g>
<!-- Node4_1 -->
<g id="node4" class="node">
<title>Node4_1</title>
<ellipse fill="#40e0d0" stroke="#40e0d0" cx="322" cy="-208" rx="59.59" ry="18"/>
<text text-anchor="middle" x="322" y="-204.3" font-family="Times,serif" font-size="14.00">तेन(4.1)</text>
</g>
<!-- Node5_1&#45;&gt;Node4_1 -->
<g id="edge4" class="edge">
<title>Node5_1&#45;&gt;Node4_1</title>
<path fill="none" stroke="black" d="M510.05,-142.79C489.44,-152.36 464.22,-163.45 441,-172 416.45,-181.04 388.4,-189.39 365.7,-195.66"/>
<polygon fill="black" stroke="black" points="511.6,-145.93 519.18,-138.52 508.64,-139.59 511.6,-145.93"/>
<text text-anchor="middle" x="533.5" y="-160.8" font-family="Times,serif" font-size="14.00">विशेषणम्</text>
</g>
<!-- Node4_1&#45;&gt;Node1_1 -->
<g id="edge3" class="edge">
<title>Node4_1&#45;&gt;Node1_1</title>
<path fill="none" stroke="black" d="M286.41,-229.22C268.37,-238.99 245.9,-250.42 225,-259 205.78,-266.89 184.09,-274.05 164.96,-279.81"/>
<polygon fill="black" stroke="black" points="288.33,-232.17 295.42,-224.29 284.96,-226.03 288.33,-232.17"/>
<text text-anchor="middle" x="294" y="-247.8" font-family="Times,serif" font-size="14.00">हेतुः</text>
</g>
<!-- Node6_2 -->
<g id="node5" class="node">
<title>Node6_2</title>
<ellipse fill="#40e0d0" stroke="#40e0d0" cx="322" cy="-121" rx="87.99" ry="18"/>
<text text-anchor="middle" x="322" y="-117.3" font-family="Times,serif" font-size="14.00">आत्मना(6.2)</text>
</g>
<!-- Node6_2&#45;&gt;Node4_1 -->
<g id="edge6" class="edge">
<title>Node6_2&#45;&gt;Node4_1</title>
<path fill="none" stroke="black" d="M322,-149.27C322,-162.58 322,-178.19 322,-189.82"/>
<polygon fill="black" stroke="black" points="325.5,-149.2 322,-139.2 318.5,-149.2 325.5,-149.2"/>
<text text-anchor="middle" x="379.5" y="-160.8" font-family="Times,serif" font-size="14.00">विशेषणम्</text>
</g>
<!-- Node9_1 -->
<g id="node6" class="node">
<title>Node9_1</title>
<ellipse fill="#40e0d0" stroke="#40e0d0" cx="799" cy="-34" rx="96.68" ry="18"/>
<text text-anchor="middle" x="799" y="-30.3" font-family="Times,serif" font-size="14.00">विविधैः(9.1)</text>
</g>
<!-- Node10_1 -->
<g id="node7" class="node">
<title>Node10_1</title>
<ellipse fill="#40e0d0" stroke="#40e0d0" cx="805" cy="-121" rx="102.88" ry="18"/>
<text text-anchor="middle" x="805" y="-117.3" font-family="Times,serif" font-size="14.00">वाक्यैः(10.1)</text>
</g>
<!-- Node9_1&#45;&gt;Node10_1 -->
<g id="edge9" class="edge">
<title>Node9_1&#45;&gt;Node10_1</title>
<path fill="none" stroke="black" d="M800.92,-62.27C801.86,-75.58 802.97,-91.19 803.79,-102.82"/>
<polygon fill="black" stroke="black" points="804.41,-61.93 800.21,-52.2 797.43,-62.42 804.41,-61.93"/>
<text text-anchor="middle" x="860.5" y="-73.8" font-family="Times,serif" font-size="14.00">विशेषणम्</text>
</g>
<!-- Node12_1 -->
<g id="node11" class="node">
<title>Node12_1</title>
<ellipse fill="#00bfff" stroke="#00bfff" cx="1123" cy="-208" rx="121.58" ry="18"/>
<text text-anchor="middle" x="1123" y="-204.3" font-family="Times,serif" font-size="14.00">उत्थापितः(12.1)</text>
</g>
<!-- Node10_1&#45;&gt;Node12_1 -->
<g id="edge10" class="edge">
<title>Node10_1&#45;&gt;Node12_1</title>
<path fill="none" stroke="black" d="M859.21,-140.65C889.29,-150.65 927.49,-162.78 962,-172 991.57,-179.9 1024.55,-187.31 1052.92,-193.26"/>
<polygon fill="black" stroke="black" points="859.93,-137.2 849.33,-137.35 857.71,-143.84 859.93,-137.2"/>
<text text-anchor="middle" x="998" y="-160.8" font-family="Times,serif" font-size="14.00">हेतुः</text>
</g>
<!-- Node2_1 -->
<g id="node8" class="node">
<title>Node2_1</title>
<ellipse fill="#ff99ff" stroke="#ff99ff" cx="736" cy="-208" rx="41.69" ry="18"/>
<text text-anchor="middle" x="736" y="-204.3" font-family="Times,serif" font-size="14.00">च(2.1)</text>
</g>
<!-- Node2_1&#45;&gt;Node1_1 -->
<g id="edge1" class="edge">
<title>Node2_1&#45;&gt;Node1_1</title>
<path fill="none" stroke="black" d="M704.87,-228.02C700.02,-230.35 694.97,-232.46 690,-234 601.68,-261.39 343.2,-280.36 204.1,-288.89"/>
<polygon fill="black" stroke="black" points="706.61,-231.06 713.86,-223.32 703.37,-224.85 706.61,-231.06"/>
<text text-anchor="middle" x="701.5" y="-247.8" font-family="Times,serif" font-size="14.00">सम्बन्धः</text>
</g>
<!-- Node6_1 -->
<g id="node9" class="node">
<title>Node6_1</title>
<ellipse fill="#ffff00" stroke="#ffff00" cx="322" cy="-34" rx="63.09" ry="18"/>
<text text-anchor="middle" x="322" y="-30.3" font-family="Times,serif" font-size="14.00">महा&#45;(6.1)</text>
</g>
<!-- Node6_1&#45;&gt;Node6_2 -->
<g id="edge5" class="edge">
<title>Node6_1&#45;&gt;Node6_2</title>
<path fill="none" stroke="black" d="M322,-62.27C322,-75.58 322,-91.19 322,-102.82"/>
<polygon fill="black" stroke="black" points="325.5,-62.2 322,-52.2 318.5,-62.2 325.5,-62.2"/>
<text text-anchor="middle" x="358" y="-73.8" font-family="Times,serif" font-size="14.00">समासः</text>
</g>
<!-- Node7_1 -->
<g id="node10" class="node">
<title>Node7_1</title>
<ellipse fill="#40e0d0" stroke="#40e0d0" cx="985" cy="-121" rx="59.59" ry="18"/>
<text text-anchor="middle" x="985" y="-117.3" font-family="Times,serif" font-size="14.00">मया(7.1)</text>
</g>
<!-- Node7_1&#45;&gt;Node12_1 -->
<g id="edge7" class="edge">
<title>Node7_1&#45;&gt;Node12_1</title>
<path fill="none" stroke="black" d="M1016.52,-143.43C1030.08,-152.46 1046.18,-162.96 1061,-172 1071.23,-178.25 1082.61,-184.78 1092.8,-190.49"/>
<polygon fill="black" stroke="black" points="1018.28,-140.39 1008.02,-137.73 1014.38,-146.21 1018.28,-140.39"/>
<text text-anchor="middle" x="1090" y="-160.8" font-family="Times,serif" font-size="14.00">कर्म</text>
</g>
<!-- Node8_1 -->
<g id="node12" class="node">
<title>Node8_1</title>
<ellipse fill="#ff99ff" stroke="#ff99ff" cx="1123" cy="-121" rx="59.59" ry="18"/>
<text text-anchor="middle" x="1123" y="-117.3" font-family="Times,serif" font-size="14.00">अपि(8.1)</text>
</g>
<!-- Node8_1&#45;&gt;Node12_1 -->
<g id="edge8" class="edge">
<title>Node8_1&#45;&gt;Node12_1</title>
<path fill="none" stroke="black" d="M1123,-149.27C1123,-162.58 1123,-178.19 1123,-189.82"/>
<polygon fill="black" stroke="black" points="1126.5,-149.2 1123,-139.2 1119.5,-149.2 1126.5,-149.2"/>
<text text-anchor="middle" x="1180.5" y="-160.8" font-family="Times,serif" font-size="14.00">सम्बन्धः</text>
</g>
<!-- Node11_1 -->
<g id="node13" class="node">
<title>Node11_1</title>
<ellipse fill="#ff99ff" stroke="#ff99ff" cx="1331" cy="-121" rx="130.78" ry="18"/>
<text text-anchor="middle" x="1331" y="-117.3" font-family="Times,serif" font-size="14.00">कृच्छ्रात्(11.1)</text>
</g>
<!-- Node11_1&#45;&gt;Node12_1 -->
<g id="edge11" class="edge">
<title>Node11_1&#45;&gt;Node12_1</title>
<path fill="none" stroke="black" d="M1295.92,-144.13C1279.91,-153.59 1260.43,-164.23 1242,-172 1223.15,-179.95 1201.9,-186.82 1182.63,-192.31"/>
<polygon fill="black" stroke="black" points="1298.15,-146.87 1304.92,-138.72 1294.55,-140.87 1298.15,-146.87"/>
<text text-anchor="middle" x="1329.5" y="-160.8" font-family="Times,serif" font-size="14.00">सम्बन्धः</text>
</g>
<!-- Node13_1 -->
<g id="node14" class="node">
<title>Node13_1</title>
<ellipse fill="#ff99ff" stroke="#ff99ff" cx="1555" cy="-121" rx="75.29" ry="18"/>
<text text-anchor="middle" x="1555" y="-117.3" font-family="Times,serif" font-size="14.00">पुनः(13.1)</text>
</g>
<!-- Node13_1&#45;&gt;Node12_1 -->
<g id="edge12" class="edge">
<title>Node13_1&#45;&gt;Node12_1</title>
<path fill="none" stroke="black" d="M1505.09,-139.58C1472.88,-150.33 1429.89,-163.59 1391,-172 1336.19,-183.85 1274.16,-192.26 1223.58,-197.86"/>
<polygon fill="black" stroke="black" points="1506.36,-142.84 1514.72,-136.33 1504.12,-136.21 1506.36,-142.84"/>
<text text-anchor="middle" x="1502.5" y="-160.8" font-family="Times,serif" font-size="14.00">सम्बन्धः</text>
</g>
</g>
</svg>
