<svg xmlns="http://www.w3.org/2000/svg" xmlns:xlink="http://www.w3.org/1999/xlink" width="1561pt" height="428" viewBox="0 0 1560.59 321"><g id="graph0" class="graph" transform="scale(1 1) rotate(0) translate(4 317)"><title>G</title><polygon fill="#fffacd" stroke="transparent" points="-4 4 -4 -317 1556.59 -317 1556.59 4 -4 4"/><g id="clust1" class="cluster"><title>cluster_1</title><polygon fill="#fffacd" stroke="#000" points="19.59 -8 19.59 -147 193.59 -147 193.59 -8 19.59 -8"/></g><g id="clust2" class="cluster"><title>cluster_2</title><polygon fill="#fffacd" stroke="#000" points="747.59 -95 747.59 -234 951.59 -234 951.59 -95 747.59 -95"/></g><g id="node1" class="node"><title>Node2_1</title><ellipse cx="97.59" cy="-34" fill="#87ceeb" stroke="#87ceeb" rx="69.59" ry="18"/><text x="97.59" y="-30.3" font-family="Times,serif" font-size="14" text-anchor="middle">यस्य(2.1)</text></g><g id="node2" class="node"><title>Node3_1</title><ellipse cx="106.59" cy="-121" fill="#87ceeb" stroke="#87ceeb" rx="78.79" ry="18"/><text x="106.59" y="-117.3" font-family="Times,serif" font-size="14" text-anchor="middle">हरिणः(3.1)</text></g><g id="edge2" class="edge"><title>Node2_1-&gt;Node3_1</title><path fill="none" stroke="#000" d="M100.48,-62.27C101.89,-75.58 103.54,-91.19 104.77,-102.82"/><polygon fill="#000" stroke="#000" points="103.95 -61.78 99.41 -52.2 96.98 -62.51 103.95 -61.78"/><text x="160.09" y="-73.8" font-family="Times,serif" font-size="14" text-anchor="middle">विशेषणम्</text></g><g id="node7" class="node"><title>Node4_1</title><ellipse cx="106.59" cy="-208" fill="#c6e2eb" stroke="#c6e2eb" rx="106.68" ry="18"/><text x="106.59" y="-204.3" font-family="Times,serif" font-size="14" text-anchor="middle">क्षेत्रे(4.1)</text></g><g id="edge3" class="edge"><title>Node3_1-&gt;Node4_1</title><path fill="none" stroke="#000" d="M106.59,-149.27C106.59,-162.58 106.59,-178.19 106.59,-189.82"/><polygon fill="#000" stroke="#000" points="110.09 -149.2 106.59 -139.2 103.09 -149.2 110.09 -149.2"/><text x="199.59" y="-160.8" font-family="Times,serif" font-size="14" text-anchor="middle">षष्ठीसम्बन्धः</text></g><g id="node3" class="node"><title>Node9_1</title><ellipse cx="834.59" cy="-121" fill="#40e0d0" stroke="#40e0d0" rx="78.79" ry="18"/><text x="834.59" y="-117.3" font-family="Times,serif" font-size="14" text-anchor="middle">स्वेन(9.1)</text></g><g id="node4" class="node"><title>Node11_1</title><ellipse cx="849.59" cy="-208" fill="#40e0d0" stroke="#40e0d0" rx="93.68" ry="18"/><text x="849.59" y="-204.3" font-family="Times,serif" font-size="14" text-anchor="middle">कर्मणा(11.1)</text></g><g id="edge9" class="edge"><title>Node9_1-&gt;Node11_1</title><path fill="none" stroke="#000" d="M839.4,-149.27C841.75,-162.58 844.51,-178.19 846.56,-189.82"/><polygon fill="#000" stroke="#000" points="842.81 -148.44 837.63 -139.2 835.92 -149.66 842.81 -148.44"/><text x="900.09" y="-160.8" font-family="Times,serif" font-size="14" text-anchor="middle">विशेषणम्</text></g><g id="node10" class="node"><title>Node14_1</title><ellipse cx="1030.59" cy="-295" fill="#00bfff" stroke="#00bfff" rx="112.38" ry="18"/><text x="1030.59" y="-291.3" font-family="Times,serif" font-size="14" text-anchor="middle">विख्यातः(14.1)</text></g><g id="edge11" class="edge"><title>Node11_1-&gt;Node14_1</title><path fill="none" stroke="#000" d="M891.71,-229.21C910.87,-238.36 933.85,-249.29 954.59,-259 967.88,-265.22 982.51,-271.98 995.36,-277.89"/><polygon fill="#000" stroke="#000" points="893.17 -226.03 882.64 -224.87 890.15 -232.34 893.17 -226.03"/><text x="990.59" y="-247.8" font-family="Times,serif" font-size="14" text-anchor="middle">हेतुः</text></g><g id="node5" class="node"><title>Node1_1</title><ellipse cx="318.59" cy="-208" fill="#6fffc3" stroke="#6fffc3" rx="87.99" ry="18"/><text x="318.59" y="-204.3" font-family="Times,serif" font-size="14" text-anchor="middle">मैथिलि(1.1)</text></g><g id="node6" class="node"><title>Node7_1</title><ellipse cx="410.59" cy="-295" fill="#00bfff" stroke="#00bfff" rx="69.59" ry="18"/><text x="410.59" y="-291.3" font-family="Times,serif" font-size="14" text-anchor="middle">जातः(7.1)</text></g><g id="edge1" class="edge"><title>Node1_1-&gt;Node7_1</title><path fill="none" stroke="#000" d="M332.53,-234.87C337.79,-243.19 344.29,-252.04 351.59,-259 359.61,-266.64 369.59,-273.35 379.04,-278.8"/><polygon fill="#000" stroke="#000" points="335.46 -232.95 327.32 -226.16 329.45 -236.54 335.46 -232.95"/><text x="416.09" y="-247.8" font-family="Times,serif" font-size="14" text-anchor="middle">सम्बोध्यः</text></g><g id="edge4" class="edge"><title>Node4_1-&gt;Node7_1</title><path fill="none" stroke="#000" d="M146.98,-229.65C168.15,-239.75 194.77,-251.35 219.59,-259 261.96,-272.05 311.19,-280.93 349.07,-286.48"/><polygon fill="#000" stroke="#000" points="148.49 -226.49 137.97 -225.28 145.44 -232.79 148.49 -226.49"/><text x="277.09" y="-247.8" font-family="Times,serif" font-size="14" text-anchor="middle">अधिकरणम्</text></g><g id="node8" class="node"><title>Node5_1</title><ellipse cx="502.59" cy="-208" fill="#40e0d0" stroke="#40e0d0" rx="78.79" ry="18"/><text x="502.59" y="-204.3" font-family="Times,serif" font-size="14" text-anchor="middle">वातेन(5.1)</text></g><g id="edge5" class="edge"><title>Node5_1-&gt;Node7_1</title><path fill="none" stroke="#000" d="M494.68,-236.01C491.32,-244.12 486.73,-252.55 480.59,-259 472.16,-267.86 461,-274.81 450.08,-280.11"/><polygon fill="#000" stroke="#000" points="498.03 -237.04 498.18 -226.45 491.46 -234.63 498.03 -237.04"/><text x="526.59" y="-247.8" font-family="Times,serif" font-size="14" text-anchor="middle">हेतुः</text></g><g id="node9" class="node"><title>Node6_1</title><ellipse cx="668.59" cy="-208" fill="#00bfff" stroke="#00bfff" rx="69.59" ry="18"/><text x="668.59" y="-204.3" font-family="Times,serif" font-size="14" text-anchor="middle">अहम्(6.1)</text></g><g id="edge6" class="edge"><title>Node6_1-&gt;Node7_1</title><path fill="none" stroke="#000" d="M632.27,-229.4C613.19,-239.45 589.13,-251.07 566.59,-259 534.52,-270.28 497.42,-278.78 467.45,-284.58"/><polygon fill="#000" stroke="#000" points="634.05 -232.42 641.21 -224.62 630.75 -226.25 634.05 -232.42"/><text x="636.59" y="-247.8" font-family="Times,serif" font-size="14" text-anchor="middle">कर्ता</text></g><g id="edge7" class="edge"><title>Node6_1-&gt;Node14_1</title><path fill="none" stroke="#000" stroke-dasharray="1 5" d="M717.65,-226.01C726.26,-228.8 735.16,-231.58 743.59,-234 814.65,-254.43 897.47,-270.99 955.82,-281.5"/><polygon fill="#000" stroke="#000" points="718.69 -222.66 708.1 -222.86 716.5 -229.31 718.69 -222.66"/><text x="872.59" y="-247.8" font-family="Times,serif" font-size="14" text-anchor="middle">कर्ता</text></g><g id="node11" class="node"><title>Node8_1</title><ellipse cx="1030.59" cy="-208" fill="#c6e2eb" stroke="#c6e2eb" rx="69.59" ry="18"/><text x="1030.59" y="-204.3" font-family="Times,serif" font-size="14" text-anchor="middle">लोके(8.1)</text></g><g id="edge8" class="edge"><title>Node8_1-&gt;Node14_1</title><path fill="none" stroke="#000" d="M1030.59,-236.27C1030.59,-249.58 1030.59,-265.19 1030.59,-276.82"/><polygon fill="#000" stroke="#000" points="1034.09 -236.2 1030.59 -226.2 1027.09 -236.2 1034.09 -236.2"/><text x="1088.09" y="-247.8" font-family="Times,serif" font-size="14" text-anchor="middle">अधिकरणम्</text></g><g id="node12" class="node"><title>Node10_1</title><ellipse cx="1016.59" cy="-121" fill="#f9f" stroke="#f9f" rx="56.59" ry="18"/><text x="1016.59" y="-117.3" font-family="Times,serif" font-size="14" text-anchor="middle">एव(10.1)</text></g><g id="edge10" class="edge"><title>Node10_1-&gt;Node11_1</title><path fill="none" stroke="#000" d="M995.06,-145.64C985.55,-154.92 973.78,-165.01 961.59,-172 945.24,-181.37 926.08,-188.54 908.28,-193.87"/><polygon fill="#000" stroke="#000" points="997.63 -148.01 1002.16 -138.43 992.64 -143.1 997.63 -148.01"/><text x="1038.09" y="-160.8" font-family="Times,serif" font-size="14" text-anchor="middle">सम्बन्धः</text></g><g id="node13" class="node"><title>Node12_1</title><ellipse cx="1220.59" cy="-208" fill="#00bfff" stroke="#00bfff" rx="102.88" ry="18"/><text x="1220.59" y="-204.3" font-family="Times,serif" font-size="14" text-anchor="middle">हनूमान्(12.1)</text></g><g id="edge12" class="edge"><title>Node12_1-&gt;Node14_1</title><path fill="none" stroke="#000" d="M1192.39,-232.08C1179.87,-241.45 1164.59,-251.76 1149.59,-259 1131.75,-267.61 1111.36,-274.56 1092.56,-279.92"/><polygon fill="#000" stroke="#000" points="1194.79 -234.65 1200.59 -225.78 1190.52 -229.1 1194.79 -234.65"/><text x="1295.09" y="-247.8" font-family="Times,serif" font-size="14" text-anchor="middle">कर्तृसमानाधिकरणम्</text></g><g id="node14" class="node"><title>Node13_1</title><ellipse cx="1460.59" cy="-208" fill="#f9f" stroke="#f9f" rx="65.79" ry="18"/><text x="1460.59" y="-204.3" font-family="Times,serif" font-size="14" text-anchor="middle">इति(13.1)</text></g><g id="edge13" class="edge"><title>Node13_1-&gt;Node14_1</title><path fill="none" stroke="#000" d="M1446.2,-234.62C1439.63,-243.88 1430.98,-253.42 1420.59,-259 1374.17,-283.92 1240.99,-291.5 1143.13,-293.59"/><polygon fill="#000" stroke="#000" points="1449.31 -236.25 1451.84 -225.96 1443.45 -232.42 1449.31 -236.25"/><text x="1495.09" y="-247.8" font-family="Times,serif" font-size="14" text-anchor="middle">सम्बन्धः</text></g></g></svg>