<?xml version="1.0" encoding="UTF-8" standalone="no"?>
<!DOCTYPE svg PUBLIC "-//W3C//DTD SVG 1.1//EN"
 "http://www.w3.org/Graphics/SVG/1.1/DTD/svg11.dtd">
<!-- Generated by graphviz version 2.43.0 (0)
 -->
<!-- Title: G Pages: 1 -->
<svg width="1724pt" height="392pt"
 viewBox="0.00 0.00 1723.54 392.00" xmlns="http://www.w3.org/2000/svg" xmlns:xlink="http://www.w3.org/1999/xlink">
<g id="graph0" class="graph" transform="scale(1 1) rotate(0) translate(4 388)">
<title>G</title>
<polygon fill="#fffacd" stroke="transparent" points="-4,4 -4,-388 1719.54,-388 1719.54,4 -4,4"/>
<g id="clust1" class="cluster">
<title>cluster_1</title>
<polygon fill="#fffacd" stroke="black" points="666.54,-166 666.54,-305 1019.54,-305 1019.54,-166 666.54,-166"/>
</g>
<!-- Node11_1 -->
<g id="node1" class="node">
<title>Node11_1</title>
<ellipse fill="#93db70" stroke="#93db70" cx="936.54" cy="-192" rx="75.29" ry="18"/>
<text text-anchor="middle" x="936.54" y="-188.3" font-family="Times,serif" font-size="14.00">इदम्(11.1)</text>
</g>
<!-- Node13_1 -->
<g id="node2" class="node">
<title>Node13_1</title>
<ellipse fill="#93db70" stroke="#93db70" cx="758.54" cy="-279" rx="65.79" ry="18"/>
<text text-anchor="middle" x="758.54" y="-275.3" font-family="Times,serif" font-size="14.00">यशः(13.1)</text>
</g>
<!-- Node11_1&#45;&gt;Node13_1 -->
<g id="edge11" class="edge">
<title>Node11_1&#45;&gt;Node13_1</title>
<path fill="none" stroke="black" d="M911.93,-216.52C901.13,-225.82 887.89,-235.95 874.54,-243 854.08,-253.81 829.79,-261.79 808.73,-267.38"/>
<polygon fill="black" stroke="black" points="914.52,-218.9 919.67,-209.63 909.87,-213.67 914.52,-218.9"/>
<text text-anchor="middle" x="954.04" y="-231.8" font-family="Times,serif" font-size="14.00">विशेषणम्</text>
</g>
<!-- Node14_1 -->
<g id="node5" class="node">
<title>Node14_1</title>
<ellipse fill="#ff1975" stroke="#ff1975" cx="420.54" cy="-366" rx="149.47" ry="18"/>
<text text-anchor="middle" x="420.54" y="-362.3" font-family="Times,serif" font-size="14.00">प्राप्स्यामि(14.1)</text>
</g>
<!-- Node13_1&#45;&gt;Node14_1 -->
<g id="edge15" class="edge">
<title>Node13_1&#45;&gt;Node14_1</title>
<path fill="none" stroke="black" d="M721.21,-299.87C700.12,-310.31 672.96,-322.47 647.54,-330 610.55,-340.96 569.1,-348.64 531.84,-353.94"/>
<polygon fill="black" stroke="black" points="722.79,-302.99 730.15,-295.37 719.65,-296.74 722.79,-302.99"/>
<text text-anchor="middle" x="716.54" y="-318.8" font-family="Times,serif" font-size="14.00">कर्म</text>
</g>
<!-- Node12_3 -->
<g id="node3" class="node">
<title>Node12_3</title>
<ellipse fill="#93db70" stroke="#93db70" cx="758.54" cy="-192" rx="84.49" ry="18"/>
<text text-anchor="middle" x="758.54" y="-188.3" font-family="Times,serif" font-size="14.00">कृतम्(12.3)</text>
</g>
<!-- Node12_3&#45;&gt;Node13_1 -->
<g id="edge14" class="edge">
<title>Node12_3&#45;&gt;Node13_1</title>
<path fill="none" stroke="black" d="M758.54,-220.27C758.54,-233.58 758.54,-249.19 758.54,-260.82"/>
<polygon fill="black" stroke="black" points="762.04,-220.2 758.54,-210.2 755.04,-220.2 762.04,-220.2"/>
<text text-anchor="middle" x="816.04" y="-231.8" font-family="Times,serif" font-size="14.00">विशेषणम्</text>
</g>
<!-- Node1_1 -->
<g id="node4" class="node">
<title>Node1_1</title>
<ellipse fill="#6fffc3" stroke="#6fffc3" cx="69.54" cy="-279" rx="69.59" ry="18"/>
<text text-anchor="middle" x="69.54" y="-275.3" font-family="Times,serif" font-size="14.00">देवि(1.1)</text>
</g>
<!-- Node1_1&#45;&gt;Node14_1 -->
<g id="edge1" class="edge">
<title>Node1_1&#45;&gt;Node14_1</title>
<path fill="none" stroke="black" d="M107.21,-300.33C127.99,-310.71 154.58,-322.68 179.54,-330 219.2,-341.64 263.71,-349.49 303.58,-354.75"/>
<polygon fill="black" stroke="black" points="108.59,-297.11 98.1,-295.69 105.42,-303.34 108.59,-297.11"/>
<text text-anchor="middle" x="244.04" y="-318.8" font-family="Times,serif" font-size="14.00">सम्बोध्यः</text>
</g>
<!-- Node2_1 -->
<g id="node6" class="node">
<title>Node2_1</title>
<ellipse fill="#ff99ff" stroke="#ff99ff" cx="986.54" cy="-18" rx="50.89" ry="18"/>
<text text-anchor="middle" x="986.54" y="-14.3" font-family="Times,serif" font-size="14.00">इह(2.1)</text>
</g>
<!-- Node4_1 -->
<g id="node7" class="node">
<title>Node4_1</title>
<ellipse fill="#00bfff" stroke="#00bfff" cx="1166.54" cy="-105" rx="96.68" ry="18"/>
<text text-anchor="middle" x="1166.54" y="-101.3" font-family="Times,serif" font-size="14.00">लङ्घनम्(4.1)</text>
</g>
<!-- Node2_1&#45;&gt;Node4_1 -->
<g id="edge2" class="edge">
<title>Node2_1&#45;&gt;Node4_1</title>
<path fill="none" stroke="black" d="M991.46,-45.91C994.27,-54.39 998.67,-63.08 1005.54,-69 1018.44,-80.1 1054.14,-88.45 1088.65,-94.2"/>
<polygon fill="black" stroke="black" points="994.83,-44.97 988.85,-36.23 988.08,-46.79 994.83,-44.97"/>
<text text-anchor="middle" x="1084.04" y="-57.8" font-family="Times,serif" font-size="14.00">देशाधिकरणम्</text>
</g>
<!-- Node16_1 -->
<g id="node9" class="node">
<title>Node16_1</title>
<ellipse fill="#ff1975" stroke="#ff1975" cx="1322.54" cy="-192" rx="90.98" ry="18"/>
<text text-anchor="middle" x="1322.54" y="-188.3" font-family="Times,serif" font-size="14.00">[भवेत्](16.1)</text>
</g>
<!-- Node4_1&#45;&gt;Node16_1 -->
<g id="edge4" class="edge">
<title>Node4_1&#45;&gt;Node16_1</title>
<path fill="none" stroke="black" d="M1199.72,-128.06C1213.9,-137.14 1230.79,-147.49 1246.54,-156 1259.2,-162.83 1273.43,-169.61 1286.13,-175.36"/>
<polygon fill="black" stroke="black" points="1201.58,-125.09 1191.28,-122.6 1197.78,-130.97 1201.58,-125.09"/>
<text text-anchor="middle" x="1282.54" y="-144.8" font-family="Times,serif" font-size="14.00">कर्ता</text>
</g>
<!-- Node3_1 -->
<g id="node8" class="node">
<title>Node3_1</title>
<ellipse fill="#87ceeb" stroke="#87ceeb" cx="1166.54" cy="-18" rx="96.68" ry="18"/>
<text text-anchor="middle" x="1166.54" y="-14.3" font-family="Times,serif" font-size="14.00">सागरस्य(3.1)</text>
</g>
<!-- Node3_1&#45;&gt;Node4_1 -->
<g id="edge3" class="edge">
<title>Node3_1&#45;&gt;Node4_1</title>
<path fill="none" stroke="black" d="M1166.54,-46.27C1166.54,-59.58 1166.54,-75.19 1166.54,-86.82"/>
<polygon fill="black" stroke="black" points="1170.04,-46.2 1166.54,-36.2 1163.04,-46.2 1170.04,-46.2"/>
<text text-anchor="middle" x="1195.54" y="-57.8" font-family="Times,serif" font-size="14.00">कर्म</text>
</g>
<!-- Node5_1 -->
<g id="node10" class="node">
<title>Node5_1</title>
<ellipse fill="#87ceeb" stroke="#87ceeb" cx="1332.54" cy="-18" rx="50.89" ry="18"/>
<text text-anchor="middle" x="1332.54" y="-14.3" font-family="Times,serif" font-size="14.00">मम(5.1)</text>
</g>
<!-- Node5_1&#45;&gt;Node4_1 -->
<g id="edge5" class="edge">
<title>Node5_1&#45;&gt;Node4_1</title>
<path fill="none" stroke="black" d="M1295.68,-37.88C1266.4,-52.87 1225.9,-73.61 1198.11,-87.84"/>
<polygon fill="black" stroke="black" points="1297.45,-40.9 1304.76,-33.23 1294.26,-34.67 1297.45,-40.9"/>
<text text-anchor="middle" x="1294.54" y="-57.8" font-family="Times,serif" font-size="14.00">कर्ता</text>
</g>
<!-- Node6_1 -->
<g id="node11" class="node">
<title>Node6_1</title>
<ellipse fill="#ff99ff" stroke="#ff99ff" cx="1322.54" cy="-105" rx="41.69" ry="18"/>
<text text-anchor="middle" x="1322.54" y="-101.3" font-family="Times,serif" font-size="14.00">न(6.1)</text>
</g>
<!-- Node6_1&#45;&gt;Node16_1 -->
<g id="edge6" class="edge">
<title>Node6_1&#45;&gt;Node16_1</title>
<path fill="none" stroke="black" d="M1322.54,-133.27C1322.54,-146.58 1322.54,-162.19 1322.54,-173.82"/>
<polygon fill="black" stroke="black" points="1326.04,-133.2 1322.54,-123.2 1319.04,-133.2 1326.04,-133.2"/>
<text text-anchor="middle" x="1387.04" y="-144.8" font-family="Times,serif" font-size="14.00">प्रतिषेधः</text>
</g>
<!-- Node7_1 -->
<g id="node12" class="node">
<title>Node7_1</title>
<ellipse fill="#00bfff" stroke="#00bfff" cx="1488.54" cy="-105" rx="106.68" ry="18"/>
<text text-anchor="middle" x="1488.54" y="-101.3" font-family="Times,serif" font-size="14.00">व्यर्थम्(7.1)</text>
</g>
<!-- Node7_1&#45;&gt;Node16_1 -->
<g id="edge7" class="edge">
<title>Node7_1&#45;&gt;Node16_1</title>
<path fill="none" stroke="black" d="M1476.28,-132.07C1471.01,-140.81 1464.07,-149.88 1455.54,-156 1438.38,-168.32 1417.18,-176.3 1396.8,-181.48"/>
<polygon fill="black" stroke="black" points="1479.39,-133.67 1481.16,-123.22 1473.27,-130.29 1479.39,-133.67"/>
<text text-anchor="middle" x="1592.04" y="-144.8" font-family="Times,serif" font-size="14.00">कर्तृ&#45;समानाधिकरणम्</text>
</g>
<!-- Node8_1 -->
<g id="node13" class="node">
<title>Node8_1</title>
<ellipse fill="#00bfff" stroke="#00bfff" cx="226.54" cy="-279" rx="69.59" ry="18"/>
<text text-anchor="middle" x="226.54" y="-275.3" font-family="Times,serif" font-size="14.00">अहम्(8.1)</text>
</g>
<!-- Node8_1&#45;&gt;Node14_1 -->
<g id="edge8" class="edge">
<title>Node8_1&#45;&gt;Node14_1</title>
<path fill="none" stroke="black" d="M269.54,-298.84C303.47,-313.71 350.35,-334.24 382.83,-348.48"/>
<polygon fill="black" stroke="black" points="270.9,-295.61 260.34,-294.81 268.09,-302.02 270.9,-295.61"/>
<text text-anchor="middle" x="371.54" y="-318.8" font-family="Times,serif" font-size="14.00">कर्ता</text>
</g>
<!-- Node9_1 -->
<g id="node14" class="node">
<title>Node9_1</title>
<ellipse fill="#40e0d0" stroke="#40e0d0" cx="420.54" cy="-279" rx="106.68" ry="18"/>
<text text-anchor="middle" x="420.54" y="-275.3" font-family="Times,serif" font-size="14.00">दिष्ट्या(9.1)</text>
</g>
<!-- Node9_1&#45;&gt;Node14_1 -->
<g id="edge9" class="edge">
<title>Node9_1&#45;&gt;Node14_1</title>
<path fill="none" stroke="black" d="M420.54,-307.27C420.54,-320.58 420.54,-336.19 420.54,-347.82"/>
<polygon fill="black" stroke="black" points="424.04,-307.2 420.54,-297.2 417.04,-307.2 424.04,-307.2"/>
<text text-anchor="middle" x="456.54" y="-318.8" font-family="Times,serif" font-size="14.00">करणम्</text>
</g>
<!-- Node10_1 -->
<g id="node15" class="node">
<title>Node10_1</title>
<ellipse fill="#ff99ff" stroke="#ff99ff" cx="601.54" cy="-279" rx="56.59" ry="18"/>
<text text-anchor="middle" x="601.54" y="-275.3" font-family="Times,serif" font-size="14.00">हि(10.1)</text>
</g>
<!-- Node10_1&#45;&gt;Node14_1 -->
<g id="edge10" class="edge">
<title>Node10_1&#45;&gt;Node14_1</title>
<path fill="none" stroke="black" d="M562.44,-298.77C542.71,-308.2 518.39,-319.77 496.54,-330 483.65,-336.04 469.49,-342.58 456.93,-348.36"/>
<polygon fill="black" stroke="black" points="564.21,-301.8 571.72,-294.33 561.19,-295.49 564.21,-301.8"/>
<text text-anchor="middle" x="586.04" y="-318.8" font-family="Times,serif" font-size="14.00">सम्बन्धः</text>
</g>
<!-- Node12_1 -->
<g id="node16" class="node">
<title>Node12_1</title>
<ellipse fill="#ffff00" stroke="#ffff00" cx="758.54" cy="-18" rx="87.18" ry="18"/>
<text text-anchor="middle" x="758.54" y="-14.3" font-family="Times,serif" font-size="14.00">त्वत्&#45;(12.1)</text>
</g>
<!-- Node12_2 -->
<g id="node17" class="node">
<title>Node12_2</title>
<ellipse fill="#ffff00" stroke="#ffff00" cx="758.54" cy="-105" rx="87.18" ry="18"/>
<text text-anchor="middle" x="758.54" y="-101.3" font-family="Times,serif" font-size="14.00">दर्शन&#45;(12.2)</text>
</g>
<!-- Node12_1&#45;&gt;Node12_2 -->
<g id="edge12" class="edge">
<title>Node12_1&#45;&gt;Node12_2</title>
<path fill="none" stroke="black" d="M758.54,-46.27C758.54,-59.58 758.54,-75.19 758.54,-86.82"/>
<polygon fill="black" stroke="black" points="762.04,-46.2 758.54,-36.2 755.04,-46.2 762.04,-46.2"/>
<text text-anchor="middle" x="861.04" y="-57.8" font-family="Times,serif" font-size="14.00">षष्ठी&#45;तत्पुरुषः</text>
</g>
<!-- Node12_2&#45;&gt;Node12_3 -->
<g id="edge13" class="edge">
<title>Node12_2&#45;&gt;Node12_3</title>
<path fill="none" stroke="black" d="M758.54,-133.27C758.54,-146.58 758.54,-162.19 758.54,-173.82"/>
<polygon fill="black" stroke="black" points="762.04,-133.2 758.54,-123.2 755.04,-133.2 762.04,-133.2"/>
<text text-anchor="middle" x="868.04" y="-144.8" font-family="Times,serif" font-size="14.00">तृतीया&#45;तत्पुरुषः</text>
</g>
</g>
</svg>
