<?xml version="1.0" encoding="UTF-8" standalone="no"?>
<!DOCTYPE svg PUBLIC "-//W3C//DTD SVG 1.1//EN"
 "http://www.w3.org/Graphics/SVG/1.1/DTD/svg11.dtd">
<!-- Generated by graphviz version 2.43.0 (0)
 -->
<!-- Title: G Pages: 1 -->
<svg width="1380pt" height="479pt"
 viewBox="0.00 0.00 1379.83 479.00" xmlns="http://www.w3.org/2000/svg" xmlns:xlink="http://www.w3.org/1999/xlink">
<g id="graph0" class="graph" transform="scale(1 1) rotate(0) translate(4 475)">
<title>G</title>
<polygon fill="#fffacd" stroke="transparent" points="-4,4 -4,-475 1375.83,-475 1375.83,4 -4,4"/>
<g id="clust1" class="cluster">
<title>cluster_1</title>
<polygon fill="#fffacd" stroke="black" points="989.69,-166 989.69,-305 1219.69,-305 1219.69,-166 989.69,-166"/>
</g>
<!-- Node5_3 -->
<g id="node1" class="node">
<title>Node5_3</title>
<ellipse fill="#00bfff" stroke="#00bfff" cx="1082.69" cy="-192" rx="69.59" ry="18"/>
<text text-anchor="middle" x="1082.69" y="-188.3" font-family="Times,serif" font-size="14.00">नासः(5.3)</text>
</g>
<!-- Node7_2 -->
<g id="node2" class="node">
<title>Node7_2</title>
<ellipse fill="#00bfff" stroke="#00bfff" cx="1104.69" cy="-279" rx="106.68" ry="18"/>
<text text-anchor="middle" x="1104.69" y="-275.3" font-family="Times,serif" font-size="14.00">स्निग्धः(7.2)</text>
</g>
<!-- Node5_3&#45;&gt;Node7_2 -->
<g id="edge11" class="edge">
<title>Node5_3&#45;&gt;Node7_2</title>
<path fill="none" stroke="black" d="M1089.75,-220.27C1093.19,-233.58 1097.23,-249.19 1100.24,-260.82"/>
<polygon fill="black" stroke="black" points="1093.04,-219.01 1087.14,-210.2 1086.26,-220.76 1093.04,-219.01"/>
<text text-anchor="middle" x="1159.19" y="-231.8" font-family="Times,serif" font-size="14.00">समुच्चितः</text>
</g>
<!-- Node1_1 -->
<g id="node3" class="node">
<title>Node1_1</title>
<ellipse fill="#00bfff" stroke="#00bfff" cx="560.69" cy="-366" rx="57.69" ry="18"/>
<text text-anchor="middle" x="560.69" y="-362.3" font-family="Times,serif" font-size="14.00">[सः](1.1)</text>
</g>
<!-- Node7_2&#45;&gt;Node1_1 -->
<g id="edge14" class="edge">
<title>Node7_2&#45;&gt;Node1_1</title>
<path fill="none" stroke="black" d="M1056.79,-299.42C1028.2,-310.18 990.91,-322.81 956.69,-330 838.15,-354.89 696.03,-362.1 618.37,-364.18"/>
<polygon fill="black" stroke="black" points="1058.04,-302.69 1066.13,-295.85 1055.54,-296.15 1058.04,-302.69"/>
<text text-anchor="middle" x="1106.19" y="-318.8" font-family="Times,serif" font-size="14.00">विधेय_विशेषणम्</text>
</g>
<!-- Node9_1 -->
<g id="node4" class="node">
<title>Node9_1</title>
<ellipse fill="#ff1975" stroke="#ff1975" cx="560.69" cy="-453" rx="85.29" ry="18"/>
<text text-anchor="middle" x="560.69" y="-449.3" font-family="Times,serif" font-size="14.00">[अस्ति](9.1)</text>
</g>
<!-- Node1_1&#45;&gt;Node9_1 -->
<g id="edge1" class="edge">
<title>Node1_1&#45;&gt;Node9_1</title>
<path fill="none" stroke="black" d="M560.69,-394.27C560.69,-407.58 560.69,-423.19 560.69,-434.82"/>
<polygon fill="black" stroke="black" points="564.19,-394.2 560.69,-384.2 557.19,-394.2 564.19,-394.2"/>
<text text-anchor="middle" x="596.69" y="-405.8" font-family="Times,serif" font-size="14.00">कर्ता</text>
</g>
<!-- Node2_1 -->
<g id="node5" class="node">
<title>Node2_1</title>
<ellipse fill="#ffff00" stroke="#ffff00" cx="115.69" cy="-105" rx="100.18" ry="18"/>
<text text-anchor="middle" x="115.69" y="-101.3" font-family="Times,serif" font-size="14.00">चतुर्दश&#45;(2.1)</text>
</g>
<!-- Node2_2 -->
<g id="node6" class="node">
<title>Node2_2</title>
<ellipse fill="#ffff00" stroke="#ffff00" cx="115.69" cy="-192" rx="53.89" ry="18"/>
<text text-anchor="middle" x="115.69" y="-188.3" font-family="Times,serif" font-size="14.00">सम&#45;(2.2)</text>
</g>
<!-- Node2_1&#45;&gt;Node2_2 -->
<g id="edge2" class="edge">
<title>Node2_1&#45;&gt;Node2_2</title>
<path fill="none" stroke="black" d="M115.69,-133.27C115.69,-146.58 115.69,-162.19 115.69,-173.82"/>
<polygon fill="black" stroke="black" points="119.19,-133.2 115.69,-123.2 112.19,-133.2 119.19,-133.2"/>
<text text-anchor="middle" x="151.69" y="-144.8" font-family="Times,serif" font-size="14.00">समासः</text>
</g>
<!-- Node2_3 -->
<g id="node7" class="node">
<title>Node2_3</title>
<ellipse fill="#00bfff" stroke="#00bfff" cx="115.69" cy="-279" rx="115.88" ry="18"/>
<text text-anchor="middle" x="115.69" y="-275.3" font-family="Times,serif" font-size="14.00">द्वन्द्वः(2.3)</text>
</g>
<!-- Node2_2&#45;&gt;Node2_3 -->
<g id="edge3" class="edge">
<title>Node2_2&#45;&gt;Node2_3</title>
<path fill="none" stroke="black" d="M115.69,-220.27C115.69,-233.58 115.69,-249.19 115.69,-260.82"/>
<polygon fill="black" stroke="black" points="119.19,-220.2 115.69,-210.2 112.19,-220.2 119.19,-220.2"/>
<text text-anchor="middle" x="151.69" y="-231.8" font-family="Times,serif" font-size="14.00">समासः</text>
</g>
<!-- Node2_3&#45;&gt;Node1_1 -->
<g id="edge4" class="edge">
<title>Node2_3&#45;&gt;Node1_1</title>
<path fill="none" stroke="black" d="M131.8,-305.37C139.12,-314.73 148.63,-324.41 159.69,-330 218.24,-359.6 406.59,-364.61 502.87,-365.17"/>
<polygon fill="black" stroke="black" points="134.42,-303.03 125.71,-297 128.75,-307.14 134.42,-303.03"/>
<text text-anchor="middle" x="256.19" y="-318.8" font-family="Times,serif" font-size="14.00">विधेय_विशेषणम्</text>
</g>
<!-- Node3_1 -->
<g id="node8" class="node">
<title>Node3_1</title>
<ellipse fill="#ffff00" stroke="#ffff00" cx="355.69" cy="-192" rx="72.29" ry="18"/>
<text text-anchor="middle" x="355.69" y="-188.3" font-family="Times,serif" font-size="14.00">चतुः&#45;(3.1)</text>
</g>
<!-- Node3_2 -->
<g id="node9" class="node">
<title>Node3_2</title>
<ellipse fill="#00bfff" stroke="#00bfff" cx="355.69" cy="-279" rx="106.68" ry="18"/>
<text text-anchor="middle" x="355.69" y="-275.3" font-family="Times,serif" font-size="14.00">दंष्ट्रः(3.2)</text>
</g>
<!-- Node3_1&#45;&gt;Node3_2 -->
<g id="edge5" class="edge">
<title>Node3_1&#45;&gt;Node3_2</title>
<path fill="none" stroke="black" d="M355.69,-220.27C355.69,-233.58 355.69,-249.19 355.69,-260.82"/>
<polygon fill="black" stroke="black" points="359.19,-220.2 355.69,-210.2 352.19,-220.2 359.19,-220.2"/>
<text text-anchor="middle" x="391.69" y="-231.8" font-family="Times,serif" font-size="14.00">समासः</text>
</g>
<!-- Node3_2&#45;&gt;Node1_1 -->
<g id="edge6" class="edge">
<title>Node3_2&#45;&gt;Node1_1</title>
<path fill="none" stroke="black" d="M354.24,-307.22C355.19,-315.51 357.8,-324 363.69,-330 382.87,-349.51 453.01,-358.26 504.16,-362.11"/>
<polygon fill="black" stroke="black" points="357.72,-306.88 353.79,-297.04 350.73,-307.18 357.72,-306.88"/>
<text text-anchor="middle" x="460.19" y="-318.8" font-family="Times,serif" font-size="14.00">विधेय_विशेषणम्</text>
</g>
<!-- Node4_1 -->
<g id="node10" class="node">
<title>Node4_1</title>
<ellipse fill="#ffff00" stroke="#ffff00" cx="560.69" cy="-192" rx="72.29" ry="18"/>
<text text-anchor="middle" x="560.69" y="-188.3" font-family="Times,serif" font-size="14.00">चतुः&#45;(4.1)</text>
</g>
<!-- Node4_2 -->
<g id="node11" class="node">
<title>Node4_2</title>
<ellipse fill="#00bfff" stroke="#00bfff" cx="560.69" cy="-279" rx="69.59" ry="18"/>
<text text-anchor="middle" x="560.69" y="-275.3" font-family="Times,serif" font-size="14.00">गतिः(4.2)</text>
</g>
<!-- Node4_1&#45;&gt;Node4_2 -->
<g id="edge7" class="edge">
<title>Node4_1&#45;&gt;Node4_2</title>
<path fill="none" stroke="black" d="M560.69,-220.27C560.69,-233.58 560.69,-249.19 560.69,-260.82"/>
<polygon fill="black" stroke="black" points="564.19,-220.2 560.69,-210.2 557.19,-220.2 564.19,-220.2"/>
<text text-anchor="middle" x="596.69" y="-231.8" font-family="Times,serif" font-size="14.00">समासः</text>
</g>
<!-- Node4_2&#45;&gt;Node1_1 -->
<g id="edge8" class="edge">
<title>Node4_2&#45;&gt;Node1_1</title>
<path fill="none" stroke="black" d="M560.69,-307.27C560.69,-320.58 560.69,-336.19 560.69,-347.82"/>
<polygon fill="black" stroke="black" points="564.19,-307.2 560.69,-297.2 557.19,-307.2 564.19,-307.2"/>
<text text-anchor="middle" x="657.19" y="-318.8" font-family="Times,serif" font-size="14.00">विधेय_विशेषणम्</text>
</g>
<!-- Node5_1 -->
<g id="node12" class="node">
<title>Node5_1</title>
<ellipse fill="#ffff00" stroke="#ffff00" cx="1082.69" cy="-18" rx="90.98" ry="18"/>
<text text-anchor="middle" x="1082.69" y="-14.3" font-family="Times,serif" font-size="14.00">महोष्ठ&#45;(5.1)</text>
</g>
<!-- Node5_2 -->
<g id="node13" class="node">
<title>Node5_2</title>
<ellipse fill="#ffff00" stroke="#ffff00" cx="1082.69" cy="-105" rx="63.09" ry="18"/>
<text text-anchor="middle" x="1082.69" y="-101.3" font-family="Times,serif" font-size="14.00">हनु&#45;(5.2)</text>
</g>
<!-- Node5_1&#45;&gt;Node5_2 -->
<g id="edge9" class="edge">
<title>Node5_1&#45;&gt;Node5_2</title>
<path fill="none" stroke="black" d="M1082.69,-46.27C1082.69,-59.58 1082.69,-75.19 1082.69,-86.82"/>
<polygon fill="black" stroke="black" points="1086.19,-46.2 1082.69,-36.2 1079.19,-46.2 1086.19,-46.2"/>
<text text-anchor="middle" x="1118.69" y="-57.8" font-family="Times,serif" font-size="14.00">समासः</text>
</g>
<!-- Node5_2&#45;&gt;Node5_3 -->
<g id="edge10" class="edge">
<title>Node5_2&#45;&gt;Node5_3</title>
<path fill="none" stroke="black" d="M1082.69,-133.27C1082.69,-146.58 1082.69,-162.19 1082.69,-173.82"/>
<polygon fill="black" stroke="black" points="1086.19,-133.2 1082.69,-123.2 1079.19,-133.2 1086.19,-133.2"/>
<text text-anchor="middle" x="1118.69" y="-144.8" font-family="Times,serif" font-size="14.00">समासः</text>
</g>
<!-- Node6_1 -->
<g id="node14" class="node">
<title>Node6_1</title>
<ellipse fill="#ff99ff" stroke="#ff99ff" cx="852.69" cy="-192" rx="41.69" ry="18"/>
<text text-anchor="middle" x="852.69" y="-188.3" font-family="Times,serif" font-size="14.00">च(6.1)</text>
</g>
<!-- Node6_1&#45;&gt;Node7_2 -->
<g id="edge12" class="edge">
<title>Node6_1&#45;&gt;Node7_2</title>
<path fill="none" stroke="black" d="M861.94,-219.39C866.3,-228.21 872.41,-237.24 880.69,-243 901.37,-257.38 957.37,-266.13 1008.2,-271.29"/>
<polygon fill="black" stroke="black" points="865.08,-217.84 857.87,-210.08 858.66,-220.64 865.08,-217.84"/>
<text text-anchor="middle" x="984.19" y="-231.8" font-family="Times,serif" font-size="14.00">समुच्चय_द्योतकः</text>
</g>
<!-- Node7_1 -->
<g id="node15" class="node">
<title>Node7_1</title>
<ellipse fill="#ffff00" stroke="#ffff00" cx="1299.69" cy="-192" rx="72.29" ry="18"/>
<text text-anchor="middle" x="1299.69" y="-188.3" font-family="Times,serif" font-size="14.00">पञ्च&#45;(7.1)</text>
</g>
<!-- Node7_1&#45;&gt;Node7_2 -->
<g id="edge13" class="edge">
<title>Node7_1&#45;&gt;Node7_2</title>
<path fill="none" stroke="black" d="M1272.01,-215.44C1259.14,-225 1243.26,-235.63 1227.69,-243 1208.83,-251.93 1187.23,-259.02 1167.46,-264.42"/>
<polygon fill="black" stroke="black" points="1274.17,-218.19 1280,-209.35 1269.92,-212.63 1274.17,-218.19"/>
<text text-anchor="middle" x="1288.69" y="-231.8" font-family="Times,serif" font-size="14.00">समासः</text>
</g>
<!-- Node8_1 -->
<g id="node16" class="node">
<title>Node8_1</title>
<ellipse fill="#ffff00" stroke="#ffff00" cx="729.69" cy="-105" rx="72.29" ry="18"/>
<text text-anchor="middle" x="729.69" y="-101.3" font-family="Times,serif" font-size="14.00">अष्ट&#45;(8.1)</text>
</g>
<!-- Node8_2 -->
<g id="node17" class="node">
<title>Node8_2</title>
<ellipse fill="#ffff00" stroke="#ffff00" cx="729.69" cy="-192" rx="63.09" ry="18"/>
<text text-anchor="middle" x="729.69" y="-188.3" font-family="Times,serif" font-size="14.00">वंश&#45;(8.2)</text>
</g>
<!-- Node8_1&#45;&gt;Node8_2 -->
<g id="edge15" class="edge">
<title>Node8_1&#45;&gt;Node8_2</title>
<path fill="none" stroke="black" d="M729.69,-133.27C729.69,-146.58 729.69,-162.19 729.69,-173.82"/>
<polygon fill="black" stroke="black" points="733.19,-133.2 729.69,-123.2 726.19,-133.2 733.19,-133.2"/>
<text text-anchor="middle" x="765.69" y="-144.8" font-family="Times,serif" font-size="14.00">समासः</text>
</g>
<!-- Node8_3 -->
<g id="node18" class="node">
<title>Node8_3</title>
<ellipse fill="#00bfff" stroke="#00bfff" cx="746.69" cy="-279" rx="69.59" ry="18"/>
<text text-anchor="middle" x="746.69" y="-275.3" font-family="Times,serif" font-size="14.00">वान्(8.3)</text>
</g>
<!-- Node8_2&#45;&gt;Node8_3 -->
<g id="edge16" class="edge">
<title>Node8_2&#45;&gt;Node8_3</title>
<path fill="none" stroke="black" d="M735.14,-220.27C737.81,-233.58 740.93,-249.19 743.25,-260.82"/>
<polygon fill="black" stroke="black" points="738.52,-219.32 733.13,-210.2 731.66,-220.69 738.52,-219.32"/>
<text text-anchor="middle" x="775.69" y="-231.8" font-family="Times,serif" font-size="14.00">समासः</text>
</g>
<!-- Node8_3&#45;&gt;Node1_1 -->
<g id="edge17" class="edge">
<title>Node8_3&#45;&gt;Node1_1</title>
<path fill="none" stroke="black" d="M758.54,-306.78C760.33,-315.01 760.06,-323.57 754.69,-330 737.46,-350.61 668.4,-359.11 617.56,-362.59"/>
<polygon fill="black" stroke="black" points="761.84,-305.61 755.56,-297.08 755.15,-307.67 761.84,-305.61"/>
<text text-anchor="middle" x="856.19" y="-318.8" font-family="Times,serif" font-size="14.00">विधेय_विशेषणम्</text>
</g>
</g>
</svg>
