<?xml version="1.0" encoding="UTF-8" standalone="no"?>
<!DOCTYPE svg PUBLIC "-//W3C//DTD SVG 1.1//EN"
 "http://www.w3.org/Graphics/SVG/1.1/DTD/svg11.dtd">
<!-- Generated by graphviz version 2.43.0 (0)
 -->
<!-- Title: G Pages: 1 -->
<svg width="1351pt" height="321pt"
 viewBox="0.00 0.00 1350.69 321.00" xmlns="http://www.w3.org/2000/svg" xmlns:xlink="http://www.w3.org/1999/xlink">
<g id="graph0" class="graph" transform="scale(1 1) rotate(0) translate(4 317)">
<title>G</title>
<polygon fill="#fffacd" stroke="transparent" points="-4,4 -4,-317 1346.69,-317 1346.69,4 -4,4"/>
<g id="clust1" class="cluster">
<title>cluster_1</title>
<polygon fill="#fffacd" stroke="black" points="8,-8 8,-147 468,-147 468,-8 8,-8"/>
</g>
<!-- Node8_1 -->
<g id="node1" class="node">
<title>Node8_1</title>
<ellipse fill="#87ceeb" stroke="#87ceeb" cx="344" cy="-34" rx="115.88" ry="18"/>
<text text-anchor="middle" x="344" y="-30.3" font-family="Times,serif" font-size="14.00">वानराणाम्(8.1)</text>
</g>
<!-- Node10_1 -->
<g id="node2" class="node">
<title>Node10_1</title>
<ellipse fill="#ff99ff" stroke="#ff99ff" cx="205" cy="-121" rx="47.39" ry="18"/>
<text text-anchor="middle" x="205" y="-117.3" font-family="Times,serif" font-size="14.00">च(10.1)</text>
</g>
<!-- Node8_1&#45;&gt;Node10_1 -->
<g id="edge7" class="edge">
<title>Node8_1&#45;&gt;Node10_1</title>
<path fill="none" stroke="black" d="M322.51,-59.29C313.71,-68.22 303.01,-77.88 292,-85 276.28,-95.17 257.13,-103.26 240.8,-109.1"/>
<polygon fill="black" stroke="black" points="325.06,-61.69 329.43,-52.03 320,-56.86 325.06,-61.69"/>
<text text-anchor="middle" x="375.5" y="-73.8" font-family="Times,serif" font-size="14.00">समुच्चितः</text>
</g>
<!-- Node13_1 -->
<g id="node12" class="node">
<title>Node13_1</title>
<ellipse fill="#00bfff" stroke="#00bfff" cx="205" cy="-208" rx="93.68" ry="18"/>
<text text-anchor="middle" x="205" y="-204.3" font-family="Times,serif" font-size="14.00">समागमः(13.1)</text>
</g>
<!-- Node10_1&#45;&gt;Node13_1 -->
<g id="edge9" class="edge">
<title>Node10_1&#45;&gt;Node13_1</title>
<path fill="none" stroke="black" d="M205,-149.27C205,-162.58 205,-178.19 205,-189.82"/>
<polygon fill="black" stroke="black" points="208.5,-149.2 205,-139.2 201.5,-149.2 208.5,-149.2"/>
<text text-anchor="middle" x="308.5" y="-160.8" font-family="Times,serif" font-size="14.00">समुच्चय_द्योतकः</text>
</g>
<!-- Node9_1 -->
<g id="node3" class="node">
<title>Node9_1</title>
<ellipse fill="#87ceeb" stroke="#87ceeb" cx="113" cy="-34" rx="96.68" ry="18"/>
<text text-anchor="middle" x="113" y="-30.3" font-family="Times,serif" font-size="14.00">नराणाम्(9.1)</text>
</g>
<!-- Node9_1&#45;&gt;Node10_1 -->
<g id="edge8" class="edge">
<title>Node9_1&#45;&gt;Node10_1</title>
<path fill="none" stroke="black" d="M136.48,-59.36C144.71,-67.66 154.12,-76.89 163,-85 170.15,-91.53 178.27,-98.41 185.45,-104.33"/>
<polygon fill="black" stroke="black" points="138.8,-56.73 129.3,-52.05 133.81,-61.64 138.8,-56.73"/>
<text text-anchor="middle" x="227.5" y="-73.8" font-family="Times,serif" font-size="14.00">समुच्चितः</text>
</g>
<!-- Node1_1 -->
<g id="node4" class="node">
<title>Node1_1</title>
<ellipse fill="#ff99ff" stroke="#ff99ff" cx="615" cy="-208" rx="59.59" ry="18"/>
<text text-anchor="middle" x="615" y="-204.3" font-family="Times,serif" font-size="14.00">क्व(1.1)</text>
</g>
<!-- Node14_1 -->
<g id="node5" class="node">
<title>Node14_1</title>
<ellipse fill="#ff1975" stroke="#ff1975" cx="705" cy="-295" rx="90.98" ry="18"/>
<text text-anchor="middle" x="705" y="-291.3" font-family="Times,serif" font-size="14.00">[अभवत्](14.1)</text>
</g>
<!-- Node1_1&#45;&gt;Node14_1 -->
<g id="edge1" class="edge">
<title>Node1_1&#45;&gt;Node14_1</title>
<path fill="none" stroke="black" d="M610.09,-236.25C610.03,-244.18 611.45,-252.46 616,-259 623.02,-269.08 633.42,-276.26 644.65,-281.37"/>
<polygon fill="black" stroke="black" points="613.58,-236.45 610.87,-226.21 606.6,-235.91 613.58,-236.45"/>
<text text-anchor="middle" x="694.5" y="-247.8" font-family="Times,serif" font-size="14.00">देशाधिकरणम्</text>
</g>
<!-- Node2_1 -->
<g id="node6" class="node">
<title>Node2_1</title>
<ellipse fill="#87ceeb" stroke="#87ceeb" cx="795" cy="-34" rx="50.89" ry="18"/>
<text text-anchor="middle" x="795" y="-30.3" font-family="Times,serif" font-size="14.00">ते(2.1)</text>
</g>
<!-- Node3_1 -->
<g id="node7" class="node">
<title>Node3_1</title>
<ellipse fill="#40e0d0" stroke="#40e0d0" cx="795" cy="-121" rx="78.79" ry="18"/>
<text text-anchor="middle" x="795" y="-117.3" font-family="Times,serif" font-size="14.00">रामेण(3.1)</text>
</g>
<!-- Node2_1&#45;&gt;Node3_1 -->
<g id="edge2" class="edge">
<title>Node2_1&#45;&gt;Node3_1</title>
<path fill="none" stroke="black" d="M795,-62.27C795,-75.58 795,-91.19 795,-102.82"/>
<polygon fill="black" stroke="black" points="798.5,-62.2 795,-52.2 791.5,-62.2 798.5,-62.2"/>
<text text-anchor="middle" x="888" y="-73.8" font-family="Times,serif" font-size="14.00">षष्ठीसम्बन्धः</text>
</g>
<!-- Node4_1 -->
<g id="node8" class="node">
<title>Node4_1</title>
<ellipse fill="#00bfff" stroke="#00bfff" cx="795" cy="-208" rx="96.68" ry="18"/>
<text text-anchor="middle" x="795" y="-204.3" font-family="Times,serif" font-size="14.00">संसर्गः(4.1)</text>
</g>
<!-- Node3_1&#45;&gt;Node4_1 -->
<g id="edge3" class="edge">
<title>Node3_1&#45;&gt;Node4_1</title>
<path fill="none" stroke="black" d="M795,-149.27C795,-162.58 795,-178.19 795,-189.82"/>
<polygon fill="black" stroke="black" points="798.5,-149.2 795,-139.2 791.5,-149.2 798.5,-149.2"/>
<text text-anchor="middle" x="838" y="-160.8" font-family="Times,serif" font-size="14.00">सहार्थ</text>
</g>
<!-- Node4_1&#45;&gt;Node14_1 -->
<g id="edge4" class="edge">
<title>Node4_1&#45;&gt;Node14_1</title>
<path fill="none" stroke="black" d="M787.04,-235.97C783.68,-244.07 779.1,-252.52 773,-259 765.36,-267.12 755.41,-273.68 745.49,-278.83"/>
<polygon fill="black" stroke="black" points="790.39,-237.01 790.55,-226.41 783.82,-234.59 790.39,-237.01"/>
<text text-anchor="middle" x="820" y="-247.8" font-family="Times,serif" font-size="14.00">कर्ता</text>
</g>
<!-- Node5_1 -->
<g id="node9" class="node">
<title>Node5_1</title>
<ellipse fill="#ff99ff" stroke="#ff99ff" cx="1004" cy="-34" rx="69.59" ry="18"/>
<text text-anchor="middle" x="1004" y="-30.3" font-family="Times,serif" font-size="14.00">कथम्(5.1)</text>
</g>
<!-- Node6_1 -->
<g id="node10" class="node">
<title>Node6_1</title>
<ellipse fill="#ff1975" stroke="#ff1975" cx="1115" cy="-121" rx="87.99" ry="18"/>
<text text-anchor="middle" x="1115" y="-117.3" font-family="Times,serif" font-size="14.00">जानासि(6.1)</text>
</g>
<!-- Node5_1&#45;&gt;Node6_1 -->
<g id="edge5" class="edge">
<title>Node5_1&#45;&gt;Node6_1</title>
<path fill="none" stroke="black" d="M998.82,-62.45C998.75,-70.38 1000.23,-78.61 1005,-85 1014.23,-97.36 1027.86,-105.46 1042.41,-110.73"/>
<polygon fill="black" stroke="black" points="1002.32,-62.62 999.65,-52.36 995.34,-62.04 1002.32,-62.62"/>
<text text-anchor="middle" x="1105" y="-73.8" font-family="Times,serif" font-size="14.00">क्रियाविशेषणम्</text>
</g>
<!-- Node7_1 -->
<g id="node11" class="node">
<title>Node7_1</title>
<ellipse fill="#93db70" stroke="#93db70" cx="1227" cy="-34" rx="115.88" ry="18"/>
<text text-anchor="middle" x="1227" y="-30.3" font-family="Times,serif" font-size="14.00">लक्ष्मणम्(7.1)</text>
</g>
<!-- Node7_1&#45;&gt;Node6_1 -->
<g id="edge6" class="edge">
<title>Node7_1&#45;&gt;Node6_1</title>
<path fill="none" stroke="black" d="M1219.7,-61.72C1216.35,-70.04 1211.6,-78.68 1205,-85 1195.07,-94.51 1182.27,-101.51 1169.45,-106.65"/>
<polygon fill="black" stroke="black" points="1223.01,-62.85 1223.03,-52.26 1216.41,-60.53 1223.01,-62.85"/>
<text text-anchor="middle" x="1244" y="-73.8" font-family="Times,serif" font-size="14.00">कर्म</text>
</g>
<!-- Node12_1 -->
<g id="node14" class="node">
<title>Node12_1</title>
<ellipse fill="#ff1975" stroke="#ff1975" cx="345" cy="-295" rx="84.49" ry="18"/>
<text text-anchor="middle" x="345" y="-291.3" font-family="Times,serif" font-size="14.00">आसीत्(12.1)</text>
</g>
<!-- Node13_1&#45;&gt;Node12_1 -->
<g id="edge11" class="edge">
<title>Node13_1&#45;&gt;Node12_1</title>
<path fill="none" stroke="black" d="M240.84,-230.76C264.91,-245.38 296.13,-264.33 318.09,-277.66"/>
<polygon fill="black" stroke="black" points="242.36,-227.59 231.99,-225.39 238.72,-233.57 242.36,-227.59"/>
<text text-anchor="middle" x="320" y="-247.8" font-family="Times,serif" font-size="14.00">कर्ता</text>
</g>
<!-- Node11_1 -->
<g id="node13" class="node">
<title>Node11_1</title>
<ellipse fill="#ff99ff" stroke="#ff99ff" cx="392" cy="-208" rx="75.29" ry="18"/>
<text text-anchor="middle" x="392" y="-204.3" font-family="Times,serif" font-size="14.00">कथम्(11.1)</text>
</g>
<!-- Node11_1&#45;&gt;Node12_1 -->
<g id="edge10" class="edge">
<title>Node11_1&#45;&gt;Node12_1</title>
<path fill="none" stroke="black" d="M377.58,-235.09C370.08,-248.65 361.12,-264.85 354.5,-276.82"/>
<polygon fill="black" stroke="black" points="380.71,-236.65 382.49,-226.2 374.59,-233.26 380.71,-236.65"/>
<text text-anchor="middle" x="472" y="-247.8" font-family="Times,serif" font-size="14.00">क्रियाविशेषणम्</text>
</g>
</g>
</svg>
