<?xml version="1.0" encoding="UTF-8" standalone="no"?>
<!DOCTYPE svg PUBLIC "-//W3C//DTD SVG 1.1//EN"
 "http://www.w3.org/Graphics/SVG/1.1/DTD/svg11.dtd">
<!-- Generated by graphviz version 2.43.0 (0)
 -->
<!-- Title: G Pages: 1 -->
<svg width="1467pt" height="495pt"
 viewBox="0.00 0.00 1467.00 495.00" xmlns="http://www.w3.org/2000/svg" xmlns:xlink="http://www.w3.org/1999/xlink">
<g id="graph0" class="graph" transform="scale(1 1) rotate(0) translate(4 491)">
<title>G</title>
<polygon fill="#fffacd" stroke="transparent" points="-4,4 -4,-491 1463,-491 1463,4 -4,4"/>
<g id="clust1" class="cluster">
<title>cluster_1</title>
<polygon fill="#fffacd" stroke="black" points="840,-79 840,-305 1355,-305 1355,-79 840,-79"/>
</g>
<g id="clust2" class="cluster">
<title>cluster_2</title>
<polygon fill="#fffacd" stroke="black" points="276,-166 276,-305 450,-305 450,-166 276,-166"/>
</g>
<g id="clust3" class="cluster">
<title>cluster_3</title>
<polygon fill="#fffacd" stroke="black" points="342,-340 342,-479 582,-479 582,-340 342,-340"/>
</g>
<g id="clust4" class="cluster">
<title>cluster_4</title>
<polygon fill="#fffacd" stroke="black" points="8,-253 8,-392 268,-392 268,-253 8,-253"/>
</g>
<!-- Node1_1 -->
<g id="node1" class="node">
<title>Node1_1</title>
<ellipse fill="#00bfff" stroke="#00bfff" cx="993" cy="-192" rx="50.89" ry="18"/>
<text text-anchor="middle" x="993" y="-188.3" font-family="Times,serif" font-size="14.00">तौ(1.1)</text>
</g>
<!-- Node9_2 -->
<g id="node2" class="node">
<title>Node9_2</title>
<ellipse fill="#00bfff" stroke="#00bfff" cx="918" cy="-279" rx="69.59" ry="18"/>
<text text-anchor="middle" x="918" y="-275.3" font-family="Times,serif" font-size="14.00">ऋषभौ(9.2)</text>
</g>
<!-- Node1_1&#45;&gt;Node9_2 -->
<g id="edge1" class="edge">
<title>Node1_1&#45;&gt;Node9_2</title>
<path fill="none" stroke="black" d="M984.61,-219.58C981.23,-227.66 976.74,-236.2 971,-243 964.53,-250.67 955.96,-257.31 947.61,-262.68"/>
<polygon fill="black" stroke="black" points="987.93,-220.69 988.2,-210.09 981.39,-218.21 987.93,-220.69"/>
<text text-anchor="middle" x="1038.5" y="-231.8" font-family="Times,serif" font-size="14.00">विशेषणम्</text>
</g>
<!-- Node10_1 -->
<g id="node7" class="node">
<title>Node10_1</title>
<ellipse fill="#00bfff" stroke="#00bfff" cx="462" cy="-366" rx="112.38" ry="18"/>
<text text-anchor="middle" x="462" y="-362.3" font-family="Times,serif" font-size="14.00">प्रापितौ(10.1)</text>
</g>
<!-- Node9_2&#45;&gt;Node10_1 -->
<g id="edge12" class="edge">
<title>Node9_2&#45;&gt;Node10_1</title>
<path fill="none" stroke="black" d="M853.67,-292.18C798.39,-302.55 716.52,-317.68 645,-330 617.49,-334.74 610.45,-334.95 583,-340 564.54,-343.39 544.56,-347.39 526.26,-351.18"/>
<polygon fill="black" stroke="black" points="854.49,-295.59 863.67,-290.3 853.2,-288.71 854.49,-295.59"/>
<text text-anchor="middle" x="757" y="-318.8" font-family="Times,serif" font-size="14.00">कर्म</text>
</g>
<!-- Node2_2 -->
<g id="node3" class="node">
<title>Node2_2</title>
<ellipse fill="#00bfff" stroke="#00bfff" cx="982" cy="-105" rx="133.78" ry="18"/>
<text text-anchor="middle" x="982" y="-101.3" font-family="Times,serif" font-size="14.00">तत्त्वार्थौ(2.2)</text>
</g>
<!-- Node2_2&#45;&gt;Node1_1 -->
<g id="edge3" class="edge">
<title>Node2_2&#45;&gt;Node1_1</title>
<path fill="none" stroke="black" d="M985.53,-133.27C987.25,-146.58 989.27,-162.19 990.78,-173.82"/>
<polygon fill="black" stroke="black" points="988.98,-132.67 984.23,-123.2 982.04,-133.57 988.98,-132.67"/>
<text text-anchor="middle" x="1046.5" y="-144.8" font-family="Times,serif" font-size="14.00">विशेषणम्</text>
</g>
<!-- Node4_2 -->
<g id="node4" class="node">
<title>Node4_2</title>
<ellipse fill="#00bfff" stroke="#00bfff" cx="1240" cy="-105" rx="106.68" ry="18"/>
<text text-anchor="middle" x="1240" y="-101.3" font-family="Times,serif" font-size="14.00">समन्वितौ(4.2)</text>
</g>
<!-- Node4_2&#45;&gt;Node1_1 -->
<g id="edge6" class="edge">
<title>Node4_2&#45;&gt;Node1_1</title>
<path fill="none" stroke="black" d="M1190.88,-125.5C1166.15,-135.08 1135.64,-146.57 1108,-156 1082.62,-164.66 1053.74,-173.44 1031.28,-180.05"/>
<polygon fill="black" stroke="black" points="1192.35,-128.68 1200.39,-121.79 1189.81,-122.16 1192.35,-128.68"/>
<text text-anchor="middle" x="1205.5" y="-144.8" font-family="Times,serif" font-size="14.00">विशेषणम्</text>
</g>
<!-- Node7_1 -->
<g id="node5" class="node">
<title>Node7_1</title>
<ellipse fill="#93db70" stroke="#93db70" cx="344" cy="-192" rx="59.59" ry="18"/>
<text text-anchor="middle" x="344" y="-188.3" font-family="Times,serif" font-size="14.00">तम्(7.1)</text>
</g>
<!-- Node8_1 -->
<g id="node6" class="node">
<title>Node8_1</title>
<ellipse fill="#93db70" stroke="#93db70" cx="363" cy="-279" rx="78.79" ry="18"/>
<text text-anchor="middle" x="363" y="-275.3" font-family="Times,serif" font-size="14.00">देशम्(8.1)</text>
</g>
<!-- Node7_1&#45;&gt;Node8_1 -->
<g id="edge9" class="edge">
<title>Node7_1&#45;&gt;Node8_1</title>
<path fill="none" stroke="black" d="M350.09,-220.27C353.07,-233.58 356.56,-249.19 359.16,-260.82"/>
<polygon fill="black" stroke="black" points="353.44,-219.2 347.84,-210.2 346.61,-220.72 353.44,-219.2"/>
<text text-anchor="middle" x="412.5" y="-231.8" font-family="Times,serif" font-size="14.00">विशेषणम्</text>
</g>
<!-- Node8_1&#45;&gt;Node10_1 -->
<g id="edge10" class="edge">
<title>Node8_1&#45;&gt;Node10_1</title>
<path fill="none" stroke="black" d="M369.44,-306.8C372.47,-315.02 376.82,-323.59 383,-330 391.02,-338.32 401.36,-344.8 411.9,-349.79"/>
<polygon fill="black" stroke="black" points="372.73,-305.58 366.37,-297.1 366.05,-307.69 372.73,-305.58"/>
<text text-anchor="middle" x="440.5" y="-318.8" font-family="Times,serif" font-size="14.00">अधिकरणम्</text>
</g>
<!-- Node11_1 -->
<g id="node8" class="node">
<title>Node11_1</title>
<ellipse fill="#00bfff" stroke="#00bfff" cx="462" cy="-453" rx="112.38" ry="18"/>
<text text-anchor="middle" x="462" y="-449.3" font-family="Times,serif" font-size="14.00">निवेदितौ(11.1)</text>
</g>
<!-- Node10_1&#45;&gt;Node11_1 -->
<g id="edge13" class="edge">
<title>Node10_1&#45;&gt;Node11_1</title>
<path fill="none" stroke="black" d="M462,-394.27C462,-407.58 462,-423.19 462,-434.82"/>
<polygon fill="black" stroke="black" points="465.5,-394.2 462,-384.2 458.5,-394.2 465.5,-394.2"/>
<text text-anchor="middle" x="526.5" y="-405.8" font-family="Times,serif" font-size="14.00">समुच्चितः</text>
</g>
<!-- Node14_2 -->
<g id="node9" class="node">
<title>Node14_2</title>
<ellipse fill="#b0e2ff" stroke="#b0e2ff" cx="138" cy="-279" rx="93.68" ry="18"/>
<text text-anchor="middle" x="138" y="-275.3" font-family="Times,serif" font-size="14.00">आत्मने(14.2)</text>
</g>
<!-- Node15_1 -->
<g id="node10" class="node">
<title>Node15_1</title>
<ellipse fill="#b0e2ff" stroke="#b0e2ff" cx="138" cy="-366" rx="121.58" ry="18"/>
<text text-anchor="middle" x="138" y="-362.3" font-family="Times,serif" font-size="14.00">सुग्रीवाय(15.1)</text>
</g>
<!-- Node14_2&#45;&gt;Node15_1 -->
<g id="edge17" class="edge">
<title>Node14_2&#45;&gt;Node15_1</title>
<path fill="none" stroke="black" d="M138,-307.27C138,-320.58 138,-336.19 138,-347.82"/>
<polygon fill="black" stroke="black" points="141.5,-307.2 138,-297.2 134.5,-307.2 141.5,-307.2"/>
<text text-anchor="middle" x="195.5" y="-318.8" font-family="Times,serif" font-size="14.00">विशेषणम्</text>
</g>
<!-- Node15_1&#45;&gt;Node11_1 -->
<g id="edge18" class="edge">
<title>Node15_1&#45;&gt;Node11_1</title>
<path fill="none" stroke="black" d="M194.94,-385.75C226.09,-395.68 265.47,-407.71 301,-417 331.44,-424.96 365.45,-432.54 394.33,-438.6"/>
<polygon fill="black" stroke="black" points="195.72,-382.32 185.13,-382.6 193.59,-388.99 195.72,-382.32"/>
<text text-anchor="middle" x="379.5" y="-405.8" font-family="Times,serif" font-size="14.00">सम्प्रदानम्</text>
</g>
<!-- Node2_1 -->
<g id="node11" class="node">
<title>Node2_1</title>
<ellipse fill="#ffff00" stroke="#ffff00" cx="982" cy="-18" rx="109.38" ry="18"/>
<text text-anchor="middle" x="982" y="-14.3" font-family="Times,serif" font-size="14.00">परिज्ञात&#45;(2.1)</text>
</g>
<!-- Node2_1&#45;&gt;Node2_2 -->
<g id="edge2" class="edge">
<title>Node2_1&#45;&gt;Node2_2</title>
<path fill="none" stroke="black" d="M982,-46.27C982,-59.58 982,-75.19 982,-86.82"/>
<polygon fill="black" stroke="black" points="985.5,-46.2 982,-36.2 978.5,-46.2 985.5,-46.2"/>
<text text-anchor="middle" x="1053.5" y="-57.8" font-family="Times,serif" font-size="14.00">बहुव्रीहिः</text>
</g>
<!-- Node3_1 -->
<g id="node12" class="node">
<title>Node3_1</title>
<ellipse fill="#40e0d0" stroke="#40e0d0" cx="652" cy="-366" rx="59.59" ry="18"/>
<text text-anchor="middle" x="652" y="-362.3" font-family="Times,serif" font-size="14.00">मया(3.1)</text>
</g>
<!-- Node3_1&#45;&gt;Node11_1 -->
<g id="edge4" class="edge">
<title>Node3_1&#45;&gt;Node11_1</title>
<path fill="none" stroke="black" d="M629.7,-390.89C619.86,-400.22 607.66,-410.27 595,-417 576.55,-426.81 555.18,-434 535.03,-439.22"/>
<polygon fill="black" stroke="black" points="632.39,-393.15 637.06,-383.64 627.48,-388.17 632.39,-393.15"/>
<text text-anchor="middle" x="652" y="-405.8" font-family="Times,serif" font-size="14.00">कर्ता</text>
</g>
<!-- Node4_1 -->
<g id="node13" class="node">
<title>Node4_1</title>
<ellipse fill="#ffff00" stroke="#ffff00" cx="1240" cy="-18" rx="90.98" ry="18"/>
<text text-anchor="middle" x="1240" y="-14.3" font-family="Times,serif" font-size="14.00">प्रीति&#45;(4.1)</text>
</g>
<!-- Node4_1&#45;&gt;Node4_2 -->
<g id="edge5" class="edge">
<title>Node4_1&#45;&gt;Node4_2</title>
<path fill="none" stroke="black" d="M1240,-46.27C1240,-59.58 1240,-75.19 1240,-86.82"/>
<polygon fill="black" stroke="black" points="1243.5,-46.2 1240,-36.2 1236.5,-46.2 1243.5,-46.2"/>
<text text-anchor="middle" x="1349.5" y="-57.8" font-family="Times,serif" font-size="14.00">तृतीया&#45;तत्पुरुषः</text>
</g>
<!-- Node5_1 -->
<g id="node14" class="node">
<title>Node5_1</title>
<ellipse fill="#00bfff" stroke="#00bfff" cx="555" cy="-192" rx="96.68" ry="18"/>
<text text-anchor="middle" x="555" y="-188.3" font-family="Times,serif" font-size="14.00">पृष्ठम्(5.1)</text>
</g>
<!-- Node6_1 -->
<g id="node15" class="node">
<title>Node6_1</title>
<ellipse fill="#ff99ff" stroke="#ff99ff" cx="551" cy="-279" rx="87.99" ry="18"/>
<text text-anchor="middle" x="551" y="-275.3" font-family="Times,serif" font-size="14.00">आरोप्य(6.1)</text>
</g>
<!-- Node5_1&#45;&gt;Node6_1 -->
<g id="edge7" class="edge">
<title>Node5_1&#45;&gt;Node6_1</title>
<path fill="none" stroke="black" d="M553.72,-220.27C553.09,-233.58 552.36,-249.19 551.81,-260.82"/>
<polygon fill="black" stroke="black" points="557.22,-220.35 554.19,-210.2 550.22,-220.03 557.22,-220.35"/>
<text text-anchor="middle" x="583" y="-231.8" font-family="Times,serif" font-size="14.00">कर्म</text>
</g>
<!-- Node6_1&#45;&gt;Node10_1 -->
<g id="edge8" class="edge">
<title>Node6_1&#45;&gt;Node10_1</title>
<path fill="none" stroke="black" d="M526.1,-303.78C511.39,-317.83 493.12,-335.28 479.85,-347.95"/>
<polygon fill="black" stroke="black" points="528.6,-306.23 533.42,-296.79 523.77,-301.17 528.6,-306.23"/>
<text text-anchor="middle" x="576.5" y="-318.8" font-family="Times,serif" font-size="14.00">पूर्वकालः</text>
</g>
<!-- Node9_1 -->
<g id="node16" class="node">
<title>Node9_1</title>
<ellipse fill="#ffff00" stroke="#ffff00" cx="751" cy="-192" rx="81.49" ry="18"/>
<text text-anchor="middle" x="751" y="-188.3" font-family="Times,serif" font-size="14.00">पुरुष&#45;(9.1)</text>
</g>
<!-- Node9_1&#45;&gt;Node9_2 -->
<g id="edge11" class="edge">
<title>Node9_1&#45;&gt;Node9_2</title>
<path fill="none" stroke="black" d="M742.72,-220.06C741.86,-228.2 742.82,-236.65 748,-243 761.23,-259.23 810.21,-268.16 852.22,-272.92"/>
<polygon fill="black" stroke="black" points="746.18,-220.56 744.59,-210.09 739.3,-219.27 746.18,-220.56"/>
<text text-anchor="middle" x="857.5" y="-231.8" font-family="Times,serif" font-size="14.00">सप्तमी&#45;तत्पुरुषः</text>
</g>
<!-- Node12_1 -->
<g id="node17" class="node">
<title>Node12_1</title>
<ellipse fill="#ff99ff" stroke="#ff99ff" cx="777" cy="-366" rx="47.39" ry="18"/>
<text text-anchor="middle" x="777" y="-362.3" font-family="Times,serif" font-size="14.00">च(12.1)</text>
</g>
<!-- Node12_1&#45;&gt;Node11_1 -->
<g id="edge14" class="edge">
<title>Node12_1&#45;&gt;Node11_1</title>
<path fill="none" stroke="black" d="M747.38,-388.21C731.65,-398.47 711.55,-410.05 692,-417 651.09,-431.54 603.98,-440.04 563.09,-445.01"/>
<polygon fill="black" stroke="black" points="749.75,-390.84 756.11,-382.36 745.86,-385.02 749.75,-390.84"/>
<text text-anchor="middle" x="827.5" y="-405.8" font-family="Times,serif" font-size="14.00">समुच्चय_द्योतकः</text>
</g>
<!-- Node13_1 -->
<g id="node18" class="node">
<title>Node13_1</title>
<ellipse fill="#40e0d0" stroke="#40e0d0" cx="992" cy="-366" rx="112.38" ry="18"/>
<text text-anchor="middle" x="992" y="-362.3" font-family="Times,serif" font-size="14.00">तत्त्वेन(13.1)</text>
</g>
<!-- Node13_1&#45;&gt;Node11_1 -->
<g id="edge15" class="edge">
<title>Node13_1&#45;&gt;Node11_1</title>
<path fill="none" stroke="black" d="M970.97,-391.37C961.11,-401.1 948.54,-411.32 935,-417 872.21,-443.32 693.15,-450.24 574.25,-451.84"/>
<polygon fill="black" stroke="black" points="973.55,-393.74 977.96,-384.11 968.51,-388.88 973.55,-393.74"/>
<text text-anchor="middle" x="994" y="-405.8" font-family="Times,serif" font-size="14.00">करणम्</text>
</g>
<!-- Node14_1 -->
<g id="node19" class="node">
<title>Node14_1</title>
<ellipse fill="#ffff00" stroke="#ffff00" cx="138" cy="-192" rx="68.79" ry="18"/>
<text text-anchor="middle" x="138" y="-188.3" font-family="Times,serif" font-size="14.00">महा&#45;(14.1)</text>
</g>
<!-- Node14_1&#45;&gt;Node14_2 -->
<g id="edge16" class="edge">
<title>Node14_1&#45;&gt;Node14_2</title>
<path fill="none" stroke="black" d="M138,-220.27C138,-233.58 138,-249.19 138,-260.82"/>
<polygon fill="black" stroke="black" points="141.5,-220.2 138,-210.2 134.5,-220.2 141.5,-220.2"/>
<text text-anchor="middle" x="202.5" y="-231.8" font-family="Times,serif" font-size="14.00">कर्मधारयः</text>
</g>
</g>
</svg>
