<?xml version="1.0" encoding="UTF-8" standalone="no"?>
<!DOCTYPE svg PUBLIC "-//W3C//DTD SVG 1.1//EN"
 "http://www.w3.org/Graphics/SVG/1.1/DTD/svg11.dtd">
<!-- Generated by graphviz version 2.43.0 (0)
 -->
<!-- Title: G Pages: 1 -->
<svg width="1420pt" height="392pt"
 viewBox="0.00 0.00 1420.00 392.00" xmlns="http://www.w3.org/2000/svg" xmlns:xlink="http://www.w3.org/1999/xlink">
<g id="graph0" class="graph" transform="scale(1 1) rotate(0) translate(4 388)">
<title>G</title>
<polygon fill="#fffacd" stroke="transparent" points="-4,4 -4,-388 1416,-388 1416,4 -4,4"/>
<g id="clust1" class="cluster">
<title>cluster_1</title>
<polygon fill="#fffacd" stroke="black" points="8,-79 8,-218 274,-218 274,-79 8,-79"/>
</g>
<!-- Node4_1 -->
<g id="node1" class="node">
<title>Node4_1</title>
<ellipse fill="#00bfff" stroke="#00bfff" cx="141" cy="-105" rx="124.58" ry="18"/>
<text text-anchor="middle" x="141" y="-101.3" font-family="Times,serif" font-size="14.00">प्रतापवान्(4.1)</text>
</g>
<!-- Node5_1 -->
<g id="node2" class="node">
<title>Node5_1</title>
<ellipse fill="#00bfff" stroke="#00bfff" cx="206" cy="-192" rx="59.59" ry="18"/>
<text text-anchor="middle" x="206" y="-188.3" font-family="Times,serif" font-size="14.00">समः(5.1)</text>
</g>
<!-- Node4_1&#45;&gt;Node5_1 -->
<g id="edge7" class="edge">
<title>Node4_1&#45;&gt;Node5_1</title>
<path fill="none" stroke="black" d="M145.51,-132.74C147.75,-140.74 151.07,-149.18 156,-156 161.71,-163.9 169.77,-170.64 177.76,-176.04"/>
<polygon fill="black" stroke="black" points="148.92,-131.94 143.22,-123 142.1,-133.54 148.92,-131.94"/>
<text text-anchor="middle" x="220.5" y="-144.8" font-family="Times,serif" font-size="14.00">समुच्चितः</text>
</g>
<!-- Node1_1 -->
<g id="node3" class="node">
<title>Node1_1</title>
<ellipse fill="#00bfff" stroke="#00bfff" cx="739" cy="-279" rx="57.69" ry="18"/>
<text text-anchor="middle" x="739" y="-275.3" font-family="Times,serif" font-size="14.00">[सः](1.1)</text>
</g>
<!-- Node5_1&#45;&gt;Node1_1 -->
<g id="edge8" class="edge">
<title>Node5_1&#45;&gt;Node1_1</title>
<path fill="none" stroke="black" d="M245.68,-211.91C270.49,-222.86 303.44,-235.87 334,-243 455.3,-271.31 601.86,-277.22 681.18,-278.16"/>
<polygon fill="black" stroke="black" points="246.8,-208.58 236.25,-207.67 243.93,-214.96 246.8,-208.58"/>
<text text-anchor="middle" x="430.5" y="-231.8" font-family="Times,serif" font-size="14.00">विधेय_विशेषणम्</text>
</g>
<!-- Node11_1 -->
<g id="node4" class="node">
<title>Node11_1</title>
<ellipse fill="#ff1975" stroke="#ff1975" cx="739" cy="-366" rx="90.98" ry="18"/>
<text text-anchor="middle" x="739" y="-362.3" font-family="Times,serif" font-size="14.00">[अस्ति](11.1)</text>
</g>
<!-- Node1_1&#45;&gt;Node11_1 -->
<g id="edge1" class="edge">
<title>Node1_1&#45;&gt;Node11_1</title>
<path fill="none" stroke="black" d="M739,-307.27C739,-320.58 739,-336.19 739,-347.82"/>
<polygon fill="black" stroke="black" points="742.5,-307.2 739,-297.2 735.5,-307.2 742.5,-307.2"/>
<text text-anchor="middle" x="775" y="-318.8" font-family="Times,serif" font-size="14.00">कर्ता</text>
</g>
<!-- Node2_1 -->
<g id="node5" class="node">
<title>Node2_1</title>
<ellipse fill="#ffff00" stroke="#ffff00" cx="537" cy="-18" rx="109.38" ry="18"/>
<text text-anchor="middle" x="537" y="-14.3" font-family="Times,serif" font-size="14.00">दुन्दुभि&#45;(2.1)</text>
</g>
<!-- Node2_2 -->
<g id="node6" class="node">
<title>Node2_2</title>
<ellipse fill="#ffff00" stroke="#ffff00" cx="537" cy="-105" rx="72.29" ry="18"/>
<text text-anchor="middle" x="537" y="-101.3" font-family="Times,serif" font-size="14.00">स्वन&#45;(2.2)</text>
</g>
<!-- Node2_1&#45;&gt;Node2_2 -->
<g id="edge2" class="edge">
<title>Node2_1&#45;&gt;Node2_2</title>
<path fill="none" stroke="black" d="M537,-46.27C537,-59.58 537,-75.19 537,-86.82"/>
<polygon fill="black" stroke="black" points="540.5,-46.2 537,-36.2 533.5,-46.2 540.5,-46.2"/>
<text text-anchor="middle" x="573" y="-57.8" font-family="Times,serif" font-size="14.00">समासः</text>
</g>
<!-- Node2_3 -->
<g id="node7" class="node">
<title>Node2_3</title>
<ellipse fill="#00bfff" stroke="#00bfff" cx="527" cy="-192" rx="106.68" ry="18"/>
<text text-anchor="middle" x="527" y="-188.3" font-family="Times,serif" font-size="14.00">निर्घोषः(2.3)</text>
</g>
<!-- Node2_2&#45;&gt;Node2_3 -->
<g id="edge3" class="edge">
<title>Node2_2&#45;&gt;Node2_3</title>
<path fill="none" stroke="black" d="M533.79,-133.27C532.23,-146.58 530.39,-162.19 529.02,-173.82"/>
<polygon fill="black" stroke="black" points="537.28,-133.54 534.98,-123.2 530.33,-132.72 537.28,-133.54"/>
<text text-anchor="middle" x="568" y="-144.8" font-family="Times,serif" font-size="14.00">समासः</text>
</g>
<!-- Node2_3&#45;&gt;Node1_1 -->
<g id="edge4" class="edge">
<title>Node2_3&#45;&gt;Node1_1</title>
<path fill="none" stroke="black" d="M528.43,-220.16C530.21,-228.55 533.63,-237.12 540,-243 560.3,-261.73 630.95,-270.66 682.31,-274.76"/>
<polygon fill="black" stroke="black" points="531.89,-219.6 526.98,-210.21 524.96,-220.61 531.89,-219.6"/>
<text text-anchor="middle" x="636.5" y="-231.8" font-family="Times,serif" font-size="14.00">विधेय_विशेषणम्</text>
</g>
<!-- Node3_1 -->
<g id="node8" class="node">
<title>Node3_1</title>
<ellipse fill="#ffff00" stroke="#ffff00" cx="728" cy="-105" rx="100.18" ry="18"/>
<text text-anchor="middle" x="728" y="-101.3" font-family="Times,serif" font-size="14.00">स्निग्ध&#45;(3.1)</text>
</g>
<!-- Node3_2 -->
<g id="node9" class="node">
<title>Node3_2</title>
<ellipse fill="#00bfff" stroke="#00bfff" cx="736" cy="-192" rx="78.79" ry="18"/>
<text text-anchor="middle" x="736" y="-188.3" font-family="Times,serif" font-size="14.00">वर्णः(3.2)</text>
</g>
<!-- Node3_1&#45;&gt;Node3_2 -->
<g id="edge5" class="edge">
<title>Node3_1&#45;&gt;Node3_2</title>
<path fill="none" stroke="black" d="M730.57,-133.27C731.82,-146.58 733.29,-162.19 734.38,-173.82"/>
<polygon fill="black" stroke="black" points="734.04,-132.83 729.62,-123.2 727.07,-133.49 734.04,-132.83"/>
<text text-anchor="middle" x="768" y="-144.8" font-family="Times,serif" font-size="14.00">समासः</text>
</g>
<!-- Node3_2&#45;&gt;Node1_1 -->
<g id="edge6" class="edge">
<title>Node3_2&#45;&gt;Node1_1</title>
<path fill="none" stroke="black" d="M736.96,-220.27C737.43,-233.58 737.98,-249.19 738.39,-260.82"/>
<polygon fill="black" stroke="black" points="740.46,-220.07 736.61,-210.2 733.46,-220.32 740.46,-220.07"/>
<text text-anchor="middle" x="833.5" y="-231.8" font-family="Times,serif" font-size="14.00">विधेय_विशेषणम्</text>
</g>
<!-- Node6_1 -->
<g id="node10" class="node">
<title>Node6_1</title>
<ellipse fill="#ff99ff" stroke="#ff99ff" cx="325" cy="-105" rx="41.69" ry="18"/>
<text text-anchor="middle" x="325" y="-101.3" font-family="Times,serif" font-size="14.00">च(6.1)</text>
</g>
<!-- Node6_1&#45;&gt;Node5_1 -->
<g id="edge9" class="edge">
<title>Node6_1&#45;&gt;Node5_1</title>
<path fill="none" stroke="black" d="M308.95,-130.73C302.33,-139.54 294.08,-149.01 285,-156 273,-165.25 258.17,-172.65 244.61,-178.22"/>
<polygon fill="black" stroke="black" points="311.8,-132.75 314.77,-122.58 306.11,-128.68 311.8,-132.75"/>
<text text-anchor="middle" x="403.5" y="-144.8" font-family="Times,serif" font-size="14.00">समुच्चय_द्योतकः</text>
</g>
<!-- Node7_1 -->
<g id="node11" class="node">
<title>Node7_1</title>
<ellipse fill="#ffff00" stroke="#ffff00" cx="955" cy="-105" rx="109.38" ry="18"/>
<text text-anchor="middle" x="955" y="-101.3" font-family="Times,serif" font-size="14.00">सुविभक्त&#45;(7.1)</text>
</g>
<!-- Node7_2 -->
<g id="node12" class="node">
<title>Node7_2</title>
<ellipse fill="#00bfff" stroke="#00bfff" cx="955" cy="-192" rx="78.79" ry="18"/>
<text text-anchor="middle" x="955" y="-188.3" font-family="Times,serif" font-size="14.00">अङ्गः(7.2)</text>
</g>
<!-- Node7_1&#45;&gt;Node7_2 -->
<g id="edge10" class="edge">
<title>Node7_1&#45;&gt;Node7_2</title>
<path fill="none" stroke="black" d="M955,-133.27C955,-146.58 955,-162.19 955,-173.82"/>
<polygon fill="black" stroke="black" points="958.5,-133.2 955,-123.2 951.5,-133.2 958.5,-133.2"/>
<text text-anchor="middle" x="991" y="-144.8" font-family="Times,serif" font-size="14.00">समासः</text>
</g>
<!-- Node7_2&#45;&gt;Node1_1 -->
<g id="edge11" class="edge">
<title>Node7_2&#45;&gt;Node1_1</title>
<path fill="none" stroke="black" d="M948.52,-220.12C945.21,-228.62 940.28,-237.26 933,-243 911.97,-259.58 844.15,-268.97 794.61,-273.76"/>
<polygon fill="black" stroke="black" points="951.92,-220.99 951.71,-210.4 945.27,-218.81 951.92,-220.99"/>
<text text-anchor="middle" x="1040.5" y="-231.8" font-family="Times,serif" font-size="14.00">विधेय_विशेषणम्</text>
</g>
<!-- Node8_1 -->
<g id="node13" class="node">
<title>Node8_1</title>
<ellipse fill="#93db70" stroke="#93db70" cx="1179" cy="-18" rx="87.99" ry="18"/>
<text text-anchor="middle" x="1179" y="-14.3" font-family="Times,serif" font-size="14.00">वर्णम्(8.1)</text>
</g>
<!-- Node9_1 -->
<g id="node14" class="node">
<title>Node9_1</title>
<ellipse fill="#93db70" stroke="#93db70" cx="1179" cy="-105" rx="96.68" ry="18"/>
<text text-anchor="middle" x="1179" y="-101.3" font-family="Times,serif" font-size="14.00">श्यामम्(9.1)</text>
</g>
<!-- Node8_1&#45;&gt;Node9_1 -->
<g id="edge12" class="edge">
<title>Node8_1&#45;&gt;Node9_1</title>
<path fill="none" stroke="black" d="M1179,-46.27C1179,-59.58 1179,-75.19 1179,-86.82"/>
<polygon fill="black" stroke="black" points="1182.5,-46.2 1179,-36.2 1175.5,-46.2 1182.5,-46.2"/>
<text text-anchor="middle" x="1295.5" y="-57.8" font-family="Times,serif" font-size="14.00">कर्म&#45;समानाधिकरण्य</text>
</g>
<!-- Node10_1 -->
<g id="node15" class="node">
<title>Node10_1</title>
<ellipse fill="#00bfff" stroke="#00bfff" cx="1176" cy="-192" rx="121.58" ry="18"/>
<text text-anchor="middle" x="1176" y="-188.3" font-family="Times,serif" font-size="14.00">समाश्रितः(10.1)</text>
</g>
<!-- Node9_1&#45;&gt;Node10_1 -->
<g id="edge13" class="edge">
<title>Node9_1&#45;&gt;Node10_1</title>
<path fill="none" stroke="black" d="M1178.04,-133.27C1177.57,-146.58 1177.02,-162.19 1176.61,-173.82"/>
<polygon fill="black" stroke="black" points="1181.54,-133.32 1178.39,-123.2 1174.54,-133.07 1181.54,-133.32"/>
<text text-anchor="middle" x="1206" y="-144.8" font-family="Times,serif" font-size="14.00">कर्म</text>
</g>
<!-- Node10_1&#45;&gt;Node1_1 -->
<g id="edge14" class="edge">
<title>Node10_1&#45;&gt;Node1_1</title>
<path fill="none" stroke="black" d="M1163.65,-219.25C1158.04,-228.3 1150.5,-237.52 1141,-243 1083.97,-275.92 893.9,-279.36 796.95,-278.87"/>
<polygon fill="black" stroke="black" points="1166.77,-220.85 1168.62,-210.42 1160.67,-217.42 1166.77,-220.85"/>
<text text-anchor="middle" x="1252.5" y="-231.8" font-family="Times,serif" font-size="14.00">विधेय_विशेषणम्</text>
</g>
</g>
</svg>
