<svg xmlns="http://www.w3.org/2000/svg" xmlns:xlink="http://www.w3.org/1999/xlink" width="1240" height="479pt" viewBox="0 0 929.69 479"><g id="graph0" class="graph" transform="scale(1 1) rotate(0) translate(4 475)"><title>G</title><polygon fill="#fffacd" stroke="transparent" points="-4 4 -4 -475 925.69 -475 925.69 4 -4 4"/><g id="clust1" class="cluster"><title>cluster_1</title><polygon fill="#fffacd" stroke="#000" points="251.69 -253 251.69 -392 913.69 -392 913.69 -253 251.69 -253"/></g><g id="node1" class="node"><title>Node2_3</title><ellipse cx="319.69" cy="-279" fill="#00bfff" stroke="#00bfff" rx="59.59" ry="18"/><text x="319.69" y="-275.3" font-family="Times,serif" font-size="14" text-anchor="middle">रतः(2.3)</text></g><g id="node2" class="node"><title>Node1_1</title><ellipse cx="469.69" cy="-366" fill="#00bfff" stroke="#00bfff" rx="57.69" ry="18"/><text x="469.69" y="-362.3" font-family="Times,serif" font-size="14" text-anchor="middle">[सः](1.1)</text></g><g id="edge4" class="edge"><title>Node2_3-&gt;Node1_1</title><path fill="none" stroke="#000" d="M327.47,-306.49C331.16,-315.05 336.4,-323.89 343.69,-330 363.62,-346.69 390.93,-355.45 415.03,-360.04"/><polygon fill="#000" stroke="#000" points="330.74 -305.25 323.95 -297.12 324.19 -307.71 330.74 -305.25"/><text x="401.19" y="-318.8" font-family="Times,serif" font-size="14" text-anchor="middle">विशेषणम्</text></g><g id="node6" class="node"><title>Node8_1</title><ellipse cx="469.69" cy="-453" fill="#ff1975" stroke="#ff1975" rx="85.29" ry="18"/><text x="469.69" y="-449.3" font-family="Times,serif" font-size="14" text-anchor="middle">[अस्ति](8.1)</text></g><g id="edge1" class="edge"><title>Node1_1-&gt;Node8_1</title><path fill="none" stroke="#000" d="M469.69,-394.27C469.69,-407.58 469.69,-423.19 469.69,-434.82"/><polygon fill="#000" stroke="#000" points="473.19 -394.2 469.69 -384.2 466.19 -394.2 473.19 -394.2"/><text x="505.69" y="-405.8" font-family="Times,serif" font-size="14" text-anchor="middle">कर्ता</text></g><g id="node3" class="node"><title>Node3_1</title><ellipse cx="641.69" cy="-279" fill="#00bfff" stroke="#00bfff" rx="106.68" ry="18"/><text x="641.69" y="-275.3" font-family="Times,serif" font-size="14" text-anchor="middle">श्रीमान्(3.1)</text></g><g id="edge5" class="edge"><title>Node3_1-&gt;Node1_1</title><path fill="none" stroke="#000" d="M618.19,-303.72C607.98,-312.97 595.45,-323 582.69,-330 561.98,-341.36 537.08,-349.57 515.92,-355.18"/><polygon fill="#000" stroke="#000" points="620.6 -306.26 625.51 -296.87 615.81 -301.15 620.6 -306.26"/><text x="661.19" y="-318.8" font-family="Times,serif" font-size="14" text-anchor="middle">विशेषणम्</text></g><g id="node4" class="node"><title>Node5_1</title><ellipse cx="457.69" cy="-279" fill="#00bfff" stroke="#00bfff" rx="59.59" ry="18"/><text x="457.69" y="-275.3" font-family="Times,serif" font-size="14" text-anchor="middle">रतः(5.1)</text></g><g id="edge8" class="edge"><title>Node5_1-&gt;Node1_1</title><path fill="none" stroke="#000" d="M461.54,-307.27C463.42,-320.58 465.62,-336.19 467.26,-347.82"/><polygon fill="#000" stroke="#000" points="464.98 -306.61 460.12 -297.2 458.05 -307.59 464.98 -306.61"/><text x="521.19" y="-318.8" font-family="Times,serif" font-size="14" text-anchor="middle">विशेषणम्</text></g><g id="node5" class="node"><title>Node6_4</title><ellipse cx="835.69" cy="-279" fill="#00bfff" stroke="#00bfff" rx="69.59" ry="18"/><text x="835.69" y="-275.3" font-family="Times,serif" font-size="14" text-anchor="middle">ज्ञः(6.4)</text></g><g id="edge12" class="edge"><title>Node6_4-&gt;Node1_1</title><path fill="none" stroke="#000" d="M797.69,-300.01C776.22,-310.49 748.57,-322.64 722.69,-330 656.58,-348.8 577.78,-357.66 525.89,-361.73"/><polygon fill="#000" stroke="#000" points="799.39 -303.07 806.79 -295.49 796.28 -296.8 799.39 -303.07"/><text x="821.19" y="-318.8" font-family="Times,serif" font-size="14" text-anchor="middle">विशेषणम्</text></g><g id="node7" class="node"><title>Node2_1</title><ellipse cx="288.69" cy="-105" fill="#ff0" stroke="#ff0" rx="72.29" ry="18"/><text x="288.69" y="-101.3" font-family="Times,serif" font-size="14" text-anchor="middle">सत्य-(2.1)</text></g><g id="node8" class="node"><title>Node2_2</title><ellipse cx="288.69" cy="-192" fill="#ff0" stroke="#ff0" rx="72.29" ry="18"/><text x="288.69" y="-188.3" font-family="Times,serif" font-size="14" text-anchor="middle">धर्म-(2.2)</text></g><g id="edge2" class="edge"><title>Node2_1-&gt;Node2_2</title><path fill="none" stroke="#000" d="M288.69,-133.27C288.69,-146.58 288.69,-162.19 288.69,-173.82"/><polygon fill="#000" stroke="#000" points="292.19 -133.2 288.69 -123.2 285.19 -133.2 292.19 -133.2"/><text x="324.69" y="-144.8" font-family="Times,serif" font-size="14" text-anchor="middle">समासः</text></g><g id="edge3" class="edge"><title>Node2_2-&gt;Node2_3</title><path fill="none" stroke="#000" d="M298.49,-219.87C303.38,-233.27 309.14,-249.08 313.43,-260.82"/><polygon fill="#000" stroke="#000" points="301.68 -218.4 294.96 -210.2 295.1 -220.79 301.68 -218.4"/><text x="341.69" y="-231.8" font-family="Times,serif" font-size="14" text-anchor="middle">समासः</text></g><g id="node9" class="node"><title>Node4_1</title><ellipse cx="485.69" cy="-105" fill="#ff0" stroke="#ff0" rx="100.18" ry="18"/><text x="485.69" y="-101.3" font-family="Times,serif" font-size="14" text-anchor="middle">सङ्ग्रह-(4.1)</text></g><g id="node10" class="node"><title>Node4_2</title><ellipse cx="485.69" cy="-192" fill="#c6e2eb" stroke="#c6e2eb" rx="106.68" ry="18"/><text x="485.69" y="-188.3" font-family="Times,serif" font-size="14" text-anchor="middle">अनुग्रहे(4.2)</text></g><g id="edge6" class="edge"><title>Node4_1-&gt;Node4_2</title><path fill="none" stroke="#000" d="M485.69,-133.27C485.69,-146.58 485.69,-162.19 485.69,-173.82"/><polygon fill="#000" stroke="#000" points="489.19 -133.2 485.69 -123.2 482.19 -133.2 489.19 -133.2"/><text x="521.69" y="-144.8" font-family="Times,serif" font-size="14" text-anchor="middle">समासः</text></g><g id="edge7" class="edge"><title>Node4_2-&gt;Node5_1</title><path fill="none" stroke="#000" d="M476.84,-219.87C472.42,-233.27 467.22,-249.08 463.35,-260.82"/><polygon fill="#000" stroke="#000" points="480.22 -220.79 480.02 -210.2 473.57 -218.6 480.22 -220.79"/><text x="530.19" y="-231.8" font-family="Times,serif" font-size="14" text-anchor="middle">अधिकरणम्</text></g><g id="node11" class="node"><title>Node6_1</title><ellipse cx="835.69" cy="-18" fill="#ff0" stroke="#ff0" rx="63.09" ry="18"/><text x="835.69" y="-14.3" font-family="Times,serif" font-size="14" text-anchor="middle">देश-(6.1)</text></g><g id="node12" class="node"><title>Node6_2</title><ellipse cx="835.69" cy="-105" fill="#ff0" stroke="#ff0" rx="63.09" ry="18"/><text x="835.69" y="-101.3" font-family="Times,serif" font-size="14" text-anchor="middle">काल-(6.2)</text></g><g id="edge9" class="edge"><title>Node6_1-&gt;Node6_2</title><path fill="none" stroke="#000" d="M835.69,-46.27C835.69,-59.58 835.69,-75.19 835.69,-86.82"/><polygon fill="#000" stroke="#000" points="839.19 -46.2 835.69 -36.2 832.19 -46.2 839.19 -46.2"/><text x="871.69" y="-57.8" font-family="Times,serif" font-size="14" text-anchor="middle">समासः</text></g><g id="node13" class="node"><title>Node6_3</title><ellipse cx="835.69" cy="-192" fill="#ff0" stroke="#ff0" rx="81.49" ry="18"/><text x="835.69" y="-188.3" font-family="Times,serif" font-size="14" text-anchor="middle">विभाग-(6.3)</text></g><g id="edge10" class="edge"><title>Node6_2-&gt;Node6_3</title><path fill="none" stroke="#000" d="M835.69,-133.27C835.69,-146.58 835.69,-162.19 835.69,-173.82"/><polygon fill="#000" stroke="#000" points="839.19 -133.2 835.69 -123.2 832.19 -133.2 839.19 -133.2"/><text x="871.69" y="-144.8" font-family="Times,serif" font-size="14" text-anchor="middle">समासः</text></g><g id="edge11" class="edge"><title>Node6_3-&gt;Node6_4</title><path fill="none" stroke="#000" d="M835.69,-220.27C835.69,-233.58 835.69,-249.19 835.69,-260.82"/><polygon fill="#000" stroke="#000" points="839.19 -220.2 835.69 -210.2 832.19 -220.2 839.19 -220.2"/><text x="871.69" y="-231.8" font-family="Times,serif" font-size="14" text-anchor="middle">समासः</text></g><g id="node14" class="node"><title>Node7_1</title><ellipse cx="115.69" cy="-105" fill="#ff0" stroke="#ff0" rx="72.29" ry="18"/><text x="115.69" y="-101.3" font-family="Times,serif" font-size="14" text-anchor="middle">सर्व-(7.1)</text></g><g id="node15" class="node"><title>Node7_2</title><ellipse cx="115.69" cy="-192" fill="#ff0" stroke="#ff0" rx="63.09" ry="18"/><text x="115.69" y="-188.3" font-family="Times,serif" font-size="14" text-anchor="middle">लोक-(7.2)</text></g><g id="edge13" class="edge"><title>Node7_1-&gt;Node7_2</title><path fill="none" stroke="#000" d="M115.69,-133.27C115.69,-146.58 115.69,-162.19 115.69,-173.82"/><polygon fill="#000" stroke="#000" points="119.19 -133.2 115.69 -123.2 112.19 -133.2 119.19 -133.2"/><text x="151.69" y="-144.8" font-family="Times,serif" font-size="14" text-anchor="middle">समासः</text></g><g id="node16" class="node"><title>Node7_3</title><ellipse cx="115.69" cy="-279" fill="#00bfff" stroke="#00bfff" rx="115.88" ry="18"/><text x="115.69" y="-275.3" font-family="Times,serif" font-size="14" text-anchor="middle">प्रियंवदः(7.3)</text></g><g id="edge14" class="edge"><title>Node7_2-&gt;Node7_3</title><path fill="none" stroke="#000" d="M115.69,-220.27C115.69,-233.58 115.69,-249.19 115.69,-260.82"/><polygon fill="#000" stroke="#000" points="119.19 -220.2 115.69 -210.2 112.19 -220.2 119.19 -220.2"/><text x="151.69" y="-231.8" font-family="Times,serif" font-size="14" text-anchor="middle">समासः</text></g><g id="edge15" class="edge"><title>Node7_3-&gt;Node1_1</title><path fill="none" stroke="#000" d="M120.13,-306.98C122.89,-315.61 127.39,-324.38 134.69,-330 156.24,-346.58 323.32,-357.54 413.08,-362.3"/><polygon fill="#000" stroke="#000" points="123.47 -305.92 117.61 -297.09 116.69 -307.65 123.47 -305.92"/><text x="231.19" y="-318.8" font-family="Times,serif" font-size="14" text-anchor="middle">विधेय_विशेषणम्</text></g></g></svg>