<?xml version="1.0" encoding="UTF-8" standalone="no"?>
<!DOCTYPE svg PUBLIC "-//W3C//DTD SVG 1.1//EN"
 "http://www.w3.org/Graphics/SVG/1.1/DTD/svg11.dtd">
<!-- Generated by graphviz version 2.43.0 (0)
 -->
<!-- Title: G Pages: 1 -->
<svg width="1877pt" height="392pt"
 viewBox="0.00 0.00 1876.84 392.00" xmlns="http://www.w3.org/2000/svg" xmlns:xlink="http://www.w3.org/1999/xlink">
<g id="graph0" class="graph" transform="scale(1 1) rotate(0) translate(4 388)">
<title>G</title>
<polygon fill="#fffacd" stroke="transparent" points="-4,4 -4,-388 1872.84,-388 1872.84,4 -4,4"/>
<g id="clust1" class="cluster">
<title>cluster_1</title>
<polygon fill="#fffacd" stroke="black" points="201.84,-79 201.84,-305 1095.84,-305 1095.84,-79 201.84,-79"/>
</g>
<!-- Node1_2 -->
<g id="node1" class="node">
<title>Node1_2</title>
<ellipse fill="#00bfff" stroke="#00bfff" cx="445.84" cy="-192" rx="78.79" ry="18"/>
<text text-anchor="middle" x="445.84" y="-188.3" font-family="Times,serif" font-size="14.00">पद्मः(1.2)</text>
</g>
<!-- Node10_1 -->
<g id="node2" class="node">
<title>Node10_1</title>
<ellipse fill="#00bfff" stroke="#00bfff" cx="532.84" cy="-279" rx="84.49" ry="18"/>
<text text-anchor="middle" x="532.84" y="-275.3" font-family="Times,serif" font-size="14.00">राघवः(10.1)</text>
</g>
<!-- Node1_2&#45;&gt;Node10_1 -->
<g id="edge2" class="edge">
<title>Node1_2&#45;&gt;Node10_1</title>
<path fill="none" stroke="black" d="M457.18,-219.19C461.58,-227.44 467.18,-236.17 473.84,-243 481.24,-250.59 490.63,-257.13 499.72,-262.44"/>
<polygon fill="black" stroke="black" points="460.31,-217.62 452.73,-210.21 454.03,-220.73 460.31,-217.62"/>
<text text-anchor="middle" x="531.34" y="-231.8" font-family="Times,serif" font-size="14.00">विशेषणम्</text>
</g>
<!-- Node9_1 -->
<g id="node16" class="node">
<title>Node9_1</title>
<ellipse fill="#ff1975" stroke="#ff1975" cx="143.84" cy="-366" rx="124.58" ry="18"/>
<text text-anchor="middle" x="143.84" y="-362.3" font-family="Times,serif" font-size="14.00">व्याप्नोति(9.1)</text>
</g>
<!-- Node10_1&#45;&gt;Node9_1 -->
<g id="edge15" class="edge">
<title>Node10_1&#45;&gt;Node9_1</title>
<path fill="none" stroke="black" d="M466.01,-294.6C394.19,-310.3 280.77,-335.08 209.43,-350.67"/>
<polygon fill="black" stroke="black" points="466.84,-298 475.86,-292.45 465.34,-291.17 466.84,-298"/>
<text text-anchor="middle" x="396.84" y="-318.8" font-family="Times,serif" font-size="14.00">कर्ता</text>
</g>
<!-- Node2_2 -->
<g id="node3" class="node">
<title>Node2_2</title>
<ellipse fill="#00bfff" stroke="#00bfff" cx="620.84" cy="-192" rx="78.79" ry="18"/>
<text text-anchor="middle" x="620.84" y="-188.3" font-family="Times,serif" font-size="14.00">बृहत्(2.2)</text>
</g>
<!-- Node2_2&#45;&gt;Node10_1 -->
<g id="edge4" class="edge">
<title>Node2_2&#45;&gt;Node10_1</title>
<path fill="none" stroke="black" d="M607.36,-218.78C602.26,-227.1 595.94,-235.97 588.84,-243 581.51,-250.26 572.41,-256.74 563.69,-262.09"/>
<polygon fill="black" stroke="black" points="610.41,-220.5 612.4,-210.09 604.35,-216.99 610.41,-220.5"/>
<text text-anchor="middle" x="658.34" y="-231.8" font-family="Times,serif" font-size="14.00">विशेषणम्</text>
</g>
<!-- Node4_1 -->
<g id="node4" class="node">
<title>Node4_1</title>
<ellipse fill="#00bfff" stroke="#00bfff" cx="823.84" cy="-192" rx="106.68" ry="18"/>
<text text-anchor="middle" x="823.84" y="-188.3" font-family="Times,serif" font-size="14.00">व्याप्तः(4.1)</text>
</g>
<!-- Node4_1&#45;&gt;Node10_1 -->
<g id="edge6" class="edge">
<title>Node4_1&#45;&gt;Node10_1</title>
<path fill="none" stroke="black" d="M786.05,-214.14C766.75,-224.17 742.58,-235.55 719.84,-243 682.49,-255.24 639.46,-263.66 604.1,-269.17"/>
<polygon fill="black" stroke="black" points="787.91,-217.12 795.11,-209.35 784.63,-210.93 787.91,-217.12"/>
<text text-anchor="middle" x="812.34" y="-231.8" font-family="Times,serif" font-size="14.00">विशेषणम्</text>
</g>
<!-- Node5_3 -->
<g id="node5" class="node">
<title>Node5_3</title>
<ellipse fill="#00bfff" stroke="#00bfff" cx="279.84" cy="-192" rx="69.59" ry="18"/>
<text text-anchor="middle" x="279.84" y="-188.3" font-family="Times,serif" font-size="14.00">वान्(5.3)</text>
</g>
<!-- Node5_3&#45;&gt;Node10_1 -->
<g id="edge9" class="edge">
<title>Node5_3&#45;&gt;Node10_1</title>
<path fill="none" stroke="black" d="M303.51,-216.35C314.6,-226.03 328.52,-236.49 342.84,-243 377.65,-258.82 419.14,-267.49 454.45,-272.24"/>
<polygon fill="black" stroke="black" points="305.72,-213.64 295.96,-209.51 301.02,-218.82 305.72,-213.64"/>
<text text-anchor="middle" x="400.34" y="-231.8" font-family="Times,serif" font-size="14.00">विशेषणम्</text>
</g>
<!-- Node6_2 -->
<g id="node6" class="node">
<title>Node6_2</title>
<ellipse fill="#00bfff" stroke="#00bfff" cx="297.84" cy="-105" rx="87.99" ry="18"/>
<text text-anchor="middle" x="297.84" y="-101.3" font-family="Times,serif" font-size="14.00">उन्नतः(6.2)</text>
</g>
<!-- Node6_2&#45;&gt;Node5_3 -->
<g id="edge11" class="edge">
<title>Node6_2&#45;&gt;Node5_3</title>
<path fill="none" stroke="black" d="M292.07,-133.27C289.25,-146.58 285.94,-162.19 283.48,-173.82"/>
<polygon fill="black" stroke="black" points="295.55,-133.71 294.2,-123.2 288.7,-132.26 295.55,-133.71"/>
<text text-anchor="middle" x="347.34" y="-144.8" font-family="Times,serif" font-size="14.00">विशेषणम्</text>
</g>
<!-- Node7_2 -->
<g id="node7" class="node">
<title>Node7_2</title>
<ellipse fill="#00bfff" stroke="#00bfff" cx="1017.84" cy="-192" rx="69.59" ry="18"/>
<text text-anchor="middle" x="1017.84" y="-188.3" font-family="Times,serif" font-size="14.00">तनुः(7.2)</text>
</g>
<!-- Node7_2&#45;&gt;Node10_1 -->
<g id="edge13" class="edge">
<title>Node7_2&#45;&gt;Node10_1</title>
<path fill="none" stroke="black" d="M973.47,-211.41C945.39,-222.3 908.05,-235.41 873.84,-243 786.84,-262.3 684.94,-270.99 615.34,-274.89"/>
<polygon fill="black" stroke="black" points="974.97,-214.58 983,-207.66 972.41,-208.06 974.97,-214.58"/>
<text text-anchor="middle" x="983.34" y="-231.8" font-family="Times,serif" font-size="14.00">विशेषणम्</text>
</g>
<!-- Node1_1 -->
<g id="node8" class="node">
<title>Node1_1</title>
<ellipse fill="#ffff00" stroke="#ffff00" cx="1337.84" cy="-105" rx="53.89" ry="18"/>
<text text-anchor="middle" x="1337.84" y="-101.3" font-family="Times,serif" font-size="14.00">दश&#45;(1.1)</text>
</g>
<!-- Node1_1&#45;&gt;Node1_2 -->
<g id="edge1" class="edge">
<title>Node1_1&#45;&gt;Node1_2</title>
<path fill="none" stroke="black" d="M1289.25,-120.04C1284.41,-121.16 1279.55,-122.17 1274.84,-123 1102.2,-153.29 1056.72,-144.15 881.84,-156 726.88,-166.5 687,-155.06 532.84,-174 522.45,-175.28 511.45,-177.07 500.88,-179.03"/>
<polygon fill="black" stroke="black" points="1290.22,-123.41 1299.1,-117.62 1288.56,-116.61 1290.22,-123.41"/>
<text text-anchor="middle" x="1182.84" y="-144.8" font-family="Times,serif" font-size="14.00">समासः</text>
</g>
<!-- Node2_1 -->
<g id="node9" class="node">
<title>Node2_1</title>
<ellipse fill="#ffff00" stroke="#ffff00" cx="1463.84" cy="-105" rx="53.89" ry="18"/>
<text text-anchor="middle" x="1463.84" y="-101.3" font-family="Times,serif" font-size="14.00">दश&#45;(2.1)</text>
</g>
<!-- Node2_1&#45;&gt;Node2_2 -->
<g id="edge3" class="edge">
<title>Node2_1&#45;&gt;Node2_2</title>
<path fill="none" stroke="black" d="M1445.93,-130.79C1437.41,-140.52 1426.36,-150.63 1413.84,-156 1341.73,-186.95 785.84,-165.45 707.84,-174 697.29,-175.16 686.1,-176.93 675.39,-178.89"/>
<polygon fill="black" stroke="black" points="1448.83,-132.78 1452.46,-122.82 1443.41,-128.34 1448.83,-132.78"/>
<text text-anchor="middle" x="1471.84" y="-144.8" font-family="Times,serif" font-size="14.00">समासः</text>
</g>
<!-- Node3_1 -->
<g id="node10" class="node">
<title>Node3_1</title>
<ellipse fill="#40e0d0" stroke="#40e0d0" cx="1632.84" cy="-105" rx="96.68" ry="18"/>
<text text-anchor="middle" x="1632.84" y="-101.3" font-family="Times,serif" font-size="14.00">त्रिभिः(3.1)</text>
</g>
<!-- Node3_1&#45;&gt;Node4_1 -->
<g id="edge5" class="edge">
<title>Node3_1&#45;&gt;Node4_1</title>
<path fill="none" stroke="black" d="M1600.74,-128.06C1583.5,-138.63 1561.4,-150.23 1539.84,-156 1410.77,-190.56 1071.94,-162.21 938.84,-174 925.27,-175.2 910.86,-176.95 897,-178.88"/>
<polygon fill="black" stroke="black" points="1602.69,-130.96 1609.28,-122.66 1598.96,-125.05 1602.69,-130.96"/>
<text text-anchor="middle" x="1655.34" y="-144.8" font-family="Times,serif" font-size="14.00">देशाधिकरणम्</text>
</g>
<!-- Node5_1 -->
<g id="node11" class="node">
<title>Node5_1</title>
<ellipse fill="#ffff00" stroke="#ffff00" cx="1184.84" cy="-18" rx="72.29" ry="18"/>
<text text-anchor="middle" x="1184.84" y="-14.3" font-family="Times,serif" font-size="14.00">द्वि&#45;(5.1)</text>
</g>
<!-- Node5_2 -->
<g id="node12" class="node">
<title>Node5_2</title>
<ellipse fill="#ffff00" stroke="#ffff00" cx="1184.84" cy="-105" rx="81.49" ry="18"/>
<text text-anchor="middle" x="1184.84" y="-101.3" font-family="Times,serif" font-size="14.00">शुक्ल&#45;(5.2)</text>
</g>
<!-- Node5_1&#45;&gt;Node5_2 -->
<g id="edge7" class="edge">
<title>Node5_1&#45;&gt;Node5_2</title>
<path fill="none" stroke="black" d="M1184.84,-46.27C1184.84,-59.58 1184.84,-75.19 1184.84,-86.82"/>
<polygon fill="black" stroke="black" points="1188.34,-46.2 1184.84,-36.2 1181.34,-46.2 1188.34,-46.2"/>
<text text-anchor="middle" x="1220.84" y="-57.8" font-family="Times,serif" font-size="14.00">समासः</text>
</g>
<!-- Node5_2&#45;&gt;Node5_3 -->
<g id="edge8" class="edge">
<title>Node5_2&#45;&gt;Node5_3</title>
<path fill="none" stroke="black" d="M1119.09,-120.07C1112.61,-121.18 1106.11,-122.19 1099.84,-123 970.02,-139.88 936.46,-132.19 805.84,-141 606.64,-154.43 555.42,-145.34 357.84,-174 348.51,-175.35 338.64,-177.19 329.16,-179.15"/>
<polygon fill="black" stroke="black" points="1120.02,-123.46 1129.24,-118.25 1118.78,-116.57 1120.02,-123.46"/>
<text text-anchor="middle" x="841.84" y="-144.8" font-family="Times,serif" font-size="14.00">समासः</text>
</g>
<!-- Node6_1 -->
<g id="node13" class="node">
<title>Node6_1</title>
<ellipse fill="#ffff00" stroke="#ffff00" cx="297.84" cy="-18" rx="63.09" ry="18"/>
<text text-anchor="middle" x="297.84" y="-14.3" font-family="Times,serif" font-size="14.00">षट्&#45;(6.1)</text>
</g>
<!-- Node6_1&#45;&gt;Node6_2 -->
<g id="edge10" class="edge">
<title>Node6_1&#45;&gt;Node6_2</title>
<path fill="none" stroke="black" d="M297.84,-46.27C297.84,-59.58 297.84,-75.19 297.84,-86.82"/>
<polygon fill="black" stroke="black" points="301.34,-46.2 297.84,-36.2 294.34,-46.2 301.34,-46.2"/>
<text text-anchor="middle" x="333.84" y="-57.8" font-family="Times,serif" font-size="14.00">समासः</text>
</g>
<!-- Node7_1 -->
<g id="node14" class="node">
<title>Node7_1</title>
<ellipse fill="#ffff00" stroke="#ffff00" cx="1806.84" cy="-105" rx="53.89" ry="18"/>
<text text-anchor="middle" x="1806.84" y="-101.3" font-family="Times,serif" font-size="14.00">नव&#45;(7.1)</text>
</g>
<!-- Node7_1&#45;&gt;Node7_2 -->
<g id="edge12" class="edge">
<title>Node7_1&#45;&gt;Node7_2</title>
<path fill="none" stroke="black" d="M1801.03,-133.03C1797.76,-141.79 1792.68,-150.62 1784.84,-156 1756.32,-175.55 1270.13,-186.4 1086.93,-189.81"/>
<polygon fill="black" stroke="black" points="1804.41,-133.95 1804.01,-123.36 1797.72,-131.89 1804.41,-133.95"/>
<text text-anchor="middle" x="1832.84" y="-144.8" font-family="Times,serif" font-size="14.00">समासः</text>
</g>
<!-- Node8_1 -->
<g id="node15" class="node">
<title>Node8_1</title>
<ellipse fill="#40e0d0" stroke="#40e0d0" cx="96.84" cy="-279" rx="96.68" ry="18"/>
<text text-anchor="middle" x="96.84" y="-275.3" font-family="Times,serif" font-size="14.00">त्रिभिः(8.1)</text>
</g>
<!-- Node8_1&#45;&gt;Node9_1 -->
<g id="edge14" class="edge">
<title>Node8_1&#45;&gt;Node9_1</title>
<path fill="none" stroke="black" d="M111.27,-306.09C118.77,-319.65 127.72,-335.85 134.34,-347.82"/>
<polygon fill="black" stroke="black" points="114.25,-304.26 106.35,-297.2 108.13,-307.65 114.25,-304.26"/>
<text text-anchor="middle" x="159.84" y="-318.8" font-family="Times,serif" font-size="14.00">करणम्</text>
</g>
</g>
</svg>
