<?xml version="1.0" encoding="UTF-8" standalone="no"?>
<!DOCTYPE svg PUBLIC "-//W3C//DTD SVG 1.1//EN"
 "http://www.w3.org/Graphics/SVG/1.1/DTD/svg11.dtd">
<!-- Generated by graphviz version 2.43.0 (0)
 -->
<!-- Title: G Pages: 1 -->
<svg width="1879pt" height="479pt"
 viewBox="0.00 0.00 1879.00 479.00" xmlns="http://www.w3.org/2000/svg" xmlns:xlink="http://www.w3.org/1999/xlink">
<g id="graph0" class="graph" transform="scale(1 1) rotate(0) translate(4 475)">
<title>G</title>
<polygon fill="#fffacd" stroke="transparent" points="-4,4 -4,-475 1875,-475 1875,4 -4,4"/>
<g id="clust1" class="cluster">
<title>cluster_1</title>
<polygon fill="#fffacd" stroke="black" points="8,-253 8,-392 200,-392 200,-253 8,-253"/>
</g>
<g id="clust2" class="cluster">
<title>cluster_2</title>
<polygon fill="#fffacd" stroke="black" points="569,-166 569,-218 1022,-218 1022,-166 569,-166"/>
</g>
<g id="clust3" class="cluster">
<title>cluster_3</title>
<polygon fill="#fffacd" stroke="black" points="1043,-166 1043,-305 1303,-305 1303,-166 1043,-166"/>
</g>
<!-- Node2_3 -->
<g id="node1" class="node">
<title>Node2_3</title>
<ellipse fill="#00bfff" stroke="#00bfff" cx="104" cy="-279" rx="87.99" ry="18"/>
<text text-anchor="middle" x="104" y="-275.3" font-family="Times,serif" font-size="14.00">शोभीनि(2.3)</text>
</g>
<!-- Node6_2 -->
<g id="node2" class="node">
<title>Node6_2</title>
<ellipse fill="#00bfff" stroke="#00bfff" cx="104" cy="-366" rx="87.99" ry="18"/>
<text text-anchor="middle" x="104" y="-362.3" font-family="Times,serif" font-size="14.00">जालानि(6.2)</text>
</g>
<!-- Node2_3&#45;&gt;Node6_2 -->
<g id="edge4" class="edge">
<title>Node2_3&#45;&gt;Node6_2</title>
<path fill="none" stroke="black" d="M64.86,-302.28C56.13,-310.23 50.8,-319.78 56,-330 59.83,-337.54 66.14,-343.84 72.93,-348.92"/>
<polygon fill="black" stroke="black" points="67.15,-304.94 72.84,-296 62.82,-299.44 67.15,-304.94"/>
<text text-anchor="middle" x="113.5" y="-318.8" font-family="Times,serif" font-size="14.00">विशेषणम्</text>
</g>
<!-- Node7_1 -->
<g id="node4" class="node">
<title>Node7_1</title>
<ellipse fill="#00bfff" stroke="#00bfff" cx="684" cy="-192" rx="106.68" ry="18"/>
<text text-anchor="middle" x="684" y="-188.3" font-family="Times,serif" font-size="14.00">पातितानि(7.1)</text>
</g>
<!-- Node6_2&#45;&gt;Node7_1 -->
<g id="edge10" class="edge">
<title>Node6_2&#45;&gt;Node7_1</title>
<path fill="none" stroke="black" d="M202.22,-364.77C276.87,-362.56 371.58,-354.73 401,-330 428.34,-307.02 397.96,-277.44 424,-253 449.29,-229.26 533.96,-212.77 599.89,-203.16"/>
<polygon fill="black" stroke="black" points="201.73,-361.28 191.83,-365.04 201.92,-368.28 201.73,-361.28"/>
<text text-anchor="middle" x="453" y="-275.3" font-family="Times,serif" font-size="14.00">कर्म</text>
</g>
<!-- Node15_1 -->
<g id="node10" class="node">
<title>Node15_1</title>
<ellipse fill="#ff1975" stroke="#ff1975" cx="1025" cy="-453" rx="139.98" ry="18"/>
<text text-anchor="middle" x="1025" y="-449.3" font-family="Times,serif" font-size="14.00">दर्शयामासुः(15.1)</text>
</g>
<!-- Node6_2&#45;&gt;Node15_1 -->
<g id="edge11" class="edge">
<title>Node6_2&#45;&gt;Node15_1</title>
<path fill="none" stroke="black" stroke-dasharray="1,5" d="M192.23,-375.14C361.24,-390.74 730.25,-424.8 915.01,-441.85"/>
<polygon fill="black" stroke="black" points="192.41,-371.64 182.13,-374.21 191.76,-378.61 192.41,-371.64"/>
<text text-anchor="middle" x="649" y="-405.8" font-family="Times,serif" font-size="14.00">कर्म</text>
</g>
<!-- Node5_1 -->
<g id="node3" class="node">
<title>Node5_1</title>
<ellipse fill="#00bfff" stroke="#00bfff" cx="561" cy="-279" rx="69.59" ry="18"/>
<text text-anchor="middle" x="561" y="-275.3" font-family="Times,serif" font-size="14.00">यानि(5.1)</text>
</g>
<!-- Node5_1&#45;&gt;Node6_2 -->
<g id="edge8" class="edge">
<title>Node5_1&#45;&gt;Node6_2</title>
<path fill="none" stroke="black" stroke-dasharray="1,5" d="M519.01,-299.05C493.49,-309.83 459.96,-322.6 429,-330 349.11,-349.1 255.66,-357.79 189.52,-361.74"/>
<polygon fill="black" stroke="black" points="520.56,-302.2 528.37,-295.04 517.8,-295.76 520.56,-302.2"/>
<text text-anchor="middle" x="535.5" y="-318.8" font-family="Times,serif" font-size="14.00">विशेषणम्</text>
</g>
<!-- Node9_1 -->
<g id="node5" class="node">
<title>Node9_1</title>
<ellipse fill="#00bfff" stroke="#00bfff" cx="911" cy="-279" rx="69.59" ry="18"/>
<text text-anchor="middle" x="911" y="-275.3" font-family="Times,serif" font-size="14.00">तानि(9.1)</text>
</g>
<!-- Node5_1&#45;&gt;Node9_1 -->
<g id="edge7" class="edge">
<title>Node5_1&#45;&gt;Node9_1</title>
<path fill="none" stroke="red" stroke-dasharray="5,2" d="M640.83,-279C697.84,-279 774.22,-279 831.22,-279"/>
<polygon fill="red" stroke="red" points="640.57,-275.5 630.57,-279 640.57,-282.5 640.57,-275.5"/>
<polygon fill="red" stroke="red" points="831.27,-282.5 841.27,-279 831.27,-275.5 831.27,-282.5"/>
<text text-anchor="middle" x="736" y="-264.8" font-family="Times,serif" font-size="14.00">नित्य_सम्बन्धः</text>
</g>
<!-- Node7_1&#45;&gt;Node9_1 -->
<g id="edge12" class="edge">
<title>Node7_1&#45;&gt;Node9_1</title>
<path fill="none" stroke="black" d="M725.17,-213.8C745.06,-223.4 769.46,-234.52 792,-243 815.18,-251.72 841.55,-259.67 863.56,-265.78"/>
<polygon fill="black" stroke="black" points="726.6,-210.6 716.08,-209.37 723.53,-216.9 726.6,-210.6"/>
<text text-anchor="middle" x="849.5" y="-231.8" font-family="Times,serif" font-size="14.00">विशेषणम्</text>
</g>
<!-- Node12_1 -->
<g id="node18" class="node">
<title>Node12_1</title>
<ellipse fill="#ff99ff" stroke="#ff99ff" cx="873" cy="-366" rx="75.29" ry="18"/>
<text text-anchor="middle" x="873" y="-362.3" font-family="Times,serif" font-size="14.00">आनीय(12.1)</text>
</g>
<!-- Node9_1&#45;&gt;Node12_1 -->
<g id="edge15" class="edge">
<title>Node9_1&#45;&gt;Node12_1</title>
<path fill="none" stroke="black" d="M899.16,-306.48C893.14,-319.96 885.98,-335.96 880.68,-347.82"/>
<polygon fill="black" stroke="black" points="902.42,-307.76 903.31,-297.2 896.03,-304.9 902.42,-307.76"/>
<text text-anchor="middle" x="923" y="-318.8" font-family="Times,serif" font-size="14.00">कर्म</text>
</g>
<!-- Node10_1 -->
<g id="node6" class="node">
<title>Node10_1</title>
<ellipse fill="#00bfff" stroke="#00bfff" cx="911" cy="-192" rx="102.88" ry="18"/>
<text text-anchor="middle" x="911" y="-188.3" font-family="Times,serif" font-size="14.00">सर्वाणि(10.1)</text>
</g>
<!-- Node10_1&#45;&gt;Node9_1 -->
<g id="edge16" class="edge">
<title>Node10_1&#45;&gt;Node9_1</title>
<path fill="none" stroke="black" d="M911,-220.27C911,-233.58 911,-249.19 911,-260.82"/>
<polygon fill="black" stroke="black" points="914.5,-220.2 911,-210.2 907.5,-220.2 914.5,-220.2"/>
<text text-anchor="middle" x="968.5" y="-231.8" font-family="Times,serif" font-size="14.00">विशेषणम्</text>
</g>
<!-- Node14_1 -->
<g id="node7" class="node">
<title>Node14_1</title>
<ellipse fill="#00bfff" stroke="#00bfff" cx="1173" cy="-192" rx="121.58" ry="18"/>
<text text-anchor="middle" x="1173" y="-188.3" font-family="Times,serif" font-size="14.00">संहृष्टाः(14.1)</text>
</g>
<!-- Node13_3 -->
<g id="node8" class="node">
<title>Node13_3</title>
<ellipse fill="#00bfff" stroke="#00bfff" cx="1193" cy="-279" rx="65.79" ry="18"/>
<text text-anchor="middle" x="1193" y="-275.3" font-family="Times,serif" font-size="14.00">पाः(13.3)</text>
</g>
<!-- Node14_1&#45;&gt;Node13_3 -->
<g id="edge23" class="edge">
<title>Node14_1&#45;&gt;Node13_3</title>
<path fill="none" stroke="black" d="M1179.42,-220.27C1182.55,-233.58 1186.22,-249.19 1188.96,-260.82"/>
<polygon fill="black" stroke="black" points="1182.74,-219.13 1177.05,-210.2 1175.93,-220.74 1182.74,-219.13"/>
<text text-anchor="middle" x="1241.5" y="-231.8" font-family="Times,serif" font-size="14.00">विशेषणम्</text>
</g>
<!-- Node13_3&#45;&gt;Node15_1 -->
<g id="edge21" class="edge">
<title>Node13_3&#45;&gt;Node15_1</title>
<path fill="none" stroke="black" d="M1199.63,-307.09C1205.35,-337.59 1209.09,-386.82 1183,-417 1174.18,-427.2 1149.76,-434.67 1122.67,-440.03"/>
<polygon fill="black" stroke="black" points="1203.03,-306.22 1197.57,-297.14 1196.17,-307.64 1203.03,-306.22"/>
<text text-anchor="middle" x="1239" y="-362.3" font-family="Times,serif" font-size="14.00">कर्ता</text>
</g>
<!-- Node13_3&#45;&gt;Node12_1 -->
<g id="edge22" class="edge">
<title>Node13_3&#45;&gt;Node12_1</title>
<path fill="none" stroke="black" stroke-dasharray="1,5" d="M1137.66,-294.7C1076.68,-310.9 979.59,-336.69 921.49,-352.12"/>
<polygon fill="black" stroke="black" points="1138.73,-298.04 1147.49,-292.09 1136.93,-291.27 1138.73,-298.04"/>
<text text-anchor="middle" x="1088" y="-318.8" font-family="Times,serif" font-size="14.00">कर्ता</text>
</g>
<!-- Node1_1 -->
<g id="node9" class="node">
<title>Node1_1</title>
<ellipse fill="#ff99ff" stroke="#ff99ff" cx="1026" cy="-366" rx="59.59" ry="18"/>
<text text-anchor="middle" x="1026" y="-362.3" font-family="Times,serif" font-size="14.00">ततः(1.1)</text>
</g>
<!-- Node1_1&#45;&gt;Node15_1 -->
<g id="edge1" class="edge">
<title>Node1_1&#45;&gt;Node15_1</title>
<path fill="none" stroke="black" d="M1025.68,-394.27C1025.52,-407.58 1025.34,-423.19 1025.2,-434.82"/>
<polygon fill="black" stroke="black" points="1029.18,-394.24 1025.8,-384.2 1022.18,-394.16 1029.18,-394.24"/>
<text text-anchor="middle" x="1103.5" y="-405.8" font-family="Times,serif" font-size="14.00">कालाधिकरणम्</text>
</g>
<!-- Node2_1 -->
<g id="node11" class="node">
<title>Node2_1</title>
<ellipse fill="#ffff00" stroke="#ffff00" cx="104" cy="-105" rx="81.49" ry="18"/>
<text text-anchor="middle" x="104" y="-101.3" font-family="Times,serif" font-size="14.00">त्वद्&#45;(2.1)</text>
</g>
<!-- Node2_2 -->
<g id="node12" class="node">
<title>Node2_2</title>
<ellipse fill="#ffff00" stroke="#ffff00" cx="104" cy="-192" rx="81.49" ry="18"/>
<text text-anchor="middle" x="104" y="-188.3" font-family="Times,serif" font-size="14.00">गात्र&#45;(2.2)</text>
</g>
<!-- Node2_1&#45;&gt;Node2_2 -->
<g id="edge2" class="edge">
<title>Node2_1&#45;&gt;Node2_2</title>
<path fill="none" stroke="black" d="M104,-133.27C104,-146.58 104,-162.19 104,-173.82"/>
<polygon fill="black" stroke="black" points="107.5,-133.2 104,-123.2 100.5,-133.2 107.5,-133.2"/>
<text text-anchor="middle" x="207.5" y="-144.8" font-family="Times,serif" font-size="14.00">षष्ठी_तत्पुरुषः</text>
</g>
<!-- Node2_2&#45;&gt;Node2_3 -->
<g id="edge3" class="edge">
<title>Node2_2&#45;&gt;Node2_3</title>
<path fill="none" stroke="black" d="M104,-220.27C104,-233.58 104,-249.19 104,-260.82"/>
<polygon fill="black" stroke="black" points="107.5,-220.2 104,-210.2 100.5,-220.2 107.5,-220.2"/>
<text text-anchor="middle" x="140" y="-231.8" font-family="Times,serif" font-size="14.00">समासः</text>
</g>
<!-- Node3_1 -->
<g id="node13" class="node">
<title>Node3_1</title>
<ellipse fill="#40e0d0" stroke="#40e0d0" cx="569" cy="-18" rx="87.99" ry="18"/>
<text text-anchor="middle" x="569" y="-14.3" font-family="Times,serif" font-size="14.00">रक्षसा(3.1)</text>
</g>
<!-- Node4_1 -->
<g id="node14" class="node">
<title>Node4_1</title>
<ellipse fill="#40e0d0" stroke="#40e0d0" cx="569" cy="-105" rx="124.58" ry="18"/>
<text text-anchor="middle" x="569" y="-101.3" font-family="Times,serif" font-size="14.00">ह्रियमाणया(4.1)</text>
</g>
<!-- Node3_1&#45;&gt;Node4_1 -->
<g id="edge5" class="edge">
<title>Node3_1&#45;&gt;Node4_1</title>
<path fill="none" stroke="black" d="M569,-46.27C569,-59.58 569,-75.19 569,-86.82"/>
<polygon fill="black" stroke="black" points="572.5,-46.2 569,-36.2 565.5,-46.2 572.5,-46.2"/>
<text text-anchor="middle" x="605" y="-57.8" font-family="Times,serif" font-size="14.00">हेतुः</text>
</g>
<!-- Node4_1&#45;&gt;Node7_1 -->
<g id="edge6" class="edge">
<title>Node4_1&#45;&gt;Node7_1</title>
<path fill="none" stroke="black" d="M599.93,-128.86C619.28,-143.17 643.78,-161.27 661.33,-174.24"/>
<polygon fill="black" stroke="black" points="601.84,-125.92 591.72,-122.79 597.68,-131.55 601.84,-125.92"/>
<text text-anchor="middle" x="670" y="-144.8" font-family="Times,serif" font-size="14.00">कर्ता</text>
</g>
<!-- Node6_1 -->
<g id="node15" class="node">
<title>Node6_1</title>
<ellipse fill="#ffff00" stroke="#ffff00" cx="282" cy="-279" rx="72.29" ry="18"/>
<text text-anchor="middle" x="282" y="-275.3" font-family="Times,serif" font-size="14.00">आभरण&#45;(6.1)</text>
</g>
<!-- Node6_1&#45;&gt;Node6_2 -->
<g id="edge9" class="edge">
<title>Node6_1&#45;&gt;Node6_2</title>
<path fill="none" stroke="black" d="M232.29,-297.77C219.58,-302.85 206.1,-308.73 194,-315 183.17,-320.62 181.53,-323.83 171,-330 159.79,-336.56 147.23,-343.29 136.04,-349.06"/>
<polygon fill="black" stroke="black" points="233.79,-300.94 241.83,-294.04 231.24,-294.42 233.79,-300.94"/>
<text text-anchor="middle" x="297.5" y="-318.8" font-family="Times,serif" font-size="14.00">षष्ठी_तत्पुरुषः</text>
</g>
<!-- Node8_1 -->
<g id="node16" class="node">
<title>Node8_1</title>
<ellipse fill="#ffff00" stroke="#ffff00" cx="772" cy="-18" rx="63.09" ry="18"/>
<text text-anchor="middle" x="772" y="-14.3" font-family="Times,serif" font-size="14.00">मही&#45;(8.1)</text>
</g>
<!-- Node8_2 -->
<g id="node17" class="node">
<title>Node8_2</title>
<ellipse fill="#00bfff" stroke="#00bfff" cx="772" cy="-105" rx="59.59" ry="18"/>
<text text-anchor="middle" x="772" y="-101.3" font-family="Times,serif" font-size="14.00">तले(8.2)</text>
</g>
<!-- Node8_1&#45;&gt;Node8_2 -->
<g id="edge13" class="edge">
<title>Node8_1&#45;&gt;Node8_2</title>
<path fill="none" stroke="black" d="M772,-46.27C772,-59.58 772,-75.19 772,-86.82"/>
<polygon fill="black" stroke="black" points="775.5,-46.2 772,-36.2 768.5,-46.2 775.5,-46.2"/>
<text text-anchor="middle" x="872" y="-57.8" font-family="Times,serif" font-size="14.00">षष्ठीतत्पुरुषः</text>
</g>
<!-- Node8_2&#45;&gt;Node7_1 -->
<g id="edge14" class="edge">
<title>Node8_2&#45;&gt;Node7_1</title>
<path fill="none" stroke="black" d="M747.75,-129.42C733.1,-143.57 714.76,-161.29 701.52,-174.08"/>
<polygon fill="black" stroke="black" points="750.27,-131.85 755.03,-122.39 745.41,-126.82 750.27,-131.85"/>
<text text-anchor="middle" x="790.5" y="-144.8" font-family="Times,serif" font-size="14.00">अधिकरणम्</text>
</g>
<!-- Node12_1&#45;&gt;Node15_1 -->
<g id="edge18" class="edge">
<title>Node12_1&#45;&gt;Node15_1</title>
<path fill="none" stroke="black" d="M878.07,-393.74C880.89,-402.21 885.25,-410.93 892,-417 903.27,-427.14 917.14,-434.4 931.61,-439.59"/>
<polygon fill="black" stroke="black" points="881.44,-392.81 875.42,-384.09 874.69,-394.66 881.44,-392.81"/>
<text text-anchor="middle" x="956.5" y="-405.8" font-family="Times,serif" font-size="14.00">पूर्वकालः</text>
</g>
<!-- Node11_1 -->
<g id="node19" class="node">
<title>Node11_1</title>
<ellipse fill="#b0e2ff" stroke="#b0e2ff" cx="1371" cy="-366" rx="84.49" ry="18"/>
<text text-anchor="middle" x="1371" y="-362.3" font-family="Times,serif" font-size="14.00">रामाय(11.1)</text>
</g>
<!-- Node11_1&#45;&gt;Node15_1 -->
<g id="edge17" class="edge">
<title>Node11_1&#45;&gt;Node15_1</title>
<path fill="none" stroke="black" d="M1319.18,-384.88C1288.07,-395.19 1247.56,-407.88 1211,-417 1177.68,-425.31 1140.57,-432.67 1108.32,-438.47"/>
<polygon fill="black" stroke="black" points="1320.56,-388.11 1328.94,-381.63 1318.34,-381.47 1320.56,-388.11"/>
<text text-anchor="middle" x="1328.5" y="-405.8" font-family="Times,serif" font-size="14.00">प्रयोजनम्</text>
</g>
<!-- Node13_1 -->
<g id="node20" class="node">
<title>Node13_1</title>
<ellipse fill="#ffff00" stroke="#ffff00" cx="1381" cy="-105" rx="68.79" ry="18"/>
<text text-anchor="middle" x="1381" y="-101.3" font-family="Times,serif" font-size="14.00">हरि&#45;(13.1)</text>
</g>
<!-- Node13_2 -->
<g id="node21" class="node">
<title>Node13_2</title>
<ellipse fill="#ffff00" stroke="#ffff00" cx="1381" cy="-192" rx="68.79" ry="18"/>
<text text-anchor="middle" x="1381" y="-188.3" font-family="Times,serif" font-size="14.00">यूथ&#45;(13.2)</text>
</g>
<!-- Node13_1&#45;&gt;Node13_2 -->
<g id="edge19" class="edge">
<title>Node13_1&#45;&gt;Node13_2</title>
<path fill="none" stroke="black" d="M1381,-133.27C1381,-146.58 1381,-162.19 1381,-173.82"/>
<polygon fill="black" stroke="black" points="1384.5,-133.2 1381,-123.2 1377.5,-133.2 1384.5,-133.2"/>
<text text-anchor="middle" x="1481" y="-144.8" font-family="Times,serif" font-size="14.00">षष्ठीतत्पुरुषः</text>
</g>
<!-- Node13_2&#45;&gt;Node13_3 -->
<g id="edge20" class="edge">
<title>Node13_2&#45;&gt;Node13_3</title>
<path fill="none" stroke="black" d="M1350.74,-215.03C1336.72,-224.54 1319.52,-235.24 1303,-243 1282.77,-252.5 1259.3,-260.36 1239.24,-266.21"/>
<polygon fill="black" stroke="black" points="1352.8,-217.86 1359.04,-209.3 1348.82,-212.1 1352.8,-217.86"/>
<text text-anchor="middle" x="1424" y="-231.8" font-family="Times,serif" font-size="14.00">उपपद&#45;तत्पुरुषः</text>
</g>
<!-- Node16_1 -->
<g id="node22" class="node">
<title>Node16_1</title>
<ellipse fill="#93db70" stroke="#93db70" cx="1756" cy="-105" rx="84.49" ry="18"/>
<text text-anchor="middle" x="1756" y="-101.3" font-family="Times,serif" font-size="14.00">गतिम्(16.1)</text>
</g>
<!-- Node19_1 -->
<g id="node23" class="node">
<title>Node19_1</title>
<ellipse fill="#ff1975" stroke="#ff1975" cx="1680" cy="-192" rx="84.49" ry="18"/>
<text text-anchor="middle" x="1680" y="-188.3" font-family="Times,serif" font-size="14.00">विदुः(19.1)</text>
</g>
<!-- Node16_1&#45;&gt;Node19_1 -->
<g id="edge24" class="edge">
<title>Node16_1&#45;&gt;Node19_1</title>
<path fill="none" stroke="black" d="M1747.64,-132.61C1744.26,-140.69 1739.77,-149.22 1734,-156 1727.63,-163.49 1719.26,-169.96 1711.01,-175.24"/>
<polygon fill="black" stroke="black" points="1750.97,-133.71 1751.23,-123.12 1744.42,-131.24 1750.97,-133.71"/>
<text text-anchor="middle" x="1772" y="-144.8" font-family="Times,serif" font-size="14.00">कर्म</text>
</g>
<!-- Node17_1 -->
<g id="node24" class="node">
<title>Node17_1</title>
<ellipse fill="#ff99ff" stroke="#ff99ff" cx="1756" cy="-18" rx="56.59" ry="18"/>
<text text-anchor="middle" x="1756" y="-14.3" font-family="Times,serif" font-size="14.00">तु(17.1)</text>
</g>
<!-- Node17_1&#45;&gt;Node16_1 -->
<g id="edge25" class="edge">
<title>Node17_1&#45;&gt;Node16_1</title>
<path fill="none" stroke="black" d="M1756,-46.27C1756,-59.58 1756,-75.19 1756,-86.82"/>
<polygon fill="black" stroke="black" points="1759.5,-46.2 1756,-36.2 1752.5,-46.2 1759.5,-46.2"/>
<text text-anchor="middle" x="1813.5" y="-57.8" font-family="Times,serif" font-size="14.00">सम्बन्धः</text>
</g>
<!-- Node18_1 -->
<g id="node25" class="node">
<title>Node18_1</title>
<ellipse fill="#ff99ff" stroke="#ff99ff" cx="1604" cy="-105" rx="47.39" ry="18"/>
<text text-anchor="middle" x="1604" y="-101.3" font-family="Times,serif" font-size="14.00">न(18.1)</text>
</g>
<!-- Node18_1&#45;&gt;Node19_1 -->
<g id="edge26" class="edge">
<title>Node18_1&#45;&gt;Node19_1</title>
<path fill="none" stroke="black" d="M1596.51,-133.07C1595.8,-140.99 1596.65,-149.31 1601,-156 1607.3,-165.68 1616.96,-172.71 1627.38,-177.79"/>
<polygon fill="black" stroke="black" points="1599.98,-133.49 1598.16,-123.06 1593.08,-132.35 1599.98,-133.49"/>
<text text-anchor="middle" x="1665.5" y="-144.8" font-family="Times,serif" font-size="14.00">प्रतिषेधः</text>
</g>
</g>
</svg>
