<svg xmlns="http://www.w3.org/2000/svg" xmlns:xlink="http://www.w3.org/1999/xlink" width="1528" height="392pt" viewBox="0 0 1145.54 392"><g id="graph0" class="graph" transform="scale(1 1) rotate(0) translate(4 388)"><title>G</title><polygon fill="#fffacd" stroke="transparent" points="-4 4 -4 -388 1141.54 -388 1141.54 4 -4 4"/><g id="clust1" class="cluster"><title>cluster_1</title><polygon fill="#fffacd" stroke="#000" points="248.54 -166 248.54 -305 1020.54 -305 1020.54 -166 248.54 -166"/></g><g id="node1" class="node"><title>Node3_2</title><ellipse cx="335.54" cy="-192" fill="#93db70" stroke="#93db70" rx="78.79" ry="18"/><text x="335.54" y="-188.3" font-family="Times,serif" font-size="14" text-anchor="middle">राजम्(3.2)</text></g><g id="node2" class="node"><title>Node9_1</title><ellipse cx="528.54" cy="-279" fill="#93db70" stroke="#93db70" rx="115.88" ry="18"/><text x="528.54" y="-275.3" font-family="Times,serif" font-size="14" text-anchor="middle">सुग्रीवम्(9.1)</text></g><g id="edge4" class="edge"><title>Node3_2-&gt;Node9_1</title><path fill="none" stroke="#000" d="M364.4,-215.54C377.6,-225.03 393.78,-235.58 409.54,-243 427.47,-251.44 447.88,-258.34 466.67,-263.7"/><polygon fill="#000" stroke="#000" points="366.32 -212.61 356.19 -209.5 362.17 -218.25 366.32 -212.61"/><text x="467.04" y="-231.8" font-family="Times,serif" font-size="14" text-anchor="middle">विशेषणम्</text></g><g id="node7" class="node"><title>Node10_1</title><ellipse cx="198.54" cy="-366" fill="#ff1975" stroke="#ff1975" rx="139.98" ry="18"/><text x="198.54" y="-362.3" font-family="Times,serif" font-size="14" text-anchor="middle">परिचर्यामहे(10.1)</text></g><g id="edge12" class="edge"><title>Node9_1-&gt;Node10_1</title><path fill="none" stroke="#000" d="M461.73,-297.21C402.02,-312.59 315.36,-334.91 258.01,-349.68"/><polygon fill="#000" stroke="#000" points="462.63 -300.59 471.44 -294.71 460.88 -293.81 462.63 -300.59"/><text x="411.54" y="-318.8" font-family="Times,serif" font-size="14" text-anchor="middle">कर्म</text></g><g id="node3" class="node"><title>Node4_1</title><ellipse cx="703.54" cy="-192" fill="#93db70" stroke="#93db70" rx="59.59" ry="18"/><text x="703.54" y="-188.3" font-family="Times,serif" font-size="14" text-anchor="middle">तम्(4.1)</text></g><g id="edge5" class="edge"><title>Node4_1-&gt;Node9_1</title><path fill="none" stroke="#000" d="M681.61,-216.72C671.93,-226.03 659.95,-236.1 647.54,-243 631.26,-252.05 612.4,-258.98 594.56,-264.19"/><polygon fill="#000" stroke="#000" points="684.23 -219.05 688.84 -209.51 679.29 -214.09 684.23 -219.05"/><text x="725.04" y="-231.8" font-family="Times,serif" font-size="14" text-anchor="middle">विशेषणम्</text></g><g id="node4" class="node"><title>Node5_2</title><ellipse cx="528.54" cy="-192" fill="#93db70" stroke="#93db70" rx="96.68" ry="18"/><text x="528.54" y="-188.3" font-family="Times,serif" font-size="14" text-anchor="middle">सङ्गरम्(5.2)</text></g><g id="edge7" class="edge"><title>Node5_2-&gt;Node9_1</title><path fill="none" stroke="#000" d="M528.54,-220.27C528.54,-233.58 528.54,-249.19 528.54,-260.82"/><polygon fill="#000" stroke="#000" points="532.04 -220.2 528.54 -210.2 525.04 -220.2 532.04 -220.2"/><text x="586.04" y="-231.8" font-family="Times,serif" font-size="14" text-anchor="middle">विशेषणम्</text></g><g id="node5" class="node"><title>Node8_1</title><ellipse cx="896.54" cy="-192" fill="#93db70" stroke="#93db70" rx="115.88" ry="18"/><text x="896.54" y="-188.3" font-family="Times,serif" font-size="14" text-anchor="middle">अवरोपितम्(8.1)</text></g><g id="edge11" class="edge"><title>Node8_1-&gt;Node9_1</title><path fill="none" stroke="#000" d="M857.59,-214.08C837.02,-224.34 811.01,-235.94 786.54,-243 736.71,-257.37 679.71,-265.89 631.98,-270.92"/><polygon fill="#000" stroke="#000" points="859.31 -217.13 866.64 -209.48 856.14 -210.89 859.31 -217.13"/><text x="884.04" y="-231.8" font-family="Times,serif" font-size="14" text-anchor="middle">विशेषणम्</text></g><g id="node6" class="node"><title>Node1_1</title><ellipse cx="69.54" cy="-279" fill="#00bfff" stroke="#00bfff" rx="69.59" ry="18"/><text x="69.54" y="-275.3" font-family="Times,serif" font-size="14" text-anchor="middle">वयम्(1.1)</text></g><g id="edge1" class="edge"><title>Node1_1-&gt;Node10_1</title><path fill="none" stroke="#000" d="M91.7,-303.99C100.71,-312.88 111.57,-322.59 122.54,-330 133.14,-337.15 145.43,-343.53 157,-348.81"/><polygon fill="#000" stroke="#000" points="94.12 -301.45 84.61 -296.78 89.13 -306.36 94.12 -301.45"/><text x="158.54" y="-318.8" font-family="Times,serif" font-size="14" text-anchor="middle">कर्ता</text></g><g id="node8" class="node"><title>Node2_1</title><ellipse cx="198.54" cy="-279" fill="#f9f" stroke="#f9f" rx="41.69" ry="18"/><text x="198.54" y="-275.3" font-family="Times,serif" font-size="14" text-anchor="middle">च(2.1)</text></g><g id="edge2" class="edge"><title>Node2_1-&gt;Node10_1</title><path fill="none" stroke="#000" d="M198.54,-307.27C198.54,-320.58 198.54,-336.19 198.54,-347.82"/><polygon fill="#000" stroke="#000" points="202.04 -307.2 198.54 -297.2 195.04 -307.2 202.04 -307.2"/><text x="256.04" y="-318.8" font-family="Times,serif" font-size="14" text-anchor="middle">सम्बन्धः</text></g><g id="node9" class="node"><title>Node3_1</title><ellipse cx="322.54" cy="-105" fill="#ff0" stroke="#ff0" rx="63.09" ry="18"/><text x="322.54" y="-101.3" font-family="Times,serif" font-size="14" text-anchor="middle">हरि-(3.1)</text></g><g id="edge3" class="edge"><title>Node3_1-&gt;Node3_2</title><path fill="none" stroke="#000" d="M321.57,-133.49C321.72,-140.84 322.26,-148.76 323.54,-156 324.6,-161.95 326.49,-168.24 328.47,-173.83"/><polygon fill="#000" stroke="#000" points="325.07 -133.26 321.58 -123.25 318.07 -133.25 325.07 -133.26"/><text x="426.04" y="-144.8" font-family="Times,serif" font-size="14" text-anchor="middle">षष्ठी-तत्पुरुषः</text></g><g id="node10" class="node"><title>Node5_1</title><ellipse cx="550.54" cy="-105" fill="#ff0" stroke="#ff0" rx="72.29" ry="18"/><text x="550.54" y="-101.3" font-family="Times,serif" font-size="14" text-anchor="middle">सत्य-(5.1)</text></g><g id="edge6" class="edge"><title>Node5_1-&gt;Node5_2</title><path fill="none" stroke="#000" d="M543.49,-133.27C540.04,-146.58 536,-162.19 532.99,-173.82"/><polygon fill="#000" stroke="#000" points="546.97 -133.76 546.09 -123.2 540.2 -132.01 546.97 -133.76"/><text x="612.04" y="-144.8" font-family="Times,serif" font-size="14" text-anchor="middle">बहुव्रीहिः</text></g><g id="node11" class="node"><title>Node6_1</title><ellipse cx="763.54" cy="-105" fill="#b4ffb4" stroke="#b4ffb4" rx="106.68" ry="18"/><text x="763.54" y="-101.3" font-family="Times,serif" font-size="14" text-anchor="middle">राज्यात्(6.1)</text></g><g id="edge8" class="edge"><title>Node6_1-&gt;Node8_1</title><path fill="none" stroke="#000" d="M777.94,-132.04C783.73,-140.62 791.05,-149.59 799.54,-156 810.98,-164.63 824.74,-171.28 838.25,-176.35"/><polygon fill="#000" stroke="#000" points="780.77 -129.96 772.48 -123.36 774.85 -133.69 780.77 -129.96"/><text x="857.04" y="-144.8" font-family="Times,serif" font-size="14" text-anchor="middle">अपादानम्</text></g><g id="node12" class="node"><title>Node7_1</title><ellipse cx="947.54" cy="-18" fill="#ff0" stroke="#ff0" rx="81.49" ry="18"/><text x="947.54" y="-14.3" font-family="Times,serif" font-size="14" text-anchor="middle">पूर्व-(7.1)</text></g><g id="node13" class="node"><title>Node7_2</title><ellipse cx="947.54" cy="-105" fill="#40e0d0" stroke="#40e0d0" rx="59.59" ry="18"/><text x="947.54" y="-101.3" font-family="Times,serif" font-size="14" text-anchor="middle">जेन(7.2)</text></g><g id="edge9" class="edge"><title>Node7_1-&gt;Node7_2</title><path fill="none" stroke="#000" d="M947.54,-46.27C947.54,-59.58 947.54,-75.19 947.54,-86.82"/><polygon fill="#000" stroke="#000" points="951.04 -46.2 947.54 -36.2 944.04 -46.2 951.04 -46.2"/><text x="1042.54" y="-57.8" font-family="Times,serif" font-size="14" text-anchor="middle">उपपद-तत्पुरुषः</text></g><g id="edge10" class="edge"><title>Node7_2-&gt;Node8_1</title><path fill="none" stroke="#000" d="M932.1,-131.74C923.89,-145.42 914.03,-161.86 906.77,-173.95"/><polygon fill="#000" stroke="#000" points="935.32 -133.17 937.47 -122.79 929.32 -129.57 935.32 -133.17"/><text x="960.54" y="-144.8" font-family="Times,serif" font-size="14" text-anchor="middle">हेतुः</text></g></g></svg>