<?xml version="1.0" encoding="UTF-8" standalone="no"?>
<!DOCTYPE svg PUBLIC "-//W3C//DTD SVG 1.1//EN"
 "http://www.w3.org/Graphics/SVG/1.1/DTD/svg11.dtd">
<!-- Generated by graphviz version 2.43.0 (0)
 -->
<!-- Title: G Pages: 1 -->
<svg width="1219pt" height="479pt"
 viewBox="0.00 0.00 1218.74 479.00" xmlns="http://www.w3.org/2000/svg" xmlns:xlink="http://www.w3.org/1999/xlink">
<g id="graph0" class="graph" transform="scale(1 1) rotate(0) translate(4 475)">
<title>G</title>
<polygon fill="#fffacd" stroke="transparent" points="-4,4 -4,-475 1214.74,-475 1214.74,4 -4,4"/>
<g id="clust1" class="cluster">
<title>cluster_1</title>
<polygon fill="#fffacd" stroke="black" points="972.74,-79 972.74,-218 1202.74,-218 1202.74,-79 972.74,-79"/>
</g>
<g id="clust2" class="cluster">
<title>cluster_2</title>
<polygon fill="#fffacd" stroke="black" points="624.74,-166 624.74,-305 964.74,-305 964.74,-166 624.74,-166"/>
</g>
<!-- Node5_2 -->
<g id="node1" class="node">
<title>Node5_2</title>
<ellipse fill="#c6e2eb" stroke="#c6e2eb" cx="1079.74" cy="-105" rx="87.99" ry="18"/>
<text text-anchor="middle" x="1079.74" y="-101.3" font-family="Times,serif" font-size="14.00">सत्तमे(5.2)</text>
</g>
<!-- Node4_1 -->
<g id="node2" class="node">
<title>Node4_1</title>
<ellipse fill="#c6e2eb" stroke="#c6e2eb" cx="1087.74" cy="-192" rx="106.68" ry="18"/>
<text text-anchor="middle" x="1087.74" y="-188.3" font-family="Times,serif" font-size="14.00">विन्ध्ये(4.1)</text>
</g>
<!-- Node5_2&#45;&gt;Node4_1 -->
<g id="edge6" class="edge">
<title>Node5_2&#45;&gt;Node4_1</title>
<path fill="none" stroke="black" d="M1082.31,-133.27C1083.56,-146.58 1085.03,-162.19 1086.13,-173.82"/>
<polygon fill="black" stroke="black" points="1085.78,-132.83 1081.36,-123.2 1078.81,-133.49 1085.78,-132.83"/>
<text text-anchor="middle" x="1141.24" y="-144.8" font-family="Times,serif" font-size="14.00">विशेषणम्</text>
</g>
<!-- Node3_1 -->
<g id="node4" class="node">
<title>Node3_1</title>
<ellipse fill="#87ceeb" stroke="#87ceeb" cx="794.74" cy="-279" rx="161.67" ry="18"/>
<text text-anchor="middle" x="794.74" y="-275.3" font-family="Times,serif" font-size="14.00">विप्रणष्टानाम्(3.1)</text>
</g>
<!-- Node4_1&#45;&gt;Node3_1 -->
<g id="edge4" class="edge">
<title>Node4_1&#45;&gt;Node3_1</title>
<path fill="none" stroke="black" d="M1026.9,-210.65C974.69,-225.8 900.1,-247.44 849.67,-262.07"/>
<polygon fill="black" stroke="black" points="1028.08,-213.95 1036.71,-207.81 1026.13,-207.23 1028.08,-213.95"/>
<text text-anchor="middle" x="1037.24" y="-231.8" font-family="Times,serif" font-size="14.00">देशाधिकरणम्</text>
</g>
<!-- Node7_2 -->
<g id="node3" class="node">
<title>Node7_2</title>
<ellipse fill="#87ceeb" stroke="#87ceeb" cx="794.74" cy="-192" rx="115.88" ry="18"/>
<text text-anchor="middle" x="794.74" y="-188.3" font-family="Times,serif" font-size="14.00">परीतानाम्(7.2)</text>
</g>
<!-- Node7_2&#45;&gt;Node3_1 -->
<g id="edge9" class="edge">
<title>Node7_2&#45;&gt;Node3_1</title>
<path fill="none" stroke="black" d="M794.74,-220.27C794.74,-233.58 794.74,-249.19 794.74,-260.82"/>
<polygon fill="black" stroke="black" points="798.24,-220.2 794.74,-210.2 791.24,-220.2 798.24,-220.2"/>
<text text-anchor="middle" x="852.24" y="-231.8" font-family="Times,serif" font-size="14.00">विशेषणम्</text>
</g>
<!-- Node8_2 -->
<g id="node6" class="node">
<title>Node8_2</title>
<ellipse fill="#00bfff" stroke="#00bfff" cx="400.74" cy="-366" rx="69.59" ry="18"/>
<text text-anchor="middle" x="400.74" y="-362.3" font-family="Times,serif" font-size="14.00">गणाः(8.2)</text>
</g>
<!-- Node3_1&#45;&gt;Node8_2 -->
<g id="edge3" class="edge">
<title>Node3_1&#45;&gt;Node8_2</title>
<path fill="none" stroke="black" d="M717.31,-297.61C674.2,-307.34 619.54,-319.53 570.74,-330 531.7,-338.37 487.54,-347.46 454.01,-354.27"/>
<polygon fill="black" stroke="black" points="718.19,-301.01 727.17,-295.39 716.65,-294.18 718.19,-301.01"/>
<text text-anchor="middle" x="730.74" y="-318.8" font-family="Times,serif" font-size="14.00">षष्ठीसम्बन्धः</text>
</g>
<!-- Node1_1 -->
<g id="node5" class="node">
<title>Node1_1</title>
<ellipse fill="#87ceeb" stroke="#87ceeb" cx="87.74" cy="-279" rx="87.99" ry="18"/>
<text text-anchor="middle" x="87.74" y="-275.3" font-family="Times,serif" font-size="14.00">तेषाम्(1.1)</text>
</g>
<!-- Node1_1&#45;&gt;Node8_2 -->
<g id="edge1" class="edge">
<title>Node1_1&#45;&gt;Node8_2</title>
<path fill="none" stroke="black" d="M90.14,-307.45C92.25,-315.86 96.03,-324.37 102.74,-330 136.26,-358.13 254.13,-364.41 331.19,-365.41"/>
<polygon fill="black" stroke="black" points="93.55,-306.65 88.32,-297.44 86.67,-307.9 93.55,-306.65"/>
<text text-anchor="middle" x="195.74" y="-318.8" font-family="Times,serif" font-size="14.00">षष्ठीसम्बन्धः</text>
</g>
<!-- Node9_1 -->
<g id="node12" class="node">
<title>Node9_1</title>
<ellipse fill="#00bfff" stroke="#00bfff" cx="400.74" cy="-453" rx="69.59" ry="18"/>
<text text-anchor="middle" x="400.74" y="-449.3" font-family="Times,serif" font-size="14.00">गताः(9.1)</text>
</g>
<!-- Node8_2&#45;&gt;Node9_1 -->
<g id="edge11" class="edge">
<title>Node8_2&#45;&gt;Node9_1</title>
<path fill="none" stroke="black" d="M400.74,-394.27C400.74,-407.58 400.74,-423.19 400.74,-434.82"/>
<polygon fill="black" stroke="black" points="404.24,-394.2 400.74,-384.2 397.24,-394.2 404.24,-394.2"/>
<text text-anchor="middle" x="436.74" y="-405.8" font-family="Times,serif" font-size="14.00">कर्ता</text>
</g>
<!-- Node2_1 -->
<g id="node7" class="node">
<title>Node2_1</title>
<ellipse fill="#87ceeb" stroke="#87ceeb" cx="296.74" cy="-279" rx="50.89" ry="18"/>
<text text-anchor="middle" x="296.74" y="-275.3" font-family="Times,serif" font-size="14.00">नः(2.1)</text>
</g>
<!-- Node2_1&#45;&gt;Node8_2 -->
<g id="edge2" class="edge">
<title>Node2_1&#45;&gt;Node8_2</title>
<path fill="none" stroke="black" d="M291.64,-307.39C291.58,-315.32 293.04,-323.57 297.74,-330 307.78,-343.72 323.49,-352.12 339.64,-357.24"/>
<polygon fill="black" stroke="black" points="295.14,-307.57 292.46,-297.32 288.16,-307 295.14,-307.57"/>
<text text-anchor="middle" x="390.74" y="-318.8" font-family="Times,serif" font-size="14.00">षष्ठीसम्बन्धः</text>
</g>
<!-- Node5_1 -->
<g id="node8" class="node">
<title>Node5_1</title>
<ellipse fill="#ffff00" stroke="#ffff00" cx="1079.74" cy="-18" rx="81.49" ry="18"/>
<text text-anchor="middle" x="1079.74" y="-14.3" font-family="Times,serif" font-size="14.00">पर्वत&#45;(5.1)</text>
</g>
<!-- Node5_1&#45;&gt;Node5_2 -->
<g id="edge5" class="edge">
<title>Node5_1&#45;&gt;Node5_2</title>
<path fill="none" stroke="black" d="M1079.74,-46.27C1079.74,-59.58 1079.74,-75.19 1079.74,-86.82"/>
<polygon fill="black" stroke="black" points="1083.24,-46.2 1079.74,-36.2 1076.24,-46.2 1083.24,-46.2"/>
<text text-anchor="middle" x="1115.74" y="-57.8" font-family="Times,serif" font-size="14.00">समासः</text>
</g>
<!-- Node6_1 -->
<g id="node9" class="node">
<title>Node6_1</title>
<ellipse fill="#93db70" stroke="#93db70" cx="683.74" cy="-105" rx="78.79" ry="18"/>
<text text-anchor="middle" x="683.74" y="-101.3" font-family="Times,serif" font-size="14.00">भृशम्(6.1)</text>
</g>
<!-- Node6_1&#45;&gt;Node7_2 -->
<g id="edge7" class="edge">
<title>Node6_1&#45;&gt;Node7_2</title>
<path fill="none" stroke="black" d="M685.92,-133.2C687.77,-141.35 691.04,-149.77 696.74,-156 705.28,-165.33 716.48,-172.17 728.24,-177.2"/>
<polygon fill="black" stroke="black" points="689.35,-132.49 684.26,-123.2 682.45,-133.64 689.35,-132.49"/>
<text text-anchor="middle" x="754.24" y="-144.8" font-family="Times,serif" font-size="14.00">सम्बन्धः</text>
</g>
<!-- Node7_1 -->
<g id="node10" class="node">
<title>Node7_1</title>
<ellipse fill="#ffff00" stroke="#ffff00" cx="843.74" cy="-105" rx="63.09" ry="18"/>
<text text-anchor="middle" x="843.74" y="-101.3" font-family="Times,serif" font-size="14.00">शोक&#45;(7.1)</text>
</g>
<!-- Node7_1&#45;&gt;Node7_2 -->
<g id="edge8" class="edge">
<title>Node7_1&#45;&gt;Node7_2</title>
<path fill="none" stroke="black" d="M828.91,-131.74C821.02,-145.42 811.54,-161.86 804.57,-173.95"/>
<polygon fill="black" stroke="black" points="832.1,-133.2 834.06,-122.79 826.03,-129.71 832.1,-133.2"/>
<text text-anchor="middle" x="857.74" y="-144.8" font-family="Times,serif" font-size="14.00">समासः</text>
</g>
<!-- Node8_1 -->
<g id="node11" class="node">
<title>Node8_1</title>
<ellipse fill="#ffff00" stroke="#ffff00" cx="505.74" cy="-279" rx="109.38" ry="18"/>
<text text-anchor="middle" x="505.74" y="-275.3" font-family="Times,serif" font-size="14.00">अहोरात्र&#45;(8.1)</text>
</g>
<!-- Node8_1&#45;&gt;Node8_2 -->
<g id="edge10" class="edge">
<title>Node8_1&#45;&gt;Node8_2</title>
<path fill="none" stroke="black" d="M498.34,-306.61C494.98,-314.93 490.25,-323.59 483.74,-330 473.6,-339.98 460.18,-347.29 447.1,-352.57"/>
<polygon fill="black" stroke="black" points="501.64,-307.76 501.68,-297.17 495.05,-305.43 501.64,-307.76"/>
<text text-anchor="middle" x="530.74" y="-318.8" font-family="Times,serif" font-size="14.00">समासः</text>
</g>
</g>
</svg>
