<?xml version="1.0" encoding="UTF-8" standalone="no"?>
<!DOCTYPE svg PUBLIC "-//W3C//DTD SVG 1.1//EN"
 "http://www.w3.org/Graphics/SVG/1.1/DTD/svg11.dtd">
<!-- Generated by graphviz version 2.43.0 (0)
 -->
<!-- Title: G Pages: 1 -->
<svg width="1393pt" height="479pt"
 viewBox="0.00 0.00 1392.59 479.00" xmlns="http://www.w3.org/2000/svg" xmlns:xlink="http://www.w3.org/1999/xlink">
<g id="graph0" class="graph" transform="scale(1 1) rotate(0) translate(4 475)">
<title>G</title>
<polygon fill="#fffacd" stroke="transparent" points="-4,4 -4,-475 1388.59,-475 1388.59,4 -4,4"/>
<g id="clust1" class="cluster">
<title>cluster_1</title>
<polygon fill="#fffacd" stroke="black" points="385.59,-253 385.59,-392 1231.59,-392 1231.59,-253 385.59,-253"/>
</g>
<g id="clust2" class="cluster">
<title>cluster_2</title>
<polygon fill="#fffacd" stroke="black" points="132.59,-166 132.59,-218 288.59,-218 288.59,-166 132.59,-166"/>
</g>
<!-- Node1_1 -->
<g id="node1" class="node">
<title>Node1_1</title>
<ellipse fill="#00bfff" stroke="#00bfff" cx="1089.59" cy="-279" rx="133.78" ry="18"/>
<text text-anchor="middle" x="1089.59" y="-275.3" font-family="Times,serif" font-size="14.00">अर्चिष्मान्(1.1)</text>
</g>
<!-- Node13_1 -->
<g id="node2" class="node">
<title>Node13_1</title>
<ellipse fill="#00bfff" stroke="#00bfff" cx="780.59" cy="-366" rx="63.89" ry="18"/>
<text text-anchor="middle" x="780.59" y="-362.3" font-family="Times,serif" font-size="14.00">[सः](13.1)</text>
</g>
<!-- Node1_1&#45;&gt;Node13_1 -->
<g id="edge1" class="edge">
<title>Node1_1&#45;&gt;Node13_1</title>
<path fill="none" stroke="black" d="M1045.75,-300.7C1023.11,-310.72 994.81,-322.23 968.59,-330 925.3,-342.82 874.95,-351.9 837.25,-357.59"/>
<polygon fill="black" stroke="black" points="1047.39,-303.8 1055.08,-296.52 1044.52,-297.42 1047.39,-303.8"/>
<text text-anchor="middle" x="1066.09" y="-318.8" font-family="Times,serif" font-size="14.00">विशेषणम्</text>
</g>
<!-- Node14_1 -->
<g id="node16" class="node">
<title>Node14_1</title>
<ellipse fill="#ff1975" stroke="#ff1975" cx="780.59" cy="-453" rx="90.98" ry="18"/>
<text text-anchor="middle" x="780.59" y="-449.3" font-family="Times,serif" font-size="14.00">[अस्ति](14.1)</text>
</g>
<!-- Node13_1&#45;&gt;Node14_1 -->
<g id="edge15" class="edge">
<title>Node13_1&#45;&gt;Node14_1</title>
<path fill="none" stroke="black" d="M780.59,-394.27C780.59,-407.58 780.59,-423.19 780.59,-434.82"/>
<polygon fill="black" stroke="black" points="784.09,-394.2 780.59,-384.2 777.09,-394.2 784.09,-394.2"/>
<text text-anchor="middle" x="816.59" y="-405.8" font-family="Times,serif" font-size="14.00">कर्ता</text>
</g>
<!-- Node2_1 -->
<g id="node3" class="node">
<title>Node2_1</title>
<ellipse fill="#ff99ff" stroke="#ff99ff" cx="490.59" cy="-279" rx="96.68" ry="18"/>
<text text-anchor="middle" x="490.59" y="-275.3" font-family="Times,serif" font-size="14.00">अर्चितः(2.1)</text>
</g>
<!-- Node2_1&#45;&gt;Node13_1 -->
<g id="edge2" class="edge">
<title>Node2_1&#45;&gt;Node13_1</title>
<path fill="none" stroke="black" d="M527.21,-301.2C545.94,-311.24 569.42,-322.62 591.59,-330 634.33,-344.23 684.56,-353.19 722.48,-358.47"/>
<polygon fill="black" stroke="black" points="528.88,-298.12 518.43,-296.4 525.53,-304.27 528.88,-298.12"/>
<text text-anchor="middle" x="649.09" y="-318.8" font-family="Times,serif" font-size="14.00">विशेषणम्</text>
</g>
<!-- Node6_1 -->
<g id="node4" class="node">
<title>Node6_1</title>
<ellipse fill="#00bfff" stroke="#00bfff" cx="693.59" cy="-279" rx="87.99" ry="18"/>
<text text-anchor="middle" x="693.59" y="-275.3" font-family="Times,serif" font-size="14.00">स्थितः(6.1)</text>
</g>
<!-- Node6_1&#45;&gt;Node13_1 -->
<g id="edge7" class="edge">
<title>Node6_1&#45;&gt;Node13_1</title>
<path fill="none" stroke="black" d="M704.93,-306.19C709.33,-314.44 714.93,-323.17 721.59,-330 729.41,-338.01 739.44,-344.86 749,-350.32"/>
<polygon fill="black" stroke="black" points="708.06,-304.62 700.48,-297.21 701.78,-307.73 708.06,-304.62"/>
<text text-anchor="middle" x="779.09" y="-318.8" font-family="Times,serif" font-size="14.00">विशेषणम्</text>
</g>
<!-- Node9_2 -->
<g id="node5" class="node">
<title>Node9_2</title>
<ellipse fill="#00bfff" stroke="#00bfff" cx="868.59" cy="-279" rx="69.59" ry="18"/>
<text text-anchor="middle" x="868.59" y="-275.3" font-family="Times,serif" font-size="14.00">ज्ञः(9.2)</text>
</g>
<!-- Node9_2&#45;&gt;Node13_1 -->
<g id="edge12" class="edge">
<title>Node9_2&#45;&gt;Node13_1</title>
<path fill="none" stroke="black" d="M855.11,-305.78C850,-314.1 843.69,-322.97 836.59,-330 828.85,-337.66 819.14,-344.45 809.99,-349.97"/>
<polygon fill="black" stroke="black" points="858.16,-307.5 860.15,-297.09 852.1,-303.99 858.16,-307.5"/>
<text text-anchor="middle" x="907.09" y="-318.8" font-family="Times,serif" font-size="14.00">विशेषणम्</text>
</g>
<!-- Node8_2 -->
<g id="node6" class="node">
<title>Node8_2</title>
<ellipse fill="#00bfff" stroke="#00bfff" cx="210.59" cy="-192" rx="69.59" ry="18"/>
<text text-anchor="middle" x="210.59" y="-188.3" font-family="Times,serif" font-size="14.00">ज्ञः(8.2)</text>
</g>
<!-- Node8_2&#45;&gt;Node9_2 -->
<g id="edge10" class="edge">
<title>Node8_2&#45;&gt;Node9_2</title>
<path fill="none" stroke="black" d="M257.93,-210.4C267.93,-213.45 278.51,-216.21 288.59,-218 341.37,-227.38 479.33,-209.37 529.59,-228 539.68,-231.74 538.5,-239.26 548.59,-243 599.06,-261.7 737.6,-243.59 790.59,-253 804.03,-255.39 818.36,-259.5 831.02,-263.71"/>
<polygon fill="black" stroke="black" points="258.75,-206.99 248.16,-207.29 256.63,-213.66 258.75,-206.99"/>
<text text-anchor="middle" x="613.09" y="-231.8" font-family="Times,serif" font-size="14.00">समुच्चितः</text>
</g>
<!-- Node4_1 -->
<g id="node7" class="node">
<title>Node4_1</title>
<ellipse fill="#93db70" stroke="#93db70" cx="413.59" cy="-192" rx="115.88" ry="18"/>
<text text-anchor="middle" x="413.59" y="-188.3" font-family="Times,serif" font-size="14.00">अत्यर्थम्(4.1)</text>
</g>
<!-- Node4_1&#45;&gt;Node2_1 -->
<g id="edge3" class="edge">
<title>Node4_1&#45;&gt;Node2_1</title>
<path fill="none" stroke="black" d="M408.91,-220.1C408.86,-228.02 410.23,-236.33 414.59,-243 420.48,-251.99 429.31,-258.71 438.9,-263.72"/>
<polygon fill="black" stroke="black" points="412.4,-220.31 409.65,-210.08 405.42,-219.79 412.4,-220.31"/>
<text text-anchor="middle" x="472.09" y="-231.8" font-family="Times,serif" font-size="14.00">सम्बन्धः</text>
</g>
<!-- Node5_1 -->
<g id="node8" class="node">
<title>Node5_1</title>
<ellipse fill="#ffff00" stroke="#ffff00" cx="650.59" cy="-18" rx="90.98" ry="18"/>
<text text-anchor="middle" x="650.59" y="-14.3" font-family="Times,serif" font-size="14.00">ब्रह्म&#45;(5.1)</text>
</g>
<!-- Node5_2 -->
<g id="node9" class="node">
<title>Node5_2</title>
<ellipse fill="#ffff00" stroke="#ffff00" cx="650.59" cy="-105" rx="72.29" ry="18"/>
<text text-anchor="middle" x="650.59" y="-101.3" font-family="Times,serif" font-size="14.00">चर्य&#45;(5.2)</text>
</g>
<!-- Node5_1&#45;&gt;Node5_2 -->
<g id="edge4" class="edge">
<title>Node5_1&#45;&gt;Node5_2</title>
<path fill="none" stroke="black" d="M650.59,-46.27C650.59,-59.58 650.59,-75.19 650.59,-86.82"/>
<polygon fill="black" stroke="black" points="654.09,-46.2 650.59,-36.2 647.09,-46.2 654.09,-46.2"/>
<text text-anchor="middle" x="686.59" y="-57.8" font-family="Times,serif" font-size="14.00">समासः</text>
</g>
<!-- Node5_3 -->
<g id="node10" class="node">
<title>Node5_3</title>
<ellipse fill="#c6e2eb" stroke="#c6e2eb" cx="650.59" cy="-192" rx="78.79" ry="18"/>
<text text-anchor="middle" x="650.59" y="-188.3" font-family="Times,serif" font-size="14.00">व्रते(5.3)</text>
</g>
<!-- Node5_2&#45;&gt;Node5_3 -->
<g id="edge5" class="edge">
<title>Node5_2&#45;&gt;Node5_3</title>
<path fill="none" stroke="black" d="M650.59,-133.27C650.59,-146.58 650.59,-162.19 650.59,-173.82"/>
<polygon fill="black" stroke="black" points="654.09,-133.2 650.59,-123.2 647.09,-133.2 654.09,-133.2"/>
<text text-anchor="middle" x="686.59" y="-144.8" font-family="Times,serif" font-size="14.00">समासः</text>
</g>
<!-- Node5_3&#45;&gt;Node6_1 -->
<g id="edge6" class="edge">
<title>Node5_3&#45;&gt;Node6_1</title>
<path fill="none" stroke="black" d="M674.98,-217.68C677.46,-220.98 679.74,-224.46 681.59,-228 686.87,-238.13 689.87,-250.63 691.55,-260.6"/>
<polygon fill="black" stroke="black" points="677.61,-215.36 668.53,-209.89 672.21,-219.83 677.61,-215.36"/>
<text text-anchor="middle" x="745.09" y="-231.8" font-family="Times,serif" font-size="14.00">अधिकरणम्</text>
</g>
<!-- Node7_1 -->
<g id="node11" class="node">
<title>Node7_1</title>
<ellipse fill="#87ceeb" stroke="#87ceeb" cx="106.59" cy="-105" rx="106.68" ry="18"/>
<text text-anchor="middle" x="106.59" y="-101.3" font-family="Times,serif" font-size="14.00">साधूनाम्(7.1)</text>
</g>
<!-- Node7_1&#45;&gt;Node8_2 -->
<g id="edge8" class="edge">
<title>Node7_1&#45;&gt;Node8_2</title>
<path fill="none" stroke="black" d="M101.49,-133.39C101.43,-141.32 102.89,-149.57 107.59,-156 117.63,-169.72 133.34,-178.12 149.49,-183.24"/>
<polygon fill="black" stroke="black" points="104.99,-133.57 102.3,-123.32 98.01,-133 104.99,-133.57"/>
<text text-anchor="middle" x="200.59" y="-144.8" font-family="Times,serif" font-size="14.00">षष्ठीसम्बन्धः</text>
</g>
<!-- Node8_1 -->
<g id="node12" class="node">
<title>Node8_1</title>
<ellipse fill="#ffff00" stroke="#ffff00" cx="315.59" cy="-105" rx="81.49" ry="18"/>
<text text-anchor="middle" x="315.59" y="-101.3" font-family="Times,serif" font-size="14.00">उपकार&#45;(8.1)</text>
</g>
<!-- Node8_1&#45;&gt;Node8_2 -->
<g id="edge9" class="edge">
<title>Node8_1&#45;&gt;Node8_2</title>
<path fill="none" stroke="black" d="M308.19,-132.61C304.82,-140.93 300.1,-149.59 293.59,-156 283.45,-165.98 270.03,-173.29 256.95,-178.57"/>
<polygon fill="black" stroke="black" points="311.49,-133.76 311.53,-123.17 304.89,-131.43 311.49,-133.76"/>
<text text-anchor="middle" x="340.59" y="-144.8" font-family="Times,serif" font-size="14.00">समासः</text>
</g>
<!-- Node9_1 -->
<g id="node13" class="node">
<title>Node9_1</title>
<ellipse fill="#ffff00" stroke="#ffff00" cx="1080.59" cy="-192" rx="90.98" ry="18"/>
<text text-anchor="middle" x="1080.59" y="-188.3" font-family="Times,serif" font-size="14.00">प्रचार&#45;(9.1)</text>
</g>
<!-- Node9_1&#45;&gt;Node9_2 -->
<g id="edge11" class="edge">
<title>Node9_1&#45;&gt;Node9_2</title>
<path fill="none" stroke="black" d="M1073.01,-219.9C1069.2,-228.65 1063.63,-237.51 1055.59,-243 1035.51,-256.72 970.43,-248.15 946.59,-253 933.49,-255.67 919.5,-259.75 907.03,-263.84"/>
<polygon fill="black" stroke="black" points="1076.39,-220.85 1076.6,-210.26 1069.83,-218.41 1076.39,-220.85"/>
<text text-anchor="middle" x="1103.59" y="-231.8" font-family="Times,serif" font-size="14.00">समासः</text>
</g>
<!-- Node10_1 -->
<g id="node14" class="node">
<title>Node10_1</title>
<ellipse fill="#ff99ff" stroke="#ff99ff" cx="1236.59" cy="-192" rx="47.39" ry="18"/>
<text text-anchor="middle" x="1236.59" y="-188.3" font-family="Times,serif" font-size="14.00">च(10.1)</text>
</g>
<!-- Node10_1&#45;&gt;Node9_2 -->
<g id="edge13" class="edge">
<title>Node10_1&#45;&gt;Node9_2</title>
<path fill="none" stroke="black" d="M1206.23,-213.78C1188.73,-224.58 1165.84,-236.79 1143.59,-243 1059.15,-266.55 1032.84,-237.27 946.59,-253 933.16,-255.45 918.83,-259.58 906.17,-263.78"/>
<polygon fill="black" stroke="black" points="1208.29,-216.61 1214.85,-208.3 1204.54,-210.7 1208.29,-216.61"/>
<text text-anchor="middle" x="1281.09" y="-231.8" font-family="Times,serif" font-size="14.00">समुच्चय_द्योतकः</text>
</g>
<!-- Node11_1 -->
<g id="node15" class="node">
<title>Node11_1</title>
<ellipse fill="#87ceeb" stroke="#87ceeb" cx="859.59" cy="-192" rx="112.38" ry="18"/>
<text text-anchor="middle" x="859.59" y="-188.3" font-family="Times,serif" font-size="14.00">कर्मणाम्(11.1)</text>
</g>
<!-- Node11_1&#45;&gt;Node9_2 -->
<g id="edge14" class="edge">
<title>Node11_1&#45;&gt;Node9_2</title>
<path fill="none" stroke="black" d="M862.48,-220.27C863.89,-233.58 865.54,-249.19 866.77,-260.82"/>
<polygon fill="black" stroke="black" points="865.95,-219.78 861.41,-210.2 858.98,-220.51 865.95,-219.78"/>
<text text-anchor="middle" x="958.59" y="-231.8" font-family="Times,serif" font-size="14.00">षष्ठीसम्बन्धः</text>
</g>
</g>
</svg>
