<?xml version="1.0" encoding="UTF-8" standalone="no"?>
<!DOCTYPE svg PUBLIC "-//W3C//DTD SVG 1.1//EN"
 "http://www.w3.org/Graphics/SVG/1.1/DTD/svg11.dtd">
<!-- Generated by graphviz version 2.43.0 (0)
 -->
<!-- Title: G Pages: 1 -->
<svg width="1350pt" height="479pt"
 viewBox="0.00 0.00 1349.74 479.00" xmlns="http://www.w3.org/2000/svg" xmlns:xlink="http://www.w3.org/1999/xlink">
<g id="graph0" class="graph" transform="scale(1 1) rotate(0) translate(4 475)">
<title>G</title>
<polygon fill="#fffacd" stroke="transparent" points="-4,4 -4,-475 1345.74,-475 1345.74,4 -4,4"/>
<g id="clust1" class="cluster">
<title>cluster_1</title>
<polygon fill="#fffacd" stroke="black" points="835,-166 835,-305 1027,-305 1027,-166 835,-166"/>
</g>
<g id="clust2" class="cluster">
<title>cluster_2</title>
<polygon fill="#fffacd" stroke="black" points="218,-253 218,-392 808,-392 808,-253 218,-253"/>
</g>
<g id="clust3" class="cluster">
<title>cluster_3</title>
<polygon fill="#fffacd" stroke="black" points="8,-166 8,-218 238,-218 238,-166 8,-166"/>
</g>
<!-- Node3_1 -->
<g id="node1" class="node">
<title>Node3_1</title>
<ellipse fill="#00bfff" stroke="#00bfff" cx="931" cy="-192" rx="87.99" ry="18"/>
<text text-anchor="middle" x="931" y="-188.3" font-family="Times,serif" font-size="14.00">विनीतः(3.1)</text>
</g>
<!-- Node6_1 -->
<g id="node2" class="node">
<title>Node6_1</title>
<ellipse fill="#00bfff" stroke="#00bfff" cx="931" cy="-279" rx="87.99" ry="18"/>
<text text-anchor="middle" x="931" y="-275.3" font-family="Times,serif" font-size="14.00">उपासकः(6.1)</text>
</g>
<!-- Node3_1&#45;&gt;Node6_1 -->
<g id="edge4" class="edge">
<title>Node3_1&#45;&gt;Node6_1</title>
<path fill="none" stroke="black" d="M931,-220.27C931,-233.58 931,-249.19 931,-260.82"/>
<polygon fill="black" stroke="black" points="934.5,-220.2 931,-210.2 927.5,-220.2 934.5,-220.2"/>
<text text-anchor="middle" x="995.5" y="-231.8" font-family="Times,serif" font-size="14.00">समुच्चितः</text>
</g>
<!-- Node1_1 -->
<g id="node3" class="node">
<title>Node1_1</title>
<ellipse fill="#00bfff" stroke="#00bfff" cx="584" cy="-366" rx="57.69" ry="18"/>
<text text-anchor="middle" x="584" y="-362.3" font-family="Times,serif" font-size="14.00">[सः](1.1)</text>
</g>
<!-- Node6_1&#45;&gt;Node1_1 -->
<g id="edge7" class="edge">
<title>Node6_1&#45;&gt;Node1_1</title>
<path fill="none" stroke="black" d="M880.87,-298.45C851.49,-308.78 813.48,-321.28 779,-330 730.98,-342.14 675.29,-351.7 635.74,-357.74"/>
<polygon fill="black" stroke="black" points="882.23,-301.69 890.49,-295.05 879.9,-295.09 882.23,-301.69"/>
<text text-anchor="middle" x="886.5" y="-318.8" font-family="Times,serif" font-size="14.00">विशेषणम्</text>
</g>
<!-- Node13_1 -->
<g id="node8" class="node">
<title>Node13_1</title>
<ellipse fill="#ff1975" stroke="#ff1975" cx="584" cy="-453" rx="90.98" ry="18"/>
<text text-anchor="middle" x="584" y="-449.3" font-family="Times,serif" font-size="14.00">[अस्ति](13.1)</text>
</g>
<!-- Node1_1&#45;&gt;Node13_1 -->
<g id="edge1" class="edge">
<title>Node1_1&#45;&gt;Node13_1</title>
<path fill="none" stroke="black" d="M584,-394.27C584,-407.58 584,-423.19 584,-434.82"/>
<polygon fill="black" stroke="black" points="587.5,-394.2 584,-384.2 580.5,-394.2 587.5,-394.2"/>
<text text-anchor="middle" x="620" y="-405.8" font-family="Times,serif" font-size="14.00">कर्ता</text>
</g>
<!-- Node7_1 -->
<g id="node4" class="node">
<title>Node7_1</title>
<ellipse fill="#00bfff" stroke="#00bfff" cx="684" cy="-279" rx="115.88" ry="18"/>
<text text-anchor="middle" x="684" y="-275.3" font-family="Times,serif" font-size="14.00">ज्ञानवान्(7.1)</text>
</g>
<!-- Node7_1&#45;&gt;Node1_1 -->
<g id="edge8" class="edge">
<title>Node7_1&#45;&gt;Node1_1</title>
<path fill="none" stroke="black" d="M667.64,-305.61C661.5,-314.01 654.05,-322.98 646,-330 636.78,-338.05 625.42,-345.1 614.95,-350.73"/>
<polygon fill="black" stroke="black" points="670.67,-307.37 673.52,-297.17 664.93,-303.37 670.67,-307.37"/>
<text text-anchor="middle" x="717.5" y="-318.8" font-family="Times,serif" font-size="14.00">विशेषणम्</text>
</g>
<!-- Node9_1 -->
<g id="node5" class="node">
<title>Node9_1</title>
<ellipse fill="#00bfff" stroke="#00bfff" cx="314" cy="-279" rx="87.99" ry="18"/>
<text text-anchor="middle" x="314" y="-275.3" font-family="Times,serif" font-size="14.00">विनीतः(9.1)</text>
</g>
<!-- Node9_1&#45;&gt;Node1_1 -->
<g id="edge11" class="edge">
<title>Node9_1&#45;&gt;Node1_1</title>
<path fill="none" stroke="black" d="M344.88,-302.23C359.95,-312.11 378.73,-323.05 397,-330 439.91,-346.33 491.35,-355.24 529.41,-359.98"/>
<polygon fill="black" stroke="black" points="346.72,-299.25 336.47,-296.57 342.81,-305.06 346.72,-299.25"/>
<text text-anchor="middle" x="454.5" y="-318.8" font-family="Times,serif" font-size="14.00">विशेषणम्</text>
</g>
<!-- Node12_1 -->
<g id="node6" class="node">
<title>Node12_1</title>
<ellipse fill="#00bfff" stroke="#00bfff" cx="485" cy="-279" rx="65.79" ry="18"/>
<text text-anchor="middle" x="485" y="-275.3" font-family="Times,serif" font-size="14.00">तपः(12.1)</text>
</g>
<!-- Node12_1&#45;&gt;Node1_1 -->
<g id="edge14" class="edge">
<title>Node12_1&#45;&gt;Node1_1</title>
<path fill="none" stroke="black" d="M505.18,-304.28C512.84,-312.85 521.92,-322.27 531,-330 539.4,-337.15 549.32,-344.05 558.3,-349.81"/>
<polygon fill="black" stroke="black" points="507.79,-301.95 498.58,-296.72 502.52,-306.56 507.79,-301.95"/>
<text text-anchor="middle" x="588.5" y="-318.8" font-family="Times,serif" font-size="14.00">विशेषणम्</text>
</g>
<!-- Node8_2 -->
<g id="node7" class="node">
<title>Node8_2</title>
<ellipse fill="#00bfff" stroke="#00bfff" cx="123" cy="-192" rx="106.68" ry="18"/>
<text text-anchor="middle" x="123" y="-188.3" font-family="Times,serif" font-size="14.00">सम्पन्नः(8.2)</text>
</g>
<!-- Node8_2&#45;&gt;Node9_1 -->
<g id="edge10" class="edge">
<title>Node8_2&#45;&gt;Node9_1</title>
<path fill="none" stroke="black" d="M137.05,-218.97C143.03,-227.82 150.78,-236.98 160,-243 182.15,-257.47 209.49,-266 234.95,-271.02"/>
<polygon fill="black" stroke="black" points="139.93,-216.99 131.66,-210.37 134,-220.7 139.93,-216.99"/>
<text text-anchor="middle" x="224.5" y="-231.8" font-family="Times,serif" font-size="14.00">समुच्चितः</text>
</g>
<!-- Node2_1 -->
<g id="node9" class="node">
<title>Node2_1</title>
<ellipse fill="#ffff00" stroke="#ffff00" cx="931" cy="-18" rx="63.09" ry="18"/>
<text text-anchor="middle" x="931" y="-14.3" font-family="Times,serif" font-size="14.00">राज&#45;(2.1)</text>
</g>
<!-- Node2_2 -->
<g id="node10" class="node">
<title>Node2_2</title>
<ellipse fill="#c6e2eb" stroke="#c6e2eb" cx="931" cy="-105" rx="106.68" ry="18"/>
<text text-anchor="middle" x="931" y="-101.3" font-family="Times,serif" font-size="14.00">नीत्याम्(2.2)</text>
</g>
<!-- Node2_1&#45;&gt;Node2_2 -->
<g id="edge2" class="edge">
<title>Node2_1&#45;&gt;Node2_2</title>
<path fill="none" stroke="black" d="M931,-46.27C931,-59.58 931,-75.19 931,-86.82"/>
<polygon fill="black" stroke="black" points="934.5,-46.2 931,-36.2 927.5,-46.2 934.5,-46.2"/>
<text text-anchor="middle" x="967" y="-57.8" font-family="Times,serif" font-size="14.00">समासः</text>
</g>
<!-- Node2_2&#45;&gt;Node3_1 -->
<g id="edge3" class="edge">
<title>Node2_2&#45;&gt;Node3_1</title>
<path fill="none" stroke="black" d="M931,-133.27C931,-146.58 931,-162.19 931,-173.82"/>
<polygon fill="black" stroke="black" points="934.5,-133.2 931,-123.2 927.5,-133.2 934.5,-133.2"/>
<text text-anchor="middle" x="988.5" y="-144.8" font-family="Times,serif" font-size="14.00">अधिकरणम्</text>
</g>
<!-- Node4_1 -->
<g id="node11" class="node">
<title>Node4_1</title>
<ellipse fill="#ff99ff" stroke="#ff99ff" cx="660" cy="-192" rx="41.69" ry="18"/>
<text text-anchor="middle" x="660" y="-188.3" font-family="Times,serif" font-size="14.00">च(4.1)</text>
</g>
<!-- Node4_1&#45;&gt;Node6_1 -->
<g id="edge5" class="edge">
<title>Node4_1&#45;&gt;Node6_1</title>
<path fill="none" stroke="black" d="M681.25,-216.02C691.87,-226.03 705.54,-236.86 720,-243 757.86,-259.07 771.38,-246.54 812,-253 832.74,-256.3 855.34,-260.81 875.21,-265.09"/>
<polygon fill="black" stroke="black" points="683.66,-213.48 674.08,-208.96 678.75,-218.47 683.66,-213.48"/>
<text text-anchor="middle" x="823.5" y="-231.8" font-family="Times,serif" font-size="14.00">समुच्चय_द्योतकः</text>
</g>
<!-- Node5_1 -->
<g id="node12" class="node">
<title>Node5_1</title>
<ellipse fill="#87ceeb" stroke="#87ceeb" cx="1189" cy="-192" rx="152.97" ry="18"/>
<text text-anchor="middle" x="1189" y="-188.3" font-family="Times,serif" font-size="14.00">ब्राह्मणानाम्(5.1)</text>
</g>
<!-- Node5_1&#45;&gt;Node6_1 -->
<g id="edge6" class="edge">
<title>Node5_1&#45;&gt;Node6_1</title>
<path fill="none" stroke="black" d="M1141.89,-213.44C1118.68,-223.1 1090.14,-234.37 1064,-243 1038.83,-251.31 1010.49,-258.99 986.45,-265.03"/>
<polygon fill="black" stroke="black" points="1143.29,-216.65 1151.15,-209.55 1140.58,-210.19 1143.29,-216.65"/>
<text text-anchor="middle" x="1195" y="-231.8" font-family="Times,serif" font-size="14.00">षष्ठीसम्बन्धः</text>
</g>
<!-- Node8_1 -->
<g id="node13" class="node">
<title>Node8_1</title>
<ellipse fill="#ffff00" stroke="#ffff00" cx="123" cy="-105" rx="63.09" ry="18"/>
<text text-anchor="middle" x="123" y="-101.3" font-family="Times,serif" font-size="14.00">शील&#45;(8.1)</text>
</g>
<!-- Node8_1&#45;&gt;Node8_2 -->
<g id="edge9" class="edge">
<title>Node8_1&#45;&gt;Node8_2</title>
<path fill="none" stroke="black" d="M123,-133.27C123,-146.58 123,-162.19 123,-173.82"/>
<polygon fill="black" stroke="black" points="126.5,-133.2 123,-123.2 119.5,-133.2 126.5,-133.2"/>
<text text-anchor="middle" x="159" y="-144.8" font-family="Times,serif" font-size="14.00">समासः</text>
</g>
<!-- Node10_1 -->
<g id="node14" class="node">
<title>Node10_1</title>
<ellipse fill="#ff99ff" stroke="#ff99ff" cx="295" cy="-192" rx="47.39" ry="18"/>
<text text-anchor="middle" x="295" y="-188.3" font-family="Times,serif" font-size="14.00">च(10.1)</text>
</g>
<!-- Node10_1&#45;&gt;Node9_1 -->
<g id="edge12" class="edge">
<title>Node10_1&#45;&gt;Node9_1</title>
<path fill="none" stroke="black" d="M293.32,-220.64C293.48,-227.99 294.2,-235.87 296,-243 297.54,-249.09 300.3,-255.33 303.2,-260.82"/>
<polygon fill="black" stroke="black" points="296.83,-220.42 293.44,-210.38 289.83,-220.34 296.83,-220.42"/>
<text text-anchor="middle" x="399.5" y="-231.8" font-family="Times,serif" font-size="14.00">समुच्चय_द्योतकः</text>
</g>
<!-- Node11_1 -->
<g id="node15" class="node">
<title>Node11_1</title>
<ellipse fill="#ffff00" stroke="#ffff00" cx="525" cy="-192" rx="75.29" ry="18"/>
<text text-anchor="middle" x="525" y="-188.3" font-family="Times,serif" font-size="14.00">परम्(11.1)</text>
</g>
<!-- Node11_1&#45;&gt;Node12_1 -->
<g id="edge13" class="edge">
<title>Node11_1&#45;&gt;Node12_1</title>
<path fill="none" stroke="black" d="M513.72,-219.45C510.36,-227.09 506.61,-235.42 503,-243 500.18,-248.92 496.94,-255.32 494,-261.01"/>
<polygon fill="black" stroke="black" points="516.94,-220.81 517.72,-210.24 510.52,-218.02 516.94,-220.81"/>
<text text-anchor="middle" x="545" y="-231.8" font-family="Times,serif" font-size="14.00">समासः</text>
</g>
</g>
</svg>
