<?xml version="1.0" encoding="UTF-8" standalone="no"?>
<!DOCTYPE svg PUBLIC "-//W3C//DTD SVG 1.1//EN"
 "http://www.w3.org/Graphics/SVG/1.1/DTD/svg11.dtd">
<!-- Generated by graphviz version 2.43.0 (0)
 -->
<!-- Title: G Pages: 1 -->
<svg width="1183pt" height="479pt"
 viewBox="0.00 0.00 1183.00 479.00" xmlns="http://www.w3.org/2000/svg" xmlns:xlink="http://www.w3.org/1999/xlink">
<g id="graph0" class="graph" transform="scale(1 1) rotate(0) translate(4 475)">
<title>G</title>
<polygon fill="#fffacd" stroke="transparent" points="-4,4 -4,-475 1179,-475 1179,4 -4,4"/>
<g id="clust1" class="cluster">
<title>cluster_1</title>
<polygon fill="#fffacd" stroke="black" points="8,-253 8,-392 1167,-392 1167,-253 8,-253"/>
</g>
<!-- Node2_1 -->
<g id="node1" class="node">
<title>Node2_1</title>
<ellipse fill="#ff99ff" stroke="#ff99ff" cx="1099" cy="-279" rx="59.59" ry="18"/>
<text text-anchor="middle" x="1099" y="-275.3" font-family="Times,serif" font-size="14.00">नाम(2.1)</text>
</g>
<!-- Node1_1 -->
<g id="node2" class="node">
<title>Node1_1</title>
<ellipse fill="#00bfff" stroke="#00bfff" cx="540" cy="-366" rx="87.99" ry="18"/>
<text text-anchor="middle" x="540" y="-362.3" font-family="Times,serif" font-size="14.00">अङ्गदः(1.1)</text>
</g>
<!-- Node2_1&#45;&gt;Node1_1 -->
<g id="edge2" class="edge">
<title>Node2_1&#45;&gt;Node1_1</title>
<path fill="none" stroke="black" d="M1049.32,-295.36C1011.05,-306.62 956.64,-321.38 908,-330 811.47,-347.11 699.12,-356.26 624.19,-360.86"/>
<polygon fill="black" stroke="black" points="1050.58,-298.64 1059.17,-292.44 1048.59,-291.93 1050.58,-298.64"/>
<text text-anchor="middle" x="1033.5" y="-318.8" font-family="Times,serif" font-size="14.00">विशेषणम्</text>
</g>
<!-- Node6_1 -->
<g id="node8" class="node">
<title>Node6_1</title>
<ellipse fill="#00bfff" stroke="#00bfff" cx="540" cy="-453" rx="115.88" ry="18"/>
<text text-anchor="middle" x="540" y="-449.3" font-family="Times,serif" font-size="14.00">प्रस्थितः(6.1)</text>
</g>
<!-- Node1_1&#45;&gt;Node6_1 -->
<g id="edge1" class="edge">
<title>Node1_1&#45;&gt;Node6_1</title>
<path fill="none" stroke="black" d="M540,-394.27C540,-407.58 540,-423.19 540,-434.82"/>
<polygon fill="black" stroke="black" points="543.5,-394.2 540,-384.2 536.5,-394.2 543.5,-394.2"/>
<text text-anchor="middle" x="576" y="-405.8" font-family="Times,serif" font-size="14.00">कर्ता</text>
</g>
<!-- Node3_1 -->
<g id="node3" class="node">
<title>Node3_1</title>
<ellipse fill="#00bfff" stroke="#00bfff" cx="887" cy="-279" rx="133.78" ry="18"/>
<text text-anchor="middle" x="887" y="-275.3" font-family="Times,serif" font-size="14.00">लक्ष्मीवान्(3.1)</text>
</g>
<!-- Node3_1&#45;&gt;Node1_1 -->
<g id="edge3" class="edge">
<title>Node3_1&#45;&gt;Node1_1</title>
<path fill="none" stroke="black" d="M835.51,-299.7C807.57,-309.83 772.24,-321.75 740,-330 697.65,-340.84 649.41,-349.39 610.91,-355.32"/>
<polygon fill="black" stroke="black" points="836.88,-302.92 845.07,-296.2 834.47,-296.35 836.88,-302.92"/>
<text text-anchor="middle" x="846.5" y="-318.8" font-family="Times,serif" font-size="14.00">विशेषणम्</text>
</g>
<!-- Node4_2 -->
<g id="node4" class="node">
<title>Node4_2</title>
<ellipse fill="#00bfff" stroke="#00bfff" cx="95" cy="-279" rx="78.79" ry="18"/>
<text text-anchor="middle" x="95" y="-275.3" font-family="Times,serif" font-size="14.00">सूनुः(4.2)</text>
</g>
<!-- Node4_2&#45;&gt;Node1_1 -->
<g id="edge5" class="edge">
<title>Node4_2&#45;&gt;Node1_1</title>
<path fill="none" stroke="black" d="M131.36,-300.91C151.29,-311.39 176.8,-323.26 201,-330 284.35,-353.23 383.11,-361.34 452.46,-364.03"/>
<polygon fill="black" stroke="black" points="132.81,-297.71 122.34,-296.06 129.49,-303.88 132.81,-297.71"/>
<text text-anchor="middle" x="258.5" y="-318.8" font-family="Times,serif" font-size="14.00">विशेषणम्</text>
</g>
<!-- Node5_2 -->
<g id="node5" class="node">
<title>Node5_2</title>
<ellipse fill="#00bfff" stroke="#00bfff" cx="251" cy="-279" rx="59.59" ry="18"/>
<text text-anchor="middle" x="251" y="-275.3" font-family="Times,serif" font-size="14.00">बलः(5.2)</text>
</g>
<!-- Node5_2&#45;&gt;Node1_1 -->
<g id="edge7" class="edge">
<title>Node5_2&#45;&gt;Node1_1</title>
<path fill="none" stroke="black" d="M286.46,-299.91C306.14,-310.21 331.34,-322.22 355,-330 391.18,-341.89 432.74,-350.21 467.3,-355.74"/>
<polygon fill="black" stroke="black" points="288.03,-296.78 277.56,-295.16 284.74,-302.96 288.03,-296.78"/>
<text text-anchor="middle" x="412.5" y="-318.8" font-family="Times,serif" font-size="14.00">विशेषणम्</text>
</g>
<!-- Node7_2 -->
<g id="node6" class="node">
<title>Node7_2</title>
<ellipse fill="#00bfff" stroke="#00bfff" cx="435" cy="-279" rx="106.68" ry="18"/>
<text text-anchor="middle" x="435" y="-275.3" font-family="Times,serif" font-size="14.00">शार्दूलः(7.2)</text>
</g>
<!-- Node7_2&#45;&gt;Node1_1 -->
<g id="edge9" class="edge">
<title>Node7_2&#45;&gt;Node1_1</title>
<path fill="none" stroke="black" d="M460.7,-304C470.05,-312.45 480.82,-321.86 491,-330 498.84,-336.27 507.69,-342.76 515.69,-348.42"/>
<polygon fill="black" stroke="black" points="462.97,-301.34 453.23,-297.19 458.26,-306.51 462.97,-301.34"/>
<text text-anchor="middle" x="548.5" y="-318.8" font-family="Times,serif" font-size="14.00">विशेषणम्</text>
</g>
<!-- Node8_4 -->
<g id="node7" class="node">
<title>Node8_4</title>
<ellipse fill="#93db70" stroke="#93db70" cx="647" cy="-279" rx="87.99" ry="18"/>
<text text-anchor="middle" x="647" y="-275.3" font-family="Times,serif" font-size="14.00">संवृतः(8.4)</text>
</g>
<!-- Node8_4&#45;&gt;Node1_1 -->
<g id="edge13" class="edge">
<title>Node8_4&#45;&gt;Node1_1</title>
<path fill="none" stroke="black" d="M629.36,-305.41C622.68,-313.89 614.6,-322.96 606,-330 596.87,-337.47 585.89,-344.06 575.53,-349.44"/>
<polygon fill="black" stroke="black" points="632.3,-307.31 635.53,-297.22 626.72,-303.1 632.3,-307.31"/>
<text text-anchor="middle" x="678.5" y="-318.8" font-family="Times,serif" font-size="14.00">विशेषणम्</text>
</g>
<!-- Node4_1 -->
<g id="node9" class="node">
<title>Node4_1</title>
<ellipse fill="#ffff00" stroke="#ffff00" cx="95" cy="-192" rx="72.29" ry="18"/>
<text text-anchor="middle" x="95" y="-188.3" font-family="Times,serif" font-size="14.00">वालि&#45;(4.1)</text>
</g>
<!-- Node4_1&#45;&gt;Node4_2 -->
<g id="edge4" class="edge">
<title>Node4_1&#45;&gt;Node4_2</title>
<path fill="none" stroke="black" d="M95,-220.27C95,-233.58 95,-249.19 95,-260.82"/>
<polygon fill="black" stroke="black" points="98.5,-220.2 95,-210.2 91.5,-220.2 98.5,-220.2"/>
<text text-anchor="middle" x="131" y="-231.8" font-family="Times,serif" font-size="14.00">समासः</text>
</g>
<!-- Node5_1 -->
<g id="node10" class="node">
<title>Node5_1</title>
<ellipse fill="#ffff00" stroke="#ffff00" cx="251" cy="-192" rx="63.09" ry="18"/>
<text text-anchor="middle" x="251" y="-188.3" font-family="Times,serif" font-size="14.00">महा&#45;(5.1)</text>
</g>
<!-- Node5_1&#45;&gt;Node5_2 -->
<g id="edge6" class="edge">
<title>Node5_1&#45;&gt;Node5_2</title>
<path fill="none" stroke="black" d="M251,-220.27C251,-233.58 251,-249.19 251,-260.82"/>
<polygon fill="black" stroke="black" points="254.5,-220.2 251,-210.2 247.5,-220.2 254.5,-220.2"/>
<text text-anchor="middle" x="287" y="-231.8" font-family="Times,serif" font-size="14.00">समासः</text>
</g>
<!-- Node7_1 -->
<g id="node11" class="node">
<title>Node7_1</title>
<ellipse fill="#ffff00" stroke="#ffff00" cx="435" cy="-192" rx="63.09" ry="18"/>
<text text-anchor="middle" x="435" y="-188.3" font-family="Times,serif" font-size="14.00">कपि&#45;(7.1)</text>
</g>
<!-- Node7_1&#45;&gt;Node7_2 -->
<g id="edge8" class="edge">
<title>Node7_1&#45;&gt;Node7_2</title>
<path fill="none" stroke="black" d="M435,-220.27C435,-233.58 435,-249.19 435,-260.82"/>
<polygon fill="black" stroke="black" points="438.5,-220.2 435,-210.2 431.5,-220.2 438.5,-220.2"/>
<text text-anchor="middle" x="471" y="-231.8" font-family="Times,serif" font-size="14.00">समासः</text>
</g>
<!-- Node8_1 -->
<g id="node12" class="node">
<title>Node8_1</title>
<ellipse fill="#ffff00" stroke="#ffff00" cx="647" cy="-18" rx="72.29" ry="18"/>
<text text-anchor="middle" x="647" y="-14.3" font-family="Times,serif" font-size="14.00">त्रि&#45;(8.1)</text>
</g>
<!-- Node8_2 -->
<g id="node13" class="node">
<title>Node8_2</title>
<ellipse fill="#ffff00" stroke="#ffff00" cx="647" cy="-105" rx="63.09" ry="18"/>
<text text-anchor="middle" x="647" y="-101.3" font-family="Times,serif" font-size="14.00">भाग&#45;(8.2)</text>
</g>
<!-- Node8_1&#45;&gt;Node8_2 -->
<g id="edge10" class="edge">
<title>Node8_1&#45;&gt;Node8_2</title>
<path fill="none" stroke="black" d="M647,-46.27C647,-59.58 647,-75.19 647,-86.82"/>
<polygon fill="black" stroke="black" points="650.5,-46.2 647,-36.2 643.5,-46.2 650.5,-46.2"/>
<text text-anchor="middle" x="683" y="-57.8" font-family="Times,serif" font-size="14.00">समासः</text>
</g>
<!-- Node8_3 -->
<g id="node14" class="node">
<title>Node8_3</title>
<ellipse fill="#ffff00" stroke="#ffff00" cx="647" cy="-192" rx="53.89" ry="18"/>
<text text-anchor="middle" x="647" y="-188.3" font-family="Times,serif" font-size="14.00">बल&#45;(8.3)</text>
</g>
<!-- Node8_2&#45;&gt;Node8_3 -->
<g id="edge11" class="edge">
<title>Node8_2&#45;&gt;Node8_3</title>
<path fill="none" stroke="black" d="M647,-133.27C647,-146.58 647,-162.19 647,-173.82"/>
<polygon fill="black" stroke="black" points="650.5,-133.2 647,-123.2 643.5,-133.2 650.5,-133.2"/>
<text text-anchor="middle" x="683" y="-144.8" font-family="Times,serif" font-size="14.00">समासः</text>
</g>
<!-- Node8_3&#45;&gt;Node8_4 -->
<g id="edge12" class="edge">
<title>Node8_3&#45;&gt;Node8_4</title>
<path fill="none" stroke="black" d="M647,-220.27C647,-233.58 647,-249.19 647,-260.82"/>
<polygon fill="black" stroke="black" points="650.5,-220.2 647,-210.2 643.5,-220.2 650.5,-220.2"/>
<text text-anchor="middle" x="683" y="-231.8" font-family="Times,serif" font-size="14.00">समासः</text>
</g>
</g>
</svg>
