<svg xmlns="http://www.w3.org/2000/svg" xmlns:xlink="http://www.w3.org/1999/xlink" width="1235pt" height="305pt" viewBox="0 0 1235 305"><g id="graph0" class="graph" transform="scale(1 1) rotate(0) translate(4 301)"><title>G</title><polygon fill="#fffacd" stroke="transparent" points="-4 4 -4 -301 1231 -301 1231 4 -4 4"/><g id="clust1" class="cluster"><title>cluster_1</title><polygon fill="#fffacd" stroke="#000" points="8 -79 8 -218 574 -218 574 -79 8 -79"/></g><g id="node1" class="node"><title>Node8_1</title><ellipse cx="496" cy="-105" fill="#93db70" stroke="#93db70" rx="69.59" ry="18"/><text x="496" y="-101.3" font-family="Times,serif" font-size="14" text-anchor="middle">माम्(8.1)</text></g><g id="node2" class="node"><title>Node6_1</title><ellipse cx="313" cy="-192" fill="#93db70" stroke="#93db70" rx="115.88" ry="18"/><text x="313" y="-188.3" font-family="Times,serif" font-size="14" text-anchor="middle">हनूमन्तम्(6.1)</text></g><g id="edge8" class="edge"><title>Node8_1-&gt;Node6_1</title><path fill="none" stroke="#000" d="M469.47,-129.16C457.69,-138.52 443.29,-148.8 429,-156 412.1,-164.52 392.74,-171.38 374.75,-176.69"/><polygon fill="#000" stroke="#000" points="472.01 -131.6 477.54 -122.56 467.58 -126.19 472.01 -131.6"/><text x="510.5" y="-144.8" font-family="Times,serif" font-size="14" text-anchor="middle">विशेषणम्</text></g><g id="node11" class="node"><title>Node9_1</title><ellipse cx="313" cy="-279" fill="#ff1975" stroke="#ff1975" rx="87.99" ry="18"/><text x="313" y="-275.3" font-family="Times,serif" font-size="14" text-anchor="middle">विद्धि(9.1)</text></g><g id="edge6" class="edge"><title>Node6_1-&gt;Node9_1</title><path fill="none" stroke="#000" d="M313,-220.27C313,-233.58 313,-249.19 313,-260.82"/><polygon fill="#000" stroke="#000" points="316.5 -220.2 313 -210.2 309.5 -220.2 316.5 -220.2"/><text x="342" y="-231.8" font-family="Times,serif" font-size="14" text-anchor="middle">कर्म</text></g><g id="node3" class="node"><title>Node11_1</title><ellipse cx="324" cy="-105" fill="#93db70" stroke="#93db70" rx="84.49" ry="18"/><text x="324" y="-101.3" font-family="Times,serif" font-size="14" text-anchor="middle">दूतम्(11.1)</text></g><g id="edge10" class="edge"><title>Node11_1-&gt;Node6_1</title><path fill="none" stroke="#000" d="M315.51,-133.15C314.91,-135.78 314.39,-138.43 314,-141 312.37,-151.82 312.11,-164.1 312.25,-173.78"/><polygon fill="#000" stroke="#000" points="318.95 -133.81 318.12 -123.25 312.18 -132.03 318.95 -133.81"/><text x="371.5" y="-144.8" font-family="Times,serif" font-size="14" text-anchor="middle">विशेषणम्</text></g><g id="node4" class="node"><title>Node12_1</title><ellipse cx="119" cy="-105" fill="#93db70" stroke="#93db70" rx="102.88" ry="18"/><text x="119" y="-101.3" font-family="Times,serif" font-size="14" text-anchor="middle">उपागतम्(12.1)</text></g><g id="edge11" class="edge"><title>Node12_1-&gt;Node6_1</title><path fill="none" stroke="#000" d="M148.58,-128.73C161.91,-138.17 178.18,-148.61 194,-156 212.05,-164.43 232.59,-171.34 251.47,-176.72"/><polygon fill="#000" stroke="#000" points="150.43 -125.75 140.28 -122.72 146.32 -131.42 150.43 -125.75"/><text x="251.5" y="-144.8" font-family="Times,serif" font-size="14" text-anchor="middle">विशेषणम्</text></g><g id="node5" class="node"><title>Node1_1</title><ellipse cx="708" cy="-18" fill="#ff0" stroke="#ff0" rx="63.09" ry="18"/><text x="708" y="-14.3" font-family="Times,serif" font-size="14" text-anchor="middle">राम-(1.1)</text></g><g id="node6" class="node"><title>Node1_2</title><ellipse cx="708" cy="-105" fill="#87ceeb" stroke="#87ceeb" rx="124.58" ry="18"/><text x="708" y="-101.3" font-family="Times,serif" font-size="14" text-anchor="middle">सुग्रीवयोः(1.2)</text></g><g id="edge1" class="edge"><title>Node1_1-&gt;Node1_2</title><path fill="none" stroke="#000" d="M708,-46.27C708,-59.58 708,-75.19 708,-86.82"/><polygon fill="#000" stroke="#000" points="711.5 -46.2 708 -36.2 704.5 -46.2 711.5 -46.2"/><text x="772.5" y="-57.8" font-family="Times,serif" font-size="14" text-anchor="middle">द्वन्द्वः</text></g><g id="node7" class="node"><title>Node2_1</title><ellipse cx="708" cy="-192" fill="#93db70" stroke="#93db70" rx="87.99" ry="18"/><text x="708" y="-188.3" font-family="Times,serif" font-size="14" text-anchor="middle">ऐक्यम्(2.1)</text></g><g id="edge2" class="edge"><title>Node1_2-&gt;Node2_1</title><path fill="none" stroke="#000" d="M708,-133.27C708,-146.58 708,-162.19 708,-173.82"/><polygon fill="#000" stroke="#000" points="711.5 -133.2 708 -123.2 704.5 -133.2 711.5 -133.2"/><text x="801" y="-144.8" font-family="Times,serif" font-size="14" text-anchor="middle">षष्ठीसम्बन्धः</text></g><g id="node8" class="node"><title>Node5_1</title><ellipse cx="883" cy="-279" fill="#ff1975" stroke="#ff1975" rx="87.99" ry="18"/><text x="883" y="-275.3" font-family="Times,serif" font-size="14" text-anchor="middle">समजायत(5.1)</text></g><g id="edge3" class="edge"><title>Node2_1-&gt;Node5_1</title><path fill="none" stroke="#000" d="M748.1,-213.67C766.05,-222.81 787.51,-233.59 807,-243 820.48,-249.5 835.41,-256.44 848.45,-262.41"/><polygon fill="#000" stroke="#000" points="749.57 -210.48 739.07 -209.05 746.38 -216.72 749.57 -210.48"/><text x="843" y="-231.8" font-family="Times,serif" font-size="14" text-anchor="middle">कर्ता</text></g><g id="node9" class="node"><title>Node3_1</title><ellipse cx="883" cy="-192" fill="#00bfff" stroke="#00bfff" rx="69.59" ry="18"/><text x="883" y="-188.3" font-family="Times,serif" font-size="14" text-anchor="middle">देवी(3.1)</text></g><g id="edge4" class="edge"><title>Node3_1-&gt;Node5_1</title><path fill="none" stroke="#000" d="M883,-220.27C883,-233.58 883,-249.19 883,-260.82"/><polygon fill="#000" stroke="#000" points="886.5 -220.2 883 -210.2 879.5 -220.2 886.5 -220.2"/><text x="947.5" y="-231.8" font-family="Times,serif" font-size="14" text-anchor="middle">सम्बोध्यः</text></g><g id="node10" class="node"><title>Node4_1</title><ellipse cx="1040" cy="-192" fill="#f9f" stroke="#f9f" rx="69.59" ry="18"/><text x="1040" y="-188.3" font-family="Times,serif" font-size="14" text-anchor="middle">एवम्(4.1)</text></g><g id="edge5" class="edge"><title>Node4_1-&gt;Node5_1</title><path fill="none" stroke="#000" d="M1032.26,-219.55C1028.58,-228.11 1023.34,-236.94 1016,-243 999.8,-256.38 979.02,-264.7 958.73,-269.85"/><polygon fill="#000" stroke="#000" points="1035.55 -220.76 1035.78 -210.16 1028.99 -218.3 1035.55 -220.76"/><text x="1127" y="-231.8" font-family="Times,serif" font-size="14" text-anchor="middle">क्रियाविशेषणम्</text></g><g id="node12" class="node"><title>Node7_1</title><ellipse cx="119" cy="-18" fill="#f9f" stroke="#f9f" rx="41.69" ry="18"/><text x="119" y="-14.3" font-family="Times,serif" font-size="14" text-anchor="middle">च(7.1)</text></g><g id="edge7" class="edge"><title>Node7_1-&gt;Node12_1</title><path fill="none" stroke="#000" d="M119,-46.27C119,-59.58 119,-75.19 119,-86.82"/><polygon fill="#000" stroke="#000" points="122.5 -46.2 119 -36.2 115.5 -46.2 122.5 -46.2"/><text x="176.5" y="-57.8" font-family="Times,serif" font-size="14" text-anchor="middle">सम्बन्धः</text></g><g id="node13" class="node"><title>Node10_1</title><ellipse cx="324" cy="-18" fill="#87ceeb" stroke="#87ceeb" rx="75.29" ry="18"/><text x="324" y="-14.3" font-family="Times,serif" font-size="14" text-anchor="middle">तयोः(10.1)</text></g><g id="edge9" class="edge"><title>Node10_1-&gt;Node11_1</title><path fill="none" stroke="#000" d="M324,-46.27C324,-59.58 324,-75.19 324,-86.82"/><polygon fill="#000" stroke="#000" points="327.5 -46.2 324 -36.2 320.5 -46.2 327.5 -46.2"/><text x="417" y="-57.8" font-family="Times,serif" font-size="14" text-anchor="middle">षष्ठीसम्बन्धः</text></g></g></svg>