<?xml version="1.0" encoding="UTF-8" standalone="no"?>
<!DOCTYPE svg PUBLIC "-//W3C//DTD SVG 1.1//EN"
 "http://www.w3.org/Graphics/SVG/1.1/DTD/svg11.dtd">
<!-- Generated by graphviz version 2.43.0 (0)
 -->
<!-- Title: G Pages: 1 -->
<svg width="1448pt" height="392pt"
 viewBox="0.00 0.00 1447.59 392.00" xmlns="http://www.w3.org/2000/svg" xmlns:xlink="http://www.w3.org/1999/xlink">
<g id="graph0" class="graph" transform="scale(1 1) rotate(0) translate(4 388)">
<title>G</title>
<polygon fill="#fffacd" stroke="transparent" points="-4,4 -4,-388 1443.59,-388 1443.59,4 -4,4"/>
<g id="clust1" class="cluster">
<title>cluster_1</title>
<polygon fill="#fffacd" stroke="black" points="196.59,-166 196.59,-305 1431.59,-305 1431.59,-166 196.59,-166"/>
</g>
<!-- Node1_1 -->
<g id="node1" class="node">
<title>Node1_1</title>
<ellipse fill="#00bfff" stroke="#00bfff" cx="1307.59" cy="-192" rx="115.88" ry="18"/>
<text text-anchor="middle" x="1307.59" y="-188.3" font-family="Times,serif" font-size="14.00">विपुलांसः(1.1)</text>
</g>
<!-- Node7_1 -->
<g id="node2" class="node">
<title>Node7_1</title>
<ellipse fill="#00bfff" stroke="#00bfff" cx="536.59" cy="-279" rx="69.59" ry="18"/>
<text text-anchor="middle" x="536.59" y="-275.3" font-family="Times,serif" font-size="14.00">रामः(7.1)</text>
</g>
<!-- Node1_1&#45;&gt;Node7_1 -->
<g id="edge1" class="edge">
<title>Node1_1&#45;&gt;Node7_1</title>
<path fill="none" stroke="black" d="M1240.76,-210.22C1194.89,-221.36 1132.43,-235.19 1076.59,-243 908.65,-266.49 709.08,-274.25 605.97,-276.79"/>
<polygon fill="black" stroke="black" points="1241.7,-213.59 1250.58,-207.81 1240.04,-206.79 1241.7,-213.59"/>
<text text-anchor="middle" x="1217.09" y="-231.8" font-family="Times,serif" font-size="14.00">विशेषणम्</text>
</g>
<!-- Node11_1 -->
<g id="node13" class="node">
<title>Node11_1</title>
<ellipse fill="#ff1975" stroke="#ff1975" cx="288.59" cy="-366" rx="90.98" ry="18"/>
<text text-anchor="middle" x="288.59" y="-362.3" font-family="Times,serif" font-size="14.00">[अस्ति](11.1)</text>
</g>
<!-- Node7_1&#45;&gt;Node11_1 -->
<g id="edge12" class="edge">
<title>Node7_1&#45;&gt;Node11_1</title>
<path fill="none" stroke="black" d="M496.12,-299.4C474.35,-309.38 446.86,-321.24 421.59,-330 397.12,-338.49 369.5,-346.07 345.79,-351.98"/>
<polygon fill="black" stroke="black" points="497.77,-302.49 505.38,-295.12 494.83,-296.14 497.77,-302.49"/>
<text text-anchor="middle" x="495.59" y="-318.8" font-family="Times,serif" font-size="14.00">कर्ता</text>
</g>
<!-- Node2_2 -->
<g id="node3" class="node">
<title>Node2_2</title>
<ellipse fill="#00bfff" stroke="#00bfff" cx="283.59" cy="-192" rx="78.79" ry="18"/>
<text text-anchor="middle" x="283.59" y="-188.3" font-family="Times,serif" font-size="14.00">बाहुः(2.2)</text>
</g>
<!-- Node2_2&#45;&gt;Node7_1 -->
<g id="edge3" class="edge">
<title>Node2_2&#45;&gt;Node7_1</title>
<path fill="none" stroke="black" d="M307.5,-216.56C318.55,-226.18 332.37,-236.54 346.59,-243 385.37,-260.62 432.44,-269.37 470.02,-273.72"/>
<polygon fill="black" stroke="black" points="309.73,-213.86 299.97,-209.75 305.04,-219.06 309.73,-213.86"/>
<text text-anchor="middle" x="404.09" y="-231.8" font-family="Times,serif" font-size="14.00">विशेषणम्</text>
</g>
<!-- Node3_1 -->
<g id="node4" class="node">
<title>Node3_1</title>
<ellipse fill="#00bfff" stroke="#00bfff" cx="864.59" cy="-192" rx="133.78" ry="18"/>
<text text-anchor="middle" x="864.59" y="-188.3" font-family="Times,serif" font-size="14.00">कम्बुग्रीवः(3.1)</text>
</g>
<!-- Node3_1&#45;&gt;Node7_1 -->
<g id="edge4" class="edge">
<title>Node3_1&#45;&gt;Node7_1</title>
<path fill="none" stroke="black" d="M814.59,-212.87C787.9,-222.93 754.31,-234.73 723.59,-243 681.33,-254.37 632.72,-263.35 595.66,-269.36"/>
<polygon fill="black" stroke="black" points="815.99,-216.09 824.09,-209.26 813.5,-209.54 815.99,-216.09"/>
<text text-anchor="middle" x="828.09" y="-231.8" font-family="Times,serif" font-size="14.00">विशेषणम्</text>
</g>
<!-- Node4_2 -->
<g id="node5" class="node">
<title>Node4_2</title>
<ellipse fill="#00bfff" stroke="#00bfff" cx="449.59" cy="-192" rx="69.59" ry="18"/>
<text text-anchor="middle" x="449.59" y="-188.3" font-family="Times,serif" font-size="14.00">आननः(4.2)</text>
</g>
<!-- Node4_2&#45;&gt;Node7_1 -->
<g id="edge6" class="edge">
<title>Node4_2&#45;&gt;Node7_1</title>
<path fill="none" stroke="black" d="M460.93,-219.19C465.33,-227.44 470.93,-236.17 477.59,-243 485.24,-250.84 495.01,-257.57 504.39,-262.97"/>
<polygon fill="black" stroke="black" points="464.06,-217.62 456.48,-210.21 457.78,-220.73 464.06,-217.62"/>
<text text-anchor="middle" x="535.09" y="-231.8" font-family="Times,serif" font-size="14.00">विशेषणम्</text>
</g>
<!-- Node5_2 -->
<g id="node6" class="node">
<title>Node5_2</title>
<ellipse fill="#00bfff" stroke="#00bfff" cx="624.59" cy="-192" rx="87.99" ry="18"/>
<text text-anchor="middle" x="624.59" y="-188.3" font-family="Times,serif" font-size="14.00">जत्रुः(5.2)</text>
</g>
<!-- Node5_2&#45;&gt;Node7_1 -->
<g id="edge8" class="edge">
<title>Node5_2&#45;&gt;Node7_1</title>
<path fill="none" stroke="black" d="M611.11,-218.78C606.01,-227.1 599.69,-235.97 592.59,-243 585.01,-250.5 575.55,-257.17 566.57,-262.62"/>
<polygon fill="black" stroke="black" points="614.16,-220.5 616.15,-210.09 608.1,-216.99 614.16,-220.5"/>
<text text-anchor="middle" x="662.09" y="-231.8" font-family="Times,serif" font-size="14.00">विशेषणम्</text>
</g>
<!-- Node6_3 -->
<g id="node7" class="node">
<title>Node6_3</title>
<ellipse fill="#00bfff" stroke="#00bfff" cx="1095.59" cy="-192" rx="78.79" ry="18"/>
<text text-anchor="middle" x="1095.59" y="-188.3" font-family="Times,serif" font-size="14.00">अक्षः(6.3)</text>
</g>
<!-- Node6_3&#45;&gt;Node7_1 -->
<g id="edge11" class="edge">
<title>Node6_3&#45;&gt;Node7_1</title>
<path fill="none" stroke="black" d="M1038.29,-209.18C997.2,-220.23 940.37,-234.36 889.59,-243 790.78,-259.81 674.94,-269.39 603.65,-274.14"/>
<polygon fill="black" stroke="black" points="1039.38,-212.51 1048.12,-206.52 1037.55,-205.76 1039.38,-212.51"/>
<text text-anchor="middle" x="1015.09" y="-231.8" font-family="Times,serif" font-size="14.00">विशेषणम्</text>
</g>
<!-- Node2_1 -->
<g id="node8" class="node">
<title>Node2_1</title>
<ellipse fill="#ffff00" stroke="#ffff00" cx="283.59" cy="-105" rx="63.09" ry="18"/>
<text text-anchor="middle" x="283.59" y="-101.3" font-family="Times,serif" font-size="14.00">महा&#45;(2.1)</text>
</g>
<!-- Node2_1&#45;&gt;Node2_2 -->
<g id="edge2" class="edge">
<title>Node2_1&#45;&gt;Node2_2</title>
<path fill="none" stroke="black" d="M283.59,-133.27C283.59,-146.58 283.59,-162.19 283.59,-173.82"/>
<polygon fill="black" stroke="black" points="287.09,-133.2 283.59,-123.2 280.09,-133.2 287.09,-133.2"/>
<text text-anchor="middle" x="319.59" y="-144.8" font-family="Times,serif" font-size="14.00">समासः</text>
</g>
<!-- Node4_1 -->
<g id="node9" class="node">
<title>Node4_1</title>
<ellipse fill="#ffff00" stroke="#ffff00" cx="449.59" cy="-105" rx="63.09" ry="18"/>
<text text-anchor="middle" x="449.59" y="-101.3" font-family="Times,serif" font-size="14.00">शुभ&#45;(4.1)</text>
</g>
<!-- Node4_1&#45;&gt;Node4_2 -->
<g id="edge5" class="edge">
<title>Node4_1&#45;&gt;Node4_2</title>
<path fill="none" stroke="black" d="M449.59,-133.27C449.59,-146.58 449.59,-162.19 449.59,-173.82"/>
<polygon fill="black" stroke="black" points="453.09,-133.2 449.59,-123.2 446.09,-133.2 453.09,-133.2"/>
<text text-anchor="middle" x="485.59" y="-144.8" font-family="Times,serif" font-size="14.00">समासः</text>
</g>
<!-- Node5_1 -->
<g id="node10" class="node">
<title>Node5_1</title>
<ellipse fill="#ffff00" stroke="#ffff00" cx="624.59" cy="-105" rx="63.09" ry="18"/>
<text text-anchor="middle" x="624.59" y="-101.3" font-family="Times,serif" font-size="14.00">गूढ&#45;(5.1)</text>
</g>
<!-- Node5_1&#45;&gt;Node5_2 -->
<g id="edge7" class="edge">
<title>Node5_1&#45;&gt;Node5_2</title>
<path fill="none" stroke="black" d="M624.59,-133.27C624.59,-146.58 624.59,-162.19 624.59,-173.82"/>
<polygon fill="black" stroke="black" points="628.09,-133.2 624.59,-123.2 621.09,-133.2 628.09,-133.2"/>
<text text-anchor="middle" x="660.59" y="-144.8" font-family="Times,serif" font-size="14.00">समासः</text>
</g>
<!-- Node6_1 -->
<g id="node11" class="node">
<title>Node6_1</title>
<ellipse fill="#ffff00" stroke="#ffff00" cx="1095.59" cy="-18" rx="63.09" ry="18"/>
<text text-anchor="middle" x="1095.59" y="-14.3" font-family="Times,serif" font-size="14.00">सुत&#45;(6.1)</text>
</g>
<!-- Node6_2 -->
<g id="node12" class="node">
<title>Node6_2</title>
<ellipse fill="#ffff00" stroke="#ffff00" cx="1095.59" cy="-105" rx="72.29" ry="18"/>
<text text-anchor="middle" x="1095.59" y="-101.3" font-family="Times,serif" font-size="14.00">आम्र&#45;(6.2)</text>
</g>
<!-- Node6_1&#45;&gt;Node6_2 -->
<g id="edge9" class="edge">
<title>Node6_1&#45;&gt;Node6_2</title>
<path fill="none" stroke="black" d="M1095.59,-46.27C1095.59,-59.58 1095.59,-75.19 1095.59,-86.82"/>
<polygon fill="black" stroke="black" points="1099.09,-46.2 1095.59,-36.2 1092.09,-46.2 1099.09,-46.2"/>
<text text-anchor="middle" x="1131.59" y="-57.8" font-family="Times,serif" font-size="14.00">समासः</text>
</g>
<!-- Node6_2&#45;&gt;Node6_3 -->
<g id="edge10" class="edge">
<title>Node6_2&#45;&gt;Node6_3</title>
<path fill="none" stroke="black" d="M1095.59,-133.27C1095.59,-146.58 1095.59,-162.19 1095.59,-173.82"/>
<polygon fill="black" stroke="black" points="1099.09,-133.2 1095.59,-123.2 1092.09,-133.2 1099.09,-133.2"/>
<text text-anchor="middle" x="1131.59" y="-144.8" font-family="Times,serif" font-size="14.00">समासः</text>
</g>
<!-- Node8_1 -->
<g id="node14" class="node">
<title>Node8_1</title>
<ellipse fill="#ff99ff" stroke="#ff99ff" cx="128.59" cy="-279" rx="59.59" ry="18"/>
<text text-anchor="middle" x="128.59" y="-275.3" font-family="Times,serif" font-size="14.00">नाम(8.1)</text>
</g>
<!-- Node8_1&#45;&gt;Node11_1 -->
<g id="edge13" class="edge">
<title>Node8_1&#45;&gt;Node11_1</title>
<path fill="none" stroke="black" d="M165.97,-299.85C194.13,-314.82 232.24,-335.06 258.46,-348.99"/>
<polygon fill="black" stroke="black" points="167.3,-296.6 156.83,-295 164.02,-302.78 167.3,-296.6"/>
<text text-anchor="middle" x="317.59" y="-318.8" font-family="Times,serif" font-size="14.00">क्रियाविशेषणम्</text>
</g>
<!-- Node9_1 -->
<g id="node15" class="node">
<title>Node9_1</title>
<ellipse fill="#40e0d0" stroke="#40e0d0" cx="93.59" cy="-105" rx="69.59" ry="18"/>
<text text-anchor="middle" x="93.59" y="-101.3" font-family="Times,serif" font-size="14.00">जनैः(9.1)</text>
</g>
<!-- Node10_1 -->
<g id="node16" class="node">
<title>Node10_1</title>
<ellipse fill="#00bfff" stroke="#00bfff" cx="93.59" cy="-192" rx="93.68" ry="18"/>
<text text-anchor="middle" x="93.59" y="-188.3" font-family="Times,serif" font-size="14.00">श्रुतः(10.1)</text>
</g>
<!-- Node9_1&#45;&gt;Node10_1 -->
<g id="edge14" class="edge">
<title>Node9_1&#45;&gt;Node10_1</title>
<path fill="none" stroke="black" d="M93.59,-133.27C93.59,-146.58 93.59,-162.19 93.59,-173.82"/>
<polygon fill="black" stroke="black" points="97.09,-133.2 93.59,-123.2 90.09,-133.2 97.09,-133.2"/>
<text text-anchor="middle" x="129.59" y="-144.8" font-family="Times,serif" font-size="14.00">हेतुः</text>
</g>
<!-- Node10_1&#45;&gt;Node7_1 -->
<g id="edge15" class="edge">
<title>Node10_1&#45;&gt;Node7_1</title>
<path fill="none" stroke="black" d="M104.05,-219.49C108.93,-228.43 115.67,-237.53 124.59,-243 153.12,-260.5 358.74,-271.08 468.29,-275.53"/>
<polygon fill="black" stroke="black" points="107.14,-217.84 99.62,-210.38 100.84,-220.9 107.14,-217.84"/>
<text text-anchor="middle" x="221.09" y="-231.8" font-family="Times,serif" font-size="14.00">विधेय_विशेषणम्</text>
</g>
</g>
</svg>
