<?xml version="1.0" encoding="UTF-8" standalone="no"?>
<!DOCTYPE svg PUBLIC "-//W3C//DTD SVG 1.1//EN"
 "http://www.w3.org/Graphics/SVG/1.1/DTD/svg11.dtd">
<!-- Generated by graphviz version 2.43.0 (0)
 -->
<!-- Title: G Pages: 1 -->
<svg width="849pt" height="495pt"
 viewBox="0.00 0.00 849.00 495.00" xmlns="http://www.w3.org/2000/svg" xmlns:xlink="http://www.w3.org/1999/xlink">
<g id="graph0" class="graph" transform="scale(1 1) rotate(0) translate(4 491)">
<title>G</title>
<polygon fill="#fffacd" stroke="transparent" points="-4,4 -4,-491 845,-491 845,4 -4,4"/>
<g id="clust1" class="cluster">
<title>cluster_1</title>
<polygon fill="#fffacd" stroke="black" points="8,-8 8,-147 395,-147 395,-8 8,-8"/>
</g>
<g id="clust2" class="cluster">
<title>cluster_2</title>
<polygon fill="#fffacd" stroke="black" points="87,-269 87,-408 374,-408 374,-269 87,-269"/>
</g>
<!-- Node3_1 -->
<g id="node1" class="node">
<title>Node3_1</title>
<ellipse fill="#b4ffb4" stroke="#b4ffb4" cx="280" cy="-34" rx="106.68" ry="18"/>
<text text-anchor="middle" x="280" y="-30.3" font-family="Times,serif" font-size="14.00">वीर्यवतः(3.1)</text>
</g>
<!-- Node4_1 -->
<g id="node2" class="node">
<title>Node4_1</title>
<ellipse fill="#87ceeb" stroke="#87ceeb" cx="272" cy="-121" rx="87.99" ry="18"/>
<text text-anchor="middle" x="272" y="-117.3" font-family="Times,serif" font-size="14.00">भर्तुः(4.1)</text>
</g>
<!-- Node3_1&#45;&gt;Node4_1 -->
<g id="edge3" class="edge">
<title>Node3_1&#45;&gt;Node4_1</title>
<path fill="none" stroke="black" d="M277.43,-62.27C276.18,-75.58 274.71,-91.19 273.62,-102.82"/>
<polygon fill="black" stroke="black" points="280.93,-62.49 278.38,-52.2 273.96,-61.83 280.93,-62.49"/>
<text text-anchor="middle" x="334.5" y="-73.8" font-family="Times,serif" font-size="14.00">विशेषणम्</text>
</g>
<!-- Node6_1 -->
<g id="node9" class="node">
<title>Node6_1</title>
<ellipse fill="#c6e2eb" stroke="#c6e2eb" cx="272" cy="-208" rx="69.59" ry="18"/>
<text text-anchor="middle" x="272" y="-204.3" font-family="Times,serif" font-size="14.00">हिते(6.1)</text>
</g>
<!-- Node4_1&#45;&gt;Node6_1 -->
<g id="edge4" class="edge">
<title>Node4_1&#45;&gt;Node6_1</title>
<path fill="none" stroke="black" d="M272,-149.27C272,-162.58 272,-178.19 272,-189.82"/>
<polygon fill="black" stroke="black" points="275.5,-149.2 272,-139.2 268.5,-149.2 275.5,-149.2"/>
<text text-anchor="middle" x="365" y="-160.8" font-family="Times,serif" font-size="14.00">षष्ठीसम्बन्धः</text>
</g>
<!-- Node5_1 -->
<g id="node3" class="node">
<title>Node5_1</title>
<ellipse fill="#87ceeb" stroke="#87ceeb" cx="86" cy="-34" rx="69.59" ry="18"/>
<text text-anchor="middle" x="86" y="-30.3" font-family="Times,serif" font-size="14.00">तस्य(5.1)</text>
</g>
<!-- Node5_1&#45;&gt;Node4_1 -->
<g id="edge5" class="edge">
<title>Node5_1&#45;&gt;Node4_1</title>
<path fill="none" stroke="black" d="M113.95,-57.8C126.53,-67.22 141.92,-77.63 157,-85 175.66,-94.12 197.18,-101.43 216.53,-106.97"/>
<polygon fill="black" stroke="black" points="115.8,-54.8 105.73,-51.49 111.53,-60.36 115.8,-54.8"/>
<text text-anchor="middle" x="214.5" y="-73.8" font-family="Times,serif" font-size="14.00">विशेषणम्</text>
</g>
<!-- Node7_1 -->
<g id="node4" class="node">
<title>Node7_1</title>
<ellipse fill="#00bfff" stroke="#00bfff" cx="293" cy="-295" rx="59.59" ry="18"/>
<text text-anchor="middle" x="293" y="-291.3" font-family="Times,serif" font-size="14.00">रतः(7.1)</text>
</g>
<!-- Node9_1 -->
<g id="node5" class="node">
<title>Node9_1</title>
<ellipse fill="#00bfff" stroke="#00bfff" cx="273" cy="-382" rx="69.59" ry="18"/>
<text text-anchor="middle" x="273" y="-378.3" font-family="Times,serif" font-size="14.00">अहम्(9.1)</text>
</g>
<!-- Node7_1&#45;&gt;Node9_1 -->
<g id="edge7" class="edge">
<title>Node7_1&#45;&gt;Node9_1</title>
<path fill="none" stroke="black" d="M286.58,-323.27C283.45,-336.58 279.78,-352.19 277.04,-363.82"/>
<polygon fill="black" stroke="black" points="290.07,-323.74 288.95,-313.2 283.26,-322.13 290.07,-323.74"/>
<text text-anchor="middle" x="342.5" y="-334.8" font-family="Times,serif" font-size="14.00">विशेषणम्</text>
</g>
<!-- Node13_1 -->
<g id="node10" class="node">
<title>Node13_1</title>
<ellipse fill="#00bfff" stroke="#00bfff" cx="547" cy="-469" rx="139.98" ry="18"/>
<text text-anchor="middle" x="547" y="-465.3" font-family="Times,serif" font-size="14.00">सम्प्राप्तः(13.1)</text>
</g>
<!-- Node9_1&#45;&gt;Node13_1 -->
<g id="edge9" class="edge">
<title>Node9_1&#45;&gt;Node13_1</title>
<path fill="none" stroke="black" d="M325.61,-399.32C374.73,-414.56 447.55,-437.15 496.1,-452.21"/>
<polygon fill="black" stroke="black" points="326.4,-395.9 315.81,-396.28 324.33,-402.59 326.4,-395.9"/>
<text text-anchor="middle" x="462" y="-421.8" font-family="Times,serif" font-size="14.00">कर्ता</text>
</g>
<!-- Node8_1 -->
<g id="node6" class="node">
<title>Node8_1</title>
<ellipse fill="#00bfff" stroke="#00bfff" cx="155" cy="-295" rx="59.59" ry="18"/>
<text text-anchor="middle" x="155" y="-291.3" font-family="Times,serif" font-size="14.00">एकः(8.1)</text>
</g>
<!-- Node8_1&#45;&gt;Node9_1 -->
<g id="edge8" class="edge">
<title>Node8_1&#45;&gt;Node9_1</title>
<path fill="none" stroke="black" d="M154.07,-323.15C155.09,-331.29 157.6,-339.72 163,-346 175.22,-360.2 193.19,-368.7 211.08,-373.76"/>
<polygon fill="black" stroke="black" points="157.57,-322.94 153.48,-313.16 150.58,-323.35 157.57,-322.94"/>
<text text-anchor="middle" x="220.5" y="-334.8" font-family="Times,serif" font-size="14.00">विशेषणम्</text>
</g>
<!-- Node1_1 -->
<g id="node7" class="node">
<title>Node1_1</title>
<ellipse fill="#6fffc3" stroke="#6fffc3" cx="429" cy="-208" rx="69.59" ry="18"/>
<text text-anchor="middle" x="429" y="-204.3" font-family="Times,serif" font-size="14.00">देवि(1.1)</text>
</g>
<!-- Node1_1&#45;&gt;Node7_1 -->
<g id="edge1" class="edge">
<title>Node1_1&#45;&gt;Node7_1</title>
<path fill="none" stroke="black" d="M420,-235.36C415.96,-243.91 410.4,-252.77 403,-259 402.28,-259.61 364.14,-271.68 332.97,-281.47"/>
<polygon fill="black" stroke="black" points="423.28,-236.59 423.93,-226.01 416.83,-233.87 423.28,-236.59"/>
<text text-anchor="middle" x="478.5" y="-247.8" font-family="Times,serif" font-size="14.00">सम्बोध्यः</text>
</g>
<!-- Node2_1 -->
<g id="node8" class="node">
<title>Node2_1</title>
<ellipse fill="#87ceeb" stroke="#87ceeb" cx="455" cy="-34" rx="50.89" ry="18"/>
<text text-anchor="middle" x="455" y="-30.3" font-family="Times,serif" font-size="14.00">तव(2.1)</text>
</g>
<!-- Node2_1&#45;&gt;Node4_1 -->
<g id="edge2" class="edge">
<title>Node2_1&#45;&gt;Node4_1</title>
<path fill="none" stroke="black" d="M432.03,-58.48C421.76,-67.86 409.03,-78.06 396,-85 376.75,-95.25 354.17,-102.76 333.6,-108.15"/>
<polygon fill="black" stroke="black" points="434.52,-60.94 439.38,-51.53 429.71,-55.86 434.52,-60.94"/>
<text text-anchor="middle" x="510" y="-73.8" font-family="Times,serif" font-size="14.00">षष्ठीसम्बन्धः</text>
</g>
<!-- Node6_1&#45;&gt;Node7_1 -->
<g id="edge6" class="edge">
<title>Node6_1&#45;&gt;Node7_1</title>
<path fill="none" stroke="black" d="M278.74,-236.27C282.03,-249.58 285.88,-265.19 288.76,-276.82"/>
<polygon fill="black" stroke="black" points="282.05,-235.07 276.25,-226.2 275.25,-236.75 282.05,-235.07"/>
<text text-anchor="middle" x="341.5" y="-247.8" font-family="Times,serif" font-size="14.00">अधिकरणम्</text>
</g>
<!-- Node10_1 -->
<g id="node11" class="node">
<title>Node10_1</title>
<ellipse fill="#ff99ff" stroke="#ff99ff" cx="439" cy="-295" rx="56.59" ry="18"/>
<text text-anchor="middle" x="439" y="-291.3" font-family="Times,serif" font-size="14.00">तु(10.1)</text>
</g>
<!-- Node10_1&#45;&gt;Node9_1 -->
<g id="edge10" class="edge">
<title>Node10_1&#45;&gt;Node9_1</title>
<path fill="none" stroke="black" d="M425.68,-322.06C420.06,-330.8 412.76,-339.87 404,-346 383.75,-360.17 358.07,-368.61 334.83,-373.63"/>
<polygon fill="black" stroke="black" points="428.83,-323.6 430.92,-313.21 422.81,-320.03 428.83,-323.6"/>
<text text-anchor="middle" x="475.5" y="-334.8" font-family="Times,serif" font-size="14.00">सम्बन्धः</text>
</g>
<!-- Node11_1 -->
<g id="node12" class="node">
<title>Node11_1</title>
<ellipse fill="#ffff00" stroke="#ffff00" cx="619" cy="-295" rx="105.88" ry="18"/>
<text text-anchor="middle" x="619" y="-291.3" font-family="Times,serif" font-size="14.00">सुग्रीव&#45;(11.1)</text>
</g>
<!-- Node11_2 -->
<g id="node13" class="node">
<title>Node11_2</title>
<ellipse fill="#b4ffb4" stroke="#b4ffb4" cx="547" cy="-382" rx="93.68" ry="18"/>
<text text-anchor="middle" x="547" y="-378.3" font-family="Times,serif" font-size="14.00">वचनात्(11.2)</text>
</g>
<!-- Node11_1&#45;&gt;Node11_2 -->
<g id="edge11" class="edge">
<title>Node11_1&#45;&gt;Node11_2</title>
<path fill="none" stroke="black" d="M597.85,-320.97C586.08,-334.86 571.75,-351.78 561.3,-364.11"/>
<polygon fill="black" stroke="black" points="600.64,-323.09 604.43,-313.2 595.3,-318.57 600.64,-323.09"/>
<text text-anchor="middle" x="689.5" y="-334.8" font-family="Times,serif" font-size="14.00">षष्ठी&#45;तत्पुरुषः</text>
</g>
<!-- Node11_2&#45;&gt;Node13_1 -->
<g id="edge12" class="edge">
<title>Node11_2&#45;&gt;Node13_1</title>
<path fill="none" stroke="black" d="M547,-410.27C547,-423.58 547,-439.19 547,-450.82"/>
<polygon fill="black" stroke="black" points="550.5,-410.2 547,-400.2 543.5,-410.2 550.5,-410.2"/>
<text text-anchor="middle" x="604.5" y="-421.8" font-family="Times,serif" font-size="14.00">अपादानम्</text>
</g>
<!-- Node12_1 -->
<g id="node14" class="node">
<title>Node12_1</title>
<ellipse fill="#ff99ff" stroke="#ff99ff" cx="715" cy="-382" rx="56.59" ry="18"/>
<text text-anchor="middle" x="715" y="-378.3" font-family="Times,serif" font-size="14.00">इह(12.1)</text>
</g>
<!-- Node12_1&#45;&gt;Node13_1 -->
<g id="edge13" class="edge">
<title>Node12_1&#45;&gt;Node13_1</title>
<path fill="none" stroke="black" d="M695.79,-407.36C687.49,-416.52 677.12,-426.32 666,-433 651.42,-441.76 634.5,-448.44 618.08,-453.5"/>
<polygon fill="black" stroke="black" points="698.64,-409.43 702.53,-399.57 693.34,-404.85 698.64,-409.43"/>
<text text-anchor="middle" x="762.5" y="-421.8" font-family="Times,serif" font-size="14.00">देशाधिकरणम्</text>
</g>
</g>
</svg>
