<?xml version="1.0" encoding="UTF-8" standalone="no"?>
<!DOCTYPE svg PUBLIC "-//W3C//DTD SVG 1.1//EN"
 "http://www.w3.org/Graphics/SVG/1.1/DTD/svg11.dtd">
<!-- Generated by graphviz version 2.43.0 (0)
 -->
<!-- Title: G Pages: 1 -->
<svg width="1117pt" height="479pt"
 viewBox="0.00 0.00 1116.99 479.00" xmlns="http://www.w3.org/2000/svg" xmlns:xlink="http://www.w3.org/1999/xlink">
<g id="graph0" class="graph" transform="scale(1 1) rotate(0) translate(4 475)">
<title>G</title>
<polygon fill="#fffacd" stroke="transparent" points="-4,4 -4,-475 1112.99,-475 1112.99,4 -4,4"/>
<g id="clust1" class="cluster">
<title>cluster_1</title>
<polygon fill="#fffacd" stroke="black" points="196.99,-166 196.99,-305 462.99,-305 462.99,-166 196.99,-166"/>
</g>
<g id="clust2" class="cluster">
<title>cluster_2</title>
<polygon fill="#fffacd" stroke="black" points="208.99,-340 208.99,-392 382.99,-392 382.99,-340 208.99,-340"/>
</g>
<g id="clust3" class="cluster">
<title>cluster_3</title>
<polygon fill="#fffacd" stroke="black" points="470.99,-166 470.99,-305 1067.99,-305 1067.99,-166 470.99,-166"/>
</g>
<!-- Node2_1 -->
<g id="node1" class="node">
<title>Node2_1</title>
<ellipse fill="#00bfff" stroke="#00bfff" cx="329.99" cy="-192" rx="124.58" ry="18"/>
<text text-anchor="middle" x="329.99" y="-188.3" font-family="Times,serif" font-size="14.00">काकुत्स्थः(2.1)</text>
</g>
<!-- Node4_1 -->
<g id="node2" class="node">
<title>Node4_1</title>
<ellipse fill="#00bfff" stroke="#00bfff" cx="295.99" cy="-279" rx="59.59" ry="18"/>
<text text-anchor="middle" x="295.99" y="-275.3" font-family="Times,serif" font-size="14.00">वरः(4.1)</text>
</g>
<!-- Node2_1&#45;&gt;Node4_1 -->
<g id="edge2" class="edge">
<title>Node2_1&#45;&gt;Node4_1</title>
<path fill="none" stroke="black" d="M319.37,-219.54C313.94,-233.12 307.49,-249.24 302.75,-261.11"/>
<polygon fill="black" stroke="black" points="322.65,-220.79 323.11,-210.2 316.15,-218.19 322.65,-220.79"/>
<text text-anchor="middle" x="372.49" y="-231.8" font-family="Times,serif" font-size="14.00">विशेषणम्</text>
</g>
<!-- Node5_1 -->
<g id="node3" class="node">
<title>Node5_1</title>
<ellipse fill="#00bfff" stroke="#00bfff" cx="295.99" cy="-366" rx="78.79" ry="18"/>
<text text-anchor="middle" x="295.99" y="-362.3" font-family="Times,serif" font-size="14.00">कुशली(5.1)</text>
</g>
<!-- Node4_1&#45;&gt;Node5_1 -->
<g id="edge6" class="edge">
<title>Node4_1&#45;&gt;Node5_1</title>
<path fill="none" stroke="black" d="M295.99,-307.27C295.99,-320.58 295.99,-336.19 295.99,-347.82"/>
<polygon fill="black" stroke="black" points="299.49,-307.2 295.99,-297.2 292.49,-307.2 299.49,-307.2"/>
<text text-anchor="middle" x="353.49" y="-318.8" font-family="Times,serif" font-size="14.00">विशेषणम्</text>
</g>
<!-- Node6_1 -->
<g id="node12" class="node">
<title>Node6_1</title>
<ellipse fill="#ff1975" stroke="#ff1975" cx="295.99" cy="-453" rx="85.29" ry="18"/>
<text text-anchor="middle" x="295.99" y="-449.3" font-family="Times,serif" font-size="14.00">[अस्ति](6.1)</text>
</g>
<!-- Node5_1&#45;&gt;Node6_1 -->
<g id="edge7" class="edge">
<title>Node5_1&#45;&gt;Node6_1</title>
<path fill="none" stroke="black" d="M295.99,-394.27C295.99,-407.58 295.99,-423.19 295.99,-434.82"/>
<polygon fill="black" stroke="black" points="299.49,-394.2 295.99,-384.2 292.49,-394.2 299.49,-394.2"/>
<text text-anchor="middle" x="331.99" y="-405.8" font-family="Times,serif" font-size="14.00">कर्ता</text>
</g>
<!-- Node9_1 -->
<g id="node4" class="node">
<title>Node9_1</title>
<ellipse fill="#00bfff" stroke="#00bfff" cx="766.99" cy="-192" rx="87.99" ry="18"/>
<text text-anchor="middle" x="766.99" y="-188.3" font-family="Times,serif" font-size="14.00">युक्तः(9.1)</text>
</g>
<!-- Node11_1 -->
<g id="node5" class="node">
<title>Node11_1</title>
<ellipse fill="#00bfff" stroke="#00bfff" cx="766.99" cy="-279" rx="112.38" ry="18"/>
<text text-anchor="middle" x="766.99" y="-275.3" font-family="Times,serif" font-size="14.00">लक्ष्मणः(11.1)</text>
</g>
<!-- Node9_1&#45;&gt;Node11_1 -->
<g id="edge10" class="edge">
<title>Node9_1&#45;&gt;Node11_1</title>
<path fill="none" stroke="black" d="M766.99,-220.27C766.99,-233.58 766.99,-249.19 766.99,-260.82"/>
<polygon fill="black" stroke="black" points="770.49,-220.2 766.99,-210.2 763.49,-220.2 770.49,-220.2"/>
<text text-anchor="middle" x="824.49" y="-231.8" font-family="Times,serif" font-size="14.00">विशेषणम्</text>
</g>
<!-- Node13_1 -->
<g id="node16" class="node">
<title>Node13_1</title>
<ellipse fill="#ff1975" stroke="#ff1975" cx="766.99" cy="-366" rx="90.98" ry="18"/>
<text text-anchor="middle" x="766.99" y="-362.3" font-family="Times,serif" font-size="14.00">[अस्ति](13.1)</text>
</g>
<!-- Node11_1&#45;&gt;Node13_1 -->
<g id="edge13" class="edge">
<title>Node11_1&#45;&gt;Node13_1</title>
<path fill="none" stroke="black" d="M766.99,-307.27C766.99,-320.58 766.99,-336.19 766.99,-347.82"/>
<polygon fill="black" stroke="black" points="770.49,-307.2 766.99,-297.2 763.49,-307.2 770.49,-307.2"/>
<text text-anchor="middle" x="802.99" y="-318.8" font-family="Times,serif" font-size="14.00">कर्ता</text>
</g>
<!-- Node10_2 -->
<g id="node6" class="node">
<title>Node10_2</title>
<ellipse fill="#00bfff" stroke="#00bfff" cx="965.99" cy="-192" rx="93.68" ry="18"/>
<text text-anchor="middle" x="965.99" y="-188.3" font-family="Times,serif" font-size="14.00">लक्षणः(10.2)</text>
</g>
<!-- Node10_2&#45;&gt;Node11_1 -->
<g id="edge12" class="edge">
<title>Node10_2&#45;&gt;Node11_1</title>
<path fill="none" stroke="black" d="M934.65,-215.37C920.32,-224.85 902.82,-235.44 885.99,-243 867.43,-251.34 846.36,-258.29 827.15,-263.75"/>
<polygon fill="black" stroke="black" points="936.8,-218.14 943.13,-209.64 932.88,-212.34 936.8,-218.14"/>
<text text-anchor="middle" x="970.49" y="-231.8" font-family="Times,serif" font-size="14.00">विशेषणम्</text>
</g>
<!-- Node12_1 -->
<g id="node7" class="node">
<title>Node12_1</title>
<ellipse fill="#00bfff" stroke="#00bfff" cx="569.99" cy="-192" rx="90.98" ry="18"/>
<text text-anchor="middle" x="569.99" y="-188.3" font-family="Times,serif" font-size="14.00">[कुशली](12.1)</text>
</g>
<!-- Node12_1&#45;&gt;Node11_1 -->
<g id="edge14" class="edge">
<title>Node12_1&#45;&gt;Node11_1</title>
<path fill="none" stroke="black" d="M600.48,-215.41C614.43,-224.9 631.51,-235.48 647.99,-243 666.41,-251.4 687.34,-258.35 706.47,-263.79"/>
<polygon fill="black" stroke="black" points="602.43,-212.5 592.22,-209.67 598.44,-218.25 602.43,-212.5"/>
<text text-anchor="middle" x="705.49" y="-231.8" font-family="Times,serif" font-size="14.00">विशेषणम्</text>
</g>
<!-- Node1_1 -->
<g id="node8" class="node">
<title>Node1_1</title>
<ellipse fill="#87ceeb" stroke="#87ceeb" cx="332.99" cy="-105" rx="50.89" ry="18"/>
<text text-anchor="middle" x="332.99" y="-101.3" font-family="Times,serif" font-size="14.00">तव(1.1)</text>
</g>
<!-- Node1_1&#45;&gt;Node2_1 -->
<g id="edge1" class="edge">
<title>Node1_1&#45;&gt;Node2_1</title>
<path fill="none" stroke="black" d="M332.03,-133.27C331.56,-146.58 331.01,-162.19 330.6,-173.82"/>
<polygon fill="black" stroke="black" points="335.53,-133.32 332.38,-123.2 328.53,-133.07 335.53,-133.32"/>
<text text-anchor="middle" x="423.99" y="-144.8" font-family="Times,serif" font-size="14.00">षष्ठीसम्बन्धः</text>
</g>
<!-- Node3_1 -->
<g id="node9" class="node">
<title>Node3_1</title>
<ellipse fill="#ffff00" stroke="#ffff00" cx="90.99" cy="-18" rx="72.29" ry="18"/>
<text text-anchor="middle" x="90.99" y="-14.3" font-family="Times,serif" font-size="14.00">सर्व&#45;(3.1)</text>
</g>
<!-- Node3_2 -->
<g id="node10" class="node">
<title>Node3_2</title>
<ellipse fill="#ffff00" stroke="#ffff00" cx="90.99" cy="-105" rx="90.98" ry="18"/>
<text text-anchor="middle" x="90.99" y="-101.3" font-family="Times,serif" font-size="14.00">शस्त्र&#45;(3.2)</text>
</g>
<!-- Node3_1&#45;&gt;Node3_2 -->
<g id="edge3" class="edge">
<title>Node3_1&#45;&gt;Node3_2</title>
<path fill="none" stroke="black" d="M90.99,-46.27C90.99,-59.58 90.99,-75.19 90.99,-86.82"/>
<polygon fill="black" stroke="black" points="94.49,-46.2 90.99,-36.2 87.49,-46.2 94.49,-46.2"/>
<text text-anchor="middle" x="200.49" y="-57.8" font-family="Times,serif" font-size="14.00">सप्तमी&#45;तत्पुरुषः</text>
</g>
<!-- Node3_3 -->
<g id="node11" class="node">
<title>Node3_3</title>
<ellipse fill="#87ceeb" stroke="#87ceeb" cx="93.99" cy="-192" rx="87.99" ry="18"/>
<text text-anchor="middle" x="93.99" y="-188.3" font-family="Times,serif" font-size="14.00">भृताम्(3.3)</text>
</g>
<!-- Node3_2&#45;&gt;Node3_3 -->
<g id="edge4" class="edge">
<title>Node3_2&#45;&gt;Node3_3</title>
<path fill="none" stroke="black" d="M91.95,-133.27C92.42,-146.58 92.98,-162.19 93.39,-173.82"/>
<polygon fill="black" stroke="black" points="95.45,-133.07 91.6,-123.2 88.45,-133.32 95.45,-133.07"/>
<text text-anchor="middle" x="202.49" y="-144.8" font-family="Times,serif" font-size="14.00">सप्तमी&#45;तत्पुरुषः</text>
</g>
<!-- Node3_3&#45;&gt;Node4_1 -->
<g id="edge5" class="edge">
<title>Node3_3&#45;&gt;Node4_1</title>
<path fill="none" stroke="black" d="M120.94,-216.11C133.12,-225.58 148.11,-235.95 162.99,-243 189,-255.31 219.99,-263.79 245.51,-269.31"/>
<polygon fill="black" stroke="black" points="122.98,-213.26 112.98,-209.75 118.61,-218.73 122.98,-213.26"/>
<text text-anchor="middle" x="234.49" y="-231.8" font-family="Times,serif" font-size="14.00">निर्धारणम्</text>
</g>
<!-- Node7_1 -->
<g id="node13" class="node">
<title>Node7_1</title>
<ellipse fill="#87ceeb" stroke="#87ceeb" cx="766.99" cy="-18" rx="78.79" ry="18"/>
<text text-anchor="middle" x="766.99" y="-14.3" font-family="Times,serif" font-size="14.00">गुरोः(7.1)</text>
</g>
<!-- Node8_1 -->
<g id="node14" class="node">
<title>Node8_1</title>
<ellipse fill="#c6e2eb" stroke="#c6e2eb" cx="766.99" cy="-105" rx="87.99" ry="18"/>
<text text-anchor="middle" x="766.99" y="-101.3" font-family="Times,serif" font-size="14.00">आराधने(8.1)</text>
</g>
<!-- Node7_1&#45;&gt;Node8_1 -->
<g id="edge8" class="edge">
<title>Node7_1&#45;&gt;Node8_1</title>
<path fill="none" stroke="black" d="M766.99,-46.27C766.99,-59.58 766.99,-75.19 766.99,-86.82"/>
<polygon fill="black" stroke="black" points="770.49,-46.2 766.99,-36.2 763.49,-46.2 770.49,-46.2"/>
<text text-anchor="middle" x="859.99" y="-57.8" font-family="Times,serif" font-size="14.00">षष्ठीसम्बन्धः</text>
</g>
<!-- Node8_1&#45;&gt;Node9_1 -->
<g id="edge9" class="edge">
<title>Node8_1&#45;&gt;Node9_1</title>
<path fill="none" stroke="black" d="M766.99,-133.27C766.99,-146.58 766.99,-162.19 766.99,-173.82"/>
<polygon fill="black" stroke="black" points="770.49,-133.2 766.99,-123.2 763.49,-133.2 770.49,-133.2"/>
<text text-anchor="middle" x="824.49" y="-144.8" font-family="Times,serif" font-size="14.00">अधिकरणम्</text>
</g>
<!-- Node10_1 -->
<g id="node15" class="node">
<title>Node10_1</title>
<ellipse fill="#ffff00" stroke="#ffff00" cx="965.99" cy="-105" rx="68.79" ry="18"/>
<text text-anchor="middle" x="965.99" y="-101.3" font-family="Times,serif" font-size="14.00">शुभ&#45;(10.1)</text>
</g>
<!-- Node10_1&#45;&gt;Node10_2 -->
<g id="edge11" class="edge">
<title>Node10_1&#45;&gt;Node10_2</title>
<path fill="none" stroke="black" d="M965.99,-133.27C965.99,-146.58 965.99,-162.19 965.99,-173.82"/>
<polygon fill="black" stroke="black" points="969.49,-133.2 965.99,-123.2 962.49,-133.2 969.49,-133.2"/>
<text text-anchor="middle" x="1037.49" y="-144.8" font-family="Times,serif" font-size="14.00">बहुव्रीहिः</text>
</g>
</g>
</svg>
