<?xml version="1.0" encoding="UTF-8" standalone="no"?>
<!DOCTYPE svg PUBLIC "-//W3C//DTD SVG 1.1//EN"
 "http://www.w3.org/Graphics/SVG/1.1/DTD/svg11.dtd">
<!-- Generated by graphviz version 2.43.0 (0)
 -->
<!-- Title: G Pages: 1 -->
<svg width="2792pt" height="653pt"
 viewBox="0.00 0.00 2792.00 653.00" xmlns="http://www.w3.org/2000/svg" xmlns:xlink="http://www.w3.org/1999/xlink">
<g id="graph0" class="graph" transform="scale(1 1) rotate(0) translate(4 649)">
<title>G</title>
<polygon fill="#fffacd" stroke="transparent" points="-4,4 -4,-649 2788,-649 2788,4 -4,4"/>
<g id="clust1" class="cluster">
<title>cluster_1</title>
<polygon fill="#fffacd" stroke="black" points="1975,-166 1975,-305 2721,-305 2721,-166 1975,-166"/>
</g>
<g id="clust2" class="cluster">
<title>cluster_2</title>
<polygon fill="#fffacd" stroke="black" points="641,-427 641,-566 1996,-566 1996,-427 641,-427"/>
</g>
<g id="clust3" class="cluster">
<title>cluster_3</title>
<polygon fill="#fffacd" stroke="black" points="8,-427 8,-566 192,-566 192,-427 8,-427"/>
</g>
<!-- Node2_1 -->
<g id="node1" class="node">
<title>Node2_1</title>
<ellipse fill="#87ceeb" stroke="#87ceeb" cx="2579" cy="-192" rx="133.78" ry="18"/>
<text text-anchor="middle" x="2579" y="-188.3" font-family="Times,serif" font-size="14.00">मुमूर्षताम्(2.1)</text>
</g>
<!-- Node5_1 -->
<g id="node2" class="node">
<title>Node5_1</title>
<ellipse fill="#87ceeb" stroke="#87ceeb" cx="2163" cy="-279" rx="50.89" ry="18"/>
<text text-anchor="middle" x="2163" y="-275.3" font-family="Times,serif" font-size="14.00">नः(5.1)</text>
</g>
<!-- Node2_1&#45;&gt;Node5_1 -->
<g id="edge3" class="edge">
<title>Node2_1&#45;&gt;Node5_1</title>
<path fill="none" stroke="black" d="M2513.39,-211.12C2474.99,-221.33 2425.47,-233.83 2381,-243 2322.25,-255.11 2253.86,-265.49 2209.57,-271.74"/>
<polygon fill="black" stroke="black" points="2514.65,-214.4 2523.4,-208.44 2512.84,-207.64 2514.65,-214.4"/>
<text text-anchor="middle" x="2503.5" y="-231.8" font-family="Times,serif" font-size="14.00">विशेषणम्</text>
</g>
<!-- Node6_2 -->
<g id="node17" class="node">
<title>Node6_2</title>
<ellipse fill="#b4ffb4" stroke="#b4ffb4" cx="1999" cy="-366" rx="78.79" ry="18"/>
<text text-anchor="middle" x="1999" y="-362.3" font-family="Times,serif" font-size="14.00">हेतोः(6.2)</text>
</g>
<!-- Node5_1&#45;&gt;Node6_2 -->
<g id="edge6" class="edge">
<title>Node5_1&#45;&gt;Node6_2</title>
<path fill="none" stroke="black" d="M2131.77,-300.84C2116.99,-310.3 2098.91,-321.28 2082,-330 2067.82,-337.31 2051.77,-344.35 2037.58,-350.18"/>
<polygon fill="black" stroke="black" points="2134.01,-303.56 2140.5,-295.19 2130.2,-297.68 2134.01,-303.56"/>
<text text-anchor="middle" x="2200" y="-318.8" font-family="Times,serif" font-size="14.00">षष्ठीसम्बन्धः</text>
</g>
<!-- Node3_1 -->
<g id="node3" class="node">
<title>Node3_1</title>
<ellipse fill="#87ceeb" stroke="#87ceeb" cx="2302" cy="-192" rx="124.58" ry="18"/>
<text text-anchor="middle" x="2302" y="-188.3" font-family="Times,serif" font-size="14.00">निराशानाम्(3.1)</text>
</g>
<!-- Node3_1&#45;&gt;Node5_1 -->
<g id="edge4" class="edge">
<title>Node3_1&#45;&gt;Node5_1</title>
<path fill="none" stroke="black" d="M2276.42,-216.52C2265.92,-225.48 2253.34,-235.36 2241,-243 2226.99,-251.67 2210.47,-259.4 2196.24,-265.38"/>
<polygon fill="black" stroke="black" points="2278.78,-219.11 2284.01,-209.9 2274.17,-213.83 2278.78,-219.11"/>
<text text-anchor="middle" x="2319.5" y="-231.8" font-family="Times,serif" font-size="14.00">विशेषणम्</text>
</g>
<!-- Node4_1 -->
<g id="node4" class="node">
<title>Node4_1</title>
<ellipse fill="#87ceeb" stroke="#87ceeb" cx="2071" cy="-192" rx="87.99" ry="18"/>
<text text-anchor="middle" x="2071" y="-188.3" font-family="Times,serif" font-size="14.00">तेषाम्(4.1)</text>
</g>
<!-- Node4_1&#45;&gt;Node5_1 -->
<g id="edge5" class="edge">
<title>Node4_1&#45;&gt;Node5_1</title>
<path fill="none" stroke="black" d="M2096.9,-216.93C2112.42,-231.27 2131.75,-249.13 2145.49,-261.82"/>
<polygon fill="black" stroke="black" points="2098.9,-214.01 2089.18,-209.79 2094.15,-219.15 2098.9,-214.01"/>
<text text-anchor="middle" x="2179.5" y="-231.8" font-family="Times,serif" font-size="14.00">विशेषणम्</text>
</g>
<!-- Node8_1 -->
<g id="node5" class="node">
<title>Node8_1</title>
<ellipse fill="#00bfff" stroke="#00bfff" cx="1909" cy="-453" rx="78.79" ry="18"/>
<text text-anchor="middle" x="1909" y="-449.3" font-family="Times,serif" font-size="14.00">आयातः(8.1)</text>
</g>
<!-- Node16_1 -->
<g id="node6" class="node">
<title>Node16_1</title>
<ellipse fill="#00bfff" stroke="#00bfff" cx="1257" cy="-540" rx="112.38" ry="18"/>
<text text-anchor="middle" x="1257" y="-536.3" font-family="Times,serif" font-size="14.00">सम्पातिः(16.1)</text>
</g>
<!-- Node8_1&#45;&gt;Node16_1 -->
<g id="edge10" class="edge">
<title>Node8_1&#45;&gt;Node16_1</title>
<path fill="none" stroke="black" d="M1864.11,-472.92C1835.89,-483.94 1798.43,-497 1764,-504 1630.31,-531.17 1473.15,-538.29 1369.65,-539.66"/>
<polygon fill="black" stroke="black" points="1865.68,-476.06 1873.68,-469.12 1863.1,-469.55 1865.68,-476.06"/>
<text text-anchor="middle" x="1873.5" y="-492.8" font-family="Times,serif" font-size="14.00">विशेषणम्</text>
</g>
<!-- Node22_1 -->
<g id="node23" class="node">
<title>Node22_1</title>
<ellipse fill="#ff1975" stroke="#ff1975" cx="463" cy="-627" rx="112.38" ry="18"/>
<text text-anchor="middle" x="463" y="-623.3" font-family="Times,serif" font-size="14.00">अब्रवीत्(22.1)</text>
</g>
<!-- Node16_1&#45;&gt;Node22_1 -->
<g id="edge20" class="edge">
<title>Node16_1&#45;&gt;Node22_1</title>
<path fill="none" stroke="black" d="M1156.25,-551.79C1000.4,-568.47 703.26,-600.28 553.73,-616.29"/>
<polygon fill="black" stroke="black" points="1156.73,-555.25 1166.3,-550.71 1155.99,-548.29 1156.73,-555.25"/>
<text text-anchor="middle" x="943" y="-579.8" font-family="Times,serif" font-size="14.00">कर्ता</text>
</g>
<!-- Node9_1 -->
<g id="node7" class="node">
<title>Node9_1</title>
<ellipse fill="#00bfff" stroke="#00bfff" cx="951" cy="-453" rx="115.88" ry="18"/>
<text text-anchor="middle" x="951" y="-449.3" font-family="Times,serif" font-size="14.00">वीर्यवान्(9.1)</text>
</g>
<!-- Node9_1&#45;&gt;Node16_1 -->
<g id="edge11" class="edge">
<title>Node9_1&#45;&gt;Node16_1</title>
<path fill="none" stroke="black" d="M993.6,-474.5C1015.94,-484.58 1043.99,-496.2 1070,-504 1103.85,-514.15 1142.07,-521.93 1175.1,-527.55"/>
<polygon fill="black" stroke="black" points="994.96,-471.27 984.41,-470.3 992.04,-477.64 994.96,-471.27"/>
<text text-anchor="middle" x="1127.5" y="-492.8" font-family="Times,serif" font-size="14.00">विशेषणम्</text>
</g>
<!-- Node10_1 -->
<g id="node8" class="node">
<title>Node10_1</title>
<ellipse fill="#00bfff" stroke="#00bfff" cx="733" cy="-453" rx="84.49" ry="18"/>
<text text-anchor="middle" x="733" y="-449.3" font-family="Times,serif" font-size="14.00">महान्(10.1)</text>
</g>
<!-- Node10_1&#45;&gt;Node16_1 -->
<g id="edge12" class="edge">
<title>Node10_1&#45;&gt;Node16_1</title>
<path fill="none" stroke="black" d="M786.45,-471.74C821.27,-482.63 867.89,-495.99 910,-504 990.75,-519.36 1083.43,-528.27 1152.69,-533.25"/>
<polygon fill="black" stroke="black" points="787.09,-468.27 776.5,-468.59 784.98,-474.94 787.09,-468.27"/>
<text text-anchor="middle" x="967.5" y="-492.8" font-family="Times,serif" font-size="14.00">विशेषणम्</text>
</g>
<!-- Node12_1 -->
<g id="node9" class="node">
<title>Node12_1</title>
<ellipse fill="#00bfff" stroke="#00bfff" cx="1356" cy="-453" rx="102.88" ry="18"/>
<text text-anchor="middle" x="1356" y="-449.3" font-family="Times,serif" font-size="14.00">सोदर्यः(12.1)</text>
</g>
<!-- Node12_1&#45;&gt;Node16_1 -->
<g id="edge15" class="edge">
<title>Node12_1&#45;&gt;Node16_1</title>
<path fill="none" stroke="black" d="M1340.17,-479.63C1334.21,-488.03 1326.93,-496.99 1319,-504 1310.94,-511.12 1301.2,-517.45 1291.85,-522.69"/>
<polygon fill="black" stroke="black" points="1343.18,-481.43 1345.88,-471.18 1337.38,-477.5 1343.18,-481.43"/>
<text text-anchor="middle" x="1389.5" y="-492.8" font-family="Times,serif" font-size="14.00">विशेषणम्</text>
</g>
<!-- Node13_1 -->
<g id="node10" class="node">
<title>Node13_1</title>
<ellipse fill="#00bfff" stroke="#00bfff" cx="1719" cy="-453" rx="93.68" ry="18"/>
<text text-anchor="middle" x="1719" y="-449.3" font-family="Times,serif" font-size="14.00">शकुनिः(13.1)</text>
</g>
<!-- Node13_1&#45;&gt;Node16_1 -->
<g id="edge16" class="edge">
<title>Node13_1&#45;&gt;Node16_1</title>
<path fill="none" stroke="black" d="M1679.41,-474.66C1657.47,-485.18 1629.37,-497.16 1603,-504 1525.86,-524.02 1436.28,-532.7 1367.6,-536.41"/>
<polygon fill="black" stroke="black" points="1680.96,-477.8 1688.41,-470.26 1677.89,-471.51 1680.96,-477.8"/>
<text text-anchor="middle" x="1702.5" y="-492.8" font-family="Times,serif" font-size="14.00">विशेषणम्</text>
</g>
<!-- Node14_1 -->
<g id="node11" class="node">
<title>Node14_1</title>
<ellipse fill="#ff99ff" stroke="#ff99ff" cx="1542" cy="-453" rx="65.79" ry="18"/>
<text text-anchor="middle" x="1542" y="-449.3" font-family="Times,serif" font-size="14.00">नाम(14.1)</text>
</g>
<!-- Node14_1&#45;&gt;Node16_1 -->
<g id="edge17" class="edge">
<title>Node14_1&#45;&gt;Node16_1</title>
<path fill="none" stroke="black" d="M1509.42,-475.27C1492.59,-485.37 1471.36,-496.79 1451,-504 1417.77,-515.77 1379.88,-523.74 1346.45,-529.05"/>
<polygon fill="black" stroke="black" points="1511.6,-478.04 1518.29,-469.83 1507.94,-472.08 1511.6,-478.04"/>
<text text-anchor="middle" x="1541.5" y="-492.8" font-family="Times,serif" font-size="14.00">विशेषणम्</text>
</g>
<!-- Node15_2 -->
<g id="node12" class="node">
<title>Node15_2</title>
<ellipse fill="#00bfff" stroke="#00bfff" cx="1160" cy="-453" rx="75.29" ry="18"/>
<text text-anchor="middle" x="1160" y="-449.3" font-family="Times,serif" font-size="14.00">राट्(15.2)</text>
</g>
<!-- Node15_2&#45;&gt;Node16_1 -->
<g id="edge19" class="edge">
<title>Node15_2&#45;&gt;Node16_1</title>
<path fill="none" stroke="black" d="M1179.38,-478.61C1186.65,-487.11 1195.28,-496.4 1204,-504 1211.65,-510.66 1220.65,-517.06 1229.03,-522.51"/>
<polygon fill="black" stroke="black" points="1181.95,-476.22 1172.87,-470.77 1176.57,-480.7 1181.95,-476.22"/>
<text text-anchor="middle" x="1261.5" y="-492.8" font-family="Times,serif" font-size="14.00">विशेषणम्</text>
</g>
<!-- Node20_1 -->
<g id="node13" class="node">
<title>Node20_1</title>
<ellipse fill="#00bfff" stroke="#00bfff" cx="91" cy="-453" rx="75.29" ry="18"/>
<text text-anchor="middle" x="91" y="-449.3" font-family="Times,serif" font-size="14.00">इदम्(20.1)</text>
</g>
<!-- Node21_1 -->
<g id="node14" class="node">
<title>Node21_1</title>
<ellipse fill="#00bfff" stroke="#00bfff" cx="100" cy="-540" rx="84.49" ry="18"/>
<text text-anchor="middle" x="100" y="-536.3" font-family="Times,serif" font-size="14.00">वचनम्(21.1)</text>
</g>
<!-- Node20_1&#45;&gt;Node21_1 -->
<g id="edge25" class="edge">
<title>Node20_1&#45;&gt;Node21_1</title>
<path fill="none" stroke="black" d="M93.89,-481.27C95.3,-494.58 96.95,-510.19 98.18,-521.82"/>
<polygon fill="black" stroke="black" points="97.35,-480.78 92.82,-471.2 90.39,-481.51 97.35,-480.78"/>
<text text-anchor="middle" x="154.5" y="-492.8" font-family="Times,serif" font-size="14.00">विशेषणम्</text>
</g>
<!-- Node21_1&#45;&gt;Node22_1 -->
<g id="edge26" class="edge">
<title>Node21_1&#45;&gt;Node22_1</title>
<path fill="none" stroke="black" d="M157.67,-557.82C193.8,-568.07 241.42,-581.07 284,-591 319,-599.17 358.15,-606.97 390.89,-613.13"/>
<polygon fill="black" stroke="black" points="158.38,-554.38 147.8,-555.01 156.46,-561.11 158.38,-554.38"/>
<text text-anchor="middle" x="313" y="-579.8" font-family="Times,serif" font-size="14.00">कर्म</text>
</g>
<!-- Node1_1 -->
<g id="node15" class="node">
<title>Node1_1</title>
<ellipse fill="#ffff00" stroke="#ffff00" cx="2579" cy="-18" rx="90.98" ry="18"/>
<text text-anchor="middle" x="2579" y="-14.3" font-family="Times,serif" font-size="14.00">स्वामि&#45;(1.1)</text>
</g>
<!-- Node1_2 -->
<g id="node16" class="node">
<title>Node1_2</title>
<ellipse fill="#b4ffb4" stroke="#b4ffb4" cx="2579" cy="-105" rx="115.88" ry="18"/>
<text text-anchor="middle" x="2579" y="-101.3" font-family="Times,serif" font-size="14.00">सन्देशात्(1.2)</text>
</g>
<!-- Node1_1&#45;&gt;Node1_2 -->
<g id="edge1" class="edge">
<title>Node1_1&#45;&gt;Node1_2</title>
<path fill="none" stroke="black" d="M2579,-46.27C2579,-59.58 2579,-75.19 2579,-86.82"/>
<polygon fill="black" stroke="black" points="2582.5,-46.2 2579,-36.2 2575.5,-46.2 2582.5,-46.2"/>
<text text-anchor="middle" x="2681.5" y="-57.8" font-family="Times,serif" font-size="14.00">षष्ठी&#45;तत्पुरुषः</text>
</g>
<!-- Node1_2&#45;&gt;Node2_1 -->
<g id="edge2" class="edge">
<title>Node1_2&#45;&gt;Node2_1</title>
<path fill="none" stroke="black" d="M2579,-133.27C2579,-146.58 2579,-162.19 2579,-173.82"/>
<polygon fill="black" stroke="black" points="2582.5,-133.2 2579,-123.2 2575.5,-133.2 2582.5,-133.2"/>
<text text-anchor="middle" x="2615" y="-144.8" font-family="Times,serif" font-size="14.00">हेतुः</text>
</g>
<!-- Node6_2&#45;&gt;Node8_1 -->
<g id="edge8" class="edge">
<title>Node6_2&#45;&gt;Node8_1</title>
<path fill="none" stroke="black" d="M1991.04,-393.97C1987.68,-402.07 1983.1,-410.52 1977,-417 1969.08,-425.41 1958.69,-432.15 1948.43,-437.38"/>
<polygon fill="black" stroke="black" points="1994.39,-395.01 1994.55,-384.41 1987.82,-392.59 1994.39,-395.01"/>
<text text-anchor="middle" x="2023" y="-405.8" font-family="Times,serif" font-size="14.00">हेतुः</text>
</g>
<!-- Node6_1 -->
<g id="node18" class="node">
<title>Node6_1</title>
<ellipse fill="#ffff00" stroke="#ffff00" cx="1886" cy="-279" rx="81.49" ry="18"/>
<text text-anchor="middle" x="1886" y="-275.3" font-family="Times,serif" font-size="14.00">कार्य&#45;(6.1)</text>
</g>
<!-- Node6_1&#45;&gt;Node6_2 -->
<g id="edge7" class="edge">
<title>Node6_1&#45;&gt;Node6_2</title>
<path fill="none" stroke="black" d="M1915.96,-302.53C1935.24,-317.04 1959.87,-335.56 1977.28,-348.66"/>
<polygon fill="black" stroke="black" points="1917.88,-299.6 1907.79,-296.39 1913.68,-305.2 1917.88,-299.6"/>
<text text-anchor="middle" x="2013.5" y="-318.8" font-family="Times,serif" font-size="14.00">कर्मधारयः</text>
</g>
<!-- Node7_1 -->
<g id="node19" class="node">
<title>Node7_1</title>
<ellipse fill="#ff99ff" stroke="#ff99ff" cx="1819" cy="-366" rx="50.89" ry="18"/>
<text text-anchor="middle" x="1819" y="-362.3" font-family="Times,serif" font-size="14.00">इह(7.1)</text>
</g>
<!-- Node7_1&#45;&gt;Node8_1 -->
<g id="edge9" class="edge">
<title>Node7_1&#45;&gt;Node8_1</title>
<path fill="none" stroke="black" d="M1811.27,-394.23C1810.56,-402.15 1811.46,-410.44 1816,-417 1823.85,-428.35 1835.88,-436.02 1848.71,-441.21"/>
<polygon fill="black" stroke="black" points="1814.75,-394.63 1812.97,-384.19 1807.85,-393.46 1814.75,-394.63"/>
<text text-anchor="middle" x="1894.5" y="-405.8" font-family="Times,serif" font-size="14.00">देशाधिकरणम्</text>
</g>
<!-- Node11_1 -->
<g id="node20" class="node">
<title>Node11_1</title>
<ellipse fill="#ffff00" stroke="#ffff00" cx="1358" cy="-279" rx="87.18" ry="18"/>
<text text-anchor="middle" x="1358" y="-275.3" font-family="Times,serif" font-size="14.00">गृध्र&#45;(11.1)</text>
</g>
<!-- Node11_2 -->
<g id="node21" class="node">
<title>Node11_2</title>
<ellipse fill="#87ceeb" stroke="#87ceeb" cx="1358" cy="-366" rx="93.68" ry="18"/>
<text text-anchor="middle" x="1358" y="-362.3" font-family="Times,serif" font-size="14.00">राजस्य(11.2)</text>
</g>
<!-- Node11_1&#45;&gt;Node11_2 -->
<g id="edge13" class="edge">
<title>Node11_1&#45;&gt;Node11_2</title>
<path fill="none" stroke="black" d="M1358,-307.27C1358,-320.58 1358,-336.19 1358,-347.82"/>
<polygon fill="black" stroke="black" points="1361.5,-307.2 1358,-297.2 1354.5,-307.2 1361.5,-307.2"/>
<text text-anchor="middle" x="1460.5" y="-318.8" font-family="Times,serif" font-size="14.00">षष्ठी&#45;तत्पुरुषः</text>
</g>
<!-- Node11_2&#45;&gt;Node12_1 -->
<g id="edge14" class="edge">
<title>Node11_2&#45;&gt;Node12_1</title>
<path fill="none" stroke="black" d="M1357.36,-394.27C1357.05,-407.58 1356.68,-423.19 1356.4,-434.82"/>
<polygon fill="black" stroke="black" points="1360.86,-394.28 1357.6,-384.2 1353.86,-394.12 1360.86,-394.28"/>
<text text-anchor="middle" x="1450" y="-405.8" font-family="Times,serif" font-size="14.00">षष्ठीसम्बन्धः</text>
</g>
<!-- Node15_1 -->
<g id="node22" class="node">
<title>Node15_1</title>
<ellipse fill="#ffff00" stroke="#ffff00" cx="1159" cy="-366" rx="87.18" ry="18"/>
<text text-anchor="middle" x="1159" y="-362.3" font-family="Times,serif" font-size="14.00">गृध्र&#45;(15.1)</text>
</g>
<!-- Node15_1&#45;&gt;Node15_2 -->
<g id="edge18" class="edge">
<title>Node15_1&#45;&gt;Node15_2</title>
<path fill="none" stroke="black" d="M1159.32,-394.27C1159.48,-407.58 1159.66,-423.19 1159.8,-434.82"/>
<polygon fill="black" stroke="black" points="1162.82,-394.16 1159.2,-384.2 1155.82,-394.24 1162.82,-394.16"/>
<text text-anchor="middle" x="1195" y="-405.8" font-family="Times,serif" font-size="14.00">समासः</text>
</g>
<!-- Node17_1 -->
<g id="node24" class="node">
<title>Node17_1</title>
<ellipse fill="#ffff00" stroke="#ffff00" cx="315" cy="-366" rx="96.68" ry="18"/>
<text text-anchor="middle" x="315" y="-362.3" font-family="Times,serif" font-size="14.00">भ्रातृ&#45;(17.1)</text>
</g>
<!-- Node17_2 -->
<g id="node25" class="node">
<title>Node17_2</title>
<ellipse fill="#93db70" stroke="#93db70" cx="315" cy="-453" rx="75.29" ry="18"/>
<text text-anchor="middle" x="315" y="-449.3" font-family="Times,serif" font-size="14.00">वधम्(17.2)</text>
</g>
<!-- Node17_1&#45;&gt;Node17_2 -->
<g id="edge21" class="edge">
<title>Node17_1&#45;&gt;Node17_2</title>
<path fill="none" stroke="black" d="M315,-394.27C315,-407.58 315,-423.19 315,-434.82"/>
<polygon fill="black" stroke="black" points="318.5,-394.2 315,-384.2 311.5,-394.2 318.5,-394.2"/>
<text text-anchor="middle" x="417.5" y="-405.8" font-family="Times,serif" font-size="14.00">षष्ठी&#45;तत्पुरुषः</text>
</g>
<!-- Node18_1 -->
<g id="node26" class="node">
<title>Node18_1</title>
<ellipse fill="#ff99ff" stroke="#ff99ff" cx="315" cy="-540" rx="112.38" ry="18"/>
<text text-anchor="middle" x="315" y="-536.3" font-family="Times,serif" font-size="14.00">श्रुत्वा(18.1)</text>
</g>
<!-- Node17_2&#45;&gt;Node18_1 -->
<g id="edge22" class="edge">
<title>Node17_2&#45;&gt;Node18_1</title>
<path fill="none" stroke="black" d="M315,-481.27C315,-494.58 315,-510.19 315,-521.82"/>
<polygon fill="black" stroke="black" points="318.5,-481.2 315,-471.2 311.5,-481.2 318.5,-481.2"/>
<text text-anchor="middle" x="344" y="-492.8" font-family="Times,serif" font-size="14.00">कर्म</text>
</g>
<!-- Node18_1&#45;&gt;Node22_1 -->
<g id="edge23" class="edge">
<title>Node18_1&#45;&gt;Node22_1</title>
<path fill="none" stroke="black" d="M334.62,-565.89C342.65,-574.78 352.51,-584.26 363,-591 376.23,-599.5 391.78,-606.23 406.62,-611.42"/>
<polygon fill="black" stroke="black" points="337.26,-563.58 328.07,-558.3 331.96,-568.16 337.26,-563.58"/>
<text text-anchor="middle" x="427.5" y="-579.8" font-family="Times,serif" font-size="14.00">पूर्वकालः</text>
</g>
<!-- Node19_1 -->
<g id="node27" class="node">
<title>Node19_1</title>
<ellipse fill="#b4ffb4" stroke="#b4ffb4" cx="539" cy="-540" rx="93.68" ry="18"/>
<text text-anchor="middle" x="539" y="-536.3" font-family="Times,serif" font-size="14.00">कोपात्(19.1)</text>
</g>
<!-- Node19_1&#45;&gt;Node22_1 -->
<g id="edge24" class="edge">
<title>Node19_1&#45;&gt;Node22_1</title>
<path fill="none" stroke="black" d="M517.04,-565.56C504.61,-579.47 489.37,-596.51 478.24,-608.95"/>
<polygon fill="black" stroke="black" points="519.93,-567.58 523.98,-557.79 514.71,-562.92 519.93,-567.58"/>
<text text-anchor="middle" x="541" y="-579.8" font-family="Times,serif" font-size="14.00">हेतुः</text>
</g>
</g>
</svg>
