<svg xmlns="http://www.w3.org/2000/svg" xmlns:xlink="http://www.w3.org/1999/xlink" width="1512" height="479pt" viewBox="0 0 1133.74 479"><g id="graph0" class="graph" transform="scale(1 1) rotate(0) translate(4 475)"><title>G</title><polygon fill="#fffacd" stroke="transparent" points="-4 4 -4 -475 1129.74 -475 1129.74 4 -4 4"/><g id="clust1" class="cluster"><title>cluster_1</title><polygon fill="#fffacd" stroke="#000" points="768.74 -166 768.74 -305 1117.74 -305 1117.74 -166 768.74 -166"/></g><g id="clust2" class="cluster"><title>cluster_2</title><polygon fill="#fffacd" stroke="#000" points="530.74 -166 530.74 -305 760.74 -305 760.74 -166 530.74 -166"/></g><g id="node1" class="node"><title>Node1_1</title><ellipse cx="1058.74" cy="-192" fill="#00bfff" stroke="#00bfff" rx="50.89" ry="18"/><text x="1058.74" y="-188.3" font-family="Times,serif" font-size="14" text-anchor="middle">सः(1.1)</text></g><g id="node2" class="node"><title>Node6_1</title><ellipse cx="855.74" cy="-279" fill="#00bfff" stroke="#00bfff" rx="78.79" ry="18"/><text x="855.74" y="-275.3" font-family="Times,serif" font-size="14" text-anchor="middle">राघवः(6.1)</text></g><g id="edge1" class="edge"><title>Node1_1-&gt;Node6_1</title><path fill="none" stroke="#000" d="M1027.35,-213.38C1011.19,-223.25 990.91,-234.73 971.74,-243 951.08,-251.92 927.42,-259.49 906.88,-265.29"/><polygon fill="#000" stroke="#000" points="1029.21 -216.33 1035.86 -208.08 1025.52 -210.39 1029.21 -216.33"/><text x="1058.24" y="-231.8" font-family="Times,serif" font-size="14" text-anchor="middle">विशेषणम्</text></g><g id="node7" class="node"><title>Node5_1</title><ellipse cx="535.74" cy="-453" fill="#ff1975" stroke="#ff1975" rx="133.78" ry="18"/><text x="535.74" y="-449.3" font-family="Times,serif" font-size="14" text-anchor="middle">प्राप्स्यति(5.1)</text></g><g id="edge6" class="edge"><title>Node6_1-&gt;Node5_1</title><path fill="none" stroke="#000" d="M857.38,-307.66C857.59,-339.13 852.6,-389.68 821.74,-417 798.66,-437.43 731.51,-446.31 668.08,-450.01"/><polygon fill="#000" stroke="#000" points="860.87 -307.31 857.12 -297.4 853.87 -307.48 860.87 -307.31"/><text x="889.74" y="-362.3" font-family="Times,serif" font-size="14" text-anchor="middle">कर्ता</text></g><g id="node10" class="node"><title>Node8_1</title><ellipse cx="725.74" cy="-366" fill="#f9f" stroke="#f9f" rx="78.79" ry="18"/><text x="725.74" y="-362.3" font-family="Times,serif" font-size="14" text-anchor="middle">हत्वा(8.1)</text></g><g id="edge7" class="edge"><title>Node6_1-&gt;Node8_1</title><path fill="none" stroke="#000" stroke-dasharray="1 5" d="M800.25,-297.69C789.3,-302.43 778.26,-308.18 768.74,-315 756.27,-323.93 745.07,-337.21 737.23,-347.84"/><polygon fill="#000" stroke="#000" points="801.89 -300.8 809.82 -293.78 799.24 -294.32 801.89 -300.8"/><text x="804.74" y="-318.8" font-family="Times,serif" font-size="14" text-anchor="middle">कर्ता</text></g><g id="node3" class="node"><title>Node3_2</title><ellipse cx="883.74" cy="-192" fill="#00bfff" stroke="#00bfff" rx="106.68" ry="18"/><text x="883.74" y="-188.3" font-family="Times,serif" font-size="14" text-anchor="middle">शार्दूलः(3.2)</text></g><g id="edge4" class="edge"><title>Node3_2-&gt;Node6_1</title><path fill="none" stroke="#000" d="M861.46,-218.21C859.57,-221.35 857.92,-224.64 856.74,-228 853.05,-238.48 852.8,-250.98 853.47,-260.86"/><polygon fill="#000" stroke="#000" points="864.45 -220.05 867.3 -209.85 858.71 -216.04 864.45 -220.05"/><text x="914.24" y="-231.8" font-family="Times,serif" font-size="14" text-anchor="middle">विशेषणम्</text></g><g id="node4" class="node"><title>Node7_3</title><ellipse cx="645.74" cy="-192" fill="#93db70" stroke="#93db70" rx="106.68" ry="18"/><text x="645.74" y="-188.3" font-family="Times,serif" font-size="14" text-anchor="middle">बान्धवम्(7.3)</text></g><g id="node5" class="node"><title>Node9_1</title><ellipse cx="650.74" cy="-279" fill="#93db70" stroke="#93db70" rx="87.99" ry="18"/><text x="650.74" y="-275.3" font-family="Times,serif" font-size="14" text-anchor="middle">रावणम्(9.1)</text></g><g id="edge10" class="edge"><title>Node7_3-&gt;Node9_1</title><path fill="none" stroke="#000" d="M647.35,-220.27C648.13,-233.58 649.05,-249.19 649.73,-260.82"/><polygon fill="#000" stroke="#000" points="650.84 -219.98 646.75 -210.2 643.85 -220.39 650.84 -219.98"/><text x="705.24" y="-231.8" font-family="Times,serif" font-size="14" text-anchor="middle">विशेषणम्</text></g><g id="edge12" class="edge"><title>Node9_1-&gt;Node8_1</title><path fill="none" stroke="#000" d="M667.41,-305.36C673.18,-313.52 679.92,-322.4 686.74,-330 692.46,-336.36 699.23,-342.77 705.52,-348.34"/><polygon fill="#000" stroke="#000" points="670.13 -303.14 661.57 -296.9 664.36 -307.11 670.13 -303.14"/><text x="715.74" y="-318.8" font-family="Times,serif" font-size="14" text-anchor="middle">कर्म</text></g><g id="node6" class="node"><title>Node2_1</title><ellipse cx="87.74" cy="-366" fill="#93db70" stroke="#93db70" rx="87.99" ry="18"/><text x="87.74" y="-362.3" font-family="Times,serif" font-size="14" text-anchor="middle">त्वाम्(2.1)</text></g><g id="edge2" class="edge"><title>Node2_1-&gt;Node5_1</title><path fill="none" stroke="#000" d="M140.46,-384.89C173.75,-395.59 217.86,-408.68 257.74,-417 313.1,-428.55 375.51,-436.82 427.15,-442.42"/><polygon fill="#000" stroke="#000" points="141.52 -381.55 130.93 -381.8 139.36 -388.21 141.52 -381.55"/><text x="286.74" y="-405.8" font-family="Times,serif" font-size="14" text-anchor="middle">कर्म</text></g><g id="node8" class="node"><title>Node3_1</title><ellipse cx="883.74" cy="-105" fill="#ff0" stroke="#ff0" rx="72.29" ry="18"/><text x="883.74" y="-101.3" font-family="Times,serif" font-size="14" text-anchor="middle">मनुज-(3.1)</text></g><g id="edge3" class="edge"><title>Node3_1-&gt;Node3_2</title><path fill="none" stroke="#000" d="M883.74,-133.27C883.74,-146.58 883.74,-162.19 883.74,-173.82"/><polygon fill="#000" stroke="#000" points="887.24 -133.2 883.74 -123.2 880.24 -133.2 887.24 -133.2"/><text x="986.24" y="-144.8" font-family="Times,serif" font-size="14" text-anchor="middle">षष्ठी-तत्पुरुषः</text></g><g id="node9" class="node"><title>Node4_1</title><ellipse cx="308.74" cy="-366" fill="#f9f" stroke="#f9f" rx="115.88" ry="18"/><text x="308.74" y="-362.3" font-family="Times,serif" font-size="14" text-anchor="middle">क्षिप्रम्(4.1)</text></g><g id="edge5" class="edge"><title>Node4_1-&gt;Node5_1</title><path fill="none" stroke="#000" d="M315.64,-393.9C319.12,-402.49 324.25,-411.25 331.74,-417 347.31,-428.95 386.75,-437.08 426.84,-442.47"/><polygon fill="#000" stroke="#000" points="318.94 -392.75 312.37 -384.44 312.33 -395.04 318.94 -392.75"/><text x="431.74" y="-405.8" font-family="Times,serif" font-size="14" text-anchor="middle">क्रियाविशेषणम्</text></g><g id="edge11" class="edge"><title>Node8_1-&gt;Node5_1</title><path fill="none" stroke="#000" d="M703.02,-391.3C693.25,-400.51 681.21,-410.37 668.74,-417 651.46,-426.19 631.6,-433.09 612.59,-438.21"/><polygon fill="#000" stroke="#000" points="705.64 -393.62 710.33 -384.12 700.74 -388.62 705.64 -393.62"/><text x="753.24" y="-405.8" font-family="Times,serif" font-size="14" text-anchor="middle">पूर्वकालः</text></g><g id="node11" class="node"><title>Node7_1</title><ellipse cx="645.74" cy="-18" fill="#ff0" stroke="#ff0" rx="44.39" ry="18"/><text x="645.74" y="-14.3" font-family="Times,serif" font-size="14" text-anchor="middle">स-(7.1)</text></g><g id="node12" class="node"><title>Node7_2</title><ellipse cx="645.74" cy="-105" fill="#ff0" stroke="#ff0" rx="81.49" ry="18"/><text x="645.74" y="-101.3" font-family="Times,serif" font-size="14" text-anchor="middle">मित्र-(7.2)</text></g><g id="edge8" class="edge"><title>Node7_1-&gt;Node7_2</title><path fill="none" stroke="#000" d="M645.74,-46.27C645.74,-59.58 645.74,-75.19 645.74,-86.82"/><polygon fill="#000" stroke="#000" points="649.24 -46.2 645.74 -36.2 642.24 -46.2 649.24 -46.2"/><text x="717.24" y="-57.8" font-family="Times,serif" font-size="14" text-anchor="middle">बहुव्रीहिः</text></g><g id="edge9" class="edge"><title>Node7_2-&gt;Node7_3</title><path fill="none" stroke="#000" d="M645.74,-133.27C645.74,-146.58 645.74,-162.19 645.74,-173.82"/><polygon fill="#000" stroke="#000" points="649.24 -133.2 645.74 -123.2 642.24 -133.2 649.24 -133.2"/><text x="710.24" y="-144.8" font-family="Times,serif" font-size="14" text-anchor="middle">द्वन्द्वः</text></g><g id="node13" class="node"><title>Node10_1</title><ellipse cx="453.74" cy="-279" fill="#ff0" stroke="#ff0" rx="68.79" ry="18"/><text x="453.74" y="-275.3" font-family="Times,serif" font-size="14" text-anchor="middle">जनक-(10.1)</text></g><g id="node14" class="node"><title>Node10_2</title><ellipse cx="535.74" cy="-366" fill="#c6e2eb" stroke="#c6e2eb" rx="93.68" ry="18"/><text x="535.74" y="-362.3" font-family="Times,serif" font-size="14" text-anchor="middle">आत्मजे(10.2)</text></g><g id="edge13" class="edge"><title>Node10_1-&gt;Node10_2</title><path fill="none" stroke="#000" d="M455.93,-307.41C457.66,-315.34 460.65,-323.58 465.74,-330 472.42,-338.4 481.64,-344.95 491.2,-350"/><polygon fill="#000" stroke="#000" points="459.35 -306.65 454.3 -297.33 452.44 -307.76 459.35 -306.65"/><text x="568.24" y="-318.8" font-family="Times,serif" font-size="14" text-anchor="middle">षष्ठी-तत्पुरुषः</text></g><g id="edge14" class="edge"><title>Node10_2-&gt;Node5_1</title><path fill="none" stroke="#000" d="M535.74,-394.27C535.74,-407.58 535.74,-423.19 535.74,-434.82"/><polygon fill="#000" stroke="#000" points="539.24 -394.2 535.74 -384.2 532.24 -394.2 539.24 -394.2"/><text x="600.24" y="-405.8" font-family="Times,serif" font-size="14" text-anchor="middle">सम्बोध्यः</text></g></g></svg>