<?xml version="1.0" encoding="UTF-8" standalone="no"?>
<!DOCTYPE svg PUBLIC "-//W3C//DTD SVG 1.1//EN"
 "http://www.w3.org/Graphics/SVG/1.1/DTD/svg11.dtd">
<!-- Generated by graphviz version 2.43.0 (0)
 -->
<!-- Title: G Pages: 1 -->
<svg width="1064pt" height="479pt"
 viewBox="0.00 0.00 1064.48 479.00" xmlns="http://www.w3.org/2000/svg" xmlns:xlink="http://www.w3.org/1999/xlink">
<g id="graph0" class="graph" transform="scale(1 1) rotate(0) translate(4 475)">
<title>G</title>
<polygon fill="#fffacd" stroke="transparent" points="-4,4 -4,-475 1060.48,-475 1060.48,4 -4,4"/>
<!-- Node1_1 -->
<g id="node1" class="node">
<title>Node1_1</title>
<ellipse fill="#ff99ff" stroke="#ff99ff" cx="59.79" cy="-366" rx="59.59" ry="18"/>
<text text-anchor="middle" x="59.79" y="-362.3" font-family="Times,serif" font-size="14.00">ततः(1.1)</text>
</g>
<!-- Node9_1 -->
<g id="node2" class="node">
<title>Node9_1</title>
<ellipse fill="#ff1975" stroke="#ff1975" cx="409.79" cy="-453" rx="87.99" ry="18"/>
<text text-anchor="middle" x="409.79" y="-449.3" font-family="Times,serif" font-size="14.00">अकरोत्(9.1)</text>
</g>
<!-- Node1_1&#45;&gt;Node9_1 -->
<g id="edge1" class="edge">
<title>Node1_1&#45;&gt;Node9_1</title>
<path fill="none" stroke="black" d="M53.84,-394.47C53.65,-402.63 55.25,-410.99 60.79,-417 78.32,-435.99 226.05,-445.18 323.61,-449.22"/>
<polygon fill="black" stroke="black" points="57.33,-394.73 54.88,-384.42 50.37,-394 57.33,-394.73"/>
<text text-anchor="middle" x="139.29" y="-405.8" font-family="Times,serif" font-size="14.00">कालाधिकरणम्</text>
</g>
<!-- Node2_1 -->
<g id="node3" class="node">
<title>Node2_1</title>
<ellipse fill="#ff99ff" stroke="#ff99ff" cx="409.79" cy="-366" rx="87.99" ry="18"/>
<text text-anchor="middle" x="409.79" y="-362.3" font-family="Times,serif" font-size="14.00">निहत्य(2.1)</text>
</g>
<!-- Node2_1&#45;&gt;Node9_1 -->
<g id="edge2" class="edge">
<title>Node2_1&#45;&gt;Node9_1</title>
<path fill="none" stroke="black" d="M409.79,-394.27C409.79,-407.58 409.79,-423.19 409.79,-434.82"/>
<polygon fill="black" stroke="black" points="413.29,-394.2 409.79,-384.2 406.29,-394.2 413.29,-394.2"/>
<text text-anchor="middle" x="474.29" y="-405.8" font-family="Times,serif" font-size="14.00">पूर्वकालः</text>
</g>
<!-- Node3_1 -->
<g id="node4" class="node">
<title>Node3_1</title>
<ellipse fill="#40e0d0" stroke="#40e0d0" cx="737.79" cy="-279" rx="69.59" ry="18"/>
<text text-anchor="middle" x="737.79" y="-275.3" font-family="Times,serif" font-size="14.00">तरसा(3.1)</text>
</g>
<!-- Node3_1&#45;&gt;Node2_1 -->
<g id="edge3" class="edge">
<title>Node3_1&#45;&gt;Node2_1</title>
<path fill="none" stroke="black" d="M699.4,-299.84C677.72,-310.27 649.83,-322.43 623.79,-330 573.28,-344.69 558.71,-339.46 506.79,-348 496.08,-349.76 484.72,-351.7 473.68,-353.61"/>
<polygon fill="black" stroke="black" points="701.14,-302.89 708.59,-295.35 698.07,-296.6 701.14,-302.89"/>
<text text-anchor="middle" x="700.79" y="-318.8" font-family="Times,serif" font-size="14.00">करणम्</text>
</g>
<!-- Node4_1 -->
<g id="node5" class="node">
<title>Node4_1</title>
<ellipse fill="#00bfff" stroke="#00bfff" cx="212.79" cy="-279" rx="69.59" ry="18"/>
<text text-anchor="middle" x="212.79" y="-275.3" font-family="Times,serif" font-size="14.00">रामः(4.1)</text>
</g>
<!-- Node4_1&#45;&gt;Node9_1 -->
<g id="edge4" class="edge">
<title>Node4_1&#45;&gt;Node9_1</title>
<path fill="none" stroke="black" d="M213.6,-307.44C215.68,-330.46 222.05,-362.87 240.79,-384 267.66,-414.28 309.91,-431.28 345.44,-440.71"/>
<polygon fill="black" stroke="black" points="217.08,-307.03 212.91,-297.29 210.1,-307.51 217.08,-307.03"/>
<text text-anchor="middle" x="276.79" y="-362.3" font-family="Times,serif" font-size="14.00">कर्ता</text>
</g>
<!-- Node4_1&#45;&gt;Node2_1 -->
<g id="edge5" class="edge">
<title>Node4_1&#45;&gt;Node2_1</title>
<path fill="none" stroke="black" stroke-dasharray="1,5" d="M255.19,-299.02C276.36,-308.45 302.38,-319.94 325.79,-330 341.04,-336.55 357.91,-343.61 372.51,-349.67"/>
<polygon fill="black" stroke="black" points="256.4,-295.73 245.84,-294.85 253.55,-302.12 256.4,-295.73"/>
<text text-anchor="middle" x="361.79" y="-318.8" font-family="Times,serif" font-size="14.00">कर्ता</text>
</g>
<!-- Node5_1 -->
<g id="node6" class="node">
<title>Node5_1</title>
<ellipse fill="#93db70" stroke="#93db70" cx="396.79" cy="-279" rx="96.68" ry="18"/>
<text text-anchor="middle" x="396.79" y="-275.3" font-family="Times,serif" font-size="14.00">वालिनम्(5.1)</text>
</g>
<!-- Node5_1&#45;&gt;Node2_1 -->
<g id="edge6" class="edge">
<title>Node5_1&#45;&gt;Node2_1</title>
<path fill="none" stroke="black" d="M400.96,-307.27C403,-320.58 405.39,-336.19 407.17,-347.82"/>
<polygon fill="black" stroke="black" points="404.4,-306.56 399.43,-297.2 397.48,-307.62 404.4,-306.56"/>
<text text-anchor="middle" x="432.79" y="-318.8" font-family="Times,serif" font-size="14.00">कर्म</text>
</g>
<!-- Node6_1 -->
<g id="node7" class="node">
<title>Node6_1</title>
<ellipse fill="#c6e2eb" stroke="#c6e2eb" cx="580.79" cy="-279" rx="69.59" ry="18"/>
<text text-anchor="middle" x="580.79" y="-275.3" font-family="Times,serif" font-size="14.00">आहवे(6.1)</text>
</g>
<!-- Node6_1&#45;&gt;Node2_1 -->
<g id="edge7" class="edge">
<title>Node6_1&#45;&gt;Node2_1</title>
<path fill="none" stroke="black" d="M541.2,-299.68C510.91,-314.74 469.7,-335.22 441.55,-349.22"/>
<polygon fill="black" stroke="black" points="542.83,-302.78 550.22,-295.2 539.71,-296.51 542.83,-302.78"/>
<text text-anchor="middle" x="562.29" y="-318.8" font-family="Times,serif" font-size="14.00">अधिकरणम्</text>
</g>
<!-- Node7_1 -->
<g id="node8" class="node">
<title>Node7_1</title>
<ellipse fill="#ffff00" stroke="#ffff00" cx="940.79" cy="-18" rx="72.29" ry="18"/>
<text text-anchor="middle" x="940.79" y="-14.3" font-family="Times,serif" font-size="14.00">सर्व&#45;(7.1)</text>
</g>
<!-- Node7_2 -->
<g id="node9" class="node">
<title>Node7_2</title>
<ellipse fill="#ffff00" stroke="#ffff00" cx="940.79" cy="-105" rx="72.29" ry="18"/>
<text text-anchor="middle" x="940.79" y="-101.3" font-family="Times,serif" font-size="14.00">ऋक्ष&#45;(7.2)</text>
</g>
<!-- Node7_1&#45;&gt;Node7_2 -->
<g id="edge8" class="edge">
<title>Node7_1&#45;&gt;Node7_2</title>
<path fill="none" stroke="black" d="M940.79,-46.27C940.79,-59.58 940.79,-75.19 940.79,-86.82"/>
<polygon fill="black" stroke="black" points="944.29,-46.2 940.79,-36.2 937.29,-46.2 944.29,-46.2"/>
<text text-anchor="middle" x="976.79" y="-57.8" font-family="Times,serif" font-size="14.00">समासः</text>
</g>
<!-- Node7_3 -->
<g id="node10" class="node">
<title>Node7_3</title>
<ellipse fill="#ffff00" stroke="#ffff00" cx="940.79" cy="-192" rx="63.09" ry="18"/>
<text text-anchor="middle" x="940.79" y="-188.3" font-family="Times,serif" font-size="14.00">हरि&#45;(7.3)</text>
</g>
<!-- Node7_2&#45;&gt;Node7_3 -->
<g id="edge9" class="edge">
<title>Node7_2&#45;&gt;Node7_3</title>
<path fill="none" stroke="black" d="M940.79,-133.27C940.79,-146.58 940.79,-162.19 940.79,-173.82"/>
<polygon fill="black" stroke="black" points="944.29,-133.2 940.79,-123.2 937.29,-133.2 944.29,-133.2"/>
<text text-anchor="middle" x="976.79" y="-144.8" font-family="Times,serif" font-size="14.00">समासः</text>
</g>
<!-- Node7_4 -->
<g id="node11" class="node">
<title>Node7_4</title>
<ellipse fill="#87ceeb" stroke="#87ceeb" cx="940.79" cy="-279" rx="115.88" ry="18"/>
<text text-anchor="middle" x="940.79" y="-275.3" font-family="Times,serif" font-size="14.00">सङ्घानाम्(7.4)</text>
</g>
<!-- Node7_3&#45;&gt;Node7_4 -->
<g id="edge10" class="edge">
<title>Node7_3&#45;&gt;Node7_4</title>
<path fill="none" stroke="black" d="M940.79,-220.27C940.79,-233.58 940.79,-249.19 940.79,-260.82"/>
<polygon fill="black" stroke="black" points="944.29,-220.2 940.79,-210.2 937.29,-220.2 944.29,-220.2"/>
<text text-anchor="middle" x="976.79" y="-231.8" font-family="Times,serif" font-size="14.00">समासः</text>
</g>
<!-- Node10_1 -->
<g id="node12" class="node">
<title>Node10_1</title>
<ellipse fill="#93db70" stroke="#93db70" cx="599.79" cy="-366" rx="84.49" ry="18"/>
<text text-anchor="middle" x="599.79" y="-362.3" font-family="Times,serif" font-size="14.00">पतिम्(10.1)</text>
</g>
<!-- Node7_4&#45;&gt;Node10_1 -->
<g id="edge11" class="edge">
<title>Node7_4&#45;&gt;Node10_1</title>
<path fill="none" stroke="black" d="M872.51,-297.1C833.86,-306.77 784.63,-319.08 740.79,-330 711.67,-337.26 679.16,-345.33 652.7,-351.89"/>
<polygon fill="black" stroke="black" points="873.75,-300.4 882.6,-294.58 872.05,-293.61 873.75,-300.4"/>
<text text-anchor="middle" x="887.79" y="-318.8" font-family="Times,serif" font-size="14.00">षष्ठीसम्बन्धः</text>
</g>
<!-- Node10_1&#45;&gt;Node9_1 -->
<g id="edge13" class="edge">
<title>Node10_1&#45;&gt;Node9_1</title>
<path fill="none" stroke="black" d="M577.07,-391.3C567.3,-400.51 555.27,-410.37 542.79,-417 522.13,-427.99 497.8,-435.69 475.64,-441.01"/>
<polygon fill="black" stroke="black" points="579.7,-393.62 584.38,-384.12 574.79,-388.62 579.7,-393.62"/>
<text text-anchor="middle" x="591.79" y="-405.8" font-family="Times,serif" font-size="14.00">कर्म</text>
</g>
<!-- Node8_1 -->
<g id="node13" class="node">
<title>Node8_1</title>
<ellipse fill="#93db70" stroke="#93db70" cx="817.79" cy="-366" rx="115.88" ry="18"/>
<text text-anchor="middle" x="817.79" y="-362.3" font-family="Times,serif" font-size="14.00">सुग्रीवम्(8.1)</text>
</g>
<!-- Node8_1&#45;&gt;Node9_1 -->
<g id="edge12" class="edge">
<title>Node8_1&#45;&gt;Node9_1</title>
<path fill="none" stroke="black" d="M755.06,-384.81C717.48,-395.09 668.64,-407.77 624.79,-417 576.87,-427.09 522.42,-435.92 480.3,-442.2"/>
<polygon fill="black" stroke="black" points="756.14,-388.15 764.86,-382.12 754.29,-381.4 756.14,-388.15"/>
<text text-anchor="middle" x="717.79" y="-405.8" font-family="Times,serif" font-size="14.00">कर्म</text>
</g>
</g>
</svg>
