<svg xmlns="http://www.w3.org/2000/svg" xmlns:xlink="http://www.w3.org/1999/xlink" width="962pt" height="544" viewBox="0 0 961.69 408"><g id="graph0" class="graph" transform="scale(1 1) rotate(0) translate(4 404)"><title>G</title><polygon fill="#fffacd" stroke="transparent" points="-4 4 -4 -404 957.69 -404 957.69 4 -4 4"/><g id="clust1" class="cluster"><title>cluster_1</title><polygon fill="#fffacd" stroke="#000" points="343 -8 343 -147 535 -147 535 -8 343 -8"/></g><g id="clust2" class="cluster"><title>cluster_2</title><polygon fill="#fffacd" stroke="#000" points="364 -182 364 -321 538 -321 538 -182 364 -182"/></g><g id="clust3" class="cluster"><title>cluster_3</title><polygon fill="#fffacd" stroke="#000" points="8 -182 8 -321 330 -321 330 -182 8 -182"/></g><g id="clust4" class="cluster"><title>cluster_4</title><polygon fill="#fffacd" stroke="#000" points="546 -182 546 -321 712 -321 712 -182 546 -182"/></g><g id="node1" class="node"><title>Node1_1</title><ellipse cx="439" cy="-34" fill="#93db70" stroke="#93db70" rx="87.99" ry="18"/><text x="439" y="-30.3" font-family="Times,serif" font-size="14" text-anchor="middle">अतुलम्(1.1)</text></g><g id="node2" class="node"><title>Node4_1</title><ellipse cx="439" cy="-121" fill="#93db70" stroke="#93db70" rx="87.99" ry="18"/><text x="439" y="-117.3" font-family="Times,serif" font-size="14" text-anchor="middle">हर्षम्(4.1)</text></g><g id="edge1" class="edge"><title>Node1_1-&gt;Node4_1</title><path fill="none" stroke="#000" d="M439,-62.27C439,-75.58 439,-91.19 439,-102.82"/><polygon fill="#000" stroke="#000" points="442.5 -62.2 439 -52.2 435.5 -62.2 442.5 -62.2"/><text x="496.5" y="-73.8" font-family="Times,serif" font-size="14" text-anchor="middle">विशेषणम्</text></g><g id="node3" class="node"><title>Node3_1</title><ellipse cx="432" cy="-208" fill="#00bfff" stroke="#00bfff" rx="59.59" ry="18"/><text x="432" y="-204.3" font-family="Times,serif" font-size="14" text-anchor="middle">गता(3.1)</text></g><g id="edge4" class="edge"><title>Node4_1-&gt;Node3_1</title><path fill="none" stroke="#000" d="M436.75,-149.27C435.66,-162.58 434.37,-178.19 433.41,-189.82"/><polygon fill="#000" stroke="#000" points="440.25 -149.45 437.58 -139.2 433.27 -148.88 440.25 -149.45"/><text x="464" y="-160.8" font-family="Times,serif" font-size="14" text-anchor="middle">कर्म</text></g><g id="node4" class="node"><title>Node7_1</title><ellipse cx="451" cy="-295" fill="#00bfff" stroke="#00bfff" rx="78.79" ry="18"/><text x="451" y="-291.3" font-family="Times,serif" font-size="14" text-anchor="middle">जानकी(7.1)</text></g><g id="edge3" class="edge"><title>Node3_1-&gt;Node7_1</title><path fill="none" stroke="#000" d="M425.4,-236.12C424.61,-243.65 424.75,-251.75 427,-259 429.01,-265.47 432.67,-271.82 436.54,-277.28"/><polygon fill="#000" stroke="#000" points="428.9 -236.43 427.02 -226 421.99 -235.32 428.9 -236.43"/><text x="484.5" y="-247.8" font-family="Times,serif" font-size="14" text-anchor="middle">विशेषणम्</text></g><g id="node11" class="node"><title>Node10_1</title><ellipse cx="519" cy="-382" fill="#ff1975" stroke="#ff1975" rx="84.49" ry="18"/><text x="519" y="-378.3" font-family="Times,serif" font-size="14" text-anchor="middle">मुमोच(10.1)</text></g><g id="edge7" class="edge"><title>Node7_1-&gt;Node10_1</title><path fill="none" stroke="#000" d="M470.96,-320.95C482.03,-334.78 495.5,-351.63 505.36,-363.95"/><polygon fill="#000" stroke="#000" points="473.41 -318.42 464.43 -312.79 467.95 -322.79 473.41 -318.42"/><text x="525" y="-334.8" font-family="Times,serif" font-size="14" text-anchor="middle">कर्ता</text></g><g id="node5" class="node"><title>Node9_2</title><ellipse cx="169" cy="-208" fill="#40e0d0" stroke="#40e0d0" rx="152.97" ry="18"/><text x="169" y="-204.3" font-family="Times,serif" font-size="14" text-anchor="middle">पक्ष्माभ्याम्(9.2)</text></g><g id="node6" class="node"><title>Node8_1</title><ellipse cx="174" cy="-295" fill="#b4ffb4" stroke="#b4ffb4" rx="143.77" ry="18"/><text x="174" y="-291.3" font-family="Times,serif" font-size="14" text-anchor="middle">नेत्राभ्याम्(8.1)</text></g><g id="edge10" class="edge"><title>Node9_2-&gt;Node8_1</title><path fill="none" stroke="#000" d="M170.6,-236.27C171.39,-249.58 172.31,-265.19 172.99,-276.82"/><polygon fill="#000" stroke="#000" points="174.09 -235.98 170.01 -226.2 167.11 -236.39 174.09 -235.98"/><text x="228.5" y="-247.8" font-family="Times,serif" font-size="14" text-anchor="middle">विशेषणम्</text></g><g id="edge8" class="edge"><title>Node8_1-&gt;Node10_1</title><path fill="none" stroke="#000" d="M245.94,-313.72C311.54,-329.89 406.97,-353.4 465.9,-367.92"/><polygon fill="#000" stroke="#000" points="246.62 -310.29 236.08 -311.29 244.95 -317.09 246.62 -310.29"/><text x="403" y="-334.8" font-family="Times,serif" font-size="14" text-anchor="middle">करणम्</text></g><g id="node7" class="node"><title>Node11_2</title><ellipse cx="626" cy="-208" fill="#93db70" stroke="#93db70" rx="65.79" ry="18"/><text x="626" y="-204.3" font-family="Times,serif" font-size="14" text-anchor="middle">जम्(11.2)</text></g><g id="node8" class="node"><title>Node12_1</title><ellipse cx="629" cy="-295" fill="#93db70" stroke="#93db70" rx="75.29" ry="18"/><text x="629" y="-291.3" font-family="Times,serif" font-size="14" text-anchor="middle">जलम्(12.1)</text></g><g id="edge12" class="edge"><title>Node11_2-&gt;Node12_1</title><path fill="none" stroke="#000" d="M626.96,-236.27C627.43,-249.58 627.98,-265.19 628.39,-276.82"/><polygon fill="#000" stroke="#000" points="630.46 -236.07 626.61 -226.2 623.46 -236.32 630.46 -236.07"/><text x="684.5" y="-247.8" font-family="Times,serif" font-size="14" text-anchor="middle">विशेषणम्</text></g><g id="edge13" class="edge"><title>Node12_1-&gt;Node10_1</title><path fill="none" stroke="#000" d="M600,-318.78C589.06,-327.35 576.48,-337.15 565,-346 557.21,-352 548.65,-358.54 541.04,-364.32"/><polygon fill="#000" stroke="#000" points="602.3 -321.43 608.01 -312.51 597.98 -315.92 602.3 -321.43"/><text x="611" y="-334.8" font-family="Times,serif" font-size="14" text-anchor="middle">कर्म</text></g><g id="node9" class="node"><title>Node2_1</title><ellipse cx="292" cy="-121" fill="#f9f" stroke="#f9f" rx="41.69" ry="18"/><text x="292" y="-117.3" font-family="Times,serif" font-size="14" text-anchor="middle">च(2.1)</text></g><g id="edge2" class="edge"><title>Node2_1-&gt;Node3_1</title><path fill="none" stroke="#000" d="M299.86,-148.4C303.55,-156.95 308.77,-165.81 316,-172 326.63,-181.1 357.52,-190.19 384.76,-196.83"/><polygon fill="#000" stroke="#000" points="303.13 -147.16 296.32 -139.04 296.58 -149.64 303.13 -147.16"/><text x="373.5" y="-160.8" font-family="Times,serif" font-size="14" text-anchor="middle">सम्बन्धः</text></g><g id="node10" class="node"><title>Node5_1</title><ellipse cx="838" cy="-295" fill="#40e0d0" stroke="#40e0d0" rx="115.88" ry="18"/><text x="838" y="-291.3" font-family="Times,serif" font-size="14" text-anchor="middle">प्रहर्षेण(5.1)</text></g><g id="edge5" class="edge"><title>Node5_1-&gt;Node10_1</title><path fill="none" stroke="#000" d="M772.65,-313.41C712.46,-329.45 624.41,-352.91 569.46,-367.55"/><polygon fill="#000" stroke="#000" points="773.67 -316.76 782.43 -310.81 771.87 -310 773.67 -316.76"/><text x="733" y="-334.8" font-family="Times,serif" font-size="14" text-anchor="middle">हेतुः</text></g><g id="node12" class="node"><title>Node6_1</title><ellipse cx="838" cy="-208" fill="#f9f" stroke="#f9f" rx="50.89" ry="18"/><text x="838" y="-204.3" font-family="Times,serif" font-size="14" text-anchor="middle">तु(6.1)</text></g><g id="edge6" class="edge"><title>Node6_1-&gt;Node5_1</title><path fill="none" stroke="#000" d="M838,-236.27C838,-249.58 838,-265.19 838,-276.82"/><polygon fill="#000" stroke="#000" points="841.5 -236.2 838 -226.2 834.5 -236.2 841.5 -236.2"/><text x="895.5" y="-247.8" font-family="Times,serif" font-size="14" text-anchor="middle">सम्बन्धः</text></g><g id="node13" class="node"><title>Node9_1</title><ellipse cx="143" cy="-121" fill="#ff0" stroke="#ff0" rx="72.29" ry="18"/><text x="143" y="-117.3" font-family="Times,serif" font-size="14" text-anchor="middle">वक्र-(9.1)</text></g><g id="edge9" class="edge"><title>Node9_1-&gt;Node9_2</title><path fill="none" stroke="#000" d="M140.62,-149.23C140.75,-156.76 141.62,-164.83 144,-172 146.11,-178.38 149.83,-184.6 153.76,-189.98"/><polygon fill="#000" stroke="#000" points="144.13 -149.17 140.88 -139.09 137.13 -149 144.13 -149.17"/><text x="208.5" y="-160.8" font-family="Times,serif" font-size="14" text-anchor="middle">कर्मधारयः</text></g><g id="node14" class="node"><title>Node11_1</title><ellipse cx="632" cy="-121" fill="#ff0" stroke="#ff0" rx="87.18" ry="18"/><text x="632" y="-117.3" font-family="Times,serif" font-size="14" text-anchor="middle">आनन्द-(11.1)</text></g><g id="edge11" class="edge"><title>Node11_1-&gt;Node11_2</title><path fill="none" stroke="#000" d="M630.08,-149.27C629.14,-162.58 628.03,-178.19 627.21,-189.82"/><polygon fill="#000" stroke="#000" points="633.57 -149.42 630.79 -139.2 626.59 -148.93 633.57 -149.42"/><text x="738.5" y="-160.8" font-family="Times,serif" font-size="14" text-anchor="middle">तृतीया-तत्पुरुषः</text></g></g></svg>