<?xml version="1.0" encoding="UTF-8" standalone="no"?>
<!DOCTYPE svg PUBLIC "-//W3C//DTD SVG 1.1//EN"
 "http://www.w3.org/Graphics/SVG/1.1/DTD/svg11.dtd">
<!-- Generated by graphviz version 2.43.0 (0)
 -->
<!-- Title: G Pages: 1 -->
<svg width="1283pt" height="392pt"
 viewBox="0.00 0.00 1282.79 392.00" xmlns="http://www.w3.org/2000/svg" xmlns:xlink="http://www.w3.org/1999/xlink">
<g id="graph0" class="graph" transform="scale(1 1) rotate(0) translate(4 388)">
<title>G</title>
<polygon fill="#fffacd" stroke="transparent" points="-4,4 -4,-388 1278.79,-388 1278.79,4 -4,4"/>
<g id="clust1" class="cluster">
<title>cluster_1</title>
<polygon fill="#fffacd" stroke="black" points="8,-79 8,-218 323,-218 323,-79 8,-79"/>
</g>
<g id="clust2" class="cluster">
<title>cluster_2</title>
<polygon fill="#fffacd" stroke="black" points="401,-166 401,-305 605,-305 605,-166 401,-166"/>
</g>
<g id="clust3" class="cluster">
<title>cluster_3</title>
<polygon fill="#fffacd" stroke="black" points="613,-166 613,-305 879,-305 879,-166 613,-166"/>
</g>
<!-- Node2_1 -->
<g id="node1" class="node">
<title>Node2_1</title>
<ellipse fill="#00bfff" stroke="#00bfff" cx="224" cy="-105" rx="50.89" ry="18"/>
<text text-anchor="middle" x="224" y="-101.3" font-family="Times,serif" font-size="14.00">ते(2.1)</text>
</g>
<!-- Node10_1 -->
<g id="node2" class="node">
<title>Node10_1</title>
<ellipse fill="#00bfff" stroke="#00bfff" cx="208" cy="-192" rx="84.49" ry="18"/>
<text text-anchor="middle" x="208" y="-188.3" font-family="Times,serif" font-size="14.00">अन्ये(10.1)</text>
</g>
<!-- Node2_1&#45;&gt;Node10_1 -->
<g id="edge2" class="edge">
<title>Node2_1&#45;&gt;Node10_1</title>
<path fill="none" stroke="black" d="M209.71,-132.28C208.61,-135.16 207.67,-138.1 207,-141 204.55,-151.66 204.75,-163.94 205.59,-173.66"/>
<polygon fill="black" stroke="black" points="213.03,-133.43 213.9,-122.87 206.63,-130.58 213.03,-133.43"/>
<text text-anchor="middle" x="271.5" y="-144.8" font-family="Times,serif" font-size="14.00">समुच्चितः</text>
</g>
<!-- Node12_1 -->
<g id="node5" class="node">
<title>Node12_1</title>
<ellipse fill="#00bfff" stroke="#00bfff" cx="503" cy="-279" rx="93.68" ry="18"/>
<text text-anchor="middle" x="503" y="-275.3" font-family="Times,serif" font-size="14.00">वानराः(12.1)</text>
</g>
<!-- Node10_1&#45;&gt;Node12_1 -->
<g id="edge11" class="edge">
<title>Node10_1&#45;&gt;Node12_1</title>
<path fill="none" stroke="black" d="M263.73,-210.2C295.9,-220.03 337.16,-232.46 374,-243 398.99,-250.15 426.8,-257.74 450.19,-264.02"/>
<polygon fill="black" stroke="black" points="264.64,-206.82 254.05,-207.24 262.59,-213.52 264.64,-206.82"/>
<text text-anchor="middle" x="431.5" y="-231.8" font-family="Times,serif" font-size="14.00">विशेषणम्</text>
</g>
<!-- Node9_1 -->
<g id="node3" class="node">
<title>Node9_1</title>
<ellipse fill="#00bfff" stroke="#00bfff" cx="86" cy="-105" rx="69.59" ry="18"/>
<text text-anchor="middle" x="86" y="-101.3" font-family="Times,serif" font-size="14.00">वयम्(9.1)</text>
</g>
<!-- Node9_1&#45;&gt;Node10_1 -->
<g id="edge10" class="edge">
<title>Node9_1&#45;&gt;Node10_1</title>
<path fill="none" stroke="black" d="M70.84,-132.49C68.23,-140.66 67.79,-149.27 73,-156 81.71,-167.25 110.86,-175.55 139.86,-181.23"/>
<polygon fill="black" stroke="black" points="74.08,-133.81 74.7,-123.24 67.62,-131.12 74.08,-133.81"/>
<text text-anchor="middle" x="137.5" y="-144.8" font-family="Times,serif" font-size="14.00">समुच्चितः</text>
</g>
<!-- Node5_3 -->
<g id="node4" class="node">
<title>Node5_3</title>
<ellipse fill="#00bfff" stroke="#00bfff" cx="503" cy="-192" rx="87.99" ry="18"/>
<text text-anchor="middle" x="503" y="-188.3" font-family="Times,serif" font-size="14.00">आतुराः(5.3)</text>
</g>
<!-- Node5_3&#45;&gt;Node12_1 -->
<g id="edge7" class="edge">
<title>Node5_3&#45;&gt;Node12_1</title>
<path fill="none" stroke="black" d="M495.09,-220C493.75,-227.43 493.05,-235.51 494,-243 494.74,-248.85 496.15,-255.12 497.64,-260.72"/>
<polygon fill="black" stroke="black" points="498.55,-220.58 497.32,-210.06 491.71,-219.05 498.55,-220.58"/>
<text text-anchor="middle" x="551.5" y="-231.8" font-family="Times,serif" font-size="14.00">विशेषणम्</text>
</g>
<!-- Node6_1 -->
<g id="node9" class="node">
<title>Node6_1</title>
<ellipse fill="#ff1975" stroke="#ff1975" cx="900" cy="-366" rx="87.99" ry="18"/>
<text text-anchor="middle" x="900" y="-362.3" font-family="Times,serif" font-size="14.00">चरन्ति(6.1)</text>
</g>
<!-- Node12_1&#45;&gt;Node6_1 -->
<g id="edge13" class="edge">
<title>Node12_1&#45;&gt;Node6_1</title>
<path fill="none" stroke="black" d="M568.79,-295.82C582.09,-298.93 595.98,-302.12 609,-305 688.33,-322.53 780.19,-341.2 839.14,-352.97"/>
<polygon fill="black" stroke="black" points="569.31,-292.35 558.77,-293.47 567.7,-299.16 569.31,-292.35"/>
<text text-anchor="middle" x="756" y="-318.8" font-family="Times,serif" font-size="14.00">कर्ता</text>
</g>
<!-- Node8_1 -->
<g id="node6" class="node">
<title>Node8_1</title>
<ellipse fill="#93db70" stroke="#93db70" cx="746" cy="-192" rx="124.58" ry="18"/>
<text text-anchor="middle" x="746" y="-188.3" font-family="Times,serif" font-size="14.00">कृत्स्नाम्(8.1)</text>
</g>
<!-- Node7_1 -->
<g id="node7" class="node">
<title>Node7_1</title>
<ellipse fill="#93db70" stroke="#93db70" cx="759" cy="-279" rx="96.68" ry="18"/>
<text text-anchor="middle" x="759" y="-275.3" font-family="Times,serif" font-size="14.00">वसुधाम्(7.1)</text>
</g>
<!-- Node8_1&#45;&gt;Node7_1 -->
<g id="edge9" class="edge">
<title>Node8_1&#45;&gt;Node7_1</title>
<path fill="none" stroke="black" d="M750.17,-220.27C752.21,-233.58 754.59,-249.19 756.37,-260.82"/>
<polygon fill="black" stroke="black" points="753.6,-219.56 748.63,-210.2 746.68,-220.62 753.6,-219.56"/>
<text text-anchor="middle" x="810.5" y="-231.8" font-family="Times,serif" font-size="14.00">विशेषणम्</text>
</g>
<!-- Node7_1&#45;&gt;Node6_1 -->
<g id="edge8" class="edge">
<title>Node7_1&#45;&gt;Node6_1</title>
<path fill="none" stroke="black" d="M794.77,-301.56C819.06,-316.21 850.68,-335.27 872.9,-348.66"/>
<polygon fill="black" stroke="black" points="796.56,-298.55 786.19,-296.39 792.94,-304.55 796.56,-298.55"/>
<text text-anchor="middle" x="866" y="-318.8" font-family="Times,serif" font-size="14.00">कर्म</text>
</g>
<!-- Node1_1 -->
<g id="node8" class="node">
<title>Node1_1</title>
<ellipse fill="#ff99ff" stroke="#ff99ff" cx="947" cy="-279" rx="59.59" ry="18"/>
<text text-anchor="middle" x="947" y="-275.3" font-family="Times,serif" font-size="14.00">ततः(1.1)</text>
</g>
<!-- Node1_1&#45;&gt;Node6_1 -->
<g id="edge1" class="edge">
<title>Node1_1&#45;&gt;Node6_1</title>
<path fill="none" stroke="black" d="M932.77,-305.74C925.2,-319.42 916.11,-335.86 909.43,-347.95"/>
<polygon fill="black" stroke="black" points="935.94,-307.24 937.71,-296.79 929.81,-303.85 935.94,-307.24"/>
<text text-anchor="middle" x="983.5" y="-318.8" font-family="Times,serif" font-size="14.00">सम्बन्धः</text>
</g>
<!-- Node3_1 -->
<g id="node10" class="node">
<title>Node3_1</title>
<ellipse fill="#00bfff" stroke="#00bfff" cx="1150" cy="-279" rx="124.58" ry="18"/>
<text text-anchor="middle" x="1150" y="-275.3" font-family="Times,serif" font-size="14.00">मार्गमाणाः(3.1)</text>
</g>
<!-- Node3_1&#45;&gt;Node6_1 -->
<g id="edge3" class="edge">
<title>Node3_1&#45;&gt;Node6_1</title>
<path fill="none" stroke="black" d="M1110.38,-301.27C1091.06,-311.01 1067.24,-322.12 1045,-330 1018.15,-339.52 987.6,-347.32 961.49,-353.12"/>
<polygon fill="black" stroke="black" points="1112.17,-304.28 1119.48,-296.61 1108.98,-298.05 1112.17,-304.28"/>
<text text-anchor="middle" x="1116" y="-318.8" font-family="Times,serif" font-size="14.00">कर्ता</text>
</g>
<!-- Node4_1 -->
<g id="node11" class="node">
<title>Node4_1</title>
<ellipse fill="#ff99ff" stroke="#ff99ff" cx="1150" cy="-192" rx="50.89" ry="18"/>
<text text-anchor="middle" x="1150" y="-188.3" font-family="Times,serif" font-size="14.00">वै(4.1)</text>
</g>
<!-- Node4_1&#45;&gt;Node3_1 -->
<g id="edge4" class="edge">
<title>Node4_1&#45;&gt;Node3_1</title>
<path fill="none" stroke="black" d="M1150,-220.27C1150,-233.58 1150,-249.19 1150,-260.82"/>
<polygon fill="black" stroke="black" points="1153.5,-220.2 1150,-210.2 1146.5,-220.2 1153.5,-220.2"/>
<text text-anchor="middle" x="1207.5" y="-231.8" font-family="Times,serif" font-size="14.00">सम्बन्धः</text>
</g>
<!-- Node5_1 -->
<g id="node12" class="node">
<title>Node5_1</title>
<ellipse fill="#ffff00" stroke="#ffff00" cx="588" cy="-18" rx="100.18" ry="18"/>
<text text-anchor="middle" x="588" y="-14.3" font-family="Times,serif" font-size="14.00">सुग्रीव&#45;(5.1)</text>
</g>
<!-- Node5_2 -->
<g id="node13" class="node">
<title>Node5_2</title>
<ellipse fill="#ffff00" stroke="#ffff00" cx="588" cy="-105" rx="63.09" ry="18"/>
<text text-anchor="middle" x="588" y="-101.3" font-family="Times,serif" font-size="14.00">वचन&#45;(5.2)</text>
</g>
<!-- Node5_1&#45;&gt;Node5_2 -->
<g id="edge5" class="edge">
<title>Node5_1&#45;&gt;Node5_2</title>
<path fill="none" stroke="black" d="M588,-46.27C588,-59.58 588,-75.19 588,-86.82"/>
<polygon fill="black" stroke="black" points="591.5,-46.2 588,-36.2 584.5,-46.2 591.5,-46.2"/>
<text text-anchor="middle" x="624" y="-57.8" font-family="Times,serif" font-size="14.00">समासः</text>
</g>
<!-- Node5_2&#45;&gt;Node5_3 -->
<g id="edge6" class="edge">
<title>Node5_2&#45;&gt;Node5_3</title>
<path fill="none" stroke="black" d="M579.92,-132.85C576.55,-140.95 572,-149.42 566,-156 558.84,-163.86 549.48,-170.36 540.19,-175.53"/>
<polygon fill="black" stroke="black" points="583.26,-133.91 583.45,-123.32 576.69,-131.48 583.26,-133.91"/>
<text text-anchor="middle" x="611" y="-144.8" font-family="Times,serif" font-size="14.00">समासः</text>
</g>
<!-- Node11_1 -->
<g id="node14" class="node">
<title>Node11_1</title>
<ellipse fill="#ff99ff" stroke="#ff99ff" cx="378" cy="-105" rx="47.39" ry="18"/>
<text text-anchor="middle" x="378" y="-101.3" font-family="Times,serif" font-size="14.00">च(11.1)</text>
</g>
<!-- Node11_1&#45;&gt;Node10_1 -->
<g id="edge12" class="edge">
<title>Node11_1&#45;&gt;Node10_1</title>
<path fill="none" stroke="black" d="M361.78,-131.08C354.82,-140.09 345.98,-149.61 336,-156 317.67,-167.74 295.43,-175.58 274.66,-180.8"/>
<polygon fill="black" stroke="black" points="364.82,-132.85 367.85,-122.7 359.15,-128.74 364.82,-132.85"/>
<text text-anchor="middle" x="456.5" y="-144.8" font-family="Times,serif" font-size="14.00">समुच्चय_द्योतकः</text>
</g>
</g>
</svg>
