<svg xmlns="http://www.w3.org/2000/svg" xmlns:xlink="http://www.w3.org/1999/xlink" width="1390pt" height="392pt" viewBox="0 0 1390 392"><g id="graph0" class="graph" transform="scale(1 1) rotate(0) translate(4 388)"><title>G</title><polygon fill="#fffacd" stroke="transparent" points="-4 4 -4 -388 1386 -388 1386 4 -4 4"/><g id="clust1" class="cluster"><title>cluster_1</title><polygon fill="#fffacd" stroke="#000" points="1184 -79 1184 -218 1358 -218 1358 -79 1184 -79"/></g><g id="clust2" class="cluster"><title>cluster_2</title><polygon fill="#fffacd" stroke="#000" points="8 -166 8 -305 424 -305 424 -166 8 -166"/></g><g id="clust3" class="cluster"><title>cluster_3</title><polygon fill="#fffacd" stroke="#000" points="432 -166 432 -305 636 -305 636 -166 432 -166"/></g><g id="node1" class="node"><title>Node1_1</title><ellipse cx="1262" cy="-105" fill="#93db70" stroke="#93db70" rx="69.59" ry="18"/><text x="1262" y="-101.3" font-family="Times,serif" font-size="14" text-anchor="middle">ताम्(1.1)</text></g><g id="node2" class="node"><title>Node3_2</title><ellipse cx="1271" cy="-192" fill="#93db70" stroke="#93db70" rx="78.79" ry="18"/><text x="1271" y="-188.3" font-family="Times,serif" font-size="14" text-anchor="middle">कथाम्(3.2)</text></g><g id="edge1" class="edge"><title>Node1_1-&gt;Node3_2</title><path fill="none" stroke="#000" d="M1264.89,-133.27C1266.3,-146.58 1267.95,-162.19 1269.18,-173.82"/><polygon fill="#000" stroke="#000" points="1268.35 -132.78 1263.82 -123.2 1261.39 -133.51 1268.35 -132.78"/><text x="1324.5" y="-144.8" font-family="Times,serif" font-size="14" text-anchor="middle">विशेषणम्</text></g><g id="node10" class="node"><title>Node4_1</title><ellipse cx="897" cy="-279" fill="#f9f" stroke="#f9f" rx="106.68" ry="18"/><text x="897" y="-275.3" font-family="Times,serif" font-size="14" text-anchor="middle">श्रुत्वा(4.1)</text></g><g id="edge4" class="edge"><title>Node3_2-&gt;Node4_1</title><path fill="none" stroke="#000" d="M1207.44,-207.45C1137.71,-223.29 1026.6,-248.55 957.93,-264.15"/><polygon fill="#000" stroke="#000" points="1208.44 -210.81 1217.41 -205.18 1206.89 -203.98 1208.44 -210.81"/><text x="1136" y="-231.8" font-family="Times,serif" font-size="14" text-anchor="middle">कर्म</text></g><g id="node3" class="node"><title>Node9_1</title><ellipse cx="300" cy="-192" fill="#93db70" stroke="#93db70" rx="115.88" ry="18"/><text x="300" y="-188.3" font-family="Times,serif" font-size="14" text-anchor="middle">सान्त्वम्(9.1)</text></g><g id="node4" class="node"><title>Node8_1</title><ellipse cx="300" cy="-279" fill="#93db70" stroke="#93db70" rx="78.79" ry="18"/><text x="300" y="-275.3" font-family="Times,serif" font-size="14" text-anchor="middle">वचनम्(8.1)</text></g><g id="edge11" class="edge"><title>Node9_1-&gt;Node8_1</title><path fill="none" stroke="#000" d="M300,-220.27C300,-233.58 300,-249.19 300,-260.82"/><polygon fill="#000" stroke="#000" points="303.5 -220.2 300 -210.2 296.5 -220.2 303.5 -220.2"/><text x="357.5" y="-231.8" font-family="Times,serif" font-size="14" text-anchor="middle">विशेषणम्</text></g><g id="node11" class="node"><title>Node7_1</title><ellipse cx="628" cy="-366" fill="#ff1975" stroke="#ff1975" rx="69.59" ry="18"/><text x="628" y="-362.3" font-family="Times,serif" font-size="14" text-anchor="middle">उवाच(7.1)</text></g><g id="edge10" class="edge"><title>Node8_1-&gt;Node7_1</title><path fill="none" stroke="#000" d="M360.06,-295.56C423.6,-312.03 522.56,-337.68 580.76,-352.76"/><polygon fill="#000" stroke="#000" points="360.73 -292.12 350.17 -293 358.98 -298.9 360.73 -292.12"/><text x="513" y="-318.8" font-family="Times,serif" font-size="14" text-anchor="middle">कर्म</text></g><g id="node5" class="node"><title>Node10_1</title><ellipse cx="91" cy="-192" fill="#93db70" stroke="#93db70" rx="75.29" ry="18"/><text x="91" y="-188.3" font-family="Times,serif" font-size="14" text-anchor="middle">इदम्(10.1)</text></g><g id="edge12" class="edge"><title>Node10_1-&gt;Node8_1</title><path fill="none" stroke="#000" d="M124.96,-214.21C141.45,-223.89 161.8,-234.96 181,-243 202.45,-251.98 226.98,-259.62 248.18,-265.44"/><polygon fill="#000" stroke="#000" points="126.62 -211.12 116.24 -209 123.03 -217.13 126.62 -211.12"/><text x="238.5" y="-231.8" font-family="Times,serif" font-size="14" text-anchor="middle">विशेषणम्</text></g><g id="node6" class="node"><title>Node11_1</title><ellipse cx="534" cy="-192" fill="#40e0d0" stroke="#40e0d0" rx="93.68" ry="18"/><text x="534" y="-188.3" font-family="Times,serif" font-size="14" text-anchor="middle">मधुरया(11.1)</text></g><g id="node7" class="node"><title>Node12_1</title><ellipse cx="543" cy="-279" fill="#40e0d0" stroke="#40e0d0" rx="75.29" ry="18"/><text x="543" y="-275.3" font-family="Times,serif" font-size="14" text-anchor="middle">गिरा(12.1)</text></g><g id="edge13" class="edge"><title>Node11_1-&gt;Node12_1</title><path fill="none" stroke="#000" d="M536.89,-220.27C538.3,-233.58 539.95,-249.19 541.18,-260.82"/><polygon fill="#000" stroke="#000" points="540.35 -219.78 535.82 -210.2 533.39 -220.51 540.35 -219.78"/><text x="597.5" y="-231.8" font-family="Times,serif" font-size="14" text-anchor="middle">विशेषणम्</text></g><g id="edge14" class="edge"><title>Node12_1-&gt;Node7_1</title><path fill="none" stroke="#000" d="M562.89,-304.76C569.91,-313.05 578.05,-322.17 586,-330 592.49,-336.39 600.02,-342.91 606.9,-348.57"/><polygon fill="#000" stroke="#000" points="565.38 -302.27 556.29 -296.83 559.99 -306.75 565.38 -302.27"/><text x="622" y="-318.8" font-family="Times,serif" font-size="14" text-anchor="middle">करणम्</text></g><g id="node8" class="node"><title>Node2_1</title><ellipse cx="1262" cy="-18" fill="#f9f" stroke="#f9f" rx="50.89" ry="18"/><text x="1262" y="-14.3" font-family="Times,serif" font-size="14" text-anchor="middle">तु(2.1)</text></g><g id="edge2" class="edge"><title>Node2_1-&gt;Node1_1</title><path fill="none" stroke="#000" d="M1262,-46.27C1262,-59.58 1262,-75.19 1262,-86.82"/><polygon fill="#000" stroke="#000" points="1265.5 -46.2 1262 -36.2 1258.5 -46.2 1265.5 -46.2"/><text x="1319.5" y="-57.8" font-family="Times,serif" font-size="14" text-anchor="middle">सम्बन्धः</text></g><g id="node9" class="node"><title>Node3_1</title><ellipse cx="1007" cy="-105" fill="#ff0" stroke="#ff0" rx="63.09" ry="18"/><text x="1007" y="-101.3" font-family="Times,serif" font-size="14" text-anchor="middle">राम-(3.1)</text></g><g id="edge3" class="edge"><title>Node3_1-&gt;Node3_2</title><path fill="none" stroke="#000" d="M1025.8,-131.08C1034.05,-140.34 1044.48,-150.03 1056,-156 1097.96,-177.76 1150.21,-186.62 1192.69,-189.98"/><polygon fill="#000" stroke="#000" points="1028.26 -128.56 1019.14 -123.15 1022.9 -133.06 1028.26 -128.56"/><text x="1158.5" y="-144.8" font-family="Times,serif" font-size="14" text-anchor="middle">षष्ठी-तत्पुरुषः</text></g><g id="edge5" class="edge"><title>Node4_1-&gt;Node7_1</title><path fill="none" stroke="#000" d="M839.38,-298.21C788.68,-314.23 716.03,-337.18 670.47,-351.58"/><polygon fill="#000" stroke="#000" points="840.74 -301.45 849.22 -295.1 838.63 -294.77 840.74 -301.45"/><text x="843.5" y="-318.8" font-family="Times,serif" font-size="14" text-anchor="middle">पूर्वकालः</text></g><g id="node12" class="node"><title>Node5_1</title><ellipse cx="733" cy="-192" fill="#00bfff" stroke="#00bfff" rx="87.99" ry="18"/><text x="733" y="-188.3" font-family="Times,serif" font-size="14" text-anchor="middle">वैदेही(5.1)</text></g><g id="edge7" class="edge"><title>Node5_1-&gt;Node4_1</title><path fill="none" stroke="#000" stroke-dasharray="1 5" d="M772.74,-213.6C801.21,-228.35 839.04,-247.96 865.45,-261.65"/><polygon fill="#000" stroke="#000" points="774.34 -210.48 763.85 -208.99 771.11 -216.7 774.34 -210.48"/><text x="861" y="-231.8" font-family="Times,serif" font-size="14" text-anchor="middle">कर्ता</text></g><g id="edge6" class="edge"><title>Node5_1-&gt;Node7_1</title><path fill="none" stroke="#000" d="M720.62,-219.35C706.87,-247.65 683.24,-293.48 658,-330 653.72,-336.19 648.54,-342.55 643.7,-348.13"/><polygon fill="#000" stroke="#000" points="723.89 -220.64 725.06 -210.11 717.58 -217.6 723.89 -220.64"/><text x="736" y="-275.3" font-family="Times,serif" font-size="14" text-anchor="middle">कर्ता</text></g><g id="node13" class="node"><title>Node6_1</title><ellipse cx="765" cy="-105" fill="#ff0" stroke="#ff0" rx="72.29" ry="18"/><text x="765" y="-101.3" font-family="Times,serif" font-size="14" text-anchor="middle">वानर-(6.1)</text></g><g id="node14" class="node"><title>Node6_2</title><ellipse cx="926" cy="-192" fill="#b4ffb4" stroke="#b4ffb4" rx="87.99" ry="18"/><text x="926" y="-188.3" font-family="Times,serif" font-size="14" text-anchor="middle">ऋषभात्(6.2)</text></g><g id="edge8" class="edge"><title>Node6_1-&gt;Node6_2</title><path fill="none" stroke="#000" d="M759.25,-133.29C759.06,-141.44 760.62,-149.84 766,-156 775.47,-166.84 815.91,-163.07 830,-166 845.18,-169.15 861.55,-173.18 876.4,-177.07"/><polygon fill="#000" stroke="#000" points="762.73 -133.57 760.25 -123.27 755.77 -132.87 762.73 -133.57"/><text x="875.5" y="-144.8" font-family="Times,serif" font-size="14" text-anchor="middle">सप्तमी-तत्पुरुषः</text></g><g id="edge9" class="edge"><title>Node6_2-&gt;Node4_1</title><path fill="none" stroke="#000" d="M916.83,-219.87C912.26,-233.27 906.87,-249.08 902.86,-260.82"/><polygon fill="#000" stroke="#000" points="920.21 -220.8 920.13 -210.2 913.59 -218.54 920.21 -220.8"/><text x="971.5" y="-231.8" font-family="Times,serif" font-size="14" text-anchor="middle">अपादानम्</text></g></g></svg>