<?xml version="1.0" encoding="UTF-8" standalone="no"?>
<!DOCTYPE svg PUBLIC "-//W3C//DTD SVG 1.1//EN"
 "http://www.w3.org/Graphics/SVG/1.1/DTD/svg11.dtd">
<!-- Generated by graphviz version 2.43.0 (0)
 -->
<!-- Title: G Pages: 1 -->
<svg width="802pt" height="479pt"
 viewBox="0.00 0.00 801.69 479.00" xmlns="http://www.w3.org/2000/svg" xmlns:xlink="http://www.w3.org/1999/xlink">
<g id="graph0" class="graph" transform="scale(1 1) rotate(0) translate(4 475)">
<title>G</title>
<polygon fill="#fffacd" stroke="transparent" points="-4,4 -4,-475 797.69,-475 797.69,4 -4,4"/>
<g id="clust1" class="cluster">
<title>cluster_1</title>
<polygon fill="#fffacd" stroke="black" points="385,-79 385,-218 615,-218 615,-79 385,-79"/>
</g>
<g id="clust2" class="cluster">
<title>cluster_2</title>
<polygon fill="#fffacd" stroke="black" points="259,-253 259,-305 451,-305 451,-253 259,-253"/>
</g>
<g id="clust3" class="cluster">
<title>cluster_3</title>
<polygon fill="#fffacd" stroke="black" points="8,-166 8,-305 200,-305 200,-166 8,-166"/>
</g>
<!-- Node1_2 -->
<g id="node1" class="node">
<title>Node1_2</title>
<ellipse fill="#93db70" stroke="#93db70" cx="500" cy="-105" rx="106.68" ry="18"/>
<text text-anchor="middle" x="500" y="-101.3" font-family="Times,serif" font-size="14.00">बान्धवम्(1.2)</text>
</g>
<!-- Node2_2 -->
<g id="node2" class="node">
<title>Node2_2</title>
<ellipse fill="#93db70" stroke="#93db70" cx="481" cy="-192" rx="87.99" ry="18"/>
<text text-anchor="middle" x="481" y="-188.3" font-family="Times,serif" font-size="14.00">अधिपम्(2.2)</text>
</g>
<!-- Node1_2&#45;&gt;Node2_2 -->
<g id="edge2" class="edge">
<title>Node1_2&#45;&gt;Node2_2</title>
<path fill="none" stroke="black" d="M493.91,-133.27C490.93,-146.58 487.44,-162.19 484.84,-173.82"/>
<polygon fill="black" stroke="black" points="497.39,-133.72 496.16,-123.2 490.56,-132.2 497.39,-133.72"/>
<text text-anchor="middle" x="555.5" y="-144.8" font-family="Times,serif" font-size="14.00">समुच्चितः</text>
</g>
<!-- Node4_1 -->
<g id="node3" class="node">
<title>Node4_1</title>
<ellipse fill="#93db70" stroke="#93db70" cx="355" cy="-279" rx="87.99" ry="18"/>
<text text-anchor="middle" x="355" y="-275.3" font-family="Times,serif" font-size="14.00">रावणम्(4.1)</text>
</g>
<!-- Node2_2&#45;&gt;Node4_1 -->
<g id="edge4" class="edge">
<title>Node2_2&#45;&gt;Node4_1</title>
<path fill="none" stroke="black" d="M448.17,-215.15C426.58,-229.71 398.81,-248.45 379.22,-261.66"/>
<polygon fill="black" stroke="black" points="450.37,-217.88 456.71,-209.39 446.46,-212.08 450.37,-217.88"/>
<text text-anchor="middle" x="482.5" y="-231.8" font-family="Times,serif" font-size="14.00">विशेषणम्</text>
</g>
<!-- Node5_1 -->
<g id="node9" class="node">
<title>Node5_1</title>
<ellipse fill="#ff99ff" stroke="#ff99ff" cx="273" cy="-366" rx="78.79" ry="18"/>
<text text-anchor="middle" x="273" y="-362.3" font-family="Times,serif" font-size="14.00">हत्वा(5.1)</text>
</g>
<!-- Node4_1&#45;&gt;Node5_1 -->
<g id="edge6" class="edge">
<title>Node4_1&#45;&gt;Node5_1</title>
<path fill="none" stroke="black" d="M331.63,-304.22C318.05,-318.3 301.29,-335.68 289.17,-348.24"/>
<polygon fill="black" stroke="black" points="334.38,-306.42 338.8,-296.79 329.34,-301.56 334.38,-306.42"/>
<text text-anchor="middle" x="347" y="-318.8" font-family="Times,serif" font-size="14.00">कर्म</text>
</g>
<!-- Node6_2 -->
<g id="node4" class="node">
<title>Node6_2</title>
<ellipse fill="#00bfff" stroke="#00bfff" cx="104" cy="-192" rx="87.99" ry="18"/>
<text text-anchor="middle" x="104" y="-188.3" font-family="Times,serif" font-size="14.00">वीर्यः(6.2)</text>
</g>
<!-- Node7_1 -->
<g id="node5" class="node">
<title>Node7_1</title>
<ellipse fill="#00bfff" stroke="#00bfff" cx="104" cy="-279" rx="78.79" ry="18"/>
<text text-anchor="middle" x="104" y="-275.3" font-family="Times,serif" font-size="14.00">राघवः(7.1)</text>
</g>
<!-- Node6_2&#45;&gt;Node7_1 -->
<g id="edge9" class="edge">
<title>Node6_2&#45;&gt;Node7_1</title>
<path fill="none" stroke="black" d="M104,-220.27C104,-233.58 104,-249.19 104,-260.82"/>
<polygon fill="black" stroke="black" points="107.5,-220.2 104,-210.2 100.5,-220.2 107.5,-220.2"/>
<text text-anchor="middle" x="161.5" y="-231.8" font-family="Times,serif" font-size="14.00">विशेषणम्</text>
</g>
<!-- Node7_1&#45;&gt;Node5_1 -->
<g id="edge11" class="edge">
<title>Node7_1&#45;&gt;Node5_1</title>
<path fill="none" stroke="black" stroke-dasharray="1,5" d="M143.93,-300.09C173.9,-315.16 214.34,-335.5 241.91,-349.36"/>
<polygon fill="black" stroke="black" points="145.5,-296.96 135,-295.59 142.36,-303.21 145.5,-296.96"/>
<text text-anchor="middle" x="234" y="-318.8" font-family="Times,serif" font-size="14.00">कर्ता</text>
</g>
<!-- Node10_1 -->
<g id="node10" class="node">
<title>Node10_1</title>
<ellipse fill="#ff1975" stroke="#ff1975" cx="381" cy="-453" rx="139.98" ry="18"/>
<text text-anchor="middle" x="381" y="-449.3" font-family="Times,serif" font-size="14.00">अभिपत्स्यते(10.1)</text>
</g>
<!-- Node7_1&#45;&gt;Node10_1 -->
<g id="edge10" class="edge">
<title>Node7_1&#45;&gt;Node10_1</title>
<path fill="none" stroke="black" d="M98.41,-307.18C95.33,-330.31 95.17,-363.02 113,-384 135.53,-410.52 218.52,-428.81 286.25,-439.69"/>
<polygon fill="black" stroke="black" points="101.92,-307.43 100.04,-297 95.01,-306.32 101.92,-307.43"/>
<text text-anchor="middle" x="149" y="-362.3" font-family="Times,serif" font-size="14.00">कर्ता</text>
</g>
<!-- Node1_1 -->
<g id="node6" class="node">
<title>Node1_1</title>
<ellipse fill="#ffff00" stroke="#ffff00" cx="500" cy="-18" rx="90.98" ry="18"/>
<text text-anchor="middle" x="500" y="-14.3" font-family="Times,serif" font-size="14.00">सपुत्र&#45;(1.1)</text>
</g>
<!-- Node1_1&#45;&gt;Node1_2 -->
<g id="edge1" class="edge">
<title>Node1_1&#45;&gt;Node1_2</title>
<path fill="none" stroke="black" d="M500,-46.27C500,-59.58 500,-75.19 500,-86.82"/>
<polygon fill="black" stroke="black" points="503.5,-46.2 500,-36.2 496.5,-46.2 503.5,-46.2"/>
<text text-anchor="middle" x="536" y="-57.8" font-family="Times,serif" font-size="14.00">समासः</text>
</g>
<!-- Node2_1 -->
<g id="node7" class="node">
<title>Node2_1</title>
<ellipse fill="#ffff00" stroke="#ffff00" cx="250" cy="-105" rx="90.98" ry="18"/>
<text text-anchor="middle" x="250" y="-101.3" font-family="Times,serif" font-size="14.00">राक्षस&#45;(2.1)</text>
</g>
<!-- Node2_1&#45;&gt;Node2_2 -->
<g id="edge3" class="edge">
<title>Node2_1&#45;&gt;Node2_2</title>
<path fill="none" stroke="black" d="M260.36,-132.34C265.08,-141.15 271.54,-150.2 280,-156 299.75,-169.55 354.74,-178.55 402.21,-184.03"/>
<polygon fill="black" stroke="black" points="263.38,-130.55 255.9,-123.04 257.06,-133.57 263.38,-130.55"/>
<text text-anchor="middle" x="382.5" y="-144.8" font-family="Times,serif" font-size="14.00">षष्ठी&#45;तत्पुरुषः</text>
</g>
<!-- Node3_1 -->
<g id="node8" class="node">
<title>Node3_1</title>
<ellipse fill="#ff99ff" stroke="#ff99ff" cx="666" cy="-105" rx="41.69" ry="18"/>
<text text-anchor="middle" x="666" y="-101.3" font-family="Times,serif" font-size="14.00">च(3.1)</text>
</g>
<!-- Node3_1&#45;&gt;Node2_2 -->
<g id="edge5" class="edge">
<title>Node3_1&#45;&gt;Node2_2</title>
<path fill="none" stroke="black" d="M650.08,-130.94C643.1,-140.06 634.17,-149.68 624,-156 603.27,-168.88 578.1,-177.03 554.7,-182.17"/>
<polygon fill="black" stroke="black" points="652.93,-132.97 655.93,-122.81 647.25,-128.89 652.93,-132.97"/>
<text text-anchor="middle" x="698.5" y="-144.8" font-family="Times,serif" font-size="14.00">सम्बन्धः</text>
</g>
<!-- Node5_1&#45;&gt;Node10_1 -->
<g id="edge7" class="edge">
<title>Node5_1&#45;&gt;Node10_1</title>
<path fill="none" stroke="black" d="M277.02,-394.2C279.37,-402.35 283.09,-410.77 289,-417 296.99,-425.44 307.23,-431.86 317.96,-436.74"/>
<polygon fill="black" stroke="black" points="280.37,-393.16 274.71,-384.2 273.55,-394.73 280.37,-393.16"/>
<text text-anchor="middle" x="353.5" y="-405.8" font-family="Times,serif" font-size="14.00">पूर्वकालः</text>
</g>
<!-- Node6_1 -->
<g id="node11" class="node">
<title>Node6_1</title>
<ellipse fill="#ffff00" stroke="#ffff00" cx="78" cy="-105" rx="63.09" ry="18"/>
<text text-anchor="middle" x="78" y="-101.3" font-family="Times,serif" font-size="14.00">महा&#45;(6.1)</text>
</g>
<!-- Node6_1&#45;&gt;Node6_2 -->
<g id="edge8" class="edge">
<title>Node6_1&#45;&gt;Node6_2</title>
<path fill="none" stroke="black" d="M80,-133.13C81.04,-140.66 82.61,-148.76 85,-156 87.03,-162.17 90.14,-168.53 93.25,-174.11"/>
<polygon fill="black" stroke="black" points="83.46,-132.55 78.87,-123.01 76.51,-133.34 83.46,-132.55"/>
<text text-anchor="middle" x="156.5" y="-144.8" font-family="Times,serif" font-size="14.00">बहुव्रीहिः</text>
</g>
<!-- Node8_1 -->
<g id="node12" class="node">
<title>Node8_1</title>
<ellipse fill="#93db70" stroke="#93db70" cx="457" cy="-366" rx="87.99" ry="18"/>
<text text-anchor="middle" x="457" y="-362.3" font-family="Times,serif" font-size="14.00">त्वाम्(8.1)</text>
</g>
<!-- Node8_1&#45;&gt;Node10_1 -->
<g id="edge12" class="edge">
<title>Node8_1&#45;&gt;Node10_1</title>
<path fill="none" stroke="black" d="M441,-392.49C435.4,-400.66 428.8,-409.51 422,-417 416.21,-423.37 409.29,-429.69 402.79,-435.16"/>
<polygon fill="black" stroke="black" points="444.02,-394.27 446.64,-384 438.19,-390.39 444.02,-394.27"/>
<text text-anchor="middle" x="462" y="-405.8" font-family="Times,serif" font-size="14.00">कर्म</text>
</g>
<!-- Node9_1 -->
<g id="node13" class="node">
<title>Node9_1</title>
<ellipse fill="#ff99ff" stroke="#ff99ff" cx="678" cy="-366" rx="115.88" ry="18"/>
<text text-anchor="middle" x="678" y="-362.3" font-family="Times,serif" font-size="14.00">क्षिप्रम्(9.1)</text>
</g>
<!-- Node9_1&#45;&gt;Node10_1 -->
<g id="edge13" class="edge">
<title>Node9_1&#45;&gt;Node10_1</title>
<path fill="none" stroke="black" d="M615.57,-384.87C562.28,-400.12 486.41,-421.83 435.52,-436.4"/>
<polygon fill="black" stroke="black" points="616.59,-388.21 625.24,-382.1 614.67,-381.49 616.59,-388.21"/>
<text text-anchor="middle" x="647" y="-405.8" font-family="Times,serif" font-size="14.00">क्रियाविशेषणम्</text>
</g>
</g>
</svg>
