<?xml version="1.0" encoding="UTF-8" standalone="no"?>
<!DOCTYPE svg PUBLIC "-//W3C//DTD SVG 1.1//EN"
 "http://www.w3.org/Graphics/SVG/1.1/DTD/svg11.dtd">
<!-- Generated by graphviz version 2.43.0 (0)
 -->
<!-- Title: G Pages: 1 -->
<svg width="926pt" height="479pt"
 viewBox="0.00 0.00 925.59 479.00" xmlns="http://www.w3.org/2000/svg" xmlns:xlink="http://www.w3.org/1999/xlink">
<g id="graph0" class="graph" transform="scale(1 1) rotate(0) translate(4 475)">
<title>G</title>
<polygon fill="#fffacd" stroke="transparent" points="-4,4 -4,-475 921.59,-475 921.59,4 -4,4"/>
<g id="clust1" class="cluster">
<title>cluster_1</title>
<polygon fill="#fffacd" stroke="black" points="579.59,-166 579.59,-305 845.59,-305 845.59,-166 579.59,-166"/>
</g>
<!-- Node5_1 -->
<g id="node1" class="node">
<title>Node5_1</title>
<ellipse fill="#87ceeb" stroke="#87ceeb" cx="712.59" cy="-192" rx="124.58" ry="18"/>
<text text-anchor="middle" x="712.59" y="-188.3" font-family="Times,serif" font-size="14.00">अनुशोचताम्(5.1)</text>
</g>
<!-- Node3_2 -->
<g id="node2" class="node">
<title>Node3_2</title>
<ellipse fill="#87ceeb" stroke="#87ceeb" cx="712.59" cy="-279" rx="124.58" ry="18"/>
<text text-anchor="middle" x="712.59" y="-275.3" font-family="Times,serif" font-size="14.00">सैन्यानाम्(3.2)</text>
</g>
<!-- Node5_1&#45;&gt;Node3_2 -->
<g id="edge7" class="edge">
<title>Node5_1&#45;&gt;Node3_2</title>
<path fill="none" stroke="black" d="M712.59,-220.27C712.59,-233.58 712.59,-249.19 712.59,-260.82"/>
<polygon fill="black" stroke="black" points="716.09,-220.2 712.59,-210.2 709.09,-220.2 716.09,-220.2"/>
<text text-anchor="middle" x="770.09" y="-231.8" font-family="Times,serif" font-size="14.00">विशेषणम्</text>
</g>
<!-- Node8_1 -->
<g id="node7" class="node">
<title>Node8_1</title>
<ellipse fill="#93db70" stroke="#93db70" cx="709.59" cy="-366" rx="106.68" ry="18"/>
<text text-anchor="middle" x="709.59" y="-362.3" font-family="Times,serif" font-size="14.00">सन्तापम्(8.1)</text>
</g>
<!-- Node3_2&#45;&gt;Node8_1 -->
<g id="edge4" class="edge">
<title>Node3_2&#45;&gt;Node8_1</title>
<path fill="none" stroke="black" d="M711.63,-307.27C711.16,-320.58 710.61,-336.19 710.2,-347.82"/>
<polygon fill="black" stroke="black" points="715.13,-307.32 711.98,-297.2 708.13,-307.07 715.13,-307.32"/>
<text text-anchor="middle" x="803.59" y="-318.8" font-family="Times,serif" font-size="14.00">षष्ठीसम्बन्धः</text>
</g>
<!-- Node1_1 -->
<g id="node3" class="node">
<title>Node1_1</title>
<ellipse fill="#40e0d0" stroke="#40e0d0" cx="106.59" cy="-366" rx="106.68" ry="18"/>
<text text-anchor="middle" x="106.59" y="-362.3" font-family="Times,serif" font-size="14.00">दिष्ट्या(1.1)</text>
</g>
<!-- Node9_1 -->
<g id="node4" class="node">
<title>Node9_1</title>
<ellipse fill="#ff1975" stroke="#ff1975" cx="369.59" cy="-453" rx="124.58" ry="18"/>
<text text-anchor="middle" x="369.59" y="-449.3" font-family="Times,serif" font-size="14.00">अपनेष्यामि(9.1)</text>
</g>
<!-- Node1_1&#45;&gt;Node9_1 -->
<g id="edge1" class="edge">
<title>Node1_1&#45;&gt;Node9_1</title>
<path fill="none" stroke="black" d="M161.14,-385.68C189.29,-395.23 224.22,-406.92 255.59,-417 275.99,-423.55 298.53,-430.53 318.14,-436.51"/>
<polygon fill="black" stroke="black" points="162.07,-382.3 151.48,-382.4 159.82,-388.93 162.07,-382.3"/>
<text text-anchor="middle" x="291.59" y="-405.8" font-family="Times,serif" font-size="14.00">हेतुः</text>
</g>
<!-- Node2_1 -->
<g id="node5" class="node">
<title>Node2_1</title>
<ellipse fill="#00bfff" stroke="#00bfff" cx="300.59" cy="-366" rx="69.59" ry="18"/>
<text text-anchor="middle" x="300.59" y="-362.3" font-family="Times,serif" font-size="14.00">अहम्(2.1)</text>
</g>
<!-- Node2_1&#45;&gt;Node9_1 -->
<g id="edge2" class="edge">
<title>Node2_1&#45;&gt;Node9_1</title>
<path fill="none" stroke="black" d="M320.53,-391.56C331.82,-405.47 345.65,-422.51 355.75,-434.95"/>
<polygon fill="black" stroke="black" points="323.24,-389.35 314.22,-383.79 317.81,-393.76 323.24,-389.35"/>
<text text-anchor="middle" x="375.59" y="-405.8" font-family="Times,serif" font-size="14.00">कर्ता</text>
</g>
<!-- Node3_1 -->
<g id="node6" class="node">
<title>Node3_1</title>
<ellipse fill="#ffff00" stroke="#ffff00" cx="484.59" cy="-192" rx="63.09" ry="18"/>
<text text-anchor="middle" x="484.59" y="-188.3" font-family="Times,serif" font-size="14.00">हरि&#45;(3.1)</text>
</g>
<!-- Node3_1&#45;&gt;Node3_2 -->
<g id="edge3" class="edge">
<title>Node3_1&#45;&gt;Node3_2</title>
<path fill="none" stroke="black" d="M489.35,-220.1C492.14,-228.59 496.57,-237.24 503.59,-243 513.03,-250.74 568.88,-259.87 620.47,-266.86"/>
<polygon fill="black" stroke="black" points="492.72,-219.15 486.76,-210.38 485.95,-220.94 492.72,-219.15"/>
<text text-anchor="middle" x="606.09" y="-231.8" font-family="Times,serif" font-size="14.00">षष्ठी&#45;तत्पुरुषः</text>
</g>
<!-- Node8_1&#45;&gt;Node9_1 -->
<g id="edge11" class="edge">
<title>Node8_1&#45;&gt;Node9_1</title>
<path fill="none" stroke="black" d="M642.9,-383.81C604.27,-393.53 554.69,-405.99 510.59,-417 484.04,-423.63 454.67,-430.93 429.63,-437.14"/>
<polygon fill="black" stroke="black" points="644.15,-387.1 652.99,-381.27 642.44,-380.31 644.15,-387.1"/>
<text text-anchor="middle" x="594.59" y="-405.8" font-family="Times,serif" font-size="14.00">कर्म</text>
</g>
<!-- Node4_1 -->
<g id="node8" class="node">
<title>Node4_1</title>
<ellipse fill="#ffff00" stroke="#ffff00" cx="712.59" cy="-18" rx="81.49" ry="18"/>
<text text-anchor="middle" x="712.59" y="-14.3" font-family="Times,serif" font-size="14.00">त्वत्&#45;(4.1)</text>
</g>
<!-- Node4_2 -->
<g id="node9" class="node">
<title>Node4_2</title>
<ellipse fill="#93db70" stroke="#93db70" cx="712.59" cy="-105" rx="78.79" ry="18"/>
<text text-anchor="middle" x="712.59" y="-101.3" font-family="Times,serif" font-size="14.00">नाशम्(4.2)</text>
</g>
<!-- Node4_1&#45;&gt;Node4_2 -->
<g id="edge5" class="edge">
<title>Node4_1&#45;&gt;Node4_2</title>
<path fill="none" stroke="black" d="M712.59,-46.27C712.59,-59.58 712.59,-75.19 712.59,-86.82"/>
<polygon fill="black" stroke="black" points="716.09,-46.2 712.59,-36.2 709.09,-46.2 716.09,-46.2"/>
<text text-anchor="middle" x="815.09" y="-57.8" font-family="Times,serif" font-size="14.00">षष्ठी&#45;तत्पुरुषः</text>
</g>
<!-- Node4_2&#45;&gt;Node5_1 -->
<g id="edge6" class="edge">
<title>Node4_2&#45;&gt;Node5_1</title>
<path fill="none" stroke="black" d="M712.59,-133.27C712.59,-146.58 712.59,-162.19 712.59,-173.82"/>
<polygon fill="black" stroke="black" points="716.09,-133.2 712.59,-123.2 709.09,-133.2 716.09,-133.2"/>
<text text-anchor="middle" x="741.59" y="-144.8" font-family="Times,serif" font-size="14.00">कर्म</text>
</g>
<!-- Node6_1 -->
<g id="node10" class="node">
<title>Node6_1</title>
<ellipse fill="#87ceeb" stroke="#87ceeb" cx="275.59" cy="-279" rx="50.89" ry="18"/>
<text text-anchor="middle" x="275.59" y="-275.3" font-family="Times,serif" font-size="14.00">तव(6.1)</text>
</g>
<!-- Node7_2 -->
<g id="node11" class="node">
<title>Node7_2</title>
<ellipse fill="#b4ffb4" stroke="#b4ffb4" cx="484.59" cy="-366" rx="96.68" ry="18"/>
<text text-anchor="middle" x="484.59" y="-362.3" font-family="Times,serif" font-size="14.00">शासनात्(7.2)</text>
</g>
<!-- Node6_1&#45;&gt;Node7_2 -->
<g id="edge8" class="edge">
<title>Node6_1&#45;&gt;Node7_2</title>
<path fill="none" stroke="black" d="M280.4,-307.03C283.2,-315.52 287.62,-324.19 294.59,-330 299.35,-333.97 361.9,-345.01 413.96,-353.65"/>
<polygon fill="black" stroke="black" points="283.77,-306.08 277.81,-297.33 277.01,-307.89 283.77,-306.08"/>
<text text-anchor="middle" x="387.59" y="-318.8" font-family="Times,serif" font-size="14.00">षष्ठीसम्बन्धः</text>
</g>
<!-- Node7_2&#45;&gt;Node9_1 -->
<g id="edge10" class="edge">
<title>Node7_2&#45;&gt;Node9_1</title>
<path fill="none" stroke="black" d="M453.94,-389.66C434.58,-403.96 410,-422.13 392.37,-435.16"/>
<polygon fill="black" stroke="black" points="456.18,-392.35 462.14,-383.59 452.02,-386.72 456.18,-392.35"/>
<text text-anchor="middle" x="470.59" y="-405.8" font-family="Times,serif" font-size="14.00">हेतुः</text>
</g>
<!-- Node7_1 -->
<g id="node12" class="node">
<title>Node7_1</title>
<ellipse fill="#ffff00" stroke="#ffff00" cx="484.59" cy="-279" rx="81.49" ry="18"/>
<text text-anchor="middle" x="484.59" y="-275.3" font-family="Times,serif" font-size="14.00">अधिगम&#45;(7.1)</text>
</g>
<!-- Node7_1&#45;&gt;Node7_2 -->
<g id="edge9" class="edge">
<title>Node7_1&#45;&gt;Node7_2</title>
<path fill="none" stroke="black" d="M484.59,-307.27C484.59,-320.58 484.59,-336.19 484.59,-347.82"/>
<polygon fill="black" stroke="black" points="488.09,-307.2 484.59,-297.2 481.09,-307.2 488.09,-307.2"/>
<text text-anchor="middle" x="587.09" y="-318.8" font-family="Times,serif" font-size="14.00">षष्ठी&#45;तत्पुरुषः</text>
</g>
</g>
</svg>
