<svg xmlns="http://www.w3.org/2000/svg" xmlns:xlink="http://www.w3.org/1999/xlink" width="1951pt" height="312" viewBox="0 0 1950.79 234"><g id="graph0" class="graph" transform="scale(1 1) rotate(0) translate(4 230)"><title>G</title><polygon fill="#fffacd" stroke="transparent" points="-4 4 -4 -230 1946.79 -230 1946.79 4 -4 4"/><g id="clust1" class="cluster"><title>cluster_1</title><polygon fill="#fffacd" stroke="#000" points="8 -8 8 -147 247 -147 247 -8 8 -8"/></g><g id="node1" class="node"><title>Node14_1</title><ellipse cx="119" cy="-34" fill="#00bfff" stroke="#00bfff" rx="102.88" ry="18"/><text x="119" y="-30.3" font-family="Times,serif" font-size="14" text-anchor="middle">ध्रुवम्(14.1)</text></g><g id="node2" class="node"><title>Node13_1</title><ellipse cx="155" cy="-121" fill="#00bfff" stroke="#00bfff" rx="84.49" ry="18"/><text x="155" y="-117.3" font-family="Times,serif" font-size="14" text-anchor="middle">नयिता(13.1)</text></g><g id="edge13" class="edge"><title>Node14_1-&gt;Node13_1</title><path fill="none" stroke="#000" d="M104.25,-61.73C101.87,-69.49 101.25,-77.8 105,-85 109.06,-92.8 115.75,-99.22 122.92,-104.34"/><polygon fill="#000" stroke="#000" points="107.55 -62.91 108 -52.32 101.04 -60.31 107.55 -62.91"/><text x="207.5" y="-73.8" font-family="Times,serif" font-size="14" text-anchor="middle">क्रिया-विशेषणम्</text></g><g id="node3" class="node"><title>Node1_1</title><ellipse cx="1266" cy="-34" fill="#ff0" stroke="#ff0" rx="100.18" ry="18"/><text x="1266" y="-30.3" font-family="Times,serif" font-size="14" text-anchor="middle">विश्वास-(1.1)</text></g><g id="node4" class="node"><title>Node1_2</title><ellipse cx="1350" cy="-121" fill="#93db70" stroke="#93db70" rx="87.99" ry="18"/><text x="1350" y="-117.3" font-family="Times,serif" font-size="14" text-anchor="middle">अर्थम्(1.2)</text></g><g id="edge1" class="edge"><title>Node1_1-&gt;Node1_2</title><path fill="none" stroke="#000" d="M1271.78,-62.16C1274.48,-70.18 1278.39,-78.53 1284,-85 1291.05,-93.13 1300.47,-99.67 1309.98,-104.79"/><polygon fill="#000" stroke="#000" points="1275.09 -61 1268.96 -52.35 1268.36 -62.93 1275.09 -61"/><text x="1348.5" y="-73.8" font-family="Times,serif" font-size="14" text-anchor="middle">कर्मधारयः</text></g><g id="node5" class="node"><title>Node5_1</title><ellipse cx="1627" cy="-208" fill="#00bfff" stroke="#00bfff" rx="87.99" ry="18"/><text x="1627" y="-204.3" font-family="Times,serif" font-size="14" text-anchor="middle">उक्ताः(5.1)</text></g><g id="edge2" class="edge"><title>Node1_2-&gt;Node5_1</title><path fill="none" stroke="#000" d="M1375.69,-145.35C1387.73,-155.07 1402.76,-165.56 1418,-172 1457.65,-188.76 1504.71,-197.51 1544.13,-202.07"/><polygon fill="#000" stroke="#000" points="1377.79 -142.55 1367.87 -138.82 1373.3 -147.92 1377.79 -142.55"/><text x="1482.5" y="-160.8" font-family="Times,serif" font-size="14" text-anchor="middle">प्रयोजनम्</text></g><g id="node6" class="node"><title>Node2_1</title><ellipse cx="1435" cy="-34" fill="#f9f" stroke="#f9f" rx="50.89" ry="18"/><text x="1435" y="-30.3" font-family="Times,serif" font-size="14" text-anchor="middle">तु(2.1)</text></g><g id="edge3" class="edge"><title>Node2_1-&gt;Node1_2</title><path fill="none" stroke="#000" d="M1426.92,-61.85C1423.55,-69.95 1419,-78.42 1413,-85 1405.84,-92.86 1396.48,-99.36 1387.19,-104.53"/><polygon fill="#000" stroke="#000" points="1430.26 -62.91 1430.45 -52.32 1423.69 -60.48 1430.26 -62.91"/><text x="1479.5" y="-73.8" font-family="Times,serif" font-size="14" text-anchor="middle">सम्बन्धः</text></g><g id="node7" class="node"><title>Node3_1</title><ellipse cx="1543" cy="-121" fill="#6fffc3" stroke="#6fffc3" rx="87.99" ry="18"/><text x="1543" y="-117.3" font-family="Times,serif" font-size="14" text-anchor="middle">वैदेहि(3.1)</text></g><g id="edge4" class="edge"><title>Node3_1-&gt;Node5_1</title><path fill="none" stroke="#000" d="M1548.17,-149.17C1550.71,-157.19 1554.46,-165.54 1560,-172 1567.09,-180.27 1576.62,-186.86 1586.27,-191.98"/><polygon fill="#000" stroke="#000" points="1551.51 -148.13 1545.56 -139.36 1544.74 -149.92 1551.51 -148.13"/><text x="1624.5" y="-160.8" font-family="Times,serif" font-size="14" text-anchor="middle">सम्बोध्यः</text></g><g id="node8" class="node"><title>Node4_1</title><ellipse cx="1727" cy="-34" fill="#87ceeb" stroke="#87ceeb" rx="87.99" ry="18"/><text x="1727" y="-30.3" font-family="Times,serif" font-size="14" text-anchor="middle">भर्तुः(4.1)</text></g><g id="node9" class="node"><title>Node7_1</title><ellipse cx="1727" cy="-121" fill="#00bfff" stroke="#00bfff" rx="78.79" ry="18"/><text x="1727" y="-117.3" font-family="Times,serif" font-size="14" text-anchor="middle">गुणाः(7.1)</text></g><g id="edge5" class="edge"><title>Node4_1-&gt;Node7_1</title><path fill="none" stroke="#000" d="M1727,-62.27C1727,-75.58 1727,-91.19 1727,-102.82"/><polygon fill="#000" stroke="#000" points="1730.5 -62.2 1727 -52.2 1723.5 -62.2 1730.5 -62.2"/><text x="1820" y="-73.8" font-family="Times,serif" font-size="14" text-anchor="middle">षष्ठीसम्बन्धः</text></g><g id="edge7" class="edge"><title>Node7_1-&gt;Node5_1</title><path fill="none" stroke="#000" d="M1710.64,-147.61C1704.5,-156.01 1697.05,-164.98 1689,-172 1680.52,-179.4 1670.24,-185.96 1660.5,-191.34"/><polygon fill="#000" stroke="#000" points="1713.67 -149.37 1716.52 -139.17 1707.93 -145.37 1713.67 -149.37"/><text x="1732" y="-160.8" font-family="Times,serif" font-size="14" text-anchor="middle">कर्म</text></g><g id="node10" class="node"><title>Node6_1</title><ellipse cx="1883" cy="-121" fill="#40e0d0" stroke="#40e0d0" rx="59.59" ry="18"/><text x="1883" y="-117.3" font-family="Times,serif" font-size="14" text-anchor="middle">मया(6.1)</text></g><g id="edge6" class="edge"><title>Node6_1-&gt;Node5_1</title><path fill="none" stroke="#000" d="M1842.7,-140.88C1820.17,-150.98 1791.39,-163.12 1765,-172 1739.11,-180.71 1709.86,-188.42 1684.98,-194.37"/><polygon fill="#000" stroke="#000" points="1844.28 -144.01 1851.95 -136.69 1841.4 -137.63 1844.28 -144.01"/><text x="1840" y="-160.8" font-family="Times,serif" font-size="14" text-anchor="middle">कर्ता</text></g><g id="node11" class="node"><title>Node8_1</title><ellipse cx="352" cy="-34" fill="#b4ffb4" stroke="#b4ffb4" rx="96.68" ry="18"/><text x="352" y="-30.3" font-family="Times,serif" font-size="14" text-anchor="middle">अचिरात्(8.1)</text></g><g id="edge8" class="edge"><title>Node8_1-&gt;Node13_1</title><path fill="none" stroke="#000" d="M335.62,-60.71C328.73,-69.63 319.98,-78.92 310,-85 286.32,-99.42 257.35,-107.92 230.88,-112.91"/><polygon fill="#000" stroke="#000" points="338.63 -62.53 341.65 -52.37 332.95 -58.43 338.63 -62.53"/><text x="428" y="-73.8" font-family="Times,serif" font-size="14" text-anchor="middle">क्रियाविशेषणम्</text></g><g id="node12" class="node"><title>Node9_1</title><ellipse cx="555" cy="-34" fill="#93db70" stroke="#93db70" rx="87.99" ry="18"/><text x="555" y="-30.3" font-family="Times,serif" font-size="14" text-anchor="middle">त्वाम्(9.1)</text></g><g id="edge9" class="edge"><title>Node9_1-&gt;Node13_1</title><path fill="none" stroke="#000" d="M548.5,-61.85C545.04,-70.59 539.82,-79.46 532,-85 508.53,-101.62 340.98,-111.87 237.29,-116.7"/><polygon fill="#000" stroke="#000" points="551.87 -62.81 551.7 -52.22 545.23 -60.6 551.87 -62.81"/><text x="574" y="-73.8" font-family="Times,serif" font-size="14" text-anchor="middle">कर्म</text></g><g id="node13" class="node"><title>Node10_1</title><ellipse cx="726" cy="-34" fill="#00bfff" stroke="#00bfff" rx="65.79" ry="18"/><text x="726" y="-30.3" font-family="Times,serif" font-size="14" text-anchor="middle">इतः(10.1)</text></g><g id="edge10" class="edge"><title>Node10_1-&gt;Node13_1</title><path fill="none" stroke="#000" d="M688.05,-54.63C665.19,-65.52 635.14,-78.19 607,-85 539.11,-101.44 348.07,-111.91 237.29,-116.78"/><polygon fill="#000" stroke="#000" points="689.6 -57.77 697.06 -50.26 686.54 -51.48 689.6 -57.77"/><text x="708.5" y="-73.8" font-family="Times,serif" font-size="14" text-anchor="middle">अपादानम्</text></g><g id="node14" class="node"><title>Node11_1</title><ellipse cx="885" cy="-34" fill="#6fffc3" stroke="#6fffc3" rx="75.29" ry="18"/><text x="885" y="-30.3" font-family="Times,serif" font-size="14" text-anchor="middle">देवि(11.1)</text></g><g id="edge11" class="edge"><title>Node11_1-&gt;Node13_1</title><path fill="none" stroke="#000" d="M847.7,-55.23C825.75,-66.1 797.06,-78.57 770,-85 671.68,-108.38 383.32,-116.32 239.12,-118.87"/><polygon fill="#000" stroke="#000" points="849.33 -58.33 856.68 -50.69 846.17 -52.08 849.33 -58.33"/><text x="877.5" y="-73.8" font-family="Times,serif" font-size="14" text-anchor="middle">सम्बोध्यः</text></g><g id="node15" class="node"><title>Node12_1</title><ellipse cx="1063" cy="-34" fill="#00bfff" stroke="#00bfff" rx="84.49" ry="18"/><text x="1063" y="-30.3" font-family="Times,serif" font-size="14" text-anchor="middle">राघवः(12.1)</text></g><g id="edge12" class="edge"><title>Node12_1-&gt;Node13_1</title><path fill="none" stroke="#000" d="M1024.58,-55.58C1002.3,-66.44 973.33,-78.77 946,-85 813.73,-115.14 415.22,-119.61 239.64,-120.08"/><polygon fill="#000" stroke="#000" points="1026.31 -58.63 1033.7 -51.04 1023.19 -52.36 1026.31 -58.63"/><text x="1026" y="-73.8" font-family="Times,serif" font-size="14" text-anchor="middle">कर्ता</text></g></g></svg>