<?xml version="1.0" encoding="UTF-8" standalone="no"?>
<!DOCTYPE svg PUBLIC "-//W3C//DTD SVG 1.1//EN"
 "http://www.w3.org/Graphics/SVG/1.1/DTD/svg11.dtd">
<!-- Generated by graphviz version 2.43.0 (0)
 -->
<!-- Title: G Pages: 1 -->
<svg width="906pt" height="392pt"
 viewBox="0.00 0.00 906.00 392.00" xmlns="http://www.w3.org/2000/svg" xmlns:xlink="http://www.w3.org/1999/xlink">
<g id="graph0" class="graph" transform="scale(1 1) rotate(0) translate(4 388)">
<title>G</title>
<polygon fill="#fffacd" stroke="transparent" points="-4,4 -4,-388 902,-388 902,4 -4,4"/>
<g id="clust1" class="cluster">
<title>cluster_1</title>
<polygon fill="#fffacd" stroke="black" points="625,-166 625,-305 799,-305 799,-166 625,-166"/>
</g>
<g id="clust2" class="cluster">
<title>cluster_2</title>
<polygon fill="#fffacd" stroke="black" points="371,-79 371,-218 563,-218 563,-79 371,-79"/>
</g>
<g id="clust3" class="cluster">
<title>cluster_3</title>
<polygon fill="#fffacd" stroke="black" points="8,-166 8,-305 256,-305 256,-166 8,-166"/>
</g>
<!-- Node2_3 -->
<g id="node1" class="node">
<title>Node2_3</title>
<ellipse fill="#93db70" stroke="#93db70" cx="693" cy="-192" rx="59.59" ry="18"/>
<text text-anchor="middle" x="693" y="-188.3" font-family="Times,serif" font-size="14.00">जम्(2.3)</text>
</g>
<!-- Node3_1 -->
<g id="node2" class="node">
<title>Node3_1</title>
<ellipse fill="#93db70" stroke="#93db70" cx="712" cy="-279" rx="78.79" ry="18"/>
<text text-anchor="middle" x="712" y="-275.3" font-family="Times,serif" font-size="14.00">शोकम्(3.1)</text>
</g>
<!-- Node2_3&#45;&gt;Node3_1 -->
<g id="edge4" class="edge">
<title>Node2_3&#45;&gt;Node3_1</title>
<path fill="none" stroke="black" d="M699.09,-220.27C702.07,-233.58 705.56,-249.19 708.16,-260.82"/>
<polygon fill="black" stroke="black" points="702.44,-219.2 696.84,-210.2 695.61,-220.72 702.44,-219.2"/>
<text text-anchor="middle" x="760.5" y="-231.8" font-family="Times,serif" font-size="14.00">विशेषणम्</text>
</g>
<!-- Node9_1 -->
<g id="node8" class="node">
<title>Node9_1</title>
<ellipse fill="#ff1975" stroke="#ff1975" cx="417" cy="-366" rx="115.88" ry="18"/>
<text text-anchor="middle" x="417" y="-362.3" font-family="Times,serif" font-size="14.00">न्यवेदयत्(9.1)</text>
</g>
<!-- Node3_1&#45;&gt;Node9_1 -->
<g id="edge5" class="edge">
<title>Node3_1&#45;&gt;Node9_1</title>
<path fill="none" stroke="black" d="M665.53,-298.53C638.99,-308.68 604.94,-320.99 574,-330 545.58,-338.28 513.78,-345.7 486.27,-351.56"/>
<polygon fill="black" stroke="black" points="666.87,-301.76 674.94,-294.89 664.35,-295.23 666.87,-301.76"/>
<text text-anchor="middle" x="649" y="-318.8" font-family="Times,serif" font-size="14.00">कर्म</text>
</g>
<!-- Node5_2 -->
<g id="node3" class="node">
<title>Node5_2</title>
<ellipse fill="#87ceeb" stroke="#87ceeb" cx="467" cy="-105" rx="87.99" ry="18"/>
<text text-anchor="middle" x="467" y="-101.3" font-family="Times,serif" font-size="14.00">कर्मणः(5.2)</text>
</g>
<!-- Node4_1 -->
<g id="node4" class="node">
<title>Node4_1</title>
<ellipse fill="#87ceeb" stroke="#87ceeb" cx="467" cy="-192" rx="87.99" ry="18"/>
<text text-anchor="middle" x="467" y="-188.3" font-family="Times,serif" font-size="14.00">रामस्य(4.1)</text>
</g>
<!-- Node5_2&#45;&gt;Node4_1 -->
<g id="edge8" class="edge">
<title>Node5_2&#45;&gt;Node4_1</title>
<path fill="none" stroke="black" d="M467,-133.27C467,-146.58 467,-162.19 467,-173.82"/>
<polygon fill="black" stroke="black" points="470.5,-133.2 467,-123.2 463.5,-133.2 470.5,-133.2"/>
<text text-anchor="middle" x="524.5" y="-144.8" font-family="Times,serif" font-size="14.00">विशेषणम्</text>
</g>
<!-- Node4_1&#45;&gt;Node3_1 -->
<g id="edge6" class="edge">
<title>Node4_1&#45;&gt;Node3_1</title>
<path fill="none" stroke="black" d="M483.63,-218.39C490.93,-227.57 500.3,-237.11 511,-243 555.94,-267.72 574.49,-252.08 625,-261 634.7,-262.71 644.99,-264.63 654.96,-266.55"/>
<polygon fill="black" stroke="black" points="486.29,-216.11 477.52,-210.17 480.68,-220.29 486.29,-216.11"/>
<text text-anchor="middle" x="604" y="-231.8" font-family="Times,serif" font-size="14.00">षष्ठीसम्बन्धः</text>
</g>
<!-- Node7_2 -->
<g id="node5" class="node">
<title>Node7_2</title>
<ellipse fill="#b0e2ff" stroke="#b0e2ff" cx="132" cy="-192" rx="106.68" ry="18"/>
<text text-anchor="middle" x="132" y="-188.3" font-family="Times,serif" font-size="14.00">इन्द्राय(7.2)</text>
</g>
<!-- Node8_1 -->
<g id="node6" class="node">
<title>Node8_1</title>
<ellipse fill="#b0e2ff" stroke="#b0e2ff" cx="132" cy="-279" rx="115.88" ry="18"/>
<text text-anchor="middle" x="132" y="-275.3" font-family="Times,serif" font-size="14.00">सुग्रीवाय(8.1)</text>
</g>
<!-- Node7_2&#45;&gt;Node8_1 -->
<g id="edge11" class="edge">
<title>Node7_2&#45;&gt;Node8_1</title>
<path fill="none" stroke="black" d="M132,-220.27C132,-233.58 132,-249.19 132,-260.82"/>
<polygon fill="black" stroke="black" points="135.5,-220.2 132,-210.2 128.5,-220.2 135.5,-220.2"/>
<text text-anchor="middle" x="189.5" y="-231.8" font-family="Times,serif" font-size="14.00">विशेषणम्</text>
</g>
<!-- Node8_1&#45;&gt;Node9_1 -->
<g id="edge12" class="edge">
<title>Node8_1&#45;&gt;Node9_1</title>
<path fill="none" stroke="black" d="M142.61,-306.24C147.51,-315.16 154.23,-324.3 163,-330 187.12,-345.68 251.63,-354.45 309.6,-359.29"/>
<polygon fill="black" stroke="black" points="145.71,-304.61 138.15,-297.18 139.43,-307.7 145.71,-304.61"/>
<text text-anchor="middle" x="241.5" y="-318.8" font-family="Times,serif" font-size="14.00">सम्प्रदानम्</text>
</g>
<!-- Node1_1 -->
<g id="node7" class="node">
<title>Node1_1</title>
<ellipse fill="#ff99ff" stroke="#ff99ff" cx="325" cy="-279" rx="59.59" ry="18"/>
<text text-anchor="middle" x="325" y="-275.3" font-family="Times,serif" font-size="14.00">ततः(1.1)</text>
</g>
<!-- Node1_1&#45;&gt;Node9_1 -->
<g id="edge1" class="edge">
<title>Node1_1&#45;&gt;Node9_1</title>
<path fill="none" stroke="black" d="M322.6,-307.42C323.19,-315.36 325.19,-323.6 330,-330 336.74,-338.98 346.17,-345.67 356.35,-350.64"/>
<polygon fill="black" stroke="black" points="326.1,-307.32 322.52,-297.35 319.1,-307.37 326.1,-307.32"/>
<text text-anchor="middle" x="408.5" y="-318.8" font-family="Times,serif" font-size="14.00">कालाधिकरणम्</text>
</g>
<!-- Node2_1 -->
<g id="node9" class="node">
<title>Node2_1</title>
<ellipse fill="#ffff00" stroke="#ffff00" cx="693" cy="-18" rx="81.49" ry="18"/>
<text text-anchor="middle" x="693" y="-14.3" font-family="Times,serif" font-size="14.00">त्वत्&#45;(2.1)</text>
</g>
<!-- Node2_2 -->
<g id="node10" class="node">
<title>Node2_2</title>
<ellipse fill="#ffff00" stroke="#ffff00" cx="693" cy="-105" rx="63.09" ry="18"/>
<text text-anchor="middle" x="693" y="-101.3" font-family="Times,serif" font-size="14.00">नाश&#45;(2.2)</text>
</g>
<!-- Node2_1&#45;&gt;Node2_2 -->
<g id="edge2" class="edge">
<title>Node2_1&#45;&gt;Node2_2</title>
<path fill="none" stroke="black" d="M693,-46.27C693,-59.58 693,-75.19 693,-86.82"/>
<polygon fill="black" stroke="black" points="696.5,-46.2 693,-36.2 689.5,-46.2 696.5,-46.2"/>
<text text-anchor="middle" x="795.5" y="-57.8" font-family="Times,serif" font-size="14.00">षष्ठी&#45;तत्पुरुषः</text>
</g>
<!-- Node2_2&#45;&gt;Node2_3 -->
<g id="edge3" class="edge">
<title>Node2_2&#45;&gt;Node2_3</title>
<path fill="none" stroke="black" d="M693,-133.27C693,-146.58 693,-162.19 693,-173.82"/>
<polygon fill="black" stroke="black" points="696.5,-133.2 693,-123.2 689.5,-133.2 696.5,-133.2"/>
<text text-anchor="middle" x="795.5" y="-144.8" font-family="Times,serif" font-size="14.00">उपपद्&#45;तत्पुरुषः</text>
</g>
<!-- Node5_1 -->
<g id="node11" class="node">
<title>Node5_1</title>
<ellipse fill="#ffff00" stroke="#ffff00" cx="467" cy="-18" rx="109.38" ry="18"/>
<text text-anchor="middle" x="467" y="-14.3" font-family="Times,serif" font-size="14.00">अक्लिष्ट&#45;(5.1)</text>
</g>
<!-- Node5_1&#45;&gt;Node5_2 -->
<g id="edge7" class="edge">
<title>Node5_1&#45;&gt;Node5_2</title>
<path fill="none" stroke="black" d="M467,-46.27C467,-59.58 467,-75.19 467,-86.82"/>
<polygon fill="black" stroke="black" points="470.5,-46.2 467,-36.2 463.5,-46.2 470.5,-46.2"/>
<text text-anchor="middle" x="538.5" y="-57.8" font-family="Times,serif" font-size="14.00">बहुव्रीहिः</text>
</g>
<!-- Node6_1 -->
<g id="node12" class="node">
<title>Node6_1</title>
<ellipse fill="#00bfff" stroke="#00bfff" cx="509" cy="-279" rx="106.68" ry="18"/>
<text text-anchor="middle" x="509" y="-275.3" font-family="Times,serif" font-size="14.00">लक्ष्मणः(6.1)</text>
</g>
<!-- Node6_1&#45;&gt;Node9_1 -->
<g id="edge9" class="edge">
<title>Node6_1&#45;&gt;Node9_1</title>
<path fill="none" stroke="black" d="M501.09,-307.01C497.73,-315.12 493.14,-323.55 487,-330 479.51,-337.87 469.86,-344.24 460.14,-349.28"/>
<polygon fill="black" stroke="black" points="504.44,-308.04 504.59,-297.45 497.87,-305.63 504.44,-308.04"/>
<text text-anchor="middle" x="534" y="-318.8" font-family="Times,serif" font-size="14.00">कर्ता</text>
</g>
<!-- Node7_1 -->
<g id="node13" class="node">
<title>Node7_1</title>
<ellipse fill="#ffff00" stroke="#ffff00" cx="132" cy="-105" rx="72.29" ry="18"/>
<text text-anchor="middle" x="132" y="-101.3" font-family="Times,serif" font-size="14.00">वानर&#45;(7.1)</text>
</g>
<!-- Node7_1&#45;&gt;Node7_2 -->
<g id="edge10" class="edge">
<title>Node7_1&#45;&gt;Node7_2</title>
<path fill="none" stroke="black" d="M132,-133.27C132,-146.58 132,-162.19 132,-173.82"/>
<polygon fill="black" stroke="black" points="135.5,-133.2 132,-123.2 128.5,-133.2 135.5,-133.2"/>
<text text-anchor="middle" x="234.5" y="-144.8" font-family="Times,serif" font-size="14.00">षष्ठी&#45;तत्पुरुषः</text>
</g>
</g>
</svg>
