<?xml version="1.0" encoding="UTF-8" standalone="no"?>
<!DOCTYPE svg PUBLIC "-//W3C//DTD SVG 1.1//EN"
 "http://www.w3.org/Graphics/SVG/1.1/DTD/svg11.dtd">
<!-- Generated by graphviz version 2.43.0 (0)
 -->
<!-- Title: G Pages: 1 -->
<svg width="1404pt" height="392pt"
 viewBox="0.00 0.00 1403.69 392.00" xmlns="http://www.w3.org/2000/svg" xmlns:xlink="http://www.w3.org/1999/xlink">
<g id="graph0" class="graph" transform="scale(1 1) rotate(0) translate(4 388)">
<title>G</title>
<polygon fill="#fffacd" stroke="transparent" points="-4,4 -4,-388 1399.69,-388 1399.69,4 -4,4"/>
<g id="clust1" class="cluster">
<title>cluster_1</title>
<polygon fill="#fffacd" stroke="black" points="941.69,-79 941.69,-305 1201.69,-305 1201.69,-79 941.69,-79"/>
</g>
<g id="clust2" class="cluster">
<title>cluster_2</title>
<polygon fill="#fffacd" stroke="black" points="239.69,-79 239.69,-218 431.69,-218 431.69,-79 239.69,-79"/>
</g>
<g id="clust3" class="cluster">
<title>cluster_3</title>
<polygon fill="#fffacd" stroke="black" points="693.69,-79 693.69,-218 933.69,-218 933.69,-79 693.69,-79"/>
</g>
<!-- Node1_1 -->
<g id="node1" class="node">
<title>Node1_1</title>
<ellipse fill="#00bfff" stroke="#00bfff" cx="1071.69" cy="-192" rx="50.89" ry="18"/>
<text text-anchor="middle" x="1071.69" y="-188.3" font-family="Times,serif" font-size="14.00">सः(1.1)</text>
</g>
<!-- Node10_1 -->
<g id="node2" class="node">
<title>Node10_1</title>
<ellipse fill="#00bfff" stroke="#00bfff" cx="1071.69" cy="-279" rx="121.58" ry="18"/>
<text text-anchor="middle" x="1071.69" y="-275.3" font-family="Times,serif" font-size="14.00">निष्प्रभः(10.1)</text>
</g>
<!-- Node1_1&#45;&gt;Node10_1 -->
<g id="edge1" class="edge">
<title>Node1_1&#45;&gt;Node10_1</title>
<path fill="none" stroke="black" d="M1071.69,-220.27C1071.69,-233.58 1071.69,-249.19 1071.69,-260.82"/>
<polygon fill="black" stroke="black" points="1075.19,-220.2 1071.69,-210.2 1068.19,-220.2 1075.19,-220.2"/>
<text text-anchor="middle" x="1129.19" y="-231.8" font-family="Times,serif" font-size="14.00">विशेषणम्</text>
</g>
<!-- Node9_1 -->
<g id="node9" class="node">
<title>Node9_1</title>
<ellipse fill="#ff1975" stroke="#ff1975" cx="592.69" cy="-366" rx="78.79" ry="18"/>
<text text-anchor="middle" x="592.69" y="-362.3" font-family="Times,serif" font-size="14.00">आसीत्(9.1)</text>
</g>
<!-- Node10_1&#45;&gt;Node9_1 -->
<g id="edge10" class="edge">
<title>Node10_1&#45;&gt;Node9_1</title>
<path fill="none" stroke="black" d="M987.15,-295C891.19,-312.03 737.08,-339.38 652.7,-354.35"/>
<polygon fill="black" stroke="black" points="987.87,-298.43 997.11,-293.23 986.65,-291.54 987.87,-298.43"/>
<text text-anchor="middle" x="957.19" y="-318.8" font-family="Times,serif" font-size="14.00">विधेय_विशेषणम्</text>
</g>
<!-- Node3_2 -->
<g id="node3" class="node">
<title>Node3_2</title>
<ellipse fill="#00bfff" stroke="#00bfff" cx="1071.69" cy="-105" rx="96.68" ry="18"/>
<text text-anchor="middle" x="1071.69" y="-101.3" font-family="Times,serif" font-size="14.00">इन्द्रः(3.2)</text>
</g>
<!-- Node3_2&#45;&gt;Node1_1 -->
<g id="edge4" class="edge">
<title>Node3_2&#45;&gt;Node1_1</title>
<path fill="none" stroke="black" d="M1071.69,-133.27C1071.69,-146.58 1071.69,-162.19 1071.69,-173.82"/>
<polygon fill="black" stroke="black" points="1075.19,-133.2 1071.69,-123.2 1068.19,-133.2 1075.19,-133.2"/>
<text text-anchor="middle" x="1129.19" y="-144.8" font-family="Times,serif" font-size="14.00">विशेषणम्</text>
</g>
<!-- Node6_1 -->
<g id="node4" class="node">
<title>Node6_1</title>
<ellipse fill="#93db70" stroke="#93db70" cx="335.69" cy="-105" rx="87.99" ry="18"/>
<text text-anchor="middle" x="335.69" y="-101.3" font-family="Times,serif" font-size="14.00">ईरितम्(6.1)</text>
</g>
<!-- Node7_1 -->
<g id="node5" class="node">
<title>Node7_1</title>
<ellipse fill="#93db70" stroke="#93db70" cx="308.69" cy="-192" rx="59.59" ry="18"/>
<text text-anchor="middle" x="308.69" y="-188.3" font-family="Times,serif" font-size="14.00">वचः(7.1)</text>
</g>
<!-- Node6_1&#45;&gt;Node7_1 -->
<g id="edge7" class="edge">
<title>Node6_1&#45;&gt;Node7_1</title>
<path fill="none" stroke="black" d="M327.15,-132.87C322.9,-146.27 317.88,-162.08 314.15,-173.82"/>
<polygon fill="black" stroke="black" points="330.53,-133.79 330.23,-123.2 323.86,-131.67 330.53,-133.79"/>
<text text-anchor="middle" x="381.19" y="-144.8" font-family="Times,serif" font-size="14.00">विशेषणम्</text>
</g>
<!-- Node2_1 -->
<g id="node8" class="node">
<title>Node2_1</title>
<ellipse fill="#ff99ff" stroke="#ff99ff" cx="308.69" cy="-279" rx="106.68" ry="18"/>
<text text-anchor="middle" x="308.69" y="-275.3" font-family="Times,serif" font-size="14.00">श्रुत्वा(2.1)</text>
</g>
<!-- Node7_1&#45;&gt;Node2_1 -->
<g id="edge8" class="edge">
<title>Node7_1&#45;&gt;Node2_1</title>
<path fill="none" stroke="black" d="M308.69,-220.27C308.69,-233.58 308.69,-249.19 308.69,-260.82"/>
<polygon fill="black" stroke="black" points="312.19,-220.2 308.69,-210.2 305.19,-220.2 312.19,-220.2"/>
<text text-anchor="middle" x="337.69" y="-231.8" font-family="Times,serif" font-size="14.00">कर्म</text>
</g>
<!-- Node12_2 -->
<g id="node6" class="node">
<title>Node12_2</title>
<ellipse fill="#00bfff" stroke="#00bfff" cx="810.69" cy="-105" rx="102.88" ry="18"/>
<text text-anchor="middle" x="810.69" y="-101.3" font-family="Times,serif" font-size="14.00">ग्रस्तः(12.2)</text>
</g>
<!-- Node14_1 -->
<g id="node7" class="node">
<title>Node14_1</title>
<ellipse fill="#00bfff" stroke="#00bfff" cx="813.69" cy="-192" rx="112.38" ry="18"/>
<text text-anchor="middle" x="813.69" y="-188.3" font-family="Times,serif" font-size="14.00">अंशुमान्(14.1)</text>
</g>
<!-- Node12_2&#45;&gt;Node14_1 -->
<g id="edge13" class="edge">
<title>Node12_2&#45;&gt;Node14_1</title>
<path fill="none" stroke="black" d="M811.65,-133.27C812.12,-146.58 812.67,-162.19 813.08,-173.82"/>
<polygon fill="black" stroke="black" points="815.15,-133.07 811.3,-123.2 808.15,-133.32 815.15,-133.07"/>
<text text-anchor="middle" x="869.19" y="-144.8" font-family="Times,serif" font-size="14.00">विशेषणम्</text>
</g>
<!-- Node14_1&#45;&gt;Node10_1 -->
<g id="edge15" class="edge">
<title>Node14_1&#45;&gt;Node10_1</title>
<path fill="none" stroke="black" d="M869.95,-211.53C916.01,-226.71 980.45,-247.94 1024.01,-262.29"/>
<polygon fill="black" stroke="black" points="871,-208.2 860.41,-208.39 868.81,-214.85 871,-208.2"/>
<text text-anchor="middle" x="1007.69" y="-231.8" font-family="Times,serif" font-size="14.00">उपमानम्</text>
</g>
<!-- Node2_1&#45;&gt;Node9_1 -->
<g id="edge2" class="edge">
<title>Node2_1&#45;&gt;Node9_1</title>
<path fill="none" stroke="black" d="M362.87,-298.85C391.52,-308.59 427.36,-320.41 459.69,-330 486.47,-337.95 516.55,-345.94 541.32,-352.28"/>
<polygon fill="black" stroke="black" points="363.65,-295.42 353.06,-295.5 361.39,-302.04 363.65,-295.42"/>
<text text-anchor="middle" x="524.19" y="-318.8" font-family="Times,serif" font-size="14.00">पूर्वकालः</text>
</g>
<!-- Node3_1 -->
<g id="node10" class="node">
<title>Node3_1</title>
<ellipse fill="#ffff00" stroke="#ffff00" cx="1202.69" cy="-18" rx="72.29" ry="18"/>
<text text-anchor="middle" x="1202.69" y="-14.3" font-family="Times,serif" font-size="14.00">वानर&#45;(3.1)</text>
</g>
<!-- Node3_1&#45;&gt;Node3_2 -->
<g id="edge3" class="edge">
<title>Node3_1&#45;&gt;Node3_2</title>
<path fill="none" stroke="black" d="M1195.61,-45.96C1192.27,-54.29 1187.47,-62.89 1180.69,-69 1169.03,-79.51 1154.18,-86.87 1139.23,-92.02"/>
<polygon fill="black" stroke="black" points="1198.94,-47.04 1198.89,-36.45 1192.32,-44.76 1198.94,-47.04"/>
<text text-anchor="middle" x="1293.19" y="-57.8" font-family="Times,serif" font-size="14.00">षष्ठी&#45;तत्पुरुषः</text>
</g>
<!-- Node4_1 -->
<g id="node11" class="node">
<title>Node4_1</title>
<ellipse fill="#ff99ff" stroke="#ff99ff" cx="1061.69" cy="-18" rx="50.89" ry="18"/>
<text text-anchor="middle" x="1061.69" y="-14.3" font-family="Times,serif" font-size="14.00">तु(4.1)</text>
</g>
<!-- Node4_1&#45;&gt;Node3_2 -->
<g id="edge5" class="edge">
<title>Node4_1&#45;&gt;Node3_2</title>
<path fill="none" stroke="black" d="M1063.43,-46.38C1064.02,-53.74 1064.77,-61.69 1065.69,-69 1066.43,-74.87 1067.45,-81.26 1068.45,-86.96"/>
<polygon fill="black" stroke="black" points="1066.91,-45.88 1062.68,-36.16 1059.92,-46.39 1066.91,-45.88"/>
<text text-anchor="middle" x="1123.19" y="-57.8" font-family="Times,serif" font-size="14.00">सम्बन्धः</text>
</g>
<!-- Node5_1 -->
<g id="node12" class="node">
<title>Node5_1</title>
<ellipse fill="#40e0d0" stroke="#40e0d0" cx="115.69" cy="-192" rx="115.88" ry="18"/>
<text text-anchor="middle" x="115.69" y="-188.3" font-family="Times,serif" font-size="14.00">लक्ष्मणेन(5.1)</text>
</g>
<!-- Node5_1&#45;&gt;Node2_1 -->
<g id="edge6" class="edge">
<title>Node5_1&#45;&gt;Node2_1</title>
<path fill="none" stroke="black" d="M161.68,-213.25C195.57,-228.18 241.05,-248.21 272.4,-262.02"/>
<polygon fill="black" stroke="black" points="163.01,-210.02 152.45,-209.19 160.19,-216.42 163.01,-210.02"/>
<text text-anchor="middle" x="260.69" y="-231.8" font-family="Times,serif" font-size="14.00">कर्ता</text>
</g>
<!-- Node8_1 -->
<g id="node13" class="node">
<title>Node8_1</title>
<ellipse fill="#ff99ff" stroke="#ff99ff" cx="592.69" cy="-279" rx="59.59" ry="18"/>
<text text-anchor="middle" x="592.69" y="-275.3" font-family="Times,serif" font-size="14.00">तदा(8.1)</text>
</g>
<!-- Node8_1&#45;&gt;Node9_1 -->
<g id="edge9" class="edge">
<title>Node8_1&#45;&gt;Node9_1</title>
<path fill="none" stroke="black" d="M592.69,-307.27C592.69,-320.58 592.69,-336.19 592.69,-347.82"/>
<polygon fill="black" stroke="black" points="596.19,-307.2 592.69,-297.2 589.19,-307.2 596.19,-307.2"/>
<text text-anchor="middle" x="671.19" y="-318.8" font-family="Times,serif" font-size="14.00">कालाधिकरणम्</text>
</g>
<!-- Node11_1 -->
<g id="node14" class="node">
<title>Node11_1</title>
<ellipse fill="#00bfff" stroke="#00bfff" cx="561.69" cy="-192" rx="121.58" ry="18"/>
<text text-anchor="middle" x="561.69" y="-188.3" font-family="Times,serif" font-size="14.00">अत्यर्थम्(11.1)</text>
</g>
<!-- Node11_1&#45;&gt;Node10_1 -->
<g id="edge11" class="edge">
<title>Node11_1&#45;&gt;Node10_1</title>
<path fill="none" stroke="black" d="M641.58,-208.69C657.51,-211.8 674.13,-215.02 689.69,-218 748.76,-229.32 763.34,-233.26 822.69,-243 875.89,-251.73 935.71,-260.19 983.38,-266.6"/>
<polygon fill="black" stroke="black" points="642.24,-205.26 631.76,-206.78 640.9,-212.13 642.24,-205.26"/>
<text text-anchor="middle" x="872.69" y="-231.8" font-family="Times,serif" font-size="14.00">सम्बंधः</text>
</g>
<!-- Node12_1 -->
<g id="node15" class="node">
<title>Node12_1</title>
<ellipse fill="#ffff00" stroke="#ffff00" cx="810.69" cy="-18" rx="77.99" ry="18"/>
<text text-anchor="middle" x="810.69" y="-14.3" font-family="Times,serif" font-size="14.00">ग्रह&#45;(12.1)</text>
</g>
<!-- Node12_1&#45;&gt;Node12_2 -->
<g id="edge12" class="edge">
<title>Node12_1&#45;&gt;Node12_2</title>
<path fill="none" stroke="black" d="M810.69,-46.27C810.69,-59.58 810.69,-75.19 810.69,-86.82"/>
<polygon fill="black" stroke="black" points="814.19,-46.2 810.69,-36.2 807.19,-46.2 814.19,-46.2"/>
<text text-anchor="middle" x="920.19" y="-57.8" font-family="Times,serif" font-size="14.00">तृतीया&#45;तत्पुरुषः</text>
</g>
<!-- Node13_1 -->
<g id="node16" class="node">
<title>Node13_1</title>
<ellipse fill="#ff99ff" stroke="#ff99ff" cx="611.69" cy="-105" rx="56.59" ry="18"/>
<text text-anchor="middle" x="611.69" y="-101.3" font-family="Times,serif" font-size="14.00">इव(13.1)</text>
</g>
<!-- Node13_1&#45;&gt;Node14_1 -->
<g id="edge14" class="edge">
<title>Node13_1&#45;&gt;Node14_1</title>
<path fill="none" stroke="black" d="M617.09,-133.03C620.06,-141.52 624.64,-150.18 631.69,-156 639.96,-162.82 688.93,-172.03 733.99,-179.28"/>
<polygon fill="black" stroke="black" points="620.42,-131.96 614.29,-123.32 613.7,-133.9 620.42,-131.96"/>
<text text-anchor="middle" x="719.69" y="-144.8" font-family="Times,serif" font-size="14.00">उपमान&#45;द्योतकः</text>
</g>
</g>
</svg>
