<?xml version="1.0" encoding="UTF-8" standalone="no"?>
<!DOCTYPE svg PUBLIC "-//W3C//DTD SVG 1.1//EN"
 "http://www.w3.org/Graphics/SVG/1.1/DTD/svg11.dtd">
<!-- Generated by graphviz version 2.43.0 (0)
 -->
<!-- Title: G Pages: 1 -->
<svg width="1520pt" height="321pt"
 viewBox="0.00 0.00 1520.00 321.00" xmlns="http://www.w3.org/2000/svg" xmlns:xlink="http://www.w3.org/1999/xlink">
<g id="graph0" class="graph" transform="scale(1 1) rotate(0) translate(4 317)">
<title>G</title>
<polygon fill="#fffacd" stroke="transparent" points="-4,4 -4,-317 1516,-317 1516,4 -4,4"/>
<g id="clust1" class="cluster">
<title>cluster_1</title>
<polygon fill="#fffacd" stroke="black" points="841,-95 841,-234 1219,-234 1219,-95 841,-95"/>
</g>
<g id="clust2" class="cluster">
<title>cluster_2</title>
<polygon fill="#fffacd" stroke="black" points="8,-8 8,-147 218,-147 218,-8 8,-8"/>
</g>
<g id="clust3" class="cluster">
<title>cluster_3</title>
<polygon fill="#fffacd" stroke="black" points="287,-182 287,-234 479,-234 479,-182 287,-182"/>
</g>
<!-- Node3_1 -->
<g id="node1" class="node">
<title>Node3_1</title>
<ellipse fill="#93db70" stroke="#93db70" cx="1151" cy="-121" rx="59.59" ry="18"/>
<text text-anchor="middle" x="1151" y="-117.3" font-family="Times,serif" font-size="14.00">तम्(3.1)</text>
</g>
<!-- Node9_1 -->
<g id="node2" class="node">
<title>Node9_1</title>
<ellipse fill="#93db70" stroke="#93db70" cx="1027" cy="-208" rx="87.99" ry="18"/>
<text text-anchor="middle" x="1027" y="-204.3" font-family="Times,serif" font-size="14.00">राघवम्(9.1)</text>
</g>
<!-- Node3_1&#45;&gt;Node9_1 -->
<g id="edge3" class="edge">
<title>Node3_1&#45;&gt;Node9_1</title>
<path fill="none" stroke="black" d="M1119.59,-143.53C1098.35,-158.09 1070.71,-177.04 1051.18,-190.43"/>
<polygon fill="black" stroke="black" points="1121.7,-146.33 1127.97,-137.79 1117.74,-140.56 1121.7,-146.33"/>
<text text-anchor="middle" x="1153.5" y="-160.8" font-family="Times,serif" font-size="14.00">विशेषणम्</text>
</g>
<!-- Node10_1 -->
<g id="node9" class="node">
<title>Node10_1</title>
<ellipse fill="#ff1975" stroke="#ff1975" cx="1181" cy="-295" rx="112.38" ry="18"/>
<text text-anchor="middle" x="1181" y="-291.3" font-family="Times,serif" font-size="14.00">तापयन्ति(10.1)</text>
</g>
<!-- Node9_1&#45;&gt;Node10_1 -->
<g id="edge9" class="edge">
<title>Node9_1&#45;&gt;Node10_1</title>
<path fill="none" stroke="black" d="M1065.35,-230.17C1091.92,-244.83 1126.78,-264.07 1151.26,-277.58"/>
<polygon fill="black" stroke="black" points="1066.77,-226.96 1056.33,-225.19 1063.39,-233.08 1066.77,-226.96"/>
<text text-anchor="middle" x="1142" y="-247.8" font-family="Times,serif" font-size="14.00">कर्म</text>
</g>
<!-- Node11_2 -->
<g id="node3" class="node">
<title>Node11_2</title>
<ellipse fill="#93db70" stroke="#93db70" cx="961" cy="-121" rx="112.38" ry="18"/>
<text text-anchor="middle" x="961" y="-117.3" font-family="Times,serif" font-size="14.00">आत्मानम्(11.2)</text>
</g>
<!-- Node11_2&#45;&gt;Node9_1 -->
<g id="edge11" class="edge">
<title>Node11_2&#45;&gt;Node9_1</title>
<path fill="none" stroke="black" d="M954.42,-149.55C953.98,-157.28 954.96,-165.37 959,-172 964.32,-180.73 972.6,-187.37 981.56,-192.4"/>
<polygon fill="black" stroke="black" points="957.92,-149.78 955.75,-139.41 950.98,-148.87 957.92,-149.78"/>
<text text-anchor="middle" x="1016.5" y="-160.8" font-family="Times,serif" font-size="14.00">विशेषणम्</text>
</g>
<!-- Node4_1 -->
<g id="node4" class="node">
<title>Node4_1</title>
<ellipse fill="#00bfff" stroke="#00bfff" cx="113" cy="-34" rx="96.68" ry="18"/>
<text text-anchor="middle" x="113" y="-30.3" font-family="Times,serif" font-size="14.00">अनिद्रा(4.1)</text>
</g>
<!-- Node6_1 -->
<g id="node5" class="node">
<title>Node6_1</title>
<ellipse fill="#00bfff" stroke="#00bfff" cx="94" cy="-121" rx="69.59" ry="18"/>
<text text-anchor="middle" x="94" y="-117.3" font-family="Times,serif" font-size="14.00">शोकः(6.1)</text>
</g>
<!-- Node4_1&#45;&gt;Node6_1 -->
<g id="edge4" class="edge">
<title>Node4_1&#45;&gt;Node6_1</title>
<path fill="none" stroke="black" d="M106.91,-62.27C103.93,-75.58 100.44,-91.19 97.84,-102.82"/>
<polygon fill="black" stroke="black" points="110.39,-62.72 109.16,-52.2 103.56,-61.2 110.39,-62.72"/>
<text text-anchor="middle" x="169.5" y="-73.8" font-family="Times,serif" font-size="14.00">समुच्चितः</text>
</g>
<!-- Node7_1 -->
<g id="node6" class="node">
<title>Node7_1</title>
<ellipse fill="#00bfff" stroke="#00bfff" cx="383" cy="-208" rx="87.99" ry="18"/>
<text text-anchor="middle" x="383" y="-204.3" font-family="Times,serif" font-size="14.00">चिन्ता(7.1)</text>
</g>
<!-- Node6_1&#45;&gt;Node7_1 -->
<g id="edge6" class="edge">
<title>Node6_1&#45;&gt;Node7_1</title>
<path fill="none" stroke="black" d="M105.65,-148.27C110.9,-157.19 117.98,-166.33 127,-172 154.95,-189.59 235.45,-198.52 298.79,-202.94"/>
<polygon fill="black" stroke="black" points="108.61,-146.39 100.83,-139.2 102.43,-149.68 108.61,-146.39"/>
<text text-anchor="middle" x="191.5" y="-160.8" font-family="Times,serif" font-size="14.00">समुच्चितः</text>
</g>
<!-- Node7_1&#45;&gt;Node10_1 -->
<g id="edge7" class="edge">
<title>Node7_1&#45;&gt;Node10_1</title>
<path fill="none" stroke="black" d="M469,-218.16C620.87,-234.34 935.12,-267.81 1090.28,-284.34"/>
<polygon fill="black" stroke="black" points="469.11,-214.65 458.79,-217.07 468.37,-221.61 469.11,-214.65"/>
<text text-anchor="middle" x="865" y="-247.8" font-family="Times,serif" font-size="14.00">कर्ता</text>
</g>
<!-- Node1_1 -->
<g id="node7" class="node">
<title>Node1_1</title>
<ellipse fill="#87ceeb" stroke="#87ceeb" cx="1307" cy="-121" rx="78.79" ry="18"/>
<text text-anchor="middle" x="1307" y="-117.3" font-family="Times,serif" font-size="14.00">त्वत्(1.1)</text>
</g>
<!-- Node2_1 -->
<g id="node8" class="node">
<title>Node2_1</title>
<ellipse fill="#ff99ff" stroke="#ff99ff" cx="1297" cy="-208" rx="69.59" ry="18"/>
<text text-anchor="middle" x="1297" y="-204.3" font-family="Times,serif" font-size="14.00">कृते(2.1)</text>
</g>
<!-- Node1_1&#45;&gt;Node2_1 -->
<g id="edge1" class="edge">
<title>Node1_1&#45;&gt;Node2_1</title>
<path fill="none" stroke="black" d="M1303.79,-149.27C1302.23,-162.58 1300.39,-178.19 1299.02,-189.82"/>
<polygon fill="black" stroke="black" points="1307.28,-149.54 1304.98,-139.2 1300.33,-148.72 1307.28,-149.54"/>
<text text-anchor="middle" x="1395" y="-160.8" font-family="Times,serif" font-size="14.00">षष्ठीसम्बन्धः</text>
</g>
<!-- Node2_1&#45;&gt;Node10_1 -->
<g id="edge2" class="edge">
<title>Node2_1&#45;&gt;Node10_1</title>
<path fill="none" stroke="black" d="M1266.58,-231.29C1246.92,-245.7 1221.75,-264.14 1203.8,-277.29"/>
<polygon fill="black" stroke="black" points="1268.91,-233.92 1274.91,-225.19 1264.77,-228.28 1268.91,-233.92"/>
<text text-anchor="middle" x="1309.5" y="-247.8" font-family="Times,serif" font-size="14.00">प्रयोजनम्</text>
</g>
<!-- Node5_1 -->
<g id="node10" class="node">
<title>Node5_1</title>
<ellipse fill="#ff99ff" stroke="#ff99ff" cx="1426" cy="-208" rx="41.69" ry="18"/>
<text text-anchor="middle" x="1426" y="-204.3" font-family="Times,serif" font-size="14.00">च(5.1)</text>
</g>
<!-- Node5_1&#45;&gt;Node10_1 -->
<g id="edge5" class="edge">
<title>Node5_1&#45;&gt;Node10_1</title>
<path fill="none" stroke="black" d="M1407.98,-233.6C1399.85,-242.97 1389.49,-252.86 1378,-259 1349.66,-274.15 1316.08,-282.92 1284.75,-287.94"/>
<polygon fill="black" stroke="black" points="1410.89,-235.56 1414.52,-225.6 1405.48,-231.13 1410.89,-235.56"/>
<text text-anchor="middle" x="1454.5" y="-247.8" font-family="Times,serif" font-size="14.00">सम्बन्धः</text>
</g>
<!-- Node8_1 -->
<g id="node11" class="node">
<title>Node8_1</title>
<ellipse fill="#ff99ff" stroke="#ff99ff" cx="268" cy="-121" rx="41.69" ry="18"/>
<text text-anchor="middle" x="268" y="-117.3" font-family="Times,serif" font-size="14.00">च(8.1)</text>
</g>
<!-- Node8_1&#45;&gt;Node7_1 -->
<g id="edge8" class="edge">
<title>Node8_1&#45;&gt;Node7_1</title>
<path fill="none" stroke="black" d="M260.05,-148.8C259.21,-156.93 260.1,-165.43 265,-172 275.03,-185.44 290.01,-193.93 305.95,-199.24"/>
<polygon fill="black" stroke="black" points="263.51,-149.35 261.86,-138.88 256.62,-148.09 263.51,-149.35"/>
<text text-anchor="middle" x="368.5" y="-160.8" font-family="Times,serif" font-size="14.00">समुच्चय_द्योतकः</text>
</g>
<!-- Node11_1 -->
<g id="node12" class="node">
<title>Node11_1</title>
<ellipse fill="#ffff00" stroke="#ffff00" cx="998" cy="-34" rx="68.79" ry="18"/>
<text text-anchor="middle" x="998" y="-30.3" font-family="Times,serif" font-size="14.00">महा&#45;(11.1)</text>
</g>
<!-- Node11_1&#45;&gt;Node11_2 -->
<g id="edge10" class="edge">
<title>Node11_1&#45;&gt;Node11_2</title>
<path fill="none" stroke="black" d="M986.47,-61.48C980.61,-74.96 973.64,-90.96 968.48,-102.82"/>
<polygon fill="black" stroke="black" points="989.73,-62.77 990.51,-52.2 983.31,-59.97 989.73,-62.77"/>
<text text-anchor="middle" x="1017" y="-73.8" font-family="Times,serif" font-size="14.00">समासः</text>
</g>
<!-- Node12_1 -->
<g id="node13" class="node">
<title>Node12_1</title>
<ellipse fill="#ffff00" stroke="#ffff00" cx="824" cy="-34" rx="87.18" ry="18"/>
<text text-anchor="middle" x="824" y="-30.3" font-family="Times,serif" font-size="14.00">अग्नि&#45;(12.1)</text>
</g>
<!-- Node12_2 -->
<g id="node14" class="node">
<title>Node12_2</title>
<ellipse fill="#93db70" stroke="#93db70" cx="737" cy="-121" rx="93.68" ry="18"/>
<text text-anchor="middle" x="737" y="-117.3" font-family="Times,serif" font-size="14.00">अगारम्(12.2)</text>
</g>
<!-- Node12_1&#45;&gt;Node12_2 -->
<g id="edge12" class="edge">
<title>Node12_1&#45;&gt;Node12_2</title>
<path fill="none" stroke="black" d="M815.97,-61.9C812.61,-70 808.04,-78.46 802,-85 794.7,-92.91 785.19,-99.4 775.71,-104.54"/>
<polygon fill="black" stroke="black" points="819.31,-62.95 819.49,-52.36 812.75,-60.52 819.31,-62.95"/>
<text text-anchor="middle" x="848" y="-73.8" font-family="Times,serif" font-size="14.00">समासः</text>
</g>
<!-- Node12_2&#45;&gt;Node9_1 -->
<g id="edge13" class="edge">
<title>Node12_2&#45;&gt;Node9_1</title>
<path fill="none" stroke="black" d="M777.44,-142.51C798.61,-152.57 825.23,-164.18 850,-172 884.8,-182.99 924.58,-191.23 957.6,-196.94"/>
<polygon fill="black" stroke="black" points="778.94,-139.35 768.42,-138.16 775.9,-145.65 778.94,-139.35"/>
<text text-anchor="middle" x="900" y="-160.8" font-family="Times,serif" font-size="14.00">उपमानम्</text>
</g>
<!-- Node13_1 -->
<g id="node15" class="node">
<title>Node13_1</title>
<ellipse fill="#ff99ff" stroke="#ff99ff" cx="523" cy="-34" rx="56.59" ry="18"/>
<text text-anchor="middle" x="523" y="-30.3" font-family="Times,serif" font-size="14.00">इव(13.1)</text>
</g>
<!-- Node13_1&#45;&gt;Node12_2 -->
<g id="edge14" class="edge">
<title>Node13_1&#45;&gt;Node12_2</title>
<path fill="none" stroke="black" d="M567.04,-52.49C578.39,-57.6 590.39,-63.57 601,-70 610.2,-75.58 610.45,-80.04 620,-85 637.96,-94.34 658.81,-101.58 677.88,-106.99"/>
<polygon fill="black" stroke="black" points="568.27,-49.21 557.71,-48.4 565.47,-55.62 568.27,-49.21"/>
<text text-anchor="middle" x="709" y="-73.8" font-family="Times,serif" font-size="14.00">उपमान_द्योतकः</text>
</g>
<!-- Node14_1 -->
<g id="node16" class="node">
<title>Node14_1</title>
<ellipse fill="#6fffc3" stroke="#6fffc3" cx="459" cy="-121" rx="93.68" ry="18"/>
<text text-anchor="middle" x="459" y="-117.3" font-family="Times,serif" font-size="14.00">अग्नयः(14.1)</text>
</g>
<!-- Node13_1&#45;&gt;Node14_1 -->
<g id="edge15" class="edge">
<title>Node13_1&#45;&gt;Node14_1</title>
<path fill="none" stroke="black" stroke-dasharray="1,5" d="M460.81,-43.94C446.08,-49.13 432.04,-57.26 423,-70 415.08,-81.17 424.08,-93.67 435.06,-103.37"/>
<polygon fill="black" stroke="black" points="462.02,-47.23 470.55,-40.93 459.96,-40.54 462.02,-47.23"/>
<text text-anchor="middle" x="512" y="-73.8" font-family="Times,serif" font-size="14.00">उपमान_द्योतकः</text>
</g>
<!-- Node14_1&#45;&gt;Node7_1 -->
<g id="edge16" class="edge">
<title>Node14_1&#45;&gt;Node7_1</title>
<path fill="none" stroke="black" d="M476.76,-148.36C479.93,-156.39 480.88,-164.96 476,-172 468.64,-182.64 457.61,-190.05 445.69,-195.21"/>
<polygon fill="black" stroke="black" points="479.83,-146.68 472.23,-139.29 473.57,-149.8 479.83,-146.68"/>
<text text-anchor="middle" x="530" y="-160.8" font-family="Times,serif" font-size="14.00">उपमानम्</text>
</g>
</g>
</svg>
