<?xml version="1.0" encoding="UTF-8" standalone="no"?>
<!DOCTYPE svg PUBLIC "-//W3C//DTD SVG 1.1//EN"
 "http://www.w3.org/Graphics/SVG/1.1/DTD/svg11.dtd">
<!-- Generated by graphviz version 2.43.0 (0)
 -->
<!-- Title: G Pages: 1 -->
<svg width="1291pt" height="392pt"
 viewBox="0.00 0.00 1291.00 392.00" xmlns="http://www.w3.org/2000/svg" xmlns:xlink="http://www.w3.org/1999/xlink">
<g id="graph0" class="graph" transform="scale(1 1) rotate(0) translate(4 388)">
<title>G</title>
<polygon fill="#fffacd" stroke="transparent" points="-4,4 -4,-388 1287,-388 1287,4 -4,4"/>
<g id="clust1" class="cluster">
<title>cluster_1</title>
<polygon fill="#fffacd" stroke="black" points="543,-166 543,-305 1179,-305 1179,-166 543,-166"/>
</g>
<g id="clust2" class="cluster">
<title>cluster_2</title>
<polygon fill="#fffacd" stroke="black" points="8,-166 8,-305 218,-305 218,-166 8,-166"/>
</g>
<!-- Node1_2 -->
<g id="node1" class="node">
<title>Node1_2</title>
<ellipse fill="#00bfff" stroke="#00bfff" cx="658" cy="-192" rx="106.68" ry="18"/>
<text text-anchor="middle" x="658" y="-188.3" font-family="Times,serif" font-size="14.00">व्याघ्रौ(1.2)</text>
</g>
<!-- Node4_1 -->
<g id="node2" class="node">
<title>Node4_1</title>
<ellipse fill="#93db70" stroke="#93db70" cx="743" cy="-279" rx="50.89" ry="18"/>
<text text-anchor="middle" x="743" y="-275.3" font-family="Times,serif" font-size="14.00">तौ(4.1)</text>
</g>
<!-- Node1_2&#45;&gt;Node4_1 -->
<g id="edge2" class="edge">
<title>Node1_2&#45;&gt;Node4_1</title>
<path fill="none" stroke="black" d="M681.69,-217.41C689.69,-225.59 698.69,-234.73 707,-243 713.18,-249.15 720.02,-255.84 726.07,-261.7"/>
<polygon fill="black" stroke="black" points="684.17,-214.94 674.68,-210.23 679.16,-219.83 684.17,-214.94"/>
<text text-anchor="middle" x="764.5" y="-231.8" font-family="Times,serif" font-size="14.00">विशेषणम्</text>
</g>
<!-- Node8_1 -->
<g id="node10" class="node">
<title>Node8_1</title>
<ellipse fill="#00bfff" stroke="#00bfff" cx="328" cy="-366" rx="106.68" ry="18"/>
<text text-anchor="middle" x="328" y="-362.3" font-family="Times,serif" font-size="14.00">उपस्थितः(8.1)</text>
</g>
<!-- Node4_1&#45;&gt;Node8_1 -->
<g id="edge7" class="edge">
<title>Node4_1&#45;&gt;Node8_1</title>
<path fill="none" stroke="black" d="M690.35,-290.78C614.6,-306.3 475.01,-334.89 392.96,-351.7"/>
<polygon fill="black" stroke="black" points="691.06,-294.21 700.15,-288.78 689.65,-287.35 691.06,-294.21"/>
<text text-anchor="middle" x="589" y="-318.8" font-family="Times,serif" font-size="14.00">कर्म</text>
</g>
<!-- Node2_1 -->
<g id="node3" class="node">
<title>Node2_1</title>
<ellipse fill="#00bfff" stroke="#00bfff" cx="861" cy="-192" rx="78.79" ry="18"/>
<text text-anchor="middle" x="861" y="-188.3" font-family="Times,serif" font-size="14.00">प्रभू(2.1)</text>
</g>
<!-- Node2_1&#45;&gt;Node4_1 -->
<g id="edge3" class="edge">
<title>Node2_1&#45;&gt;Node4_1</title>
<path fill="none" stroke="black" d="M844.97,-218.4C838.61,-227.02 830.72,-236.19 822,-243 809.35,-252.88 793.47,-260.61 779.27,-266.27"/>
<polygon fill="black" stroke="black" points="847.93,-220.26 850.79,-210.06 842.2,-216.25 847.93,-220.26"/>
<text text-anchor="middle" x="893.5" y="-231.8" font-family="Times,serif" font-size="14.00">विशेषणम्</text>
</g>
<!-- Node3_3 -->
<g id="node4" class="node">
<title>Node3_3</title>
<ellipse fill="#93db70" stroke="#93db70" cx="1064" cy="-192" rx="106.68" ry="18"/>
<text text-anchor="middle" x="1064" y="-188.3" font-family="Times,serif" font-size="14.00">सम्पन्नौ(3.3)</text>
</g>
<!-- Node3_3&#45;&gt;Node4_1 -->
<g id="edge6" class="edge">
<title>Node3_3&#45;&gt;Node4_1</title>
<path fill="none" stroke="black" d="M1024.9,-214.02C1004.56,-224.15 979,-235.66 955,-243 900.42,-259.69 835.36,-268.94 791.83,-273.67"/>
<polygon fill="black" stroke="black" points="1026.51,-217.12 1033.85,-209.48 1023.35,-210.88 1026.51,-217.12"/>
<text text-anchor="middle" x="1049.5" y="-231.8" font-family="Times,serif" font-size="14.00">विशेषणम्</text>
</g>
<!-- Node6_2 -->
<g id="node5" class="node">
<title>Node6_2</title>
<ellipse fill="#00bfff" stroke="#00bfff" cx="113" cy="-192" rx="96.68" ry="18"/>
<text text-anchor="middle" x="113" y="-188.3" font-family="Times,serif" font-size="14.00">अञ्जलिः(6.2)</text>
</g>
<!-- Node7_1 -->
<g id="node6" class="node">
<title>Node7_1</title>
<ellipse fill="#00bfff" stroke="#00bfff" cx="118" cy="-279" rx="69.59" ry="18"/>
<text text-anchor="middle" x="118" y="-275.3" font-family="Times,serif" font-size="14.00">अहम्(7.1)</text>
</g>
<!-- Node6_2&#45;&gt;Node7_1 -->
<g id="edge11" class="edge">
<title>Node6_2&#45;&gt;Node7_1</title>
<path fill="none" stroke="black" d="M114.6,-220.27C115.39,-233.58 116.31,-249.19 116.99,-260.82"/>
<polygon fill="black" stroke="black" points="118.09,-219.98 114.01,-210.2 111.11,-220.39 118.09,-219.98"/>
<text text-anchor="middle" x="173.5" y="-231.8" font-family="Times,serif" font-size="14.00">विशेषणम्</text>
</g>
<!-- Node7_1&#45;&gt;Node8_1 -->
<g id="edge12" class="edge">
<title>Node7_1&#45;&gt;Node8_1</title>
<path fill="none" stroke="black" d="M163.74,-298.51C201.1,-313.63 253.34,-334.78 288.81,-349.14"/>
<polygon fill="black" stroke="black" points="164.68,-295.12 154.1,-294.61 162.06,-301.61 164.68,-295.12"/>
<text text-anchor="middle" x="272" y="-318.8" font-family="Times,serif" font-size="14.00">कर्ता</text>
</g>
<!-- Node1_1 -->
<g id="node7" class="node">
<title>Node1_1</title>
<ellipse fill="#ffff00" stroke="#ffff00" cx="658" cy="-105" rx="81.49" ry="18"/>
<text text-anchor="middle" x="658" y="-101.3" font-family="Times,serif" font-size="14.00">पुरुष&#45;(1.1)</text>
</g>
<!-- Node1_1&#45;&gt;Node1_2 -->
<g id="edge1" class="edge">
<title>Node1_1&#45;&gt;Node1_2</title>
<path fill="none" stroke="black" d="M658,-133.27C658,-146.58 658,-162.19 658,-173.82"/>
<polygon fill="black" stroke="black" points="661.5,-133.2 658,-123.2 654.5,-133.2 661.5,-133.2"/>
<text text-anchor="middle" x="722.5" y="-144.8" font-family="Times,serif" font-size="14.00">कर्मधारयः</text>
</g>
<!-- Node3_1 -->
<g id="node8" class="node">
<title>Node3_1</title>
<ellipse fill="#ffff00" stroke="#ffff00" cx="1064" cy="-18" rx="63.09" ry="18"/>
<text text-anchor="middle" x="1064" y="-14.3" font-family="Times,serif" font-size="14.00">रूप&#45;(3.1)</text>
</g>
<!-- Node3_2 -->
<g id="node9" class="node">
<title>Node3_2</title>
<ellipse fill="#ffff00" stroke="#ffff00" cx="1064" cy="-105" rx="81.49" ry="18"/>
<text text-anchor="middle" x="1064" y="-101.3" font-family="Times,serif" font-size="14.00">लक्षण&#45;(3.2)</text>
</g>
<!-- Node3_1&#45;&gt;Node3_2 -->
<g id="edge4" class="edge">
<title>Node3_1&#45;&gt;Node3_2</title>
<path fill="none" stroke="black" d="M1064,-46.27C1064,-59.58 1064,-75.19 1064,-86.82"/>
<polygon fill="black" stroke="black" points="1067.5,-46.2 1064,-36.2 1060.5,-46.2 1067.5,-46.2"/>
<text text-anchor="middle" x="1159" y="-57.8" font-family="Times,serif" font-size="14.00">द्वन्द्व&#45;समासः</text>
</g>
<!-- Node3_2&#45;&gt;Node3_3 -->
<g id="edge5" class="edge">
<title>Node3_2&#45;&gt;Node3_3</title>
<path fill="none" stroke="black" d="M1064,-133.27C1064,-146.58 1064,-162.19 1064,-173.82"/>
<polygon fill="black" stroke="black" points="1067.5,-133.2 1064,-123.2 1060.5,-133.2 1067.5,-133.2"/>
<text text-anchor="middle" x="1173.5" y="-144.8" font-family="Times,serif" font-size="14.00">तृतीया&#45;तत्पुरुषः</text>
</g>
<!-- Node5_1 -->
<g id="node11" class="node">
<title>Node5_1</title>
<ellipse fill="#ffff00" stroke="#ffff00" cx="328" cy="-192" rx="100.18" ry="18"/>
<text text-anchor="middle" x="328" y="-188.3" font-family="Times,serif" font-size="14.00">सुग्रीव&#45;(5.1)</text>
</g>
<!-- Node5_2 -->
<g id="node12" class="node">
<title>Node5_2</title>
<ellipse fill="#b4ffb4" stroke="#b4ffb4" cx="328" cy="-279" rx="87.99" ry="18"/>
<text text-anchor="middle" x="328" y="-275.3" font-family="Times,serif" font-size="14.00">वचनात्(5.2)</text>
</g>
<!-- Node5_1&#45;&gt;Node5_2 -->
<g id="edge8" class="edge">
<title>Node5_1&#45;&gt;Node5_2</title>
<path fill="none" stroke="black" d="M328,-220.27C328,-233.58 328,-249.19 328,-260.82"/>
<polygon fill="black" stroke="black" points="331.5,-220.2 328,-210.2 324.5,-220.2 331.5,-220.2"/>
<text text-anchor="middle" x="431.5" y="-231.8" font-family="Times,serif" font-size="14.00">षष्ठी_तत्पुरुषः</text>
</g>
<!-- Node5_2&#45;&gt;Node8_1 -->
<g id="edge9" class="edge">
<title>Node5_2&#45;&gt;Node8_1</title>
<path fill="none" stroke="black" d="M328,-307.27C328,-320.58 328,-336.19 328,-347.82"/>
<polygon fill="black" stroke="black" points="331.5,-307.2 328,-297.2 324.5,-307.2 331.5,-307.2"/>
<text text-anchor="middle" x="364" y="-318.8" font-family="Times,serif" font-size="14.00">हेतुः</text>
</g>
<!-- Node6_1 -->
<g id="node13" class="node">
<title>Node6_1</title>
<ellipse fill="#ffff00" stroke="#ffff00" cx="113" cy="-105" rx="63.09" ry="18"/>
<text text-anchor="middle" x="113" y="-101.3" font-family="Times,serif" font-size="14.00">कृत&#45;(6.1)</text>
</g>
<!-- Node6_1&#45;&gt;Node6_2 -->
<g id="edge10" class="edge">
<title>Node6_1&#45;&gt;Node6_2</title>
<path fill="none" stroke="black" d="M113,-133.27C113,-146.58 113,-162.19 113,-173.82"/>
<polygon fill="black" stroke="black" points="116.5,-133.2 113,-123.2 109.5,-133.2 116.5,-133.2"/>
<text text-anchor="middle" x="149" y="-144.8" font-family="Times,serif" font-size="14.00">समासः</text>
</g>
</g>
</svg>
