<svg xmlns="http://www.w3.org/2000/svg" xmlns:xlink="http://www.w3.org/1999/xlink" width="1111pt" height="428" viewBox="0 0 1111 321"><g id="graph0" class="graph" transform="scale(1 1) rotate(0) translate(4 317)"><title>G</title><polygon fill="#fffacd" stroke="transparent" points="-4 4 -4 -317 1107 -317 1107 4 -4 4"/><g id="clust1" class="cluster"><title>cluster_1</title><polygon fill="#fffacd" stroke="#000" points="8 -8 8 -147 218 -147 218 -8 8 -8"/></g><g id="clust2" class="cluster"><title>cluster_2</title><polygon fill="#fffacd" stroke="#000" points="400 -8 400 -147 592 -147 592 -8 400 -8"/></g><g id="clust3" class="cluster"><title>cluster_3</title><polygon fill="#fffacd" stroke="#000" points="226 -95 226 -234 392 -234 392 -95 226 -95"/></g><g id="node1" class="node"><title>Node1_1</title><ellipse cx="95" cy="-34" fill="#93db70" stroke="#93db70" rx="78.79" ry="18"/><text x="95" y="-30.3" font-family="Times,serif" font-size="14" text-anchor="middle">स्वम्(1.1)</text></g><g id="node2" class="node"><title>Node2_1</title><ellipse cx="113" cy="-121" fill="#93db70" stroke="#93db70" rx="96.68" ry="18"/><text x="113" y="-117.3" font-family="Times,serif" font-size="14" text-anchor="middle">राज्यम्(2.1)</text></g><g id="edge1" class="edge"><title>Node1_1-&gt;Node2_1</title><path fill="none" stroke="#000" d="M100.77,-62.27C103.59,-75.58 106.9,-91.19 109.36,-102.82"/><polygon fill="#000" stroke="#000" points="104.14 -61.26 98.64 -52.2 97.29 -62.71 104.14 -61.26"/><text x="163.5" y="-73.8" font-family="Times,serif" font-size="14" text-anchor="middle">विशेषणम्</text></g><g id="node7" class="node"><title>Node3_1</title><ellipse cx="117" cy="-208" fill="#f9f" stroke="#f9f" rx="96.68" ry="18"/><text x="117" y="-204.3" font-family="Times,serif" font-size="14" text-anchor="middle">प्राप्य(3.1)</text></g><g id="edge2" class="edge"><title>Node2_1-&gt;Node3_1</title><path fill="none" stroke="#000" d="M114.28,-149.27C114.91,-162.58 115.64,-178.19 116.19,-189.82"/><polygon fill="#000" stroke="#000" points="117.78 -149.03 113.81 -139.2 110.78 -149.35 117.78 -149.03"/><text x="145" y="-160.8" font-family="Times,serif" font-size="14" text-anchor="middle">कर्म</text></g><g id="node3" class="node"><title>Node5_1</title><ellipse cx="496" cy="-34" fill="#93db70" stroke="#93db70" rx="87.99" ry="18"/><text x="496" y="-30.3" font-family="Times,serif" font-size="14" text-anchor="middle">स्वान्(5.1)</text></g><g id="node4" class="node"><title>Node7_2</title><ellipse cx="505" cy="-121" fill="#93db70" stroke="#93db70" rx="78.79" ry="18"/><text x="505" y="-117.3" font-family="Times,serif" font-size="14" text-anchor="middle">कपीन्(7.2)</text></g><g id="edge5" class="edge"><title>Node5_1-&gt;Node7_2</title><path fill="none" stroke="#000" d="M498.89,-62.27C500.3,-75.58 501.95,-91.19 503.18,-102.82"/><polygon fill="#000" stroke="#000" points="502.35 -61.78 497.82 -52.2 495.39 -62.51 502.35 -61.78"/><text x="559.5" y="-73.8" font-family="Times,serif" font-size="14" text-anchor="middle">विशेषणम्</text></g><g id="node12" class="node"><title>Node8_1</title><ellipse cx="713" cy="-208" fill="#f9f" stroke="#f9f" rx="69.59" ry="18"/><text x="713" y="-204.3" font-family="Times,serif" font-size="14" text-anchor="middle">आनीय(8.1)</text></g><g id="edge9" class="edge"><title>Node7_2-&gt;Node8_1</title><path fill="none" stroke="#000" d="M551.04,-140.82C589.13,-156.38 642.46,-178.17 677.35,-192.43"/><polygon fill="#000" stroke="#000" points="552.29 -137.54 541.71 -137 549.64 -144.02 552.29 -137.54"/><text x="651" y="-160.8" font-family="Times,serif" font-size="14" text-anchor="middle">कर्म</text></g><g id="node5" class="node"><title>Node10_1</title><ellipse cx="291" cy="-121" fill="#93db70" stroke="#93db70" rx="56.59" ry="18"/><text x="291" y="-117.3" font-family="Times,serif" font-size="14" text-anchor="middle">दश(10.1)</text></g><g id="node6" class="node"><title>Node11_1</title><ellipse cx="309" cy="-208" fill="#93db70" stroke="#93db70" rx="75.29" ry="18"/><text x="309" y="-204.3" font-family="Times,serif" font-size="14" text-anchor="middle">दिशः(11.1)</text></g><g id="edge13" class="edge"><title>Node10_1-&gt;Node11_1</title><path fill="none" stroke="#000" d="M296.77,-149.27C299.59,-162.58 302.9,-178.19 305.36,-189.82"/><polygon fill="#000" stroke="#000" points="300.14 -148.26 294.64 -139.2 293.29 -149.71 300.14 -148.26"/><text x="359.5" y="-160.8" font-family="Times,serif" font-size="14" text-anchor="middle">विशेषणम्</text></g><g id="node8" class="node"><title>Node12_1</title><ellipse cx="459" cy="-295" fill="#ff1975" stroke="#ff1975" rx="130.78" ry="18"/><text x="459" y="-291.3" font-family="Times,serif" font-size="14" text-anchor="middle">प्रेषयामास(12.1)</text></g><g id="edge14" class="edge"><title>Node11_1-&gt;Node12_1</title><path fill="none" stroke="#000" d="M345.63,-229.76C371.5,-244.42 405.7,-263.8 429.75,-277.43"/><polygon fill="#000" stroke="#000" points="347.29 -226.67 336.86 -224.79 343.84 -232.76 347.29 -226.67"/><text x="422" y="-247.8" font-family="Times,serif" font-size="14" text-anchor="middle">कर्म</text></g><g id="edge3" class="edge"><title>Node3_1-&gt;Node12_1</title><path fill="none" stroke="#000" d="M160.24,-228.86C184.19,-239.17 214.76,-251.21 243,-259 281.36,-269.58 324.49,-277.37 362.07,-282.87"/><polygon fill="#000" stroke="#000" points="161.64 -225.65 151.07 -224.86 158.84 -232.07 161.64 -225.65"/><text x="307.5" y="-247.8" font-family="Times,serif" font-size="14" text-anchor="middle">पूर्वकालः</text></g><g id="node9" class="node"><title>Node4_1</title><ellipse cx="509" cy="-208" fill="#00bfff" stroke="#00bfff" rx="106.68" ry="18"/><text x="509" y="-204.3" font-family="Times,serif" font-size="14" text-anchor="middle">सुग्रीवः(4.1)</text></g><g id="edge4" class="edge"><title>Node4_1-&gt;Node12_1</title><path fill="none" stroke="#000" d="M493.66,-235.09C485.68,-248.65 476.15,-264.85 469.1,-276.82"/><polygon fill="#000" stroke="#000" points="496.83 -236.59 498.88 -226.2 490.79 -233.05 496.83 -236.59"/><text x="523" y="-247.8" font-family="Times,serif" font-size="14" text-anchor="middle">कर्ता</text></g><g id="node10" class="node"><title>Node6_1</title><ellipse cx="809" cy="-34" fill="#ff0" stroke="#ff0" rx="63.09" ry="18"/><text x="809" y="-30.3" font-family="Times,serif" font-size="14" text-anchor="middle">महा-(6.1)</text></g><g id="node11" class="node"><title>Node6_2</title><ellipse cx="752" cy="-121" fill="#93db70" stroke="#93db70" rx="78.79" ry="18"/><text x="752" y="-117.3" font-family="Times,serif" font-size="14" text-anchor="middle">बलान्(6.2)</text></g><g id="edge6" class="edge"><title>Node6_1-&gt;Node6_2</title><path fill="none" stroke="#000" d="M799.48,-61.56C796.1,-69.43 791.89,-77.85 787,-85 782.54,-91.53 776.76,-97.88 771.19,-103.35"/><polygon fill="#000" stroke="#000" points="802.83 -62.6 803.32 -52.02 796.34 -59.99 802.83 -62.6"/><text x="867.5" y="-73.8" font-family="Times,serif" font-size="14" text-anchor="middle">बहुव्रीहिः</text></g><g id="edge7" class="edge"><title>Node6_2-&gt;Node8_1</title><path fill="none" stroke="#000" d="M723.9,-146.04C721.19,-149.46 718.78,-153.14 717,-157 712.33,-167.12 711.33,-179.62 711.5,-189.59"/><polygon fill="#000" stroke="#000" points="726.55 -148.33 730.66 -138.57 721.36 -143.64 726.55 -148.33"/><text x="831.5" y="-160.8" font-family="Times,serif" font-size="14" text-anchor="middle">कर्मसमानाधिकरणम्</text></g><g id="edge10" class="edge"><title>Node8_1-&gt;Node12_1</title><path fill="none" stroke="#000" d="M662.53,-225.89C617.03,-241.11 550.64,-263.33 506.19,-278.21"/><polygon fill="#000" stroke="#000" points="663.82 -229.15 672.19 -222.66 661.6 -222.51 663.82 -229.15"/><text x="666.5" y="-247.8" font-family="Times,serif" font-size="14" text-anchor="middle">पूर्वकालः</text></g><g id="node13" class="node"><title>Node7_1</title><ellipse cx="665" cy="-34" fill="#ff0" stroke="#ff0" rx="63.09" ry="18"/><text x="665" y="-30.3" font-family="Times,serif" font-size="14" text-anchor="middle">महा-(7.1)</text></g><g id="edge8" class="edge"><title>Node7_1-&gt;Node7_2</title><path fill="none" stroke="#000" d="M647.61,-60.04C640.3,-69.01 631.13,-78.49 621,-85 603.83,-96.03 583.02,-103.73 563.79,-109.03"/><polygon fill="#000" stroke="#000" points="650.44 -62.11 653.78 -52.06 644.9 -57.83 650.44 -62.11"/><text x="709.5" y="-73.8" font-family="Times,serif" font-size="14" text-anchor="middle">बहुव्रीहिः</text></g><g id="node14" class="node"><title>Node9_1</title><ellipse cx="975" cy="-34" fill="#ff0" stroke="#ff0" rx="81.49" ry="18"/><text x="975" y="-30.3" font-family="Times,serif" font-size="14" text-anchor="middle">त्वत्-(9.1)</text></g><g id="node15" class="node"><title>Node9_2</title><ellipse cx="973" cy="-121" fill="#93db70" stroke="#93db70" rx="87.99" ry="18"/><text x="973" y="-117.3" font-family="Times,serif" font-size="14" text-anchor="middle">अर्थम्(9.2)</text></g><g id="edge11" class="edge"><title>Node9_1-&gt;Node9_2</title><path fill="none" stroke="#000" d="M974.36,-62.27C974.05,-75.58 973.68,-91.19 973.4,-102.82"/><polygon fill="#000" stroke="#000" points="977.86 -62.28 974.6 -52.2 970.86 -62.12 977.86 -62.28"/><text x="1038.5" y="-73.8" font-family="Times,serif" font-size="14" text-anchor="middle">कर्मधारयः</text></g><g id="edge12" class="edge"><title>Node9_2-&gt;Node8_1</title><path fill="none" stroke="#000" d="M964.3,-148.4C960.12,-157.22 954.18,-166.25 946,-172 919.98,-190.28 839.6,-199.27 780.5,-203.51"/><polygon fill="#000" stroke="#000" points="967.57 -149.67 968.18 -139.09 961.11 -146.98 967.57 -149.67"/><text x="1023.5" y="-160.8" font-family="Times,serif" font-size="14" text-anchor="middle">प्रयोजनम्</text></g></g></svg>