<?xml version="1.0" encoding="UTF-8" standalone="no"?>
<!DOCTYPE svg PUBLIC "-//W3C//DTD SVG 1.1//EN"
 "http://www.w3.org/Graphics/SVG/1.1/DTD/svg11.dtd">
<!-- Generated by graphviz version 2.43.0 (0)
 -->
<!-- Title: G Pages: 1 -->
<svg width="906pt" height="392pt"
 viewBox="0.00 0.00 905.84 392.00" xmlns="http://www.w3.org/2000/svg" xmlns:xlink="http://www.w3.org/1999/xlink">
<g id="graph0" class="graph" transform="scale(1 1) rotate(0) translate(4 388)">
<title>G</title>
<polygon fill="#fffacd" stroke="transparent" points="-4,4 -4,-388 901.84,-388 901.84,4 -4,4"/>
<!-- Node1_1 -->
<g id="node1" class="node">
<title>Node1_1</title>
<ellipse fill="#00bfff" stroke="#00bfff" cx="405.84" cy="-279" rx="57.69" ry="18"/>
<text text-anchor="middle" x="405.84" y="-275.3" font-family="Times,serif" font-size="14.00">[सः](1.1)</text>
</g>
<!-- Node11_1 -->
<g id="node2" class="node">
<title>Node11_1</title>
<ellipse fill="#ff1975" stroke="#ff1975" cx="405.84" cy="-366" rx="90.98" ry="18"/>
<text text-anchor="middle" x="405.84" y="-362.3" font-family="Times,serif" font-size="14.00">[अस्ति](11.1)</text>
</g>
<!-- Node1_1&#45;&gt;Node11_1 -->
<g id="edge1" class="edge">
<title>Node1_1&#45;&gt;Node11_1</title>
<path fill="none" stroke="black" d="M405.84,-307.27C405.84,-320.58 405.84,-336.19 405.84,-347.82"/>
<polygon fill="black" stroke="black" points="409.34,-307.2 405.84,-297.2 402.34,-307.2 409.34,-307.2"/>
<text text-anchor="middle" x="441.84" y="-318.8" font-family="Times,serif" font-size="14.00">कर्ता</text>
</g>
<!-- Node2_1 -->
<g id="node3" class="node">
<title>Node2_1</title>
<ellipse fill="#40e0d0" stroke="#40e0d0" cx="96.84" cy="-18" rx="78.79" ry="18"/>
<text text-anchor="middle" x="96.84" y="-14.3" font-family="Times,serif" font-size="14.00">तेजसा(2.1)</text>
</g>
<!-- Node4_1 -->
<g id="node4" class="node">
<title>Node4_1</title>
<ellipse fill="#00bfff" stroke="#00bfff" cx="96.84" cy="-105" rx="96.68" ry="18"/>
<text text-anchor="middle" x="96.84" y="-101.3" font-family="Times,serif" font-size="14.00">सङ्काशः(4.1)</text>
</g>
<!-- Node2_1&#45;&gt;Node4_1 -->
<g id="edge2" class="edge">
<title>Node2_1&#45;&gt;Node4_1</title>
<path fill="none" stroke="black" d="M96.84,-46.27C96.84,-59.58 96.84,-75.19 96.84,-86.82"/>
<polygon fill="black" stroke="black" points="100.34,-46.2 96.84,-36.2 93.34,-46.2 100.34,-46.2"/>
<text text-anchor="middle" x="184.84" y="-57.8" font-family="Times,serif" font-size="14.00">तुलना&#45;बिन्दुः</text>
</g>
<!-- Node3_1 -->
<g id="node5" class="node">
<title>Node3_1</title>
<ellipse fill="#6fffc3" stroke="#6fffc3" cx="98.84" cy="-192" rx="87.99" ry="18"/>
<text text-anchor="middle" x="98.84" y="-188.3" font-family="Times,serif" font-size="14.00">आदित्य(3.1)</text>
</g>
<!-- Node4_1&#45;&gt;Node3_1 -->
<g id="edge4" class="edge">
<title>Node4_1&#45;&gt;Node3_1</title>
<path fill="none" stroke="black" d="M97.48,-133.27C97.8,-146.58 98.16,-162.19 98.44,-173.82"/>
<polygon fill="black" stroke="black" points="100.98,-133.12 97.25,-123.2 93.98,-133.28 100.98,-133.12"/>
<text text-anchor="middle" x="187.84" y="-144.8" font-family="Times,serif" font-size="14.00">उपमान_द्योतकः</text>
</g>
<!-- Node3_1&#45;&gt;Node1_1 -->
<g id="edge3" class="edge">
<title>Node3_1&#45;&gt;Node1_1</title>
<path fill="none" stroke="black" d="M147.25,-211.8C174.48,-221.93 209.24,-234.13 240.84,-243 279.32,-253.81 323.68,-263.04 356.7,-269.31"/>
<polygon fill="black" stroke="black" points="148.18,-208.41 137.58,-208.17 145.72,-214.96 148.18,-208.41"/>
<text text-anchor="middle" x="290.84" y="-231.8" font-family="Times,serif" font-size="14.00">उपमानम्</text>
</g>
<!-- Node5_1 -->
<g id="node6" class="node">
<title>Node5_1</title>
<ellipse fill="#40e0d0" stroke="#40e0d0" cx="297.84" cy="-18" rx="87.99" ry="18"/>
<text text-anchor="middle" x="297.84" y="-14.3" font-family="Times,serif" font-size="14.00">क्षमया(5.1)</text>
</g>
<!-- Node6_2 -->
<g id="node7" class="node">
<title>Node6_2</title>
<ellipse fill="#00bfff" stroke="#00bfff" cx="297.84" cy="-105" rx="59.59" ry="18"/>
<text text-anchor="middle" x="297.84" y="-101.3" font-family="Times,serif" font-size="14.00">समः(6.2)</text>
</g>
<!-- Node5_1&#45;&gt;Node6_2 -->
<g id="edge5" class="edge">
<title>Node5_1&#45;&gt;Node6_2</title>
<path fill="none" stroke="black" d="M297.84,-46.27C297.84,-59.58 297.84,-75.19 297.84,-86.82"/>
<polygon fill="black" stroke="black" points="301.34,-46.2 297.84,-36.2 294.34,-46.2 301.34,-46.2"/>
<text text-anchor="middle" x="385.84" y="-57.8" font-family="Times,serif" font-size="14.00">तुलना&#45;बिन्दुः</text>
</g>
<!-- Node6_1 -->
<g id="node8" class="node">
<title>Node6_1</title>
<ellipse fill="#ffff00" stroke="#ffff00" cx="296.84" cy="-192" rx="90.98" ry="18"/>
<text text-anchor="middle" x="296.84" y="-188.3" font-family="Times,serif" font-size="14.00">पृथिवी&#45;(6.1)</text>
</g>
<!-- Node6_2&#45;&gt;Node6_1 -->
<g id="edge7" class="edge">
<title>Node6_2&#45;&gt;Node6_1</title>
<path fill="none" stroke="black" d="M297.52,-133.27C297.36,-146.58 297.18,-162.19 297.04,-173.82"/>
<polygon fill="black" stroke="black" points="301.02,-133.24 297.64,-123.2 294.02,-133.16 301.02,-133.24"/>
<text text-anchor="middle" x="386.84" y="-144.8" font-family="Times,serif" font-size="14.00">उपमान_द्योतकः</text>
</g>
<!-- Node6_1&#45;&gt;Node1_1 -->
<g id="edge6" class="edge">
<title>Node6_1&#45;&gt;Node1_1</title>
<path fill="none" stroke="black" d="M326.06,-215.78C344.78,-230.39 368.63,-248.98 385.36,-262.03"/>
<polygon fill="black" stroke="black" points="328.15,-212.98 318.12,-209.59 323.85,-218.5 328.15,-212.98"/>
<text text-anchor="middle" x="408.84" y="-231.8" font-family="Times,serif" font-size="14.00">उपमानम्</text>
</g>
<!-- Node7_1 -->
<g id="node9" class="node">
<title>Node7_1</title>
<ellipse fill="#ffff00" stroke="#ffff00" cx="514.84" cy="-192" rx="109.38" ry="18"/>
<text text-anchor="middle" x="514.84" y="-188.3" font-family="Times,serif" font-size="14.00">बृहस्पति&#45;(7.1)</text>
</g>
<!-- Node7_1&#45;&gt;Node1_1 -->
<g id="edge8" class="edge">
<title>Node7_1&#45;&gt;Node1_1</title>
<path fill="none" stroke="black" d="M491.62,-217.4C482.96,-225.93 472.8,-235.3 462.84,-243 453.56,-250.17 442.73,-257.14 433.02,-262.94"/>
<polygon fill="black" stroke="black" points="494.24,-219.73 498.81,-210.18 489.28,-214.8 494.24,-219.73"/>
<text text-anchor="middle" x="529.84" y="-231.8" font-family="Times,serif" font-size="14.00">उपमानम्</text>
</g>
<!-- Node7_2 -->
<g id="node10" class="node">
<title>Node7_2</title>
<ellipse fill="#00bfff" stroke="#00bfff" cx="514.84" cy="-105" rx="59.59" ry="18"/>
<text text-anchor="middle" x="514.84" y="-101.3" font-family="Times,serif" font-size="14.00">समः(7.2)</text>
</g>
<!-- Node7_2&#45;&gt;Node7_1 -->
<g id="edge9" class="edge">
<title>Node7_2&#45;&gt;Node7_1</title>
<path fill="none" stroke="black" d="M514.84,-133.27C514.84,-146.58 514.84,-162.19 514.84,-173.82"/>
<polygon fill="black" stroke="black" points="518.34,-133.2 514.84,-123.2 511.34,-133.2 518.34,-133.2"/>
<text text-anchor="middle" x="603.84" y="-144.8" font-family="Times,serif" font-size="14.00">उपमान_द्योतकः</text>
</g>
<!-- Node8_1 -->
<g id="node11" class="node">
<title>Node8_1</title>
<ellipse fill="#40e0d0" stroke="#40e0d0" cx="514.84" cy="-18" rx="106.68" ry="18"/>
<text text-anchor="middle" x="514.84" y="-14.3" font-family="Times,serif" font-size="14.00">बुद्ध्या(8.1)</text>
</g>
<!-- Node8_1&#45;&gt;Node7_2 -->
<g id="edge10" class="edge">
<title>Node8_1&#45;&gt;Node7_2</title>
<path fill="none" stroke="black" d="M514.84,-46.27C514.84,-59.58 514.84,-75.19 514.84,-86.82"/>
<polygon fill="black" stroke="black" points="518.34,-46.2 514.84,-36.2 511.34,-46.2 518.34,-46.2"/>
<text text-anchor="middle" x="602.84" y="-57.8" font-family="Times,serif" font-size="14.00">तुलना&#45;बिन्दुः</text>
</g>
<!-- Node9_1 -->
<g id="node12" class="node">
<title>Node9_1</title>
<ellipse fill="#40e0d0" stroke="#40e0d0" cx="719.84" cy="-18" rx="69.59" ry="18"/>
<text text-anchor="middle" x="719.84" y="-14.3" font-family="Times,serif" font-size="14.00">यशसा(9.1)</text>
</g>
<!-- Node10_2 -->
<g id="node13" class="node">
<title>Node10_2</title>
<ellipse fill="#00bfff" stroke="#00bfff" cx="719.84" cy="-105" rx="75.29" ry="18"/>
<text text-anchor="middle" x="719.84" y="-101.3" font-family="Times,serif" font-size="14.00">उपमः(10.2)</text>
</g>
<!-- Node9_1&#45;&gt;Node10_2 -->
<g id="edge11" class="edge">
<title>Node9_1&#45;&gt;Node10_2</title>
<path fill="none" stroke="black" d="M719.84,-46.27C719.84,-59.58 719.84,-75.19 719.84,-86.82"/>
<polygon fill="black" stroke="black" points="723.34,-46.2 719.84,-36.2 716.34,-46.2 723.34,-46.2"/>
<text text-anchor="middle" x="807.84" y="-57.8" font-family="Times,serif" font-size="14.00">तुलना&#45;बिन्दुः</text>
</g>
<!-- Node10_1 -->
<g id="node14" class="node">
<title>Node10_1</title>
<ellipse fill="#ffff00" stroke="#ffff00" cx="719.84" cy="-192" rx="77.99" ry="18"/>
<text text-anchor="middle" x="719.84" y="-188.3" font-family="Times,serif" font-size="14.00">वासव&#45;(10.1)</text>
</g>
<!-- Node10_2&#45;&gt;Node10_1 -->
<g id="edge13" class="edge">
<title>Node10_2&#45;&gt;Node10_1</title>
<path fill="none" stroke="black" d="M719.84,-133.27C719.84,-146.58 719.84,-162.19 719.84,-173.82"/>
<polygon fill="black" stroke="black" points="723.34,-133.2 719.84,-123.2 716.34,-133.2 723.34,-133.2"/>
<text text-anchor="middle" x="808.84" y="-144.8" font-family="Times,serif" font-size="14.00">उपमान_द्योतकः</text>
</g>
<!-- Node10_1&#45;&gt;Node1_1 -->
<g id="edge12" class="edge">
<title>Node10_1&#45;&gt;Node1_1</title>
<path fill="none" stroke="black" d="M674.08,-211.88C647.97,-222.13 614.45,-234.42 583.84,-243 541.54,-254.86 492.48,-264.18 456.6,-270.22"/>
<polygon fill="black" stroke="black" points="675.7,-215.01 683.7,-208.07 673.12,-208.5 675.7,-215.01"/>
<text text-anchor="middle" x="678.84" y="-231.8" font-family="Times,serif" font-size="14.00">उपमानम्</text>
</g>
</g>
</svg>
