<?xml version="1.0" encoding="UTF-8" standalone="no"?>
<!DOCTYPE svg PUBLIC "-//W3C//DTD SVG 1.1//EN"
 "http://www.w3.org/Graphics/SVG/1.1/DTD/svg11.dtd">
<!-- Generated by graphviz version 2.43.0 (0)
 -->
<!-- Title: G Pages: 1 -->
<svg width="1266pt" height="305pt"
 viewBox="0.00 0.00 1266.00 305.00" xmlns="http://www.w3.org/2000/svg" xmlns:xlink="http://www.w3.org/1999/xlink">
<g id="graph0" class="graph" transform="scale(1 1) rotate(0) translate(4 301)">
<title>G</title>
<polygon fill="#fffacd" stroke="transparent" points="-4,4 -4,-301 1262,-301 1262,4 -4,4"/>
<g id="clust1" class="cluster">
<title>cluster_1</title>
<polygon fill="#fffacd" stroke="black" points="8,-79 8,-218 182,-218 182,-79 8,-79"/>
</g>
<g id="clust2" class="cluster">
<title>cluster_2</title>
<polygon fill="#fffacd" stroke="black" points="387,-79 387,-218 736,-218 736,-79 387,-79"/>
</g>
<!-- Node1_1 -->
<g id="node1" class="node">
<title>Node1_1</title>
<ellipse fill="#00bfff" stroke="#00bfff" cx="67" cy="-105" rx="50.89" ry="18"/>
<text text-anchor="middle" x="67" y="-101.3" font-family="Times,serif" font-size="14.00">सः(1.1)</text>
</g>
<!-- Node5_1 -->
<g id="node2" class="node">
<title>Node5_1</title>
<ellipse fill="#00bfff" stroke="#00bfff" cx="95" cy="-192" rx="78.79" ry="18"/>
<text text-anchor="middle" x="95" y="-188.3" font-family="Times,serif" font-size="14.00">राघवः(5.1)</text>
</g>
<!-- Node1_1&#45;&gt;Node5_1 -->
<g id="edge1" class="edge">
<title>Node1_1&#45;&gt;Node5_1</title>
<path fill="none" stroke="black" d="M60.51,-133.11C59.83,-140.72 60.23,-148.86 63,-156 65.62,-162.75 70.22,-169 75.13,-174.29"/>
<polygon fill="black" stroke="black" points="63.97,-133.61 61.97,-123.21 57.05,-132.59 63.97,-133.61"/>
<text text-anchor="middle" x="120.5" y="-144.8" font-family="Times,serif" font-size="14.00">विशेषणम्</text>
</g>
<!-- Node6_1 -->
<g id="node8" class="node">
<title>Node6_1</title>
<ellipse fill="#ff1975" stroke="#ff1975" cx="557" cy="-279" rx="115.88" ry="18"/>
<text text-anchor="middle" x="557" y="-275.3" font-family="Times,serif" font-size="14.00">परितप्यते(6.1)</text>
</g>
<!-- Node5_1&#45;&gt;Node6_1 -->
<g id="edge5" class="edge">
<title>Node5_1&#45;&gt;Node6_1</title>
<path fill="none" stroke="black" d="M142.48,-211.41C172.11,-222.2 211.28,-235.2 247,-243 314.33,-257.71 391.32,-266.45 451.73,-271.51"/>
<polygon fill="black" stroke="black" points="143.41,-208.02 132.82,-207.85 140.99,-214.59 143.41,-208.02"/>
<text text-anchor="middle" x="276" y="-231.8" font-family="Times,serif" font-size="14.00">कर्म</text>
</g>
<!-- Node7_1 -->
<g id="node3" class="node">
<title>Node7_1</title>
<ellipse fill="#40e0d0" stroke="#40e0d0" cx="658" cy="-105" rx="69.59" ry="18"/>
<text text-anchor="middle" x="658" y="-101.3" font-family="Times,serif" font-size="14.00">महता(7.1)</text>
</g>
<!-- Node10_1 -->
<g id="node4" class="node">
<title>Node10_1</title>
<ellipse fill="#40e0d0" stroke="#40e0d0" cx="557" cy="-192" rx="102.88" ry="18"/>
<text text-anchor="middle" x="557" y="-188.3" font-family="Times,serif" font-size="14.00">अग्निना(10.1)</text>
</g>
<!-- Node7_1&#45;&gt;Node10_1 -->
<g id="edge6" class="edge">
<title>Node7_1&#45;&gt;Node10_1</title>
<path fill="none" stroke="black" d="M630.63,-129.03C613.74,-143.25 592.44,-161.17 577.11,-174.08"/>
<polygon fill="black" stroke="black" points="633.13,-131.51 638.53,-122.39 628.62,-126.15 633.13,-131.51"/>
<text text-anchor="middle" x="670.5" y="-144.8" font-family="Times,serif" font-size="14.00">विशेषणम्</text>
</g>
<!-- Node10_1&#45;&gt;Node6_1 -->
<g id="edge9" class="edge">
<title>Node10_1&#45;&gt;Node6_1</title>
<path fill="none" stroke="black" d="M557,-220.27C557,-233.58 557,-249.19 557,-260.82"/>
<polygon fill="black" stroke="black" points="560.5,-220.2 557,-210.2 553.5,-220.2 560.5,-220.2"/>
<text text-anchor="middle" x="593" y="-231.8" font-family="Times,serif" font-size="14.00">कर्ता</text>
</g>
<!-- Node8_1 -->
<g id="node5" class="node">
<title>Node8_1</title>
<ellipse fill="#40e0d0" stroke="#40e0d0" cx="483" cy="-105" rx="87.99" ry="18"/>
<text text-anchor="middle" x="483" y="-101.3" font-family="Times,serif" font-size="14.00">ज्वलता(8.1)</text>
</g>
<!-- Node8_1&#45;&gt;Node10_1 -->
<g id="edge7" class="edge">
<title>Node8_1&#45;&gt;Node10_1</title>
<path fill="none" stroke="black" d="M472.65,-132.76C471.22,-140.76 471.53,-149.2 476,-156 481.97,-165.09 490.86,-171.83 500.59,-176.82"/>
<polygon fill="black" stroke="black" points="476.05,-133.58 475.19,-123.02 469.28,-131.81 476.05,-133.58"/>
<text text-anchor="middle" x="533.5" y="-144.8" font-family="Times,serif" font-size="14.00">विशेषणम्</text>
</g>
<!-- Node2_1 -->
<g id="node6" class="node">
<title>Node2_1</title>
<ellipse fill="#87ceeb" stroke="#87ceeb" cx="1072" cy="-105" rx="50.89" ry="18"/>
<text text-anchor="middle" x="1072" y="-101.3" font-family="Times,serif" font-size="14.00">तव(2.1)</text>
</g>
<!-- Node3_1 -->
<g id="node7" class="node">
<title>Node3_1</title>
<ellipse fill="#b4ffb4" stroke="#b4ffb4" cx="1072" cy="-192" rx="115.88" ry="18"/>
<text text-anchor="middle" x="1072" y="-188.3" font-family="Times,serif" font-size="14.00">अदर्शनात्(3.1)</text>
</g>
<!-- Node2_1&#45;&gt;Node3_1 -->
<g id="edge2" class="edge">
<title>Node2_1&#45;&gt;Node3_1</title>
<path fill="none" stroke="black" d="M1072,-133.27C1072,-146.58 1072,-162.19 1072,-173.82"/>
<polygon fill="black" stroke="black" points="1075.5,-133.2 1072,-123.2 1068.5,-133.2 1075.5,-133.2"/>
<text text-anchor="middle" x="1165" y="-144.8" font-family="Times,serif" font-size="14.00">षष्ठीसम्बन्धः</text>
</g>
<!-- Node3_1&#45;&gt;Node6_1 -->
<g id="edge3" class="edge">
<title>Node3_1&#45;&gt;Node6_1</title>
<path fill="none" stroke="black" d="M1022.12,-212.51C992.82,-223.19 954.81,-235.69 920,-243 836.51,-260.53 740.34,-269.3 667.97,-273.68"/>
<polygon fill="black" stroke="black" points="1023.54,-215.72 1031.7,-208.97 1021.11,-209.15 1023.54,-215.72"/>
<text text-anchor="middle" x="1011" y="-231.8" font-family="Times,serif" font-size="14.00">हेतुः</text>
</g>
<!-- Node4_1 -->
<g id="node9" class="node">
<title>Node4_1</title>
<ellipse fill="#c6e2eb" stroke="#c6e2eb" cx="1072" cy="-18" rx="78.79" ry="18"/>
<text text-anchor="middle" x="1072" y="-14.3" font-family="Times,serif" font-size="14.00">आर्ये(4.1)</text>
</g>
<!-- Node4_1&#45;&gt;Node2_1 -->
<g id="edge4" class="edge">
<title>Node4_1&#45;&gt;Node2_1</title>
<path fill="none" stroke="black" d="M1072,-46.27C1072,-59.58 1072,-75.19 1072,-86.82"/>
<polygon fill="black" stroke="black" points="1075.5,-46.2 1072,-36.2 1068.5,-46.2 1075.5,-46.2"/>
<text text-anchor="middle" x="1136.5" y="-57.8" font-family="Times,serif" font-size="14.00">सम्बोध्यः</text>
</g>
<!-- Node9_1 -->
<g id="node10" class="node">
<title>Node9_1</title>
<ellipse fill="#93db70" stroke="#93db70" cx="841" cy="-192" rx="96.68" ry="18"/>
<text text-anchor="middle" x="841" y="-188.3" font-family="Times,serif" font-size="14.00">नित्यम्(9.1)</text>
</g>
<!-- Node9_1&#45;&gt;Node6_1 -->
<g id="edge8" class="edge">
<title>Node9_1&#45;&gt;Node6_1</title>
<path fill="none" stroke="black" d="M782.54,-210.5C731.15,-225.88 657.1,-248.04 608.06,-262.72"/>
<polygon fill="black" stroke="black" points="783.6,-213.83 792.18,-207.61 781.59,-207.13 783.6,-213.83"/>
<text text-anchor="middle" x="816" y="-231.8" font-family="Times,serif" font-size="14.00">क्रियाविशेषणम्</text>
</g>
<!-- Node11_1 -->
<g id="node11" class="node">
<title>Node11_1</title>
<ellipse fill="#ff99ff" stroke="#ff99ff" cx="184" cy="-18" rx="56.59" ry="18"/>
<text text-anchor="middle" x="184" y="-14.3" font-family="Times,serif" font-size="14.00">इव(11.1)</text>
</g>
<!-- Node12_2 -->
<g id="node12" class="node">
<title>Node12_2</title>
<ellipse fill="#00bfff" stroke="#00bfff" cx="284" cy="-105" rx="93.68" ry="18"/>
<text text-anchor="middle" x="284" y="-101.3" font-family="Times,serif" font-size="14.00">पर्वतः(12.2)</text>
</g>
<!-- Node11_1&#45;&gt;Node12_2 -->
<g id="edge10" class="edge">
<title>Node11_1&#45;&gt;Node12_2</title>
<path fill="none" stroke="black" d="M178.95,-46.35C178.89,-54.29 180.33,-62.54 185,-69 192.79,-79.79 204.19,-87.27 216.5,-92.45"/>
<polygon fill="black" stroke="black" points="182.44,-46.54 179.75,-36.29 175.47,-45.98 182.44,-46.54"/>
<text text-anchor="middle" x="274" y="-57.8" font-family="Times,serif" font-size="14.00">उपमान_द्योतकः</text>
</g>
<!-- Node12_2&#45;&gt;Node5_1 -->
<g id="edge12" class="edge">
<title>Node12_2&#45;&gt;Node5_1</title>
<path fill="none" stroke="black" d="M237.45,-125.79C226.71,-130.59 215.39,-135.83 205,-141 192.71,-147.12 190.34,-149.99 178,-156 163.38,-163.12 146.94,-170.23 132.57,-176.17"/>
<polygon fill="black" stroke="black" points="238.97,-128.94 246.7,-121.7 236.14,-122.54 238.97,-128.94"/>
<text text-anchor="middle" x="255" y="-144.8" font-family="Times,serif" font-size="14.00">उपमानम्</text>
</g>
<!-- Node12_2&#45;&gt;Node6_1 -->
<g id="edge13" class="edge">
<title>Node12_2&#45;&gt;Node6_1</title>
<path fill="none" stroke="black" stroke-dasharray="1,5" d="M300.56,-131.75C302.19,-134.81 303.71,-137.93 305,-141 318.68,-173.6 299.99,-193.01 325,-218 346.38,-239.35 418.18,-255.79 476.31,-266.02"/>
<polygon fill="black" stroke="black" points="303.51,-129.86 295.49,-122.93 297.44,-133.34 303.51,-129.86"/>
<text text-anchor="middle" x="354" y="-188.3" font-family="Times,serif" font-size="14.00">कर्म</text>
</g>
<!-- Node12_1 -->
<g id="node13" class="node">
<title>Node12_1</title>
<ellipse fill="#ffff00" stroke="#ffff00" cx="385" cy="-18" rx="87.18" ry="18"/>
<text text-anchor="middle" x="385" y="-14.3" font-family="Times,serif" font-size="14.00">अग्नि&#45;(12.1)</text>
</g>
<!-- Node12_1&#45;&gt;Node12_2 -->
<g id="edge11" class="edge">
<title>Node12_1&#45;&gt;Node12_2</title>
<path fill="none" stroke="black" d="M377.53,-45.54C374.16,-53.86 369.45,-62.53 363,-69 354.42,-77.6 343.36,-84.27 332.25,-89.35"/>
<polygon fill="black" stroke="black" points="380.83,-46.71 380.89,-36.11 374.24,-44.36 380.83,-46.71"/>
<text text-anchor="middle" x="410" y="-57.8" font-family="Times,serif" font-size="14.00">समासः</text>
</g>
</g>
</svg>
