<?xml version="1.0" encoding="UTF-8" standalone="no"?>
<!DOCTYPE svg PUBLIC "-//W3C//DTD SVG 1.1//EN"
 "http://www.w3.org/Graphics/SVG/1.1/DTD/svg11.dtd">
<!-- Generated by graphviz version 2.43.0 (0)
 -->
<!-- Title: G Pages: 1 -->
<svg width="1095pt" height="479pt"
 viewBox="0.00 0.00 1094.74 479.00" xmlns="http://www.w3.org/2000/svg" xmlns:xlink="http://www.w3.org/1999/xlink">
<g id="graph0" class="graph" transform="scale(1 1) rotate(0) translate(4 475)">
<title>G</title>
<polygon fill="#fffacd" stroke="transparent" points="-4,4 -4,-475 1090.74,-475 1090.74,4 -4,4"/>
<g id="clust1" class="cluster">
<title>cluster_1</title>
<polygon fill="#fffacd" stroke="black" points="562.74,-166 562.74,-305 1078.74,-305 1078.74,-166 562.74,-166"/>
</g>
<g id="clust2" class="cluster">
<title>cluster_2</title>
<polygon fill="#fffacd" stroke="black" points="134.74,-166 134.74,-305 290.74,-305 290.74,-166 134.74,-166"/>
</g>
<!-- Node1_1 -->
<g id="node1" class="node">
<title>Node1_1</title>
<ellipse fill="#00bfff" stroke="#00bfff" cx="1019.74" cy="-192" rx="50.89" ry="18"/>
<text text-anchor="middle" x="1019.74" y="-188.3" font-family="Times,serif" font-size="14.00">सा(1.1)</text>
</g>
<!-- Node5_1 -->
<g id="node2" class="node">
<title>Node5_1</title>
<ellipse fill="#00bfff" stroke="#00bfff" cx="730.74" cy="-279" rx="78.79" ry="18"/>
<text text-anchor="middle" x="730.74" y="-275.3" font-family="Times,serif" font-size="14.00">लङ्का(5.1)</text>
</g>
<!-- Node1_1&#45;&gt;Node5_1 -->
<g id="edge1" class="edge">
<title>Node1_1&#45;&gt;Node5_1</title>
<path fill="none" stroke="black" d="M988.34,-213.36C971.08,-223.69 948.93,-235.58 927.74,-243 887.09,-257.24 839.6,-265.89 801.43,-271.03"/>
<polygon fill="black" stroke="black" points="990.18,-216.34 996.88,-208.14 986.53,-210.37 990.18,-216.34"/>
<text text-anchor="middle" x="1019.24" y="-231.8" font-family="Times,serif" font-size="14.00">विशेषणम्</text>
</g>
<!-- Node4_1 -->
<g id="node8" class="node">
<title>Node4_1</title>
<ellipse fill="#ff99ff" stroke="#ff99ff" cx="587.74" cy="-366" rx="106.68" ry="18"/>
<text text-anchor="middle" x="587.74" y="-362.3" font-family="Times,serif" font-size="14.00">दृष्ट्वा(4.1)</text>
</g>
<!-- Node5_1&#45;&gt;Node4_1 -->
<g id="edge6" class="edge">
<title>Node5_1&#45;&gt;Node4_1</title>
<path fill="none" stroke="black" d="M678.34,-298.07C666.91,-302.9 655.14,-308.58 644.74,-315 629.73,-324.27 614.82,-337.53 604.01,-348.07"/>
<polygon fill="black" stroke="black" points="679.87,-301.23 687.82,-294.22 677.24,-294.74 679.87,-301.23"/>
<text text-anchor="middle" x="680.74" y="-318.8" font-family="Times,serif" font-size="14.00">कर्ता</text>
</g>
<!-- Node9_1 -->
<g id="node9" class="node">
<title>Node9_1</title>
<ellipse fill="#00bfff" stroke="#00bfff" cx="387.74" cy="-453" rx="96.68" ry="18"/>
<text text-anchor="middle" x="387.74" y="-449.3" font-family="Times,serif" font-size="14.00">उत्थिता(9.1)</text>
</g>
<!-- Node5_1&#45;&gt;Node9_1 -->
<g id="edge7" class="edge">
<title>Node5_1&#45;&gt;Node9_1</title>
<path fill="none" stroke="black" stroke-dasharray="1,5" d="M732.87,-307.67C733.62,-339.15 729.44,-389.71 698.74,-417 682.5,-431.44 565.08,-441.5 479.29,-447.02"/>
<polygon fill="black" stroke="black" points="736.35,-307.25 732.43,-297.41 729.36,-307.54 736.35,-307.25"/>
<text text-anchor="middle" x="766.74" y="-362.3" font-family="Times,serif" font-size="14.00">कर्ता</text>
</g>
<!-- Node6_2 -->
<g id="node3" class="node">
<title>Node6_2</title>
<ellipse fill="#00bfff" stroke="#00bfff" cx="658.74" cy="-192" rx="87.99" ry="18"/>
<text text-anchor="middle" x="658.74" y="-188.3" font-family="Times,serif" font-size="14.00">पालिता(6.2)</text>
</g>
<!-- Node6_2&#45;&gt;Node5_1 -->
<g id="edge9" class="edge">
<title>Node6_2&#45;&gt;Node5_1</title>
<path fill="none" stroke="black" d="M662.45,-220.2C664.52,-228.13 667.73,-236.42 672.74,-243 678.8,-250.96 687.22,-257.49 695.78,-262.66"/>
<polygon fill="black" stroke="black" points="665.82,-219.23 660.34,-210.16 658.97,-220.67 665.82,-219.23"/>
<text text-anchor="middle" x="730.24" y="-231.8" font-family="Times,serif" font-size="14.00">विशेषणम्</text>
</g>
<!-- Node11_3 -->
<g id="node4" class="node">
<title>Node11_3</title>
<ellipse fill="#00bfff" stroke="#00bfff" cx="857.74" cy="-192" rx="93.68" ry="18"/>
<text text-anchor="middle" x="857.74" y="-188.3" font-family="Times,serif" font-size="14.00">दर्शना(11.3)</text>
</g>
<!-- Node11_3&#45;&gt;Node5_1 -->
<g id="edge15" class="edge">
<title>Node11_3&#45;&gt;Node5_1</title>
<path fill="none" stroke="black" d="M826.92,-215.72C814.83,-224.44 800.76,-234.37 787.74,-243 778.06,-249.42 767.25,-256.16 757.66,-262"/>
<polygon fill="black" stroke="black" points="829.29,-218.32 835.32,-209.62 825.17,-212.66 829.29,-218.32"/>
<text text-anchor="middle" x="866.24" y="-231.8" font-family="Times,serif" font-size="14.00">विशेषणम्</text>
</g>
<!-- Node2_1 -->
<g id="node5" class="node">
<title>Node2_1</title>
<ellipse fill="#93db70" stroke="#93db70" cx="202.74" cy="-192" rx="59.59" ry="18"/>
<text text-anchor="middle" x="202.74" y="-188.3" font-family="Times,serif" font-size="14.00">तम्(2.1)</text>
</g>
<!-- Node3_2 -->
<g id="node6" class="node">
<title>Node3_2</title>
<ellipse fill="#93db70" stroke="#93db70" cx="212.74" cy="-279" rx="69.59" ry="18"/>
<text text-anchor="middle" x="212.74" y="-275.3" font-family="Times,serif" font-size="14.00">वरम्(3.2)</text>
</g>
<!-- Node2_1&#45;&gt;Node3_2 -->
<g id="edge2" class="edge">
<title>Node2_1&#45;&gt;Node3_2</title>
<path fill="none" stroke="black" d="M196.19,-220.24C195.29,-227.67 195.15,-235.68 196.74,-243 198.08,-249.14 200.59,-255.49 203.23,-261.06"/>
<polygon fill="black" stroke="black" points="199.66,-220.7 197.86,-210.26 192.76,-219.55 199.66,-220.7"/>
<text text-anchor="middle" x="254.24" y="-231.8" font-family="Times,serif" font-size="14.00">विशेषणम्</text>
</g>
<!-- Node3_2&#45;&gt;Node4_1 -->
<g id="edge4" class="edge">
<title>Node3_2&#45;&gt;Node4_1</title>
<path fill="none" stroke="black" d="M273.27,-293.72C343,-309.53 456.91,-335.34 526.81,-351.19"/>
<polygon fill="black" stroke="black" points="273.84,-290.26 263.32,-291.46 272.3,-297.09 273.84,-290.26"/>
<text text-anchor="middle" x="451.74" y="-318.8" font-family="Times,serif" font-size="14.00">कर्म</text>
</g>
<!-- Node3_1 -->
<g id="node7" class="node">
<title>Node3_1</title>
<ellipse fill="#ffff00" stroke="#ffff00" cx="361.74" cy="-192" rx="63.09" ry="18"/>
<text text-anchor="middle" x="361.74" y="-188.3" font-family="Times,serif" font-size="14.00">हरि&#45;(3.1)</text>
</g>
<!-- Node3_1&#45;&gt;Node3_2 -->
<g id="edge3" class="edge">
<title>Node3_1&#45;&gt;Node3_2</title>
<path fill="none" stroke="black" d="M341.5,-217.44C333.05,-226.44 322.66,-236.11 311.74,-243 296.17,-252.82 277.47,-260.34 260.54,-265.85"/>
<polygon fill="black" stroke="black" points="344.3,-219.56 348.39,-209.79 339.1,-214.88 344.3,-219.56"/>
<text text-anchor="middle" x="441.24" y="-231.8" font-family="Times,serif" font-size="14.00">सप्तमी_तत्पुरुषः</text>
</g>
<!-- Node4_1&#45;&gt;Node9_1 -->
<g id="edge5" class="edge">
<title>Node4_1&#45;&gt;Node9_1</title>
<path fill="none" stroke="black" d="M572.9,-392.75C566.54,-401.68 558.35,-410.96 548.74,-417 526.46,-431.01 499.4,-439.47 473.88,-444.56"/>
<polygon fill="black" stroke="black" points="575.82,-394.68 578.42,-384.41 569.98,-390.81 575.82,-394.68"/>
<text text-anchor="middle" x="630.24" y="-405.8" font-family="Times,serif" font-size="14.00">पूर्वकालः</text>
</g>
<!-- Node6_1 -->
<g id="node10" class="node">
<title>Node6_1</title>
<ellipse fill="#ffff00" stroke="#ffff00" cx="635.74" cy="-105" rx="72.29" ry="18"/>
<text text-anchor="middle" x="635.74" y="-101.3" font-family="Times,serif" font-size="14.00">रावण&#45;(6.1)</text>
</g>
<!-- Node6_1&#45;&gt;Node6_2 -->
<g id="edge8" class="edge">
<title>Node6_1&#45;&gt;Node6_2</title>
<path fill="none" stroke="black" d="M637.37,-133.41C638.26,-140.84 639.63,-148.82 641.74,-156 643.53,-162.09 646.3,-168.43 649.09,-174.01"/>
<polygon fill="black" stroke="black" points="640.85,-133.03 636.41,-123.41 633.88,-133.7 640.85,-133.03"/>
<text text-anchor="middle" x="752.24" y="-144.8" font-family="Times,serif" font-size="14.00">तृतीया_तत्पुरुषः</text>
</g>
<!-- Node7_1 -->
<g id="node11" class="node">
<title>Node7_1</title>
<ellipse fill="#ff99ff" stroke="#ff99ff" cx="87.74" cy="-366" rx="87.99" ry="18"/>
<text text-anchor="middle" x="87.74" y="-362.3" font-family="Times,serif" font-size="14.00">स्वयम्(7.1)</text>
</g>
<!-- Node7_1&#45;&gt;Node9_1 -->
<g id="edge10" class="edge">
<title>Node7_1&#45;&gt;Node9_1</title>
<path fill="none" stroke="black" d="M107.17,-391.93C115.81,-401.29 126.75,-411.09 138.74,-417 166.45,-430.64 239.6,-439.9 299.49,-445.45"/>
<polygon fill="black" stroke="black" points="109.69,-389.49 100.48,-384.26 104.41,-394.09 109.69,-389.49"/>
<text text-anchor="middle" x="196.24" y="-405.8" font-family="Times,serif" font-size="14.00">सम्बन्धः</text>
</g>
<!-- Node8_1 -->
<g id="node12" class="node">
<title>Node8_1</title>
<ellipse fill="#ff99ff" stroke="#ff99ff" cx="243.74" cy="-366" rx="50.89" ry="18"/>
<text text-anchor="middle" x="243.74" y="-362.3" font-family="Times,serif" font-size="14.00">एव(8.1)</text>
</g>
<!-- Node8_1&#45;&gt;Node9_1 -->
<g id="edge11" class="edge">
<title>Node8_1&#45;&gt;Node9_1</title>
<path fill="none" stroke="black" d="M252.12,-393.44C255.98,-401.99 261.39,-410.85 268.74,-417 282.04,-428.12 298.74,-435.71 315.39,-440.89"/>
<polygon fill="black" stroke="black" points="255.35,-392.08 248.4,-384.08 248.84,-394.66 255.35,-392.08"/>
<text text-anchor="middle" x="326.24" y="-405.8" font-family="Times,serif" font-size="14.00">सम्बन्धः</text>
</g>
<!-- Node10_1 -->
<g id="node13" class="node">
<title>Node10_1</title>
<ellipse fill="#ff99ff" stroke="#ff99ff" cx="387.74" cy="-366" rx="75.29" ry="18"/>
<text text-anchor="middle" x="387.74" y="-362.3" font-family="Times,serif" font-size="14.00">तत्र(10.1)</text>
</g>
<!-- Node10_1&#45;&gt;Node9_1 -->
<g id="edge12" class="edge">
<title>Node10_1&#45;&gt;Node9_1</title>
<path fill="none" stroke="black" d="M387.74,-394.27C387.74,-407.58 387.74,-423.19 387.74,-434.82"/>
<polygon fill="black" stroke="black" points="391.24,-394.2 387.74,-384.2 384.24,-394.2 391.24,-394.2"/>
<text text-anchor="middle" x="466.24" y="-405.8" font-family="Times,serif" font-size="14.00">देशाधिकरणम्</text>
</g>
<!-- Node11_1 -->
<g id="node14" class="node">
<title>Node11_1</title>
<ellipse fill="#ffff00" stroke="#ffff00" cx="879.74" cy="-18" rx="87.18" ry="18"/>
<text text-anchor="middle" x="879.74" y="-14.3" font-family="Times,serif" font-size="14.00">विकृत&#45;(11.1)</text>
</g>
<!-- Node11_2 -->
<g id="node15" class="node">
<title>Node11_2</title>
<ellipse fill="#ffff00" stroke="#ffff00" cx="879.74" cy="-105" rx="68.79" ry="18"/>
<text text-anchor="middle" x="879.74" y="-101.3" font-family="Times,serif" font-size="14.00">आनन&#45;(11.2)</text>
</g>
<!-- Node11_1&#45;&gt;Node11_2 -->
<g id="edge13" class="edge">
<title>Node11_1&#45;&gt;Node11_2</title>
<path fill="none" stroke="black" d="M879.74,-46.27C879.74,-59.58 879.74,-75.19 879.74,-86.82"/>
<polygon fill="black" stroke="black" points="883.24,-46.2 879.74,-36.2 876.24,-46.2 883.24,-46.2"/>
<text text-anchor="middle" x="944.24" y="-57.8" font-family="Times,serif" font-size="14.00">कर्मधारयः</text>
</g>
<!-- Node11_2&#45;&gt;Node11_3 -->
<g id="edge14" class="edge">
<title>Node11_2&#45;&gt;Node11_3</title>
<path fill="none" stroke="black" d="M872.69,-133.27C869.24,-146.58 865.2,-162.19 862.19,-173.82"/>
<polygon fill="black" stroke="black" points="876.17,-133.76 875.29,-123.2 869.4,-132.01 876.17,-133.76"/>
<text text-anchor="middle" x="941.24" y="-144.8" font-family="Times,serif" font-size="14.00">बहुव्रीहिः</text>
</g>
</g>
</svg>
