<svg xmlns="http://www.w3.org/2000/svg" xmlns:xlink="http://www.w3.org/1999/xlink" width="1615pt" height="312" viewBox="0 0 1614.89 234"><g id="graph0" class="graph" transform="scale(1 1) rotate(0) translate(4 230)"><title>G</title><polygon fill="#fffacd" stroke="transparent" points="-4 4 -4 -230 1610.89 -230 1610.89 4 -4 4"/><g id="clust1" class="cluster"><title>cluster_1</title><polygon fill="#fffacd" stroke="#000" points="394.89 -8 394.89 -147 586.89 -147 586.89 -8 394.89 -8"/></g><g id="node1" class="node"><title>Node1_1</title><ellipse cx="472.89" cy="-34" fill="#93db70" stroke="#93db70" rx="69.59" ry="18"/><text x="472.89" y="-30.3" font-family="Times,serif" font-size="14" text-anchor="middle">इदम्(1.1)</text></g><g id="node2" class="node"><title>Node3_1</title><ellipse cx="490.89" cy="-121" fill="#93db70" stroke="#93db70" rx="87.99" ry="18"/><text x="490.89" y="-117.3" font-family="Times,serif" font-size="14" text-anchor="middle">तथ्यम्(3.1)</text></g><g id="edge1" class="edge"><title>Node1_1-&gt;Node3_1</title><path fill="none" stroke="#000" d="M478.66,-62.27C481.48,-75.58 484.79,-91.19 487.25,-102.82"/><polygon fill="#000" stroke="#000" points="482.03 -61.26 476.53 -52.2 475.18 -62.71 482.03 -61.26"/><text x="540.39" y="-73.8" font-family="Times,serif" font-size="14" text-anchor="middle">विशेषणम्</text></g><g id="node4" class="node"><title>Node4_1</title><ellipse cx="413.89" cy="-208" fill="#ff1975" stroke="#ff1975" rx="69.59" ry="18"/><text x="413.89" y="-204.3" font-family="Times,serif" font-size="14" text-anchor="middle">शृणु(4.1)</text></g><g id="edge3" class="edge"><title>Node3_1-&gt;Node4_1</title><path fill="none" stroke="#000" d="M480.27,-148.23C476.2,-156.38 471.04,-165.05 464.89,-172 458.34,-179.4 449.91,-186 441.8,-191.42"/><polygon fill="#000" stroke="#000" points="483.5 -149.57 484.52 -139.02 477.15 -146.63 483.5 -149.57"/><text x="502.89" y="-160.8" font-family="Times,serif" font-size="14" text-anchor="middle">कर्म</text></g><g id="node3" class="node"><title>Node2_1</title><ellipse cx="343.89" cy="-121" fill="#f9f" stroke="#f9f" rx="41.69" ry="18"/><text x="343.89" y="-117.3" font-family="Times,serif" font-size="14" text-anchor="middle">च(2.1)</text></g><g id="edge2" class="edge"><title>Node2_1-&gt;Node4_1</title><path fill="none" stroke="#000" d="M342.58,-149.12C343.35,-157.05 345.39,-165.35 349.89,-172 355.92,-180.92 365,-187.77 374.44,-192.95"/><polygon fill="#000" stroke="#000" points="346.07 -148.96 342.2 -139.1 339.08 -149.23 346.07 -148.96"/><text x="407.39" y="-160.8" font-family="Times,serif" font-size="14" text-anchor="middle">सम्बन्धः</text></g><g id="node5" class="node"><title>Node5_1</title><ellipse cx="254.89" cy="-34" fill="#87ceeb" stroke="#87ceeb" rx="50.89" ry="18"/><text x="254.89" y="-30.3" font-family="Times,serif" font-size="14" text-anchor="middle">मे(5.1)</text></g><g id="edge4" class="edge"><title>Node5_1-&gt;Node3_1</title><path fill="none" stroke="#000" d="M267.49,-60.84C273.13,-69.83 280.63,-79.13 289.89,-85 329.88,-110.35 348.24,-94.87 394.89,-103 405.23,-104.8 416.19,-106.73 426.86,-108.61"/><polygon fill="#000" stroke="#000" points="270.48 -59.02 262.47 -52.09 264.41 -62.5 270.48 -59.02"/><text x="382.89" y="-73.8" font-family="Times,serif" font-size="14" text-anchor="middle">षष्ठीसम्बन्धः</text></g><g id="node6" class="node"><title>Node6_1</title><ellipse cx="133.89" cy="-121" fill="#40e0d0" stroke="#40e0d0" rx="133.78" ry="18"/><text x="133.89" y="-117.3" font-family="Times,serif" font-size="14" text-anchor="middle">ब्रुवन्त्या(6.1)</text></g><g id="edge5" class="edge"><title>Node6_1-&gt;Node4_1</title><path fill="none" stroke="#000" d="M182.94,-141.94C208.09,-151.74 239.35,-163.29 267.89,-172 298.55,-181.36 333.45,-189.8 361.44,-196.05"/><polygon fill="#000" stroke="#000" points="184.2 -138.68 173.62 -138.28 181.64 -145.19 184.2 -138.68"/><text x="303.89" y="-160.8" font-family="Times,serif" font-size="14" text-anchor="middle">करणम्</text></g><g id="node7" class="node"><title>Node7_1</title><ellipse cx="116.89" cy="-34" fill="#f9f" stroke="#f9f" rx="50.89" ry="18"/><text x="116.89" y="-30.3" font-family="Times,serif" font-size="14" text-anchor="middle">वै(7.1)</text></g><g id="edge6" class="edge"><title>Node7_1-&gt;Node6_1</title><path fill="none" stroke="#000" d="M115.43,-62.58C115.59,-69.94 116.25,-77.83 117.89,-85 119.26,-90.99 121.71,-97.2 124.29,-102.69"/><polygon fill="#000" stroke="#000" points="118.94 -62.36 115.52 -52.33 111.94 -62.31 118.94 -62.36"/><text x="175.39" y="-73.8" font-family="Times,serif" font-size="14" text-anchor="middle">सम्बन्धः</text></g><g id="node8" class="node"><title>Node8_1</title><ellipse cx="674.89" cy="-34" fill="#ff0" stroke="#ff0" rx="63.09" ry="18"/><text x="674.89" y="-30.3" font-family="Times,serif" font-size="14" text-anchor="middle">हरि-(8.1)</text></g><g id="node9" class="node"><title>Node8_2</title><ellipse cx="674.89" cy="-121" fill="#6fffc3" stroke="#6fffc3" rx="78.79" ry="18"/><text x="674.89" y="-117.3" font-family="Times,serif" font-size="14" text-anchor="middle">ईश्वर(8.2)</text></g><g id="edge7" class="edge"><title>Node8_1-&gt;Node8_2</title><path fill="none" stroke="#000" d="M674.89,-62.27C674.89,-75.58 674.89,-91.19 674.89,-102.82"/><polygon fill="#000" stroke="#000" points="678.39 -62.2 674.89 -52.2 671.39 -62.2 678.39 -62.2"/><text x="778.39" y="-73.8" font-family="Times,serif" font-size="14" text-anchor="middle">षष्ठी_तत्पुरुषः</text></g><g id="edge8" class="edge"><title>Node8_2-&gt;Node4_1</title><path fill="none" stroke="#000" d="M626.71,-140.21C600.08,-150.06 566.32,-162.17 535.89,-172 511.04,-180.02 483.06,-188.12 460.16,-194.5"/><polygon fill="#000" stroke="#000" points="628.02 -143.46 636.18 -136.7 625.59 -136.9 628.02 -143.46"/><text x="613.89" y="-160.8" font-family="Times,serif" font-size="14" text-anchor="middle">कर्ता</text></g><g id="node10" class="node"><title>Node9_1</title><ellipse cx="904.89" cy="-34" fill="#f9f" stroke="#f9f" rx="87.99" ry="18"/><text x="904.89" y="-30.3" font-family="Times,serif" font-size="14" text-anchor="middle">स्वयम्(9.1)</text></g><g id="node11" class="node"><title>Node10_1</title><ellipse cx="904.89" cy="-121" fill="#40e0d0" stroke="#40e0d0" rx="130.78" ry="18"/><text x="904.89" y="-117.3" font-family="Times,serif" font-size="14" text-anchor="middle">स्वयम्भुवा(10.1)</text></g><g id="edge9" class="edge"><title>Node9_1-&gt;Node10_1</title><path fill="none" stroke="#000" d="M904.89,-62.27C904.89,-75.58 904.89,-91.19 904.89,-102.82"/><polygon fill="#000" stroke="#000" points="908.39 -62.2 904.89 -52.2 901.39 -62.2 908.39 -62.2"/><text x="962.39" y="-73.8" font-family="Times,serif" font-size="14" text-anchor="middle">सम्बन्धः</text></g><g id="node12" class="node"><title>Node11_1</title><ellipse cx="1248.89" cy="-208" fill="#00bfff" stroke="#00bfff" rx="93.68" ry="18"/><text x="1248.89" y="-204.3" font-family="Times,serif" font-size="14" text-anchor="middle">दत्तम्(11.1)</text></g><g id="edge10" class="edge"><title>Node10_1-&gt;Node11_1</title><path fill="none" stroke="#000" d="M975.32,-139.4C1040.02,-155.39 1134.59,-178.76 1193.89,-193.41"/><polygon fill="#000" stroke="#000" points="976.14 -136 965.6 -137 974.46 -142.8 976.14 -136"/><text x="1132.89" y="-160.8" font-family="Times,serif" font-size="14" text-anchor="middle">कर्ता</text></g><g id="node13" class="node"><title>Node12_1</title><ellipse cx="1155.89" cy="-121" fill="#00bfff" stroke="#00bfff" rx="102.88" ry="18"/><text x="1155.89" y="-117.3" font-family="Times,serif" font-size="14" text-anchor="middle">वरदानम्(12.1)</text></g><g id="edge11" class="edge"><title>Node12_1-&gt;Node11_1</title><path fill="none" stroke="#000" d="M1181.96,-145.83C1197.44,-159.97 1216.68,-177.56 1230.55,-190.24"/><polygon fill="#000" stroke="#000" points="1184 -142.96 1174.26 -138.79 1179.28 -148.12 1184 -142.96"/><text x="1236.89" y="-160.8" font-family="Times,serif" font-size="14" text-anchor="middle">कर्म</text></g><g id="node14" class="node"><title>Node13_1</title><ellipse cx="1341.89" cy="-121" fill="#f9f" stroke="#f9f" rx="65.79" ry="18"/><text x="1341.89" y="-117.3" font-family="Times,serif" font-size="14" text-anchor="middle">यथा(13.1)</text></g><g id="edge12" class="edge"><title>Node13_1-&gt;Node11_1</title><path fill="none" stroke="#000" d="M1316.26,-145.42C1300.78,-159.57 1281.4,-177.29 1267.4,-190.08"/><polygon fill="#000" stroke="#000" points="1318.94 -147.72 1323.96 -138.39 1314.21 -142.55 1318.94 -147.72"/><text x="1358.39" y="-160.8" font-family="Times,serif" font-size="14" text-anchor="middle">सम्बन्धः</text></g><g id="node15" class="node"><title>Node14_1</title><ellipse cx="1507.89" cy="-121" fill="#87ceeb" stroke="#87ceeb" rx="81.79" ry="18"/><text x="1507.89" y="-117.3" font-family="Times,serif" font-size="14" text-anchor="middle">मम(मे)(14.1)</text></g><g id="edge13" class="edge"><title>Node14_1-&gt;Node11_1</title><path fill="none" stroke="#000" d="M1475.37,-143.75C1459.27,-153.65 1439.18,-164.75 1419.89,-172 1389.25,-183.51 1354.03,-191.53 1323.54,-196.97"/><polygon fill="#000" stroke="#000" points="1477.27 -146.69 1483.87 -138.4 1473.54 -140.76 1477.27 -146.69"/><text x="1528.39" y="-160.8" font-family="Times,serif" font-size="14" text-anchor="middle">सम्प्रदानम्</text></g></g></svg>