<svg xmlns="http://www.w3.org/2000/svg" xmlns:xlink="http://www.w3.org/1999/xlink" width="1819pt" height="392pt" viewBox="0 0 1818.74 392"><g id="graph0" class="graph" transform="scale(1 1) rotate(0) translate(4 388)"><title>G</title><polygon fill="#fffacd" stroke="transparent" points="-4 4 -4 -388 1814.74 -388 1814.74 4 -4 4"/><g id="clust1" class="cluster"><title>cluster_1</title><polygon fill="#fffacd" stroke="#000" points="717 -166 717 -305 1226 -305 1226 -166 717 -166"/></g><g id="clust2" class="cluster"><title>cluster_2</title><polygon fill="#fffacd" stroke="#000" points="8 -166 8 -305 248 -305 248 -166 8 -166"/></g><g id="node1" class="node"><title>Node9_1</title><ellipse cx="1167" cy="-192" fill="#00bfff" stroke="#00bfff" rx="50.89" ry="18"/><text x="1167" y="-188.3" font-family="Times,serif" font-size="14" text-anchor="middle">सा(9.1)</text></g><g id="node2" class="node"><title>Node14_2</title><ellipse cx="817" cy="-279" fill="#00bfff" stroke="#00bfff" rx="65.79" ry="18"/><text x="817" y="-275.3" font-family="Times,serif" font-size="14" text-anchor="middle">चरी(14.2)</text></g><g id="edge9" class="edge"><title>Node9_1-&gt;Node14_2</title><path fill="none" stroke="#000" d="M1136.37,-214.04C1119.8,-224.4 1098.56,-236.13 1078,-243 1013.39,-264.6 935.58,-272.91 881.81,-276.09"/><polygon fill="#000" stroke="#000" points="1138.54 -216.8 1145.06 -208.45 1134.75 -210.91 1138.54 -216.8"/><text x="1169.5" y="-231.8" font-family="Times,serif" font-size="14" text-anchor="middle">विशेषणम्</text></g><g id="node17" class="node"><title>Node15_1</title><ellipse cx="465" cy="-366" fill="#ff1975" stroke="#ff1975" rx="75.29" ry="18"/><text x="465" y="-362.3" font-family="Times,serif" font-size="14" text-anchor="middle">पपात(15.1)</text></g><g id="edge16" class="edge"><title>Node14_2-&gt;Node15_1</title><path fill="none" stroke="#000" d="M797.37,-304.38C788.27,-313.97 776.66,-324.09 764,-330 725.22,-348.09 613.71,-357.36 538.39,-361.69"/><polygon fill="#000" stroke="#000" points="800.02 -306.66 804.1 -296.88 794.81 -301.98 800.02 -306.66"/><text x="822" y="-318.8" font-family="Times,serif" font-size="14" text-anchor="middle">कर्ता</text></g><g id="node3" class="node"><title>Node13_2</title><ellipse cx="809" cy="-192" fill="#00bfff" stroke="#00bfff" rx="84.49" ry="18"/><text x="809" y="-188.3" font-family="Times,serif" font-size="14" text-anchor="middle">अङ्गी(13.2)</text></g><g id="edge14" class="edge"><title>Node13_2-&gt;Node14_2</title><path fill="none" stroke="#000" d="M811.57,-220.27C812.82,-233.58 814.29,-249.19 815.38,-260.82"/><polygon fill="#000" stroke="#000" points="815.04 -219.83 810.62 -210.2 808.07 -220.49 815.04 -219.83"/><text x="871.5" y="-231.8" font-family="Times,serif" font-size="14" text-anchor="middle">विशेषणम्</text></g><g id="node4" class="node"><title>Node18_3</title><ellipse cx="1005" cy="-192" fill="#00bfff" stroke="#00bfff" rx="93.68" ry="18"/><text x="1005" y="-188.3" font-family="Times,serif" font-size="14" text-anchor="middle">दर्शना(18.3)</text></g><g id="edge21" class="edge"><title>Node18_3-&gt;Node14_2</title><path fill="none" stroke="#000" d="M976.34,-216.01C963.63,-225.37 948.14,-235.69 933,-243 911.88,-253.2 887.15,-261.16 865.97,-266.89"/><polygon fill="#000" stroke="#000" points="978.78 -218.54 984.66 -209.72 974.57 -212.96 978.78 -218.54"/><text x="1016.5" y="-231.8" font-family="Times,serif" font-size="14" text-anchor="middle">विशेषणम्</text></g><g id="node5" class="node"><title>Node11_1</title><ellipse cx="125" cy="-192" fill="#40e0d0" stroke="#40e0d0" rx="65.79" ry="18"/><text x="125" y="-188.3" font-family="Times,serif" font-size="14" text-anchor="middle">तेन(11.1)</text></g><g id="node6" class="node"><title>Node12_1</title><ellipse cx="128" cy="-279" fill="#40e0d0" stroke="#40e0d0" rx="112.38" ry="18"/><text x="128" y="-275.3" font-family="Times,serif" font-size="14" text-anchor="middle">प्रहारेण(12.1)</text></g><g id="edge11" class="edge"><title>Node11_1-&gt;Node12_1</title><path fill="none" stroke="#000" d="M125.96,-220.27C126.43,-233.58 126.98,-249.19 127.39,-260.82"/><polygon fill="#000" stroke="#000" points="129.46 -220.07 125.61 -210.2 122.46 -220.32 129.46 -220.07"/><text x="184.5" y="-231.8" font-family="Times,serif" font-size="14" text-anchor="middle">विशेषणम्</text></g><g id="edge12" class="edge"><title>Node12_1-&gt;Node15_1</title><path fill="none" stroke="#000" d="M173.12,-300.09C197.54,-310.29 228.48,-322.16 257,-330 303.61,-342.81 357.45,-351.72 398.68,-357.34"/><polygon fill="#000" stroke="#000" points="174.33 -296.8 163.76 -296.12 171.6 -303.24 174.33 -296.8"/><text x="293" y="-318.8" font-family="Times,serif" font-size="14" text-anchor="middle">करणम्</text></g><g id="node7" class="node"><title>Node1_1</title><ellipse cx="1668" cy="-18" fill="#00bfff" stroke="#00bfff" rx="87.99" ry="18"/><text x="1668" y="-14.3" font-family="Times,serif" font-size="14" text-anchor="middle">स्त्री(1.1)</text></g><g id="node8" class="node"><title>Node4_1</title><ellipse cx="1502" cy="-105" fill="#40e0d0" stroke="#40e0d0" rx="115.88" ry="18"/><text x="1502" y="-101.3" font-family="Times,serif" font-size="14" text-anchor="middle">मन्यमानेन(4.1)</text></g><g id="edge1" class="edge"><title>Node1_1-&gt;Node4_1</title><path fill="none" stroke="#000" d="M1649.4,-43.78C1641.51,-52.83 1631.68,-62.44 1621,-69 1605.77,-78.36 1587.91,-85.33 1570.72,-90.48"/><polygon fill="#000" stroke="#000" points="1652.11 -46 1655.8 -36.07 1646.72 -41.53 1652.11 -46"/><text x="1667" y="-57.8" font-family="Times,serif" font-size="14" text-anchor="middle">कर्म</text></g><g id="node11" class="node"><title>Node8_1</title><ellipse cx="1414" cy="-192" fill="#00bfff" stroke="#00bfff" rx="69.59" ry="18"/><text x="1414" y="-188.3" font-family="Times,serif" font-size="14" text-anchor="middle">कृतः(8.1)</text></g><g id="edge4" class="edge"><title>Node4_1-&gt;Node8_1</title><path fill="none" stroke="#000" d="M1487.94,-131.73C1482.66,-140.05 1476.19,-148.93 1469,-156 1461.5,-163.38 1452.18,-170.02 1443.37,-175.48"/><polygon fill="#000" stroke="#000" points="1491 -133.43 1493.16 -123.05 1485.01 -129.82 1491 -133.43"/><text x="1516" y="-144.8" font-family="Times,serif" font-size="14" text-anchor="middle">कर्ता</text></g><g id="node9" class="node"><title>Node2_1</title><ellipse cx="1364" cy="-18" fill="#f9f" stroke="#f9f" rx="41.69" ry="18"/><text x="1364" y="-14.3" font-family="Times,serif" font-size="14" text-anchor="middle">च(2.1)</text></g><g id="edge2" class="edge"><title>Node2_1-&gt;Node4_1</title><path fill="none" stroke="#000" d="M1369.26,-45.9C1372.09,-54.28 1376.41,-62.9 1383,-69 1394.14,-79.31 1408.17,-86.6 1422.65,-91.75"/><polygon fill="#000" stroke="#000" points="1372.56 -44.7 1366.5 -36 1365.82 -46.58 1372.56 -44.7"/><text x="1440.5" y="-57.8" font-family="Times,serif" font-size="14" text-anchor="middle">सम्बन्धः</text></g><g id="node10" class="node"><title>Node3_1</title><ellipse cx="1502" cy="-18" fill="#f9f" stroke="#f9f" rx="59.59" ry="18"/><text x="1502" y="-14.3" font-family="Times,serif" font-size="14" text-anchor="middle">इति(3.1)</text></g><g id="edge3" class="edge"><title>Node3_1-&gt;Node4_1</title><path fill="none" stroke="#000" d="M1502,-46.27C1502,-59.58 1502,-75.19 1502,-86.82"/><polygon fill="#000" stroke="#000" points="1505.5 -46.2 1502 -36.2 1498.5 -46.2 1505.5 -46.2"/><text x="1559.5" y="-57.8" font-family="Times,serif" font-size="14" text-anchor="middle">सम्बन्धः</text></g><g id="node12" class="node"><title>Node5_1</title><ellipse cx="1327" cy="-105" fill="#f9f" stroke="#f9f" rx="41.69" ry="18"/><text x="1327" y="-101.3" font-family="Times,serif" font-size="14" text-anchor="middle">न(5.1)</text></g><g id="edge5" class="edge"><title>Node5_1-&gt;Node8_1</title><path fill="none" stroke="#000" d="M1329.7,-133.5C1331.59,-141.44 1334.75,-149.66 1340,-156 1347.89,-165.52 1358.96,-172.62 1370.14,-177.83"/><polygon fill="#000" stroke="#000" points="1333.1 -132.63 1327.88 -123.41 1326.21 -133.87 1333.1 -132.63"/><text x="1404.5" y="-144.8" font-family="Times,serif" font-size="14" text-anchor="middle">प्रतिषेधः</text></g><g id="node13" class="node"><title>Node6_1</title><ellipse cx="1180" cy="-18" fill="#ff0" stroke="#ff0" rx="63.09" ry="18"/><text x="1180" y="-14.3" font-family="Times,serif" font-size="14" text-anchor="middle">अति-(6.1)</text></g><g id="node14" class="node"><title>Node6_2</title><ellipse cx="1180" cy="-105" fill="#00bfff" stroke="#00bfff" rx="87.99" ry="18"/><text x="1180" y="-101.3" font-family="Times,serif" font-size="14" text-anchor="middle">क्रोधः(6.2)</text></g><g id="edge6" class="edge"><title>Node6_1-&gt;Node6_2</title><path fill="none" stroke="#000" d="M1180,-46.27C1180,-59.58 1180,-75.19 1180,-86.82"/><polygon fill="#000" stroke="#000" points="1183.5 -46.2 1180 -36.2 1176.5 -46.2 1183.5 -46.2"/><text x="1251.5" y="-57.8" font-family="Times,serif" font-size="14" text-anchor="middle">अव्ययीभावः</text></g><g id="edge7" class="edge"><title>Node6_2-&gt;Node8_1</title><path fill="none" stroke="#000" d="M1214.21,-127.59C1230.85,-137.35 1251.44,-148.39 1271,-156 1299.11,-166.94 1331.68,-175.23 1358.64,-180.99"/><polygon fill="#000" stroke="#000" points="1215.78 -124.45 1205.4 -122.32 1212.19 -130.46 1215.78 -124.45"/><text x="1300" y="-144.8" font-family="Times,serif" font-size="14" text-anchor="middle">कर्म</text></g><g id="node15" class="node"><title>Node7_1</title><ellipse cx="1723" cy="-105" fill="#f9f" stroke="#f9f" rx="87.99" ry="18"/><text x="1723" y="-101.3" font-family="Times,serif" font-size="14" text-anchor="middle">स्वयम्(7.1)</text></g><g id="edge8" class="edge"><title>Node7_1-&gt;Node8_1</title><path fill="none" stroke="#000" d="M1667.36,-123.41C1634.98,-133.35 1593.31,-145.82 1556,-156 1525.5,-164.32 1491.08,-172.82 1463.77,-179.37"/><polygon fill="#000" stroke="#000" points="1668.57 -126.7 1677.1 -120.41 1666.51 -120.01 1668.57 -126.7"/><text x="1663.5" y="-144.8" font-family="Times,serif" font-size="14" text-anchor="middle">सम्बन्धः</text></g><g id="node16" class="node"><title>Node10_1</title><ellipse cx="315" cy="-279" fill="#f9f" stroke="#f9f" rx="56.59" ry="18"/><text x="315" y="-275.3" font-family="Times,serif" font-size="14" text-anchor="middle">तु(10.1)</text></g><g id="edge10" class="edge"><title>Node10_1-&gt;Node15_1</title><path fill="none" stroke="#000" d="M326.47,-306.21C331.38,-314.85 337.89,-323.82 346,-330 362.45,-342.53 383.29,-350.58 402.93,-355.75"/><polygon fill="#000" stroke="#000" points="329.47 -304.39 321.76 -297.11 323.25 -307.6 329.47 -304.39"/><text x="403.5" y="-318.8" font-family="Times,serif" font-size="14" text-anchor="middle">सम्बन्धः</text></g><g id="node18" class="node"><title>Node13_1</title><ellipse cx="809" cy="-105" fill="#ff0" stroke="#ff0" rx="96.68" ry="18"/><text x="809" y="-101.3" font-family="Times,serif" font-size="14" text-anchor="middle">विह्वल-(13.1)</text></g><g id="edge13" class="edge"><title>Node13_1-&gt;Node13_2</title><path fill="none" stroke="#000" d="M809,-133.27C809,-146.58 809,-162.19 809,-173.82"/><polygon fill="#000" stroke="#000" points="812.5 -133.2 809 -123.2 805.5 -133.2 812.5 -133.2"/><text x="880.5" y="-144.8" font-family="Times,serif" font-size="14" text-anchor="middle">बहुव्रीहिः</text></g><g id="node19" class="node"><title>Node14_1</title><ellipse cx="601" cy="-192" fill="#ff0" stroke="#ff0" rx="77.99" ry="18"/><text x="601" y="-188.3" font-family="Times,serif" font-size="14" text-anchor="middle">निशा-(14.1)</text></g><g id="edge15" class="edge"><title>Node14_1-&gt;Node14_2</title><path fill="none" stroke="#000" d="M603.58,-220.23C605.7,-228.63 609.45,-237.18 616,-243 616.35,-243.31 703.58,-258.42 762.99,-268.68"/><polygon fill="#000" stroke="#000" points="607 -219.45 601.72 -210.27 600.12 -220.74 607 -219.45"/><text x="712.5" y="-231.8" font-family="Times,serif" font-size="14" text-anchor="middle">उपपद_तत्पुरुषः</text></g><g id="node20" class="node"><title>Node16_1</title><ellipse cx="465" cy="-279" fill="#f9f" stroke="#f9f" rx="75.29" ry="18"/><text x="465" y="-275.3" font-family="Times,serif" font-size="14" text-anchor="middle">सहसा(16.1)</text></g><g id="edge17" class="edge"><title>Node16_1-&gt;Node15_1</title><path fill="none" stroke="#000" d="M465,-307.27C465,-320.58 465,-336.19 465,-347.82"/><polygon fill="#000" stroke="#000" points="468.5 -307.2 465 -297.2 461.5 -307.2 468.5 -307.2"/><text x="522.5" y="-318.8" font-family="Times,serif" font-size="14" text-anchor="middle">सम्बन्धः</text></g><g id="node21" class="node"><title>Node17_1</title><ellipse cx="634" cy="-279" fill="#c6e2eb" stroke="#c6e2eb" rx="75.29" ry="18"/><text x="634" y="-275.3" font-family="Times,serif" font-size="14" text-anchor="middle">भूमौ(17.1)</text></g><g id="edge18" class="edge"><title>Node17_1-&gt;Node15_1</title><path fill="none" stroke="#000" d="M613.95,-304.75C605.52,-313.79 595.1,-323.41 584,-330 565.3,-341.1 542.83,-348.89 522.48,-354.26"/><polygon fill="#000" stroke="#000" points="616.77 -306.84 620.8 -297.04 611.54 -302.19 616.77 -306.84"/><text x="681.5" y="-318.8" font-family="Times,serif" font-size="14" text-anchor="middle">देशाधिकरणम्</text></g><g id="node22" class="node"><title>Node18_1</title><ellipse cx="1005" cy="-18" fill="#ff0" stroke="#ff0" rx="87.18" ry="18"/><text x="1005" y="-14.3" font-family="Times,serif" font-size="14" text-anchor="middle">विकृत-(18.1)</text></g><g id="node23" class="node"><title>Node18_2</title><ellipse cx="1005" cy="-105" fill="#ff0" stroke="#ff0" rx="68.79" ry="18"/><text x="1005" y="-101.3" font-family="Times,serif" font-size="14" text-anchor="middle">आनन-(18.2)</text></g><g id="edge19" class="edge"><title>Node18_1-&gt;Node18_2</title><path fill="none" stroke="#000" d="M1005,-46.27C1005,-59.58 1005,-75.19 1005,-86.82"/><polygon fill="#000" stroke="#000" points="1008.5 -46.2 1005 -36.2 1001.5 -46.2 1008.5 -46.2"/><text x="1069.5" y="-57.8" font-family="Times,serif" font-size="14" text-anchor="middle">कर्मधारयः</text></g><g id="edge20" class="edge"><title>Node18_2-&gt;Node18_3</title><path fill="none" stroke="#000" d="M1005,-133.27C1005,-146.58 1005,-162.19 1005,-173.82"/><polygon fill="#000" stroke="#000" points="1008.5 -133.2 1005 -123.2 1001.5 -133.2 1008.5 -133.2"/><text x="1076.5" y="-144.8" font-family="Times,serif" font-size="14" text-anchor="middle">बहुव्रीहिः</text></g></g></svg>