<?xml version="1.0" encoding="UTF-8" standalone="no"?>
<!DOCTYPE svg PUBLIC "-//W3C//DTD SVG 1.1//EN"
 "http://www.w3.org/Graphics/SVG/1.1/DTD/svg11.dtd">
<!-- Generated by graphviz version 2.43.0 (0)
 -->
<!-- Title: G Pages: 1 -->
<svg width="1378pt" height="305pt"
 viewBox="0.00 0.00 1378.00 305.00" xmlns="http://www.w3.org/2000/svg" xmlns:xlink="http://www.w3.org/1999/xlink">
<g id="graph0" class="graph" transform="scale(1 1) rotate(0) translate(4 301)">
<title>G</title>
<polygon fill="#fffacd" stroke="transparent" points="-4,4 -4,-301 1374,-301 1374,4 -4,4"/>
<g id="clust1" class="cluster">
<title>cluster_1</title>
<polygon fill="#fffacd" stroke="black" points="995,-79 995,-218 1362,-218 1362,-79 995,-79"/>
</g>
<g id="clust2" class="cluster">
<title>cluster_2</title>
<polygon fill="#fffacd" stroke="black" points="8,-79 8,-218 449,-218 449,-79 8,-79"/>
</g>
<g id="clust3" class="cluster">
<title>cluster_3</title>
<polygon fill="#fffacd" stroke="black" points="457,-79 457,-218 735,-218 735,-79 457,-79"/>
</g>
<!-- Node4_1 -->
<g id="node1" class="node">
<title>Node4_1</title>
<ellipse fill="#00bfff" stroke="#00bfff" cx="1238" cy="-105" rx="115.88" ry="18"/>
<text text-anchor="middle" x="1238" y="-101.3" font-family="Times,serif" font-size="14.00">उद्विग्ना(4.1)</text>
</g>
<!-- Node5_1 -->
<g id="node2" class="node">
<title>Node5_1</title>
<ellipse fill="#00bfff" stroke="#00bfff" cx="1083" cy="-192" rx="78.79" ry="18"/>
<text text-anchor="middle" x="1083" y="-188.3" font-family="Times,serif" font-size="14.00">लङ्का(5.1)</text>
</g>
<!-- Node4_1&#45;&gt;Node5_1 -->
<g id="edge4" class="edge">
<title>Node4_1&#45;&gt;Node5_1</title>
<path fill="none" stroke="black" d="M1218.32,-130.57C1210.06,-139.59 1199.85,-149.24 1189,-156 1173.04,-165.94 1153.96,-173.37 1136.41,-178.77"/>
<polygon fill="black" stroke="black" points="1221.08,-132.73 1225.04,-122.9 1215.82,-128.11 1221.08,-132.73"/>
<text text-anchor="middle" x="1264.5" y="-144.8" font-family="Times,serif" font-size="14.00">विशेषणम्</text>
</g>
<!-- Node8_1 -->
<g id="node10" class="node">
<title>Node8_1</title>
<ellipse fill="#ff1975" stroke="#ff1975" cx="798" cy="-279" rx="69.59" ry="18"/>
<text text-anchor="middle" x="798" y="-275.3" font-family="Times,serif" font-size="14.00">उवाच(8.1)</text>
</g>
<!-- Node5_1&#45;&gt;Node8_1 -->
<g id="edge5" class="edge">
<title>Node5_1&#45;&gt;Node8_1</title>
<path fill="none" stroke="black" d="M1068.17,-218.73C1061.62,-227.83 1053.09,-237.23 1043,-243 1013.48,-259.86 926.83,-269.25 864.97,-273.96"/>
<polygon fill="black" stroke="black" points="1071.2,-220.49 1073.83,-210.23 1065.37,-216.61 1071.2,-220.49"/>
<text text-anchor="middle" x="1096" y="-231.8" font-family="Times,serif" font-size="14.00">कर्ता</text>
</g>
<!-- Node6_1 -->
<g id="node3" class="node">
<title>Node6_1</title>
<ellipse fill="#00bfff" stroke="#00bfff" cx="1054" cy="-105" rx="50.89" ry="18"/>
<text text-anchor="middle" x="1054" y="-101.3" font-family="Times,serif" font-size="14.00">सा(6.1)</text>
</g>
<!-- Node6_1&#45;&gt;Node5_1 -->
<g id="edge6" class="edge">
<title>Node6_1&#45;&gt;Node5_1</title>
<path fill="none" stroke="black" d="M1063.17,-132.87C1067.74,-146.27 1073.13,-162.08 1077.14,-173.82"/>
<polygon fill="black" stroke="black" points="1066.41,-131.54 1059.87,-123.2 1059.79,-133.8 1066.41,-131.54"/>
<text text-anchor="middle" x="1127.5" y="-144.8" font-family="Times,serif" font-size="14.00">विशेषणम्</text>
</g>
<!-- Node7_2 -->
<g id="node4" class="node">
<title>Node7_2</title>
<ellipse fill="#93db70" stroke="#93db70" cx="113" cy="-105" rx="96.68" ry="18"/>
<text text-anchor="middle" x="113" y="-101.3" font-family="Times,serif" font-size="14.00">अक्षरम्(7.2)</text>
</g>
<!-- Node10_1 -->
<g id="node5" class="node">
<title>Node10_1</title>
<ellipse fill="#93db70" stroke="#93db70" cx="326" cy="-192" rx="102.88" ry="18"/>
<text text-anchor="middle" x="326" y="-188.3" font-family="Times,serif" font-size="14.00">वाक्यम्(10.1)</text>
</g>
<!-- Node7_2&#45;&gt;Node10_1 -->
<g id="edge8" class="edge">
<title>Node7_2&#45;&gt;Node10_1</title>
<path fill="none" stroke="black" d="M150.52,-127.11C168.48,-136.7 190.49,-147.72 211,-156 230.45,-163.85 252.35,-170.93 271.78,-176.64"/>
<polygon fill="black" stroke="black" points="151.99,-123.93 141.53,-122.25 148.67,-130.09 151.99,-123.93"/>
<text text-anchor="middle" x="268.5" y="-144.8" font-family="Times,serif" font-size="14.00">विशेषणम्</text>
</g>
<!-- Node10_1&#45;&gt;Node8_1 -->
<g id="edge11" class="edge">
<title>Node10_1&#45;&gt;Node8_1</title>
<path fill="none" stroke="black" d="M400.83,-208.02C417.96,-211.37 436.1,-214.87 453,-218 554.32,-236.78 672.72,-257 741.16,-268.51"/>
<polygon fill="black" stroke="black" points="401.37,-204.56 390.88,-206.06 400.02,-211.42 401.37,-204.56"/>
<text text-anchor="middle" x="614" y="-231.8" font-family="Times,serif" font-size="14.00">कर्म</text>
</g>
<!-- Node9_2 -->
<g id="node6" class="node">
<title>Node9_2</title>
<ellipse fill="#93db70" stroke="#93db70" cx="334" cy="-105" rx="106.68" ry="18"/>
<text text-anchor="middle" x="334" y="-101.3" font-family="Times,serif" font-size="14.00">गर्वितम्(9.2)</text>
</g>
<!-- Node9_2&#45;&gt;Node10_1 -->
<g id="edge10" class="edge">
<title>Node9_2&#45;&gt;Node10_1</title>
<path fill="none" stroke="black" d="M331.43,-133.27C330.18,-146.58 328.71,-162.19 327.62,-173.82"/>
<polygon fill="black" stroke="black" points="334.93,-133.49 332.38,-123.2 327.96,-132.83 334.93,-133.49"/>
<text text-anchor="middle" x="388.5" y="-144.8" font-family="Times,serif" font-size="14.00">विशेषणम्</text>
</g>
<!-- Node12_1 -->
<g id="node7" class="node">
<title>Node12_1</title>
<ellipse fill="#93db70" stroke="#93db70" cx="596" cy="-105" rx="130.78" ry="18"/>
<text text-anchor="middle" x="596" y="-101.3" font-family="Times,serif" font-size="14.00">प्लवङ्गमम्(12.1)</text>
</g>
<!-- Node11_1 -->
<g id="node8" class="node">
<title>Node11_1</title>
<ellipse fill="#93db70" stroke="#93db70" cx="600" cy="-192" rx="121.58" ry="18"/>
<text text-anchor="middle" x="600" y="-188.3" font-family="Times,serif" font-size="14.00">हनुमन्तम्(11.1)</text>
</g>
<!-- Node12_1&#45;&gt;Node11_1 -->
<g id="edge13" class="edge">
<title>Node12_1&#45;&gt;Node11_1</title>
<path fill="none" stroke="black" d="M597.28,-133.27C597.91,-146.58 598.64,-162.19 599.19,-173.82"/>
<polygon fill="black" stroke="black" points="600.78,-133.03 596.81,-123.2 593.78,-133.35 600.78,-133.03"/>
<text text-anchor="middle" x="655.5" y="-144.8" font-family="Times,serif" font-size="14.00">विशेषणम्</text>
</g>
<!-- Node11_1&#45;&gt;Node8_1 -->
<g id="edge12" class="edge">
<title>Node11_1&#45;&gt;Node8_1</title>
<path fill="none" stroke="black" d="M637.24,-214.62C654.23,-224.01 674.81,-234.73 694,-243 713.33,-251.33 735.35,-258.99 754.14,-265"/>
<polygon fill="black" stroke="black" points="638.63,-211.39 628.2,-209.57 635.22,-217.5 638.63,-211.39"/>
<text text-anchor="middle" x="744" y="-231.8" font-family="Times,serif" font-size="14.00">गौणकर्म</text>
</g>
<!-- Node1_1 -->
<g id="node9" class="node">
<title>Node1_1</title>
<ellipse fill="#ff99ff" stroke="#ff99ff" cx="803" cy="-192" rx="59.59" ry="18"/>
<text text-anchor="middle" x="803" y="-188.3" font-family="Times,serif" font-size="14.00">ततः(1.1)</text>
</g>
<!-- Node1_1&#45;&gt;Node8_1 -->
<g id="edge1" class="edge">
<title>Node1_1&#45;&gt;Node8_1</title>
<path fill="none" stroke="black" d="M799.65,-220.11C799.39,-222.77 799.17,-225.44 799,-228 798.27,-238.92 798.02,-251.2 797.95,-260.86"/>
<polygon fill="black" stroke="black" points="803.14,-220.38 800.73,-210.06 796.18,-219.63 803.14,-220.38"/>
<text text-anchor="middle" x="856.5" y="-231.8" font-family="Times,serif" font-size="14.00">सम्बन्धः</text>
</g>
<!-- Node2_1 -->
<g id="node11" class="node">
<title>Node2_1</title>
<ellipse fill="#ff99ff" stroke="#ff99ff" cx="936" cy="-192" rx="50.89" ry="18"/>
<text text-anchor="middle" x="936" y="-188.3" font-family="Times,serif" font-size="14.00">वै(2.1)</text>
</g>
<!-- Node2_1&#45;&gt;Node8_1 -->
<g id="edge2" class="edge">
<title>Node2_1&#45;&gt;Node8_1</title>
<path fill="none" stroke="black" d="M929.13,-219.65C925.79,-228.11 920.94,-236.85 914,-243 898.64,-256.6 878.16,-264.91 858.68,-270"/>
<polygon fill="black" stroke="black" points="932.5,-220.62 932.4,-210.02 925.87,-218.37 932.5,-220.62"/>
<text text-anchor="middle" x="981.5" y="-231.8" font-family="Times,serif" font-size="14.00">सम्बन्धः</text>
</g>
<!-- Node3_1 -->
<g id="node12" class="node">
<title>Node3_1</title>
<ellipse fill="#ff99ff" stroke="#ff99ff" cx="1238" cy="-18" rx="78.79" ry="18"/>
<text text-anchor="middle" x="1238" y="-14.3" font-family="Times,serif" font-size="14.00">भृशम्(3.1)</text>
</g>
<!-- Node3_1&#45;&gt;Node4_1 -->
<g id="edge3" class="edge">
<title>Node3_1&#45;&gt;Node4_1</title>
<path fill="none" stroke="black" d="M1238,-46.27C1238,-59.58 1238,-75.19 1238,-86.82"/>
<polygon fill="black" stroke="black" points="1241.5,-46.2 1238,-36.2 1234.5,-46.2 1241.5,-46.2"/>
<text text-anchor="middle" x="1295.5" y="-57.8" font-family="Times,serif" font-size="14.00">सम्बन्धः</text>
</g>
<!-- Node7_1 -->
<g id="node13" class="node">
<title>Node7_1</title>
<ellipse fill="#ffff00" stroke="#ffff00" cx="113" cy="-18" rx="81.49" ry="18"/>
<text text-anchor="middle" x="113" y="-14.3" font-family="Times,serif" font-size="14.00">गद्गद&#45;(7.1)</text>
</g>
<!-- Node7_1&#45;&gt;Node7_2 -->
<g id="edge7" class="edge">
<title>Node7_1&#45;&gt;Node7_2</title>
<path fill="none" stroke="black" d="M113,-46.27C113,-59.58 113,-75.19 113,-86.82"/>
<polygon fill="black" stroke="black" points="116.5,-46.2 113,-36.2 109.5,-46.2 116.5,-46.2"/>
<text text-anchor="middle" x="177.5" y="-57.8" font-family="Times,serif" font-size="14.00">कर्मधारयः</text>
</g>
<!-- Node9_1 -->
<g id="node14" class="node">
<title>Node9_1</title>
<ellipse fill="#ffff00" stroke="#ffff00" cx="334" cy="-18" rx="44.39" ry="18"/>
<text text-anchor="middle" x="334" y="-14.3" font-family="Times,serif" font-size="14.00">अ&#45;(9.1)</text>
</g>
<!-- Node9_1&#45;&gt;Node9_2 -->
<g id="edge9" class="edge">
<title>Node9_1&#45;&gt;Node9_2</title>
<path fill="none" stroke="black" d="M334,-46.27C334,-59.58 334,-75.19 334,-86.82"/>
<polygon fill="black" stroke="black" points="337.5,-46.2 334,-36.2 330.5,-46.2 337.5,-46.2"/>
<text text-anchor="middle" x="423" y="-57.8" font-family="Times,serif" font-size="14.00">नञ्_तत्पुरुषः</text>
</g>
</g>
</svg>
