<svg xmlns="http://www.w3.org/2000/svg" xmlns:xlink="http://www.w3.org/1999/xlink" width="1516" height="479pt" viewBox="0 0 1136.6 479"><g id="graph0" class="graph" transform="scale(1 1) rotate(0) translate(4 475)"><title>G</title><polygon fill="#fffacd" stroke="transparent" points="-4 4 -4 -475 1132.6 -475 1132.6 4 -4 4"/><g id="clust1" class="cluster"><title>cluster_1</title><polygon fill="#fffacd" stroke="#000" points="492.6 -166 492.6 -305 1120.6 -305 1120.6 -166 492.6 -166"/></g><g id="node1" class="node"><title>Node4_1</title><ellipse cx="1042.6" cy="-192" fill="#00bfff" stroke="#00bfff" rx="69.59" ry="18"/><text x="1042.6" y="-188.3" font-family="Times,serif" font-size="14" text-anchor="middle">इयम्(4.1)</text></g><g id="node2" class="node"><title>Node5_1</title><ellipse cx="703.6" cy="-279" fill="#00bfff" stroke="#00bfff" rx="78.79" ry="18"/><text x="703.6" y="-275.3" font-family="Times,serif" font-size="14" text-anchor="middle">लङ्का(5.1)</text></g><g id="edge3" class="edge"><title>Node4_1-&gt;Node5_1</title><path fill="none" stroke="#000" d="M1003.83,-212.81C981.96,-223.23 953.82,-235.39 927.6,-243 877.7,-257.49 819.71,-266.34 775.23,-271.52"/><polygon fill="#000" stroke="#000" points="1005.63 -215.83 1013.11 -208.32 1002.58 -209.53 1005.63 -215.83"/><text x="1023.1" y="-231.8" font-family="Times,serif" font-size="14" text-anchor="middle">विशेषणम्</text></g><g id="node8" class="node"><title>Node6_1</title><ellipse cx="405.6" cy="-366" fill="#f9f" stroke="#f9f" rx="133.78" ry="18"/><text x="405.6" y="-362.3" font-family="Times,serif" font-size="14" text-anchor="middle">प्रवेष्टुम्(6.1)</text></g><g id="edge4" class="edge"><title>Node5_1-&gt;Node6_1</title><path fill="none" stroke="#000" d="M646.66,-296.24C592.88,-311.58 512.81,-334.42 459.92,-349.51"/><polygon fill="#000" stroke="#000" points="647.72 -299.58 656.38 -293.47 645.8 -292.85 647.72 -299.58"/><text x="600.6" y="-318.8" font-family="Times,serif" font-size="14" text-anchor="middle">कर्म</text></g><g id="node3" class="node"><title>Node9_1</title><ellipse cx="858.6" cy="-192" fill="#00bfff" stroke="#00bfff" rx="96.68" ry="18"/><text x="858.6" y="-188.3" font-family="Times,serif" font-size="14" text-anchor="middle">रक्षिता(9.1)</text></g><g id="edge8" class="edge"><title>Node9_1-&gt;Node5_1</title><path fill="none" stroke="#000" d="M828.69,-215.85C816.08,-224.93 801,-235.07 786.6,-243 772.89,-250.54 757.23,-257.53 743.23,-263.25"/><polygon fill="#000" stroke="#000" points="830.98 -218.51 836.99 -209.78 826.85 -212.86 830.98 -218.51"/><text x="866.1" y="-231.8" font-family="Times,serif" font-size="14" text-anchor="middle">विशेषणम्</text></g><g id="node4" class="node"><title>Node11_1</title><ellipse cx="622.6" cy="-192" fill="#00bfff" stroke="#00bfff" rx="121.58" ry="18"/><text x="622.6" y="-188.3" font-family="Times,serif" font-size="14" text-anchor="middle">अभिगुप्ता(11.1)</text></g><g id="edge11" class="edge"><title>Node11_1-&gt;Node5_1</title><path fill="none" stroke="#000" d="M646.02,-217.58C659.33,-231.55 675.64,-248.67 687.51,-261.11"/><polygon fill="#000" stroke="#000" points="648.42 -215.03 638.99 -210.2 643.35 -219.85 648.42 -215.03"/><text x="725.1" y="-231.8" font-family="Times,serif" font-size="14" text-anchor="middle">विशेषणम्</text></g><g id="node5" class="node"><title>Node1_1</title><ellipse cx="41.6" cy="-366" fill="#f9f" stroke="#f9f" rx="41.69" ry="18"/><text x="41.6" y="-362.3" font-family="Times,serif" font-size="14" text-anchor="middle">न(1.1)</text></g><g id="node6" class="node"><title>Node2_1</title><ellipse cx="193.6" cy="-453" fill="#00bfff" stroke="#00bfff" rx="87.99" ry="18"/><text x="193.6" y="-449.3" font-family="Times,serif" font-size="14" text-anchor="middle">शक्यम्(2.1)</text></g><g id="edge1" class="edge"><title>Node1_1-&gt;Node2_1</title><path fill="none" stroke="#000" d="M46.66,-393.74C49.48,-402.21 53.85,-410.93 60.6,-417 75.95,-430.81 96.12,-439.28 116.08,-444.45"/><polygon fill="#000" stroke="#000" points="50.04 -392.81 44.02 -384.09 43.29 -394.66 50.04 -392.81"/><text x="125.1" y="-405.8" font-family="Times,serif" font-size="14" text-anchor="middle">प्रतिषेधः</text></g><g id="node7" class="node"><title>Node3_1</title><ellipse cx="193.6" cy="-366" fill="#f9f" stroke="#f9f" rx="59.59" ry="18"/><text x="193.6" y="-362.3" font-family="Times,serif" font-size="14" text-anchor="middle">खलु(3.1)</text></g><g id="edge2" class="edge"><title>Node3_1-&gt;Node2_1</title><path fill="none" stroke="#000" d="M193.6,-394.27C193.6,-407.58 193.6,-423.19 193.6,-434.82"/><polygon fill="#000" stroke="#000" points="197.1 -394.2 193.6 -384.2 190.1 -394.2 197.1 -394.2"/><text x="251.1" y="-405.8" font-family="Times,serif" font-size="14" text-anchor="middle">सम्बन्धः</text></g><g id="edge5" class="edge"><title>Node6_1-&gt;Node2_1</title><path fill="none" stroke="#000" d="M369.3,-388.78C352.45,-398.3 331.91,-409.07 312.6,-417 291.78,-425.55 268.13,-432.95 247.43,-438.72"/><polygon fill="#000" stroke="#000" points="371.31 -391.66 378.25 -383.65 367.83 -385.59 371.31 -391.66"/><text x="413.6" y="-405.8" font-family="Times,serif" font-size="14" text-anchor="middle">प्रयोजनम्1</text></g><g id="node9" class="node"><title>Node7_1</title><ellipse cx="239.6" cy="-279" fill="#6fffc3" stroke="#6fffc3" rx="69.59" ry="18"/><text x="239.6" y="-275.3" font-family="Times,serif" font-size="14" text-anchor="middle">वानर(7.1)</text></g><g id="edge6" class="edge"><title>Node7_1-&gt;Node6_1</title><path fill="none" stroke="#000" d="M251.86,-306.07C257.13,-314.81 264.07,-323.88 272.6,-330 286.47,-339.95 302.96,-347.08 319.54,-352.17"/><polygon fill="#000" stroke="#000" points="254.87 -304.29 246.98 -297.22 248.75 -307.67 254.87 -304.29"/><text x="337.1" y="-318.8" font-family="Times,serif" font-size="14" text-anchor="middle">सम्बोध्यः</text></g><g id="node10" class="node"><title>Node8_1</title><ellipse cx="405.6" cy="-279" fill="#40e0d0" stroke="#40e0d0" rx="78.79" ry="18"/><text x="405.6" y="-275.3" font-family="Times,serif" font-size="14" text-anchor="middle">त्वया(8.1)</text></g><g id="edge7" class="edge"><title>Node8_1-&gt;Node6_1</title><path fill="none" stroke="#000" d="M405.6,-307.27C405.6,-320.58 405.6,-336.19 405.6,-347.82"/><polygon fill="#000" stroke="#000" points="409.1 -307.2 405.6 -297.2 402.1 -307.2 409.1 -307.2"/><text x="441.6" y="-318.8" font-family="Times,serif" font-size="14" text-anchor="middle">कर्ता</text></g><g id="node11" class="node"><title>Node10_1</title><ellipse cx="734.6" cy="-18" fill="#ff0" stroke="#ff0" rx="77.99" ry="18"/><text x="734.6" y="-14.3" font-family="Times,serif" font-size="14" text-anchor="middle">रावण-(10.1)</text></g><g id="node12" class="node"><title>Node10_2</title><ellipse cx="734.6" cy="-105" fill="#40e0d0" stroke="#40e0d0" rx="75.29" ry="18"/><text x="734.6" y="-101.3" font-family="Times,serif" font-size="14" text-anchor="middle">बलैः(10.2)</text></g><g id="edge9" class="edge"><title>Node10_1-&gt;Node10_2</title><path fill="none" stroke="#000" d="M734.6,-46.27C734.6,-59.58 734.6,-75.19 734.6,-86.82"/><polygon fill="#000" stroke="#000" points="738.1 -46.2 734.6 -36.2 731.1 -46.2 738.1 -46.2"/><text x="838.1" y="-57.8" font-family="Times,serif" font-size="14" text-anchor="middle">षष्ठी_तत्पुरुषः</text></g><g id="edge10" class="edge"><title>Node10_2-&gt;Node9_1</title><path fill="none" stroke="#000" d="M766.55,-127.9C787.65,-142.36 814.87,-161.02 834.22,-174.29"/><polygon fill="#000" stroke="#000" points="768.44 -124.96 758.21 -122.19 764.48 -130.73 768.44 -124.96"/><text x="839.6" y="-144.8" font-family="Times,serif" font-size="14" text-anchor="middle">कर्ता</text></g><g id="node13" class="node"><title>Node12_1</title><ellipse cx="930.6" cy="-105" fill="#f9f" stroke="#f9f" rx="102.88" ry="18"/><text x="930.6" y="-101.3" font-family="Times,serif" font-size="14" text-anchor="middle">समन्ततः(12.1)</text></g><g id="edge12" class="edge"><title>Node12_1-&gt;Node9_1</title><path fill="none" stroke="#000" d="M909.44,-130.97C897.68,-144.86 883.34,-161.78 872.9,-174.11"/><polygon fill="#000" stroke="#000" points="912.23 -133.09 916.03 -123.2 906.89 -128.57 912.23 -133.09"/><text x="977.1" y="-144.8" font-family="Times,serif" font-size="14" text-anchor="middle">देशाधिकरणम्</text></g></g></svg>