<?xml version="1.0" encoding="UTF-8" standalone="no"?>
<!DOCTYPE svg PUBLIC "-//W3C//DTD SVG 1.1//EN"
 "http://www.w3.org/Graphics/SVG/1.1/DTD/svg11.dtd">
<!-- Generated by graphviz version 2.43.0 (0)
 -->
<!-- Title: G Pages: 1 -->
<svg width="1482pt" height="392pt"
 viewBox="0.00 0.00 1482.00 392.00" xmlns="http://www.w3.org/2000/svg" xmlns:xlink="http://www.w3.org/1999/xlink">
<g id="graph0" class="graph" transform="scale(1 1) rotate(0) translate(4 388)">
<title>G</title>
<polygon fill="#fffacd" stroke="transparent" points="-4,4 -4,-388 1478,-388 1478,4 -4,4"/>
<g id="clust1" class="cluster">
<title>cluster_1</title>
<polygon fill="#fffacd" stroke="black" points="529,-79 529,-218 703,-218 703,-79 529,-79"/>
</g>
<g id="clust2" class="cluster">
<title>cluster_2</title>
<polygon fill="#fffacd" stroke="black" points="8,-79 8,-218 319,-218 319,-79 8,-79"/>
</g>
<g id="clust3" class="cluster">
<title>cluster_3</title>
<polygon fill="#fffacd" stroke="black" points="711,-166 711,-305 933,-305 933,-166 711,-166"/>
</g>
<!-- Node2_1 -->
<g id="node1" class="node">
<title>Node2_1</title>
<ellipse fill="#93db70" stroke="#93db70" cx="597" cy="-105" rx="59.59" ry="18"/>
<text text-anchor="middle" x="597" y="-101.3" font-family="Times,serif" font-size="14.00">तत्(2.1)</text>
</g>
<!-- Node3_1 -->
<g id="node2" class="node">
<title>Node3_1</title>
<ellipse fill="#93db70" stroke="#93db70" cx="616" cy="-192" rx="78.79" ry="18"/>
<text text-anchor="middle" x="616" y="-188.3" font-family="Times,serif" font-size="14.00">वचनम्(3.1)</text>
</g>
<!-- Node2_1&#45;&gt;Node3_1 -->
<g id="edge2" class="edge">
<title>Node2_1&#45;&gt;Node3_1</title>
<path fill="none" stroke="black" d="M603.09,-133.27C606.07,-146.58 609.56,-162.19 612.16,-173.82"/>
<polygon fill="black" stroke="black" points="606.44,-132.2 600.84,-123.2 599.61,-133.72 606.44,-132.2"/>
<text text-anchor="middle" x="664.5" y="-144.8" font-family="Times,serif" font-size="14.00">विशेषणम्</text>
</g>
<!-- Node4_1 -->
<g id="node9" class="node">
<title>Node4_1</title>
<ellipse fill="#ff99ff" stroke="#ff99ff" cx="595" cy="-279" rx="106.68" ry="18"/>
<text text-anchor="middle" x="595" y="-275.3" font-family="Times,serif" font-size="14.00">श्रुत्वा(4.1)</text>
</g>
<!-- Node3_1&#45;&gt;Node4_1 -->
<g id="edge3" class="edge">
<title>Node3_1&#45;&gt;Node4_1</title>
<path fill="none" stroke="black" d="M609.26,-220.27C605.97,-233.58 602.12,-249.19 599.24,-260.82"/>
<polygon fill="black" stroke="black" points="612.75,-220.75 611.75,-210.2 605.95,-219.07 612.75,-220.75"/>
<text text-anchor="middle" x="635" y="-231.8" font-family="Times,serif" font-size="14.00">कर्म</text>
</g>
<!-- Node6_1 -->
<g id="node3" class="node">
<title>Node6_1</title>
<ellipse fill="#00bfff" stroke="#00bfff" cx="260" cy="-105" rx="50.89" ry="18"/>
<text text-anchor="middle" x="260" y="-101.3" font-family="Times,serif" font-size="14.00">सा(6.1)</text>
</g>
<!-- Node5_1 -->
<g id="node4" class="node">
<title>Node5_1</title>
<ellipse fill="#00bfff" stroke="#00bfff" cx="214" cy="-192" rx="78.79" ry="18"/>
<text text-anchor="middle" x="214" y="-188.3" font-family="Times,serif" font-size="14.00">लङ्का(5.1)</text>
</g>
<!-- Node6_1&#45;&gt;Node5_1 -->
<g id="edge7" class="edge">
<title>Node6_1&#45;&gt;Node5_1</title>
<path fill="none" stroke="black" d="M240.51,-130.61C238.18,-134.01 235.94,-137.53 234,-141 228.16,-151.45 223.16,-163.95 219.62,-173.83"/>
<polygon fill="black" stroke="black" points="243.36,-132.65 246.38,-122.49 237.68,-128.54 243.36,-132.65"/>
<text text-anchor="middle" x="291.5" y="-144.8" font-family="Times,serif" font-size="14.00">विशेषणम्</text>
</g>
<!-- Node5_1&#45;&gt;Node4_1 -->
<g id="edge6" class="edge">
<title>Node5_1&#45;&gt;Node4_1</title>
<path fill="none" stroke="black" stroke-dasharray="1,5" d="M278.37,-207.36C349.54,-223.24 463.39,-248.64 533.43,-264.26"/>
<polygon fill="black" stroke="black" points="278.71,-203.85 268.18,-205.09 277.18,-210.68 278.71,-203.85"/>
<text text-anchor="middle" x="463" y="-231.8" font-family="Times,serif" font-size="14.00">कर्ता</text>
</g>
<!-- Node12_1 -->
<g id="node10" class="node">
<title>Node12_1</title>
<ellipse fill="#ff1975" stroke="#ff1975" cx="886" cy="-366" rx="84.49" ry="18"/>
<text text-anchor="middle" x="886" y="-362.3" font-family="Times,serif" font-size="14.00">बभाषे(12.1)</text>
</g>
<!-- Node5_1&#45;&gt;Node12_1 -->
<g id="edge5" class="edge">
<title>Node5_1&#45;&gt;Node12_1</title>
<path fill="none" stroke="black" d="M243.66,-215.36C280.05,-241.53 344.64,-283.97 407,-305 540.02,-349.85 704.03,-361.7 801.54,-364.53"/>
<polygon fill="black" stroke="black" points="245.61,-212.45 235.46,-209.4 241.49,-218.11 245.61,-212.45"/>
<text text-anchor="middle" x="443" y="-275.3" font-family="Times,serif" font-size="14.00">कर्ता</text>
</g>
<!-- Node7_2 -->
<g id="node5" class="node">
<title>Node7_2</title>
<ellipse fill="#00bfff" stroke="#00bfff" cx="104" cy="-105" rx="87.99" ry="18"/>
<text text-anchor="middle" x="104" y="-101.3" font-family="Times,serif" font-size="14.00">रूपिणी(7.2)</text>
</g>
<!-- Node7_2&#45;&gt;Node5_1 -->
<g id="edge9" class="edge">
<title>Node7_2&#45;&gt;Node5_1</title>
<path fill="none" stroke="black" d="M100.71,-133.21C101.09,-141.26 102.99,-149.62 108,-156 118,-168.73 132.75,-176.87 148.09,-182.08"/>
<polygon fill="black" stroke="black" points="104.22,-133.07 100.95,-122.99 97.22,-132.91 104.22,-133.07"/>
<text text-anchor="middle" x="165.5" y="-144.8" font-family="Times,serif" font-size="14.00">विशेषणम्</text>
</g>
<!-- Node13_2 -->
<g id="node6" class="node">
<title>Node13_2</title>
<ellipse fill="#93db70" stroke="#93db70" cx="822" cy="-192" rx="102.88" ry="18"/>
<text text-anchor="middle" x="822" y="-188.3" font-family="Times,serif" font-size="14.00">अक्षरम्(13.2)</text>
</g>
<!-- Node11_1 -->
<g id="node7" class="node">
<title>Node11_1</title>
<ellipse fill="#93db70" stroke="#93db70" cx="822" cy="-279" rx="102.88" ry="18"/>
<text text-anchor="middle" x="822" y="-275.3" font-family="Times,serif" font-size="14.00">वाक्यम्(11.1)</text>
</g>
<!-- Node13_2&#45;&gt;Node11_1 -->
<g id="edge15" class="edge">
<title>Node13_2&#45;&gt;Node11_1</title>
<path fill="none" stroke="black" d="M822,-220.27C822,-233.58 822,-249.19 822,-260.82"/>
<polygon fill="black" stroke="black" points="825.5,-220.2 822,-210.2 818.5,-220.2 825.5,-220.2"/>
<text text-anchor="middle" x="879.5" y="-231.8" font-family="Times,serif" font-size="14.00">विशेषणम्</text>
</g>
<!-- Node11_1&#45;&gt;Node12_1 -->
<g id="edge13" class="edge">
<title>Node11_1&#45;&gt;Node12_1</title>
<path fill="none" stroke="black" d="M832.92,-306.42C836.79,-314.37 841.56,-322.87 847,-330 852.08,-336.66 858.54,-343.05 864.74,-348.51"/>
<polygon fill="black" stroke="black" points="836,-304.75 828.65,-297.12 829.64,-307.67 836,-304.75"/>
<text text-anchor="middle" x="876" y="-318.8" font-family="Times,serif" font-size="14.00">कर्म</text>
</g>
<!-- Node1_1 -->
<g id="node8" class="node">
<title>Node1_1</title>
<ellipse fill="#87ceeb" stroke="#87ceeb" cx="398" cy="-105" rx="69.59" ry="18"/>
<text text-anchor="middle" x="398" y="-101.3" font-family="Times,serif" font-size="14.00">तस्य(1.1)</text>
</g>
<!-- Node1_1&#45;&gt;Node3_1 -->
<g id="edge1" class="edge">
<title>Node1_1&#45;&gt;Node3_1</title>
<path fill="none" stroke="black" d="M401.73,-133.29C404.19,-141.69 408.26,-150.24 415,-156 433.91,-172.18 492.6,-181.14 541.72,-185.93"/>
<polygon fill="black" stroke="black" points="405.09,-132.29 399.46,-123.32 398.27,-133.84 405.09,-132.29"/>
<text text-anchor="middle" x="508" y="-144.8" font-family="Times,serif" font-size="14.00">षष्ठीसम्बन्धः</text>
</g>
<!-- Node4_1&#45;&gt;Node12_1 -->
<g id="edge4" class="edge">
<title>Node4_1&#45;&gt;Node12_1</title>
<path fill="none" stroke="black" d="M634.9,-301.1C655.14,-311.08 680.38,-322.43 704,-330 740.31,-341.63 782,-350 816.31,-355.62"/>
<polygon fill="black" stroke="black" points="636.19,-297.84 625.69,-296.49 633.06,-304.1 636.19,-297.84"/>
<text text-anchor="middle" x="768.5" y="-318.8" font-family="Times,serif" font-size="14.00">पूर्वकालः</text>
</g>
<!-- Node7_1 -->
<g id="node11" class="node">
<title>Node7_1</title>
<ellipse fill="#ffff00" stroke="#ffff00" cx="104" cy="-18" rx="63.09" ry="18"/>
<text text-anchor="middle" x="104" y="-14.3" font-family="Times,serif" font-size="14.00">काम&#45;(7.1)</text>
</g>
<!-- Node7_1&#45;&gt;Node7_2 -->
<g id="edge8" class="edge">
<title>Node7_1&#45;&gt;Node7_2</title>
<path fill="none" stroke="black" d="M104,-46.27C104,-59.58 104,-75.19 104,-86.82"/>
<polygon fill="black" stroke="black" points="107.5,-46.2 104,-36.2 100.5,-46.2 107.5,-46.2"/>
<text text-anchor="middle" x="175.5" y="-57.8" font-family="Times,serif" font-size="14.00">बहुव्रीहिः</text>
</g>
<!-- Node8_1 -->
<g id="node12" class="node">
<title>Node8_1</title>
<ellipse fill="#00bfff" stroke="#00bfff" cx="1012" cy="-279" rx="69.59" ry="18"/>
<text text-anchor="middle" x="1012" y="-275.3" font-family="Times,serif" font-size="14.00">भूयः(8.1)</text>
</g>
<!-- Node8_1&#45;&gt;Node12_1 -->
<g id="edge10" class="edge">
<title>Node8_1&#45;&gt;Node12_1</title>
<path fill="none" stroke="black" d="M960.07,-297.08C948.95,-301.95 937.65,-307.91 928,-315 915.76,-323.99 904.82,-337.27 897.18,-347.88"/>
<polygon fill="black" stroke="black" points="961.44,-300.3 969.33,-293.24 958.76,-293.83 961.44,-300.3"/>
<text text-anchor="middle" x="1028" y="-318.8" font-family="Times,serif" font-size="14.00">क्रियाविशेषणम्</text>
</g>
<!-- Node9_1 -->
<g id="node13" class="node">
<title>Node9_1</title>
<ellipse fill="#ff99ff" stroke="#ff99ff" cx="1150" cy="-279" rx="50.89" ry="18"/>
<text text-anchor="middle" x="1150" y="-275.3" font-family="Times,serif" font-size="14.00">एव(9.1)</text>
</g>
<!-- Node9_1&#45;&gt;Node12_1 -->
<g id="edge11" class="edge">
<title>Node9_1&#45;&gt;Node12_1</title>
<path fill="none" stroke="black" d="M1143.89,-306.61C1140.59,-315.33 1135.57,-324.25 1128,-330 1103.33,-348.75 1028.09,-357.5 967.98,-361.55"/>
<polygon fill="black" stroke="black" points="1147.24,-307.62 1146.93,-297.03 1140.57,-305.5 1147.24,-307.62"/>
<text text-anchor="middle" x="1196.5" y="-318.8" font-family="Times,serif" font-size="14.00">सम्बन्धः</text>
</g>
<!-- Node10_1 -->
<g id="node14" class="node">
<title>Node10_1</title>
<ellipse fill="#ff99ff" stroke="#ff99ff" cx="1294" cy="-279" rx="75.29" ry="18"/>
<text text-anchor="middle" x="1294" y="-275.3" font-family="Times,serif" font-size="14.00">पुनः(10.1)</text>
</g>
<!-- Node10_1&#45;&gt;Node12_1 -->
<g id="edge12" class="edge">
<title>Node10_1&#45;&gt;Node12_1</title>
<path fill="none" stroke="black" d="M1281.12,-306.23C1275.33,-315.27 1267.61,-324.5 1258,-330 1210.65,-357.13 1064.86,-363.72 970.47,-365.04"/>
<polygon fill="black" stroke="black" points="1284.26,-307.8 1286.27,-297.4 1278.21,-304.28 1284.26,-307.8"/>
<text text-anchor="middle" x="1374" y="-318.8" font-family="Times,serif" font-size="14.00">क्रियाविशेषणम्</text>
</g>
<!-- Node13_1 -->
<g id="node15" class="node">
<title>Node13_1</title>
<ellipse fill="#ffff00" stroke="#ffff00" cx="822" cy="-105" rx="77.99" ry="18"/>
<text text-anchor="middle" x="822" y="-101.3" font-family="Times,serif" font-size="14.00">परुष&#45;(13.1)</text>
</g>
<!-- Node13_1&#45;&gt;Node13_2 -->
<g id="edge14" class="edge">
<title>Node13_1&#45;&gt;Node13_2</title>
<path fill="none" stroke="black" d="M822,-133.27C822,-146.58 822,-162.19 822,-173.82"/>
<polygon fill="black" stroke="black" points="825.5,-133.2 822,-123.2 818.5,-133.2 825.5,-133.2"/>
<text text-anchor="middle" x="893.5" y="-144.8" font-family="Times,serif" font-size="14.00">बहुव्रीहिः</text>
</g>
</g>
</svg>
