<?xml version="1.0" encoding="UTF-8" standalone="no"?>
<!DOCTYPE svg PUBLIC "-//W3C//DTD SVG 1.1//EN"
 "http://www.w3.org/Graphics/SVG/1.1/DTD/svg11.dtd">
<!-- Generated by graphviz version 2.43.0 (0)
 -->
<!-- Title: G Pages: 1 -->
<svg width="1200pt" height="566pt"
 viewBox="0.00 0.00 1199.60 566.00" xmlns="http://www.w3.org/2000/svg" xmlns:xlink="http://www.w3.org/1999/xlink">
<g id="graph0" class="graph" transform="scale(1 1) rotate(0) translate(4 562)">
<title>G</title>
<polygon fill="#fffacd" stroke="transparent" points="-4,4 -4,-562 1195.6,-562 1195.6,4 -4,4"/>
<g id="clust1" class="cluster">
<title>cluster_1</title>
<polygon fill="#fffacd" stroke="black" points="729.6,-340 729.6,-479 1096.6,-479 1096.6,-340 729.6,-340"/>
</g>
<g id="clust2" class="cluster">
<title>cluster_2</title>
<polygon fill="#fffacd" stroke="black" points="732.6,-166 732.6,-305 954.6,-305 954.6,-166 732.6,-166"/>
</g>
<!-- Node2_1 -->
<g id="node1" class="node">
<title>Node2_1</title>
<ellipse fill="#00bfff" stroke="#00bfff" cx="1018.6" cy="-366" rx="69.59" ry="18"/>
<text text-anchor="middle" x="1018.6" y="-362.3" font-family="Times,serif" font-size="14.00">इयम्(2.1)</text>
</g>
<!-- Node4_1 -->
<g id="node2" class="node">
<title>Node4_1</title>
<ellipse fill="#00bfff" stroke="#00bfff" cx="834.6" cy="-453" rx="69.59" ry="18"/>
<text text-anchor="middle" x="834.6" y="-449.3" font-family="Times,serif" font-size="14.00">नगरी(4.1)</text>
</g>
<!-- Node2_1&#45;&gt;Node4_1 -->
<g id="edge2" class="edge">
<title>Node2_1&#45;&gt;Node4_1</title>
<path fill="none" stroke="black" d="M991.97,-389.87C979.94,-399.3 965.19,-409.71 950.6,-417 930.18,-427.2 906.23,-435.05 885.42,-440.69"/>
<polygon fill="black" stroke="black" points="994.22,-392.55 999.82,-383.55 989.83,-387.1 994.22,-392.55"/>
<text text-anchor="middle" x="1031.1" y="-405.8" font-family="Times,serif" font-size="14.00">विशेषणम्</text>
</g>
<!-- Node5_1 -->
<g id="node7" class="node">
<title>Node5_1</title>
<ellipse fill="#00bfff" stroke="#00bfff" cx="421.6" cy="-540" rx="78.79" ry="18"/>
<text text-anchor="middle" x="421.6" y="-536.3" font-family="Times,serif" font-size="14.00">शक्या(5.1)</text>
</g>
<!-- Node4_1&#45;&gt;Node5_1 -->
<g id="edge4" class="edge">
<title>Node4_1&#45;&gt;Node5_1</title>
<path fill="none" stroke="black" d="M786.77,-471.47C755.73,-482.23 714.21,-495.53 676.6,-504 615.35,-517.79 544.52,-526.99 493.08,-532.48"/>
<polygon fill="black" stroke="black" points="788.18,-474.69 796.46,-468.08 785.87,-468.08 788.18,-474.69"/>
<text text-anchor="middle" x="757.6" y="-492.8" font-family="Times,serif" font-size="14.00">कर्म</text>
</g>
<!-- Node8_1 -->
<g id="node3" class="node">
<title>Node8_1</title>
<ellipse fill="#00bfff" stroke="#00bfff" cx="834.6" cy="-366" rx="96.68" ry="18"/>
<text text-anchor="middle" x="834.6" y="-362.3" font-family="Times,serif" font-size="14.00">रक्षिता(8.1)</text>
</g>
<!-- Node8_1&#45;&gt;Node4_1 -->
<g id="edge7" class="edge">
<title>Node8_1&#45;&gt;Node4_1</title>
<path fill="none" stroke="black" d="M834.6,-394.27C834.6,-407.58 834.6,-423.19 834.6,-434.82"/>
<polygon fill="black" stroke="black" points="838.1,-394.2 834.6,-384.2 831.1,-394.2 838.1,-394.2"/>
<text text-anchor="middle" x="892.1" y="-405.8" font-family="Times,serif" font-size="14.00">विशेषणम्</text>
</g>
<!-- Node10_3 -->
<g id="node4" class="node">
<title>Node10_3</title>
<ellipse fill="#40e0d0" stroke="#40e0d0" cx="843.6" cy="-192" rx="102.88" ry="18"/>
<text text-anchor="middle" x="843.6" y="-188.3" font-family="Times,serif" font-size="14.00">पाणिभिः(10.3)</text>
</g>
<!-- Node9_2 -->
<g id="node5" class="node">
<title>Node9_2</title>
<ellipse fill="#40e0d0" stroke="#40e0d0" cx="834.6" cy="-279" rx="69.59" ry="18"/>
<text text-anchor="middle" x="834.6" y="-275.3" font-family="Times,serif" font-size="14.00">बलैः(9.2)</text>
</g>
<!-- Node10_3&#45;&gt;Node9_2 -->
<g id="edge12" class="edge">
<title>Node10_3&#45;&gt;Node9_2</title>
<path fill="none" stroke="black" d="M840.71,-220.27C839.3,-233.58 837.65,-249.19 836.41,-260.82"/>
<polygon fill="black" stroke="black" points="844.2,-220.51 841.78,-210.2 837.24,-219.78 844.2,-220.51"/>
<text text-anchor="middle" x="897.1" y="-231.8" font-family="Times,serif" font-size="14.00">विशेषणम्</text>
</g>
<!-- Node9_2&#45;&gt;Node8_1 -->
<g id="edge9" class="edge">
<title>Node9_2&#45;&gt;Node8_1</title>
<path fill="none" stroke="black" d="M834.6,-307.27C834.6,-320.58 834.6,-336.19 834.6,-347.82"/>
<polygon fill="black" stroke="black" points="838.1,-307.2 834.6,-297.2 831.1,-307.2 838.1,-307.2"/>
<text text-anchor="middle" x="870.6" y="-318.8" font-family="Times,serif" font-size="14.00">करणम्</text>
</g>
<!-- Node1_1 -->
<g id="node6" class="node">
<title>Node1_1</title>
<ellipse fill="#ff99ff" stroke="#ff99ff" cx="41.6" cy="-453" rx="41.69" ry="18"/>
<text text-anchor="middle" x="41.6" y="-449.3" font-family="Times,serif" font-size="14.00">न(1.1)</text>
</g>
<!-- Node1_1&#45;&gt;Node5_1 -->
<g id="edge1" class="edge">
<title>Node1_1&#45;&gt;Node5_1</title>
<path fill="none" stroke="black" d="M76.06,-471.93C99.09,-483.07 130.4,-496.62 159.6,-504 222.11,-519.79 294.92,-528.79 347.9,-533.7"/>
<polygon fill="black" stroke="black" points="77.56,-468.77 67.05,-467.49 74.47,-475.05 77.56,-468.77"/>
<text text-anchor="middle" x="224.1" y="-492.8" font-family="Times,serif" font-size="14.00">प्रतिषेधः</text>
</g>
<!-- Node3_1 -->
<g id="node8" class="node">
<title>Node3_1</title>
<ellipse fill="#40e0d0" stroke="#40e0d0" cx="190.6" cy="-453" rx="87.99" ry="18"/>
<text text-anchor="middle" x="190.6" y="-449.3" font-family="Times,serif" font-size="14.00">अन्येन(3.1)</text>
</g>
<!-- Node3_1&#45;&gt;Node5_1 -->
<g id="edge3" class="edge">
<title>Node3_1&#45;&gt;Node5_1</title>
<path fill="none" stroke="black" d="M240.93,-472.52C283.28,-488.1 343.01,-510.08 382.01,-524.43"/>
<polygon fill="black" stroke="black" points="241.96,-469.17 231.36,-469 239.54,-475.74 241.96,-469.17"/>
<text text-anchor="middle" x="356.6" y="-492.8" font-family="Times,serif" font-size="14.00">कर्ता</text>
</g>
<!-- Node6_1 -->
<g id="node9" class="node">
<title>Node6_1</title>
<ellipse fill="#ff99ff" stroke="#ff99ff" cx="421.6" cy="-453" rx="124.58" ry="18"/>
<text text-anchor="middle" x="421.6" y="-449.3" font-family="Times,serif" font-size="14.00">धर्षयितुम्(6.1)</text>
</g>
<!-- Node6_1&#45;&gt;Node5_1 -->
<g id="edge5" class="edge">
<title>Node6_1&#45;&gt;Node5_1</title>
<path fill="none" stroke="black" d="M421.6,-481.27C421.6,-494.58 421.6,-510.19 421.6,-521.82"/>
<polygon fill="black" stroke="black" points="425.1,-481.2 421.6,-471.2 418.1,-481.2 425.1,-481.2"/>
<text text-anchor="middle" x="490.6" y="-492.8" font-family="Times,serif" font-size="14.00">प्रयोजनम्1</text>
</g>
<!-- Node7_1 -->
<g id="node10" class="node">
<title>Node7_1</title>
<ellipse fill="#b4ffb4" stroke="#b4ffb4" cx="642.6" cy="-453" rx="78.79" ry="18"/>
<text text-anchor="middle" x="642.6" y="-449.3" font-family="Times,serif" font-size="14.00">बलात्(7.1)</text>
</g>
<!-- Node7_1&#45;&gt;Node5_1 -->
<g id="edge6" class="edge">
<title>Node7_1&#45;&gt;Node5_1</title>
<path fill="none" stroke="black" d="M612.46,-476.32C598.23,-485.98 580.66,-496.73 563.6,-504 537.9,-514.95 508.07,-522.95 482.4,-528.52"/>
<polygon fill="black" stroke="black" points="614.64,-479.06 620.85,-470.48 610.64,-473.32 614.64,-479.06"/>
<text text-anchor="middle" x="632.1" y="-492.8" font-family="Times,serif" font-size="14.00">हेतुः5</text>
</g>
<!-- Node9_1 -->
<g id="node11" class="node">
<title>Node9_1</title>
<ellipse fill="#ffff00" stroke="#ffff00" cx="1036.6" cy="-192" rx="72.29" ry="18"/>
<text text-anchor="middle" x="1036.6" y="-188.3" font-family="Times,serif" font-size="14.00">रावण&#45;(9.1)</text>
</g>
<!-- Node9_1&#45;&gt;Node9_2 -->
<g id="edge8" class="edge">
<title>Node9_1&#45;&gt;Node9_2</title>
<path fill="none" stroke="black" d="M1006.76,-215.07C992.7,-224.69 975.36,-235.46 958.6,-243 935.75,-253.27 909.16,-261.26 886.47,-266.99"/>
<polygon fill="black" stroke="black" points="1008.87,-217.87 1015.06,-209.27 1004.86,-212.13 1008.87,-217.87"/>
<text text-anchor="middle" x="1088.1" y="-231.8" font-family="Times,serif" font-size="14.00">षष्ठी_तत्पुरुषः</text>
</g>
<!-- Node10_1 -->
<g id="node12" class="node">
<title>Node10_1</title>
<ellipse fill="#ffff00" stroke="#ffff00" cx="843.6" cy="-18" rx="87.18" ry="18"/>
<text text-anchor="middle" x="843.6" y="-14.3" font-family="Times,serif" font-size="14.00">उद्यत&#45;(10.1)</text>
</g>
<!-- Node10_2 -->
<g id="node13" class="node">
<title>Node10_2</title>
<ellipse fill="#ffff00" stroke="#ffff00" cx="843.6" cy="-105" rx="77.99" ry="18"/>
<text text-anchor="middle" x="843.6" y="-101.3" font-family="Times,serif" font-size="14.00">आयुध&#45;(10.2)</text>
</g>
<!-- Node10_1&#45;&gt;Node10_2 -->
<g id="edge10" class="edge">
<title>Node10_1&#45;&gt;Node10_2</title>
<path fill="none" stroke="black" d="M843.6,-46.27C843.6,-59.58 843.6,-75.19 843.6,-86.82"/>
<polygon fill="black" stroke="black" points="847.1,-46.2 843.6,-36.2 840.1,-46.2 847.1,-46.2"/>
<text text-anchor="middle" x="908.1" y="-57.8" font-family="Times,serif" font-size="14.00">कर्मधारयः</text>
</g>
<!-- Node10_2&#45;&gt;Node10_3 -->
<g id="edge11" class="edge">
<title>Node10_2&#45;&gt;Node10_3</title>
<path fill="none" stroke="black" d="M843.6,-133.27C843.6,-146.58 843.6,-162.19 843.6,-173.82"/>
<polygon fill="black" stroke="black" points="847.1,-133.2 843.6,-123.2 840.1,-133.2 847.1,-133.2"/>
<text text-anchor="middle" x="915.1" y="-144.8" font-family="Times,serif" font-size="14.00">बहुव्रीहिः</text>
</g>
</g>
</svg>
