<?xml version="1.0" encoding="UTF-8" standalone="no"?>
<!DOCTYPE svg PUBLIC "-//W3C//DTD SVG 1.1//EN"
 "http://www.w3.org/Graphics/SVG/1.1/DTD/svg11.dtd">
<!-- Generated by graphviz version 2.43.0 (0)
 -->
<!-- Title: G Pages: 1 -->
<svg width="3060pt" height="392pt"
 viewBox="0.00 0.00 3059.59 392.00" xmlns="http://www.w3.org/2000/svg" xmlns:xlink="http://www.w3.org/1999/xlink">
<g id="graph0" class="graph" transform="scale(1 1) rotate(0) translate(4 388)">
<title>G</title>
<polygon fill="#fffacd" stroke="transparent" points="-4,4 -4,-388 3055.59,-388 3055.59,4 -4,4"/>
<g id="clust1" class="cluster">
<title>cluster_1</title>
<polygon fill="#fffacd" stroke="black" points="864.59,-79 864.59,-218 3005.59,-218 3005.59,-79 864.59,-79"/>
</g>
<g id="clust2" class="cluster">
<title>cluster_2</title>
<polygon fill="#fffacd" stroke="black" points="300.59,-79 300.59,-218 540.59,-218 540.59,-79 300.59,-79"/>
</g>
<!-- Node5_2 -->
<g id="node1" class="node">
<title>Node5_2</title>
<ellipse fill="#00bfff" stroke="#00bfff" cx="960.59" cy="-105" rx="87.99" ry="18"/>
<text text-anchor="middle" x="960.59" y="-101.3" font-family="Times,serif" font-size="14.00">आत्मजः(5.2)</text>
</g>
<!-- Node4_1 -->
<g id="node2" class="node">
<title>Node4_1</title>
<ellipse fill="#00bfff" stroke="#00bfff" cx="1743.59" cy="-192" rx="96.68" ry="18"/>
<text text-anchor="middle" x="1743.59" y="-188.3" font-family="Times,serif" font-size="14.00">हनूमान्(4.1)</text>
</g>
<!-- Node5_2&#45;&gt;Node4_1 -->
<g id="edge7" class="edge">
<title>Node5_2&#45;&gt;Node4_1</title>
<path fill="none" stroke="black" d="M1025.11,-121.34C1075.37,-132.69 1147.03,-147.59 1210.59,-156 1362.97,-176.15 1541.47,-184.88 1648.38,-188.53"/>
<polygon fill="black" stroke="black" points="1025.88,-117.93 1015.35,-119.12 1024.33,-124.75 1025.88,-117.93"/>
<text text-anchor="middle" x="1268.09" y="-144.8" font-family="Times,serif" font-size="14.00">विशेषणम्</text>
</g>
<!-- Node18_1 -->
<g id="node18" class="node">
<title>Node18_1</title>
<ellipse fill="#ff1975" stroke="#ff1975" cx="601.59" cy="-366" rx="93.68" ry="18"/>
<text text-anchor="middle" x="601.59" y="-362.3" font-family="Times,serif" font-size="14.00">आबभाषे(18.1)</text>
</g>
<!-- Node4_1&#45;&gt;Node18_1 -->
<g id="edge4" class="edge">
<title>Node4_1&#45;&gt;Node18_1</title>
<path fill="none" stroke="black" d="M1660.9,-205.45C1446.25,-237.78 873.98,-323.97 672.77,-354.28"/>
<polygon fill="black" stroke="black" points="1661.48,-208.91 1670.85,-203.96 1660.44,-201.98 1661.48,-208.91"/>
<text text-anchor="middle" x="1321.59" y="-275.3" font-family="Times,serif" font-size="14.00">कर्ता</text>
</g>
<!-- Node16_1 -->
<g id="node19" class="node">
<title>Node16_1</title>
<ellipse fill="#ff99ff" stroke="#ff99ff" cx="491.59" cy="-279" rx="112.38" ry="18"/>
<text text-anchor="middle" x="491.59" y="-275.3" font-family="Times,serif" font-size="14.00">दृष्ट्वा(16.1)</text>
</g>
<!-- Node4_1&#45;&gt;Node16_1 -->
<g id="edge5" class="edge">
<title>Node4_1&#45;&gt;Node16_1</title>
<path fill="none" stroke="black" stroke-dasharray="1,5" d="M1638.98,-196.51C1439.14,-203.83 989.42,-223.26 612.59,-261 598.77,-262.38 584.09,-264.17 569.91,-266.07"/>
<polygon fill="black" stroke="black" points="1639.31,-200 1649.18,-196.14 1639.06,-193 1639.31,-200"/>
<text text-anchor="middle" x="1051.59" y="-231.8" font-family="Times,serif" font-size="14.00">कर्ता</text>
</g>
<!-- Node6_1 -->
<g id="node3" class="node">
<title>Node6_1</title>
<ellipse fill="#00bfff" stroke="#00bfff" cx="2722.59" cy="-105" rx="106.68" ry="18"/>
<text text-anchor="middle" x="2722.59" y="-101.3" font-family="Times,serif" font-size="14.00">यत्नवान्(6.1)</text>
</g>
<!-- Node6_1&#45;&gt;Node4_1 -->
<g id="edge8" class="edge">
<title>Node6_1&#45;&gt;Node4_1</title>
<path fill="none" stroke="black" d="M2675.34,-125.54C2646.24,-136.61 2607.88,-149.51 2572.59,-156 2434.81,-181.35 2027.86,-188.38 1840.28,-190.3"/>
<polygon fill="black" stroke="black" points="2676.77,-128.74 2684.83,-121.86 2674.24,-122.21 2676.77,-128.74"/>
<text text-anchor="middle" x="2684.09" y="-144.8" font-family="Times,serif" font-size="14.00">विशेषणम्</text>
</g>
<!-- Node7_1 -->
<g id="node4" class="node">
<title>Node7_1</title>
<ellipse fill="#00bfff" stroke="#00bfff" cx="2547.59" cy="-105" rx="50.89" ry="18"/>
<text text-anchor="middle" x="2547.59" y="-101.3" font-family="Times,serif" font-size="14.00">सः(7.1)</text>
</g>
<!-- Node7_1&#45;&gt;Node4_1 -->
<g id="edge9" class="edge">
<title>Node7_1&#45;&gt;Node4_1</title>
<path fill="none" stroke="black" d="M2507.32,-123.05C2478.23,-134.54 2437.69,-148.84 2400.59,-156 2296,-176.17 1995.11,-185.53 1839.44,-189.12"/>
<polygon fill="black" stroke="black" points="2508.75,-126.25 2516.72,-119.28 2506.14,-119.76 2508.75,-126.25"/>
<text text-anchor="middle" x="2511.09" y="-144.8" font-family="Times,serif" font-size="14.00">विशेषणम्</text>
</g>
<!-- Node8_2 -->
<g id="node5" class="node">
<title>Node8_2</title>
<ellipse fill="#00bfff" stroke="#00bfff" cx="1656.59" cy="-105" rx="106.68" ry="18"/>
<text text-anchor="middle" x="1656.59" y="-101.3" font-family="Times,serif" font-size="14.00">श्रेष्ठः(8.2)</text>
</g>
<!-- Node8_2&#45;&gt;Node4_1 -->
<g id="edge11" class="edge">
<title>Node8_2&#45;&gt;Node4_1</title>
<path fill="none" stroke="black" d="M1669.1,-132.11C1673.84,-140.35 1679.76,-149.1 1686.59,-156 1693.78,-163.26 1702.76,-169.67 1711.45,-174.95"/>
<polygon fill="black" stroke="black" points="1672.09,-130.29 1664.27,-123.14 1665.93,-133.61 1672.09,-130.29"/>
<text text-anchor="middle" x="1744.09" y="-144.8" font-family="Times,serif" font-size="14.00">विशेषणम्</text>
</g>
<!-- Node9_1 -->
<g id="node6" class="node">
<title>Node9_1</title>
<ellipse fill="#00bfff" stroke="#00bfff" cx="2168.59" cy="-105" rx="87.99" ry="18"/>
<text text-anchor="middle" x="2168.59" y="-101.3" font-family="Times,serif" font-size="14.00">स्थितः(9.1)</text>
</g>
<!-- Node9_1&#45;&gt;Node4_1 -->
<g id="edge12" class="edge">
<title>Node9_1&#45;&gt;Node4_1</title>
<path fill="none" stroke="black" d="M2135.17,-127.6C2117.54,-137.93 2095.15,-149.45 2073.59,-156 1997.25,-179.2 1906.92,-187.55 1840.08,-190.31"/>
<polygon fill="black" stroke="black" points="2137.15,-130.49 2143.92,-122.34 2133.54,-124.49 2137.15,-130.49"/>
<text text-anchor="middle" x="2166.09" y="-144.8" font-family="Times,serif" font-size="14.00">विशेषणम्</text>
</g>
<!-- Node12_1 -->
<g id="node7" class="node">
<title>Node12_1</title>
<ellipse fill="#00bfff" stroke="#00bfff" cx="1987.59" cy="-105" rx="75.29" ry="18"/>
<text text-anchor="middle" x="1987.59" y="-101.3" font-family="Times,serif" font-size="14.00">अपरः(12.1)</text>
</g>
<!-- Node12_1&#45;&gt;Node4_1 -->
<g id="edge15" class="edge">
<title>Node12_1&#45;&gt;Node4_1</title>
<path fill="none" stroke="black" d="M1966.91,-130.38C1957.66,-139.79 1946.03,-149.77 1933.59,-156 1902.7,-171.48 1865.91,-180.17 1832.97,-185.02"/>
<polygon fill="black" stroke="black" points="1969.51,-132.73 1973.8,-123.04 1964.4,-127.94 1969.51,-132.73"/>
<text text-anchor="middle" x="2012.09" y="-144.8" font-family="Times,serif" font-size="14.00">विशेषणम्</text>
</g>
<!-- Node13_1 -->
<g id="node8" class="node">
<title>Node13_1</title>
<ellipse fill="#00bfff" stroke="#00bfff" cx="1837.59" cy="-105" rx="56.59" ry="18"/>
<text text-anchor="middle" x="1837.59" y="-101.3" font-family="Times,serif" font-size="14.00">सः(13.1)</text>
</g>
<!-- Node13_1&#45;&gt;Node4_1 -->
<g id="edge16" class="edge">
<title>Node13_1&#45;&gt;Node4_1</title>
<path fill="none" stroke="black" d="M1822.18,-131.52C1816.37,-139.91 1809.29,-148.9 1801.59,-156 1793.81,-163.18 1784.33,-169.63 1775.31,-174.99"/>
<polygon fill="black" stroke="black" points="1825.15,-133.37 1827.74,-123.09 1819.31,-129.51 1825.15,-133.37"/>
<text text-anchor="middle" x="1872.09" y="-144.8" font-family="Times,serif" font-size="14.00">विशेषणम्</text>
</g>
<!-- Node17_2 -->
<g id="node9" class="node">
<title>Node17_2</title>
<ellipse fill="#00bfff" stroke="#00bfff" cx="2376.59" cy="-105" rx="102.88" ry="18"/>
<text text-anchor="middle" x="2376.59" y="-101.3" font-family="Times,serif" font-size="14.00">पुङ्गवः(17.2)</text>
</g>
<!-- Node17_2&#45;&gt;Node4_1 -->
<g id="edge23" class="edge">
<title>Node17_2&#45;&gt;Node4_1</title>
<path fill="none" stroke="black" d="M2328.99,-125.39C2300.15,-136.27 2262.32,-149.03 2227.59,-156 2095.22,-182.55 1938.92,-189.58 1840.51,-191.12"/>
<polygon fill="black" stroke="black" points="2330.33,-128.62 2338.42,-121.78 2327.83,-122.09 2330.33,-128.62"/>
<text text-anchor="middle" x="2339.09" y="-144.8" font-family="Times,serif" font-size="14.00">विशेषणम्</text>
</g>
<!-- Node20_1 -->
<g id="node10" class="node">
<title>Node20_1</title>
<ellipse fill="#00bfff" stroke="#00bfff" cx="1438.59" cy="-105" rx="93.68" ry="18"/>
<text text-anchor="middle" x="1438.59" y="-101.3" font-family="Times,serif" font-size="14.00">मेधावी(20.1)</text>
</g>
<!-- Node20_1&#45;&gt;Node4_1 -->
<g id="edge25" class="edge">
<title>Node20_1&#45;&gt;Node4_1</title>
<path fill="none" stroke="black" d="M1479.73,-126.21C1501.79,-136.37 1529.69,-148.16 1555.59,-156 1591.81,-166.97 1633.06,-175.11 1667.67,-180.76"/>
<polygon fill="black" stroke="black" points="1481.2,-123.04 1470.66,-121.98 1478.23,-129.38 1481.2,-123.04"/>
<text text-anchor="middle" x="1613.09" y="-144.8" font-family="Times,serif" font-size="14.00">विशेषणम्</text>
</g>
<!-- Node21_1 -->
<g id="node11" class="node">
<title>Node21_1</title>
<ellipse fill="#00bfff" stroke="#00bfff" cx="1196.59" cy="-105" rx="130.78" ry="18"/>
<text text-anchor="middle" x="1196.59" y="-101.3" font-family="Times,serif" font-size="14.00">सत्त्ववान्(21.1)</text>
</g>
<!-- Node21_1&#45;&gt;Node4_1 -->
<g id="edge26" class="edge">
<title>Node21_1&#45;&gt;Node4_1</title>
<path fill="none" stroke="black" d="M1259.3,-124.15C1298.47,-134.87 1350.11,-147.89 1396.59,-156 1483.08,-171.09 1582.92,-180.32 1653.23,-185.48"/>
<polygon fill="black" stroke="black" points="1260.19,-120.77 1249.62,-121.48 1258.33,-127.52 1260.19,-120.77"/>
<text text-anchor="middle" x="1454.09" y="-144.8" font-family="Times,serif" font-size="14.00">विशेषणम्</text>
</g>
<!-- Node22_2 -->
<g id="node12" class="node">
<title>Node22_2</title>
<ellipse fill="#00bfff" stroke="#00bfff" cx="2922.59" cy="-105" rx="75.29" ry="18"/>
<text text-anchor="middle" x="2922.59" y="-101.3" font-family="Times,serif" font-size="14.00">ऋषभः(22.2)</text>
</g>
<!-- Node22_2&#45;&gt;Node4_1 -->
<g id="edge28" class="edge">
<title>Node22_2&#45;&gt;Node4_1</title>
<path fill="none" stroke="black" d="M2872.9,-123.5C2837.81,-135 2789.42,-149.15 2745.59,-156 2573.19,-182.96 2056.2,-189.16 1840.15,-190.58"/>
<polygon fill="black" stroke="black" points="2874.05,-126.81 2882.43,-120.34 2871.84,-120.17 2874.05,-126.81"/>
<text text-anchor="middle" x="2867.09" y="-144.8" font-family="Times,serif" font-size="14.00">विशेषणम्</text>
</g>
<!-- Node14_1 -->
<g id="node13" class="node">
<title>Node14_1</title>
<ellipse fill="#93db70" stroke="#93db70" cx="417.59" cy="-105" rx="75.29" ry="18"/>
<text text-anchor="middle" x="417.59" y="-101.3" font-family="Times,serif" font-size="14.00">ताम्(14.1)</text>
</g>
<!-- Node15_3 -->
<g id="node14" class="node">
<title>Node15_3</title>
<ellipse fill="#93db70" stroke="#93db70" cx="420.59" cy="-192" rx="112.38" ry="18"/>
<text text-anchor="middle" x="420.59" y="-188.3" font-family="Times,serif" font-size="14.00">विकृताम्(15.3)</text>
</g>
<!-- Node14_1&#45;&gt;Node15_3 -->
<g id="edge17" class="edge">
<title>Node14_1&#45;&gt;Node15_3</title>
<path fill="none" stroke="black" d="M418.55,-133.27C419.02,-146.58 419.57,-162.19 419.98,-173.82"/>
<polygon fill="black" stroke="black" points="422.05,-133.07 418.2,-123.2 415.05,-133.32 422.05,-133.07"/>
<text text-anchor="middle" x="476.09" y="-144.8" font-family="Times,serif" font-size="14.00">विशेषणम्</text>
</g>
<!-- Node15_3&#45;&gt;Node16_1 -->
<g id="edge20" class="edge">
<title>Node15_3&#45;&gt;Node16_1</title>
<path fill="none" stroke="black" d="M441.45,-217.97C453.05,-231.86 467.19,-248.78 477.49,-261.11"/>
<polygon fill="black" stroke="black" points="444.06,-215.63 434.96,-210.2 438.68,-220.12 444.06,-215.63"/>
<text text-anchor="middle" x="488.59" y="-231.8" font-family="Times,serif" font-size="14.00">कर्म</text>
</g>
<!-- Node1_1 -->
<g id="node15" class="node">
<title>Node1_1</title>
<ellipse fill="#87ceeb" stroke="#87ceeb" cx="106.59" cy="-105" rx="106.68" ry="18"/>
<text text-anchor="middle" x="106.59" y="-101.3" font-family="Times,serif" font-size="14.00">लङ्कायाः(1.1)</text>
</g>
<!-- Node2_1 -->
<g id="node16" class="node">
<title>Node2_1</title>
<ellipse fill="#93db70" stroke="#93db70" cx="187.59" cy="-192" rx="78.79" ry="18"/>
<text text-anchor="middle" x="187.59" y="-188.3" font-family="Times,serif" font-size="14.00">वचनम्(2.1)</text>
</g>
<!-- Node1_1&#45;&gt;Node2_1 -->
<g id="edge1" class="edge">
<title>Node1_1&#45;&gt;Node2_1</title>
<path fill="none" stroke="black" d="M103.75,-133.25C104.19,-141.18 106,-149.46 110.59,-156 117.42,-165.74 127.64,-172.81 138.42,-177.94"/>
<polygon fill="black" stroke="black" points="107.25,-133.24 103.85,-123.21 100.25,-133.17 107.25,-133.24"/>
<text text-anchor="middle" x="203.59" y="-144.8" font-family="Times,serif" font-size="14.00">षष्ठीसम्बन्धः</text>
</g>
<!-- Node3_1 -->
<g id="node17" class="node">
<title>Node3_1</title>
<ellipse fill="#ff99ff" stroke="#ff99ff" cx="244.59" cy="-279" rx="106.68" ry="18"/>
<text text-anchor="middle" x="244.59" y="-275.3" font-family="Times,serif" font-size="14.00">श्रुत्वा(3.1)</text>
</g>
<!-- Node2_1&#45;&gt;Node3_1 -->
<g id="edge2" class="edge">
<title>Node2_1&#45;&gt;Node3_1</title>
<path fill="none" stroke="black" d="M204.82,-218.7C213.97,-232.34 224.96,-248.73 233.07,-260.82"/>
<polygon fill="black" stroke="black" points="207.6,-216.56 199.13,-210.2 201.79,-220.46 207.6,-216.56"/>
<text text-anchor="middle" x="248.59" y="-231.8" font-family="Times,serif" font-size="14.00">कर्म</text>
</g>
<!-- Node3_1&#45;&gt;Node18_1 -->
<g id="edge3" class="edge">
<title>Node3_1&#45;&gt;Node18_1</title>
<path fill="none" stroke="black" d="M286.85,-300.45C309.69,-310.73 338.66,-322.56 365.59,-330 415.4,-343.76 472.7,-352.42 518.37,-357.68"/>
<polygon fill="black" stroke="black" points="288.01,-297.13 277.46,-296.16 285.1,-303.5 288.01,-297.13"/>
<text text-anchor="middle" x="430.09" y="-318.8" font-family="Times,serif" font-size="14.00">पूर्वकालः</text>
</g>
<!-- Node16_1&#45;&gt;Node18_1 -->
<g id="edge21" class="edge">
<title>Node16_1&#45;&gt;Node18_1</title>
<path fill="none" stroke="black" d="M496.09,-306.96C498.61,-315.2 502.51,-323.73 508.59,-330 517.95,-339.67 530.24,-346.69 542.81,-351.79"/>
<polygon fill="black" stroke="black" points="499.48,-306.09 493.67,-297.23 492.69,-307.78 499.48,-306.09"/>
<text text-anchor="middle" x="573.09" y="-318.8" font-family="Times,serif" font-size="14.00">पूर्वकालः</text>
</g>
<!-- Node5_1 -->
<g id="node20" class="node">
<title>Node5_1</title>
<ellipse fill="#ffff00" stroke="#ffff00" cx="980.59" cy="-18" rx="81.49" ry="18"/>
<text text-anchor="middle" x="980.59" y="-14.3" font-family="Times,serif" font-size="14.00">मारुत&#45;(5.1)</text>
</g>
<!-- Node5_1&#45;&gt;Node5_2 -->
<g id="edge6" class="edge">
<title>Node5_1&#45;&gt;Node5_2</title>
<path fill="none" stroke="black" d="M974.17,-46.27C971.04,-59.58 967.37,-75.19 964.63,-86.82"/>
<polygon fill="black" stroke="black" points="977.66,-46.74 976.54,-36.2 970.85,-45.13 977.66,-46.74"/>
<text text-anchor="middle" x="1075.09" y="-57.8" font-family="Times,serif" font-size="14.00">षष्ठी_तत्पुरुषः</text>
</g>
<!-- Node8_1 -->
<g id="node21" class="node">
<title>Node8_1</title>
<ellipse fill="#ffff00" stroke="#ffff00" cx="1656.59" cy="-18" rx="63.09" ry="18"/>
<text text-anchor="middle" x="1656.59" y="-14.3" font-family="Times,serif" font-size="14.00">हरि&#45;(8.1)</text>
</g>
<!-- Node8_1&#45;&gt;Node8_2 -->
<g id="edge10" class="edge">
<title>Node8_1&#45;&gt;Node8_2</title>
<path fill="none" stroke="black" d="M1656.59,-46.27C1656.59,-59.58 1656.59,-75.19 1656.59,-86.82"/>
<polygon fill="black" stroke="black" points="1660.09,-46.2 1656.59,-36.2 1653.09,-46.2 1660.09,-46.2"/>
<text text-anchor="middle" x="1767.09" y="-57.8" font-family="Times,serif" font-size="14.00">सप्तमी_तत्पुरुषः</text>
</g>
<!-- Node10_1 -->
<g id="node22" class="node">
<title>Node10_1</title>
<ellipse fill="#00bfff" stroke="#00bfff" cx="779.59" cy="-105" rx="75.29" ry="18"/>
<text text-anchor="middle" x="779.59" y="-101.3" font-family="Times,serif" font-size="14.00">शैलः(10.1)</text>
</g>
<!-- Node10_1&#45;&gt;Node4_1 -->
<g id="edge13" class="edge">
<title>Node10_1&#45;&gt;Node4_1</title>
<path fill="none" stroke="black" d="M838.52,-121.17C886.2,-132.78 955.26,-148.11 1016.59,-156 1240.93,-184.88 1506.98,-190.48 1646.73,-191.24"/>
<polygon fill="black" stroke="black" points="839.22,-117.74 828.68,-118.76 837.55,-124.54 839.22,-117.74"/>
<text text-anchor="middle" x="1066.59" y="-144.8" font-family="Times,serif" font-size="14.00">उपमानम्</text>
</g>
<!-- Node11_1 -->
<g id="node23" class="node">
<title>Node11_1</title>
<ellipse fill="#ff99ff" stroke="#ff99ff" cx="779.59" cy="-18" rx="56.59" ry="18"/>
<text text-anchor="middle" x="779.59" y="-14.3" font-family="Times,serif" font-size="14.00">इव(11.1)</text>
</g>
<!-- Node11_1&#45;&gt;Node10_1 -->
<g id="edge14" class="edge">
<title>Node11_1&#45;&gt;Node10_1</title>
<path fill="none" stroke="black" d="M779.59,-46.27C779.59,-59.58 779.59,-75.19 779.59,-86.82"/>
<polygon fill="black" stroke="black" points="783.09,-46.2 779.59,-36.2 776.09,-46.2 783.09,-46.2"/>
<text text-anchor="middle" x="868.59" y="-57.8" font-family="Times,serif" font-size="14.00">उपमान_द्योतकः</text>
</g>
<!-- Node15_1 -->
<g id="node24" class="node">
<title>Node15_1</title>
<ellipse fill="#ffff00" stroke="#ffff00" cx="549.59" cy="-18" rx="96.68" ry="18"/>
<text text-anchor="middle" x="549.59" y="-14.3" font-family="Times,serif" font-size="14.00">स्त्री&#45;(15.1)</text>
</g>
<!-- Node15_2 -->
<g id="node25" class="node">
<title>Node15_2</title>
<ellipse fill="#ffff00" stroke="#ffff00" cx="617.59" cy="-105" rx="68.79" ry="18"/>
<text text-anchor="middle" x="617.59" y="-101.3" font-family="Times,serif" font-size="14.00">रूप&#45;(15.2)</text>
</g>
<!-- Node15_1&#45;&gt;Node15_2 -->
<g id="edge18" class="edge">
<title>Node15_1&#45;&gt;Node15_2</title>
<path fill="none" stroke="black" d="M556.49,-45.73C559.38,-53.73 563.33,-62.17 568.59,-69 574.34,-76.45 582.1,-82.99 589.75,-88.33"/>
<polygon fill="black" stroke="black" points="559.76,-44.45 553.38,-36 553.09,-46.59 559.76,-44.45"/>
<text text-anchor="middle" x="672.09" y="-57.8" font-family="Times,serif" font-size="14.00">षष्ठी_तत्पुरुषः</text>
</g>
<!-- Node15_2&#45;&gt;Node15_3 -->
<g id="edge19" class="edge">
<title>Node15_2&#45;&gt;Node15_3</title>
<path fill="none" stroke="black" d="M586.86,-127.91C572.42,-137.5 554.65,-148.29 537.59,-156 519.33,-164.25 498.61,-171.18 479.73,-176.64"/>
<polygon fill="black" stroke="black" points="589.08,-130.64 595.4,-122.14 585.15,-124.85 589.08,-130.64"/>
<text text-anchor="middle" x="636.09" y="-144.8" font-family="Times,serif" font-size="14.00">बहुव्रीहिः</text>
</g>
<!-- Node17_1 -->
<g id="node26" class="node">
<title>Node17_1</title>
<ellipse fill="#ffff00" stroke="#ffff00" cx="2376.59" cy="-18" rx="77.99" ry="18"/>
<text text-anchor="middle" x="2376.59" y="-14.3" font-family="Times,serif" font-size="14.00">वानर&#45;(17.1)</text>
</g>
<!-- Node17_1&#45;&gt;Node17_2 -->
<g id="edge22" class="edge">
<title>Node17_1&#45;&gt;Node17_2</title>
<path fill="none" stroke="black" d="M2376.59,-46.27C2376.59,-59.58 2376.59,-75.19 2376.59,-86.82"/>
<polygon fill="black" stroke="black" points="2380.09,-46.2 2376.59,-36.2 2373.09,-46.2 2380.09,-46.2"/>
<text text-anchor="middle" x="2487.09" y="-57.8" font-family="Times,serif" font-size="14.00">सप्तमी_तत्पुरुषः</text>
</g>
<!-- Node19_1 -->
<g id="node27" class="node">
<title>Node19_1</title>
<ellipse fill="#ff99ff" stroke="#ff99ff" cx="678.59" cy="-279" rx="56.59" ry="18"/>
<text text-anchor="middle" x="678.59" y="-275.3" font-family="Times,serif" font-size="14.00">अथ(19.1)</text>
</g>
<!-- Node19_1&#45;&gt;Node18_1 -->
<g id="edge24" class="edge">
<title>Node19_1&#45;&gt;Node18_1</title>
<path fill="none" stroke="black" d="M661.62,-305.12C655.64,-313.35 648.65,-322.34 641.59,-330 635.71,-336.38 628.76,-342.79 622.31,-348.35"/>
<polygon fill="black" stroke="black" points="664.51,-307.09 667.44,-296.91 658.8,-303.05 664.51,-307.09"/>
<text text-anchor="middle" x="711.09" y="-318.8" font-family="Times,serif" font-size="14.00">सम्बन्धः</text>
</g>
<!-- Node22_1 -->
<g id="node28" class="node">
<title>Node22_1</title>
<ellipse fill="#ffff00" stroke="#ffff00" cx="2922.59" cy="-18" rx="87.18" ry="18"/>
<text text-anchor="middle" x="2922.59" y="-14.3" font-family="Times,serif" font-size="14.00">प्लवग&#45;(22.1)</text>
</g>
<!-- Node22_1&#45;&gt;Node22_2 -->
<g id="edge27" class="edge">
<title>Node22_1&#45;&gt;Node22_2</title>
<path fill="none" stroke="black" d="M2922.59,-46.27C2922.59,-59.58 2922.59,-75.19 2922.59,-86.82"/>
<polygon fill="black" stroke="black" points="2926.09,-46.2 2922.59,-36.2 2919.09,-46.2 2926.09,-46.2"/>
<text text-anchor="middle" x="2987.09" y="-57.8" font-family="Times,serif" font-size="14.00">कर्मधारयः</text>
</g>
</g>
</svg>
