<?xml version="1.0" encoding="UTF-8" standalone="no"?>
<!DOCTYPE svg PUBLIC "-//W3C//DTD SVG 1.1//EN"
 "http://www.w3.org/Graphics/SVG/1.1/DTD/svg11.dtd">
<!-- Generated by graphviz version 2.43.0 (0)
 -->
<!-- Title: G Pages: 1 -->
<svg width="1652pt" height="392pt"
 viewBox="0.00 0.00 1652.00 392.00" xmlns="http://www.w3.org/2000/svg" xmlns:xlink="http://www.w3.org/1999/xlink">
<g id="graph0" class="graph" transform="scale(1 1) rotate(0) translate(4 388)">
<title>G</title>
<polygon fill="#fffacd" stroke="transparent" points="-4,4 -4,-388 1648,-388 1648,4 -4,4"/>
<g id="clust1" class="cluster">
<title>cluster_1</title>
<polygon fill="#fffacd" stroke="black" points="575,-166 575,-305 1459,-305 1459,-166 575,-166"/>
</g>
<g id="clust2" class="cluster">
<title>cluster_2</title>
<polygon fill="#fffacd" stroke="black" points="8,-166 8,-305 182,-305 182,-166 8,-166"/>
</g>
<!-- Node1_3 -->
<g id="node1" class="node">
<title>Node1_3</title>
<ellipse fill="#40e0d0" stroke="#40e0d0" cx="671" cy="-192" rx="87.99" ry="18"/>
<text text-anchor="middle" x="671" y="-188.3" font-family="Times,serif" font-size="14.00">निनदैः(1.3)</text>
</g>
<!-- Node3_3 -->
<g id="node2" class="node">
<title>Node3_3</title>
<ellipse fill="#40e0d0" stroke="#40e0d0" cx="902" cy="-279" rx="96.68" ry="18"/>
<text text-anchor="middle" x="902" y="-275.3" font-family="Times,serif" font-size="14.00">निकाशैः(3.3)</text>
</g>
<!-- Node1_3&#45;&gt;Node3_3 -->
<g id="edge3" class="edge">
<title>Node1_3&#45;&gt;Node3_3</title>
<path fill="none" stroke="black" d="M707.99,-214.25C725.98,-223.97 748.18,-235.06 769,-243 792.09,-251.81 818.25,-259.22 841.22,-264.92"/>
<polygon fill="black" stroke="black" points="709.44,-211.06 698.99,-209.32 706.08,-217.2 709.44,-211.06"/>
<text text-anchor="middle" x="833.5" y="-231.8" font-family="Times,serif" font-size="14.00">समुच्चितः</text>
</g>
<!-- Node9_1 -->
<g id="node14" class="node">
<title>Node9_1</title>
<ellipse fill="#ff1975" stroke="#ff1975" cx="381" cy="-366" rx="78.79" ry="18"/>
<text text-anchor="middle" x="381" y="-362.3" font-family="Times,serif" font-size="14.00">बभासे(9.1)</text>
</g>
<!-- Node3_3&#45;&gt;Node9_1 -->
<g id="edge9" class="edge">
<title>Node3_3&#45;&gt;Node9_1</title>
<path fill="none" stroke="black" d="M821.58,-293.12C717.33,-310.13 537.73,-339.43 443.25,-354.84"/>
<polygon fill="black" stroke="black" points="822.43,-296.53 831.74,-291.46 821.3,-289.62 822.43,-296.53"/>
<text text-anchor="middle" x="709" y="-318.8" font-family="Times,serif" font-size="14.00">करणम्</text>
</g>
<!-- Node2_3 -->
<g id="node3" class="node">
<title>Node2_3</title>
<ellipse fill="#40e0d0" stroke="#40e0d0" cx="902" cy="-192" rx="124.58" ry="18"/>
<text text-anchor="middle" x="902" y="-188.3" font-family="Times,serif" font-size="14.00">पुरस्कृतैः(2.3)</text>
</g>
<!-- Node2_3&#45;&gt;Node3_3 -->
<g id="edge6" class="edge">
<title>Node2_3&#45;&gt;Node3_3</title>
<path fill="none" stroke="black" d="M902,-220.27C902,-233.58 902,-249.19 902,-260.82"/>
<polygon fill="black" stroke="black" points="905.5,-220.2 902,-210.2 898.5,-220.2 905.5,-220.2"/>
<text text-anchor="middle" x="966.5" y="-231.8" font-family="Times,serif" font-size="14.00">समुच्चितः</text>
</g>
<!-- Node5_3 -->
<g id="node4" class="node">
<title>Node5_3</title>
<ellipse fill="#40e0d0" stroke="#40e0d0" cx="1160" cy="-192" rx="115.88" ry="18"/>
<text text-anchor="middle" x="1160" y="-188.3" font-family="Times,serif" font-size="14.00">विभूषितैः(5.3)</text>
</g>
<!-- Node5_3&#45;&gt;Node3_3 -->
<g id="edge13" class="edge">
<title>Node5_3&#45;&gt;Node3_3</title>
<path fill="none" stroke="black" d="M1113.92,-213.01C1090.54,-222.76 1061.53,-234.24 1035,-243 1010.63,-251.05 983.27,-258.51 959.74,-264.46"/>
<polygon fill="black" stroke="black" points="1115.39,-216.19 1123.25,-209.09 1112.67,-209.74 1115.39,-216.19"/>
<text text-anchor="middle" x="1138.5" y="-231.8" font-family="Times,serif" font-size="14.00">समुच्चितः</text>
</g>
<!-- Node6_2 -->
<g id="node5" class="node">
<title>Node6_2</title>
<ellipse fill="#40e0d0" stroke="#40e0d0" cx="1372" cy="-192" rx="78.79" ry="18"/>
<text text-anchor="middle" x="1372" y="-188.3" font-family="Times,serif" font-size="14.00">मेघैः(6.2)</text>
</g>
<!-- Node6_2&#45;&gt;Node3_3 -->
<g id="edge15" class="edge">
<title>Node6_2&#45;&gt;Node3_3</title>
<path fill="none" stroke="black" d="M1321.82,-210.78C1289.43,-221.61 1246.18,-234.88 1207,-243 1135.24,-257.86 1052.58,-266.86 991.42,-272"/>
<polygon fill="black" stroke="black" points="1323.15,-214.02 1331.5,-207.51 1320.91,-207.39 1323.15,-214.02"/>
<text text-anchor="middle" x="1326.5" y="-231.8" font-family="Times,serif" font-size="14.00">समुच्चितः</text>
</g>
<!-- Node8_1 -->
<g id="node6" class="node">
<title>Node8_1</title>
<ellipse fill="#00bfff" stroke="#00bfff" cx="95" cy="-192" rx="78.79" ry="18"/>
<text text-anchor="middle" x="95" y="-188.3" font-family="Times,serif" font-size="14.00">रम्या(8.1)</text>
</g>
<!-- Node7_1 -->
<g id="node7" class="node">
<title>Node7_1</title>
<ellipse fill="#00bfff" stroke="#00bfff" cx="104" cy="-279" rx="69.59" ry="18"/>
<text text-anchor="middle" x="104" y="-275.3" font-family="Times,serif" font-size="14.00">पुरी(7.1)</text>
</g>
<!-- Node8_1&#45;&gt;Node7_1 -->
<g id="edge17" class="edge">
<title>Node8_1&#45;&gt;Node7_1</title>
<path fill="none" stroke="black" d="M97.64,-220.09C98.38,-227.52 99.2,-235.57 100,-243 100.63,-248.84 101.34,-255.22 102,-260.92"/>
<polygon fill="black" stroke="black" points="101.12,-219.74 96.65,-210.13 94.15,-220.43 101.12,-219.74"/>
<text text-anchor="middle" x="157.5" y="-231.8" font-family="Times,serif" font-size="14.00">विशेषणम्</text>
</g>
<!-- Node7_1&#45;&gt;Node9_1 -->
<g id="edge16" class="edge">
<title>Node7_1&#45;&gt;Node9_1</title>
<path fill="none" stroke="black" d="M156.67,-296.16C208.58,-312.09 287.04,-336.17 336.08,-351.22"/>
<polygon fill="black" stroke="black" points="157.56,-292.78 146.98,-293.19 155.51,-299.47 157.56,-292.78"/>
<text text-anchor="middle" x="296" y="-318.8" font-family="Times,serif" font-size="14.00">कर्ता</text>
</g>
<!-- Node1_1 -->
<g id="node8" class="node">
<title>Node1_1</title>
<ellipse fill="#ffff00" stroke="#ffff00" cx="668" cy="-18" rx="72.29" ry="18"/>
<text text-anchor="middle" x="668" y="-14.3" font-family="Times,serif" font-size="14.00">हसित&#45;(1.1)</text>
</g>
<!-- Node1_2 -->
<g id="node9" class="node">
<title>Node1_2</title>
<ellipse fill="#ffff00" stroke="#ffff00" cx="671" cy="-105" rx="109.38" ry="18"/>
<text text-anchor="middle" x="671" y="-101.3" font-family="Times,serif" font-size="14.00">उत्कृष्ट&#45;(1.2)</text>
</g>
<!-- Node1_1&#45;&gt;Node1_2 -->
<g id="edge1" class="edge">
<title>Node1_1&#45;&gt;Node1_2</title>
<path fill="none" stroke="black" d="M668.36,-46.34C668.51,-53.7 668.72,-61.66 669,-69 669.23,-74.84 669.56,-81.22 669.9,-86.92"/>
<polygon fill="black" stroke="black" points="671.86,-46.07 668.19,-36.13 664.86,-46.19 671.86,-46.07"/>
<text text-anchor="middle" x="779.5" y="-57.8" font-family="Times,serif" font-size="14.00">तृतीया_तत्पुरुषः</text>
</g>
<!-- Node1_2&#45;&gt;Node1_3 -->
<g id="edge2" class="edge">
<title>Node1_2&#45;&gt;Node1_3</title>
<path fill="none" stroke="black" d="M671,-133.27C671,-146.58 671,-162.19 671,-173.82"/>
<polygon fill="black" stroke="black" points="674.5,-133.2 671,-123.2 667.5,-133.2 674.5,-133.2"/>
<text text-anchor="middle" x="735.5" y="-144.8" font-family="Times,serif" font-size="14.00">कर्मधारयः</text>
</g>
<!-- Node2_1 -->
<g id="node10" class="node">
<title>Node2_1</title>
<ellipse fill="#ffff00" stroke="#ffff00" cx="912" cy="-18" rx="81.49" ry="18"/>
<text text-anchor="middle" x="912" y="-14.3" font-family="Times,serif" font-size="14.00">तूर्य&#45;(2.1)</text>
</g>
<!-- Node2_2 -->
<g id="node11" class="node">
<title>Node2_2</title>
<ellipse fill="#ffff00" stroke="#ffff00" cx="906" cy="-105" rx="63.09" ry="18"/>
<text text-anchor="middle" x="906" y="-101.3" font-family="Times,serif" font-size="14.00">घोष&#45;(2.2)</text>
</g>
<!-- Node2_1&#45;&gt;Node2_2 -->
<g id="edge4" class="edge">
<title>Node2_1&#45;&gt;Node2_2</title>
<path fill="none" stroke="black" d="M910.08,-46.27C909.14,-59.58 908.03,-75.19 907.21,-86.82"/>
<polygon fill="black" stroke="black" points="913.57,-46.42 910.79,-36.2 906.59,-45.93 913.57,-46.42"/>
<text text-anchor="middle" x="1013.5" y="-57.8" font-family="Times,serif" font-size="14.00">षष्ठी_तत्पुरुषः</text>
</g>
<!-- Node2_2&#45;&gt;Node2_3 -->
<g id="edge5" class="edge">
<title>Node2_2&#45;&gt;Node2_3</title>
<path fill="none" stroke="black" d="M904.72,-133.27C904.09,-146.58 903.36,-162.19 902.81,-173.82"/>
<polygon fill="black" stroke="black" points="908.22,-133.35 905.19,-123.2 901.22,-133.03 908.22,-133.35"/>
<text text-anchor="middle" x="1015.5" y="-144.8" font-family="Times,serif" font-size="14.00">तृतीया_तत्पुरुषः</text>
</g>
<!-- Node3_1 -->
<g id="node12" class="node">
<title>Node3_1</title>
<ellipse fill="#ffff00" stroke="#ffff00" cx="472" cy="-105" rx="72.29" ry="18"/>
<text text-anchor="middle" x="472" y="-101.3" font-family="Times,serif" font-size="14.00">वज्र&#45;(3.1)</text>
</g>
<!-- Node3_2 -->
<g id="node13" class="node">
<title>Node3_2</title>
<ellipse fill="#ffff00" stroke="#ffff00" cx="473" cy="-192" rx="90.98" ry="18"/>
<text text-anchor="middle" x="473" y="-188.3" font-family="Times,serif" font-size="14.00">अङ्कुश&#45;(3.2)</text>
</g>
<!-- Node3_1&#45;&gt;Node3_2 -->
<g id="edge7" class="edge">
<title>Node3_1&#45;&gt;Node3_2</title>
<path fill="none" stroke="black" d="M472.32,-133.27C472.48,-146.58 472.66,-162.19 472.8,-173.82"/>
<polygon fill="black" stroke="black" points="475.82,-133.16 472.2,-123.2 468.82,-133.24 475.82,-133.16"/>
<text text-anchor="middle" x="537.5" y="-144.8" font-family="Times,serif" font-size="14.00">द्वन्द्वः</text>
</g>
<!-- Node3_2&#45;&gt;Node3_3 -->
<g id="edge8" class="edge">
<title>Node3_2&#45;&gt;Node3_3</title>
<path fill="none" stroke="black" d="M512.62,-213.55C534.56,-224.03 562.66,-236.02 589,-243 661.01,-262.09 745.03,-270.78 807.88,-274.72"/>
<polygon fill="black" stroke="black" points="514.14,-210.4 503.62,-209.17 511.08,-216.69 514.14,-210.4"/>
<text text-anchor="middle" x="660.5" y="-231.8" font-family="Times,serif" font-size="14.00">बहुव्रीहिः</text>
</g>
<!-- Node4_1 -->
<g id="node15" class="node">
<title>Node4_1</title>
<ellipse fill="#ff99ff" stroke="#ff99ff" cx="1510" cy="-192" rx="41.69" ry="18"/>
<text text-anchor="middle" x="1510" y="-188.3" font-family="Times,serif" font-size="14.00">च(4.1)</text>
</g>
<!-- Node4_1&#45;&gt;Node3_3 -->
<g id="edge10" class="edge">
<title>Node4_1&#45;&gt;Node3_3</title>
<path fill="none" stroke="black" d="M1476.22,-211.32C1453.85,-222.53 1423.49,-236.01 1395,-243 1322.03,-260.9 1118.19,-270.69 996.67,-275.09"/>
<polygon fill="black" stroke="black" points="1477.98,-214.35 1485.29,-206.68 1474.79,-208.12 1477.98,-214.35"/>
<text text-anchor="middle" x="1540.5" y="-231.8" font-family="Times,serif" font-size="14.00">समुच्चय_द्योतकः</text>
</g>
<!-- Node5_1 -->
<g id="node16" class="node">
<title>Node5_1</title>
<ellipse fill="#ffff00" stroke="#ffff00" cx="1155" cy="-18" rx="72.29" ry="18"/>
<text text-anchor="middle" x="1155" y="-14.3" font-family="Times,serif" font-size="14.00">वज्र&#45;(5.1)</text>
</g>
<!-- Node5_2 -->
<g id="node17" class="node">
<title>Node5_2</title>
<ellipse fill="#ffff00" stroke="#ffff00" cx="1155" cy="-105" rx="63.09" ry="18"/>
<text text-anchor="middle" x="1155" y="-101.3" font-family="Times,serif" font-size="14.00">जाल&#45;(5.2)</text>
</g>
<!-- Node5_1&#45;&gt;Node5_2 -->
<g id="edge11" class="edge">
<title>Node5_1&#45;&gt;Node5_2</title>
<path fill="none" stroke="black" d="M1155,-46.27C1155,-59.58 1155,-75.19 1155,-86.82"/>
<polygon fill="black" stroke="black" points="1158.5,-46.2 1155,-36.2 1151.5,-46.2 1158.5,-46.2"/>
<text text-anchor="middle" x="1219.5" y="-57.8" font-family="Times,serif" font-size="14.00">तत्पुरुषः</text>
</g>
<!-- Node5_2&#45;&gt;Node5_3 -->
<g id="edge12" class="edge">
<title>Node5_2&#45;&gt;Node5_3</title>
<path fill="none" stroke="black" d="M1155.08,-133.36C1155.23,-140.72 1155.51,-148.67 1156,-156 1156.39,-161.86 1157.05,-168.24 1157.73,-173.94"/>
<polygon fill="black" stroke="black" points="1158.58,-133.09 1154.95,-123.14 1151.58,-133.19 1158.58,-133.09"/>
<text text-anchor="middle" x="1266.5" y="-144.8" font-family="Times,serif" font-size="14.00">तृतीया_तत्पुरुषः</text>
</g>
<!-- Node6_1 -->
<g id="node18" class="node">
<title>Node6_1</title>
<ellipse fill="#ffff00" stroke="#ffff00" cx="1399" cy="-105" rx="63.09" ry="18"/>
<text text-anchor="middle" x="1399" y="-101.3" font-family="Times,serif" font-size="14.00">गृह&#45;(6.1)</text>
</g>
<!-- Node6_1&#45;&gt;Node6_2 -->
<g id="edge14" class="edge">
<title>Node6_1&#45;&gt;Node6_2</title>
<path fill="none" stroke="black" d="M1390.46,-132.87C1386.21,-146.27 1381.19,-162.08 1377.46,-173.82"/>
<polygon fill="black" stroke="black" points="1393.84,-133.79 1393.54,-123.2 1387.17,-131.67 1393.84,-133.79"/>
<text text-anchor="middle" x="1490.5" y="-144.8" font-family="Times,serif" font-size="14.00">षष्ठी_तत्पुरुषः</text>
</g>
<!-- Node10_1 -->
<g id="node19" class="node">
<title>Node10_1</title>
<ellipse fill="#00bfff" stroke="#00bfff" cx="276" cy="-192" rx="84.49" ry="18"/>
<text text-anchor="middle" x="276" y="-188.3" font-family="Times,serif" font-size="14.00">द्यौः(10.1)</text>
</g>
<!-- Node10_1&#45;&gt;Node7_1 -->
<g id="edge18" class="edge">
<title>Node10_1&#45;&gt;Node7_1</title>
<path fill="none" stroke="black" d="M251.56,-216.66C240.98,-225.89 228.05,-235.94 215,-243 196.16,-253.19 173.89,-260.95 154.27,-266.53"/>
<polygon fill="black" stroke="black" points="254.07,-219.11 259.15,-209.82 249.38,-213.91 254.07,-219.11"/>
<text text-anchor="middle" x="287" y="-231.8" font-family="Times,serif" font-size="14.00">उपमानम्</text>
</g>
<!-- Node11_1 -->
<g id="node20" class="node">
<title>Node11_1</title>
<ellipse fill="#ff99ff" stroke="#ff99ff" cx="272" cy="-105" rx="56.59" ry="18"/>
<text text-anchor="middle" x="272" y="-101.3" font-family="Times,serif" font-size="14.00">इव(11.1)</text>
</g>
<!-- Node11_1&#45;&gt;Node10_1 -->
<g id="edge19" class="edge">
<title>Node11_1&#45;&gt;Node10_1</title>
<path fill="none" stroke="black" d="M273.28,-133.27C273.91,-146.58 274.64,-162.19 275.19,-173.82"/>
<polygon fill="black" stroke="black" points="276.78,-133.03 272.81,-123.2 269.78,-133.35 276.78,-133.03"/>
<text text-anchor="middle" x="364" y="-144.8" font-family="Times,serif" font-size="14.00">उपमान_द्योतकः</text>
</g>
<!-- Node12_1 -->
<g id="node21" class="node">
<title>Node12_1</title>
<ellipse fill="#40e0d0" stroke="#40e0d0" cx="381" cy="-279" rx="112.38" ry="18"/>
<text text-anchor="middle" x="381" y="-275.3" font-family="Times,serif" font-size="14.00">अम्बुदैः(12.1)</text>
</g>
<!-- Node12_1&#45;&gt;Node9_1 -->
<g id="edge20" class="edge">
<title>Node12_1&#45;&gt;Node9_1</title>
<path fill="none" stroke="black" d="M381,-307.27C381,-320.58 381,-336.19 381,-347.82"/>
<polygon fill="black" stroke="black" points="384.5,-307.2 381,-297.2 377.5,-307.2 384.5,-307.2"/>
<text text-anchor="middle" x="417" y="-318.8" font-family="Times,serif" font-size="14.00">करणम्</text>
</g>
</g>
</svg>
