<svg xmlns="http://www.w3.org/2000/svg" xmlns:xlink="http://www.w3.org/1999/xlink" width="1404" height="392pt" viewBox="0 0 1053 392"><g id="graph0" class="graph" transform="scale(1 1) rotate(0) translate(4 388)"><title>G</title><polygon fill="#fffacd" stroke="transparent" points="-4 4 -4 -388 1049 -388 1049 4 -4 4"/><g id="clust1" class="cluster"><title>cluster_1</title><polygon fill="#fffacd" stroke="#000" points="452 -166 452 -305 856 -305 856 -166 452 -166"/></g><g id="clust2" class="cluster"><title>cluster_2</title><polygon fill="#fffacd" stroke="#000" points="8 -166 8 -305 164 -305 164 -166 8 -166"/></g><g id="node1" class="node"><title>Node1_3</title><ellipse cx="557" cy="-192" fill="#93db70" stroke="#93db70" rx="96.68" ry="18"/><text x="557" y="-188.3" font-family="Times,serif" font-size="14" text-anchor="middle">आयुधान्(1.3)</text></g><g id="node2" class="node"><title>Node5_3</title><ellipse cx="557" cy="-279" fill="#93db70" stroke="#93db70" rx="96.68" ry="18"/><text x="557" y="-275.3" font-family="Times,serif" font-size="14" text-anchor="middle">हस्तान्(5.3)</text></g><g id="edge3" class="edge"><title>Node1_3-&gt;Node5_3</title><path fill="none" stroke="#000" d="M557,-220.27C557,-233.58 557,-249.19 557,-260.82"/><polygon fill="#000" stroke="#000" points="560.5 -220.2 557 -210.2 553.5 -220.2 560.5 -220.2"/><text x="621.5" y="-231.8" font-family="Times,serif" font-size="14" text-anchor="middle">समुच्चितः</text></g><g id="node14" class="node"><title>Node7_1</title><ellipse cx="308" cy="-366" fill="#ff1975" stroke="#ff1975" rx="78.79" ry="18"/><text x="308" y="-362.3" font-family="Times,serif" font-size="14" text-anchor="middle">ददर्श(7.1)</text></g><g id="edge11" class="edge"><title>Node5_3-&gt;Node7_1</title><path fill="none" stroke="#000" d="M509.49,-299.34C485.02,-309.02 454.6,-320.65 427,-330 403.95,-337.81 378.07,-345.54 356.34,-351.75"/><polygon fill="#000" stroke="#000" points="510.9 -302.54 518.9 -295.59 508.32 -296.04 510.9 -302.54"/><text x="496" y="-318.8" font-family="Times,serif" font-size="14" text-anchor="middle">कर्म</text></g><g id="node3" class="node"><title>Node4_3</title><ellipse cx="760" cy="-192" fill="#93db70" stroke="#93db70" rx="87.99" ry="18"/><text x="760" y="-188.3" font-family="Times,serif" font-size="14" text-anchor="middle">धारिणः(4.3)</text></g><g id="edge8" class="edge"><title>Node4_3-&gt;Node5_3</title><path fill="none" stroke="#000" d="M732.62,-216.09C720.25,-225.56 705.05,-235.94 690,-243 668.93,-252.89 644.61,-260.32 622.58,-265.74"/><polygon fill="#000" stroke="#000" points="735 -218.67 740.69 -209.73 730.67 -213.17 735 -218.67"/><text x="779.5" y="-231.8" font-family="Times,serif" font-size="14" text-anchor="middle">समुच्चितः</text></g><g id="node4" class="node"><title>Node8_1</title><ellipse cx="67" cy="-192" fill="#00bfff" stroke="#00bfff" rx="50.89" ry="18"/><text x="67" y="-188.3" font-family="Times,serif" font-size="14" text-anchor="middle">सः(8.1)</text></g><g id="node5" class="node"><title>Node9_2</title><ellipse cx="86" cy="-279" fill="#00bfff" stroke="#00bfff" rx="69.59" ry="18"/><text x="86" y="-275.3" font-family="Times,serif" font-size="14" text-anchor="middle">कपिः(9.2)</text></g><g id="edge13" class="edge"><title>Node8_1-&gt;Node9_2</title><path fill="none" stroke="#000" d="M73.09,-220.27C76.07,-233.58 79.56,-249.19 82.16,-260.82"/><polygon fill="#000" stroke="#000" points="76.44 -219.2 70.84 -210.2 69.61 -220.72 76.44 -219.2"/><text x="135.5" y="-231.8" font-family="Times,serif" font-size="14" text-anchor="middle">विशेषणम्</text></g><g id="edge15" class="edge"><title>Node9_2-&gt;Node7_1</title><path fill="none" stroke="#000" d="M132.55,-297.82C173.09,-313.34 231.17,-335.58 269.23,-350.15"/><polygon fill="#000" stroke="#000" points="133.75 -294.53 123.16 -294.23 131.25 -301.07 133.75 -294.53"/><text x="247" y="-318.8" font-family="Times,serif" font-size="14" text-anchor="middle">कर्ता</text></g><g id="node6" class="node"><title>Node1_1</title><ellipse cx="481" cy="-18" fill="#ff0" stroke="#ff0" rx="81.49" ry="18"/><text x="481" y="-14.3" font-family="Times,serif" font-size="14" text-anchor="middle">शक्ति-(1.1)</text></g><g id="node7" class="node"><title>Node1_2</title><ellipse cx="481" cy="-105" fill="#ff0" stroke="#ff0" rx="81.49" ry="18"/><text x="481" y="-101.3" font-family="Times,serif" font-size="14" text-anchor="middle">वृक्ष-(1.2)</text></g><g id="edge1" class="edge"><title>Node1_1-&gt;Node1_2</title><path fill="none" stroke="#000" d="M481,-46.27C481,-59.58 481,-75.19 481,-86.82"/><polygon fill="#000" stroke="#000" points="484.5 -46.2 481 -36.2 477.5 -46.2 484.5 -46.2"/><text x="545.5" y="-57.8" font-family="Times,serif" font-size="14" text-anchor="middle">द्वन्द्वः</text></g><g id="edge2" class="edge"><title>Node1_2-&gt;Node1_3</title><path fill="none" stroke="#000" d="M471.34,-132.8C470.09,-140.8 470.53,-149.23 475,-156 481.14,-165.3 490.32,-172.14 500.33,-177.16"/><polygon fill="#000" stroke="#000" points="474.75 -133.59 473.66 -123.05 467.94 -131.97 474.75 -133.59"/><text x="546.5" y="-144.8" font-family="Times,serif" font-size="14" text-anchor="middle">बहुव्रीहिः</text></g><g id="node8" class="node"><title>Node2_1</title><ellipse cx="640" cy="-105" fill="#f9f" stroke="#f9f" rx="41.69" ry="18"/><text x="640" y="-101.3" font-family="Times,serif" font-size="14" text-anchor="middle">च(2.1)</text></g><g id="edge4" class="edge"><title>Node2_1-&gt;Node1_3</title><path fill="none" stroke="#000" d="M631.86,-132.8C628.49,-140.9 623.95,-149.38 618,-156 611.14,-163.63 602.22,-170.02 593.32,-175.16"/><polygon fill="#000" stroke="#000" points="635.2 -133.87 635.41 -123.28 628.64 -131.43 635.2 -133.87"/><text x="731.5" y="-144.8" font-family="Times,serif" font-size="14" text-anchor="middle">समुच्चय_द्योतकः</text></g><g id="node9" class="node"><title>Node3_1</title><ellipse cx="640" cy="-18" fill="#f9f" stroke="#f9f" rx="50.89" ry="18"/><text x="640" y="-14.3" font-family="Times,serif" font-size="14" text-anchor="middle">एव(3.1)</text></g><g id="edge5" class="edge"><title>Node3_1-&gt;Node2_1</title><path fill="none" stroke="#000" d="M640,-46.27C640,-59.58 640,-75.19 640,-86.82"/><polygon fill="#000" stroke="#000" points="643.5 -46.2 640 -36.2 636.5 -46.2 643.5 -46.2"/><text x="697.5" y="-57.8" font-family="Times,serif" font-size="14" text-anchor="middle">सम्बन्धः</text></g><g id="node10" class="node"><title>Node4_1</title><ellipse cx="870" cy="-18" fill="#ff0" stroke="#ff0" rx="90.98" ry="18"/><text x="870" y="-14.3" font-family="Times,serif" font-size="14" text-anchor="middle">पट्टिश-(4.1)</text></g><g id="node11" class="node"><title>Node4_2</title><ellipse cx="870" cy="-105" fill="#ff0" stroke="#ff0" rx="72.29" ry="18"/><text x="870" y="-101.3" font-family="Times,serif" font-size="14" text-anchor="middle">अशनि-(4.2)</text></g><g id="edge6" class="edge"><title>Node4_1-&gt;Node4_2</title><path fill="none" stroke="#000" d="M870,-46.27C870,-59.58 870,-75.19 870,-86.82"/><polygon fill="#000" stroke="#000" points="873.5 -46.2 870 -36.2 866.5 -46.2 873.5 -46.2"/><text x="934.5" y="-57.8" font-family="Times,serif" font-size="14" text-anchor="middle">द्वन्द्वः</text></g><g id="edge7" class="edge"><title>Node4_2-&gt;Node4_3</title><path fill="none" stroke="#000" d="M857.84,-132.01C852.91,-140.49 846.58,-149.4 839,-156 829.27,-164.47 817.16,-171.2 805.37,-176.4"/><polygon fill="#000" stroke="#000" points="860.97 -133.58 862.62 -123.12 854.8 -130.27 860.97 -133.58"/><text x="948.5" y="-144.8" font-family="Times,serif" font-size="14" text-anchor="middle">उपपद_तत्पुरुषः</text></g><g id="node12" class="node"><title>Node5_1</title><ellipse cx="282" cy="-105" fill="#ff0" stroke="#ff0" rx="100.18" ry="18"/><text x="282" y="-101.3" font-family="Times,serif" font-size="14" text-anchor="middle">क्षेपणी-(5.1)</text></g><g id="node13" class="node"><title>Node5_2</title><ellipse cx="379" cy="-192" fill="#ff0" stroke="#ff0" rx="63.09" ry="18"/><text x="379" y="-188.3" font-family="Times,serif" font-size="14" text-anchor="middle">पाश-(5.2)</text></g><g id="edge9" class="edge"><title>Node5_1-&gt;Node5_2</title><path fill="none" stroke="#000" d="M308.1,-129.52C317.49,-137.92 328.18,-147.43 338,-156 345.05,-162.16 352.85,-168.84 359.73,-174.71"/><polygon fill="#000" stroke="#000" points="310.36 -126.84 300.57 -122.77 305.68 -132.05 310.36 -126.84"/><text x="402.5" y="-144.8" font-family="Times,serif" font-size="14" text-anchor="middle">द्वन्द्वः</text></g><g id="edge10" class="edge"><title>Node5_2-&gt;Node5_3</title><path fill="none" stroke="#000" d="M390.29,-219.45C395.19,-228.11 401.73,-237.03 410,-243 428.51,-256.35 451.42,-264.67 473.6,-269.83"/><polygon fill="#000" stroke="#000" points="393.29 -217.62 385.62 -210.3 387.05 -220.8 393.29 -217.62"/><text x="481.5" y="-231.8" font-family="Times,serif" font-size="14" text-anchor="middle">बहुव्रीहिः</text></g><g id="node15" class="node"><title>Node6_1</title><ellipse cx="308" cy="-279" fill="#f9f" stroke="#f9f" rx="41.69" ry="18"/><text x="308" y="-275.3" font-family="Times,serif" font-size="14" text-anchor="middle">च(6.1)</text></g><g id="edge12" class="edge"><title>Node6_1-&gt;Node7_1</title><path fill="none" stroke="#000" d="M308,-307.27C308,-320.58 308,-336.19 308,-347.82"/><polygon fill="#000" stroke="#000" points="311.5 -307.2 308 -297.2 304.5 -307.2 311.5 -307.2"/><text x="365.5" y="-318.8" font-family="Times,serif" font-size="14" text-anchor="middle">सम्बन्धः</text></g><g id="node16" class="node"><title>Node9_1</title><ellipse cx="235" cy="-192" fill="#ff0" stroke="#ff0" rx="63.09" ry="18"/><text x="235" y="-188.3" font-family="Times,serif" font-size="14" text-anchor="middle">महा-(9.1)</text></g><g id="edge14" class="edge"><title>Node9_1-&gt;Node9_2</title><path fill="none" stroke="#000" d="M220.16,-218.56C213.98,-227.36 206.1,-236.6 197,-243 180.39,-254.69 159.72,-262.59 140.73,-267.88"/><polygon fill="#000" stroke="#000" points="223.2 -220.31 225.77 -210.03 217.35 -216.47 223.2 -220.31"/><text x="277.5" y="-231.8" font-family="Times,serif" font-size="14" text-anchor="middle">कर्मधारयः</text></g></g></svg>