<svg xmlns="http://www.w3.org/2000/svg" xmlns:xlink="http://www.w3.org/1999/xlink" width="1548" height="479pt" viewBox="0 0 1161 479"><g id="graph0" class="graph" transform="scale(1 1) rotate(0) translate(4 475)"><title>G</title><polygon fill="#fffacd" stroke="transparent" points="-4 4 -4 -475 1157 -475 1157 4 -4 4"/><g id="clust1" class="cluster"><title>cluster_1</title><polygon fill="#fffacd" stroke="#000" points="8 -166 8 -305 218 -305 218 -166 8 -166"/></g><g id="clust2" class="cluster"><title>cluster_2</title><polygon fill="#fffacd" stroke="#000" points="226 -166 226 -305 436 -305 436 -166 226 -166"/></g><g id="clust3" class="cluster"><title>cluster_3</title><polygon fill="#fffacd" stroke="#000" points="444 -253 444 -392 636 -392 636 -253 444 -253"/></g><g id="node1" class="node"><title>Node2_1</title><ellipse cx="104" cy="-192" fill="#93db70" stroke="#93db70" rx="87.99" ry="18"/><text x="104" y="-188.3" font-family="Times,serif" font-size="14" text-anchor="middle">नगरीम्(2.1)</text></g><g id="node2" class="node"><title>Node3_1</title><ellipse cx="113" cy="-279" fill="#93db70" stroke="#93db70" rx="96.68" ry="18"/><text x="113" y="-275.3" font-family="Times,serif" font-size="14" text-anchor="middle">लङ्काम्(3.1)</text></g><g id="edge2" class="edge"><title>Node2_1-&gt;Node3_1</title><path fill="none" stroke="#000" d="M105.1,-220.38C105.54,-227.74 106.16,-235.69 107,-243 107.68,-248.88 108.69,-255.27 109.69,-260.96"/><polygon fill="#000" stroke="#000" points="108.58 -219.97 104.56 -210.17 101.59 -220.33 108.58 -219.97"/><text x="164.5" y="-231.8" font-family="Times,serif" font-size="14" text-anchor="middle">विशेषणम्</text></g><g id="node7" class="node"><title>Node1_1</title><ellipse cx="220" cy="-366" fill="#f9f" stroke="#f9f" rx="106.68" ry="18"/><text x="220" y="-362.3" font-family="Times,serif" font-size="14" text-anchor="middle">प्रविश्य(1.1)</text></g><g id="edge3" class="edge"><title>Node3_1-&gt;Node1_1</title><path fill="none" stroke="#000" d="M141.76,-302.85C159.73,-317.12 182.48,-335.19 198.8,-348.16"/><polygon fill="#000" stroke="#000" points="143.89 -300.07 133.88 -296.59 139.54 -305.55 143.89 -300.07"/><text x="202" y="-318.8" font-family="Times,serif" font-size="14" text-anchor="middle">कर्म</text></g><g id="node3" class="node"><title>Node4_3</title><ellipse cx="331" cy="-192" fill="#00bfff" stroke="#00bfff" rx="96.68" ry="18"/><text x="331" y="-188.3" font-family="Times,serif" font-size="14" text-anchor="middle">हितंकरः(4.3)</text></g><g id="node4" class="node"><title>Node11_1</title><ellipse cx="339" cy="-279" fill="#00bfff" stroke="#00bfff" rx="56.59" ry="18"/><text x="339" y="-275.3" font-family="Times,serif" font-size="14" text-anchor="middle">सः(11.1)</text></g><g id="edge6" class="edge"><title>Node4_3-&gt;Node11_1</title><path fill="none" stroke="#000" d="M333.57,-220.27C334.82,-233.58 336.29,-249.19 337.38,-260.82"/><polygon fill="#000" stroke="#000" points="337.04 -219.83 332.62 -210.2 330.07 -220.49 337.04 -219.83"/><text x="393.5" y="-231.8" font-family="Times,serif" font-size="14" text-anchor="middle">विशेषणम्</text></g><g id="edge13" class="edge"><title>Node11_1-&gt;Node1_1</title><path fill="none" stroke="#000" stroke-dasharray="1 5" d="M301.79,-299.84C293.77,-304.54 285.46,-309.72 278,-315 263.79,-325.07 248.93,-337.92 237.81,-348.08"/><polygon fill="#000" stroke="#000" points="303.73 -302.77 310.68 -294.77 300.26 -296.69 303.73 -302.77"/><text x="314" y="-318.8" font-family="Times,serif" font-size="14" text-anchor="middle">कर्ता</text></g><g id="node8" class="node"><title>Node5_1</title><ellipse cx="626" cy="-453" fill="#ff1975" stroke="#ff1975" rx="78.79" ry="18"/><text x="626" y="-449.3" font-family="Times,serif" font-size="14" text-anchor="middle">चक्रे(5.1)</text></g><g id="edge12" class="edge"><title>Node11_1-&gt;Node5_1</title><path fill="none" stroke="#000" d="M347.64,-306.79C348.47,-309.55 349.27,-312.33 350,-315 359.28,-348.9 343.13,-367.16 368,-392 394.27,-418.24 490.08,-435.25 557.23,-444.24"/><polygon fill="#000" stroke="#000" points="350.92 -305.54 344.63 -297.01 344.23 -307.6 350.92 -305.54"/><text x="404" y="-362.3" font-family="Times,serif" font-size="14" text-anchor="middle">कर्ता</text></g><g id="node5" class="node"><title>Node8_1</title><ellipse cx="540" cy="-279" fill="#93db70" stroke="#93db70" rx="87.99" ry="18"/><text x="540" y="-275.3" font-family="Times,serif" font-size="14" text-anchor="middle">सव्यम्(8.1)</text></g><g id="node6" class="node"><title>Node7_1</title><ellipse cx="540" cy="-366" fill="#93db70" stroke="#93db70" rx="78.79" ry="18"/><text x="540" y="-362.3" font-family="Times,serif" font-size="14" text-anchor="middle">पादम्(7.1)</text></g><g id="edge9" class="edge"><title>Node8_1-&gt;Node7_1</title><path fill="none" stroke="#000" d="M540,-307.27C540,-320.58 540,-336.19 540,-347.82"/><polygon fill="#000" stroke="#000" points="543.5 -307.2 540 -297.2 536.5 -307.2 543.5 -307.2"/><text x="597.5" y="-318.8" font-family="Times,serif" font-size="14" text-anchor="middle">विशेषणम्</text></g><g id="edge8" class="edge"><title>Node7_1-&gt;Node5_1</title><path fill="none" stroke="#000" d="M564.11,-390.83C578.42,-404.97 596.21,-422.56 609.04,-435.24"/><polygon fill="#000" stroke="#000" points="566.56 -388.33 556.99 -383.79 561.64 -393.31 566.56 -388.33"/><text x="618" y="-405.8" font-family="Times,serif" font-size="14" text-anchor="middle">कर्म</text></g><g id="edge1" class="edge"><title>Node1_1-&gt;Node5_1</title><path fill="none" stroke="#000" d="M214,-394.51C213.8,-402.68 215.41,-411.03 221,-417 242.82,-440.32 436.24,-448.16 547.7,-450.75"/><polygon fill="#000" stroke="#000" points="217.49 -394.77 215.05 -384.46 210.53 -394.04 217.49 -394.77"/><text x="285.5" y="-405.8" font-family="Times,serif" font-size="14" text-anchor="middle">पूर्वकालः</text></g><g id="node9" class="node"><title>Node4_1</title><ellipse cx="331" cy="-18" fill="#ff0" stroke="#ff0" rx="63.09" ry="18"/><text x="331" y="-14.3" font-family="Times,serif" font-size="14" text-anchor="middle">कपि-(4.1)</text></g><g id="node10" class="node"><title>Node4_2</title><ellipse cx="331" cy="-105" fill="#ff0" stroke="#ff0" rx="63.09" ry="18"/><text x="331" y="-101.3" font-family="Times,serif" font-size="14" text-anchor="middle">राज-(4.2)</text></g><g id="edge4" class="edge"><title>Node4_1-&gt;Node4_2</title><path fill="none" stroke="#000" d="M331,-46.27C331,-59.58 331,-75.19 331,-86.82"/><polygon fill="#000" stroke="#000" points="334.5 -46.2 331 -36.2 327.5 -46.2 334.5 -46.2"/><text x="434.5" y="-57.8" font-family="Times,serif" font-size="14" text-anchor="middle">षष्ठी_तत्पुरुषः</text></g><g id="edge5" class="edge"><title>Node4_2-&gt;Node4_3</title><path fill="none" stroke="#000" d="M331,-133.27C331,-146.58 331,-162.19 331,-173.82"/><polygon fill="#000" stroke="#000" points="334.5 -133.2 331 -123.2 327.5 -133.2 334.5 -133.2"/><text x="434.5" y="-144.8" font-family="Times,serif" font-size="14" text-anchor="middle">षष्ठी_तत्पुरुषः</text></g><g id="node11" class="node"><title>Node6_1</title><ellipse cx="695" cy="-366" fill="#f9f" stroke="#f9f" rx="50.89" ry="18"/><text x="695" y="-362.3" font-family="Times,serif" font-size="14" text-anchor="middle">अथ(6.1)</text></g><g id="edge7" class="edge"><title>Node6_1-&gt;Node5_1</title><path fill="none" stroke="#000" d="M675.35,-391.2C663.97,-405.22 649.93,-422.52 639.74,-435.08"/><polygon fill="#000" stroke="#000" points="678.11 -393.36 681.7 -383.39 672.68 -388.95 678.11 -393.36"/><text x="721.5" y="-405.8" font-family="Times,serif" font-size="14" text-anchor="middle">सम्बन्धः</text></g><g id="node12" class="node"><title>Node9_1</title><ellipse cx="805" cy="-366" fill="#f9f" stroke="#f9f" rx="41.69" ry="18"/><text x="805" y="-362.3" font-family="Times,serif" font-size="14" text-anchor="middle">च(9.1)</text></g><g id="edge10" class="edge"><title>Node9_1-&gt;Node5_1</title><path fill="none" stroke="#000" d="M798.38,-393.95C795.06,-402.43 790.16,-411.11 783,-417 768.98,-428.52 728.71,-437.37 692.47,-443.28"/><polygon fill="#000" stroke="#000" points="801.77 -394.86 801.6 -384.26 795.13 -392.65 801.77 -394.86"/><text x="851.5" y="-405.8" font-family="Times,serif" font-size="14" text-anchor="middle">सम्बन्धः</text></g><g id="node13" class="node"><title>Node10_1</title><ellipse cx="967" cy="-279" fill="#87ceeb" stroke="#87ceeb" rx="121.58" ry="18"/><text x="967" y="-275.3" font-family="Times,serif" font-size="14" text-anchor="middle">शत्रूणाम्(10.1)</text></g><g id="node14" class="node"><title>Node13_1</title><ellipse cx="967" cy="-366" fill="#c6e2eb" stroke="#c6e2eb" rx="102.88" ry="18"/><text x="967" y="-362.3" font-family="Times,serif" font-size="14" text-anchor="middle">मूर्धनि(13.1)</text></g><g id="edge11" class="edge"><title>Node10_1-&gt;Node13_1</title><path fill="none" stroke="#000" d="M967,-307.27C967,-320.58 967,-336.19 967,-347.82"/><polygon fill="#000" stroke="#000" points="970.5 -307.2 967 -297.2 963.5 -307.2 970.5 -307.2"/><text x="1060" y="-318.8" font-family="Times,serif" font-size="14" text-anchor="middle">षष्ठीसम्बन्धः</text></g><g id="edge15" class="edge"><title>Node13_1-&gt;Node5_1</title><path fill="none" stroke="#000" d="M946.9,-391.35C937.61,-400.94 925.8,-411.06 913,-417 876.63,-433.87 773.89,-443.31 701.78,-448.03"/><polygon fill="#000" stroke="#000" points="949.59 -393.59 953.78 -383.86 944.44 -388.86 949.59 -393.59"/><text x="1012.5" y="-405.8" font-family="Times,serif" font-size="14" text-anchor="middle">देशाधिकरणम्</text></g><g id="node15" class="node"><title>Node12_1</title><ellipse cx="502" cy="-192" fill="#f9f" stroke="#f9f" rx="56.59" ry="18"/><text x="502" y="-188.3" font-family="Times,serif" font-size="14" text-anchor="middle">तु(12.1)</text></g><g id="edge14" class="edge"><title>Node12_1-&gt;Node11_1</title><path fill="none" stroke="#000" d="M483.38,-217.74C475.49,-226.78 465.65,-236.4 455,-243 434.44,-255.74 408.94,-264.1 387.09,-269.44"/><polygon fill="#000" stroke="#000" points="486.08 -219.96 489.78 -210.03 480.7 -215.49 486.08 -219.96"/><text x="530.5" y="-231.8" font-family="Times,serif" font-size="14" text-anchor="middle">सम्बन्धः</text></g></g></svg>