<svg xmlns="http://www.w3.org/2000/svg" xmlns:xlink="http://www.w3.org/1999/xlink" width="1243pt" height="479pt" viewBox="0 0 1243 479"><g id="graph0" class="graph" transform="scale(1 1) rotate(0) translate(4 475)"><title>G</title><polygon fill="#fffacd" stroke="transparent" points="-4 4 -4 -475 1239 -475 1239 4 -4 4"/><g id="clust1" class="cluster"><title>cluster_1</title><polygon fill="#fffacd" stroke="#000" points="8 -253 8 -392 157 -392 157 -253 8 -253"/></g><g id="clust2" class="cluster"><title>cluster_2</title><polygon fill="#fffacd" stroke="#000" points="165 -253 165 -392 893 -392 893 -253 165 -253"/></g><g id="node1" class="node"><title>Node1_1</title><ellipse cx="67" cy="-279" fill="#00bfff" stroke="#00bfff" rx="50.89" ry="18"/><text x="67" y="-275.3" font-family="Times,serif" font-size="14" text-anchor="middle">सः(1.1)</text></g><g id="node2" class="node"><title>Node5_1</title><ellipse cx="82" cy="-366" fill="#00bfff" stroke="#00bfff" rx="50.89" ry="18"/><text x="82" y="-362.3" font-family="Times,serif" font-size="14" text-anchor="middle">सः(5.1)</text></g><g id="edge1" class="edge"><title>Node1_1-&gt;Node5_1</title><path fill="none" stroke="#000" d="M48.04,-305.45C44.39,-313.32 42.63,-322.02 46,-330 49.12,-337.39 54.65,-343.99 60.45,-349.41"/><polygon fill="#000" stroke="#000" points="51.12 -307.1 52.98 -296.67 45.02 -303.67 51.12 -307.1"/><text x="103.5" y="-318.8" font-family="Times,serif" font-size="14" text-anchor="middle">विशेषणम्</text></g><g id="node15" class="node"><title>Node7_1</title><ellipse cx="319" cy="-453" fill="#ff1975" stroke="#ff1975" rx="87.99" ry="18"/><text x="319" y="-449.3" font-family="Times,serif" font-size="14" text-anchor="middle">आविवेश(7.1)</text></g><g id="edge13" class="edge"><title>Node5_1-&gt;Node7_1</title><path fill="none" stroke="#000" d="M125.88,-382.74C169.15,-398.26 234.81,-421.8 277.31,-437.05"/><polygon fill="#000" stroke="#000" points="127.06 -379.44 116.46 -379.36 124.69 -386.03 127.06 -379.44"/><text x="251" y="-405.8" font-family="Times,serif" font-size="14" text-anchor="middle">कर्ता</text></g><g id="node3" class="node"><title>Node2_3</title><ellipse cx="289" cy="-279" fill="#93db70" stroke="#93db70" rx="115.88" ry="18"/><text x="289" y="-275.3" font-family="Times,serif" font-size="14" text-anchor="middle">चक्रवालम्(2.3)</text></g><g id="node4" class="node"><title>Node6_3</title><ellipse cx="557" cy="-366" fill="#93db70" stroke="#93db70" rx="78.79" ry="18"/><text x="557" y="-362.3" font-family="Times,serif" font-size="14" text-anchor="middle">पुरम्(6.3)</text></g><g id="edge4" class="edge"><title>Node2_3-&gt;Node6_3</title><path fill="none" stroke="#000" d="M343.81,-298.94C371.89,-308.51 406.69,-320.14 438,-330 461.52,-337.4 487.81,-345.18 509.68,-351.53"/><polygon fill="#000" stroke="#000" points="344.77 -295.57 334.17 -295.65 342.51 -302.2 344.77 -295.57"/><text x="495.5" y="-318.8" font-family="Times,serif" font-size="14" text-anchor="middle">विशेषणम्</text></g><g id="edge16" class="edge"><title>Node6_3-&gt;Node7_1</title><path fill="none" stroke="#000" d="M506.84,-384.91C463.44,-400.42 401.4,-422.57 360.68,-437.12"/><polygon fill="#000" stroke="#000" points="508.12 -388.17 516.36 -381.52 505.76 -381.58 508.12 -388.17"/><text x="482" y="-405.8" font-family="Times,serif" font-size="14" text-anchor="middle">कर्म</text></g><g id="node5" class="node"><title>Node3_4</title><ellipse cx="557" cy="-279" fill="#93db70" stroke="#93db70" rx="133.78" ry="18"/><text x="557" y="-275.3" font-family="Times,serif" font-size="14" text-anchor="middle">भूषितान्तम्(3.4)</text></g><g id="edge8" class="edge"><title>Node3_4-&gt;Node6_3</title><path fill="none" stroke="#000" d="M557,-307.27C557,-320.58 557,-336.19 557,-347.82"/><polygon fill="#000" stroke="#000" points="560.5 -307.2 557 -297.2 553.5 -307.2 560.5 -307.2"/><text x="614.5" y="-318.8" font-family="Times,serif" font-size="14" text-anchor="middle">विशेषणम्</text></g><g id="node6" class="node"><title>Node4_4</title><ellipse cx="797" cy="-279" fill="#93db70" stroke="#93db70" rx="87.99" ry="18"/><text x="797" y="-275.3" font-family="Times,serif" font-size="14" text-anchor="middle">अर्हम्(4.4)</text></g><g id="edge12" class="edge"><title>Node4_4-&gt;Node6_3</title><path fill="none" stroke="#000" d="M752.79,-299.59C730.07,-309.32 701.79,-320.91 676,-330 653.25,-338.02 627.63,-345.72 606.01,-351.85"/><polygon fill="#000" stroke="#000" points="754.37 -302.72 762.17 -295.54 751.6 -296.29 754.37 -302.72"/><text x="771.5" y="-318.8" font-family="Times,serif" font-size="14" text-anchor="middle">विशेषणम्</text></g><g id="node7" class="node"><title>Node2_1</title><ellipse cx="289" cy="-105" fill="#ff0" stroke="#ff0" rx="63.09" ry="18"/><text x="289" y="-101.3" font-family="Times,serif" font-size="14" text-anchor="middle">हेम-(2.1)</text></g><g id="node8" class="node"><title>Node2_2</title><ellipse cx="289" cy="-192" fill="#ff0" stroke="#ff0" rx="109.38" ry="18"/><text x="289" y="-188.3" font-family="Times,serif" font-size="14" text-anchor="middle">जाम्बूनद-(2.2)</text></g><g id="edge2" class="edge"><title>Node2_1-&gt;Node2_2</title><path fill="none" stroke="#000" d="M289,-133.27C289,-146.58 289,-162.19 289,-173.82"/><polygon fill="#000" stroke="#000" points="292.5 -133.2 289 -123.2 285.5 -133.2 292.5 -133.2"/><text x="353.5" y="-144.8" font-family="Times,serif" font-size="14" text-anchor="middle">द्वन्द्वः</text></g><g id="edge3" class="edge"><title>Node2_2-&gt;Node2_3</title><path fill="none" stroke="#000" d="M289,-220.27C289,-233.58 289,-249.19 289,-260.82"/><polygon fill="#000" stroke="#000" points="292.5 -220.2 289 -210.2 285.5 -220.2 292.5 -220.2"/><text x="399.5" y="-231.8" font-family="Times,serif" font-size="14" text-anchor="middle">तृतीया_तत्पुरुषः</text></g><g id="node9" class="node"><title>Node3_1</title><ellipse cx="553" cy="-18" fill="#ff0" stroke="#ff0" rx="63.09" ry="18"/><text x="553" y="-14.3" font-family="Times,serif" font-size="14" text-anchor="middle">महा-(3.1)</text></g><g id="node10" class="node"><title>Node3_2</title><ellipse cx="553" cy="-105" fill="#ff0" stroke="#ff0" rx="72.29" ry="18"/><text x="553" y="-101.3" font-family="Times,serif" font-size="14" text-anchor="middle">अर्ह-(3.2)</text></g><g id="edge5" class="edge"><title>Node3_1-&gt;Node3_2</title><path fill="none" stroke="#000" d="M553,-46.27C553,-59.58 553,-75.19 553,-86.82"/><polygon fill="#000" stroke="#000" points="556.5 -46.2 553 -36.2 549.5 -46.2 556.5 -46.2"/><text x="617.5" y="-57.8" font-family="Times,serif" font-size="14" text-anchor="middle">कर्मधारयः</text></g><g id="node11" class="node"><title>Node3_3</title><ellipse cx="553" cy="-192" fill="#ff0" stroke="#ff0" rx="118.08" ry="18"/><text x="553" y="-188.3" font-family="Times,serif" font-size="14" text-anchor="middle">मुक्तामणि-(3.3)</text></g><g id="edge6" class="edge"><title>Node3_2-&gt;Node3_3</title><path fill="none" stroke="#000" d="M553,-133.27C553,-146.58 553,-162.19 553,-173.82"/><polygon fill="#000" stroke="#000" points="556.5 -133.2 553 -123.2 549.5 -133.2 556.5 -133.2"/><text x="617.5" y="-144.8" font-family="Times,serif" font-size="14" text-anchor="middle">कर्मधारयः</text></g><g id="edge7" class="edge"><title>Node3_3-&gt;Node3_4</title><path fill="none" stroke="#000" d="M554.28,-220.27C554.91,-233.58 555.64,-249.19 556.19,-260.82"/><polygon fill="#000" stroke="#000" points="557.78 -220.03 553.81 -210.2 550.78 -220.35 557.78 -220.03"/><text x="666.5" y="-231.8" font-family="Times,serif" font-size="14" text-anchor="middle">तृतीया_तत्पुरुषः</text></g><g id="node12" class="node"><title>Node4_1</title><ellipse cx="797" cy="-18" fill="#ff0" stroke="#ff0" rx="109.38" ry="18"/><text x="797" y="-14.3" font-family="Times,serif" font-size="14" text-anchor="middle">परार्घ्य-(4.1)</text></g><g id="node13" class="node"><title>Node4_2</title><ellipse cx="797" cy="-105" fill="#ff0" stroke="#ff0" rx="109.38" ry="18"/><text x="797" y="-101.3" font-family="Times,serif" font-size="14" text-anchor="middle">कालागुरु-(4.2)</text></g><g id="edge9" class="edge"><title>Node4_1-&gt;Node4_2</title><path fill="none" stroke="#000" d="M797,-46.27C797,-59.58 797,-75.19 797,-86.82"/><polygon fill="#000" stroke="#000" points="800.5 -46.2 797 -36.2 793.5 -46.2 800.5 -46.2"/><text x="861.5" y="-57.8" font-family="Times,serif" font-size="14" text-anchor="middle">कर्मधारयः</text></g><g id="node14" class="node"><title>Node4_3</title><ellipse cx="797" cy="-192" fill="#ff0" stroke="#ff0" rx="81.49" ry="18"/><text x="797" y="-188.3" font-family="Times,serif" font-size="14" text-anchor="middle">चन्दन-(4.3)</text></g><g id="edge10" class="edge"><title>Node4_2-&gt;Node4_3</title><path fill="none" stroke="#000" d="M797,-133.27C797,-146.58 797,-162.19 797,-173.82"/><polygon fill="#000" stroke="#000" points="800.5 -133.2 797 -123.2 793.5 -133.2 800.5 -133.2"/><text x="861.5" y="-144.8" font-family="Times,serif" font-size="14" text-anchor="middle">द्वन्द्वः</text></g><g id="edge11" class="edge"><title>Node4_3-&gt;Node4_4</title><path fill="none" stroke="#000" d="M797,-220.27C797,-233.58 797,-249.19 797,-260.82"/><polygon fill="#000" stroke="#000" points="800.5 -220.2 797 -210.2 793.5 -220.2 800.5 -220.2"/><text x="907.5" y="-231.8" font-family="Times,serif" font-size="14" text-anchor="middle">तृतीया_तत्पुरुषः</text></g><g id="node16" class="node"><title>Node6_1</title><ellipse cx="1041" cy="-192" fill="#ff0" stroke="#ff0" rx="72.29" ry="18"/><text x="1041" y="-188.3" font-family="Times,serif" font-size="14" text-anchor="middle">रावण-(6.1)</text></g><g id="node17" class="node"><title>Node6_2</title><ellipse cx="1012" cy="-279" fill="#ff0" stroke="#ff0" rx="81.49" ry="18"/><text x="1012" y="-275.3" font-family="Times,serif" font-size="14" text-anchor="middle">अन्तः-(6.2)</text></g><g id="edge14" class="edge"><title>Node6_1-&gt;Node6_2</title><path fill="none" stroke="#000" d="M1031.83,-219.87C1027.26,-233.27 1021.87,-249.08 1017.86,-260.82"/><polygon fill="#000" stroke="#000" points="1035.21 -220.8 1035.13 -210.2 1028.59 -218.54 1035.21 -220.8"/><text x="1131.5" y="-231.8" font-family="Times,serif" font-size="14" text-anchor="middle">षष्ठी_तत्पुरुषः</text></g><g id="edge15" class="edge"><title>Node6_2-&gt;Node6_3</title><path fill="none" stroke="#000" d="M958.31,-297.21C923.02,-307.98 875.64,-321.39 833,-330 764.47,-343.84 685.2,-353.22 629.24,-358.76"/><polygon fill="#000" stroke="#000" points="959.4 -300.54 967.93 -294.25 957.35 -293.85 959.4 -300.54"/><text x="964.5" y="-318.8" font-family="Times,serif" font-size="14" text-anchor="middle">बहुव्रीहिः</text></g></g></svg>