<?xml version="1.0" encoding="UTF-8" standalone="no"?>
<!DOCTYPE svg PUBLIC "-//W3C//DTD SVG 1.1//EN"
 "http://www.w3.org/Graphics/SVG/1.1/DTD/svg11.dtd">
<!-- Generated by graphviz version 2.43.0 (0)
 -->
<!-- Title: G Pages: 1 -->
<svg width="4413pt" height="740pt"
 viewBox="0.00 0.00 4412.84 740.00" xmlns="http://www.w3.org/2000/svg" xmlns:xlink="http://www.w3.org/1999/xlink">
<g id="graph0" class="graph" transform="scale(1 1) rotate(0) translate(4 736)">
<title>G</title>
<polygon fill="#fffacd" stroke="transparent" points="-4,4 -4,-736 4408.84,-736 4408.84,4 -4,4"/>
<g id="clust1" class="cluster">
<title>cluster_1</title>
<polygon fill="#fffacd" stroke="black" points="2240.84,-427 2240.84,-566 4316.84,-566 4316.84,-427 2240.84,-427"/>
</g>
<g id="clust2" class="cluster">
<title>cluster_2</title>
<polygon fill="#fffacd" stroke="black" points="201.84,-253 201.84,-392 2106.84,-392 2106.84,-253 201.84,-253"/>
</g>
<g id="clust3" class="cluster">
<title>cluster_3</title>
<polygon fill="#fffacd" stroke="black" points="2218.84,-253 2218.84,-392 2478.84,-392 2478.84,-253 2218.84,-253"/>
</g>
<!-- Node1_2 -->
<g id="node1" class="node">
<title>Node1_2</title>
<ellipse fill="#93db70" stroke="#93db70" cx="3490.84" cy="-453" rx="78.79" ry="18"/>
<text text-anchor="middle" x="3490.84" y="-449.3" font-family="Times,serif" font-size="14.00">निभम्(1.2)</text>
</g>
<!-- Node31_1 -->
<g id="node2" class="node">
<title>Node31_1</title>
<ellipse fill="#93db70" stroke="#93db70" cx="3188.84" cy="-540" rx="84.49" ry="18"/>
<text text-anchor="middle" x="3188.84" y="-536.3" font-family="Times,serif" font-size="14.00">गृहम्(31.1)</text>
</g>
<!-- Node1_2&#45;&gt;Node31_1 -->
<g id="edge2" class="edge">
<title>Node1_2&#45;&gt;Node31_1</title>
<path fill="none" stroke="black" d="M3448.88,-473.6C3425.68,-483.81 3396.12,-495.85 3368.84,-504 3332.24,-514.94 3290.4,-523.32 3256.28,-529.13"/>
<polygon fill="black" stroke="black" points="3450.37,-476.76 3458.08,-469.49 3447.52,-470.37 3450.37,-476.76"/>
<text text-anchor="middle" x="3467.34" y="-492.8" font-family="Times,serif" font-size="14.00">विशेषणम्</text>
</g>
<!-- Node32_1 -->
<g id="node48" class="node">
<title>Node32_1</title>
<ellipse fill="#00bfff" stroke="#00bfff" cx="3188.84" cy="-627" rx="75.29" ry="18"/>
<text text-anchor="middle" x="3188.84" y="-623.3" font-family="Times,serif" font-size="14.00">कपिः(32.1)</text>
</g>
<!-- Node31_1&#45;&gt;Node32_1 -->
<g id="edge44" class="edge">
<title>Node31_1&#45;&gt;Node32_1</title>
<path fill="none" stroke="black" d="M3188.84,-568.27C3188.84,-581.58 3188.84,-597.19 3188.84,-608.82"/>
<polygon fill="black" stroke="black" points="3192.34,-568.2 3188.84,-558.2 3185.34,-568.2 3192.34,-568.2"/>
<text text-anchor="middle" x="3217.84" y="-579.8" font-family="Times,serif" font-size="14.00">कर्म</text>
</g>
<!-- Node2_1 -->
<g id="node3" class="node">
<title>Node2_1</title>
<ellipse fill="#93db70" stroke="#93db70" cx="3297.84" cy="-453" rx="96.68" ry="18"/>
<text text-anchor="middle" x="3297.84" y="-449.3" font-family="Times,serif" font-size="14.00">दिव्यम्(2.1)</text>
</g>
<!-- Node2_1&#45;&gt;Node31_1 -->
<g id="edge3" class="edge">
<title>Node2_1&#45;&gt;Node31_1</title>
<path fill="none" stroke="black" d="M3268.48,-476.89C3250.05,-491.27 3226.7,-509.47 3210.06,-522.45"/>
<polygon fill="black" stroke="black" points="3270.83,-479.5 3276.57,-470.59 3266.53,-473.98 3270.83,-479.5"/>
<text text-anchor="middle" x="3307.34" y="-492.8" font-family="Times,serif" font-size="14.00">विशेषणम्</text>
</g>
<!-- Node3_3 -->
<g id="node4" class="node">
<title>Node3_3</title>
<ellipse fill="#93db70" stroke="#93db70" cx="3702.84" cy="-453" rx="115.88" ry="18"/>
<text text-anchor="middle" x="3702.84" y="-449.3" font-family="Times,serif" font-size="14.00">विनादितम्(3.3)</text>
</g>
<!-- Node3_3&#45;&gt;Node31_1 -->
<g id="edge6" class="edge">
<title>Node3_3&#45;&gt;Node31_1</title>
<path fill="none" stroke="black" d="M3647.15,-472.73C3613.3,-483.43 3569,-496.23 3528.84,-504 3441.16,-520.97 3339.07,-530.08 3269.81,-534.71"/>
<polygon fill="black" stroke="black" points="3648.4,-476.01 3656.86,-469.63 3646.27,-469.34 3648.4,-476.01"/>
<text text-anchor="middle" x="3648.34" y="-492.8" font-family="Times,serif" font-size="14.00">विशेषणम्</text>
</g>
<!-- Node4_3 -->
<g id="node5" class="node">
<title>Node4_3</title>
<ellipse fill="#93db70" stroke="#93db70" cx="4183.84" cy="-453" rx="124.58" ry="18"/>
<text text-anchor="middle" x="4183.84" y="-449.3" font-family="Times,serif" font-size="14.00">सङ्घुष्टम्(4.3)</text>
</g>
<!-- Node4_3&#45;&gt;Node31_1 -->
<g id="edge9" class="edge">
<title>Node4_3&#45;&gt;Node31_1</title>
<path fill="none" stroke="black" d="M4108.9,-470.5C4054.27,-481.85 3978.32,-496.22 3910.84,-504 3681.14,-530.48 3408.08,-536.98 3273.06,-538.53"/>
<polygon fill="black" stroke="black" points="4109.77,-473.89 4118.84,-468.42 4108.34,-467.04 4109.77,-473.89"/>
<text text-anchor="middle" x="4066.34" y="-492.8" font-family="Times,serif" font-size="14.00">विशेषणम्</text>
</g>
<!-- Node5_1 -->
<g id="node6" class="node">
<title>Node5_1</title>
<ellipse fill="#93db70" stroke="#93db70" cx="2587.84" cy="-453" rx="96.68" ry="18"/>
<text text-anchor="middle" x="2587.84" y="-449.3" font-family="Times,serif" font-size="14.00">नादितम्(5.1)</text>
</g>
<!-- Node5_1&#45;&gt;Node31_1 -->
<g id="edge10" class="edge">
<title>Node5_1&#45;&gt;Node31_1</title>
<path fill="none" stroke="black" d="M2651.9,-470.49C2696.7,-481.47 2758.08,-495.4 2812.84,-504 2914.04,-519.89 3031.78,-529.42 3108.16,-534.44"/>
<polygon fill="black" stroke="black" points="2652.58,-467.05 2642.03,-468.06 2650.9,-473.85 2652.58,-467.05"/>
<text text-anchor="middle" x="2870.34" y="-492.8" font-family="Times,serif" font-size="14.00">विशेषणम्</text>
</g>
<!-- Node20_2 -->
<g id="node7" class="node">
<title>Node20_2</title>
<ellipse fill="#93db70" stroke="#93db70" cx="3079.84" cy="-453" rx="102.88" ry="18"/>
<text text-anchor="middle" x="3079.84" y="-449.3" font-family="Times,serif" font-size="14.00">द्वारम्(20.2)</text>
</g>
<!-- Node20_2&#45;&gt;Node31_1 -->
<g id="edge31" class="edge">
<title>Node20_2&#45;&gt;Node31_1</title>
<path fill="none" stroke="black" d="M3095.16,-479.53C3101.15,-488.06 3108.58,-497.14 3116.84,-504 3126.46,-511.99 3138.22,-518.69 3149.42,-524.02"/>
<polygon fill="black" stroke="black" points="3097.91,-477.34 3089.46,-470.94 3092.08,-481.21 3097.91,-477.34"/>
<text text-anchor="middle" x="3174.34" y="-492.8" font-family="Times,serif" font-size="14.00">विशेषणम्</text>
</g>
<!-- Node24_1 -->
<g id="node8" class="node">
<title>Node24_1</title>
<ellipse fill="#93db70" stroke="#93db70" cx="2360.84" cy="-453" rx="112.38" ry="18"/>
<text text-anchor="middle" x="2360.84" y="-449.3" font-family="Times,serif" font-size="14.00">रक्षितम्(24.1)</text>
</g>
<!-- Node24_1&#45;&gt;Node31_1 -->
<g id="edge36" class="edge">
<title>Node24_1&#45;&gt;Node31_1</title>
<path fill="none" stroke="black" d="M2432.03,-470.39C2483.62,-481.62 2555.19,-495.91 2618.84,-504 2790.72,-525.84 2993.54,-534.17 3104.98,-537.26"/>
<polygon fill="black" stroke="black" points="2432.51,-466.91 2421.99,-468.18 2431.01,-473.74 2432.51,-466.91"/>
<text text-anchor="middle" x="2676.34" y="-492.8" font-family="Times,serif" font-size="14.00">विशेषणम्</text>
</g>
<!-- Node29_1 -->
<g id="node9" class="node">
<title>Node29_1</title>
<ellipse fill="#93db70" stroke="#93db70" cx="3938.84" cy="-453" rx="102.88" ry="18"/>
<text text-anchor="middle" x="3938.84" y="-449.3" font-family="Times,serif" font-size="14.00">गुप्तम्(29.1)</text>
</g>
<!-- Node29_1&#45;&gt;Node31_1 -->
<g id="edge43" class="edge">
<title>Node29_1&#45;&gt;Node31_1</title>
<path fill="none" stroke="black" d="M3874.43,-470.74C3828.8,-481.94 3765.96,-496.03 3709.84,-504 3556.58,-525.76 3375.99,-534.06 3272.7,-537.18"/>
<polygon fill="black" stroke="black" points="3875.33,-474.12 3884.19,-468.32 3873.64,-467.33 3875.33,-474.12"/>
<text text-anchor="middle" x="3849.34" y="-492.8" font-family="Times,serif" font-size="14.00">विशेषणम्</text>
</g>
<!-- Node33_1 -->
<g id="node10" class="node">
<title>Node33_1</title>
<ellipse fill="#93db70" stroke="#93db70" cx="2830.84" cy="-453" rx="128.08" ry="18"/>
<text text-anchor="middle" x="2830.84" y="-449.3" font-family="Times,serif" font-size="14.00">(सुभूषितम्)(33.1)</text>
</g>
<!-- Node33_1&#45;&gt;Node31_1 -->
<g id="edge46" class="edge">
<title>Node33_1&#45;&gt;Node31_1</title>
<path fill="none" stroke="black" d="M2883.43,-473.45C2912.44,-483.64 2949.29,-495.68 2982.84,-504 3027.73,-515.13 3079.01,-523.86 3119.17,-529.81"/>
<polygon fill="black" stroke="black" points="2884.5,-470.12 2873.91,-470.08 2882.17,-476.72 2884.5,-470.12"/>
<text text-anchor="middle" x="3040.34" y="-492.8" font-family="Times,serif" font-size="14.00">विशेषणम्</text>
</g>
<!-- Node6_1 -->
<g id="node11" class="node">
<title>Node6_1</title>
<ellipse fill="#40e0d0" stroke="#40e0d0" cx="454.84" cy="-279" rx="87.99" ry="18"/>
<text text-anchor="middle" x="454.84" y="-275.3" font-family="Times,serif" font-size="14.00">भूषणैः(6.1)</text>
</g>
<!-- Node19_1 -->
<g id="node12" class="node">
<title>Node19_1</title>
<ellipse fill="#40e0d0" stroke="#40e0d0" cx="1311.84" cy="-366" rx="102.88" ry="18"/>
<text text-anchor="middle" x="1311.84" y="-362.3" font-family="Times,serif" font-size="14.00">भूषितैः(19.1)</text>
</g>
<!-- Node6_1&#45;&gt;Node19_1 -->
<g id="edge11" class="edge">
<title>Node6_1&#45;&gt;Node19_1</title>
<path fill="none" stroke="black" d="M498.99,-299.55C526.08,-310.58 561.81,-323.45 594.84,-330 709.44,-352.74 1040.8,-360.95 1209.92,-363.71"/>
<polygon fill="black" stroke="black" points="499.99,-296.18 489.42,-295.58 497.31,-302.64 499.99,-296.18"/>
<text text-anchor="middle" x="659.34" y="-318.8" font-family="Times,serif" font-size="14.00">समुच्चितः</text>
</g>
<!-- Node19_1&#45;&gt;Node33_1 -->
<g id="edge29" class="edge">
<title>Node19_1&#45;&gt;Node33_1</title>
<path fill="none" stroke="black" d="M1417.21,-373.41C1594.71,-384 1964.66,-405.13 2277.84,-417 2462.65,-424 2509.87,-408.12 2693.84,-427 2716.81,-429.36 2741.71,-433.43 2763.9,-437.62"/>
<polygon fill="black" stroke="black" points="1417.29,-369.91 1407.09,-372.81 1416.87,-376.9 1417.29,-369.91"/>
<text text-anchor="middle" x="2313.84" y="-405.8" font-family="Times,serif" font-size="14.00">करणम्</text>
</g>
<!-- Node8_1 -->
<g id="node13" class="node">
<title>Node8_1</title>
<ellipse fill="#40e0d0" stroke="#40e0d0" cx="279.84" cy="-279" rx="69.59" ry="18"/>
<text text-anchor="middle" x="279.84" y="-275.3" font-family="Times,serif" font-size="14.00">रथैः(8.1)</text>
</g>
<!-- Node8_1&#45;&gt;Node19_1 -->
<g id="edge13" class="edge">
<title>Node8_1&#45;&gt;Node19_1</title>
<path fill="none" stroke="black" d="M320.3,-299.38C345.68,-310.53 379.44,-323.58 410.84,-330 560.57,-360.62 1006.02,-364.89 1209,-365.2"/>
<polygon fill="black" stroke="black" points="321.56,-296.11 311,-295.21 318.7,-302.5 321.56,-296.11"/>
<text text-anchor="middle" x="475.34" y="-318.8" font-family="Times,serif" font-size="14.00">समुच्चितः</text>
</g>
<!-- Node9_1 -->
<g id="node14" class="node">
<title>Node9_1</title>
<ellipse fill="#40e0d0" stroke="#40e0d0" cx="2019.84" cy="-279" rx="78.79" ry="18"/>
<text text-anchor="middle" x="2019.84" y="-275.3" font-family="Times,serif" font-size="14.00">यानैः(9.1)</text>
</g>
<!-- Node9_1&#45;&gt;Node19_1 -->
<g id="edge14" class="edge">
<title>Node9_1&#45;&gt;Node19_1</title>
<path fill="none" stroke="black" d="M1952.67,-293.49C1908.39,-302.47 1857.69,-312.99 1852.84,-315 1841.56,-319.67 1841.42,-326.13 1829.84,-330 1755.42,-354.89 1542.59,-362.11 1414.07,-364.19"/>
<polygon fill="black" stroke="black" points="1953.48,-296.89 1962.58,-291.48 1952.09,-290.03 1953.48,-296.89"/>
<text text-anchor="middle" x="1917.34" y="-318.8" font-family="Times,serif" font-size="14.00">समुच्चितः</text>
</g>
<!-- Node10_1 -->
<g id="node15" class="node">
<title>Node10_1</title>
<ellipse fill="#40e0d0" stroke="#40e0d0" cx="1820.84" cy="-279" rx="102.88" ry="18"/>
<text text-anchor="middle" x="1820.84" y="-275.3" font-family="Times,serif" font-size="14.00">विमानैः(10.1)</text>
</g>
<!-- Node10_1&#45;&gt;Node19_1 -->
<g id="edge15" class="edge">
<title>Node10_1&#45;&gt;Node19_1</title>
<path fill="none" stroke="black" d="M1751.82,-296.61C1734.83,-301.66 1716.9,-307.81 1700.84,-315 1689.36,-320.14 1688.75,-325.96 1676.84,-330 1629.14,-346.18 1500.94,-355.73 1409.99,-360.67"/>
<polygon fill="black" stroke="black" points="1753.06,-299.9 1761.7,-293.77 1751.12,-293.17 1753.06,-299.9"/>
<text text-anchor="middle" x="1765.34" y="-318.8" font-family="Times,serif" font-size="14.00">समुच्चितः</text>
</g>
<!-- Node13_2 -->
<g id="node16" class="node">
<title>Node13_2</title>
<ellipse fill="#40e0d0" stroke="#40e0d0" cx="840.84" cy="-279" rx="75.29" ry="18"/>
<text text-anchor="middle" x="840.84" y="-275.3" font-family="Times,serif" font-size="14.00">गजैः(13.2)</text>
</g>
<!-- Node13_2&#45;&gt;Node19_1 -->
<g id="edge19" class="edge">
<title>Node13_2&#45;&gt;Node19_1</title>
<path fill="none" stroke="black" d="M875.23,-301.17C893.95,-311.65 917.91,-323.43 940.84,-330 990.52,-344.22 1122.67,-354.32 1215.01,-359.91"/>
<polygon fill="black" stroke="black" points="876.91,-298.1 866.49,-296.16 873.43,-304.17 876.91,-298.1"/>
<text text-anchor="middle" x="1005.34" y="-318.8" font-family="Times,serif" font-size="14.00">समुच्चितः</text>
</g>
<!-- Node14_1 -->
<g id="node17" class="node">
<title>Node14_1</title>
<ellipse fill="#40e0d0" stroke="#40e0d0" cx="1428.84" cy="-279" rx="84.49" ry="18"/>
<text text-anchor="middle" x="1428.84" y="-275.3" font-family="Times,serif" font-size="14.00">शुभैः(14.1)</text>
</g>
<!-- Node14_1&#45;&gt;Node19_1 -->
<g id="edge20" class="edge">
<title>Node14_1&#45;&gt;Node19_1</title>
<path fill="none" stroke="black" d="M1402.43,-303.41C1392.2,-312.1 1380.23,-321.83 1368.84,-330 1359.79,-336.5 1349.51,-343.05 1340.19,-348.69"/>
<polygon fill="black" stroke="black" points="1404.92,-305.89 1410.22,-296.71 1400.35,-300.58 1404.92,-305.89"/>
<text text-anchor="middle" x="1452.34" y="-318.8" font-family="Times,serif" font-size="14.00">समुच्चितः</text>
</g>
<!-- Node15_1 -->
<g id="node18" class="node">
<title>Node15_1</title>
<ellipse fill="#40e0d0" stroke="#40e0d0" cx="1232.84" cy="-279" rx="93.68" ry="18"/>
<text text-anchor="middle" x="1232.84" y="-275.3" font-family="Times,serif" font-size="14.00">वारणैः(15.1)</text>
</g>
<!-- Node15_1&#45;&gt;Node19_1 -->
<g id="edge21" class="edge">
<title>Node15_1&#45;&gt;Node19_1</title>
<path fill="none" stroke="black" d="M1231.95,-307.3C1232.87,-315.23 1235.11,-323.49 1239.84,-330 1245.97,-338.43 1254.69,-344.93 1263.95,-349.9"/>
<polygon fill="black" stroke="black" points="1235.44,-307.03 1231.39,-297.24 1228.45,-307.42 1235.44,-307.03"/>
<text text-anchor="middle" x="1304.34" y="-318.8" font-family="Times,serif" font-size="14.00">समुच्चितः</text>
</g>
<!-- Node17_2 -->
<g id="node19" class="node">
<title>Node17_2</title>
<ellipse fill="#40e0d0" stroke="#40e0d0" cx="1027.84" cy="-279" rx="93.68" ry="18"/>
<text text-anchor="middle" x="1027.84" y="-275.3" font-family="Times,serif" font-size="14.00">दन्तैः(17.2)</text>
</g>
<!-- Node17_2&#45;&gt;Node19_1 -->
<g id="edge24" class="edge">
<title>Node17_2&#45;&gt;Node19_1</title>
<path fill="none" stroke="black" d="M1055.3,-303.05C1068.33,-312.83 1084.59,-323.46 1100.84,-330 1137.87,-344.9 1181.01,-353.45 1218.6,-358.37"/>
<polygon fill="black" stroke="black" points="1057.28,-300.15 1047.23,-296.79 1052.99,-305.69 1057.28,-300.15"/>
<text text-anchor="middle" x="1165.34" y="-318.8" font-family="Times,serif" font-size="14.00">समुच्चितः</text>
</g>
<!-- Node18_4 -->
<g id="node20" class="node">
<title>Node18_4</title>
<ellipse fill="#40e0d0" stroke="#40e0d0" cx="1615.84" cy="-279" rx="84.49" ry="18"/>
<text text-anchor="middle" x="1615.84" y="-275.3" font-family="Times,serif" font-size="14.00">उपमैः(18.4)</text>
</g>
<!-- Node18_4&#45;&gt;Node19_1 -->
<g id="edge28" class="edge">
<title>Node18_4&#45;&gt;Node19_1</title>
<path fill="none" stroke="black" d="M1575.64,-300.42C1566.47,-305.16 1556.8,-310.21 1547.84,-315 1535.74,-321.48 1533.8,-325.47 1520.84,-330 1482.56,-343.39 1438.48,-351.74 1400.71,-356.91"/>
<polygon fill="black" stroke="black" points="1577.3,-303.51 1584.59,-295.82 1574.1,-297.28 1577.3,-303.51"/>
<text text-anchor="middle" x="1612.34" y="-318.8" font-family="Times,serif" font-size="14.00">समुच्चितः</text>
</g>
<!-- Node21_1 -->
<g id="node21" class="node">
<title>Node21_1</title>
<ellipse fill="#40e0d0" stroke="#40e0d0" cx="653.84" cy="-279" rx="93.68" ry="18"/>
<text text-anchor="middle" x="653.84" y="-275.3" font-family="Times,serif" font-size="14.00">मत्तैः(21.1)</text>
</g>
<!-- Node21_1&#45;&gt;Node19_1 -->
<g id="edge32" class="edge">
<title>Node21_1&#45;&gt;Node19_1</title>
<path fill="none" stroke="black" d="M692.77,-300.59C715,-311.33 743.77,-323.54 770.84,-330 851.58,-349.26 1077.86,-358.6 1210.82,-362.54"/>
<polygon fill="black" stroke="black" points="694.18,-297.38 683.66,-296.1 691.08,-303.66 694.18,-297.38"/>
<text text-anchor="middle" x="835.34" y="-318.8" font-family="Times,serif" font-size="14.00">समुच्चितः</text>
</g>
<!-- Node25_2 -->
<g id="node22" class="node">
<title>Node25_2</title>
<ellipse fill="#40e0d0" stroke="#40e0d0" cx="2348.84" cy="-279" rx="102.88" ry="18"/>
<text text-anchor="middle" x="2348.84" y="-275.3" font-family="Times,serif" font-size="14.00">वीर्यैः(25.2)</text>
</g>
<!-- Node26_1 -->
<g id="node23" class="node">
<title>Node26_1</title>
<ellipse fill="#40e0d0" stroke="#40e0d0" cx="2348.84" cy="-366" rx="121.58" ry="18"/>
<text text-anchor="middle" x="2348.84" y="-362.3" font-family="Times,serif" font-size="14.00">यातुधानैः(26.1)</text>
</g>
<!-- Node25_2&#45;&gt;Node26_1 -->
<g id="edge38" class="edge">
<title>Node25_2&#45;&gt;Node26_1</title>
<path fill="none" stroke="black" d="M2348.84,-307.27C2348.84,-320.58 2348.84,-336.19 2348.84,-347.82"/>
<polygon fill="black" stroke="black" points="2352.34,-307.2 2348.84,-297.2 2345.34,-307.2 2352.34,-307.2"/>
<text text-anchor="middle" x="2406.34" y="-318.8" font-family="Times,serif" font-size="14.00">विशेषणम्</text>
</g>
<!-- Node26_1&#45;&gt;Node24_1 -->
<g id="edge39" class="edge">
<title>Node26_1&#45;&gt;Node24_1</title>
<path fill="none" stroke="black" d="M2352.69,-394.27C2354.57,-407.58 2356.77,-423.19 2358.42,-434.82"/>
<polygon fill="black" stroke="black" points="2356.13,-393.61 2351.27,-384.2 2349.2,-394.59 2356.13,-393.61"/>
<text text-anchor="middle" x="2390.84" y="-405.8" font-family="Times,serif" font-size="14.00">कर्ता</text>
</g>
<!-- Node1_1 -->
<g id="node24" class="node">
<title>Node1_1</title>
<ellipse fill="#ffff00" stroke="#ffff00" cx="1848.84" cy="-18" rx="128.08" ry="18"/>
<text text-anchor="middle" x="1848.84" y="-14.3" font-family="Times,serif" font-size="14.00">त्रिविष्टप&#45;(1.1)</text>
</g>
<!-- Node1_3 -->
<g id="node25" class="node">
<title>Node1_3</title>
<ellipse fill="lightgrey" stroke="black" cx="1848.84" cy="-105" rx="27" ry="18"/>
</g>
<!-- Node1_1&#45;&gt;Node1_3 -->
<g id="edge1" class="edge">
<title>Node1_1&#45;&gt;Node1_3</title>
<path fill="none" stroke="black" d="M1848.84,-46.27C1848.84,-59.58 1848.84,-75.19 1848.84,-86.82"/>
<polygon fill="black" stroke="black" points="1852.34,-46.2 1848.84,-36.2 1845.34,-46.2 1852.34,-46.2"/>
<text text-anchor="middle" x="1913.34" y="-57.8" font-family="Times,serif" font-size="14.00">कर्मधारयः</text>
</g>
<!-- Node3_1 -->
<g id="node26" class="node">
<title>Node3_1</title>
<ellipse fill="#ffff00" stroke="#ffff00" cx="3702.84" cy="-279" rx="81.49" ry="18"/>
<text text-anchor="middle" x="3702.84" y="-275.3" font-family="Times,serif" font-size="14.00">दिव्य&#45;(3.1)</text>
</g>
<!-- Node3_2 -->
<g id="node27" class="node">
<title>Node3_2</title>
<ellipse fill="#ffff00" stroke="#ffff00" cx="3702.84" cy="-366" rx="63.09" ry="18"/>
<text text-anchor="middle" x="3702.84" y="-362.3" font-family="Times,serif" font-size="14.00">नाद&#45;(3.2)</text>
</g>
<!-- Node3_1&#45;&gt;Node3_2 -->
<g id="edge4" class="edge">
<title>Node3_1&#45;&gt;Node3_2</title>
<path fill="none" stroke="black" d="M3702.84,-307.27C3702.84,-320.58 3702.84,-336.19 3702.84,-347.82"/>
<polygon fill="black" stroke="black" points="3706.34,-307.2 3702.84,-297.2 3699.34,-307.2 3706.34,-307.2"/>
<text text-anchor="middle" x="3767.34" y="-318.8" font-family="Times,serif" font-size="14.00">कर्मधारयः</text>
</g>
<!-- Node3_2&#45;&gt;Node3_3 -->
<g id="edge5" class="edge">
<title>Node3_2&#45;&gt;Node3_3</title>
<path fill="none" stroke="black" d="M3702.84,-394.27C3702.84,-407.58 3702.84,-423.19 3702.84,-434.82"/>
<polygon fill="black" stroke="black" points="3706.34,-394.2 3702.84,-384.2 3699.34,-394.2 3706.34,-394.2"/>
<text text-anchor="middle" x="3813.34" y="-405.8" font-family="Times,serif" font-size="14.00">तृतीया_तत्पुरुषः</text>
</g>
<!-- Node4_1 -->
<g id="node28" class="node">
<title>Node4_1</title>
<ellipse fill="#ffff00" stroke="#ffff00" cx="4183.84" cy="-279" rx="72.29" ry="18"/>
<text text-anchor="middle" x="4183.84" y="-275.3" font-family="Times,serif" font-size="14.00">वाजि&#45;(4.1)</text>
</g>
<!-- Node4_2 -->
<g id="node29" class="node">
<title>Node4_2</title>
<ellipse fill="#ffff00" stroke="#ffff00" cx="4183.84" cy="-366" rx="100.18" ry="18"/>
<text text-anchor="middle" x="4183.84" y="-362.3" font-family="Times,serif" font-size="14.00">ह्रेषित&#45;(4.2)</text>
</g>
<!-- Node4_1&#45;&gt;Node4_2 -->
<g id="edge7" class="edge">
<title>Node4_1&#45;&gt;Node4_2</title>
<path fill="none" stroke="black" d="M4183.84,-307.27C4183.84,-320.58 4183.84,-336.19 4183.84,-347.82"/>
<polygon fill="black" stroke="black" points="4187.34,-307.2 4183.84,-297.2 4180.34,-307.2 4187.34,-307.2"/>
<text text-anchor="middle" x="4287.34" y="-318.8" font-family="Times,serif" font-size="14.00">षष्ठी_तत्पुरुषः</text>
</g>
<!-- Node4_2&#45;&gt;Node4_3 -->
<g id="edge8" class="edge">
<title>Node4_2&#45;&gt;Node4_3</title>
<path fill="none" stroke="black" d="M4183.84,-394.27C4183.84,-407.58 4183.84,-423.19 4183.84,-434.82"/>
<polygon fill="black" stroke="black" points="4187.34,-394.2 4183.84,-384.2 4180.34,-394.2 4187.34,-394.2"/>
<text text-anchor="middle" x="4294.34" y="-405.8" font-family="Times,serif" font-size="14.00">तृतीया_तत्पुरुषः</text>
</g>
<!-- Node7_1 -->
<g id="node30" class="node">
<title>Node7_1</title>
<ellipse fill="#ff99ff" stroke="#ff99ff" cx="2660.84" cy="-366" rx="59.59" ry="18"/>
<text text-anchor="middle" x="2660.84" y="-362.3" font-family="Times,serif" font-size="14.00">तथा(7.1)</text>
</g>
<!-- Node7_1&#45;&gt;Node24_1 -->
<g id="edge12" class="edge">
<title>Node7_1&#45;&gt;Node24_1</title>
<path fill="none" stroke="black" d="M2631.42,-388.81C2615.96,-399.12 2596.23,-410.56 2576.84,-417 2536.55,-430.39 2523.79,-420.47 2481.84,-427 2462.55,-430 2441.69,-434.03 2422.81,-437.97"/>
<polygon fill="black" stroke="black" points="2633.73,-391.46 2639.99,-382.91 2629.77,-385.69 2633.73,-391.46"/>
<text text-anchor="middle" x="2665.34" y="-405.8" font-family="Times,serif" font-size="14.00">सम्बन्धः</text>
</g>
<!-- Node11_1 -->
<g id="node31" class="node">
<title>Node11_1</title>
<ellipse fill="#ff99ff" stroke="#ff99ff" cx="3054.84" cy="-366" rx="47.39" ry="18"/>
<text text-anchor="middle" x="3054.84" y="-362.3" font-family="Times,serif" font-size="14.00">च(11.1)</text>
</g>
<!-- Node11_1&#45;&gt;Node20_2 -->
<g id="edge16" class="edge">
<title>Node11_1&#45;&gt;Node20_2</title>
<path fill="none" stroke="black" d="M3052.56,-394.2C3052.68,-401.73 3053.53,-409.81 3055.84,-417 3057.87,-423.31 3061.44,-429.51 3065.21,-434.9"/>
<polygon fill="black" stroke="black" points="3056.06,-394.14 3052.79,-384.06 3049.06,-393.98 3056.06,-394.14"/>
<text text-anchor="middle" x="3159.34" y="-405.8" font-family="Times,serif" font-size="14.00">समुच्चय_द्योतकः</text>
</g>
<!-- Node12_1 -->
<g id="node32" class="node">
<title>Node12_1</title>
<ellipse fill="#ff99ff" stroke="#ff99ff" cx="3029.84" cy="-627" rx="65.79" ry="18"/>
<text text-anchor="middle" x="3029.84" y="-623.3" font-family="Times,serif" font-size="14.00">तथा(12.1)</text>
</g>
<!-- Node30_1 -->
<g id="node33" class="node">
<title>Node30_1</title>
<ellipse fill="#ff1975" stroke="#ff1975" cx="3098.84" cy="-714" rx="93.68" ry="18"/>
<text text-anchor="middle" x="3098.84" y="-710.3" font-family="Times,serif" font-size="14.00">आविवेश(30.1)</text>
</g>
<!-- Node12_1&#45;&gt;Node30_1 -->
<g id="edge17" class="edge">
<title>Node12_1&#45;&gt;Node30_1</title>
<path fill="none" stroke="black" d="M3031.74,-655.14C3033.33,-663.07 3036.09,-671.37 3040.84,-678 3046.46,-685.84 3054.43,-692.24 3062.67,-697.33"/>
<polygon fill="black" stroke="black" points="3035.19,-654.5 3030.27,-645.12 3028.26,-655.52 3035.19,-654.5"/>
<text text-anchor="middle" x="3098.34" y="-666.8" font-family="Times,serif" font-size="14.00">सम्बन्धः</text>
</g>
<!-- Node13_1 -->
<g id="node34" class="node">
<title>Node13_1</title>
<ellipse fill="#ffff00" stroke="#ffff00" cx="840.84" cy="-192" rx="59.59" ry="18"/>
<text text-anchor="middle" x="840.84" y="-188.3" font-family="Times,serif" font-size="14.00">हय&#45;(13.1)</text>
</g>
<!-- Node13_1&#45;&gt;Node13_2 -->
<g id="edge18" class="edge">
<title>Node13_1&#45;&gt;Node13_2</title>
<path fill="none" stroke="black" d="M840.84,-220.27C840.84,-233.58 840.84,-249.19 840.84,-260.82"/>
<polygon fill="black" stroke="black" points="844.34,-220.2 840.84,-210.2 837.34,-220.2 844.34,-220.2"/>
<text text-anchor="middle" x="905.34" y="-231.8" font-family="Times,serif" font-size="14.00">द्वन्द्वः</text>
</g>
<!-- Node16_1 -->
<g id="node35" class="node">
<title>Node16_1</title>
<ellipse fill="#ff99ff" stroke="#ff99ff" cx="2163.84" cy="-279" rx="47.39" ry="18"/>
<text text-anchor="middle" x="2163.84" y="-275.3" font-family="Times,serif" font-size="14.00">च(16.1)</text>
</g>
<!-- Node16_1&#45;&gt;Node19_1 -->
<g id="edge22" class="edge">
<title>Node16_1&#45;&gt;Node19_1</title>
<path fill="none" stroke="black" d="M2120.01,-294.57C2116.92,-295.44 2113.84,-296.26 2110.84,-297 2065.72,-308.12 2051.53,-299.15 2007.84,-315 1995.3,-319.55 1994.63,-326.21 1981.84,-330 1878.67,-360.53 1575.46,-365.23 1414.67,-365.47"/>
<polygon fill="black" stroke="black" points="2121.23,-297.86 2129.83,-291.67 2119.24,-291.15 2121.23,-297.86"/>
<text text-anchor="middle" x="2111.34" y="-318.8" font-family="Times,serif" font-size="14.00">समुच्चय_द्योतकः</text>
</g>
<!-- Node17_1 -->
<g id="node36" class="node">
<title>Node17_1</title>
<ellipse fill="#ffff00" stroke="#ffff00" cx="1027.84" cy="-192" rx="87.18" ry="18"/>
<text text-anchor="middle" x="1027.84" y="-188.3" font-family="Times,serif" font-size="14.00">चतुर्&#45;(17.1)</text>
</g>
<!-- Node17_1&#45;&gt;Node17_2 -->
<g id="edge23" class="edge">
<title>Node17_1&#45;&gt;Node17_2</title>
<path fill="none" stroke="black" d="M1027.84,-220.27C1027.84,-233.58 1027.84,-249.19 1027.84,-260.82"/>
<polygon fill="black" stroke="black" points="1031.34,-220.2 1027.84,-210.2 1024.34,-220.2 1031.34,-220.2"/>
<text text-anchor="middle" x="1077.84" y="-231.8" font-family="Times,serif" font-size="14.00">द्विगुः</text>
</g>
<!-- Node18_1 -->
<g id="node37" class="node">
<title>Node18_1</title>
<ellipse fill="#ffff00" stroke="#ffff00" cx="1615.84" cy="-18" rx="87.18" ry="18"/>
<text text-anchor="middle" x="1615.84" y="-14.3" font-family="Times,serif" font-size="14.00">श्वेत&#45;(18.1)</text>
</g>
<!-- Node18_2 -->
<g id="node38" class="node">
<title>Node18_2</title>
<ellipse fill="#ffff00" stroke="#ffff00" cx="1615.84" cy="-105" rx="77.99" ry="18"/>
<text text-anchor="middle" x="1615.84" y="-101.3" font-family="Times,serif" font-size="14.00">अभ्र&#45;(18.2)</text>
</g>
<!-- Node18_1&#45;&gt;Node18_2 -->
<g id="edge25" class="edge">
<title>Node18_1&#45;&gt;Node18_2</title>
<path fill="none" stroke="black" d="M1615.84,-46.27C1615.84,-59.58 1615.84,-75.19 1615.84,-86.82"/>
<polygon fill="black" stroke="black" points="1619.34,-46.2 1615.84,-36.2 1612.34,-46.2 1619.34,-46.2"/>
<text text-anchor="middle" x="1680.34" y="-57.8" font-family="Times,serif" font-size="14.00">कर्मधारयः</text>
</g>
<!-- Node18_3 -->
<g id="node39" class="node">
<title>Node18_3</title>
<ellipse fill="#ffff00" stroke="#ffff00" cx="1615.84" cy="-192" rx="77.99" ry="18"/>
<text text-anchor="middle" x="1615.84" y="-188.3" font-family="Times,serif" font-size="14.00">निचय&#45;(18.3)</text>
</g>
<!-- Node18_2&#45;&gt;Node18_3 -->
<g id="edge26" class="edge">
<title>Node18_2&#45;&gt;Node18_3</title>
<path fill="none" stroke="black" d="M1615.84,-133.27C1615.84,-146.58 1615.84,-162.19 1615.84,-173.82"/>
<polygon fill="black" stroke="black" points="1619.34,-133.2 1615.84,-123.2 1612.34,-133.2 1619.34,-133.2"/>
<text text-anchor="middle" x="1719.34" y="-144.8" font-family="Times,serif" font-size="14.00">षष्ठी_तत्पुरुषः</text>
</g>
<!-- Node18_3&#45;&gt;Node18_4 -->
<g id="edge27" class="edge">
<title>Node18_3&#45;&gt;Node18_4</title>
<path fill="none" stroke="black" d="M1615.84,-220.27C1615.84,-233.58 1615.84,-249.19 1615.84,-260.82"/>
<polygon fill="black" stroke="black" points="1619.34,-220.2 1615.84,-210.2 1612.34,-220.2 1619.34,-220.2"/>
<text text-anchor="middle" x="1680.34" y="-231.8" font-family="Times,serif" font-size="14.00">कर्मधारयः</text>
</g>
<!-- Node20_1 -->
<g id="node40" class="node">
<title>Node20_1</title>
<ellipse fill="#ffff00" stroke="#ffff00" cx="3284.84" cy="-366" rx="87.18" ry="18"/>
<text text-anchor="middle" x="3284.84" y="-362.3" font-family="Times,serif" font-size="14.00">रुचिर&#45;(20.1)</text>
</g>
<!-- Node20_1&#45;&gt;Node20_2 -->
<g id="edge30" class="edge">
<title>Node20_1&#45;&gt;Node20_2</title>
<path fill="none" stroke="black" d="M3278.74,-393.63C3275.44,-402.35 3270.42,-411.26 3262.84,-417 3250.14,-426.62 3207.52,-424.15 3191.84,-427 3174.3,-430.19 3155.33,-434.2 3138.08,-438.08"/>
<polygon fill="black" stroke="black" points="3282.09,-394.63 3281.78,-384.04 3275.42,-392.51 3282.09,-394.63"/>
<text text-anchor="middle" x="3345.34" y="-405.8" font-family="Times,serif" font-size="14.00">बहुव्रीहिः</text>
</g>
<!-- Node22_1 -->
<g id="node41" class="node">
<title>Node22_1</title>
<ellipse fill="#ff99ff" stroke="#ff99ff" cx="2535.84" cy="-366" rx="47.39" ry="18"/>
<text text-anchor="middle" x="2535.84" y="-362.3" font-family="Times,serif" font-size="14.00">च(22.1)</text>
</g>
<!-- Node22_1&#45;&gt;Node24_1 -->
<g id="edge33" class="edge">
<title>Node22_1&#45;&gt;Node24_1</title>
<path fill="none" stroke="black" d="M2498.56,-385.11C2467.65,-400.12 2424.08,-421.29 2394.27,-435.76"/>
<polygon fill="black" stroke="black" points="2500.26,-388.17 2507.72,-380.66 2497.2,-381.88 2500.26,-388.17"/>
<text text-anchor="middle" x="2515.34" y="-405.8" font-family="Times,serif" font-size="14.00">सम्बन्धः</text>
</g>
<!-- Node23_1 -->
<g id="node42" class="node">
<title>Node23_1</title>
<ellipse fill="#ffff00" stroke="#ffff00" cx="2850.84" cy="-279" rx="68.79" ry="18"/>
<text text-anchor="middle" x="2850.84" y="-275.3" font-family="Times,serif" font-size="14.00">मृग&#45;(23.1)</text>
</g>
<!-- Node23_2 -->
<g id="node43" class="node">
<title>Node23_2</title>
<ellipse fill="#40e0d0" stroke="#40e0d0" cx="2850.84" cy="-366" rx="112.38" ry="18"/>
<text text-anchor="middle" x="2850.84" y="-362.3" font-family="Times,serif" font-size="14.00">पक्षिभिः(23.2)</text>
</g>
<!-- Node23_1&#45;&gt;Node23_2 -->
<g id="edge34" class="edge">
<title>Node23_1&#45;&gt;Node23_2</title>
<path fill="none" stroke="black" d="M2850.84,-307.27C2850.84,-320.58 2850.84,-336.19 2850.84,-347.82"/>
<polygon fill="black" stroke="black" points="2854.34,-307.2 2850.84,-297.2 2847.34,-307.2 2854.34,-307.2"/>
<text text-anchor="middle" x="2915.34" y="-318.8" font-family="Times,serif" font-size="14.00">द्वन्द्वः</text>
</g>
<!-- Node23_2&#45;&gt;Node33_1 -->
<g id="edge35" class="edge">
<title>Node23_2&#45;&gt;Node33_1</title>
<path fill="none" stroke="black" d="M2844.43,-394.27C2841.29,-407.58 2837.62,-423.19 2834.88,-434.82"/>
<polygon fill="black" stroke="black" points="2847.91,-394.74 2846.79,-384.2 2841.1,-393.13 2847.91,-394.74"/>
<text text-anchor="middle" x="2877.84" y="-405.8" font-family="Times,serif" font-size="14.00">करणम्</text>
</g>
<!-- Node25_1 -->
<g id="node44" class="node">
<title>Node25_1</title>
<ellipse fill="#ffff00" stroke="#ffff00" cx="2081.84" cy="-18" rx="87.18" ry="18"/>
<text text-anchor="middle" x="2081.84" y="-14.3" font-family="Times,serif" font-size="14.00">सुमहा&#45;(25.1)</text>
</g>
<!-- Node25_1&#45;&gt;Node25_1 -->
<g id="edge37" class="edge">
<title>Node25_1&#45;&gt;Node25_1</title>
<path fill="none" stroke="black" d="M2171.24,-11.44C2180.79,-12.7 2186.93,-14.89 2186.93,-18 2186.93,-22.1 2176.24,-24.6 2161.13,-25.5"/>
<polygon fill="black" stroke="black" points="2171.41,-7.94 2161.13,-10.5 2170.76,-14.91 2171.41,-7.94"/>
<text text-anchor="middle" x="2251.43" y="-14.3" font-family="Times,serif" font-size="14.00">कर्मधारयः</text>
</g>
<!-- Node27_1 -->
<g id="node45" class="node">
<title>Node27_1</title>
<ellipse fill="#ff99ff" stroke="#ff99ff" cx="2589.84" cy="-279" rx="102.88" ry="18"/>
<text text-anchor="middle" x="2589.84" y="-275.3" font-family="Times,serif" font-size="14.00">सहस्रशः(27.1)</text>
</g>
<!-- Node27_1&#45;&gt;Node26_1 -->
<g id="edge40" class="edge">
<title>Node27_1&#45;&gt;Node26_1</title>
<path fill="none" stroke="black" d="M2544.5,-299.88C2521.71,-309.54 2493.54,-320.98 2467.84,-330 2447.32,-337.2 2424.47,-344.17 2404.32,-349.97"/>
<polygon fill="black" stroke="black" points="2546.09,-303.01 2553.92,-295.86 2543.34,-296.57 2546.09,-303.01"/>
<text text-anchor="middle" x="2562.34" y="-318.8" font-family="Times,serif" font-size="14.00">सम्बन्धः</text>
</g>
<!-- Node28_1 -->
<g id="node46" class="node">
<title>Node28_1</title>
<ellipse fill="#ffff00" stroke="#ffff00" cx="96.84" cy="-366" rx="96.68" ry="18"/>
<text text-anchor="middle" x="96.84" y="-362.3" font-family="Times,serif" font-size="14.00">राक्षस&#45;(28.1)</text>
</g>
<!-- Node28_2 -->
<g id="node47" class="node">
<title>Node28_2</title>
<ellipse fill="#87ceeb" stroke="#87ceeb" cx="1118.84" cy="-453" rx="102.88" ry="18"/>
<text text-anchor="middle" x="1118.84" y="-449.3" font-family="Times,serif" font-size="14.00">अधिपतेः(28.2)</text>
</g>
<!-- Node28_1&#45;&gt;Node28_2 -->
<g id="edge41" class="edge">
<title>Node28_1&#45;&gt;Node28_2</title>
<path fill="none" stroke="black" d="M157.31,-383.82C170.58,-386.99 184.61,-389.95 197.84,-392 492.56,-437.7 845.57,-448.67 1016.32,-451.24"/>
<polygon fill="black" stroke="black" points="157.89,-380.36 147.35,-381.37 156.22,-387.16 157.89,-380.36"/>
<text text-anchor="middle" x="477.34" y="-405.8" font-family="Times,serif" font-size="14.00">षष्ठी_तत्पुरुषः</text>
</g>
<!-- Node28_2&#45;&gt;Node31_1 -->
<g id="edge42" class="edge">
<title>Node28_2&#45;&gt;Node31_1</title>
<path fill="none" stroke="black" d="M1227.67,-458.47C1440.51,-467.22 1926.84,-487.21 2335.84,-504 2618.88,-515.62 2954.74,-529.4 3106.8,-535.63"/>
<polygon fill="black" stroke="black" points="1227.57,-454.97 1217.43,-458.05 1227.28,-461.96 1227.57,-454.97"/>
<text text-anchor="middle" x="2428.84" y="-492.8" font-family="Times,serif" font-size="14.00">षष्ठीसम्बन्धः</text>
</g>
<!-- Node32_1&#45;&gt;Node30_1 -->
<g id="edge45" class="edge">
<title>Node32_1&#45;&gt;Node30_1</title>
<path fill="none" stroke="black" d="M3174.84,-653.8C3169.58,-662.12 3163.09,-670.99 3155.84,-678 3148.41,-685.19 3139.26,-691.61 3130.48,-696.93"/>
<polygon fill="black" stroke="black" points="3177.92,-655.48 3180.06,-645.11 3171.91,-651.88 3177.92,-655.48"/>
<text text-anchor="middle" x="3203.84" y="-666.8" font-family="Times,serif" font-size="14.00">कर्ता</text>
</g>
</g>
</svg>
