<?xml version="1.0" encoding="UTF-8" standalone="no"?>
<!DOCTYPE svg PUBLIC "-//W3C//DTD SVG 1.1//EN"
 "http://www.w3.org/Graphics/SVG/1.1/DTD/svg11.dtd">
<!-- Generated by graphviz version 2.43.0 (0)
 -->
<!-- Title: G Pages: 1 -->
<svg width="4247pt" height="479pt"
 viewBox="0.00 0.00 4246.60 479.00" xmlns="http://www.w3.org/2000/svg" xmlns:xlink="http://www.w3.org/1999/xlink">
<g id="graph0" class="graph" transform="scale(1 1) rotate(0) translate(4 475)">
<title>G</title>
<polygon fill="#fffacd" stroke="transparent" points="-4,4 -4,-475 4242.6,-475 4242.6,4 -4,4"/>
<g id="clust1" class="cluster">
<title>cluster_1</title>
<polygon fill="#fffacd" stroke="black" points="1178.6,-166 1178.6,-392 3230.6,-392 3230.6,-166 1178.6,-166"/>
</g>
<!-- Node1_1 -->
<g id="node1" class="node">
<title>Node1_1</title>
<ellipse fill="#93db70" stroke="#93db70" cx="1767.6" cy="-279" rx="115.88" ry="18"/>
<text text-anchor="middle" x="1767.6" y="-275.3" font-family="Times,serif" font-size="14.00">स्रग्विणः(1.1)</text>
</g>
<!-- Node15_2 -->
<g id="node2" class="node">
<title>Node15_2</title>
<ellipse fill="#93db70" stroke="#93db70" cx="1979.6" cy="-366" rx="84.49" ry="18"/>
<text text-anchor="middle" x="1979.6" y="-362.3" font-family="Times,serif" font-size="14.00">बलान्(15.2)</text>
</g>
<!-- Node1_1&#45;&gt;Node15_2 -->
<g id="edge1" class="edge">
<title>Node1_1&#45;&gt;Node15_2</title>
<path fill="none" stroke="black" d="M1798.41,-302.61C1812.53,-312.15 1829.84,-322.7 1846.6,-330 1869.58,-340.01 1896.09,-347.7 1919.36,-353.28"/>
<polygon fill="black" stroke="black" points="1800.28,-299.65 1790.06,-296.85 1796.3,-305.41 1800.28,-299.65"/>
<text text-anchor="middle" x="1911.1" y="-318.8" font-family="Times,serif" font-size="14.00">समुच्चितः</text>
</g>
<!-- Node22_1 -->
<g id="node17" class="node">
<title>Node22_1</title>
<ellipse fill="#ff1975" stroke="#ff1975" cx="616.6" cy="-453" rx="84.49" ry="18"/>
<text text-anchor="middle" x="616.6" y="-449.3" font-family="Times,serif" font-size="14.00">ददर्श(22.1)</text>
</g>
<!-- Node15_2&#45;&gt;Node22_1 -->
<g id="edge23" class="edge">
<title>Node15_2&#45;&gt;Node22_1</title>
<path fill="none" stroke="black" d="M1889.51,-372.62C1638.67,-388.26 935.07,-432.14 696.71,-447"/>
<polygon fill="black" stroke="black" points="1889.91,-376.1 1899.67,-371.98 1889.48,-369.11 1889.91,-376.1"/>
<text text-anchor="middle" x="1408.6" y="-405.8" font-family="Times,serif" font-size="14.00">कर्म</text>
</g>
<!-- Node3_1 -->
<g id="node3" class="node">
<title>Node3_1</title>
<ellipse fill="#93db70" stroke="#93db70" cx="2902.6" cy="-279" rx="133.78" ry="18"/>
<text text-anchor="middle" x="2902.6" y="-275.3" font-family="Times,serif" font-size="14.00">अनुलिप्तान्(3.1)</text>
</g>
<!-- Node3_1&#45;&gt;Node15_2 -->
<g id="edge3" class="edge">
<title>Node3_1&#45;&gt;Node15_2</title>
<path fill="none" stroke="black" d="M2833.97,-297.69C2787.6,-308.89 2724.81,-322.61 2668.6,-330 2452.02,-358.45 2194.34,-364.13 2064.04,-365.04"/>
<polygon fill="black" stroke="black" points="2835.02,-301.04 2843.9,-295.27 2833.36,-294.24 2835.02,-301.04"/>
<text text-anchor="middle" x="2817.1" y="-318.8" font-family="Times,serif" font-size="14.00">समुच्चितः</text>
</g>
<!-- Node5_3 -->
<g id="node4" class="node">
<title>Node5_3</title>
<ellipse fill="#93db70" stroke="#93db70" cx="2182.6" cy="-279" rx="106.68" ry="18"/>
<text text-anchor="middle" x="2182.6" y="-275.3" font-family="Times,serif" font-size="14.00">भूषितान्(5.3)</text>
</g>
<!-- Node5_3&#45;&gt;Node15_2 -->
<g id="edge7" class="edge">
<title>Node5_3&#45;&gt;Node15_2</title>
<path fill="none" stroke="black" d="M2155.21,-303.09C2142.84,-312.56 2127.65,-322.94 2112.6,-330 2090.33,-340.45 2064.45,-348.15 2041.47,-353.63"/>
<polygon fill="black" stroke="black" points="2157.6,-305.67 2163.29,-296.73 2153.27,-300.17 2157.6,-305.67"/>
<text text-anchor="middle" x="2201.1" y="-318.8" font-family="Times,serif" font-size="14.00">समुच्चितः</text>
</g>
<!-- Node6_3 -->
<g id="node5" class="node">
<title>Node6_3</title>
<ellipse fill="#93db70" stroke="#93db70" cx="2440.6" cy="-279" rx="133.78" ry="18"/>
<text text-anchor="middle" x="2440.6" y="-275.3" font-family="Times,serif" font-size="14.00">समायुक्तान्(6.3)</text>
</g>
<!-- Node6_3&#45;&gt;Node15_2 -->
<g id="edge10" class="edge">
<title>Node6_3&#45;&gt;Node15_2</title>
<path fill="none" stroke="black" d="M2384.01,-299.09C2350.98,-309.59 2308.31,-322.06 2269.6,-330 2198.56,-344.57 2116.39,-353.78 2057.7,-359.08"/>
<polygon fill="black" stroke="black" points="2385.49,-302.29 2393.94,-295.9 2383.35,-295.63 2385.49,-302.29"/>
<text text-anchor="middle" x="2391.1" y="-318.8" font-family="Times,serif" font-size="14.00">समुच्चितः</text>
</g>
<!-- Node8_2 -->
<g id="node6" class="node">
<title>Node8_2</title>
<ellipse fill="#93db70" stroke="#93db70" cx="2671.6" cy="-279" rx="78.79" ry="18"/>
<text text-anchor="middle" x="2671.6" y="-275.3" font-family="Times,serif" font-size="14.00">चरान्(8.2)</text>
</g>
<!-- Node8_2&#45;&gt;Node15_2 -->
<g id="edge13" class="edge">
<title>Node8_2&#45;&gt;Node15_2</title>
<path fill="none" stroke="black" d="M2614.17,-296.16C2571.8,-307.44 2512.54,-321.88 2459.6,-330 2321.47,-351.19 2158.95,-359.63 2062.86,-362.94"/>
<polygon fill="black" stroke="black" points="2615.28,-299.48 2624.03,-293.51 2613.46,-292.72 2615.28,-299.48"/>
<text text-anchor="middle" x="2600.1" y="-318.8" font-family="Times,serif" font-size="14.00">समुच्चितः</text>
</g>
<!-- Node9_1 -->
<g id="node7" class="node">
<title>Node9_1</title>
<ellipse fill="#93db70" stroke="#93db70" cx="1979.6" cy="-279" rx="78.79" ry="18"/>
<text text-anchor="middle" x="1979.6" y="-275.3" font-family="Times,serif" font-size="14.00">बहून्(9.1)</text>
</g>
<!-- Node9_1&#45;&gt;Node15_2 -->
<g id="edge14" class="edge">
<title>Node9_1&#45;&gt;Node15_2</title>
<path fill="none" stroke="black" d="M1979.6,-307.27C1979.6,-320.58 1979.6,-336.19 1979.6,-347.82"/>
<polygon fill="black" stroke="black" points="1983.1,-307.2 1979.6,-297.2 1976.1,-307.2 1983.1,-307.2"/>
<text text-anchor="middle" x="2044.1" y="-318.8" font-family="Times,serif" font-size="14.00">समुच्चितः</text>
</g>
<!-- Node10_3 -->
<g id="node8" class="node">
<title>Node10_3</title>
<ellipse fill="#93db70" stroke="#93db70" cx="3138.6" cy="-279" rx="84.49" ry="18"/>
<text text-anchor="middle" x="3138.6" y="-275.3" font-family="Times,serif" font-size="14.00">धरान्(10.3)</text>
</g>
<!-- Node10_3&#45;&gt;Node15_2 -->
<g id="edge17" class="edge">
<title>Node10_3&#45;&gt;Node15_2</title>
<path fill="none" stroke="black" d="M3075.31,-295.37C3024.4,-307.04 2950.84,-322.34 2885.6,-330 2727.99,-348.5 2256.64,-359.57 2063.52,-363.44"/>
<polygon fill="black" stroke="black" points="3076.23,-298.75 3085.19,-293.09 3074.65,-291.93 3076.23,-298.75"/>
<text text-anchor="middle" x="3041.1" y="-318.8" font-family="Times,serif" font-size="14.00">समुच्चितः</text>
</g>
<!-- Node13_1 -->
<g id="node9" class="node">
<title>Node13_1</title>
<ellipse fill="#93db70" stroke="#93db70" cx="1531.6" cy="-279" rx="102.88" ry="18"/>
<text text-anchor="middle" x="1531.6" y="-275.3" font-family="Times,serif" font-size="14.00">वज्रिणः(13.1)</text>
</g>
<!-- Node13_1&#45;&gt;Node15_2 -->
<g id="edge20" class="edge">
<title>Node13_1&#45;&gt;Node15_2</title>
<path fill="none" stroke="black" d="M1581.91,-299.09C1611.67,-309.69 1650.32,-322.25 1685.6,-330 1757.39,-345.77 1840.71,-354.84 1900.28,-359.78"/>
<polygon fill="black" stroke="black" points="1582.77,-295.68 1572.17,-295.58 1580.4,-302.27 1582.77,-295.68"/>
<text text-anchor="middle" x="1750.1" y="-318.8" font-family="Times,serif" font-size="14.00">समुच्चितः</text>
</g>
<!-- Node16_2 -->
<g id="node10" class="node">
<title>Node16_2</title>
<ellipse fill="#93db70" stroke="#93db70" cx="1298.6" cy="-279" rx="112.38" ry="18"/>
<text text-anchor="middle" x="1298.6" y="-275.3" font-family="Times,serif" font-size="14.00">साहस्रम्(16.2)</text>
</g>
<!-- Node16_2&#45;&gt;Node15_2 -->
<g id="edge25" class="edge">
<title>Node16_2&#45;&gt;Node15_2</title>
<path fill="none" stroke="black" d="M1358.17,-297.95C1397.18,-308.98 1449.49,-322.4 1496.6,-330 1635.42,-352.38 1799.01,-360.46 1895.75,-363.37"/>
<polygon fill="black" stroke="black" points="1359.12,-294.58 1348.55,-295.2 1357.2,-301.31 1359.12,-294.58"/>
<text text-anchor="middle" x="1561.1" y="-318.8" font-family="Times,serif" font-size="14.00">समुच्चितः</text>
</g>
<!-- Node17_2 -->
<g id="node11" class="node">
<title>Node17_2</title>
<ellipse fill="#93db70" stroke="#93db70" cx="1298.6" cy="-192" rx="112.38" ry="18"/>
<text text-anchor="middle" x="1298.6" y="-188.3" font-family="Times,serif" font-size="14.00">व्यग्रम्(17.2)</text>
</g>
<!-- Node17_2&#45;&gt;Node16_2 -->
<g id="edge27" class="edge">
<title>Node17_2&#45;&gt;Node16_2</title>
<path fill="none" stroke="black" d="M1298.6,-220.27C1298.6,-233.58 1298.6,-249.19 1298.6,-260.82"/>
<polygon fill="black" stroke="black" points="1302.1,-220.2 1298.6,-210.2 1295.1,-220.2 1302.1,-220.2"/>
<text text-anchor="middle" x="1356.1" y="-231.8" font-family="Times,serif" font-size="14.00">विशेषणम्</text>
</g>
<!-- Node18_1 -->
<g id="node12" class="node">
<title>Node18_1</title>
<ellipse fill="#93db70" stroke="#93db70" cx="1754.6" cy="-192" rx="102.88" ry="18"/>
<text text-anchor="middle" x="1754.6" y="-188.3" font-family="Times,serif" font-size="14.00">आरक्षम्(18.1)</text>
</g>
<!-- Node18_1&#45;&gt;Node16_2 -->
<g id="edge28" class="edge">
<title>Node18_1&#45;&gt;Node16_2</title>
<path fill="none" stroke="black" d="M1697.17,-210.94C1661.13,-221.61 1613.52,-234.66 1570.6,-243 1504.25,-255.9 1486.62,-252.3 1419.6,-261 1406.55,-262.69 1392.73,-264.56 1379.27,-266.43"/>
<polygon fill="black" stroke="black" points="1698.43,-214.22 1707.01,-208 1696.43,-207.51 1698.43,-214.22"/>
<text text-anchor="middle" x="1689.1" y="-231.8" font-family="Times,serif" font-size="14.00">विशेषणम्</text>
</g>
<!-- Node19_1 -->
<g id="node13" class="node">
<title>Node19_1</title>
<ellipse fill="#93db70" stroke="#93db70" cx="1531.6" cy="-192" rx="102.88" ry="18"/>
<text text-anchor="middle" x="1531.6" y="-188.3" font-family="Times,serif" font-size="14.00">मध्यमम्(19.1)</text>
</g>
<!-- Node19_1&#45;&gt;Node16_2 -->
<g id="edge29" class="edge">
<title>Node19_1&#45;&gt;Node16_2</title>
<path fill="none" stroke="black" d="M1488.78,-213.32C1467.62,-222.97 1441.54,-234.27 1417.6,-243 1397.16,-250.45 1374.33,-257.47 1354.17,-263.24"/>
<polygon fill="black" stroke="black" points="1490.51,-216.38 1498.14,-209.02 1487.59,-210.02 1490.51,-216.38"/>
<text text-anchor="middle" x="1509.1" y="-231.8" font-family="Times,serif" font-size="14.00">विशेषणम्</text>
</g>
<!-- Node21_3 -->
<g id="node14" class="node">
<title>Node21_3</title>
<ellipse fill="#93db70" stroke="#93db70" cx="2014.6" cy="-192" rx="139.98" ry="18"/>
<text text-anchor="middle" x="2014.6" y="-188.3" font-family="Times,serif" font-size="14.00">निर्दिष्टम्(21.3)</text>
</g>
<!-- Node21_3&#45;&gt;Node16_2 -->
<g id="edge33" class="edge">
<title>Node21_3&#45;&gt;Node16_2</title>
<path fill="none" stroke="black" d="M1939.15,-210.05C1886.57,-221.25 1814.66,-235.23 1750.6,-243 1604.34,-260.75 1566.23,-246.74 1419.6,-261 1405.77,-262.35 1391.09,-264.11 1376.91,-266"/>
<polygon fill="black" stroke="black" points="1940.02,-213.44 1949.07,-207.92 1938.55,-206.6 1940.02,-213.44"/>
<text text-anchor="middle" x="1902.1" y="-231.8" font-family="Times,serif" font-size="14.00">विशेषणम्</text>
</g>
<!-- Node2_1 -->
<g id="node15" class="node">
<title>Node2_1</title>
<ellipse fill="#ff99ff" stroke="#ff99ff" cx="3289.6" cy="-192" rx="50.89" ry="18"/>
<text text-anchor="middle" x="3289.6" y="-188.3" font-family="Times,serif" font-size="14.00">तु(2.1)</text>
</g>
<!-- Node2_1&#45;&gt;Node1_1 -->
<g id="edge2" class="edge">
<title>Node2_1&#45;&gt;Node1_1</title>
<path fill="none" stroke="black" d="M3245.13,-207.81C3241.59,-208.66 3238.05,-209.41 3234.6,-210 2940.18,-260.19 2189.12,-235.02 1891.6,-261 1877.2,-262.26 1861.92,-264.01 1847.18,-265.91"/>
<polygon fill="black" stroke="black" points="3246.25,-211.14 3255.02,-205.19 3244.45,-204.37 3246.25,-211.14"/>
<text text-anchor="middle" x="3119.1" y="-231.8" font-family="Times,serif" font-size="14.00">सम्बन्धः</text>
</g>
<!-- Node4_1 -->
<g id="node16" class="node">
<title>Node4_1</title>
<ellipse fill="#ff99ff" stroke="#ff99ff" cx="41.6" cy="-366" rx="41.69" ry="18"/>
<text text-anchor="middle" x="41.6" y="-362.3" font-family="Times,serif" font-size="14.00">च(4.1)</text>
</g>
<!-- Node4_1&#45;&gt;Node22_1 -->
<g id="edge4" class="edge">
<title>Node4_1&#45;&gt;Node22_1</title>
<path fill="none" stroke="black" d="M51.27,-393.18C55.98,-402.26 62.61,-411.53 71.6,-417 109.9,-440.34 389.42,-448.3 532.57,-450.86"/>
<polygon fill="black" stroke="black" points="54.39,-391.58 47.04,-383.95 48.03,-394.5 54.39,-391.58"/>
<text text-anchor="middle" x="175.1" y="-405.8" font-family="Times,serif" font-size="14.00">समुच्चय_द्योतकः</text>
</g>
<!-- Node5_1 -->
<g id="node18" class="node">
<title>Node5_1</title>
<ellipse fill="#ffff00" stroke="#ffff00" cx="3430.6" cy="-105" rx="53.89" ry="18"/>
<text text-anchor="middle" x="3430.6" y="-101.3" font-family="Times,serif" font-size="14.00">वर&#45;(5.1)</text>
</g>
<!-- Node5_2 -->
<g id="node19" class="node">
<title>Node5_2</title>
<ellipse fill="#ffff00" stroke="#ffff00" cx="3430.6" cy="-192" rx="72.29" ry="18"/>
<text text-anchor="middle" x="3430.6" y="-188.3" font-family="Times,serif" font-size="14.00">आभरण&#45;(5.2)</text>
</g>
<!-- Node5_1&#45;&gt;Node5_2 -->
<g id="edge5" class="edge">
<title>Node5_1&#45;&gt;Node5_2</title>
<path fill="none" stroke="black" d="M3430.6,-133.27C3430.6,-146.58 3430.6,-162.19 3430.6,-173.82"/>
<polygon fill="black" stroke="black" points="3434.1,-133.2 3430.6,-123.2 3427.1,-133.2 3434.1,-133.2"/>
<text text-anchor="middle" x="3495.1" y="-144.8" font-family="Times,serif" font-size="14.00">कर्मधारयः</text>
</g>
<!-- Node5_2&#45;&gt;Node5_3 -->
<g id="edge6" class="edge">
<title>Node5_2&#45;&gt;Node5_3</title>
<path fill="none" stroke="black" d="M3367.71,-206.56C3361.6,-207.77 3355.48,-208.94 3349.6,-210 3296.96,-219.5 3279.67,-206.72 3230.6,-228 3220.73,-232.28 3221.72,-239.37 3211.6,-243 3163.78,-260.13 2348.21,-256.78 2297.6,-261 2283.92,-262.14 2269.4,-263.88 2255.44,-265.81"/>
<polygon fill="black" stroke="black" points="3368.85,-209.9 3377.96,-204.5 3367.47,-203.04 3368.85,-209.9"/>
<text text-anchor="middle" x="3341.1" y="-231.8" font-family="Times,serif" font-size="14.00">तृतीया_तत्पुरुषः</text>
</g>
<!-- Node6_1 -->
<g id="node20" class="node">
<title>Node6_1</title>
<ellipse fill="#ffff00" stroke="#ffff00" cx="3583.6" cy="-105" rx="72.29" ry="18"/>
<text text-anchor="middle" x="3583.6" y="-101.3" font-family="Times,serif" font-size="14.00">नाना&#45;(6.1)</text>
</g>
<!-- Node6_2 -->
<g id="node21" class="node">
<title>Node6_2</title>
<ellipse fill="#ffff00" stroke="#ffff00" cx="3583.6" cy="-192" rx="63.09" ry="18"/>
<text text-anchor="middle" x="3583.6" y="-188.3" font-family="Times,serif" font-size="14.00">वेष&#45;(6.2)</text>
</g>
<!-- Node6_1&#45;&gt;Node6_2 -->
<g id="edge8" class="edge">
<title>Node6_1&#45;&gt;Node6_2</title>
<path fill="none" stroke="black" d="M3583.6,-133.27C3583.6,-146.58 3583.6,-162.19 3583.6,-173.82"/>
<polygon fill="black" stroke="black" points="3587.1,-133.2 3583.6,-123.2 3580.1,-133.2 3587.1,-133.2"/>
<text text-anchor="middle" x="3648.1" y="-144.8" font-family="Times,serif" font-size="14.00">कर्मधारयः</text>
</g>
<!-- Node6_2&#45;&gt;Node6_3 -->
<g id="edge9" class="edge">
<title>Node6_2&#45;&gt;Node6_3</title>
<path fill="none" stroke="black" d="M3526.79,-207.04C3509.5,-212.41 3490.8,-219.37 3474.6,-228 3465.1,-233.06 3465.72,-239.37 3455.6,-243 3409.99,-259.36 2631.93,-257.64 2583.6,-261 2566.89,-262.16 2549.13,-263.88 2532.01,-265.79"/>
<polygon fill="black" stroke="black" points="3528.19,-210.27 3536.77,-204.06 3526.19,-203.56 3528.19,-210.27"/>
<text text-anchor="middle" x="3585.1" y="-231.8" font-family="Times,serif" font-size="14.00">तृतीया_तत्पुरुषः</text>
</g>
<!-- Node7_1 -->
<g id="node22" class="node">
<title>Node7_1</title>
<ellipse fill="#ff99ff" stroke="#ff99ff" cx="271.6" cy="-366" rx="59.59" ry="18"/>
<text text-anchor="middle" x="271.6" y="-362.3" font-family="Times,serif" font-size="14.00">यथा(7.1)</text>
</g>
<!-- Node7_1&#45;&gt;Node22_1 -->
<g id="edge11" class="edge">
<title>Node7_1&#45;&gt;Node22_1</title>
<path fill="none" stroke="black" d="M278.14,-393.78C281.61,-402.52 286.82,-411.4 294.6,-417 331.39,-443.49 449.59,-450.49 532.04,-452.05"/>
<polygon fill="black" stroke="black" points="281.42,-392.54 274.93,-384.17 274.78,-394.76 281.42,-392.54"/>
<text text-anchor="middle" x="352.1" y="-405.8" font-family="Times,serif" font-size="14.00">सम्बन्धः</text>
</g>
<!-- Node8_1 -->
<g id="node23" class="node">
<title>Node8_1</title>
<ellipse fill="#ffff00" stroke="#ffff00" cx="3745.6" cy="-192" rx="81.49" ry="18"/>
<text text-anchor="middle" x="3745.6" y="-188.3" font-family="Times,serif" font-size="14.00">स्वैर&#45;(8.1)</text>
</g>
<!-- Node8_1&#45;&gt;Node8_2 -->
<g id="edge12" class="edge">
<title>Node8_1&#45;&gt;Node8_2</title>
<path fill="none" stroke="black" d="M3725.88,-217.91C3716.54,-228.95 3706.04,-240.1 3699.6,-243 3651.97,-264.45 2811.54,-255.53 2759.6,-261 2748.76,-262.14 2737.28,-263.93 2726.3,-265.93"/>
<polygon fill="black" stroke="black" points="3728.74,-219.95 3732.41,-210.01 3723.34,-215.49 3728.74,-219.95"/>
<text text-anchor="middle" x="3813.1" y="-231.8" font-family="Times,serif" font-size="14.00">उपपद_तत्पुरुषः</text>
</g>
<!-- Node10_1 -->
<g id="node24" class="node">
<title>Node10_1</title>
<ellipse fill="#ffff00" stroke="#ffff00" cx="3937.6" cy="-105" rx="105.88" ry="18"/>
<text text-anchor="middle" x="3937.6" y="-101.3" font-family="Times,serif" font-size="14.00">तीक्ष्ण&#45;(10.1)</text>
</g>
<!-- Node10_2 -->
<g id="node25" class="node">
<title>Node10_2</title>
<ellipse fill="#ffff00" stroke="#ffff00" cx="3937.6" cy="-192" rx="68.79" ry="18"/>
<text text-anchor="middle" x="3937.6" y="-188.3" font-family="Times,serif" font-size="14.00">शूल&#45;(10.2)</text>
</g>
<!-- Node10_1&#45;&gt;Node10_2 -->
<g id="edge15" class="edge">
<title>Node10_1&#45;&gt;Node10_2</title>
<path fill="none" stroke="black" d="M3937.6,-133.27C3937.6,-146.58 3937.6,-162.19 3937.6,-173.82"/>
<polygon fill="black" stroke="black" points="3941.1,-133.2 3937.6,-123.2 3934.1,-133.2 3941.1,-133.2"/>
<text text-anchor="middle" x="4002.1" y="-144.8" font-family="Times,serif" font-size="14.00">कर्मधारयः</text>
</g>
<!-- Node10_2&#45;&gt;Node10_3 -->
<g id="edge16" class="edge">
<title>Node10_2&#45;&gt;Node10_3</title>
<path fill="none" stroke="black" d="M3931.79,-220.03C3928.52,-228.79 3923.44,-237.63 3915.6,-243 3887.4,-262.32 3417.64,-272.97 3222.52,-276.58"/>
<polygon fill="black" stroke="black" points="3935.17,-220.95 3934.76,-210.36 3928.48,-218.89 3935.17,-220.95"/>
<text text-anchor="middle" x="4024.1" y="-231.8" font-family="Times,serif" font-size="14.00">उपपद_तत्पुरुषः</text>
</g>
<!-- Node11_1 -->
<g id="node26" class="node">
<title>Node11_1</title>
<ellipse fill="#ff99ff" stroke="#ff99ff" cx="409.6" cy="-366" rx="47.39" ry="18"/>
<text text-anchor="middle" x="409.6" y="-362.3" font-family="Times,serif" font-size="14.00">च(11.1)</text>
</g>
<!-- Node11_1&#45;&gt;Node22_1 -->
<g id="edge18" class="edge">
<title>Node11_1&#45;&gt;Node22_1</title>
<path fill="none" stroke="black" d="M410.46,-394.11C412.07,-402.49 415.32,-411.08 421.6,-417 438.39,-432.85 491.19,-441.7 537.63,-446.53"/>
<polygon fill="black" stroke="black" points="413.93,-393.65 409.21,-384.17 406.99,-394.52 413.93,-393.65"/>
<text text-anchor="middle" x="479.1" y="-405.8" font-family="Times,serif" font-size="14.00">सम्बन्धः</text>
</g>
<!-- Node12_1 -->
<g id="node27" class="node">
<title>Node12_1</title>
<ellipse fill="#ff99ff" stroke="#ff99ff" cx="547.6" cy="-366" rx="56.59" ry="18"/>
<text text-anchor="middle" x="547.6" y="-362.3" font-family="Times,serif" font-size="14.00">एव(12.1)</text>
</g>
<!-- Node12_1&#45;&gt;Node22_1 -->
<g id="edge19" class="edge">
<title>Node12_1&#45;&gt;Node22_1</title>
<path fill="none" stroke="black" d="M540.25,-393.98C539.55,-401.89 540.36,-410.23 544.6,-417 550.35,-426.19 559.28,-433.03 568.92,-438.1"/>
<polygon fill="black" stroke="black" points="543.72,-394.41 541.88,-383.98 536.82,-393.29 543.72,-394.41"/>
<text text-anchor="middle" x="602.1" y="-405.8" font-family="Times,serif" font-size="14.00">सम्बन्धः</text>
</g>
<!-- Node14_1 -->
<g id="node28" class="node">
<title>Node14_1</title>
<ellipse fill="#ff99ff" stroke="#ff99ff" cx="682.6" cy="-366" rx="47.39" ry="18"/>
<text text-anchor="middle" x="682.6" y="-362.3" font-family="Times,serif" font-size="14.00">च(14.1)</text>
</g>
<!-- Node14_1&#45;&gt;Node22_1 -->
<g id="edge21" class="edge">
<title>Node14_1&#45;&gt;Node22_1</title>
<path fill="none" stroke="black" d="M675.61,-393.67C672.72,-401.66 668.79,-410.12 663.6,-417 658.2,-424.14 650.96,-430.51 643.78,-435.79"/>
<polygon fill="black" stroke="black" points="679.01,-394.54 678.74,-383.94 672.34,-392.39 679.01,-394.54"/>
<text text-anchor="middle" x="730.1" y="-405.8" font-family="Times,serif" font-size="14.00">सम्बन्धः</text>
</g>
<!-- Node15_1 -->
<g id="node29" class="node">
<title>Node15_1</title>
<ellipse fill="#ffff00" stroke="#ffff00" cx="1099.6" cy="-279" rx="68.79" ry="18"/>
<text text-anchor="middle" x="1099.6" y="-275.3" font-family="Times,serif" font-size="14.00">महा&#45;(15.1)</text>
</g>
<!-- Node15_1&#45;&gt;Node15_2 -->
<g id="edge22" class="edge">
<title>Node15_1&#45;&gt;Node15_2</title>
<path fill="none" stroke="black" d="M1150.92,-296.42C1189.25,-307.93 1243.16,-322.54 1291.6,-330 1405.74,-347.58 1739.21,-358.55 1896.13,-362.88"/>
<polygon fill="black" stroke="black" points="1151.62,-292.97 1141.03,-293.41 1149.58,-299.67 1151.62,-292.97"/>
<text text-anchor="middle" x="1356.1" y="-318.8" font-family="Times,serif" font-size="14.00">कर्मधारयः</text>
</g>
<!-- Node16_1 -->
<g id="node30" class="node">
<title>Node16_1</title>
<ellipse fill="#ffff00" stroke="#ffff00" cx="4153.6" cy="-192" rx="59.59" ry="18"/>
<text text-anchor="middle" x="4153.6" y="-188.3" font-family="Times,serif" font-size="14.00">शत&#45;(16.1)</text>
</g>
<!-- Node16_1&#45;&gt;Node16_2 -->
<g id="edge24" class="edge">
<title>Node16_1&#45;&gt;Node16_2</title>
<path fill="none" stroke="black" d="M4144.6,-219.43C4140.09,-228.54 4133.61,-237.77 4124.6,-243 4092.1,-261.86 1457.07,-258.26 1419.6,-261 1405.1,-262.06 1389.7,-263.77 1374.92,-265.71"/>
<polygon fill="black" stroke="black" points="4147.86,-220.72 4148.61,-210.15 4141.43,-217.94 4147.86,-220.72"/>
<text text-anchor="middle" x="4188.6" y="-231.8" font-family="Times,serif" font-size="14.00">द्विगुः</text>
</g>
<!-- Node17_1 -->
<g id="node31" class="node">
<title>Node17_1</title>
<ellipse fill="#ffff00" stroke="#ffff00" cx="1298.6" cy="-105" rx="50.09" ry="18"/>
<text text-anchor="middle" x="1298.6" y="-101.3" font-family="Times,serif" font-size="14.00">अ&#45;(17.1)</text>
</g>
<!-- Node17_1&#45;&gt;Node17_2 -->
<g id="edge26" class="edge">
<title>Node17_1&#45;&gt;Node17_2</title>
<path fill="none" stroke="black" d="M1298.6,-133.27C1298.6,-146.58 1298.6,-162.19 1298.6,-173.82"/>
<polygon fill="black" stroke="black" points="1302.1,-133.2 1298.6,-123.2 1295.1,-133.2 1302.1,-133.2"/>
<text text-anchor="middle" x="1387.6" y="-144.8" font-family="Times,serif" font-size="14.00">नञ्_तत्पुरुषः</text>
</g>
<!-- Node20_1 -->
<g id="node32" class="node">
<title>Node20_1</title>
<ellipse fill="#00bfff" stroke="#00bfff" cx="823.6" cy="-366" rx="75.29" ry="18"/>
<text text-anchor="middle" x="823.6" y="-362.3" font-family="Times,serif" font-size="14.00">कपिः(20.1)</text>
</g>
<!-- Node20_1&#45;&gt;Node22_1 -->
<g id="edge30" class="edge">
<title>Node20_1&#45;&gt;Node22_1</title>
<path fill="none" stroke="black" d="M812.27,-392.96C807.18,-401.85 800.31,-411.04 791.6,-417 764.74,-435.35 730.47,-444.54 699.39,-448.99"/>
<polygon fill="black" stroke="black" points="815.45,-394.45 816.95,-383.96 809.24,-391.22 815.45,-394.45"/>
<text text-anchor="middle" x="842.6" y="-405.8" font-family="Times,serif" font-size="14.00">कर्ता</text>
</g>
<!-- Node21_1 -->
<g id="node33" class="node">
<title>Node21_1</title>
<ellipse fill="#ffff00" stroke="#ffff00" cx="2014.6" cy="-18" rx="96.68" ry="18"/>
<text text-anchor="middle" x="2014.6" y="-14.3" font-family="Times,serif" font-size="14.00">रक्षस्&#45;(21.1)</text>
</g>
<!-- Node21_2 -->
<g id="node34" class="node">
<title>Node21_2</title>
<ellipse fill="#ffff00" stroke="#ffff00" cx="2014.6" cy="-105" rx="96.68" ry="18"/>
<text text-anchor="middle" x="2014.6" y="-101.3" font-family="Times,serif" font-size="14.00">अधिपति&#45;(21.2)</text>
</g>
<!-- Node21_1&#45;&gt;Node21_2 -->
<g id="edge31" class="edge">
<title>Node21_1&#45;&gt;Node21_2</title>
<path fill="none" stroke="black" d="M2014.6,-46.27C2014.6,-59.58 2014.6,-75.19 2014.6,-86.82"/>
<polygon fill="black" stroke="black" points="2018.1,-46.2 2014.6,-36.2 2011.1,-46.2 2018.1,-46.2"/>
<text text-anchor="middle" x="2118.1" y="-57.8" font-family="Times,serif" font-size="14.00">षष्ठी_तत्पुरुषः</text>
</g>
<!-- Node21_2&#45;&gt;Node21_3 -->
<g id="edge32" class="edge">
<title>Node21_2&#45;&gt;Node21_3</title>
<path fill="none" stroke="black" d="M2014.6,-133.27C2014.6,-146.58 2014.6,-162.19 2014.6,-173.82"/>
<polygon fill="black" stroke="black" points="2018.1,-133.2 2014.6,-123.2 2011.1,-133.2 2018.1,-133.2"/>
<text text-anchor="middle" x="2125.1" y="-144.8" font-family="Times,serif" font-size="14.00">तृतीया_तत्पुरुषः</text>
</g>
<!-- Node23_1 -->
<g id="node35" class="node">
<title>Node23_1</title>
<ellipse fill="#ffff00" stroke="#ffff00" cx="930.6" cy="-192" rx="87.18" ry="18"/>
<text text-anchor="middle" x="930.6" y="-188.3" font-family="Times,serif" font-size="14.00">अन्तः&#45;(23.1)</text>
</g>
<!-- Node23_2 -->
<g id="node36" class="node">
<title>Node23_2</title>
<ellipse fill="#ffff00" stroke="#ffff00" cx="930.6" cy="-279" rx="68.79" ry="18"/>
<text text-anchor="middle" x="930.6" y="-275.3" font-family="Times,serif" font-size="14.00">पुर&#45;(23.2)</text>
</g>
<!-- Node23_1&#45;&gt;Node23_2 -->
<g id="edge34" class="edge">
<title>Node23_1&#45;&gt;Node23_2</title>
<path fill="none" stroke="black" d="M930.6,-220.27C930.6,-233.58 930.6,-249.19 930.6,-260.82"/>
<polygon fill="black" stroke="black" points="934.1,-220.2 930.6,-210.2 927.1,-220.2 934.1,-220.2"/>
<text text-anchor="middle" x="995.1" y="-231.8" font-family="Times,serif" font-size="14.00">कर्मधारयः</text>
</g>
<!-- Node23_3 -->
<g id="node37" class="node">
<title>Node23_3</title>
<ellipse fill="#ff99ff" stroke="#ff99ff" cx="1010.6" cy="-366" rx="93.68" ry="18"/>
<text text-anchor="middle" x="1010.6" y="-362.3" font-family="Times,serif" font-size="14.00">अग्रतः(23.3)</text>
</g>
<!-- Node23_2&#45;&gt;Node23_3 -->
<g id="edge35" class="edge">
<title>Node23_2&#45;&gt;Node23_3</title>
<path fill="none" stroke="black" d="M925.86,-307.14C925.81,-315.06 927.18,-323.36 931.6,-330 937.74,-339.24 946.94,-346.07 956.9,-351.1"/>
<polygon fill="black" stroke="black" points="929.35,-307.35 926.61,-297.11 922.37,-306.82 929.35,-307.35"/>
<text text-anchor="middle" x="1035.1" y="-318.8" font-family="Times,serif" font-size="14.00">षष्ठी_तत्पुरुषः</text>
</g>
<!-- Node23_3&#45;&gt;Node22_1 -->
<g id="edge36" class="edge">
<title>Node23_3&#45;&gt;Node22_1</title>
<path fill="none" stroke="black" d="M967.25,-386.96C942.85,-397.41 911.56,-409.55 882.6,-417 820.91,-432.86 749.22,-441.76 695.82,-446.61"/>
<polygon fill="black" stroke="black" points="968.8,-390.1 976.57,-382.9 966.01,-383.68 968.8,-390.1"/>
<text text-anchor="middle" x="1008.1" y="-405.8" font-family="Times,serif" font-size="14.00">देशाधिकरणम्</text>
</g>
</g>
</svg>
