<?xml version="1.0" encoding="UTF-8" standalone="no"?>
<!DOCTYPE svg PUBLIC "-//W3C//DTD SVG 1.1//EN"
 "http://www.w3.org/Graphics/SVG/1.1/DTD/svg11.dtd">
<!-- Generated by graphviz version 2.43.0 (0)
 -->
<!-- Title: G Pages: 1 -->
<svg width="1161pt" height="479pt"
 viewBox="0.00 0.00 1161.00 479.00" xmlns="http://www.w3.org/2000/svg" xmlns:xlink="http://www.w3.org/1999/xlink">
<g id="graph0" class="graph" transform="scale(1 1) rotate(0) translate(4 475)">
<title>G</title>
<polygon fill="#fffacd" stroke="transparent" points="-4,4 -4,-475 1157,-475 1157,4 -4,4"/>
<g id="clust1" class="cluster">
<title>cluster_1</title>
<polygon fill="#fffacd" stroke="black" points="8,-166 8,-305 218,-305 218,-166 8,-166"/>
</g>
<g id="clust2" class="cluster">
<title>cluster_2</title>
<polygon fill="#fffacd" stroke="black" points="226,-166 226,-305 436,-305 436,-166 226,-166"/>
</g>
<g id="clust3" class="cluster">
<title>cluster_3</title>
<polygon fill="#fffacd" stroke="black" points="444,-253 444,-392 636,-392 636,-253 444,-253"/>
</g>
<!-- Node2_1 -->
<g id="node1" class="node">
<title>Node2_1</title>
<ellipse fill="#93db70" stroke="#93db70" cx="104" cy="-192" rx="87.99" ry="18"/>
<text text-anchor="middle" x="104" y="-188.3" font-family="Times,serif" font-size="14.00">नगरीम्(2.1)</text>
</g>
<!-- Node3_1 -->
<g id="node2" class="node">
<title>Node3_1</title>
<ellipse fill="#93db70" stroke="#93db70" cx="113" cy="-279" rx="96.68" ry="18"/>
<text text-anchor="middle" x="113" y="-275.3" font-family="Times,serif" font-size="14.00">लङ्काम्(3.1)</text>
</g>
<!-- Node2_1&#45;&gt;Node3_1 -->
<g id="edge2" class="edge">
<title>Node2_1&#45;&gt;Node3_1</title>
<path fill="none" stroke="black" d="M105.1,-220.38C105.54,-227.74 106.16,-235.69 107,-243 107.68,-248.88 108.69,-255.27 109.69,-260.96"/>
<polygon fill="black" stroke="black" points="108.58,-219.97 104.56,-210.17 101.59,-220.33 108.58,-219.97"/>
<text text-anchor="middle" x="164.5" y="-231.8" font-family="Times,serif" font-size="14.00">विशेषणम्</text>
</g>
<!-- Node1_1 -->
<g id="node7" class="node">
<title>Node1_1</title>
<ellipse fill="#ff99ff" stroke="#ff99ff" cx="220" cy="-366" rx="106.68" ry="18"/>
<text text-anchor="middle" x="220" y="-362.3" font-family="Times,serif" font-size="14.00">प्रविश्य(1.1)</text>
</g>
<!-- Node3_1&#45;&gt;Node1_1 -->
<g id="edge3" class="edge">
<title>Node3_1&#45;&gt;Node1_1</title>
<path fill="none" stroke="black" d="M141.76,-302.85C159.73,-317.12 182.48,-335.19 198.8,-348.16"/>
<polygon fill="black" stroke="black" points="143.89,-300.07 133.88,-296.59 139.54,-305.55 143.89,-300.07"/>
<text text-anchor="middle" x="202" y="-318.8" font-family="Times,serif" font-size="14.00">कर्म</text>
</g>
<!-- Node4_3 -->
<g id="node3" class="node">
<title>Node4_3</title>
<ellipse fill="#00bfff" stroke="#00bfff" cx="331" cy="-192" rx="96.68" ry="18"/>
<text text-anchor="middle" x="331" y="-188.3" font-family="Times,serif" font-size="14.00">हितंकरः(4.3)</text>
</g>
<!-- Node11_1 -->
<g id="node4" class="node">
<title>Node11_1</title>
<ellipse fill="#00bfff" stroke="#00bfff" cx="339" cy="-279" rx="56.59" ry="18"/>
<text text-anchor="middle" x="339" y="-275.3" font-family="Times,serif" font-size="14.00">सः(11.1)</text>
</g>
<!-- Node4_3&#45;&gt;Node11_1 -->
<g id="edge6" class="edge">
<title>Node4_3&#45;&gt;Node11_1</title>
<path fill="none" stroke="black" d="M333.57,-220.27C334.82,-233.58 336.29,-249.19 337.38,-260.82"/>
<polygon fill="black" stroke="black" points="337.04,-219.83 332.62,-210.2 330.07,-220.49 337.04,-219.83"/>
<text text-anchor="middle" x="393.5" y="-231.8" font-family="Times,serif" font-size="14.00">विशेषणम्</text>
</g>
<!-- Node11_1&#45;&gt;Node1_1 -->
<g id="edge13" class="edge">
<title>Node11_1&#45;&gt;Node1_1</title>
<path fill="none" stroke="black" stroke-dasharray="1,5" d="M301.79,-299.84C293.77,-304.54 285.46,-309.72 278,-315 263.79,-325.07 248.93,-337.92 237.81,-348.08"/>
<polygon fill="black" stroke="black" points="303.73,-302.77 310.68,-294.77 300.26,-296.69 303.73,-302.77"/>
<text text-anchor="middle" x="314" y="-318.8" font-family="Times,serif" font-size="14.00">कर्ता</text>
</g>
<!-- Node5_1 -->
<g id="node8" class="node">
<title>Node5_1</title>
<ellipse fill="#ff1975" stroke="#ff1975" cx="626" cy="-453" rx="78.79" ry="18"/>
<text text-anchor="middle" x="626" y="-449.3" font-family="Times,serif" font-size="14.00">चक्रे(5.1)</text>
</g>
<!-- Node11_1&#45;&gt;Node5_1 -->
<g id="edge12" class="edge">
<title>Node11_1&#45;&gt;Node5_1</title>
<path fill="none" stroke="black" d="M347.64,-306.79C348.47,-309.55 349.27,-312.33 350,-315 359.28,-348.9 343.13,-367.16 368,-392 394.27,-418.24 490.08,-435.25 557.23,-444.24"/>
<polygon fill="black" stroke="black" points="350.92,-305.54 344.63,-297.01 344.23,-307.6 350.92,-305.54"/>
<text text-anchor="middle" x="404" y="-362.3" font-family="Times,serif" font-size="14.00">कर्ता</text>
</g>
<!-- Node8_1 -->
<g id="node5" class="node">
<title>Node8_1</title>
<ellipse fill="#93db70" stroke="#93db70" cx="540" cy="-279" rx="87.99" ry="18"/>
<text text-anchor="middle" x="540" y="-275.3" font-family="Times,serif" font-size="14.00">सव्यम्(8.1)</text>
</g>
<!-- Node7_1 -->
<g id="node6" class="node">
<title>Node7_1</title>
<ellipse fill="#93db70" stroke="#93db70" cx="540" cy="-366" rx="78.79" ry="18"/>
<text text-anchor="middle" x="540" y="-362.3" font-family="Times,serif" font-size="14.00">पादम्(7.1)</text>
</g>
<!-- Node8_1&#45;&gt;Node7_1 -->
<g id="edge9" class="edge">
<title>Node8_1&#45;&gt;Node7_1</title>
<path fill="none" stroke="black" d="M540,-307.27C540,-320.58 540,-336.19 540,-347.82"/>
<polygon fill="black" stroke="black" points="543.5,-307.2 540,-297.2 536.5,-307.2 543.5,-307.2"/>
<text text-anchor="middle" x="597.5" y="-318.8" font-family="Times,serif" font-size="14.00">विशेषणम्</text>
</g>
<!-- Node7_1&#45;&gt;Node5_1 -->
<g id="edge8" class="edge">
<title>Node7_1&#45;&gt;Node5_1</title>
<path fill="none" stroke="black" d="M564.11,-390.83C578.42,-404.97 596.21,-422.56 609.04,-435.24"/>
<polygon fill="black" stroke="black" points="566.56,-388.33 556.99,-383.79 561.64,-393.31 566.56,-388.33"/>
<text text-anchor="middle" x="618" y="-405.8" font-family="Times,serif" font-size="14.00">कर्म</text>
</g>
<!-- Node1_1&#45;&gt;Node5_1 -->
<g id="edge1" class="edge">
<title>Node1_1&#45;&gt;Node5_1</title>
<path fill="none" stroke="black" d="M214,-394.51C213.8,-402.68 215.41,-411.03 221,-417 242.82,-440.32 436.24,-448.16 547.7,-450.75"/>
<polygon fill="black" stroke="black" points="217.49,-394.77 215.05,-384.46 210.53,-394.04 217.49,-394.77"/>
<text text-anchor="middle" x="285.5" y="-405.8" font-family="Times,serif" font-size="14.00">पूर्वकालः</text>
</g>
<!-- Node4_1 -->
<g id="node9" class="node">
<title>Node4_1</title>
<ellipse fill="#ffff00" stroke="#ffff00" cx="331" cy="-18" rx="63.09" ry="18"/>
<text text-anchor="middle" x="331" y="-14.3" font-family="Times,serif" font-size="14.00">कपि&#45;(4.1)</text>
</g>
<!-- Node4_2 -->
<g id="node10" class="node">
<title>Node4_2</title>
<ellipse fill="#ffff00" stroke="#ffff00" cx="331" cy="-105" rx="63.09" ry="18"/>
<text text-anchor="middle" x="331" y="-101.3" font-family="Times,serif" font-size="14.00">राज&#45;(4.2)</text>
</g>
<!-- Node4_1&#45;&gt;Node4_2 -->
<g id="edge4" class="edge">
<title>Node4_1&#45;&gt;Node4_2</title>
<path fill="none" stroke="black" d="M331,-46.27C331,-59.58 331,-75.19 331,-86.82"/>
<polygon fill="black" stroke="black" points="334.5,-46.2 331,-36.2 327.5,-46.2 334.5,-46.2"/>
<text text-anchor="middle" x="434.5" y="-57.8" font-family="Times,serif" font-size="14.00">षष्ठी_तत्पुरुषः</text>
</g>
<!-- Node4_2&#45;&gt;Node4_3 -->
<g id="edge5" class="edge">
<title>Node4_2&#45;&gt;Node4_3</title>
<path fill="none" stroke="black" d="M331,-133.27C331,-146.58 331,-162.19 331,-173.82"/>
<polygon fill="black" stroke="black" points="334.5,-133.2 331,-123.2 327.5,-133.2 334.5,-133.2"/>
<text text-anchor="middle" x="434.5" y="-144.8" font-family="Times,serif" font-size="14.00">षष्ठी_तत्पुरुषः</text>
</g>
<!-- Node6_1 -->
<g id="node11" class="node">
<title>Node6_1</title>
<ellipse fill="#ff99ff" stroke="#ff99ff" cx="695" cy="-366" rx="50.89" ry="18"/>
<text text-anchor="middle" x="695" y="-362.3" font-family="Times,serif" font-size="14.00">अथ(6.1)</text>
</g>
<!-- Node6_1&#45;&gt;Node5_1 -->
<g id="edge7" class="edge">
<title>Node6_1&#45;&gt;Node5_1</title>
<path fill="none" stroke="black" d="M675.35,-391.2C663.97,-405.22 649.93,-422.52 639.74,-435.08"/>
<polygon fill="black" stroke="black" points="678.11,-393.36 681.7,-383.39 672.68,-388.95 678.11,-393.36"/>
<text text-anchor="middle" x="721.5" y="-405.8" font-family="Times,serif" font-size="14.00">सम्बन्धः</text>
</g>
<!-- Node9_1 -->
<g id="node12" class="node">
<title>Node9_1</title>
<ellipse fill="#ff99ff" stroke="#ff99ff" cx="805" cy="-366" rx="41.69" ry="18"/>
<text text-anchor="middle" x="805" y="-362.3" font-family="Times,serif" font-size="14.00">च(9.1)</text>
</g>
<!-- Node9_1&#45;&gt;Node5_1 -->
<g id="edge10" class="edge">
<title>Node9_1&#45;&gt;Node5_1</title>
<path fill="none" stroke="black" d="M798.38,-393.95C795.06,-402.43 790.16,-411.11 783,-417 768.98,-428.52 728.71,-437.37 692.47,-443.28"/>
<polygon fill="black" stroke="black" points="801.77,-394.86 801.6,-384.26 795.13,-392.65 801.77,-394.86"/>
<text text-anchor="middle" x="851.5" y="-405.8" font-family="Times,serif" font-size="14.00">सम्बन्धः</text>
</g>
<!-- Node10_1 -->
<g id="node13" class="node">
<title>Node10_1</title>
<ellipse fill="#87ceeb" stroke="#87ceeb" cx="967" cy="-279" rx="121.58" ry="18"/>
<text text-anchor="middle" x="967" y="-275.3" font-family="Times,serif" font-size="14.00">शत्रूणाम्(10.1)</text>
</g>
<!-- Node13_1 -->
<g id="node14" class="node">
<title>Node13_1</title>
<ellipse fill="#c6e2eb" stroke="#c6e2eb" cx="967" cy="-366" rx="102.88" ry="18"/>
<text text-anchor="middle" x="967" y="-362.3" font-family="Times,serif" font-size="14.00">मूर्धनि(13.1)</text>
</g>
<!-- Node10_1&#45;&gt;Node13_1 -->
<g id="edge11" class="edge">
<title>Node10_1&#45;&gt;Node13_1</title>
<path fill="none" stroke="black" d="M967,-307.27C967,-320.58 967,-336.19 967,-347.82"/>
<polygon fill="black" stroke="black" points="970.5,-307.2 967,-297.2 963.5,-307.2 970.5,-307.2"/>
<text text-anchor="middle" x="1060" y="-318.8" font-family="Times,serif" font-size="14.00">षष्ठीसम्बन्धः</text>
</g>
<!-- Node13_1&#45;&gt;Node5_1 -->
<g id="edge15" class="edge">
<title>Node13_1&#45;&gt;Node5_1</title>
<path fill="none" stroke="black" d="M946.9,-391.35C937.61,-400.94 925.8,-411.06 913,-417 876.63,-433.87 773.89,-443.31 701.78,-448.03"/>
<polygon fill="black" stroke="black" points="949.59,-393.59 953.78,-383.86 944.44,-388.86 949.59,-393.59"/>
<text text-anchor="middle" x="1012.5" y="-405.8" font-family="Times,serif" font-size="14.00">देशाधिकरणम्</text>
</g>
<!-- Node12_1 -->
<g id="node15" class="node">
<title>Node12_1</title>
<ellipse fill="#ff99ff" stroke="#ff99ff" cx="502" cy="-192" rx="56.59" ry="18"/>
<text text-anchor="middle" x="502" y="-188.3" font-family="Times,serif" font-size="14.00">तु(12.1)</text>
</g>
<!-- Node12_1&#45;&gt;Node11_1 -->
<g id="edge14" class="edge">
<title>Node12_1&#45;&gt;Node11_1</title>
<path fill="none" stroke="black" d="M483.38,-217.74C475.49,-226.78 465.65,-236.4 455,-243 434.44,-255.74 408.94,-264.1 387.09,-269.44"/>
<polygon fill="black" stroke="black" points="486.08,-219.96 489.78,-210.03 480.7,-215.49 486.08,-219.96"/>
<text text-anchor="middle" x="530.5" y="-231.8" font-family="Times,serif" font-size="14.00">सम्बन्धः</text>
</g>
</g>
</svg>
