<?xml version="1.0" encoding="UTF-8" standalone="no"?>
<!DOCTYPE svg PUBLIC "-//W3C//DTD SVG 1.1//EN"
 "http://www.w3.org/Graphics/SVG/1.1/DTD/svg11.dtd">
<!-- Generated by graphviz version 2.43.0 (0)
 -->
<!-- Title: G Pages: 1 -->
<svg width="2580pt" height="392pt"
 viewBox="0.00 0.00 2579.74 392.00" xmlns="http://www.w3.org/2000/svg" xmlns:xlink="http://www.w3.org/1999/xlink">
<g id="graph0" class="graph" transform="scale(1 1) rotate(0) translate(4 388)">
<title>G</title>
<polygon fill="#fffacd" stroke="transparent" points="-4,4 -4,-388 2575.74,-388 2575.74,4 -4,4"/>
<g id="clust1" class="cluster">
<title>cluster_1</title>
<polygon fill="#fffacd" stroke="black" points="1209.05,-79 1209.05,-218 2358.05,-218 2358.05,-79 1209.05,-79"/>
</g>
<g id="clust2" class="cluster">
<title>cluster_2</title>
<polygon fill="#fffacd" stroke="black" points="353.05,-79 353.05,-218 1201.05,-218 1201.05,-79 353.05,-79"/>
</g>
<!-- Node1_1 -->
<g id="node1" class="node">
<title>Node1_1</title>
<ellipse fill="#00bfff" stroke="#00bfff" cx="2299.05" cy="-105" rx="50.89" ry="18"/>
<text text-anchor="middle" x="2299.05" y="-101.3" font-family="Times,serif" font-size="14.00">सः(1.1)</text>
</g>
<!-- Node10_1 -->
<g id="node2" class="node">
<title>Node10_1</title>
<ellipse fill="#00bfff" stroke="#00bfff" cx="1730.05" cy="-192" rx="102.88" ry="18"/>
<text text-anchor="middle" x="1730.05" y="-188.3" font-family="Times,serif" font-size="14.00">हनूमान्(10.1)</text>
</g>
<!-- Node1_1&#45;&gt;Node10_1 -->
<g id="edge1" class="edge">
<title>Node1_1&#45;&gt;Node10_1</title>
<path fill="none" stroke="black" d="M2261.21,-124.17C2236.2,-135.32 2202.38,-148.8 2171.05,-156 2057.27,-182.14 1923.13,-189.57 1832.92,-191.3"/>
<polygon fill="black" stroke="black" points="2262.67,-127.35 2270.33,-120.03 2259.78,-120.98 2262.67,-127.35"/>
<text text-anchor="middle" x="2274.55" y="-144.8" font-family="Times,serif" font-size="14.00">विशेषणम्</text>
</g>
<!-- Node2_1 -->
<g id="node13" class="node">
<title>Node2_1</title>
<ellipse fill="#ff99ff" stroke="#ff99ff" cx="813.05" cy="-279" rx="115.88" ry="18"/>
<text text-anchor="middle" x="813.05" y="-275.3" font-family="Times,serif" font-size="14.00">निर्जित्य(2.1)</text>
</g>
<!-- Node10_1&#45;&gt;Node2_1 -->
<g id="edge13" class="edge">
<title>Node10_1&#45;&gt;Node2_1</title>
<path fill="none" stroke="black" stroke-dasharray="1,5" d="M1631.62,-202.12C1454.68,-218.52 1085,-252.79 909.51,-269.06"/>
<polygon fill="black" stroke="black" points="1632.07,-205.6 1641.7,-201.19 1631.42,-198.63 1632.07,-205.6"/>
<text text-anchor="middle" x="1362.05" y="-231.8" font-family="Times,serif" font-size="14.00">कर्ता</text>
</g>
<!-- Node15_1 -->
<g id="node14" class="node">
<title>Node15_1</title>
<ellipse fill="#ff1975" stroke="#ff1975" cx="604.05" cy="-366" rx="130.78" ry="18"/>
<text text-anchor="middle" x="604.05" y="-362.3" font-family="Times,serif" font-size="14.00">अवपुप्लुवे(15.1)</text>
</g>
<!-- Node10_1&#45;&gt;Node15_1 -->
<g id="edge12" class="edge">
<title>Node10_1&#45;&gt;Node15_1</title>
<path fill="none" stroke="black" d="M1652.71,-207.51C1508.45,-234.24 1188.37,-292 917.05,-330 847.19,-339.78 768.26,-348.59 707.14,-354.93"/>
<polygon fill="black" stroke="black" points="1653.59,-210.9 1662.79,-205.64 1652.32,-204.02 1653.59,-210.9"/>
<text text-anchor="middle" x="1384.05" y="-275.3" font-family="Times,serif" font-size="14.00">कर्ता</text>
</g>
<!-- Node19_1 -->
<g id="node18" class="node">
<title>Node19_1</title>
<ellipse fill="#ff1975" stroke="#ff1975" cx="2261.05" cy="-279" rx="84.49" ry="18"/>
<text text-anchor="middle" x="2261.05" y="-275.3" font-family="Times,serif" font-size="14.00">विवेश(19.1)</text>
</g>
<!-- Node10_1&#45;&gt;Node19_1 -->
<g id="edge14" class="edge">
<title>Node10_1&#45;&gt;Node19_1</title>
<path fill="none" stroke="black" stroke-dasharray="1,5" d="M1813.03,-206.28C1918.67,-223.19 2099.02,-252.06 2195.53,-267.51"/>
<polygon fill="black" stroke="black" points="1813.47,-202.81 1803.04,-204.69 1812.36,-209.72 1813.47,-202.81"/>
<text text-anchor="middle" x="2063.05" y="-231.8" font-family="Times,serif" font-size="14.00">कर्ता</text>
</g>
<!-- Node9_2 -->
<g id="node3" class="node">
<title>Node9_2</title>
<ellipse fill="#00bfff" stroke="#00bfff" cx="2152.05" cy="-105" rx="78.79" ry="18"/>
<text text-anchor="middle" x="2152.05" y="-101.3" font-family="Times,serif" font-size="14.00">तेजाः(9.2)</text>
</g>
<!-- Node9_2&#45;&gt;Node10_1 -->
<g id="edge11" class="edge">
<title>Node9_2&#45;&gt;Node10_1</title>
<path fill="none" stroke="black" d="M2104.9,-124.47C2075.92,-135.15 2037.81,-148.02 2003.05,-156 1943.32,-169.71 1874.92,-178.47 1821.52,-183.79"/>
<polygon fill="black" stroke="black" points="2106.21,-127.72 2114.36,-120.94 2103.76,-121.16 2106.21,-127.72"/>
<text text-anchor="middle" x="2109.55" y="-144.8" font-family="Times,serif" font-size="14.00">विशेषणम्</text>
</g>
<!-- Node11_2 -->
<g id="node4" class="node">
<title>Node11_2</title>
<ellipse fill="#00bfff" stroke="#00bfff" cx="1311.05" cy="-105" rx="93.68" ry="18"/>
<text text-anchor="middle" x="1311.05" y="-101.3" font-family="Times,serif" font-size="14.00">सत्तमः(11.2)</text>
</g>
<!-- Node11_2&#45;&gt;Node10_1 -->
<g id="edge16" class="edge">
<title>Node11_2&#45;&gt;Node10_1</title>
<path fill="none" stroke="black" d="M1359.43,-125.05C1388.01,-135.61 1425.13,-148.16 1459.05,-156 1518.09,-169.65 1585.69,-178.39 1638.61,-183.72"/>
<polygon fill="black" stroke="black" points="1360.29,-121.63 1349.7,-121.4 1357.84,-128.19 1360.29,-121.63"/>
<text text-anchor="middle" x="1516.55" y="-144.8" font-family="Times,serif" font-size="14.00">विशेषणम्</text>
</g>
<!-- Node13_2 -->
<g id="node5" class="node">
<title>Node13_2</title>
<ellipse fill="#00bfff" stroke="#00bfff" cx="1516.05" cy="-105" rx="93.68" ry="18"/>
<text text-anchor="middle" x="1516.05" y="-101.3" font-family="Times,serif" font-size="14.00">वीर्यः(13.2)</text>
</g>
<!-- Node13_2&#45;&gt;Node10_1 -->
<g id="edge20" class="edge">
<title>Node13_2&#45;&gt;Node10_1</title>
<path fill="none" stroke="black" d="M1552.79,-127.53C1570.09,-137.08 1591.23,-147.96 1611.05,-156 1631,-164.09 1653.53,-171.2 1673.57,-176.86"/>
<polygon fill="black" stroke="black" points="1554.05,-124.22 1543.61,-122.38 1550.62,-130.32 1554.05,-124.22"/>
<text text-anchor="middle" x="1668.55" y="-144.8" font-family="Times,serif" font-size="14.00">विशेषणम्</text>
</g>
<!-- Node18_2 -->
<g id="node6" class="node">
<title>Node18_2</title>
<ellipse fill="#00bfff" stroke="#00bfff" cx="1730.05" cy="-105" rx="102.88" ry="18"/>
<text text-anchor="middle" x="1730.05" y="-101.3" font-family="Times,serif" font-size="14.00">सत्त्वः(18.2)</text>
</g>
<!-- Node18_2&#45;&gt;Node10_1 -->
<g id="edge25" class="edge">
<title>Node18_2&#45;&gt;Node10_1</title>
<path fill="none" stroke="black" d="M1730.05,-133.27C1730.05,-146.58 1730.05,-162.19 1730.05,-173.82"/>
<polygon fill="black" stroke="black" points="1733.55,-133.2 1730.05,-123.2 1726.55,-133.2 1733.55,-133.2"/>
<text text-anchor="middle" x="1787.55" y="-144.8" font-family="Times,serif" font-size="14.00">विशेषणम्</text>
</g>
<!-- Node20_2 -->
<g id="node7" class="node">
<title>Node20_2</title>
<ellipse fill="#00bfff" stroke="#00bfff" cx="1953.05" cy="-105" rx="102.88" ry="18"/>
<text text-anchor="middle" x="1953.05" y="-101.3" font-family="Times,serif" font-size="14.00">कुञ्जरः(20.2)</text>
</g>
<!-- Node20_2&#45;&gt;Node10_1 -->
<g id="edge27" class="edge">
<title>Node20_2&#45;&gt;Node10_1</title>
<path fill="none" stroke="black" d="M1913.65,-126.81C1894.48,-136.44 1870.9,-147.6 1849.05,-156 1828.54,-163.88 1805.49,-171.04 1785.17,-176.8"/>
<polygon fill="black" stroke="black" points="1915.35,-129.87 1922.68,-122.21 1912.18,-123.63 1915.35,-129.87"/>
<text text-anchor="middle" x="1941.55" y="-144.8" font-family="Times,serif" font-size="14.00">विशेषणम्</text>
</g>
<!-- Node3_1 -->
<g id="node8" class="node">
<title>Node3_1</title>
<ellipse fill="#93db70" stroke="#93db70" cx="1105.05" cy="-105" rx="87.99" ry="18"/>
<text text-anchor="middle" x="1105.05" y="-101.3" font-family="Times,serif" font-size="14.00">पुरीम्(3.1)</text>
</g>
<!-- Node4_1 -->
<g id="node9" class="node">
<title>Node4_1</title>
<ellipse fill="#93db70" stroke="#93db70" cx="813.05" cy="-192" rx="96.68" ry="18"/>
<text text-anchor="middle" x="813.05" y="-188.3" font-family="Times,serif" font-size="14.00">लङ्काम्(4.1)</text>
</g>
<!-- Node3_1&#45;&gt;Node4_1 -->
<g id="edge3" class="edge">
<title>Node3_1&#45;&gt;Node4_1</title>
<path fill="none" stroke="black" d="M1057.07,-124.87C1030.5,-134.91 996.73,-147.01 966.05,-156 936.89,-164.54 904.11,-172.29 876.39,-178.3"/>
<polygon fill="black" stroke="black" points="1058.41,-128.1 1066.51,-121.27 1055.92,-121.56 1058.41,-128.1"/>
<text text-anchor="middle" x="1069.55" y="-144.8" font-family="Times,serif" font-size="14.00">विशेषणम्</text>
</g>
<!-- Node4_1&#45;&gt;Node2_1 -->
<g id="edge4" class="edge">
<title>Node4_1&#45;&gt;Node2_1</title>
<path fill="none" stroke="black" d="M813.05,-220.27C813.05,-233.58 813.05,-249.19 813.05,-260.82"/>
<polygon fill="black" stroke="black" points="816.55,-220.2 813.05,-210.2 809.55,-220.2 816.55,-220.2"/>
<text text-anchor="middle" x="842.05" y="-231.8" font-family="Times,serif" font-size="14.00">कर्म</text>
</g>
<!-- Node5_1 -->
<g id="node10" class="node">
<title>Node5_1</title>
<ellipse fill="#93db70" stroke="#93db70" cx="874.05" cy="-105" rx="124.58" ry="18"/>
<text text-anchor="middle" x="874.05" y="-101.3" font-family="Times,serif" font-size="14.00">श्रेष्ठाम्(5.1)</text>
</g>
<!-- Node5_1&#45;&gt;Node4_1 -->
<g id="edge5" class="edge">
<title>Node5_1&#45;&gt;Node4_1</title>
<path fill="none" stroke="black" d="M855.84,-131.36C845.93,-145.18 833.93,-161.9 825.16,-174.11"/>
<polygon fill="black" stroke="black" points="858.71,-133.37 861.7,-123.2 853.03,-129.28 858.71,-133.37"/>
<text text-anchor="middle" x="904.55" y="-144.8" font-family="Times,serif" font-size="14.00">विशेषणम्</text>
</g>
<!-- Node6_1 -->
<g id="node11" class="node">
<title>Node6_1</title>
<ellipse fill="#93db70" stroke="#93db70" cx="662.05" cy="-105" rx="69.59" ry="18"/>
<text text-anchor="middle" x="662.05" y="-101.3" font-family="Times,serif" font-size="14.00">ताम्(6.1)</text>
</g>
<!-- Node6_1&#45;&gt;Node4_1 -->
<g id="edge6" class="edge">
<title>Node6_1&#45;&gt;Node4_1</title>
<path fill="none" stroke="black" d="M685.6,-129.64C695.6,-138.75 707.78,-148.72 720.05,-156 733.69,-164.1 749.54,-170.9 764.25,-176.29"/>
<polygon fill="black" stroke="black" points="687.77,-126.87 678.08,-122.58 682.97,-131.97 687.77,-126.87"/>
<text text-anchor="middle" x="777.55" y="-144.8" font-family="Times,serif" font-size="14.00">विशेषणम्</text>
</g>
<!-- Node7_2 -->
<g id="node12" class="node">
<title>Node7_2</title>
<ellipse fill="#93db70" stroke="#93db70" cx="468.05" cy="-105" rx="106.68" ry="18"/>
<text text-anchor="middle" x="468.05" y="-101.3" font-family="Times,serif" font-size="14.00">रूपिणीम्(7.2)</text>
</g>
<!-- Node7_2&#45;&gt;Node4_1 -->
<g id="edge8" class="edge">
<title>Node7_2&#45;&gt;Node4_1</title>
<path fill="none" stroke="black" d="M507.79,-126.91C528.76,-137.12 555.23,-148.74 580.05,-156 627.65,-169.92 682.43,-178.51 726.91,-183.69"/>
<polygon fill="black" stroke="black" points="509.08,-123.65 498.57,-122.34 505.97,-129.92 509.08,-123.65"/>
<text text-anchor="middle" x="637.55" y="-144.8" font-family="Times,serif" font-size="14.00">विशेषणम्</text>
</g>
<!-- Node2_1&#45;&gt;Node15_1 -->
<g id="edge2" class="edge">
<title>Node2_1&#45;&gt;Node15_1</title>
<path fill="none" stroke="black" d="M794.55,-304.78C786.46,-314 776.26,-323.73 765.05,-330 745.32,-341.03 722.44,-348.59 700.23,-353.76"/>
<polygon fill="black" stroke="black" points="797.39,-306.84 801.09,-296.91 792.01,-302.36 797.39,-306.84"/>
<text text-anchor="middle" x="848.55" y="-318.8" font-family="Times,serif" font-size="14.00">पूर्वकालः</text>
</g>
<!-- Node7_1 -->
<g id="node15" class="node">
<title>Node7_1</title>
<ellipse fill="#ffff00" stroke="#ffff00" cx="468.05" cy="-18" rx="63.09" ry="18"/>
<text text-anchor="middle" x="468.05" y="-14.3" font-family="Times,serif" font-size="14.00">काम&#45;(7.1)</text>
</g>
<!-- Node7_1&#45;&gt;Node7_2 -->
<g id="edge7" class="edge">
<title>Node7_1&#45;&gt;Node7_2</title>
<path fill="none" stroke="black" d="M468.05,-46.27C468.05,-59.58 468.05,-75.19 468.05,-86.82"/>
<polygon fill="black" stroke="black" points="471.55,-46.2 468.05,-36.2 464.55,-46.2 471.55,-46.2"/>
<text text-anchor="middle" x="539.55" y="-57.8" font-family="Times,serif" font-size="14.00">बहुव्रीहिः</text>
</g>
<!-- Node8_1 -->
<g id="node16" class="node">
<title>Node8_1</title>
<ellipse fill="#40e0d0" stroke="#40e0d0" cx="238.05" cy="-192" rx="106.68" ry="18"/>
<text text-anchor="middle" x="238.05" y="-188.3" font-family="Times,serif" font-size="14.00">विक्रमेण(8.1)</text>
</g>
<!-- Node8_1&#45;&gt;Node2_1 -->
<g id="edge9" class="edge">
<title>Node8_1&#45;&gt;Node2_1</title>
<path fill="none" stroke="black" d="M306.16,-209.42C320.29,-212.52 335.11,-215.55 349.05,-218 498.63,-244.27 537.47,-241.21 688.05,-261 701.4,-262.76 715.55,-264.65 729.35,-266.51"/>
<polygon fill="black" stroke="black" points="306.54,-205.92 296.02,-207.15 305.02,-212.75 306.54,-205.92"/>
<text text-anchor="middle" x="559.05" y="-231.8" font-family="Times,serif" font-size="14.00">करणम्</text>
</g>
<!-- Node9_1 -->
<g id="node17" class="node">
<title>Node9_1</title>
<ellipse fill="#ffff00" stroke="#ffff00" cx="2152.05" cy="-18" rx="63.09" ry="18"/>
<text text-anchor="middle" x="2152.05" y="-14.3" font-family="Times,serif" font-size="14.00">महा&#45;(9.1)</text>
</g>
<!-- Node9_1&#45;&gt;Node9_2 -->
<g id="edge10" class="edge">
<title>Node9_1&#45;&gt;Node9_2</title>
<path fill="none" stroke="black" d="M2152.05,-46.27C2152.05,-59.58 2152.05,-75.19 2152.05,-86.82"/>
<polygon fill="black" stroke="black" points="2155.55,-46.2 2152.05,-36.2 2148.55,-46.2 2155.55,-46.2"/>
<text text-anchor="middle" x="2216.55" y="-57.8" font-family="Times,serif" font-size="14.00">कर्मधारयः</text>
</g>
<!-- Node11_1 -->
<g id="node19" class="node">
<title>Node11_1</title>
<ellipse fill="#ffff00" stroke="#ffff00" cx="1291.05" cy="-18" rx="68.79" ry="18"/>
<text text-anchor="middle" x="1291.05" y="-14.3" font-family="Times,serif" font-size="14.00">कपि&#45;(11.1)</text>
</g>
<!-- Node11_1&#45;&gt;Node11_2 -->
<g id="edge15" class="edge">
<title>Node11_1&#45;&gt;Node11_2</title>
<path fill="none" stroke="black" d="M1294.54,-46.25C1295.72,-53.68 1297.22,-61.7 1299.05,-69 1300.51,-74.86 1302.51,-81.13 1304.47,-86.73"/>
<polygon fill="black" stroke="black" points="1297.99,-45.65 1293.07,-36.27 1291.06,-46.68 1297.99,-45.65"/>
<text text-anchor="middle" x="1409.55" y="-57.8" font-family="Times,serif" font-size="14.00">सप्तमी_तत्पुरुषः</text>
</g>
<!-- Node12_1 -->
<g id="node20" class="node">
<title>Node12_1</title>
<ellipse fill="#ffff00" stroke="#ffff00" cx="50.05" cy="-192" rx="50.09" ry="18"/>
<text text-anchor="middle" x="50.05" y="-188.3" font-family="Times,serif" font-size="14.00">अ&#45;(12.1)</text>
</g>
<!-- Node12_2 -->
<g id="node21" class="node">
<title>Node12_2</title>
<ellipse fill="#40e0d0" stroke="#40e0d0" cx="126.05" cy="-279" rx="102.88" ry="18"/>
<text text-anchor="middle" x="126.05" y="-275.3" font-family="Times,serif" font-size="14.00">द्वारेण(12.2)</text>
</g>
<!-- Node12_1&#45;&gt;Node12_2 -->
<g id="edge17" class="edge">
<title>Node12_1&#45;&gt;Node12_2</title>
<path fill="none" stroke="black" d="M45.39,-220.08C45.34,-228.01 46.7,-236.32 51.05,-243 56.77,-251.79 65.33,-258.41 74.64,-263.39"/>
<polygon fill="black" stroke="black" points="48.88,-220.3 46.12,-210.07 41.9,-219.78 48.88,-220.3"/>
<text text-anchor="middle" x="140.05" y="-231.8" font-family="Times,serif" font-size="14.00">नञ्_तत्पुरुषः</text>
</g>
<!-- Node12_2&#45;&gt;Node15_1 -->
<g id="edge18" class="edge">
<title>Node12_2&#45;&gt;Node15_1</title>
<path fill="none" stroke="black" d="M205.24,-294.1C261.53,-304.12 338.93,-317.89 407.05,-330 446.72,-337.05 490.89,-344.9 527.33,-351.38"/>
<polygon fill="black" stroke="black" points="205.79,-290.64 195.33,-292.33 204.56,-297.53 205.79,-290.64"/>
<text text-anchor="middle" x="443.05" y="-318.8" font-family="Times,serif" font-size="14.00">करणम्</text>
</g>
<!-- Node13_1 -->
<g id="node22" class="node">
<title>Node13_1</title>
<ellipse fill="#ffff00" stroke="#ffff00" cx="1535.05" cy="-18" rx="68.79" ry="18"/>
<text text-anchor="middle" x="1535.05" y="-14.3" font-family="Times,serif" font-size="14.00">महा&#45;(13.1)</text>
</g>
<!-- Node13_1&#45;&gt;Node13_2 -->
<g id="edge19" class="edge">
<title>Node13_1&#45;&gt;Node13_2</title>
<path fill="none" stroke="black" d="M1528.95,-46.27C1525.97,-59.58 1522.48,-75.19 1519.88,-86.82"/>
<polygon fill="black" stroke="black" points="1532.43,-46.72 1531.2,-36.2 1525.6,-45.2 1532.43,-46.72"/>
<text text-anchor="middle" x="1590.55" y="-57.8" font-family="Times,serif" font-size="14.00">कर्मधारयः</text>
</g>
<!-- Node14_1 -->
<g id="node23" class="node">
<title>Node14_1</title>
<ellipse fill="#93db70" stroke="#93db70" cx="389.05" cy="-279" rx="121.58" ry="18"/>
<text text-anchor="middle" x="389.05" y="-275.3" font-family="Times,serif" font-size="14.00">प्राकारम्(14.1)</text>
</g>
<!-- Node14_1&#45;&gt;Node15_1 -->
<g id="edge21" class="edge">
<title>Node14_1&#45;&gt;Node15_1</title>
<path fill="none" stroke="black" d="M439.24,-299.85C476.91,-314.74 527.83,-334.87 563.06,-348.79"/>
<polygon fill="black" stroke="black" points="440.07,-296.41 429.49,-295.99 437.5,-302.92 440.07,-296.41"/>
<text text-anchor="middle" x="538.05" y="-318.8" font-family="Times,serif" font-size="14.00">कर्म</text>
</g>
<!-- Node16_1 -->
<g id="node24" class="node">
<title>Node16_1</title>
<ellipse fill="#c6e2eb" stroke="#c6e2eb" cx="604.05" cy="-279" rx="75.29" ry="18"/>
<text text-anchor="middle" x="604.05" y="-275.3" font-family="Times,serif" font-size="14.00">निशि(16.1)</text>
</g>
<!-- Node16_1&#45;&gt;Node15_1 -->
<g id="edge22" class="edge">
<title>Node16_1&#45;&gt;Node15_1</title>
<path fill="none" stroke="black" d="M604.05,-307.27C604.05,-320.58 604.05,-336.19 604.05,-347.82"/>
<polygon fill="black" stroke="black" points="607.55,-307.2 604.05,-297.2 600.55,-307.2 607.55,-307.2"/>
<text text-anchor="middle" x="682.55" y="-318.8" font-family="Times,serif" font-size="14.00">कालाधिकरणम्</text>
</g>
<!-- Node17_1 -->
<g id="node25" class="node">
<title>Node17_1</title>
<ellipse fill="#93db70" stroke="#93db70" cx="2469.05" cy="-192" rx="102.88" ry="18"/>
<text text-anchor="middle" x="2469.05" y="-188.3" font-family="Times,serif" font-size="14.00">लङ्काम्(17.1)</text>
</g>
<!-- Node17_1&#45;&gt;Node19_1 -->
<g id="edge23" class="edge">
<title>Node17_1&#45;&gt;Node19_1</title>
<path fill="none" stroke="black" d="M2420.76,-212.73C2383.48,-227.97 2332.64,-248.74 2298.42,-262.73"/>
<polygon fill="black" stroke="black" points="2422.48,-215.81 2430.41,-208.79 2419.83,-209.33 2422.48,-215.81"/>
<text text-anchor="middle" x="2406.05" y="-231.8" font-family="Times,serif" font-size="14.00">कर्म</text>
</g>
<!-- Node18_1 -->
<g id="node26" class="node">
<title>Node18_1</title>
<ellipse fill="#ffff00" stroke="#ffff00" cx="1730.05" cy="-18" rx="68.79" ry="18"/>
<text text-anchor="middle" x="1730.05" y="-14.3" font-family="Times,serif" font-size="14.00">महा&#45;(18.1)</text>
</g>
<!-- Node18_1&#45;&gt;Node18_2 -->
<g id="edge24" class="edge">
<title>Node18_1&#45;&gt;Node18_2</title>
<path fill="none" stroke="black" d="M1730.05,-46.27C1730.05,-59.58 1730.05,-75.19 1730.05,-86.82"/>
<polygon fill="black" stroke="black" points="1733.55,-46.2 1730.05,-36.2 1726.55,-46.2 1733.55,-46.2"/>
<text text-anchor="middle" x="1794.55" y="-57.8" font-family="Times,serif" font-size="14.00">कर्मधारयः</text>
</g>
<!-- Node20_1 -->
<g id="node27" class="node">
<title>Node20_1</title>
<ellipse fill="#ffff00" stroke="#ffff00" cx="1953.05" cy="-18" rx="68.79" ry="18"/>
<text text-anchor="middle" x="1953.05" y="-14.3" font-family="Times,serif" font-size="14.00">कपि&#45;(20.1)</text>
</g>
<!-- Node20_1&#45;&gt;Node20_2 -->
<g id="edge26" class="edge">
<title>Node20_1&#45;&gt;Node20_2</title>
<path fill="none" stroke="black" d="M1953.05,-46.27C1953.05,-59.58 1953.05,-75.19 1953.05,-86.82"/>
<polygon fill="black" stroke="black" points="1956.55,-46.2 1953.05,-36.2 1949.55,-46.2 1956.55,-46.2"/>
<text text-anchor="middle" x="2017.55" y="-57.8" font-family="Times,serif" font-size="14.00">कर्मधारयः</text>
</g>
</g>
</svg>
