<svg xmlns="http://www.w3.org/2000/svg" xmlns:xlink="http://www.w3.org/1999/xlink" width="1709pt" height="660" viewBox="0 0 1709.24 495"><g id="graph0" class="graph" transform="scale(1 1) rotate(0) translate(4 491)"><title>G</title><polygon fill="#fffacd" stroke="transparent" points="-4 4 -4 -491 1705.24 -491 1705.24 4 -4 4"/><g id="clust1" class="cluster"><title>cluster_1</title><polygon fill="#fffacd" stroke="#000" points="793.24 -182 793.24 -321 1584.24 -321 1584.24 -182 793.24 -182"/></g><g id="clust2" class="cluster"><title>cluster_2</title><polygon fill="#fffacd" stroke="#000" points="261.24 -182 261.24 -321 509.24 -321 509.24 -182 261.24 -182"/></g><g id="clust3" class="cluster"><title>cluster_3</title><polygon fill="#fffacd" stroke="#000" points="218.24 -8 218.24 -147 813.24 -147 813.24 -8 218.24 -8"/></g><g id="node1" class="node"><title>Node1_1</title><ellipse cx="917.24" cy="-208" fill="#00bfff" stroke="#00bfff" rx="115.88" ry="18"/><text x="917.24" y="-204.3" font-family="Times,serif" font-size="14" text-anchor="middle">प्रविष्टः(1.1)</text></g><g id="node2" class="node"><title>Node16_1</title><ellipse cx="1138.24" cy="-295" fill="#00bfff" stroke="#00bfff" rx="75.29" ry="18"/><text x="1138.24" y="-291.3" font-family="Times,serif" font-size="14" text-anchor="middle">कपिः(16.1)</text></g><g id="edge1" class="edge"><title>Node1_1-&gt;Node16_1</title><path fill="none" stroke="#000" d="M956.51,-230.19C975.18,-239.76 998.02,-250.74 1019.24,-259 1041.52,-267.66 1066.85,-275.4 1088.4,-281.37"/><polygon fill="#000" stroke="#000" points="957.92 -226.98 947.43 -225.48 954.7 -233.19 957.92 -226.98"/><text x="1076.74" y="-247.8" font-family="Times,serif" font-size="14" text-anchor="middle">विशेषणम्</text></g><g id="node16" class="node"><title>Node7_1</title><ellipse cx="994.24" cy="-382" fill="#f9f" stroke="#f9f" rx="87.99" ry="18"/><text x="994.24" y="-378.3" font-family="Times,serif" font-size="14" text-anchor="middle">आस्थाय(7.1)</text></g><g id="edge21" class="edge"><title>Node16_1-&gt;Node7_1</title><path fill="none" stroke="#000" stroke-dasharray="1 5" d="M1086.94,-313.69C1075.18,-318.61 1062.98,-324.43 1052.24,-331 1037.05,-340.3 1021.87,-353.56 1010.85,-364.09"/><polygon fill="#000" stroke="#000" points="1088.27 -316.93 1096.24 -309.95 1085.66 -310.44 1088.27 -316.93"/><text x="1088.24" y="-334.8" font-family="Times,serif" font-size="14" text-anchor="middle">कर्ता</text></g><g id="node17" class="node"><title>Node15_1</title><ellipse cx="1066.24" cy="-469" fill="#ff1975" stroke="#ff1975" rx="93.68" ry="18"/><text x="1066.24" y="-465.3" font-family="Times,serif" font-size="14" text-anchor="middle">अभिययौ(15.1)</text></g><g id="edge20" class="edge"><title>Node16_1-&gt;Node15_1</title><path fill="none" stroke="#000" d="M1142.21,-323.12C1145.07,-352.53 1145.33,-399.73 1124.24,-433 1119.21,-440.95 1111.65,-447.35 1103.65,-452.39"/><polygon fill="#000" stroke="#000" points="1145.68 -322.69 1141.07 -313.15 1138.73 -323.48 1145.68 -322.69"/><text x="1178.24" y="-378.3" font-family="Times,serif" font-size="14" text-anchor="middle">कर्ता</text></g><g id="node3" class="node"><title>Node2_2</title><ellipse cx="1469.24" cy="-208" fill="#00bfff" stroke="#00bfff" rx="106.68" ry="18"/><text x="1469.24" y="-204.3" font-family="Times,serif" font-size="14" text-anchor="middle">सम्पन्नः(2.2)</text></g><g id="edge3" class="edge"><title>Node2_2-&gt;Node16_1</title><path fill="none" stroke="#000" d="M1440.04,-231.71C1425.78,-241.66 1407.91,-252.53 1390.24,-259 1332.9,-280 1264,-288.53 1212.75,-291.93"/><polygon fill="#000" stroke="#000" points="1442.35 -234.36 1448.42 -225.68 1438.26 -228.68 1442.35 -234.36"/><text x="1476.74" y="-247.8" font-family="Times,serif" font-size="14" text-anchor="middle">विशेषणम्</text></g><g id="node4" class="node"><title>Node4_2</title><ellipse cx="1138.24" cy="-208" fill="#00bfff" stroke="#00bfff" rx="87.99" ry="18"/><text x="1138.24" y="-204.3" font-family="Times,serif" font-size="14" text-anchor="middle">आत्मजः(4.2)</text></g><g id="edge6" class="edge"><title>Node4_2-&gt;Node16_1</title><path fill="none" stroke="#000" d="M1138.24,-236.27C1138.24,-249.58 1138.24,-265.19 1138.24,-276.82"/><polygon fill="#000" stroke="#000" points="1141.74 -236.2 1138.24 -226.2 1134.74 -236.2 1141.74 -236.2"/><text x="1195.74" y="-247.8" font-family="Times,serif" font-size="14" text-anchor="middle">विशेषणम्</text></g><g id="node5" class="node"><title>Node5_1</title><ellipse cx="1294.24" cy="-208" fill="#00bfff" stroke="#00bfff" rx="50.89" ry="18"/><text x="1294.24" y="-204.3" font-family="Times,serif" font-size="14" text-anchor="middle">सः(5.1)</text></g><g id="edge7" class="edge"><title>Node5_1-&gt;Node16_1</title><path fill="none" stroke="#000" d="M1279.99,-234.66C1273.98,-243.47 1266.27,-252.69 1257.24,-259 1240.03,-271.03 1218.67,-278.97 1198.81,-284.19"/><polygon fill="#000" stroke="#000" points="1283.01 -236.43 1285.41 -226.11 1277.1 -232.68 1283.01 -236.43"/><text x="1328.74" y="-247.8" font-family="Times,serif" font-size="14" text-anchor="middle">विशेषणम्</text></g><g id="node6" class="node"><title>Node8_3</title><ellipse cx="385.24" cy="-208" fill="#93db70" stroke="#93db70" rx="115.88" ry="18"/><text x="385.24" y="-204.3" font-family="Times,serif" font-size="14" text-anchor="middle">विराजितम्(8.3)</text></g><g id="node7" class="node"><title>Node6_2</title><ellipse cx="431.24" cy="-295" fill="#93db70" stroke="#93db70" rx="69.59" ry="18"/><text x="431.24" y="-291.3" font-family="Times,serif" font-size="14" text-anchor="middle">पथम्(6.2)</text></g><g id="edge13" class="edge"><title>Node8_3-&gt;Node6_2</title><path fill="none" stroke="#000" d="M399.39,-235.15C406.79,-248.81 415.62,-265.13 422.1,-277.11"/><polygon fill="#000" stroke="#000" points="402.39 -233.33 394.55 -226.2 396.23 -236.66 402.39 -233.33"/><text x="468.74" y="-247.8" font-family="Times,serif" font-size="14" text-anchor="middle">विशेषणम्</text></g><g id="edge9" class="edge"><title>Node6_2-&gt;Node7_1</title><path fill="none" stroke="#000" d="M499.79,-306.35C608.03,-322.69 817.32,-354.29 925.61,-370.64"/><polygon fill="#000" stroke="#000" points="500.05 -302.85 489.64 -304.82 499 -309.77 500.05 -302.85"/><text x="775.24" y="-334.8" font-family="Times,serif" font-size="14" text-anchor="middle">कर्म</text></g><g id="node8" class="node"><title>Node11_1</title><ellipse cx="301.24" cy="-34" fill="#93db70" stroke="#93db70" rx="75.29" ry="18"/><text x="301.24" y="-30.3" font-family="Times,serif" font-size="14" text-anchor="middle">ताम्(11.1)</text></g><g id="node9" class="node"><title>Node13_1</title><ellipse cx="567.24" cy="-121" fill="#93db70" stroke="#93db70" rx="102.88" ry="18"/><text x="567.24" y="-117.3" font-family="Times,serif" font-size="14" text-anchor="middle">लङ्काम्(13.1)</text></g><g id="edge16" class="edge"><title>Node11_1-&gt;Node13_1</title><path fill="none" stroke="#000" d="M339.59,-55.44C359.62,-65.45 384.77,-77.04 408.24,-85 436.48,-94.58 468.45,-102.2 496.28,-107.86"/><polygon fill="#000" stroke="#000" points="341 -52.22 330.5 -50.82 337.83 -58.47 341 -52.22"/><text x="465.74" y="-73.8" font-family="Times,serif" font-size="14" text-anchor="middle">विशेषणम्</text></g><g id="edge18" class="edge"><title>Node13_1-&gt;Node1_1</title><path fill="none" stroke="#000" d="M634.73,-138.39C699.37,-154.09 795.94,-177.54 857.76,-192.55"/><polygon fill="#000" stroke="#000" points="635.19 -134.9 624.65 -135.94 633.54 -141.7 635.19 -134.9"/><text x="791.24" y="-160.8" font-family="Times,serif" font-size="14" text-anchor="middle">कर्म</text></g><g id="node10" class="node"><title>Node12_1</title><ellipse cx="711.24" cy="-34" fill="#93db70" stroke="#93db70" rx="93.68" ry="18"/><text x="711.24" y="-30.3" font-family="Times,serif" font-size="14" text-anchor="middle">पुरीम्(12.1)</text></g><g id="edge17" class="edge"><title>Node12_1-&gt;Node13_1</title><path fill="none" stroke="#000" d="M687.64,-58.92C677.89,-67.91 666.1,-77.71 654.24,-85 641.62,-92.76 626.98,-99.43 613.35,-104.79"/><polygon fill="#000" stroke="#000" points="690.14 -61.37 694.98 -51.95 685.32 -56.29 690.14 -61.37"/><text x="731.74" y="-73.8" font-family="Times,serif" font-size="14" text-anchor="middle">विशेषणम्</text></g><g id="node11" class="node"><title>Node14_1</title><ellipse cx="497.24" cy="-34" fill="#93db70" stroke="#93db70" rx="102.88" ry="18"/><text x="497.24" y="-30.3" font-family="Times,serif" font-size="14" text-anchor="middle">रम्याम्(14.1)</text></g><g id="edge19" class="edge"><title>Node14_1-&gt;Node13_1</title><path fill="none" stroke="#000" d="M517.81,-59.97C529.25,-73.86 543.18,-90.78 553.34,-103.11"/><polygon fill="#000" stroke="#000" points="520.47 -57.7 511.41 -52.2 515.06 -62.15 520.47 -57.7"/><text x="593.74" y="-73.8" font-family="Times,serif" font-size="14" text-anchor="middle">विशेषणम्</text></g><g id="node12" class="node"><title>Node2_1</title><ellipse cx="1490.24" cy="-121" fill="#ff0" stroke="#ff0" rx="90.98" ry="18"/><text x="1490.24" y="-117.3" font-family="Times,serif" font-size="14" text-anchor="middle">सत्त्व-(2.1)</text></g><g id="edge2" class="edge"><title>Node2_1-&gt;Node2_2</title><path fill="none" stroke="#000" d="M1483.51,-149.27C1480.22,-162.58 1476.36,-178.19 1473.49,-189.82"/><polygon fill="#000" stroke="#000" points="1486.99 -149.75 1485.99 -139.2 1480.2 -148.07 1486.99 -149.75"/><text x="1590.74" y="-160.8" font-family="Times,serif" font-size="14" text-anchor="middle">तृतीया_तत्पुरुषः</text></g><g id="node13" class="node"><title>Node3_1</title><ellipse cx="1065.24" cy="-121" fill="#c6e2eb" stroke="#c6e2eb" rx="106.68" ry="18"/><text x="1065.24" y="-117.3" font-family="Times,serif" font-size="14" text-anchor="middle">निशायाम्(3.1)</text></g><g id="edge4" class="edge"><title>Node3_1-&gt;Node1_1</title><path fill="none" stroke="#000" d="M1047.24,-146.85C1039.73,-155.79 1030.4,-165.31 1020.24,-172 1007.15,-180.63 991.73,-187.34 976.85,-192.47"/><polygon fill="#000" stroke="#000" points="1050.08 -148.9 1053.59 -138.9 1044.62 -144.53 1050.08 -148.9"/><text x="1114.74" y="-160.8" font-family="Times,serif" font-size="14" text-anchor="middle">कालाधिकरणम्</text></g><g id="node14" class="node"><title>Node4_1</title><ellipse cx="1271.24" cy="-121" fill="#ff0" stroke="#ff0" rx="81.49" ry="18"/><text x="1271.24" y="-117.3" font-family="Times,serif" font-size="14" text-anchor="middle">मारुत-(4.1)</text></g><g id="edge5" class="edge"><title>Node4_1-&gt;Node4_2</title><path fill="none" stroke="#000" d="M1252.72,-146.97C1245.25,-155.76 1236.08,-165.15 1226.24,-172 1213.96,-180.55 1199.3,-187.44 1185.49,-192.78"/><polygon fill="#000" stroke="#000" points="1255.49 -149.12 1259.07 -139.15 1250.05 -144.71 1255.49 -149.12"/><text x="1345.74" y="-160.8" font-family="Times,serif" font-size="14" text-anchor="middle">षष्ठी_तत्पुरुषः</text></g><g id="node15" class="node"><title>Node6_1</title><ellipse cx="582.24" cy="-208" fill="#ff0" stroke="#ff0" rx="63.09" ry="18"/><text x="582.24" y="-204.3" font-family="Times,serif" font-size="14" text-anchor="middle">महा-(6.1)</text></g><g id="edge8" class="edge"><title>Node6_1-&gt;Node6_2</title><path fill="none" stroke="#000" d="M561.31,-233.14C552.45,-242.21 541.57,-252.01 530.24,-259 514.5,-268.72 495.67,-276.23 478.69,-281.76"/><polygon fill="#000" stroke="#000" points="563.94 -235.45 568.23 -225.76 558.83 -230.66 563.94 -235.45"/><text x="612.74" y="-247.8" font-family="Times,serif" font-size="14" text-anchor="middle">कर्मधारयः</text></g><g id="edge10" class="edge"><title>Node7_1-&gt;Node15_1</title><path fill="none" stroke="#000" d="M989.67,-410.03C989.63,-417.95 990.97,-426.28 995.24,-433 1000.85,-441.81 1009.38,-448.48 1018.61,-453.49"/><polygon fill="#000" stroke="#000" points="993.16 -410.25 990.39 -400.02 986.18 -409.74 993.16 -410.25"/><text x="1059.74" y="-421.8" font-family="Times,serif" font-size="14" text-anchor="middle">पूर्वकालः</text></g><g id="node18" class="node"><title>Node8_1</title><ellipse cx="81.24" cy="-34" fill="#ff0" stroke="#ff0" rx="81.49" ry="18"/><text x="81.24" y="-30.3" font-family="Times,serif" font-size="14" text-anchor="middle">मुक्त-(8.1)</text></g><g id="node19" class="node"><title>Node8_2</title><ellipse cx="105.24" cy="-121" fill="#ff0" stroke="#ff0" rx="81.49" ry="18"/><text x="105.24" y="-117.3" font-family="Times,serif" font-size="14" text-anchor="middle">पुष्प-(8.2)</text></g><g id="edge11" class="edge"><title>Node8_1-&gt;Node8_2</title><path fill="none" stroke="#000" d="M81.25,-62.14C81.83,-69.67 83.01,-77.76 85.24,-85 87.14,-91.15 90.26,-97.4 93.47,-102.89"/><polygon fill="#000" stroke="#000" points="84.74 -61.84 80.78 -52.01 77.75 -62.16 84.74 -61.84"/><text x="149.74" y="-73.8" font-family="Times,serif" font-size="14" text-anchor="middle">कर्मधारयः</text></g><g id="edge12" class="edge"><title>Node8_2-&gt;Node8_3</title><path fill="none" stroke="#000" d="M160.99,-138.92C211.76,-154.34 286.08,-176.9 335.04,-191.76"/><polygon fill="#000" stroke="#000" points="161.75 -135.5 151.17 -135.94 159.72 -142.19 161.75 -135.5"/><text x="372.74" y="-160.8" font-family="Times,serif" font-size="14" text-anchor="middle">तृतीया_तत्पुरुषः</text></g><g id="node20" class="node"><title>Node9_1</title><ellipse cx="881.24" cy="-121" fill="#f9f" stroke="#f9f" rx="59.59" ry="18"/><text x="881.24" y="-117.3" font-family="Times,serif" font-size="14" text-anchor="middle">ततः(9.1)</text></g><g id="edge14" class="edge"><title>Node9_1-&gt;Node1_1</title><path fill="none" stroke="#000" d="M892.46,-148.48C898.17,-161.96 904.95,-177.96 909.97,-189.82"/><polygon fill="#000" stroke="#000" points="895.65 -147.04 888.53 -139.2 889.21 -149.77 895.65 -147.04"/><text x="958.74" y="-160.8" font-family="Times,serif" font-size="14" text-anchor="middle">सम्बन्धः</text></g><g id="node21" class="node"><title>Node10_1</title><ellipse cx="881.24" cy="-34" fill="#f9f" stroke="#f9f" rx="56.59" ry="18"/><text x="881.24" y="-30.3" font-family="Times,serif" font-size="14" text-anchor="middle">तु(10.1)</text></g><g id="edge15" class="edge"><title>Node10_1-&gt;Node9_1</title><path fill="none" stroke="#000" d="M881.24,-62.27C881.24,-75.58 881.24,-91.19 881.24,-102.82"/><polygon fill="#000" stroke="#000" points="884.74 -62.2 881.24 -52.2 877.74 -62.2 884.74 -62.2"/><text x="938.74" y="-73.8" font-family="Times,serif" font-size="14" text-anchor="middle">सम्बन्धः</text></g></g></svg>