<?xml version="1.0" encoding="UTF-8" standalone="no"?>
<!DOCTYPE svg PUBLIC "-//W3C//DTD SVG 1.1//EN"
 "http://www.w3.org/Graphics/SVG/1.1/DTD/svg11.dtd">
<!-- Generated by graphviz version 2.43.0 (0)
 -->
<!-- Title: G Pages: 1 -->
<svg width="1514pt" height="479pt"
 viewBox="0.00 0.00 1514.09 479.00" xmlns="http://www.w3.org/2000/svg" xmlns:xlink="http://www.w3.org/1999/xlink">
<g id="graph0" class="graph" transform="scale(1 1) rotate(0) translate(4 475)">
<title>G</title>
<polygon fill="#fffacd" stroke="transparent" points="-4,4 -4,-475 1510.09,-475 1510.09,4 -4,4"/>
<g id="clust1" class="cluster">
<title>cluster_1</title>
<polygon fill="#fffacd" stroke="black" points="288.09,-166 288.09,-305 444.09,-305 444.09,-166 288.09,-166"/>
</g>
<g id="clust2" class="cluster">
<title>cluster_2</title>
<polygon fill="#fffacd" stroke="black" points="638.09,-166 638.09,-305 812.09,-305 812.09,-166 638.09,-166"/>
</g>
<g id="clust3" class="cluster">
<title>cluster_3</title>
<polygon fill="#fffacd" stroke="black" points="1186.09,-166 1186.09,-305 1342.09,-305 1342.09,-166 1186.09,-166"/>
</g>
<g id="clust4" class="cluster">
<title>cluster_4</title>
<polygon fill="#fffacd" stroke="black" points="58.09,-253 58.09,-392 280.09,-392 280.09,-253 58.09,-253"/>
</g>
<!-- Node3_3 -->
<g id="node1" class="node">
<title>Node3_3</title>
<ellipse fill="#00bfff" stroke="#00bfff" cx="366.09" cy="-192" rx="69.59" ry="18"/>
<text text-anchor="middle" x="366.09" y="-188.3" font-family="Times,serif" font-size="14.00">स्थः(3.3)</text>
</g>
<!-- Node1_1 -->
<g id="node2" class="node">
<title>Node1_1</title>
<ellipse fill="#00bfff" stroke="#00bfff" cx="366.09" cy="-279" rx="69.59" ry="18"/>
<text text-anchor="middle" x="366.09" y="-275.3" font-family="Times,serif" font-size="14.00">हंसः(1.1)</text>
</g>
<!-- Node3_3&#45;&gt;Node1_1 -->
<g id="edge6" class="edge">
<title>Node3_3&#45;&gt;Node1_1</title>
<path fill="none" stroke="black" d="M326.26,-214.16C321.78,-218.16 317.85,-222.77 315.09,-228 307.87,-241.71 319.86,-253.96 334.02,-262.89"/>
<polygon fill="black" stroke="black" points="328.44,-216.9 334.18,-207.99 324.14,-211.37 328.44,-216.9"/>
<text text-anchor="middle" x="372.59" y="-231.8" font-family="Times,serif" font-size="14.00">विशेषणम्</text>
</g>
<!-- Node10_1 -->
<g id="node8" class="node">
<title>Node10_1</title>
<ellipse fill="#00bfff" stroke="#00bfff" cx="169.09" cy="-366" rx="102.88" ry="18"/>
<text text-anchor="middle" x="169.09" y="-362.3" font-family="Times,serif" font-size="14.00">चन्द्रः(10.1)</text>
</g>
<!-- Node1_1&#45;&gt;Node10_1 -->
<g id="edge1" class="edge">
<title>Node1_1&#45;&gt;Node10_1</title>
<path fill="none" stroke="black" d="M332.4,-301.31C316.36,-310.89 296.65,-321.85 278.09,-330 260.17,-337.87 239.9,-344.87 221.74,-350.49"/>
<polygon fill="black" stroke="black" points="334.65,-304.04 341.39,-295.86 331.02,-298.05 334.65,-304.04"/>
<text text-anchor="middle" x="357.09" y="-318.8" font-family="Times,serif" font-size="14.00">उपमानम्</text>
</g>
<!-- Node6_3 -->
<g id="node3" class="node">
<title>Node6_3</title>
<ellipse fill="#00bfff" stroke="#00bfff" cx="717.09" cy="-192" rx="69.59" ry="18"/>
<text text-anchor="middle" x="717.09" y="-188.3" font-family="Times,serif" font-size="14.00">स्थः(6.3)</text>
</g>
<!-- Node4_1 -->
<g id="node4" class="node">
<title>Node4_1</title>
<ellipse fill="#00bfff" stroke="#00bfff" cx="725.09" cy="-279" rx="78.79" ry="18"/>
<text text-anchor="middle" x="725.09" y="-275.3" font-family="Times,serif" font-size="14.00">सिंहः(4.1)</text>
</g>
<!-- Node6_3&#45;&gt;Node4_1 -->
<g id="edge11" class="edge">
<title>Node6_3&#45;&gt;Node4_1</title>
<path fill="none" stroke="black" d="M686.14,-216.65C679.48,-224.62 675.61,-233.83 680.09,-243 683.74,-250.47 689.85,-256.8 696.39,-261.95"/>
<polygon fill="black" stroke="black" points="689.02,-218.71 693.53,-209.13 684.03,-213.81 689.02,-218.71"/>
<text text-anchor="middle" x="737.59" y="-231.8" font-family="Times,serif" font-size="14.00">विशेषणम्</text>
</g>
<!-- Node4_1&#45;&gt;Node10_1 -->
<g id="edge7" class="edge">
<title>Node4_1&#45;&gt;Node10_1</title>
<path fill="none" stroke="black" d="M653.56,-291.84C589.96,-302.25 494.41,-317.64 411.09,-330 352.96,-338.62 338.25,-339.55 280.09,-348 268.13,-349.74 255.45,-351.63 243.11,-353.5"/>
<polygon fill="black" stroke="black" points="654.18,-295.28 663.49,-290.21 653.05,-288.37 654.18,-295.28"/>
<text text-anchor="middle" x="556.09" y="-318.8" font-family="Times,serif" font-size="14.00">उपमानम्</text>
</g>
<!-- Node9_3 -->
<g id="node5" class="node">
<title>Node9_3</title>
<ellipse fill="#00bfff" stroke="#00bfff" cx="1264.09" cy="-192" rx="69.59" ry="18"/>
<text text-anchor="middle" x="1264.09" y="-188.3" font-family="Times,serif" font-size="14.00">स्थः(9.3)</text>
</g>
<!-- Node7_1 -->
<g id="node6" class="node">
<title>Node7_1</title>
<ellipse fill="#00bfff" stroke="#00bfff" cx="1264.09" cy="-279" rx="69.59" ry="18"/>
<text text-anchor="middle" x="1264.09" y="-275.3" font-family="Times,serif" font-size="14.00">वीरः(7.1)</text>
</g>
<!-- Node9_3&#45;&gt;Node7_1 -->
<g id="edge16" class="edge">
<title>Node9_3&#45;&gt;Node7_1</title>
<path fill="none" stroke="black" d="M1264.09,-220.27C1264.09,-233.58 1264.09,-249.19 1264.09,-260.82"/>
<polygon fill="black" stroke="black" points="1267.59,-220.2 1264.09,-210.2 1260.59,-220.2 1267.59,-220.2"/>
<text text-anchor="middle" x="1321.59" y="-231.8" font-family="Times,serif" font-size="14.00">विशेषणम्</text>
</g>
<!-- Node7_1&#45;&gt;Node10_1 -->
<g id="edge12" class="edge">
<title>Node7_1&#45;&gt;Node10_1</title>
<path fill="none" stroke="black" d="M1188.36,-286.33C1066.56,-296.39 819.6,-316.28 610.09,-330 463.52,-339.6 426.19,-332.86 280.09,-348 267.29,-349.33 253.72,-351.1 240.61,-353"/>
<polygon fill="black" stroke="black" points="1189.01,-289.79 1198.68,-285.48 1188.43,-282.81 1189.01,-289.79"/>
<text text-anchor="middle" x="857.09" y="-318.8" font-family="Times,serif" font-size="14.00">उपमानम्</text>
</g>
<!-- Node14_2 -->
<g id="node7" class="node">
<title>Node14_2</title>
<ellipse fill="#00bfff" stroke="#00bfff" cx="145.09" cy="-279" rx="75.29" ry="18"/>
<text text-anchor="middle" x="145.09" y="-275.3" font-family="Times,serif" font-size="14.00">स्थः(14.2)</text>
</g>
<!-- Node14_2&#45;&gt;Node10_1 -->
<g id="edge21" class="edge">
<title>Node14_2&#45;&gt;Node10_1</title>
<path fill="none" stroke="black" d="M152.68,-306.87C156.46,-320.27 160.93,-336.08 164.24,-347.82"/>
<polygon fill="black" stroke="black" points="156.03,-305.87 149.95,-297.2 149.3,-307.78 156.03,-305.87"/>
<text text-anchor="middle" x="216.59" y="-318.8" font-family="Times,serif" font-size="14.00">विशेषणम्</text>
</g>
<!-- Node12_1 -->
<g id="node19" class="node">
<title>Node12_1</title>
<ellipse fill="#ff1975" stroke="#ff1975" cx="262.09" cy="-453" rx="137.58" ry="18"/>
<text text-anchor="middle" x="262.09" y="-449.3" font-family="Times,serif" font-size="14.00">बभ्राज(आर्ष)(12.1)</text>
</g>
<!-- Node10_1&#45;&gt;Node12_1 -->
<g id="edge17" class="edge">
<title>Node10_1&#45;&gt;Node12_1</title>
<path fill="none" stroke="black" d="M195.11,-390.78C210.48,-404.83 229.57,-422.28 243.44,-434.95"/>
<polygon fill="black" stroke="black" points="197.21,-387.96 187.47,-383.79 192.49,-393.12 197.21,-387.96"/>
<text text-anchor="middle" x="257.09" y="-405.8" font-family="Times,serif" font-size="14.00">कर्ता</text>
</g>
<!-- Node2_1 -->
<g id="node9" class="node">
<title>Node2_1</title>
<ellipse fill="#ff99ff" stroke="#ff99ff" cx="570.09" cy="-192" rx="59.59" ry="18"/>
<text text-anchor="middle" x="570.09" y="-188.3" font-family="Times,serif" font-size="14.00">यथा(2.1)</text>
</g>
<!-- Node2_1&#45;&gt;Node1_1 -->
<g id="edge2" class="edge">
<title>Node2_1&#45;&gt;Node1_1</title>
<path fill="none" stroke="black" d="M515.87,-206.93C496.65,-212.58 475.09,-219.73 456.09,-228 443.86,-233.32 441.72,-236.47 430.09,-243 418.61,-249.45 405.89,-256.44 394.84,-262.46"/>
<polygon fill="black" stroke="black" points="517.03,-210.24 525.68,-204.12 515.1,-203.51 517.03,-210.24"/>
<text text-anchor="middle" x="545.09" y="-231.8" font-family="Times,serif" font-size="14.00">उपमान_द्योतकः</text>
</g>
<!-- Node13_1 -->
<g id="node10" class="node">
<title>Node13_1</title>
<ellipse fill="#ff99ff" stroke="#ff99ff" cx="1417.09" cy="-192" rx="65.79" ry="18"/>
<text text-anchor="middle" x="1417.09" y="-188.3" font-family="Times,serif" font-size="14.00">तथा(13.1)</text>
</g>
<!-- Node2_1&#45;&gt;Node13_1 -->
<g id="edge3" class="edge">
<title>Node2_1&#45;&gt;Node13_1</title>
<path fill="none" stroke="red" stroke-dasharray="5,2" d="M611.7,-172.76C619.03,-170.05 626.68,-167.63 634.09,-166 750.68,-140.28 1051.84,-143.22 1171.09,-149 1249.14,-152.78 1269.9,-148.65 1346.09,-166 1354.46,-167.91 1363.19,-170.54 1371.55,-173.39"/>
<polygon fill="red" stroke="red" points="609.99,-169.67 601.97,-176.59 612.56,-176.18 609.99,-169.67"/>
<polygon fill="red" stroke="red" points="1370.55,-176.75 1381.14,-176.83 1372.91,-170.16 1370.55,-176.75"/>
<text text-anchor="middle" x="1078.09" y="-144.8" font-family="Times,serif" font-size="14.00">नित्यसम्बन्धः</text>
</g>
<!-- Node13_1&#45;&gt;Node10_1 -->
<g id="edge19" class="edge">
<title>Node13_1&#45;&gt;Node10_1</title>
<path fill="none" stroke="black" d="M1408.29,-219.87C1397.98,-246.57 1378.12,-286.17 1346.09,-305 1262.63,-354.08 1007.83,-325.84 911.09,-330 630.79,-342.05 559.51,-322.72 280.09,-348 266.99,-349.19 253.07,-350.93 239.69,-352.85"/>
<polygon fill="black" stroke="black" points="1411.63,-220.93 1411.78,-210.34 1405.05,-218.53 1411.63,-220.93"/>
<text text-anchor="middle" x="1448.59" y="-275.3" font-family="Times,serif" font-size="14.00">सम्बन्धः</text>
</g>
<!-- Node3_1 -->
<g id="node11" class="node">
<title>Node3_1</title>
<ellipse fill="#ffff00" stroke="#ffff00" cx="366.09" cy="-18" rx="72.29" ry="18"/>
<text text-anchor="middle" x="366.09" y="-14.3" font-family="Times,serif" font-size="14.00">राजत&#45;(3.1)</text>
</g>
<!-- Node3_2 -->
<g id="node12" class="node">
<title>Node3_2</title>
<ellipse fill="#ffff00" stroke="#ffff00" cx="366.09" cy="-105" rx="81.49" ry="18"/>
<text text-anchor="middle" x="366.09" y="-101.3" font-family="Times,serif" font-size="14.00">पञ्जर&#45;(3.2)</text>
</g>
<!-- Node3_1&#45;&gt;Node3_2 -->
<g id="edge4" class="edge">
<title>Node3_1&#45;&gt;Node3_2</title>
<path fill="none" stroke="black" d="M366.09,-46.27C366.09,-59.58 366.09,-75.19 366.09,-86.82"/>
<polygon fill="black" stroke="black" points="369.59,-46.2 366.09,-36.2 362.59,-46.2 369.59,-46.2"/>
<text text-anchor="middle" x="430.59" y="-57.8" font-family="Times,serif" font-size="14.00">कर्मधारयः</text>
</g>
<!-- Node3_2&#45;&gt;Node3_3 -->
<g id="edge5" class="edge">
<title>Node3_2&#45;&gt;Node3_3</title>
<path fill="none" stroke="black" d="M366.09,-133.27C366.09,-146.58 366.09,-162.19 366.09,-173.82"/>
<polygon fill="black" stroke="black" points="369.59,-133.2 366.09,-123.2 362.59,-133.2 369.59,-133.2"/>
<text text-anchor="middle" x="462.59" y="-144.8" font-family="Times,serif" font-size="14.00">उपपद_तत्पुरुषः</text>
</g>
<!-- Node5_1 -->
<g id="node13" class="node">
<title>Node5_1</title>
<ellipse fill="#ff99ff" stroke="#ff99ff" cx="880.09" cy="-192" rx="59.59" ry="18"/>
<text text-anchor="middle" x="880.09" y="-188.3" font-family="Times,serif" font-size="14.00">यथा(5.1)</text>
</g>
<!-- Node5_1&#45;&gt;Node4_1 -->
<g id="edge8" class="edge">
<title>Node5_1&#45;&gt;Node4_1</title>
<path fill="none" stroke="black" d="M843.51,-213.14C835.1,-217.91 826.24,-223.05 818.09,-228 807.66,-234.34 805.68,-236.93 795.09,-243 783.19,-249.83 769.78,-256.72 757.91,-262.55"/>
<polygon fill="black" stroke="black" points="845.41,-216.09 852.4,-208.13 841.97,-209.99 845.41,-216.09"/>
<text text-anchor="middle" x="907.09" y="-231.8" font-family="Times,serif" font-size="14.00">उपमान_द्योतकः</text>
</g>
<!-- Node6_1 -->
<g id="node14" class="node">
<title>Node6_1</title>
<ellipse fill="#ffff00" stroke="#ffff00" cx="717.09" cy="-18" rx="81.49" ry="18"/>
<text text-anchor="middle" x="717.09" y="-14.3" font-family="Times,serif" font-size="14.00">मन्दर&#45;(6.1)</text>
</g>
<!-- Node6_2 -->
<g id="node15" class="node">
<title>Node6_2</title>
<ellipse fill="#ffff00" stroke="#ffff00" cx="717.09" cy="-105" rx="81.49" ry="18"/>
<text text-anchor="middle" x="717.09" y="-101.3" font-family="Times,serif" font-size="14.00">कन्दर&#45;(6.2)</text>
</g>
<!-- Node6_1&#45;&gt;Node6_2 -->
<g id="edge9" class="edge">
<title>Node6_1&#45;&gt;Node6_2</title>
<path fill="none" stroke="black" d="M717.09,-46.27C717.09,-59.58 717.09,-75.19 717.09,-86.82"/>
<polygon fill="black" stroke="black" points="720.59,-46.2 717.09,-36.2 713.59,-46.2 720.59,-46.2"/>
<text text-anchor="middle" x="820.59" y="-57.8" font-family="Times,serif" font-size="14.00">षष्ठी_तत्पुरुषः</text>
</g>
<!-- Node6_2&#45;&gt;Node6_3 -->
<g id="edge10" class="edge">
<title>Node6_2&#45;&gt;Node6_3</title>
<path fill="none" stroke="black" d="M717.09,-133.27C717.09,-146.58 717.09,-162.19 717.09,-173.82"/>
<polygon fill="black" stroke="black" points="720.59,-133.2 717.09,-123.2 713.59,-133.2 720.59,-133.2"/>
<text text-anchor="middle" x="813.59" y="-144.8" font-family="Times,serif" font-size="14.00">उपपद_तत्पुरुषः</text>
</g>
<!-- Node8_1 -->
<g id="node16" class="node">
<title>Node8_1</title>
<ellipse fill="#ff99ff" stroke="#ff99ff" cx="1018.09" cy="-192" rx="59.59" ry="18"/>
<text text-anchor="middle" x="1018.09" y="-188.3" font-family="Times,serif" font-size="14.00">यथा(8.1)</text>
</g>
<!-- Node8_1&#45;&gt;Node7_1 -->
<g id="edge13" class="edge">
<title>Node8_1&#45;&gt;Node7_1</title>
<path fill="none" stroke="black" d="M1042.22,-216.29C1053.5,-225.96 1067.63,-236.43 1082.09,-243 1118.56,-259.58 1162.6,-268.31 1198.23,-272.9"/>
<polygon fill="black" stroke="black" points="1044.34,-213.49 1034.54,-209.46 1039.68,-218.72 1044.34,-213.49"/>
<text text-anchor="middle" x="1171.09" y="-231.8" font-family="Times,serif" font-size="14.00">उपमान_द्योतकः</text>
</g>
<!-- Node9_1 -->
<g id="node17" class="node">
<title>Node9_1</title>
<ellipse fill="#ffff00" stroke="#ffff00" cx="1264.09" cy="-18" rx="90.98" ry="18"/>
<text text-anchor="middle" x="1264.09" y="-14.3" font-family="Times,serif" font-size="14.00">गर्वित&#45;(9.1)</text>
</g>
<!-- Node9_2 -->
<g id="node18" class="node">
<title>Node9_2</title>
<ellipse fill="#ffff00" stroke="#ffff00" cx="1264.09" cy="-105" rx="90.98" ry="18"/>
<text text-anchor="middle" x="1264.09" y="-101.3" font-family="Times,serif" font-size="14.00">कुञ्जर&#45;(9.2)</text>
</g>
<!-- Node9_1&#45;&gt;Node9_2 -->
<g id="edge14" class="edge">
<title>Node9_1&#45;&gt;Node9_2</title>
<path fill="none" stroke="black" d="M1264.09,-46.27C1264.09,-59.58 1264.09,-75.19 1264.09,-86.82"/>
<polygon fill="black" stroke="black" points="1267.59,-46.2 1264.09,-36.2 1260.59,-46.2 1267.59,-46.2"/>
<text text-anchor="middle" x="1328.59" y="-57.8" font-family="Times,serif" font-size="14.00">कर्मधारयः</text>
</g>
<!-- Node9_2&#45;&gt;Node9_3 -->
<g id="edge15" class="edge">
<title>Node9_2&#45;&gt;Node9_3</title>
<path fill="none" stroke="black" d="M1264.09,-133.27C1264.09,-146.58 1264.09,-162.19 1264.09,-173.82"/>
<polygon fill="black" stroke="black" points="1267.59,-133.2 1264.09,-123.2 1260.59,-133.2 1267.59,-133.2"/>
<text text-anchor="middle" x="1360.59" y="-144.8" font-family="Times,serif" font-size="14.00">उपपद_तत्पुरुषः</text>
</g>
<!-- Node11_1 -->
<g id="node20" class="node">
<title>Node11_1</title>
<ellipse fill="#ff99ff" stroke="#ff99ff" cx="355.09" cy="-366" rx="65.79" ry="18"/>
<text text-anchor="middle" x="355.09" y="-362.3" font-family="Times,serif" font-size="14.00">अपि(11.1)</text>
</g>
<!-- Node11_1&#45;&gt;Node12_1 -->
<g id="edge18" class="edge">
<title>Node11_1&#45;&gt;Node12_1</title>
<path fill="none" stroke="black" d="M329.47,-390.42C313.98,-404.57 294.6,-422.29 280.61,-435.08"/>
<polygon fill="black" stroke="black" points="332.14,-392.72 337.16,-383.39 327.42,-387.55 332.14,-392.72"/>
<text text-anchor="middle" x="371.59" y="-405.8" font-family="Times,serif" font-size="14.00">सम्बन्धः</text>
</g>
<!-- Node14_1 -->
<g id="node21" class="node">
<title>Node14_1</title>
<ellipse fill="#ffff00" stroke="#ffff00" cx="87.09" cy="-192" rx="87.18" ry="18"/>
<text text-anchor="middle" x="87.09" y="-188.3" font-family="Times,serif" font-size="14.00">अम्बर&#45;(14.1)</text>
</g>
<!-- Node14_1&#45;&gt;Node14_2 -->
<g id="edge20" class="edge">
<title>Node14_1&#45;&gt;Node14_2</title>
<path fill="none" stroke="black" d="M84.9,-220.48C85.42,-228.2 87.11,-236.32 91.09,-243 95.9,-251.06 103.37,-257.6 111.23,-262.75"/>
<polygon fill="black" stroke="black" points="88.4,-220.32 84.83,-210.35 81.4,-220.37 88.4,-220.32"/>
<text text-anchor="middle" x="187.59" y="-231.8" font-family="Times,serif" font-size="14.00">उपपद_तत्पुरुषः</text>
</g>
</g>
</svg>
