<svg xmlns="http://www.w3.org/2000/svg" xmlns:xlink="http://www.w3.org/1999/xlink" width="1625pt" height="392pt" viewBox="0 0 1624.83 392"><g id="graph0" class="graph" transform="scale(1 1) rotate(0) translate(4 388)"><title>G</title><polygon fill="#fffacd" stroke="transparent" points="-4 4 -4 -388 1620.83 -388 1620.83 4 -4 4"/><g id="clust1" class="cluster"><title>cluster_1</title><polygon fill="#fffacd" stroke="#000" points="510.24 -166 510.24 -305 1394.24 -305 1394.24 -166 510.24 -166"/></g><g id="clust2" class="cluster"><title>cluster_2</title><polygon fill="#fffacd" stroke="#000" points="173.24 -79 173.24 -218 413.24 -218 413.24 -79 173.24 -79"/></g><g id="node1" class="node"><title>Node2_1</title><ellipse cx="1270.24" cy="-192" fill="#93db70" stroke="#93db70" rx="115.88" ry="18"/><text x="1270.24" y="-188.3" font-family="Times,serif" font-size="14" text-anchor="middle">ज्वलन्तीः(2.1)</text></g><g id="node2" class="node"><title>Node1_1</title><ellipse cx="827.24" cy="-279" fill="#93db70" stroke="#93db70" rx="106.68" ry="18"/><text x="827.24" y="-275.3" font-family="Times,serif" font-size="14" text-anchor="middle">स्त्रियः(1.1)</text></g><g id="edge2" class="edge"><title>Node2_1-&gt;Node1_1</title><path fill="none" stroke="#000" d="M1213.76,-211.57C1179.98,-222.08 1136.02,-234.75 1096.24,-243 1037.56,-255.18 970.76,-263.9 918.4,-269.59"/><polygon fill="#000" stroke="#000" points="1214.97 -214.86 1223.46 -208.52 1212.87 -208.18 1214.97 -214.86"/><text x="1211.74" y="-231.8" font-family="Times,serif" font-size="14" text-anchor="middle">विशेषणम्</text></g><g id="node8" class="node"><title>Node7_1</title><ellipse cx="541.24" cy="-366" fill="#ff1975" stroke="#ff1975" rx="78.79" ry="18"/><text x="541.24" y="-362.3" font-family="Times,serif" font-size="14" text-anchor="middle">ददर्श(7.1)</text></g><g id="edge1" class="edge"><title>Node1_1-&gt;Node7_1</title><path fill="none" stroke="#000" d="M767.39,-297.79C713.85,-313.7 636.48,-336.7 587.54,-351.24"/><polygon fill="#000" stroke="#000" points="768.51 -301.11 777.1 -294.9 766.52 -294.4 768.51 -301.11"/><text x="730.24" y="-318.8" font-family="Times,serif" font-size="14" text-anchor="middle">कर्म</text></g><g id="node3" class="node"><title>Node4_1</title><ellipse cx="615.24" cy="-192" fill="#93db70" stroke="#93db70" rx="96.68" ry="18"/><text x="615.24" y="-188.3" font-family="Times,serif" font-size="14" text-anchor="middle">उपगूढाः(4.1)</text></g><g id="edge4" class="edge"><title>Node4_1-&gt;Node1_1</title><path fill="none" stroke="#000" d="M651.17,-214.57C668.08,-224.14 688.78,-235.01 708.24,-243 727.96,-251.1 750.23,-258.17 770.12,-263.79"/><polygon fill="#000" stroke="#000" points="652.6 -211.36 642.19 -209.42 649.12 -217.43 652.6 -211.36"/><text x="765.74" y="-231.8" font-family="Times,serif" font-size="14" text-anchor="middle">विशेषणम्</text></g><g id="node4" class="node"><title>Node6_2</title><ellipse cx="827.24" cy="-192" fill="#93db70" stroke="#93db70" rx="96.68" ry="18"/><text x="827.24" y="-188.3" font-family="Times,serif" font-size="14" text-anchor="middle">उपगूढाः(6.2)</text></g><g id="edge8" class="edge"><title>Node6_2-&gt;Node1_1</title><path fill="none" stroke="#000" d="M827.24,-220.27C827.24,-233.58 827.24,-249.19 827.24,-260.82"/><polygon fill="#000" stroke="#000" points="830.74 -220.2 827.24 -210.2 823.74 -220.2 830.74 -220.2"/><text x="884.74" y="-231.8" font-family="Times,serif" font-size="14" text-anchor="middle">विशेषणम्</text></g><g id="node5" class="node"><title>Node9_2</title><ellipse cx="1039.24" cy="-192" fill="#93db70" stroke="#93db70" rx="96.68" ry="18"/><text x="1039.24" y="-188.3" font-family="Times,serif" font-size="14" text-anchor="middle">उपगूढाः(9.2)</text></g><g id="edge11" class="edge"><title>Node9_2-&gt;Node1_1</title><path fill="none" stroke="#000" d="M1003.32,-214.57C986.4,-224.14 965.7,-235.01 946.24,-243 926.52,-251.1 904.26,-258.17 884.37,-263.79"/><polygon fill="#000" stroke="#000" points="1005.37 -217.43 1012.3 -209.42 1001.88 -211.36 1005.37 -217.43"/><text x="1034.74" y="-231.8" font-family="Times,serif" font-size="14" text-anchor="middle">विशेषणम्</text></g><g id="node6" class="node"><title>Node12_2</title><ellipse cx="290.24" cy="-105" fill="#93db70" stroke="#93db70" rx="102.88" ry="18"/><text x="290.24" y="-101.3" font-family="Times,serif" font-size="14" text-anchor="middle">उपगूढाः(12.2)</text></g><g id="node7" class="node"><title>Node11_1</title><ellipse cx="293.24" cy="-192" fill="#93db70" stroke="#93db70" rx="112.38" ry="18"/><text x="293.24" y="-188.3" font-family="Times,serif" font-size="14" text-anchor="middle">विहङ्गाः(11.1)</text></g><g id="edge15" class="edge"><title>Node12_2-&gt;Node11_1</title><path fill="none" stroke="#000" d="M291.21,-133.27C291.68,-146.58 292.23,-162.19 292.64,-173.82"/><polygon fill="#000" stroke="#000" points="294.7 -133.07 290.85 -123.2 287.7 -133.32 294.7 -133.07"/><text x="348.74" y="-144.8" font-family="Times,serif" font-size="14" text-anchor="middle">विशेषणम्</text></g><g id="edge13" class="edge"><title>Node11_1-&gt;Node1_1</title><path fill="none" stroke="#000" d="M372.64,-208.12C428.39,-218.52 504.75,-232.33 572.24,-243 629.73,-252.09 694.73,-260.99 744.72,-267.54"/><polygon fill="#000" stroke="#000" points="372.95 -204.62 362.48 -206.22 371.66 -211.5 372.95 -204.62"/><text x="622.24" y="-231.8" font-family="Times,serif" font-size="14" text-anchor="middle">उपमानम्</text></g><g id="node9" class="node"><title>Node3_1</title><ellipse cx="658.24" cy="-105" fill="#40e0d0" stroke="#40e0d0" rx="87.99" ry="18"/><text x="658.24" y="-101.3" font-family="Times,serif" font-size="14" text-anchor="middle">त्रपया(3.1)</text></g><g id="edge3" class="edge"><title>Node3_1-&gt;Node4_1</title><path fill="none" stroke="#000" d="M647.28,-132.61C643.93,-140.25 640.1,-148.54 636.24,-156 633.18,-161.92 629.54,-168.21 626.15,-173.8"/><polygon fill="#000" stroke="#000" points="650.51 -133.95 651.23 -123.38 644.08 -131.19 650.51 -133.95"/><text x="679.24" y="-144.8" font-family="Times,serif" font-size="14" text-anchor="middle">करणम्</text></g><g id="node10" class="node"><title>Node5_1</title><ellipse cx="81.24" cy="-192" fill="#ff0" stroke="#ff0" rx="81.49" ry="18"/><text x="81.24" y="-188.3" font-family="Times,serif" font-size="14" text-anchor="middle">निशीथ-(5.1)</text></g><g id="node11" class="node"><title>Node5_2</title><ellipse cx="256.24" cy="-279" fill="#c6e2eb" stroke="#c6e2eb" rx="69.59" ry="18"/><text x="256.24" y="-275.3" font-family="Times,serif" font-size="14" text-anchor="middle">काले(5.2)</text></g><g id="edge5" class="edge"><title>Node5_1-&gt;Node5_2</title><path fill="none" stroke="#000" d="M122.69,-213.13C154.03,-228.35 196.4,-248.93 224.94,-262.79"/><polygon fill="#000" stroke="#000" points="123.86 -209.81 113.34 -208.59 120.81 -216.11 123.86 -209.81"/><text x="243.74" y="-231.8" font-family="Times,serif" font-size="14" text-anchor="middle">कर्मधारयः</text></g><g id="edge6" class="edge"><title>Node5_2-&gt;Node7_1</title><path fill="none" stroke="#000" d="M309.81,-295.98C363.34,-311.94 444.76,-336.23 495.4,-351.33"/><polygon fill="#000" stroke="#000" points="310.73 -292.6 300.15 -293.09 308.73 -299.31 310.73 -292.6"/><text x="493.74" y="-318.8" font-family="Times,serif" font-size="14" text-anchor="middle">कालाधिकरणम्</text></g><g id="node12" class="node"><title>Node6_1</title><ellipse cx="827.24" cy="-105" fill="#ff0" stroke="#ff0" rx="63.09" ry="18"/><text x="827.24" y="-101.3" font-family="Times,serif" font-size="14" text-anchor="middle">रमण-(6.1)</text></g><g id="edge7" class="edge"><title>Node6_1-&gt;Node6_2</title><path fill="none" stroke="#000" d="M827.24,-133.27C827.24,-146.58 827.24,-162.19 827.24,-173.82"/><polygon fill="#000" stroke="#000" points="830.74 -133.2 827.24 -123.2 823.74 -133.2 830.74 -133.2"/><text x="937.74" y="-144.8" font-family="Times,serif" font-size="14" text-anchor="middle">तृतीया_तत्पुरुषः</text></g><g id="node13" class="node"><title>Node8_1</title><ellipse cx="1510.24" cy="-192" fill="#f9f" stroke="#f9f" rx="106.68" ry="18"/><text x="1510.24" y="-188.3" font-family="Times,serif" font-size="14" text-anchor="middle">काश्चित्(8.1)</text></g><g id="edge9" class="edge"><title>Node8_1-&gt;Node1_1</title><path fill="none" stroke="#000" d="M1439.68,-209C1425.94,-212.04 1411.65,-215.16 1398.24,-218 1342.81,-229.73 1329.36,-235.21 1273.24,-243 1155.73,-259.3 1019.66,-268.61 929.02,-273.47"/><polygon fill="#000" stroke="#000" points="1440.55 -212.39 1449.55 -206.8 1439.03 -205.56 1440.55 -212.39"/><text x="1409.74" y="-231.8" font-family="Times,serif" font-size="14" text-anchor="middle">सम्बन्धः</text></g><g id="node14" class="node"><title>Node9_1</title><ellipse cx="1071.24" cy="-105" fill="#ff0" stroke="#ff0" rx="81.49" ry="18"/><text x="1071.24" y="-101.3" font-family="Times,serif" font-size="14" text-anchor="middle">प्रमद-(9.1)</text></g><g id="edge10" class="edge"><title>Node9_1-&gt;Node9_2</title><path fill="none" stroke="#000" d="M1061.13,-132.87C1056.08,-146.27 1050.13,-162.08 1045.71,-173.82"/><polygon fill="#000" stroke="#000" points="1064.52 -133.79 1064.77 -123.2 1057.97 -131.33 1064.52 -133.79"/><text x="1166.74" y="-144.8" font-family="Times,serif" font-size="14" text-anchor="middle">तृतीया_तत्पुरुषः</text></g><g id="node15" class="node"><title>Node10_1</title><ellipse cx="487.24" cy="-105" fill="#f9f" stroke="#f9f" rx="65.79" ry="18"/><text x="487.24" y="-101.3" font-family="Times,serif" font-size="14" text-anchor="middle">यथा(10.1)</text></g><g id="edge12" class="edge"><title>Node10_1-&gt;Node11_1</title><path fill="none" stroke="#000" d="M457.78,-127.97C443.89,-137.57 426.77,-148.35 410.24,-156 392.25,-164.32 371.79,-171.24 353.07,-176.66"/><polygon fill="#000" stroke="#000" points="459.82 -130.82 465.97 -122.19 455.78 -125.1 459.82 -130.82"/><text x="525.24" y="-144.8" font-family="Times,serif" font-size="14" text-anchor="middle">उपमान_द्योतकः</text></g><g id="node16" class="node"><title>Node12_1</title><ellipse cx="290.24" cy="-18" fill="#ff0" stroke="#ff0" rx="77.99" ry="18"/><text x="290.24" y="-14.3" font-family="Times,serif" font-size="14" text-anchor="middle">विहग-(12.1)</text></g><g id="edge14" class="edge"><title>Node12_1-&gt;Node12_2</title><path fill="none" stroke="#000" d="M290.24,-46.27C290.24,-59.58 290.24,-75.19 290.24,-86.82"/><polygon fill="#000" stroke="#000" points="293.74 -46.2 290.24 -36.2 286.74 -46.2 293.74 -46.2"/><text x="400.74" y="-57.8" font-family="Times,serif" font-size="14" text-anchor="middle">तृतीया_तत्पुरुषः</text></g></g></svg>