<svg xmlns="http://www.w3.org/2000/svg" xmlns:xlink="http://www.w3.org/1999/xlink" width="1786pt" height="312" viewBox="0 0 1785.89 234"><g id="graph0" class="graph" transform="scale(1 1) rotate(0) translate(4 230)"><title>G</title><polygon fill="#fffacd" stroke="transparent" points="-4 4 -4 -230 1781.89 -230 1781.89 4 -4 4"/><g id="clust1" class="cluster"><title>cluster_1</title><polygon fill="#fffacd" stroke="#000" points="102.45 -8 102.45 -147 342.45 -147 342.45 -8 102.45 -8"/></g><g id="clust2" class="cluster"><title>cluster_2</title><polygon fill="#fffacd" stroke="#000" points="1469.45 -8 1469.45 -147 1673.45 -147 1673.45 -8 1469.45 -8"/></g><g id="node1" class="node"><title>Node10_1</title><ellipse cx="222.45" cy="-34" fill="#93db70" stroke="#93db70" rx="112.38" ry="18"/><text x="222.45" y="-30.3" font-family="Times,serif" font-size="14" text-anchor="middle">चित्राणि(10.1)</text></g><g id="node2" class="node"><title>Node9_1</title><ellipse cx="218.45" cy="-121" fill="#93db70" stroke="#93db70" rx="87.99" ry="18"/><text x="218.45" y="-117.3" font-family="Times,serif" font-size="14" text-anchor="middle">रूपाणि(9.1)</text></g><g id="edge11" class="edge"><title>Node10_1-&gt;Node9_1</title><path fill="none" stroke="#000" d="M221.16,-62.27C220.54,-75.58 219.8,-91.19 219.25,-102.82"/><polygon fill="#000" stroke="#000" points="224.66 -62.35 221.64 -52.2 217.67 -62.03 224.66 -62.35"/><text x="277.95" y="-73.8" font-family="Times,serif" font-size="14" text-anchor="middle">विशेषणम्</text></g><g id="node8" class="node"><title>Node12_1</title><ellipse cx="217.45" cy="-208" fill="#ff1975" stroke="#ff1975" rx="139.98" ry="18"/><text x="217.45" y="-204.3" font-family="Times,serif" font-size="14" text-anchor="middle">विक्षिपन्ति(12.1)</text></g><g id="edge10" class="edge"><title>Node9_1-&gt;Node12_1</title><path fill="none" stroke="#000" d="M218.13,-149.27C217.97,-162.58 217.78,-178.19 217.65,-189.82"/><polygon fill="#000" stroke="#000" points="221.63 -149.24 218.24 -139.2 214.63 -149.16 221.63 -149.24"/><text x="246.45" y="-160.8" font-family="Times,serif" font-size="14" text-anchor="middle">कर्म</text></g><g id="node3" class="node"><title>Node13_1</title><ellipse cx="1571.45" cy="-34" fill="#93db70" stroke="#93db70" rx="93.68" ry="18"/><text x="1571.45" y="-30.3" font-family="Times,serif" font-size="14" text-anchor="middle">दृढानि(13.1)</text></g><g id="node4" class="node"><title>Node14_1</title><ellipse cx="1571.45" cy="-121" fill="#93db70" stroke="#93db70" rx="93.68" ry="18"/><text x="1571.45" y="-117.3" font-family="Times,serif" font-size="14" text-anchor="middle">चापानि(14.1)</text></g><g id="edge13" class="edge"><title>Node13_1-&gt;Node14_1</title><path fill="none" stroke="#000" d="M1571.45,-62.27C1571.45,-75.58 1571.45,-91.19 1571.45,-102.82"/><polygon fill="#000" stroke="#000" points="1574.95 -62.2 1571.45 -52.2 1567.95 -62.2 1574.95 -62.2"/><text x="1628.95" y="-73.8" font-family="Times,serif" font-size="14" text-anchor="middle">विशेषणम्</text></g><g id="node9" class="node"><title>Node16_1</title><ellipse cx="1571.45" cy="-208" fill="#ff1975" stroke="#ff1975" rx="139.98" ry="18"/><text x="1571.45" y="-204.3" font-family="Times,serif" font-size="14" text-anchor="middle">विक्षिपन्ति(16.1)</text></g><g id="edge14" class="edge"><title>Node14_1-&gt;Node16_1</title><path fill="none" stroke="#000" d="M1571.45,-149.27C1571.45,-162.58 1571.45,-178.19 1571.45,-189.82"/><polygon fill="#000" stroke="#000" points="1574.95 -149.2 1571.45 -139.2 1567.95 -149.2 1574.95 -149.2"/><text x="1600.45" y="-160.8" font-family="Times,serif" font-size="14" text-anchor="middle">कर्म</text></g><g id="node5" class="node"><title>Node1_1</title><ellipse cx="790.45" cy="-121" fill="#00bfff" stroke="#00bfff" rx="106.68" ry="18"/><text x="790.45" y="-117.3" font-family="Times,serif" font-size="14" text-anchor="middle">रक्षांसि(1.1)</text></g><g id="node6" class="node"><title>Node4_1</title><ellipse cx="559.45" cy="-208" fill="#ff1975" stroke="#ff1975" rx="133.78" ry="18"/><text x="559.45" y="-204.3" font-family="Times,serif" font-size="14" text-anchor="middle">विक्षिपन्ति(4.1)</text></g><g id="edge1" class="edge"><title>Node1_1-&gt;Node4_1</title><path fill="none" stroke="#000" d="M738.58,-141.08C697.8,-156.09 641.62,-176.76 603.12,-190.93"/><polygon fill="#000" stroke="#000" points="739.9 -144.33 748.08 -137.59 737.48 -137.76 739.9 -144.33"/><text x="724.45" y="-160.8" font-family="Times,serif" font-size="14" text-anchor="middle">कर्ता</text></g><g id="node7" class="node"><title>Node8_1</title><ellipse cx="1136.45" cy="-208" fill="#ff1975" stroke="#ff1975" rx="133.78" ry="18"/><text x="1136.45" y="-204.3" font-family="Times,serif" font-size="14" text-anchor="middle">विक्षिपन्ति(8.1)</text></g><g id="edge2" class="edge"><title>Node1_1-&gt;Node8_1</title><path fill="none" stroke="#000" stroke-dasharray="1 5" d="M847.99,-140.18C881,-150.27 923.34,-162.64 961.45,-172 993.49,-179.87 1029.16,-187.25 1059.89,-193.19"/><polygon fill="#000" stroke="#000" points="848.64 -136.72 838.05 -137.13 846.59 -143.41 848.64 -136.72"/><text x="997.45" y="-160.8" font-family="Times,serif" font-size="14" text-anchor="middle">कर्ता</text></g><g id="edge3" class="edge"><title>Node1_1-&gt;Node12_1</title><path fill="none" stroke="#000" stroke-dasharray="1 5" d="M724.57,-138.49C708.59,-141.89 691.48,-145.03 675.45,-147 602.85,-155.92 418.13,-142.46 346.45,-157 312.67,-163.85 276.22,-178.73 250.72,-190.49"/><polygon fill="#000" stroke="#000" points="725.33 -141.91 734.35 -136.35 723.84 -135.07 725.33 -141.91"/><text x="382.45" y="-160.8" font-family="Times,serif" font-size="14" text-anchor="middle">कर्ता</text></g><g id="edge4" class="edge"><title>Node1_1-&gt;Node16_1</title><path fill="none" stroke="#000" stroke-dasharray="1 5" d="M857.3,-138.48C873.01,-141.81 889.74,-144.92 905.45,-147 950.22,-152.93 1065.63,-142.63 1108.45,-157 1119.66,-160.77 1119.28,-168.07 1130.45,-172 1159.49,-182.23 1325.22,-193.38 1444.98,-200.28"/><polygon fill="#000" stroke="#000" points="857.67 -134.98 847.15 -136.27 856.18 -141.82 857.67 -134.98"/><text x="1166.45" y="-160.8" font-family="Times,serif" font-size="14" text-anchor="middle">कर्ता</text></g><g id="node10" class="node"><title>Node2_1</title><ellipse cx="559.45" cy="-121" fill="#93db70" stroke="#93db70" rx="106.68" ry="18"/><text x="559.45" y="-117.3" font-family="Times,serif" font-size="14" text-anchor="middle">वक्षांसि(2.1)</text></g><g id="edge5" class="edge"><title>Node2_1-&gt;Node4_1</title><path fill="none" stroke="#000" d="M559.45,-149.27C559.45,-162.58 559.45,-178.19 559.45,-189.82"/><polygon fill="#000" stroke="#000" points="562.95 -149.2 559.45 -139.2 555.95 -149.2 562.95 -149.2"/><text x="588.45" y="-160.8" font-family="Times,serif" font-size="14" text-anchor="middle">कर्म</text></g><g id="node11" class="node"><title>Node3_1</title><ellipse cx="393.45" cy="-121" fill="#f9f" stroke="#f9f" rx="41.69" ry="18"/><text x="393.45" y="-117.3" font-family="Times,serif" font-size="14" text-anchor="middle">च(3.1)</text></g><g id="edge6" class="edge"><title>Node3_1-&gt;Node4_1</title><path fill="none" stroke="#000" d="M411.7,-146.38C419.64,-155.54 429.61,-165.34 440.45,-172 454.94,-180.91 471.82,-187.65 488.23,-192.72"/><polygon fill="#000" stroke="#000" points="414.33 -144.07 405.27 -138.59 408.93 -148.53 414.33 -144.07"/><text x="497.95" y="-160.8" font-family="Times,serif" font-size="14" text-anchor="middle">सम्बन्धः</text></g><g id="node12" class="node"><title>Node5_1</title><ellipse cx="1021.45" cy="-121" fill="#93db70" stroke="#93db70" rx="106.68" ry="18"/><text x="1021.45" y="-117.3" font-family="Times,serif" font-size="14" text-anchor="middle">गात्राणि(5.1)</text></g><g id="edge7" class="edge"><title>Node5_1-&gt;Node8_1</title><path fill="none" stroke="#000" d="M1032.56,-148.42C1037.11,-156.82 1043.07,-165.59 1050.45,-172 1059.69,-180.04 1071.02,-186.39 1082.39,-191.35"/><polygon fill="#000" stroke="#000" points="1035.59 -146.64 1028.01 -139.23 1029.31 -149.75 1035.59 -146.64"/><text x="1079.45" y="-160.8" font-family="Times,serif" font-size="14" text-anchor="middle">कर्म</text></g><g id="node13" class="node"><title>Node6_1</title><ellipse cx="1252.45" cy="-121" fill="#c6e2eb" stroke="#c6e2eb" rx="106.68" ry="18"/><text x="1252.45" y="-117.3" font-family="Times,serif" font-size="14" text-anchor="middle">कान्तासु(6.1)</text></g><g id="edge8" class="edge"><title>Node6_1-&gt;Node8_1</title><path fill="none" stroke="#000" d="M1232.76,-146.9C1225.14,-155.53 1215.97,-164.83 1206.45,-172 1197,-179.11 1185.89,-185.43 1175.34,-190.68"/><polygon fill="#000" stroke="#000" points="1235.46 -149.12 1239.28 -139.24 1230.13 -144.58 1235.46 -149.12"/><text x="1279.95" y="-160.8" font-family="Times,serif" font-size="14" text-anchor="middle">अधिकरणम्</text></g><g id="node14" class="node"><title>Node7_1</title><ellipse cx="1418.45" cy="-121" fill="#f9f" stroke="#f9f" rx="41.69" ry="18"/><text x="1418.45" y="-117.3" font-family="Times,serif" font-size="14" text-anchor="middle">च(7.1)</text></g><g id="edge9" class="edge"><title>Node7_1-&gt;Node8_1</title><path fill="none" stroke="#000" d="M1391.45,-143.43C1377.32,-153.6 1359.27,-165.03 1341.45,-172 1310.68,-184.02 1275.71,-191.92 1243.48,-197.11"/><polygon fill="#000" stroke="#000" points="1393.76 -146.07 1399.71 -137.3 1389.59 -140.45 1393.76 -146.07"/><text x="1427.95" y="-160.8" font-family="Times,serif" font-size="14" text-anchor="middle">सम्बन्धः</text></g><g id="node15" class="node"><title>Node11_1</title><ellipse cx="47.45" cy="-121" fill="#f9f" stroke="#f9f" rx="47.39" ry="18"/><text x="47.45" y="-117.3" font-family="Times,serif" font-size="14" text-anchor="middle">च(11.1)</text></g><g id="edge12" class="edge"><title>Node11_1-&gt;Node12_1</title><path fill="none" stroke="#000" d="M67.34,-146.06C76.05,-155.3 86.92,-165.23 98.45,-172 113.21,-180.67 130.28,-187.33 146.8,-192.39"/><polygon fill="#000" stroke="#000" points="69.86 -143.63 60.56 -138.56 64.66 -148.32 69.86 -143.63"/><text x="155.95" y="-160.8" font-family="Times,serif" font-size="14" text-anchor="middle">सम्बन्धः</text></g><g id="node16" class="node"><title>Node15_1</title><ellipse cx="1730.45" cy="-121" fill="#f9f" stroke="#f9f" rx="47.39" ry="18"/><text x="1730.45" y="-117.3" font-family="Times,serif" font-size="14" text-anchor="middle">च(15.1)</text></g><g id="edge15" class="edge"><title>Node15_1-&gt;Node16_1</title><path fill="none" stroke="#000" d="M1695.23,-140.83C1667.52,-155.64 1629.28,-176.08 1602.66,-190.31"/><polygon fill="#000" stroke="#000" points="1697.02 -143.84 1704.19 -136.04 1693.72 -137.66 1697.02 -143.84"/><text x="1717.95" y="-160.8" font-family="Times,serif" font-size="14" text-anchor="middle">सम्बन्धः</text></g></g></svg>