<?xml version="1.0" encoding="UTF-8" standalone="no"?>
<!DOCTYPE svg PUBLIC "-//W3C//DTD SVG 1.1//EN"
 "http://www.w3.org/Graphics/SVG/1.1/DTD/svg11.dtd">
<!-- Generated by graphviz version 2.43.0 (0)
 -->
<!-- Title: G Pages: 1 -->
<svg width="1946pt" height="479pt"
 viewBox="0.00 0.00 1946.04 479.00" xmlns="http://www.w3.org/2000/svg" xmlns:xlink="http://www.w3.org/1999/xlink">
<g id="graph0" class="graph" transform="scale(1 1) rotate(0) translate(4 475)">
<title>G</title>
<polygon fill="#fffacd" stroke="transparent" points="-4,4 -4,-475 1942.04,-475 1942.04,4 -4,4"/>
<g id="clust1" class="cluster">
<title>cluster_1</title>
<polygon fill="#fffacd" stroke="black" points="1545.04,-166 1545.04,-305 1930.04,-305 1930.04,-166 1545.04,-166"/>
</g>
<g id="clust2" class="cluster">
<title>cluster_2</title>
<polygon fill="#fffacd" stroke="black" points="266.04,-166 266.04,-305 651.04,-305 651.04,-166 266.04,-166"/>
</g>
<g id="clust3" class="cluster">
<title>cluster_3</title>
<polygon fill="#fffacd" stroke="black" points="1023.04,-166 1023.04,-305 1227.04,-305 1227.04,-166 1023.04,-166"/>
</g>
<g id="clust4" class="cluster">
<title>cluster_4</title>
<polygon fill="#fffacd" stroke="black" points="36.04,-253 36.04,-392 258.04,-392 258.04,-253 36.04,-253"/>
</g>
<!-- Node1_1 -->
<g id="node1" class="node">
<title>Node1_1</title>
<ellipse fill="#00bfff" stroke="#00bfff" cx="1834.04" cy="-192" rx="87.99" ry="18"/>
<text text-anchor="middle" x="1834.04" y="-188.3" font-family="Times,serif" font-size="14.00">स्थितः(1.1)</text>
</g>
<!-- Node2_1 -->
<g id="node2" class="node">
<title>Node2_1</title>
<ellipse fill="#00bfff" stroke="#00bfff" cx="1669.04" cy="-279" rx="115.88" ry="18"/>
<text text-anchor="middle" x="1669.04" y="-275.3" font-family="Times,serif" font-size="14.00">ककुत्मान्(2.1)</text>
</g>
<!-- Node1_1&#45;&gt;Node2_1 -->
<g id="edge1" class="edge">
<title>Node1_1&#45;&gt;Node2_1</title>
<path fill="none" stroke="black" d="M1810.47,-216.61C1800.25,-225.83 1787.73,-235.88 1775.04,-243 1760.16,-251.34 1742.99,-258.08 1726.86,-263.34"/>
<polygon fill="black" stroke="black" points="1812.87,-219.15 1817.8,-209.77 1808.1,-214.03 1812.87,-219.15"/>
<text text-anchor="middle" x="1853.54" y="-231.8" font-family="Times,serif" font-size="14.00">विशेषणम्</text>
</g>
<!-- Node13_1 -->
<g id="node10" class="node">
<title>Node13_1</title>
<ellipse fill="#00bfff" stroke="#00bfff" cx="147.04" cy="-366" rx="102.88" ry="18"/>
<text text-anchor="middle" x="147.04" y="-362.3" font-family="Times,serif" font-size="14.00">चन्द्रः(13.1)</text>
</g>
<!-- Node2_1&#45;&gt;Node13_1 -->
<g id="edge2" class="edge">
<title>Node2_1&#45;&gt;Node13_1</title>
<path fill="none" stroke="black" d="M1552.35,-286.67C1464.1,-291.71 1339.96,-298.8 1231.04,-305 1035.49,-316.14 986.61,-319.13 791.04,-330 596.79,-340.8 369.56,-353.06 243.6,-359.83"/>
<polygon fill="black" stroke="black" points="1552.6,-290.16 1562.39,-286.1 1552.2,-283.17 1552.6,-290.16"/>
<text text-anchor="middle" x="1105.04" y="-318.8" font-family="Times,serif" font-size="14.00">उपमानम्</text>
</g>
<!-- Node4_2 -->
<g id="node3" class="node">
<title>Node4_2</title>
<ellipse fill="#00bfff" stroke="#00bfff" cx="1641.04" cy="-192" rx="87.99" ry="18"/>
<text text-anchor="middle" x="1641.04" y="-188.3" font-family="Times,serif" font-size="14.00">शृङ्गः(4.2)</text>
</g>
<!-- Node4_2&#45;&gt;Node2_1 -->
<g id="edge5" class="edge">
<title>Node4_2&#45;&gt;Node2_1</title>
<path fill="none" stroke="black" d="M1649.89,-219.87C1654.31,-233.27 1659.51,-249.08 1663.38,-260.82"/>
<polygon fill="black" stroke="black" points="1653.16,-218.6 1646.71,-210.2 1646.51,-220.79 1653.16,-218.6"/>
<text text-anchor="middle" x="1713.54" y="-231.8" font-family="Times,serif" font-size="14.00">विशेषणम्</text>
</g>
<!-- Node6_1 -->
<g id="node4" class="node">
<title>Node6_1</title>
<ellipse fill="#00bfff" stroke="#00bfff" cx="555.04" cy="-192" rx="87.99" ry="18"/>
<text text-anchor="middle" x="555.04" y="-188.3" font-family="Times,serif" font-size="14.00">श्वेतः(6.1)</text>
</g>
<!-- Node5_2 -->
<g id="node5" class="node">
<title>Node5_2</title>
<ellipse fill="#00bfff" stroke="#00bfff" cx="528.04" cy="-279" rx="69.59" ry="18"/>
<text text-anchor="middle" x="528.04" y="-275.3" font-family="Times,serif" font-size="14.00">अचलः(5.2)</text>
</g>
<!-- Node6_1&#45;&gt;Node5_2 -->
<g id="edge8" class="edge">
<title>Node6_1&#45;&gt;Node5_2</title>
<path fill="none" stroke="black" d="M546.5,-219.87C542.25,-233.27 537.23,-249.08 533.5,-260.82"/>
<polygon fill="black" stroke="black" points="549.88,-220.79 549.58,-210.2 543.21,-218.67 549.88,-220.79"/>
<text text-anchor="middle" x="601.54" y="-231.8" font-family="Times,serif" font-size="14.00">विशेषणम्</text>
</g>
<!-- Node5_2&#45;&gt;Node13_1 -->
<g id="edge7" class="edge">
<title>Node5_2&#45;&gt;Node13_1</title>
<path fill="none" stroke="black" d="M466.89,-293.64C395.69,-309.53 278.81,-335.6 207.79,-351.45"/>
<polygon fill="black" stroke="black" points="468.05,-296.97 477.05,-291.38 466.53,-290.14 468.05,-296.97"/>
<text text-anchor="middle" x="411.04" y="-318.8" font-family="Times,serif" font-size="14.00">उपमानम्</text>
</g>
<!-- Node8_2 -->
<g id="node6" class="node">
<title>Node8_2</title>
<ellipse fill="#00bfff" stroke="#00bfff" cx="362.04" cy="-192" rx="87.99" ry="18"/>
<text text-anchor="middle" x="362.04" y="-188.3" font-family="Times,serif" font-size="14.00">शृङ्गः(8.2)</text>
</g>
<!-- Node8_2&#45;&gt;Node5_2 -->
<g id="edge11" class="edge">
<title>Node8_2&#45;&gt;Node5_2</title>
<path fill="none" stroke="black" d="M385.6,-216.62C395.82,-225.85 408.34,-235.9 421.04,-243 438.87,-252.96 459.97,-260.62 478.7,-266.2"/>
<polygon fill="black" stroke="black" points="387.97,-214.05 378.27,-209.79 383.2,-219.17 387.97,-214.05"/>
<text text-anchor="middle" x="478.54" y="-231.8" font-family="Times,serif" font-size="14.00">विशेषणम्</text>
</g>
<!-- Node11_3 -->
<g id="node7" class="node">
<title>Node11_3</title>
<ellipse fill="#00bfff" stroke="#00bfff" cx="1125.04" cy="-192" rx="93.68" ry="18"/>
<text text-anchor="middle" x="1125.04" y="-188.3" font-family="Times,serif" font-size="14.00">शृङ्गः(11.3)</text>
</g>
<!-- Node9_1 -->
<g id="node8" class="node">
<title>Node9_1</title>
<ellipse fill="#00bfff" stroke="#00bfff" cx="1110.04" cy="-279" rx="78.79" ry="18"/>
<text text-anchor="middle" x="1110.04" y="-275.3" font-family="Times,serif" font-size="14.00">हस्ती(9.1)</text>
</g>
<!-- Node11_3&#45;&gt;Node9_1 -->
<g id="edge16" class="edge">
<title>Node11_3&#45;&gt;Node9_1</title>
<path fill="none" stroke="black" d="M1120.23,-220.27C1117.88,-233.58 1115.12,-249.19 1113.07,-260.82"/>
<polygon fill="black" stroke="black" points="1123.71,-220.66 1122,-210.2 1116.82,-219.44 1123.71,-220.66"/>
<text text-anchor="middle" x="1175.54" y="-231.8" font-family="Times,serif" font-size="14.00">विशेषणम्</text>
</g>
<!-- Node9_1&#45;&gt;Node13_1 -->
<g id="edge12" class="edge">
<title>Node9_1&#45;&gt;Node13_1</title>
<path fill="none" stroke="black" d="M1027.88,-287.25C848.4,-303.09 422.53,-340.68 236.54,-357.1"/>
<polygon fill="black" stroke="black" points="1028.4,-290.72 1038.05,-286.35 1027.78,-283.75 1028.4,-290.72"/>
<text text-anchor="middle" x="737.04" y="-318.8" font-family="Times,serif" font-size="14.00">उपमानम्</text>
</g>
<!-- Node14_2 -->
<g id="node9" class="node">
<title>Node14_2</title>
<ellipse fill="#00bfff" stroke="#00bfff" cx="138.04" cy="-279" rx="93.68" ry="18"/>
<text text-anchor="middle" x="138.04" y="-275.3" font-family="Times,serif" font-size="14.00">शृङ्गः(14.2)</text>
</g>
<!-- Node14_2&#45;&gt;Node13_1 -->
<g id="edge19" class="edge">
<title>Node14_2&#45;&gt;Node13_1</title>
<path fill="none" stroke="black" d="M140.93,-307.27C142.34,-320.58 143.99,-336.19 145.22,-347.82"/>
<polygon fill="black" stroke="black" points="144.39,-306.78 139.86,-297.2 137.43,-307.51 144.39,-306.78"/>
<text text-anchor="middle" x="201.54" y="-318.8" font-family="Times,serif" font-size="14.00">विशेषणम्</text>
</g>
<!-- Node12_1 -->
<g id="node19" class="node">
<title>Node12_1</title>
<ellipse fill="#ff1975" stroke="#ff1975" cx="147.04" cy="-453" rx="93.68" ry="18"/>
<text text-anchor="middle" x="147.04" y="-449.3" font-family="Times,serif" font-size="14.00">विभाति(12.1)</text>
</g>
<!-- Node13_1&#45;&gt;Node12_1 -->
<g id="edge17" class="edge">
<title>Node13_1&#45;&gt;Node12_1</title>
<path fill="none" stroke="black" d="M147.04,-394.27C147.04,-407.58 147.04,-423.19 147.04,-434.82"/>
<polygon fill="black" stroke="black" points="150.54,-394.2 147.04,-384.2 143.54,-394.2 150.54,-394.2"/>
<text text-anchor="middle" x="183.04" y="-405.8" font-family="Times,serif" font-size="14.00">कर्ता</text>
</g>
<!-- Node3_1 -->
<g id="node11" class="node">
<title>Node3_1</title>
<ellipse fill="#ff99ff" stroke="#ff99ff" cx="1468.04" cy="-192" rx="50.89" ry="18"/>
<text text-anchor="middle" x="1468.04" y="-188.3" font-family="Times,serif" font-size="14.00">इव(3.1)</text>
</g>
<!-- Node3_1&#45;&gt;Node2_1 -->
<g id="edge3" class="edge">
<title>Node3_1&#45;&gt;Node2_1</title>
<path fill="none" stroke="black" d="M1463.59,-220.34C1463.74,-228.5 1465.59,-236.88 1471.04,-243 1484.13,-257.69 1524.1,-266.23 1564.73,-271.19"/>
<polygon fill="black" stroke="black" points="1467.09,-220.5 1464.15,-210.32 1460.1,-220.1 1467.09,-220.5"/>
<text text-anchor="middle" x="1560.04" y="-231.8" font-family="Times,serif" font-size="14.00">उपमान_द्योतकः</text>
</g>
<!-- Node4_1 -->
<g id="node12" class="node">
<title>Node4_1</title>
<ellipse fill="#ffff00" stroke="#ffff00" cx="1641.04" cy="-105" rx="100.18" ry="18"/>
<text text-anchor="middle" x="1641.04" y="-101.3" font-family="Times,serif" font-size="14.00">तीक्ष्ण&#45;(4.1)</text>
</g>
<!-- Node4_1&#45;&gt;Node4_2 -->
<g id="edge4" class="edge">
<title>Node4_1&#45;&gt;Node4_2</title>
<path fill="none" stroke="black" d="M1641.04,-133.27C1641.04,-146.58 1641.04,-162.19 1641.04,-173.82"/>
<polygon fill="black" stroke="black" points="1644.54,-133.2 1641.04,-123.2 1637.54,-133.2 1644.54,-133.2"/>
<text text-anchor="middle" x="1712.54" y="-144.8" font-family="Times,serif" font-size="14.00">बहुव्रीहिः</text>
</g>
<!-- Node5_1 -->
<g id="node13" class="node">
<title>Node5_1</title>
<ellipse fill="#ffff00" stroke="#ffff00" cx="724.04" cy="-192" rx="63.09" ry="18"/>
<text text-anchor="middle" x="724.04" y="-188.3" font-family="Times,serif" font-size="14.00">महा&#45;(5.1)</text>
</g>
<!-- Node5_1&#45;&gt;Node5_2 -->
<g id="edge6" class="edge">
<title>Node5_1&#45;&gt;Node5_2</title>
<path fill="none" stroke="black" d="M697.96,-216.27C685.01,-227.42 670.57,-239.17 663.04,-243 638.97,-255.23 610.26,-263.45 585.51,-268.82"/>
<polygon fill="black" stroke="black" points="700.51,-218.69 705.74,-209.48 695.91,-213.41 700.51,-218.69"/>
<text text-anchor="middle" x="748.54" y="-231.8" font-family="Times,serif" font-size="14.00">कर्मधारयः</text>
</g>
<!-- Node7_1 -->
<g id="node14" class="node">
<title>Node7_1</title>
<ellipse fill="#ff99ff" stroke="#ff99ff" cx="856.04" cy="-192" rx="50.89" ry="18"/>
<text text-anchor="middle" x="856.04" y="-188.3" font-family="Times,serif" font-size="14.00">इव(7.1)</text>
</g>
<!-- Node7_1&#45;&gt;Node5_2 -->
<g id="edge9" class="edge">
<title>Node7_1&#45;&gt;Node5_2</title>
<path fill="none" stroke="black" d="M841.27,-218.17C834.49,-227.5 825.58,-237.2 815.04,-243 778.59,-263.04 669.03,-271.8 596.31,-275.49"/>
<polygon fill="black" stroke="black" points="844.21,-220.08 846.9,-209.83 838.4,-216.16 844.21,-220.08"/>
<text text-anchor="middle" x="922.04" y="-231.8" font-family="Times,serif" font-size="14.00">उपमान_द्योतकः</text>
</g>
<!-- Node8_1 -->
<g id="node15" class="node">
<title>Node8_1</title>
<ellipse fill="#ffff00" stroke="#ffff00" cx="362.04" cy="-105" rx="90.98" ry="18"/>
<text text-anchor="middle" x="362.04" y="-101.3" font-family="Times,serif" font-size="14.00">ऊर्ध्व&#45;(8.1)</text>
</g>
<!-- Node8_1&#45;&gt;Node8_2 -->
<g id="edge10" class="edge">
<title>Node8_1&#45;&gt;Node8_2</title>
<path fill="none" stroke="black" d="M362.04,-133.27C362.04,-146.58 362.04,-162.19 362.04,-173.82"/>
<polygon fill="black" stroke="black" points="365.54,-133.2 362.04,-123.2 358.54,-133.2 365.54,-133.2"/>
<text text-anchor="middle" x="433.54" y="-144.8" font-family="Times,serif" font-size="14.00">बहुव्रीहिः</text>
</g>
<!-- Node10_1 -->
<g id="node16" class="node">
<title>Node10_1</title>
<ellipse fill="#ff99ff" stroke="#ff99ff" cx="1293.04" cy="-192" rx="56.59" ry="18"/>
<text text-anchor="middle" x="1293.04" y="-188.3" font-family="Times,serif" font-size="14.00">इव(10.1)</text>
</g>
<!-- Node10_1&#45;&gt;Node9_1 -->
<g id="edge13" class="edge">
<title>Node10_1&#45;&gt;Node9_1</title>
<path fill="none" stroke="black" d="M1271.16,-216.83C1261.49,-226.15 1249.5,-236.21 1237.04,-243 1216.56,-254.16 1192.23,-261.98 1170.38,-267.36"/>
<polygon fill="black" stroke="black" points="1273.8,-219.14 1278.38,-209.59 1268.84,-214.2 1273.8,-219.14"/>
<text text-anchor="middle" x="1346.04" y="-231.8" font-family="Times,serif" font-size="14.00">उपमान_द्योतकः</text>
</g>
<!-- Node11_1 -->
<g id="node17" class="node">
<title>Node11_1</title>
<ellipse fill="#ffff00" stroke="#ffff00" cx="1125.04" cy="-18" rx="115.08" ry="18"/>
<text text-anchor="middle" x="1125.04" y="-14.3" font-family="Times,serif" font-size="14.00">जाम्बूनद&#45;(11.1)</text>
</g>
<!-- Node11_2 -->
<g id="node18" class="node">
<title>Node11_2</title>
<ellipse fill="#ffff00" stroke="#ffff00" cx="1125.04" cy="-105" rx="77.99" ry="18"/>
<text text-anchor="middle" x="1125.04" y="-101.3" font-family="Times,serif" font-size="14.00">बद्ध&#45;(11.2)</text>
</g>
<!-- Node11_1&#45;&gt;Node11_2 -->
<g id="edge14" class="edge">
<title>Node11_1&#45;&gt;Node11_2</title>
<path fill="none" stroke="black" d="M1125.04,-46.27C1125.04,-59.58 1125.04,-75.19 1125.04,-86.82"/>
<polygon fill="black" stroke="black" points="1128.54,-46.2 1125.04,-36.2 1121.54,-46.2 1128.54,-46.2"/>
<text text-anchor="middle" x="1235.54" y="-57.8" font-family="Times,serif" font-size="14.00">तृतीया_तत्पुरुषः</text>
</g>
<!-- Node11_2&#45;&gt;Node11_3 -->
<g id="edge15" class="edge">
<title>Node11_2&#45;&gt;Node11_3</title>
<path fill="none" stroke="black" d="M1125.04,-133.27C1125.04,-146.58 1125.04,-162.19 1125.04,-173.82"/>
<polygon fill="black" stroke="black" points="1128.54,-133.2 1125.04,-123.2 1121.54,-133.2 1128.54,-133.2"/>
<text text-anchor="middle" x="1196.54" y="-144.8" font-family="Times,serif" font-size="14.00">बहुव्रीहिः</text>
</g>
<!-- Node14_1 -->
<g id="node20" class="node">
<title>Node14_1</title>
<ellipse fill="#ffff00" stroke="#ffff00" cx="115.04" cy="-192" rx="115.08" ry="18"/>
<text text-anchor="middle" x="115.04" y="-188.3" font-family="Times,serif" font-size="14.00">परिपूर्ण&#45;(14.1)</text>
</g>
<!-- Node14_1&#45;&gt;Node14_2 -->
<g id="edge18" class="edge">
<title>Node14_1&#45;&gt;Node14_2</title>
<path fill="none" stroke="black" d="M115.18,-220.46C115.77,-227.89 116.92,-235.85 119.04,-243 120.85,-249.1 123.81,-255.33 126.87,-260.82"/>
<polygon fill="black" stroke="black" points="118.67,-220.26 114.67,-210.45 111.68,-220.61 118.67,-220.26"/>
<text text-anchor="middle" x="190.54" y="-231.8" font-family="Times,serif" font-size="14.00">बहुव्रीहिः</text>
</g>
</g>
</svg>
