<?xml version="1.0" encoding="UTF-8" standalone="no"?>
<!DOCTYPE svg PUBLIC "-//W3C//DTD SVG 1.1//EN"
 "http://www.w3.org/Graphics/SVG/1.1/DTD/svg11.dtd">
<!-- Generated by graphviz version 2.43.0 (0)
 -->
<!-- Title: G Pages: 1 -->
<svg width="1762pt" height="392pt"
 viewBox="0.00 0.00 1762.00 392.00" xmlns="http://www.w3.org/2000/svg" xmlns:xlink="http://www.w3.org/1999/xlink">
<g id="graph0" class="graph" transform="scale(1 1) rotate(0) translate(4 388)">
<title>G</title>
<polygon fill="#fffacd" stroke="transparent" points="-4,4 -4,-388 1758,-388 1758,4 -4,4"/>
<g id="clust1" class="cluster">
<title>cluster_1</title>
<polygon fill="#fffacd" stroke="black" points="8,-166 8,-305 212,-305 212,-166 8,-166"/>
</g>
<g id="clust2" class="cluster">
<title>cluster_2</title>
<polygon fill="#fffacd" stroke="black" points="220,-166 220,-305 922,-305 922,-166 220,-166"/>
</g>
<g id="clust3" class="cluster">
<title>cluster_3</title>
<polygon fill="#fffacd" stroke="black" points="1109,-79 1109,-218 1574,-218 1574,-79 1109,-79"/>
</g>
<!-- Node2_1 -->
<g id="node1" class="node">
<title>Node2_1</title>
<ellipse fill="#00bfff" stroke="#00bfff" cx="89" cy="-192" rx="50.89" ry="18"/>
<text text-anchor="middle" x="89" y="-188.3" font-family="Times,serif" font-size="14.00">सः(2.1)</text>
</g>
<!-- Node10_1 -->
<g id="node2" class="node">
<title>Node10_1</title>
<ellipse fill="#00bfff" stroke="#00bfff" cx="110" cy="-279" rx="93.68" ry="18"/>
<text text-anchor="middle" x="110" y="-275.3" font-family="Times,serif" font-size="14.00">धीमान्(10.1)</text>
</g>
<!-- Node2_1&#45;&gt;Node10_1 -->
<g id="edge2" class="edge">
<title>Node2_1&#45;&gt;Node10_1</title>
<path fill="none" stroke="black" d="M95.42,-220.1C97.2,-227.53 99.16,-235.58 101,-243 102.45,-248.85 104.08,-255.23 105.55,-260.92"/>
<polygon fill="black" stroke="black" points="98.77,-219.05 93.04,-210.14 91.96,-220.68 98.77,-219.05"/>
<text text-anchor="middle" x="158.5" y="-231.8" font-family="Times,serif" font-size="14.00">विशेषणम्</text>
</g>
<!-- Node9_1 -->
<g id="node11" class="node">
<title>Node9_1</title>
<ellipse fill="#ff1975" stroke="#ff1975" cx="682" cy="-366" rx="78.79" ry="18"/>
<text text-anchor="middle" x="682" y="-362.3" font-family="Times,serif" font-size="14.00">ददर्श(9.1)</text>
</g>
<!-- Node10_1&#45;&gt;Node9_1 -->
<g id="edge10" class="edge">
<title>Node10_1&#45;&gt;Node9_1</title>
<path fill="none" stroke="black" d="M173.66,-296.14C187.56,-299.35 202.23,-302.5 216,-305 355.04,-330.28 519.32,-348.82 610.99,-358.17"/>
<polygon fill="black" stroke="black" points="174.23,-292.68 163.7,-293.8 172.63,-299.5 174.23,-292.68"/>
<text text-anchor="middle" x="406" y="-318.8" font-family="Times,serif" font-size="14.00">कर्ता</text>
</g>
<!-- Node4_1 -->
<g id="node3" class="node">
<title>Node4_1</title>
<ellipse fill="#93db70" stroke="#93db70" cx="577" cy="-192" rx="69.59" ry="18"/>
<text text-anchor="middle" x="577" y="-188.3" font-family="Times,serif" font-size="14.00">गतम्(4.1)</text>
</g>
<!-- Node5_1 -->
<g id="node4" class="node">
<title>Node5_1</title>
<ellipse fill="#93db70" stroke="#93db70" cx="682" cy="-279" rx="124.58" ry="18"/>
<text text-anchor="middle" x="682" y="-275.3" font-family="Times,serif" font-size="14.00">अंशुमन्तम्(5.1)</text>
</g>
<!-- Node4_1&#45;&gt;Node5_1 -->
<g id="edge4" class="edge">
<title>Node4_1&#45;&gt;Node5_1</title>
<path fill="none" stroke="black" d="M602.26,-216.61C611.71,-225.16 622.66,-234.73 633,-243 640.76,-249.2 649.5,-255.62 657.44,-261.24"/>
<polygon fill="black" stroke="black" points="604.47,-213.88 594.73,-209.72 599.75,-219.05 604.47,-213.88"/>
<text text-anchor="middle" x="690.5" y="-231.8" font-family="Times,serif" font-size="14.00">विशेषणम्</text>
</g>
<!-- Node5_1&#45;&gt;Node9_1 -->
<g id="edge5" class="edge">
<title>Node5_1&#45;&gt;Node9_1</title>
<path fill="none" stroke="black" d="M682,-307.27C682,-320.58 682,-336.19 682,-347.82"/>
<polygon fill="black" stroke="black" points="685.5,-307.2 682,-297.2 678.5,-307.2 685.5,-307.2"/>
<text text-anchor="middle" x="711" y="-318.8" font-family="Times,serif" font-size="14.00">कर्म</text>
</g>
<!-- Node8_1 -->
<g id="node5" class="node">
<title>Node8_1</title>
<ellipse fill="#93db70" stroke="#93db70" cx="789" cy="-192" rx="124.58" ry="18"/>
<text text-anchor="middle" x="789" y="-188.3" font-family="Times,serif" font-size="14.00">उद्वमन्तम्(8.1)</text>
</g>
<!-- Node8_1&#45;&gt;Node5_1 -->
<g id="edge9" class="edge">
<title>Node8_1&#45;&gt;Node5_1</title>
<path fill="none" stroke="black" d="M771.36,-218.41C764.68,-226.89 756.6,-235.96 748,-243 739.27,-250.15 728.85,-256.48 718.9,-261.72"/>
<polygon fill="black" stroke="black" points="774.3,-220.31 777.53,-210.22 768.72,-216.1 774.3,-220.31"/>
<text text-anchor="middle" x="820.5" y="-231.8" font-family="Times,serif" font-size="14.00">विशेषणम्</text>
</g>
<!-- Node12_1 -->
<g id="node6" class="node">
<title>Node12_1</title>
<ellipse fill="#93db70" stroke="#93db70" cx="359" cy="-192" rx="130.78" ry="18"/>
<text text-anchor="middle" x="359" y="-188.3" font-family="Times,serif" font-size="14.00">भानुमन्तम्(12.1)</text>
</g>
<!-- Node12_1&#45;&gt;Node5_1 -->
<g id="edge12" class="edge">
<title>Node12_1&#45;&gt;Node5_1</title>
<path fill="none" stroke="black" d="M407.6,-212.94C433.51,-223.01 466.12,-234.8 496,-243 529.43,-252.18 566.89,-259.74 599.39,-265.45"/>
<polygon fill="black" stroke="black" points="408.6,-209.58 398.01,-209.18 406.04,-216.09 408.6,-209.58"/>
<text text-anchor="middle" x="553.5" y="-231.8" font-family="Times,serif" font-size="14.00">विशेषणम्</text>
</g>
<!-- Node15_1 -->
<g id="node7" class="node">
<title>Node15_1</title>
<ellipse fill="#93db70" stroke="#93db70" cx="1472" cy="-105" rx="93.68" ry="18"/>
<text text-anchor="middle" x="1472" y="-101.3" font-family="Times,serif" font-size="14.00">मत्तम्(15.1)</text>
</g>
<!-- Node14_1 -->
<g id="node8" class="node">
<title>Node14_1</title>
<ellipse fill="#93db70" stroke="#93db70" cx="1363" cy="-192" rx="84.49" ry="18"/>
<text text-anchor="middle" x="1363" y="-188.3" font-family="Times,serif" font-size="14.00">वृषम्(14.1)</text>
</g>
<!-- Node15_1&#45;&gt;Node14_1 -->
<g id="edge15" class="edge">
<title>Node15_1&#45;&gt;Node14_1</title>
<path fill="none" stroke="black" d="M1442.64,-128.89C1424.21,-143.27 1400.86,-161.47 1384.22,-174.45"/>
<polygon fill="black" stroke="black" points="1444.99,-131.5 1450.72,-122.59 1440.69,-125.98 1444.99,-131.5"/>
<text text-anchor="middle" x="1481.5" y="-144.8" font-family="Times,serif" font-size="14.00">विशेषणम्</text>
</g>
<!-- Node14_1&#45;&gt;Node5_1 -->
<g id="edge14" class="edge">
<title>Node14_1&#45;&gt;Node5_1</title>
<path fill="none" stroke="black" d="M1281.93,-203.12C1154.13,-219.07 906.64,-249.96 772.95,-266.65"/>
<polygon fill="black" stroke="black" points="1282.56,-206.57 1292.05,-201.86 1281.69,-199.62 1282.56,-206.57"/>
<text text-anchor="middle" x="1113" y="-231.8" font-family="Times,serif" font-size="14.00">उपमानम्</text>
</g>
<!-- Node17_1 -->
<g id="node9" class="node">
<title>Node17_1</title>
<ellipse fill="#93db70" stroke="#93db70" cx="1239" cy="-105" rx="121.58" ry="18"/>
<text text-anchor="middle" x="1239" y="-101.3" font-family="Times,serif" font-size="14.00">भ्रमन्तम्(17.1)</text>
</g>
<!-- Node17_1&#45;&gt;Node14_1 -->
<g id="edge17" class="edge">
<title>Node17_1&#45;&gt;Node14_1</title>
<path fill="none" stroke="black" d="M1261.41,-130.55C1270.12,-139.25 1280.51,-148.68 1291,-156 1301.71,-163.48 1314.27,-170.18 1325.87,-175.67"/>
<polygon fill="black" stroke="black" points="1263.72,-127.9 1254.24,-123.17 1258.7,-132.78 1263.72,-127.9"/>
<text text-anchor="middle" x="1348.5" y="-144.8" font-family="Times,serif" font-size="14.00">विशेषणम्</text>
</g>
<!-- Node1_1 -->
<g id="node10" class="node">
<title>Node1_1</title>
<ellipse fill="#ff99ff" stroke="#ff99ff" cx="990" cy="-279" rx="59.59" ry="18"/>
<text text-anchor="middle" x="990" y="-275.3" font-family="Times,serif" font-size="14.00">ततः(1.1)</text>
</g>
<!-- Node1_1&#45;&gt;Node9_1 -->
<g id="edge1" class="edge">
<title>Node1_1&#45;&gt;Node9_1</title>
<path fill="none" stroke="black" d="M947.07,-297.66C940.08,-300.28 932.88,-302.82 926,-305 862.58,-325.09 788.13,-342.54 738.3,-353.36"/>
<polygon fill="black" stroke="black" points="948.33,-300.92 956.42,-294.07 945.83,-294.39 948.33,-300.92"/>
<text text-anchor="middle" x="943.5" y="-318.8" font-family="Times,serif" font-size="14.00">सम्बन्धः</text>
</g>
<!-- Node3_1 -->
<g id="node12" class="node">
<title>Node3_1</title>
<ellipse fill="#93db70" stroke="#93db70" cx="393" cy="-105" rx="87.99" ry="18"/>
<text text-anchor="middle" x="393" y="-101.3" font-family="Times,serif" font-size="14.00">मध्यम्(3.1)</text>
</g>
<!-- Node3_1&#45;&gt;Node4_1 -->
<g id="edge3" class="edge">
<title>Node3_1&#45;&gt;Node4_1</title>
<path fill="none" stroke="black" d="M436.62,-126.15C469.74,-141.45 514.55,-162.15 544.55,-176.01"/>
<polygon fill="black" stroke="black" points="437.72,-122.81 427.18,-121.79 434.79,-129.16 437.72,-122.81"/>
<text text-anchor="middle" x="525" y="-144.8" font-family="Times,serif" font-size="14.00">कर्म</text>
</g>
<!-- Node6_1 -->
<g id="node13" class="node">
<title>Node6_1</title>
<ellipse fill="#ffff00" stroke="#ffff00" cx="596" cy="-18" rx="128.08" ry="18"/>
<text text-anchor="middle" x="596" y="-14.3" font-family="Times,serif" font-size="14.00">ज्योत्स्ना&#45;(6.1)</text>
</g>
<!-- Node6_2 -->
<g id="node14" class="node">
<title>Node6_2</title>
<ellipse fill="#93db70" stroke="#93db70" cx="596" cy="-105" rx="96.68" ry="18"/>
<text text-anchor="middle" x="596" y="-101.3" font-family="Times,serif" font-size="14.00">वितानम्(6.2)</text>
</g>
<!-- Node6_1&#45;&gt;Node6_2 -->
<g id="edge6" class="edge">
<title>Node6_1&#45;&gt;Node6_2</title>
<path fill="none" stroke="black" d="M596,-46.27C596,-59.58 596,-75.19 596,-86.82"/>
<polygon fill="black" stroke="black" points="599.5,-46.2 596,-36.2 592.5,-46.2 599.5,-46.2"/>
<text text-anchor="middle" x="699.5" y="-57.8" font-family="Times,serif" font-size="14.00">षष्ठी_तत्पुरुषः</text>
</g>
<!-- Node6_2&#45;&gt;Node8_1 -->
<g id="edge7" class="edge">
<title>Node6_2&#45;&gt;Node8_1</title>
<path fill="none" stroke="black" d="M641.03,-125.83C674.78,-140.7 720.4,-160.79 752.03,-174.72"/>
<polygon fill="black" stroke="black" points="642.41,-122.62 631.85,-121.79 639.59,-129.02 642.41,-122.62"/>
<text text-anchor="middle" x="733" y="-144.8" font-family="Times,serif" font-size="14.00">कर्म</text>
</g>
<!-- Node7_1 -->
<g id="node15" class="node">
<title>Node7_1</title>
<ellipse fill="#ff99ff" stroke="#ff99ff" cx="789" cy="-105" rx="78.79" ry="18"/>
<text text-anchor="middle" x="789" y="-101.3" font-family="Times,serif" font-size="14.00">मुहुः(7.1)</text>
</g>
<!-- Node7_1&#45;&gt;Node8_1 -->
<g id="edge8" class="edge">
<title>Node7_1&#45;&gt;Node8_1</title>
<path fill="none" stroke="black" d="M789,-133.27C789,-146.58 789,-162.19 789,-173.82"/>
<polygon fill="black" stroke="black" points="792.5,-133.2 789,-123.2 785.5,-133.2 792.5,-133.2"/>
<text text-anchor="middle" x="846.5" y="-144.8" font-family="Times,serif" font-size="14.00">सम्बन्धः</text>
</g>
<!-- Node11_1 -->
<g id="node16" class="node">
<title>Node11_1</title>
<ellipse fill="#c6e2eb" stroke="#c6e2eb" cx="961" cy="-105" rx="75.29" ry="18"/>
<text text-anchor="middle" x="961" y="-101.3" font-family="Times,serif" font-size="14.00">भुवि(11.1)</text>
</g>
<!-- Node11_1&#45;&gt;Node8_1 -->
<g id="edge11" class="edge">
<title>Node11_1&#45;&gt;Node8_1</title>
<path fill="none" stroke="black" d="M939.78,-130.44C930.77,-139.56 919.66,-149.31 908,-156 892.5,-164.9 874.54,-171.71 857.35,-176.84"/>
<polygon fill="black" stroke="black" points="942.48,-132.68 946.82,-123.01 937.4,-127.86 942.48,-132.68"/>
<text text-anchor="middle" x="1005.5" y="-144.8" font-family="Times,serif" font-size="14.00">देशाधिकरणम्</text>
</g>
<!-- Node13_1 -->
<g id="node17" class="node">
<title>Node13_1</title>
<ellipse fill="#c6e2eb" stroke="#c6e2eb" cx="1239" cy="-18" rx="93.68" ry="18"/>
<text text-anchor="middle" x="1239" y="-14.3" font-family="Times,serif" font-size="14.00">गोष्ठे(13.1)</text>
</g>
<!-- Node13_1&#45;&gt;Node17_1 -->
<g id="edge13" class="edge">
<title>Node13_1&#45;&gt;Node17_1</title>
<path fill="none" stroke="black" d="M1239,-46.27C1239,-59.58 1239,-75.19 1239,-86.82"/>
<polygon fill="black" stroke="black" points="1242.5,-46.2 1239,-36.2 1235.5,-46.2 1242.5,-46.2"/>
<text text-anchor="middle" x="1317.5" y="-57.8" font-family="Times,serif" font-size="14.00">देशाधिकरणम्</text>
</g>
<!-- Node16_1 -->
<g id="node18" class="node">
<title>Node16_1</title>
<ellipse fill="#ff99ff" stroke="#ff99ff" cx="1640" cy="-105" rx="56.59" ry="18"/>
<text text-anchor="middle" x="1640" y="-101.3" font-family="Times,serif" font-size="14.00">इव(16.1)</text>
</g>
<!-- Node16_1&#45;&gt;Node14_1 -->
<g id="edge16" class="edge">
<title>Node16_1&#45;&gt;Node14_1</title>
<path fill="none" stroke="black" d="M1606.32,-126.37C1588.13,-136.59 1564.95,-148.38 1543,-156 1507.81,-168.21 1467.19,-176.57 1433.45,-182.05"/>
<polygon fill="black" stroke="black" points="1608.41,-129.21 1615.35,-121.2 1604.93,-123.13 1608.41,-129.21"/>
<text text-anchor="middle" x="1665" y="-144.8" font-family="Times,serif" font-size="14.00">उपमान_द्योतकः</text>
</g>
</g>
</svg>
