<?xml version="1.0" encoding="UTF-8" standalone="no"?>
<!DOCTYPE svg PUBLIC "-//W3C//DTD SVG 1.1//EN"
 "http://www.w3.org/Graphics/SVG/1.1/DTD/svg11.dtd">
<!-- Generated by graphviz version 2.43.0 (0)
 -->
<!-- Title: G Pages: 1 -->
<svg width="1821pt" height="305pt"
 viewBox="0.00 0.00 1821.00 305.00" xmlns="http://www.w3.org/2000/svg" xmlns:xlink="http://www.w3.org/1999/xlink">
<g id="graph0" class="graph" transform="scale(1 1) rotate(0) translate(4 301)">
<title>G</title>
<polygon fill="#fffacd" stroke="transparent" points="-4,4 -4,-301 1817,-301 1817,4 -4,4"/>
<g id="clust1" class="cluster">
<title>cluster_1</title>
<polygon fill="#fffacd" stroke="black" points="226,-79 226,-218 1794,-218 1794,-79 226,-79"/>
</g>
<g id="clust2" class="cluster">
<title>cluster_2</title>
<polygon fill="#fffacd" stroke="black" points="8,-79 8,-218 218,-218 218,-79 8,-79"/>
</g>
<!-- Node1_2 -->
<g id="node1" class="node">
<title>Node1_2</title>
<ellipse fill="#93db70" stroke="#93db70" cx="350" cy="-105" rx="115.88" ry="18"/>
<text text-anchor="middle" x="350" y="-101.3" font-family="Times,serif" font-size="14.00">प्रधानान्(1.2)</text>
</g>
<!-- Node11_1 -->
<g id="node2" class="node">
<title>Node11_1</title>
<ellipse fill="#93db70" stroke="#93db70" cx="848" cy="-192" rx="130.78" ry="18"/>
<text text-anchor="middle" x="848" y="-188.3" font-family="Times,serif" font-size="14.00">यातुधानान्(11.1)</text>
</g>
<!-- Node1_2&#45;&gt;Node11_1 -->
<g id="edge2" class="edge">
<title>Node1_2&#45;&gt;Node11_1</title>
<path fill="none" stroke="black" d="M417.76,-123.12C461.32,-133.68 519.24,-146.9 571,-156 628.88,-166.18 694.08,-174.57 746.67,-180.58"/>
<polygon fill="black" stroke="black" points="418.4,-119.67 407.85,-120.7 416.74,-126.47 418.4,-119.67"/>
<text text-anchor="middle" x="628.5" y="-144.8" font-family="Times,serif" font-size="14.00">विशेषणम्</text>
</g>
<!-- Node8_1 -->
<g id="node15" class="node">
<title>Node8_1</title>
<ellipse fill="#ff1975" stroke="#ff1975" cx="550" cy="-279" rx="78.79" ry="18"/>
<text text-anchor="middle" x="550" y="-275.3" font-family="Times,serif" font-size="14.00">ददर्श(8.1)</text>
</g>
<!-- Node11_1&#45;&gt;Node8_1 -->
<g id="edge14" class="edge">
<title>Node11_1&#45;&gt;Node8_1</title>
<path fill="none" stroke="black" d="M784.2,-211.2C728.08,-227.2 647.68,-250.14 597.18,-264.54"/>
<polygon fill="black" stroke="black" points="785.38,-214.5 794.03,-208.39 783.46,-207.77 785.38,-214.5"/>
<text text-anchor="middle" x="746" y="-231.8" font-family="Times,serif" font-size="14.00">कर्म</text>
</g>
<!-- Node2_2 -->
<g id="node3" class="node">
<title>Node2_2</title>
<ellipse fill="#93db70" stroke="#93db70" cx="599" cy="-105" rx="115.88" ry="18"/>
<text text-anchor="middle" x="599" y="-101.3" font-family="Times,serif" font-size="14.00">अभिधानान्(2.2)</text>
</g>
<!-- Node2_2&#45;&gt;Node11_1 -->
<g id="edge4" class="edge">
<title>Node2_2&#45;&gt;Node11_1</title>
<path fill="none" stroke="black" d="M647.59,-125.76C671.87,-135.36 701.81,-146.79 729,-156 749.5,-162.94 772.24,-169.83 792.31,-175.63"/>
<polygon fill="black" stroke="black" points="648.82,-122.49 638.24,-122.05 646.24,-128.99 648.82,-122.49"/>
<text text-anchor="middle" x="786.5" y="-144.8" font-family="Times,serif" font-size="14.00">विशेषणम्</text>
</g>
<!-- Node3_1 -->
<g id="node4" class="node">
<title>Node3_1</title>
<ellipse fill="#93db70" stroke="#93db70" cx="1144" cy="-105" rx="161.67" ry="18"/>
<text text-anchor="middle" x="1144" y="-101.3" font-family="Times,serif" font-size="14.00">संश्रद्दधानान्(3.1)</text>
</g>
<!-- Node3_1&#45;&gt;Node11_1 -->
<g id="edge5" class="edge">
<title>Node3_1&#45;&gt;Node11_1</title>
<path fill="none" stroke="black" d="M1078.67,-124.76C1025.6,-140 951.66,-161.23 901.93,-175.51"/>
<polygon fill="black" stroke="black" points="1079.68,-128.11 1088.32,-121.99 1077.75,-121.38 1079.68,-128.11"/>
<text text-anchor="middle" x="1071.5" y="-144.8" font-family="Times,serif" font-size="14.00">विशेषणम्</text>
</g>
<!-- Node5_1 -->
<g id="node5" class="node">
<title>Node5_1</title>
<ellipse fill="#93db70" stroke="#93db70" cx="848" cy="-105" rx="115.88" ry="18"/>
<text text-anchor="middle" x="848" y="-101.3" font-family="Times,serif" font-size="14.00">प्रधानान्(5.1)</text>
</g>
<!-- Node5_1&#45;&gt;Node11_1 -->
<g id="edge7" class="edge">
<title>Node5_1&#45;&gt;Node11_1</title>
<path fill="none" stroke="black" d="M848,-133.27C848,-146.58 848,-162.19 848,-173.82"/>
<polygon fill="black" stroke="black" points="851.5,-133.2 848,-123.2 844.5,-133.2 851.5,-133.2"/>
<text text-anchor="middle" x="905.5" y="-144.8" font-family="Times,serif" font-size="14.00">विशेषणम्</text>
</g>
<!-- Node6_2 -->
<g id="node6" class="node">
<title>Node6_2</title>
<ellipse fill="#93db70" stroke="#93db70" cx="1430" cy="-105" rx="106.68" ry="18"/>
<text text-anchor="middle" x="1430" y="-101.3" font-family="Times,serif" font-size="14.00">विधानान्(6.2)</text>
</g>
<!-- Node6_2&#45;&gt;Node11_1 -->
<g id="edge9" class="edge">
<title>Node6_2&#45;&gt;Node11_1</title>
<path fill="none" stroke="black" d="M1350.11,-120.44C1290.41,-130.99 1206.74,-145.27 1133,-156 1070.97,-165.03 1001.11,-173.63 946.08,-180.05"/>
<polygon fill="black" stroke="black" points="1350.99,-123.84 1360.23,-118.65 1349.77,-116.95 1350.99,-123.84"/>
<text text-anchor="middle" x="1279.5" y="-144.8" font-family="Times,serif" font-size="14.00">विशेषणम्</text>
</g>
<!-- Node7_2 -->
<g id="node7" class="node">
<title>Node7_2</title>
<ellipse fill="#93db70" stroke="#93db70" cx="1670" cy="-105" rx="115.88" ry="18"/>
<text text-anchor="middle" x="1670" y="-101.3" font-family="Times,serif" font-size="14.00">अभिधानान्(7.2)</text>
</g>
<!-- Node7_2&#45;&gt;Node11_1 -->
<g id="edge11" class="edge">
<title>Node7_2&#45;&gt;Node11_1</title>
<path fill="none" stroke="black" d="M1586.41,-120.59C1520.06,-131.72 1424.84,-146.67 1341,-156 1214.36,-170.1 1068.75,-179.62 968.8,-185.12"/>
<polygon fill="black" stroke="black" points="1587.12,-124.02 1596.4,-118.91 1585.95,-117.12 1587.12,-124.02"/>
<text text-anchor="middle" x="1506.5" y="-144.8" font-family="Times,serif" font-size="14.00">विशेषणम्</text>
</g>
<!-- Node9_1 -->
<g id="node8" class="node">
<title>Node9_1</title>
<ellipse fill="#c6e2eb" stroke="#c6e2eb" cx="113" cy="-105" rx="96.68" ry="18"/>
<text text-anchor="middle" x="113" y="-101.3" font-family="Times,serif" font-size="14.00">तस्याम्(9.1)</text>
</g>
<!-- Node10_1 -->
<g id="node9" class="node">
<title>Node10_1</title>
<ellipse fill="#c6e2eb" stroke="#c6e2eb" cx="115" cy="-192" rx="75.29" ry="18"/>
<text text-anchor="middle" x="115" y="-188.3" font-family="Times,serif" font-size="14.00">पुरि(10.1)</text>
</g>
<!-- Node9_1&#45;&gt;Node10_1 -->
<g id="edge12" class="edge">
<title>Node9_1&#45;&gt;Node10_1</title>
<path fill="none" stroke="black" d="M107.45,-133.07C106.55,-140.5 106.16,-148.56 107,-156 107.66,-161.82 108.91,-168.09 110.23,-173.69"/>
<polygon fill="black" stroke="black" points="110.92,-133.53 108.97,-123.12 104,-132.47 110.92,-133.53"/>
<text text-anchor="middle" x="164.5" y="-144.8" font-family="Times,serif" font-size="14.00">विशेषणम्</text>
</g>
<!-- Node10_1&#45;&gt;Node8_1 -->
<g id="edge13" class="edge">
<title>Node10_1&#45;&gt;Node8_1</title>
<path fill="none" stroke="black" d="M175.55,-207.69C190.69,-211.21 206.91,-214.86 222,-218 314.52,-237.26 422.42,-256.35 488.47,-267.66"/>
<polygon fill="black" stroke="black" points="176.31,-204.27 165.78,-205.4 174.71,-211.09 176.31,-204.27"/>
<text text-anchor="middle" x="426.5" y="-231.8" font-family="Times,serif" font-size="14.00">देशाधिकरणम्</text>
</g>
<!-- Node1_1 -->
<g id="node10" class="node">
<title>Node1_1</title>
<ellipse fill="#ffff00" stroke="#ffff00" cx="350" cy="-18" rx="90.98" ry="18"/>
<text text-anchor="middle" x="350" y="-14.3" font-family="Times,serif" font-size="14.00">बुद्धि&#45;(1.1)</text>
</g>
<!-- Node1_1&#45;&gt;Node1_2 -->
<g id="edge1" class="edge">
<title>Node1_1&#45;&gt;Node1_2</title>
<path fill="none" stroke="black" d="M350,-46.27C350,-59.58 350,-75.19 350,-86.82"/>
<polygon fill="black" stroke="black" points="353.5,-46.2 350,-36.2 346.5,-46.2 353.5,-46.2"/>
<text text-anchor="middle" x="421.5" y="-57.8" font-family="Times,serif" font-size="14.00">बहुव्रीहिः</text>
</g>
<!-- Node2_1 -->
<g id="node11" class="node">
<title>Node2_1</title>
<ellipse fill="#ffff00" stroke="#ffff00" cx="599" cy="-18" rx="81.49" ry="18"/>
<text text-anchor="middle" x="599" y="-14.3" font-family="Times,serif" font-size="14.00">रुचिर&#45;(2.1)</text>
</g>
<!-- Node2_1&#45;&gt;Node2_2 -->
<g id="edge3" class="edge">
<title>Node2_1&#45;&gt;Node2_2</title>
<path fill="none" stroke="black" d="M599,-46.27C599,-59.58 599,-75.19 599,-86.82"/>
<polygon fill="black" stroke="black" points="602.5,-46.2 599,-36.2 595.5,-46.2 602.5,-46.2"/>
<text text-anchor="middle" x="695.5" y="-57.8" font-family="Times,serif" font-size="14.00">उपपद_तत्पुरुषः</text>
</g>
<!-- Node4_1 -->
<g id="node12" class="node">
<title>Node4_1</title>
<ellipse fill="#87ceeb" stroke="#87ceeb" cx="848" cy="-18" rx="69.59" ry="18"/>
<text text-anchor="middle" x="848" y="-14.3" font-family="Times,serif" font-size="14.00">जगतः(4.1)</text>
</g>
<!-- Node4_1&#45;&gt;Node5_1 -->
<g id="edge6" class="edge">
<title>Node4_1&#45;&gt;Node5_1</title>
<path fill="none" stroke="black" d="M848,-46.27C848,-59.58 848,-75.19 848,-86.82"/>
<polygon fill="black" stroke="black" points="851.5,-46.2 848,-36.2 844.5,-46.2 851.5,-46.2"/>
<text text-anchor="middle" x="941" y="-57.8" font-family="Times,serif" font-size="14.00">षष्ठीसम्बन्धः</text>
</g>
<!-- Node6_1 -->
<g id="node13" class="node">
<title>Node6_1</title>
<ellipse fill="#ffff00" stroke="#ffff00" cx="1430" cy="-18" rx="72.29" ry="18"/>
<text text-anchor="middle" x="1430" y="-14.3" font-family="Times,serif" font-size="14.00">नाना&#45;(6.1)</text>
</g>
<!-- Node6_1&#45;&gt;Node6_2 -->
<g id="edge8" class="edge">
<title>Node6_1&#45;&gt;Node6_2</title>
<path fill="none" stroke="black" d="M1430,-46.27C1430,-59.58 1430,-75.19 1430,-86.82"/>
<polygon fill="black" stroke="black" points="1433.5,-46.2 1430,-36.2 1426.5,-46.2 1433.5,-46.2"/>
<text text-anchor="middle" x="1501.5" y="-57.8" font-family="Times,serif" font-size="14.00">बहुव्रीहिः</text>
</g>
<!-- Node7_1 -->
<g id="node14" class="node">
<title>Node7_1</title>
<ellipse fill="#ffff00" stroke="#ffff00" cx="1670" cy="-18" rx="81.49" ry="18"/>
<text text-anchor="middle" x="1670" y="-14.3" font-family="Times,serif" font-size="14.00">रुचिर&#45;(7.1)</text>
</g>
<!-- Node7_1&#45;&gt;Node7_2 -->
<g id="edge10" class="edge">
<title>Node7_1&#45;&gt;Node7_2</title>
<path fill="none" stroke="black" d="M1670,-46.27C1670,-59.58 1670,-75.19 1670,-86.82"/>
<polygon fill="black" stroke="black" points="1673.5,-46.2 1670,-36.2 1666.5,-46.2 1673.5,-46.2"/>
<text text-anchor="middle" x="1741.5" y="-57.8" font-family="Times,serif" font-size="14.00">बहुव्रीहिः</text>
</g>
</g>
</svg>
