<?xml version="1.0" encoding="UTF-8" standalone="no"?>
<!DOCTYPE svg PUBLIC "-//W3C//DTD SVG 1.1//EN"
 "http://www.w3.org/Graphics/SVG/1.1/DTD/svg11.dtd">
<!-- Generated by graphviz version 2.43.0 (0)
 -->
<!-- Title: G Pages: 1 -->
<svg width="1129pt" height="566pt"
 viewBox="0.00 0.00 1129.00 566.00" xmlns="http://www.w3.org/2000/svg" xmlns:xlink="http://www.w3.org/1999/xlink">
<g id="graph0" class="graph" transform="scale(1 1) rotate(0) translate(4 562)">
<title>G</title>
<polygon fill="#fffacd" stroke="transparent" points="-4,4 -4,-562 1125,-562 1125,4 -4,4"/>
<g id="clust1" class="cluster">
<title>cluster_1</title>
<polygon fill="#fffacd" stroke="black" points="8,-340 8,-479 937,-479 937,-340 8,-340"/>
</g>
<!-- Node1_5 -->
<g id="node1" class="node">
<title>Node1_5</title>
<ellipse fill="#00bfff" stroke="#00bfff" cx="500" cy="-366" rx="78.79" ry="18"/>
<text text-anchor="middle" x="500" y="-362.3" font-family="Times,serif" font-size="14.00">पङ्कः(1.5)</text>
</g>
<!-- Node5_1 -->
<g id="node2" class="node">
<title>Node5_1</title>
<ellipse fill="#00bfff" stroke="#00bfff" cx="500" cy="-453" rx="96.68" ry="18"/>
<text text-anchor="middle" x="500" y="-449.3" font-family="Times,serif" font-size="14.00">चन्द्रः(5.1)</text>
</g>
<!-- Node1_5&#45;&gt;Node5_1 -->
<g id="edge5" class="edge">
<title>Node1_5&#45;&gt;Node5_1</title>
<path fill="none" stroke="black" d="M500,-394.27C500,-407.58 500,-423.19 500,-434.82"/>
<polygon fill="black" stroke="black" points="503.5,-394.2 500,-384.2 496.5,-394.2 503.5,-394.2"/>
<text text-anchor="middle" x="557.5" y="-405.8" font-family="Times,serif" font-size="14.00">विशेषणम्</text>
</g>
<!-- Node4_1 -->
<g id="node19" class="node">
<title>Node4_1</title>
<ellipse fill="#ff1975" stroke="#ff1975" cx="500" cy="-540" rx="69.59" ry="18"/>
<text text-anchor="middle" x="500" y="-536.3" font-family="Times,serif" font-size="14.00">रराज(4.1)</text>
</g>
<!-- Node5_1&#45;&gt;Node4_1 -->
<g id="edge16" class="edge">
<title>Node5_1&#45;&gt;Node4_1</title>
<path fill="none" stroke="black" d="M500,-481.27C500,-494.58 500,-510.19 500,-521.82"/>
<polygon fill="black" stroke="black" points="503.5,-481.2 500,-471.2 496.5,-481.2 503.5,-481.2"/>
<text text-anchor="middle" x="536" y="-492.8" font-family="Times,serif" font-size="14.00">कर्ता</text>
</g>
<!-- Node2_5 -->
<g id="node3" class="node">
<title>Node2_5</title>
<ellipse fill="#00bfff" stroke="#00bfff" cx="675" cy="-366" rx="78.79" ry="18"/>
<text text-anchor="middle" x="675" y="-362.3" font-family="Times,serif" font-size="14.00">पङ्कः(2.5)</text>
</g>
<!-- Node2_5&#45;&gt;Node5_1 -->
<g id="edge10" class="edge">
<title>Node2_5&#45;&gt;Node5_1</title>
<path fill="none" stroke="black" d="M652.64,-391.13C643.04,-400.32 631.22,-410.2 619,-417 601.68,-426.63 581.45,-433.86 562.62,-439.17"/>
<polygon fill="black" stroke="black" points="655.21,-393.51 659.83,-383.98 650.27,-388.55 655.21,-393.51"/>
<text text-anchor="middle" x="697.5" y="-405.8" font-family="Times,serif" font-size="14.00">विशेषणम्</text>
</g>
<!-- Node3_5 -->
<g id="node4" class="node">
<title>Node3_5</title>
<ellipse fill="#00bfff" stroke="#00bfff" cx="850" cy="-366" rx="78.79" ry="18"/>
<text text-anchor="middle" x="850" y="-362.3" font-family="Times,serif" font-size="14.00">अङ्कः(3.5)</text>
</g>
<!-- Node3_5&#45;&gt;Node5_1 -->
<g id="edge15" class="edge">
<title>Node3_5&#45;&gt;Node5_1</title>
<path fill="none" stroke="black" d="M817.2,-388.87C800.46,-399.02 779.37,-410.29 759,-417 705.46,-434.65 642.88,-443.41 592.64,-447.75"/>
<polygon fill="black" stroke="black" points="819.38,-391.64 826.02,-383.39 815.68,-385.69 819.38,-391.64"/>
<text text-anchor="middle" x="850.5" y="-405.8" font-family="Times,serif" font-size="14.00">विशेषणम्</text>
</g>
<!-- Node6_1 -->
<g id="node5" class="node">
<title>Node6_1</title>
<ellipse fill="#00bfff" stroke="#00bfff" cx="316" cy="-366" rx="87.99" ry="18"/>
<text text-anchor="middle" x="316" y="-362.3" font-family="Times,serif" font-size="14.00">भगवान्(6.1)</text>
</g>
<!-- Node6_1&#45;&gt;Node5_1 -->
<g id="edge17" class="edge">
<title>Node6_1&#45;&gt;Node5_1</title>
<path fill="none" stroke="black" d="M341.62,-390.24C353.02,-399.62 367.01,-409.88 381,-417 399.23,-426.28 420.32,-433.49 439.63,-438.9"/>
<polygon fill="black" stroke="black" points="343.7,-387.42 333.81,-383.63 339.18,-392.77 343.7,-387.42"/>
<text text-anchor="middle" x="438.5" y="-405.8" font-family="Times,serif" font-size="14.00">विशेषणम्</text>
</g>
<!-- Node7_1 -->
<g id="node6" class="node">
<title>Node7_1</title>
<ellipse fill="#00bfff" stroke="#00bfff" cx="113" cy="-366" rx="96.68" ry="18"/>
<text text-anchor="middle" x="113" y="-362.3" font-family="Times,serif" font-size="14.00">शशाङ्कः(7.1)</text>
</g>
<!-- Node7_1&#45;&gt;Node5_1 -->
<g id="edge18" class="edge">
<title>Node7_1&#45;&gt;Node5_1</title>
<path fill="none" stroke="black" d="M156,-386.93C180.2,-397.38 211.25,-409.52 240,-417 296.31,-431.65 361.17,-440.39 412.02,-445.48"/>
<polygon fill="black" stroke="black" points="157.31,-383.68 146.75,-382.88 154.5,-390.1 157.31,-383.68"/>
<text text-anchor="middle" x="297.5" y="-405.8" font-family="Times,serif" font-size="14.00">विशेषणम्</text>
</g>
<!-- Node1_1 -->
<g id="node7" class="node">
<title>Node1_1</title>
<ellipse fill="#ffff00" stroke="#ffff00" cx="485" cy="-18" rx="90.98" ry="18"/>
<text text-anchor="middle" x="485" y="-14.3" font-family="Times,serif" font-size="14.00">विनष्ट&#45;(1.1)</text>
</g>
<!-- Node1_2 -->
<g id="node8" class="node">
<title>Node1_2</title>
<ellipse fill="#ffff00" stroke="#ffff00" cx="485" cy="-105" rx="63.09" ry="18"/>
<text text-anchor="middle" x="485" y="-101.3" font-family="Times,serif" font-size="14.00">शीत&#45;(1.2)</text>
</g>
<!-- Node1_1&#45;&gt;Node1_2 -->
<g id="edge1" class="edge">
<title>Node1_1&#45;&gt;Node1_2</title>
<path fill="none" stroke="black" d="M485,-46.27C485,-59.58 485,-75.19 485,-86.82"/>
<polygon fill="black" stroke="black" points="488.5,-46.2 485,-36.2 481.5,-46.2 488.5,-46.2"/>
<text text-anchor="middle" x="549.5" y="-57.8" font-family="Times,serif" font-size="14.00">कर्मधारयः</text>
</g>
<!-- Node1_3 -->
<g id="node9" class="node">
<title>Node1_3</title>
<ellipse fill="#ffff00" stroke="#ffff00" cx="485" cy="-192" rx="81.49" ry="18"/>
<text text-anchor="middle" x="485" y="-188.3" font-family="Times,serif" font-size="14.00">अम्बु&#45;(1.3)</text>
</g>
<!-- Node1_2&#45;&gt;Node1_3 -->
<g id="edge2" class="edge">
<title>Node1_2&#45;&gt;Node1_3</title>
<path fill="none" stroke="black" d="M485,-133.27C485,-146.58 485,-162.19 485,-173.82"/>
<polygon fill="black" stroke="black" points="488.5,-133.2 485,-123.2 481.5,-133.2 488.5,-133.2"/>
<text text-anchor="middle" x="549.5" y="-144.8" font-family="Times,serif" font-size="14.00">कर्मधारयः</text>
</g>
<!-- Node1_4 -->
<g id="node10" class="node">
<title>Node1_4</title>
<ellipse fill="#ffff00" stroke="#ffff00" cx="485" cy="-279" rx="81.49" ry="18"/>
<text text-anchor="middle" x="485" y="-275.3" font-family="Times,serif" font-size="14.00">तुषार&#45;(1.4)</text>
</g>
<!-- Node1_3&#45;&gt;Node1_4 -->
<g id="edge3" class="edge">
<title>Node1_3&#45;&gt;Node1_4</title>
<path fill="none" stroke="black" d="M485,-220.27C485,-233.58 485,-249.19 485,-260.82"/>
<polygon fill="black" stroke="black" points="488.5,-220.2 485,-210.2 481.5,-220.2 488.5,-220.2"/>
<text text-anchor="middle" x="549.5" y="-231.8" font-family="Times,serif" font-size="14.00">कर्मधारयः</text>
</g>
<!-- Node1_4&#45;&gt;Node1_5 -->
<g id="edge4" class="edge">
<title>Node1_4&#45;&gt;Node1_5</title>
<path fill="none" stroke="black" d="M489.81,-307.27C492.16,-320.58 494.92,-336.19 496.97,-347.82"/>
<polygon fill="black" stroke="black" points="493.22,-306.44 488.04,-297.2 486.33,-307.66 493.22,-306.44"/>
<text text-anchor="middle" x="565.5" y="-318.8" font-family="Times,serif" font-size="14.00">बहुव्रीहिः</text>
</g>
<!-- Node2_1 -->
<g id="node11" class="node">
<title>Node2_1</title>
<ellipse fill="#ffff00" stroke="#ffff00" cx="670" cy="-18" rx="63.09" ry="18"/>
<text text-anchor="middle" x="670" y="-14.3" font-family="Times,serif" font-size="14.00">महा&#45;(2.1)</text>
</g>
<!-- Node2_2 -->
<g id="node12" class="node">
<title>Node2_2</title>
<ellipse fill="#ffff00" stroke="#ffff00" cx="670" cy="-105" rx="72.29" ry="18"/>
<text text-anchor="middle" x="670" y="-101.3" font-family="Times,serif" font-size="14.00">ग्रह&#45;(2.2)</text>
</g>
<!-- Node2_1&#45;&gt;Node2_2 -->
<g id="edge6" class="edge">
<title>Node2_1&#45;&gt;Node2_2</title>
<path fill="none" stroke="black" d="M670,-46.27C670,-59.58 670,-75.19 670,-86.82"/>
<polygon fill="black" stroke="black" points="673.5,-46.2 670,-36.2 666.5,-46.2 673.5,-46.2"/>
<text text-anchor="middle" x="734.5" y="-57.8" font-family="Times,serif" font-size="14.00">कर्मधारयः</text>
</g>
<!-- Node2_3 -->
<g id="node13" class="node">
<title>Node2_3</title>
<ellipse fill="#ffff00" stroke="#ffff00" cx="670" cy="-192" rx="81.49" ry="18"/>
<text text-anchor="middle" x="670" y="-188.3" font-family="Times,serif" font-size="14.00">ग्राह&#45;(2.3)</text>
</g>
<!-- Node2_2&#45;&gt;Node2_3 -->
<g id="edge7" class="edge">
<title>Node2_2&#45;&gt;Node2_3</title>
<path fill="none" stroke="black" d="M670,-133.27C670,-146.58 670,-162.19 670,-173.82"/>
<polygon fill="black" stroke="black" points="673.5,-133.2 670,-123.2 666.5,-133.2 673.5,-133.2"/>
<text text-anchor="middle" x="773.5" y="-144.8" font-family="Times,serif" font-size="14.00">षष्ठी_तत्पुरुषः</text>
</g>
<!-- Node2_4 -->
<g id="node14" class="node">
<title>Node2_4</title>
<ellipse fill="#ffff00" stroke="#ffff00" cx="675" cy="-279" rx="90.98" ry="18"/>
<text text-anchor="middle" x="675" y="-275.3" font-family="Times,serif" font-size="14.00">विनष्ट&#45;(2.4)</text>
</g>
<!-- Node2_3&#45;&gt;Node2_4 -->
<g id="edge8" class="edge">
<title>Node2_3&#45;&gt;Node2_4</title>
<path fill="none" stroke="black" d="M670.08,-220.36C670.23,-227.72 670.51,-235.67 671,-243 671.39,-248.86 672.05,-255.24 672.73,-260.94"/>
<polygon fill="black" stroke="black" points="673.58,-220.09 669.95,-210.14 666.58,-220.19 673.58,-220.09"/>
<text text-anchor="middle" x="781.5" y="-231.8" font-family="Times,serif" font-size="14.00">तृतीया_तत्पुरुषः</text>
</g>
<!-- Node2_4&#45;&gt;Node2_5 -->
<g id="edge9" class="edge">
<title>Node2_4&#45;&gt;Node2_5</title>
<path fill="none" stroke="black" d="M675,-307.27C675,-320.58 675,-336.19 675,-347.82"/>
<polygon fill="black" stroke="black" points="678.5,-307.2 675,-297.2 671.5,-307.2 678.5,-307.2"/>
<text text-anchor="middle" x="746.5" y="-318.8" font-family="Times,serif" font-size="14.00">बहुव्रीहिः</text>
</g>
<!-- Node3_1 -->
<g id="node15" class="node">
<title>Node3_1</title>
<ellipse fill="#ffff00" stroke="#ffff00" cx="914" cy="-18" rx="90.98" ry="18"/>
<text text-anchor="middle" x="914" y="-14.3" font-family="Times,serif" font-size="14.00">प्रकाश&#45;(3.1)</text>
</g>
<!-- Node3_2 -->
<g id="node16" class="node">
<title>Node3_2</title>
<ellipse fill="#ffff00" stroke="#ffff00" cx="914" cy="-105" rx="100.18" ry="18"/>
<text text-anchor="middle" x="914" y="-101.3" font-family="Times,serif" font-size="14.00">लक्ष्मी&#45;(3.2)</text>
</g>
<!-- Node3_1&#45;&gt;Node3_2 -->
<g id="edge11" class="edge">
<title>Node3_1&#45;&gt;Node3_2</title>
<path fill="none" stroke="black" d="M914,-46.27C914,-59.58 914,-75.19 914,-86.82"/>
<polygon fill="black" stroke="black" points="917.5,-46.2 914,-36.2 910.5,-46.2 917.5,-46.2"/>
<text text-anchor="middle" x="978.5" y="-57.8" font-family="Times,serif" font-size="14.00">कर्मधारयः</text>
</g>
<!-- Node3_3 -->
<g id="node17" class="node">
<title>Node3_3</title>
<ellipse fill="#ffff00" stroke="#ffff00" cx="914" cy="-192" rx="81.49" ry="18"/>
<text text-anchor="middle" x="914" y="-188.3" font-family="Times,serif" font-size="14.00">आश्रय&#45;(3.3)</text>
</g>
<!-- Node3_2&#45;&gt;Node3_3 -->
<g id="edge12" class="edge">
<title>Node3_2&#45;&gt;Node3_3</title>
<path fill="none" stroke="black" d="M914,-133.27C914,-146.58 914,-162.19 914,-173.82"/>
<polygon fill="black" stroke="black" points="917.5,-133.2 914,-123.2 910.5,-133.2 917.5,-133.2"/>
<text text-anchor="middle" x="1017.5" y="-144.8" font-family="Times,serif" font-size="14.00">षष्ठी_तत्पुरुषः</text>
</g>
<!-- Node3_4 -->
<g id="node18" class="node">
<title>Node3_4</title>
<ellipse fill="#ffff00" stroke="#ffff00" cx="892" cy="-279" rx="90.98" ry="18"/>
<text text-anchor="middle" x="892" y="-275.3" font-family="Times,serif" font-size="14.00">निर्मल&#45;(3.4)</text>
</g>
<!-- Node3_3&#45;&gt;Node3_4 -->
<g id="edge13" class="edge">
<title>Node3_3&#45;&gt;Node3_4</title>
<path fill="none" stroke="black" d="M906.94,-220.27C903.5,-233.58 899.46,-249.19 896.45,-260.82"/>
<polygon fill="black" stroke="black" points="910.43,-220.76 909.55,-210.2 903.65,-219.01 910.43,-220.76"/>
<text text-anchor="middle" x="975.5" y="-231.8" font-family="Times,serif" font-size="14.00">बहुव्रीहिः</text>
</g>
<!-- Node3_4&#45;&gt;Node3_5 -->
<g id="edge14" class="edge">
<title>Node3_4&#45;&gt;Node3_5</title>
<path fill="none" stroke="black" d="M878.92,-306.48C872.25,-319.96 864.35,-335.96 858.49,-347.82"/>
<polygon fill="black" stroke="black" points="882.21,-307.72 883.5,-297.2 875.93,-304.62 882.21,-307.72"/>
<text text-anchor="middle" x="944.5" y="-318.8" font-family="Times,serif" font-size="14.00">बहुव्रीहिः</text>
</g>
</g>
</svg>
