<svg xmlns="http://www.w3.org/2000/svg" xmlns:xlink="http://www.w3.org/1999/xlink" width="1105pt" height="305pt" viewBox="0 0 1104.69 305"><g id="graph0" class="graph" transform="scale(1 1) rotate(0) translate(4 301)"><title>G</title><polygon fill="#fffacd" stroke="transparent" points="-4 4 -4 -301 1100.69 -301 1100.69 4 -4 4"/><g id="clust1" class="cluster"><title>cluster_1</title><polygon fill="#fffacd" stroke="#000" points="590 -79 590 -218 856 -218 856 -79 590 -79"/></g><g id="clust2" class="cluster"><title>cluster_2</title><polygon fill="#fffacd" stroke="#000" points="8 -79 8 -218 164 -218 164 -79 8 -79"/></g><g id="node1" class="node"><title>Node2_2</title><ellipse cx="723" cy="-105" fill="#93db70" stroke="#93db70" rx="124.58" ry="18"/><text x="723" y="-101.3" font-family="Times,serif" font-size="14" text-anchor="middle">प्रतीकाशम्(2.2)</text></g><g id="node2" class="node"><title>Node3_2</title><ellipse cx="723" cy="-192" fill="#93db70" stroke="#93db70" rx="106.68" ry="18"/><text x="723" y="-188.3" font-family="Times,serif" font-size="14" text-anchor="middle">निवेशनम्(3.2)</text></g><g id="edge3" class="edge"><title>Node2_2-&gt;Node3_2</title><path fill="none" stroke="#000" d="M723,-133.27C723,-146.58 723,-162.19 723,-173.82"/><polygon fill="#000" stroke="#000" points="726.5 -133.2 723 -123.2 719.5 -133.2 726.5 -133.2"/><text x="780.5" y="-144.8" font-family="Times,serif" font-size="14" text-anchor="middle">विशेषणम्</text></g><g id="node6" class="node"><title>Node7_1</title><ellipse cx="362" cy="-279" fill="#ff1975" stroke="#ff1975" rx="106.68" ry="18"/><text x="362" y="-275.3" font-family="Times,serif" font-size="14" text-anchor="middle">पुप्लुवे(7.1)</text></g><g id="edge5" class="edge"><title>Node3_2-&gt;Node7_1</title><path fill="none" stroke="#000" d="M713,-219.37C708.29,-228.31 701.74,-237.42 693,-243 656.71,-266.15 550.53,-274.21 468.12,-276.9"/><polygon fill="#000" stroke="#000" points="716.19 -220.83 717.26 -210.29 709.85 -217.86 716.19 -220.83"/><text x="737" y="-231.8" font-family="Times,serif" font-size="14" text-anchor="middle">कर्म</text></g><g id="node3" class="node"><title>Node8_1</title><ellipse cx="67" cy="-105" fill="#00bfff" stroke="#00bfff" rx="50.89" ry="18"/><text x="67" y="-101.3" font-family="Times,serif" font-size="14" text-anchor="middle">सः(8.1)</text></g><g id="node4" class="node"><title>Node9_2</title><ellipse cx="86" cy="-192" fill="#00bfff" stroke="#00bfff" rx="69.59" ry="18"/><text x="86" y="-188.3" font-family="Times,serif" font-size="14" text-anchor="middle">कपिः(9.2)</text></g><g id="edge9" class="edge"><title>Node8_1-&gt;Node9_2</title><path fill="none" stroke="#000" d="M73.09,-133.27C76.07,-146.58 79.56,-162.19 82.16,-173.82"/><polygon fill="#000" stroke="#000" points="76.44 -132.2 70.84 -123.2 69.61 -133.72 76.44 -132.2"/><text x="135.5" y="-144.8" font-family="Times,serif" font-size="14" text-anchor="middle">विशेषणम्</text></g><g id="edge11" class="edge"><title>Node9_2-&gt;Node7_1</title><path fill="none" stroke="#000" d="M112.36,-215.82C125.06,-225.65 140.99,-236.4 157,-243 191.54,-257.25 231.66,-265.7 267.21,-270.71"/><polygon fill="#000" stroke="#000" points="114.5 -213.05 104.5 -209.54 110.13 -218.52 114.5 -213.05"/><text x="193" y="-231.8" font-family="Times,serif" font-size="14" text-anchor="middle">कर्ता</text></g><g id="node5" class="node"><title>Node1_1</title><ellipse cx="224" cy="-192" fill="#f9f" stroke="#f9f" rx="50.89" ry="18"/><text x="224" y="-188.3" font-family="Times,serif" font-size="14" text-anchor="middle">अथ(1.1)</text></g><g id="edge1" class="edge"><title>Node1_1-&gt;Node7_1</title><path fill="none" stroke="#000" d="M229.26,-219.9C232.09,-228.28 236.41,-236.9 243,-243 254.69,-253.83 269.57,-261.32 284.81,-266.5"/><polygon fill="#000" stroke="#000" points="232.56 -218.7 226.5 -210 225.82 -220.58 232.56 -218.7"/><text x="300.5" y="-231.8" font-family="Times,serif" font-size="14" text-anchor="middle">सम्बन्धः</text></g><g id="node7" class="node"><title>Node2_1</title><ellipse cx="723" cy="-18" fill="#ff0" stroke="#ff0" rx="63.09" ry="18"/><text x="723" y="-14.3" font-family="Times,serif" font-size="14" text-anchor="middle">मेघ-(2.1)</text></g><g id="edge2" class="edge"><title>Node2_1-&gt;Node2_2</title><path fill="none" stroke="#000" d="M723,-46.27C723,-59.58 723,-75.19 723,-86.82"/><polygon fill="#000" stroke="#000" points="726.5 -46.2 723 -36.2 719.5 -46.2 726.5 -46.2"/><text x="787.5" y="-57.8" font-family="Times,serif" font-size="14" text-anchor="middle">कर्मधारयः</text></g><g id="node8" class="node"><title>Node3_1</title><ellipse cx="462" cy="-105" fill="#ff0" stroke="#ff0" rx="118.08" ry="18"/><text x="462" y="-101.3" font-family="Times,serif" font-size="14" text-anchor="middle">कुम्भकर्ण-(3.1)</text></g><g id="edge4" class="edge"><title>Node3_1-&gt;Node3_2</title><path fill="none" stroke="#000" d="M481.03,-130.78C489.5,-140.13 500.23,-149.95 512,-156 533.34,-166.97 586.92,-175.79 634.74,-181.83"/><polygon fill="#000" stroke="#000" points="483.64 -128.45 474.47 -123.14 478.33 -133.01 483.64 -128.45"/><text x="615.5" y="-144.8" font-family="Times,serif" font-size="14" text-anchor="middle">षष्ठी_तत्पुरुषः</text></g><g id="node9" class="node"><title>Node4_1</title><ellipse cx="981" cy="-105" fill="#87ceeb" stroke="#87ceeb" rx="115.88" ry="18"/><text x="981" y="-101.3" font-family="Times,serif" font-size="14" text-anchor="middle">विभीषणस्य(4.1)</text></g><g id="edge6" class="edge"><title>Node4_1-&gt;Node3_2</title><path fill="none" stroke="#000" d="M929.28,-125.43C903.23,-135 871.07,-146.5 842,-156 820.4,-163.05 796.4,-170.24 775.63,-176.25"/><polygon fill="#000" stroke="#000" points="930.78 -128.61 938.95 -121.86 928.35 -122.04 930.78 -128.61"/><text x="977" y="-144.8" font-family="Times,serif" font-size="14" text-anchor="middle">षष्ठीसम्बन्धः</text></g><g id="node10" class="node"><title>Node5_1</title><ellipse cx="362" cy="-192" fill="#f9f" stroke="#f9f" rx="41.69" ry="18"/><text x="362" y="-188.3" font-family="Times,serif" font-size="14" text-anchor="middle">च(5.1)</text></g><g id="edge7" class="edge"><title>Node5_1-&gt;Node7_1</title><path fill="none" stroke="#000" d="M362,-220.27C362,-233.58 362,-249.19 362,-260.82"/><polygon fill="#000" stroke="#000" points="365.5 -220.2 362 -210.2 358.5 -220.2 365.5 -220.2"/><text x="419.5" y="-231.8" font-family="Times,serif" font-size="14" text-anchor="middle">सम्बन्धः</text></g><g id="node11" class="node"><title>Node6_1</title><ellipse cx="500" cy="-192" fill="#f9f" stroke="#f9f" rx="59.59" ry="18"/><text x="500" y="-188.3" font-family="Times,serif" font-size="14" text-anchor="middle">तथा(6.1)</text></g><g id="edge8" class="edge"><title>Node6_1-&gt;Node7_1</title><path fill="none" stroke="#000" d="M493.13,-219.65C489.79,-228.11 484.94,-236.85 478,-243 466.19,-253.46 451.34,-260.79 436.25,-265.94"/><polygon fill="#000" stroke="#000" points="496.5 -220.62 496.4 -210.02 489.87 -218.37 496.5 -220.62"/><text x="589" y="-231.8" font-family="Times,serif" font-size="14" text-anchor="middle">क्रियाविशेषणम्</text></g><g id="node12" class="node"><title>Node9_1</title><ellipse cx="235" cy="-105" fill="#ff0" stroke="#ff0" rx="63.09" ry="18"/><text x="235" y="-101.3" font-family="Times,serif" font-size="14" text-anchor="middle">महा-(9.1)</text></g><g id="edge10" class="edge"><title>Node9_1-&gt;Node9_2</title><path fill="none" stroke="#000" d="M220.16,-131.56C213.98,-140.36 206.1,-149.6 197,-156 180.39,-167.69 159.72,-175.59 140.73,-180.88"/><polygon fill="#000" stroke="#000" points="223.2 -133.31 225.77 -123.03 217.35 -129.47 223.2 -133.31"/><text x="277.5" y="-144.8" font-family="Times,serif" font-size="14" text-anchor="middle">कर्मधारयः</text></g></g></svg>