<?xml version="1.0" encoding="UTF-8" standalone="no"?>
<!DOCTYPE svg PUBLIC "-//W3C//DTD SVG 1.1//EN"
 "http://www.w3.org/Graphics/SVG/1.1/DTD/svg11.dtd">
<!-- Generated by graphviz version 2.43.0 (0)
 -->
<!-- Title: G Pages: 1 -->
<svg width="1096pt" height="392pt"
 viewBox="0.00 0.00 1096.00 392.00" xmlns="http://www.w3.org/2000/svg" xmlns:xlink="http://www.w3.org/1999/xlink">
<g id="graph0" class="graph" transform="scale(1 1) rotate(0) translate(4 388)">
<title>G</title>
<polygon fill="#fffacd" stroke="transparent" points="-4,4 -4,-388 1092,-388 1092,4 -4,4"/>
<g id="clust1" class="cluster">
<title>cluster_1</title>
<polygon fill="#fffacd" stroke="black" points="356,-166 356,-305 991,-305 991,-166 356,-166"/>
</g>
<g id="clust2" class="cluster">
<title>cluster_2</title>
<polygon fill="#fffacd" stroke="black" points="8,-79 8,-218 164,-218 164,-79 8,-79"/>
</g>
<!-- Node1_3 -->
<g id="node1" class="node">
<title>Node1_3</title>
<ellipse fill="#93db70" stroke="#93db70" cx="692" cy="-192" rx="96.68" ry="18"/>
<text text-anchor="middle" x="692" y="-188.3" font-family="Times,serif" font-size="14.00">हस्तान्(1.3)</text>
</g>
<!-- Node6_1 -->
<g id="node2" class="node">
<title>Node6_1</title>
<ellipse fill="#93db70" stroke="#93db70" cx="530" cy="-279" rx="106.68" ry="18"/>
<text text-anchor="middle" x="530" y="-275.3" font-family="Times,serif" font-size="14.00">गुल्मान्(6.1)</text>
</g>
<!-- Node1_3&#45;&gt;Node6_1 -->
<g id="edge3" class="edge">
<title>Node1_3&#45;&gt;Node6_1</title>
<path fill="none" stroke="black" d="M669.53,-216.93C659.91,-226.09 648.11,-236 636,-243 621.07,-251.63 603.7,-258.49 587.41,-263.76"/>
<polygon fill="black" stroke="black" points="672.08,-219.33 676.74,-209.81 667.16,-214.34 672.08,-219.33"/>
<text text-anchor="middle" x="721.5" y="-231.8" font-family="Times,serif" font-size="14.00">समुच्चितः</text>
</g>
<!-- Node4_1 -->
<g id="node12" class="node">
<title>Node4_1</title>
<ellipse fill="#ff1975" stroke="#ff1975" cx="266" cy="-366" rx="78.79" ry="18"/>
<text text-anchor="middle" x="266" y="-362.3" font-family="Times,serif" font-size="14.00">ददर्श(4.1)</text>
</g>
<!-- Node6_1&#45;&gt;Node4_1 -->
<g id="edge9" class="edge">
<title>Node6_1&#45;&gt;Node4_1</title>
<path fill="none" stroke="black" d="M472.99,-298.36C424,-314.13 354.4,-336.54 309.72,-350.92"/>
<polygon fill="black" stroke="black" points="474.36,-301.59 482.8,-295.2 472.21,-294.93 474.36,-301.59"/>
<text text-anchor="middle" x="443" y="-318.8" font-family="Times,serif" font-size="14.00">कर्म</text>
</g>
<!-- Node3_3 -->
<g id="node3" class="node">
<title>Node3_3</title>
<ellipse fill="#93db70" stroke="#93db70" cx="895" cy="-192" rx="87.99" ry="18"/>
<text text-anchor="middle" x="895" y="-188.3" font-family="Times,serif" font-size="14.00">धारिणः(3.3)</text>
</g>
<!-- Node3_3&#45;&gt;Node6_1 -->
<g id="edge7" class="edge">
<title>Node3_3&#45;&gt;Node6_1</title>
<path fill="none" stroke="black" d="M858.08,-214.05C838.45,-224.35 813.56,-235.99 790,-243 737.83,-258.52 677.71,-267.17 628.43,-271.99"/>
<polygon fill="black" stroke="black" points="859.82,-217.09 866.99,-209.29 856.52,-210.92 859.82,-217.09"/>
<text text-anchor="middle" x="892.5" y="-231.8" font-family="Times,serif" font-size="14.00">समुच्चितः</text>
</g>
<!-- Node5_1 -->
<g id="node4" class="node">
<title>Node5_1</title>
<ellipse fill="#93db70" stroke="#93db70" cx="471" cy="-192" rx="106.68" ry="18"/>
<text text-anchor="middle" x="471" y="-188.3" font-family="Times,serif" font-size="14.00">विविधान्(5.1)</text>
</g>
<!-- Node5_1&#45;&gt;Node6_1 -->
<g id="edge8" class="edge">
<title>Node5_1&#45;&gt;Node6_1</title>
<path fill="none" stroke="black" d="M498.99,-217.09C502.25,-220.56 505.35,-224.24 508,-228 515.1,-238.08 520.66,-250.81 524.42,-260.91"/>
<polygon fill="black" stroke="black" points="501.27,-214.42 491.71,-209.86 496.34,-219.39 501.27,-214.42"/>
<text text-anchor="middle" x="574.5" y="-231.8" font-family="Times,serif" font-size="14.00">विशेषणम्</text>
</g>
<!-- Node7_1 -->
<g id="node5" class="node">
<title>Node7_1</title>
<ellipse fill="#87ceeb" stroke="#87ceeb" cx="86" cy="-105" rx="69.59" ry="18"/>
<text text-anchor="middle" x="86" y="-101.3" font-family="Times,serif" font-size="14.00">तस्य(7.1)</text>
</g>
<!-- Node8_2 -->
<g id="node6" class="node">
<title>Node8_2</title>
<ellipse fill="#87ceeb" stroke="#87ceeb" cx="86" cy="-192" rx="69.59" ry="18"/>
<text text-anchor="middle" x="86" y="-188.3" font-family="Times,serif" font-size="14.00">पतेः(8.2)</text>
</g>
<!-- Node7_1&#45;&gt;Node8_2 -->
<g id="edge10" class="edge">
<title>Node7_1&#45;&gt;Node8_2</title>
<path fill="none" stroke="black" d="M86,-133.27C86,-146.58 86,-162.19 86,-173.82"/>
<polygon fill="black" stroke="black" points="89.5,-133.2 86,-123.2 82.5,-133.2 89.5,-133.2"/>
<text text-anchor="middle" x="143.5" y="-144.8" font-family="Times,serif" font-size="14.00">विशेषणम्</text>
</g>
<!-- Node9_1 -->
<g id="node14" class="node">
<title>Node9_1</title>
<ellipse fill="#c6e2eb" stroke="#c6e2eb" cx="86" cy="-279" rx="69.59" ry="18"/>
<text text-anchor="middle" x="86" y="-275.3" font-family="Times,serif" font-size="14.00">गृहे(9.1)</text>
</g>
<!-- Node8_2&#45;&gt;Node9_1 -->
<g id="edge12" class="edge">
<title>Node8_2&#45;&gt;Node9_1</title>
<path fill="none" stroke="black" d="M86,-220.27C86,-233.58 86,-249.19 86,-260.82"/>
<polygon fill="black" stroke="black" points="89.5,-220.2 86,-210.2 82.5,-220.2 89.5,-220.2"/>
<text text-anchor="middle" x="179" y="-231.8" font-family="Times,serif" font-size="14.00">षष्ठीसम्बन्धः</text>
</g>
<!-- Node1_1 -->
<g id="node7" class="node">
<title>Node1_1</title>
<ellipse fill="#ffff00" stroke="#ffff00" cx="692" cy="-18" rx="63.09" ry="18"/>
<text text-anchor="middle" x="692" y="-14.3" font-family="Times,serif" font-size="14.00">शूल&#45;(1.1)</text>
</g>
<!-- Node1_2 -->
<g id="node8" class="node">
<title>Node1_2</title>
<ellipse fill="#ffff00" stroke="#ffff00" cx="692" cy="-105" rx="90.98" ry="18"/>
<text text-anchor="middle" x="692" y="-101.3" font-family="Times,serif" font-size="14.00">मुद्गर&#45;(1.2)</text>
</g>
<!-- Node1_1&#45;&gt;Node1_2 -->
<g id="edge1" class="edge">
<title>Node1_1&#45;&gt;Node1_2</title>
<path fill="none" stroke="black" d="M692,-46.27C692,-59.58 692,-75.19 692,-86.82"/>
<polygon fill="black" stroke="black" points="695.5,-46.2 692,-36.2 688.5,-46.2 695.5,-46.2"/>
<text text-anchor="middle" x="756.5" y="-57.8" font-family="Times,serif" font-size="14.00">द्वन्द्वः</text>
</g>
<!-- Node1_2&#45;&gt;Node1_3 -->
<g id="edge2" class="edge">
<title>Node1_2&#45;&gt;Node1_3</title>
<path fill="none" stroke="black" d="M692,-133.27C692,-146.58 692,-162.19 692,-173.82"/>
<polygon fill="black" stroke="black" points="695.5,-133.2 692,-123.2 688.5,-133.2 695.5,-133.2"/>
<text text-anchor="middle" x="763.5" y="-144.8" font-family="Times,serif" font-size="14.00">बहुव्रीहिः</text>
</g>
<!-- Node2_1 -->
<g id="node9" class="node">
<title>Node2_1</title>
<ellipse fill="#ff99ff" stroke="#ff99ff" cx="300" cy="-192" rx="41.69" ry="18"/>
<text text-anchor="middle" x="300" y="-188.3" font-family="Times,serif" font-size="14.00">च(2.1)</text>
</g>
<!-- Node2_1&#45;&gt;Node6_1 -->
<g id="edge4" class="edge">
<title>Node2_1&#45;&gt;Node6_1</title>
<path fill="none" stroke="black" d="M291.51,-220.23C290.65,-228.38 291.65,-236.79 297,-243 306.46,-253.99 376.88,-263.54 437.85,-269.87"/>
<polygon fill="black" stroke="black" points="294.99,-220.71 293.43,-210.23 288.11,-219.39 294.99,-220.71"/>
<text text-anchor="middle" x="400.5" y="-231.8" font-family="Times,serif" font-size="14.00">समुच्चय_द्योतकः</text>
</g>
<!-- Node3_1 -->
<g id="node10" class="node">
<title>Node3_1</title>
<ellipse fill="#ffff00" stroke="#ffff00" cx="895" cy="-18" rx="81.49" ry="18"/>
<text text-anchor="middle" x="895" y="-14.3" font-family="Times,serif" font-size="14.00">शक्ति&#45;(3.1)</text>
</g>
<!-- Node3_2 -->
<g id="node11" class="node">
<title>Node3_2</title>
<ellipse fill="#ffff00" stroke="#ffff00" cx="895" cy="-105" rx="72.29" ry="18"/>
<text text-anchor="middle" x="895" y="-101.3" font-family="Times,serif" font-size="14.00">तोमर&#45;(3.2)</text>
</g>
<!-- Node3_1&#45;&gt;Node3_2 -->
<g id="edge5" class="edge">
<title>Node3_1&#45;&gt;Node3_2</title>
<path fill="none" stroke="black" d="M895,-46.27C895,-59.58 895,-75.19 895,-86.82"/>
<polygon fill="black" stroke="black" points="898.5,-46.2 895,-36.2 891.5,-46.2 898.5,-46.2"/>
<text text-anchor="middle" x="959.5" y="-57.8" font-family="Times,serif" font-size="14.00">द्वन्द्वः</text>
</g>
<!-- Node3_2&#45;&gt;Node3_3 -->
<g id="edge6" class="edge">
<title>Node3_2&#45;&gt;Node3_3</title>
<path fill="none" stroke="black" d="M895,-133.27C895,-146.58 895,-162.19 895,-173.82"/>
<polygon fill="black" stroke="black" points="898.5,-133.2 895,-123.2 891.5,-133.2 898.5,-133.2"/>
<text text-anchor="middle" x="991.5" y="-144.8" font-family="Times,serif" font-size="14.00">उपपद_तत्पुरुषः</text>
</g>
<!-- Node8_1 -->
<g id="node13" class="node">
<title>Node8_1</title>
<ellipse fill="#ffff00" stroke="#ffff00" cx="265" cy="-105" rx="90.98" ry="18"/>
<text text-anchor="middle" x="265" y="-101.3" font-family="Times,serif" font-size="14.00">रक्षस्&#45;(8.1)</text>
</g>
<!-- Node8_1&#45;&gt;Node8_2 -->
<g id="edge11" class="edge">
<title>Node8_1&#45;&gt;Node8_2</title>
<path fill="none" stroke="black" d="M241.09,-129.8C230.7,-139.06 217.96,-149.08 205,-156 184.58,-166.9 160.32,-174.82 139.06,-180.34"/>
<polygon fill="black" stroke="black" points="243.55,-132.29 248.53,-122.93 238.81,-127.14 243.55,-132.29"/>
<text text-anchor="middle" x="330.5" y="-144.8" font-family="Times,serif" font-size="14.00">षष्ठी_तत्पुरुषः</text>
</g>
<!-- Node9_1&#45;&gt;Node4_1 -->
<g id="edge13" class="edge">
<title>Node9_1&#45;&gt;Node4_1</title>
<path fill="none" stroke="black" d="M90.92,-306.91C93.73,-315.39 98.12,-324.08 105,-330 119.14,-342.18 160.71,-351.04 198.06,-356.79"/>
<polygon fill="black" stroke="black" points="94.29,-305.97 88.3,-297.23 87.53,-307.79 94.29,-305.97"/>
<text text-anchor="middle" x="183.5" y="-318.8" font-family="Times,serif" font-size="14.00">देशाधिकरणम्</text>
</g>
<!-- Node10_1 -->
<g id="node15" class="node">
<title>Node10_1</title>
<ellipse fill="#00bfff" stroke="#00bfff" cx="266" cy="-279" rx="81.79" ry="18"/>
<text text-anchor="middle" x="266" y="-275.3" font-family="Times,serif" font-size="14.00">(कपिः)(10.1)</text>
</g>
<!-- Node10_1&#45;&gt;Node4_1 -->
<g id="edge14" class="edge">
<title>Node10_1&#45;&gt;Node4_1</title>
<path fill="none" stroke="black" d="M266,-307.27C266,-320.58 266,-336.19 266,-347.82"/>
<polygon fill="black" stroke="black" points="269.5,-307.2 266,-297.2 262.5,-307.2 269.5,-307.2"/>
<text text-anchor="middle" x="302" y="-318.8" font-family="Times,serif" font-size="14.00">कर्ता</text>
</g>
</g>
</svg>
