<?xml version="1.0" encoding="UTF-8" standalone="no"?>
<!DOCTYPE svg PUBLIC "-//W3C//DTD SVG 1.1//EN"
 "http://www.w3.org/Graphics/SVG/1.1/DTD/svg11.dtd">
<!-- Generated by graphviz version 2.43.0 (0)
 -->
<!-- Title: G Pages: 1 -->
<svg width="1071pt" height="392pt"
 viewBox="0.00 0.00 1070.59 392.00" xmlns="http://www.w3.org/2000/svg" xmlns:xlink="http://www.w3.org/1999/xlink">
<g id="graph0" class="graph" transform="scale(1 1) rotate(0) translate(4 388)">
<title>G</title>
<polygon fill="#fffacd" stroke="transparent" points="-4,4 -4,-388 1066.59,-388 1066.59,4 -4,4"/>
<g id="clust1" class="cluster">
<title>cluster_1</title>
<polygon fill="#fffacd" stroke="black" points="212.59,-79 212.59,-218 422.59,-218 422.59,-79 212.59,-79"/>
</g>
<!-- Node7_2 -->
<g id="node1" class="node">
<title>Node7_2</title>
<ellipse fill="#87ceeb" stroke="#87ceeb" cx="299.59" cy="-105" rx="78.79" ry="18"/>
<text text-anchor="middle" x="299.59" y="-101.3" font-family="Times,serif" font-size="14.00">मालेः(7.2)</text>
</g>
<!-- Node8_1 -->
<g id="node2" class="node">
<title>Node8_1</title>
<ellipse fill="#87ceeb" stroke="#87ceeb" cx="317.59" cy="-192" rx="96.68" ry="18"/>
<text text-anchor="middle" x="317.59" y="-188.3" font-family="Times,serif" font-size="14.00">सुमालेः(8.1)</text>
</g>
<!-- Node7_2&#45;&gt;Node8_1 -->
<g id="edge8" class="edge">
<title>Node7_2&#45;&gt;Node8_1</title>
<path fill="none" stroke="black" d="M305.37,-133.27C308.19,-146.58 311.49,-162.19 313.95,-173.82"/>
<polygon fill="black" stroke="black" points="308.73,-132.26 303.23,-123.2 301.88,-133.71 308.73,-132.26"/>
<text text-anchor="middle" x="374.09" y="-144.8" font-family="Times,serif" font-size="14.00">समुच्चितः</text>
</g>
<!-- Node12_1 -->
<g id="node11" class="node">
<title>Node12_1</title>
<ellipse fill="#93db70" stroke="#93db70" cx="306.59" cy="-279" rx="90.98" ry="18"/>
<text text-anchor="middle" x="306.59" y="-275.3" font-family="Times,serif" font-size="14.00">(वेश्म)(12.1)</text>
</g>
<!-- Node8_1&#45;&gt;Node12_1 -->
<g id="edge9" class="edge">
<title>Node8_1&#45;&gt;Node12_1</title>
<path fill="none" stroke="black" d="M314.06,-220.27C312.34,-233.58 310.32,-249.19 308.81,-260.82"/>
<polygon fill="black" stroke="black" points="317.55,-220.57 315.37,-210.2 310.61,-219.67 317.55,-220.57"/>
<text text-anchor="middle" x="405.59" y="-231.8" font-family="Times,serif" font-size="14.00">षष्ठीसम्बन्धः</text>
</g>
<!-- Node1_1 -->
<g id="node3" class="node">
<title>Node1_1</title>
<ellipse fill="#ff99ff" stroke="#ff99ff" cx="928.59" cy="-105" rx="59.59" ry="18"/>
<text text-anchor="middle" x="928.59" y="-101.3" font-family="Times,serif" font-size="14.00">तथा(1.1)</text>
</g>
<!-- Node5_1 -->
<g id="node4" class="node">
<title>Node5_1</title>
<ellipse fill="#ff1975" stroke="#ff1975" cx="732.59" cy="-192" rx="69.59" ry="18"/>
<text text-anchor="middle" x="732.59" y="-188.3" font-family="Times,serif" font-size="14.00">जगाम(5.1)</text>
</g>
<!-- Node1_1&#45;&gt;Node5_1 -->
<g id="edge1" class="edge">
<title>Node1_1&#45;&gt;Node5_1</title>
<path fill="none" stroke="black" d="M886.58,-124.22C850.84,-139.72 800.14,-161.71 766.82,-176.15"/>
<polygon fill="black" stroke="black" points="888,-127.42 895.79,-120.23 885.22,-120.99 888,-127.42"/>
<text text-anchor="middle" x="899.09" y="-144.8" font-family="Times,serif" font-size="14.00">सम्बन्धः</text>
</g>
<!-- Node2_1 -->
<g id="node5" class="node">
<title>Node2_1</title>
<ellipse fill="#ff99ff" stroke="#ff99ff" cx="962.59" cy="-18" rx="41.69" ry="18"/>
<text text-anchor="middle" x="962.59" y="-14.3" font-family="Times,serif" font-size="14.00">च(2.1)</text>
</g>
<!-- Node2_1&#45;&gt;Node1_1 -->
<g id="edge2" class="edge">
<title>Node2_1&#45;&gt;Node1_1</title>
<path fill="none" stroke="black" d="M952.14,-45.13C946.7,-58.73 940.2,-74.98 935.41,-86.95"/>
<polygon fill="black" stroke="black" points="955.41,-46.38 955.87,-35.79 948.91,-43.78 955.41,-46.38"/>
<text text-anchor="middle" x="1005.09" y="-57.8" font-family="Times,serif" font-size="14.00">सम्बन्धः</text>
</g>
<!-- Node3_1 -->
<g id="node6" class="node">
<title>Node3_1</title>
<ellipse fill="#87ceeb" stroke="#87ceeb" cx="523.59" cy="-18" rx="124.58" ry="18"/>
<text text-anchor="middle" x="523.59" y="-14.3" font-family="Times,serif" font-size="14.00">इन्द्रजितः(3.1)</text>
</g>
<!-- Node4_1 -->
<g id="node7" class="node">
<title>Node4_1</title>
<ellipse fill="#93db70" stroke="#93db70" cx="540.59" cy="-105" rx="78.79" ry="18"/>
<text text-anchor="middle" x="540.59" y="-101.3" font-family="Times,serif" font-size="14.00">वेश्म(4.1)</text>
</g>
<!-- Node3_1&#45;&gt;Node4_1 -->
<g id="edge3" class="edge">
<title>Node3_1&#45;&gt;Node4_1</title>
<path fill="none" stroke="black" d="M529.04,-46.27C531.71,-59.58 534.83,-75.19 537.16,-86.82"/>
<polygon fill="black" stroke="black" points="532.43,-45.32 527.03,-36.2 525.56,-46.69 532.43,-45.32"/>
<text text-anchor="middle" x="625.59" y="-57.8" font-family="Times,serif" font-size="14.00">षष्ठीसम्बन्धः</text>
</g>
<!-- Node4_1&#45;&gt;Node5_1 -->
<g id="edge4" class="edge">
<title>Node4_1&#45;&gt;Node5_1</title>
<path fill="none" stroke="black" d="M584.35,-125.37C619.13,-140.77 667.05,-161.98 698.89,-176.08"/>
<polygon fill="black" stroke="black" points="585.48,-122.04 574.92,-121.2 582.64,-128.44 585.48,-122.04"/>
<text text-anchor="middle" x="683.59" y="-144.8" font-family="Times,serif" font-size="14.00">कर्ता</text>
</g>
<!-- Node6_1 -->
<g id="node8" class="node">
<title>Node6_1</title>
<ellipse fill="#ffff00" stroke="#ffff00" cx="732.59" cy="-18" rx="63.09" ry="18"/>
<text text-anchor="middle" x="732.59" y="-14.3" font-family="Times,serif" font-size="14.00">हरि&#45;(6.1)</text>
</g>
<!-- Node6_2 -->
<g id="node9" class="node">
<title>Node6_2</title>
<ellipse fill="#00bfff" stroke="#00bfff" cx="732.59" cy="-105" rx="78.79" ry="18"/>
<text text-anchor="middle" x="732.59" y="-101.3" font-family="Times,serif" font-size="14.00">यूथपः(6.2)</text>
</g>
<!-- Node6_1&#45;&gt;Node6_2 -->
<g id="edge5" class="edge">
<title>Node6_1&#45;&gt;Node6_2</title>
<path fill="none" stroke="black" d="M732.59,-46.27C732.59,-59.58 732.59,-75.19 732.59,-86.82"/>
<polygon fill="black" stroke="black" points="736.09,-46.2 732.59,-36.2 729.09,-46.2 736.09,-46.2"/>
<text text-anchor="middle" x="836.09" y="-57.8" font-family="Times,serif" font-size="14.00">षष्ठी_तत्पुरुषः</text>
</g>
<!-- Node6_2&#45;&gt;Node5_1 -->
<g id="edge6" class="edge">
<title>Node6_2&#45;&gt;Node5_1</title>
<path fill="none" stroke="black" d="M732.59,-133.27C732.59,-146.58 732.59,-162.19 732.59,-173.82"/>
<polygon fill="black" stroke="black" points="736.09,-133.2 732.59,-123.2 729.09,-133.2 736.09,-133.2"/>
<text text-anchor="middle" x="768.59" y="-144.8" font-family="Times,serif" font-size="14.00">कर्ता</text>
</g>
<!-- Node7_1 -->
<g id="node10" class="node">
<title>Node7_1</title>
<ellipse fill="#ffff00" stroke="#ffff00" cx="299.59" cy="-18" rx="81.49" ry="18"/>
<text text-anchor="middle" x="299.59" y="-14.3" font-family="Times,serif" font-size="14.00">जम्बु&#45;(7.1)</text>
</g>
<!-- Node7_1&#45;&gt;Node7_2 -->
<g id="edge7" class="edge">
<title>Node7_1&#45;&gt;Node7_2</title>
<path fill="none" stroke="black" d="M299.59,-46.27C299.59,-59.58 299.59,-75.19 299.59,-86.82"/>
<polygon fill="black" stroke="black" points="303.09,-46.2 299.59,-36.2 296.09,-46.2 303.09,-46.2"/>
<text text-anchor="middle" x="371.09" y="-57.8" font-family="Times,serif" font-size="14.00">बहुव्रीहिः</text>
</g>
<!-- Node10_1 -->
<g id="node13" class="node">
<title>Node10_1</title>
<ellipse fill="#ff1975" stroke="#ff1975" cx="194.59" cy="-366" rx="75.29" ry="18"/>
<text text-anchor="middle" x="194.59" y="-362.3" font-family="Times,serif" font-size="14.00">जगाम(10.1)</text>
</g>
<!-- Node12_1&#45;&gt;Node10_1 -->
<g id="edge13" class="edge">
<title>Node12_1&#45;&gt;Node10_1</title>
<path fill="none" stroke="black" d="M276.63,-302.74C257.52,-317.24 233.2,-335.7 216.02,-348.74"/>
<polygon fill="black" stroke="black" points="278.88,-305.42 284.73,-296.59 274.65,-299.85 278.88,-305.42"/>
<text text-anchor="middle" x="285.59" y="-318.8" font-family="Times,serif" font-size="14.00">कर्म</text>
</g>
<!-- Node9_1 -->
<g id="node12" class="node">
<title>Node9_1</title>
<ellipse fill="#ff99ff" stroke="#ff99ff" cx="55.59" cy="-105" rx="41.69" ry="18"/>
<text text-anchor="middle" x="55.59" y="-101.3" font-family="Times,serif" font-size="14.00">च(9.1)</text>
</g>
<!-- Node9_1&#45;&gt;Node8_1 -->
<g id="edge10" class="edge">
<title>Node9_1&#45;&gt;Node8_1</title>
<path fill="none" stroke="black" d="M70.18,-131.26C76.78,-140.47 85.39,-150.08 95.59,-156 118.41,-169.25 179.08,-178.27 231.24,-183.83"/>
<polygon fill="black" stroke="black" points="72.94,-129.08 64.5,-122.68 67.1,-132.95 72.94,-129.08"/>
<text text-anchor="middle" x="199.09" y="-144.8" font-family="Times,serif" font-size="14.00">समुच्चय_द्योतकः</text>
</g>
<!-- Node11_1 -->
<g id="node14" class="node">
<title>Node11_1</title>
<ellipse fill="#ffff00" stroke="#ffff00" cx="73.59" cy="-192" rx="68.79" ry="18"/>
<text text-anchor="middle" x="73.59" y="-188.3" font-family="Times,serif" font-size="14.00">हरि&#45;(11.1)</text>
</g>
<!-- Node11_2 -->
<g id="node15" class="node">
<title>Node11_2</title>
<ellipse fill="#00bfff" stroke="#00bfff" cx="93.59" cy="-279" rx="93.68" ry="18"/>
<text text-anchor="middle" x="93.59" y="-275.3" font-family="Times,serif" font-size="14.00">सत्तमः(11.2)</text>
</g>
<!-- Node11_1&#45;&gt;Node11_2 -->
<g id="edge11" class="edge">
<title>Node11_1&#45;&gt;Node11_2</title>
<path fill="none" stroke="black" d="M80.01,-220.27C83.14,-233.58 86.81,-249.19 89.55,-260.82"/>
<polygon fill="black" stroke="black" points="83.34,-219.13 77.64,-210.2 76.52,-220.74 83.34,-219.13"/>
<text text-anchor="middle" x="196.09" y="-231.8" font-family="Times,serif" font-size="14.00">सप्तमी_तत्पुरुषः</text>
</g>
<!-- Node11_2&#45;&gt;Node10_1 -->
<g id="edge12" class="edge">
<title>Node11_2&#45;&gt;Node10_1</title>
<path fill="none" stroke="black" d="M121.5,-303.49C138.5,-317.8 159.81,-335.73 175.02,-348.53"/>
<polygon fill="black" stroke="black" points="123.45,-300.55 113.55,-296.79 118.94,-305.91 123.45,-300.55"/>
<text text-anchor="middle" x="185.59" y="-318.8" font-family="Times,serif" font-size="14.00">कर्ता</text>
</g>
</g>
</svg>
