<svg xmlns="http://www.w3.org/2000/svg" xmlns:xlink="http://www.w3.org/1999/xlink" width="1516" height="305pt" viewBox="0 0 1136.69 305"><g id="graph0" class="graph" transform="scale(1 1) rotate(0) translate(4 301)"><title>G</title><polygon fill="#fffacd" stroke="transparent" points="-4 4 -4 -301 1132.69 -301 1132.69 4 -4 4"/><g id="node1" class="node"><title>Node1_1</title><ellipse cx="115.69" cy="-18" fill="#87ceeb" stroke="#87ceeb" rx="115.88" ry="18"/><text x="115.69" y="-14.3" font-family="Times,serif" font-size="14" text-anchor="middle">सर्वेषाम्(1.1)</text></g><g id="node2" class="node"><title>Node3_1</title><ellipse cx="115.69" cy="-105" fill="#93db70" stroke="#93db70" rx="87.99" ry="18"/><text x="115.69" y="-101.3" font-family="Times,serif" font-size="14" text-anchor="middle">भवनानि(3.1)</text></g><g id="edge1" class="edge"><title>Node1_1-&gt;Node3_1</title><path fill="none" stroke="#000" d="M115.69,-46.27C115.69,-59.58 115.69,-75.19 115.69,-86.82"/><polygon fill="#000" stroke="#000" points="119.19 -46.2 115.69 -36.2 112.19 -46.2 119.19 -46.2"/><text x="208.69" y="-57.8" font-family="Times,serif" font-size="14" text-anchor="middle">षष्ठीसम्बन्धः</text></g><g id="node3" class="node"><title>Node2_1</title><ellipse cx="267.69" cy="-192" fill="#f9f" stroke="#f9f" rx="124.58" ry="18"/><text x="267.69" y="-188.3" font-family="Times,serif" font-size="14" text-anchor="middle">समतिक्रम्य(2.1)</text></g><g id="edge3" class="edge"><title>Node3_1-&gt;Node2_1</title><path fill="none" stroke="#000" d="M153.51,-127.15C179.65,-141.77 213.92,-160.93 238.07,-174.44"/><polygon fill="#000" stroke="#000" points="155.07 -124.01 144.64 -122.19 151.66 -130.12 155.07 -124.01"/><text x="230.69" y="-144.8" font-family="Times,serif" font-size="14" text-anchor="middle">कर्म</text></g><g id="node4" class="node"><title>Node5_1</title><ellipse cx="561.69" cy="-279" fill="#ff1975" stroke="#ff1975" rx="78.79" ry="18"/><text x="561.69" y="-275.3" font-family="Times,serif" font-size="14" text-anchor="middle">आससाद(5.1)</text></g><g id="edge2" class="edge"><title>Node2_1-&gt;Node5_1</title><path fill="none" stroke="#000" d="M305.89,-214.39C325.12,-224.36 349.1,-235.64 371.69,-243 411.07,-255.84 456.68,-264.44 493.33,-269.9"/><polygon fill="#000" stroke="#000" points="307.33 -211.19 296.85 -209.61 304.06 -217.38 307.33 -211.19"/><text x="436.19" y="-231.8" font-family="Times,serif" font-size="14" text-anchor="middle">पूर्वकालः</text></g><g id="node5" class="node"><title>Node4_1</title><ellipse cx="318.69" cy="-105" fill="#f9f" stroke="#f9f" rx="96.68" ry="18"/><text x="318.69" y="-101.3" font-family="Times,serif" font-size="14" text-anchor="middle">समन्ततः(4.1)</text></g><g id="edge4" class="edge"><title>Node4_1-&gt;Node2_1</title><path fill="none" stroke="#000" d="M303.04,-132.09C294.9,-145.65 285.18,-161.85 277.99,-173.82"/><polygon fill="#000" stroke="#000" points="306.23 -133.58 308.37 -123.2 300.22 -129.98 306.23 -133.58"/><text x="374.19" y="-144.8" font-family="Times,serif" font-size="14" text-anchor="middle">देशाधिकरणम्</text></g><g id="node6" class="node"><title>Node6_1</title><ellipse cx="460.69" cy="-192" fill="#f9f" stroke="#f9f" rx="50.89" ry="18"/><text x="460.69" y="-188.3" font-family="Times,serif" font-size="14" text-anchor="middle">अथ(6.1)</text></g><g id="edge5" class="edge"><title>Node6_1-&gt;Node5_1</title><path fill="none" stroke="#000" d="M487.68,-215.71C504.81,-230.13 526.6,-248.47 542.09,-261.5"/><polygon fill="#000" stroke="#000" points="489.59 -212.75 479.69 -208.99 485.08 -218.1 489.59 -212.75"/><text x="574.19" y="-231.8" font-family="Times,serif" font-size="14" text-anchor="middle">सम्बन्धः</text></g><g id="node7" class="node"><title>Node7_1</title><ellipse cx="663.69" cy="-192" fill="#00bfff" stroke="#00bfff" rx="133.78" ry="18"/><text x="663.69" y="-188.3" font-family="Times,serif" font-size="14" text-anchor="middle">लक्ष्मीवान्(7.1)</text></g><g id="edge6" class="edge"><title>Node7_1-&gt;Node5_1</title><path fill="none" stroke="#000" d="M652.92,-219.19C648.51,-227.58 642.77,-236.39 635.69,-243 626.55,-251.53 614.95,-258.34 603.66,-263.59"/><polygon fill="#000" stroke="#000" points="656.13 -220.57 657.31 -210.04 649.83 -217.54 656.13 -220.57"/><text x="682.69" y="-231.8" font-family="Times,serif" font-size="14" text-anchor="middle">कर्ता</text></g><g id="node8" class="node"><title>Node8_1</title><ellipse cx="921.69" cy="-18" fill="#ff0" stroke="#ff0" rx="90.98" ry="18"/><text x="921.69" y="-14.3" font-family="Times,serif" font-size="14" text-anchor="middle">राक्षस-(8.1)</text></g><g id="node9" class="node"><title>Node8_2</title><ellipse cx="921.69" cy="-105" fill="#ff0" stroke="#ff0" rx="90.98" ry="18"/><text x="921.69" y="-101.3" font-family="Times,serif" font-size="14" text-anchor="middle">इन्द्र-(8.2)</text></g><g id="edge7" class="edge"><title>Node8_1-&gt;Node8_2</title><path fill="none" stroke="#000" d="M921.69,-46.27C921.69,-59.58 921.69,-75.19 921.69,-86.82"/><polygon fill="#000" stroke="#000" points="925.19 -46.2 921.69 -36.2 918.19 -46.2 925.19 -46.2"/><text x="1025.19" y="-57.8" font-family="Times,serif" font-size="14" text-anchor="middle">षष्ठी_तत्पुरुषः</text></g><g id="node10" class="node"><title>Node8_3</title><ellipse cx="921.69" cy="-192" fill="#93db70" stroke="#93db70" rx="106.68" ry="18"/><text x="921.69" y="-188.3" font-family="Times,serif" font-size="14" text-anchor="middle">निवेशनम्(8.3)</text></g><g id="edge8" class="edge"><title>Node8_2-&gt;Node8_3</title><path fill="none" stroke="#000" d="M921.69,-133.27C921.69,-146.58 921.69,-162.19 921.69,-173.82"/><polygon fill="#000" stroke="#000" points="925.19 -133.2 921.69 -123.2 918.19 -133.2 925.19 -133.2"/><text x="1025.19" y="-144.8" font-family="Times,serif" font-size="14" text-anchor="middle">षष्ठी_तत्पुरुषः</text></g><g id="edge9" class="edge"><title>Node8_3-&gt;Node5_1</title><path fill="none" stroke="#000" d="M855.95,-210.08C817.24,-220 767.26,-232.56 722.69,-243 687.88,-251.16 648.68,-259.69 617.67,-266.29"/><polygon fill="#000" stroke="#000" points="857.23 -213.36 866.05 -207.49 855.49 -206.58 857.23 -213.36"/><text x="811.69" y="-231.8" font-family="Times,serif" font-size="14" text-anchor="middle">कर्म</text></g></g></svg>