<?xml version="1.0" encoding="UTF-8" standalone="no"?>
<!DOCTYPE svg PUBLIC "-//W3C//DTD SVG 1.1//EN"
 "http://www.w3.org/Graphics/SVG/1.1/DTD/svg11.dtd">
<!-- Generated by graphviz version 2.43.0 (0)
 -->
<!-- Title: G Pages: 1 -->
<svg width="1719pt" height="408pt"
 viewBox="0.00 0.00 1719.24 408.00" xmlns="http://www.w3.org/2000/svg" xmlns:xlink="http://www.w3.org/1999/xlink">
<g id="graph0" class="graph" transform="scale(1 1) rotate(0) translate(4 404)">
<title>G</title>
<polygon fill="#fffacd" stroke="transparent" points="-4,4 -4,-404 1715.24,-404 1715.24,4 -4,4"/>
<g id="clust1" class="cluster">
<title>cluster_1</title>
<polygon fill="#fffacd" stroke="black" points="831.24,-182 831.24,-321 1097.24,-321 1097.24,-182 831.24,-182"/>
</g>
<g id="clust2" class="cluster">
<title>cluster_2</title>
<polygon fill="#fffacd" stroke="black" points="1052.24,-8 1052.24,-147 1274.24,-147 1274.24,-8 1052.24,-8"/>
</g>
<g id="clust3" class="cluster">
<title>cluster_3</title>
<polygon fill="#fffacd" stroke="black" points="1282.24,-8 1282.24,-147 1486.24,-147 1486.24,-8 1282.24,-8"/>
</g>
<!-- Node1_1 -->
<g id="node1" class="node">
<title>Node1_1</title>
<ellipse fill="#93db70" stroke="#93db70" cx="964.24" cy="-208" rx="124.58" ry="18"/>
<text text-anchor="middle" x="964.24" y="-204.3" font-family="Times,serif" font-size="14.00">विराजमानम्(1.1)</text>
</g>
<!-- Node3_4 -->
<g id="node2" class="node">
<title>Node3_4</title>
<ellipse fill="#93db70" stroke="#93db70" cx="946.24" cy="-295" rx="106.68" ry="18"/>
<text text-anchor="middle" x="946.24" y="-291.3" font-family="Times,serif" font-size="14.00">सङ्कुलम्(3.4)</text>
</g>
<!-- Node1_1&#45;&gt;Node3_4 -->
<g id="edge1" class="edge">
<title>Node1_1&#45;&gt;Node3_4</title>
<path fill="none" stroke="black" d="M958.47,-236.27C955.65,-249.58 952.34,-265.19 949.88,-276.82"/>
<polygon fill="black" stroke="black" points="961.95,-236.71 960.6,-226.2 955.1,-235.26 961.95,-236.71"/>
<text text-anchor="middle" x="1014.74" y="-247.8" font-family="Times,serif" font-size="14.00">विशेषणम्</text>
</g>
<!-- Node8_1 -->
<g id="node11" class="node">
<title>Node8_1</title>
<ellipse fill="#ff1975" stroke="#ff1975" cx="587.24" cy="-382" rx="87.99" ry="18"/>
<text text-anchor="middle" x="587.24" y="-378.3" font-family="Times,serif" font-size="14.00">अमन्यत(8.1)</text>
</g>
<!-- Node3_4&#45;&gt;Node8_1 -->
<g id="edge6" class="edge">
<title>Node3_4&#45;&gt;Node8_1</title>
<path fill="none" stroke="black" d="M877.14,-312.36C808.8,-328.54 705.55,-352.99 642.48,-367.92"/>
<polygon fill="black" stroke="black" points="878.04,-315.75 886.96,-310.04 876.42,-308.93 878.04,-315.75"/>
<text text-anchor="middle" x="902.74" y="-334.8" font-family="Times,serif" font-size="14.00">कर्मसमानाधिकरणम्</text>
</g>
<!-- Node7_1 -->
<g id="node3" class="node">
<title>Node7_1</title>
<ellipse fill="#00bfff" stroke="#00bfff" cx="1151.24" cy="-34" rx="50.89" ry="18"/>
<text text-anchor="middle" x="1151.24" y="-30.3" font-family="Times,serif" font-size="14.00">सः(7.1)</text>
</g>
<!-- Node11_1 -->
<g id="node4" class="node">
<title>Node11_1</title>
<ellipse fill="#00bfff" stroke="#00bfff" cx="1163.24" cy="-121" rx="102.88" ry="18"/>
<text text-anchor="middle" x="1163.24" y="-117.3" font-family="Times,serif" font-size="14.00">हनुमान्(11.1)</text>
</g>
<!-- Node7_1&#45;&gt;Node11_1 -->
<g id="edge11" class="edge">
<title>Node7_1&#45;&gt;Node11_1</title>
<path fill="none" stroke="black" d="M1155.09,-62.27C1156.97,-75.58 1159.18,-91.19 1160.82,-102.82"/>
<polygon fill="black" stroke="black" points="1158.53,-61.61 1153.67,-52.2 1151.6,-62.59 1158.53,-61.61"/>
<text text-anchor="middle" x="1214.74" y="-73.8" font-family="Times,serif" font-size="14.00">विशेषणम्</text>
</g>
<!-- Node10_1 -->
<g id="node18" class="node">
<title>Node10_1</title>
<ellipse fill="#ff1975" stroke="#ff1975" cx="1273.24" cy="-208" rx="75.29" ry="18"/>
<text text-anchor="middle" x="1273.24" y="-204.3" font-family="Times,serif" font-size="14.00">चचार(10.1)</text>
</g>
<!-- Node11_1&#45;&gt;Node10_1 -->
<g id="edge14" class="edge">
<title>Node11_1&#45;&gt;Node10_1</title>
<path fill="none" stroke="black" d="M1193.14,-145.1C1211.73,-159.47 1235.21,-177.61 1251.93,-190.53"/>
<polygon fill="black" stroke="black" points="1195.03,-142.14 1184.98,-138.79 1190.75,-147.68 1195.03,-142.14"/>
<text text-anchor="middle" x="1260.24" y="-160.8" font-family="Times,serif" font-size="14.00">कर्ता</text>
</g>
<!-- Node12_1 -->
<g id="node5" class="node">
<title>Node12_1</title>
<ellipse fill="#ff99ff" stroke="#ff99ff" cx="1365.24" cy="-34" rx="75.29" ry="18"/>
<text text-anchor="middle" x="1365.24" y="-30.3" font-family="Times,serif" font-size="14.00">तत्र(12.1)</text>
</g>
<!-- Node14_1 -->
<g id="node6" class="node">
<title>Node14_1</title>
<ellipse fill="#ff99ff" stroke="#ff99ff" cx="1384.24" cy="-121" rx="93.68" ry="18"/>
<text text-anchor="middle" x="1384.24" y="-117.3" font-family="Times,serif" font-size="14.00">समीपतः(14.1)</text>
</g>
<!-- Node12_1&#45;&gt;Node14_1 -->
<g id="edge15" class="edge">
<title>Node12_1&#45;&gt;Node14_1</title>
<path fill="none" stroke="black" d="M1371.34,-62.27C1374.31,-75.58 1377.8,-91.19 1380.4,-102.82"/>
<polygon fill="black" stroke="black" points="1374.68,-61.2 1369.09,-52.2 1367.85,-62.72 1374.68,-61.2"/>
<text text-anchor="middle" x="1432.74" y="-73.8" font-family="Times,serif" font-size="14.00">विशेषणम्</text>
</g>
<!-- Node14_1&#45;&gt;Node10_1 -->
<g id="edge17" class="edge">
<title>Node14_1&#45;&gt;Node10_1</title>
<path fill="none" stroke="black" d="M1354.6,-144.7C1335.79,-159.1 1311.88,-177.42 1294.85,-190.45"/>
<polygon fill="black" stroke="black" points="1356.77,-147.45 1362.58,-138.59 1352.51,-141.89 1356.77,-147.45"/>
<text text-anchor="middle" x="1413.74" y="-160.8" font-family="Times,serif" font-size="14.00">देशाधिकरणम्</text>
</g>
<!-- Node2_1 -->
<g id="node7" class="node">
<title>Node2_1</title>
<ellipse fill="#40e0d0" stroke="#40e0d0" cx="964.24" cy="-121" rx="78.79" ry="18"/>
<text text-anchor="middle" x="964.24" y="-117.3" font-family="Times,serif" font-size="14.00">वपुषा(2.1)</text>
</g>
<!-- Node2_1&#45;&gt;Node1_1 -->
<g id="edge2" class="edge">
<title>Node2_1&#45;&gt;Node1_1</title>
<path fill="none" stroke="black" d="M964.24,-149.27C964.24,-162.58 964.24,-178.19 964.24,-189.82"/>
<polygon fill="black" stroke="black" points="967.74,-149.2 964.24,-139.2 960.74,-149.2 967.74,-149.2"/>
<text text-anchor="middle" x="1000.24" y="-160.8" font-family="Times,serif" font-size="14.00">करणम्</text>
</g>
<!-- Node3_1 -->
<g id="node8" class="node">
<title>Node3_1</title>
<ellipse fill="#ffff00" stroke="#ffff00" cx="739.24" cy="-34" rx="53.89" ry="18"/>
<text text-anchor="middle" x="739.24" y="-30.3" font-family="Times,serif" font-size="14.00">गज&#45;(3.1)</text>
</g>
<!-- Node3_2 -->
<g id="node9" class="node">
<title>Node3_2</title>
<ellipse fill="#ffff00" stroke="#ffff00" cx="739.24" cy="-121" rx="72.29" ry="18"/>
<text text-anchor="middle" x="739.24" y="-117.3" font-family="Times,serif" font-size="14.00">अश्व&#45;(3.2)</text>
</g>
<!-- Node3_1&#45;&gt;Node3_2 -->
<g id="edge3" class="edge">
<title>Node3_1&#45;&gt;Node3_2</title>
<path fill="none" stroke="black" d="M739.24,-62.27C739.24,-75.58 739.24,-91.19 739.24,-102.82"/>
<polygon fill="black" stroke="black" points="742.74,-62.2 739.24,-52.2 735.74,-62.2 742.74,-62.2"/>
<text text-anchor="middle" x="803.74" y="-73.8" font-family="Times,serif" font-size="14.00">द्वन्द्वः</text>
</g>
<!-- Node3_3 -->
<g id="node10" class="node">
<title>Node3_3</title>
<ellipse fill="#ffff00" stroke="#ffff00" cx="739.24" cy="-208" rx="53.89" ry="18"/>
<text text-anchor="middle" x="739.24" y="-204.3" font-family="Times,serif" font-size="14.00">रथ&#45;(3.3)</text>
</g>
<!-- Node3_2&#45;&gt;Node3_3 -->
<g id="edge4" class="edge">
<title>Node3_2&#45;&gt;Node3_3</title>
<path fill="none" stroke="black" d="M739.24,-149.27C739.24,-162.58 739.24,-178.19 739.24,-189.82"/>
<polygon fill="black" stroke="black" points="742.74,-149.2 739.24,-139.2 735.74,-149.2 742.74,-149.2"/>
<text text-anchor="middle" x="803.74" y="-160.8" font-family="Times,serif" font-size="14.00">द्वन्द्वः</text>
</g>
<!-- Node3_3&#45;&gt;Node3_4 -->
<g id="edge5" class="edge">
<title>Node3_3&#45;&gt;Node3_4</title>
<path fill="none" stroke="black" d="M735.39,-236.41C735.71,-244.57 737.71,-252.94 743.24,-259 757.68,-274.81 803.03,-283.49 847.21,-288.25"/>
<polygon fill="black" stroke="black" points="738.89,-236.49 735.74,-226.37 731.89,-236.24 738.89,-236.49"/>
<text text-anchor="middle" x="846.74" y="-247.8" font-family="Times,serif" font-size="14.00">षष्ठी_तत्पुरुषः</text>
</g>
<!-- Node4_1 -->
<g id="node12" class="node">
<title>Node4_1</title>
<ellipse fill="#ffff00" stroke="#ffff00" cx="81.24" cy="-208" rx="81.49" ry="18"/>
<text text-anchor="middle" x="81.24" y="-204.3" font-family="Times,serif" font-size="14.00">लङ्का&#45;(4.1)</text>
</g>
<!-- Node4_2 -->
<g id="node13" class="node">
<title>Node4_2</title>
<ellipse fill="#93db70" stroke="#93db70" cx="362.24" cy="-295" rx="87.99" ry="18"/>
<text text-anchor="middle" x="362.24" y="-291.3" font-family="Times,serif" font-size="14.00">आभरणम्(4.2)</text>
</g>
<!-- Node4_1&#45;&gt;Node4_2 -->
<g id="edge7" class="edge">
<title>Node4_1&#45;&gt;Node4_2</title>
<path fill="none" stroke="black" d="M84.26,-236.42C86.54,-244.83 90.48,-253.35 97.24,-259 123.68,-281.1 208.62,-289.34 275.29,-292.36"/>
<polygon fill="black" stroke="black" points="87.65,-235.52 82.22,-226.42 80.79,-236.92 87.65,-235.52"/>
<text text-anchor="middle" x="200.74" y="-247.8" font-family="Times,serif" font-size="14.00">षष्ठी_तत्पुरुषः</text>
</g>
<!-- Node4_2&#45;&gt;Node8_1 -->
<g id="edge8" class="edge">
<title>Node4_2&#45;&gt;Node8_1</title>
<path fill="none" stroke="black" d="M411.67,-314.67C452.39,-330.05 509.39,-351.59 547.27,-365.9"/>
<polygon fill="black" stroke="black" points="412.8,-311.36 402.21,-311.1 410.33,-317.91 412.8,-311.36"/>
<text text-anchor="middle" x="517.24" y="-334.8" font-family="Times,serif" font-size="14.00">कर्म</text>
</g>
<!-- Node5_1 -->
<g id="node14" class="node">
<title>Node5_1</title>
<ellipse fill="#ff99ff" stroke="#ff99ff" cx="311.24" cy="-208" rx="59.59" ry="18"/>
<text text-anchor="middle" x="311.24" y="-204.3" font-family="Times,serif" font-size="14.00">इति(5.1)</text>
</g>
<!-- Node5_1&#45;&gt;Node4_2 -->
<g id="edge9" class="edge">
<title>Node5_1&#45;&gt;Node4_2</title>
<path fill="none" stroke="black" d="M307.32,-236.27C307.37,-243.99 308.59,-252.15 312.24,-259 316.33,-266.67 322.93,-273.01 330.01,-278.1"/>
<polygon fill="black" stroke="black" points="310.82,-236.35 307.87,-226.18 303.83,-235.97 310.82,-236.35"/>
<text text-anchor="middle" x="369.74" y="-247.8" font-family="Times,serif" font-size="14.00">सम्बन्धः</text>
</g>
<!-- Node6_1 -->
<g id="node15" class="node">
<title>Node6_1</title>
<ellipse fill="#ff99ff" stroke="#ff99ff" cx="449.24" cy="-208" rx="50.89" ry="18"/>
<text text-anchor="middle" x="449.24" y="-204.3" font-family="Times,serif" font-size="14.00">एव(6.1)</text>
</g>
<!-- Node6_1&#45;&gt;Node4_2 -->
<g id="edge10" class="edge">
<title>Node6_1&#45;&gt;Node4_2</title>
<path fill="none" stroke="black" d="M441.21,-235.9C437.85,-244 433.28,-252.46 427.24,-259 419.85,-267 410.2,-273.55 400.61,-278.73"/>
<polygon fill="black" stroke="black" points="444.56,-236.95 444.74,-226.36 437.99,-234.52 444.56,-236.95"/>
<text text-anchor="middle" x="495.74" y="-247.8" font-family="Times,serif" font-size="14.00">सम्बन्धः</text>
</g>
<!-- Node9_1 -->
<g id="node16" class="node">
<title>Node9_1</title>
<ellipse fill="#ffff00" stroke="#ffff00" cx="587.24" cy="-208" rx="63.09" ry="18"/>
<text text-anchor="middle" x="587.24" y="-204.3" font-family="Times,serif" font-size="14.00">महा&#45;(9.1)</text>
</g>
<!-- Node9_2 -->
<g id="node17" class="node">
<title>Node9_2</title>
<ellipse fill="#00bfff" stroke="#00bfff" cx="587.24" cy="-295" rx="69.59" ry="18"/>
<text text-anchor="middle" x="587.24" y="-291.3" font-family="Times,serif" font-size="14.00">कपिः(9.2)</text>
</g>
<!-- Node9_1&#45;&gt;Node9_2 -->
<g id="edge12" class="edge">
<title>Node9_1&#45;&gt;Node9_2</title>
<path fill="none" stroke="black" d="M587.24,-236.27C587.24,-249.58 587.24,-265.19 587.24,-276.82"/>
<polygon fill="black" stroke="black" points="590.74,-236.2 587.24,-226.2 583.74,-236.2 590.74,-236.2"/>
<text text-anchor="middle" x="651.74" y="-247.8" font-family="Times,serif" font-size="14.00">कर्मधारयः</text>
</g>
<!-- Node9_2&#45;&gt;Node8_1 -->
<g id="edge13" class="edge">
<title>Node9_2&#45;&gt;Node8_1</title>
<path fill="none" stroke="black" d="M587.24,-323.27C587.24,-336.58 587.24,-352.19 587.24,-363.82"/>
<polygon fill="black" stroke="black" points="590.74,-323.2 587.24,-313.2 583.74,-323.2 590.74,-323.2"/>
<text text-anchor="middle" x="623.24" y="-334.8" font-family="Times,serif" font-size="14.00">कर्ता</text>
</g>
<!-- Node13_1 -->
<g id="node19" class="node">
<title>Node13_1</title>
<ellipse fill="#87ceeb" stroke="#87ceeb" cx="1597.24" cy="-34" rx="102.88" ry="18"/>
<text text-anchor="middle" x="1597.24" y="-30.3" font-family="Times,serif" font-size="14.00">रावणस्य(13.1)</text>
</g>
<!-- Node13_1&#45;&gt;Node14_1 -->
<g id="edge16" class="edge">
<title>Node13_1&#45;&gt;Node14_1</title>
<path fill="none" stroke="black" d="M1557.74,-55.83C1538.82,-65.38 1515.66,-76.45 1494.24,-85 1474.98,-92.69 1453.31,-99.89 1434.33,-105.73"/>
<polygon fill="black" stroke="black" points="1559.34,-58.94 1566.67,-51.28 1556.17,-52.7 1559.34,-58.94"/>
<text text-anchor="middle" x="1618.24" y="-73.8" font-family="Times,serif" font-size="14.00">षष्ठीसम्बन्धः</text>
</g>
</g>
</svg>
