<svg xmlns="http://www.w3.org/2000/svg" xmlns:xlink="http://www.w3.org/1999/xlink" width="1433pt" height="392pt" viewBox="0 0 1433 392"><g id="graph0" class="graph" transform="scale(1 1) rotate(0) translate(4 388)"><title>G</title><polygon fill="#fffacd" stroke="transparent" points="-4 4 -4 -388 1429 -388 1429 4 -4 4"/><g id="clust1" class="cluster"><title>cluster_1</title><polygon fill="#fffacd" stroke="#000" points="375 -79 375 -218 1378 -218 1378 -79 375 -79"/></g><g id="clust2" class="cluster"><title>cluster_2</title><polygon fill="#fffacd" stroke="#000" points="8 -166 8 -305 200 -305 200 -166 8 -166"/></g><g id="node1" class="node"><title>Node1_2</title><ellipse cx="849" cy="-105" fill="#87ceeb" stroke="#87ceeb" rx="96.68" ry="18"/><text x="849" y="-101.3" font-family="Times,serif" font-size="14" text-anchor="middle">अक्षस्य(1.2)</text></g><g id="node2" class="node"><title>Node9_1</title><ellipse cx="697" cy="-192" fill="#87ceeb" stroke="#87ceeb" rx="96.68" ry="18"/><text x="697" y="-188.3" font-family="Times,serif" font-size="14" text-anchor="middle">विघनस्य(9.1)</text></g><g id="edge2" class="edge"><title>Node1_2-&gt;Node9_1</title><path fill="none" stroke="#000" d="M836.64,-131.94C831.36,-140.67 824.44,-149.76 816,-156 801.46,-166.76 783.64,-174.22 766.27,-179.4"/><polygon fill="#000" stroke="#000" points="839.74 -133.56 841.54 -123.12 833.62 -130.15 839.74 -133.56"/><text x="894.5" y="-144.8" font-family="Times,serif" font-size="14" text-anchor="middle">समुच्चितः</text></g><g id="node12" class="node"><title>Node4_1</title><ellipse cx="532" cy="-279" fill="#93db70" stroke="#93db70" rx="78.79" ry="18"/><text x="532" y="-275.3" font-family="Times,serif" font-size="14" text-anchor="middle">भवनम्(4.1)</text></g><g id="edge12" class="edge"><title>Node9_1-&gt;Node4_1</title><path fill="none" stroke="#000" d="M656.51,-213.86C627.46,-228.83 588.93,-248.67 562.47,-262.3"/><polygon fill="#000" stroke="#000" points="658.29 -216.88 665.58 -209.19 655.08 -210.66 658.29 -216.88"/><text x="718" y="-231.8" font-family="Times,serif" font-size="14" text-anchor="middle">षष्ठीसम्बन्धः</text></g><g id="node3" class="node"><title>Node3_1</title><ellipse cx="1070" cy="-105" fill="#87ceeb" stroke="#87ceeb" rx="106.68" ry="18"/><text x="1070" y="-101.3" font-family="Times,serif" font-size="14" text-anchor="middle">सम्पातेः(3.1)</text></g><g id="edge4" class="edge"><title>Node3_1-&gt;Node9_1</title><path fill="none" stroke="#000" d="M1031.92,-127.29C1011.96,-137.53 986.79,-149.06 963,-156 906.21,-172.57 840.31,-181.32 788.3,-185.92"/><polygon fill="#000" stroke="#000" points="1033.74 -130.28 1040.98 -122.54 1030.49 -124.08 1033.74 -130.28"/><text x="1067.5" y="-144.8" font-family="Times,serif" font-size="14" text-anchor="middle">समुच्चितः</text></g><g id="node4" class="node"><title>Node6_2</title><ellipse cx="1282" cy="-105" fill="#87ceeb" stroke="#87ceeb" rx="87.99" ry="18"/><text x="1282" y="-101.3" font-family="Times,serif" font-size="14" text-anchor="middle">रूपस्य(6.2)</text></g><g id="edge9" class="edge"><title>Node6_2-&gt;Node9_1</title><path fill="none" stroke="#000" d="M1235.6,-125.23C1207.31,-136.1 1170.14,-148.91 1136,-156 1019.78,-180.13 883.07,-187.87 793.46,-190.22"/><polygon fill="#000" stroke="#000" points="1237.17 -128.37 1245.21 -121.47 1234.62 -121.85 1237.17 -128.37"/><text x="1253.5" y="-144.8" font-family="Times,serif" font-size="14" text-anchor="middle">समुच्चितः</text></g><g id="node5" class="node"><title>Node7_1</title><ellipse cx="646" cy="-105" fill="#87ceeb" stroke="#87ceeb" rx="87.99" ry="18"/><text x="646" y="-101.3" font-family="Times,serif" font-size="14" text-anchor="middle">भीमस्य(7.1)</text></g><g id="edge10" class="edge"><title>Node7_1-&gt;Node9_1</title><path fill="none" stroke="#000" d="M667.88,-130.72C670.42,-134.07 672.87,-137.55 675,-141 681.38,-151.33 686.88,-163.83 690.78,-173.75"/><polygon fill="#000" stroke="#000" points="670.45 -128.33 661.46 -122.73 664.99 -132.72 670.45 -128.33"/><text x="747.5" y="-144.8" font-family="Times,serif" font-size="14" text-anchor="middle">समुच्चितः</text></g><g id="node6" class="node"><title>Node8_1</title><ellipse cx="462" cy="-105" fill="#87ceeb" stroke="#87ceeb" rx="78.79" ry="18"/><text x="462" y="-101.3" font-family="Times,serif" font-size="14" text-anchor="middle">घनस्य(8.1)</text></g><g id="edge11" class="edge"><title>Node8_1-&gt;Node9_1</title><path fill="none" stroke="#000" d="M500.23,-126.78C507.89,-131.27 515.8,-136.13 523,-141 531.91,-147.03 532.29,-151.37 542,-156 566.4,-167.64 594.83,-175.5 620.64,-180.76"/><polygon fill="#000" stroke="#000" points="501.8 -123.65 491.39 -121.71 498.32 -129.72 501.8 -123.65"/><text x="606.5" y="-144.8" font-family="Times,serif" font-size="14" text-anchor="middle">समुच्चितः</text></g><g id="node7" class="node"><title>Node5_2</title><ellipse cx="104" cy="-192" fill="#00bfff" stroke="#00bfff" rx="87.99" ry="18"/><text x="104" y="-188.3" font-family="Times,serif" font-size="14" text-anchor="middle">आत्मजः(5.2)</text></g><g id="node8" class="node"><title>Node11_2</title><ellipse cx="117" cy="-279" fill="#00bfff" stroke="#00bfff" rx="75.29" ry="18"/><text x="117" y="-275.3" font-family="Times,serif" font-size="14" text-anchor="middle">कपिः(11.2)</text></g><g id="edge7" class="edge"><title>Node5_2-&gt;Node11_2</title><path fill="none" stroke="#000" d="M108.17,-220.27C110.21,-233.58 112.59,-249.19 114.37,-260.82"/><polygon fill="#000" stroke="#000" points="111.6 -219.56 106.63 -210.2 104.68 -220.62 111.6 -219.56"/><text x="169.5" y="-231.8" font-family="Times,serif" font-size="14" text-anchor="middle">विशेषणम्</text></g><g id="node11" class="node"><title>Node12_1</title><ellipse cx="307" cy="-366" fill="#ff1975" stroke="#ff1975" rx="84.49" ry="18"/><text x="307" y="-362.3" font-family="Times,serif" font-size="14" text-anchor="middle">ददर्श(12.1)</text></g><g id="edge15" class="edge"><title>Node11_2-&gt;Node12_1</title><path fill="none" stroke="#000" d="M160.19,-299.32C194.14,-314.51 240.83,-335.4 272.36,-349.5"/><polygon fill="#000" stroke="#000" points="161.53 -296.09 150.97 -295.2 158.67 -302.47 161.53 -296.09"/><text x="260" y="-318.8" font-family="Times,serif" font-size="14" text-anchor="middle">कर्ता</text></g><g id="node9" class="node"><title>Node1_1</title><ellipse cx="849" cy="-18" fill="#ff0" stroke="#ff0" rx="81.49" ry="18"/><text x="849" y="-14.3" font-family="Times,serif" font-size="14" text-anchor="middle">धूम्र-(1.1)</text></g><g id="edge1" class="edge"><title>Node1_1-&gt;Node1_2</title><path fill="none" stroke="#000" d="M849,-46.27C849,-59.58 849,-75.19 849,-86.82"/><polygon fill="#000" stroke="#000" points="852.5 -46.2 849 -36.2 845.5 -46.2 852.5 -46.2"/><text x="920.5" y="-57.8" font-family="Times,serif" font-size="14" text-anchor="middle">बहुव्रीहिः</text></g><g id="node10" class="node"><title>Node2_1</title><ellipse cx="307" cy="-279" fill="#f9f" stroke="#f9f" rx="50.89" ry="18"/><text x="307" y="-275.3" font-family="Times,serif" font-size="14" text-anchor="middle">अथ(2.1)</text></g><g id="edge3" class="edge"><title>Node2_1-&gt;Node12_1</title><path fill="none" stroke="#000" d="M307,-307.27C307,-320.58 307,-336.19 307,-347.82"/><polygon fill="#000" stroke="#000" points="310.5 -307.2 307 -297.2 303.5 -307.2 310.5 -307.2"/><text x="364.5" y="-318.8" font-family="Times,serif" font-size="14" text-anchor="middle">सम्बन्धः</text></g><g id="edge5" class="edge"><title>Node4_1-&gt;Node12_1</title><path fill="none" stroke="#000" d="M492.93,-300.21C473.18,-309.96 448.66,-321.38 426,-330 404.26,-338.27 379.69,-345.79 358.53,-351.72"/><polygon fill="#000" stroke="#000" points="494.54 -303.31 501.93 -295.71 491.42 -297.05 494.54 -303.31"/><text x="491" y="-318.8" font-family="Times,serif" font-size="14" text-anchor="middle">कर्म</text></g><g id="node13" class="node"><title>Node5_1</title><ellipse cx="85" cy="-105" fill="#ff0" stroke="#ff0" rx="81.49" ry="18"/><text x="85" y="-101.3" font-family="Times,serif" font-size="14" text-anchor="middle">मारुत-(5.1)</text></g><g id="edge6" class="edge"><title>Node5_1-&gt;Node5_2</title><path fill="none" stroke="#000" d="M83.32,-133.64C83.48,-140.99 84.2,-148.87 86,-156 87.54,-162.09 90.3,-168.33 93.2,-173.82"/><polygon fill="#000" stroke="#000" points="86.83 -133.42 83.44 -123.38 79.83 -133.34 86.83 -133.42"/><text x="189.5" y="-144.8" font-family="Times,serif" font-size="14" text-anchor="middle">षष्ठी_तत्पुरुषः</text></g><g id="node14" class="node"><title>Node6_1</title><ellipse cx="1282" cy="-18" fill="#ff0" stroke="#ff0" rx="109.38" ry="18"/><text x="1282" y="-14.3" font-family="Times,serif" font-size="14" text-anchor="middle">विद्युत्-(6.1)</text></g><g id="edge8" class="edge"><title>Node6_1-&gt;Node6_2</title><path fill="none" stroke="#000" d="M1282,-46.27C1282,-59.58 1282,-75.19 1282,-86.82"/><polygon fill="#000" stroke="#000" points="1285.5 -46.2 1282 -36.2 1278.5 -46.2 1285.5 -46.2"/><text x="1353.5" y="-57.8" font-family="Times,serif" font-size="14" text-anchor="middle">बहुव्रीहिः</text></g><g id="node15" class="node"><title>Node10_1</title><ellipse cx="315" cy="-105" fill="#f9f" stroke="#f9f" rx="47.39" ry="18"/><text x="315" y="-101.3" font-family="Times,serif" font-size="14" text-anchor="middle">च(10.1)</text></g><g id="edge13" class="edge"><title>Node10_1-&gt;Node9_1</title><path fill="none" stroke="#000" d="M306.37,-132.78C305.37,-141.14 306.33,-149.79 312,-156 321.82,-166.75 495.17,-179 605.88,-185.79"/><polygon fill="#000" stroke="#000" points="309.82 -133.4 308.38 -122.9 302.96 -132 309.82 -133.4"/><text x="415.5" y="-144.8" font-family="Times,serif" font-size="14" text-anchor="middle">समुच्चय_द्योतकः</text></g><g id="node16" class="node"><title>Node11_1</title><ellipse cx="279" cy="-192" fill="#ff0" stroke="#ff0" rx="68.79" ry="18"/><text x="279" y="-188.3" font-family="Times,serif" font-size="14" text-anchor="middle">महा-(11.1)</text></g><g id="edge14" class="edge"><title>Node11_1-&gt;Node11_2</title><path fill="none" stroke="#000" d="M259.87,-217.7C251.8,-226.74 241.78,-236.36 231,-243 213.46,-253.8 192.33,-261.49 173.05,-266.86"/><polygon fill="#000" stroke="#000" points="262.61 -219.89 266.43 -210 257.28 -215.35 262.61 -219.89"/><text x="313.5" y="-231.8" font-family="Times,serif" font-size="14" text-anchor="middle">कर्मधारयः</text></g></g></svg>