<?xml version="1.0" encoding="UTF-8" standalone="no"?>
<!DOCTYPE svg PUBLIC "-//W3C//DTD SVG 1.1//EN"
 "http://www.w3.org/Graphics/SVG/1.1/DTD/svg11.dtd">
<!-- Generated by graphviz version 2.43.0 (0)
 -->
<!-- Title: G Pages: 1 -->
<svg width="1159pt" height="392pt"
 viewBox="0.00 0.00 1158.84 392.00" xmlns="http://www.w3.org/2000/svg" xmlns:xlink="http://www.w3.org/1999/xlink">
<g id="graph0" class="graph" transform="scale(1 1) rotate(0) translate(4 388)">
<title>G</title>
<polygon fill="#fffacd" stroke="transparent" points="-4,4 -4,-388 1154.84,-388 1154.84,4 -4,4"/>
<g id="clust1" class="cluster">
<title>cluster_1</title>
<polygon fill="#fffacd" stroke="black" points="624.84,-166 624.84,-305 1142.84,-305 1142.84,-166 624.84,-166"/>
</g>
<!-- Node1_1 -->
<g id="node1" class="node">
<title>Node1_1</title>
<ellipse fill="#00bfff" stroke="#00bfff" cx="1083.84" cy="-192" rx="50.89" ry="18"/>
<text text-anchor="middle" x="1083.84" y="-188.3" font-family="Times,serif" font-size="14.00">सः(1.1)</text>
</g>
<!-- Node7_1 -->
<g id="node2" class="node">
<title>Node7_1</title>
<ellipse fill="#00bfff" stroke="#00bfff" cx="771.84" cy="-279" rx="69.59" ry="18"/>
<text text-anchor="middle" x="771.84" y="-275.3" font-family="Times,serif" font-size="14.00">कपिः(7.1)</text>
</g>
<!-- Node1_1&#45;&gt;Node7_1 -->
<g id="edge1" class="edge">
<title>Node1_1&#45;&gt;Node7_1</title>
<path fill="none" stroke="black" d="M1049.61,-212.69C1030.04,-223.15 1004.71,-235.38 980.84,-243 933.53,-258.1 877.99,-267.01 836.07,-272.05"/>
<polygon fill="black" stroke="black" points="1051.34,-215.73 1058.45,-207.87 1047.99,-209.58 1051.34,-215.73"/>
<text text-anchor="middle" x="1075.34" y="-231.8" font-family="Times,serif" font-size="14.00">विशेषणम्</text>
</g>
<!-- Node6_1 -->
<g id="node6" class="node">
<title>Node6_1</title>
<ellipse fill="#ff1975" stroke="#ff1975" cx="400.84" cy="-366" rx="87.99" ry="18"/>
<text text-anchor="middle" x="400.84" y="-362.3" font-family="Times,serif" font-size="14.00">विचचार(6.1)</text>
</g>
<!-- Node7_1&#45;&gt;Node6_1 -->
<g id="edge8" class="edge">
<title>Node7_1&#45;&gt;Node6_1</title>
<path fill="none" stroke="black" d="M714.58,-294.9C674.45,-305.19 619.49,-318.95 570.84,-330 534.85,-338.18 494.37,-346.54 461.95,-353.05"/>
<polygon fill="black" stroke="black" points="715.64,-298.24 724.46,-292.37 713.9,-291.46 715.64,-298.24"/>
<text text-anchor="middle" x="666.84" y="-318.8" font-family="Times,serif" font-size="14.00">कर्ता</text>
</g>
<!-- Node5_3 -->
<g id="node3" class="node">
<title>Node5_3</title>
<ellipse fill="#00bfff" stroke="#00bfff" cx="702.84" cy="-192" rx="69.59" ry="18"/>
<text text-anchor="middle" x="702.84" y="-188.3" font-family="Times,serif" font-size="14.00">धृक्(5.3)</text>
</g>
<!-- Node5_3&#45;&gt;Node7_1 -->
<g id="edge7" class="edge">
<title>Node5_3&#45;&gt;Node7_1</title>
<path fill="none" stroke="black" d="M713.99,-219.31C718.05,-227.34 723.07,-235.91 728.84,-243 734.43,-249.87 741.56,-256.32 748.4,-261.77"/>
<polygon fill="black" stroke="black" points="717.15,-217.78 709.7,-210.25 710.82,-220.78 717.15,-217.78"/>
<text text-anchor="middle" x="786.34" y="-231.8" font-family="Times,serif" font-size="14.00">विशेषणम्</text>
</g>
<!-- Node10_1 -->
<g id="node4" class="node">
<title>Node10_1</title>
<ellipse fill="#00bfff" stroke="#00bfff" cx="902.84" cy="-192" rx="112.38" ry="18"/>
<text text-anchor="middle" x="902.84" y="-188.3" font-family="Times,serif" font-size="14.00">समन्वितः(10.1)</text>
</g>
<!-- Node10_1&#45;&gt;Node7_1 -->
<g id="edge11" class="edge">
<title>Node10_1&#45;&gt;Node7_1</title>
<path fill="none" stroke="black" d="M877.56,-216.84C867.51,-225.66 855.56,-235.36 843.84,-243 832.2,-250.59 818.67,-257.59 806.5,-263.31"/>
<polygon fill="black" stroke="black" points="880.06,-219.3 885.17,-210.02 875.39,-214.09 880.06,-219.3"/>
<text text-anchor="middle" x="919.34" y="-231.8" font-family="Times,serif" font-size="14.00">विशेषणम्</text>
</g>
<!-- Node2_1 -->
<g id="node5" class="node">
<title>Node2_1</title>
<ellipse fill="#ff99ff" stroke="#ff99ff" cx="96.84" cy="-279" rx="96.68" ry="18"/>
<text text-anchor="middle" x="96.84" y="-275.3" font-family="Times,serif" font-size="14.00">निकामम्(2.1)</text>
</g>
<!-- Node2_1&#45;&gt;Node6_1 -->
<g id="edge2" class="edge">
<title>Node2_1&#45;&gt;Node6_1</title>
<path fill="none" stroke="black" d="M121.51,-303.8C132.92,-313.46 147.18,-323.79 161.84,-330 209.82,-350.32 267.53,-359.16 314.22,-362.87"/>
<polygon fill="black" stroke="black" points="123.56,-300.94 113.74,-296.95 118.93,-306.19 123.56,-300.94"/>
<text text-anchor="middle" x="219.34" y="-318.8" font-family="Times,serif" font-size="14.00">सम्बन्धः</text>
</g>
<!-- Node3_1 -->
<g id="node7" class="node">
<title>Node3_1</title>
<ellipse fill="#c6e2eb" stroke="#c6e2eb" cx="299.84" cy="-192" rx="106.68" ry="18"/>
<text text-anchor="middle" x="299.84" y="-188.3" font-family="Times,serif" font-size="14.00">विमानेषु(3.1)</text>
</g>
<!-- Node4_1 -->
<g id="node8" class="node">
<title>Node4_1</title>
<ellipse fill="#00bfff" stroke="#00bfff" cx="299.84" cy="-279" rx="87.99" ry="18"/>
<text text-anchor="middle" x="299.84" y="-275.3" font-family="Times,serif" font-size="14.00">विचरन्(4.1)</text>
</g>
<!-- Node3_1&#45;&gt;Node4_1 -->
<g id="edge3" class="edge">
<title>Node3_1&#45;&gt;Node4_1</title>
<path fill="none" stroke="black" d="M299.84,-220.27C299.84,-233.58 299.84,-249.19 299.84,-260.82"/>
<polygon fill="black" stroke="black" points="303.34,-220.2 299.84,-210.2 296.34,-220.2 303.34,-220.2"/>
<text text-anchor="middle" x="378.34" y="-231.8" font-family="Times,serif" font-size="14.00">देशाधिकरणम्</text>
</g>
<!-- Node4_1&#45;&gt;Node6_1 -->
<g id="edge4" class="edge">
<title>Node4_1&#45;&gt;Node6_1</title>
<path fill="none" stroke="black" d="M282.67,-306.25C279.54,-314.4 278.68,-323.06 283.84,-330 293.78,-343.35 308.63,-351.8 324.43,-357.11"/>
<polygon fill="black" stroke="black" points="285.92,-307.56 287.16,-297.04 279.63,-304.49 285.92,-307.56"/>
<text text-anchor="middle" x="390.84" y="-318.8" font-family="Times,serif" font-size="14.00">वर्तमानसमानकालः</text>
</g>
<!-- Node5_1 -->
<g id="node9" class="node">
<title>Node5_1</title>
<ellipse fill="#ffff00" stroke="#ffff00" cx="694.84" cy="-18" rx="63.09" ry="18"/>
<text text-anchor="middle" x="694.84" y="-14.3" font-family="Times,serif" font-size="14.00">काम&#45;(5.1)</text>
</g>
<!-- Node5_2 -->
<g id="node10" class="node">
<title>Node5_2</title>
<ellipse fill="#ffff00" stroke="#ffff00" cx="694.84" cy="-105" rx="63.09" ry="18"/>
<text text-anchor="middle" x="694.84" y="-101.3" font-family="Times,serif" font-size="14.00">रूप&#45;(5.2)</text>
</g>
<!-- Node5_1&#45;&gt;Node5_2 -->
<g id="edge5" class="edge">
<title>Node5_1&#45;&gt;Node5_2</title>
<path fill="none" stroke="black" d="M694.84,-46.27C694.84,-59.58 694.84,-75.19 694.84,-86.82"/>
<polygon fill="black" stroke="black" points="698.34,-46.2 694.84,-36.2 691.34,-46.2 698.34,-46.2"/>
<text text-anchor="middle" x="805.34" y="-57.8" font-family="Times,serif" font-size="14.00">तृतीया_तत्पुरुषः</text>
</g>
<!-- Node5_2&#45;&gt;Node5_3 -->
<g id="edge6" class="edge">
<title>Node5_2&#45;&gt;Node5_3</title>
<path fill="none" stroke="black" d="M694.51,-133.39C694.66,-140.75 695.04,-148.69 695.84,-156 696.49,-161.91 697.63,-168.31 698.81,-174"/>
<polygon fill="black" stroke="black" points="698.01,-133.15 694.44,-123.17 691.01,-133.2 698.01,-133.15"/>
<text text-anchor="middle" x="792.34" y="-144.8" font-family="Times,serif" font-size="14.00">उपपद_तत्पुरुषः</text>
</g>
<!-- Node8_1 -->
<g id="node11" class="node">
<title>Node8_1</title>
<ellipse fill="#93db70" stroke="#93db70" cx="519.84" cy="-279" rx="96.68" ry="18"/>
<text text-anchor="middle" x="519.84" y="-275.3" font-family="Times,serif" font-size="14.00">लङ्काम्(8.1)</text>
</g>
<!-- Node8_1&#45;&gt;Node6_1 -->
<g id="edge9" class="edge">
<title>Node8_1&#45;&gt;Node6_1</title>
<path fill="none" stroke="black" d="M512.63,-306.82C509.28,-315.14 504.52,-323.77 497.84,-330 487.05,-340.08 473.14,-347.3 459.24,-352.45"/>
<polygon fill="black" stroke="black" points="515.95,-307.93 515.94,-297.33 509.34,-305.62 515.95,-307.93"/>
<text text-anchor="middle" x="537.84" y="-318.8" font-family="Times,serif" font-size="14.00">कर्म</text>
</g>
<!-- Node9_1 -->
<g id="node12" class="node">
<title>Node9_1</title>
<ellipse fill="#40e0d0" stroke="#40e0d0" cx="910.84" cy="-105" rx="87.99" ry="18"/>
<text text-anchor="middle" x="910.84" y="-101.3" font-family="Times,serif" font-size="14.00">लाघवेन(9.1)</text>
</g>
<!-- Node9_1&#45;&gt;Node10_1 -->
<g id="edge10" class="edge">
<title>Node9_1&#45;&gt;Node10_1</title>
<path fill="none" stroke="black" d="M908.28,-133.27C907.02,-146.58 905.55,-162.19 904.46,-173.82"/>
<polygon fill="black" stroke="black" points="911.77,-133.49 909.22,-123.2 904.8,-132.83 911.77,-133.49"/>
<text text-anchor="middle" x="942.84" y="-144.8" font-family="Times,serif" font-size="14.00">करणम्</text>
</g>
</g>
</svg>
