<svg xmlns="http://www.w3.org/2000/svg" xmlns:xlink="http://www.w3.org/1999/xlink" width="2292" height="544" viewBox="0 0 1719.24 408"><g id="graph0" class="graph" transform="scale(1 1) rotate(0) translate(4 404)"><title>G</title><polygon fill="#fffacd" stroke="transparent" points="-4 4 -4 -404 1715.24 -404 1715.24 4 -4 4"/><g id="clust1" class="cluster"><title>cluster_1</title><polygon fill="#fffacd" stroke="#000" points="831.24 -182 831.24 -321 1097.24 -321 1097.24 -182 831.24 -182"/></g><g id="clust2" class="cluster"><title>cluster_2</title><polygon fill="#fffacd" stroke="#000" points="1052.24 -8 1052.24 -147 1274.24 -147 1274.24 -8 1052.24 -8"/></g><g id="clust3" class="cluster"><title>cluster_3</title><polygon fill="#fffacd" stroke="#000" points="1282.24 -8 1282.24 -147 1486.24 -147 1486.24 -8 1282.24 -8"/></g><g id="node1" class="node"><title>Node1_1</title><ellipse cx="964.24" cy="-208" fill="#93db70" stroke="#93db70" rx="124.58" ry="18"/><text x="964.24" y="-204.3" font-family="Times,serif" font-size="14" text-anchor="middle">विराजमानम्(1.1)</text></g><g id="node2" class="node"><title>Node3_4</title><ellipse cx="946.24" cy="-295" fill="#93db70" stroke="#93db70" rx="106.68" ry="18"/><text x="946.24" y="-291.3" font-family="Times,serif" font-size="14" text-anchor="middle">सङ्कुलम्(3.4)</text></g><g id="edge1" class="edge"><title>Node1_1-&gt;Node3_4</title><path fill="none" stroke="#000" d="M958.47,-236.27C955.65,-249.58 952.34,-265.19 949.88,-276.82"/><polygon fill="#000" stroke="#000" points="961.95 -236.71 960.6 -226.2 955.1 -235.26 961.95 -236.71"/><text x="1014.74" y="-247.8" font-family="Times,serif" font-size="14" text-anchor="middle">विशेषणम्</text></g><g id="node11" class="node"><title>Node8_1</title><ellipse cx="587.24" cy="-382" fill="#ff1975" stroke="#ff1975" rx="87.99" ry="18"/><text x="587.24" y="-378.3" font-family="Times,serif" font-size="14" text-anchor="middle">अमन्यत(8.1)</text></g><g id="edge6" class="edge"><title>Node3_4-&gt;Node8_1</title><path fill="none" stroke="#000" d="M877.14,-312.36C808.8,-328.54 705.55,-352.99 642.48,-367.92"/><polygon fill="#000" stroke="#000" points="878.04 -315.75 886.96 -310.04 876.42 -308.93 878.04 -315.75"/><text x="902.74" y="-334.8" font-family="Times,serif" font-size="14" text-anchor="middle">कर्मसमानाधिकरणम्</text></g><g id="node3" class="node"><title>Node7_1</title><ellipse cx="1151.24" cy="-34" fill="#00bfff" stroke="#00bfff" rx="50.89" ry="18"/><text x="1151.24" y="-30.3" font-family="Times,serif" font-size="14" text-anchor="middle">सः(7.1)</text></g><g id="node4" class="node"><title>Node11_1</title><ellipse cx="1163.24" cy="-121" fill="#00bfff" stroke="#00bfff" rx="102.88" ry="18"/><text x="1163.24" y="-117.3" font-family="Times,serif" font-size="14" text-anchor="middle">हनुमान्(11.1)</text></g><g id="edge11" class="edge"><title>Node7_1-&gt;Node11_1</title><path fill="none" stroke="#000" d="M1155.09,-62.27C1156.97,-75.58 1159.18,-91.19 1160.82,-102.82"/><polygon fill="#000" stroke="#000" points="1158.53 -61.61 1153.67 -52.2 1151.6 -62.59 1158.53 -61.61"/><text x="1214.74" y="-73.8" font-family="Times,serif" font-size="14" text-anchor="middle">विशेषणम्</text></g><g id="node18" class="node"><title>Node10_1</title><ellipse cx="1273.24" cy="-208" fill="#ff1975" stroke="#ff1975" rx="75.29" ry="18"/><text x="1273.24" y="-204.3" font-family="Times,serif" font-size="14" text-anchor="middle">चचार(10.1)</text></g><g id="edge14" class="edge"><title>Node11_1-&gt;Node10_1</title><path fill="none" stroke="#000" d="M1193.14,-145.1C1211.73,-159.47 1235.21,-177.61 1251.93,-190.53"/><polygon fill="#000" stroke="#000" points="1195.03 -142.14 1184.98 -138.79 1190.75 -147.68 1195.03 -142.14"/><text x="1260.24" y="-160.8" font-family="Times,serif" font-size="14" text-anchor="middle">कर्ता</text></g><g id="node5" class="node"><title>Node12_1</title><ellipse cx="1365.24" cy="-34" fill="#f9f" stroke="#f9f" rx="75.29" ry="18"/><text x="1365.24" y="-30.3" font-family="Times,serif" font-size="14" text-anchor="middle">तत्र(12.1)</text></g><g id="node6" class="node"><title>Node14_1</title><ellipse cx="1384.24" cy="-121" fill="#f9f" stroke="#f9f" rx="93.68" ry="18"/><text x="1384.24" y="-117.3" font-family="Times,serif" font-size="14" text-anchor="middle">समीपतः(14.1)</text></g><g id="edge15" class="edge"><title>Node12_1-&gt;Node14_1</title><path fill="none" stroke="#000" d="M1371.34,-62.27C1374.31,-75.58 1377.8,-91.19 1380.4,-102.82"/><polygon fill="#000" stroke="#000" points="1374.68 -61.2 1369.09 -52.2 1367.85 -62.72 1374.68 -61.2"/><text x="1432.74" y="-73.8" font-family="Times,serif" font-size="14" text-anchor="middle">विशेषणम्</text></g><g id="edge17" class="edge"><title>Node14_1-&gt;Node10_1</title><path fill="none" stroke="#000" d="M1354.6,-144.7C1335.79,-159.1 1311.88,-177.42 1294.85,-190.45"/><polygon fill="#000" stroke="#000" points="1356.77 -147.45 1362.58 -138.59 1352.51 -141.89 1356.77 -147.45"/><text x="1413.74" y="-160.8" font-family="Times,serif" font-size="14" text-anchor="middle">देशाधिकरणम्</text></g><g id="node7" class="node"><title>Node2_1</title><ellipse cx="964.24" cy="-121" fill="#40e0d0" stroke="#40e0d0" rx="78.79" ry="18"/><text x="964.24" y="-117.3" font-family="Times,serif" font-size="14" text-anchor="middle">वपुषा(2.1)</text></g><g id="edge2" class="edge"><title>Node2_1-&gt;Node1_1</title><path fill="none" stroke="#000" d="M964.24,-149.27C964.24,-162.58 964.24,-178.19 964.24,-189.82"/><polygon fill="#000" stroke="#000" points="967.74 -149.2 964.24 -139.2 960.74 -149.2 967.74 -149.2"/><text x="1000.24" y="-160.8" font-family="Times,serif" font-size="14" text-anchor="middle">करणम्</text></g><g id="node8" class="node"><title>Node3_1</title><ellipse cx="739.24" cy="-34" fill="#ff0" stroke="#ff0" rx="53.89" ry="18"/><text x="739.24" y="-30.3" font-family="Times,serif" font-size="14" text-anchor="middle">गज-(3.1)</text></g><g id="node9" class="node"><title>Node3_2</title><ellipse cx="739.24" cy="-121" fill="#ff0" stroke="#ff0" rx="72.29" ry="18"/><text x="739.24" y="-117.3" font-family="Times,serif" font-size="14" text-anchor="middle">अश्व-(3.2)</text></g><g id="edge3" class="edge"><title>Node3_1-&gt;Node3_2</title><path fill="none" stroke="#000" d="M739.24,-62.27C739.24,-75.58 739.24,-91.19 739.24,-102.82"/><polygon fill="#000" stroke="#000" points="742.74 -62.2 739.24 -52.2 735.74 -62.2 742.74 -62.2"/><text x="803.74" y="-73.8" font-family="Times,serif" font-size="14" text-anchor="middle">द्वन्द्वः</text></g><g id="node10" class="node"><title>Node3_3</title><ellipse cx="739.24" cy="-208" fill="#ff0" stroke="#ff0" rx="53.89" ry="18"/><text x="739.24" y="-204.3" font-family="Times,serif" font-size="14" text-anchor="middle">रथ-(3.3)</text></g><g id="edge4" class="edge"><title>Node3_2-&gt;Node3_3</title><path fill="none" stroke="#000" d="M739.24,-149.27C739.24,-162.58 739.24,-178.19 739.24,-189.82"/><polygon fill="#000" stroke="#000" points="742.74 -149.2 739.24 -139.2 735.74 -149.2 742.74 -149.2"/><text x="803.74" y="-160.8" font-family="Times,serif" font-size="14" text-anchor="middle">द्वन्द्वः</text></g><g id="edge5" class="edge"><title>Node3_3-&gt;Node3_4</title><path fill="none" stroke="#000" d="M735.39,-236.41C735.71,-244.57 737.71,-252.94 743.24,-259 757.68,-274.81 803.03,-283.49 847.21,-288.25"/><polygon fill="#000" stroke="#000" points="738.89 -236.49 735.74 -226.37 731.89 -236.24 738.89 -236.49"/><text x="846.74" y="-247.8" font-family="Times,serif" font-size="14" text-anchor="middle">षष्ठी_तत्पुरुषः</text></g><g id="node12" class="node"><title>Node4_1</title><ellipse cx="81.24" cy="-208" fill="#ff0" stroke="#ff0" rx="81.49" ry="18"/><text x="81.24" y="-204.3" font-family="Times,serif" font-size="14" text-anchor="middle">लङ्का-(4.1)</text></g><g id="node13" class="node"><title>Node4_2</title><ellipse cx="362.24" cy="-295" fill="#93db70" stroke="#93db70" rx="87.99" ry="18"/><text x="362.24" y="-291.3" font-family="Times,serif" font-size="14" text-anchor="middle">आभरणम्(4.2)</text></g><g id="edge7" class="edge"><title>Node4_1-&gt;Node4_2</title><path fill="none" stroke="#000" d="M84.26,-236.42C86.54,-244.83 90.48,-253.35 97.24,-259 123.68,-281.1 208.62,-289.34 275.29,-292.36"/><polygon fill="#000" stroke="#000" points="87.65 -235.52 82.22 -226.42 80.79 -236.92 87.65 -235.52"/><text x="200.74" y="-247.8" font-family="Times,serif" font-size="14" text-anchor="middle">षष्ठी_तत्पुरुषः</text></g><g id="edge8" class="edge"><title>Node4_2-&gt;Node8_1</title><path fill="none" stroke="#000" d="M411.67,-314.67C452.39,-330.05 509.39,-351.59 547.27,-365.9"/><polygon fill="#000" stroke="#000" points="412.8 -311.36 402.21 -311.1 410.33 -317.91 412.8 -311.36"/><text x="517.24" y="-334.8" font-family="Times,serif" font-size="14" text-anchor="middle">कर्म</text></g><g id="node14" class="node"><title>Node5_1</title><ellipse cx="311.24" cy="-208" fill="#f9f" stroke="#f9f" rx="59.59" ry="18"/><text x="311.24" y="-204.3" font-family="Times,serif" font-size="14" text-anchor="middle">इति(5.1)</text></g><g id="edge9" class="edge"><title>Node5_1-&gt;Node4_2</title><path fill="none" stroke="#000" d="M307.32,-236.27C307.37,-243.99 308.59,-252.15 312.24,-259 316.33,-266.67 322.93,-273.01 330.01,-278.1"/><polygon fill="#000" stroke="#000" points="310.82 -236.35 307.87 -226.18 303.83 -235.97 310.82 -236.35"/><text x="369.74" y="-247.8" font-family="Times,serif" font-size="14" text-anchor="middle">सम्बन्धः</text></g><g id="node15" class="node"><title>Node6_1</title><ellipse cx="449.24" cy="-208" fill="#f9f" stroke="#f9f" rx="50.89" ry="18"/><text x="449.24" y="-204.3" font-family="Times,serif" font-size="14" text-anchor="middle">एव(6.1)</text></g><g id="edge10" class="edge"><title>Node6_1-&gt;Node4_2</title><path fill="none" stroke="#000" d="M441.21,-235.9C437.85,-244 433.28,-252.46 427.24,-259 419.85,-267 410.2,-273.55 400.61,-278.73"/><polygon fill="#000" stroke="#000" points="444.56 -236.95 444.74 -226.36 437.99 -234.52 444.56 -236.95"/><text x="495.74" y="-247.8" font-family="Times,serif" font-size="14" text-anchor="middle">सम्बन्धः</text></g><g id="node16" class="node"><title>Node9_1</title><ellipse cx="587.24" cy="-208" fill="#ff0" stroke="#ff0" rx="63.09" ry="18"/><text x="587.24" y="-204.3" font-family="Times,serif" font-size="14" text-anchor="middle">महा-(9.1)</text></g><g id="node17" class="node"><title>Node9_2</title><ellipse cx="587.24" cy="-295" fill="#00bfff" stroke="#00bfff" rx="69.59" ry="18"/><text x="587.24" y="-291.3" font-family="Times,serif" font-size="14" text-anchor="middle">कपिः(9.2)</text></g><g id="edge12" class="edge"><title>Node9_1-&gt;Node9_2</title><path fill="none" stroke="#000" d="M587.24,-236.27C587.24,-249.58 587.24,-265.19 587.24,-276.82"/><polygon fill="#000" stroke="#000" points="590.74 -236.2 587.24 -226.2 583.74 -236.2 590.74 -236.2"/><text x="651.74" y="-247.8" font-family="Times,serif" font-size="14" text-anchor="middle">कर्मधारयः</text></g><g id="edge13" class="edge"><title>Node9_2-&gt;Node8_1</title><path fill="none" stroke="#000" d="M587.24,-323.27C587.24,-336.58 587.24,-352.19 587.24,-363.82"/><polygon fill="#000" stroke="#000" points="590.74 -323.2 587.24 -313.2 583.74 -323.2 590.74 -323.2"/><text x="623.24" y="-334.8" font-family="Times,serif" font-size="14" text-anchor="middle">कर्ता</text></g><g id="node19" class="node"><title>Node13_1</title><ellipse cx="1597.24" cy="-34" fill="#87ceeb" stroke="#87ceeb" rx="102.88" ry="18"/><text x="1597.24" y="-30.3" font-family="Times,serif" font-size="14" text-anchor="middle">रावणस्य(13.1)</text></g><g id="edge16" class="edge"><title>Node13_1-&gt;Node14_1</title><path fill="none" stroke="#000" d="M1557.74,-55.83C1538.82,-65.38 1515.66,-76.45 1494.24,-85 1474.98,-92.69 1453.31,-99.89 1434.33,-105.73"/><polygon fill="#000" stroke="#000" points="1559.34 -58.94 1566.67 -51.28 1556.17 -52.7 1559.34 -58.94"/><text x="1618.24" y="-73.8" font-family="Times,serif" font-size="14" text-anchor="middle">षष्ठीसम्बन्धः</text></g></g></svg>