<?xml version="1.0" encoding="UTF-8" standalone="no"?>
<!DOCTYPE svg PUBLIC "-//W3C//DTD SVG 1.1//EN"
 "http://www.w3.org/Graphics/SVG/1.1/DTD/svg11.dtd">
<!-- Generated by graphviz version 2.43.0 (0)
 -->
<!-- Title: G Pages: 1 -->
<svg width="1095pt" height="321pt"
 viewBox="0.00 0.00 1095.00 321.00" xmlns="http://www.w3.org/2000/svg" xmlns:xlink="http://www.w3.org/1999/xlink">
<g id="graph0" class="graph" transform="scale(1 1) rotate(0) translate(4 317)">
<title>G</title>
<polygon fill="#fffacd" stroke="transparent" points="-4,4 -4,-317 1091,-317 1091,4 -4,4"/>
<g id="clust1" class="cluster">
<title>cluster_1</title>
<polygon fill="#fffacd" stroke="black" points="588,-8 588,-147 866,-147 866,-8 588,-8"/>
</g>
<g id="clust2" class="cluster">
<title>cluster_2</title>
<polygon fill="#fffacd" stroke="black" points="8,-95 8,-234 256,-234 256,-95 8,-95"/>
</g>
<!-- Node4_1 -->
<g id="node1" class="node">
<title>Node4_1</title>
<ellipse fill="#93db70" stroke="#93db70" cx="727" cy="-34" rx="115.88" ry="18"/>
<text text-anchor="middle" x="727" y="-30.3" font-family="Times,serif" font-size="14.00">उद्यानानि(4.1)</text>
</g>
<!-- Node10_1 -->
<g id="node2" class="node">
<title>Node10_1</title>
<ellipse fill="#93db70" stroke="#93db70" cx="727" cy="-121" rx="130.78" ry="18"/>
<text text-anchor="middle" x="727" y="-117.3" font-family="Times,serif" font-size="14.00">प्रासादान्(10.1)</text>
</g>
<!-- Node4_1&#45;&gt;Node10_1 -->
<g id="edge4" class="edge">
<title>Node4_1&#45;&gt;Node10_1</title>
<path fill="none" stroke="black" d="M727,-62.27C727,-75.58 727,-91.19 727,-102.82"/>
<polygon fill="black" stroke="black" points="730.5,-62.2 727,-52.2 723.5,-62.2 730.5,-62.2"/>
<text text-anchor="middle" x="791.5" y="-73.8" font-family="Times,serif" font-size="14.00">समुच्चितः</text>
</g>
<!-- Node7_1 -->
<g id="node11" class="node">
<title>Node7_1</title>
<ellipse fill="#00bfff" stroke="#00bfff" cx="565" cy="-208" rx="115.88" ry="18"/>
<text text-anchor="middle" x="565" y="-204.3" font-family="Times,serif" font-size="14.00">वीक्षमाणः(7.1)</text>
</g>
<!-- Node10_1&#45;&gt;Node7_1 -->
<g id="edge11" class="edge">
<title>Node10_1&#45;&gt;Node7_1</title>
<path fill="none" stroke="black" d="M701.28,-145.6C690.37,-154.74 677.14,-164.73 664,-172 649.64,-179.94 633.15,-186.63 617.79,-191.95"/>
<polygon fill="black" stroke="black" points="703.84,-148.01 709.14,-138.84 699.27,-142.71 703.84,-148.01"/>
<text text-anchor="middle" x="716" y="-160.8" font-family="Times,serif" font-size="14.00">कर्म</text>
</g>
<!-- Node9_2 -->
<g id="node3" class="node">
<title>Node9_2</title>
<ellipse fill="#00bfff" stroke="#00bfff" cx="132" cy="-121" rx="115.88" ry="18"/>
<text text-anchor="middle" x="132" y="-117.3" font-family="Times,serif" font-size="14.00">संत्रस्तः(9.2)</text>
</g>
<!-- Node13_1 -->
<g id="node4" class="node">
<title>Node13_1</title>
<ellipse fill="#00bfff" stroke="#00bfff" cx="162" cy="-208" rx="56.59" ry="18"/>
<text text-anchor="middle" x="162" y="-204.3" font-family="Times,serif" font-size="14.00">सः(13.1)</text>
</g>
<!-- Node9_2&#45;&gt;Node13_1 -->
<g id="edge10" class="edge">
<title>Node9_2&#45;&gt;Node13_1</title>
<path fill="none" stroke="black" d="M141.48,-148.87C146.21,-162.27 151.79,-178.08 155.94,-189.82"/>
<polygon fill="black" stroke="black" points="144.7,-147.47 138.07,-139.2 138.1,-149.8 144.7,-147.47"/>
<text text-anchor="middle" x="206.5" y="-160.8" font-family="Times,serif" font-size="14.00">विशेषणम्</text>
</g>
<!-- Node12_1 -->
<g id="node7" class="node">
<title>Node12_1</title>
<ellipse fill="#ff1975" stroke="#ff1975" cx="431" cy="-295" rx="75.29" ry="18"/>
<text text-anchor="middle" x="431" y="-291.3" font-family="Times,serif" font-size="14.00">चचार(12.1)</text>
</g>
<!-- Node13_1&#45;&gt;Node12_1 -->
<g id="edge13" class="edge">
<title>Node13_1&#45;&gt;Node12_1</title>
<path fill="none" stroke="black" d="M206.82,-225.68C234.63,-235.81 271.2,-248.72 304,-259 329.53,-267 358.26,-275 381.92,-281.33"/>
<polygon fill="black" stroke="black" points="207.96,-222.37 197.37,-222.22 205.56,-228.95 207.96,-222.37"/>
<text text-anchor="middle" x="340" y="-247.8" font-family="Times,serif" font-size="14.00">कर्ता</text>
</g>
<!-- Node1_1 -->
<g id="node5" class="node">
<title>Node1_1</title>
<ellipse fill="#b4ffb4" stroke="#b4ffb4" cx="353" cy="-121" rx="87.99" ry="18"/>
<text text-anchor="middle" x="353" y="-117.3" font-family="Times,serif" font-size="14.00">गृहात्(1.1)</text>
</g>
<!-- Node2_1 -->
<g id="node6" class="node">
<title>Node2_1</title>
<ellipse fill="#93db70" stroke="#93db70" cx="353" cy="-208" rx="78.79" ry="18"/>
<text text-anchor="middle" x="353" y="-204.3" font-family="Times,serif" font-size="14.00">गृहम्(2.1)</text>
</g>
<!-- Node1_1&#45;&gt;Node2_1 -->
<g id="edge1" class="edge">
<title>Node1_1&#45;&gt;Node2_1</title>
<path fill="none" stroke="black" d="M353,-149.27C353,-162.58 353,-178.19 353,-189.82"/>
<polygon fill="black" stroke="black" points="356.5,-149.2 353,-139.2 349.5,-149.2 356.5,-149.2"/>
<text text-anchor="middle" x="410.5" y="-160.8" font-family="Times,serif" font-size="14.00">अपादानम्</text>
</g>
<!-- Node2_1&#45;&gt;Node12_1 -->
<g id="edge2" class="edge">
<title>Node2_1&#45;&gt;Node12_1</title>
<path fill="none" stroke="black" d="M371.11,-234C377.43,-242.22 384.75,-251.23 392,-259 397.96,-265.38 404.93,-271.9 411.32,-277.56"/>
<polygon fill="black" stroke="black" points="373.76,-231.69 364.95,-225.81 368.17,-235.9 373.76,-231.69"/>
<text text-anchor="middle" x="421" y="-247.8" font-family="Times,serif" font-size="14.00">कर्म</text>
</g>
<!-- Node3_1 -->
<g id="node8" class="node">
<title>Node3_1</title>
<ellipse fill="#87ceeb" stroke="#87ceeb" cx="353" cy="-34" rx="133.78" ry="18"/>
<text text-anchor="middle" x="353" y="-30.3" font-family="Times,serif" font-size="14.00">राक्षसानाम्(3.1)</text>
</g>
<!-- Node3_1&#45;&gt;Node1_1 -->
<g id="edge3" class="edge">
<title>Node3_1&#45;&gt;Node1_1</title>
<path fill="none" stroke="black" d="M353,-62.27C353,-75.58 353,-91.19 353,-102.82"/>
<polygon fill="black" stroke="black" points="356.5,-62.2 353,-52.2 349.5,-62.2 356.5,-62.2"/>
<text text-anchor="middle" x="446" y="-73.8" font-family="Times,serif" font-size="14.00">षष्ठीसम्बन्धः</text>
</g>
<!-- Node5_1 -->
<g id="node9" class="node">
<title>Node5_1</title>
<ellipse fill="#ff99ff" stroke="#ff99ff" cx="916" cy="-34" rx="41.69" ry="18"/>
<text text-anchor="middle" x="916" y="-30.3" font-family="Times,serif" font-size="14.00">च(5.1)</text>
</g>
<!-- Node5_1&#45;&gt;Node10_1 -->
<g id="edge5" class="edge">
<title>Node5_1&#45;&gt;Node10_1</title>
<path fill="none" stroke="black" d="M894.58,-58.5C884.85,-67.94 872.68,-78.18 860,-85 842.65,-94.32 822.67,-101.27 803.55,-106.41"/>
<polygon fill="black" stroke="black" points="897.28,-60.74 901.83,-51.17 892.3,-55.82 897.28,-60.74"/>
<text text-anchor="middle" x="983.5" y="-73.8" font-family="Times,serif" font-size="14.00">समुच्चय_द्योतकः</text>
</g>
<!-- Node6_1 -->
<g id="node10" class="node">
<title>Node6_1</title>
<ellipse fill="#ff99ff" stroke="#ff99ff" cx="963" cy="-121" rx="87.99" ry="18"/>
<text text-anchor="middle" x="963" y="-117.3" font-family="Times,serif" font-size="14.00">सर्वशः(6.1)</text>
</g>
<!-- Node6_1&#45;&gt;Node7_1 -->
<g id="edge6" class="edge">
<title>Node6_1&#45;&gt;Node7_1</title>
<path fill="none" stroke="black" d="M903.74,-138.49C892.56,-141.44 880.95,-144.4 870,-147 791.64,-165.61 700.98,-182.92 638.99,-194.11"/>
<polygon fill="black" stroke="black" points="904.66,-141.86 913.42,-135.91 902.86,-135.1 904.66,-141.86"/>
<text text-anchor="middle" x="877.5" y="-160.8" font-family="Times,serif" font-size="14.00">सम्बन्धः</text>
</g>
<!-- Node7_1&#45;&gt;Node12_1 -->
<g id="edge7" class="edge">
<title>Node7_1&#45;&gt;Node12_1</title>
<path fill="none" stroke="black" d="M530.32,-231C507.12,-245.72 477.11,-264.75 456.18,-278.03"/>
<polygon fill="black" stroke="black" points="532.28,-233.9 538.85,-225.59 528.53,-227.99 532.28,-233.9"/>
<text text-anchor="middle" x="614" y="-247.8" font-family="Times,serif" font-size="14.00">वर्तमानसमानकालः</text>
</g>
<!-- Node8_1 -->
<g id="node12" class="node">
<title>Node8_1</title>
<ellipse fill="#ff99ff" stroke="#ff99ff" cx="519" cy="-121" rx="59.59" ry="18"/>
<text text-anchor="middle" x="519" y="-117.3" font-family="Times,serif" font-size="14.00">अपि(8.1)</text>
</g>
<!-- Node8_1&#45;&gt;Node7_1 -->
<g id="edge8" class="edge">
<title>Node8_1&#45;&gt;Node7_1</title>
<path fill="none" stroke="black" d="M532.93,-147.74C540.33,-161.42 549.23,-177.86 555.77,-189.95"/>
<polygon fill="black" stroke="black" points="535.93,-145.92 528.09,-138.79 529.77,-149.25 535.93,-145.92"/>
<text text-anchor="middle" x="602.5" y="-160.8" font-family="Times,serif" font-size="14.00">सम्बन्धः</text>
</g>
<!-- Node9_1 -->
<g id="node13" class="node">
<title>Node9_1</title>
<ellipse fill="#ffff00" stroke="#ffff00" cx="132" cy="-34" rx="44.39" ry="18"/>
<text text-anchor="middle" x="132" y="-30.3" font-family="Times,serif" font-size="14.00">अ&#45;(9.1)</text>
</g>
<!-- Node9_1&#45;&gt;Node9_2 -->
<g id="edge9" class="edge">
<title>Node9_1&#45;&gt;Node9_2</title>
<path fill="none" stroke="black" d="M132,-62.27C132,-75.58 132,-91.19 132,-102.82"/>
<polygon fill="black" stroke="black" points="135.5,-62.2 132,-52.2 128.5,-62.2 135.5,-62.2"/>
<text text-anchor="middle" x="221" y="-73.8" font-family="Times,serif" font-size="14.00">नञ्_तत्पुरुषः</text>
</g>
<!-- Node11_1 -->
<g id="node14" class="node">
<title>Node11_1</title>
<ellipse fill="#ff99ff" stroke="#ff99ff" cx="746" cy="-208" rx="47.39" ry="18"/>
<text text-anchor="middle" x="746" y="-204.3" font-family="Times,serif" font-size="14.00">च(11.1)</text>
</g>
<!-- Node11_1&#45;&gt;Node12_1 -->
<g id="edge12" class="edge">
<title>Node11_1&#45;&gt;Node12_1</title>
<path fill="none" stroke="black" d="M739.96,-235.71C736.67,-244.44 731.64,-253.34 724,-259 690.55,-283.78 581.51,-291.2 506.32,-293.32"/>
<polygon fill="black" stroke="black" points="743.32,-236.7 742.99,-226.11 736.65,-234.6 743.32,-236.7"/>
<text text-anchor="middle" x="794.5" y="-247.8" font-family="Times,serif" font-size="14.00">सम्बन्धः</text>
</g>
</g>
</svg>
