<?xml version="1.0" encoding="UTF-8" standalone="no"?>
<!DOCTYPE svg PUBLIC "-//W3C//DTD SVG 1.1//EN"
 "http://www.w3.org/Graphics/SVG/1.1/DTD/svg11.dtd">
<!-- Generated by graphviz version 2.43.0 (0)
 -->
<!-- Title: G Pages: 1 -->
<svg width="1005pt" height="392pt"
 viewBox="0.00 0.00 1005.00 392.00" xmlns="http://www.w3.org/2000/svg" xmlns:xlink="http://www.w3.org/1999/xlink">
<g id="graph0" class="graph" transform="scale(1 1) rotate(0) translate(4 388)">
<title>G</title>
<polygon fill="#fffacd" stroke="transparent" points="-4,4 -4,-388 1001,-388 1001,4 -4,4"/>
<g id="clust1" class="cluster">
<title>cluster_1</title>
<polygon fill="#fffacd" stroke="black" points="729,-79 729,-218 989,-218 989,-79 729,-79"/>
</g>
<g id="clust2" class="cluster">
<title>cluster_2</title>
<polygon fill="#fffacd" stroke="black" points="8,-166 8,-305 200,-305 200,-166 8,-166"/>
</g>
<!-- Node2_2 -->
<g id="node1" class="node">
<title>Node2_2</title>
<ellipse fill="#00bfff" stroke="#00bfff" cx="859" cy="-105" rx="69.59" ry="18"/>
<text text-anchor="middle" x="859" y="-101.3" font-family="Times,serif" font-size="14.00">वेगः(2.2)</text>
</g>
<!-- Node10_1 -->
<g id="node2" class="node">
<title>Node10_1</title>
<ellipse fill="#00bfff" stroke="#00bfff" cx="859" cy="-192" rx="121.58" ry="18"/>
<text text-anchor="middle" x="859" y="-188.3" font-family="Times,serif" font-size="14.00">वीर्यवान्(10.1)</text>
</g>
<!-- Node2_2&#45;&gt;Node10_1 -->
<g id="edge3" class="edge">
<title>Node2_2&#45;&gt;Node10_1</title>
<path fill="none" stroke="black" d="M859,-133.27C859,-146.58 859,-162.19 859,-173.82"/>
<polygon fill="black" stroke="black" points="862.5,-133.2 859,-123.2 855.5,-133.2 862.5,-133.2"/>
<text text-anchor="middle" x="916.5" y="-144.8" font-family="Times,serif" font-size="14.00">विशेषणम्</text>
</g>
<!-- Node1_1 -->
<g id="node5" class="node">
<title>Node1_1</title>
<ellipse fill="#ff99ff" stroke="#ff99ff" cx="657" cy="-279" rx="115.88" ry="18"/>
<text text-anchor="middle" x="657" y="-275.3" font-family="Times,serif" font-size="14.00">अवप्लुत्य(1.1)</text>
</g>
<!-- Node10_1&#45;&gt;Node1_1 -->
<g id="edge12" class="edge">
<title>Node10_1&#45;&gt;Node1_1</title>
<path fill="none" stroke="black" stroke-dasharray="1,5" d="M806.08,-212.48C793.23,-217.39 779.57,-222.76 767,-228 741.44,-238.66 713,-251.62 691.43,-261.67"/>
<polygon fill="black" stroke="black" points="807.61,-215.64 815.72,-208.82 805.13,-209.1 807.61,-215.64"/>
<text text-anchor="middle" x="803" y="-231.8" font-family="Times,serif" font-size="14.00">कर्ता</text>
</g>
<!-- Node7_1 -->
<g id="node6" class="node">
<title>Node7_1</title>
<ellipse fill="#ff1975" stroke="#ff1975" cx="560" cy="-366" rx="106.68" ry="18"/>
<text text-anchor="middle" x="560" y="-362.3" font-family="Times,serif" font-size="14.00">पुप्लुवे(7.1)</text>
</g>
<!-- Node10_1&#45;&gt;Node7_1 -->
<g id="edge11" class="edge">
<title>Node10_1&#45;&gt;Node7_1</title>
<path fill="none" stroke="black" d="M850.73,-219.81C839.22,-252.1 815.02,-305.1 774,-330 753.44,-342.48 700.11,-351.22 651.84,-356.84"/>
<polygon fill="black" stroke="black" points="854.12,-220.71 854.03,-210.12 847.5,-218.46 854.12,-220.71"/>
<text text-anchor="middle" x="868" y="-275.3" font-family="Times,serif" font-size="14.00">कर्ता</text>
</g>
<!-- Node6_1 -->
<g id="node3" class="node">
<title>Node6_1</title>
<ellipse fill="#93db70" stroke="#93db70" cx="104" cy="-192" rx="87.99" ry="18"/>
<text text-anchor="middle" x="104" y="-188.3" font-family="Times,serif" font-size="14.00">अन्यत्(6.1)</text>
</g>
<!-- Node8_1 -->
<g id="node4" class="node">
<title>Node8_1</title>
<ellipse fill="#93db70" stroke="#93db70" cx="113" cy="-279" rx="78.79" ry="18"/>
<text text-anchor="middle" x="113" y="-275.3" font-family="Times,serif" font-size="14.00">वेश्म(8.1)</text>
</g>
<!-- Node6_1&#45;&gt;Node8_1 -->
<g id="edge7" class="edge">
<title>Node6_1&#45;&gt;Node8_1</title>
<path fill="none" stroke="black" d="M106.89,-220.27C108.3,-233.58 109.95,-249.19 111.18,-260.82"/>
<polygon fill="black" stroke="black" points="110.35,-219.78 105.82,-210.2 103.39,-220.51 110.35,-219.78"/>
<text text-anchor="middle" x="167.5" y="-231.8" font-family="Times,serif" font-size="14.00">विशेषणम्</text>
</g>
<!-- Node8_1&#45;&gt;Node7_1 -->
<g id="edge8" class="edge">
<title>Node8_1&#45;&gt;Node7_1</title>
<path fill="none" stroke="black" d="M181.42,-293.01C265.69,-309.04 407.98,-336.09 492.04,-352.08"/>
<polygon fill="black" stroke="black" points="181.92,-289.54 171.44,-291.11 180.61,-296.42 181.92,-289.54"/>
<text text-anchor="middle" x="393" y="-318.8" font-family="Times,serif" font-size="14.00">कर्म</text>
</g>
<!-- Node1_1&#45;&gt;Node7_1 -->
<g id="edge1" class="edge">
<title>Node1_1&#45;&gt;Node7_1</title>
<path fill="none" stroke="black" d="M645.92,-306.45C641.54,-314.72 635.88,-323.39 629,-330 620.96,-337.72 610.88,-344.11 600.92,-349.23"/>
<polygon fill="black" stroke="black" points="649.09,-307.95 650.32,-297.43 642.79,-304.88 649.09,-307.95"/>
<text text-anchor="middle" x="705.5" y="-318.8" font-family="Times,serif" font-size="14.00">पूर्वकालः</text>
</g>
<!-- Node2_1 -->
<g id="node7" class="node">
<title>Node2_1</title>
<ellipse fill="#ffff00" stroke="#ffff00" cx="859" cy="-18" rx="63.09" ry="18"/>
<text text-anchor="middle" x="859" y="-14.3" font-family="Times,serif" font-size="14.00">महा&#45;(2.1)</text>
</g>
<!-- Node2_1&#45;&gt;Node2_2 -->
<g id="edge2" class="edge">
<title>Node2_1&#45;&gt;Node2_2</title>
<path fill="none" stroke="black" d="M859,-46.27C859,-59.58 859,-75.19 859,-86.82"/>
<polygon fill="black" stroke="black" points="862.5,-46.2 859,-36.2 855.5,-46.2 862.5,-46.2"/>
<text text-anchor="middle" x="923.5" y="-57.8" font-family="Times,serif" font-size="14.00">कर्मधारयः</text>
</g>
<!-- Node3_1 -->
<g id="node8" class="node">
<title>Node3_1</title>
<ellipse fill="#87ceeb" stroke="#87ceeb" cx="535" cy="-105" rx="124.58" ry="18"/>
<text text-anchor="middle" x="535" y="-101.3" font-family="Times,serif" font-size="14.00">प्रहस्तस्य(3.1)</text>
</g>
<!-- Node4_1 -->
<g id="node9" class="node">
<title>Node4_1</title>
<ellipse fill="#93db70" stroke="#93db70" cx="601" cy="-192" rx="106.68" ry="18"/>
<text text-anchor="middle" x="601" y="-188.3" font-family="Times,serif" font-size="14.00">निवेशनम्(4.1)</text>
</g>
<!-- Node3_1&#45;&gt;Node4_1 -->
<g id="edge4" class="edge">
<title>Node3_1&#45;&gt;Node4_1</title>
<path fill="none" stroke="black" d="M532.52,-133.01C532.97,-140.93 534.7,-149.26 539,-156 544.12,-164.02 551.77,-170.38 559.97,-175.36"/>
<polygon fill="black" stroke="black" points="536.02,-133.02 532.55,-123.01 529.02,-133 536.02,-133.02"/>
<text text-anchor="middle" x="632" y="-144.8" font-family="Times,serif" font-size="14.00">षष्ठीसम्बन्धः</text>
</g>
<!-- Node4_1&#45;&gt;Node1_1 -->
<g id="edge5" class="edge">
<title>Node4_1&#45;&gt;Node1_1</title>
<path fill="none" stroke="black" d="M617.93,-218.7C626.92,-232.34 637.72,-248.73 645.68,-260.82"/>
<polygon fill="black" stroke="black" points="620.76,-216.63 612.33,-210.2 614.91,-220.48 620.76,-216.63"/>
<text text-anchor="middle" x="662" y="-231.8" font-family="Times,serif" font-size="14.00">कर्म</text>
</g>
<!-- Node5_1 -->
<g id="node10" class="node">
<title>Node5_1</title>
<ellipse fill="#ff99ff" stroke="#ff99ff" cx="464" cy="-279" rx="59.59" ry="18"/>
<text text-anchor="middle" x="464" y="-275.3" font-family="Times,serif" font-size="14.00">ततः(5.1)</text>
</g>
<!-- Node5_1&#45;&gt;Node7_1 -->
<g id="edge6" class="edge">
<title>Node5_1&#45;&gt;Node7_1</title>
<path fill="none" stroke="black" d="M463.42,-307.55C464.5,-315.49 466.96,-323.7 472,-330 479.4,-339.24 489.6,-346.05 500.44,-351.07"/>
<polygon fill="black" stroke="black" points="466.91,-307.18 462.71,-297.45 459.92,-307.68 466.91,-307.18"/>
<text text-anchor="middle" x="550.5" y="-318.8" font-family="Times,serif" font-size="14.00">कालाधिकरणम्</text>
</g>
<!-- Node9_1 -->
<g id="node11" class="node">
<title>Node9_1</title>
<ellipse fill="#ffff00" stroke="#ffff00" cx="329" cy="-105" rx="63.09" ry="18"/>
<text text-anchor="middle" x="329" y="-101.3" font-family="Times,serif" font-size="14.00">महा&#45;(9.1)</text>
</g>
<!-- Node9_2 -->
<g id="node12" class="node">
<title>Node9_2</title>
<ellipse fill="#87ceeb" stroke="#87ceeb" cx="335" cy="-192" rx="124.58" ry="18"/>
<text text-anchor="middle" x="335" y="-188.3" font-family="Times,serif" font-size="14.00">पार्श्वस्य(9.2)</text>
</g>
<!-- Node9_1&#45;&gt;Node9_2 -->
<g id="edge9" class="edge">
<title>Node9_1&#45;&gt;Node9_2</title>
<path fill="none" stroke="black" d="M330.92,-133.27C331.86,-146.58 332.97,-162.19 333.79,-173.82"/>
<polygon fill="black" stroke="black" points="334.41,-132.93 330.21,-123.2 327.43,-133.42 334.41,-132.93"/>
<text text-anchor="middle" x="397.5" y="-144.8" font-family="Times,serif" font-size="14.00">कर्मधारयः</text>
</g>
<!-- Node9_2&#45;&gt;Node8_1 -->
<g id="edge10" class="edge">
<title>Node9_2&#45;&gt;Node8_1</title>
<path fill="none" stroke="black" d="M293.91,-214.12C274.52,-223.63 250.87,-234.59 229,-243 207.4,-251.3 182.95,-258.93 162.08,-264.93"/>
<polygon fill="black" stroke="black" points="295.66,-217.16 303.06,-209.58 292.55,-210.89 295.66,-217.16"/>
<text text-anchor="middle" x="355" y="-231.8" font-family="Times,serif" font-size="14.00">षष्ठीसम्बन्धः</text>
</g>
</g>
</svg>
