<?xml version="1.0" encoding="UTF-8" standalone="no"?>
<!DOCTYPE svg PUBLIC "-//W3C//DTD SVG 1.1//EN"
 "http://www.w3.org/Graphics/SVG/1.1/DTD/svg11.dtd">
<!-- Generated by graphviz version 2.43.0 (0)
 -->
<!-- Title: G Pages: 1 -->
<svg width="4467pt" height="479pt"
 viewBox="0.00 0.00 4467.00 479.00" xmlns="http://www.w3.org/2000/svg" xmlns:xlink="http://www.w3.org/1999/xlink">
<g id="graph0" class="graph" transform="scale(1 1) rotate(0) translate(4 475)">
<title>G</title>
<polygon fill="#fffacd" stroke="transparent" points="-4,4 -4,-475 4463,-475 4463,4 -4,4"/>
<g id="clust1" class="cluster">
<title>cluster_1</title>
<polygon fill="#fffacd" stroke="black" points="629,-166 629,-392 2536,-392 2536,-166 629,-166"/>
</g>
<g id="clust2" class="cluster">
<title>cluster_2</title>
<polygon fill="#fffacd" stroke="black" points="2544,-166 2544,-218 3178,-218 3178,-166 2544,-166"/>
</g>
<g id="clust3" class="cluster">
<title>cluster_3</title>
<polygon fill="#fffacd" stroke="black" points="8,-253 8,-392 230,-392 230,-253 8,-253"/>
</g>
<!-- Node1_1 -->
<g id="node1" class="node">
<title>Node1_1</title>
<ellipse fill="#93db70" stroke="#93db70" cx="753" cy="-279" rx="115.88" ry="18"/>
<text text-anchor="middle" x="753" y="-275.3" font-family="Times,serif" font-size="14.00">राक्षसान्(1.1)</text>
</g>
<!-- Node16_1 -->
<g id="node2" class="node">
<title>Node16_1</title>
<ellipse fill="#93db70" stroke="#93db70" cx="1329" cy="-366" rx="84.49" ry="18"/>
<text text-anchor="middle" x="1329" y="-362.3" font-family="Times,serif" font-size="14.00">गजान्(16.1)</text>
</g>
<!-- Node1_1&#45;&gt;Node16_1 -->
<g id="edge1" class="edge">
<title>Node1_1&#45;&gt;Node16_1</title>
<path fill="none" stroke="black" d="M811.47,-298.2C848.53,-309.05 897.66,-322.19 942,-330 1046.31,-348.38 1168.23,-357.38 1246.93,-361.59"/>
<polygon fill="black" stroke="black" points="812.42,-294.83 801.84,-295.35 810.44,-301.54 812.42,-294.83"/>
<text text-anchor="middle" x="1006.5" y="-318.8" font-family="Times,serif" font-size="14.00">समुच्चितः</text>
</g>
<!-- Node26_1 -->
<g id="node25" class="node">
<title>Node26_1</title>
<ellipse fill="#ff1975" stroke="#ff1975" cx="425" cy="-453" rx="84.49" ry="18"/>
<text text-anchor="middle" x="425" y="-449.3" font-family="Times,serif" font-size="14.00">ददर्श(26.1)</text>
</g>
<!-- Node16_1&#45;&gt;Node26_1 -->
<g id="edge21" class="edge">
<title>Node16_1&#45;&gt;Node26_1</title>
<path fill="none" stroke="black" d="M1243.49,-375.04C1067.6,-391.58 667.74,-429.18 500.62,-444.89"/>
<polygon fill="black" stroke="black" points="1243.85,-378.52 1253.48,-374.1 1243.2,-371.55 1243.85,-378.52"/>
<text text-anchor="middle" x="961" y="-405.8" font-family="Times,serif" font-size="14.00">कर्म</text>
</g>
<!-- Node3_2 -->
<g id="node3" class="node">
<title>Node3_2</title>
<ellipse fill="#93db70" stroke="#93db70" cx="725" cy="-192" rx="87.99" ry="18"/>
<text text-anchor="middle" x="725" y="-188.3" font-family="Times,serif" font-size="14.00">कायान्(3.2)</text>
</g>
<!-- Node3_2&#45;&gt;Node1_1 -->
<g id="edge4" class="edge">
<title>Node3_2&#45;&gt;Node1_1</title>
<path fill="none" stroke="black" d="M733.85,-219.87C738.27,-233.27 743.47,-249.08 747.34,-260.82"/>
<polygon fill="black" stroke="black" points="737.12,-218.6 730.67,-210.2 730.47,-220.79 737.12,-218.6"/>
<text text-anchor="middle" x="798.5" y="-231.8" font-family="Times,serif" font-size="14.00">विशेषणम्</text>
</g>
<!-- Node4_3 -->
<g id="node4" class="node">
<title>Node4_3</title>
<ellipse fill="#93db70" stroke="#93db70" cx="937" cy="-192" rx="106.68" ry="18"/>
<text text-anchor="middle" x="937" y="-188.3" font-family="Times,serif" font-size="14.00">उद्यतान्(4.3)</text>
</g>
<!-- Node4_3&#45;&gt;Node1_1 -->
<g id="edge7" class="edge">
<title>Node4_3&#45;&gt;Node1_1</title>
<path fill="none" stroke="black" d="M906.14,-215.67C892.48,-225 875.92,-235.39 860,-243 843.51,-250.88 824.8,-257.68 807.68,-263.13"/>
<polygon fill="black" stroke="black" points="908.46,-218.32 914.67,-209.73 904.46,-212.58 908.46,-218.32"/>
<text text-anchor="middle" x="944.5" y="-231.8" font-family="Times,serif" font-size="14.00">विशेषणम्</text>
</g>
<!-- Node10_1 -->
<g id="node5" class="node">
<title>Node10_1</title>
<ellipse fill="#93db70" stroke="#93db70" cx="971" cy="-279" rx="84.49" ry="18"/>
<text text-anchor="middle" x="971" y="-275.3" font-family="Times,serif" font-size="14.00">हरीन्(10.1)</text>
</g>
<!-- Node10_1&#45;&gt;Node16_1 -->
<g id="edge13" class="edge">
<title>Node10_1&#45;&gt;Node16_1</title>
<path fill="none" stroke="black" d="M1021.44,-298.13C1051.74,-308.53 1091.24,-321.22 1127,-330 1170.9,-340.78 1220.95,-349.48 1260.26,-355.51"/>
<polygon fill="black" stroke="black" points="1022.53,-294.8 1011.94,-294.84 1020.24,-301.42 1022.53,-294.8"/>
<text text-anchor="middle" x="1191.5" y="-318.8" font-family="Times,serif" font-size="14.00">समुच्चितः</text>
</g>
<!-- Node13_2 -->
<g id="node6" class="node">
<title>Node13_2</title>
<ellipse fill="#93db70" stroke="#93db70" cx="1146" cy="-192" rx="84.49" ry="18"/>
<text text-anchor="middle" x="1146" y="-188.3" font-family="Times,serif" font-size="14.00">जवान्(13.2)</text>
</g>
<!-- Node13_2&#45;&gt;Node10_1 -->
<g id="edge17" class="edge">
<title>Node13_2&#45;&gt;Node10_1</title>
<path fill="none" stroke="black" d="M1104.26,-213.27C1073.32,-228.3 1031.76,-248.49 1003.33,-262.3"/>
<polygon fill="black" stroke="black" points="1106.03,-216.31 1113.49,-208.79 1102.97,-210.01 1106.03,-216.31"/>
<text text-anchor="middle" x="1126.5" y="-231.8" font-family="Times,serif" font-size="14.00">विशेषणम्</text>
</g>
<!-- Node14_1 -->
<g id="node7" class="node">
<title>Node14_1</title>
<ellipse fill="#93db70" stroke="#93db70" cx="1967" cy="-279" rx="112.38" ry="18"/>
<text text-anchor="middle" x="1967" y="-275.3" font-family="Times,serif" font-size="14.00">कुलीनान्(14.1)</text>
</g>
<!-- Node14_1&#45;&gt;Node16_1 -->
<g id="edge18" class="edge">
<title>Node14_1&#45;&gt;Node16_1</title>
<path fill="none" stroke="black" d="M1894.17,-296.12C1842.67,-307.03 1771.88,-321.03 1709,-330 1605.86,-344.71 1486.05,-354.55 1408.97,-359.96"/>
<polygon fill="black" stroke="black" points="1895.16,-299.49 1904.21,-293.99 1893.7,-292.65 1895.16,-299.49"/>
<text text-anchor="middle" x="1851.5" y="-318.8" font-family="Times,serif" font-size="14.00">विशेषणम्</text>
</g>
<!-- Node15_2 -->
<g id="node8" class="node">
<title>Node15_2</title>
<ellipse fill="#93db70" stroke="#93db70" cx="1204" cy="-279" rx="130.78" ry="18"/>
<text text-anchor="middle" x="1204" y="-275.3" font-family="Times,serif" font-size="14.00">सम्पन्नान्(15.2)</text>
</g>
<!-- Node15_2&#45;&gt;Node16_1 -->
<g id="edge20" class="edge">
<title>Node15_2&#45;&gt;Node16_1</title>
<path fill="none" stroke="black" d="M1237.12,-302.52C1258.38,-316.98 1285.52,-335.44 1304.78,-348.53"/>
<polygon fill="black" stroke="black" points="1238.93,-299.52 1228.7,-296.79 1235,-305.31 1238.93,-299.52"/>
<text text-anchor="middle" x="1331.5" y="-318.8" font-family="Times,serif" font-size="14.00">विशेषणम्</text>
</g>
<!-- Node17_3 -->
<g id="node9" class="node">
<title>Node17_3</title>
<ellipse fill="#93db70" stroke="#93db70" cx="1455" cy="-279" rx="102.88" ry="18"/>
<text text-anchor="middle" x="1455" y="-275.3" font-family="Times,serif" font-size="14.00">अरुजान्(17.3)</text>
</g>
<!-- Node17_3&#45;&gt;Node16_1 -->
<g id="edge24" class="edge">
<title>Node17_3&#45;&gt;Node16_1</title>
<path fill="none" stroke="black" d="M1428.14,-303.39C1417.52,-312.18 1405,-321.97 1393,-330 1382.79,-336.83 1371.13,-343.51 1360.58,-349.17"/>
<polygon fill="black" stroke="black" points="1430.45,-306.03 1435.86,-296.92 1425.95,-300.67 1430.45,-306.03"/>
<text text-anchor="middle" x="1470.5" y="-318.8" font-family="Times,serif" font-size="14.00">विशेषणम्</text>
</g>
<!-- Node18_1 -->
<g id="node10" class="node">
<title>Node18_1</title>
<ellipse fill="#93db70" stroke="#93db70" cx="1706" cy="-279" rx="130.78" ry="18"/>
<text text-anchor="middle" x="1706" y="-275.3" font-family="Times,serif" font-size="14.00">शिक्षितान्(18.1)</text>
</g>
<!-- Node18_1&#45;&gt;Node16_1 -->
<g id="edge25" class="edge">
<title>Node18_1&#45;&gt;Node16_1</title>
<path fill="none" stroke="black" d="M1646.87,-298.73C1613.39,-308.89 1570.62,-321.15 1532,-330 1487.38,-340.23 1436.63,-348.98 1397.03,-355.17"/>
<polygon fill="black" stroke="black" points="1647.96,-302.06 1656.5,-295.79 1645.91,-295.36 1647.96,-302.06"/>
<text text-anchor="middle" x="1647.5" y="-318.8" font-family="Times,serif" font-size="14.00">विशेषणम्</text>
</g>
<!-- Node20_2 -->
<g id="node11" class="node">
<title>Node20_2</title>
<ellipse fill="#93db70" stroke="#93db70" cx="2182" cy="-279" rx="84.49" ry="18"/>
<text text-anchor="middle" x="2182" y="-275.3" font-family="Times,serif" font-size="14.00">समान्(20.2)</text>
</g>
<!-- Node20_2&#45;&gt;Node16_1 -->
<g id="edge29" class="edge">
<title>Node20_2&#45;&gt;Node16_1</title>
<path fill="none" stroke="black" d="M2116.07,-294.62C2061.82,-306.07 1982.8,-321.46 1913,-330 1735.81,-351.69 1526.66,-360.1 1412.95,-363.23"/>
<polygon fill="black" stroke="black" points="2116.84,-298.03 2125.9,-292.53 2115.39,-291.18 2116.84,-298.03"/>
<text text-anchor="middle" x="2066.5" y="-318.8" font-family="Times,serif" font-size="14.00">विशेषणम्</text>
</g>
<!-- Node22_1 -->
<g id="node12" class="node">
<title>Node22_1</title>
<ellipse fill="#93db70" stroke="#93db70" cx="2406" cy="-279" rx="121.58" ry="18"/>
<text text-anchor="middle" x="2406" y="-275.3" font-family="Times,serif" font-size="14.00">निहन्तॄन्(22.1)</text>
</g>
<!-- Node22_1&#45;&gt;Node16_1 -->
<g id="edge31" class="edge">
<title>Node22_1&#45;&gt;Node16_1</title>
<path fill="none" stroke="black" d="M2330.79,-296.35C2275.08,-307.77 2197.17,-322.3 2128,-330 1868.74,-358.86 1559.68,-364.21 1413.55,-365.01"/>
<polygon fill="black" stroke="black" points="2331.84,-299.71 2340.92,-294.26 2330.42,-292.85 2331.84,-299.71"/>
<text text-anchor="middle" x="2284.5" y="-318.8" font-family="Times,serif" font-size="14.00">विशेषणम्</text>
</g>
<!-- Node5_1 -->
<g id="node13" class="node">
<title>Node5_1</title>
<ellipse fill="#93db70" stroke="#93db70" cx="2649" cy="-192" rx="96.68" ry="18"/>
<text text-anchor="middle" x="2649" y="-188.3" font-family="Times,serif" font-size="14.00">रक्तान्(5.1)</text>
</g>
<!-- Node5_1&#45;&gt;Node10_1 -->
<g id="edge8" class="edge">
<title>Node5_1&#45;&gt;Node10_1</title>
<path fill="none" stroke="black" d="M2586.89,-209.52C2571.66,-212.94 2555.33,-216.08 2540,-218 2519.65,-220.55 1084.3,-250.07 1064,-253 1048.11,-255.29 1031.06,-259.38 1015.96,-263.59"/>
<polygon fill="black" stroke="black" points="2587.76,-212.91 2596.71,-207.24 2586.18,-206.09 2587.76,-212.91"/>
<text text-anchor="middle" x="2156.5" y="-231.8" font-family="Times,serif" font-size="14.00">विशेषणम्</text>
</g>
<!-- Node6_1 -->
<g id="node14" class="node">
<title>Node6_1</title>
<ellipse fill="#93db70" stroke="#93db70" cx="2870" cy="-192" rx="106.68" ry="18"/>
<text text-anchor="middle" x="2870" y="-188.3" font-family="Times,serif" font-size="14.00">श्वेतान्(6.1)</text>
</g>
<!-- Node6_1&#45;&gt;Node10_1 -->
<g id="edge9" class="edge">
<title>Node6_1&#45;&gt;Node10_1</title>
<path fill="none" stroke="black" d="M2803.15,-209.51C2787.44,-212.84 2770.7,-215.94 2755,-218 2636.55,-233.52 2337.42,-239.7 2218,-243 2153.91,-244.77 1127.52,-244.33 1064,-253 1047.93,-255.19 1030.69,-259.31 1015.47,-263.59"/>
<polygon fill="black" stroke="black" points="2804.27,-212.85 2813.3,-207.3 2802.78,-206.01 2804.27,-212.85"/>
<text text-anchor="middle" x="2689.5" y="-231.8" font-family="Times,serif" font-size="14.00">विशेषणम्</text>
</g>
<!-- Node7_1 -->
<g id="node15" class="node">
<title>Node7_1</title>
<ellipse fill="#93db70" stroke="#93db70" cx="3082" cy="-192" rx="87.99" ry="18"/>
<text text-anchor="middle" x="3082" y="-188.3" font-family="Times,serif" font-size="14.00">सितान्(7.1)</text>
</g>
<!-- Node7_1&#45;&gt;Node10_1 -->
<g id="edge10" class="edge">
<title>Node7_1&#45;&gt;Node10_1</title>
<path fill="none" stroke="black" d="M3025.01,-209.83C3012.27,-213.04 2998.76,-216.01 2986,-218 2906.4,-230.44 2884.5,-214.92 2805,-228 2780.42,-232.04 2775.67,-239.56 2751,-243 2565.35,-268.87 1249.76,-227.91 1064,-253 1047.93,-255.17 1030.68,-259.29 1015.46,-263.56"/>
<polygon fill="black" stroke="black" points="3026.23,-213.13 3035.03,-207.23 3024.47,-206.36 3026.23,-213.13"/>
<text text-anchor="middle" x="2862.5" y="-231.8" font-family="Times,serif" font-size="14.00">विशेषणम्</text>
</g>
<!-- Node25_1 -->
<g id="node16" class="node">
<title>Node25_1</title>
<ellipse fill="#c6e2eb" stroke="#c6e2eb" cx="119" cy="-279" rx="102.88" ry="18"/>
<text text-anchor="middle" x="119" y="-275.3" font-family="Times,serif" font-size="14.00">तस्मिन्(25.1)</text>
</g>
<!-- Node24_1 -->
<g id="node17" class="node">
<title>Node24_1</title>
<ellipse fill="#c6e2eb" stroke="#c6e2eb" cx="107" cy="-366" rx="75.29" ry="18"/>
<text text-anchor="middle" x="107" y="-362.3" font-family="Times,serif" font-size="14.00">गृहे(24.1)</text>
</g>
<!-- Node25_1&#45;&gt;Node24_1 -->
<g id="edge35" class="edge">
<title>Node25_1&#45;&gt;Node24_1</title>
<path fill="none" stroke="black" d="M115.15,-307.27C113.27,-320.58 111.07,-336.19 109.42,-347.82"/>
<polygon fill="black" stroke="black" points="118.64,-307.59 116.57,-297.2 111.71,-306.61 118.64,-307.59"/>
<text text-anchor="middle" x="171.5" y="-318.8" font-family="Times,serif" font-size="14.00">विशेषणम्</text>
</g>
<!-- Node24_1&#45;&gt;Node26_1 -->
<g id="edge34" class="edge">
<title>Node24_1&#45;&gt;Node26_1</title>
<path fill="none" stroke="black" d="M116.14,-393.55C120.49,-402.38 126.62,-411.39 135,-417 167.81,-438.98 268.04,-447.17 341.51,-450.21"/>
<polygon fill="black" stroke="black" points="119.28,-391.99 112.09,-384.21 112.85,-394.77 119.28,-391.99"/>
<text text-anchor="middle" x="213.5" y="-405.8" font-family="Times,serif" font-size="14.00">देशाधिकरणम्</text>
</g>
<!-- Node2_1 -->
<g id="node18" class="node">
<title>Node2_1</title>
<ellipse fill="#ff99ff" stroke="#ff99ff" cx="578" cy="-279" rx="41.69" ry="18"/>
<text text-anchor="middle" x="578" y="-275.3" font-family="Times,serif" font-size="14.00">च(2.1)</text>
</g>
<!-- Node2_1&#45;&gt;Node16_1 -->
<g id="edge2" class="edge">
<title>Node2_1&#45;&gt;Node16_1</title>
<path fill="none" stroke="black" d="M605.62,-300.85C621.52,-311.63 642.39,-323.8 663,-330 769.31,-361.97 1090.01,-365.68 1244.29,-365.53"/>
<polygon fill="black" stroke="black" points="607.53,-297.92 597.33,-295.05 603.52,-303.65 607.53,-297.92"/>
<text text-anchor="middle" x="766.5" y="-318.8" font-family="Times,serif" font-size="14.00">समुच्चय_द्योतकः</text>
</g>
<!-- Node3_1 -->
<g id="node19" class="node">
<title>Node3_1</title>
<ellipse fill="#ffff00" stroke="#ffff00" cx="725" cy="-105" rx="63.09" ry="18"/>
<text text-anchor="middle" x="725" y="-101.3" font-family="Times,serif" font-size="14.00">महा&#45;(3.1)</text>
</g>
<!-- Node3_1&#45;&gt;Node3_2 -->
<g id="edge3" class="edge">
<title>Node3_1&#45;&gt;Node3_2</title>
<path fill="none" stroke="black" d="M725,-133.27C725,-146.58 725,-162.19 725,-173.82"/>
<polygon fill="black" stroke="black" points="728.5,-133.2 725,-123.2 721.5,-133.2 728.5,-133.2"/>
<text text-anchor="middle" x="789.5" y="-144.8" font-family="Times,serif" font-size="14.00">कर्मधारयः</text>
</g>
<!-- Node4_1 -->
<g id="node20" class="node">
<title>Node4_1</title>
<ellipse fill="#ffff00" stroke="#ffff00" cx="937" cy="-18" rx="72.29" ry="18"/>
<text text-anchor="middle" x="937" y="-14.3" font-family="Times,serif" font-size="14.00">नाना&#45;(4.1)</text>
</g>
<!-- Node4_2 -->
<g id="node21" class="node">
<title>Node4_2</title>
<ellipse fill="#ffff00" stroke="#ffff00" cx="937" cy="-105" rx="90.98" ry="18"/>
<text text-anchor="middle" x="937" y="-101.3" font-family="Times,serif" font-size="14.00">प्रहरण&#45;(4.2)</text>
</g>
<!-- Node4_1&#45;&gt;Node4_2 -->
<g id="edge5" class="edge">
<title>Node4_1&#45;&gt;Node4_2</title>
<path fill="none" stroke="black" d="M937,-46.27C937,-59.58 937,-75.19 937,-86.82"/>
<polygon fill="black" stroke="black" points="940.5,-46.2 937,-36.2 933.5,-46.2 940.5,-46.2"/>
<text text-anchor="middle" x="1001.5" y="-57.8" font-family="Times,serif" font-size="14.00">कर्मधारयः</text>
</g>
<!-- Node4_2&#45;&gt;Node4_3 -->
<g id="edge6" class="edge">
<title>Node4_2&#45;&gt;Node4_3</title>
<path fill="none" stroke="black" d="M937,-133.27C937,-146.58 937,-162.19 937,-173.82"/>
<polygon fill="black" stroke="black" points="940.5,-133.2 937,-123.2 933.5,-133.2 940.5,-133.2"/>
<text text-anchor="middle" x="1008.5" y="-144.8" font-family="Times,serif" font-size="14.00">बहुव्रीहिः</text>
</g>
<!-- Node8_1 -->
<g id="node22" class="node">
<title>Node8_1</title>
<ellipse fill="#ff99ff" stroke="#ff99ff" cx="3082" cy="-105" rx="41.69" ry="18"/>
<text text-anchor="middle" x="3082" y="-101.3" font-family="Times,serif" font-size="14.00">च(8.1)</text>
</g>
<!-- Node8_1&#45;&gt;Node7_1 -->
<g id="edge11" class="edge">
<title>Node8_1&#45;&gt;Node7_1</title>
<path fill="none" stroke="black" d="M3082,-133.27C3082,-146.58 3082,-162.19 3082,-173.82"/>
<polygon fill="black" stroke="black" points="3085.5,-133.2 3082,-123.2 3078.5,-133.2 3085.5,-133.2"/>
<text text-anchor="middle" x="3139.5" y="-144.8" font-family="Times,serif" font-size="14.00">सम्बन्धः</text>
</g>
<!-- Node9_1 -->
<g id="node23" class="node">
<title>Node9_1</title>
<ellipse fill="#ff99ff" stroke="#ff99ff" cx="1126" cy="-105" rx="59.59" ry="18"/>
<text text-anchor="middle" x="1126" y="-101.3" font-family="Times,serif" font-size="14.00">अपि(9.1)</text>
</g>
<!-- Node9_1&#45;&gt;Node13_2 -->
<g id="edge12" class="edge">
<title>Node9_1&#45;&gt;Node13_2</title>
<path fill="none" stroke="black" d="M1131.02,-133.17C1132.5,-140.6 1134.21,-148.63 1136,-156 1137.43,-161.9 1139.19,-168.29 1140.84,-173.98"/>
<polygon fill="black" stroke="black" points="1134.42,-132.35 1129.08,-123.2 1127.55,-133.68 1134.42,-132.35"/>
<text text-anchor="middle" x="1193.5" y="-144.8" font-family="Times,serif" font-size="14.00">सम्बन्धः</text>
</g>
<!-- Node11_1 -->
<g id="node24" class="node">
<title>Node11_1</title>
<ellipse fill="#ff99ff" stroke="#ff99ff" cx="287" cy="-366" rx="47.39" ry="18"/>
<text text-anchor="middle" x="287" y="-362.3" font-family="Times,serif" font-size="14.00">च(11.1)</text>
</g>
<!-- Node11_1&#45;&gt;Node26_1 -->
<g id="edge14" class="edge">
<title>Node11_1&#45;&gt;Node26_1</title>
<path fill="none" stroke="black" d="M292.26,-393.9C295.09,-402.28 299.41,-410.9 306,-417 319.59,-429.58 337.48,-437.66 355.25,-442.84"/>
<polygon fill="black" stroke="black" points="295.56,-392.7 289.5,-384 288.82,-394.58 295.56,-392.7"/>
<text text-anchor="middle" x="363.5" y="-405.8" font-family="Times,serif" font-size="14.00">सम्बन्धः</text>
</g>
<!-- Node12_1 -->
<g id="node26" class="node">
<title>Node12_1</title>
<ellipse fill="#ff99ff" stroke="#ff99ff" cx="424" cy="-366" rx="65.79" ry="18"/>
<text text-anchor="middle" x="424" y="-362.3" font-family="Times,serif" font-size="14.00">अपि(12.1)</text>
</g>
<!-- Node12_1&#45;&gt;Node26_1 -->
<g id="edge15" class="edge">
<title>Node12_1&#45;&gt;Node26_1</title>
<path fill="none" stroke="black" d="M424.32,-394.27C424.48,-407.58 424.66,-423.19 424.8,-434.82"/>
<polygon fill="black" stroke="black" points="427.82,-394.16 424.2,-384.2 420.82,-394.24 427.82,-394.16"/>
<text text-anchor="middle" x="482.5" y="-405.8" font-family="Times,serif" font-size="14.00">सम्बन्धः</text>
</g>
<!-- Node13_1 -->
<g id="node27" class="node">
<title>Node13_1</title>
<ellipse fill="#ffff00" stroke="#ffff00" cx="1273" cy="-105" rx="68.79" ry="18"/>
<text text-anchor="middle" x="1273" y="-101.3" font-family="Times,serif" font-size="14.00">महा&#45;(13.1)</text>
</g>
<!-- Node13_1&#45;&gt;Node13_2 -->
<g id="edge16" class="edge">
<title>Node13_1&#45;&gt;Node13_2</title>
<path fill="none" stroke="black" d="M1265.88,-132.91C1262.54,-141.25 1257.75,-149.85 1251,-156 1239,-166.94 1223.48,-174.47 1208.07,-179.65"/>
<polygon fill="black" stroke="black" points="1269.2,-134.01 1269.17,-123.41 1262.59,-131.71 1269.2,-134.01"/>
<text text-anchor="middle" x="1333.5" y="-144.8" font-family="Times,serif" font-size="14.00">बहुव्रीहिः</text>
</g>
<!-- Node15_1 -->
<g id="node28" class="node">
<title>Node15_1</title>
<ellipse fill="#ffff00" stroke="#ffff00" cx="3257" cy="-192" rx="68.79" ry="18"/>
<text text-anchor="middle" x="3257" y="-188.3" font-family="Times,serif" font-size="14.00">रूप&#45;(15.1)</text>
</g>
<!-- Node15_1&#45;&gt;Node15_2 -->
<g id="edge19" class="edge">
<title>Node15_1&#45;&gt;Node15_2</title>
<path fill="none" stroke="black" d="M3209.95,-210.47C3200.78,-213.37 3191.17,-216.05 3182,-218 3069.31,-241.92 3039.05,-237.07 2924,-243 2748.56,-252.04 1517.93,-236.84 1343,-253 1319.44,-255.18 1293.89,-259.27 1271.2,-263.51"/>
<polygon fill="black" stroke="black" points="3211.28,-213.72 3219.69,-207.28 3209.1,-207.07 3211.28,-213.72"/>
<text text-anchor="middle" x="3238.5" y="-231.8" font-family="Times,serif" font-size="14.00">तृतीया_तत्पुरुषः</text>
</g>
<!-- Node17_1 -->
<g id="node29" class="node">
<title>Node17_1</title>
<ellipse fill="#ffff00" stroke="#ffff00" cx="3393" cy="-105" rx="59.59" ry="18"/>
<text text-anchor="middle" x="3393" y="-101.3" font-family="Times,serif" font-size="14.00">पर&#45;(17.1)</text>
</g>
<!-- Node17_2 -->
<g id="node30" class="node">
<title>Node17_2</title>
<ellipse fill="#ffff00" stroke="#ffff00" cx="3404" cy="-192" rx="59.59" ry="18"/>
<text text-anchor="middle" x="3404" y="-188.3" font-family="Times,serif" font-size="14.00">गज&#45;(17.2)</text>
</g>
<!-- Node17_1&#45;&gt;Node17_2 -->
<g id="edge22" class="edge">
<title>Node17_1&#45;&gt;Node17_2</title>
<path fill="none" stroke="black" d="M3392.28,-133.44C3392.43,-140.8 3392.91,-148.73 3394,-156 3394.88,-161.87 3396.47,-168.15 3398.12,-173.75"/>
<polygon fill="black" stroke="black" points="3395.78,-133.21 3392.25,-123.22 3388.78,-133.22 3395.78,-133.21"/>
<text text-anchor="middle" x="3497.5" y="-144.8" font-family="Times,serif" font-size="14.00">षष्ठी_तत्पुरुषः</text>
</g>
<!-- Node17_2&#45;&gt;Node17_3 -->
<g id="edge23" class="edge">
<title>Node17_2&#45;&gt;Node17_3</title>
<path fill="none" stroke="black" d="M3385.44,-217.71C3376.49,-228.83 3366.35,-240.11 3360,-243 3337.32,-253.33 1590.76,-250.18 1566,-253 1546.96,-255.17 1526.42,-259.29 1508.24,-263.56"/>
<polygon fill="black" stroke="black" points="3388.26,-219.8 3391.68,-209.77 3382.75,-215.48 3388.26,-219.8"/>
<text text-anchor="middle" x="3479.5" y="-231.8" font-family="Times,serif" font-size="14.00">षष्ठी_तत्पुरुषः</text>
</g>
<!-- Node19_1 -->
<g id="node31" class="node">
<title>Node19_1</title>
<ellipse fill="#ffff00" stroke="#ffff00" cx="3623" cy="-105" rx="59.59" ry="18"/>
<text text-anchor="middle" x="3623" y="-101.3" font-family="Times,serif" font-size="14.00">गज&#45;(19.1)</text>
</g>
<!-- Node19_2 -->
<g id="node32" class="node">
<title>Node19_2</title>
<ellipse fill="#c6e2eb" stroke="#c6e2eb" cx="3612" cy="-192" rx="130.78" ry="18"/>
<text text-anchor="middle" x="3612" y="-188.3" font-family="Times,serif" font-size="14.00">शिक्षायाम्(19.2)</text>
</g>
<!-- Node19_1&#45;&gt;Node19_2 -->
<g id="edge26" class="edge">
<title>Node19_1&#45;&gt;Node19_2</title>
<path fill="none" stroke="black" d="M3619.47,-133.27C3617.75,-146.58 3615.73,-162.19 3614.22,-173.82"/>
<polygon fill="black" stroke="black" points="3622.96,-133.57 3620.77,-123.2 3616.02,-132.67 3622.96,-133.57"/>
<text text-anchor="middle" x="3721.5" y="-144.8" font-family="Times,serif" font-size="14.00">षष्ठी_तत्पुरुषः</text>
</g>
<!-- Node19_2&#45;&gt;Node18_1 -->
<g id="edge27" class="edge">
<title>Node19_2&#45;&gt;Node18_1</title>
<path fill="none" stroke="black" d="M3606.45,-219.82C3603.19,-228.72 3598.06,-237.71 3590,-243 3569.75,-256.3 1870.12,-250.79 1846,-253 1822.15,-255.18 1796.27,-259.3 1773.33,-263.57"/>
<polygon fill="black" stroke="black" points="3609.87,-220.59 3609.38,-210.01 3603.16,-218.59 3609.87,-220.59"/>
<text text-anchor="middle" x="3659.5" y="-231.8" font-family="Times,serif" font-size="14.00">अधिकरणम्</text>
</g>
<!-- Node20_1 -->
<g id="node33" class="node">
<title>Node20_1</title>
<ellipse fill="#ffff00" stroke="#ffff00" cx="3848" cy="-192" rx="87.18" ry="18"/>
<text text-anchor="middle" x="3848" y="-188.3" font-family="Times,serif" font-size="14.00">ऐरावत&#45;(20.1)</text>
</g>
<!-- Node20_1&#45;&gt;Node20_2 -->
<g id="edge28" class="edge">
<title>Node20_1&#45;&gt;Node20_2</title>
<path fill="none" stroke="black" d="M3810.13,-213.74C3787.82,-224.78 3758.63,-237.25 3731,-243 3651.81,-259.5 2355.16,-242.13 2275,-253 2258.93,-255.18 2241.69,-259.3 2226.46,-263.57"/>
<polygon fill="black" stroke="black" points="3811.91,-216.76 3819.25,-209.12 3808.74,-210.52 3811.91,-216.76"/>
<text text-anchor="middle" x="3887.5" y="-231.8" font-family="Times,serif" font-size="14.00">तृतीया_तत्पुरुषः</text>
</g>
<!-- Node21_1 -->
<g id="node34" class="node">
<title>Node21_1</title>
<ellipse fill="#c6e2eb" stroke="#c6e2eb" cx="4028" cy="-192" rx="75.29" ry="18"/>
<text text-anchor="middle" x="4028" y="-188.3" font-family="Times,serif" font-size="14.00">युधि(21.1)</text>
</g>
<!-- Node21_1&#45;&gt;Node22_1 -->
<g id="edge30" class="edge">
<title>Node21_1&#45;&gt;Node22_1</title>
<path fill="none" stroke="black" d="M4022.26,-220.13C4018.99,-228.9 4013.91,-237.72 4006,-243 3975.34,-263.49 2894.4,-274.07 2526.88,-277.08"/>
<polygon fill="black" stroke="black" points="4025.64,-221.03 4025.22,-210.44 4018.95,-218.98 4025.64,-221.03"/>
<text text-anchor="middle" x="4075.5" y="-231.8" font-family="Times,serif" font-size="14.00">अधिकरणम्</text>
</g>
<!-- Node23_1 -->
<g id="node35" class="node">
<title>Node23_1</title>
<ellipse fill="#ffff00" stroke="#ffff00" cx="4252" cy="-105" rx="59.59" ry="18"/>
<text text-anchor="middle" x="4252" y="-101.3" font-family="Times,serif" font-size="14.00">पर&#45;(23.1)</text>
</g>
<!-- Node23_2 -->
<g id="node36" class="node">
<title>Node23_2</title>
<ellipse fill="#87ceeb" stroke="#87ceeb" cx="4252" cy="-192" rx="130.78" ry="18"/>
<text text-anchor="middle" x="4252" y="-188.3" font-family="Times,serif" font-size="14.00">सैन्यानाम्(23.2)</text>
</g>
<!-- Node23_1&#45;&gt;Node23_2 -->
<g id="edge32" class="edge">
<title>Node23_1&#45;&gt;Node23_2</title>
<path fill="none" stroke="black" d="M4252,-133.27C4252,-146.58 4252,-162.19 4252,-173.82"/>
<polygon fill="black" stroke="black" points="4255.5,-133.2 4252,-123.2 4248.5,-133.2 4255.5,-133.2"/>
<text text-anchor="middle" x="4355.5" y="-144.8" font-family="Times,serif" font-size="14.00">षष्ठी_तत्पुरुषः</text>
</g>
<!-- Node23_2&#45;&gt;Node22_1 -->
<g id="edge33" class="edge">
<title>Node23_2&#45;&gt;Node22_1</title>
<path fill="none" stroke="black" d="M4213.43,-214.28C4191.68,-225.11 4163.61,-237.18 4137,-243 3981.32,-277.02 2895.76,-278.7 2527.71,-278.27"/>
<polygon fill="black" stroke="black" points="4215.02,-217.4 4222.34,-209.74 4211.84,-211.16 4215.02,-217.4"/>
<text text-anchor="middle" x="4275" y="-231.8" font-family="Times,serif" font-size="14.00">षष्ठीसम्बन्धः</text>
</g>
<!-- Node27_1 -->
<g id="node37" class="node">
<title>Node27_1</title>
<ellipse fill="#00bfff" stroke="#00bfff" cx="564" cy="-366" rx="56.59" ry="18"/>
<text text-anchor="middle" x="564" y="-362.3" font-family="Times,serif" font-size="14.00">सः(27.1)</text>
</g>
<!-- Node27_1&#45;&gt;Node26_1 -->
<g id="edge36" class="edge">
<title>Node27_1&#45;&gt;Node26_1</title>
<path fill="none" stroke="black" d="M557.14,-393.66C553.8,-402.12 548.95,-410.86 542,-417 528.25,-429.14 510.44,-437.07 492.88,-442.25"/>
<polygon fill="black" stroke="black" points="560.51,-394.63 560.4,-384.03 553.88,-392.38 560.51,-394.63"/>
<text text-anchor="middle" x="589" y="-405.8" font-family="Times,serif" font-size="14.00">कर्ता</text>
</g>
</g>
</svg>
