<svg xmlns="http://www.w3.org/2000/svg" xmlns:xlink="http://www.w3.org/1999/xlink" width="1956" height="312" viewBox="0 0 1466.89 234"><g id="graph0" class="graph" transform="scale(1 1) rotate(0) translate(4 230)"><title>G</title><polygon fill="#fffacd" stroke="transparent" points="-4 4 -4 -230 1462.89 -230 1462.89 4 -4 4"/><g id="clust1" class="cluster"><title>cluster_1</title><polygon fill="#fffacd" stroke="#000" points="492.89 -8 492.89 -147 1450.89 -147 1450.89 -8 492.89 -8"/></g><g id="node1" class="node"><title>Node1_1</title><ellipse cx="1289.89" cy="-34" fill="#93db70" stroke="#93db70" rx="152.97" ry="18"/><text x="1289.89" y="-30.3" font-family="Times,serif" font-size="14" text-anchor="middle">जाम्बूनदमयानि(1.1)</text></g><g id="node2" class="node"><title>Node4_1</title><ellipse cx="680.89" cy="-121" fill="#93db70" stroke="#93db70" rx="87.99" ry="18"/><text x="680.89" y="-117.3" font-family="Times,serif" font-size="14" text-anchor="middle">आसनानि(4.1)</text></g><g id="edge1" class="edge"><title>Node1_1-&gt;Node4_1</title><path fill="none" stroke="#000" d="M1230.03,-54.04C1193.87,-64.8 1146.65,-77.55 1103.89,-85 988.29,-105.15 852.82,-113.78 766.94,-117.42"/><polygon fill="#000" stroke="#000" points="1231.35 -57.3 1239.92 -51.06 1229.33 -50.59 1231.35 -57.3"/><text x="1228.39" y="-73.8" font-family="Times,serif" font-size="14" text-anchor="middle">विशेषणम्</text></g><g id="node7" class="node"><title>Node9_1</title><ellipse cx="384.89" cy="-208" fill="#ff1975" stroke="#ff1975" rx="78.79" ry="18"/><text x="384.89" y="-204.3" font-family="Times,serif" font-size="14" text-anchor="middle">ददर्श(9.1)</text></g><g id="edge4" class="edge"><title>Node4_1-&gt;Node9_1</title><path fill="none" stroke="#000" d="M622.27,-138.84C566.44,-154.87 483.5,-178.69 431.89,-193.51"/><polygon fill="#000" stroke="#000" points="623.37 -142.16 632.02 -136.04 621.44 -135.43 623.37 -142.16"/><text x="578.89" y="-160.8" font-family="Times,serif" font-size="14" text-anchor="middle">कर्म</text></g><g id="node3" class="node"><title>Node3_1</title><ellipse cx="1031.89" cy="-34" fill="#93db70" stroke="#93db70" rx="87.99" ry="18"/><text x="1031.89" y="-30.3" font-family="Times,serif" font-size="14" text-anchor="middle">शयनानि(3.1)</text></g><g id="edge3" class="edge"><title>Node3_1-&gt;Node4_1</title><path fill="none" stroke="#000" d="M997.24,-56.52C979.26,-66.71 956.58,-78.14 934.89,-85 879.72,-102.46 815.08,-111.21 764.82,-115.6"/><polygon fill="#000" stroke="#000" points="999.29 -59.37 1006.18 -51.33 995.77 -53.32 999.29 -59.37"/><text x="1035.39" y="-73.8" font-family="Times,serif" font-size="14" text-anchor="middle">समुच्चितः</text></g><g id="node4" class="node"><title>Node6_1</title><ellipse cx="828.89" cy="-34" fill="#93db70" stroke="#93db70" rx="96.68" ry="18"/><text x="828.89" y="-30.3" font-family="Times,serif" font-size="14" text-anchor="middle">भाजनानि(6.1)</text></g><g id="edge6" class="edge"><title>Node6_1-&gt;Node4_1</title><path fill="none" stroke="#000" d="M811.68,-60.17C804.57,-69.04 795.69,-78.42 785.89,-85 771.46,-94.69 754.1,-101.9 737.7,-107.18"/><polygon fill="#000" stroke="#000" points="814.67 -62.02 817.93 -51.94 809.1 -57.79 814.67 -62.02"/><text x="866.39" y="-73.8" font-family="Times,serif" font-size="14" text-anchor="middle">समुच्चितः</text></g><g id="node5" class="node"><title>Node8_1</title><ellipse cx="607.89" cy="-34" fill="#93db70" stroke="#93db70" rx="106.68" ry="18"/><text x="607.89" y="-30.3" font-family="Times,serif" font-size="14" text-anchor="middle">शुभ्राणि(8.1)</text></g><g id="edge8" class="edge"><title>Node8_1-&gt;Node4_1</title><path fill="none" stroke="#000" d="M645.85,-57.42C650.61,-61.23 655.12,-65.44 658.89,-70 666.88,-79.64 672.48,-92.63 676.03,-102.96"/><polygon fill="#000" stroke="#000" points="647.82 -54.52 637.7 -51.4 643.66 -60.15 647.82 -54.52"/><text x="724.39" y="-73.8" font-family="Times,serif" font-size="14" text-anchor="middle">विशेषणम्</text></g><g id="node6" class="node"><title>Node2_1</title><ellipse cx="312.89" cy="-34" fill="#f9f" stroke="#f9f" rx="50.89" ry="18"/><text x="312.89" y="-30.3" font-family="Times,serif" font-size="14" text-anchor="middle">एव(2.1)</text></g><g id="edge2" class="edge"><title>Node2_1-&gt;Node4_1</title><path fill="none" stroke="#000" d="M311.76,-62.55C312.87,-70.86 315.69,-79.28 321.89,-85 331.96,-94.29 496.03,-107.23 598.84,-114.49"/><polygon fill="#000" stroke="#000" points="315.24 -62.08 311.16 -52.3 308.26 -62.49 315.24 -62.08"/><text x="379.39" y="-73.8" font-family="Times,serif" font-size="14" text-anchor="middle">सम्बन्धः</text></g><g id="node8" class="node"><title>Node5_1</title><ellipse cx="441.89" cy="-34" fill="#f9f" stroke="#f9f" rx="41.69" ry="18"/><text x="441.89" y="-30.3" font-family="Times,serif" font-size="14" text-anchor="middle">च(5.1)</text></g><g id="edge5" class="edge"><title>Node5_1-&gt;Node4_1</title><path fill="none" stroke="#000" d="M439.15,-62.22C439.76,-70.51 442.07,-79 447.89,-85 468.02,-105.73 536.87,-114.24 594.55,-117.7"/><polygon fill="#000" stroke="#000" points="442.65 -62.04 439.15 -52.04 435.65 -62.03 442.65 -62.04"/><text x="551.39" y="-73.8" font-family="Times,serif" font-size="14" text-anchor="middle">समुच्चय_द्योतकः</text></g><g id="node9" class="node"><title>Node7_1</title><ellipse cx="384.89" cy="-121" fill="#f9f" stroke="#f9f" rx="41.69" ry="18"/><text x="384.89" y="-117.3" font-family="Times,serif" font-size="14" text-anchor="middle">च(7.1)</text></g><g id="edge7" class="edge"><title>Node7_1-&gt;Node9_1</title><path fill="none" stroke="#000" d="M384.89,-149.27C384.89,-162.58 384.89,-178.19 384.89,-189.82"/><polygon fill="#000" stroke="#000" points="388.39 -149.2 384.89 -139.2 381.39 -149.2 388.39 -149.2"/><text x="442.39" y="-160.8" font-family="Times,serif" font-size="14" text-anchor="middle">सम्बन्धः</text></g><g id="node10" class="node"><title>Node10_1</title><ellipse cx="68.89" cy="-34" fill="#ff0" stroke="#ff0" rx="68.79" ry="18"/><text x="68.89" y="-30.3" font-family="Times,serif" font-size="14" text-anchor="middle">हरि-(10.1)</text></g><g id="node11" class="node"><title>Node10_2</title><ellipse cx="187.89" cy="-121" fill="#00bfff" stroke="#00bfff" rx="84.49" ry="18"/><text x="187.89" y="-117.3" font-family="Times,serif" font-size="14" text-anchor="middle">यूथपः(10.2)</text></g><g id="edge9" class="edge"><title>Node10_1-&gt;Node10_2</title><path fill="none" stroke="#000" d="M63.64,-62.5C63.57,-70.44 65.06,-78.66 69.89,-85 80.45,-98.85 96.24,-107.43 112.87,-112.69"/><polygon fill="#000" stroke="#000" points="67.14 -62.67 64.48 -52.41 60.16 -62.09 67.14 -62.67"/><text x="180.39" y="-73.8" font-family="Times,serif" font-size="14" text-anchor="middle">सप्तमी_तत्पुरुषः</text></g><g id="edge10" class="edge"><title>Node10_2-&gt;Node9_1</title><path fill="none" stroke="#000" d="M233.2,-141.55C268.67,-156.85 317.27,-177.82 349.82,-191.86"/><polygon fill="#000" stroke="#000" points="234.14 -138.14 223.57 -137.39 231.36 -144.57 234.14 -138.14"/><text x="334.89" y="-160.8" font-family="Times,serif" font-size="14" text-anchor="middle">कर्ता</text></g></g></svg>