<?xml version="1.0" encoding="UTF-8" standalone="no"?>
<!DOCTYPE svg PUBLIC "-//W3C//DTD SVG 1.1//EN"
 "http://www.w3.org/Graphics/SVG/1.1/DTD/svg11.dtd">
<!-- Generated by graphviz version 2.43.0 (0)
 -->
<!-- Title: G Pages: 1 -->
<svg width="798pt" height="495pt"
 viewBox="0.00 0.00 798.00 495.00" xmlns="http://www.w3.org/2000/svg" xmlns:xlink="http://www.w3.org/1999/xlink">
<g id="graph0" class="graph" transform="scale(1 1) rotate(0) translate(4 491)">
<title>G</title>
<polygon fill="#fffacd" stroke="transparent" points="-4,4 -4,-491 794,-491 794,4 -4,4"/>
<g id="clust1" class="cluster">
<title>cluster_1</title>
<polygon fill="#fffacd" stroke="black" points="503,-182 503,-321 733,-321 733,-182 503,-182"/>
</g>
<g id="clust2" class="cluster">
<title>cluster_2</title>
<polygon fill="#fffacd" stroke="black" points="552,-8 552,-147 782,-147 782,-8 552,-8"/>
</g>
<g id="clust3" class="cluster">
<title>cluster_3</title>
<polygon fill="#fffacd" stroke="black" points="8,-95 8,-234 419,-234 419,-95 8,-95"/>
</g>
<!-- Node1_1 -->
<g id="node1" class="node">
<title>Node1_1</title>
<ellipse fill="#93db70" stroke="#93db70" cx="618" cy="-208" rx="106.68" ry="18"/>
<text text-anchor="middle" x="618" y="-204.3" font-family="Times,serif" font-size="14.00">रक्षितम्(1.1)</text>
</g>
<!-- Node9_1 -->
<g id="node2" class="node">
<title>Node9_1</title>
<ellipse fill="#93db70" stroke="#93db70" cx="600" cy="-295" rx="78.79" ry="18"/>
<text text-anchor="middle" x="600" y="-291.3" font-family="Times,serif" font-size="14.00">भवनम्(9.1)</text>
</g>
<!-- Node1_1&#45;&gt;Node9_1 -->
<g id="edge1" class="edge">
<title>Node1_1&#45;&gt;Node9_1</title>
<path fill="none" stroke="black" d="M612.23,-236.27C609.41,-249.58 606.1,-265.19 603.64,-276.82"/>
<polygon fill="black" stroke="black" points="615.71,-236.71 614.36,-226.2 608.86,-235.26 615.71,-236.71"/>
<text text-anchor="middle" x="667.5" y="-247.8" font-family="Times,serif" font-size="14.00">विशेषणम्</text>
</g>
<!-- Node8_1 -->
<g id="node10" class="node">
<title>Node8_1</title>
<ellipse fill="#00bfff" stroke="#00bfff" cx="600" cy="-382" rx="124.58" ry="18"/>
<text text-anchor="middle" x="600" y="-378.3" font-family="Times,serif" font-size="14.00">समीक्षमाणः(8.1)</text>
</g>
<!-- Node9_1&#45;&gt;Node8_1 -->
<g id="edge9" class="edge">
<title>Node9_1&#45;&gt;Node8_1</title>
<path fill="none" stroke="black" d="M600,-323.27C600,-336.58 600,-352.19 600,-363.82"/>
<polygon fill="black" stroke="black" points="603.5,-323.2 600,-313.2 596.5,-323.2 603.5,-323.2"/>
<text text-anchor="middle" x="629" y="-334.8" font-family="Times,serif" font-size="14.00">कर्म</text>
</g>
<!-- Node3_1 -->
<g id="node3" class="node">
<title>Node3_1</title>
<ellipse fill="#40e0d0" stroke="#40e0d0" cx="659" cy="-34" rx="78.79" ry="18"/>
<text text-anchor="middle" x="659" y="-30.3" font-family="Times,serif" font-size="14.00">भीमैः(3.1)</text>
</g>
<!-- Node2_1 -->
<g id="node4" class="node">
<title>Node2_1</title>
<ellipse fill="#40e0d0" stroke="#40e0d0" cx="667" cy="-121" rx="106.68" ry="18"/>
<text text-anchor="middle" x="667" y="-117.3" font-family="Times,serif" font-size="14.00">राक्षसैः(2.1)</text>
</g>
<!-- Node3_1&#45;&gt;Node2_1 -->
<g id="edge3" class="edge">
<title>Node3_1&#45;&gt;Node2_1</title>
<path fill="none" stroke="black" d="M661.57,-62.27C662.82,-75.58 664.29,-91.19 665.38,-102.82"/>
<polygon fill="black" stroke="black" points="665.04,-61.83 660.62,-52.2 658.07,-62.49 665.04,-61.83"/>
<text text-anchor="middle" x="720.5" y="-73.8" font-family="Times,serif" font-size="14.00">विशेषणम्</text>
</g>
<!-- Node2_1&#45;&gt;Node1_1 -->
<g id="edge2" class="edge">
<title>Node2_1&#45;&gt;Node1_1</title>
<path fill="none" stroke="black" d="M656.74,-148.55C653.37,-156.3 649.36,-164.66 645,-172 641.32,-178.2 636.7,-184.57 632.33,-190.14"/>
<polygon fill="black" stroke="black" points="660.03,-149.75 660.65,-139.17 653.57,-147.06 660.03,-149.75"/>
<text text-anchor="middle" x="688" y="-160.8" font-family="Times,serif" font-size="14.00">कर्ता</text>
</g>
<!-- Node6_1 -->
<g id="node5" class="node">
<title>Node6_1</title>
<ellipse fill="#93db70" stroke="#93db70" cx="341" cy="-121" rx="69.59" ry="18"/>
<text text-anchor="middle" x="341" y="-117.3" font-family="Times,serif" font-size="14.00">महत्(6.1)</text>
</g>
<!-- Node7_1 -->
<g id="node6" class="node">
<title>Node7_1</title>
<ellipse fill="#93db70" stroke="#93db70" cx="318" cy="-208" rx="69.59" ry="18"/>
<text text-anchor="middle" x="318" y="-204.3" font-family="Times,serif" font-size="14.00">वनम्(7.1)</text>
</g>
<!-- Node6_1&#45;&gt;Node7_1 -->
<g id="edge6" class="edge">
<title>Node6_1&#45;&gt;Node7_1</title>
<path fill="none" stroke="black" d="M331.57,-148.46C330.66,-151.33 329.78,-154.22 329,-157 325.98,-167.78 323.26,-180.06 321.29,-189.76"/>
<polygon fill="black" stroke="black" points="334.9,-149.56 334.75,-138.97 328.26,-147.34 334.9,-149.56"/>
<text text-anchor="middle" x="386.5" y="-160.8" font-family="Times,serif" font-size="14.00">विशेषणम्</text>
</g>
<!-- Node7_1&#45;&gt;Node9_1 -->
<g id="edge7" class="edge">
<title>Node7_1&#45;&gt;Node9_1</title>
<path fill="none" stroke="black" d="M371.3,-225.07C424.1,-240.98 504.13,-265.1 554.16,-280.18"/>
<polygon fill="black" stroke="black" points="372.03,-221.63 361.44,-222.09 370.01,-228.33 372.03,-221.63"/>
<text text-anchor="middle" x="526" y="-247.8" font-family="Times,serif" font-size="14.00">उपमानम्</text>
</g>
<!-- Node12_1 -->
<g id="node7" class="node">
<title>Node12_1</title>
<ellipse fill="#93db70" stroke="#93db70" cx="135" cy="-121" rx="118.88" ry="18"/>
<text text-anchor="middle" x="135" y="-117.3" font-family="Times,serif" font-size="14.00">(रक्षितम्)(12.1)</text>
</g>
<!-- Node12_1&#45;&gt;Node7_1 -->
<g id="edge12" class="edge">
<title>Node12_1&#45;&gt;Node7_1</title>
<path fill="none" stroke="black" d="M163.99,-145.12C176.65,-154.41 192.01,-164.65 207,-172 226.59,-181.61 249.41,-189.35 269.24,-195.07"/>
<polygon fill="black" stroke="black" points="165.79,-142.09 155.69,-138.89 161.58,-147.69 165.79,-142.09"/>
<text text-anchor="middle" x="264.5" y="-160.8" font-family="Times,serif" font-size="14.00">विशेषणम्</text>
</g>
<!-- Node4_1 -->
<g id="node8" class="node">
<title>Node4_1</title>
<ellipse fill="#40e0d0" stroke="#40e0d0" cx="135" cy="-34" rx="87.99" ry="18"/>
<text text-anchor="middle" x="135" y="-30.3" font-family="Times,serif" font-size="14.00">सिंहैः(4.1)</text>
</g>
<!-- Node4_1&#45;&gt;Node12_1 -->
<g id="edge4" class="edge">
<title>Node4_1&#45;&gt;Node12_1</title>
<path fill="none" stroke="black" d="M135,-62.27C135,-75.58 135,-91.19 135,-102.82"/>
<polygon fill="black" stroke="black" points="138.5,-62.2 135,-52.2 131.5,-62.2 138.5,-62.2"/>
<text text-anchor="middle" x="171" y="-73.8" font-family="Times,serif" font-size="14.00">कर्ता</text>
</g>
<!-- Node5_1 -->
<g id="node9" class="node">
<title>Node5_1</title>
<ellipse fill="#ff99ff" stroke="#ff99ff" cx="479" cy="-121" rx="50.89" ry="18"/>
<text text-anchor="middle" x="479" y="-117.3" font-family="Times,serif" font-size="14.00">इव(5.1)</text>
</g>
<!-- Node5_1&#45;&gt;Node7_1 -->
<g id="edge5" class="edge">
<title>Node5_1&#45;&gt;Node7_1</title>
<path fill="none" stroke="black" d="M465.64,-148.01C460.02,-156.75 452.73,-165.82 444,-172 424.81,-185.57 400.55,-193.88 378.44,-198.98"/>
<polygon fill="black" stroke="black" points="468.8,-149.56 470.89,-139.17 462.78,-145.99 468.8,-149.56"/>
<text text-anchor="middle" x="548" y="-160.8" font-family="Times,serif" font-size="14.00">उपमान_द्योतकः</text>
</g>
<!-- Node10_1 -->
<g id="node11" class="node">
<title>Node10_1</title>
<ellipse fill="#ff1975" stroke="#ff1975" cx="477" cy="-469" rx="84.49" ry="18"/>
<text text-anchor="middle" x="477" y="-465.3" font-family="Times,serif" font-size="14.00">चकाशे(10.1)</text>
</g>
<!-- Node8_1&#45;&gt;Node10_1 -->
<g id="edge8" class="edge">
<title>Node8_1&#45;&gt;Node10_1</title>
<path fill="none" stroke="black" d="M567.41,-405.52C546.49,-419.98 519.78,-438.44 500.83,-451.53"/>
<polygon fill="black" stroke="black" points="569.46,-408.36 575.7,-399.79 565.48,-402.6 569.46,-408.36"/>
<text text-anchor="middle" x="652" y="-421.8" font-family="Times,serif" font-size="14.00">वर्तमानसमानकालः</text>
</g>
<!-- Node11_1 -->
<g id="node12" class="node">
<title>Node11_1</title>
<ellipse fill="#ffff00" stroke="#ffff00" cx="355" cy="-295" rx="68.79" ry="18"/>
<text text-anchor="middle" x="355" y="-291.3" font-family="Times,serif" font-size="14.00">कपि&#45;(11.1)</text>
</g>
<!-- Node11_2 -->
<g id="node13" class="node">
<title>Node11_2</title>
<ellipse fill="#00bfff" stroke="#00bfff" cx="355" cy="-382" rx="102.88" ry="18"/>
<text text-anchor="middle" x="355" y="-378.3" font-family="Times,serif" font-size="14.00">कुञ्जरः(11.2)</text>
</g>
<!-- Node11_1&#45;&gt;Node11_2 -->
<g id="edge10" class="edge">
<title>Node11_1&#45;&gt;Node11_2</title>
<path fill="none" stroke="black" d="M355,-323.27C355,-336.58 355,-352.19 355,-363.82"/>
<polygon fill="black" stroke="black" points="358.5,-323.2 355,-313.2 351.5,-323.2 358.5,-323.2"/>
<text text-anchor="middle" x="419.5" y="-334.8" font-family="Times,serif" font-size="14.00">कर्मधारयः</text>
</g>
<!-- Node11_2&#45;&gt;Node10_1 -->
<g id="edge11" class="edge">
<title>Node11_2&#45;&gt;Node10_1</title>
<path fill="none" stroke="black" d="M387.02,-405.31C407.78,-419.77 434.37,-438.3 453.25,-451.45"/>
<polygon fill="black" stroke="black" points="389.02,-402.44 378.81,-399.59 385.02,-408.18 389.02,-402.44"/>
<text text-anchor="middle" x="460" y="-421.8" font-family="Times,serif" font-size="14.00">कर्ता</text>
</g>
</g>
</svg>
