<?xml version="1.0" encoding="UTF-8" standalone="no"?>
<!DOCTYPE svg PUBLIC "-//W3C//DTD SVG 1.1//EN"
 "http://www.w3.org/Graphics/SVG/1.1/DTD/svg11.dtd">
<!-- Generated by graphviz version 2.43.0 (0)
 -->
<!-- Title: G Pages: 1 -->
<svg width="3864pt" height="408pt"
 viewBox="0.00 0.00 3863.89 408.00" xmlns="http://www.w3.org/2000/svg" xmlns:xlink="http://www.w3.org/1999/xlink">
<g id="graph0" class="graph" transform="scale(1 1) rotate(0) translate(4 404)">
<title>G</title>
<polygon fill="#fffacd" stroke="transparent" points="-4,4 -4,-404 3859.89,-404 3859.89,4 -4,4"/>
<g id="clust1" class="cluster">
<title>cluster_1</title>
<polygon fill="#fffacd" stroke="black" points="891.89,-182 891.89,-321 3643.89,-321 3643.89,-182 891.89,-182"/>
</g>
<g id="clust2" class="cluster">
<title>cluster_2</title>
<polygon fill="#fffacd" stroke="black" points="147.89,-8 147.89,-147 357.89,-147 357.89,-8 147.89,-8"/>
</g>
<g id="clust3" class="cluster">
<title>cluster_3</title>
<polygon fill="#fffacd" stroke="black" points="708.89,-8 708.89,-147 874.89,-147 874.89,-8 708.89,-8"/>
</g>
<g id="clust4" class="cluster">
<title>cluster_4</title>
<polygon fill="#fffacd" stroke="black" points="365.89,-182 365.89,-321 531.89,-321 531.89,-182 365.89,-182"/>
</g>
<g id="clust5" class="cluster">
<title>cluster_5</title>
<polygon fill="#fffacd" stroke="black" points="1198.89,-8 1198.89,-147 1438.89,-147 1438.89,-8 1198.89,-8"/>
</g>
<!-- Node2_3 -->
<g id="node1" class="node">
<title>Node2_3</title>
<ellipse fill="#93db70" stroke="#93db70" cx="1015.89" cy="-208" rx="115.88" ry="18"/>
<text text-anchor="middle" x="1015.89" y="-204.3" font-family="Times,serif" font-size="14.00">सम्पन्नम्(2.3)</text>
</g>
<!-- Node25_1 -->
<g id="node2" class="node">
<title>Node25_1</title>
<ellipse fill="#93db70" stroke="#93db70" cx="1967.89" cy="-295" rx="84.49" ry="18"/>
<text text-anchor="middle" x="1967.89" y="-291.3" font-family="Times,serif" font-size="14.00">वेश्म(25.1)</text>
</g>
<!-- Node2_3&#45;&gt;Node25_1 -->
<g id="edge4" class="edge">
<title>Node2_3&#45;&gt;Node25_1</title>
<path fill="none" stroke="black" d="M1091.57,-224.91C1148.57,-236.27 1228.8,-250.91 1299.89,-259 1509.03,-282.8 1756.88,-290.44 1883.79,-292.88"/>
<polygon fill="black" stroke="black" points="1092.05,-221.44 1081.56,-222.91 1090.67,-228.3 1092.05,-221.44"/>
<text text-anchor="middle" x="1357.39" y="-247.8" font-family="Times,serif" font-size="14.00">विशेषणम्</text>
</g>
<!-- Node28_1 -->
<g id="node41" class="node">
<title>Node28_1</title>
<ellipse fill="#ff1975" stroke="#ff1975" cx="1385.89" cy="-382" rx="84.49" ry="18"/>
<text text-anchor="middle" x="1385.89" y="-378.3" font-family="Times,serif" font-size="14.00">ददर्श(28.1)</text>
</g>
<!-- Node25_1&#45;&gt;Node28_1 -->
<g id="edge37" class="edge">
<title>Node25_1&#45;&gt;Node28_1</title>
<path fill="none" stroke="black" d="M1890.15,-307.35C1775.29,-324.13 1562.14,-355.26 1453.44,-371.14"/>
<polygon fill="black" stroke="black" points="1890.89,-310.78 1900.28,-305.88 1889.88,-303.86 1890.89,-310.78"/>
<text text-anchor="middle" x="1739.89" y="-334.8" font-family="Times,serif" font-size="14.00">कर्म</text>
</g>
<!-- Node6_3 -->
<g id="node3" class="node">
<title>Node6_3</title>
<ellipse fill="#93db70" stroke="#93db70" cx="1273.89" cy="-208" rx="124.58" ry="18"/>
<text text-anchor="middle" x="1273.89" y="-204.3" font-family="Times,serif" font-size="14.00">समाकीर्णम्(6.3)</text>
</g>
<!-- Node6_3&#45;&gt;Node25_1 -->
<g id="edge11" class="edge">
<title>Node6_3&#45;&gt;Node25_1</title>
<path fill="none" stroke="black" d="M1341.24,-226.47C1386.16,-237.47 1446.7,-251.04 1500.89,-259 1634.43,-278.61 1791.14,-287.5 1884.83,-291.33"/>
<polygon fill="black" stroke="black" points="1341.87,-223.02 1331.32,-224.02 1340.19,-229.81 1341.87,-223.02"/>
<text text-anchor="middle" x="1558.39" y="-247.8" font-family="Times,serif" font-size="14.00">विशेषणम्</text>
</g>
<!-- Node11_3 -->
<g id="node4" class="node">
<title>Node11_3</title>
<ellipse fill="#93db70" stroke="#93db70" cx="1697.89" cy="-208" rx="112.38" ry="18"/>
<text text-anchor="middle" x="1697.89" y="-204.3" font-family="Times,serif" font-size="14.00">अभिरुतम्(11.3)</text>
</g>
<!-- Node11_3&#45;&gt;Node25_1 -->
<g id="edge18" class="edge">
<title>Node11_3&#45;&gt;Node25_1</title>
<path fill="none" stroke="black" d="M1753.14,-227.79C1781.66,-237.36 1817.06,-249.05 1848.89,-259 1872.02,-266.23 1897.8,-273.86 1919.44,-280.15"/>
<polygon fill="black" stroke="black" points="1753.95,-224.37 1743.36,-224.5 1751.72,-231 1753.95,-224.37"/>
<text text-anchor="middle" x="1906.39" y="-247.8" font-family="Times,serif" font-size="14.00">विशेषणम्</text>
</g>
<!-- Node12_3 -->
<g id="node5" class="node">
<title>Node12_3</title>
<ellipse fill="#93db70" stroke="#93db70" cx="2507.89" cy="-208" rx="121.58" ry="18"/>
<text text-anchor="middle" x="2507.89" y="-204.3" font-family="Times,serif" font-size="14.00">विनादितम्(12.3)</text>
</g>
<!-- Node12_3&#45;&gt;Node25_1 -->
<g id="edge21" class="edge">
<title>Node12_3&#45;&gt;Node25_1</title>
<path fill="none" stroke="black" d="M2432.76,-225.28C2382.34,-235.83 2314.33,-249.37 2253.89,-259 2182.26,-270.42 2100.02,-280.13 2042.17,-286.41"/>
<polygon fill="black" stroke="black" points="2433.54,-228.69 2442.61,-223.21 2432.1,-221.84 2433.54,-228.69"/>
<text text-anchor="middle" x="2395.39" y="-247.8" font-family="Times,serif" font-size="14.00">विशेषणम्</text>
</g>
<!-- Node13_2 -->
<g id="node6" class="node">
<title>Node13_2</title>
<ellipse fill="#93db70" stroke="#93db70" cx="2759.89" cy="-208" rx="112.38" ry="18"/>
<text text-anchor="middle" x="2759.89" y="-204.3" font-family="Times,serif" font-size="14.00">अर्चितम्(13.2)</text>
</g>
<!-- Node13_2&#45;&gt;Node25_1 -->
<g id="edge23" class="edge">
<title>Node13_2&#45;&gt;Node25_1</title>
<path fill="none" stroke="black" d="M2681.01,-224.06C2620.03,-235.21 2533.38,-249.97 2456.89,-259 2314.26,-275.84 2147.19,-285.69 2049.87,-290.44"/>
<polygon fill="black" stroke="black" points="2681.75,-227.49 2690.95,-222.24 2680.49,-220.6 2681.75,-227.49"/>
<text text-anchor="middle" x="2614.39" y="-247.8" font-family="Times,serif" font-size="14.00">विशेषणम्</text>
</g>
<!-- Node14_1 -->
<g id="node7" class="node">
<title>Node14_1</title>
<ellipse fill="#93db70" stroke="#93db70" cx="2246.89" cy="-208" rx="121.58" ry="18"/>
<text text-anchor="middle" x="2246.89" y="-204.3" font-family="Times,serif" font-size="14.00">पर्वसुतम्(14.1)</text>
</g>
<!-- Node14_1&#45;&gt;Node25_1 -->
<g id="edge24" class="edge">
<title>Node14_1&#45;&gt;Node25_1</title>
<path fill="none" stroke="black" d="M2188.39,-227.54C2158.13,-237.07 2120.57,-248.79 2086.89,-259 2063.5,-266.09 2037.46,-273.78 2015.72,-280.13"/>
<polygon fill="black" stroke="black" points="2189.46,-230.88 2197.94,-224.53 2187.35,-224.2 2189.46,-230.88"/>
<text text-anchor="middle" x="2192.39" y="-247.8" font-family="Times,serif" font-size="14.00">विशेषणम्</text>
</g>
<!-- Node16_1 -->
<g id="node8" class="node">
<title>Node16_1</title>
<ellipse fill="#93db70" stroke="#93db70" cx="2992.89" cy="-208" rx="102.88" ry="18"/>
<text text-anchor="middle" x="2992.89" y="-204.3" font-family="Times,serif" font-size="14.00">पूजितम्(16.1)</text>
</g>
<!-- Node16_1&#45;&gt;Node25_1 -->
<g id="edge26" class="edge">
<title>Node16_1&#45;&gt;Node25_1</title>
<path fill="none" stroke="black" d="M2916.06,-223.48C2852.05,-234.98 2758.35,-250.48 2675.89,-259 2451.11,-282.22 2184.53,-290.13 2051.76,-292.76"/>
<polygon fill="black" stroke="black" points="2916.85,-226.9 2926.07,-221.67 2915.61,-220.01 2916.85,-226.9"/>
<text text-anchor="middle" x="2846.39" y="-247.8" font-family="Times,serif" font-size="14.00">विशेषणम्</text>
</g>
<!-- Node22_2 -->
<g id="node9" class="node">
<title>Node22_2</title>
<ellipse fill="#93db70" stroke="#93db70" cx="1967.89" cy="-208" rx="139.98" ry="18"/>
<text text-anchor="middle" x="1967.89" y="-204.3" font-family="Times,serif" font-size="14.00">समनिःस्वनम्(22.2)</text>
</g>
<!-- Node22_2&#45;&gt;Node25_1 -->
<g id="edge33" class="edge">
<title>Node22_2&#45;&gt;Node25_1</title>
<path fill="none" stroke="black" d="M1967.89,-236.27C1967.89,-249.58 1967.89,-265.19 1967.89,-276.82"/>
<polygon fill="black" stroke="black" points="1971.39,-236.2 1967.89,-226.2 1964.39,-236.2 1971.39,-236.2"/>
<text text-anchor="middle" x="2025.39" y="-247.8" font-family="Times,serif" font-size="14.00">विशेषणम्</text>
</g>
<!-- Node24_1 -->
<g id="node10" class="node">
<title>Node24_1</title>
<ellipse fill="#93db70" stroke="#93db70" cx="1491.89" cy="-208" rx="75.29" ry="18"/>
<text text-anchor="middle" x="1491.89" y="-204.3" font-family="Times,serif" font-size="14.00">महत्(24.1)</text>
</g>
<!-- Node24_1&#45;&gt;Node25_1 -->
<g id="edge36" class="edge">
<title>Node24_1&#45;&gt;Node25_1</title>
<path fill="none" stroke="black" d="M1546.78,-225.36C1584.94,-236.22 1637.15,-250.07 1683.89,-259 1753.55,-272.3 1833.83,-281.65 1891.23,-287.32"/>
<polygon fill="black" stroke="black" points="1547.48,-221.92 1536.9,-222.52 1545.55,-228.64 1547.48,-221.92"/>
<text text-anchor="middle" x="1741.39" y="-247.8" font-family="Times,serif" font-size="14.00">विशेषणम्</text>
</g>
<!-- Node26_3 -->
<g id="node11" class="node">
<title>Node26_3</title>
<ellipse fill="#93db70" stroke="#93db70" cx="3234.89" cy="-208" rx="121.58" ry="18"/>
<text text-anchor="middle" x="3234.89" y="-204.3" font-family="Times,serif" font-size="14.00">परिच्छदम्(26.3)</text>
</g>
<!-- Node26_3&#45;&gt;Node25_1 -->
<g id="edge40" class="edge">
<title>Node26_3&#45;&gt;Node25_1</title>
<path fill="none" stroke="black" d="M3152.54,-224.27C3086.61,-235.84 2991.64,-251.06 2907.89,-259 2593.3,-288.81 2217.24,-293.55 2052.37,-294.09"/>
<polygon fill="black" stroke="black" points="3153.22,-227.7 3162.46,-222.51 3152,-220.81 3153.22,-227.7"/>
<text text-anchor="middle" x="3082.39" y="-247.8" font-family="Times,serif" font-size="14.00">विशेषणम्</text>
</g>
<!-- Node27_3 -->
<g id="node12" class="node">
<title>Node27_3</title>
<ellipse fill="#93db70" stroke="#93db70" cx="3504.89" cy="-208" rx="130.78" ry="18"/>
<text text-anchor="middle" x="3504.89" y="-204.3" font-family="Times,serif" font-size="14.00">समाकीर्णम्(27.3)</text>
</g>
<!-- Node27_3&#45;&gt;Node25_1 -->
<g id="edge43" class="edge">
<title>Node27_3&#45;&gt;Node25_1</title>
<path fill="none" stroke="black" d="M3416.23,-224C3343.34,-235.68 3237.23,-251.17 3143.89,-259 2736.05,-293.21 2246.19,-295.31 2052.57,-294.61"/>
<polygon fill="black" stroke="black" points="3416.98,-227.43 3426.29,-222.38 3415.86,-220.51 3416.98,-227.43"/>
<text text-anchor="middle" x="3330.39" y="-247.8" font-family="Times,serif" font-size="14.00">विशेषणम्</text>
</g>
<!-- Node3_1 -->
<g id="node13" class="node">
<title>Node3_1</title>
<ellipse fill="#40e0d0" stroke="#40e0d0" cx="252.89" cy="-34" rx="96.68" ry="18"/>
<text text-anchor="middle" x="252.89" y="-30.3" font-family="Times,serif" font-size="14.00">मुख्यैः(3.1)</text>
</g>
<!-- Node5_2 -->
<g id="node14" class="node">
<title>Node5_2</title>
<ellipse fill="#40e0d0" stroke="#40e0d0" cx="252.89" cy="-121" rx="96.68" ry="18"/>
<text text-anchor="middle" x="252.89" y="-117.3" font-family="Times,serif" font-size="14.00">चन्दनैः(5.2)</text>
</g>
<!-- Node3_1&#45;&gt;Node5_2 -->
<g id="edge5" class="edge">
<title>Node3_1&#45;&gt;Node5_2</title>
<path fill="none" stroke="black" d="M213.54,-57.48C204.94,-65.39 199.74,-74.86 204.89,-85 208.73,-92.54 215.03,-98.84 221.83,-103.92"/>
<polygon fill="black" stroke="black" points="215.77,-60.18 221.42,-51.22 211.41,-54.7 215.77,-60.18"/>
<text text-anchor="middle" x="262.39" y="-73.8" font-family="Times,serif" font-size="14.00">विशेषणम्</text>
</g>
<!-- Node5_2&#45;&gt;Node2_3 -->
<g id="edge8" class="edge">
<title>Node5_2&#45;&gt;Node2_3</title>
<path fill="none" stroke="black" d="M353.51,-128.16C479.73,-136.64 702.59,-154.11 891.89,-182 911.66,-184.91 933.05,-188.91 952.4,-192.86"/>
<polygon fill="black" stroke="black" points="353.68,-124.66 343.47,-127.49 353.21,-131.65 353.68,-124.66"/>
<text text-anchor="middle" x="840.89" y="-160.8" font-family="Times,serif" font-size="14.00">करणम्</text>
</g>
<!-- Node9_1 -->
<g id="node15" class="node">
<title>Node9_1</title>
<ellipse fill="#93db70" stroke="#93db70" cx="786.89" cy="-34" rx="69.59" ry="18"/>
<text text-anchor="middle" x="786.89" y="-30.3" font-family="Times,serif" font-size="14.00">महत्(9.1)</text>
</g>
<!-- Node10_1 -->
<g id="node16" class="node">
<title>Node10_1</title>
<ellipse fill="#93db70" stroke="#93db70" cx="791.89" cy="-121" rx="75.29" ry="18"/>
<text text-anchor="middle" x="791.89" y="-117.3" font-family="Times,serif" font-size="14.00">वनम्(10.1)</text>
</g>
<!-- Node9_1&#45;&gt;Node10_1 -->
<g id="edge14" class="edge">
<title>Node9_1&#45;&gt;Node10_1</title>
<path fill="none" stroke="black" d="M758.55,-58.77C752.43,-66.76 748.85,-75.94 752.89,-85 756.08,-92.14 761.53,-98.44 767.36,-103.65"/>
<polygon fill="black" stroke="black" points="761.24,-61.02 765.33,-51.24 756.03,-56.33 761.24,-61.02"/>
<text text-anchor="middle" x="810.39" y="-73.8" font-family="Times,serif" font-size="14.00">विशेषणम्</text>
</g>
<!-- Node10_1&#45;&gt;Node6_3 -->
<g id="edge15" class="edge">
<title>Node10_1&#45;&gt;Node6_3</title>
<path fill="none" stroke="black" d="M861.94,-133.71C932.45,-145.58 1044.29,-164.62 1140.89,-182 1160.66,-185.56 1182.06,-189.53 1201.8,-193.24"/>
<polygon fill="black" stroke="black" points="862.29,-130.22 851.85,-132.02 861.13,-137.13 862.29,-130.22"/>
<text text-anchor="middle" x="1132.89" y="-160.8" font-family="Times,serif" font-size="14.00">उपमानम्</text>
</g>
<!-- Node15_1 -->
<g id="node17" class="node">
<title>Node15_1</title>
<ellipse fill="#00bfff" stroke="#00bfff" cx="430.89" cy="-208" rx="56.59" ry="18"/>
<text text-anchor="middle" x="430.89" y="-204.3" font-family="Times,serif" font-size="14.00">सः(15.1)</text>
</g>
<!-- Node29_2 -->
<g id="node18" class="node">
<title>Node29_2</title>
<ellipse fill="#00bfff" stroke="#00bfff" cx="448.89" cy="-295" rx="75.29" ry="18"/>
<text text-anchor="middle" x="448.89" y="-291.3" font-family="Times,serif" font-size="14.00">कपिः(29.2)</text>
</g>
<!-- Node15_1&#45;&gt;Node29_2 -->
<g id="edge25" class="edge">
<title>Node15_1&#45;&gt;Node29_2</title>
<path fill="none" stroke="black" d="M436.67,-236.27C439.49,-249.58 442.79,-265.19 445.26,-276.82"/>
<polygon fill="black" stroke="black" points="440.03,-235.26 434.54,-226.2 433.18,-236.71 440.03,-235.26"/>
<text text-anchor="middle" x="498.39" y="-247.8" font-family="Times,serif" font-size="14.00">विशेषणम्</text>
</g>
<!-- Node29_2&#45;&gt;Node28_1 -->
<g id="edge45" class="edge">
<title>Node29_2&#45;&gt;Node28_1</title>
<path fill="none" stroke="black" d="M528.25,-303.2C706.18,-319.34 1135.08,-358.25 1309.85,-374.1"/>
<polygon fill="black" stroke="black" points="528.45,-299.7 518.17,-302.28 527.82,-306.67 528.45,-299.7"/>
<text text-anchor="middle" x="1008.89" y="-334.8" font-family="Times,serif" font-size="14.00">कर्ता</text>
</g>
<!-- Node21_1 -->
<g id="node19" class="node">
<title>Node21_1</title>
<ellipse fill="#93db70" stroke="#93db70" cx="1318.89" cy="-34" rx="112.38" ry="18"/>
<text text-anchor="middle" x="1318.89" y="-30.3" font-family="Times,serif" font-size="14.00">गम्भीरम्(21.1)</text>
</g>
<!-- Node19_1 -->
<g id="node20" class="node">
<title>Node19_1</title>
<ellipse fill="#93db70" stroke="#93db70" cx="1318.89" cy="-121" rx="112.38" ry="18"/>
<text text-anchor="middle" x="1318.89" y="-117.3" font-family="Times,serif" font-size="14.00">समुद्रम्(19.1)</text>
</g>
<!-- Node21_1&#45;&gt;Node19_1 -->
<g id="edge31" class="edge">
<title>Node21_1&#45;&gt;Node19_1</title>
<path fill="none" stroke="black" d="M1317.19,-62.13C1317.07,-64.79 1316.97,-67.44 1316.89,-70 1316.58,-80.94 1317.06,-93.23 1317.63,-102.88"/>
<polygon fill="black" stroke="black" points="1320.69,-62.25 1317.72,-52.08 1313.7,-61.88 1320.69,-62.25"/>
<text text-anchor="middle" x="1374.39" y="-73.8" font-family="Times,serif" font-size="14.00">विशेषणम्</text>
</g>
<!-- Node19_1&#45;&gt;Node22_2 -->
<g id="edge29" class="edge">
<title>Node19_1&#45;&gt;Node22_2</title>
<path fill="none" stroke="black" d="M1316.85,-149.14C1317.69,-157.67 1320.39,-166.34 1326.89,-172 1337.2,-180.97 1805.28,-180.73 1818.89,-182 1843.83,-184.33 1870.9,-188.4 1895.04,-192.59"/>
<polygon fill="black" stroke="black" points="1320.34,-148.91 1316.59,-139 1313.34,-149.08 1320.34,-148.91"/>
<text text-anchor="middle" x="1376.89" y="-160.8" font-family="Times,serif" font-size="14.00">उपमानम्</text>
</g>
<!-- Node1_1 -->
<g id="node21" class="node">
<title>Node1_1</title>
<ellipse fill="#93db70" stroke="#93db70" cx="1508.89" cy="-121" rx="59.59" ry="18"/>
<text text-anchor="middle" x="1508.89" y="-117.3" font-family="Times,serif" font-size="14.00">तत्(1.1)</text>
</g>
<!-- Node1_1&#45;&gt;Node2_3 -->
<g id="edge1" class="edge">
<title>Node1_1&#45;&gt;Node2_3</title>
<path fill="none" stroke="black" d="M1481.87,-144.46C1467.64,-154.9 1449.33,-166.25 1430.89,-172 1369.12,-191.26 1204.16,-174.47 1139.89,-182 1119.17,-184.43 1096.75,-188.5 1076.75,-192.65"/>
<polygon fill="black" stroke="black" points="1484.34,-146.98 1490.18,-138.13 1480.1,-141.41 1484.34,-146.98"/>
<text text-anchor="middle" x="1520.39" y="-160.8" font-family="Times,serif" font-size="14.00">सम्बन्धः</text>
</g>
<!-- Node2_1 -->
<g id="node22" class="node">
<title>Node2_1</title>
<ellipse fill="#ffff00" stroke="#ffff00" cx="1654.89" cy="-34" rx="63.09" ry="18"/>
<text text-anchor="middle" x="1654.89" y="-30.3" font-family="Times,serif" font-size="14.00">राज&#45;(2.1)</text>
</g>
<!-- Node2_2 -->
<g id="node23" class="node">
<title>Node2_2</title>
<ellipse fill="#ffff00" stroke="#ffff00" cx="1652.89" cy="-121" rx="63.09" ry="18"/>
<text text-anchor="middle" x="1652.89" y="-117.3" font-family="Times,serif" font-size="14.00">गुण&#45;(2.2)</text>
</g>
<!-- Node2_1&#45;&gt;Node2_2 -->
<g id="edge2" class="edge">
<title>Node2_1&#45;&gt;Node2_2</title>
<path fill="none" stroke="black" d="M1654.25,-62.27C1653.94,-75.58 1653.57,-91.19 1653.3,-102.82"/>
<polygon fill="black" stroke="black" points="1657.75,-62.28 1654.49,-52.2 1650.75,-62.12 1657.75,-62.28"/>
<text text-anchor="middle" x="1757.39" y="-73.8" font-family="Times,serif" font-size="14.00">षष्ठी_तत्पुरुषः</text>
</g>
<!-- Node2_2&#45;&gt;Node2_3 -->
<g id="edge3" class="edge">
<title>Node2_2&#45;&gt;Node2_3</title>
<path fill="none" stroke="black" d="M1628.01,-145.04C1615.23,-155.35 1598.81,-166.43 1581.89,-172 1535.23,-187.36 1188.72,-176.57 1139.89,-182 1119.05,-184.32 1096.5,-188.39 1076.42,-192.58"/>
<polygon fill="black" stroke="black" points="1630.46,-147.56 1635.86,-138.44 1625.95,-142.2 1630.46,-147.56"/>
<text text-anchor="middle" x="1721.39" y="-160.8" font-family="Times,serif" font-size="14.00">तृतीया_तत्पुरुषः</text>
</g>
<!-- Node4_1 -->
<g id="node24" class="node">
<title>Node4_1</title>
<ellipse fill="#ff99ff" stroke="#ff99ff" cx="408.89" cy="-34" rx="41.69" ry="18"/>
<text text-anchor="middle" x="408.89" y="-30.3" font-family="Times,serif" font-size="14.00">च(4.1)</text>
</g>
<!-- Node4_1&#45;&gt;Node5_2 -->
<g id="edge6" class="edge">
<title>Node4_1&#45;&gt;Node5_2</title>
<path fill="none" stroke="black" d="M373.91,-52.8C363.8,-58.15 352.82,-64.15 342.89,-70 332.38,-76.2 330.43,-78.83 319.89,-85 308.8,-91.5 296.38,-98.15 285.27,-103.89"/>
<polygon fill="black" stroke="black" points="375.66,-55.84 382.89,-48.1 372.41,-49.63 375.66,-55.84"/>
<text text-anchor="middle" x="446.39" y="-73.8" font-family="Times,serif" font-size="14.00">समुच्चय_द्योतकः</text>
</g>
<!-- Node5_1 -->
<g id="node25" class="node">
<title>Node5_1</title>
<ellipse fill="#ffff00" stroke="#ffff00" cx="571.89" cy="-34" rx="53.89" ry="18"/>
<text text-anchor="middle" x="571.89" y="-30.3" font-family="Times,serif" font-size="14.00">वर&#45;(5.1)</text>
</g>
<!-- Node5_1&#45;&gt;Node5_2 -->
<g id="edge7" class="edge">
<title>Node5_1&#45;&gt;Node5_2</title>
<path fill="none" stroke="black" d="M565.86,-61.72C562.57,-70.45 557.54,-79.35 549.89,-85 518.85,-107.96 423.61,-116.06 349.25,-118.81"/>
<polygon fill="black" stroke="black" points="569.22,-62.71 568.89,-52.12 562.55,-60.6 569.22,-62.71"/>
<text text-anchor="middle" x="626.39" y="-73.8" font-family="Times,serif" font-size="14.00">कर्मधारयः</text>
</g>
<!-- Node6_1 -->
<g id="node26" class="node">
<title>Node6_1</title>
<ellipse fill="#ffff00" stroke="#ffff00" cx="1884.89" cy="-34" rx="63.09" ry="18"/>
<text text-anchor="middle" x="1884.89" y="-30.3" font-family="Times,serif" font-size="14.00">महा&#45;(6.1)</text>
</g>
<!-- Node6_2 -->
<g id="node27" class="node">
<title>Node6_2</title>
<ellipse fill="#ffff00" stroke="#ffff00" cx="1869.89" cy="-121" rx="53.89" ry="18"/>
<text text-anchor="middle" x="1869.89" y="-117.3" font-family="Times,serif" font-size="14.00">जन&#45;(6.2)</text>
</g>
<!-- Node6_1&#45;&gt;Node6_2 -->
<g id="edge9" class="edge">
<title>Node6_1&#45;&gt;Node6_2</title>
<path fill="none" stroke="black" d="M1880.08,-62.27C1877.73,-75.58 1874.98,-91.19 1872.92,-102.82"/>
<polygon fill="black" stroke="black" points="1883.57,-62.66 1881.86,-52.2 1876.67,-61.44 1883.57,-62.66"/>
<text text-anchor="middle" x="1942.39" y="-73.8" font-family="Times,serif" font-size="14.00">कर्मधारयः</text>
</g>
<!-- Node6_2&#45;&gt;Node6_3 -->
<g id="edge10" class="edge">
<title>Node6_2&#45;&gt;Node6_3</title>
<path fill="none" stroke="black" d="M1860.34,-148.38C1855.64,-157.48 1848.99,-166.71 1839.89,-172 1819.14,-184.07 1431.77,-179.51 1407.89,-182 1385.42,-184.34 1361.06,-188.42 1339.36,-192.6"/>
<polygon fill="black" stroke="black" points="1863.6,-149.66 1864.54,-139.11 1857.22,-146.77 1863.6,-149.66"/>
<text text-anchor="middle" x="1964.39" y="-160.8" font-family="Times,serif" font-size="14.00">तृतीया_तत्पुरुषः</text>
</g>
<!-- Node7_1 -->
<g id="node28" class="node">
<title>Node7_1</title>
<ellipse fill="#40e0d0" stroke="#40e0d0" cx="970.89" cy="-34" rx="87.99" ry="18"/>
<text text-anchor="middle" x="970.89" y="-30.3" font-family="Times,serif" font-size="14.00">सिंहैः(7.1)</text>
</g>
<!-- Node7_1&#45;&gt;Node10_1 -->
<g id="edge12" class="edge">
<title>Node7_1&#45;&gt;Node10_1</title>
<path fill="none" stroke="black" d="M923.14,-54.35C912.37,-59.14 901.11,-64.48 890.89,-70 880.16,-75.8 878.58,-79.1 867.89,-85 854.92,-92.17 840.23,-99.18 827.23,-105.02"/>
<polygon fill="black" stroke="black" points="924.66,-57.5 932.43,-50.3 921.87,-51.09 924.66,-57.5"/>
<text text-anchor="middle" x="940.89" y="-73.8" font-family="Times,serif" font-size="14.00">सहार्थः</text>
</g>
<!-- Node8_1 -->
<g id="node29" class="node">
<title>Node8_1</title>
<ellipse fill="#ff99ff" stroke="#ff99ff" cx="1126.89" cy="-34" rx="50.89" ry="18"/>
<text text-anchor="middle" x="1126.89" y="-30.3" font-family="Times,serif" font-size="14.00">इव(8.1)</text>
</g>
<!-- Node8_1&#45;&gt;Node10_1 -->
<g id="edge13" class="edge">
<title>Node8_1&#45;&gt;Node10_1</title>
<path fill="none" stroke="black" d="M1079.36,-49.02C1055.14,-56.39 1028.42,-64.91 1016.89,-70 1004.69,-75.39 1003.43,-80.44 990.89,-85 949.19,-100.16 900.11,-108.89 861.13,-113.83"/>
<polygon fill="black" stroke="black" points="1080.62,-52.3 1089.18,-46.06 1078.6,-45.6 1080.62,-52.3"/>
<text text-anchor="middle" x="1105.89" y="-73.8" font-family="Times,serif" font-size="14.00">उपमान_द्योतकः</text>
</g>
<!-- Node11_1 -->
<g id="node30" class="node">
<title>Node11_1</title>
<ellipse fill="#ffff00" stroke="#ffff00" cx="2105.89" cy="-34" rx="77.99" ry="18"/>
<text text-anchor="middle" x="2105.89" y="-30.3" font-family="Times,serif" font-size="14.00">भेरी&#45;(11.1)</text>
</g>
<!-- Node11_2 -->
<g id="node31" class="node">
<title>Node11_2</title>
<ellipse fill="#ffff00" stroke="#ffff00" cx="2105.89" cy="-121" rx="96.68" ry="18"/>
<text text-anchor="middle" x="2105.89" y="-117.3" font-family="Times,serif" font-size="14.00">मृदङ्ग&#45;(11.2)</text>
</g>
<!-- Node11_1&#45;&gt;Node11_2 -->
<g id="edge16" class="edge">
<title>Node11_1&#45;&gt;Node11_2</title>
<path fill="none" stroke="black" d="M2105.89,-62.27C2105.89,-75.58 2105.89,-91.19 2105.89,-102.82"/>
<polygon fill="black" stroke="black" points="2109.39,-62.2 2105.89,-52.2 2102.39,-62.2 2109.39,-62.2"/>
<text text-anchor="middle" x="2170.39" y="-73.8" font-family="Times,serif" font-size="14.00">द्वन्द्वः</text>
</g>
<!-- Node11_2&#45;&gt;Node11_3 -->
<g id="edge17" class="edge">
<title>Node11_2&#45;&gt;Node11_3</title>
<path fill="none" stroke="black" d="M2100.11,-149.06C2096.84,-157.83 2091.76,-166.65 2083.89,-172 2059.53,-188.56 1848.14,-178.45 1818.89,-182 1798.66,-184.45 1776.79,-188.53 1757.27,-192.69"/>
<polygon fill="black" stroke="black" points="2103.49,-149.97 2103.08,-139.39 2096.8,-147.92 2103.49,-149.97"/>
<text text-anchor="middle" x="2206.39" y="-160.8" font-family="Times,serif" font-size="14.00">तृतीया_तत्पुरुषः</text>
</g>
<!-- Node12_1 -->
<g id="node32" class="node">
<title>Node12_1</title>
<ellipse fill="#ffff00" stroke="#ffff00" cx="2374.89" cy="-34" rx="77.99" ry="18"/>
<text text-anchor="middle" x="2374.89" y="-30.3" font-family="Times,serif" font-size="14.00">शङ्ख&#45;(12.1)</text>
</g>
<!-- Node12_2 -->
<g id="node33" class="node">
<title>Node12_2</title>
<ellipse fill="#ffff00" stroke="#ffff00" cx="2374.89" cy="-121" rx="68.79" ry="18"/>
<text text-anchor="middle" x="2374.89" y="-117.3" font-family="Times,serif" font-size="14.00">घोष&#45;(12.2)</text>
</g>
<!-- Node12_1&#45;&gt;Node12_2 -->
<g id="edge19" class="edge">
<title>Node12_1&#45;&gt;Node12_2</title>
<path fill="none" stroke="black" d="M2374.89,-62.27C2374.89,-75.58 2374.89,-91.19 2374.89,-102.82"/>
<polygon fill="black" stroke="black" points="2378.39,-62.2 2374.89,-52.2 2371.39,-62.2 2378.39,-62.2"/>
<text text-anchor="middle" x="2478.39" y="-73.8" font-family="Times,serif" font-size="14.00">षष्ठी_तत्पुरुषः</text>
</g>
<!-- Node12_2&#45;&gt;Node12_3 -->
<g id="edge20" class="edge">
<title>Node12_2&#45;&gt;Node12_3</title>
<path fill="none" stroke="black" d="M2369.53,-149.23C2369.41,-157.28 2370.9,-165.64 2375.89,-172 2383.22,-181.32 2404.96,-188.7 2428.74,-194.23"/>
<polygon fill="black" stroke="black" points="2373.04,-149.29 2370.46,-139.01 2366.07,-148.65 2373.04,-149.29"/>
<text text-anchor="middle" x="2486.39" y="-160.8" font-family="Times,serif" font-size="14.00">तृतीया_तत्पुरुषः</text>
</g>
<!-- Node13_1 -->
<g id="node34" class="node">
<title>Node13_1</title>
<ellipse fill="#ffff00" stroke="#ffff00" cx="2578.89" cy="-121" rx="87.18" ry="18"/>
<text text-anchor="middle" x="2578.89" y="-117.3" font-family="Times,serif" font-size="14.00">नित्य&#45;(13.1)</text>
</g>
<!-- Node13_1&#45;&gt;Node13_2 -->
<g id="edge22" class="edge">
<title>Node13_1&#45;&gt;Node13_2</title>
<path fill="none" stroke="black" d="M2600.05,-146.56C2609.05,-155.69 2620.17,-165.42 2631.89,-172 2649.17,-181.7 2669.28,-188.83 2688.38,-194.03"/>
<polygon fill="black" stroke="black" points="2602.43,-143.98 2593.02,-139.11 2597.34,-148.78 2602.43,-143.98"/>
<text text-anchor="middle" x="2703.39" y="-160.8" font-family="Times,serif" font-size="14.00">बहुव्रीहिः</text>
</g>
<!-- Node17_1 -->
<g id="node35" class="node">
<title>Node17_1</title>
<ellipse fill="#40e0d0" stroke="#40e0d0" cx="2796.89" cy="-121" rx="112.38" ry="18"/>
<text text-anchor="middle" x="2796.89" y="-117.3" font-family="Times,serif" font-size="14.00">राक्षसैः(17.1)</text>
</g>
<!-- Node17_1&#45;&gt;Node16_1 -->
<g id="edge27" class="edge">
<title>Node17_1&#45;&gt;Node16_1</title>
<path fill="none" stroke="black" d="M2843.63,-142.27C2878.17,-157.25 2924.53,-177.35 2956.37,-191.16"/>
<polygon fill="black" stroke="black" points="2844.79,-138.96 2834.22,-138.19 2842,-145.38 2844.79,-138.96"/>
<text text-anchor="middle" x="2941.89" y="-160.8" font-family="Times,serif" font-size="14.00">करणम्</text>
</g>
<!-- Node18_1 -->
<g id="node36" class="node">
<title>Node18_1</title>
<ellipse fill="#ff99ff" stroke="#ff99ff" cx="2992.89" cy="-121" rx="65.79" ry="18"/>
<text text-anchor="middle" x="2992.89" y="-117.3" font-family="Times,serif" font-size="14.00">सदा(18.1)</text>
</g>
<!-- Node18_1&#45;&gt;Node16_1 -->
<g id="edge28" class="edge">
<title>Node18_1&#45;&gt;Node16_1</title>
<path fill="none" stroke="black" d="M2992.89,-149.27C2992.89,-162.58 2992.89,-178.19 2992.89,-189.82"/>
<polygon fill="black" stroke="black" points="2996.39,-149.2 2992.89,-139.2 2989.39,-149.2 2996.39,-149.2"/>
<text text-anchor="middle" x="3071.39" y="-160.8" font-family="Times,serif" font-size="14.00">कालाधिकरणम्</text>
</g>
<!-- Node20_1 -->
<g id="node37" class="node">
<title>Node20_1</title>
<ellipse fill="#ff99ff" stroke="#ff99ff" cx="1505.89" cy="-34" rx="56.59" ry="18"/>
<text text-anchor="middle" x="1505.89" y="-30.3" font-family="Times,serif" font-size="14.00">इव(20.1)</text>
</g>
<!-- Node20_1&#45;&gt;Node19_1 -->
<g id="edge30" class="edge">
<title>Node20_1&#45;&gt;Node19_1</title>
<path fill="none" stroke="black" d="M1477.57,-57.02C1464.25,-66.6 1447.83,-77.35 1431.89,-85 1414.67,-93.26 1395.05,-100.14 1377.05,-105.55"/>
<polygon fill="black" stroke="black" points="1479.85,-59.69 1485.83,-50.94 1475.7,-54.05 1479.85,-59.69"/>
<text text-anchor="middle" x="1545.89" y="-73.8" font-family="Times,serif" font-size="14.00">उपमान_द्योतकः</text>
</g>
<!-- Node22_1 -->
<g id="node38" class="node">
<title>Node22_1</title>
<ellipse fill="#ffff00" stroke="#ffff00" cx="3172.89" cy="-121" rx="96.68" ry="18"/>
<text text-anchor="middle" x="3172.89" y="-117.3" font-family="Times,serif" font-size="14.00">समुद्र&#45;(22.1)</text>
</g>
<!-- Node22_1&#45;&gt;Node22_2 -->
<g id="edge32" class="edge">
<title>Node22_1&#45;&gt;Node22_2</title>
<path fill="none" stroke="black" d="M3167.19,-149.19C3163.93,-157.96 3158.83,-166.77 3150.89,-172 3138.89,-179.91 2130.21,-180.73 2115.89,-182 2090.98,-184.21 2063.93,-188.28 2039.86,-192.5"/>
<polygon fill="black" stroke="black" points="3170.58,-150.07 3170.14,-139.48 3163.88,-148.03 3170.58,-150.07"/>
<text text-anchor="middle" x="3266.39" y="-160.8" font-family="Times,serif" font-size="14.00">षष्ठी_तत्पुरुषः</text>
</g>
<!-- Node23_1 -->
<g id="node39" class="node">
<title>Node23_1</title>
<ellipse fill="#ffff00" stroke="#ffff00" cx="68.89" cy="-121" rx="68.79" ry="18"/>
<text text-anchor="middle" x="68.89" y="-117.3" font-family="Times,serif" font-size="14.00">महा&#45;(23.1)</text>
</g>
<!-- Node23_2 -->
<g id="node40" class="node">
<title>Node23_2</title>
<ellipse fill="#87ceeb" stroke="#87ceeb" cx="788.89" cy="-208" rx="93.68" ry="18"/>
<text text-anchor="middle" x="788.89" y="-204.3" font-family="Times,serif" font-size="14.00">आत्मनः(23.2)</text>
</g>
<!-- Node23_1&#45;&gt;Node23_2 -->
<g id="edge34" class="edge">
<title>Node23_1&#45;&gt;Node23_2</title>
<path fill="none" stroke="black" d="M115.31,-139.46C124.66,-142.41 134.5,-145.12 143.89,-147 292.47,-176.74 332.66,-162.72 483.89,-172 574.06,-177.53 597.51,-168.97 686.89,-182 704.03,-184.5 722.5,-188.59 738.95,-192.74"/>
<polygon fill="black" stroke="black" points="116.38,-136.12 105.79,-136.32 114.19,-142.77 116.38,-136.12"/>
<text text-anchor="middle" x="548.39" y="-160.8" font-family="Times,serif" font-size="14.00">कर्मधारयः</text>
</g>
<!-- Node23_2&#45;&gt;Node25_1 -->
<g id="edge35" class="edge">
<title>Node23_2&#45;&gt;Node25_1</title>
<path fill="none" stroke="black" d="M848.9,-225.99C892.38,-237.5 952.78,-251.87 1006.89,-259 1175.11,-281.15 1681.98,-290.19 1883.73,-292.98"/>
<polygon fill="black" stroke="black" points="849.62,-222.56 839.06,-223.35 847.81,-229.32 849.62,-222.56"/>
<text text-anchor="middle" x="1099.89" y="-247.8" font-family="Times,serif" font-size="14.00">षष्ठीसम्बन्धः</text>
</g>
<!-- Node26_1 -->
<g id="node42" class="node">
<title>Node26_1</title>
<ellipse fill="#ffff00" stroke="#ffff00" cx="3402.89" cy="-34" rx="68.79" ry="18"/>
<text text-anchor="middle" x="3402.89" y="-30.3" font-family="Times,serif" font-size="14.00">महा&#45;(26.1)</text>
</g>
<!-- Node26_2 -->
<g id="node43" class="node">
<title>Node26_2</title>
<ellipse fill="#ffff00" stroke="#ffff00" cx="3402.89" cy="-121" rx="77.99" ry="18"/>
<text text-anchor="middle" x="3402.89" y="-117.3" font-family="Times,serif" font-size="14.00">रत्न&#45;(26.2)</text>
</g>
<!-- Node26_1&#45;&gt;Node26_2 -->
<g id="edge38" class="edge">
<title>Node26_1&#45;&gt;Node26_2</title>
<path fill="none" stroke="black" d="M3402.89,-62.27C3402.89,-75.58 3402.89,-91.19 3402.89,-102.82"/>
<polygon fill="black" stroke="black" points="3406.39,-62.2 3402.89,-52.2 3399.39,-62.2 3406.39,-62.2"/>
<text text-anchor="middle" x="3467.39" y="-73.8" font-family="Times,serif" font-size="14.00">कर्मधारयः</text>
</g>
<!-- Node26_2&#45;&gt;Node26_3 -->
<g id="edge39" class="edge">
<title>Node26_2&#45;&gt;Node26_3</title>
<path fill="none" stroke="black" d="M3396.22,-148.89C3392.9,-157.36 3388.01,-166.06 3380.89,-172 3370.19,-180.94 3342.93,-188.52 3314.82,-194.32"/>
<polygon fill="black" stroke="black" points="3399.61,-149.8 3399.45,-139.21 3392.97,-147.59 3399.61,-149.8"/>
<text text-anchor="middle" x="3501.39" y="-160.8" font-family="Times,serif" font-size="14.00">तृतीया_तत्पुरुषः</text>
</g>
<!-- Node27_1 -->
<g id="node44" class="node">
<title>Node27_1</title>
<ellipse fill="#ffff00" stroke="#ffff00" cx="3646.89" cy="-34" rx="68.79" ry="18"/>
<text text-anchor="middle" x="3646.89" y="-30.3" font-family="Times,serif" font-size="14.00">महा&#45;(27.1)</text>
</g>
<!-- Node27_2 -->
<g id="node45" class="node">
<title>Node27_2</title>
<ellipse fill="#ffff00" stroke="#ffff00" cx="3646.89" cy="-121" rx="77.99" ry="18"/>
<text text-anchor="middle" x="3646.89" y="-117.3" font-family="Times,serif" font-size="14.00">रत्न&#45;(27.2)</text>
</g>
<!-- Node27_1&#45;&gt;Node27_2 -->
<g id="edge41" class="edge">
<title>Node27_1&#45;&gt;Node27_2</title>
<path fill="none" stroke="black" d="M3646.89,-62.27C3646.89,-75.58 3646.89,-91.19 3646.89,-102.82"/>
<polygon fill="black" stroke="black" points="3650.39,-62.2 3646.89,-52.2 3643.39,-62.2 3650.39,-62.2"/>
<text text-anchor="middle" x="3711.39" y="-73.8" font-family="Times,serif" font-size="14.00">कर्मधारयः</text>
</g>
<!-- Node27_2&#45;&gt;Node27_3 -->
<g id="edge42" class="edge">
<title>Node27_2&#45;&gt;Node27_3</title>
<path fill="none" stroke="black" d="M3640.06,-148.69C3636.72,-157.15 3631.86,-165.89 3624.89,-172 3613.8,-181.73 3600.13,-188.76 3586.04,-193.84"/>
<polygon fill="black" stroke="black" points="3643.43,-149.65 3643.32,-139.05 3636.8,-147.4 3643.43,-149.65"/>
<text text-anchor="middle" x="3745.39" y="-160.8" font-family="Times,serif" font-size="14.00">तृतीया_तत्पुरुषः</text>
</g>
<!-- Node29_1 -->
<g id="node46" class="node">
<title>Node29_1</title>
<ellipse fill="#ffff00" stroke="#ffff00" cx="608.89" cy="-208" rx="68.79" ry="18"/>
<text text-anchor="middle" x="608.89" y="-204.3" font-family="Times,serif" font-size="14.00">महा&#45;(29.1)</text>
</g>
<!-- Node29_1&#45;&gt;Node29_2 -->
<g id="edge44" class="edge">
<title>Node29_1&#45;&gt;Node29_2</title>
<path fill="none" stroke="black" d="M589.26,-233.65C581,-242.68 570.79,-252.31 559.89,-259 542.76,-269.52 522.18,-277.15 503.41,-282.54"/>
<polygon fill="black" stroke="black" points="592.03,-235.79 595.97,-225.96 586.76,-231.19 592.03,-235.79"/>
<text text-anchor="middle" x="642.39" y="-247.8" font-family="Times,serif" font-size="14.00">कर्मधारयः</text>
</g>
</g>
</svg>
