<svg xmlns="http://www.w3.org/2000/svg" xmlns:xlink="http://www.w3.org/1999/xlink" width="3536pt" height="479pt" viewBox="0 0 3535.69 479"><g id="graph0" class="graph" transform="scale(1 1) rotate(0) translate(4 475)"><title>G</title><polygon fill="#fffacd" stroke="transparent" points="-4 4 -4 -475 3531.69 -475 3531.69 4 -4 4"/><g id="clust1" class="cluster"><title>cluster_1</title><polygon fill="#fffacd" stroke="#000" points="372.6 -166 372.6 -305 3343.6 -305 3343.6 -166 372.6 -166"/></g><g id="node1" class="node"><title>Node1_2</title><ellipse cx="468.6" cy="-192" fill="#87ceeb" stroke="#87ceeb" rx="87.99" ry="18"/><text x="468.6" y="-188.3" font-family="Times,serif" font-size="14" text-anchor="middle">नाभस्य(1.2)</text></g><g id="node2" class="node"><title>Node17_2</title><ellipse cx="1690.6" cy="-279" fill="#87ceeb" stroke="#87ceeb" rx="93.68" ry="18"/><text x="1690.6" y="-275.3" font-family="Times,serif" font-size="14" text-anchor="middle">मुखस्य(17.2)</text></g><g id="edge2" class="edge"><title>Node1_2-&gt;Node17_2</title><path fill="none" stroke="#000" d="M524.3,-210.28C564.08,-221.8 619.1,-236.04 668.6,-243 846.16,-267.95 1379.82,-275.32 1597.06,-277.32"/><polygon fill="#000" stroke="#000" points="525.11 -206.87 514.52 -207.42 523.14 -213.59 525.11 -206.87"/><text x="733.1" y="-231.8" font-family="Times,serif" font-size="14" text-anchor="middle">समुच्चितः</text></g><g id="node26" class="node"><title>Node21_1</title><ellipse cx="1204.6" cy="-366" fill="#93db70" stroke="#93db70" rx="109.68" ry="18"/><text x="1204.6" y="-362.3" font-family="Times,serif" font-size="14" text-anchor="middle">(ऋद्धिम्)(21.1)</text></g><g id="edge24" class="edge"><title>Node17_2-&gt;Node21_1</title><path fill="none" stroke="#000" d="M1613.66,-293.46C1521.23,-309.62 1367.35,-336.54 1276.99,-352.34"/><polygon fill="#000" stroke="#000" points="1614.54 -296.86 1623.78 -291.69 1613.33 -289.96 1614.54 -296.86"/><text x="1569.6" y="-318.8" font-family="Times,serif" font-size="14" text-anchor="middle">षष्ठीसम्बन्धः</text></g><g id="node3" class="node"><title>Node2_1</title><ellipse cx="2884.6" cy="-192" fill="#87ceeb" stroke="#87ceeb" rx="96.68" ry="18"/><text x="2884.6" y="-188.3" font-family="Times,serif" font-size="14" text-anchor="middle">चक्रस्य(2.1)</text></g><g id="edge3" class="edge"><title>Node2_1-&gt;Node17_2</title><path fill="none" stroke="#000" d="M2829.39,-211.01C2791.83,-222.4 2740.75,-236.21 2694.6,-243 2520.75,-268.58 1998.56,-275.57 1784.1,-277.39"/><polygon fill="#000" stroke="#000" points="2830.59 -214.31 2839.12 -208.03 2828.53 -207.61 2830.59 -214.31"/><text x="2827.1" y="-231.8" font-family="Times,serif" font-size="14" text-anchor="middle">समुच्चितः</text></g><g id="node4" class="node"><title>Node3_1</title><ellipse cx="2691.6" cy="-192" fill="#87ceeb" stroke="#87ceeb" rx="78.79" ry="18"/><text x="2691.6" y="-188.3" font-family="Times,serif" font-size="14" text-anchor="middle">शठस्य(3.1)</text></g><g id="edge4" class="edge"><title>Node3_1-&gt;Node17_2</title><path fill="none" stroke="#000" d="M2637.14,-209.61C2596.82,-221.13 2540.3,-235.69 2489.6,-243 2355.86,-262.28 1963.66,-272.48 1783.29,-276.25"/><polygon fill="#000" stroke="#000" points="2638.14 -212.96 2646.78 -206.82 2636.2 -206.24 2638.14 -212.96"/><text x="2626.1" y="-231.8" font-family="Times,serif" font-size="14" text-anchor="middle">समुच्चितः</text></g><g id="node5" class="node"><title>Node4_1</title><ellipse cx="2507.6" cy="-192" fill="#87ceeb" stroke="#87ceeb" rx="87.99" ry="18"/><text x="2507.6" y="-188.3" font-family="Times,serif" font-size="14" text-anchor="middle">कपटस्य(4.1)</text></g><g id="edge5" class="edge"><title>Node4_1-&gt;Node17_2</title><path fill="none" stroke="#000" d="M2445.51,-208.86C2398.39,-220.26 2331.83,-234.96 2272.6,-243 2100.95,-266.29 1898.72,-274.08 1783.49,-276.69"/><polygon fill="#000" stroke="#000" points="2446.37 -212.26 2455.26 -206.49 2444.71 -205.46 2446.37 -212.26"/><text x="2421.1" y="-231.8" font-family="Times,serif" font-size="14" text-anchor="middle">समुच्चितः</text></g><g id="node6" class="node"><title>Node6_2</title><ellipse cx="875.6" cy="-192" fill="#87ceeb" stroke="#87ceeb" rx="96.68" ry="18"/><text x="875.6" y="-188.3" font-family="Times,serif" font-size="14" text-anchor="middle">कर्णस्य(6.2)</text></g><g id="edge8" class="edge"><title>Node6_2-&gt;Node17_2</title><path fill="none" stroke="#000" d="M936.07,-210.05C978.64,-221.34 1037.16,-235.4 1089.6,-243 1267.9,-268.83 1478.57,-275.74 1597.18,-277.5"/><polygon fill="#000" stroke="#000" points="936.72 -206.6 926.15 -207.4 934.91 -213.37 936.72 -206.6"/><text x="1154.1" y="-231.8" font-family="Times,serif" font-size="14" text-anchor="middle">समुच्चितः</text></g><g id="node7" class="node"><title>Node7_1</title><ellipse cx="2034.6" cy="-192" fill="#87ceeb" stroke="#87ceeb" rx="124.58" ry="18"/><text x="2034.6" y="-188.3" font-family="Times,serif" font-size="14" text-anchor="middle">दंष्ट्रस्य(7.1)</text></g><g id="edge9" class="edge"><title>Node7_1-&gt;Node17_2</title><path fill="none" stroke="#000" d="M1981.97,-212.29C1952.94,-222.43 1916.1,-234.48 1882.6,-243 1843.19,-253.02 1798.54,-261.34 1762.22,-267.35"/><polygon fill="#000" stroke="#000" points="1983.22 -215.56 1991.49 -208.94 1980.9 -208.96 1983.22 -215.56"/><text x="1997.1" y="-231.8" font-family="Times,serif" font-size="14" text-anchor="middle">समुच्चितः</text></g><g id="node8" class="node"><title>Node8_1</title><ellipse cx="1794.6" cy="-192" fill="#87ceeb" stroke="#87ceeb" rx="96.68" ry="18"/><text x="1794.6" y="-188.3" font-family="Times,serif" font-size="14" text-anchor="middle">लोमशस्य(8.1)</text></g><g id="edge10" class="edge"><title>Node8_1-&gt;Node17_2</title><path fill="none" stroke="#000" d="M1766.37,-216.17C1756.06,-224.62 1744.31,-234.25 1733.6,-243 1726.29,-248.97 1718.28,-255.5 1711.17,-261.28"/><polygon fill="#000" stroke="#000" points="1768.77 -218.73 1774.28 -209.68 1764.33 -213.32 1768.77 -218.73"/><text x="1814.1" y="-231.8" font-family="Times,serif" font-size="14" text-anchor="middle">समुच्चितः</text></g><g id="node9" class="node"><title>Node10_1</title><ellipse cx="1586.6" cy="-192" fill="#87ceeb" stroke="#87ceeb" rx="93.68" ry="18"/><text x="1586.6" y="-188.3" font-family="Times,serif" font-size="14" text-anchor="middle">रक्षसः(10.1)</text></g><g id="edge12" class="edge"><title>Node10_1-&gt;Node17_2</title><path fill="none" stroke="#000" d="M1589.47,-220.13C1591.49,-228.27 1594.89,-236.71 1600.6,-243 1609.27,-252.56 1620.86,-259.54 1632.84,-264.62"/><polygon fill="#000" stroke="#000" points="1592.88 -219.32 1587.58 -210.15 1586 -220.62 1592.88 -219.32"/><text x="1665.1" y="-231.8" font-family="Times,serif" font-size="14" text-anchor="middle">समुच्चितः</text></g><g id="node10" class="node"><title>Node11_2</title><ellipse cx="1344.6" cy="-192" fill="#87ceeb" stroke="#87ceeb" rx="130.78" ry="18"/><text x="1344.6" y="-188.3" font-family="Times,serif" font-size="14" text-anchor="middle">उन्मत्तस्य(11.2)</text></g><g id="edge14" class="edge"><title>Node11_2-&gt;Node17_2</title><path fill="none" stroke="#000" d="M1385.27,-213.97C1406.6,-224.15 1433.46,-235.73 1458.6,-243 1506.82,-256.95 1562.39,-265.58 1607.05,-270.78"/><polygon fill="#000" stroke="#000" points="1386.71 -210.78 1376.18 -209.56 1383.65 -217.07 1386.71 -210.78"/><text x="1523.1" y="-231.8" font-family="Times,serif" font-size="14" text-anchor="middle">समुच्चितः</text></g><g id="node11" class="node"><title>Node12_1</title><ellipse cx="1093.6" cy="-192" fill="#87ceeb" stroke="#87ceeb" rx="102.88" ry="18"/><text x="1093.6" y="-188.3" font-family="Times,serif" font-size="14" text-anchor="middle">मत्तस्य(12.1)</text></g><g id="edge15" class="edge"><title>Node12_1-&gt;Node17_2</title><path fill="none" stroke="#000" d="M1154.85,-210.34C1200.5,-223.03 1259.02,-238.74 1283.6,-243 1391.21,-261.64 1516.64,-270.52 1599.5,-274.64"/><polygon fill="#000" stroke="#000" points="1155.6 -206.91 1145.03 -207.6 1153.72 -213.66 1155.6 -206.91"/><text x="1348.1" y="-231.8" font-family="Times,serif" font-size="14" text-anchor="middle">समुच्चितः</text></g><g id="node12" class="node"><title>Node13_2</title><ellipse cx="2289.6" cy="-192" fill="#87ceeb" stroke="#87ceeb" rx="112.38" ry="18"/><text x="2289.6" y="-188.3" font-family="Times,serif" font-size="14" text-anchor="middle">ग्रीवस्य(13.2)</text></g><g id="edge17" class="edge"><title>Node13_2-&gt;Node17_2</title><path fill="none" stroke="#000" d="M2223.56,-210.05C2179.17,-220.94 2119.2,-234.55 2065.6,-243 1968.07,-258.37 1855.12,-267.79 1778.88,-272.92"/><polygon fill="#000" stroke="#000" points="2224.49 -213.43 2233.36 -207.63 2222.81 -206.63 2224.49 -213.43"/><text x="2204.1" y="-231.8" font-family="Times,serif" font-size="14" text-anchor="middle">समुच्चितः</text></g><g id="node13" class="node"><title>Node14_1</title><ellipse cx="667.6" cy="-192" fill="#87ceeb" stroke="#87ceeb" rx="93.68" ry="18"/><text x="667.6" y="-188.3" font-family="Times,serif" font-size="14" text-anchor="middle">सादिनः(14.1)</text></g><g id="edge18" class="edge"><title>Node14_1-&gt;Node17_2</title><path fill="none" stroke="#000" d="M726.33,-210.08C768.35,-221.52 826.47,-235.77 878.6,-243 1014.95,-261.92 1415.19,-272.33 1597.82,-276.21"/><polygon fill="#000" stroke="#000" points="727.12 -206.67 716.55 -207.39 725.26 -213.42 727.12 -206.67"/><text x="943.1" y="-231.8" font-family="Times,serif" font-size="14" text-anchor="middle">समुच्चितः</text></g><g id="node14" class="node"><title>Node15_3</title><ellipse cx="3167.6" cy="-192" fill="#87ceeb" stroke="#87ceeb" rx="167.87" ry="18"/><text x="3167.6" y="-188.3" font-family="Times,serif" font-size="14" text-anchor="middle">द्विजिह्वानाम्(15.3)</text></g><g id="edge21" class="edge"><title>Node15_3-&gt;Node17_2</title><path fill="none" stroke="#000" d="M3089.68,-210.59C3035.54,-222.01 2961.56,-236.02 2895.6,-243 2680.57,-265.75 2027.65,-274.58 1783.78,-277.14"/><polygon fill="#000" stroke="#000" points="3090.5 -214 3099.55 -208.5 3089.04 -207.15 3090.5 -214"/><text x="3057.1" y="-231.8" font-family="Times,serif" font-size="14" text-anchor="middle">समुच्चितः</text></g><g id="node15" class="node"><title>Node1_1</title><ellipse cx="468.6" cy="-105" fill="#ff0" stroke="#ff0" rx="63.09" ry="18"/><text x="468.6" y="-101.3" font-family="Times,serif" font-size="14" text-anchor="middle">शुक-(1.1)</text></g><g id="edge1" class="edge"><title>Node1_1-&gt;Node1_2</title><path fill="none" stroke="#000" d="M468.6,-133.27C468.6,-146.58 468.6,-162.19 468.6,-173.82"/><polygon fill="#000" stroke="#000" points="472.1 -133.2 468.6 -123.2 465.1 -133.2 472.1 -133.2"/><text x="540.1" y="-144.8" font-family="Times,serif" font-size="14" text-anchor="middle">बहुव्रीहिः</text></g><g id="node16" class="node"><title>Node5_1</title><ellipse cx="321.6" cy="-192" fill="#f9f" stroke="#f9f" rx="41.69" ry="18"/><text x="321.6" y="-188.3" font-family="Times,serif" font-size="14" text-anchor="middle">च(5.1)</text></g><g id="edge6" class="edge"><title>Node5_1-&gt;Node17_2</title><path fill="none" stroke="#000" d="M343.89,-216.57C355.04,-226.7 369.39,-237.47 384.6,-243 441.37,-263.65 1308.28,-274.17 1597.49,-277.12"/><polygon fill="#000" stroke="#000" points="346.02 -213.76 336.37 -209.39 341.19 -218.83 346.02 -213.76"/><text x="488.1" y="-231.8" font-family="Times,serif" font-size="14" text-anchor="middle">समुच्चय_द्योतकः</text></g><g id="node17" class="node"><title>Node6_1</title><ellipse cx="875.6" cy="-105" fill="#ff0" stroke="#ff0" rx="90.98" ry="18"/><text x="875.6" y="-101.3" font-family="Times,serif" font-size="14" text-anchor="middle">ह्रस्व-(6.1)</text></g><g id="edge7" class="edge"><title>Node6_1-&gt;Node6_2</title><path fill="none" stroke="#000" d="M875.6,-133.27C875.6,-146.58 875.6,-162.19 875.6,-173.82"/><polygon fill="#000" stroke="#000" points="879.1 -133.2 875.6 -123.2 872.1 -133.2 879.1 -133.2"/><text x="947.1" y="-144.8" font-family="Times,serif" font-size="14" text-anchor="middle">बहुव्रीहिः</text></g><g id="node18" class="node"><title>Node9_1</title><ellipse cx="41.6" cy="-366" fill="#f9f" stroke="#f9f" rx="41.69" ry="18"/><text x="41.6" y="-362.3" font-family="Times,serif" font-size="14" text-anchor="middle">च(9.1)</text></g><g id="node19" class="node"><title>Node20_1</title><ellipse cx="317.6" cy="-453" fill="#ff1975" stroke="#ff1975" rx="90.98" ry="18"/><text x="317.6" y="-449.3" font-family="Times,serif" font-size="14" text-anchor="middle">(ददर्श)(20.1)</text></g><g id="edge11" class="edge"><title>Node9_1-&gt;Node20_1</title><path fill="none" stroke="#000" d="M50.8,-393.46C55.16,-402.28 61.28,-411.3 69.6,-417 95.25,-434.56 169.63,-443.42 230.29,-447.83"/><polygon fill="#000" stroke="#000" points="53.94 -391.91 46.74 -384.13 47.52 -394.7 53.94 -391.91"/><text x="127.1" y="-405.8" font-family="Times,serif" font-size="14" text-anchor="middle">सम्बन्धः</text></g><g id="node20" class="node"><title>Node11_1</title><ellipse cx="1344.6" cy="-105" fill="#ff0" stroke="#ff0" rx="87.18" ry="18"/><text x="1344.6" y="-101.3" font-family="Times,serif" font-size="14" text-anchor="middle">युद्ध-(11.1)</text></g><g id="edge13" class="edge"><title>Node11_1-&gt;Node11_2</title><path fill="none" stroke="#000" d="M1344.6,-133.27C1344.6,-146.58 1344.6,-162.19 1344.6,-173.82"/><polygon fill="#000" stroke="#000" points="1348.1 -133.2 1344.6 -123.2 1341.1 -133.2 1348.1 -133.2"/><text x="1455.1" y="-144.8" font-family="Times,serif" font-size="14" text-anchor="middle">सप्तमी_तत्पुरुषः</text></g><g id="node21" class="node"><title>Node13_1</title><ellipse cx="2289.6" cy="-105" fill="#ff0" stroke="#ff0" rx="77.99" ry="18"/><text x="2289.6" y="-101.3" font-family="Times,serif" font-size="14" text-anchor="middle">ध्वज-(13.1)</text></g><g id="edge16" class="edge"><title>Node13_1-&gt;Node13_2</title><path fill="none" stroke="#000" d="M2289.6,-133.27C2289.6,-146.58 2289.6,-162.19 2289.6,-173.82"/><polygon fill="#000" stroke="#000" points="2293.1 -133.2 2289.6 -123.2 2286.1 -133.2 2293.1 -133.2"/><text x="2361.1" y="-144.8" font-family="Times,serif" font-size="14" text-anchor="middle">बहुव्रीहिः</text></g><g id="node22" class="node"><title>Node15_1</title><ellipse cx="3167.6" cy="-18" fill="#ff0" stroke="#ff0" rx="115.08" ry="18"/><text x="3167.6" y="-14.3" font-family="Times,serif" font-size="14" text-anchor="middle">विद्युत्-(15.1)</text></g><g id="node23" class="node"><title>Node15_2</title><ellipse cx="3167.6" cy="-105" fill="#ff0" stroke="#ff0" rx="87.18" ry="18"/><text x="3167.6" y="-101.3" font-family="Times,serif" font-size="14" text-anchor="middle">जिह्व-(15.2)</text></g><g id="edge19" class="edge"><title>Node15_1-&gt;Node15_2</title><path fill="none" stroke="#000" d="M3167.6,-46.27C3167.6,-59.58 3167.6,-75.19 3167.6,-86.82"/><polygon fill="#000" stroke="#000" points="3171.1 -46.2 3167.6 -36.2 3164.1 -46.2 3171.1 -46.2"/><text x="3239.1" y="-57.8" font-family="Times,serif" font-size="14" text-anchor="middle">बहुव्रीहिः</text></g><g id="edge20" class="edge"><title>Node15_2-&gt;Node15_3</title><path fill="none" stroke="#000" d="M3167.6,-133.27C3167.6,-146.58 3167.6,-162.19 3167.6,-173.82"/><polygon fill="#000" stroke="#000" points="3171.1 -133.2 3167.6 -123.2 3164.1 -133.2 3171.1 -133.2"/><text x="3232.1" y="-144.8" font-family="Times,serif" font-size="14" text-anchor="middle">द्वन्द्वः</text></g><g id="node24" class="node"><title>Node16_1</title><ellipse cx="179.6" cy="-366" fill="#f9f" stroke="#f9f" rx="65.79" ry="18"/><text x="179.6" y="-362.3" font-family="Times,serif" font-size="14" text-anchor="middle">तथा(16.1)</text></g><g id="edge22" class="edge"><title>Node16_1-&gt;Node20_1</title><path fill="none" stroke="#000" d="M184.86,-393.9C187.69,-402.28 192.01,-410.9 198.6,-417 211.48,-428.92 228.22,-436.8 245.05,-442"/><polygon fill="#000" stroke="#000" points="188.15 -392.7 182.1 -384 181.41 -394.58 188.15 -392.7"/><text x="256.1" y="-405.8" font-family="Times,serif" font-size="14" text-anchor="middle">सम्बन्धः</text></g><g id="node25" class="node"><title>Node17_1</title><ellipse cx="3440.6" cy="-192" fill="#ff0" stroke="#ff0" rx="87.18" ry="18"/><text x="3440.6" y="-188.3" font-family="Times,serif" font-size="14" text-anchor="middle">हस्ति-(17.1)</text></g><g id="edge23" class="edge"><title>Node17_1-&gt;Node17_2</title><path fill="none" stroke="#000" d="M3370.9,-207C3307.3,-219.07 3210.56,-235.68 3125.6,-243 2863.66,-265.58 2058.66,-274.71 1783.75,-277.23"/><polygon fill="#000" stroke="#000" points="3371.65 -210.42 3380.82 -205.1 3370.34 -203.54 3371.65 -210.42"/><text x="3318.1" y="-231.8" font-family="Times,serif" font-size="14" text-anchor="middle">बहुव्रीहिः</text></g><g id="edge28" class="edge"><title>Node21_1-&gt;Node20_1</title><path fill="none" stroke="#000" d="M1101.99,-376.83C923.35,-393.95 558.88,-428.88 397.53,-444.34"/><polygon fill="#000" stroke="#000" points="1102.56 -380.29 1112.18 -375.86 1101.89 -373.33 1102.56 -380.29"/><text x="842.6" y="-405.8" font-family="Times,serif" font-size="14" text-anchor="middle">कर्म</text></g><g id="node27" class="node"><title>Node18_1</title><ellipse cx="316.6" cy="-366" fill="#f9f" stroke="#f9f" rx="47.39" ry="18"/><text x="316.6" y="-362.3" font-family="Times,serif" font-size="14" text-anchor="middle">च(18.1)</text></g><g id="edge25" class="edge"><title>Node18_1-&gt;Node20_1</title><path fill="none" stroke="#000" d="M316.92,-394.27C317.07,-407.58 317.26,-423.19 317.39,-434.82"/><polygon fill="#000" stroke="#000" points="320.42 -394.16 316.8 -384.2 313.42 -394.24 320.42 -394.16"/><text x="375.1" y="-405.8" font-family="Times,serif" font-size="14" text-anchor="middle">सम्बन्धः</text></g><g id="node28" class="node"><title>Node19_1</title><ellipse cx="295.6" cy="-279" fill="#ff0" stroke="#ff0" rx="68.79" ry="18"/><text x="295.6" y="-275.3" font-family="Times,serif" font-size="14" text-anchor="middle">महा-(19.1)</text></g><g id="node29" class="node"><title>Node19_2</title><ellipse cx="457.6" cy="-366" fill="#00bfff" stroke="#00bfff" rx="75.29" ry="18"/><text x="457.6" y="-362.3" font-family="Times,serif" font-size="14" text-anchor="middle">कपिः(19.2)</text></g><g id="edge26" class="edge"><title>Node19_1-&gt;Node19_2</title><path fill="none" stroke="#000" d="M333.89,-300.09C362.66,-315.19 401.5,-335.57 427.93,-349.43"/><polygon fill="#000" stroke="#000" points="335.41 -296.94 324.93 -295.39 332.16 -303.14 335.41 -296.94"/><text x="450.1" y="-318.8" font-family="Times,serif" font-size="14" text-anchor="middle">कर्मधारयः</text></g><g id="edge27" class="edge"><title>Node19_2-&gt;Node20_1</title><path fill="none" stroke="#000" d="M450.18,-393.68C446.67,-402.14 441.65,-410.88 434.6,-417 421.31,-428.54 404.34,-436.28 387.47,-441.46"/><polygon fill="#000" stroke="#000" points="453.55 -394.64 453.64 -384.04 446.97 -392.27 453.55 -394.64"/><text x="481.6" y="-405.8" font-family="Times,serif" font-size="14" text-anchor="middle">कर्ता</text></g></g></svg>