<svg xmlns="http://www.w3.org/2000/svg" xmlns:xlink="http://www.w3.org/1999/xlink" width="3416" height="653pt" viewBox="0 0 2562 653"><g id="graph0" class="graph" transform="scale(1 1) rotate(0) translate(4 649)"><title>G</title><polygon fill="#fffacd" stroke="transparent" points="-4 4 -4 -649 2558 -649 2558 4 -4 4"/><g id="clust1" class="cluster"><title>cluster_1</title><polygon fill="#fffacd" stroke="#000" points="2215 -340 2215 -479 2469 -479 2469 -340 2215 -340"/></g><g id="clust2" class="cluster"><title>cluster_2</title><polygon fill="#fffacd" stroke="#000" points="8 -253 8 -392 505 -392 505 -253 8 -253"/></g><g id="clust3" class="cluster"><title>cluster_3</title><polygon fill="#fffacd" stroke="#000" points="1278 -427 1278 -566 1694 -566 1694 -427 1278 -427"/></g><g id="clust4" class="cluster"><title>cluster_4</title><polygon fill="#fffacd" stroke="#000" points="673 -340 673 -392 1404 -392 1404 -340 673 -340"/></g><g id="node1" class="node"><title>Node2_3</title><ellipse cx="2342" cy="-366" fill="#93db70" stroke="#93db70" rx="87.99" ry="18"/><text x="2342" y="-362.3" font-family="Times,serif" font-size="14" text-anchor="middle">राजतीः(2.3)</text></g><g id="node2" class="node"><title>Node16_1</title><ellipse cx="2342" cy="-453" fill="#93db70" stroke="#93db70" rx="118.88" ry="18"/><text x="2342" y="-449.3" font-family="Times,serif" font-size="14" text-anchor="middle">(प्रतिमाः)(16.1)</text></g><g id="edge7" class="edge"><title>Node2_3-&gt;Node16_1</title><path fill="none" stroke="#000" d="M2342,-394.27C2342,-407.58 2342,-423.19 2342,-434.82"/><polygon fill="#000" stroke="#000" points="2345.5 -394.2 2342 -384.2 2338.5 -394.2 2345.5 -394.2"/><text x="2399.5" y="-405.8" font-family="Times,serif" font-size="14" text-anchor="middle">विशेषणम्</text></g><g id="node7" class="node"><title>Node13_3</title><ellipse cx="1572" cy="-540" fill="#93db70" stroke="#93db70" rx="112.38" ry="18"/><text x="1572" y="-536.3" font-family="Times,serif" font-size="14" text-anchor="middle">निवेशनम्(13.3)</text></g><g id="edge32" class="edge"><title>Node16_1-&gt;Node13_3</title><path fill="none" stroke="#000" d="M2286.56,-472.89C2251.78,-483.91 2205.78,-496.98 2164,-504 1998.75,-531.76 1804.35,-538.37 1684.65,-539.5"/><polygon fill="#000" stroke="#000" points="2288.06 -476.09 2296.51 -469.7 2285.92 -469.42 2288.06 -476.09"/><text x="2292.5" y="-492.8" font-family="Times,serif" font-size="14" text-anchor="middle">समुच्चितः</text></g><g id="node3" class="node"><title>Node3_1</title><ellipse cx="381" cy="-279" fill="#40e0d0" stroke="#40e0d0" rx="115.88" ry="18"/><text x="381" y="-275.3" font-family="Times,serif" font-size="14" text-anchor="middle">घोषवद्भिः(3.1)</text></g><g id="node4" class="node"><title>Node8_1</title><ellipse cx="404" cy="-366" fill="#40e0d0" stroke="#40e0d0" rx="69.59" ry="18"/><text x="404" y="-362.3" font-family="Times,serif" font-size="14" text-anchor="middle">रथैः(8.1)</text></g><g id="edge8" class="edge"><title>Node3_1-&gt;Node8_1</title><path fill="none" stroke="#000" d="M388.27,-306.87C391.9,-320.27 396.17,-336.08 399.35,-347.82"/><polygon fill="#000" stroke="#000" points="391.64 -305.94 385.65 -297.2 384.89 -307.77 391.64 -305.94"/><text x="450.5" y="-318.8" font-family="Times,serif" font-size="14" text-anchor="middle">विशेषणम्</text></g><g id="node6" class="node"><title>Node7_1</title><ellipse cx="1393" cy="-453" fill="#00bfff" stroke="#00bfff" rx="106.68" ry="18"/><text x="1393" y="-449.3" font-family="Times,serif" font-size="14" text-anchor="middle">विचरितम्(7.1)</text></g><g id="edge13" class="edge"><title>Node8_1-&gt;Node7_1</title><path fill="none" stroke="#000" d="M473.76,-376.62C561.75,-388.33 717.76,-407.7 852,-417 1014.78,-428.28 1056.42,-413.15 1219,-427 1252.6,-429.86 1289.61,-434.91 1320.83,-439.73"/><polygon fill="#000" stroke="#000" points="474.01 -373.13 463.64 -375.27 473.09 -380.06 474.01 -373.13"/><text x="888" y="-405.8" font-family="Times,serif" font-size="14" text-anchor="middle">कर्ता</text></g><g id="node5" class="node"><title>Node4_1</title><ellipse cx="132" cy="-279" fill="#40e0d0" stroke="#40e0d0" rx="115.88" ry="18"/><text x="132" y="-275.3" font-family="Times,serif" font-size="14" text-anchor="middle">विचित्रैः(4.1)</text></g><g id="edge9" class="edge"><title>Node4_1-&gt;Node8_1</title><path fill="none" stroke="#000" d="M183.06,-299.4C209.44,-309.12 242.25,-320.76 272,-330 299.28,-338.47 330.13,-346.72 355.14,-353.08"/><polygon fill="#000" stroke="#000" points="184.25 -296.11 173.66 -295.91 181.82 -302.67 184.25 -296.11"/><text x="329.5" y="-318.8" font-family="Times,serif" font-size="14" text-anchor="middle">विशेषणम्</text></g><g id="edge12" class="edge"><title>Node7_1-&gt;Node13_3</title><path fill="none" stroke="#000" d="M1422.11,-476.73C1435.04,-486.08 1450.75,-496.45 1466,-504 1482.15,-512 1500.56,-518.8 1517.45,-524.23"/><polygon fill="#000" stroke="#000" points="1424.18 -473.91 1414.05 -470.78 1420.02 -479.54 1424.18 -473.91"/><text x="1523.5" y="-492.8" font-family="Times,serif" font-size="14" text-anchor="middle">विशेषणम्</text></g><g id="node31" class="node"><title>Node14_1</title><ellipse cx="1369" cy="-627" fill="#ff1975" stroke="#ff1975" rx="90.98" ry="18"/><text x="1369" y="-623.3" font-family="Times,serif" font-size="14" text-anchor="middle">(ददर्श)(14.1)</text></g><g id="edge29" class="edge"><title>Node13_3-&gt;Node14_1</title><path fill="none" stroke="#000" d="M1524.45,-560.91C1488.29,-576.05 1439.24,-596.59 1405.98,-610.51"/><polygon fill="#000" stroke="#000" points="1525.95 -564.08 1533.82 -556.99 1523.24 -557.62 1525.95 -564.08"/><text x="1511" y="-579.8" font-family="Times,serif" font-size="14" text-anchor="middle">कर्म</text></g><g id="node8" class="node"><title>Node12_4</title><ellipse cx="1602" cy="-453" fill="#93db70" stroke="#93db70" rx="84.49" ry="18"/><text x="1602" y="-449.3" font-family="Times,serif" font-size="14" text-anchor="middle">आसनम्(12.4)</text></g><g id="edge26" class="edge"><title>Node12_4-&gt;Node13_3</title><path fill="none" stroke="#000" d="M1592.52,-480.87C1587.79,-494.27 1582.21,-510.08 1578.06,-521.82"/><polygon fill="#000" stroke="#000" points="1595.9 -481.8 1595.93 -471.2 1589.3 -479.47 1595.9 -481.8"/><text x="1645.5" y="-492.8" font-family="Times,serif" font-size="14" text-anchor="middle">विशेषणम्</text></g><g id="node9" class="node"><title>Node9_3</title><ellipse cx="806" cy="-366" fill="#93db70" stroke="#93db70" rx="124.58" ry="18"/><text x="806" y="-362.3" font-family="Times,serif" font-size="14" text-anchor="middle">समाकीर्णम्(9.3)</text></g><g id="edge16" class="edge"><title>Node9_3-&gt;Node12_4</title><path fill="none" stroke="#000" d="M865.15,-385.43C904.84,-396.87 958.53,-410.57 1007,-417 1117.61,-431.67 1398.53,-411.29 1509,-427 1525.06,-429.28 1542.3,-433.43 1557.52,-437.69"/><polygon fill="#000" stroke="#000" points="865.96 -382.02 855.38 -382.57 864 -388.73 865.96 -382.02"/><text x="1064.5" y="-405.8" font-family="Times,serif" font-size="14" text-anchor="middle">विशेषणम्</text></g><g id="node10" class="node"><title>Node10_3</title><ellipse cx="1051" cy="-366" fill="#93db70" stroke="#93db70" rx="102.88" ry="18"/><text x="1051" y="-362.3" font-family="Times,serif" font-size="14" text-anchor="middle">भूषितम्(10.3)</text></g><g id="edge19" class="edge"><title>Node10_3-&gt;Node12_4</title><path fill="none" stroke="#000" d="M1091.53,-387.42C1115.46,-398.4 1146.71,-410.9 1176,-417 1248.48,-432.09 1435.76,-416.21 1509,-427 1524.88,-429.34 1541.93,-433.44 1557.03,-437.65"/><polygon fill="#000" stroke="#000" points="1092.95 -384.22 1082.41 -383.15 1089.98 -390.56 1092.95 -384.22"/><text x="1233.5" y="-405.8" font-family="Times,serif" font-size="14" text-anchor="middle">विशेषणम्</text></g><g id="node11" class="node"><title>Node11_3</title><ellipse cx="1284" cy="-366" fill="#93db70" stroke="#93db70" rx="112.38" ry="18"/><text x="1284" y="-362.3" font-family="Times,serif" font-size="14" text-anchor="middle">समावापम्(11.3)</text></g><g id="edge22" class="edge"><title>Node11_3-&gt;Node12_4</title><path fill="none" stroke="#000" d="M1290.91,-394.07C1294.54,-402.83 1299.96,-411.66 1308,-417 1326.62,-429.38 1486.91,-423.52 1509,-427 1524.69,-429.47 1541.54,-433.55 1556.53,-437.7"/><polygon fill="#000" stroke="#000" points="1294.14 -392.68 1287.54 -384.39 1287.53 -394.98 1294.14 -392.68"/><text x="1365.5" y="-405.8" font-family="Times,serif" font-size="14" text-anchor="middle">विशेषणम्</text></g><g id="node12" class="node"><title>Node1_1</title><ellipse cx="601" cy="-18" fill="#ff0" stroke="#ff0" rx="72.29" ry="18"/><text x="601" y="-14.3" font-family="Times,serif" font-size="14" text-anchor="middle">सिंह-(1.1)</text></g><g id="node13" class="node"><title>Node1_2</title><ellipse cx="601" cy="-105" fill="#ff0" stroke="#ff0" rx="100.18" ry="18"/><text x="601" y="-101.3" font-family="Times,serif" font-size="14" text-anchor="middle">व्याघ्र-(1.2)</text></g><g id="edge1" class="edge"><title>Node1_1-&gt;Node1_2</title><path fill="none" stroke="#000" d="M601,-46.27C601,-59.58 601,-75.19 601,-86.82"/><polygon fill="#000" stroke="#000" points="604.5 -46.2 601 -36.2 597.5 -46.2 604.5 -46.2"/><text x="665.5" y="-57.8" font-family="Times,serif" font-size="14" text-anchor="middle">द्वन्द्वः</text></g><g id="node14" class="node"><title>Node1_3</title><ellipse cx="601" cy="-192" fill="#ff0" stroke="#ff0" rx="63.09" ry="18"/><text x="601" y="-188.3" font-family="Times,serif" font-size="14" text-anchor="middle">तनु-(1.3)</text></g><g id="edge2" class="edge"><title>Node1_2-&gt;Node1_3</title><path fill="none" stroke="#000" d="M601,-133.27C601,-146.58 601,-162.19 601,-173.82"/><polygon fill="#000" stroke="#000" points="604.5 -133.2 601 -123.2 597.5 -133.2 604.5 -133.2"/><text x="665.5" y="-144.8" font-family="Times,serif" font-size="14" text-anchor="middle">कर्मधारयः</text></g><g id="node15" class="node"><title>Node1_4</title><ellipse cx="612" cy="-279" fill="#40e0d0" stroke="#40e0d0" rx="96.68" ry="18"/><text x="612" y="-275.3" font-family="Times,serif" font-size="14" text-anchor="middle">त्राणैः(1.4)</text></g><g id="edge3" class="edge"><title>Node1_3-&gt;Node1_4</title><path fill="none" stroke="#000" d="M600.28,-220.44C600.43,-227.8 600.91,-235.73 602,-243 602.88,-248.87 604.47,-255.15 606.12,-260.75"/><polygon fill="#000" stroke="#000" points="603.78 -220.21 600.25 -210.22 596.78 -220.22 603.78 -220.21"/><text x="705.5" y="-231.8" font-family="Times,serif" font-size="14" text-anchor="middle">षष्ठी_तत्पुरुषः</text></g><g id="edge4" class="edge"><title>Node1_4-&gt;Node8_1</title><path fill="none" stroke="#000" d="M573.44,-300.98C555.13,-310.5 532.75,-321.51 512,-330 491.57,-338.36 468.34,-346.11 448.68,-352.17"/><polygon fill="#000" stroke="#000" points="575.13 -304.05 582.35 -296.3 571.87 -297.85 575.13 -304.05"/><text x="592" y="-318.8" font-family="Times,serif" font-size="14" text-anchor="middle">सहार्थः</text></g><g id="node16" class="node"><title>Node2_1</title><ellipse cx="2247" cy="-279" fill="#ff0" stroke="#ff0" rx="81.49" ry="18"/><text x="2247" y="-275.3" font-family="Times,serif" font-size="14" text-anchor="middle">दान्त-(2.1)</text></g><g id="edge5" class="edge"><title>Node2_1-&gt;Node2_3</title><path fill="none" stroke="#000" d="M2263.88,-305.12C2270.24,-313.57 2277.9,-322.7 2286,-330 2293.84,-337.06 2303.27,-343.57 2312.15,-349.01"/><polygon fill="#000" stroke="#000" points="2266.69 -303.03 2257.99 -296.98 2261.02 -307.13 2266.69 -303.03"/><text x="2350.5" y="-318.8" font-family="Times,serif" font-size="14" text-anchor="middle">द्वन्द्वः</text></g><g id="node17" class="node"><title>Node2_2</title><ellipse cx="2437" cy="-279" fill="#ff0" stroke="#ff0" rx="90.98" ry="18"/><text x="2437" y="-275.3" font-family="Times,serif" font-size="14" text-anchor="middle">काञ्चन-(2.2)</text></g><g id="edge6" class="edge"><title>Node2_2-&gt;Node2_3</title><path fill="none" stroke="#000" d="M2429.3,-306.7C2425.94,-314.92 2421.28,-323.51 2415,-330 2406.79,-338.48 2396.11,-345.17 2385.46,-350.32"/><polygon fill="#000" stroke="#000" points="2432.7 -307.62 2432.79 -297.02 2426.11 -305.24 2432.7 -307.62"/><text x="2489.5" y="-318.8" font-family="Times,serif" font-size="14" text-anchor="middle">द्वन्द्वः</text></g><g id="node18" class="node"><title>Node5_1</title><ellipse cx="1746" cy="-453" fill="#f9f" stroke="#f9f" rx="41.69" ry="18"/><text x="1746" y="-449.3" font-family="Times,serif" font-size="14" text-anchor="middle">च(5.1)</text></g><g id="edge10" class="edge"><title>Node5_1-&gt;Node13_3</title><path fill="none" stroke="#000" d="M1731.31,-479.15C1724.89,-488.18 1716.62,-497.68 1707,-504 1690.71,-514.7 1671.31,-522.13 1652.38,-527.29"/><polygon fill="#000" stroke="#000" points="1734.26 -481.03 1736.87 -470.76 1728.43 -477.16 1734.26 -481.03"/><text x="1826.5" y="-492.8" font-family="Times,serif" font-size="14" text-anchor="middle">समुच्चय_द्योतकः</text></g><g id="node19" class="node"><title>Node6_1</title><ellipse cx="1474" cy="-366" fill="#f9f" stroke="#f9f" rx="59.59" ry="18"/><text x="1474" y="-362.3" font-family="Times,serif" font-size="14" text-anchor="middle">सदा(6.1)</text></g><g id="edge11" class="edge"><title>Node6_1-&gt;Node7_1</title><path fill="none" stroke="#000" d="M1450.57,-391.01C1447.02,-394.68 1443.41,-398.44 1440,-402 1429.63,-412.85 1418.08,-425.13 1409.03,-434.81"/><polygon fill="#000" stroke="#000" points="1453.23 -393.29 1457.69 -383.68 1448.21 -388.42 1453.23 -393.29"/><text x="1518.5" y="-405.8" font-family="Times,serif" font-size="14" text-anchor="middle">कालाधिकरणम्</text></g><g id="node20" class="node"><title>Node9_1</title><ellipse cx="831" cy="-192" fill="#ff0" stroke="#ff0" rx="63.09" ry="18"/><text x="831" y="-188.3" font-family="Times,serif" font-size="14" text-anchor="middle">बहु-(9.1)</text></g><g id="node21" class="node"><title>Node9_2</title><ellipse cx="820" cy="-279" fill="#ff0" stroke="#ff0" rx="72.29" ry="18"/><text x="820" y="-275.3" font-family="Times,serif" font-size="14" text-anchor="middle">रत्न-(9.2)</text></g><g id="edge14" class="edge"><title>Node9_1-&gt;Node9_2</title><path fill="none" stroke="#000" d="M827.47,-220.27C825.75,-233.58 823.73,-249.19 822.22,-260.82"/><polygon fill="#000" stroke="#000" points="830.96 -220.57 828.77 -210.2 824.02 -219.67 830.96 -220.57"/><text x="890.5" y="-231.8" font-family="Times,serif" font-size="14" text-anchor="middle">कर्मधारयः</text></g><g id="edge15" class="edge"><title>Node9_2-&gt;Node9_3</title><path fill="none" stroke="#000" d="M815.51,-307.27C813.32,-320.58 810.74,-336.19 808.83,-347.82"/><polygon fill="#000" stroke="#000" points="819 -307.64 817.17 -297.2 812.09 -306.5 819 -307.64"/><text x="923.5" y="-318.8" font-family="Times,serif" font-size="14" text-anchor="middle">तृतीया_तत्पुरुषः</text></g><g id="node22" class="node"><title>Node10_1</title><ellipse cx="1051" cy="-192" fill="#ff0" stroke="#ff0" rx="115.08" ry="18"/><text x="1051" y="-188.3" font-family="Times,serif" font-size="14" text-anchor="middle">परार्घ्य-(10.1)</text></g><g id="node23" class="node"><title>Node10_2</title><ellipse cx="1051" cy="-279" fill="#ff0" stroke="#ff0" rx="68.79" ry="18"/><text x="1051" y="-275.3" font-family="Times,serif" font-size="14" text-anchor="middle">आसन-(10.2)</text></g><g id="edge17" class="edge"><title>Node10_1-&gt;Node10_2</title><path fill="none" stroke="#000" d="M1051,-220.27C1051,-233.58 1051,-249.19 1051,-260.82"/><polygon fill="#000" stroke="#000" points="1054.5 -220.2 1051 -210.2 1047.5 -220.2 1054.5 -220.2"/><text x="1115.5" y="-231.8" font-family="Times,serif" font-size="14" text-anchor="middle">कर्मधारयः</text></g><g id="edge18" class="edge"><title>Node10_2-&gt;Node10_3</title><path fill="none" stroke="#000" d="M1051,-307.27C1051,-320.58 1051,-336.19 1051,-347.82"/><polygon fill="#000" stroke="#000" points="1054.5 -307.2 1051 -297.2 1047.5 -307.2 1054.5 -307.2"/><text x="1161.5" y="-318.8" font-family="Times,serif" font-size="14" text-anchor="middle">तृतीया_तत्पुरुषः</text></g><g id="node24" class="node"><title>Node11_1</title><ellipse cx="1295" cy="-192" fill="#ff0" stroke="#ff0" rx="68.79" ry="18"/><text x="1295" y="-188.3" font-family="Times,serif" font-size="14" text-anchor="middle">महा-(11.1)</text></g><g id="node25" class="node"><title>Node11_2</title><ellipse cx="1295" cy="-279" fill="#ff0" stroke="#ff0" rx="59.59" ry="18"/><text x="1295" y="-275.3" font-family="Times,serif" font-size="14" text-anchor="middle">रथ-(11.2)</text></g><g id="edge20" class="edge"><title>Node11_1-&gt;Node11_2</title><path fill="none" stroke="#000" d="M1295,-220.27C1295,-233.58 1295,-249.19 1295,-260.82"/><polygon fill="#000" stroke="#000" points="1298.5 -220.2 1295 -210.2 1291.5 -220.2 1298.5 -220.2"/><text x="1359.5" y="-231.8" font-family="Times,serif" font-size="14" text-anchor="middle">कर्मधारयः</text></g><g id="edge21" class="edge"><title>Node11_2-&gt;Node11_3</title><path fill="none" stroke="#000" d="M1291.47,-307.27C1289.75,-320.58 1287.73,-336.19 1286.22,-347.82"/><polygon fill="#000" stroke="#000" points="1294.96 -307.57 1292.77 -297.2 1288.02 -306.67 1294.96 -307.57"/><text x="1393.5" y="-318.8" font-family="Times,serif" font-size="14" text-anchor="middle">षष्ठी_तत्पुरुषः</text></g><g id="node26" class="node"><title>Node12_1</title><ellipse cx="1612" cy="-279" fill="#ff0" stroke="#ff0" rx="68.79" ry="18"/><text x="1612" y="-275.3" font-family="Times,serif" font-size="14" text-anchor="middle">महा-(12.1)</text></g><g id="node27" class="node"><title>Node12_2</title><ellipse cx="1612" cy="-366" fill="#ff0" stroke="#ff0" rx="59.59" ry="18"/><text x="1612" y="-362.3" font-family="Times,serif" font-size="14" text-anchor="middle">रथ-(12.2)</text></g><g id="edge23" class="edge"><title>Node12_1-&gt;Node12_2</title><path fill="none" stroke="#000" d="M1612,-307.27C1612,-320.58 1612,-336.19 1612,-347.82"/><polygon fill="#000" stroke="#000" points="1615.5 -307.2 1612 -297.2 1608.5 -307.2 1615.5 -307.2"/><text x="1676.5" y="-318.8" font-family="Times,serif" font-size="14" text-anchor="middle">कर्मधारयः</text></g><g id="edge24" class="edge"><title>Node12_2-&gt;Node12_4</title><path fill="none" stroke="#000" d="M1604.46,-393.72C1603.87,-396.5 1603.37,-399.3 1603,-402 1601.52,-412.84 1601.25,-425.12 1601.37,-434.8"/><polygon fill="#000" stroke="#000" points="1607.87 -394.47 1606.8 -383.93 1601.07 -392.84 1607.87 -394.47"/><text x="1706.5" y="-405.8" font-family="Times,serif" font-size="14" text-anchor="middle">षष्ठी_तत्पुरुषः</text></g><g id="node28" class="node"><title>Node12_3</title><ellipse cx="1824" cy="-366" fill="#ff0" stroke="#ff0" rx="68.79" ry="18"/><text x="1824" y="-362.3" font-family="Times,serif" font-size="14" text-anchor="middle">महा-(12.3)</text></g><g id="edge25" class="edge"><title>Node12_3-&gt;Node12_4</title><path fill="none" stroke="#000" d="M1822.36,-394.16C1820.45,-402.69 1816.81,-411.36 1810,-417 1790.25,-433.37 1720.26,-422.54 1695,-427 1679.69,-429.7 1663.23,-433.74 1648.47,-437.79"/><polygon fill="#000" stroke="#000" points="1825.86 -394.43 1823.92 -384.02 1818.94 -393.37 1825.86 -394.43"/><text x="1883.5" y="-405.8" font-family="Times,serif" font-size="14" text-anchor="middle">कर्मधारयः</text></g><g id="node29" class="node"><title>Node13_1</title><ellipse cx="2008" cy="-366" fill="#ff0" stroke="#ff0" rx="96.68" ry="18"/><text x="2008" y="-362.3" font-family="Times,serif" font-size="14" text-anchor="middle">राक्षस-(13.1)</text></g><g id="node30" class="node"><title>Node13_2</title><ellipse cx="1982" cy="-453" fill="#ff0" stroke="#ff0" rx="96.68" ry="18"/><text x="1982" y="-449.3" font-family="Times,serif" font-size="14" text-anchor="middle">इन्द्र-(13.2)</text></g><g id="edge27" class="edge"><title>Node13_1-&gt;Node13_2</title><path fill="none" stroke="#000" d="M1999.78,-393.87C1995.68,-407.27 1990.85,-423.08 1987.25,-434.82"/><polygon fill="#000" stroke="#000" points="2003.16 -394.79 2002.74 -384.2 1996.47 -392.74 2003.16 -394.79"/><text x="2099.5" y="-405.8" font-family="Times,serif" font-size="14" text-anchor="middle">षष्ठी_तत्पुरुषः</text></g><g id="edge28" class="edge"><title>Node13_2-&gt;Node13_3</title><path fill="none" stroke="#000" d="M1964.21,-479.06C1956.12,-488.5 1945.73,-498.32 1934,-504 1891.03,-524.82 1772.47,-533.25 1682.64,-536.67"/><polygon fill="#000" stroke="#000" points="1967.17 -480.96 1970.7 -470.97 1961.71 -476.58 1967.17 -480.96"/><text x="2056.5" y="-492.8" font-family="Times,serif" font-size="14" text-anchor="middle">षष्ठी_तत्पुरुषः</text></g><g id="node32" class="node"><title>Node15_1</title><ellipse cx="1141" cy="-453" fill="#ff0" stroke="#ff0" rx="68.79" ry="18"/><text x="1141" y="-449.3" font-family="Times,serif" font-size="14" text-anchor="middle">महा-(15.1)</text></g><g id="node33" class="node"><title>Node15_2</title><ellipse cx="1168" cy="-540" fill="#00bfff" stroke="#00bfff" rx="75.29" ry="18"/><text x="1168" y="-536.3" font-family="Times,serif" font-size="14" text-anchor="middle">कपिः(15.2)</text></g><g id="edge30" class="edge"><title>Node15_1-&gt;Node15_2</title><path fill="none" stroke="#000" d="M1140.71,-481.23C1141.29,-488.76 1142.54,-496.83 1145,-504 1147.17,-510.33 1150.75,-516.63 1154.45,-522.1"/><polygon fill="#000" stroke="#000" points="1144.2 -480.94 1140.29 -471.09 1137.21 -481.23 1144.2 -480.94"/><text x="1209.5" y="-492.8" font-family="Times,serif" font-size="14" text-anchor="middle">कर्मधारयः</text></g><g id="edge31" class="edge"><title>Node15_2-&gt;Node14_1</title><path fill="none" stroke="#000" d="M1212.75,-559.92C1248.69,-575.12 1298.53,-596.2 1332.18,-610.43"/><polygon fill="#000" stroke="#000" points="1214.05 -556.67 1203.47 -556 1211.32 -563.12 1214.05 -556.67"/><text x="1316" y="-579.8" font-family="Times,serif" font-size="14" text-anchor="middle">कर्ता</text></g></g></svg>