<?xml version="1.0" encoding="UTF-8" standalone="no"?>
<!DOCTYPE svg PUBLIC "-//W3C//DTD SVG 1.1//EN"
 "http://www.w3.org/Graphics/SVG/1.1/DTD/svg11.dtd">
<!-- Generated by graphviz version 2.43.0 (0)
 -->
<!-- Title: G Pages: 1 -->
<svg width="1105pt" height="305pt"
 viewBox="0.00 0.00 1104.69 305.00" xmlns="http://www.w3.org/2000/svg" xmlns:xlink="http://www.w3.org/1999/xlink">
<g id="graph0" class="graph" transform="scale(1 1) rotate(0) translate(4 301)">
<title>G</title>
<polygon fill="#fffacd" stroke="transparent" points="-4,4 -4,-301 1100.69,-301 1100.69,4 -4,4"/>
<g id="clust1" class="cluster">
<title>cluster_1</title>
<polygon fill="#fffacd" stroke="black" points="590,-79 590,-218 856,-218 856,-79 590,-79"/>
</g>
<g id="clust2" class="cluster">
<title>cluster_2</title>
<polygon fill="#fffacd" stroke="black" points="8,-79 8,-218 164,-218 164,-79 8,-79"/>
</g>
<!-- Node2_2 -->
<g id="node1" class="node">
<title>Node2_2</title>
<ellipse fill="#93db70" stroke="#93db70" cx="723" cy="-105" rx="124.58" ry="18"/>
<text text-anchor="middle" x="723" y="-101.3" font-family="Times,serif" font-size="14.00">प्रतीकाशम्(2.2)</text>
</g>
<!-- Node3_2 -->
<g id="node2" class="node">
<title>Node3_2</title>
<ellipse fill="#93db70" stroke="#93db70" cx="723" cy="-192" rx="106.68" ry="18"/>
<text text-anchor="middle" x="723" y="-188.3" font-family="Times,serif" font-size="14.00">निवेशनम्(3.2)</text>
</g>
<!-- Node2_2&#45;&gt;Node3_2 -->
<g id="edge3" class="edge">
<title>Node2_2&#45;&gt;Node3_2</title>
<path fill="none" stroke="black" d="M723,-133.27C723,-146.58 723,-162.19 723,-173.82"/>
<polygon fill="black" stroke="black" points="726.5,-133.2 723,-123.2 719.5,-133.2 726.5,-133.2"/>
<text text-anchor="middle" x="780.5" y="-144.8" font-family="Times,serif" font-size="14.00">विशेषणम्</text>
</g>
<!-- Node7_1 -->
<g id="node6" class="node">
<title>Node7_1</title>
<ellipse fill="#ff1975" stroke="#ff1975" cx="362" cy="-279" rx="106.68" ry="18"/>
<text text-anchor="middle" x="362" y="-275.3" font-family="Times,serif" font-size="14.00">पुप्लुवे(7.1)</text>
</g>
<!-- Node3_2&#45;&gt;Node7_1 -->
<g id="edge5" class="edge">
<title>Node3_2&#45;&gt;Node7_1</title>
<path fill="none" stroke="black" d="M713,-219.37C708.29,-228.31 701.74,-237.42 693,-243 656.71,-266.15 550.53,-274.21 468.12,-276.9"/>
<polygon fill="black" stroke="black" points="716.19,-220.83 717.26,-210.29 709.85,-217.86 716.19,-220.83"/>
<text text-anchor="middle" x="737" y="-231.8" font-family="Times,serif" font-size="14.00">कर्म</text>
</g>
<!-- Node8_1 -->
<g id="node3" class="node">
<title>Node8_1</title>
<ellipse fill="#00bfff" stroke="#00bfff" cx="67" cy="-105" rx="50.89" ry="18"/>
<text text-anchor="middle" x="67" y="-101.3" font-family="Times,serif" font-size="14.00">सः(8.1)</text>
</g>
<!-- Node9_2 -->
<g id="node4" class="node">
<title>Node9_2</title>
<ellipse fill="#00bfff" stroke="#00bfff" cx="86" cy="-192" rx="69.59" ry="18"/>
<text text-anchor="middle" x="86" y="-188.3" font-family="Times,serif" font-size="14.00">कपिः(9.2)</text>
</g>
<!-- Node8_1&#45;&gt;Node9_2 -->
<g id="edge9" class="edge">
<title>Node8_1&#45;&gt;Node9_2</title>
<path fill="none" stroke="black" d="M73.09,-133.27C76.07,-146.58 79.56,-162.19 82.16,-173.82"/>
<polygon fill="black" stroke="black" points="76.44,-132.2 70.84,-123.2 69.61,-133.72 76.44,-132.2"/>
<text text-anchor="middle" x="135.5" y="-144.8" font-family="Times,serif" font-size="14.00">विशेषणम्</text>
</g>
<!-- Node9_2&#45;&gt;Node7_1 -->
<g id="edge11" class="edge">
<title>Node9_2&#45;&gt;Node7_1</title>
<path fill="none" stroke="black" d="M112.36,-215.82C125.06,-225.65 140.99,-236.4 157,-243 191.54,-257.25 231.66,-265.7 267.21,-270.71"/>
<polygon fill="black" stroke="black" points="114.5,-213.05 104.5,-209.54 110.13,-218.52 114.5,-213.05"/>
<text text-anchor="middle" x="193" y="-231.8" font-family="Times,serif" font-size="14.00">कर्ता</text>
</g>
<!-- Node1_1 -->
<g id="node5" class="node">
<title>Node1_1</title>
<ellipse fill="#ff99ff" stroke="#ff99ff" cx="224" cy="-192" rx="50.89" ry="18"/>
<text text-anchor="middle" x="224" y="-188.3" font-family="Times,serif" font-size="14.00">अथ(1.1)</text>
</g>
<!-- Node1_1&#45;&gt;Node7_1 -->
<g id="edge1" class="edge">
<title>Node1_1&#45;&gt;Node7_1</title>
<path fill="none" stroke="black" d="M229.26,-219.9C232.09,-228.28 236.41,-236.9 243,-243 254.69,-253.83 269.57,-261.32 284.81,-266.5"/>
<polygon fill="black" stroke="black" points="232.56,-218.7 226.5,-210 225.82,-220.58 232.56,-218.7"/>
<text text-anchor="middle" x="300.5" y="-231.8" font-family="Times,serif" font-size="14.00">सम्बन्धः</text>
</g>
<!-- Node2_1 -->
<g id="node7" class="node">
<title>Node2_1</title>
<ellipse fill="#ffff00" stroke="#ffff00" cx="723" cy="-18" rx="63.09" ry="18"/>
<text text-anchor="middle" x="723" y="-14.3" font-family="Times,serif" font-size="14.00">मेघ&#45;(2.1)</text>
</g>
<!-- Node2_1&#45;&gt;Node2_2 -->
<g id="edge2" class="edge">
<title>Node2_1&#45;&gt;Node2_2</title>
<path fill="none" stroke="black" d="M723,-46.27C723,-59.58 723,-75.19 723,-86.82"/>
<polygon fill="black" stroke="black" points="726.5,-46.2 723,-36.2 719.5,-46.2 726.5,-46.2"/>
<text text-anchor="middle" x="787.5" y="-57.8" font-family="Times,serif" font-size="14.00">कर्मधारयः</text>
</g>
<!-- Node3_1 -->
<g id="node8" class="node">
<title>Node3_1</title>
<ellipse fill="#ffff00" stroke="#ffff00" cx="462" cy="-105" rx="118.08" ry="18"/>
<text text-anchor="middle" x="462" y="-101.3" font-family="Times,serif" font-size="14.00">कुम्भकर्ण&#45;(3.1)</text>
</g>
<!-- Node3_1&#45;&gt;Node3_2 -->
<g id="edge4" class="edge">
<title>Node3_1&#45;&gt;Node3_2</title>
<path fill="none" stroke="black" d="M481.03,-130.78C489.5,-140.13 500.23,-149.95 512,-156 533.34,-166.97 586.92,-175.79 634.74,-181.83"/>
<polygon fill="black" stroke="black" points="483.64,-128.45 474.47,-123.14 478.33,-133.01 483.64,-128.45"/>
<text text-anchor="middle" x="615.5" y="-144.8" font-family="Times,serif" font-size="14.00">षष्ठी_तत्पुरुषः</text>
</g>
<!-- Node4_1 -->
<g id="node9" class="node">
<title>Node4_1</title>
<ellipse fill="#87ceeb" stroke="#87ceeb" cx="981" cy="-105" rx="115.88" ry="18"/>
<text text-anchor="middle" x="981" y="-101.3" font-family="Times,serif" font-size="14.00">विभीषणस्य(4.1)</text>
</g>
<!-- Node4_1&#45;&gt;Node3_2 -->
<g id="edge6" class="edge">
<title>Node4_1&#45;&gt;Node3_2</title>
<path fill="none" stroke="black" d="M929.28,-125.43C903.23,-135 871.07,-146.5 842,-156 820.4,-163.05 796.4,-170.24 775.63,-176.25"/>
<polygon fill="black" stroke="black" points="930.78,-128.61 938.95,-121.86 928.35,-122.04 930.78,-128.61"/>
<text text-anchor="middle" x="977" y="-144.8" font-family="Times,serif" font-size="14.00">षष्ठीसम्बन्धः</text>
</g>
<!-- Node5_1 -->
<g id="node10" class="node">
<title>Node5_1</title>
<ellipse fill="#ff99ff" stroke="#ff99ff" cx="362" cy="-192" rx="41.69" ry="18"/>
<text text-anchor="middle" x="362" y="-188.3" font-family="Times,serif" font-size="14.00">च(5.1)</text>
</g>
<!-- Node5_1&#45;&gt;Node7_1 -->
<g id="edge7" class="edge">
<title>Node5_1&#45;&gt;Node7_1</title>
<path fill="none" stroke="black" d="M362,-220.27C362,-233.58 362,-249.19 362,-260.82"/>
<polygon fill="black" stroke="black" points="365.5,-220.2 362,-210.2 358.5,-220.2 365.5,-220.2"/>
<text text-anchor="middle" x="419.5" y="-231.8" font-family="Times,serif" font-size="14.00">सम्बन्धः</text>
</g>
<!-- Node6_1 -->
<g id="node11" class="node">
<title>Node6_1</title>
<ellipse fill="#ff99ff" stroke="#ff99ff" cx="500" cy="-192" rx="59.59" ry="18"/>
<text text-anchor="middle" x="500" y="-188.3" font-family="Times,serif" font-size="14.00">तथा(6.1)</text>
</g>
<!-- Node6_1&#45;&gt;Node7_1 -->
<g id="edge8" class="edge">
<title>Node6_1&#45;&gt;Node7_1</title>
<path fill="none" stroke="black" d="M493.13,-219.65C489.79,-228.11 484.94,-236.85 478,-243 466.19,-253.46 451.34,-260.79 436.25,-265.94"/>
<polygon fill="black" stroke="black" points="496.5,-220.62 496.4,-210.02 489.87,-218.37 496.5,-220.62"/>
<text text-anchor="middle" x="589" y="-231.8" font-family="Times,serif" font-size="14.00">क्रियाविशेषणम्</text>
</g>
<!-- Node9_1 -->
<g id="node12" class="node">
<title>Node9_1</title>
<ellipse fill="#ffff00" stroke="#ffff00" cx="235" cy="-105" rx="63.09" ry="18"/>
<text text-anchor="middle" x="235" y="-101.3" font-family="Times,serif" font-size="14.00">महा&#45;(9.1)</text>
</g>
<!-- Node9_1&#45;&gt;Node9_2 -->
<g id="edge10" class="edge">
<title>Node9_1&#45;&gt;Node9_2</title>
<path fill="none" stroke="black" d="M220.16,-131.56C213.98,-140.36 206.1,-149.6 197,-156 180.39,-167.69 159.72,-175.59 140.73,-180.88"/>
<polygon fill="black" stroke="black" points="223.2,-133.31 225.77,-123.03 217.35,-129.47 223.2,-133.31"/>
<text text-anchor="middle" x="277.5" y="-144.8" font-family="Times,serif" font-size="14.00">कर्मधारयः</text>
</g>
</g>
</svg>
