<svg xmlns="http://www.w3.org/2000/svg" xmlns:xlink="http://www.w3.org/1999/xlink" width="1615pt" height="479pt" viewBox="0 0 1614.74 479"><g id="graph0" class="graph" transform="scale(1 1) rotate(0) translate(4 475)"><title>G</title><polygon fill="#fffacd" stroke="transparent" points="-4 4 -4 -475 1610.74 -475 1610.74 4 -4 4"/><g id="node1" class="node"><title>Node1_1</title><ellipse cx="424.74" cy="-366" fill="#f9f" stroke="#f9f" rx="59.59" ry="18"/><text x="424.74" y="-362.3" font-family="Times,serif" font-size="14" text-anchor="middle">ततः(1.1)</text></g><g id="node2" class="node"><title>Node8_1</title><ellipse cx="652.74" cy="-453" fill="#ff1975" stroke="#ff1975" rx="78.79" ry="18"/><text x="652.74" y="-449.3" font-family="Times,serif" font-size="14" text-anchor="middle">अभवत्(8.1)</text></g><g id="edge1" class="edge"><title>Node1_1-&gt;Node8_1</title><path fill="none" stroke="#000" d="M425.01,-394.41C426.47,-402.71 429.56,-411.16 435.74,-417 455.75,-435.9 522.11,-444.62 576.23,-448.62"/><polygon fill="#000" stroke="#000" points="428.46 -393.77 423.94 -384.19 421.5 -394.5 428.46 -393.77"/><text x="493.24" y="-405.8" font-family="Times,serif" font-size="14" text-anchor="middle">सम्बन्धः</text></g><g id="node3" class="node"><title>Node2_1</title><ellipse cx="562.74" cy="-366" fill="#f9f" stroke="#f9f" rx="59.59" ry="18"/><text x="562.74" y="-362.3" font-family="Times,serif" font-size="14" text-anchor="middle">तदा(2.1)</text></g><g id="edge2" class="edge"><title>Node2_1-&gt;Node8_1</title><path fill="none" stroke="#000" d="M555.02,-394.23C554.3,-402.15 555.2,-410.44 559.74,-417 567.6,-428.35 579.62,-436.02 592.45,-441.21"/><polygon fill="#000" stroke="#000" points="558.5 -394.63 556.71 -384.19 551.59 -393.46 558.5 -394.63"/><text x="638.24" y="-405.8" font-family="Times,serif" font-size="14" text-anchor="middle">कालाधिकरणम्</text></g><g id="node4" class="node"><title>Node3_1</title><ellipse cx="87.74" cy="-18" fill="#ff0" stroke="#ff0" rx="63.09" ry="18"/><text x="87.74" y="-14.3" font-family="Times,serif" font-size="14" text-anchor="middle">बहु-(3.1)</text></g><g id="node5" class="node"><title>Node3_2</title><ellipse cx="87.74" cy="-105" fill="#ff0" stroke="#ff0" rx="63.09" ry="18"/><text x="87.74" y="-101.3" font-family="Times,serif" font-size="14" text-anchor="middle">विध-(3.2)</text></g><g id="edge3" class="edge"><title>Node3_1-&gt;Node3_2</title><path fill="none" stroke="#000" d="M87.74,-46.27C87.74,-59.58 87.74,-75.19 87.74,-86.82"/><polygon fill="#000" stroke="#000" points="91.24 -46.2 87.74 -36.2 84.24 -46.2 91.24 -46.2"/><text x="159.24" y="-57.8" font-family="Times,serif" font-size="14" text-anchor="middle">बहुव्रीहिः</text></g><g id="node6" class="node"><title>Node3_3</title><ellipse cx="87.74" cy="-192" fill="#ff0" stroke="#ff0" rx="81.49" ry="18"/><text x="87.74" y="-188.3" font-family="Times,serif" font-size="14" text-anchor="middle">भावित-(3.3)</text></g><g id="edge4" class="edge"><title>Node3_2-&gt;Node3_3</title><path fill="none" stroke="#000" d="M87.74,-133.27C87.74,-146.58 87.74,-162.19 87.74,-173.82"/><polygon fill="#000" stroke="#000" points="91.24 -133.2 87.74 -123.2 84.24 -133.2 91.24 -133.2"/><text x="198.24" y="-144.8" font-family="Times,serif" font-size="14" text-anchor="middle">तृतीया_तत्पुरुषः</text></g><g id="node7" class="node"><title>Node3_4</title><ellipse cx="87.74" cy="-279" fill="#87ceeb" stroke="#87ceeb" rx="87.99" ry="18"/><text x="87.74" y="-275.3" font-family="Times,serif" font-size="14" text-anchor="middle">आत्मनः(3.4)</text></g><g id="edge5" class="edge"><title>Node3_3-&gt;Node3_4</title><path fill="none" stroke="#000" d="M87.74,-220.27C87.74,-233.58 87.74,-249.19 87.74,-260.82"/><polygon fill="#000" stroke="#000" points="91.24 -220.2 87.74 -210.2 84.24 -220.2 91.24 -220.2"/><text x="159.24" y="-231.8" font-family="Times,serif" font-size="14" text-anchor="middle">बहुव्रीहिः</text></g><g id="node8" class="node"><title>Node10_1</title><ellipse cx="723.74" cy="-366" fill="#00bfff" stroke="#00bfff" rx="65.79" ry="18"/><text x="723.74" y="-362.3" font-family="Times,serif" font-size="14" text-anchor="middle">मनः(10.1)</text></g><g id="edge6" class="edge"><title>Node3_4-&gt;Node10_1</title><path fill="none" stroke="#000" d="M96.3,-306.28C100.64,-315.37 106.92,-324.62 115.74,-330 164.72,-359.87 574.71,-341.77 631.74,-348 645.31,-349.48 659.87,-351.82 673.33,-354.3"/><polygon fill="#000" stroke="#000" points="99.53 -304.92 92.45 -297.03 93.06 -307.61 99.53 -304.92"/><text x="208.74" y="-318.8" font-family="Times,serif" font-size="14" text-anchor="middle">षष्ठीसम्बन्धः</text></g><g id="edge14" class="edge"><title>Node10_1-&gt;Node8_1</title><path fill="none" stroke="#000" d="M727,-394.07C726.72,-401.99 725.1,-410.31 720.74,-417 714.87,-426.01 705.9,-432.82 696.39,-437.93"/><polygon fill="#000" stroke="#000" points="730.5 -393.96 726.72 -384.06 723.5 -394.15 730.5 -393.96"/><text x="761.74" y="-405.8" font-family="Times,serif" font-size="14" text-anchor="middle">कर्ता</text></g><g id="node9" class="node"><title>Node4_1</title><ellipse cx="280.74" cy="-192" fill="#ff0" stroke="#ff0" rx="63.09" ry="18"/><text x="280.74" y="-188.3" font-family="Times,serif" font-size="14" text-anchor="middle">कृत-(4.1)</text></g><g id="node10" class="node"><title>Node4_2</title><ellipse cx="280.74" cy="-279" fill="#87ceeb" stroke="#87ceeb" rx="87.99" ry="18"/><text x="280.74" y="-275.3" font-family="Times,serif" font-size="14" text-anchor="middle">आत्मनः(4.2)</text></g><g id="edge7" class="edge"><title>Node4_1-&gt;Node4_2</title><path fill="none" stroke="#000" d="M280.74,-220.27C280.74,-233.58 280.74,-249.19 280.74,-260.82"/><polygon fill="#000" stroke="#000" points="284.24 -220.2 280.74 -210.2 277.24 -220.2 284.24 -220.2"/><text x="352.24" y="-231.8" font-family="Times,serif" font-size="14" text-anchor="middle">बहुव्रीहिः</text></g><g id="edge8" class="edge"><title>Node4_2-&gt;Node10_1</title><path fill="none" stroke="#000" d="M296.29,-305.53C303.42,-314.91 312.74,-324.56 323.74,-330 385.19,-360.4 563.68,-339.76 631.74,-348 645.13,-349.62 659.5,-351.98 672.82,-354.42"/><polygon fill="#000" stroke="#000" points="298.99 -303.29 290.38 -297.12 293.26 -307.31 298.99 -303.29"/><text x="416.74" y="-318.8" font-family="Times,serif" font-size="14" text-anchor="middle">षष्ठीसम्बन्धः</text></g><g id="node11" class="node"><title>Node5_1</title><ellipse cx="483.74" cy="-105" fill="#ff0" stroke="#ff0" rx="63.09" ry="18"/><text x="483.74" y="-101.3" font-family="Times,serif" font-size="14" text-anchor="middle">जनक-(5.1)</text></g><g id="node12" class="node"><title>Node5_2</title><ellipse cx="483.74" cy="-192" fill="#93db70" stroke="#93db70" rx="87.99" ry="18"/><text x="483.74" y="-188.3" font-family="Times,serif" font-size="14" text-anchor="middle">सुताम्(5.2)</text></g><g id="edge9" class="edge"><title>Node5_1-&gt;Node5_2</title><path fill="none" stroke="#000" d="M483.74,-133.27C483.74,-146.58 483.74,-162.19 483.74,-173.82"/><polygon fill="#000" stroke="#000" points="487.24 -133.2 483.74 -123.2 480.24 -133.2 487.24 -133.2"/><text x="587.24" y="-144.8" font-family="Times,serif" font-size="14" text-anchor="middle">षष्ठी_तत्पुरुषः</text></g><g id="node13" class="node"><title>Node7_1</title><ellipse cx="483.74" cy="-279" fill="#87ceeb" stroke="#87ceeb" rx="96.68" ry="18"/><text x="483.74" y="-275.3" font-family="Times,serif" font-size="14" text-anchor="middle">अपश्यतः(7.1)</text></g><g id="edge10" class="edge"><title>Node5_2-&gt;Node7_1</title><path fill="none" stroke="#000" d="M483.74,-220.27C483.74,-233.58 483.74,-249.19 483.74,-260.82"/><polygon fill="#000" stroke="#000" points="487.24 -220.2 483.74 -210.2 480.24 -220.2 487.24 -220.2"/><text x="512.74" y="-231.8" font-family="Times,serif" font-size="14" text-anchor="middle">कर्म</text></g><g id="edge12" class="edge"><title>Node7_1-&gt;Node10_1</title><path fill="none" stroke="#000" d="M502.83,-304.68C511.31,-314.01 522.02,-323.85 533.74,-330 572.95,-350.59 588.19,-339.98 631.74,-348 644.36,-350.32 657.95,-352.83 670.72,-355.19"/><polygon fill="#000" stroke="#000" points="505.44 -302.35 496.26 -297.06 500.14 -306.92 505.44 -302.35"/><text x="626.74" y="-318.8" font-family="Times,serif" font-size="14" text-anchor="middle">षष्ठीसम्बन्धः</text></g><g id="node14" class="node"><title>Node6_1</title><ellipse cx="723.74" cy="-279" fill="#87ceeb" stroke="#87ceeb" rx="124.58" ry="18"/><text x="723.74" y="-275.3" font-family="Times,serif" font-size="14" text-anchor="middle">सुवर्त्मनः(6.1)</text></g><g id="edge11" class="edge"><title>Node6_1-&gt;Node10_1</title><path fill="none" stroke="#000" d="M723.74,-307.27C723.74,-320.58 723.74,-336.19 723.74,-347.82"/><polygon fill="#000" stroke="#000" points="727.24 -307.2 723.74 -297.2 720.24 -307.2 727.24 -307.2"/><text x="816.74" y="-318.8" font-family="Times,serif" font-size="14" text-anchor="middle">षष्ठीसम्बन्धः</text></g><g id="node15" class="node"><title>Node9_1</title><ellipse cx="941.74" cy="-366" fill="#00bfff" stroke="#00bfff" rx="133.78" ry="18"/><text x="941.74" y="-362.3" font-family="Times,serif" font-size="14" text-anchor="middle">अतिदुःखितम्(9.1)</text></g><g id="edge13" class="edge"><title>Node9_1-&gt;Node8_1</title><path fill="none" stroke="#000" d="M890.78,-386.75C864.44,-396.57 831.62,-408.19 801.74,-417 771.41,-425.95 737.09,-434.14 709.03,-440.34"/><polygon fill="#000" stroke="#000" points="892.05 -390.02 900.18 -383.23 889.59 -383.46 892.05 -390.02"/><text x="965.24" y="-405.8" font-family="Times,serif" font-size="14" text-anchor="middle">कर्तृसमानाधिकरणम्</text></g><g id="node16" class="node"><title>Node11_1</title><ellipse cx="978.74" cy="-279" fill="#87ceeb" stroke="#87ceeb" rx="112.38" ry="18"/><text x="978.74" y="-275.3" font-family="Times,serif" font-size="14" text-anchor="middle">सचक्षुषः(11.1)</text></g><g id="edge15" class="edge"><title>Node11_1-&gt;Node10_1</title><path fill="none" stroke="#000" d="M954.04,-303.73C942.63,-313.38 928.38,-323.72 913.74,-330 866.2,-350.41 849.55,-338.28 798.74,-348 789.96,-349.68 780.63,-351.65 771.65,-353.63"/><polygon fill="#000" stroke="#000" points="956.62 -306.13 961.82 -296.89 952 -300.87 956.62 -306.13"/><text x="1031.74" y="-318.8" font-family="Times,serif" font-size="14" text-anchor="middle">षष्ठीसम्बन्धः</text></g><g id="node17" class="node"><title>Node12_1</title><ellipse cx="1230.74" cy="-279" fill="#87ceeb" stroke="#87ceeb" rx="121.58" ry="18"/><text x="1230.74" y="-275.3" font-family="Times,serif" font-size="14" text-anchor="middle">प्रविचरतः(12.1)</text></g><g id="edge16" class="edge"><title>Node12_1-&gt;Node10_1</title><path fill="none" stroke="#000" d="M1195.31,-301.76C1176.29,-312.28 1152.03,-323.93 1128.74,-330 986.61,-367.07 944.22,-327.69 798.74,-348 789.49,-349.29 779.68,-351.15 770.33,-353.16"/><polygon fill="#000" stroke="#000" points="1197.23 -304.69 1204.2 -296.71 1193.77 -298.61 1197.23 -304.69"/><text x="1258.74" y="-318.8" font-family="Times,serif" font-size="14" text-anchor="middle">षष्ठीसम्बन्धः</text></g><g id="node18" class="node"><title>Node13_1</title><ellipse cx="1463.74" cy="-192" fill="#ff0" stroke="#ff0" rx="68.79" ry="18"/><text x="1463.74" y="-188.3" font-family="Times,serif" font-size="14" text-anchor="middle">महा-(13.1)</text></g><g id="node19" class="node"><title>Node13_2</title><ellipse cx="1463.74" cy="-279" fill="#87ceeb" stroke="#87ceeb" rx="93.68" ry="18"/><text x="1463.74" y="-275.3" font-family="Times,serif" font-size="14" text-anchor="middle">आत्मनः(13.2)</text></g><g id="edge17" class="edge"><title>Node13_1-&gt;Node13_2</title><path fill="none" stroke="#000" d="M1463.74,-220.27C1463.74,-233.58 1463.74,-249.19 1463.74,-260.82"/><polygon fill="#000" stroke="#000" points="1467.24 -220.2 1463.74 -210.2 1460.24 -220.2 1467.24 -220.2"/><text x="1535.24" y="-231.8" font-family="Times,serif" font-size="14" text-anchor="middle">बहुव्रीहिः</text></g><g id="edge18" class="edge"><title>Node13_2-&gt;Node10_1</title><path fill="none" stroke="#000" d="M1427.52,-301.23C1407.16,-312 1380.85,-324.04 1355.74,-330 1235.24,-358.59 921.58,-332.24 798.74,-348 789.34,-349.21 779.38,-351.05 769.9,-353.09"/><polygon fill="#000" stroke="#000" points="1429.32 -304.24 1436.44 -296.39 1425.98 -298.08 1429.32 -304.24"/><text x="1491.74" y="-318.8" font-family="Times,serif" font-size="14" text-anchor="middle">षष्ठीसम्बन्धः</text></g></g></svg>