<svg xmlns="http://www.w3.org/2000/svg" xmlns:xlink="http://www.w3.org/1999/xlink" width="2300pt" height="566pt" viewBox="0 0 2299.89 566"><g id="graph0" class="graph" transform="scale(1 1) rotate(0) translate(4 562)"><title>G</title><polygon fill="#fffacd" stroke="transparent" points="-4 4 -4 -562 2295.89 -562 2295.89 4 -4 4"/><g id="clust1" class="cluster"><title>cluster_1</title><polygon fill="#fffacd" stroke="#000" points="2006.89 -253 2006.89 -392 2162.89 -392 2162.89 -253 2006.89 -253"/></g><g id="clust2" class="cluster"><title>cluster_2</title><polygon fill="#fffacd" stroke="#000" points="1177.89 -253 1177.89 -392 1795.89 -392 1795.89 -253 1177.89 -253"/></g><g id="clust3" class="cluster"><title>cluster_3</title><polygon fill="#fffacd" stroke="#000" points="147.89 -253 147.89 -392 1169.89 -392 1169.89 -253 147.89 -253"/></g><g id="node1" class="node"><title>Node2_1</title><ellipse cx="2065.89" cy="-279" fill="#00bfff" stroke="#00bfff" rx="50.89" ry="18"/><text x="2065.89" y="-275.3" font-family="Times,serif" font-size="14" text-anchor="middle">सः(2.1)</text></g><g id="node2" class="node"><title>Node4_1</title><ellipse cx="2084.89" cy="-366" fill="#00bfff" stroke="#00bfff" rx="69.59" ry="18"/><text x="2084.89" y="-362.3" font-family="Times,serif" font-size="14" text-anchor="middle">कपिः(4.1)</text></g><g id="edge2" class="edge"><title>Node2_1-&gt;Node4_1</title><path fill="none" stroke="#000" d="M2071.99,-307.27C2074.96,-320.58 2078.45,-336.19 2081.05,-347.82"/><polygon fill="#000" stroke="#000" points="2075.34 -306.2 2069.74 -297.2 2068.5 -307.72 2075.34 -306.2"/><text x="2133.39" y="-318.8" font-family="Times,serif" font-size="14" text-anchor="middle">विशेषणम्</text></g><g id="node14" class="node"><title>Node7_1</title><ellipse cx="1844.89" cy="-453" fill="#00bfff" stroke="#00bfff" rx="69.59" ry="18"/><text x="1844.89" y="-449.3" font-family="Times,serif" font-size="14" text-anchor="middle">चरन्(7.1)</text></g><g id="edge4" class="edge"><title>Node4_1-&gt;Node7_1</title><path fill="none" stroke="#000" d="M2051.84,-388.27C2035.28,-398.17 2014.59,-409.4 1994.89,-417 1965.08,-428.5 1930.41,-436.89 1901.92,-442.57"/><polygon fill="#000" stroke="#000" points="2053.87 -391.14 2060.58 -382.95 2050.22 -385.16 2053.87 -391.14"/><text x="2060.89" y="-405.8" font-family="Times,serif" font-size="14" text-anchor="middle">कर्ता</text></g><g id="node3" class="node"><title>Node3_1</title><ellipse cx="1717.89" cy="-279" fill="#93db70" stroke="#93db70" rx="69.59" ry="18"/><text x="1717.89" y="-275.3" font-family="Times,serif" font-size="14" text-anchor="middle">ताम्(3.1)</text></g><g id="node4" class="node"><title>Node8_1</title><ellipse cx="1597.89" cy="-366" fill="#93db70" stroke="#93db70" rx="87.99" ry="18"/><text x="1597.89" y="-362.3" font-family="Times,serif" font-size="14" text-anchor="middle">पुरीम्(8.1)</text></g><g id="edge3" class="edge"><title>Node3_1-&gt;Node8_1</title><path fill="none" stroke="#000" d="M1686.79,-302.31C1674.67,-310.98 1660.65,-320.98 1647.89,-330 1639.33,-336.06 1629.91,-342.66 1621.58,-348.49"/><polygon fill="#000" stroke="#000" points="1689.14 -304.93 1695.23 -296.27 1685.07 -299.24 1689.14 -304.93"/><text x="1724.39" y="-318.8" font-family="Times,serif" font-size="14" text-anchor="middle">विशेषणम्</text></g><g id="edge8" class="edge"><title>Node8_1-&gt;Node7_1</title><path fill="none" stroke="#000" d="M1650.45,-385.09C1696.62,-400.97 1762.81,-423.75 1804.81,-438.21"/><polygon fill="#000" stroke="#000" points="1651.51 -381.75 1640.92 -381.81 1649.23 -388.37 1651.51 -381.75"/><text x="1764.89" y="-405.8" font-family="Times,serif" font-size="14" text-anchor="middle">कर्म</text></g><g id="node5" class="node"><title>Node6_1</title><ellipse cx="1523.89" cy="-279" fill="#93db70" stroke="#93db70" rx="106.68" ry="18"/><text x="1523.89" y="-275.3" font-family="Times,serif" font-size="14" text-anchor="middle">पूजिताम्(6.1)</text></g><g id="edge6" class="edge"><title>Node6_1-&gt;Node8_1</title><path fill="none" stroke="#000" d="M1524.39,-307.24C1525.64,-315.17 1528.14,-323.45 1532.89,-330 1538.99,-338.4 1547.73,-344.99 1556.84,-350.08"/><polygon fill="#000" stroke="#000" points="1527.86 -306.79 1523.37 -297.19 1520.89 -307.5 1527.86 -306.79"/><text x="1590.39" y="-318.8" font-family="Times,serif" font-size="14" text-anchor="middle">विशेषणम्</text></g><g id="node6" class="node"><title>Node9_4</title><ellipse cx="1292.89" cy="-279" fill="#93db70" stroke="#93db70" rx="106.68" ry="18"/><text x="1292.89" y="-275.3" font-family="Times,serif" font-size="14" text-anchor="middle">पालिताम्(9.4)</text></g><g id="edge12" class="edge"><title>Node9_4-&gt;Node8_1</title><path fill="none" stroke="#000" d="M1333.66,-300.64C1355.02,-310.74 1381.87,-322.33 1406.89,-330 1445.25,-341.75 1489.22,-350.14 1525.29,-355.75"/><polygon fill="#000" stroke="#000" points="1335.1 -297.44 1324.57 -296.27 1332.07 -303.75 1335.1 -297.44"/><text x="1464.39" y="-318.8" font-family="Times,serif" font-size="14" text-anchor="middle">विशेषणम्</text></g><g id="node7" class="node"><title>Node11_1</title><ellipse cx="1086.89" cy="-279" fill="#93db70" stroke="#93db70" rx="75.29" ry="18"/><text x="1086.89" y="-275.3" font-family="Times,serif" font-size="14" text-anchor="middle">ताम्(11.1)</text></g><g id="node8" class="node"><title>Node12_2</title><ellipse cx="710.89" cy="-366" fill="#93db70" stroke="#93db70" rx="93.68" ry="18"/><text x="710.89" y="-362.3" font-family="Times,serif" font-size="14" text-anchor="middle">सुताम्(12.2)</text></g><g id="edge14" class="edge"><title>Node11_1-&gt;Node12_2</title><path fill="none" stroke="#000" d="M1034.45,-296.92C1000.58,-307.43 955.44,-320.66 914.89,-330 871.65,-339.96 822.65,-348.46 783.52,-354.58"/><polygon fill="#000" stroke="#000" points="1035.63 -300.22 1044.13 -293.89 1033.54 -293.54 1035.63 -300.22"/><text x="1029.39" y="-318.8" font-family="Times,serif" font-size="14" text-anchor="middle">विशेषणम्</text></g><g id="node19" class="node"><title>Node10_1</title><ellipse cx="1200.89" cy="-453" fill="#f9f" stroke="#f9f" rx="137.58" ry="18"/><text x="1200.89" y="-449.3" font-family="Times,serif" font-size="14" text-anchor="middle">अदृश्य(आर्ष)(10.1)</text></g><g id="edge16" class="edge"><title>Node12_2-&gt;Node10_1</title><path fill="none" stroke="#000" d="M787.98,-380.37C879.02,-396.16 1029.66,-422.3 1121.64,-438.25"/><polygon fill="#000" stroke="#000" points="788.45 -376.9 778 -378.64 787.25 -383.8 788.45 -376.9"/><text x="1013.89" y="-405.8" font-family="Times,serif" font-size="14" text-anchor="middle">कर्म</text></g><g id="node9" class="node"><title>Node13_1</title><ellipse cx="862.89" cy="-279" fill="#93db70" stroke="#93db70" rx="130.78" ry="18"/><text x="862.89" y="-275.3" font-family="Times,serif" font-size="14" text-anchor="middle">सुपूजिताम्(13.1)</text></g><g id="edge17" class="edge"><title>Node13_1-&gt;Node12_2</title><path fill="none" stroke="#000" d="M824.31,-301.58C798.07,-316.25 763.92,-335.35 739.97,-348.74"/><polygon fill="#000" stroke="#000" points="826.21 -304.53 833.23 -296.59 822.79 -298.42 826.21 -304.53"/><text x="853.39" y="-318.8" font-family="Times,serif" font-size="14" text-anchor="middle">विशेषणम्</text></g><g id="node10" class="node"><title>Node14_1</title><ellipse cx="574.89" cy="-279" fill="#93db70" stroke="#93db70" rx="139.98" ry="18"/><text x="574.89" y="-275.3" font-family="Times,serif" font-size="14" text-anchor="middle">सुदुःखिताम्(14.1)</text></g><g id="edge18" class="edge"><title>Node14_1-&gt;Node12_2</title><path fill="none" stroke="#000" d="M610.31,-302.13C633.54,-316.65 663.41,-335.32 684.54,-348.53"/><polygon fill="#000" stroke="#000" points="612.1 -299.13 601.76 -296.79 608.39 -305.06 612.1 -299.13"/><text x="708.39" y="-318.8" font-family="Times,serif" font-size="14" text-anchor="middle">विशेषणम्</text></g><g id="node11" class="node"><title>Node15_4</title><ellipse cx="286.89" cy="-279" fill="#93db70" stroke="#93db70" rx="130.78" ry="18"/><text x="286.89" y="-275.3" font-family="Times,serif" font-size="14" text-anchor="middle">निर्जिताम्(15.4)</text></g><g id="edge22" class="edge"><title>Node15_4-&gt;Node12_2</title><path fill="none" stroke="#000" d="M360.99,-297.02C405.51,-307.05 463.35,-319.75 514.89,-330 557.27,-338.43 604.99,-346.97 642.74,-353.5"/><polygon fill="#000" stroke="#000" points="361.65 -293.58 351.12 -294.79 360.11 -300.41 361.65 -293.58"/><text x="572.39" y="-318.8" font-family="Times,serif" font-size="14" text-anchor="middle">विशेषणम्</text></g><g id="node12" class="node"><title>Node1_1</title><ellipse cx="1644.89" cy="-453" fill="#f9f" stroke="#f9f" rx="59.59" ry="18"/><text x="1644.89" y="-449.3" font-family="Times,serif" font-size="14" text-anchor="middle">ततः(1.1)</text></g><g id="node13" class="node"><title>Node16_1</title><ellipse cx="1734.89" cy="-540" fill="#ff1975" stroke="#ff1975" rx="90.98" ry="18"/><text x="1734.89" y="-536.3" font-family="Times,serif" font-size="14" text-anchor="middle">(अभवत्)(16.1)</text></g><g id="edge1" class="edge"><title>Node1_1-&gt;Node16_1</title><path fill="none" stroke="#000" d="M1639.98,-481.25C1639.92,-489.18 1641.34,-497.46 1645.89,-504 1652.91,-514.08 1663.31,-521.26 1674.55,-526.37"/><polygon fill="#000" stroke="#000" points="1643.48 -481.45 1640.76 -471.21 1636.5 -480.91 1643.48 -481.45"/><text x="1724.39" y="-492.8" font-family="Times,serif" font-size="14" text-anchor="middle">कालाधिकरणम्</text></g><g id="edge7" class="edge"><title>Node7_1-&gt;Node16_1</title><path fill="none" stroke="#000" d="M1827.3,-478.8C1820.36,-487.47 1811.89,-496.82 1802.89,-504 1793.56,-511.46 1782.38,-517.99 1771.81,-523.34"/><polygon fill="#000" stroke="#000" points="1830.14 -480.85 1833.46 -470.79 1824.59 -476.58 1830.14 -480.85"/><text x="1924.89" y="-492.8" font-family="Times,serif" font-size="14" text-anchor="middle">वर्तमानसमानकालः</text></g><g id="node15" class="node"><title>Node5_1</title><ellipse cx="1900.89" cy="-366" fill="#f9f" stroke="#f9f" rx="96.68" ry="18"/><text x="1900.89" y="-362.3" font-family="Times,serif" font-size="14" text-anchor="middle">अभिपत्य(5.1)</text></g><g id="edge5" class="edge"><title>Node5_1-&gt;Node7_1</title><path fill="none" stroke="#000" d="M1883.93,-392.75C1874.87,-406.49 1863.99,-423.01 1856.02,-435.11"/><polygon fill="#000" stroke="#000" points="1886.98 -394.48 1889.56 -384.2 1881.14 -390.63 1886.98 -394.48"/><text x="1933.39" y="-405.8" font-family="Times,serif" font-size="14" text-anchor="middle">सम्बन्धः</text></g><g id="node16" class="node"><title>Node9_1</title><ellipse cx="1292.89" cy="-18" fill="#ff0" stroke="#ff0" rx="53.89" ry="18"/><text x="1292.89" y="-14.3" font-family="Times,serif" font-size="14" text-anchor="middle">दश-(9.1)</text></g><g id="node17" class="node"><title>Node9_2</title><ellipse cx="1292.89" cy="-105" fill="#ff0" stroke="#ff0" rx="63.09" ry="18"/><text x="1292.89" y="-101.3" font-family="Times,serif" font-size="14" text-anchor="middle">मुख-(9.2)</text></g><g id="edge9" class="edge"><title>Node9_1-&gt;Node9_2</title><path fill="none" stroke="#000" d="M1292.89,-46.27C1292.89,-59.58 1292.89,-75.19 1292.89,-86.82"/><polygon fill="#000" stroke="#000" points="1296.39 -46.2 1292.89 -36.2 1289.39 -46.2 1296.39 -46.2"/><text x="1364.39" y="-57.8" font-family="Times,serif" font-size="14" text-anchor="middle">बहुव्रीहिः</text></g><g id="node18" class="node"><title>Node9_3</title><ellipse cx="1292.89" cy="-192" fill="#ff0" stroke="#ff0" rx="72.29" ry="18"/><text x="1292.89" y="-188.3" font-family="Times,serif" font-size="14" text-anchor="middle">बाहु-(9.3)</text></g><g id="edge10" class="edge"><title>Node9_2-&gt;Node9_3</title><path fill="none" stroke="#000" d="M1292.89,-133.27C1292.89,-146.58 1292.89,-162.19 1292.89,-173.82"/><polygon fill="#000" stroke="#000" points="1296.39 -133.2 1292.89 -123.2 1289.39 -133.2 1296.39 -133.2"/><text x="1396.39" y="-144.8" font-family="Times,serif" font-size="14" text-anchor="middle">षष्ठी_तत्पुरुषः</text></g><g id="edge11" class="edge"><title>Node9_3-&gt;Node9_4</title><path fill="none" stroke="#000" d="M1292.89,-220.27C1292.89,-233.58 1292.89,-249.19 1292.89,-260.82"/><polygon fill="#000" stroke="#000" points="1296.39 -220.2 1292.89 -210.2 1289.39 -220.2 1296.39 -220.2"/><text x="1403.39" y="-231.8" font-family="Times,serif" font-size="14" text-anchor="middle">तृतीया_तत्पुरुषः</text></g><g id="edge13" class="edge"><title>Node10_1-&gt;Node16_1</title><path fill="none" stroke="#000" d="M1292.31,-469.17C1353.11,-479.21 1434.75,-492.57 1506.89,-504 1559.9,-512.4 1619.88,-521.59 1665.02,-528.45"/><polygon fill="#000" stroke="#000" points="1292.8 -465.71 1282.36 -467.53 1291.66 -472.61 1292.8 -465.71"/><text x="1571.39" y="-492.8" font-family="Times,serif" font-size="14" text-anchor="middle">पूर्वकालः</text></g><g id="node20" class="node"><title>Node12_1</title><ellipse cx="68.89" cy="-279" fill="#ff0" stroke="#ff0" rx="68.79" ry="18"/><text x="68.89" y="-275.3" font-family="Times,serif" font-size="14" text-anchor="middle">जनक-(12.1)</text></g><g id="edge15" class="edge"><title>Node12_1-&gt;Node12_2</title><path fill="none" stroke="#000" d="M116.68,-297.55C149.26,-308.75 193.62,-322.52 233.89,-330 365.53,-354.46 520.59,-361.99 617.33,-364.22"/><polygon fill="#000" stroke="#000" points="117.57 -294.15 106.97 -294.17 115.26 -300.76 117.57 -294.15"/><text x="337.39" y="-318.8" font-family="Times,serif" font-size="14" text-anchor="middle">षष्ठी_तत्पुरुषः</text></g><g id="node21" class="node"><title>Node15_1</title><ellipse cx="286.89" cy="-18" fill="#ff0" stroke="#ff0" rx="68.79" ry="18"/><text x="286.89" y="-14.3" font-family="Times,serif" font-size="14" text-anchor="middle">पति-(15.1)</text></g><g id="node22" class="node"><title>Node15_2</title><ellipse cx="286.89" cy="-105" fill="#ff0" stroke="#ff0" rx="68.79" ry="18"/><text x="286.89" y="-101.3" font-family="Times,serif" font-size="14" text-anchor="middle">गुण-(15.2)</text></g><g id="edge19" class="edge"><title>Node15_1-&gt;Node15_2</title><path fill="none" stroke="#000" d="M286.89,-46.27C286.89,-59.58 286.89,-75.19 286.89,-86.82"/><polygon fill="#000" stroke="#000" points="290.39 -46.2 286.89 -36.2 283.39 -46.2 290.39 -46.2"/><text x="390.39" y="-57.8" font-family="Times,serif" font-size="14" text-anchor="middle">षष्ठी_तत्पुरुषः</text></g><g id="node23" class="node"><title>Node15_3</title><ellipse cx="286.89" cy="-192" fill="#ff0" stroke="#ff0" rx="68.79" ry="18"/><text x="286.89" y="-188.3" font-family="Times,serif" font-size="14" text-anchor="middle">वेग-(15.3)</text></g><g id="edge20" class="edge"><title>Node15_2-&gt;Node15_3</title><path fill="none" stroke="#000" d="M286.89,-133.27C286.89,-146.58 286.89,-162.19 286.89,-173.82"/><polygon fill="#000" stroke="#000" points="290.39 -133.2 286.89 -123.2 283.39 -133.2 290.39 -133.2"/><text x="390.39" y="-144.8" font-family="Times,serif" font-size="14" text-anchor="middle">षष्ठी_तत्पुरुषः</text></g><g id="edge21" class="edge"><title>Node15_3-&gt;Node15_4</title><path fill="none" stroke="#000" d="M286.89,-220.27C286.89,-233.58 286.89,-249.19 286.89,-260.82"/><polygon fill="#000" stroke="#000" points="290.39 -220.2 286.89 -210.2 283.39 -220.2 290.39 -220.2"/><text x="397.39" y="-231.8" font-family="Times,serif" font-size="14" text-anchor="middle">तृतीया_तत्पुरुषः</text></g><g id="node24" class="node"><title>Node17_1</title><ellipse cx="2061.89" cy="-453" fill="#00bfff" stroke="#00bfff" rx="109.68" ry="18"/><text x="2061.89" y="-449.3" font-family="Times,serif" font-size="14" text-anchor="middle">(दुःखितः)(17.1)</text></g><g id="edge23" class="edge"><title>Node17_1-&gt;Node16_1</title><path fill="none" stroke="#000" d="M2053.83,-480.54C2049.83,-489.36 2044.06,-498.37 2035.89,-504 2002.7,-526.88 1901.38,-534.91 1825.4,-537.67"/><polygon fill="#000" stroke="#000" points="2057.1 -481.78 2057.5 -471.19 2050.59 -479.22 2057.1 -481.78"/><text x="2170.39" y="-492.8" font-family="Times,serif" font-size="14" text-anchor="middle">कर्तृसमानाधिकरणम्</text></g></g></svg>