<?xml version="1.0" encoding="UTF-8" standalone="no"?>
<!DOCTYPE svg PUBLIC "-//W3C//DTD SVG 1.1//EN"
 "http://www.w3.org/Graphics/SVG/1.1/DTD/svg11.dtd">
<!-- Generated by graphviz version 2.43.0 (0)
 -->
<!-- Title: G Pages: 1 -->
<svg width="2325pt" height="392pt"
 viewBox="0.00 0.00 2324.79 392.00" xmlns="http://www.w3.org/2000/svg" xmlns:xlink="http://www.w3.org/1999/xlink">
<g id="graph0" class="graph" transform="scale(1 1) rotate(0) translate(4 388)">
<title>G</title>
<polygon fill="#fffacd" stroke="transparent" points="-4,4 -4,-388 2320.79,-388 2320.79,4 -4,4"/>
<g id="clust1" class="cluster">
<title>cluster_1</title>
<polygon fill="#fffacd" stroke="black" points="758,-79 758,-305 1721,-305 1721,-79 758,-79"/>
</g>
<g id="clust2" class="cluster">
<title>cluster_2</title>
<polygon fill="#fffacd" stroke="black" points="1729,-79 1729,-131 1939,-131 1939,-79 1729,-79"/>
</g>
<g id="clust3" class="cluster">
<title>cluster_3</title>
<polygon fill="#fffacd" stroke="black" points="8,-166 8,-305 238,-305 238,-166 8,-166"/>
</g>
<g id="clust4" class="cluster">
<title>cluster_4</title>
<polygon fill="#fffacd" stroke="black" points="1947,-79 1947,-131 2187,-131 2187,-79 1947,-79"/>
</g>
<!-- Node3_1 -->
<g id="node1" class="node">
<title>Node3_1</title>
<ellipse fill="#00bfff" stroke="#00bfff" cx="1579" cy="-192" rx="133.78" ry="18"/>
<text text-anchor="middle" x="1579" y="-188.3" font-family="Times,serif" font-size="14.00">वैदूर्यमयाः(3.1)</text>
</g>
<!-- Node4_1 -->
<g id="node2" class="node">
<title>Node4_1</title>
<ellipse fill="#00bfff" stroke="#00bfff" cx="1010" cy="-279" rx="106.68" ry="18"/>
<text text-anchor="middle" x="1010" y="-275.3" font-family="Times,serif" font-size="14.00">विहङ्गाः(4.1)</text>
</g>
<!-- Node3_1&#45;&gt;Node4_1 -->
<g id="edge2" class="edge">
<title>Node3_1&#45;&gt;Node4_1</title>
<path fill="none" stroke="black" d="M1515.99,-211.24C1476.63,-221.99 1424.73,-235.01 1378,-243 1287.86,-258.41 1184.04,-267.51 1109.71,-272.55"/>
<polygon fill="black" stroke="black" points="1517,-214.59 1525.71,-208.56 1515.14,-207.84 1517,-214.59"/>
<text text-anchor="middle" x="1501.5" y="-231.8" font-family="Times,serif" font-size="14.00">विशेषणम्</text>
</g>
<!-- Node1_1 -->
<g id="node11" class="node">
<title>Node1_1</title>
<ellipse fill="#00bfff" stroke="#00bfff" cx="499" cy="-366" rx="78.79" ry="18"/>
<text text-anchor="middle" x="499" y="-362.3" font-family="Times,serif" font-size="14.00">कृताः(1.1)</text>
</g>
<!-- Node4_1&#45;&gt;Node1_1 -->
<g id="edge3" class="edge">
<title>Node4_1&#45;&gt;Node1_1</title>
<path fill="none" stroke="black" d="M927.04,-293.8C824.43,-310.87 652.11,-339.53 560.54,-354.76"/>
<polygon fill="black" stroke="black" points="927.77,-297.23 937.06,-292.13 926.62,-290.32 927.77,-297.23"/>
<text text-anchor="middle" x="815" y="-318.8" font-family="Times,serif" font-size="14.00">कर्म</text>
</g>
<!-- Node8_1 -->
<g id="node3" class="node">
<title>Node8_1</title>
<ellipse fill="#00bfff" stroke="#00bfff" cx="1321" cy="-192" rx="106.68" ry="18"/>
<text text-anchor="middle" x="1321" y="-188.3" font-family="Times,serif" font-size="14.00">विहङ्गाः(8.1)</text>
</g>
<!-- Node8_1&#45;&gt;Node4_1 -->
<g id="edge8" class="edge">
<title>Node8_1&#45;&gt;Node4_1</title>
<path fill="none" stroke="black" d="M1280.25,-213.69C1258.9,-223.81 1232.04,-235.4 1207,-243 1170.44,-254.09 1128.92,-262.12 1093.46,-267.66"/>
<polygon fill="black" stroke="black" points="1281.85,-216.81 1289.34,-209.32 1278.81,-210.5 1281.85,-216.81"/>
<text text-anchor="middle" x="1309.5" y="-231.8" font-family="Times,serif" font-size="14.00">समुच्चितः</text>
</g>
<!-- Node12_1 -->
<g id="node4" class="node">
<title>Node12_1</title>
<ellipse fill="#00bfff" stroke="#00bfff" cx="1084" cy="-192" rx="112.38" ry="18"/>
<text text-anchor="middle" x="1084" y="-188.3" font-family="Times,serif" font-size="14.00">भुजङ्गाः(12.1)</text>
</g>
<!-- Node12_1&#45;&gt;Node4_1 -->
<g id="edge13" class="edge">
<title>Node12_1&#45;&gt;Node4_1</title>
<path fill="none" stroke="black" d="M1076.8,-219.61C1073.75,-227.7 1069.57,-236.22 1064,-243 1058.04,-250.25 1050.18,-256.51 1042.3,-261.65"/>
<polygon fill="black" stroke="black" points="1080.12,-220.71 1079.99,-210.12 1073.49,-218.49 1080.12,-220.71"/>
<text text-anchor="middle" x="1138.5" y="-231.8" font-family="Times,serif" font-size="14.00">समुच्चितः</text>
</g>
<!-- Node14_1 -->
<g id="node5" class="node">
<title>Node14_1</title>
<ellipse fill="#00bfff" stroke="#00bfff" cx="860" cy="-192" rx="93.68" ry="18"/>
<text text-anchor="middle" x="860" y="-188.3" font-family="Times,serif" font-size="14.00">तुरगाः(14.1)</text>
</g>
<!-- Node14_1&#45;&gt;Node4_1 -->
<g id="edge16" class="edge">
<title>Node14_1&#45;&gt;Node4_1</title>
<path fill="none" stroke="black" d="M893.44,-214.96C899.67,-219.21 906.08,-223.68 912,-228 920.69,-234.34 921.79,-237.44 931,-243 942.95,-250.2 956.64,-256.79 969.23,-262.26"/>
<polygon fill="black" stroke="black" points="895.38,-212.05 885.13,-209.36 891.46,-217.85 895.38,-212.05"/>
<text text-anchor="middle" x="995.5" y="-231.8" font-family="Times,serif" font-size="14.00">समुच्चितः</text>
</g>
<!-- Node15_2 -->
<g id="node6" class="node">
<title>Node15_2</title>
<ellipse fill="#00bfff" stroke="#00bfff" cx="860" cy="-105" rx="93.68" ry="18"/>
<text text-anchor="middle" x="860" y="-101.3" font-family="Times,serif" font-size="14.00">अङ्गाः(15.2)</text>
</g>
<!-- Node15_2&#45;&gt;Node14_1 -->
<g id="edge18" class="edge">
<title>Node15_2&#45;&gt;Node14_1</title>
<path fill="none" stroke="black" d="M860,-133.27C860,-146.58 860,-162.19 860,-173.82"/>
<polygon fill="black" stroke="black" points="863.5,-133.2 860,-123.2 856.5,-133.2 863.5,-133.2"/>
<text text-anchor="middle" x="917.5" y="-144.8" font-family="Times,serif" font-size="14.00">विशेषणम्</text>
</g>
<!-- Node9_1 -->
<g id="node7" class="node">
<title>Node9_1</title>
<ellipse fill="#00bfff" stroke="#00bfff" cx="1834" cy="-105" rx="96.68" ry="18"/>
<text text-anchor="middle" x="1834" y="-101.3" font-family="Times,serif" font-size="14.00">चित्राः(9.1)</text>
</g>
<!-- Node9_1&#45;&gt;Node12_1 -->
<g id="edge9" class="edge">
<title>Node9_1&#45;&gt;Node12_1</title>
<path fill="none" stroke="black" d="M1771.38,-122.38C1756.29,-125.77 1740.15,-128.93 1725,-131 1629.34,-144.07 1604.35,-134.81 1508,-141 1373.15,-149.67 1338.74,-146.74 1205,-166 1185.47,-168.81 1164.35,-172.83 1145.3,-176.83"/>
<polygon fill="black" stroke="black" points="1772.17,-125.79 1781.13,-120.13 1770.6,-118.97 1772.17,-125.79"/>
<text text-anchor="middle" x="1565.5" y="-144.8" font-family="Times,serif" font-size="14.00">विशेषणम्</text>
</g>
<!-- Node11_2 -->
<g id="node8" class="node">
<title>Node11_2</title>
<ellipse fill="#40e0d0" stroke="#40e0d0" cx="110" cy="-192" rx="93.68" ry="18"/>
<text text-anchor="middle" x="110" y="-188.3" font-family="Times,serif" font-size="14.00">वसुभिः(11.2)</text>
</g>
<!-- Node5_2 -->
<g id="node9" class="node">
<title>Node5_2</title>
<ellipse fill="#40e0d0" stroke="#40e0d0" cx="123" cy="-279" rx="106.68" ry="18"/>
<text text-anchor="middle" x="123" y="-275.3" font-family="Times,serif" font-size="14.00">प्रवालैः(5.2)</text>
</g>
<!-- Node11_2&#45;&gt;Node5_2 -->
<g id="edge12" class="edge">
<title>Node11_2&#45;&gt;Node5_2</title>
<path fill="none" stroke="black" d="M114.17,-220.27C116.21,-233.58 118.59,-249.19 120.37,-260.82"/>
<polygon fill="black" stroke="black" points="117.6,-219.56 112.63,-210.2 110.68,-220.62 117.6,-219.56"/>
<text text-anchor="middle" x="182.5" y="-231.8" font-family="Times,serif" font-size="14.00">समुच्चितः</text>
</g>
<!-- Node5_2&#45;&gt;Node1_1 -->
<g id="edge5" class="edge">
<title>Node5_2&#45;&gt;Node1_1</title>
<path fill="none" stroke="black" d="M194.28,-296.11C267.29,-312.62 379.15,-337.91 445.1,-352.81"/>
<polygon fill="black" stroke="black" points="194.77,-292.64 184.25,-293.85 193.23,-299.46 194.77,-292.64"/>
<text text-anchor="middle" x="370" y="-318.8" font-family="Times,serif" font-size="14.00">करणम्</text>
</g>
<!-- Node13_2 -->
<g id="node10" class="node">
<title>Node13_2</title>
<ellipse fill="#00bfff" stroke="#00bfff" cx="2067" cy="-105" rx="112.38" ry="18"/>
<text text-anchor="middle" x="2067" y="-101.3" font-family="Times,serif" font-size="14.00">अनुरूपाः(13.2)</text>
</g>
<!-- Node13_2&#45;&gt;Node14_1 -->
<g id="edge15" class="edge">
<title>Node13_2&#45;&gt;Node14_1</title>
<path fill="none" stroke="black" d="M1996.67,-122.28C1979.22,-125.74 1960.5,-128.96 1943,-131 1910.09,-134.84 1676.49,-130.7 1645,-141 1633.75,-144.68 1634.28,-152.43 1623,-156 1588.04,-167.07 999.38,-161.37 963,-166 945.29,-168.25 926.22,-172.39 909.35,-176.66"/>
<polygon fill="black" stroke="black" points="1997.67,-125.65 2006.77,-120.22 1996.28,-118.79 1997.67,-125.65"/>
<text text-anchor="middle" x="1702.5" y="-144.8" font-family="Times,serif" font-size="14.00">विशेषणम्</text>
</g>
<!-- Node2_1 -->
<g id="node12" class="node">
<title>Node2_1</title>
<ellipse fill="#ff99ff" stroke="#ff99ff" cx="704" cy="-192" rx="41.69" ry="18"/>
<text text-anchor="middle" x="704" y="-188.3" font-family="Times,serif" font-size="14.00">च(2.1)</text>
</g>
<!-- Node2_1&#45;&gt;Node4_1 -->
<g id="edge1" class="edge">
<title>Node2_1&#45;&gt;Node4_1</title>
<path fill="none" stroke="black" d="M695.45,-219.7C694.46,-228.06 695.4,-236.73 701,-243 714.87,-258.53 824.21,-268.05 908.93,-273.17"/>
<polygon fill="black" stroke="black" points="698.9,-220.34 697.45,-209.84 692.03,-218.95 698.9,-220.34"/>
<text text-anchor="middle" x="804.5" y="-231.8" font-family="Times,serif" font-size="14.00">समुच्चय_द्योतकः</text>
</g>
<!-- Node5_1 -->
<g id="node13" class="node">
<title>Node5_1</title>
<ellipse fill="#ffff00" stroke="#ffff00" cx="327" cy="-192" rx="81.49" ry="18"/>
<text text-anchor="middle" x="327" y="-188.3" font-family="Times,serif" font-size="14.00">रूप्य&#45;(5.1)</text>
</g>
<!-- Node5_1&#45;&gt;Node5_2 -->
<g id="edge4" class="edge">
<title>Node5_1&#45;&gt;Node5_2</title>
<path fill="none" stroke="black" d="M297.35,-215.65C283.79,-225.16 267.17,-235.69 251,-243 231.06,-252.01 208.29,-259.16 187.54,-264.58"/>
<polygon fill="black" stroke="black" points="299.71,-218.27 305.78,-209.59 295.62,-212.59 299.71,-218.27"/>
<text text-anchor="middle" x="342.5" y="-231.8" font-family="Times,serif" font-size="14.00">द्वन्द्वः</text>
</g>
<!-- Node6_1 -->
<g id="node14" class="node">
<title>Node6_1</title>
<ellipse fill="#ff99ff" stroke="#ff99ff" cx="499" cy="-279" rx="41.69" ry="18"/>
<text text-anchor="middle" x="499" y="-275.3" font-family="Times,serif" font-size="14.00">च(6.1)</text>
</g>
<!-- Node6_1&#45;&gt;Node1_1 -->
<g id="edge6" class="edge">
<title>Node6_1&#45;&gt;Node1_1</title>
<path fill="none" stroke="black" d="M499,-307.27C499,-320.58 499,-336.19 499,-347.82"/>
<polygon fill="black" stroke="black" points="502.5,-307.2 499,-297.2 495.5,-307.2 502.5,-307.2"/>
<text text-anchor="middle" x="556.5" y="-318.8" font-family="Times,serif" font-size="14.00">सम्बन्धः</text>
</g>
<!-- Node7_1 -->
<g id="node15" class="node">
<title>Node7_1</title>
<ellipse fill="#ff99ff" stroke="#ff99ff" cx="2257" cy="-105" rx="59.59" ry="18"/>
<text text-anchor="middle" x="2257" y="-101.3" font-family="Times,serif" font-size="14.00">तथा(7.1)</text>
</g>
<!-- Node7_1&#45;&gt;Node8_1 -->
<g id="edge7" class="edge">
<title>Node7_1&#45;&gt;Node8_1</title>
<path fill="none" stroke="black" d="M2215.52,-123.89C2207.51,-126.72 2199.09,-129.27 2191,-131 2005.08,-170.68 1953.91,-147.55 1764,-156 1618.3,-162.49 1580.76,-148.21 1436,-166 1416.63,-168.38 1395.71,-172.46 1377.09,-176.65"/>
<polygon fill="black" stroke="black" points="2216.88,-127.12 2225.03,-120.34 2214.44,-120.56 2216.88,-127.12"/>
<text text-anchor="middle" x="2195.5" y="-144.8" font-family="Times,serif" font-size="14.00">सम्बन्धः</text>
</g>
<!-- Node10_1 -->
<g id="node16" class="node">
<title>Node10_1</title>
<ellipse fill="#ff99ff" stroke="#ff99ff" cx="474" cy="-192" rx="47.39" ry="18"/>
<text text-anchor="middle" x="474" y="-188.3" font-family="Times,serif" font-size="14.00">च(10.1)</text>
</g>
<!-- Node10_1&#45;&gt;Node5_2 -->
<g id="edge10" class="edge">
<title>Node10_1&#45;&gt;Node5_2</title>
<path fill="none" stroke="black" d="M451.22,-216.14C440.05,-226.08 425.83,-236.8 411,-243 377.54,-256.99 290.6,-266.31 220.93,-271.79"/>
<polygon fill="black" stroke="black" points="453.83,-218.49 458.78,-209.12 449.07,-213.36 453.83,-218.49"/>
<text text-anchor="middle" x="539.5" y="-231.8" font-family="Times,serif" font-size="14.00">समुच्चय_द्योतकः</text>
</g>
<!-- Node11_1 -->
<g id="node17" class="node">
<title>Node11_1</title>
<ellipse fill="#ffff00" stroke="#ffff00" cx="110" cy="-105" rx="77.99" ry="18"/>
<text text-anchor="middle" x="110" y="-101.3" font-family="Times,serif" font-size="14.00">नाना&#45;(11.1)</text>
</g>
<!-- Node11_1&#45;&gt;Node11_2 -->
<g id="edge11" class="edge">
<title>Node11_1&#45;&gt;Node11_2</title>
<path fill="none" stroke="black" d="M110,-133.27C110,-146.58 110,-162.19 110,-173.82"/>
<polygon fill="black" stroke="black" points="113.5,-133.2 110,-123.2 106.5,-133.2 113.5,-133.2"/>
<text text-anchor="middle" x="181.5" y="-144.8" font-family="Times,serif" font-size="14.00">बहुव्रीहिः</text>
</g>
<!-- Node13_1 -->
<g id="node18" class="node">
<title>Node13_1</title>
<ellipse fill="#ffff00" stroke="#ffff00" cx="2067" cy="-18" rx="77.99" ry="18"/>
<text text-anchor="middle" x="2067" y="-14.3" font-family="Times,serif" font-size="14.00">जाति&#45;(13.1)</text>
</g>
<!-- Node13_1&#45;&gt;Node13_2 -->
<g id="edge14" class="edge">
<title>Node13_1&#45;&gt;Node13_2</title>
<path fill="none" stroke="black" d="M2067,-46.27C2067,-59.58 2067,-75.19 2067,-86.82"/>
<polygon fill="black" stroke="black" points="2070.5,-46.2 2067,-36.2 2063.5,-46.2 2070.5,-46.2"/>
<text text-anchor="middle" x="2177.5" y="-57.8" font-family="Times,serif" font-size="14.00">तृतीया_तत्पुरुषः</text>
</g>
<!-- Node15_1 -->
<g id="node19" class="node">
<title>Node15_1</title>
<ellipse fill="#ffff00" stroke="#ffff00" cx="860" cy="-18" rx="68.79" ry="18"/>
<text text-anchor="middle" x="860" y="-14.3" font-family="Times,serif" font-size="14.00">शुभ&#45;(15.1)</text>
</g>
<!-- Node15_1&#45;&gt;Node15_2 -->
<g id="edge17" class="edge">
<title>Node15_1&#45;&gt;Node15_2</title>
<path fill="none" stroke="black" d="M860,-46.27C860,-59.58 860,-75.19 860,-86.82"/>
<polygon fill="black" stroke="black" points="863.5,-46.2 860,-36.2 856.5,-46.2 863.5,-46.2"/>
<text text-anchor="middle" x="931.5" y="-57.8" font-family="Times,serif" font-size="14.00">बहुव्रीहिः</text>
</g>
</g>
</svg>
