<?xml version="1.0" encoding="UTF-8" standalone="no"?>
<!DOCTYPE svg PUBLIC "-//W3C//DTD SVG 1.1//EN"
 "http://www.w3.org/Graphics/SVG/1.1/DTD/svg11.dtd">
<!-- Generated by graphviz version 2.43.0 (0)
 -->
<!-- Title: G Pages: 1 -->
<svg width="1679pt" height="566pt"
 viewBox="0.00 0.00 1678.60 566.00" xmlns="http://www.w3.org/2000/svg" xmlns:xlink="http://www.w3.org/1999/xlink">
<g id="graph0" class="graph" transform="scale(1 1) rotate(0) translate(4 562)">
<title>G</title>
<polygon fill="#fffacd" stroke="transparent" points="-4,4 -4,-562 1674.6,-562 1674.6,4 -4,4"/>
<g id="clust1" class="cluster">
<title>cluster_1</title>
<polygon fill="#fffacd" stroke="black" points="1277.6,-253 1277.6,-392 1662.6,-392 1662.6,-253 1277.6,-253"/>
</g>
<g id="clust2" class="cluster">
<title>cluster_2</title>
<polygon fill="#fffacd" stroke="black" points="674.6,-340 674.6,-479 1108.6,-479 1108.6,-340 674.6,-340"/>
</g>
<!-- Node2_1 -->
<g id="node1" class="node">
<title>Node2_1</title>
<ellipse fill="#93db70" stroke="#93db70" cx="1557.6" cy="-279" rx="96.68" ry="18"/>
<text text-anchor="middle" x="1557.6" y="-275.3" font-family="Times,serif" font-size="14.00">विविधाः(2.1)</text>
</g>
<!-- Node4_1 -->
<g id="node2" class="node">
<title>Node4_1</title>
<ellipse fill="#93db70" stroke="#93db70" cx="1364.6" cy="-366" rx="78.79" ry="18"/>
<text text-anchor="middle" x="1364.6" y="-362.3" font-family="Times,serif" font-size="14.00">शालाः(4.1)</text>
</g>
<!-- Node2_1&#45;&gt;Node4_1 -->
<g id="edge2" class="edge">
<title>Node2_1&#45;&gt;Node4_1</title>
<path fill="none" stroke="black" d="M1528.45,-302.75C1515.31,-312.19 1499.25,-322.63 1483.6,-330 1463.14,-339.63 1439.44,-347.25 1418.61,-352.89"/>
<polygon fill="black" stroke="black" points="1530.65,-305.48 1536.64,-296.74 1526.51,-299.84 1530.65,-305.48"/>
<text text-anchor="middle" x="1566.1" y="-318.8" font-family="Times,serif" font-size="14.00">विशेषणम्</text>
</g>
<!-- Node13_1 -->
<g id="node4" class="node">
<title>Node13_1</title>
<ellipse fill="#93db70" stroke="#93db70" cx="960.6" cy="-453" rx="139.98" ry="18"/>
<text text-anchor="middle" x="960.6" y="-449.3" font-family="Times,serif" font-size="14.00">चन्द्रशालाः(13.1)</text>
</g>
<!-- Node4_1&#45;&gt;Node13_1 -->
<g id="edge4" class="edge">
<title>Node4_1&#45;&gt;Node13_1</title>
<path fill="none" stroke="black" d="M1354.63,-393.43C1349.93,-402.37 1343.37,-411.48 1334.6,-417 1296.38,-441.06 1190.04,-449.33 1100.48,-451.85"/>
<polygon fill="black" stroke="black" points="1357.82,-394.87 1358.89,-384.33 1351.48,-391.91 1357.82,-394.87"/>
<text text-anchor="middle" x="1413.1" y="-405.8" font-family="Times,serif" font-size="14.00">समुच्चितः</text>
</g>
<!-- Node5_5 -->
<g id="node3" class="node">
<title>Node5_5</title>
<ellipse fill="#93db70" stroke="#93db70" cx="1364.6" cy="-279" rx="78.79" ry="18"/>
<text text-anchor="middle" x="1364.6" y="-275.3" font-family="Times,serif" font-size="14.00">शालाः(5.5)</text>
</g>
<!-- Node5_5&#45;&gt;Node4_1 -->
<g id="edge9" class="edge">
<title>Node5_5&#45;&gt;Node4_1</title>
<path fill="none" stroke="black" d="M1364.6,-307.27C1364.6,-320.58 1364.6,-336.19 1364.6,-347.82"/>
<polygon fill="black" stroke="black" points="1368.1,-307.2 1364.6,-297.2 1361.1,-307.2 1368.1,-307.2"/>
<text text-anchor="middle" x="1422.1" y="-318.8" font-family="Times,serif" font-size="14.00">विशेषणम्</text>
</g>
<!-- Node11_1 -->
<g id="node14" class="node">
<title>Node11_1</title>
<ellipse fill="#ff1975" stroke="#ff1975" cx="321.6" cy="-540" rx="84.49" ry="18"/>
<text text-anchor="middle" x="321.6" y="-536.3" font-family="Times,serif" font-size="14.00">ददर्श(11.1)</text>
</g>
<!-- Node13_1&#45;&gt;Node11_1 -->
<g id="edge17" class="edge">
<title>Node13_1&#45;&gt;Node11_1</title>
<path fill="none" stroke="black" d="M866.2,-469.01C799.37,-479.43 707.59,-493.29 626.6,-504 547.87,-514.41 457.46,-524.56 395.64,-531.22"/>
<polygon fill="black" stroke="black" points="866.95,-472.44 876.29,-467.44 865.87,-465.52 866.95,-472.44"/>
<text text-anchor="middle" x="757.6" y="-492.8" font-family="Times,serif" font-size="14.00">कर्म</text>
</g>
<!-- Node6_1 -->
<g id="node5" class="node">
<title>Node6_1</title>
<ellipse fill="#93db70" stroke="#93db70" cx="1003.6" cy="-366" rx="96.68" ry="18"/>
<text text-anchor="middle" x="1003.6" y="-362.3" font-family="Times,serif" font-size="14.00">मनोहराः(6.1)</text>
</g>
<!-- Node6_1&#45;&gt;Node13_1 -->
<g id="edge10" class="edge">
<title>Node6_1&#45;&gt;Node13_1</title>
<path fill="none" stroke="black" d="M990.2,-393.48C983.38,-406.96 975.29,-422.96 969.29,-434.82"/>
<polygon fill="black" stroke="black" points="993.5,-394.7 994.89,-384.2 987.26,-391.54 993.5,-394.7"/>
<text text-anchor="middle" x="1042.1" y="-405.8" font-family="Times,serif" font-size="14.00">विशेषणम्</text>
</g>
<!-- Node10_1 -->
<g id="node6" class="node">
<title>Node10_1</title>
<ellipse fill="#93db70" stroke="#93db70" cx="785.6" cy="-366" rx="102.88" ry="18"/>
<text text-anchor="middle" x="785.6" y="-362.3" font-family="Times,serif" font-size="14.00">विशालाः(10.1)</text>
</g>
<!-- Node10_1&#45;&gt;Node13_1 -->
<g id="edge14" class="edge">
<title>Node10_1&#45;&gt;Node13_1</title>
<path fill="none" stroke="black" d="M815.2,-389.6C828.32,-398.92 844.24,-409.32 859.6,-417 874.53,-424.47 891.45,-431.02 907.11,-436.36"/>
<polygon fill="black" stroke="black" points="817.17,-386.71 807.02,-383.67 813.06,-392.38 817.17,-386.71"/>
<text text-anchor="middle" x="917.1" y="-405.8" font-family="Times,serif" font-size="14.00">विशेषणम्</text>
</g>
<!-- Node1_1 -->
<g id="node7" class="node">
<title>Node1_1</title>
<ellipse fill="#87ceeb" stroke="#87ceeb" cx="1133.6" cy="-279" rx="133.78" ry="18"/>
<text text-anchor="middle" x="1133.6" y="-275.3" font-family="Times,serif" font-size="14.00">निवेशनानाम्(1.1)</text>
</g>
<!-- Node1_1&#45;&gt;Node4_1 -->
<g id="edge1" class="edge">
<title>Node1_1&#45;&gt;Node4_1</title>
<path fill="none" stroke="black" d="M1149.05,-305.52C1155.79,-314.6 1164.49,-324.03 1174.6,-330 1185.52,-336.45 1249.86,-347.49 1300.68,-355.45"/>
<polygon fill="black" stroke="black" points="1151.76,-303.29 1143.19,-297.06 1146,-307.27 1151.76,-303.29"/>
<text text-anchor="middle" x="1267.6" y="-318.8" font-family="Times,serif" font-size="14.00">षष्ठीसम्बन्धः</text>
</g>
<!-- Node3_1 -->
<g id="node8" class="node">
<title>Node3_1</title>
<ellipse fill="#ff99ff" stroke="#ff99ff" cx="1159.6" cy="-366" rx="41.69" ry="18"/>
<text text-anchor="middle" x="1159.6" y="-362.3" font-family="Times,serif" font-size="14.00">च(3.1)</text>
</g>
<!-- Node3_1&#45;&gt;Node13_1 -->
<g id="edge3" class="edge">
<title>Node3_1&#45;&gt;Node13_1</title>
<path fill="none" stroke="black" d="M1138.23,-390.6C1128.51,-400.07 1116.34,-410.29 1103.6,-417 1085.5,-426.52 1064.75,-433.51 1044.77,-438.62"/>
<polygon fill="black" stroke="black" points="1140.94,-392.84 1145.47,-383.26 1135.96,-387.93 1140.94,-392.84"/>
<text text-anchor="middle" x="1227.1" y="-405.8" font-family="Times,serif" font-size="14.00">समुच्चय_द्योतकः</text>
</g>
<!-- Node5_1 -->
<g id="node9" class="node">
<title>Node5_1</title>
<ellipse fill="#ffff00" stroke="#ffff00" cx="1283.6" cy="-18" rx="90.98" ry="18"/>
<text text-anchor="middle" x="1283.6" y="-14.3" font-family="Times,serif" font-size="14.00">प्रधान&#45;(5.1)</text>
</g>
<!-- Node5_2 -->
<g id="node10" class="node">
<title>Node5_2</title>
<ellipse fill="#ffff00" stroke="#ffff00" cx="1283.6" cy="-105" rx="72.29" ry="18"/>
<text text-anchor="middle" x="1283.6" y="-101.3" font-family="Times,serif" font-size="14.00">शङ्ख&#45;(5.2)</text>
</g>
<!-- Node5_1&#45;&gt;Node5_2 -->
<g id="edge5" class="edge">
<title>Node5_1&#45;&gt;Node5_2</title>
<path fill="none" stroke="black" d="M1283.6,-46.27C1283.6,-59.58 1283.6,-75.19 1283.6,-86.82"/>
<polygon fill="black" stroke="black" points="1287.1,-46.2 1283.6,-36.2 1280.1,-46.2 1287.1,-46.2"/>
<text text-anchor="middle" x="1348.1" y="-57.8" font-family="Times,serif" font-size="14.00">कर्मधारयः</text>
</g>
<!-- Node5_4 -->
<g id="node11" class="node">
<title>Node5_4</title>
<ellipse fill="#ffff00" stroke="#ffff00" cx="1364.6" cy="-192" rx="63.09" ry="18"/>
<text text-anchor="middle" x="1364.6" y="-188.3" font-family="Times,serif" font-size="14.00">चाप&#45;(5.4)</text>
</g>
<!-- Node5_2&#45;&gt;Node5_4 -->
<g id="edge6" class="edge">
<title>Node5_2&#45;&gt;Node5_4</title>
<path fill="none" stroke="black" d="M1285.18,-133.38C1286.75,-141.32 1289.58,-149.56 1294.6,-156 1302.11,-165.65 1312.99,-172.84 1323.95,-178.1"/>
<polygon fill="black" stroke="black" points="1288.62,-132.73 1283.76,-123.31 1281.69,-133.7 1288.62,-132.73"/>
<text text-anchor="middle" x="1359.1" y="-144.8" font-family="Times,serif" font-size="14.00">द्वन्द्वः</text>
</g>
<!-- Node5_4&#45;&gt;Node5_5 -->
<g id="edge8" class="edge">
<title>Node5_4&#45;&gt;Node5_5</title>
<path fill="none" stroke="black" d="M1364.6,-220.27C1364.6,-233.58 1364.6,-249.19 1364.6,-260.82"/>
<polygon fill="black" stroke="black" points="1368.1,-220.2 1364.6,-210.2 1361.1,-220.2 1368.1,-220.2"/>
<text text-anchor="middle" x="1475.1" y="-231.8" font-family="Times,serif" font-size="14.00">तृतीया_तत्पुरुषः</text>
</g>
<!-- Node5_3 -->
<g id="node12" class="node">
<title>Node5_3</title>
<ellipse fill="#ffff00" stroke="#ffff00" cx="1445.6" cy="-105" rx="72.29" ry="18"/>
<text text-anchor="middle" x="1445.6" y="-101.3" font-family="Times,serif" font-size="14.00">आयुध&#45;(5.3)</text>
</g>
<!-- Node5_3&#45;&gt;Node5_4 -->
<g id="edge7" class="edge">
<title>Node5_3&#45;&gt;Node5_4</title>
<path fill="none" stroke="black" d="M1437.4,-132.75C1434.03,-140.84 1429.5,-149.34 1423.6,-156 1416.33,-164.2 1406.67,-171.03 1397.27,-176.41"/>
<polygon fill="black" stroke="black" points="1440.74,-133.83 1440.95,-123.23 1434.18,-131.38 1440.74,-133.83"/>
<text text-anchor="middle" x="1497.1" y="-144.8" font-family="Times,serif" font-size="14.00">द्वन्द्वः</text>
</g>
<!-- Node7_1 -->
<g id="node13" class="node">
<title>Node7_1</title>
<ellipse fill="#ff99ff" stroke="#ff99ff" cx="41.6" cy="-453" rx="41.69" ry="18"/>
<text text-anchor="middle" x="41.6" y="-449.3" font-family="Times,serif" font-size="14.00">च(7.1)</text>
</g>
<!-- Node7_1&#45;&gt;Node11_1 -->
<g id="edge11" class="edge">
<title>Node7_1&#45;&gt;Node11_1</title>
<path fill="none" stroke="black" d="M51.7,-480.21C56.42,-489.13 62.95,-498.28 71.6,-504 98.64,-521.9 177.97,-530.8 240.09,-535.13"/>
<polygon fill="black" stroke="black" points="54.86,-478.71 47.42,-471.16 48.53,-481.7 54.86,-478.71"/>
<text text-anchor="middle" x="129.1" y="-492.8" font-family="Times,serif" font-size="14.00">सम्बन्धः</text>
</g>
<!-- Node8_1 -->
<g id="node15" class="node">
<title>Node8_1</title>
<ellipse fill="#ff99ff" stroke="#ff99ff" cx="174.6" cy="-453" rx="59.59" ry="18"/>
<text text-anchor="middle" x="174.6" y="-449.3" font-family="Times,serif" font-size="14.00">अपि(8.1)</text>
</g>
<!-- Node8_1&#45;&gt;Node11_1 -->
<g id="edge12" class="edge">
<title>Node8_1&#45;&gt;Node11_1</title>
<path fill="none" stroke="black" d="M184.47,-480.19C188.86,-488.83 194.83,-497.8 202.6,-504 217.5,-515.88 236.32,-523.73 254.57,-528.92"/>
<polygon fill="black" stroke="black" points="187.65,-478.74 180.31,-471.1 181.28,-481.65 187.65,-478.74"/>
<text text-anchor="middle" x="260.1" y="-492.8" font-family="Times,serif" font-size="14.00">सम्बन्धः</text>
</g>
<!-- Node9_1 -->
<g id="node16" class="node">
<title>Node9_1</title>
<ellipse fill="#ff99ff" stroke="#ff99ff" cx="321.6" cy="-453" rx="69.59" ry="18"/>
<text text-anchor="middle" x="321.6" y="-449.3" font-family="Times,serif" font-size="14.00">पुनः(9.1)</text>
</g>
<!-- Node9_1&#45;&gt;Node11_1 -->
<g id="edge13" class="edge">
<title>Node9_1&#45;&gt;Node11_1</title>
<path fill="none" stroke="black" d="M321.6,-481.27C321.6,-494.58 321.6,-510.19 321.6,-521.82"/>
<polygon fill="black" stroke="black" points="325.1,-481.2 321.6,-471.2 318.1,-481.2 325.1,-481.2"/>
<text text-anchor="middle" x="379.1" y="-492.8" font-family="Times,serif" font-size="14.00">सम्बन्धः</text>
</g>
<!-- Node12_1 -->
<g id="node17" class="node">
<title>Node12_1</title>
<ellipse fill="#ffff00" stroke="#ffff00" cx="459.6" cy="-366" rx="87.18" ry="18"/>
<text text-anchor="middle" x="459.6" y="-362.3" font-family="Times,serif" font-size="14.00">वेश्म&#45;(12.1)</text>
</g>
<!-- Node12_2 -->
<g id="node18" class="node">
<title>Node12_2</title>
<ellipse fill="#c6e2eb" stroke="#c6e2eb" cx="511.6" cy="-453" rx="102.88" ry="18"/>
<text text-anchor="middle" x="511.6" y="-449.3" font-family="Times,serif" font-size="14.00">अद्रिषु(12.2)</text>
</g>
<!-- Node12_1&#45;&gt;Node12_2 -->
<g id="edge15" class="edge">
<title>Node12_1&#45;&gt;Node12_2</title>
<path fill="none" stroke="black" d="M457.64,-394.34C458.16,-402.06 459.79,-410.21 463.6,-417 467.73,-424.38 474.14,-430.62 480.94,-435.7"/>
<polygon fill="black" stroke="black" points="461.14,-394.2 457.53,-384.23 454.14,-394.27 461.14,-394.2"/>
<text text-anchor="middle" x="567.1" y="-405.8" font-family="Times,serif" font-size="14.00">षष्ठी_तत्पुरुषः</text>
</g>
<!-- Node12_2&#45;&gt;Node11_1 -->
<g id="edge16" class="edge">
<title>Node12_2&#45;&gt;Node11_1</title>
<path fill="none" stroke="black" d="M483.4,-477.08C470.88,-486.45 455.6,-496.76 440.6,-504 420.91,-513.5 398.13,-520.97 377.8,-526.53"/>
<polygon fill="black" stroke="black" points="485.79,-479.65 491.59,-470.78 481.53,-474.1 485.79,-479.65"/>
<text text-anchor="middle" x="544.1" y="-492.8" font-family="Times,serif" font-size="14.00">देशाधिकरणम्</text>
</g>
</g>
</svg>
