<?xml version="1.0" encoding="UTF-8" standalone="no"?>
<!DOCTYPE svg PUBLIC "-//W3C//DTD SVG 1.1//EN"
 "http://www.w3.org/Graphics/SVG/1.1/DTD/svg11.dtd">
<!-- Generated by graphviz version 2.43.0 (0)
 -->
<!-- Title: G Pages: 1 -->
<svg width="2302pt" height="392pt"
 viewBox="0.00 0.00 2301.64 392.00" xmlns="http://www.w3.org/2000/svg" xmlns:xlink="http://www.w3.org/1999/xlink">
<g id="graph0" class="graph" transform="scale(1 1) rotate(0) translate(4 388)">
<title>G</title>
<polygon fill="#fffacd" stroke="transparent" points="-4,4 -4,-388 2297.64,-388 2297.64,4 -4,4"/>
<g id="clust1" class="cluster">
<title>cluster_1</title>
<polygon fill="#fffacd" stroke="black" points="597.64,-166 597.64,-305 1232.64,-305 1232.64,-166 597.64,-166"/>
</g>
<g id="clust2" class="cluster">
<title>cluster_2</title>
<polygon fill="#fffacd" stroke="black" points="1720.64,-79 1720.64,-218 2285.64,-218 2285.64,-79 1720.64,-79"/>
</g>
<!-- Node4_1 -->
<g id="node1" class="node">
<title>Node4_1</title>
<ellipse fill="#00bfff" stroke="#00bfff" cx="1117.64" cy="-192" rx="106.68" ry="18"/>
<text text-anchor="middle" x="1117.64" y="-188.3" font-family="Times,serif" font-size="14.00">सुहस्ताः(4.1)</text>
</g>
<!-- Node3_1 -->
<g id="node2" class="node">
<title>Node3_1</title>
<ellipse fill="#00bfff" stroke="#00bfff" cx="778.64" cy="-279" rx="69.59" ry="18"/>
<text text-anchor="middle" x="778.64" y="-275.3" font-family="Times,serif" font-size="14.00">गजाः(3.1)</text>
</g>
<!-- Node4_1&#45;&gt;Node3_1 -->
<g id="edge4" class="edge">
<title>Node4_1&#45;&gt;Node3_1</title>
<path fill="none" stroke="black" d="M1073.52,-213.04C1049.44,-223.28 1018.87,-235.21 990.64,-243 941.37,-256.6 884.12,-265.67 841.54,-271.16"/>
<polygon fill="black" stroke="black" points="1074.94,-216.23 1082.74,-209.06 1072.17,-209.81 1074.94,-216.23"/>
<text text-anchor="middle" x="1090.14" y="-231.8" font-family="Times,serif" font-size="14.00">विशेषणम्</text>
</g>
<!-- Node8_1 -->
<g id="node10" class="node">
<title>Node8_1</title>
<ellipse fill="#ff1975" stroke="#ff1975" cx="478.64" cy="-366" rx="69.59" ry="18"/>
<text text-anchor="middle" x="478.64" y="-362.3" font-family="Times,serif" font-size="14.00">बभूव(8.1)</text>
</g>
<!-- Node3_1&#45;&gt;Node8_1 -->
<g id="edge3" class="edge">
<title>Node3_1&#45;&gt;Node8_1</title>
<path fill="none" stroke="black" d="M736.58,-299.06C712.65,-309.34 681.89,-321.6 653.64,-330 615.33,-341.39 571.19,-350.19 536.83,-356.11"/>
<polygon fill="black" stroke="black" points="738.28,-302.14 746.06,-294.94 735.49,-295.72 738.28,-302.14"/>
<text text-anchor="middle" x="730.64" y="-318.8" font-family="Times,serif" font-size="14.00">कर्ता</text>
</g>
<!-- Node5_1 -->
<g id="node3" class="node">
<title>Node5_1</title>
<ellipse fill="#00bfff" stroke="#00bfff" cx="896.64" cy="-192" rx="96.68" ry="18"/>
<text text-anchor="middle" x="896.64" y="-188.3" font-family="Times,serif" font-size="14.00">सकेसराः(5.1)</text>
</g>
<!-- Node5_1&#45;&gt;Node3_1 -->
<g id="edge5" class="edge">
<title>Node5_1&#45;&gt;Node3_1</title>
<path fill="none" stroke="black" d="M880.6,-218.4C874.24,-227.02 866.36,-236.19 857.64,-243 846.4,-251.77 832.63,-258.85 819.74,-264.29"/>
<polygon fill="black" stroke="black" points="883.57,-220.26 886.43,-210.06 877.83,-216.25 883.57,-220.26"/>
<text text-anchor="middle" x="929.14" y="-231.8" font-family="Times,serif" font-size="14.00">विशेषणम्</text>
</g>
<!-- Node7_3 -->
<g id="node4" class="node">
<title>Node7_3</title>
<ellipse fill="#00bfff" stroke="#00bfff" cx="693.64" cy="-192" rx="87.99" ry="18"/>
<text text-anchor="middle" x="693.64" y="-188.3" font-family="Times,serif" font-size="14.00">हस्ताः(7.3)</text>
</g>
<!-- Node7_3&#45;&gt;Node3_1 -->
<g id="edge9" class="edge">
<title>Node7_3&#45;&gt;Node3_1</title>
<path fill="none" stroke="black" d="M716.95,-217.02C725.04,-225.3 734.2,-234.59 742.64,-243 748.69,-249.03 755.38,-255.57 761.34,-261.35"/>
<polygon fill="black" stroke="black" points="719.36,-214.48 709.87,-209.77 714.35,-219.37 719.36,-214.48"/>
<text text-anchor="middle" x="800.14" y="-231.8" font-family="Times,serif" font-size="14.00">विशेषणम्</text>
</g>
<!-- Node9_1 -->
<g id="node5" class="node">
<title>Node9_1</title>
<ellipse fill="#00bfff" stroke="#00bfff" cx="2207.64" cy="-105" rx="69.59" ry="18"/>
<text text-anchor="middle" x="2207.64" y="-101.3" font-family="Times,serif" font-size="14.00">देवी(9.1)</text>
</g>
<!-- Node13_1 -->
<g id="node6" class="node">
<title>Node13_1</title>
<ellipse fill="#00bfff" stroke="#00bfff" cx="1896.64" cy="-192" rx="112.38" ry="18"/>
<text text-anchor="middle" x="1896.64" y="-188.3" font-family="Times,serif" font-size="14.00">लक्ष्मीः(13.1)</text>
</g>
<!-- Node9_1&#45;&gt;Node13_1 -->
<g id="edge10" class="edge">
<title>Node9_1&#45;&gt;Node13_1</title>
<path fill="none" stroke="black" d="M2172.27,-126.72C2153.37,-136.96 2129.36,-148.66 2106.64,-156 2068.92,-168.18 2025.94,-176.3 1988.74,-181.62"/>
<polygon fill="black" stroke="black" points="2174.06,-129.73 2181.12,-121.83 2170.67,-123.6 2174.06,-129.73"/>
<text text-anchor="middle" x="2201.14" y="-144.8" font-family="Times,serif" font-size="14.00">विशेषणम्</text>
</g>
<!-- Node11_1 -->
<g id="node16" class="node">
<title>Node11_1</title>
<ellipse fill="#00bfff" stroke="#00bfff" cx="1518.64" cy="-279" rx="75.29" ry="18"/>
<text text-anchor="middle" x="1518.64" y="-275.3" font-family="Times,serif" font-size="14.00">कृता(11.1)</text>
</g>
<!-- Node13_1&#45;&gt;Node11_1 -->
<g id="edge13" class="edge">
<title>Node13_1&#45;&gt;Node11_1</title>
<path fill="none" stroke="black" d="M1828.36,-209.89C1787.59,-219.84 1734.73,-232.49 1687.64,-243 1650.06,-251.38 1607.62,-260.17 1574.68,-266.84"/>
<polygon fill="black" stroke="black" points="1829.31,-213.26 1838.19,-207.49 1827.65,-206.46 1829.31,-213.26"/>
<text text-anchor="middle" x="1779.64" y="-231.8" font-family="Times,serif" font-size="14.00">कर्म</text>
</g>
<!-- Node12_1 -->
<g id="node7" class="node">
<title>Node12_1</title>
<ellipse fill="#00bfff" stroke="#00bfff" cx="2017.64" cy="-105" rx="102.88" ry="18"/>
<text text-anchor="middle" x="2017.64" y="-101.3" font-family="Times,serif" font-size="14.00">सुहस्ता(12.1)</text>
</g>
<!-- Node12_1&#45;&gt;Node13_1 -->
<g id="edge12" class="edge">
<title>Node12_1&#45;&gt;Node13_1</title>
<path fill="none" stroke="black" d="M1998.4,-130.65C1990.73,-139.4 1981.4,-148.85 1971.64,-156 1961.43,-163.47 1949.38,-169.94 1937.96,-175.21"/>
<polygon fill="black" stroke="black" points="2001.17,-132.78 2004.94,-122.88 1995.82,-128.27 2001.17,-132.78"/>
<text text-anchor="middle" x="2045.14" y="-144.8" font-family="Times,serif" font-size="14.00">विशेषणम्</text>
</g>
<!-- Node16_2 -->
<g id="node8" class="node">
<title>Node16_2</title>
<ellipse fill="#00bfff" stroke="#00bfff" cx="1812.64" cy="-105" rx="84.49" ry="18"/>
<text text-anchor="middle" x="1812.64" y="-101.3" font-family="Times,serif" font-size="14.00">हस्ता(16.2)</text>
</g>
<!-- Node16_2&#45;&gt;Node13_1 -->
<g id="edge17" class="edge">
<title>Node16_2&#45;&gt;Node13_1</title>
<path fill="none" stroke="black" d="M1833.5,-130.99C1840.62,-139.17 1848.78,-148.16 1856.64,-156 1862.78,-162.12 1869.8,-168.47 1876.23,-174.05"/>
<polygon fill="black" stroke="black" points="1835.95,-128.47 1826.78,-123.16 1830.64,-133.03 1835.95,-128.47"/>
<text text-anchor="middle" x="1914.14" y="-144.8" font-family="Times,serif" font-size="14.00">विशेषणम्</text>
</g>
<!-- Node1_1 -->
<g id="node9" class="node">
<title>Node1_1</title>
<ellipse fill="#00bfff" stroke="#00bfff" cx="143.64" cy="-279" rx="143.77" ry="18"/>
<text text-anchor="middle" x="143.64" y="-275.3" font-family="Times,serif" font-size="14.00">नियुज्यमानाः(1.1)</text>
</g>
<!-- Node1_1&#45;&gt;Node8_1 -->
<g id="edge1" class="edge">
<title>Node1_1&#45;&gt;Node8_1</title>
<path fill="none" stroke="black" d="M146.41,-306.86C148.66,-315.49 152.64,-324.28 159.64,-330 196.58,-360.19 326.84,-365.65 409.05,-365.96"/>
<polygon fill="black" stroke="black" points="149.84,-306.15 144.49,-297 142.97,-307.49 149.84,-306.15"/>
<text text-anchor="middle" x="281.14" y="-318.8" font-family="Times,serif" font-size="14.00">कर्तृसमानाधिकरणम्</text>
</g>
<!-- Node2_1 -->
<g id="node11" class="node">
<title>Node2_1</title>
<ellipse fill="#ff99ff" stroke="#ff99ff" cx="409.64" cy="-279" rx="41.69" ry="18"/>
<text text-anchor="middle" x="409.64" y="-275.3" font-family="Times,serif" font-size="14.00">च(2.1)</text>
</g>
<!-- Node2_1&#45;&gt;Node8_1 -->
<g id="edge2" class="edge">
<title>Node2_1&#45;&gt;Node8_1</title>
<path fill="none" stroke="black" d="M405.14,-306.98C405.1,-314.9 406.42,-323.24 410.64,-330 416.54,-339.46 425.89,-346.48 435.79,-351.65"/>
<polygon fill="black" stroke="black" points="408.63,-307.21 405.84,-296.98 401.65,-306.71 408.63,-307.21"/>
<text text-anchor="middle" x="468.14" y="-318.8" font-family="Times,serif" font-size="14.00">सम्बन्धः</text>
</g>
<!-- Node6_1 -->
<g id="node12" class="node">
<title>Node6_1</title>
<ellipse fill="#ff99ff" stroke="#ff99ff" cx="547.64" cy="-279" rx="41.69" ry="18"/>
<text text-anchor="middle" x="547.64" y="-275.3" font-family="Times,serif" font-size="14.00">च(6.1)</text>
</g>
<!-- Node6_1&#45;&gt;Node8_1 -->
<g id="edge6" class="edge">
<title>Node6_1&#45;&gt;Node8_1</title>
<path fill="none" stroke="black" d="M539.01,-306.39C535.62,-314.46 531.18,-323.04 525.64,-330 519.93,-337.16 512.43,-343.61 505.1,-348.97"/>
<polygon fill="black" stroke="black" points="542.33,-307.53 542.64,-296.94 535.79,-305.02 542.33,-307.53"/>
<text text-anchor="middle" x="592.14" y="-318.8" font-family="Times,serif" font-size="14.00">सम्बन्धः</text>
</g>
<!-- Node7_1 -->
<g id="node13" class="node">
<title>Node7_1</title>
<ellipse fill="#ffff00" stroke="#ffff00" cx="693.64" cy="-18" rx="81.49" ry="18"/>
<text text-anchor="middle" x="693.64" y="-14.3" font-family="Times,serif" font-size="14.00">उत्पल&#45;(7.1)</text>
</g>
<!-- Node7_2 -->
<g id="node14" class="node">
<title>Node7_2</title>
<ellipse fill="#ffff00" stroke="#ffff00" cx="693.64" cy="-105" rx="72.29" ry="18"/>
<text text-anchor="middle" x="693.64" y="-101.3" font-family="Times,serif" font-size="14.00">पत्र&#45;(7.2)</text>
</g>
<!-- Node7_1&#45;&gt;Node7_2 -->
<g id="edge7" class="edge">
<title>Node7_1&#45;&gt;Node7_2</title>
<path fill="none" stroke="black" d="M693.64,-46.27C693.64,-59.58 693.64,-75.19 693.64,-86.82"/>
<polygon fill="black" stroke="black" points="697.14,-46.2 693.64,-36.2 690.14,-46.2 697.14,-46.2"/>
<text text-anchor="middle" x="797.14" y="-57.8" font-family="Times,serif" font-size="14.00">षष्ठी_तत्पुरुषः</text>
</g>
<!-- Node7_2&#45;&gt;Node7_3 -->
<g id="edge8" class="edge">
<title>Node7_2&#45;&gt;Node7_3</title>
<path fill="none" stroke="black" d="M693.64,-133.27C693.64,-146.58 693.64,-162.19 693.64,-173.82"/>
<polygon fill="black" stroke="black" points="697.14,-133.2 693.64,-123.2 690.14,-133.2 697.14,-133.2"/>
<text text-anchor="middle" x="765.14" y="-144.8" font-family="Times,serif" font-size="14.00">बहुव्रीहिः</text>
</g>
<!-- Node10_1 -->
<g id="node15" class="node">
<title>Node10_1</title>
<ellipse fill="#ff99ff" stroke="#ff99ff" cx="1289.64" cy="-192" rx="47.39" ry="18"/>
<text text-anchor="middle" x="1289.64" y="-188.3" font-family="Times,serif" font-size="14.00">च(10.1)</text>
</g>
<!-- Node10_1&#45;&gt;Node11_1 -->
<g id="edge11" class="edge">
<title>Node10_1&#45;&gt;Node11_1</title>
<path fill="none" stroke="black" d="M1296.08,-220.17C1299.39,-228.67 1304.32,-237.3 1311.64,-243 1332.45,-259.21 1395.9,-268.28 1447.13,-273.1"/>
<polygon fill="black" stroke="black" points="1299.33,-218.85 1292.9,-210.43 1292.68,-221.03 1299.33,-218.85"/>
<text text-anchor="middle" x="1369.14" y="-231.8" font-family="Times,serif" font-size="14.00">सम्बन्धः</text>
</g>
<!-- Node14_1 -->
<g id="node17" class="node">
<title>Node14_1</title>
<ellipse fill="#ff99ff" stroke="#ff99ff" cx="1423.64" cy="-192" rx="65.79" ry="18"/>
<text text-anchor="middle" x="1423.64" y="-188.3" font-family="Times,serif" font-size="14.00">तथा(14.1)</text>
</g>
<!-- Node14_1&#45;&gt;Node11_1 -->
<g id="edge14" class="edge">
<title>Node14_1&#45;&gt;Node11_1</title>
<path fill="none" stroke="black" d="M1427.86,-220.01C1430.22,-228.15 1433.9,-236.61 1439.64,-243 1448.26,-252.6 1460,-259.7 1471.8,-264.89"/>
<polygon fill="black" stroke="black" points="1431.21,-218.99 1425.52,-210.05 1424.4,-220.59 1431.21,-218.99"/>
<text text-anchor="middle" x="1497.14" y="-231.8" font-family="Times,serif" font-size="14.00">सम्बन्धः</text>
</g>
<!-- Node15_1 -->
<g id="node18" class="node">
<title>Node15_1</title>
<ellipse fill="#c6e2eb" stroke="#c6e2eb" cx="1609.64" cy="-192" rx="102.88" ry="18"/>
<text text-anchor="middle" x="1609.64" y="-188.3" font-family="Times,serif" font-size="14.00">पद्मिनि(15.1)</text>
</g>
<!-- Node15_1&#45;&gt;Node11_1 -->
<g id="edge15" class="edge">
<title>Node15_1&#45;&gt;Node11_1</title>
<path fill="none" stroke="black" d="M1584.12,-216.83C1568.98,-230.97 1550.15,-248.56 1536.58,-261.24"/>
<polygon fill="black" stroke="black" points="1586.74,-219.18 1591.66,-209.79 1581.96,-214.06 1586.74,-219.18"/>
<text text-anchor="middle" x="1626.14" y="-231.8" font-family="Times,serif" font-size="14.00">अधिकरणम्</text>
</g>
<!-- Node16_1 -->
<g id="node19" class="node">
<title>Node16_1</title>
<ellipse fill="#ffff00" stroke="#ffff00" cx="1812.64" cy="-18" rx="77.99" ry="18"/>
<text text-anchor="middle" x="1812.64" y="-14.3" font-family="Times,serif" font-size="14.00">पद्म&#45;(16.1)</text>
</g>
<!-- Node16_1&#45;&gt;Node16_2 -->
<g id="edge16" class="edge">
<title>Node16_1&#45;&gt;Node16_2</title>
<path fill="none" stroke="black" d="M1812.64,-46.27C1812.64,-59.58 1812.64,-75.19 1812.64,-86.82"/>
<polygon fill="black" stroke="black" points="1816.14,-46.2 1812.64,-36.2 1809.14,-46.2 1816.14,-46.2"/>
<text text-anchor="middle" x="1884.14" y="-57.8" font-family="Times,serif" font-size="14.00">बहुव्रीहिः</text>
</g>
</g>
</svg>
