<svg xmlns="http://www.w3.org/2000/svg" xmlns:xlink="http://www.w3.org/1999/xlink" width="4360" height="479pt" viewBox="0 0 3269.68 479"><g id="graph0" class="graph" transform="scale(1 1) rotate(0) translate(4 475)"><title>G</title><polygon fill="#fffacd" stroke="transparent" points="-4 4 -4 -475 3265.68 -475 3265.68 4 -4 4"/><g id="clust1" class="cluster"><title>cluster_1</title><polygon fill="#fffacd" stroke="#000" points="2382.14 -166 2382.14 -305 3139.14 -305 3139.14 -166 2382.14 -166"/></g><g id="clust2" class="cluster"><title>cluster_2</title><polygon fill="#fffacd" stroke="#000" points="1774.14 -79 1774.14 -218 2058.14 -218 2058.14 -79 1774.14 -79"/></g><g id="clust3" class="cluster"><title>cluster_3</title><polygon fill="#fffacd" stroke="#000" points="749.14 -166 749.14 -305 971.14 -305 971.14 -166 749.14 -166"/></g><g id="clust4" class="cluster"><title>cluster_4</title><polygon fill="#fffacd" stroke="#000" points="1403.14 -166 1403.14 -305 1625.14 -305 1625.14 -166 1403.14 -166"/></g><g id="clust5" class="cluster"><title>cluster_5</title><polygon fill="#fffacd" stroke="#000" points="239.14 -253 239.14 -392 684.14 -392 684.14 -253 239.14 -253"/></g><g id="node1" class="node"><title>Node3_1</title><ellipse cx="2738.14" cy="-192" fill="#93db70" stroke="#93db70" rx="124.58" ry="18"/><text x="2738.14" y="-188.3" font-family="Times,serif" font-size="14" text-anchor="middle">दीप्यमानम्(3.1)</text></g><g id="node2" class="node"><title>Node14_1</title><ellipse cx="2508.14" cy="-279" fill="#93db70" stroke="#93db70" rx="102.88" ry="18"/><text x="2508.14" y="-275.3" font-family="Times,serif" font-size="14" text-anchor="middle">विमानम्(14.1)</text></g><g id="edge4" class="edge"><title>Node3_1-&gt;Node14_1</title><path fill="none" stroke="#000" d="M2693.83,-213.45C2672.4,-222.99 2646.16,-234.16 2622.14,-243 2602.03,-250.4 2579.54,-257.53 2559.89,-263.41"/><polygon fill="#000" stroke="#000" points="2695.31 -216.62 2703.01 -209.33 2692.45 -210.23 2695.31 -216.62"/><text x="2714.64" y="-231.8" font-family="Times,serif" font-size="14" text-anchor="middle">विशेषणम्</text></g><g id="node12" class="node"><title>Node24_1</title><ellipse cx="573.14" cy="-366" fill="#93db70" stroke="#93db70" rx="102.88" ry="18"/><text x="573.14" y="-362.3" font-family="Times,serif" font-size="14" text-anchor="middle">विमानम्(24.1)</text></g><g id="edge16" class="edge"><title>Node14_1-&gt;Node24_1</title><path fill="none" stroke="#000" d="M2399.68,-284.76C2056.78,-299.83 999.48,-346.27 671.32,-360.69"/><polygon fill="#000" stroke="#000" points="2400.02 -288.25 2409.86 -284.32 2399.71 -281.26 2400.02 -288.25"/><text x="1706.14" y="-318.8" font-family="Times,serif" font-size="14" text-anchor="middle">उपमानम्</text></g><g id="node3" class="node"><title>Node9_1</title><ellipse cx="3006.14" cy="-192" fill="#93db70" stroke="#93db70" rx="124.58" ry="18"/><text x="3006.14" y="-188.3" font-family="Times,serif" font-size="14" text-anchor="middle">वाह्यमानम्(9.1)</text></g><g id="edge11" class="edge"><title>Node9_1-&gt;Node14_1</title><path fill="none" stroke="#000" d="M2934.9,-210.11C2889.62,-220.58 2829.66,-233.7 2776.14,-243 2715.11,-253.6 2645.77,-262.57 2592.91,-268.78"/><polygon fill="#000" stroke="#000" points="2935.97 -213.45 2944.91 -207.78 2934.38 -206.64 2935.97 -213.45"/><text x="2909.64" y="-231.8" font-family="Times,serif" font-size="14" text-anchor="middle">विशेषणम्</text></g><g id="node4" class="node"><title>Node13_1</title><ellipse cx="2493.14" cy="-192" fill="#93db70" stroke="#93db70" rx="102.88" ry="18"/><text x="2493.14" y="-188.3" font-family="Times,serif" font-size="14" text-anchor="middle">सुकृतम्(13.1)</text></g><g id="edge15" class="edge"><title>Node13_1-&gt;Node14_1</title><path fill="none" stroke="#000" d="M2499.51,-219.8C2500.09,-222.56 2500.65,-225.33 2501.14,-228 2503.14,-238.86 2504.86,-251.14 2506.1,-260.82"/><polygon fill="#000" stroke="#000" points="2502.93 -219.03 2497.34 -210.03 2496.09 -220.55 2502.93 -219.03"/><text x="2560.64" y="-231.8" font-family="Times,serif" font-size="14" text-anchor="middle">विशेषणम्</text></g><g id="node5" class="node"><title>Node6_1</title><ellipse cx="1916.14" cy="-105" fill="#93db70" stroke="#93db70" rx="133.78" ry="18"/><text x="1916.14" y="-101.3" font-family="Times,serif" font-size="14" text-anchor="middle">अर्च्यमानम्(6.1)</text></g><g id="node6" class="node"><title>Node5_1</title><ellipse cx="1933.14" cy="-192" fill="#93db70" stroke="#93db70" rx="115.88" ry="18"/><text x="1933.14" y="-188.3" font-family="Times,serif" font-size="14" text-anchor="middle">अम्भोधरम्(5.1)</text></g><g id="edge7" class="edge"><title>Node6_1-&gt;Node5_1</title><path fill="none" stroke="#000" d="M1921.59,-133.27C1924.26,-146.58 1927.38,-162.19 1929.7,-173.82"/><polygon fill="#000" stroke="#000" points="1924.97 -132.32 1919.58 -123.2 1918.11 -133.69 1924.97 -132.32"/><text x="1982.64" y="-144.8" font-family="Times,serif" font-size="14" text-anchor="middle">विशेषणम्</text></g><g id="edge6" class="edge"><title>Node5_1-&gt;Node14_1</title><path fill="none" stroke="#000" d="M1982.34,-212.59C2011.47,-223.35 2049.37,-235.91 2084.14,-243 2192.88,-265.16 2320.03,-273.37 2406.53,-276.36"/><polygon fill="#000" stroke="#000" points="1983.4 -209.25 1972.81 -209.02 1980.95 -215.8 1983.4 -209.25"/><text x="2134.14" y="-231.8" font-family="Times,serif" font-size="14" text-anchor="middle">उपमानम्</text></g><g id="node7" class="node"><title>Node17_3</title><ellipse cx="860.14" cy="-192" fill="#93db70" stroke="#93db70" rx="102.88" ry="18"/><text x="860.14" y="-188.3" font-family="Times,serif" font-size="14" text-anchor="middle">चित्रम्(17.3)</text></g><g id="node8" class="node"><title>Node16_2</title><ellipse cx="860.14" cy="-279" fill="#93db70" stroke="#93db70" rx="93.68" ry="18"/><text x="860.14" y="-275.3" font-family="Times,serif" font-size="14" text-anchor="middle">अग्रम्(16.2)</text></g><g id="edge22" class="edge"><title>Node17_3-&gt;Node16_2</title><path fill="none" stroke="#000" d="M851.35,-219.98C849.86,-227.41 849.09,-235.49 850.14,-243 850.96,-248.88 852.53,-255.16 854.18,-260.76"/><polygon fill="#000" stroke="#000" points="854.81 -220.59 853.82 -210.04 848.01 -218.9 854.81 -220.59"/><text x="907.64" y="-231.8" font-family="Times,serif" font-size="14" text-anchor="middle">विशेषणम्</text></g><g id="edge19" class="edge"><title>Node16_2-&gt;Node24_1</title><path fill="none" stroke="#000" d="M801.89,-297.39C769.56,-307.02 728.63,-319.2 692.14,-330 669.63,-336.66 644.72,-343.99 623.52,-350.22"/><polygon fill="#000" stroke="#000" points="803.05 -300.69 811.63 -294.48 801.05 -293.99 803.05 -300.69"/><text x="788.14" y="-318.8" font-family="Times,serif" font-size="14" text-anchor="middle">उपमानम्</text></g><g id="node9" class="node"><title>Node21_3</title><ellipse cx="1514.14" cy="-192" fill="#93db70" stroke="#93db70" rx="102.88" ry="18"/><text x="1514.14" y="-188.3" font-family="Times,serif" font-size="14" text-anchor="middle">चित्रम्(21.3)</text></g><g id="node10" class="node"><title>Node19_1</title><ellipse cx="1502.14" cy="-279" fill="#93db70" stroke="#93db70" rx="65.79" ry="18"/><text x="1502.14" y="-275.3" font-family="Times,serif" font-size="14" text-anchor="middle">नभः(19.1)</text></g><g id="edge28" class="edge"><title>Node21_3-&gt;Node19_1</title><path fill="none" stroke="#000" d="M1510.29,-220.27C1508.41,-233.58 1506.21,-249.19 1504.56,-260.82"/><polygon fill="#000" stroke="#000" points="1513.78 -220.59 1511.71 -210.2 1506.85 -219.61 1513.78 -220.59"/><text x="1565.64" y="-231.8" font-family="Times,serif" font-size="14" text-anchor="middle">विशेषणम्</text></g><g id="edge24" class="edge"><title>Node19_1-&gt;Node24_1</title><path fill="none" stroke="#000" d="M1430.63,-286.54C1263.07,-301.87 845.35,-340.09 661.91,-356.88"/><polygon fill="#000" stroke="#000" points="1431.19 -290.01 1440.83 -285.61 1430.55 -283.04 1431.19 -290.01"/><text x="1143.14" y="-318.8" font-family="Times,serif" font-size="14" text-anchor="middle">उपमानम्</text></g><g id="node11" class="node"><title>Node23_4</title><ellipse cx="350.14" cy="-279" fill="#93db70" stroke="#93db70" rx="102.88" ry="18"/><text x="350.14" y="-275.3" font-family="Times,serif" font-size="14" text-anchor="middle">चित्रम्(23.4)</text></g><g id="edge32" class="edge"><title>Node23_4-&gt;Node24_1</title><path fill="none" stroke="#000" d="M389.54,-300.81C408.71,-310.44 432.28,-321.6 454.14,-330 474.64,-337.88 497.7,-345.04 518.02,-350.8"/><polygon fill="#000" stroke="#000" points="391.01 -297.63 380.51 -296.21 387.83 -303.87 391.01 -297.63"/><text x="511.64" y="-318.8" font-family="Times,serif" font-size="14" text-anchor="middle">विशेषणम्</text></g><g id="node32" class="node"><title>Node22_1</title><ellipse cx="573.14" cy="-453" fill="#ff1975" stroke="#ff1975" rx="84.49" ry="18"/><text x="573.14" y="-449.3" font-family="Times,serif" font-size="14" text-anchor="middle">ददर्श(22.1)</text></g><g id="edge33" class="edge"><title>Node24_1-&gt;Node22_1</title><path fill="none" stroke="#000" d="M573.14,-394.27C573.14,-407.58 573.14,-423.19 573.14,-434.82"/><polygon fill="#000" stroke="#000" points="576.64 -394.2 573.14 -384.2 569.64 -394.2 576.64 -394.2"/><text x="602.14" y="-405.8" font-family="Times,serif" font-size="14" text-anchor="middle">कर्म</text></g><g id="node13" class="node"><title>Node25_3</title><ellipse cx="573.14" cy="-279" fill="#93db70" stroke="#93db70" rx="102.88" ry="18"/><text x="573.14" y="-275.3" font-family="Times,serif" font-size="14" text-anchor="middle">चित्रम्(25.3)</text></g><g id="edge36" class="edge"><title>Node25_3-&gt;Node24_1</title><path fill="none" stroke="#000" d="M573.14,-307.27C573.14,-320.58 573.14,-336.19 573.14,-347.82"/><polygon fill="#000" stroke="#000" points="576.64 -307.2 573.14 -297.2 569.64 -307.2 576.64 -307.2"/><text x="630.64" y="-318.8" font-family="Times,serif" font-size="14" text-anchor="middle">विशेषणम्</text></g><g id="node14" class="node"><title>Node1_1</title><ellipse cx="2738.14" cy="-18" fill="#ff0" stroke="#ff0" rx="72.29" ry="18"/><text x="2738.14" y="-14.3" font-family="Times,serif" font-size="14" text-anchor="middle">नारी-(1.1)</text></g><g id="node15" class="node"><title>Node1_2</title><ellipse cx="2738.14" cy="-105" fill="#40e0d0" stroke="#40e0d0" rx="106.68" ry="18"/><text x="2738.14" y="-101.3" font-family="Times,serif" font-size="14" text-anchor="middle">प्रवेकैः(1.2)</text></g><g id="edge1" class="edge"><title>Node1_1-&gt;Node1_2</title><path fill="none" stroke="#000" d="M2738.14,-46.27C2738.14,-59.58 2738.14,-75.19 2738.14,-86.82"/><polygon fill="#000" stroke="#000" points="2741.64 -46.2 2738.14 -36.2 2734.64 -46.2 2741.64 -46.2"/><text x="2848.64" y="-57.8" font-family="Times,serif" font-size="14" text-anchor="middle">सप्तमी_तत्पुरुषः</text></g><g id="edge2" class="edge"><title>Node1_2-&gt;Node3_1</title><path fill="none" stroke="#000" d="M2738.14,-133.27C2738.14,-146.58 2738.14,-162.19 2738.14,-173.82"/><polygon fill="#000" stroke="#000" points="2741.64 -133.2 2738.14 -123.2 2734.64 -133.2 2741.64 -133.2"/><text x="2774.14" y="-144.8" font-family="Times,serif" font-size="14" text-anchor="middle">कर्ता</text></g><g id="node16" class="node"><title>Node2_1</title><ellipse cx="2119.14" cy="-105" fill="#f9f" stroke="#f9f" rx="50.89" ry="18"/><text x="2119.14" y="-101.3" font-family="Times,serif" font-size="14" text-anchor="middle">इव(2.1)</text></g><g id="edge3" class="edge"><title>Node2_1-&gt;Node5_1</title><path fill="none" stroke="#000" d="M2090.66,-127.76C2077.11,-137.38 2060.35,-148.24 2044.14,-156 2027.28,-164.07 2008.12,-170.88 1990.51,-176.29"/><polygon fill="#000" stroke="#000" points="2093.03 -130.37 2099.07 -121.66 2088.92 -124.7 2093.03 -130.37"/><text x="2158.14" y="-144.8" font-family="Times,serif" font-size="14" text-anchor="middle">उपमान_द्योतकः</text></g><g id="node17" class="node"><title>Node4_1</title><ellipse cx="1916.14" cy="-18" fill="#40e0d0" stroke="#40e0d0" rx="106.68" ry="18"/><text x="1916.14" y="-14.3" font-family="Times,serif" font-size="14" text-anchor="middle">तडिद्भिः(4.1)</text></g><g id="edge5" class="edge"><title>Node4_1-&gt;Node6_1</title><path fill="none" stroke="#000" d="M1916.14,-46.27C1916.14,-59.58 1916.14,-75.19 1916.14,-86.82"/><polygon fill="#000" stroke="#000" points="1919.64 -46.2 1916.14 -36.2 1912.64 -46.2 1919.64 -46.2"/><text x="1952.14" y="-57.8" font-family="Times,serif" font-size="14" text-anchor="middle">कर्ता</text></g><g id="node18" class="node"><title>Node7_1</title><ellipse cx="3006.14" cy="-18" fill="#ff0" stroke="#ff0" rx="63.09" ry="18"/><text x="3006.14" y="-14.3" font-family="Times,serif" font-size="14" text-anchor="middle">हंस-(7.1)</text></g><g id="node19" class="node"><title>Node7_2</title><ellipse cx="3006.14" cy="-105" fill="#40e0d0" stroke="#40e0d0" rx="106.68" ry="18"/><text x="3006.14" y="-101.3" font-family="Times,serif" font-size="14" text-anchor="middle">प्रवेकैः(7.2)</text></g><g id="edge8" class="edge"><title>Node7_1-&gt;Node7_2</title><path fill="none" stroke="#000" d="M3006.14,-46.27C3006.14,-59.58 3006.14,-75.19 3006.14,-86.82"/><polygon fill="#000" stroke="#000" points="3009.64 -46.2 3006.14 -36.2 3002.64 -46.2 3009.64 -46.2"/><text x="3116.64" y="-57.8" font-family="Times,serif" font-size="14" text-anchor="middle">सप्तमी_तत्पुरुषः</text></g><g id="edge9" class="edge"><title>Node7_2-&gt;Node9_1</title><path fill="none" stroke="#000" d="M3006.14,-133.27C3006.14,-146.58 3006.14,-162.19 3006.14,-173.82"/><polygon fill="#000" stroke="#000" points="3009.64 -133.2 3006.14 -123.2 3002.64 -133.2 3009.64 -133.2"/><text x="3042.14" y="-144.8" font-family="Times,serif" font-size="14" text-anchor="middle">कर्ता</text></g><g id="node20" class="node"><title>Node8_1</title><ellipse cx="2322.14" cy="-192" fill="#f9f" stroke="#f9f" rx="50.89" ry="18"/><text x="2322.14" y="-188.3" font-family="Times,serif" font-size="14" text-anchor="middle">इव(8.1)</text></g><g id="edge10" class="edge"><title>Node8_1-&gt;Node14_1</title><path fill="none" stroke="#000" d="M2313.78,-220.12C2312.92,-228.27 2313.9,-236.7 2319.14,-243 2331.78,-258.2 2373.22,-266.83 2414.08,-271.71"/><polygon fill="#000" stroke="#000" points="2317.25 -220.62 2315.67 -210.14 2310.37 -219.32 2317.25 -220.62"/><text x="2408.14" y="-231.8" font-family="Times,serif" font-size="14" text-anchor="middle">उपमान_द्योतकः</text></g><g id="node21" class="node"><title>Node10_1</title><ellipse cx="2160.14" cy="-192" fill="#40e0d0" stroke="#40e0d0" rx="93.68" ry="18"/><text x="2160.14" y="-188.3" font-family="Times,serif" font-size="14" text-anchor="middle">श्रिया(10.1)</text></g><g id="edge12" class="edge"><title>Node10_1-&gt;Node14_1</title><path fill="none" stroke="#000" d="M2178.2,-217.66C2186.52,-227.17 2197.2,-237.15 2209.14,-243 2243.57,-259.89 2336.78,-268.92 2410.06,-273.54"/><polygon fill="#000" stroke="#000" points="2180.85 -215.37 2171.79 -209.88 2175.45 -219.82 2180.85 -215.37"/><text x="2259.14" y="-231.8" font-family="Times,serif" font-size="14" text-anchor="middle">सहार्थः</text></g><g id="node22" class="node"><title>Node11_1</title><ellipse cx="2296.14" cy="-105" fill="#93db70" stroke="#93db70" rx="84.49" ry="18"/><text x="2296.14" y="-101.3" font-family="Times,serif" font-size="14" text-anchor="middle">युतम्(11.1)</text></g><g id="edge13" class="edge"><title>Node11_1-&gt;Node10_1</title><path fill="none" stroke="#000" d="M2289.25,-132.63C2285.91,-141.09 2281.06,-149.84 2274.14,-156 2261.61,-167.15 2245.6,-174.74 2229.56,-179.92"/><polygon fill="#000" stroke="#000" points="2292.62 -133.6 2292.52 -123.01 2285.99 -131.35 2292.62 -133.6"/><text x="2380.64" y="-144.8" font-family="Times,serif" font-size="14" text-anchor="middle">सहार्थ_द्योतकः</text></g><g id="node23" class="node"><title>Node12_1</title><ellipse cx="3205.14" cy="-192" fill="#c6e2eb" stroke="#c6e2eb" rx="56.59" ry="18"/><text x="3205.14" y="-188.3" font-family="Times,serif" font-size="14" text-anchor="middle">खे(12.1)</text></g><g id="edge14" class="edge"><title>Node12_1-&gt;Node14_1</title><path fill="none" stroke="#000" d="M3164.68,-210.92C3157.6,-213.59 3150.23,-216.09 3143.14,-218 3068.56,-238.14 3047.92,-234.53 2971.14,-243 2844.74,-256.95 2698.31,-267 2604.53,-272.65"/><polygon fill="#000" stroke="#000" points="3166.08 -214.13 3174.1 -207.21 3163.51 -207.62 3166.08 -214.13"/><text x="3157.64" y="-231.8" font-family="Times,serif" font-size="14" text-anchor="middle">अधिकरणम्</text></g><g id="node24" class="node"><title>Node15_1</title><ellipse cx="1046.14" cy="-192" fill="#f9f" stroke="#f9f" rx="65.79" ry="18"/><text x="1046.14" y="-188.3" font-family="Times,serif" font-size="14" text-anchor="middle">यथा(15.1)</text></g><g id="edge17" class="edge"><title>Node15_1-&gt;Node16_2</title><path fill="none" stroke="#000" d="M1011.06,-213.9C1003.47,-218.49 995.51,-223.37 988.14,-228 977.8,-234.49 976.13,-237.69 965.14,-243 948.09,-251.23 928.62,-258.31 911.11,-263.9"/><polygon fill="#000" stroke="#000" points="1012.99 -216.82 1019.75 -208.66 1009.37 -210.83 1012.99 -216.82"/><text x="1077.14" y="-231.8" font-family="Times,serif" font-size="14" text-anchor="middle">उपमान_द्योतकः</text></g><g id="node25" class="node"><title>Node16_1</title><ellipse cx="1189.14" cy="-192" fill="#ff0" stroke="#ff0" rx="59.59" ry="18"/><text x="1189.14" y="-188.3" font-family="Times,serif" font-size="14" text-anchor="middle">नग-(16.1)</text></g><g id="edge18" class="edge"><title>Node16_1-&gt;Node16_2</title><path fill="none" stroke="#000" d="M1182.57,-219.76C1179.11,-228.49 1173.9,-237.38 1166.14,-243 1133.12,-266.91 1030.85,-274.76 953.55,-277.19"/><polygon fill="#000" stroke="#000" points="1185.94 -220.74 1185.79 -210.15 1179.3 -218.52 1185.94 -220.74"/><text x="1281.64" y="-231.8" font-family="Times,serif" font-size="14" text-anchor="middle">षष्ठी_तत्पुरुषः</text></g><g id="node26" class="node"><title>Node17_1</title><ellipse cx="860.14" cy="-18" fill="#ff0" stroke="#ff0" rx="68.79" ry="18"/><text x="860.14" y="-14.3" font-family="Times,serif" font-size="14" text-anchor="middle">बहु-(17.1)</text></g><g id="node27" class="node"><title>Node17_2</title><ellipse cx="860.14" cy="-105" fill="#ff0" stroke="#ff0" rx="77.99" ry="18"/><text x="860.14" y="-101.3" font-family="Times,serif" font-size="14" text-anchor="middle">धातु-(17.2)</text></g><g id="edge20" class="edge"><title>Node17_1-&gt;Node17_2</title><path fill="none" stroke="#000" d="M860.14,-46.27C860.14,-59.58 860.14,-75.19 860.14,-86.82"/><polygon fill="#000" stroke="#000" points="863.64 -46.2 860.14 -36.2 856.64 -46.2 863.64 -46.2"/><text x="924.64" y="-57.8" font-family="Times,serif" font-size="14" text-anchor="middle">कर्मधारयः</text></g><g id="edge21" class="edge"><title>Node17_2-&gt;Node17_3</title><path fill="none" stroke="#000" d="M860.14,-133.27C860.14,-146.58 860.14,-162.19 860.14,-173.82"/><polygon fill="#000" stroke="#000" points="863.64 -133.2 860.14 -123.2 856.64 -133.2 863.64 -133.2"/><text x="970.64" y="-144.8" font-family="Times,serif" font-size="14" text-anchor="middle">तृतीया_तत्पुरुषः</text></g><g id="node28" class="node"><title>Node18_1</title><ellipse cx="1700.14" cy="-192" fill="#f9f" stroke="#f9f" rx="65.79" ry="18"/><text x="1700.14" y="-188.3" font-family="Times,serif" font-size="14" text-anchor="middle">यथा(18.1)</text></g><g id="edge23" class="edge"><title>Node18_1-&gt;Node19_1</title><path fill="none" stroke="#000" d="M1672.05,-215.45C1658.99,-225.02 1642.9,-235.64 1627.14,-243 1603.86,-253.87 1576.53,-262 1553.36,-267.67"/><polygon fill="#000" stroke="#000" points="1674.26 -218.17 1680.15 -209.36 1670.05 -212.57 1674.26 -218.17"/><text x="1741.14" y="-231.8" font-family="Times,serif" font-size="14" text-anchor="middle">उपमान_द्योतकः</text></g><g id="node29" class="node"><title>Node20_1</title><ellipse cx="1379.14" cy="-105" fill="#f9f" stroke="#f9f" rx="47.39" ry="18"/><text x="1379.14" y="-101.3" font-family="Times,serif" font-size="14" text-anchor="middle">च(20.1)</text></g><g id="edge25" class="edge"><title>Node20_1-&gt;Node21_3</title><path fill="none" stroke="#000" d="M1388.7,-132.35C1392.92,-140.89 1398.65,-149.76 1406.14,-156 1418.1,-165.97 1432.97,-173.11 1447.8,-178.23"/><polygon fill="#000" stroke="#000" points="1391.82 -130.73 1384.58 -123 1385.42 -133.56 1391.82 -130.73"/><text x="1463.64" y="-144.8" font-family="Times,serif" font-size="14" text-anchor="middle">सम्बन्धः</text></g><g id="node30" class="node"><title>Node21_1</title><ellipse cx="1541.14" cy="-18" fill="#ff0" stroke="#ff0" rx="77.99" ry="18"/><text x="1541.14" y="-14.3" font-family="Times,serif" font-size="14" text-anchor="middle">ग्रह-(21.1)</text></g><g id="node31" class="node"><title>Node21_2</title><ellipse cx="1541.14" cy="-105" fill="#ff0" stroke="#ff0" rx="96.68" ry="18"/><text x="1541.14" y="-101.3" font-family="Times,serif" font-size="14" text-anchor="middle">चन्द्र-(21.2)</text></g><g id="edge26" class="edge"><title>Node21_1-&gt;Node21_2</title><path fill="none" stroke="#000" d="M1541.14,-46.27C1541.14,-59.58 1541.14,-75.19 1541.14,-86.82"/><polygon fill="#000" stroke="#000" points="1544.64 -46.2 1541.14 -36.2 1537.64 -46.2 1544.64 -46.2"/><text x="1605.64" y="-57.8" font-family="Times,serif" font-size="14" text-anchor="middle">द्वन्द्वः</text></g><g id="edge27" class="edge"><title>Node21_2-&gt;Node21_3</title><path fill="none" stroke="#000" d="M1532.6,-132.87C1528.35,-146.27 1523.33,-162.08 1519.59,-173.82"/><polygon fill="#000" stroke="#000" points="1535.98 -133.79 1535.68 -123.2 1529.31 -131.67 1535.98 -133.79"/><text x="1639.64" y="-144.8" font-family="Times,serif" font-size="14" text-anchor="middle">तृतीया_तत्पुरुषः</text></g><g id="node33" class="node"><title>Node23_1</title><ellipse cx="124.14" cy="-105" fill="#ff0" stroke="#ff0" rx="124.28" ry="18"/><text x="124.14" y="-101.3" font-family="Times,serif" font-size="14" text-anchor="middle">युक्तीकृत-(23.1)</text></g><g id="node34" class="node"><title>Node23_2</title><ellipse cx="124.14" cy="-192" fill="#ff0" stroke="#ff0" rx="77.99" ry="18"/><text x="124.14" y="-188.3" font-family="Times,serif" font-size="14" text-anchor="middle">चारु-(23.2)</text></g><g id="edge29" class="edge"><title>Node23_1-&gt;Node23_2</title><path fill="none" stroke="#000" d="M124.14,-133.27C124.14,-146.58 124.14,-162.19 124.14,-173.82"/><polygon fill="#000" stroke="#000" points="127.64 -133.2 124.14 -123.2 120.64 -133.2 127.64 -133.2"/><text x="188.64" y="-144.8" font-family="Times,serif" font-size="14" text-anchor="middle">कर्मधारयः</text></g><g id="edge30" class="edge"><title>Node23_2-&gt;Node23_4</title><path fill="none" stroke="#000" d="M133.98,-219.31C138.53,-228.12 144.81,-237.17 153.14,-243 170.93,-255.45 218.31,-264.08 262.15,-269.66"/><polygon fill="#000" stroke="#000" points="137.06 -217.64 129.71 -210.02 130.7 -220.56 137.06 -217.64"/><text x="224.64" y="-231.8" font-family="Times,serif" font-size="14" text-anchor="middle">बहुव्रीहिः</text></g><g id="node35" class="node"><title>Node23_3</title><ellipse cx="290.14" cy="-192" fill="#ff0" stroke="#ff0" rx="68.79" ry="18"/><text x="290.14" y="-188.3" font-family="Times,serif" font-size="14" text-anchor="middle">मेघ-(23.3)</text></g><g id="edge31" class="edge"><title>Node23_3-&gt;Node23_4</title><path fill="none" stroke="#000" d="M296.9,-219.86C299.62,-227.74 303.3,-236.09 308.14,-243 312.93,-249.84 319.39,-256.12 325.8,-261.4"/><polygon fill="#000" stroke="#000" points="300.23 -218.79 293.93 -210.27 293.54 -220.86 300.23 -218.79"/><text x="411.64" y="-231.8" font-family="Times,serif" font-size="14" text-anchor="middle">षष्ठी_तत्पुरुषः</text></g><g id="node36" class="node"><title>Node25_1</title><ellipse cx="520.14" cy="-105" fill="#ff0" stroke="#ff0" rx="68.79" ry="18"/><text x="520.14" y="-101.3" font-family="Times,serif" font-size="14" text-anchor="middle">बहु-(25.1)</text></g><g id="node37" class="node"><title>Node25_2</title><ellipse cx="520.14" cy="-192" fill="#ff0" stroke="#ff0" rx="77.99" ry="18"/><text x="520.14" y="-188.3" font-family="Times,serif" font-size="14" text-anchor="middle">रत्न-(25.2)</text></g><g id="edge34" class="edge"><title>Node25_1-&gt;Node25_2</title><path fill="none" stroke="#000" d="M520.14,-133.27C520.14,-146.58 520.14,-162.19 520.14,-173.82"/><polygon fill="#000" stroke="#000" points="523.64 -133.2 520.14 -123.2 516.64 -133.2 523.64 -133.2"/><text x="584.64" y="-144.8" font-family="Times,serif" font-size="14" text-anchor="middle">कर्मधारयः</text></g><g id="edge35" class="edge"><title>Node25_2-&gt;Node25_3</title><path fill="none" stroke="#000" d="M518.14,-220.36C518.66,-228.09 520.3,-236.23 524.14,-243 528.36,-250.46 534.91,-256.73 541.85,-261.81"/><polygon fill="#000" stroke="#000" points="521.64 -220.22 518.04 -210.25 514.64 -220.29 521.64 -220.22"/><text x="634.64" y="-231.8" font-family="Times,serif" font-size="14" text-anchor="middle">तृतीया_तत्पुरुषः</text></g></g></svg>