<?xml version="1.0" encoding="UTF-8" standalone="no"?>
<!DOCTYPE svg PUBLIC "-//W3C//DTD SVG 1.1//EN"
 "http://www.w3.org/Graphics/SVG/1.1/DTD/svg11.dtd">
<!-- Generated by graphviz version 2.43.0 (0)
 -->
<!-- Title: G Pages: 1 -->
<svg width="1256pt" height="479pt"
 viewBox="0.00 0.00 1256.04 479.00" xmlns="http://www.w3.org/2000/svg" xmlns:xlink="http://www.w3.org/1999/xlink">
<g id="graph0" class="graph" transform="scale(1 1) rotate(0) translate(4 475)">
<title>G</title>
<polygon fill="#fffacd" stroke="transparent" points="-4,4 -4,-475 1252.04,-475 1252.04,4 -4,4"/>
<g id="clust1" class="cluster">
<title>cluster_1</title>
<polygon fill="#fffacd" stroke="black" points="211.04,-253 211.04,-392 1151.04,-392 1151.04,-253 211.04,-253"/>
</g>
<!-- Node1_4 -->
<g id="node1" class="node">
<title>Node1_4</title>
<ellipse fill="#93db70" stroke="#93db70" cx="326.04" cy="-279" rx="106.68" ry="18"/>
<text text-anchor="middle" x="326.04" y="-275.3" font-family="Times,serif" font-size="14.00">अर्जितम्(1.4)</text>
</g>
<!-- Node8_1 -->
<g id="node2" class="node">
<title>Node8_1</title>
<ellipse fill="#93db70" stroke="#93db70" cx="547.04" cy="-366" rx="103.98" ry="18"/>
<text text-anchor="middle" x="547.04" y="-362.3" font-family="Times,serif" font-size="14.00">(विमानम्)(8.1)</text>
</g>
<!-- Node1_4&#45;&gt;Node8_1 -->
<g id="edge4" class="edge">
<title>Node1_4&#45;&gt;Node8_1</title>
<path fill="none" stroke="black" d="M365.31,-301.19C383.98,-310.76 406.82,-321.74 428.04,-330 448.32,-337.88 471.11,-344.99 491.29,-350.72"/>
<polygon fill="black" stroke="black" points="366.72,-297.98 356.23,-296.48 363.5,-304.19 366.72,-297.98"/>
<text text-anchor="middle" x="485.54" y="-318.8" font-family="Times,serif" font-size="14.00">विशेषणम्</text>
</g>
<!-- Node7_1 -->
<g id="node16" class="node">
<title>Node7_1</title>
<ellipse fill="#ff1975" stroke="#ff1975" cx="338.04" cy="-453" rx="85.29" ry="18"/>
<text text-anchor="middle" x="338.04" y="-449.3" font-family="Times,serif" font-size="14.00">(ददर्श)(7.1)</text>
</g>
<!-- Node8_1&#45;&gt;Node7_1 -->
<g id="edge17" class="edge">
<title>Node8_1&#45;&gt;Node7_1</title>
<path fill="none" stroke="black" d="M498.53,-386.73C461.07,-401.97 409.99,-422.74 375.6,-436.73"/>
<polygon fill="black" stroke="black" points="500.28,-389.8 508.22,-382.79 497.64,-383.31 500.28,-389.8"/>
<text text-anchor="middle" x="484.04" y="-405.8" font-family="Times,serif" font-size="14.00">कर्म</text>
</g>
<!-- Node2_3 -->
<g id="node3" class="node">
<title>Node2_3</title>
<ellipse fill="#93db70" stroke="#93db70" cx="547.04" cy="-279" rx="96.68" ry="18"/>
<text text-anchor="middle" x="547.04" y="-275.3" font-family="Times,serif" font-size="14.00">चारिणम्(2.3)</text>
</g>
<!-- Node2_3&#45;&gt;Node8_1 -->
<g id="edge7" class="edge">
<title>Node2_3&#45;&gt;Node8_1</title>
<path fill="none" stroke="black" d="M547.04,-307.27C547.04,-320.58 547.04,-336.19 547.04,-347.82"/>
<polygon fill="black" stroke="black" points="550.54,-307.2 547.04,-297.2 543.54,-307.2 550.54,-307.2"/>
<text text-anchor="middle" x="604.54" y="-318.8" font-family="Times,serif" font-size="14.00">विशेषणम्</text>
</g>
<!-- Node3_4 -->
<g id="node4" class="node">
<title>Node3_4</title>
<ellipse fill="#93db70" stroke="#93db70" cx="778.04" cy="-279" rx="115.88" ry="18"/>
<text text-anchor="middle" x="778.04" y="-275.3" font-family="Times,serif" font-size="14.00">निर्मितम्(3.4)</text>
</g>
<!-- Node3_4&#45;&gt;Node8_1 -->
<g id="edge11" class="edge">
<title>Node3_4&#45;&gt;Node8_1</title>
<path fill="none" stroke="black" d="M735.56,-300.58C714.86,-310.19 689.44,-321.38 666.04,-330 645.23,-337.67 621.9,-344.83 601.45,-350.65"/>
<polygon fill="black" stroke="black" points="737.14,-303.7 744.71,-296.29 734.17,-297.36 737.14,-303.7"/>
<text text-anchor="middle" x="757.54" y="-318.8" font-family="Times,serif" font-size="14.00">विशेषणम्</text>
</g>
<!-- Node6_3 -->
<g id="node5" class="node">
<title>Node6_3</title>
<ellipse fill="#93db70" stroke="#93db70" cx="1027.04" cy="-279" rx="115.88" ry="18"/>
<text text-anchor="middle" x="1027.04" y="-275.3" font-family="Times,serif" font-size="14.00">निर्मितम्(6.3)</text>
</g>
<!-- Node6_3&#45;&gt;Node8_1 -->
<g id="edge16" class="edge">
<title>Node6_3&#45;&gt;Node8_1</title>
<path fill="none" stroke="black" d="M962.38,-297.45C921.52,-308 867.47,-321.09 819.04,-330 757.7,-341.29 687.92,-350.19 634.39,-356.19"/>
<polygon fill="black" stroke="black" points="963.41,-300.8 972.21,-294.89 961.65,-294.02 963.41,-300.8"/>
<text text-anchor="middle" x="945.54" y="-318.8" font-family="Times,serif" font-size="14.00">विशेषणम्</text>
</g>
<!-- Node1_1 -->
<g id="node6" class="node">
<title>Node1_1</title>
<ellipse fill="#ffff00" stroke="#ffff00" cx="63.04" cy="-105" rx="63.09" ry="18"/>
<text text-anchor="middle" x="63.04" y="-101.3" font-family="Times,serif" font-size="14.00">तपः&#45;(1.1)</text>
</g>
<!-- Node1_3 -->
<g id="node7" class="node">
<title>Node1_3</title>
<ellipse fill="#ffff00" stroke="#ffff00" cx="149.04" cy="-192" rx="100.18" ry="18"/>
<text text-anchor="middle" x="149.04" y="-188.3" font-family="Times,serif" font-size="14.00">पराक्रम&#45;(1.3)</text>
</g>
<!-- Node1_1&#45;&gt;Node1_3 -->
<g id="edge1" class="edge">
<title>Node1_1&#45;&gt;Node1_3</title>
<path fill="none" stroke="black" d="M70.5,-132.9C73.7,-140.99 78.1,-149.46 84.04,-156 91.11,-163.78 100.32,-170.17 109.57,-175.26"/>
<polygon fill="black" stroke="black" points="73.77,-131.64 67.17,-123.35 67.16,-133.95 73.77,-131.64"/>
<text text-anchor="middle" x="148.54" y="-144.8" font-family="Times,serif" font-size="14.00">द्वन्द्वः</text>
</g>
<!-- Node1_3&#45;&gt;Node1_4 -->
<g id="edge3" class="edge">
<title>Node1_3&#45;&gt;Node1_4</title>
<path fill="none" stroke="black" d="M163.16,-218.87C169.15,-227.7 176.89,-236.88 186.04,-243 203.23,-254.49 223.87,-262.21 243.97,-267.39"/>
<polygon fill="black" stroke="black" points="166.05,-216.88 157.76,-210.28 160.12,-220.61 166.05,-216.88"/>
<text text-anchor="middle" x="296.54" y="-231.8" font-family="Times,serif" font-size="14.00">तृतीया_तत्पुरुषः</text>
</g>
<!-- Node1_2 -->
<g id="node8" class="node">
<title>Node1_2</title>
<ellipse fill="#ffff00" stroke="#ffff00" cx="235.04" cy="-105" rx="90.98" ry="18"/>
<text text-anchor="middle" x="235.04" y="-101.3" font-family="Times,serif" font-size="14.00">समाधान&#45;(1.2)</text>
</g>
<!-- Node1_2&#45;&gt;Node1_3 -->
<g id="edge2" class="edge">
<title>Node1_2&#45;&gt;Node1_3</title>
<path fill="none" stroke="black" d="M226.99,-132.88C223.62,-140.97 219.06,-149.44 213.04,-156 205.94,-163.74 196.71,-170.15 187.49,-175.26"/>
<polygon fill="black" stroke="black" points="230.33,-133.93 230.52,-123.34 223.77,-131.5 230.33,-133.93"/>
<text text-anchor="middle" x="287.54" y="-144.8" font-family="Times,serif" font-size="14.00">द्वन्द्वः</text>
</g>
<!-- Node2_1 -->
<g id="node9" class="node">
<title>Node2_1</title>
<ellipse fill="#ffff00" stroke="#ffff00" cx="389.04" cy="-192" rx="118.08" ry="18"/>
<text text-anchor="middle" x="389.04" y="-188.3" font-family="Times,serif" font-size="14.00">मनःसमाधान&#45;(2.1)</text>
</g>
<!-- Node2_1&#45;&gt;Node2_3 -->
<g id="edge5" class="edge">
<title>Node2_1&#45;&gt;Node2_3</title>
<path fill="none" stroke="black" d="M403.29,-218.69C409.29,-227.5 417,-236.71 426.04,-243 441.39,-253.67 459.99,-261.12 477.95,-266.31"/>
<polygon fill="black" stroke="black" points="406.17,-216.7 397.86,-210.13 400.26,-220.45 406.17,-216.7"/>
<text text-anchor="middle" x="497.54" y="-231.8" font-family="Times,serif" font-size="14.00">बहुव्रीहिः</text>
</g>
<!-- Node2_2 -->
<g id="node10" class="node">
<title>Node2_2</title>
<ellipse fill="#ffff00" stroke="#ffff00" cx="607.04" cy="-192" rx="81.49" ry="18"/>
<text text-anchor="middle" x="607.04" y="-188.3" font-family="Times,serif" font-size="14.00">विचार&#45;(2.2)</text>
</g>
<!-- Node2_2&#45;&gt;Node2_3 -->
<g id="edge6" class="edge">
<title>Node2_2&#45;&gt;Node2_3</title>
<path fill="none" stroke="black" d="M588.86,-218.75C579.17,-232.49 567.51,-249.01 558.96,-261.11"/>
<polygon fill="black" stroke="black" points="592,-220.39 594.9,-210.2 586.28,-216.35 592,-220.39"/>
<text text-anchor="middle" x="651.54" y="-231.8" font-family="Times,serif" font-size="14.00">बहुव्रीहिः</text>
</g>
<!-- Node3_1 -->
<g id="node11" class="node">
<title>Node3_1</title>
<ellipse fill="#ffff00" stroke="#ffff00" cx="787.04" cy="-18" rx="72.29" ry="18"/>
<text text-anchor="middle" x="787.04" y="-14.3" font-family="Times,serif" font-size="14.00">अनेक&#45;(3.1)</text>
</g>
<!-- Node3_2 -->
<g id="node12" class="node">
<title>Node3_2</title>
<ellipse fill="#ffff00" stroke="#ffff00" cx="787.04" cy="-105" rx="100.18" ry="18"/>
<text text-anchor="middle" x="787.04" y="-101.3" font-family="Times,serif" font-size="14.00">संस्थान&#45;(3.2)</text>
</g>
<!-- Node3_1&#45;&gt;Node3_2 -->
<g id="edge8" class="edge">
<title>Node3_1&#45;&gt;Node3_2</title>
<path fill="none" stroke="black" d="M787.04,-46.27C787.04,-59.58 787.04,-75.19 787.04,-86.82"/>
<polygon fill="black" stroke="black" points="790.54,-46.2 787.04,-36.2 783.54,-46.2 790.54,-46.2"/>
<text text-anchor="middle" x="851.54" y="-57.8" font-family="Times,serif" font-size="14.00">कर्मधारयः</text>
</g>
<!-- Node3_3 -->
<g id="node13" class="node">
<title>Node3_3</title>
<ellipse fill="#ffff00" stroke="#ffff00" cx="787.04" cy="-192" rx="81.49" ry="18"/>
<text text-anchor="middle" x="787.04" y="-188.3" font-family="Times,serif" font-size="14.00">विशेष&#45;(3.3)</text>
</g>
<!-- Node3_2&#45;&gt;Node3_3 -->
<g id="edge9" class="edge">
<title>Node3_2&#45;&gt;Node3_3</title>
<path fill="none" stroke="black" d="M787.04,-133.27C787.04,-146.58 787.04,-162.19 787.04,-173.82"/>
<polygon fill="black" stroke="black" points="790.54,-133.2 787.04,-123.2 783.54,-133.2 790.54,-133.2"/>
<text text-anchor="middle" x="890.54" y="-144.8" font-family="Times,serif" font-size="14.00">षष्ठी_तत्पुरुषः</text>
</g>
<!-- Node3_3&#45;&gt;Node3_4 -->
<g id="edge10" class="edge">
<title>Node3_3&#45;&gt;Node3_4</title>
<path fill="none" stroke="black" d="M784.16,-220.27C782.75,-233.58 781.09,-249.19 779.86,-260.82"/>
<polygon fill="black" stroke="black" points="787.65,-220.51 785.22,-210.2 780.69,-219.78 787.65,-220.51"/>
<text text-anchor="middle" x="893.54" y="-231.8" font-family="Times,serif" font-size="14.00">तृतीया_तत्पुरुषः</text>
</g>
<!-- Node4_1 -->
<g id="node14" class="node">
<title>Node4_1</title>
<ellipse fill="#ff99ff" stroke="#ff99ff" cx="117.04" cy="-279" rx="59.59" ry="18"/>
<text text-anchor="middle" x="117.04" y="-275.3" font-family="Times,serif" font-size="14.00">ततः(4.1)</text>
</g>
<!-- Node5_1 -->
<g id="node15" class="node">
<title>Node5_1</title>
<ellipse fill="#ff99ff" stroke="#ff99ff" cx="130.04" cy="-366" rx="59.59" ry="18"/>
<text text-anchor="middle" x="130.04" y="-362.3" font-family="Times,serif" font-size="14.00">ततः(5.1)</text>
</g>
<!-- Node4_1&#45;&gt;Node5_1 -->
<g id="edge12" class="edge">
<title>Node4_1&#45;&gt;Node5_1</title>
<path fill="none" stroke="black" d="M118.39,-307.44C118.98,-314.8 119.83,-322.73 121.04,-330 122.04,-335.94 123.55,-342.35 125.06,-348.04"/>
<polygon fill="black" stroke="black" points="121.86,-306.95 117.69,-297.21 114.88,-307.43 121.86,-306.95"/>
<text text-anchor="middle" x="164.04" y="-318.8" font-family="Times,serif" font-size="14.00">वीप्सा</text>
</g>
<!-- Node5_1&#45;&gt;Node7_1 -->
<g id="edge13" class="edge">
<title>Node5_1&#45;&gt;Node7_1</title>
<path fill="none" stroke="black" d="M173.6,-384.8C211.21,-400.17 264.97,-422.14 300.66,-436.72"/>
<polygon fill="black" stroke="black" points="174.51,-381.39 163.93,-380.85 171.86,-387.87 174.51,-381.39"/>
<text text-anchor="middle" x="282.04" y="-405.8" font-family="Times,serif" font-size="14.00">हेतुः</text>
</g>
<!-- Node6_1 -->
<g id="node17" class="node">
<title>Node6_1</title>
<ellipse fill="#ffff00" stroke="#ffff00" cx="1027.04" cy="-105" rx="81.49" ry="18"/>
<text text-anchor="middle" x="1027.04" y="-101.3" font-family="Times,serif" font-size="14.00">तुल्य&#45;(6.1)</text>
</g>
<!-- Node6_2 -->
<g id="node18" class="node">
<title>Node6_2</title>
<ellipse fill="#ffff00" stroke="#ffff00" cx="1027.04" cy="-192" rx="81.49" ry="18"/>
<text text-anchor="middle" x="1027.04" y="-188.3" font-family="Times,serif" font-size="14.00">विशेष&#45;(6.2)</text>
</g>
<!-- Node6_1&#45;&gt;Node6_2 -->
<g id="edge14" class="edge">
<title>Node6_1&#45;&gt;Node6_2</title>
<path fill="none" stroke="black" d="M1027.04,-133.27C1027.04,-146.58 1027.04,-162.19 1027.04,-173.82"/>
<polygon fill="black" stroke="black" points="1030.54,-133.2 1027.04,-123.2 1023.54,-133.2 1030.54,-133.2"/>
<text text-anchor="middle" x="1091.54" y="-144.8" font-family="Times,serif" font-size="14.00">कर्मधारयः</text>
</g>
<!-- Node6_2&#45;&gt;Node6_3 -->
<g id="edge15" class="edge">
<title>Node6_2&#45;&gt;Node6_3</title>
<path fill="none" stroke="black" d="M1027.04,-220.27C1027.04,-233.58 1027.04,-249.19 1027.04,-260.82"/>
<polygon fill="black" stroke="black" points="1030.54,-220.2 1027.04,-210.2 1023.54,-220.2 1030.54,-220.2"/>
<text text-anchor="middle" x="1137.54" y="-231.8" font-family="Times,serif" font-size="14.00">तृतीया_तत्पुरुषः</text>
</g>
</g>
</svg>
