<?xml version="1.0" encoding="UTF-8" standalone="no"?>
<!DOCTYPE svg PUBLIC "-//W3C//DTD SVG 1.1//EN"
 "http://www.w3.org/Graphics/SVG/1.1/DTD/svg11.dtd">
<!-- Generated by graphviz version 2.43.0 (0)
 -->
<!-- Title: G Pages: 1 -->
<svg width="1937pt" height="392pt"
 viewBox="0.00 0.00 1937.09 392.00" xmlns="http://www.w3.org/2000/svg" xmlns:xlink="http://www.w3.org/1999/xlink">
<g id="graph0" class="graph" transform="scale(1 1) rotate(0) translate(4 388)">
<title>G</title>
<polygon fill="#fffacd" stroke="transparent" points="-4,4 -4,-388 1933.09,-388 1933.09,4 -4,4"/>
<g id="clust1" class="cluster">
<title>cluster_1</title>
<polygon fill="#fffacd" stroke="black" points="711.09,-166 711.09,-305 1827.09,-305 1827.09,-166 711.09,-166"/>
</g>
<g id="clust2" class="cluster">
<title>cluster_2</title>
<polygon fill="#fffacd" stroke="black" points="13.09,-79 13.09,-218 205.09,-218 205.09,-79 13.09,-79"/>
</g>
<!-- Node3_2 -->
<g id="node1" class="node">
<title>Node3_2</title>
<ellipse fill="#93db70" stroke="#93db70" cx="835.09" cy="-192" rx="115.88" ry="18"/>
<text text-anchor="middle" x="835.09" y="-188.3" font-family="Times,serif" font-size="14.00">संस्थितम्(3.2)</text>
</g>
<!-- Node14_1 -->
<g id="node2" class="node">
<title>Node14_1</title>
<ellipse fill="#93db70" stroke="#93db70" cx="1047.09" cy="-279" rx="109.68" ry="18"/>
<text text-anchor="middle" x="1047.09" y="-275.3" font-family="Times,serif" font-size="14.00">(विमानम्)(14.1)</text>
</g>
<!-- Node3_2&#45;&gt;Node14_1 -->
<g id="edge4" class="edge">
<title>Node3_2&#45;&gt;Node14_1</title>
<path fill="none" stroke="black" d="M871.39,-214.78C888.24,-224.3 908.78,-235.07 928.09,-243 947.61,-251.02 969.63,-258.03 989.37,-263.62"/>
<polygon fill="black" stroke="black" points="872.85,-211.59 862.44,-209.65 869.37,-217.66 872.85,-211.59"/>
<text text-anchor="middle" x="985.59" y="-231.8" font-family="Times,serif" font-size="14.00">विशेषणम्</text>
</g>
<!-- Node12_1 -->
<g id="node21" class="node">
<title>Node12_1</title>
<ellipse fill="#ff1975" stroke="#ff1975" cx="668.09" cy="-366" rx="90.98" ry="18"/>
<text text-anchor="middle" x="668.09" y="-362.3" font-family="Times,serif" font-size="14.00">(ददर्श)(12.1)</text>
</g>
<!-- Node14_1&#45;&gt;Node12_1 -->
<g id="edge21" class="edge">
<title>Node14_1&#45;&gt;Node12_1</title>
<path fill="none" stroke="black" d="M974.99,-296.17C902.67,-312.39 792.73,-337.05 725.93,-352.03"/>
<polygon fill="black" stroke="black" points="975.94,-299.54 984.93,-293.94 974.41,-292.71 975.94,-299.54"/>
<text text-anchor="middle" x="910.09" y="-318.8" font-family="Times,serif" font-size="14.00">कर्म</text>
</g>
<!-- Node4_2 -->
<g id="node3" class="node">
<title>Node4_2</title>
<ellipse fill="#93db70" stroke="#93db70" cx="1047.09" cy="-192" rx="78.79" ry="18"/>
<text text-anchor="middle" x="1047.09" y="-188.3" font-family="Times,serif" font-size="14.00">कूटम्(4.2)</text>
</g>
<!-- Node4_2&#45;&gt;Node14_1 -->
<g id="edge6" class="edge">
<title>Node4_2&#45;&gt;Node14_1</title>
<path fill="none" stroke="black" d="M1047.09,-220.27C1047.09,-233.58 1047.09,-249.19 1047.09,-260.82"/>
<polygon fill="black" stroke="black" points="1050.59,-220.2 1047.09,-210.2 1043.59,-220.2 1050.59,-220.2"/>
<text text-anchor="middle" x="1104.59" y="-231.8" font-family="Times,serif" font-size="14.00">विशेषणम्</text>
</g>
<!-- Node5_3 -->
<g id="node4" class="node">
<title>Node5_3</title>
<ellipse fill="#93db70" stroke="#93db70" cx="1250.09" cy="-192" rx="106.68" ry="18"/>
<text text-anchor="middle" x="1250.09" y="-188.3" font-family="Times,serif" font-size="14.00">मण्डितम्(5.3)</text>
</g>
<!-- Node5_3&#45;&gt;Node14_1 -->
<g id="edge9" class="edge">
<title>Node5_3&#45;&gt;Node14_1</title>
<path fill="none" stroke="black" d="M1217.47,-215.02C1202.32,-224.56 1183.77,-235.28 1166.09,-243 1147.14,-251.27 1125.67,-258.26 1106.23,-263.76"/>
<polygon fill="black" stroke="black" points="1219.44,-217.92 1225.97,-209.57 1215.66,-212.02 1219.44,-217.92"/>
<text text-anchor="middle" x="1251.59" y="-231.8" font-family="Times,serif" font-size="14.00">विशेषणम्</text>
</g>
<!-- Node6_2 -->
<g id="node5" class="node">
<title>Node6_2</title>
<ellipse fill="#93db70" stroke="#93db70" cx="1481.09" cy="-192" rx="106.68" ry="18"/>
<text text-anchor="middle" x="1481.09" y="-188.3" font-family="Times,serif" font-size="14.00">अभिरामम्(6.2)</text>
</g>
<!-- Node6_2&#45;&gt;Node14_1 -->
<g id="edge11" class="edge">
<title>Node6_2&#45;&gt;Node14_1</title>
<path fill="none" stroke="black" d="M1426.53,-211.63C1393.94,-222.16 1351.53,-234.81 1313.09,-243 1256.26,-255.12 1191.65,-263.73 1140.34,-269.39"/>
<polygon fill="black" stroke="black" points="1427.89,-214.87 1436.31,-208.44 1425.72,-208.21 1427.89,-214.87"/>
<text text-anchor="middle" x="1426.59" y="-231.8" font-family="Times,serif" font-size="14.00">विशेषणम्</text>
</g>
<!-- Node7_3 -->
<g id="node6" class="node">
<title>Node7_3</title>
<ellipse fill="#93db70" stroke="#93db70" cx="1712.09" cy="-192" rx="106.68" ry="18"/>
<text text-anchor="middle" x="1712.09" y="-188.3" font-family="Times,serif" font-size="14.00">निर्मलम्(7.3)</text>
</g>
<!-- Node7_3&#45;&gt;Node14_1 -->
<g id="edge14" class="edge">
<title>Node7_3&#45;&gt;Node14_1</title>
<path fill="none" stroke="black" d="M1647.45,-209.96C1602.95,-221.01 1542.31,-234.84 1488.09,-243 1374.17,-260.15 1242.34,-269.22 1152.71,-273.79"/>
<polygon fill="black" stroke="black" points="1648.41,-213.32 1657.26,-207.5 1646.71,-206.53 1648.41,-213.32"/>
<text text-anchor="middle" x="1625.59" y="-231.8" font-family="Times,serif" font-size="14.00">विशेषणम्</text>
</g>
<!-- Node8_2 -->
<g id="node7" class="node">
<title>Node8_2</title>
<ellipse fill="#93db70" stroke="#93db70" cx="100.09" cy="-105" rx="78.79" ry="18"/>
<text text-anchor="middle" x="100.09" y="-101.3" font-family="Times,serif" font-size="14.00">कूटम्(8.2)</text>
</g>
<!-- Node9_1 -->
<g id="node8" class="node">
<title>Node9_1</title>
<ellipse fill="#93db70" stroke="#93db70" cx="109.09" cy="-192" rx="87.99" ry="18"/>
<text text-anchor="middle" x="109.09" y="-188.3" font-family="Times,serif" font-size="14.00">शिखरम्(9.1)</text>
</g>
<!-- Node8_2&#45;&gt;Node9_1 -->
<g id="edge16" class="edge">
<title>Node8_2&#45;&gt;Node9_1</title>
<path fill="none" stroke="black" d="M102.98,-133.27C104.39,-146.58 106.04,-162.19 107.27,-173.82"/>
<polygon fill="black" stroke="black" points="106.45,-132.78 101.91,-123.2 99.48,-133.51 106.45,-132.78"/>
<text text-anchor="middle" x="163.59" y="-144.8" font-family="Times,serif" font-size="14.00">विशेषणम्</text>
</g>
<!-- Node9_1&#45;&gt;Node14_1 -->
<g id="edge17" class="edge">
<title>Node9_1&#45;&gt;Node14_1</title>
<path fill="none" stroke="black" d="M197.52,-201.01C374.79,-217.08 772.11,-253.08 953.53,-269.52"/>
<polygon fill="black" stroke="black" points="197.73,-197.52 187.45,-200.1 197.09,-204.49 197.73,-197.52"/>
<text text-anchor="middle" x="685.09" y="-231.8" font-family="Times,serif" font-size="14.00">उपमानम्</text>
</g>
<!-- Node1_1 -->
<g id="node9" class="node">
<title>Node1_1</title>
<ellipse fill="#93db70" stroke="#93db70" cx="645.09" cy="-18" rx="96.68" ry="18"/>
<text text-anchor="middle" x="645.09" y="-14.3" font-family="Times,serif" font-size="14.00">विशेषम्(1.1)</text>
</g>
<!-- Node2_1 -->
<g id="node10" class="node">
<title>Node2_1</title>
<ellipse fill="#ff99ff" stroke="#ff99ff" cx="645.09" cy="-105" rx="96.68" ry="18"/>
<text text-anchor="middle" x="645.09" y="-101.3" font-family="Times,serif" font-size="14.00">आलम्ब्य(2.1)</text>
</g>
<!-- Node1_1&#45;&gt;Node2_1 -->
<g id="edge1" class="edge">
<title>Node1_1&#45;&gt;Node2_1</title>
<path fill="none" stroke="black" d="M645.09,-46.27C645.09,-59.58 645.09,-75.19 645.09,-86.82"/>
<polygon fill="black" stroke="black" points="648.59,-46.2 645.09,-36.2 641.59,-46.2 648.59,-46.2"/>
<text text-anchor="middle" x="674.09" y="-57.8" font-family="Times,serif" font-size="14.00">कर्म</text>
</g>
<!-- Node2_1&#45;&gt;Node3_2 -->
<g id="edge2" class="edge">
<title>Node2_1&#45;&gt;Node3_2</title>
<path fill="none" stroke="black" d="M668.29,-130.27C678.24,-139.48 690.47,-149.34 703.09,-156 721.34,-165.62 742.42,-172.75 762.32,-177.96"/>
<polygon fill="black" stroke="black" points="670.47,-127.51 660.83,-123.1 665.61,-132.55 670.47,-127.51"/>
<text text-anchor="middle" x="767.59" y="-144.8" font-family="Times,serif" font-size="14.00">पूर्वकालः</text>
</g>
<!-- Node3_1 -->
<g id="node11" class="node">
<title>Node3_1</title>
<ellipse fill="#ffff00" stroke="#ffff00" cx="841.09" cy="-105" rx="81.49" ry="18"/>
<text text-anchor="middle" x="841.09" y="-101.3" font-family="Times,serif" font-size="14.00">विशेष&#45;(3.1)</text>
</g>
<!-- Node3_1&#45;&gt;Node3_2 -->
<g id="edge3" class="edge">
<title>Node3_1&#45;&gt;Node3_2</title>
<path fill="none" stroke="black" d="M836.89,-133.1C836.57,-135.76 836.3,-138.43 836.09,-141 835.21,-151.9 834.95,-164.19 834.92,-173.85"/>
<polygon fill="black" stroke="black" points="840.38,-133.42 838.23,-123.04 833.44,-132.49 840.38,-133.42"/>
<text text-anchor="middle" x="946.59" y="-144.8" font-family="Times,serif" font-size="14.00">सप्तमी_तत्पुरुषः</text>
</g>
<!-- Node4_1 -->
<g id="node12" class="node">
<title>Node4_1</title>
<ellipse fill="#ffff00" stroke="#ffff00" cx="1079.09" cy="-105" rx="100.18" ry="18"/>
<text text-anchor="middle" x="1079.09" y="-101.3" font-family="Times,serif" font-size="14.00">विचित्र&#45;(4.1)</text>
</g>
<!-- Node4_1&#45;&gt;Node4_2 -->
<g id="edge5" class="edge">
<title>Node4_1&#45;&gt;Node4_2</title>
<path fill="none" stroke="black" d="M1068.97,-132.87C1063.93,-146.27 1057.98,-162.08 1053.56,-173.82"/>
<polygon fill="black" stroke="black" points="1072.37,-133.79 1072.62,-123.2 1065.82,-131.33 1072.37,-133.79"/>
<text text-anchor="middle" x="1135.59" y="-144.8" font-family="Times,serif" font-size="14.00">बहुव्रीहिः</text>
</g>
<!-- Node5_1 -->
<g id="node13" class="node">
<title>Node5_1</title>
<ellipse fill="#ffff00" stroke="#ffff00" cx="1260.09" cy="-18" rx="63.09" ry="18"/>
<text text-anchor="middle" x="1260.09" y="-14.3" font-family="Times,serif" font-size="14.00">बहु&#45;(5.1)</text>
</g>
<!-- Node5_2 -->
<g id="node14" class="node">
<title>Node5_2</title>
<ellipse fill="#ffff00" stroke="#ffff00" cx="1260.09" cy="-105" rx="63.09" ry="18"/>
<text text-anchor="middle" x="1260.09" y="-101.3" font-family="Times,serif" font-size="14.00">कूट&#45;(5.2)</text>
</g>
<!-- Node5_1&#45;&gt;Node5_2 -->
<g id="edge7" class="edge">
<title>Node5_1&#45;&gt;Node5_2</title>
<path fill="none" stroke="black" d="M1260.09,-46.27C1260.09,-59.58 1260.09,-75.19 1260.09,-86.82"/>
<polygon fill="black" stroke="black" points="1263.59,-46.2 1260.09,-36.2 1256.59,-46.2 1263.59,-46.2"/>
<text text-anchor="middle" x="1331.59" y="-57.8" font-family="Times,serif" font-size="14.00">बहुव्रीहिः</text>
</g>
<!-- Node5_2&#45;&gt;Node5_3 -->
<g id="edge8" class="edge">
<title>Node5_2&#45;&gt;Node5_3</title>
<path fill="none" stroke="black" d="M1250.76,-132.83C1250.08,-135.56 1249.5,-138.32 1249.09,-141 1247.43,-151.81 1247.65,-164.09 1248.3,-173.78"/>
<polygon fill="black" stroke="black" points="1254.13,-133.78 1253.54,-123.2 1247.4,-131.83 1254.13,-133.78"/>
<text text-anchor="middle" x="1359.59" y="-144.8" font-family="Times,serif" font-size="14.00">तृतीया_तत्पुरुषः</text>
</g>
<!-- Node6_1 -->
<g id="node15" class="node">
<title>Node6_1</title>
<ellipse fill="#ffff00" stroke="#ffff00" cx="1492.09" cy="-105" rx="63.09" ry="18"/>
<text text-anchor="middle" x="1492.09" y="-101.3" font-family="Times,serif" font-size="14.00">मनः&#45;(6.1)</text>
</g>
<!-- Node6_1&#45;&gt;Node6_2 -->
<g id="edge10" class="edge">
<title>Node6_1&#45;&gt;Node6_2</title>
<path fill="none" stroke="black" d="M1488.56,-133.27C1486.84,-146.58 1484.82,-162.19 1483.31,-173.82"/>
<polygon fill="black" stroke="black" points="1492.05,-133.57 1489.87,-123.2 1485.11,-132.67 1492.05,-133.57"/>
<text text-anchor="middle" x="1590.59" y="-144.8" font-family="Times,serif" font-size="14.00">षष्ठी_तत्पुरुषः</text>
</g>
<!-- Node7_1 -->
<g id="node16" class="node">
<title>Node7_1</title>
<ellipse fill="#ffff00" stroke="#ffff00" cx="1722.09" cy="-18" rx="72.29" ry="18"/>
<text text-anchor="middle" x="1722.09" y="-14.3" font-family="Times,serif" font-size="14.00">शरत्&#45;(7.1)</text>
</g>
<!-- Node7_2 -->
<g id="node17" class="node">
<title>Node7_2</title>
<ellipse fill="#ffff00" stroke="#ffff00" cx="1722.09" cy="-105" rx="81.49" ry="18"/>
<text text-anchor="middle" x="1722.09" y="-101.3" font-family="Times,serif" font-size="14.00">इन्दु&#45;(7.2)</text>
</g>
<!-- Node7_1&#45;&gt;Node7_2 -->
<g id="edge12" class="edge">
<title>Node7_1&#45;&gt;Node7_2</title>
<path fill="none" stroke="black" d="M1722.09,-46.27C1722.09,-59.58 1722.09,-75.19 1722.09,-86.82"/>
<polygon fill="black" stroke="black" points="1725.59,-46.2 1722.09,-36.2 1718.59,-46.2 1725.59,-46.2"/>
<text text-anchor="middle" x="1825.59" y="-57.8" font-family="Times,serif" font-size="14.00">षष्ठी_तत्पुरुषः</text>
</g>
<!-- Node7_2&#45;&gt;Node7_3 -->
<g id="edge13" class="edge">
<title>Node7_2&#45;&gt;Node7_3</title>
<path fill="none" stroke="black" d="M1718.88,-133.27C1717.32,-146.58 1715.48,-162.19 1714.11,-173.82"/>
<polygon fill="black" stroke="black" points="1722.37,-133.54 1720.07,-123.2 1715.42,-132.72 1722.37,-133.54"/>
<text text-anchor="middle" x="1781.59" y="-144.8" font-family="Times,serif" font-size="14.00">कर्मधारयः</text>
</g>
<!-- Node8_1 -->
<g id="node18" class="node">
<title>Node8_1</title>
<ellipse fill="#ffff00" stroke="#ffff00" cx="100.09" cy="-18" rx="100.18" ry="18"/>
<text text-anchor="middle" x="100.09" y="-14.3" font-family="Times,serif" font-size="14.00">विचित्र&#45;(8.1)</text>
</g>
<!-- Node8_1&#45;&gt;Node8_2 -->
<g id="edge15" class="edge">
<title>Node8_1&#45;&gt;Node8_2</title>
<path fill="none" stroke="black" d="M100.09,-46.27C100.09,-59.58 100.09,-75.19 100.09,-86.82"/>
<polygon fill="black" stroke="black" points="103.59,-46.2 100.09,-36.2 96.59,-46.2 103.59,-46.2"/>
<text text-anchor="middle" x="171.59" y="-57.8" font-family="Times,serif" font-size="14.00">बहुव्रीहिः</text>
</g>
<!-- Node10_1 -->
<g id="node19" class="node">
<title>Node10_1</title>
<ellipse fill="#87ceeb" stroke="#87ceeb" cx="297.09" cy="-105" rx="84.49" ry="18"/>
<text text-anchor="middle" x="297.09" y="-101.3" font-family="Times,serif" font-size="14.00">गिरेः(10.1)</text>
</g>
<!-- Node10_1&#45;&gt;Node9_1 -->
<g id="edge18" class="edge">
<title>Node10_1&#45;&gt;Node9_1</title>
<path fill="none" stroke="black" d="M269.08,-128.53C256.25,-138.02 240.49,-148.56 225.09,-156 206.15,-165.15 184.31,-172.49 164.72,-178.04"/>
<polygon fill="black" stroke="black" points="271.19,-131.32 277.05,-122.49 266.97,-125.74 271.19,-131.32"/>
<text text-anchor="middle" x="344.09" y="-144.8" font-family="Times,serif" font-size="14.00">षष्ठीसम्बन्धः</text>
</g>
<!-- Node11_1 -->
<g id="node20" class="node">
<title>Node11_1</title>
<ellipse fill="#ff99ff" stroke="#ff99ff" cx="465.09" cy="-105" rx="65.79" ry="18"/>
<text text-anchor="middle" x="465.09" y="-101.3" font-family="Times,serif" font-size="14.00">यथा(11.1)</text>
</g>
<!-- Node11_1&#45;&gt;Node9_1 -->
<g id="edge19" class="edge">
<title>Node11_1&#45;&gt;Node9_1</title>
<path fill="none" stroke="black" d="M458.01,-132.82C454.37,-141.56 448.98,-150.44 441.09,-156 403.02,-182.84 281.85,-189.78 196.96,-191.22"/>
<polygon fill="black" stroke="black" points="461.38,-133.79 461.42,-123.2 454.78,-131.46 461.38,-133.79"/>
<text text-anchor="middle" x="543.09" y="-144.8" font-family="Times,serif" font-size="14.00">उपमान_द्योतकः</text>
</g>
<!-- Node13_1 -->
<g id="node22" class="node">
<title>Node13_1</title>
<ellipse fill="#00bfff" stroke="#00bfff" cx="621.09" cy="-279" rx="81.79" ry="18"/>
<text text-anchor="middle" x="621.09" y="-275.3" font-family="Times,serif" font-size="14.00">(कपिः)(13.1)</text>
</g>
<!-- Node13_1&#45;&gt;Node12_1 -->
<g id="edge20" class="edge">
<title>Node13_1&#45;&gt;Node12_1</title>
<path fill="none" stroke="black" d="M635.52,-306.09C643.01,-319.65 651.97,-335.85 658.59,-347.82"/>
<polygon fill="black" stroke="black" points="638.5,-304.26 630.6,-297.2 632.38,-307.65 638.5,-304.26"/>
<text text-anchor="middle" x="684.09" y="-318.8" font-family="Times,serif" font-size="14.00">कर्ता</text>
</g>
</g>
</svg>
