<?xml version="1.0" encoding="UTF-8" standalone="no"?>
<!DOCTYPE svg PUBLIC "-//W3C//DTD SVG 1.1//EN"
 "http://www.w3.org/Graphics/SVG/1.1/DTD/svg11.dtd">
<!-- Generated by graphviz version 2.43.0 (0)
 -->
<!-- Title: G Pages: 1 -->
<svg width="3240pt" height="479pt"
 viewBox="0.00 0.00 3239.79 479.00" xmlns="http://www.w3.org/2000/svg" xmlns:xlink="http://www.w3.org/1999/xlink">
<g id="graph0" class="graph" transform="scale(1 1) rotate(0) translate(4 475)">
<title>G</title>
<polygon fill="#fffacd" stroke="transparent" points="-4,4 -4,-475 3235.79,-475 3235.79,4 -4,4"/>
<g id="clust1" class="cluster">
<title>cluster_1</title>
<polygon fill="#fffacd" stroke="black" points="518,-166 518,-305 1531,-305 1531,-166 518,-166"/>
</g>
<g id="clust2" class="cluster">
<title>cluster_2</title>
<polygon fill="#fffacd" stroke="black" points="2017,-253 2017,-392 2834,-392 2834,-253 2017,-253"/>
</g>
<g id="clust3" class="cluster">
<title>cluster_3</title>
<polygon fill="#fffacd" stroke="black" points="8,-253 8,-392 212,-392 212,-253 8,-253"/>
</g>
<!-- Node3_3 -->
<g id="node1" class="node">
<title>Node3_3</title>
<ellipse fill="#00bfff" stroke="#00bfff" cx="1269" cy="-192" rx="78.79" ry="18"/>
<text text-anchor="middle" x="1269" y="-188.3" font-family="Times,serif" font-size="14.00">आननाः(3.3)</text>
</g>
<!-- Node9_2 -->
<g id="node2" class="node">
<title>Node9_2</title>
<ellipse fill="#00bfff" stroke="#00bfff" cx="1079" cy="-279" rx="69.59" ry="18"/>
<text text-anchor="middle" x="1079" y="-275.3" font-family="Times,serif" font-size="14.00">गणाः(9.2)</text>
</g>
<!-- Node3_3&#45;&gt;Node9_2 -->
<g id="edge5" class="edge">
<title>Node3_3&#45;&gt;Node9_2</title>
<path fill="none" stroke="black" d="M1236.73,-215.12C1217.9,-227.98 1197.37,-241.87 1195,-243 1174.2,-252.89 1149.97,-260.72 1129.05,-266.45"/>
<polygon fill="black" stroke="black" points="1238.92,-217.87 1245.2,-209.33 1234.97,-212.09 1238.92,-217.87"/>
<text text-anchor="middle" x="1274.5" y="-231.8" font-family="Times,serif" font-size="14.00">विशेषणम्</text>
</g>
<!-- Node1_1 -->
<g id="node16" class="node">
<title>Node1_1</title>
<ellipse fill="#ff1975" stroke="#ff1975" cx="837" cy="-366" rx="87.99" ry="18"/>
<text text-anchor="middle" x="837" y="-362.3" font-family="Times,serif" font-size="14.00">वहन्ति(1.1)</text>
</g>
<!-- Node9_2&#45;&gt;Node1_1 -->
<g id="edge19" class="edge">
<title>Node9_2&#45;&gt;Node1_1</title>
<path fill="none" stroke="black" d="M1029.9,-297.24C985.65,-312.79 921.26,-335.41 879.25,-350.16"/>
<polygon fill="black" stroke="black" points="1031.3,-300.46 1039.58,-293.85 1028.99,-293.86 1031.3,-300.46"/>
<text text-anchor="middle" x="1009" y="-318.8" font-family="Times,serif" font-size="14.00">कर्ता</text>
</g>
<!-- Node4_2 -->
<g id="node3" class="node">
<title>Node4_2</title>
<ellipse fill="#00bfff" stroke="#00bfff" cx="1444" cy="-192" rx="78.79" ry="18"/>
<text text-anchor="middle" x="1444" y="-188.3" font-family="Times,serif" font-size="14.00">अशनाः(4.2)</text>
</g>
<!-- Node4_2&#45;&gt;Node9_2 -->
<g id="edge7" class="edge">
<title>Node4_2&#45;&gt;Node9_2</title>
<path fill="none" stroke="black" d="M1393.56,-211.06C1381.07,-216.08 1367.86,-221.85 1356,-228 1345.17,-233.62 1344.43,-238.73 1333,-243 1273.06,-265.39 1200.34,-273.67 1148.1,-276.63"/>
<polygon fill="black" stroke="black" points="1394.91,-214.29 1402.94,-207.38 1392.35,-207.77 1394.91,-214.29"/>
<text text-anchor="middle" x="1413.5" y="-231.8" font-family="Times,serif" font-size="14.00">विशेषणम्</text>
</g>
<!-- Node5_2 -->
<g id="node4" class="node">
<title>Node5_2</title>
<ellipse fill="#00bfff" stroke="#00bfff" cx="596" cy="-192" rx="69.59" ry="18"/>
<text text-anchor="middle" x="596" y="-188.3" font-family="Times,serif" font-size="14.00">चराः(5.2)</text>
</g>
<!-- Node5_2&#45;&gt;Node9_2 -->
<g id="edge9" class="edge">
<title>Node5_2&#45;&gt;Node9_2</title>
<path fill="none" stroke="black" d="M625.7,-215.16C641.1,-225.45 660.69,-236.77 680,-243 739.64,-262.25 913.1,-271.74 1010.54,-275.68"/>
<polygon fill="black" stroke="black" points="627.37,-212.06 617.15,-209.27 623.4,-217.83 627.37,-212.06"/>
<text text-anchor="middle" x="737.5" y="-231.8" font-family="Times,serif" font-size="14.00">विशेषणम्</text>
</g>
<!-- Node6_2 -->
<g id="node5" class="node">
<title>Node6_2</title>
<ellipse fill="#00bfff" stroke="#00bfff" cx="753" cy="-192" rx="69.59" ry="18"/>
<text text-anchor="middle" x="753" y="-188.3" font-family="Times,serif" font-size="14.00">चराः(6.2)</text>
</g>
<!-- Node6_2&#45;&gt;Node9_2 -->
<g id="edge11" class="edge">
<title>Node6_2&#45;&gt;Node9_2</title>
<path fill="none" stroke="black" d="M780.24,-215.82C793.54,-225.75 810.25,-236.58 827,-243 886.08,-265.65 957.95,-273.91 1009.79,-276.79"/>
<polygon fill="black" stroke="black" points="782.08,-212.81 772.02,-209.47 777.8,-218.35 782.08,-212.81"/>
<text text-anchor="middle" x="884.5" y="-231.8" font-family="Times,serif" font-size="14.00">विशेषणम्</text>
</g>
<!-- Node7_4 -->
<g id="node6" class="node">
<title>Node7_4</title>
<ellipse fill="#00bfff" stroke="#00bfff" cx="928" cy="-192" rx="87.99" ry="18"/>
<text text-anchor="middle" x="928" y="-188.3" font-family="Times,serif" font-size="14.00">लोचनाः(7.4)</text>
</g>
<!-- Node7_4&#45;&gt;Node9_2 -->
<g id="edge15" class="edge">
<title>Node7_4&#45;&gt;Node9_2</title>
<path fill="none" stroke="black" d="M939.46,-219.22C944.38,-227.86 950.88,-236.83 959,-243 976.45,-256.26 998.81,-264.51 1019.49,-269.63"/>
<polygon fill="black" stroke="black" points="942.46,-217.4 934.76,-210.12 936.24,-220.61 942.46,-217.4"/>
<text text-anchor="middle" x="1016.5" y="-231.8" font-family="Times,serif" font-size="14.00">विशेषणम्</text>
</g>
<!-- Node8_2 -->
<g id="node7" class="node">
<title>Node8_2</title>
<ellipse fill="#00bfff" stroke="#00bfff" cx="1103" cy="-192" rx="69.59" ry="18"/>
<text text-anchor="middle" x="1103" y="-188.3" font-family="Times,serif" font-size="14.00">जवाः(8.2)</text>
</g>
<!-- Node8_2&#45;&gt;Node9_2 -->
<g id="edge17" class="edge">
<title>Node8_2&#45;&gt;Node9_2</title>
<path fill="none" stroke="black" d="M1083.96,-218.57C1082.37,-221.63 1080.99,-224.81 1080,-228 1076.71,-238.61 1076.46,-251.11 1077.03,-260.96"/>
<polygon fill="black" stroke="black" points="1087.07,-220.2 1089.22,-209.82 1081.06,-216.59 1087.07,-220.2"/>
<text text-anchor="middle" x="1137.5" y="-231.8" font-family="Times,serif" font-size="14.00">विशेषणम्</text>
</g>
<!-- Node11_5 -->
<g id="node8" class="node">
<title>Node11_5</title>
<ellipse fill="#93db70" stroke="#93db70" cx="2128" cy="-279" rx="102.88" ry="18"/>
<text text-anchor="middle" x="2128" y="-275.3" font-family="Times,serif" font-size="14.00">दर्शनम्(11.5)</text>
</g>
<!-- Node18_1 -->
<g id="node9" class="node">
<title>Node18_1</title>
<ellipse fill="#93db70" stroke="#93db70" cx="2624" cy="-366" rx="102.88" ry="18"/>
<text text-anchor="middle" x="2624" y="-362.3" font-family="Times,serif" font-size="14.00">विमानम्(18.1)</text>
</g>
<!-- Node11_5&#45;&gt;Node18_1 -->
<g id="edge25" class="edge">
<title>Node11_5&#45;&gt;Node18_1</title>
<path fill="none" stroke="black" d="M2177.9,-299.05C2207.93,-309.76 2247.17,-322.47 2283,-330 2363.95,-347.01 2457.53,-355.87 2526.15,-360.41"/>
<polygon fill="black" stroke="black" points="2179.08,-295.75 2168.49,-295.65 2176.7,-302.34 2179.08,-295.75"/>
<text text-anchor="middle" x="2340.5" y="-318.8" font-family="Times,serif" font-size="14.00">विशेषणम्</text>
</g>
<!-- Node20_1 -->
<g id="node39" class="node">
<title>Node20_1</title>
<ellipse fill="#ff1975" stroke="#ff1975" cx="2624" cy="-453" rx="84.49" ry="18"/>
<text text-anchor="middle" x="2624" y="-449.3" font-family="Times,serif" font-size="14.00">ददर्श(20.1)</text>
</g>
<!-- Node18_1&#45;&gt;Node20_1 -->
<g id="edge34" class="edge">
<title>Node18_1&#45;&gt;Node20_1</title>
<path fill="none" stroke="black" d="M2624,-394.27C2624,-407.58 2624,-423.19 2624,-434.82"/>
<polygon fill="black" stroke="black" points="2627.5,-394.2 2624,-384.2 2620.5,-394.2 2627.5,-394.2"/>
<text text-anchor="middle" x="2653" y="-405.8" font-family="Times,serif" font-size="14.00">कर्म</text>
</g>
<!-- Node14_2 -->
<g id="node10" class="node">
<title>Node14_2</title>
<ellipse fill="#93db70" stroke="#93db70" cx="2351" cy="-279" rx="102.88" ry="18"/>
<text text-anchor="middle" x="2351" y="-275.3" font-family="Times,serif" font-size="14.00">दर्शनम्(14.2)</text>
</g>
<!-- Node14_2&#45;&gt;Node18_1 -->
<g id="edge30" class="edge">
<title>Node14_2&#45;&gt;Node18_1</title>
<path fill="none" stroke="black" d="M2381.87,-302.25C2396.94,-312.13 2415.72,-323.07 2434,-330 2467.09,-342.54 2505.18,-350.69 2538.52,-355.93"/>
<polygon fill="black" stroke="black" points="2383.71,-299.27 2373.46,-296.59 2379.8,-305.08 2383.71,-299.27"/>
<text text-anchor="middle" x="2491.5" y="-318.8" font-family="Times,serif" font-size="14.00">विशेषणम्</text>
</g>
<!-- Node19_1 -->
<g id="node11" class="node">
<title>Node19_1</title>
<ellipse fill="#93db70" stroke="#93db70" cx="2723" cy="-279" rx="102.88" ry="18"/>
<text text-anchor="middle" x="2723" y="-275.3" font-family="Times,serif" font-size="14.00">उत्तमम्(19.1)</text>
</g>
<!-- Node19_1&#45;&gt;Node18_1 -->
<g id="edge35" class="edge">
<title>Node19_1&#45;&gt;Node18_1</title>
<path fill="none" stroke="black" d="M2704.24,-304.75C2697.15,-313.27 2688.69,-322.54 2680,-330 2672.08,-336.8 2662.72,-343.18 2653.94,-348.59"/>
<polygon fill="black" stroke="black" points="2707.02,-306.88 2710.58,-296.9 2701.58,-302.48 2707.02,-306.88"/>
<text text-anchor="middle" x="2751.5" y="-318.8" font-family="Times,serif" font-size="14.00">विशेषणम्</text>
</g>
<!-- Node21_1 -->
<g id="node12" class="node">
<title>Node21_1</title>
<ellipse fill="#93db70" stroke="#93db70" cx="2537" cy="-279" rx="65.79" ry="18"/>
<text text-anchor="middle" x="2537" y="-275.3" font-family="Times,serif" font-size="14.00">तत्(21.1)</text>
</g>
<!-- Node21_1&#45;&gt;Node18_1 -->
<g id="edge36" class="edge">
<title>Node21_1&#45;&gt;Node18_1</title>
<path fill="none" stroke="black" d="M2548.34,-306.19C2552.74,-314.44 2558.34,-323.17 2565,-330 2572.15,-337.33 2581.16,-343.69 2589.96,-348.9"/>
<polygon fill="black" stroke="black" points="2551.47,-304.62 2543.89,-297.21 2545.19,-307.73 2551.47,-304.62"/>
<text text-anchor="middle" x="2622.5" y="-318.8" font-family="Times,serif" font-size="14.00">विशेषणम्</text>
</g>
<!-- Node23_1 -->
<g id="node13" class="node">
<title>Node23_1</title>
<ellipse fill="#93db70" stroke="#93db70" cx="3159" cy="-279" rx="72.59" ry="18"/>
<text text-anchor="middle" x="3159" y="-275.3" font-family="Times,serif" font-size="14.00">(तत्)(23.1)</text>
</g>
<!-- Node23_1&#45;&gt;Node18_1 -->
<g id="edge40" class="edge">
<title>Node23_1&#45;&gt;Node18_1</title>
<path fill="none" stroke="black" d="M3106.95,-296.74C3097.05,-299.67 3086.75,-302.56 3077,-305 2955.21,-335.47 2810.89,-351.2 2718.43,-358.76"/>
<polygon fill="black" stroke="black" points="3108.11,-300.04 3116.67,-293.8 3106.08,-293.34 3108.11,-300.04"/>
<text text-anchor="middle" x="3085.5" y="-318.8" font-family="Times,serif" font-size="14.00">विशेषणम्</text>
</g>
<!-- Node15_1 -->
<g id="node14" class="node">
<title>Node15_1</title>
<ellipse fill="#00bfff" stroke="#00bfff" cx="89" cy="-279" rx="56.59" ry="18"/>
<text text-anchor="middle" x="89" y="-275.3" font-family="Times,serif" font-size="14.00">सः(15.1)</text>
</g>
<!-- Node22_3 -->
<g id="node15" class="node">
<title>Node22_3</title>
<ellipse fill="#00bfff" stroke="#00bfff" cx="110" cy="-366" rx="93.68" ry="18"/>
<text text-anchor="middle" x="110" y="-362.3" font-family="Times,serif" font-size="14.00">सत्तमः(22.3)</text>
</g>
<!-- Node15_1&#45;&gt;Node22_3 -->
<g id="edge31" class="edge">
<title>Node15_1&#45;&gt;Node22_3</title>
<path fill="none" stroke="black" d="M95.74,-307.27C99.03,-320.58 102.88,-336.19 105.76,-347.82"/>
<polygon fill="black" stroke="black" points="99.05,-306.07 93.25,-297.2 92.25,-307.75 99.05,-306.07"/>
<text text-anchor="middle" x="158.5" y="-318.8" font-family="Times,serif" font-size="14.00">विशेषणम्</text>
</g>
<!-- Node22_3&#45;&gt;Node20_1 -->
<g id="edge39" class="edge">
<title>Node22_3&#45;&gt;Node20_1</title>
<path fill="none" stroke="black" d="M210.5,-371.23C334.83,-376.41 553,-385.31 740,-392 1436.19,-416.9 2277.27,-441.88 2540.89,-449.59"/>
<polygon fill="black" stroke="black" points="210.37,-367.72 200.23,-370.8 210.08,-374.72 210.37,-367.72"/>
<text text-anchor="middle" x="1501" y="-405.8" font-family="Times,serif" font-size="14.00">कर्ता</text>
</g>
<!-- Node2_1 -->
<g id="node17" class="node">
<title>Node2_1</title>
<ellipse fill="#ff99ff" stroke="#ff99ff" cx="443" cy="-279" rx="66.89" ry="18"/>
<text text-anchor="middle" x="443" y="-275.3" font-family="Times,serif" font-size="14.00">यत्()(2.1)</text>
</g>
<!-- Node2_1&#45;&gt;Node23_1 -->
<g id="edge2" class="edge">
<title>Node2_1&#45;&gt;Node23_1</title>
<path fill="none" stroke="red" stroke-dasharray="5,2" d="M487.6,-260.11C496.22,-257.2 505.28,-254.62 514,-253 634.07,-230.69 1490.88,-236 1613,-235 1695.66,-234.32 1716.34,-234.42 1799,-235 1941.01,-236 2936.81,-230.3 3077,-253 3087.61,-254.72 3098.74,-257.53 3109.26,-260.68"/>
<polygon fill="red" stroke="red" points="486.33,-256.85 478.1,-263.51 488.69,-263.44 486.33,-256.85"/>
<polygon fill="red" stroke="red" points="3108.52,-264.11 3119.11,-263.78 3110.62,-257.44 3108.52,-264.11"/>
<text text-anchor="middle" x="1706" y="-231.8" font-family="Times,serif" font-size="14.00">नित्यसम्बन्धः</text>
</g>
<!-- Node2_1&#45;&gt;Node1_1 -->
<g id="edge1" class="edge">
<title>Node2_1&#45;&gt;Node1_1</title>
<path fill="none" stroke="black" d="M489.55,-297.54C497.63,-300.26 506.01,-302.87 514,-305 599.82,-327.93 700.77,-345.17 766.68,-355.15"/>
<polygon fill="black" stroke="black" points="490.47,-294.16 479.88,-294.2 488.19,-300.78 490.47,-294.16"/>
<text text-anchor="middle" x="677.5" y="-318.8" font-family="Times,serif" font-size="14.00">सम्बन्धः</text>
</g>
<!-- Node3_1 -->
<g id="node18" class="node">
<title>Node3_1</title>
<ellipse fill="#ffff00" stroke="#ffff00" cx="1269" cy="-18" rx="90.98" ry="18"/>
<text text-anchor="middle" x="1269" y="-14.3" font-family="Times,serif" font-size="14.00">कुण्डल&#45;(3.1)</text>
</g>
<!-- Node3_2 -->
<g id="node19" class="node">
<title>Node3_2</title>
<ellipse fill="#ffff00" stroke="#ffff00" cx="1269" cy="-105" rx="81.49" ry="18"/>
<text text-anchor="middle" x="1269" y="-101.3" font-family="Times,serif" font-size="14.00">शोभित&#45;(3.2)</text>
</g>
<!-- Node3_1&#45;&gt;Node3_2 -->
<g id="edge3" class="edge">
<title>Node3_1&#45;&gt;Node3_2</title>
<path fill="none" stroke="black" d="M1269,-46.27C1269,-59.58 1269,-75.19 1269,-86.82"/>
<polygon fill="black" stroke="black" points="1272.5,-46.2 1269,-36.2 1265.5,-46.2 1272.5,-46.2"/>
<text text-anchor="middle" x="1379.5" y="-57.8" font-family="Times,serif" font-size="14.00">तृतीया_तत्पुरुषः</text>
</g>
<!-- Node3_2&#45;&gt;Node3_3 -->
<g id="edge4" class="edge">
<title>Node3_2&#45;&gt;Node3_3</title>
<path fill="none" stroke="black" d="M1269,-133.27C1269,-146.58 1269,-162.19 1269,-173.82"/>
<polygon fill="black" stroke="black" points="1272.5,-133.2 1269,-123.2 1265.5,-133.2 1272.5,-133.2"/>
<text text-anchor="middle" x="1340.5" y="-144.8" font-family="Times,serif" font-size="14.00">बहुव्रीहिः</text>
</g>
<!-- Node4_1 -->
<g id="node20" class="node">
<title>Node4_1</title>
<ellipse fill="#ffff00" stroke="#ffff00" cx="1444" cy="-105" rx="63.09" ry="18"/>
<text text-anchor="middle" x="1444" y="-101.3" font-family="Times,serif" font-size="14.00">महा&#45;(4.1)</text>
</g>
<!-- Node4_1&#45;&gt;Node4_2 -->
<g id="edge6" class="edge">
<title>Node4_1&#45;&gt;Node4_2</title>
<path fill="none" stroke="black" d="M1444,-133.27C1444,-146.58 1444,-162.19 1444,-173.82"/>
<polygon fill="black" stroke="black" points="1447.5,-133.2 1444,-123.2 1440.5,-133.2 1447.5,-133.2"/>
<text text-anchor="middle" x="1515.5" y="-144.8" font-family="Times,serif" font-size="14.00">बहुव्रीहिः</text>
</g>
<!-- Node5_1 -->
<g id="node21" class="node">
<title>Node5_1</title>
<ellipse fill="#ffff00" stroke="#ffff00" cx="505" cy="-105" rx="81.49" ry="18"/>
<text text-anchor="middle" x="505" y="-101.3" font-family="Times,serif" font-size="14.00">व्योम&#45;(5.1)</text>
</g>
<!-- Node5_1&#45;&gt;Node5_2 -->
<g id="edge8" class="edge">
<title>Node5_1&#45;&gt;Node5_2</title>
<path fill="none" stroke="black" d="M516.23,-132.3C520.62,-140.56 526.24,-149.26 533,-156 541.15,-164.13 551.58,-170.93 561.6,-176.32"/>
<polygon fill="black" stroke="black" points="519.35,-130.73 511.8,-123.3 513.07,-133.82 519.35,-130.73"/>
<text text-anchor="middle" x="629.5" y="-144.8" font-family="Times,serif" font-size="14.00">उपपद_तत्पुरुषः</text>
</g>
<!-- Node6_1 -->
<g id="node22" class="node">
<title>Node6_1</title>
<ellipse fill="#ffff00" stroke="#ffff00" cx="721" cy="-105" rx="72.29" ry="18"/>
<text text-anchor="middle" x="721" y="-101.3" font-family="Times,serif" font-size="14.00">निशा&#45;(6.1)</text>
</g>
<!-- Node6_1&#45;&gt;Node6_2 -->
<g id="edge10" class="edge">
<title>Node6_1&#45;&gt;Node6_2</title>
<path fill="none" stroke="black" d="M727.53,-133.15C729.62,-140.66 732.15,-148.73 735,-156 737.35,-161.98 740.4,-168.29 743.32,-173.87"/>
<polygon fill="black" stroke="black" points="730.89,-132.18 724.95,-123.41 724.12,-133.97 730.89,-132.18"/>
<text text-anchor="middle" x="831.5" y="-144.8" font-family="Times,serif" font-size="14.00">उपपद_तत्पुरुषः</text>
</g>
<!-- Node7_1 -->
<g id="node23" class="node">
<title>Node7_1</title>
<ellipse fill="#ffff00" stroke="#ffff00" cx="767" cy="-18" rx="100.18" ry="18"/>
<text text-anchor="middle" x="767" y="-14.3" font-family="Times,serif" font-size="14.00">विवृत्त&#45;(7.1)</text>
</g>
<!-- Node7_3 -->
<g id="node24" class="node">
<title>Node7_3</title>
<ellipse fill="#ffff00" stroke="#ffff00" cx="937" cy="-105" rx="81.49" ry="18"/>
<text text-anchor="middle" x="937" y="-101.3" font-family="Times,serif" font-size="14.00">विशाल&#45;(7.3)</text>
</g>
<!-- Node7_1&#45;&gt;Node7_3 -->
<g id="edge12" class="edge">
<title>Node7_1&#45;&gt;Node7_3</title>
<path fill="none" stroke="black" d="M792.39,-42.55C803.34,-51.77 816.67,-61.83 830,-69 847.13,-78.21 867.1,-85.55 885.13,-91.08"/>
<polygon fill="black" stroke="black" points="794.37,-39.64 784.53,-35.73 789.79,-44.93 794.37,-39.64"/>
<text text-anchor="middle" x="894.5" y="-57.8" font-family="Times,serif" font-size="14.00">द्वन्द्वः</text>
</g>
<!-- Node7_3&#45;&gt;Node7_4 -->
<g id="edge14" class="edge">
<title>Node7_3&#45;&gt;Node7_4</title>
<path fill="none" stroke="black" d="M934.11,-133.27C932.7,-146.58 931.05,-162.19 929.82,-173.82"/>
<polygon fill="black" stroke="black" points="937.61,-133.51 935.18,-123.2 930.65,-132.78 937.61,-133.51"/>
<text text-anchor="middle" x="1005.5" y="-144.8" font-family="Times,serif" font-size="14.00">बहुव्रीहिः</text>
</g>
<!-- Node7_2 -->
<g id="node25" class="node">
<title>Node7_2</title>
<ellipse fill="#ffff00" stroke="#ffff00" cx="994" cy="-18" rx="109.38" ry="18"/>
<text text-anchor="middle" x="994" y="-14.3" font-family="Times,serif" font-size="14.00">विध्वस्त&#45;(7.2)</text>
</g>
<!-- Node7_2&#45;&gt;Node7_3 -->
<g id="edge13" class="edge">
<title>Node7_2&#45;&gt;Node7_3</title>
<path fill="none" stroke="black" d="M976.73,-44.75C967.52,-58.49 956.44,-75.01 948.32,-87.11"/>
<polygon fill="black" stroke="black" points="979.8,-46.46 982.47,-36.2 973.99,-42.56 979.8,-46.46"/>
<text text-anchor="middle" x="1033.5" y="-57.8" font-family="Times,serif" font-size="14.00">द्वन्द्वः</text>
</g>
<!-- Node8_1 -->
<g id="node26" class="node">
<title>Node8_1</title>
<ellipse fill="#ffff00" stroke="#ffff00" cx="1103" cy="-105" rx="63.09" ry="18"/>
<text text-anchor="middle" x="1103" y="-101.3" font-family="Times,serif" font-size="14.00">महा&#45;(8.1)</text>
</g>
<!-- Node8_1&#45;&gt;Node8_2 -->
<g id="edge16" class="edge">
<title>Node8_1&#45;&gt;Node8_2</title>
<path fill="none" stroke="black" d="M1103,-133.27C1103,-146.58 1103,-162.19 1103,-173.82"/>
<polygon fill="black" stroke="black" points="1106.5,-133.2 1103,-123.2 1099.5,-133.2 1106.5,-133.2"/>
<text text-anchor="middle" x="1174.5" y="-144.8" font-family="Times,serif" font-size="14.00">बहुव्रीहिः</text>
</g>
<!-- Node9_1 -->
<g id="node27" class="node">
<title>Node9_1</title>
<ellipse fill="#ffff00" stroke="#ffff00" cx="1827" cy="-192" rx="63.09" ry="18"/>
<text text-anchor="middle" x="1827" y="-188.3" font-family="Times,serif" font-size="14.00">भूत&#45;(9.1)</text>
</g>
<!-- Node9_1&#45;&gt;Node9_2 -->
<g id="edge18" class="edge">
<title>Node9_1&#45;&gt;Node9_2</title>
<path fill="none" stroke="black" d="M1818.79,-219.48C1814.63,-228.47 1808.58,-237.59 1800,-243 1745.82,-277.13 1318.62,-279.07 1148.53,-278.47"/>
<polygon fill="black" stroke="black" points="1822.13,-220.55 1822.59,-209.96 1815.63,-217.95 1822.13,-220.55"/>
<text text-anchor="middle" x="1916.5" y="-231.8" font-family="Times,serif" font-size="14.00">षष्ठी_तत्पुरुषः</text>
</g>
<!-- Node10_1 -->
<g id="node28" class="node">
<title>Node10_1</title>
<ellipse fill="#ff99ff" stroke="#ff99ff" cx="1643" cy="-192" rx="102.88" ry="18"/>
<text text-anchor="middle" x="1643" y="-188.3" font-family="Times,serif" font-size="14.00">सहस्रशः(10.1)</text>
</g>
<!-- Node10_1&#45;&gt;Node9_2 -->
<g id="edge20" class="edge">
<title>Node10_1&#45;&gt;Node9_2</title>
<path fill="none" stroke="black" d="M1560.15,-207.1C1538.16,-212.27 1514.76,-219.12 1494,-228 1482.78,-232.8 1482.53,-239.01 1471,-243 1413.06,-263.07 1243.65,-272.2 1147.57,-275.87"/>
<polygon fill="black" stroke="black" points="1561.17,-210.46 1570.15,-204.83 1559.62,-203.63 1561.17,-210.46"/>
<text text-anchor="middle" x="1551.5" y="-231.8" font-family="Times,serif" font-size="14.00">सम्बन्धः</text>
</g>
<!-- Node11_1 -->
<g id="node29" class="node">
<title>Node11_1</title>
<ellipse fill="#ffff00" stroke="#ffff00" cx="2235" cy="-18" rx="87.18" ry="18"/>
<text text-anchor="middle" x="2235" y="-14.3" font-family="Times,serif" font-size="14.00">वसन्त&#45;(11.1)</text>
</g>
<!-- Node11_2 -->
<g id="node30" class="node">
<title>Node11_2</title>
<ellipse fill="#ffff00" stroke="#ffff00" cx="2235" cy="-105" rx="87.18" ry="18"/>
<text text-anchor="middle" x="2235" y="-101.3" font-family="Times,serif" font-size="14.00">पुष्प&#45;(11.2)</text>
</g>
<!-- Node11_1&#45;&gt;Node11_2 -->
<g id="edge21" class="edge">
<title>Node11_1&#45;&gt;Node11_2</title>
<path fill="none" stroke="black" d="M2235,-46.27C2235,-59.58 2235,-75.19 2235,-86.82"/>
<polygon fill="black" stroke="black" points="2238.5,-46.2 2235,-36.2 2231.5,-46.2 2238.5,-46.2"/>
<text text-anchor="middle" x="2338.5" y="-57.8" font-family="Times,serif" font-size="14.00">षष्ठी_तत्पुरुषः</text>
</g>
<!-- Node11_3 -->
<g id="node31" class="node">
<title>Node11_3</title>
<ellipse fill="#ffff00" stroke="#ffff00" cx="2235" cy="-192" rx="87.18" ry="18"/>
<text text-anchor="middle" x="2235" y="-188.3" font-family="Times,serif" font-size="14.00">उत्कर&#45;(11.3)</text>
</g>
<!-- Node11_2&#45;&gt;Node11_3 -->
<g id="edge22" class="edge">
<title>Node11_2&#45;&gt;Node11_3</title>
<path fill="none" stroke="black" d="M2235,-133.27C2235,-146.58 2235,-162.19 2235,-173.82"/>
<polygon fill="black" stroke="black" points="2238.5,-133.2 2235,-123.2 2231.5,-133.2 2238.5,-133.2"/>
<text text-anchor="middle" x="2338.5" y="-144.8" font-family="Times,serif" font-size="14.00">षष्ठी_तत्पुरुषः</text>
</g>
<!-- Node11_3&#45;&gt;Node11_5 -->
<g id="edge23" class="edge">
<title>Node11_3&#45;&gt;Node11_5</title>
<path fill="none" stroke="black" d="M2211.17,-217.23C2202.32,-225.75 2192,-235.14 2182,-243 2173.74,-249.49 2164.27,-255.93 2155.58,-261.48"/>
<polygon fill="black" stroke="black" points="2213.82,-219.53 2218.52,-210.03 2208.93,-214.53 2213.82,-219.53"/>
<text text-anchor="middle" x="2308.5" y="-231.8" font-family="Times,serif" font-size="14.00">तृतीया_तत्पुरुषः</text>
</g>
<!-- Node11_4 -->
<g id="node32" class="node">
<title>Node11_4</title>
<ellipse fill="#ffff00" stroke="#ffff00" cx="2052" cy="-192" rx="77.99" ry="18"/>
<text text-anchor="middle" x="2052" y="-188.3" font-family="Times,serif" font-size="14.00">चारु&#45;(11.4)</text>
</g>
<!-- Node11_4&#45;&gt;Node11_5 -->
<g id="edge24" class="edge">
<title>Node11_4&#45;&gt;Node11_5</title>
<path fill="none" stroke="black" d="M2047.34,-220.08C2047.29,-228.01 2048.65,-236.32 2053,-243 2058.72,-251.79 2067.28,-258.41 2076.59,-263.39"/>
<polygon fill="black" stroke="black" points="2050.83,-220.3 2048.08,-210.07 2043.85,-219.78 2050.83,-220.3"/>
<text text-anchor="middle" x="2117.5" y="-231.8" font-family="Times,serif" font-size="14.00">कर्मधारयः</text>
</g>
<!-- Node12_1 -->
<g id="node33" class="node">
<title>Node12_1</title>
<ellipse fill="#ffff00" stroke="#ffff00" cx="2788" cy="-105" rx="87.18" ry="18"/>
<text text-anchor="middle" x="2788" y="-101.3" font-family="Times,serif" font-size="14.00">वसन्त&#45;(12.1)</text>
</g>
<!-- Node12_2 -->
<g id="node34" class="node">
<title>Node12_2</title>
<ellipse fill="#b4ffb4" stroke="#b4ffb4" cx="2788" cy="-192" rx="93.68" ry="18"/>
<text text-anchor="middle" x="2788" y="-188.3" font-family="Times,serif" font-size="14.00">मासात्(12.2)</text>
</g>
<!-- Node12_1&#45;&gt;Node12_2 -->
<g id="edge26" class="edge">
<title>Node12_1&#45;&gt;Node12_2</title>
<path fill="none" stroke="black" d="M2788,-133.27C2788,-146.58 2788,-162.19 2788,-173.82"/>
<polygon fill="black" stroke="black" points="2791.5,-133.2 2788,-123.2 2784.5,-133.2 2791.5,-133.2"/>
<text text-anchor="middle" x="2852.5" y="-144.8" font-family="Times,serif" font-size="14.00">कर्मधारयः</text>
</g>
<!-- Node12_2&#45;&gt;Node14_2 -->
<g id="edge27" class="edge">
<title>Node12_2&#45;&gt;Node14_2</title>
<path fill="none" stroke="black" d="M2758.42,-215.54C2743.05,-225.93 2723.45,-237.22 2704,-243 2652.41,-258.34 2515.36,-245.95 2462,-253 2443.4,-255.46 2423.31,-259.54 2405.41,-263.69"/>
<polygon fill="black" stroke="black" points="2760.76,-218.18 2766.95,-209.58 2756.75,-212.44 2760.76,-218.18"/>
<text text-anchor="middle" x="2774" y="-231.8" font-family="Times,serif" font-size="14.00">अवधिः</text>
</g>
<!-- Node13_1 -->
<g id="node35" class="node">
<title>Node13_1</title>
<ellipse fill="#ff99ff" stroke="#ff99ff" cx="2436" cy="-192" rx="65.79" ry="18"/>
<text text-anchor="middle" x="2436" y="-188.3" font-family="Times,serif" font-size="14.00">अपि(13.1)</text>
</g>
<!-- Node13_1&#45;&gt;Node14_2 -->
<g id="edge28" class="edge">
<title>Node13_1&#45;&gt;Node14_2</title>
<path fill="none" stroke="black" d="M2435.13,-220.44C2433.72,-228.38 2431.02,-236.61 2426,-243 2419.25,-251.59 2409.9,-258.16 2400.09,-263.16"/>
<polygon fill="black" stroke="black" points="2438.62,-220.7 2436.31,-210.36 2431.67,-219.88 2438.62,-220.7"/>
<text text-anchor="middle" x="2490.5" y="-231.8" font-family="Times,serif" font-size="14.00">सम्बन्धः</text>
</g>
<!-- Node14_1 -->
<g id="node36" class="node">
<title>Node14_1</title>
<ellipse fill="#ffff00" stroke="#ffff00" cx="2598" cy="-192" rx="77.99" ry="18"/>
<text text-anchor="middle" x="2598" y="-188.3" font-family="Times,serif" font-size="14.00">चारु&#45;(14.1)</text>
</g>
<!-- Node14_1&#45;&gt;Node14_2 -->
<g id="edge29" class="edge">
<title>Node14_1&#45;&gt;Node14_2</title>
<path fill="none" stroke="black" d="M2581.11,-217.97C2573.38,-227.39 2563.39,-237.23 2552,-243 2516.1,-261.19 2501.69,-246.35 2462,-253 2444.27,-255.97 2425.12,-259.99 2407.8,-263.93"/>
<polygon fill="black" stroke="black" points="2583.99,-219.96 2587.3,-209.9 2578.43,-215.7 2583.99,-219.96"/>
<text text-anchor="middle" x="2635.5" y="-231.8" font-family="Times,serif" font-size="14.00">कर्मधारयः</text>
</g>
<!-- Node16_1 -->
<g id="node37" class="node">
<title>Node16_1</title>
<ellipse fill="#93db70" stroke="#93db70" cx="2956" cy="-279" rx="112.38" ry="18"/>
<text text-anchor="middle" x="2956" y="-275.3" font-family="Times,serif" font-size="14.00">पुष्पकम्(16.1)</text>
</g>
<!-- Node16_1&#45;&gt;Node18_1 -->
<g id="edge32" class="edge">
<title>Node16_1&#45;&gt;Node18_1</title>
<path fill="none" stroke="black" d="M2906.15,-299.54C2878.94,-309.67 2844.47,-321.64 2813,-330 2776.07,-339.81 2734.37,-347.85 2699.55,-353.74"/>
<polygon fill="black" stroke="black" points="2907.71,-302.7 2915.83,-295.9 2905.24,-296.15 2907.71,-302.7"/>
<text text-anchor="middle" x="2903" y="-318.8" font-family="Times,serif" font-size="14.00">संज्ञा</text>
</g>
<!-- Node17_1 -->
<g id="node38" class="node">
<title>Node17_1</title>
<ellipse fill="#ff99ff" stroke="#ff99ff" cx="2917" cy="-366" rx="75.29" ry="18"/>
<text text-anchor="middle" x="2917" y="-362.3" font-family="Times,serif" font-size="14.00">तत्र(17.1)</text>
</g>
<!-- Node17_1&#45;&gt;Node20_1 -->
<g id="edge33" class="edge">
<title>Node17_1&#45;&gt;Node20_1</title>
<path fill="none" stroke="black" d="M2864.28,-383.95C2855.52,-386.69 2846.51,-389.46 2838,-392 2782.17,-408.66 2717.75,-426.54 2674.29,-438.41"/>
<polygon fill="black" stroke="black" points="2865.54,-387.22 2874.03,-380.88 2863.44,-380.55 2865.54,-387.22"/>
<text text-anchor="middle" x="2881.5" y="-405.8" font-family="Times,serif" font-size="14.00">देशाधिकरणम्</text>
</g>
<!-- Node22_1 -->
<g id="node40" class="node">
<title>Node22_1</title>
<ellipse fill="#ffff00" stroke="#ffff00" cx="289" cy="-192" rx="77.99" ry="18"/>
<text text-anchor="middle" x="289" y="-188.3" font-family="Times,serif" font-size="14.00">वानर&#45;(22.1)</text>
</g>
<!-- Node22_2 -->
<g id="node41" class="node">
<title>Node22_2</title>
<ellipse fill="#ffff00" stroke="#ffff00" cx="289" cy="-279" rx="68.79" ry="18"/>
<text text-anchor="middle" x="289" y="-275.3" font-family="Times,serif" font-size="14.00">वीर&#45;(22.2)</text>
</g>
<!-- Node22_1&#45;&gt;Node22_2 -->
<g id="edge37" class="edge">
<title>Node22_1&#45;&gt;Node22_2</title>
<path fill="none" stroke="black" d="M289,-220.27C289,-233.58 289,-249.19 289,-260.82"/>
<polygon fill="black" stroke="black" points="292.5,-220.2 289,-210.2 285.5,-220.2 292.5,-220.2"/>
<text text-anchor="middle" x="353.5" y="-231.8" font-family="Times,serif" font-size="14.00">कर्मधारयः</text>
</g>
<!-- Node22_2&#45;&gt;Node22_3 -->
<g id="edge38" class="edge">
<title>Node22_2&#45;&gt;Node22_3</title>
<path fill="none" stroke="black" d="M261.88,-302.75C249.66,-312.16 234.7,-322.58 220,-330 202.74,-338.72 182.86,-345.83 164.79,-351.32"/>
<polygon fill="black" stroke="black" points="264.18,-305.39 269.86,-296.45 259.84,-299.9 264.18,-305.39"/>
<text text-anchor="middle" x="355.5" y="-318.8" font-family="Times,serif" font-size="14.00">सप्तमी_तत्पुरुषः</text>
</g>
</g>
</svg>
