<?xml version="1.0" encoding="UTF-8" standalone="no"?>
<!DOCTYPE svg PUBLIC "-//W3C//DTD SVG 1.1//EN"
 "http://www.w3.org/Graphics/SVG/1.1/DTD/svg11.dtd">
<!-- Generated by graphviz version 2.43.0 (0)
 -->
<!-- Title: G Pages: 1 -->
<svg width="1498pt" height="495pt"
 viewBox="0.00 0.00 1497.74 495.00" xmlns="http://www.w3.org/2000/svg" xmlns:xlink="http://www.w3.org/1999/xlink">
<g id="graph0" class="graph" transform="scale(1 1) rotate(0) translate(4 491)">
<title>G</title>
<polygon fill="#fffacd" stroke="transparent" points="-4,4 -4,-491 1493.74,-491 1493.74,4 -4,4"/>
<g id="clust1" class="cluster">
<title>cluster_1</title>
<polygon fill="#fffacd" stroke="black" points="822,-79 822,-218 1070,-218 1070,-79 822,-79"/>
</g>
<g id="clust2" class="cluster">
<title>cluster_2</title>
<polygon fill="#fffacd" stroke="black" points="666,-253 666,-305 840,-305 840,-253 666,-253"/>
</g>
<g id="clust3" class="cluster">
<title>cluster_3</title>
<polygon fill="#fffacd" stroke="black" points="8,-253 8,-392 322,-392 322,-253 8,-253"/>
</g>
<g id="clust4" class="cluster">
<title>cluster_4</title>
<polygon fill="#fffacd" stroke="black" points="91,-79 91,-218 240,-218 240,-79 91,-79"/>
</g>
<g id="clust5" class="cluster">
<title>cluster_5</title>
<polygon fill="#fffacd" stroke="black" points="330,-340 330,-479 552,-479 552,-340 330,-340"/>
</g>
<!-- Node1_1 -->
<g id="node1" class="node">
<title>Node1_1</title>
<ellipse fill="#00bfff" stroke="#00bfff" cx="946" cy="-105" rx="59.59" ry="18"/>
<text text-anchor="middle" x="946" y="-101.3" font-family="Times,serif" font-size="14.00">तत्(1.1)</text>
</g>
<!-- Node2_3 -->
<g id="node2" class="node">
<title>Node2_3</title>
<ellipse fill="#00bfff" stroke="#00bfff" cx="946" cy="-192" rx="115.88" ry="18"/>
<text text-anchor="middle" x="946" y="-188.3" font-family="Times,serif" font-size="14.00">कृत्रिमम्(2.3)</text>
</g>
<!-- Node1_1&#45;&gt;Node2_3 -->
<g id="edge1" class="edge">
<title>Node1_1&#45;&gt;Node2_3</title>
<path fill="none" stroke="black" d="M946,-133.27C946,-146.58 946,-162.19 946,-173.82"/>
<polygon fill="black" stroke="black" points="949.5,-133.2 946,-123.2 942.5,-133.2 949.5,-133.2"/>
<text text-anchor="middle" x="1003.5" y="-144.8" font-family="Times,serif" font-size="14.00">विशेषणम्</text>
</g>
<!-- Node3_1 -->
<g id="node3" class="node">
<title>Node3_1</title>
<ellipse fill="#00bfff" stroke="#00bfff" cx="753" cy="-279" rx="78.79" ry="18"/>
<text text-anchor="middle" x="753" y="-275.3" font-family="Times,serif" font-size="14.00">कृतम्(3.1)</text>
</g>
<!-- Node2_3&#45;&gt;Node3_1 -->
<g id="edge4" class="edge">
<title>Node2_3&#45;&gt;Node3_1</title>
<path fill="none" stroke="black" d="M916.86,-215.75C903.71,-225.19 887.65,-235.63 872,-243 851.54,-252.63 827.85,-260.25 807.01,-265.89"/>
<polygon fill="black" stroke="black" points="919.05,-218.48 925.04,-209.74 914.91,-212.84 919.05,-218.48"/>
<text text-anchor="middle" x="954.5" y="-231.8" font-family="Times,serif" font-size="14.00">विशेषणम्</text>
</g>
<!-- Node14_1 -->
<g id="node4" class="node">
<title>Node14_1</title>
<ellipse fill="#00bfff" stroke="#00bfff" cx="220" cy="-366" rx="93.68" ry="18"/>
<text text-anchor="middle" x="220" y="-362.3" font-family="Times,serif" font-size="14.00">लक्ष्म(14.1)</text>
</g>
<!-- Node3_1&#45;&gt;Node14_1 -->
<g id="edge5" class="edge">
<title>Node3_1&#45;&gt;Node14_1</title>
<path fill="none" stroke="black" d="M695.8,-296.13C652.35,-307.66 590.89,-322.43 536,-330 443.44,-342.76 418.53,-327 326,-340 308.03,-342.53 288.63,-346.67 271.4,-350.87"/>
<polygon fill="black" stroke="black" points="696.87,-299.47 705.62,-293.5 695.05,-292.71 696.87,-299.47"/>
<text text-anchor="middle" x="671.5" y="-318.8" font-family="Times,serif" font-size="14.00">विशेषणम्</text>
</g>
<!-- Node12_1 -->
<g id="node9" class="node">
<title>Node12_1</title>
<ellipse fill="#ff1975" stroke="#ff1975" cx="441" cy="-453" rx="102.88" ry="18"/>
<text text-anchor="middle" x="441" y="-449.3" font-family="Times,serif" font-size="14.00">व्यराजत(12.1)</text>
</g>
<!-- Node14_1&#45;&gt;Node12_1 -->
<g id="edge17" class="edge">
<title>Node14_1&#45;&gt;Node12_1</title>
<path fill="none" stroke="black" d="M269.45,-386.02C308.91,-401.2 363.51,-422.2 400.43,-436.4"/>
<polygon fill="black" stroke="black" points="270.36,-382.62 259.77,-382.29 267.84,-389.15 270.36,-382.62"/>
<text text-anchor="middle" x="379" y="-405.8" font-family="Times,serif" font-size="14.00">कर्ता</text>
</g>
<!-- Node11_1 -->
<g id="node5" class="node">
<title>Node11_1</title>
<ellipse fill="#00bfff" stroke="#00bfff" cx="165" cy="-279" rx="149.47" ry="18"/>
<text text-anchor="middle" x="165" y="-275.3" font-family="Times,serif" font-size="14.00">प्रतिष्ठितम्(11.1)</text>
</g>
<!-- Node11_1&#45;&gt;Node14_1 -->
<g id="edge14" class="edge">
<title>Node11_1&#45;&gt;Node14_1</title>
<path fill="none" stroke="black" d="M181.66,-305.75C190.56,-319.49 201.24,-336.01 209.07,-348.11"/>
<polygon fill="black" stroke="black" points="184.5,-303.7 176.13,-297.2 178.62,-307.5 184.5,-303.7"/>
<text text-anchor="middle" x="253.5" y="-318.8" font-family="Times,serif" font-size="14.00">विशेषणम्</text>
</g>
<!-- Node9_1 -->
<g id="node6" class="node">
<title>Node9_1</title>
<ellipse fill="#c6e2eb" stroke="#c6e2eb" cx="159" cy="-105" rx="59.59" ry="18"/>
<text text-anchor="middle" x="159" y="-101.3" font-family="Times,serif" font-size="14.00">गते(9.1)</text>
</g>
<!-- Node10_2 -->
<g id="node7" class="node">
<title>Node10_2</title>
<ellipse fill="#c6e2eb" stroke="#c6e2eb" cx="165" cy="-192" rx="65.79" ry="18"/>
<text text-anchor="middle" x="165" y="-188.3" font-family="Times,serif" font-size="14.00">पथे(10.2)</text>
</g>
<!-- Node9_1&#45;&gt;Node10_2 -->
<g id="edge11" class="edge">
<title>Node9_1&#45;&gt;Node10_2</title>
<path fill="none" stroke="black" d="M160.92,-133.27C161.86,-146.58 162.97,-162.19 163.79,-173.82"/>
<polygon fill="black" stroke="black" points="164.41,-132.93 160.21,-123.2 157.43,-133.42 164.41,-132.93"/>
<text text-anchor="middle" x="220.5" y="-144.8" font-family="Times,serif" font-size="14.00">विशेषणम्</text>
</g>
<!-- Node10_2&#45;&gt;Node11_1 -->
<g id="edge13" class="edge">
<title>Node10_2&#45;&gt;Node11_1</title>
<path fill="none" stroke="black" d="M165,-220.27C165,-233.58 165,-249.19 165,-260.82"/>
<polygon fill="black" stroke="black" points="168.5,-220.2 165,-210.2 161.5,-220.2 168.5,-220.2"/>
<text text-anchor="middle" x="243.5" y="-231.8" font-family="Times,serif" font-size="14.00">देशाधिकरणम्</text>
</g>
<!-- Node15_1 -->
<g id="node8" class="node">
<title>Node15_1</title>
<ellipse fill="#00bfff" stroke="#00bfff" cx="429" cy="-366" rx="65.79" ry="18"/>
<text text-anchor="middle" x="429" y="-362.3" font-family="Times,serif" font-size="14.00">तत्(15.1)</text>
</g>
<!-- Node15_1&#45;&gt;Node12_1 -->
<g id="edge18" class="edge">
<title>Node15_1&#45;&gt;Node12_1</title>
<path fill="none" stroke="black" d="M432.85,-394.27C434.73,-407.58 436.93,-423.19 438.58,-434.82"/>
<polygon fill="black" stroke="black" points="436.29,-393.61 431.43,-384.2 429.36,-394.59 436.29,-393.61"/>
<text text-anchor="middle" x="492.5" y="-405.8" font-family="Times,serif" font-size="14.00">विशेषणम्</text>
</g>
<!-- Node2_1 -->
<g id="node10" class="node">
<title>Node2_1</title>
<ellipse fill="#ffff00" stroke="#ffff00" cx="1187" cy="-18" rx="100.18" ry="18"/>
<text text-anchor="middle" x="1187" y="-14.3" font-family="Times,serif" font-size="14.00">अप्रमेय&#45;(2.1)</text>
</g>
<!-- Node2_2 -->
<g id="node11" class="node">
<title>Node2_2</title>
<ellipse fill="#ffff00" stroke="#ffff00" cx="1187" cy="-105" rx="109.38" ry="18"/>
<text text-anchor="middle" x="1187" y="-101.3" font-family="Times,serif" font-size="14.00">प्रतिकार&#45;(2.2)</text>
</g>
<!-- Node2_1&#45;&gt;Node2_2 -->
<g id="edge2" class="edge">
<title>Node2_1&#45;&gt;Node2_2</title>
<path fill="none" stroke="black" d="M1187,-46.27C1187,-59.58 1187,-75.19 1187,-86.82"/>
<polygon fill="black" stroke="black" points="1190.5,-46.2 1187,-36.2 1183.5,-46.2 1190.5,-46.2"/>
<text text-anchor="middle" x="1251.5" y="-57.8" font-family="Times,serif" font-size="14.00">कर्मधारयः</text>
</g>
<!-- Node2_2&#45;&gt;Node2_3 -->
<g id="edge3" class="edge">
<title>Node2_2&#45;&gt;Node2_3</title>
<path fill="none" stroke="black" d="M1141.16,-126.1C1118.46,-135.71 1090.51,-147.05 1065,-156 1044.27,-163.27 1021.17,-170.31 1000.88,-176.14"/>
<polygon fill="black" stroke="black" points="1142.72,-129.24 1150.54,-122.09 1139.97,-122.8 1142.72,-129.24"/>
<text text-anchor="middle" x="1212.5" y="-144.8" font-family="Times,serif" font-size="14.00">तृतीया_तत्पुरुषः</text>
</g>
<!-- Node4_1 -->
<g id="node12" class="node">
<title>Node4_1</title>
<ellipse fill="#ff99ff" stroke="#ff99ff" cx="1402" cy="-105" rx="87.99" ry="18"/>
<text text-anchor="middle" x="1402" y="-101.3" font-family="Times,serif" font-size="14.00">स्वयम्(4.1)</text>
</g>
<!-- Node7_1 -->
<g id="node13" class="node">
<title>Node7_1</title>
<ellipse fill="#40e0d0" stroke="#40e0d0" cx="1308" cy="-192" rx="133.78" ry="18"/>
<text text-anchor="middle" x="1308" y="-188.3" font-family="Times,serif" font-size="14.00">विश्वकर्मणा(7.1)</text>
</g>
<!-- Node4_1&#45;&gt;Node7_1 -->
<g id="edge6" class="edge">
<title>Node4_1&#45;&gt;Node7_1</title>
<path fill="none" stroke="black" d="M1375.7,-129.78C1360.17,-143.83 1340.87,-161.28 1326.85,-173.95"/>
<polygon fill="black" stroke="black" points="1378.36,-132.1 1383.43,-122.79 1373.66,-126.9 1378.36,-132.1"/>
<text text-anchor="middle" x="1417.5" y="-144.8" font-family="Times,serif" font-size="14.00">सम्बन्धः</text>
</g>
<!-- Node7_1&#45;&gt;Node3_1 -->
<g id="edge9" class="edge">
<title>Node7_1&#45;&gt;Node3_1</title>
<path fill="none" stroke="black" d="M1222.02,-208.59C1163.93,-218.91 1085.46,-232.44 1016,-243 949.74,-253.08 873.84,-263.01 820.67,-269.7"/>
<polygon fill="black" stroke="black" points="1222.66,-212.03 1231.89,-206.83 1221.43,-205.14 1222.66,-212.03"/>
<text text-anchor="middle" x="1140" y="-231.8" font-family="Times,serif" font-size="14.00">कर्ता</text>
</g>
<!-- Node5_1 -->
<g id="node14" class="node">
<title>Node5_1</title>
<ellipse fill="#00bfff" stroke="#00bfff" cx="606" cy="-192" rx="69.59" ry="18"/>
<text text-anchor="middle" x="606" y="-188.3" font-family="Times,serif" font-size="14.00">साधु(5.1)</text>
</g>
<!-- Node5_1&#45;&gt;Node3_1 -->
<g id="edge7" class="edge">
<title>Node5_1&#45;&gt;Node3_1</title>
<path fill="none" stroke="black" d="M615.87,-219.19C620.26,-227.83 626.23,-236.8 634,-243 649.57,-255.42 669.43,-263.43 688.44,-268.6"/>
<polygon fill="black" stroke="black" points="619.05,-217.74 611.72,-210.1 612.69,-220.65 619.05,-217.74"/>
<text text-anchor="middle" x="691.5" y="-231.8" font-family="Times,serif" font-size="14.00">सम्बन्धः</text>
</g>
<!-- Node6_1 -->
<g id="node15" class="node">
<title>Node6_1</title>
<ellipse fill="#ff99ff" stroke="#ff99ff" cx="753" cy="-192" rx="59.59" ry="18"/>
<text text-anchor="middle" x="753" y="-188.3" font-family="Times,serif" font-size="14.00">इति(6.1)</text>
</g>
<!-- Node6_1&#45;&gt;Node3_1 -->
<g id="edge8" class="edge">
<title>Node6_1&#45;&gt;Node3_1</title>
<path fill="none" stroke="black" d="M753,-220.27C753,-233.58 753,-249.19 753,-260.82"/>
<polygon fill="black" stroke="black" points="756.5,-220.2 753,-210.2 749.5,-220.2 756.5,-220.2"/>
<text text-anchor="middle" x="810.5" y="-231.8" font-family="Times,serif" font-size="14.00">सम्बन्धः</text>
</g>
<!-- Node8_1 -->
<g id="node16" class="node">
<title>Node8_1</title>
<ellipse fill="#93db70" stroke="#93db70" cx="159" cy="-18" rx="78.79" ry="18"/>
<text text-anchor="middle" x="159" y="-14.3" font-family="Times,serif" font-size="14.00">दिवम्(8.1)</text>
</g>
<!-- Node8_1&#45;&gt;Node9_1 -->
<g id="edge10" class="edge">
<title>Node8_1&#45;&gt;Node9_1</title>
<path fill="none" stroke="black" d="M159,-46.27C159,-59.58 159,-75.19 159,-86.82"/>
<polygon fill="black" stroke="black" points="162.5,-46.2 159,-36.2 155.5,-46.2 162.5,-46.2"/>
<text text-anchor="middle" x="188" y="-57.8" font-family="Times,serif" font-size="14.00">कर्म</text>
</g>
<!-- Node10_1 -->
<g id="node17" class="node">
<title>Node10_1</title>
<ellipse fill="#ffff00" stroke="#ffff00" cx="326" cy="-105" rx="77.99" ry="18"/>
<text text-anchor="middle" x="326" y="-101.3" font-family="Times,serif" font-size="14.00">वायु&#45;(10.1)</text>
</g>
<!-- Node10_1&#45;&gt;Node10_2 -->
<g id="edge12" class="edge">
<title>Node10_1&#45;&gt;Node10_2</title>
<path fill="none" stroke="black" d="M308.62,-131.05C301.31,-140.02 292.14,-149.5 282,-156 262.99,-168.18 239.55,-176.29 218.65,-181.6"/>
<polygon fill="black" stroke="black" points="311.45,-133.12 314.79,-123.07 305.91,-128.84 311.45,-133.12"/>
<text text-anchor="middle" x="402.5" y="-144.8" font-family="Times,serif" font-size="14.00">षष्ठी_तत्पुरुषः</text>
</g>
<!-- Node13_1 -->
<g id="node18" class="node">
<title>Node13_1</title>
<ellipse fill="#ffff00" stroke="#ffff00" cx="381" cy="-192" rx="96.68" ry="18"/>
<text text-anchor="middle" x="381" y="-188.3" font-family="Times,serif" font-size="14.00">आदित्य&#45;(13.1)</text>
</g>
<!-- Node13_2 -->
<g id="node19" class="node">
<title>Node13_2</title>
<ellipse fill="#87ceeb" stroke="#87ceeb" cx="417" cy="-279" rx="84.49" ry="18"/>
<text text-anchor="middle" x="417" y="-275.3" font-family="Times,serif" font-size="14.00">पथस्य(13.2)</text>
</g>
<!-- Node13_1&#45;&gt;Node13_2 -->
<g id="edge15" class="edge">
<title>Node13_1&#45;&gt;Node13_2</title>
<path fill="none" stroke="black" d="M377.86,-220.52C377.98,-228.05 379.04,-236.05 382,-243 384.96,-249.96 390.03,-256.27 395.39,-261.55"/>
<polygon fill="black" stroke="black" points="381.37,-220.45 378.23,-210.33 374.37,-220.2 381.37,-220.45"/>
<text text-anchor="middle" x="485.5" y="-231.8" font-family="Times,serif" font-size="14.00">षष्ठी_तत्पुरुषः</text>
</g>
<!-- Node13_2&#45;&gt;Node14_1 -->
<g id="edge16" class="edge">
<title>Node13_2&#45;&gt;Node14_1</title>
<path fill="none" stroke="black" d="M377.47,-300.55C358.74,-309.99 335.94,-321.04 315,-330 298.52,-337.05 280.09,-344.04 263.88,-349.9"/>
<polygon fill="black" stroke="black" points="379.25,-303.58 386.58,-295.93 376.08,-297.33 379.25,-303.58"/>
<text text-anchor="middle" x="439" y="-318.8" font-family="Times,serif" font-size="14.00">षष्ठीसम्बन्धः</text>
</g>
</g>
</svg>
