<?xml version="1.0" encoding="UTF-8" standalone="no"?>
<!DOCTYPE svg PUBLIC "-//W3C//DTD SVG 1.1//EN"
 "http://www.w3.org/Graphics/SVG/1.1/DTD/svg11.dtd">
<!-- Generated by graphviz version 2.43.0 (0)
 -->
<!-- Title: G Pages: 1 -->
<svg width="1154pt" height="392pt"
 viewBox="0.00 0.00 1153.59 392.00" xmlns="http://www.w3.org/2000/svg" xmlns:xlink="http://www.w3.org/1999/xlink">
<g id="graph0" class="graph" transform="scale(1 1) rotate(0) translate(4 388)">
<title>G</title>
<polygon fill="#fffacd" stroke="transparent" points="-4,4 -4,-388 1149.59,-388 1149.59,4 -4,4"/>
<g id="clust1" class="cluster">
<title>cluster_1</title>
<polygon fill="#fffacd" stroke="black" points="286.59,-166 286.59,-305 920.59,-305 920.59,-166 286.59,-166"/>
</g>
<!-- Node3_2 -->
<g id="node1" class="node">
<title>Node3_2</title>
<ellipse fill="#93db70" stroke="#93db70" cx="382.59" cy="-192" rx="87.99" ry="18"/>
<text text-anchor="middle" x="382.59" y="-188.3" font-family="Times,serif" font-size="14.00">आसीनम्(3.2)</text>
</g>
<!-- Node6_1 -->
<g id="node2" class="node">
<title>Node6_1</title>
<ellipse fill="#93db70" stroke="#93db70" cx="394.59" cy="-279" rx="96.68" ry="18"/>
<text text-anchor="middle" x="394.59" y="-275.3" font-family="Times,serif" font-size="14.00">सहस्रम्(6.1)</text>
</g>
<!-- Node3_2&#45;&gt;Node6_1 -->
<g id="edge3" class="edge">
<title>Node3_2&#45;&gt;Node6_1</title>
<path fill="none" stroke="black" d="M386.44,-220.27C388.32,-233.58 390.52,-249.19 392.17,-260.82"/>
<polygon fill="black" stroke="black" points="389.88,-219.61 385.02,-210.2 382.95,-220.59 389.88,-219.61"/>
<text text-anchor="middle" x="446.09" y="-231.8" font-family="Times,serif" font-size="14.00">विशेषणम्</text>
</g>
<!-- Node2_1 -->
<g id="node6" class="node">
<title>Node2_1</title>
<ellipse fill="#ff1975" stroke="#ff1975" cx="304.59" cy="-366" rx="96.68" ry="18"/>
<text text-anchor="middle" x="304.59" y="-362.3" font-family="Times,serif" font-size="14.00">अपश्यत्(2.1)</text>
</g>
<!-- Node6_1&#45;&gt;Node2_1 -->
<g id="edge8" class="edge">
<title>Node6_1&#45;&gt;Node2_1</title>
<path fill="none" stroke="black" d="M386.63,-306.97C383.27,-315.07 378.69,-323.52 372.59,-330 365.04,-338.03 355.24,-344.53 345.44,-349.65"/>
<polygon fill="black" stroke="black" points="389.98,-308.01 390.14,-297.41 383.41,-305.59 389.98,-308.01"/>
<text text-anchor="middle" x="411.59" y="-318.8" font-family="Times,serif" font-size="14.00">कर्म</text>
</g>
<!-- Node5_3 -->
<g id="node3" class="node">
<title>Node5_3</title>
<ellipse fill="#93db70" stroke="#93db70" cx="575.59" cy="-192" rx="87.99" ry="18"/>
<text text-anchor="middle" x="575.59" y="-188.3" font-family="Times,serif" font-size="14.00">स्रजम्(5.3)</text>
</g>
<!-- Node5_3&#45;&gt;Node6_1 -->
<g id="edge7" class="edge">
<title>Node5_3&#45;&gt;Node6_1</title>
<path fill="none" stroke="black" d="M548.67,-216.03C536.69,-225.39 522.05,-235.71 507.59,-243 490.08,-251.83 469.91,-258.95 451.5,-264.39"/>
<polygon fill="black" stroke="black" points="550.89,-218.73 556.5,-209.74 546.51,-213.27 550.89,-218.73"/>
<text text-anchor="middle" x="588.09" y="-231.8" font-family="Times,serif" font-size="14.00">विशेषणम्</text>
</g>
<!-- Node8_3 -->
<g id="node4" class="node">
<title>Node8_3</title>
<ellipse fill="#93db70" stroke="#93db70" cx="796.59" cy="-192" rx="115.88" ry="18"/>
<text text-anchor="middle" x="796.59" y="-188.3" font-family="Times,serif" font-size="14.00">विभूषितम्(8.3)</text>
</g>
<!-- Node8_3&#45;&gt;Node6_1 -->
<g id="edge13" class="edge">
<title>Node8_3&#45;&gt;Node6_1</title>
<path fill="none" stroke="black" d="M747.03,-212.51C718.85,-222.93 682.68,-235.18 649.59,-243 593.82,-256.18 529.93,-264.94 480.05,-270.4"/>
<polygon fill="black" stroke="black" points="748.5,-215.69 756.64,-208.91 746.05,-209.14 748.5,-215.69"/>
<text text-anchor="middle" x="756.09" y="-231.8" font-family="Times,serif" font-size="14.00">विशेषणम्</text>
</g>
<!-- Node1_1 -->
<g id="node5" class="node">
<title>Node1_1</title>
<ellipse fill="#ff99ff" stroke="#ff99ff" cx="214.59" cy="-279" rx="59.59" ry="18"/>
<text text-anchor="middle" x="214.59" y="-275.3" font-family="Times,serif" font-size="14.00">ततः(1.1)</text>
</g>
<!-- Node1_1&#45;&gt;Node2_1 -->
<g id="edge1" class="edge">
<title>Node1_1&#45;&gt;Node2_1</title>
<path fill="none" stroke="black" d="M209.68,-307.25C209.62,-315.18 211.04,-323.46 215.59,-330 222.42,-339.81 232.45,-346.87 243.33,-351.95"/>
<polygon fill="black" stroke="black" points="213.17,-307.45 210.46,-297.21 206.19,-306.91 213.17,-307.45"/>
<text text-anchor="middle" x="294.09" y="-318.8" font-family="Times,serif" font-size="14.00">कालाधिकरणम्</text>
</g>
<!-- Node3_1 -->
<g id="node7" class="node">
<title>Node3_1</title>
<ellipse fill="#ffff00" stroke="#ffff00" cx="226.59" cy="-105" rx="63.09" ry="18"/>
<text text-anchor="middle" x="226.59" y="-101.3" font-family="Times,serif" font-size="14.00">कुथ&#45;(3.1)</text>
</g>
<!-- Node3_1&#45;&gt;Node3_2 -->
<g id="edge2" class="edge">
<title>Node3_1&#45;&gt;Node3_2</title>
<path fill="none" stroke="black" d="M225.38,-133.4C226.38,-141.56 228.95,-149.93 234.59,-156 245.33,-167.56 278.29,-175.95 310.39,-181.62"/>
<polygon fill="black" stroke="black" points="228.88,-133.16 224.85,-123.36 221.89,-133.54 228.88,-133.16"/>
<text text-anchor="middle" x="345.09" y="-144.8" font-family="Times,serif" font-size="14.00">सप्तमी_तत्पुरुषः</text>
</g>
<!-- Node4_1 -->
<g id="node8" class="node">
<title>Node4_1</title>
<ellipse fill="#ff99ff" stroke="#ff99ff" cx="448.59" cy="-105" rx="69.59" ry="18"/>
<text text-anchor="middle" x="448.59" y="-101.3" font-family="Times,serif" font-size="14.00">नाना(4.1)</text>
</g>
<!-- Node4_1&#45;&gt;Node5_3 -->
<g id="edge4" class="edge">
<title>Node4_1&#45;&gt;Node5_3</title>
<path fill="none" stroke="black" d="M455.71,-132.91C459.05,-141.25 463.84,-149.85 470.59,-156 482.38,-166.74 497.56,-174.2 512.7,-179.37"/>
<polygon fill="black" stroke="black" points="459,-131.71 452.42,-123.41 452.39,-134.01 459,-131.71"/>
<text text-anchor="middle" x="528.09" y="-144.8" font-family="Times,serif" font-size="14.00">सम्बन्धः</text>
</g>
<!-- Node5_1 -->
<g id="node9" class="node">
<title>Node5_1</title>
<ellipse fill="#ffff00" stroke="#ffff00" cx="608.59" cy="-105" rx="72.29" ry="18"/>
<text text-anchor="middle" x="608.59" y="-101.3" font-family="Times,serif" font-size="14.00">वर्ण&#45;(5.1)</text>
</g>
<!-- Node5_1&#45;&gt;Node5_3 -->
<g id="edge5" class="edge">
<title>Node5_1&#45;&gt;Node5_3</title>
<path fill="none" stroke="black" d="M598.16,-132.87C592.96,-146.27 586.82,-162.08 582.26,-173.82"/>
<polygon fill="black" stroke="black" points="601.56,-133.79 601.91,-123.2 595.03,-131.26 601.56,-133.79"/>
<text text-anchor="middle" x="665.09" y="-144.8" font-family="Times,serif" font-size="14.00">बहुव्रीहिः</text>
</g>
<!-- Node5_2 -->
<g id="node10" class="node">
<title>Node5_2</title>
<ellipse fill="#ffff00" stroke="#ffff00" cx="779.59" cy="-105" rx="81.49" ry="18"/>
<text text-anchor="middle" x="779.59" y="-101.3" font-family="Times,serif" font-size="14.00">अम्बर&#45;(5.2)</text>
</g>
<!-- Node5_2&#45;&gt;Node5_3 -->
<g id="edge6" class="edge">
<title>Node5_2&#45;&gt;Node5_3</title>
<path fill="none" stroke="black" d="M765.25,-131.72C758.88,-140.82 750.55,-150.22 740.59,-156 713.79,-171.56 701.96,-159.86 671.59,-166 656.4,-169.07 640.02,-173.07 625.17,-176.97"/>
<polygon fill="black" stroke="black" points="768.25,-133.51 770.74,-123.21 762.38,-129.71 768.25,-133.51"/>
<text text-anchor="middle" x="821.09" y="-144.8" font-family="Times,serif" font-size="14.00">द्वन्द्वः</text>
</g>
<!-- Node7_1 -->
<g id="node11" class="node">
<title>Node7_1</title>
<ellipse fill="#ffff00" stroke="#ffff00" cx="74.59" cy="-105" rx="53.89" ry="18"/>
<text text-anchor="middle" x="74.59" y="-101.3" font-family="Times,serif" font-size="14.00">वर&#45;(7.1)</text>
</g>
<!-- Node7_2 -->
<g id="node12" class="node">
<title>Node7_2</title>
<ellipse fill="#87ceeb" stroke="#87ceeb" cx="106.59" cy="-192" rx="106.68" ry="18"/>
<text text-anchor="middle" x="106.59" y="-188.3" font-family="Times,serif" font-size="14.00">नारीणाम्(7.2)</text>
</g>
<!-- Node7_1&#45;&gt;Node7_2 -->
<g id="edge9" class="edge">
<title>Node7_1&#45;&gt;Node7_2</title>
<path fill="none" stroke="black" d="M71.73,-133.4C71.85,-140.94 72.84,-148.96 75.59,-156 78.19,-162.65 82.67,-168.87 87.42,-174.16"/>
<polygon fill="black" stroke="black" points="75.23,-133.34 72.06,-123.24 68.24,-133.12 75.23,-133.34"/>
<text text-anchor="middle" x="140.09" y="-144.8" font-family="Times,serif" font-size="14.00">कर्मधारयः</text>
</g>
<!-- Node7_2&#45;&gt;Node6_1 -->
<g id="edge10" class="edge">
<title>Node7_2&#45;&gt;Node6_1</title>
<path fill="none" stroke="black" d="M140.23,-214.94C156.88,-224.88 177.65,-235.97 197.59,-243 209.61,-247.24 272.58,-258.12 324.15,-266.63"/>
<polygon fill="black" stroke="black" points="141.79,-211.79 131.43,-209.56 138.14,-217.76 141.79,-211.79"/>
<text text-anchor="middle" x="290.59" y="-231.8" font-family="Times,serif" font-size="14.00">षष्ठीसम्बन्धः</text>
</g>
<!-- Node8_1 -->
<g id="node13" class="node">
<title>Node8_1</title>
<ellipse fill="#ffff00" stroke="#ffff00" cx="941.59" cy="-18" rx="72.29" ry="18"/>
<text text-anchor="middle" x="941.59" y="-14.3" font-family="Times,serif" font-size="14.00">नाना&#45;(8.1)</text>
</g>
<!-- Node8_2 -->
<g id="node14" class="node">
<title>Node8_2</title>
<ellipse fill="#ffff00" stroke="#ffff00" cx="941.59" cy="-105" rx="63.09" ry="18"/>
<text text-anchor="middle" x="941.59" y="-101.3" font-family="Times,serif" font-size="14.00">वेष&#45;(8.2)</text>
</g>
<!-- Node8_1&#45;&gt;Node8_2 -->
<g id="edge11" class="edge">
<title>Node8_1&#45;&gt;Node8_2</title>
<path fill="none" stroke="black" d="M941.59,-46.27C941.59,-59.58 941.59,-75.19 941.59,-86.82"/>
<polygon fill="black" stroke="black" points="945.09,-46.2 941.59,-36.2 938.09,-46.2 945.09,-46.2"/>
<text text-anchor="middle" x="1013.09" y="-57.8" font-family="Times,serif" font-size="14.00">बहुव्रीहिः</text>
</g>
<!-- Node8_2&#45;&gt;Node8_3 -->
<g id="edge12" class="edge">
<title>Node8_2&#45;&gt;Node8_3</title>
<path fill="none" stroke="black" d="M931.16,-132.17C926.59,-140.81 920.45,-149.78 912.59,-156 900.13,-165.85 884.93,-172.94 869.69,-178.03"/>
<polygon fill="black" stroke="black" points="934.35,-133.61 935.5,-123.08 928.03,-130.59 934.35,-133.61"/>
<text text-anchor="middle" x="1035.09" y="-144.8" font-family="Times,serif" font-size="14.00">तृतीया_तत्पुरुषः</text>
</g>
</g>
</svg>
