<?xml version="1.0" encoding="UTF-8" standalone="no"?>
<!DOCTYPE svg PUBLIC "-//W3C//DTD SVG 1.1//EN"
 "http://www.w3.org/Graphics/SVG/1.1/DTD/svg11.dtd">
<!-- Generated by graphviz version 2.43.0 (0)
 -->
<!-- Title: G Pages: 1 -->
<svg width="3502pt" height="408pt"
 viewBox="0.00 0.00 3502.00 408.00" xmlns="http://www.w3.org/2000/svg" xmlns:xlink="http://www.w3.org/1999/xlink">
<g id="graph0" class="graph" transform="scale(1 1) rotate(0) translate(4 404)">
<title>G</title>
<polygon fill="#fffacd" stroke="transparent" points="-4,4 -4,-404 3498,-404 3498,4 -4,4"/>
<g id="clust1" class="cluster">
<title>cluster_1</title>
<polygon fill="#fffacd" stroke="black" points="8,-95 8,-234 574,-234 574,-95 8,-95"/>
</g>
<g id="clust2" class="cluster">
<title>cluster_2</title>
<polygon fill="#fffacd" stroke="black" points="2614,-182 2614,-321 3378,-321 3378,-182 2614,-182"/>
</g>
<g id="clust3" class="cluster">
<title>cluster_3</title>
<polygon fill="#fffacd" stroke="black" points="2139,-8 2139,-147 2313,-147 2313,-8 2139,-8"/>
</g>
<g id="clust4" class="cluster">
<title>cluster_4</title>
<polygon fill="#fffacd" stroke="black" points="2321,-95 2321,-234 2581,-234 2581,-95 2321,-95"/>
</g>
<g id="clust5" class="cluster">
<title>cluster_5</title>
<polygon fill="#fffacd" stroke="black" points="582,-95 582,-234 822,-234 822,-95 582,-95"/>
</g>
<g id="clust6" class="cluster">
<title>cluster_6</title>
<polygon fill="#fffacd" stroke="black" points="830,-8 830,-147 1052,-147 1052,-8 830,-8"/>
</g>
<!-- Node1_1 -->
<g id="node1" class="node">
<title>Node1_1</title>
<ellipse fill="#00bfff" stroke="#00bfff" cx="459" cy="-121" rx="106.68" ry="18"/>
<text text-anchor="middle" x="459" y="-117.3" font-family="Times,serif" font-size="14.00">तत्रस्थः(1.1)</text>
</g>
<!-- Node14_1 -->
<g id="node2" class="node">
<title>Node14_1</title>
<ellipse fill="#00bfff" stroke="#00bfff" cx="364" cy="-208" rx="84.49" ry="18"/>
<text text-anchor="middle" x="364" y="-204.3" font-family="Times,serif" font-size="14.00">गन्धः(14.1)</text>
</g>
<!-- Node1_1&#45;&gt;Node14_1 -->
<g id="edge1" class="edge">
<title>Node1_1&#45;&gt;Node14_1</title>
<path fill="none" stroke="black" d="M442.12,-147.12C435.76,-155.57 428.1,-164.7 420,-172 412.16,-179.06 402.73,-185.57 393.85,-191.01"/>
<polygon fill="black" stroke="black" points="444.98,-149.13 448.01,-138.98 439.31,-145.03 444.98,-149.13"/>
<text text-anchor="middle" x="491.5" y="-160.8" font-family="Times,serif" font-size="14.00">विशेषणम्</text>
</g>
<!-- Node24_1 -->
<g id="node24" class="node">
<title>Node24_1</title>
<ellipse fill="#ff1975" stroke="#ff1975" cx="945" cy="-295" rx="75.29" ry="18"/>
<text text-anchor="middle" x="945" y="-291.3" font-family="Times,serif" font-size="14.00">उवाच(24.1)</text>
</g>
<!-- Node14_1&#45;&gt;Node24_1 -->
<g id="edge16" class="edge">
<title>Node14_1&#45;&gt;Node24_1</title>
<path fill="none" stroke="black" d="M441.41,-220.33C557.76,-237.35 775.47,-269.2 882.43,-284.85"/>
<polygon fill="black" stroke="black" points="441.9,-216.86 431.5,-218.88 440.89,-223.79 441.9,-216.86"/>
<text text-anchor="middle" x="726" y="-247.8" font-family="Times,serif" font-size="14.00">कर्ता</text>
</g>
<!-- Node13_1 -->
<g id="node3" class="node">
<title>Node13_1</title>
<ellipse fill="#00bfff" stroke="#00bfff" cx="278" cy="-121" rx="56.59" ry="18"/>
<text text-anchor="middle" x="278" y="-117.3" font-family="Times,serif" font-size="14.00">सः(13.1)</text>
</g>
<!-- Node13_1&#45;&gt;Node14_1 -->
<g id="edge15" class="edge">
<title>Node13_1&#45;&gt;Node14_1</title>
<path fill="none" stroke="black" d="M288.92,-148.47C293.13,-156.64 298.52,-165.25 305,-172 312.26,-179.56 321.5,-186.06 330.5,-191.33"/>
<polygon fill="black" stroke="black" points="291.98,-146.74 284.52,-139.22 285.65,-149.75 291.98,-146.74"/>
<text text-anchor="middle" x="362.5" y="-160.8" font-family="Times,serif" font-size="14.00">विशेषणम्</text>
</g>
<!-- Node17_1 -->
<g id="node4" class="node">
<title>Node17_1</title>
<ellipse fill="#00bfff" stroke="#00bfff" cx="110" cy="-121" rx="93.68" ry="18"/>
<text text-anchor="middle" x="110" y="-117.3" font-family="Times,serif" font-size="14.00">बन्धुः(17.1)</text>
</g>
<!-- Node17_1&#45;&gt;Node14_1 -->
<g id="edge20" class="edge">
<title>Node17_1&#45;&gt;Node14_1</title>
<path fill="none" stroke="black" d="M134.78,-145.54C146.21,-155.15 160.46,-165.52 175,-172 209.75,-187.49 251.02,-196.13 286.13,-200.94"/>
<polygon fill="black" stroke="black" points="136.83,-142.68 126.99,-138.74 132.22,-147.95 136.83,-142.68"/>
<text text-anchor="middle" x="232.5" y="-160.8" font-family="Times,serif" font-size="14.00">विशेषणम्</text>
</g>
<!-- Node4_4 -->
<g id="node5" class="node">
<title>Node4_4</title>
<ellipse fill="#93db70" stroke="#93db70" cx="3273" cy="-208" rx="96.68" ry="18"/>
<text text-anchor="middle" x="3273" y="-204.3" font-family="Times,serif" font-size="14.00">सम्भवम्(4.4)</text>
</g>
<!-- Node3_1 -->
<g id="node6" class="node">
<title>Node3_1</title>
<ellipse fill="#93db70" stroke="#93db70" cx="2884" cy="-295" rx="87.99" ry="18"/>
<text text-anchor="middle" x="2884" y="-291.3" font-family="Times,serif" font-size="14.00">गन्धम्(3.1)</text>
</g>
<!-- Node4_4&#45;&gt;Node3_1 -->
<g id="edge7" class="edge">
<title>Node4_4&#45;&gt;Node3_1</title>
<path fill="none" stroke="black" d="M3218.7,-227.15C3186.03,-237.57 3143.46,-250.27 3105,-259 3056.04,-270.11 3000.18,-278.93 2956.87,-284.93"/>
<polygon fill="black" stroke="black" points="3220.06,-230.39 3228.5,-224 3217.91,-223.73 3220.06,-230.39"/>
<text text-anchor="middle" x="3217.5" y="-247.8" font-family="Times,serif" font-size="14.00">विशेषणम्</text>
</g>
<!-- Node9_1 -->
<g id="node18" class="node">
<title>Node9_1</title>
<ellipse fill="#ff1975" stroke="#ff1975" cx="2884" cy="-382" rx="141.07" ry="18"/>
<text text-anchor="middle" x="2884" y="-378.3" font-family="Times,serif" font-size="14.00">जिघ्रत्(आर्ष)(9.1)</text>
</g>
<!-- Node3_1&#45;&gt;Node9_1 -->
<g id="edge3" class="edge">
<title>Node3_1&#45;&gt;Node9_1</title>
<path fill="none" stroke="black" d="M2884,-323.27C2884,-336.58 2884,-352.19 2884,-363.82"/>
<polygon fill="black" stroke="black" points="2887.5,-323.2 2884,-313.2 2880.5,-323.2 2887.5,-323.2"/>
<text text-anchor="middle" x="2913" y="-334.8" font-family="Times,serif" font-size="14.00">कर्म</text>
</g>
<!-- Node7_1 -->
<g id="node7" class="node">
<title>Node7_1</title>
<ellipse fill="#93db70" stroke="#93db70" cx="3061" cy="-208" rx="96.68" ry="18"/>
<text text-anchor="middle" x="3061" y="-204.3" font-family="Times,serif" font-size="14.00">दिव्यम्(7.1)</text>
</g>
<!-- Node7_1&#45;&gt;Node3_1 -->
<g id="edge10" class="edge">
<title>Node7_1&#45;&gt;Node3_1</title>
<path fill="none" stroke="black" d="M3018.98,-229.51C3000.33,-238.59 2978.09,-249.37 2958,-259 2944.8,-265.33 2930.24,-272.23 2917.56,-278.22"/>
<polygon fill="black" stroke="black" points="3020.65,-232.6 3028.11,-225.07 3017.58,-226.3 3020.65,-232.6"/>
<text text-anchor="middle" x="3043.5" y="-247.8" font-family="Times,serif" font-size="14.00">विशेषणम्</text>
</g>
<!-- Node8_1 -->
<g id="node8" class="node">
<title>Node8_1</title>
<ellipse fill="#93db70" stroke="#93db70" cx="2784" cy="-208" rx="161.67" ry="18"/>
<text text-anchor="middle" x="2784" y="-204.3" font-family="Times,serif" font-size="14.00">सम्मूर्च्छितम्(8.1)</text>
</g>
<!-- Node8_1&#45;&gt;Node3_1 -->
<g id="edge11" class="edge">
<title>Node8_1&#45;&gt;Node3_1</title>
<path fill="none" stroke="black" d="M2812.07,-232.86C2828.77,-247.06 2849.55,-264.72 2864.47,-277.4"/>
<polygon fill="black" stroke="black" points="2814.12,-230.01 2804.24,-226.2 2809.59,-235.34 2814.12,-230.01"/>
<text text-anchor="middle" x="2896.5" y="-247.8" font-family="Times,serif" font-size="14.00">विशेषणम्</text>
</g>
<!-- Node5_1 -->
<g id="node9" class="node">
<title>Node5_1</title>
<ellipse fill="#00bfff" stroke="#00bfff" cx="2198" cy="-34" rx="50.89" ry="18"/>
<text text-anchor="middle" x="2198" y="-30.3" font-family="Times,serif" font-size="14.00">सः(5.1)</text>
</g>
<!-- Node6_1 -->
<g id="node10" class="node">
<title>Node6_1</title>
<ellipse fill="#00bfff" stroke="#00bfff" cx="2226" cy="-121" rx="78.79" ry="18"/>
<text text-anchor="middle" x="2226" y="-117.3" font-family="Times,serif" font-size="14.00">रावणः(6.1)</text>
</g>
<!-- Node5_1&#45;&gt;Node6_1 -->
<g id="edge8" class="edge">
<title>Node5_1&#45;&gt;Node6_1</title>
<path fill="none" stroke="black" d="M2206.85,-61.87C2211.27,-75.27 2216.47,-91.08 2220.34,-102.82"/>
<polygon fill="black" stroke="black" points="2210.12,-60.6 2203.67,-52.2 2203.47,-62.79 2210.12,-60.6"/>
<text text-anchor="middle" x="2271.5" y="-73.8" font-family="Times,serif" font-size="14.00">विशेषणम्</text>
</g>
<!-- Node28_1 -->
<g id="node22" class="node">
<title>Node28_1</title>
<ellipse fill="#ff1975" stroke="#ff1975" cx="1963" cy="-208" rx="90.98" ry="18"/>
<text text-anchor="middle" x="1963" y="-204.3" font-family="Times,serif" font-size="14.00">(अस्ति)(28.1)</text>
</g>
<!-- Node6_1&#45;&gt;Node28_1 -->
<g id="edge9" class="edge">
<title>Node6_1&#45;&gt;Node28_1</title>
<path fill="none" stroke="black" d="M2195.82,-144.28C2181.15,-154.13 2162.85,-165.04 2145,-172 2111.87,-184.91 2073.43,-193.19 2040.44,-198.44"/>
<polygon fill="black" stroke="black" points="2198.21,-146.88 2204.46,-138.32 2194.24,-141.12 2198.21,-146.88"/>
<text text-anchor="middle" x="2212" y="-160.8" font-family="Times,serif" font-size="14.00">कर्ता</text>
</g>
<!-- Node10_1 -->
<g id="node11" class="node">
<title>Node10_1</title>
<ellipse fill="#93db70" stroke="#93db70" cx="2451" cy="-121" rx="121.58" ry="18"/>
<text text-anchor="middle" x="2451" y="-117.3" font-family="Times,serif" font-size="14.00">रूपवन्तम्(10.1)</text>
</g>
<!-- Node12_1 -->
<g id="node12" class="node">
<title>Node12_1</title>
<ellipse fill="#93db70" stroke="#93db70" cx="2479" cy="-208" rx="93.68" ry="18"/>
<text text-anchor="middle" x="2479" y="-204.3" font-family="Times,serif" font-size="14.00">अनिलम्(12.1)</text>
</g>
<!-- Node10_1&#45;&gt;Node12_1 -->
<g id="edge12" class="edge">
<title>Node10_1&#45;&gt;Node12_1</title>
<path fill="none" stroke="black" d="M2459.85,-148.87C2464.27,-162.27 2469.47,-178.08 2473.34,-189.82"/>
<polygon fill="black" stroke="black" points="2463.12,-147.6 2456.67,-139.2 2456.47,-149.79 2463.12,-147.6"/>
<text text-anchor="middle" x="2524.5" y="-160.8" font-family="Times,serif" font-size="14.00">विशेषणम्</text>
</g>
<!-- Node12_1&#45;&gt;Node3_1 -->
<g id="edge14" class="edge">
<title>Node12_1&#45;&gt;Node3_1</title>
<path fill="none" stroke="black" d="M2549.86,-223.87C2627.89,-240.25 2751.95,-266.29 2824.93,-281.6"/>
<polygon fill="black" stroke="black" points="2550.14,-220.35 2539.63,-221.73 2548.7,-227.2 2550.14,-220.35"/>
<text text-anchor="middle" x="2755" y="-247.8" font-family="Times,serif" font-size="14.00">उपमानम्</text>
</g>
<!-- Node15_1 -->
<g id="node13" class="node">
<title>Node15_1</title>
<ellipse fill="#93db70" stroke="#93db70" cx="699" cy="-121" rx="65.79" ry="18"/>
<text text-anchor="middle" x="699" y="-117.3" font-family="Times,serif" font-size="14.00">तम्(15.1)</text>
</g>
<!-- Node16_2 -->
<g id="node14" class="node">
<title>Node16_2</title>
<ellipse fill="#93db70" stroke="#93db70" cx="702" cy="-208" rx="112.38" ry="18"/>
<text text-anchor="middle" x="702" y="-204.3" font-family="Times,serif" font-size="14.00">सत्त्वम्(16.2)</text>
</g>
<!-- Node15_1&#45;&gt;Node16_2 -->
<g id="edge17" class="edge">
<title>Node15_1&#45;&gt;Node16_2</title>
<path fill="none" stroke="black" d="M699.96,-149.27C700.43,-162.58 700.98,-178.19 701.39,-189.82"/>
<polygon fill="black" stroke="black" points="703.46,-149.07 699.61,-139.2 696.46,-149.32 703.46,-149.07"/>
<text text-anchor="middle" x="758.5" y="-160.8" font-family="Times,serif" font-size="14.00">विशेषणम्</text>
</g>
<!-- Node16_2&#45;&gt;Node24_1 -->
<g id="edge19" class="edge">
<title>Node16_2&#45;&gt;Node24_1</title>
<path fill="none" stroke="black" d="M756.14,-227.94C800.97,-243.62 863.71,-265.56 904.35,-279.78"/>
<polygon fill="black" stroke="black" points="757.16,-224.59 746.57,-224.59 754.85,-231.2 757.16,-224.59"/>
<text text-anchor="middle" x="868" y="-247.8" font-family="Times,serif" font-size="14.00">कर्म</text>
</g>
<!-- Node20_1 -->
<g id="node15" class="node">
<title>Node20_1</title>
<ellipse fill="#93db70" stroke="#93db70" cx="941" cy="-34" rx="102.88" ry="18"/>
<text text-anchor="middle" x="941" y="-30.3" font-family="Times,serif" font-size="14.00">उत्तमम्(20.1)</text>
</g>
<!-- Node18_1 -->
<g id="node16" class="node">
<title>Node18_1</title>
<ellipse fill="#93db70" stroke="#93db70" cx="941" cy="-121" rx="102.88" ry="18"/>
<text text-anchor="middle" x="941" y="-117.3" font-family="Times,serif" font-size="14.00">बन्धुम्(18.1)</text>
</g>
<!-- Node20_1&#45;&gt;Node18_1 -->
<g id="edge23" class="edge">
<title>Node20_1&#45;&gt;Node18_1</title>
<path fill="none" stroke="black" d="M941,-62.27C941,-75.58 941,-91.19 941,-102.82"/>
<polygon fill="black" stroke="black" points="944.5,-62.2 941,-52.2 937.5,-62.2 944.5,-62.2"/>
<text text-anchor="middle" x="998.5" y="-73.8" font-family="Times,serif" font-size="14.00">विशेषणम्</text>
</g>
<!-- Node18_1&#45;&gt;Node16_2 -->
<g id="edge21" class="edge">
<title>Node18_1&#45;&gt;Node16_2</title>
<path fill="none" stroke="black" d="M895.79,-141.99C873.23,-151.62 845.41,-163.01 820,-172 799.35,-179.31 776.32,-186.37 756.13,-192.22"/>
<polygon fill="black" stroke="black" points="897.31,-145.14 905.11,-137.98 894.54,-138.71 897.31,-145.14"/>
<text text-anchor="middle" x="908" y="-160.8" font-family="Times,serif" font-size="14.00">उपमानम्</text>
</g>
<!-- Node2_1 -->
<g id="node17" class="node">
<title>Node2_1</title>
<ellipse fill="#ff99ff" stroke="#ff99ff" cx="2828" cy="-121" rx="87.99" ry="18"/>
<text text-anchor="middle" x="2828" y="-117.3" font-family="Times,serif" font-size="14.00">सर्वतः(2.1)</text>
</g>
<!-- Node2_1&#45;&gt;Node8_1 -->
<g id="edge2" class="edge">
<title>Node2_1&#45;&gt;Node8_1</title>
<path fill="none" stroke="black" d="M2817.29,-148.3C2813.91,-156.04 2810,-164.46 2806,-172 2802.84,-177.96 2799.03,-184.26 2795.48,-189.85"/>
<polygon fill="black" stroke="black" points="2820.57,-149.53 2821.27,-138.96 2814.13,-146.79 2820.57,-149.53"/>
<text text-anchor="middle" x="2891.5" y="-160.8" font-family="Times,serif" font-size="14.00">देशाधिकरणम्</text>
</g>
<!-- Node4_1 -->
<g id="node19" class="node">
<title>Node4_1</title>
<ellipse fill="#ffff00" stroke="#ffff00" cx="3187" cy="-34" rx="63.09" ry="18"/>
<text text-anchor="middle" x="3187" y="-30.3" font-family="Times,serif" font-size="14.00">पान&#45;(4.1)</text>
</g>
<!-- Node4_3 -->
<g id="node20" class="node">
<title>Node4_3</title>
<ellipse fill="#ffff00" stroke="#ffff00" cx="3273" cy="-121" rx="72.29" ry="18"/>
<text text-anchor="middle" x="3273" y="-117.3" font-family="Times,serif" font-size="14.00">अन्न&#45;(4.3)</text>
</g>
<!-- Node4_1&#45;&gt;Node4_3 -->
<g id="edge4" class="edge">
<title>Node4_1&#45;&gt;Node4_3</title>
<path fill="none" stroke="black" d="M3194.45,-61.9C3197.65,-69.99 3202.06,-78.46 3208,-85 3215.67,-93.44 3225.86,-100.25 3235.9,-105.53"/>
<polygon fill="black" stroke="black" points="3197.72,-60.64 3191.13,-52.35 3191.11,-62.95 3197.72,-60.64"/>
<text text-anchor="middle" x="3272.5" y="-73.8" font-family="Times,serif" font-size="14.00">द्वन्द्वः</text>
</g>
<!-- Node4_3&#45;&gt;Node4_4 -->
<g id="edge6" class="edge">
<title>Node4_3&#45;&gt;Node4_4</title>
<path fill="none" stroke="black" d="M3273,-149.27C3273,-162.58 3273,-178.19 3273,-189.82"/>
<polygon fill="black" stroke="black" points="3276.5,-149.2 3273,-139.2 3269.5,-149.2 3276.5,-149.2"/>
<text text-anchor="middle" x="3383.5" y="-160.8" font-family="Times,serif" font-size="14.00">तृतीया_तत्पुरुषः</text>
</g>
<!-- Node4_2 -->
<g id="node21" class="node">
<title>Node4_2</title>
<ellipse fill="#ffff00" stroke="#ffff00" cx="3359" cy="-34" rx="90.98" ry="18"/>
<text text-anchor="middle" x="3359" y="-30.3" font-family="Times,serif" font-size="14.00">भक्ष्य&#45;(4.2)</text>
</g>
<!-- Node4_2&#45;&gt;Node4_3 -->
<g id="edge5" class="edge">
<title>Node4_2&#45;&gt;Node4_3</title>
<path fill="none" stroke="black" d="M3350.94,-61.88C3347.58,-69.97 3343.02,-78.44 3337,-85 3329.38,-93.3 3319.32,-100.07 3309.44,-105.35"/>
<polygon fill="black" stroke="black" points="3354.29,-62.93 3354.47,-52.34 3347.72,-60.5 3354.29,-62.93"/>
<text text-anchor="middle" x="3411.5" y="-73.8" font-family="Times,serif" font-size="14.00">द्वन्द्वः</text>
</g>
<!-- Node11_1 -->
<g id="node23" class="node">
<title>Node11_1</title>
<ellipse fill="#ff99ff" stroke="#ff99ff" cx="2647" cy="-121" rx="56.59" ry="18"/>
<text text-anchor="middle" x="2647" y="-117.3" font-family="Times,serif" font-size="14.00">इव(11.1)</text>
</g>
<!-- Node11_1&#45;&gt;Node12_1 -->
<g id="edge13" class="edge">
<title>Node11_1&#45;&gt;Node12_1</title>
<path fill="none" stroke="black" d="M2622.99,-145.18C2612.32,-154.52 2599.2,-164.76 2586,-172 2569.8,-180.88 2550.98,-187.97 2533.69,-193.39"/>
<polygon fill="black" stroke="black" points="2625.55,-147.59 2630.63,-138.29 2620.86,-142.39 2625.55,-147.59"/>
<text text-anchor="middle" x="2696" y="-160.8" font-family="Times,serif" font-size="14.00">उपमान_द्योतकः</text>
</g>
<!-- Node16_1 -->
<g id="node25" class="node">
<title>Node16_1</title>
<ellipse fill="#ffff00" stroke="#ffff00" cx="1131" cy="-121" rx="68.79" ry="18"/>
<text text-anchor="middle" x="1131" y="-117.3" font-family="Times,serif" font-size="14.00">महा&#45;(16.1)</text>
</g>
<!-- Node16_1&#45;&gt;Node16_2 -->
<g id="edge18" class="edge">
<title>Node16_1&#45;&gt;Node16_2</title>
<path fill="none" stroke="black" d="M1081.33,-139.04C1072.9,-141.79 1064.22,-144.54 1056,-147 1014.59,-159.4 1004.39,-163.54 962,-172 906.5,-183.07 843.63,-191.64 793.61,-197.53"/>
<polygon fill="black" stroke="black" points="1082.66,-142.28 1091.05,-135.82 1080.46,-135.64 1082.66,-142.28"/>
<text text-anchor="middle" x="1087.5" y="-160.8" font-family="Times,serif" font-size="14.00">कर्मधारयः</text>
</g>
<!-- Node19_1 -->
<g id="node26" class="node">
<title>Node19_1</title>
<ellipse fill="#ff99ff" stroke="#ff99ff" cx="728" cy="-34" rx="56.59" ry="18"/>
<text text-anchor="middle" x="728" y="-30.3" font-family="Times,serif" font-size="14.00">इव(19.1)</text>
</g>
<!-- Node19_1&#45;&gt;Node18_1 -->
<g id="edge22" class="edge">
<title>Node19_1&#45;&gt;Node18_1</title>
<path fill="none" stroke="black" d="M738.65,-61.19C743.55,-70.1 750.26,-79.25 759,-85 784.15,-101.55 796.38,-89.58 826,-95 844.09,-98.31 863.67,-102.39 881.46,-106.28"/>
<polygon fill="black" stroke="black" points="741.75,-59.56 734.18,-52.14 735.47,-62.65 741.75,-59.56"/>
<text text-anchor="middle" x="848" y="-73.8" font-family="Times,serif" font-size="14.00">उपमान_द्योतकः</text>
</g>
<!-- Node21_1 -->
<g id="node27" class="node">
<title>Node21_1</title>
<ellipse fill="#ff99ff" stroke="#ff99ff" cx="1541" cy="-121" rx="65.79" ry="18"/>
<text text-anchor="middle" x="1541" y="-117.3" font-family="Times,serif" font-size="14.00">इतः(21.1)</text>
</g>
<!-- Node22_1 -->
<g id="node28" class="node">
<title>Node22_1</title>
<ellipse fill="#ff1975" stroke="#ff1975" cx="1283" cy="-208" rx="65.79" ry="18"/>
<text text-anchor="middle" x="1283" y="-204.3" font-family="Times,serif" font-size="14.00">एहि(22.1)</text>
</g>
<!-- Node21_1&#45;&gt;Node22_1 -->
<g id="edge24" class="edge">
<title>Node21_1&#45;&gt;Node22_1</title>
<path fill="none" stroke="black" d="M1535.14,-148.96C1531.86,-157.71 1526.8,-166.56 1519,-172 1504.21,-182.32 1374.7,-178.53 1357,-182 1344.23,-184.51 1330.63,-188.65 1318.62,-192.85"/>
<polygon fill="black" stroke="black" points="1538.52,-149.89 1538.13,-139.3 1531.83,-147.82 1538.52,-149.89"/>
<text text-anchor="middle" x="1589.5" y="-160.8" font-family="Times,serif" font-size="14.00">सम्बन्धः</text>
</g>
<!-- Node22_1&#45;&gt;Node24_1 -->
<g id="edge25" class="edge">
<title>Node22_1&#45;&gt;Node24_1</title>
<path fill="none" stroke="black" d="M1226.33,-223.25C1161.63,-239.52 1056.79,-265.89 995.01,-281.42"/>
<polygon fill="black" stroke="black" points="1227.51,-226.56 1236.36,-220.73 1225.81,-219.77 1227.51,-226.56"/>
<text text-anchor="middle" x="1199.5" y="-247.8" font-family="Times,serif" font-size="14.00">वाक्यकर्म</text>
</g>
<!-- Node23_1 -->
<g id="node29" class="node">
<title>Node23_1</title>
<ellipse fill="#ff99ff" stroke="#ff99ff" cx="1284" cy="-121" rx="65.79" ry="18"/>
<text text-anchor="middle" x="1284" y="-117.3" font-family="Times,serif" font-size="14.00">इति(23.1)</text>
</g>
<!-- Node23_1&#45;&gt;Node22_1 -->
<g id="edge26" class="edge">
<title>Node23_1&#45;&gt;Node22_1</title>
<path fill="none" stroke="black" d="M1283.68,-149.27C1283.52,-162.58 1283.34,-178.19 1283.2,-189.82"/>
<polygon fill="black" stroke="black" points="1287.18,-149.24 1283.8,-139.2 1280.18,-149.16 1287.18,-149.24"/>
<text text-anchor="middle" x="1401.5" y="-160.8" font-family="Times,serif" font-size="14.00">वाक्यकर्म_द्योतकः</text>
</g>
<!-- Node25_1 -->
<g id="node30" class="node">
<title>Node25_1</title>
<ellipse fill="#ff99ff" stroke="#ff99ff" cx="1423" cy="-208" rx="56.59" ry="18"/>
<text text-anchor="middle" x="1423" y="-204.3" font-family="Times,serif" font-size="14.00">इव(25.1)</text>
</g>
<!-- Node25_1&#45;&gt;Node24_1 -->
<g id="edge27" class="edge">
<title>Node25_1&#45;&gt;Node24_1</title>
<path fill="none" stroke="black" d="M1379.81,-226.28C1372.57,-228.98 1365.1,-231.65 1358,-234 1318.58,-247.02 1308.77,-251.18 1268,-259 1182.55,-275.38 1082.81,-284.73 1017.02,-289.57"/>
<polygon fill="black" stroke="black" points="1381.38,-229.42 1389.49,-222.6 1378.89,-222.88 1381.38,-229.42"/>
<text text-anchor="middle" x="1385.5" y="-247.8" font-family="Times,serif" font-size="14.00">सम्बन्धः</text>
</g>
<!-- Node26_1 -->
<g id="node31" class="node">
<title>Node26_1</title>
<ellipse fill="#ff99ff" stroke="#ff99ff" cx="2054" cy="-121" rx="75.29" ry="18"/>
<text text-anchor="middle" x="2054" y="-117.3" font-family="Times,serif" font-size="14.00">तत्र(26.1)</text>
</g>
<!-- Node26_1&#45;&gt;Node22_1 -->
<g id="edge28" class="edge">
<title>Node26_1&#45;&gt;Node22_1</title>
<path fill="none" stroke="black" d="M2011.96,-141.87C2002.63,-146.6 1992.87,-151.79 1984,-157 1973.8,-162.99 1973.28,-168.42 1962,-172 1897.92,-192.35 1423.25,-170.55 1357,-182 1344.04,-184.24 1330.28,-188.37 1318.18,-192.64"/>
<polygon fill="black" stroke="black" points="2013.71,-144.9 2021.1,-137.31 2010.59,-138.64 2013.71,-144.9"/>
<text text-anchor="middle" x="2062.5" y="-160.8" font-family="Times,serif" font-size="14.00">देशाधिकरणम्</text>
</g>
<!-- Node27_1 -->
<g id="node32" class="node">
<title>Node27_1</title>
<ellipse fill="#ff99ff" stroke="#ff99ff" cx="1700" cy="-121" rx="75.29" ry="18"/>
<text text-anchor="middle" x="1700" y="-117.3" font-family="Times,serif" font-size="14.00">यत्र(27.1)</text>
</g>
<!-- Node27_1&#45;&gt;Node28_1 -->
<g id="edge29" class="edge">
<title>Node27_1&#45;&gt;Node28_1</title>
<path fill="none" stroke="black" d="M1737.6,-142.46C1757.23,-152.48 1781.92,-164.06 1805,-172 1834.36,-182.1 1867.81,-190 1896.35,-195.72"/>
<polygon fill="black" stroke="black" points="1739.16,-139.33 1728.67,-137.83 1735.94,-145.54 1739.16,-139.33"/>
<text text-anchor="middle" x="1883.5" y="-160.8" font-family="Times,serif" font-size="14.00">देशाधिकरणम्</text>
</g>
<!-- Node27_1&#45;&gt;Node26_1 -->
<g id="edge30" class="edge">
<title>Node27_1&#45;&gt;Node26_1</title>
<path fill="none" stroke="red" stroke-dasharray="5,2" d="M1785.52,-121C1840.89,-121 1912.72,-121 1968.15,-121"/>
<polygon fill="red" stroke="red" points="1785.51,-117.5 1775.51,-121 1785.51,-124.5 1785.51,-117.5"/>
<polygon fill="red" stroke="red" points="1968.3,-124.5 1978.3,-121 1968.3,-117.5 1968.3,-124.5"/>
<text text-anchor="middle" x="1877" y="-106.8" font-family="Times,serif" font-size="14.00">नित्यसम्बन्धः</text>
</g>
</g>
</svg>
