<?xml version="1.0" encoding="UTF-8" standalone="no"?>
<!DOCTYPE svg PUBLIC "-//W3C//DTD SVG 1.1//EN"
 "http://www.w3.org/Graphics/SVG/1.1/DTD/svg11.dtd">
<!-- Generated by graphviz version 2.43.0 (0)
 -->
<!-- Title: G Pages: 1 -->
<svg width="3606pt" height="392pt"
 viewBox="0.00 0.00 3605.74 392.00" xmlns="http://www.w3.org/2000/svg" xmlns:xlink="http://www.w3.org/1999/xlink">
<g id="graph0" class="graph" transform="scale(1 1) rotate(0) translate(4 388)">
<title>G</title>
<polygon fill="#fffacd" stroke="transparent" points="-4,4 -4,-388 3601.74,-388 3601.74,4 -4,4"/>
<g id="clust1" class="cluster">
<title>cluster_1</title>
<polygon fill="#fffacd" stroke="black" points="332.74,-79 332.74,-305 800.74,-305 800.74,-79 332.74,-79"/>
</g>
<g id="clust2" class="cluster">
<title>cluster_2</title>
<polygon fill="#fffacd" stroke="black" points="1546.74,-166 1546.74,-305 1992.74,-305 1992.74,-166 1546.74,-166"/>
</g>
<g id="clust3" class="cluster">
<title>cluster_3</title>
<polygon fill="#fffacd" stroke="black" points="2536.74,-79 2536.74,-218 3223.74,-218 3223.74,-79 2536.74,-79"/>
</g>
<!-- Node1_3 -->
<g id="node1" class="node">
<title>Node1_3</title>
<ellipse fill="#00bfff" stroke="#00bfff" cx="608.74" cy="-192" rx="78.79" ry="18"/>
<text text-anchor="middle" x="608.74" y="-188.3" font-family="Times,serif" font-size="14.00">गन्धः(1.3)</text>
</g>
<!-- Node7_2 -->
<g id="node2" class="node">
<title>Node7_2</title>
<ellipse fill="#00bfff" stroke="#00bfff" cx="457.74" cy="-279" rx="115.88" ry="18"/>
<text text-anchor="middle" x="457.74" y="-275.3" font-family="Times,serif" font-size="14.00">निःश्वासः(7.2)</text>
</g>
<!-- Node1_3&#45;&gt;Node7_2 -->
<g id="edge3" class="edge">
<title>Node1_3&#45;&gt;Node7_2</title>
<path fill="none" stroke="black" d="M571.5,-213.96C545.45,-228.63 511.15,-247.94 487.05,-261.5"/>
<polygon fill="black" stroke="black" points="573.34,-216.94 580.34,-208.99 569.91,-210.84 573.34,-216.94"/>
<text text-anchor="middle" x="599.24" y="-231.8" font-family="Times,serif" font-size="14.00">विशेषणम्</text>
</g>
<!-- Node8_1 -->
<g id="node18" class="node">
<title>Node8_1</title>
<ellipse fill="#ff1975" stroke="#ff1975" cx="258.74" cy="-366" rx="87.99" ry="18"/>
<text text-anchor="middle" x="258.74" y="-362.3" font-family="Times,serif" font-size="14.00">सिषेवे(8.1)</text>
</g>
<!-- Node7_2&#45;&gt;Node8_1 -->
<g id="edge10" class="edge">
<title>Node7_2&#45;&gt;Node8_1</title>
<path fill="none" stroke="black" d="M443.21,-306.02C437.06,-314.87 429.12,-324.02 419.74,-330 395.98,-345.14 366.67,-353.82 339.6,-358.75"/>
<polygon fill="black" stroke="black" points="446.29,-307.71 448.76,-297.41 440.41,-303.92 446.29,-307.71"/>
<text text-anchor="middle" x="472.74" y="-318.8" font-family="Times,serif" font-size="14.00">कर्ता</text>
</g>
<!-- Node2_1 -->
<g id="node3" class="node">
<title>Node2_1</title>
<ellipse fill="#00bfff" stroke="#00bfff" cx="741.74" cy="-105" rx="50.89" ry="18"/>
<text text-anchor="middle" x="741.74" y="-101.3" font-family="Times,serif" font-size="14.00">सः(2.1)</text>
</g>
<!-- Node2_1&#45;&gt;Node1_3 -->
<g id="edge4" class="edge">
<title>Node2_1&#45;&gt;Node1_3</title>
<path fill="none" stroke="black" d="M705.4,-125.27C696.57,-130.21 687.22,-135.64 678.74,-141 662.08,-151.53 643.99,-164.5 630.37,-174.59"/>
<polygon fill="black" stroke="black" points="707.3,-128.22 714.37,-120.33 703.92,-122.09 707.3,-128.22"/>
<text text-anchor="middle" x="736.24" y="-144.8" font-family="Times,serif" font-size="14.00">विशेषणम्</text>
</g>
<!-- Node4_1 -->
<g id="node4" class="node">
<title>Node4_1</title>
<ellipse fill="#00bfff" stroke="#00bfff" cx="585.74" cy="-105" rx="87.99" ry="18"/>
<text text-anchor="middle" x="585.74" y="-101.3" font-family="Times,serif" font-size="14.00">सुरभिः(4.1)</text>
</g>
<!-- Node4_1&#45;&gt;Node1_3 -->
<g id="edge6" class="edge">
<title>Node4_1&#45;&gt;Node1_3</title>
<path fill="none" stroke="black" d="M548.57,-128.55C539.94,-136.68 534.8,-146.26 540.74,-156 546.27,-165.07 554.99,-171.89 564.36,-176.98"/>
<polygon fill="black" stroke="black" points="550.95,-131.13 556.48,-122.09 546.52,-125.71 550.95,-131.13"/>
<text text-anchor="middle" x="598.24" y="-144.8" font-family="Times,serif" font-size="14.00">विशेषणम्</text>
</g>
<!-- Node5_1 -->
<g id="node5" class="node">
<title>Node5_1</title>
<ellipse fill="#00bfff" stroke="#00bfff" cx="410.74" cy="-105" rx="69.59" ry="18"/>
<text text-anchor="middle" x="410.74" y="-101.3" font-family="Times,serif" font-size="14.00">सुखः(5.1)</text>
</g>
<!-- Node5_1&#45;&gt;Node1_3 -->
<g id="edge7" class="edge">
<title>Node5_1&#45;&gt;Node1_3</title>
<path fill="none" stroke="black" d="M409.31,-133.2C410.27,-141.49 412.87,-149.99 418.74,-156 434.83,-172.47 488.28,-181.34 534.4,-186.02"/>
<polygon fill="black" stroke="black" points="412.8,-132.86 408.86,-123.02 405.81,-133.17 412.8,-132.86"/>
<text text-anchor="middle" x="476.24" y="-144.8" font-family="Times,serif" font-size="14.00">विशेषणम्</text>
</g>
<!-- Node11_3 -->
<g id="node6" class="node">
<title>Node11_3</title>
<ellipse fill="#00bfff" stroke="#00bfff" cx="1890.74" cy="-192" rx="93.68" ry="18"/>
<text text-anchor="middle" x="1890.74" y="-188.3" font-family="Times,serif" font-size="14.00">शङ्काः(11.3)</text>
</g>
<!-- Node14_2 -->
<g id="node7" class="node">
<title>Node14_2</title>
<ellipse fill="#00bfff" stroke="#00bfff" cx="1662.74" cy="-279" rx="93.68" ry="18"/>
<text text-anchor="middle" x="1662.74" y="-275.3" font-family="Times,serif" font-size="14.00">योषितः(14.2)</text>
</g>
<!-- Node11_3&#45;&gt;Node14_2 -->
<g id="edge15" class="edge">
<title>Node11_3&#45;&gt;Node14_2</title>
<path fill="none" stroke="black" d="M1850.43,-213.65C1830.65,-223.32 1806.28,-234.53 1783.74,-243 1762.25,-251.07 1738.03,-258.41 1716.94,-264.26"/>
<polygon fill="black" stroke="black" points="1852.04,-216.76 1859.46,-209.19 1848.94,-210.48 1852.04,-216.76"/>
<text text-anchor="middle" x="1876.24" y="-231.8" font-family="Times,serif" font-size="14.00">विशेषणम्</text>
</g>
<!-- Node18_1 -->
<g id="node24" class="node">
<title>Node18_1</title>
<ellipse fill="#ff1975" stroke="#ff1975" cx="1173.74" cy="-366" rx="130.78" ry="18"/>
<text text-anchor="middle" x="1173.74" y="-362.3" font-family="Times,serif" font-size="14.00">उपाजिघ्रन्(18.1)</text>
</g>
<!-- Node14_2&#45;&gt;Node18_1 -->
<g id="edge19" class="edge">
<title>Node14_2&#45;&gt;Node18_1</title>
<path fill="none" stroke="black" d="M1612.81,-298.77C1582.29,-309.52 1542.25,-322.35 1505.74,-330 1435.69,-344.69 1355.96,-353.35 1292.19,-358.38"/>
<polygon fill="black" stroke="black" points="1614.12,-302.02 1622.36,-295.37 1611.77,-295.43 1614.12,-302.02"/>
<text text-anchor="middle" x="1597.74" y="-318.8" font-family="Times,serif" font-size="14.00">कर्ता</text>
</g>
<!-- Node13_1 -->
<g id="node8" class="node">
<title>Node13_1</title>
<ellipse fill="#00bfff" stroke="#00bfff" cx="1666.74" cy="-192" rx="112.38" ry="18"/>
<text text-anchor="middle" x="1666.74" y="-188.3" font-family="Times,serif" font-size="14.00">काश्चित्(13.1)</text>
</g>
<!-- Node13_1&#45;&gt;Node14_2 -->
<g id="edge17" class="edge">
<title>Node13_1&#45;&gt;Node14_2</title>
<path fill="none" stroke="black" d="M1665.46,-220.27C1664.83,-233.58 1664.1,-249.19 1663.55,-260.82"/>
<polygon fill="black" stroke="black" points="1668.96,-220.35 1665.93,-210.2 1661.97,-220.03 1668.96,-220.35"/>
<text text-anchor="middle" x="1722.24" y="-231.8" font-family="Times,serif" font-size="14.00">विशेषणम्</text>
</g>
<!-- Node24_1 -->
<g id="node9" class="node">
<title>Node24_1</title>
<ellipse fill="#00bfff" stroke="#00bfff" cx="3149.74" cy="-105" rx="65.79" ry="18"/>
<text text-anchor="middle" x="3149.74" y="-101.3" font-family="Times,serif" font-size="14.00">ताः(24.1)</text>
</g>
<!-- Node22_2 -->
<g id="node10" class="node">
<title>Node22_2</title>
<ellipse fill="#00bfff" stroke="#00bfff" cx="2926.74" cy="-192" rx="75.29" ry="18"/>
<text text-anchor="middle" x="2926.74" y="-188.3" font-family="Times,serif" font-size="14.00">मनसः(22.2)</text>
</g>
<!-- Node24_1&#45;&gt;Node22_2 -->
<g id="edge29" class="edge">
<title>Node24_1&#45;&gt;Node22_2</title>
<path fill="none" stroke="black" d="M3112.02,-125.96C3092.56,-135.79 3068.24,-147.35 3045.74,-156 3023.33,-164.62 2997.87,-172.37 2976.26,-178.37"/>
<polygon fill="black" stroke="black" points="3113.84,-128.96 3121.16,-121.29 3110.66,-122.72 3113.84,-128.96"/>
<text text-anchor="middle" x="3138.24" y="-144.8" font-family="Times,serif" font-size="14.00">विशेषणम्</text>
</g>
<!-- Node30_1 -->
<g id="node33" class="node">
<title>Node30_1</title>
<ellipse fill="#ff1975" stroke="#ff1975" cx="2389.74" cy="-279" rx="84.49" ry="18"/>
<text text-anchor="middle" x="2389.74" y="-275.3" font-family="Times,serif" font-size="14.00">आचरन्(30.1)</text>
</g>
<!-- Node22_2&#45;&gt;Node30_1 -->
<g id="edge27" class="edge">
<title>Node22_2&#45;&gt;Node30_1</title>
<path fill="none" stroke="black" d="M2855.51,-204.28C2750.79,-220.85 2556.78,-251.56 2455.36,-267.61"/>
<polygon fill="black" stroke="black" points="2856.33,-207.69 2865.66,-202.67 2855.24,-200.77 2856.33,-207.69"/>
<text text-anchor="middle" x="2725.74" y="-231.8" font-family="Times,serif" font-size="14.00">कर्ता</text>
</g>
<!-- Node25_2 -->
<g id="node11" class="node">
<title>Node25_2</title>
<ellipse fill="#00bfff" stroke="#00bfff" cx="2656.74" cy="-105" rx="112.38" ry="18"/>
<text text-anchor="middle" x="2656.74" y="-101.3" font-family="Times,serif" font-size="14.00">स्त्रियः(25.2)</text>
</g>
<!-- Node25_2&#45;&gt;Node22_2 -->
<g id="edge31" class="edge">
<title>Node25_2&#45;&gt;Node22_2</title>
<path fill="none" stroke="black" d="M2711.99,-124.79C2740.51,-134.36 2775.91,-146.05 2807.74,-156 2831.59,-163.45 2858.25,-171.34 2880.29,-177.73"/>
<polygon fill="black" stroke="black" points="2712.8,-121.37 2702.21,-121.5 2710.57,-128 2712.8,-121.37"/>
<text text-anchor="middle" x="2865.24" y="-144.8" font-family="Times,serif" font-size="14.00">विशेषणम्</text>
</g>
<!-- Node26_2 -->
<g id="node12" class="node">
<title>Node26_2</title>
<ellipse fill="#00bfff" stroke="#00bfff" cx="2926.74" cy="-105" rx="139.98" ry="18"/>
<text text-anchor="middle" x="2926.74" y="-101.3" font-family="Times,serif" font-size="14.00">स्वतन्त्राः(26.2)</text>
</g>
<!-- Node26_2&#45;&gt;Node22_2 -->
<g id="edge33" class="edge">
<title>Node26_2&#45;&gt;Node22_2</title>
<path fill="none" stroke="black" d="M2926.74,-133.27C2926.74,-146.58 2926.74,-162.19 2926.74,-173.82"/>
<polygon fill="black" stroke="black" points="2930.24,-133.2 2926.74,-123.2 2923.24,-133.2 2930.24,-133.2"/>
<text text-anchor="middle" x="2984.24" y="-144.8" font-family="Times,serif" font-size="14.00">विशेषणम्</text>
</g>
<!-- Node1_1 -->
<g id="node13" class="node">
<title>Node1_1</title>
<ellipse fill="#ffff00" stroke="#ffff00" cx="873.74" cy="-18" rx="90.98" ry="18"/>
<text text-anchor="middle" x="873.74" y="-14.3" font-family="Times,serif" font-size="14.00">शर्करा&#45;(1.1)</text>
</g>
<!-- Node1_2 -->
<g id="node14" class="node">
<title>Node1_2</title>
<ellipse fill="#ffff00" stroke="#ffff00" cx="873.74" cy="-105" rx="63.09" ry="18"/>
<text text-anchor="middle" x="873.74" y="-101.3" font-family="Times,serif" font-size="14.00">आसव&#45;(1.2)</text>
</g>
<!-- Node1_1&#45;&gt;Node1_2 -->
<g id="edge1" class="edge">
<title>Node1_1&#45;&gt;Node1_2</title>
<path fill="none" stroke="black" d="M873.74,-46.27C873.74,-59.58 873.74,-75.19 873.74,-86.82"/>
<polygon fill="black" stroke="black" points="877.24,-46.2 873.74,-36.2 870.24,-46.2 877.24,-46.2"/>
<text text-anchor="middle" x="977.24" y="-57.8" font-family="Times,serif" font-size="14.00">षष्ठी_तत्पुरुषः</text>
</g>
<!-- Node1_2&#45;&gt;Node1_3 -->
<g id="edge2" class="edge">
<title>Node1_2&#45;&gt;Node1_3</title>
<path fill="none" stroke="black" d="M839.51,-126.81C831.99,-131.44 824.08,-136.36 816.74,-141 806.43,-147.53 805.06,-151.45 793.74,-156 757.65,-170.52 715.14,-179.1 679.98,-184.13"/>
<polygon fill="black" stroke="black" points="841.42,-129.75 848.11,-121.53 837.76,-123.78 841.42,-129.75"/>
<text text-anchor="middle" x="920.24" y="-144.8" font-family="Times,serif" font-size="14.00">षष्ठी_तत्पुरुषः</text>
</g>
<!-- Node3_1 -->
<g id="node15" class="node">
<title>Node3_1</title>
<ellipse fill="#40e0d0" stroke="#40e0d0" cx="585.74" cy="-18" rx="115.88" ry="18"/>
<text text-anchor="middle" x="585.74" y="-14.3" font-family="Times,serif" font-size="14.00">प्रकृत्या(3.1)</text>
</g>
<!-- Node3_1&#45;&gt;Node4_1 -->
<g id="edge5" class="edge">
<title>Node3_1&#45;&gt;Node4_1</title>
<path fill="none" stroke="black" d="M585.74,-46.27C585.74,-59.58 585.74,-75.19 585.74,-86.82"/>
<polygon fill="black" stroke="black" points="589.24,-46.2 585.74,-36.2 582.24,-46.2 589.24,-46.2"/>
<text text-anchor="middle" x="621.74" y="-57.8" font-family="Times,serif" font-size="14.00">हेतुः</text>
</g>
<!-- Node6_1 -->
<g id="node16" class="node">
<title>Node6_1</title>
<ellipse fill="#87ceeb" stroke="#87ceeb" cx="1045.74" cy="-105" rx="87.99" ry="18"/>
<text text-anchor="middle" x="1045.74" y="-101.3" font-family="Times,serif" font-size="14.00">तासाम्(6.1)</text>
</g>
<!-- Node6_1&#45;&gt;Node1_3 -->
<g id="edge8" class="edge">
<title>Node6_1&#45;&gt;Node1_3</title>
<path fill="none" stroke="black" d="M1039.87,-132.94C1036.59,-141.69 1031.53,-150.54 1023.74,-156 1010.16,-165.53 891.28,-164.67 874.74,-166 808.28,-171.35 732.59,-178.58 678.98,-183.88"/>
<polygon fill="black" stroke="black" points="1043.24,-133.87 1042.86,-123.29 1036.55,-131.8 1043.24,-133.87"/>
<text text-anchor="middle" x="1128.74" y="-144.8" font-family="Times,serif" font-size="14.00">षष्ठीसम्बन्धः</text>
</g>
<!-- Node7_1 -->
<g id="node17" class="node">
<title>Node7_1</title>
<ellipse fill="#ffff00" stroke="#ffff00" cx="261.74" cy="-192" rx="63.09" ry="18"/>
<text text-anchor="middle" x="261.74" y="-188.3" font-family="Times,serif" font-size="14.00">वदन&#45;(7.1)</text>
</g>
<!-- Node7_1&#45;&gt;Node7_2 -->
<g id="edge9" class="edge">
<title>Node7_1&#45;&gt;Node7_2</title>
<path fill="none" stroke="black" d="M281.47,-217.35C290.16,-226.63 301.05,-236.52 312.74,-243 331.88,-253.61 354.18,-261.03 375.48,-266.21"/>
<polygon fill="black" stroke="black" points="283.99,-214.92 274.72,-209.79 278.77,-219.58 283.99,-214.92"/>
<text text-anchor="middle" x="416.24" y="-231.8" font-family="Times,serif" font-size="14.00">षष्ठी_तत्पुरुषः</text>
</g>
<!-- Node9_1 -->
<g id="node19" class="node">
<title>Node9_1</title>
<ellipse fill="#93db70" stroke="#93db70" cx="87.74" cy="-279" rx="87.99" ry="18"/>
<text text-anchor="middle" x="87.74" y="-275.3" font-family="Times,serif" font-size="14.00">रावणम्(9.1)</text>
</g>
<!-- Node9_1&#45;&gt;Node8_1 -->
<g id="edge11" class="edge">
<title>Node9_1&#45;&gt;Node8_1</title>
<path fill="none" stroke="black" d="M128.5,-300.26C158.63,-315.24 199.08,-335.34 226.86,-349.15"/>
<polygon fill="black" stroke="black" points="130.02,-297.11 119.51,-295.79 126.9,-303.37 130.02,-297.11"/>
<text text-anchor="middle" x="212.74" y="-318.8" font-family="Times,serif" font-size="14.00">कर्म</text>
</g>
<!-- Node10_1 -->
<g id="node20" class="node">
<title>Node10_1</title>
<ellipse fill="#ff99ff" stroke="#ff99ff" cx="258.74" cy="-279" rx="65.79" ry="18"/>
<text text-anchor="middle" x="258.74" y="-275.3" font-family="Times,serif" font-size="14.00">तदा(10.1)</text>
</g>
<!-- Node10_1&#45;&gt;Node8_1 -->
<g id="edge12" class="edge">
<title>Node10_1&#45;&gt;Node8_1</title>
<path fill="none" stroke="black" d="M258.74,-307.27C258.74,-320.58 258.74,-336.19 258.74,-347.82"/>
<polygon fill="black" stroke="black" points="262.24,-307.2 258.74,-297.2 255.24,-307.2 262.24,-307.2"/>
<text text-anchor="middle" x="337.24" y="-318.8" font-family="Times,serif" font-size="14.00">कालाधिकरणम्</text>
</g>
<!-- Node11_1 -->
<g id="node21" class="node">
<title>Node11_1</title>
<ellipse fill="#ffff00" stroke="#ffff00" cx="1890.74" cy="-18" rx="77.99" ry="18"/>
<text text-anchor="middle" x="1890.74" y="-14.3" font-family="Times,serif" font-size="14.00">रावण&#45;(11.1)</text>
</g>
<!-- Node11_2 -->
<g id="node22" class="node">
<title>Node11_2</title>
<ellipse fill="#ffff00" stroke="#ffff00" cx="1890.74" cy="-105" rx="68.79" ry="18"/>
<text text-anchor="middle" x="1890.74" y="-101.3" font-family="Times,serif" font-size="14.00">आनन&#45;(11.2)</text>
</g>
<!-- Node11_1&#45;&gt;Node11_2 -->
<g id="edge13" class="edge">
<title>Node11_1&#45;&gt;Node11_2</title>
<path fill="none" stroke="black" d="M1890.74,-46.27C1890.74,-59.58 1890.74,-75.19 1890.74,-86.82"/>
<polygon fill="black" stroke="black" points="1894.24,-46.2 1890.74,-36.2 1887.24,-46.2 1894.24,-46.2"/>
<text text-anchor="middle" x="1994.24" y="-57.8" font-family="Times,serif" font-size="14.00">षष्ठी_तत्पुरुषः</text>
</g>
<!-- Node11_2&#45;&gt;Node11_3 -->
<g id="edge14" class="edge">
<title>Node11_2&#45;&gt;Node11_3</title>
<path fill="none" stroke="black" d="M1890.74,-133.27C1890.74,-146.58 1890.74,-162.19 1890.74,-173.82"/>
<polygon fill="black" stroke="black" points="1894.24,-133.2 1890.74,-123.2 1887.24,-133.2 1894.24,-133.2"/>
<text text-anchor="middle" x="2001.24" y="-144.8" font-family="Times,serif" font-size="14.00">सप्तमी_तत्पुरुषः</text>
</g>
<!-- Node12_1 -->
<g id="node23" class="node">
<title>Node12_1</title>
<ellipse fill="#ff99ff" stroke="#ff99ff" cx="855.74" cy="-279" rx="47.39" ry="18"/>
<text text-anchor="middle" x="855.74" y="-275.3" font-family="Times,serif" font-size="14.00">च(12.1)</text>
</g>
<!-- Node12_1&#45;&gt;Node18_1 -->
<g id="edge16" class="edge">
<title>Node12_1&#45;&gt;Node18_1</title>
<path fill="none" stroke="black" d="M890.97,-299.05C911.87,-309.61 939.2,-322.15 964.74,-330 1000.26,-340.91 1040.29,-348.66 1075.73,-354.04"/>
<polygon fill="black" stroke="black" points="892.34,-295.82 881.85,-294.36 889.14,-302.04 892.34,-295.82"/>
<text text-anchor="middle" x="1022.24" y="-318.8" font-family="Times,serif" font-size="14.00">सम्बन्धः</text>
</g>
<!-- Node14_1 -->
<g id="node25" class="node">
<title>Node14_1</title>
<ellipse fill="#ffff00" stroke="#ffff00" cx="1447.74" cy="-192" rx="77.99" ry="18"/>
<text text-anchor="middle" x="1447.74" y="-188.3" font-family="Times,serif" font-size="14.00">रावण&#45;(14.1)</text>
</g>
<!-- Node14_1&#45;&gt;Node14_2 -->
<g id="edge18" class="edge">
<title>Node14_1&#45;&gt;Node14_2</title>
<path fill="none" stroke="black" d="M1444.48,-220.48C1444.96,-228.64 1447.12,-237 1452.74,-243 1469.26,-260.64 1523.69,-269.39 1572.99,-273.73"/>
<polygon fill="black" stroke="black" points="1447.98,-220.48 1444.62,-210.43 1440.98,-220.38 1447.98,-220.48"/>
<text text-anchor="middle" x="1556.24" y="-231.8" font-family="Times,serif" font-size="14.00">षष्ठी_तत्पुरुषः</text>
</g>
<!-- Node15_1 -->
<g id="node26" class="node">
<title>Node15_1</title>
<ellipse fill="#93db70" stroke="#93db70" cx="1014.74" cy="-279" rx="93.68" ry="18"/>
<text text-anchor="middle" x="1014.74" y="-275.3" font-family="Times,serif" font-size="14.00">मुखानि(15.1)</text>
</g>
<!-- Node15_1&#45;&gt;Node18_1 -->
<g id="edge20" class="edge">
<title>Node15_1&#45;&gt;Node18_1</title>
<path fill="none" stroke="black" d="M1053.95,-300.96C1081.33,-315.6 1117.39,-334.87 1142.76,-348.44"/>
<polygon fill="black" stroke="black" points="1055.49,-297.82 1045.02,-296.19 1052.19,-303.99 1055.49,-297.82"/>
<text text-anchor="middle" x="1132.74" y="-318.8" font-family="Times,serif" font-size="14.00">कर्म</text>
</g>
<!-- Node16_1 -->
<g id="node27" class="node">
<title>Node16_1</title>
<ellipse fill="#ff99ff" stroke="#ff99ff" cx="1173.74" cy="-279" rx="47.39" ry="18"/>
<text text-anchor="middle" x="1173.74" y="-275.3" font-family="Times,serif" font-size="14.00">च(16.1)</text>
</g>
<!-- Node16_1&#45;&gt;Node18_1 -->
<g id="edge21" class="edge">
<title>Node16_1&#45;&gt;Node18_1</title>
<path fill="none" stroke="black" d="M1173.74,-307.27C1173.74,-320.58 1173.74,-336.19 1173.74,-347.82"/>
<polygon fill="black" stroke="black" points="1177.24,-307.2 1173.74,-297.2 1170.24,-307.2 1177.24,-307.2"/>
<text text-anchor="middle" x="1231.24" y="-318.8" font-family="Times,serif" font-size="14.00">सम्बन्धः</text>
</g>
<!-- Node17_1 -->
<g id="node28" class="node">
<title>Node17_1</title>
<ellipse fill="#87ceeb" stroke="#87ceeb" cx="1014.74" cy="-192" rx="130.78" ry="18"/>
<text text-anchor="middle" x="1014.74" y="-188.3" font-family="Times,serif" font-size="14.00">सपत्नीनाम्(17.1)</text>
</g>
<!-- Node17_1&#45;&gt;Node15_1 -->
<g id="edge22" class="edge">
<title>Node17_1&#45;&gt;Node15_1</title>
<path fill="none" stroke="black" d="M1014.74,-220.27C1014.74,-233.58 1014.74,-249.19 1014.74,-260.82"/>
<polygon fill="black" stroke="black" points="1018.24,-220.2 1014.74,-210.2 1011.24,-220.2 1018.24,-220.2"/>
<text text-anchor="middle" x="1107.74" y="-231.8" font-family="Times,serif" font-size="14.00">षष्ठीसम्बन्धः</text>
</g>
<!-- Node19_1 -->
<g id="node29" class="node">
<title>Node19_1</title>
<ellipse fill="#ff99ff" stroke="#ff99ff" cx="1276.74" cy="-192" rx="75.29" ry="18"/>
<text text-anchor="middle" x="1276.74" y="-188.3" font-family="Times,serif" font-size="14.00">पुनः(19.1)</text>
</g>
<!-- Node20_1 -->
<g id="node30" class="node">
<title>Node20_1</title>
<ellipse fill="#ff99ff" stroke="#ff99ff" cx="1314.74" cy="-279" rx="75.29" ry="18"/>
<text text-anchor="middle" x="1314.74" y="-275.3" font-family="Times,serif" font-size="14.00">पुनः(20.1)</text>
</g>
<!-- Node19_1&#45;&gt;Node20_1 -->
<g id="edge23" class="edge">
<title>Node19_1&#45;&gt;Node20_1</title>
<path fill="none" stroke="black" d="M1288.58,-219.48C1294.61,-232.96 1301.76,-248.96 1307.06,-260.82"/>
<polygon fill="black" stroke="black" points="1291.71,-217.9 1284.43,-210.2 1285.32,-220.76 1291.71,-217.9"/>
<text text-anchor="middle" x="1340.74" y="-231.8" font-family="Times,serif" font-size="14.00">वीप्सा</text>
</g>
<!-- Node20_1&#45;&gt;Node18_1 -->
<g id="edge24" class="edge">
<title>Node20_1&#45;&gt;Node18_1</title>
<path fill="none" stroke="black" d="M1306.89,-306.41C1303.2,-314.96 1297.98,-323.82 1290.74,-330 1279.62,-339.5 1265.99,-346.42 1252.02,-351.47"/>
<polygon fill="black" stroke="black" points="1310.17,-307.64 1310.43,-297.05 1303.62,-305.17 1310.17,-307.64"/>
<text text-anchor="middle" x="1401.74" y="-318.8" font-family="Times,serif" font-size="14.00">क्रियाविशेषणम्</text>
</g>
<!-- Node21_1 -->
<g id="node31" class="node">
<title>Node21_1</title>
<ellipse fill="#ff99ff" stroke="#ff99ff" cx="2404.74" cy="-105" rx="121.58" ry="18"/>
<text text-anchor="middle" x="2404.74" y="-101.3" font-family="Times,serif" font-size="14.00">अत्यर्थम्(21.1)</text>
</g>
<!-- Node21_1&#45;&gt;Node22_2 -->
<g id="edge25" class="edge">
<title>Node21_1&#45;&gt;Node22_2</title>
<path fill="none" stroke="black" d="M2476.41,-122.7C2523.49,-133.27 2586.56,-146.65 2642.74,-156 2716.13,-168.21 2800.84,-178.11 2858.51,-184.23"/>
<polygon fill="black" stroke="black" points="2477.13,-119.28 2466.61,-120.5 2475.59,-126.11 2477.13,-119.28"/>
<text text-anchor="middle" x="2700.24" y="-144.8" font-family="Times,serif" font-size="14.00">सम्बन्धः</text>
</g>
<!-- Node22_1 -->
<g id="node32" class="node">
<title>Node22_1</title>
<ellipse fill="#ffff00" stroke="#ffff00" cx="3311.74" cy="-105" rx="77.99" ry="18"/>
<text text-anchor="middle" x="3311.74" y="-101.3" font-family="Times,serif" font-size="14.00">सक्त&#45;(22.1)</text>
</g>
<!-- Node22_1&#45;&gt;Node22_2 -->
<g id="edge26" class="edge">
<title>Node22_1&#45;&gt;Node22_2</title>
<path fill="none" stroke="black" d="M3273.68,-126.34C3252.48,-136.8 3225.28,-148.83 3199.74,-156 3133.49,-174.6 3055.4,-183.35 2999.74,-187.44"/>
<polygon fill="black" stroke="black" points="3275.32,-129.43 3282.68,-121.81 3272.17,-123.18 3275.32,-129.43"/>
<text text-anchor="middle" x="3312.24" y="-144.8" font-family="Times,serif" font-size="14.00">बहुव्रीहिः</text>
</g>
<!-- Node23_1 -->
<g id="node34" class="node">
<title>Node23_1</title>
<ellipse fill="#c6e2eb" stroke="#c6e2eb" cx="3491.74" cy="-105" rx="84.49" ry="18"/>
<text text-anchor="middle" x="3491.74" y="-101.3" font-family="Times,serif" font-size="14.00">रावणे(23.1)</text>
</g>
<!-- Node23_1&#45;&gt;Node22_2 -->
<g id="edge28" class="edge">
<title>Node23_1&#45;&gt;Node22_2</title>
<path fill="none" stroke="black" d="M3456.18,-127.18C3436.66,-137.74 3411.63,-149.6 3387.74,-156 3316.9,-174.99 3112.27,-184.71 3000.97,-188.71"/>
<polygon fill="black" stroke="black" points="3457.96,-130.2 3465.02,-122.29 3454.57,-124.07 3457.96,-130.2"/>
<text text-anchor="middle" x="3511.74" y="-144.8" font-family="Times,serif" font-size="14.00">विषयाधिकरणम्</text>
</g>
<!-- Node25_1 -->
<g id="node35" class="node">
<title>Node25_1</title>
<ellipse fill="#ffff00" stroke="#ffff00" cx="2656.74" cy="-18" rx="59.59" ry="18"/>
<text text-anchor="middle" x="2656.74" y="-14.3" font-family="Times,serif" font-size="14.00">वर&#45;(25.1)</text>
</g>
<!-- Node25_1&#45;&gt;Node25_2 -->
<g id="edge30" class="edge">
<title>Node25_1&#45;&gt;Node25_2</title>
<path fill="none" stroke="black" d="M2656.74,-46.27C2656.74,-59.58 2656.74,-75.19 2656.74,-86.82"/>
<polygon fill="black" stroke="black" points="2660.24,-46.2 2656.74,-36.2 2653.24,-46.2 2660.24,-46.2"/>
<text text-anchor="middle" x="2721.24" y="-57.8" font-family="Times,serif" font-size="14.00">कर्मधारयः</text>
</g>
<!-- Node26_1 -->
<g id="node36" class="node">
<title>Node26_1</title>
<ellipse fill="#ffff00" stroke="#ffff00" cx="2926.74" cy="-18" rx="50.09" ry="18"/>
<text text-anchor="middle" x="2926.74" y="-14.3" font-family="Times,serif" font-size="14.00">अ&#45;(26.1)</text>
</g>
<!-- Node26_1&#45;&gt;Node26_2 -->
<g id="edge32" class="edge">
<title>Node26_1&#45;&gt;Node26_2</title>
<path fill="none" stroke="black" d="M2926.74,-46.27C2926.74,-59.58 2926.74,-75.19 2926.74,-86.82"/>
<polygon fill="black" stroke="black" points="2930.24,-46.2 2926.74,-36.2 2923.24,-46.2 2930.24,-46.2"/>
<text text-anchor="middle" x="3015.74" y="-57.8" font-family="Times,serif" font-size="14.00">नञ्_तत्पुरुषः</text>
</g>
<!-- Node27_1 -->
<g id="node37" class="node">
<title>Node27_1</title>
<ellipse fill="#87ceeb" stroke="#87ceeb" cx="2134.74" cy="-105" rx="130.78" ry="18"/>
<text text-anchor="middle" x="2134.74" y="-101.3" font-family="Times,serif" font-size="14.00">सपत्नीनाम्(27.1)</text>
</g>
<!-- Node28_1 -->
<g id="node38" class="node">
<title>Node28_1</title>
<ellipse fill="#93db70" stroke="#93db70" cx="2137.74" cy="-192" rx="102.88" ry="18"/>
<text text-anchor="middle" x="2137.74" y="-188.3" font-family="Times,serif" font-size="14.00">प्रियम्(28.1)</text>
</g>
<!-- Node27_1&#45;&gt;Node28_1 -->
<g id="edge34" class="edge">
<title>Node27_1&#45;&gt;Node28_1</title>
<path fill="none" stroke="black" d="M2135.7,-133.27C2136.17,-146.58 2136.73,-162.19 2137.14,-173.82"/>
<polygon fill="black" stroke="black" points="2139.2,-133.07 2135.35,-123.2 2132.2,-133.32 2139.2,-133.07"/>
<text text-anchor="middle" x="2228.74" y="-144.8" font-family="Times,serif" font-size="14.00">षष्ठीसम्बन्धः</text>
</g>
<!-- Node28_1&#45;&gt;Node30_1 -->
<g id="edge35" class="edge">
<title>Node28_1&#45;&gt;Node30_1</title>
<path fill="none" stroke="black" d="M2180.84,-213.26C2202.68,-223.05 2229.79,-234.49 2254.74,-243 2280.29,-251.72 2309.2,-259.48 2333.68,-265.47"/>
<polygon fill="black" stroke="black" points="2182.07,-209.97 2171.52,-209.03 2179.18,-216.35 2182.07,-209.97"/>
<text text-anchor="middle" x="2283.74" y="-231.8" font-family="Times,serif" font-size="14.00">कर्म</text>
</g>
<!-- Node29_1 -->
<g id="node39" class="node">
<title>Node29_1</title>
<ellipse fill="#ff99ff" stroke="#ff99ff" cx="2319.74" cy="-192" rx="56.59" ry="18"/>
<text text-anchor="middle" x="2319.74" y="-188.3" font-family="Times,serif" font-size="14.00">एव(29.1)</text>
</g>
<!-- Node29_1&#45;&gt;Node30_1 -->
<g id="edge36" class="edge">
<title>Node29_1&#45;&gt;Node30_1</title>
<path fill="none" stroke="black" d="M2316.51,-220.06C2316.79,-227.98 2318.4,-236.3 2322.74,-243 2328.38,-251.7 2336.92,-258.37 2346.03,-263.42"/>
<polygon fill="black" stroke="black" points="2320.01,-220.14 2316.78,-210.05 2313.01,-219.95 2320.01,-220.14"/>
<text text-anchor="middle" x="2380.24" y="-231.8" font-family="Times,serif" font-size="14.00">सम्बन्धः</text>
</g>
<!-- Node31_1 -->
<g id="node40" class="node">
<title>Node31_1</title>
<ellipse fill="#ff99ff" stroke="#ff99ff" cx="2459.74" cy="-192" rx="65.79" ry="18"/>
<text text-anchor="middle" x="2459.74" y="-188.3" font-family="Times,serif" font-size="14.00">तदा(31.1)</text>
</g>
<!-- Node31_1&#45;&gt;Node30_1 -->
<g id="edge37" class="edge">
<title>Node31_1&#45;&gt;Node30_1</title>
<path fill="none" stroke="black" d="M2451.16,-219.42C2447.77,-227.5 2443.32,-236.07 2437.74,-243 2432.05,-250.07 2424.6,-256.42 2417.27,-261.7"/>
<polygon fill="black" stroke="black" points="2454.47,-220.55 2454.78,-209.96 2447.94,-218.05 2454.47,-220.55"/>
<text text-anchor="middle" x="2524.24" y="-231.8" font-family="Times,serif" font-size="14.00">कालाधिकरणम्</text>
</g>
</g>
</svg>
