<svg xmlns="http://www.w3.org/2000/svg" xmlns:xlink="http://www.w3.org/1999/xlink" width="4596" height="566pt" viewBox="0 0 3447 566"><g id="graph0" class="graph" transform="scale(1 1) rotate(0) translate(4 562)"><title>G</title><polygon fill="#fffacd" stroke="transparent" points="-4 4 -4 -562 3443 -562 3443 4 -4 4"/><g id="clust1" class="cluster"><title>cluster_1</title><polygon fill="#fffacd" stroke="#000" points="668 -340 668 -479 2324 -479 2324 -340 668 -340"/></g><g id="clust2" class="cluster"><title>cluster_2</title><polygon fill="#fffacd" stroke="#000" points="8 -253 8 -305 238 -305 238 -253 8 -253"/></g><g id="clust3" class="cluster"><title>cluster_3</title><polygon fill="#fffacd" stroke="#000" points="246 -166 246 -305 691 -305 691 -166 246 -166"/></g><g id="clust4" class="cluster"><title>cluster_4</title><polygon fill="#fffacd" stroke="#000" points="2745 -253 2745 -392 3135 -392 3135 -253 2745 -253"/></g><g id="clust5" class="cluster"><title>cluster_5</title><polygon fill="#fffacd" stroke="#000" points="2355 -166 2355 -305 2577 -305 2577 -166 2355 -166"/></g><g id="node1" class="node"><title>Node1_3</title><ellipse cx="1135" cy="-366" fill="#00bfff" stroke="#00bfff" rx="78.79" ry="18"/><text x="1135" y="-362.3" font-family="Times,serif" font-size="14" text-anchor="middle">वृताः(1.3)</text></g><g id="node2" class="node"><title>Node30_1</title><ellipse cx="1481" cy="-453" fill="#00bfff" stroke="#00bfff" rx="118.88" ry="18"/><text x="1481" y="-449.3" font-family="Times,serif" font-size="14" text-anchor="middle">(स्त्रियः)(30.1)</text></g><g id="edge3" class="edge"><title>Node1_3-&gt;Node30_1</title><path fill="none" stroke="#000" d="M1186.5,-384.64C1217.89,-394.98 1258.97,-407.78 1296,-417 1330.89,-425.69 1369.95,-433.37 1403.16,-439.31"/><polygon fill="#000" stroke="#000" points="1187.26 -381.2 1176.67 -381.38 1185.05 -387.85 1187.26 -381.2"/><text x="1353.5" y="-405.8" font-family="Times,serif" font-size="14" text-anchor="middle">विशेषणम्</text></g><g id="node43" class="node"><title>Node31_1</title><ellipse cx="1481" cy="-540" fill="#ff1975" stroke="#ff1975" rx="109.68" ry="18"/><text x="1481" y="-536.3" font-family="Times,serif" font-size="14" text-anchor="middle">(विरेजुः)(31.1)</text></g><g id="edge41" class="edge"><title>Node30_1-&gt;Node31_1</title><path fill="none" stroke="#000" d="M1481,-481.27C1481,-494.58 1481,-510.19 1481,-521.82"/><polygon fill="#000" stroke="#000" points="1484.5 -481.2 1481 -471.2 1477.5 -481.2 1484.5 -481.2"/><text x="1517" y="-492.8" font-family="Times,serif" font-size="14" text-anchor="middle">कर्ता</text></g><g id="node3" class="node"><title>Node3_1</title><ellipse cx="2060" cy="-366" fill="#00bfff" stroke="#00bfff" rx="87.99" ry="18"/><text x="2060" y="-362.3" font-family="Times,serif" font-size="14" text-anchor="middle">अन्याः(3.1)</text></g><g id="edge5" class="edge"><title>Node3_1-&gt;Node30_1</title><path fill="none" stroke="#000" d="M1997.66,-383.11C1986.14,-386.08 1974.21,-389.14 1963,-392 1919.03,-403.22 1908.73,-409.36 1864,-417 1773.17,-432.52 1668.97,-441.48 1592.21,-446.44"/><polygon fill="#000" stroke="#000" points="1998.85 -386.42 2007.66 -380.54 1997.1 -379.64 1998.85 -386.42"/><text x="1982.5" y="-405.8" font-family="Times,serif" font-size="14" text-anchor="middle">विशेषणम्</text></g><g id="node4" class="node"><title>Node5_2</title><ellipse cx="755" cy="-366" fill="#00bfff" stroke="#00bfff" rx="78.79" ry="18"/><text x="755" y="-362.3" font-family="Times,serif" font-size="14" text-anchor="middle">वाससः(5.2)</text></g><g id="edge8" class="edge"><title>Node5_2-&gt;Node30_1</title><path fill="none" stroke="#000" d="M807.21,-384.24C844.14,-395.64 895.06,-409.77 941,-417 1085.2,-439.68 1253.28,-447.73 1363.13,-450.54"/><polygon fill="#000" stroke="#000" points="808.25 -380.9 797.66 -381.26 806.16 -387.58 808.25 -380.9"/><text x="998.5" y="-405.8" font-family="Times,serif" font-size="14" text-anchor="middle">विशेषणम्</text></g><g id="node5" class="node"><title>Node6_2</title><ellipse cx="1626" cy="-366" fill="#00bfff" stroke="#00bfff" rx="115.88" ry="18"/><text x="1626" y="-362.3" font-family="Times,serif" font-size="14" text-anchor="middle">रशनादामाः(6.2)</text></g><g id="edge10" class="edge"><title>Node6_2-&gt;Node30_1</title><path fill="none" stroke="#000" d="M1592.48,-389.41C1578.85,-398.28 1562.84,-408.39 1548,-417 1536.99,-423.39 1524.7,-429.96 1513.69,-435.66"/><polygon fill="#000" stroke="#000" points="1594.61 -392.2 1601.06 -383.79 1590.78 -386.34 1594.61 -392.2"/><text x="1628.5" y="-405.8" font-family="Times,serif" font-size="14" text-anchor="middle">विशेषणम्</text></g><g id="node6" class="node"><title>Node9_1</title><ellipse cx="1857" cy="-366" fill="#00bfff" stroke="#00bfff" rx="96.68" ry="18"/><text x="1857" y="-362.3" font-family="Times,serif" font-size="14" text-anchor="middle">वाहिताः(9.1)</text></g><g id="edge13" class="edge"><title>Node9_1-&gt;Node30_1</title><path fill="none" stroke="#000" d="M1802.66,-385.15C1770.23,-395.51 1728.07,-408.15 1690,-417 1649.42,-426.43 1603.84,-434.37 1565.63,-440.29"/><polygon fill="#000" stroke="#000" points="1803.95 -388.41 1812.4 -382.01 1801.81 -381.74 1803.95 -388.41"/><text x="1802.5" y="-405.8" font-family="Times,serif" font-size="14" text-anchor="middle">विशेषणम्</text></g><g id="node7" class="node"><title>Node10_2</title><ellipse cx="2241" cy="-366" fill="#00bfff" stroke="#00bfff" rx="75.29" ry="18"/><text x="2241" y="-362.3" font-family="Times,serif" font-size="14" text-anchor="middle">धराः(10.2)</text></g><g id="edge15" class="edge"><title>Node10_2-&gt;Node30_1</title><path fill="none" stroke="#000" d="M2188.09,-383.77C2148.78,-395.4 2093.61,-410.01 2044,-417 1891.02,-438.54 1712.8,-446.83 1598.53,-450.01"/><polygon fill="#000" stroke="#000" points="2189.15 -387.1 2197.73 -380.88 2187.14 -380.39 2189.15 -387.1"/><text x="2172.5" y="-405.8" font-family="Times,serif" font-size="14" text-anchor="middle">विशेषणम्</text></g><g id="node8" class="node"><title>Node12_1</title><ellipse cx="945" cy="-366" fill="#00bfff" stroke="#00bfff" rx="93.68" ry="18"/><text x="945" y="-362.3" font-family="Times,serif" font-size="14" text-anchor="middle">अन्याः(12.1)</text></g><g id="edge17" class="edge"><title>Node12_1-&gt;Node30_1</title><path fill="none" stroke="#000" d="M999.33,-384.84C1034.51,-395.74 1081.53,-409.05 1124,-417 1205.87,-432.33 1299.64,-441.19 1370.53,-446.16"/><polygon fill="#000" stroke="#000" points="1000.32 -381.49 989.73 -381.84 998.23 -388.17 1000.32 -381.49"/><text x="1181.5" y="-405.8" font-family="Times,serif" font-size="14" text-anchor="middle">विशेषणम्</text></g><g id="node9" class="node"><title>Node13_2</title><ellipse cx="1362" cy="-366" fill="#00bfff" stroke="#00bfff" rx="130.78" ry="18"/><text x="1362" y="-362.3" font-family="Times,serif" font-size="14" text-anchor="middle">मृदितस्रजः(13.2)</text></g><g id="edge19" class="edge"><title>Node13_2-&gt;Node30_1</title><path fill="none" stroke="#000" d="M1393.74,-389.67C1413.8,-404 1439.3,-422.21 1457.54,-435.24"/><polygon fill="#000" stroke="#000" points="1395.68 -386.76 1385.51 -383.79 1391.61 -392.45 1395.68 -386.76"/><text x="1486.5" y="-405.8" font-family="Times,serif" font-size="14" text-anchor="middle">विशेषणम्</text></g><g id="node10" class="node"><title>Node4_1</title><ellipse cx="123" cy="-279" fill="#00bfff" stroke="#00bfff" rx="106.68" ry="18"/><text x="123" y="-275.3" font-family="Times,serif" font-size="14" text-anchor="middle">काश्चित्(4.1)</text></g><g id="edge6" class="edge"><title>Node4_1-&gt;Node5_2</title><path fill="none" stroke="#000" d="M193.87,-295.99C209.66,-299.24 226.36,-302.45 242,-305 398.42,-330.52 583.39,-349.4 682.92,-358.65"/><polygon fill="#000" stroke="#000" points="194.15 -292.47 183.65 -293.85 192.72 -299.32 194.15 -292.47"/><text x="468.5" y="-318.8" font-family="Times,serif" font-size="14" text-anchor="middle">विशेषणम्</text></g><g id="node11" class="node"><title>Node14_2</title><ellipse cx="580" cy="-192" fill="#00bfff" stroke="#00bfff" rx="102.88" ry="18"/><text x="580" y="-188.3" font-family="Times,serif" font-size="14" text-anchor="middle">मृदिताः(14.2)</text></g><g id="node12" class="node"><title>Node16_1</title><ellipse cx="586" cy="-279" fill="#00bfff" stroke="#00bfff" rx="75.29" ry="18"/><text x="586" y="-275.3" font-family="Times,serif" font-size="14" text-anchor="middle">लताः(16.1)</text></g><g id="edge21" class="edge"><title>Node14_2-&gt;Node16_1</title><path fill="none" stroke="#000" d="M581.92,-220.27C582.86,-233.58 583.97,-249.19 584.79,-260.82"/><polygon fill="#000" stroke="#000" points="585.41 -219.93 581.21 -210.2 578.43 -220.42 585.41 -219.93"/><text x="641.5" y="-231.8" font-family="Times,serif" font-size="14" text-anchor="middle">विशेषणम्</text></g><g id="edge23" class="edge"><title>Node16_1-&gt;Node13_2</title><path fill="none" stroke="#000" d="M641.87,-295.78C657.33,-299.51 674.21,-302.98 690,-305 807.06,-319.99 1105.17,-292.36 1221,-315 1239.23,-318.56 1242.55,-323.65 1260,-330 1277.77,-336.46 1297.4,-343.27 1314.65,-349.15"/><polygon fill="#000" stroke="#000" points="642.48 -292.33 631.94 -293.31 640.8 -299.12 642.48 -292.33"/><text x="1310" y="-318.8" font-family="Times,serif" font-size="14" text-anchor="middle">उपमानम्</text></g><g id="node13" class="node"><title>Node15_1</title><ellipse cx="357" cy="-192" fill="#00bfff" stroke="#00bfff" rx="102.88" ry="18"/><text x="357" y="-188.3" font-family="Times,serif" font-size="14" text-anchor="middle">फुल्लाः(15.1)</text></g><g id="edge22" class="edge"><title>Node15_1-&gt;Node16_1</title><path fill="none" stroke="#000" d="M397.3,-213.67C417.08,-223.34 441.45,-234.56 464,-243 487.22,-251.69 513.59,-259.5 535.86,-265.53"/><polygon fill="#000" stroke="#000" points="398.79 -210.51 388.28 -209.21 395.69 -216.78 398.79 -210.51"/><text x="521.5" y="-231.8" font-family="Times,serif" font-size="14" text-anchor="middle">विशेषणम्</text></g><g id="node14" class="node"><title>Node19_4</title><ellipse cx="2828" cy="-279" fill="#00bfff" stroke="#00bfff" rx="75.29" ry="18"/><text x="2828" y="-275.3" font-family="Times,serif" font-size="14" text-anchor="middle">आभाः(19.4)</text></g><g id="node15" class="node"><title>Node21_1</title><ellipse cx="2838" cy="-366" fill="#00bfff" stroke="#00bfff" rx="84.49" ry="18"/><text x="2838" y="-362.3" font-family="Times,serif" font-size="14" text-anchor="middle">हाराः(21.1)</text></g><g id="edge30" class="edge"><title>Node19_4-&gt;Node21_1</title><path fill="none" stroke="#000" d="M2831.21,-307.27C2832.77,-320.58 2834.61,-336.19 2835.98,-347.82"/><polygon fill="#000" stroke="#000" points="2834.67 -306.72 2830.02 -297.2 2827.72 -307.54 2834.67 -306.72"/><text x="2890.5" y="-318.8" font-family="Times,serif" font-size="14" text-anchor="middle">विशेषणम्</text></g><g id="node22" class="node"><title>Node26_1</title><ellipse cx="2619" cy="-453" fill="#ff1975" stroke="#ff1975" rx="75.29" ry="18"/><text x="2619" y="-449.3" font-family="Times,serif" font-size="14" text-anchor="middle">बभुः(26.1)</text></g><g id="edge32" class="edge"><title>Node21_1-&gt;Node26_1</title><path fill="none" stroke="#000" d="M2820.76,-392.16C2813.26,-401.3 2803.72,-410.89 2793,-417 2762.35,-434.48 2724.31,-443.32 2691.62,-447.76"/><polygon fill="#000" stroke="#000" points="2823.72 -394.04 2827.05 -383.99 2818.18 -389.77 2823.72 -394.04"/><text x="2847" y="-405.8" font-family="Times,serif" font-size="14" text-anchor="middle">कर्ता</text></g><g id="node16" class="node"><title>Node23_1</title><ellipse cx="3024" cy="-279" fill="#00bfff" stroke="#00bfff" rx="102.88" ry="18"/><text x="3024" y="-275.3" font-family="Times,serif" font-size="14" text-anchor="middle">उद्गताः(23.1)</text></g><g id="edge34" class="edge"><title>Node23_1-&gt;Node21_1</title><path fill="none" stroke="#000" d="M2995.32,-302.97C2982.61,-312.33 2967.12,-322.65 2952,-330 2933.19,-339.14 2911.48,-346.52 2892.08,-352.1"/><polygon fill="#000" stroke="#000" points="2997.76 -305.51 3003.64 -296.7 2993.55 -299.92 2997.76 -305.51"/><text x="3034.5" y="-318.8" font-family="Times,serif" font-size="14" text-anchor="middle">विशेषणम्</text></g><g id="node17" class="node"><title>Node27_1</title><ellipse cx="2466" cy="-192" fill="#00bfff" stroke="#00bfff" rx="102.88" ry="18"/><text x="2466" y="-188.3" font-family="Times,serif" font-size="14" text-anchor="middle">सुप्ताः(27.1)</text></g><g id="node18" class="node"><title>Node24_1</title><ellipse cx="2485" cy="-279" fill="#00bfff" stroke="#00bfff" rx="84.49" ry="18"/><text x="2485" y="-275.3" font-family="Times,serif" font-size="14" text-anchor="middle">हंसाः(24.1)</text></g><g id="edge37" class="edge"><title>Node27_1-&gt;Node24_1</title><path fill="none" stroke="#000" d="M2472.09,-220.27C2475.07,-233.58 2478.56,-249.19 2481.16,-260.82"/><polygon fill="#000" stroke="#000" points="2475.44 -219.2 2469.84 -210.2 2468.61 -220.72 2475.44 -219.2"/><text x="2533.5" y="-231.8" font-family="Times,serif" font-size="14" text-anchor="middle">विशेषणम्</text></g><g id="edge35" class="edge"><title>Node24_1-&gt;Node21_1</title><path fill="none" stroke="#000" d="M2551.05,-294.68C2603.47,-306.49 2678.57,-323.72 2744,-340 2758.26,-343.55 2773.68,-347.57 2787.83,-351.34"/><polygon fill="#000" stroke="#000" points="2551.73 -291.25 2541.21 -292.47 2550.19 -298.08 2551.73 -291.25"/><text x="2751" y="-318.8" font-family="Times,serif" font-size="14" text-anchor="middle">उपमानम्</text></g><g id="node19" class="node"><title>Node1_1</title><ellipse cx="1016" cy="-192" fill="#ff0" stroke="#ff0" rx="90.98" ry="18"/><text x="1016" y="-188.3" font-family="Times,serif" font-size="14" text-anchor="middle">मुक्ता-(1.1)</text></g><g id="node20" class="node"><title>Node1_2</title><ellipse cx="1016" cy="-279" fill="#ff0" stroke="#ff0" rx="63.09" ry="18"/><text x="1016" y="-275.3" font-family="Times,serif" font-size="14" text-anchor="middle">हार-(1.2)</text></g><g id="edge1" class="edge"><title>Node1_1-&gt;Node1_2</title><path fill="none" stroke="#000" d="M1016,-220.27C1016,-233.58 1016,-249.19 1016,-260.82"/><polygon fill="#000" stroke="#000" points="1019.5 -220.2 1016 -210.2 1012.5 -220.2 1019.5 -220.2"/><text x="1080.5" y="-231.8" font-family="Times,serif" font-size="14" text-anchor="middle">कर्मधारयः</text></g><g id="edge2" class="edge"><title>Node1_2-&gt;Node1_3</title><path fill="none" stroke="#000" d="M998.73,-305.87C995.38,-314.24 994.4,-323.12 1000,-330 1013.75,-346.91 1026.85,-334.76 1048,-340 1061.58,-343.36 1076.23,-347.41 1089.57,-351.25"/><polygon fill="#000" stroke="#000" points="1001.94 -307.29 1003.31 -296.79 995.69 -304.14 1001.94 -307.29"/><text x="1110.5" y="-318.8" font-family="Times,serif" font-size="14" text-anchor="middle">तृतीया_तत्पुरुषः</text></g><g id="node21" class="node"><title>Node2_1</title><ellipse cx="2412" cy="-366" fill="#f9f" stroke="#f9f" rx="41.69" ry="18"/><text x="2412" y="-362.3" font-family="Times,serif" font-size="14" text-anchor="middle">च(2.1)</text></g><g id="edge4" class="edge"><title>Node2_1-&gt;Node26_1</title><path fill="none" stroke="#000" d="M2414.61,-394.2C2416.73,-402.6 2420.47,-411.16 2427,-417 2444.77,-432.9 2501.04,-441.89 2548.1,-446.77"/><polygon fill="#000" stroke="#000" points="2418.03 -393.43 2412.74 -384.24 2411.15 -394.72 2418.03 -393.43"/><text x="2484.5" y="-405.8" font-family="Times,serif" font-size="14" text-anchor="middle">सम्बन्धः</text></g><g id="node23" class="node"><title>Node5_1</title><ellipse cx="817" cy="-279" fill="#ff0" stroke="#ff0" rx="118.08" ry="18"/><text x="817" y="-275.3" font-family="Times,serif" font-size="14" text-anchor="middle">प्रस्रस्त-(5.1)</text></g><g id="edge7" class="edge"><title>Node5_1-&gt;Node5_2</title><path fill="none" stroke="#000" d="M798.5,-305.36C788.42,-319.18 776.23,-335.9 767.32,-348.11"/><polygon fill="#000" stroke="#000" points="801.39 -307.34 804.45 -297.2 795.73 -303.22 801.39 -307.34"/><text x="861.5" y="-318.8" font-family="Times,serif" font-size="14" text-anchor="middle">बहुव्रीहिः</text></g><g id="node24" class="node"><title>Node6_1</title><ellipse cx="1626" cy="-279" fill="#ff0" stroke="#ff0" rx="118.08" ry="18"/><text x="1626" y="-275.3" font-family="Times,serif" font-size="14" text-anchor="middle">व्याविद्ध-(6.1)</text></g><g id="edge9" class="edge"><title>Node6_1-&gt;Node6_2</title><path fill="none" stroke="#000" d="M1626,-307.27C1626,-320.58 1626,-336.19 1626,-347.82"/><polygon fill="#000" stroke="#000" points="1629.5 -307.2 1626 -297.2 1622.5 -307.2 1629.5 -307.2"/><text x="1697.5" y="-318.8" font-family="Times,serif" font-size="14" text-anchor="middle">बहुव्रीहिः</text></g><g id="node25" class="node"><title>Node7_1</title><ellipse cx="1869" cy="-279" fill="#00bfff" stroke="#00bfff" rx="106.68" ry="18"/><text x="1869" y="-275.3" font-family="Times,serif" font-size="14" text-anchor="middle">किशोर्यः(7.1)</text></g><g id="edge11" class="edge"><title>Node7_1-&gt;Node9_1</title><path fill="none" stroke="#000" d="M1865.15,-307.27C1863.27,-320.58 1861.07,-336.19 1859.42,-347.82"/><polygon fill="#000" stroke="#000" points="1868.64 -307.59 1866.57 -297.2 1861.71 -306.61 1868.64 -307.59"/><text x="1913" y="-318.8" font-family="Times,serif" font-size="14" text-anchor="middle">उपमानम्</text></g><g id="node26" class="node"><title>Node8_1</title><ellipse cx="1869" cy="-192" fill="#f9f" stroke="#f9f" rx="50.89" ry="18"/><text x="1869" y="-188.3" font-family="Times,serif" font-size="14" text-anchor="middle">इव(8.1)</text></g><g id="edge12" class="edge"><title>Node8_1-&gt;Node7_1</title><path fill="none" stroke="#000" d="M1869,-220.27C1869,-233.58 1869,-249.19 1869,-260.82"/><polygon fill="#000" stroke="#000" points="1872.5 -220.2 1869 -210.2 1865.5 -220.2 1872.5 -220.2"/><text x="1958" y="-231.8" font-family="Times,serif" font-size="14" text-anchor="middle">उपमान_द्योतकः</text></g><g id="node27" class="node"><title>Node10_1</title><ellipse cx="2241" cy="-279" fill="#ff0" stroke="#ff0" rx="105.88" ry="18"/><text x="2241" y="-275.3" font-family="Times,serif" font-size="14" text-anchor="middle">अकुण्डल-(10.1)</text></g><g id="edge14" class="edge"><title>Node10_1-&gt;Node10_2</title><path fill="none" stroke="#000" d="M2241,-307.27C2241,-320.58 2241,-336.19 2241,-347.82"/><polygon fill="#000" stroke="#000" points="2244.5 -307.2 2241 -297.2 2237.5 -307.2 2244.5 -307.2"/><text x="2337.5" y="-318.8" font-family="Times,serif" font-size="14" text-anchor="middle">उपपद_तत्पुरुषः</text></g><g id="node28" class="node"><title>Node11_1</title><ellipse cx="2550" cy="-366" fill="#f9f" stroke="#f9f" rx="47.39" ry="18"/><text x="2550" y="-362.3" font-family="Times,serif" font-size="14" text-anchor="middle">च(11.1)</text></g><g id="edge16" class="edge"><title>Node11_1-&gt;Node26_1</title><path fill="none" stroke="#000" d="M2545.5,-393.98C2545.46,-401.9 2546.78,-410.24 2551,-417 2556.76,-426.24 2565.81,-433.15 2575.45,-438.28"/><polygon fill="#000" stroke="#000" points="2548.99 -394.21 2546.21 -383.98 2542.01 -393.71 2548.99 -394.21"/><text x="2608.5" y="-405.8" font-family="Times,serif" font-size="14" text-anchor="middle">सम्बन्धः</text></g><g id="node29" class="node"><title>Node13_1</title><ellipse cx="1366" cy="-279" fill="#ff0" stroke="#ff0" rx="124.28" ry="18"/><text x="1366" y="-275.3" font-family="Times,serif" font-size="14" text-anchor="middle">विच्छिन्न-(13.1)</text></g><g id="edge18" class="edge"><title>Node13_1-&gt;Node13_2</title><path fill="none" stroke="#000" d="M1364.72,-307.27C1364.09,-320.58 1363.36,-336.19 1362.81,-347.82"/><polygon fill="#000" stroke="#000" points="1368.22 -307.35 1365.19 -297.2 1361.22 -307.03 1368.22 -307.35"/><text x="1436.5" y="-318.8" font-family="Times,serif" font-size="14" text-anchor="middle">बहुव्रीहिः</text></g><g id="node30" class="node"><title>Node14_1</title><ellipse cx="458" cy="-105" fill="#ff0" stroke="#ff0" rx="115.08" ry="18"/><text x="458" y="-101.3" font-family="Times,serif" font-size="14" text-anchor="middle">गजेन्द्र-(14.1)</text></g><g id="edge20" class="edge"><title>Node14_1-&gt;Node14_2</title><path fill="none" stroke="#000" d="M452.72,-133.52C452.65,-141.46 454.15,-149.68 459,-156 466.06,-165.19 488.01,-172.78 511.32,-178.5"/><polygon fill="#000" stroke="#000" points="456.22 -133.69 453.57 -123.43 449.24 -133.1 456.22 -133.69"/><text x="569.5" y="-144.8" font-family="Times,serif" font-size="14" text-anchor="middle">तृतीया_तत्पुरुषः</text></g><g id="node31" class="node"><title>Node17_1</title><ellipse cx="757" cy="-192" fill="#f9f" stroke="#f9f" rx="56.59" ry="18"/><text x="757" y="-188.3" font-family="Times,serif" font-size="14" text-anchor="middle">इव(17.1)</text></g><g id="edge24" class="edge"><title>Node17_1-&gt;Node16_1</title><path fill="none" stroke="#000" d="M735.97,-216.72C726.66,-226.03 715.08,-236.1 703,-243 684.31,-253.67 662.05,-261.38 641.99,-266.8"/><polygon fill="#000" stroke="#000" points="738.5 -219.14 742.92 -209.5 733.46 -214.28 738.5 -219.14"/><text x="812" y="-231.8" font-family="Times,serif" font-size="14" text-anchor="middle">उपमान_द्योतकः</text></g><g id="node32" class="node"><title>Node18_1</title><ellipse cx="702" cy="-18" fill="#ff0" stroke="#ff0" rx="68.79" ry="18"/><text x="702" y="-14.3" font-family="Times,serif" font-size="14" text-anchor="middle">महा-(18.1)</text></g><g id="node33" class="node"><title>Node18_2</title><ellipse cx="702" cy="-105" fill="#c6e2eb" stroke="#c6e2eb" rx="65.79" ry="18"/><text x="702" y="-101.3" font-family="Times,serif" font-size="14" text-anchor="middle">वने(18.2)</text></g><g id="edge25" class="edge"><title>Node18_1-&gt;Node18_2</title><path fill="none" stroke="#000" d="M702,-46.27C702,-59.58 702,-75.19 702,-86.82"/><polygon fill="#000" stroke="#000" points="705.5 -46.2 702 -36.2 698.5 -46.2 705.5 -46.2"/><text x="766.5" y="-57.8" font-family="Times,serif" font-size="14" text-anchor="middle">कर्मधारयः</text></g><g id="edge26" class="edge"><title>Node18_2-&gt;Node14_2</title><path fill="none" stroke="#000" d="M694.83,-132.85C691.48,-141.18 686.71,-149.8 680,-156 669.6,-165.62 656.41,-172.62 643.05,-177.7"/><polygon fill="#000" stroke="#000" points="698.15 -133.96 698.13 -123.36 691.54 -131.66 698.15 -133.96"/><text x="769.5" y="-144.8" font-family="Times,serif" font-size="14" text-anchor="middle">देशाधिकरणम्</text></g><g id="node34" class="node"><title>Node19_1</title><ellipse cx="2804" cy="-18" fill="#ff0" stroke="#ff0" rx="96.68" ry="18"/><text x="2804" y="-14.3" font-family="Times,serif" font-size="14" text-anchor="middle">चन्द्र-(19.1)</text></g><g id="node35" class="node"><title>Node19_2</title><ellipse cx="2804" cy="-105" fill="#ff0" stroke="#ff0" rx="77.99" ry="18"/><text x="2804" y="-101.3" font-family="Times,serif" font-size="14" text-anchor="middle">अंशु-(19.2)</text></g><g id="edge27" class="edge"><title>Node19_1-&gt;Node19_2</title><path fill="none" stroke="#000" d="M2804,-46.27C2804,-59.58 2804,-75.19 2804,-86.82"/><polygon fill="#000" stroke="#000" points="2807.5 -46.2 2804 -36.2 2800.5 -46.2 2807.5 -46.2"/><text x="2868.5" y="-57.8" font-family="Times,serif" font-size="14" text-anchor="middle">द्वन्द्वः</text></g><g id="node36" class="node"><title>Node19_3</title><ellipse cx="2820" cy="-192" fill="#ff0" stroke="#ff0" rx="77.99" ry="18"/><text x="2820" y="-188.3" font-family="Times,serif" font-size="14" text-anchor="middle">किरण-(19.3)</text></g><g id="edge28" class="edge"><title>Node19_2-&gt;Node19_3</title><path fill="none" stroke="#000" d="M2809.13,-133.27C2811.64,-146.58 2814.58,-162.19 2816.77,-173.82"/><polygon fill="#000" stroke="#000" points="2812.53 -132.38 2807.24 -123.2 2805.65 -133.68 2812.53 -132.38"/><text x="2915.5" y="-144.8" font-family="Times,serif" font-size="14" text-anchor="middle">षष्ठी_तत्पुरुषः</text></g><g id="edge29" class="edge"><title>Node19_3-&gt;Node19_4</title><path fill="none" stroke="#000" d="M2822.57,-220.27C2823.82,-233.58 2825.29,-249.19 2826.38,-260.82"/><polygon fill="#000" stroke="#000" points="2826.04 -219.83 2821.62 -210.2 2819.07 -220.49 2826.04 -219.83"/><text x="2895.5" y="-231.8" font-family="Times,serif" font-size="14" text-anchor="middle">बहुव्रीहिः</text></g><g id="node37" class="node"><title>Node20_1</title><ellipse cx="2688" cy="-366" fill="#f9f" stroke="#f9f" rx="47.39" ry="18"/><text x="2688" y="-362.3" font-family="Times,serif" font-size="14" text-anchor="middle">च(20.1)</text></g><g id="edge31" class="edge"><title>Node20_1-&gt;Node26_1</title><path fill="none" stroke="#000" d="M2679.38,-393.39C2675.98,-401.46 2671.54,-410.04 2666,-417 2660.3,-424.16 2652.79,-430.61 2645.46,-435.97"/><polygon fill="#000" stroke="#000" points="2682.69 -394.53 2683.01 -383.94 2676.15 -392.02 2682.69 -394.53"/><text x="2731.5" y="-405.8" font-family="Times,serif" font-size="14" text-anchor="middle">सम्बन्धः</text></g><g id="node38" class="node"><title>Node22_1</title><ellipse cx="3266" cy="-279" fill="#87ceeb" stroke="#87ceeb" rx="121.58" ry="18"/><text x="3266" y="-275.3" font-family="Times,serif" font-size="14" text-anchor="middle">कासांचित्(22.1)</text></g><g id="edge33" class="edge"><title>Node22_1-&gt;Node21_1</title><path fill="none" stroke="#000" d="M3209.71,-298.88C3176.86,-309.32 3134.44,-321.79 3096,-330 3035.11,-343.01 2965.05,-352.15 2913.31,-357.82"/><polygon fill="#000" stroke="#000" points="3211.13 -302.11 3219.59 -295.72 3208.99 -295.44 3211.13 -302.11"/><text x="3245" y="-318.8" font-family="Times,serif" font-size="14" text-anchor="middle">षष्ठीसम्बन्धः</text></g><g id="node39" class="node"><title>Node25_1</title><ellipse cx="2643" cy="-192" fill="#f9f" stroke="#f9f" rx="56.59" ry="18"/><text x="2643" y="-188.3" font-family="Times,serif" font-size="14" text-anchor="middle">इव(25.1)</text></g><g id="edge36" class="edge"><title>Node25_1-&gt;Node24_1</title><path fill="none" stroke="#000" d="M2623.84,-217.65C2615.76,-226.68 2605.74,-236.31 2595,-243 2579.01,-252.96 2559.93,-260.32 2542.19,-265.65"/><polygon fill="#000" stroke="#000" points="2626.57 -219.83 2630.4 -209.96 2621.25 -215.29 2626.57 -219.83"/><text x="2701" y="-231.8" font-family="Times,serif" font-size="14" text-anchor="middle">उपमान_द्योतकः</text></g><g id="node40" class="node"><title>Node28_1</title><ellipse cx="3034" cy="-105" fill="#ff0" stroke="#ff0" rx="77.99" ry="18"/><text x="3034" y="-101.3" font-family="Times,serif" font-size="14" text-anchor="middle">स्तन-(28.1)</text></g><g id="node41" class="node"><title>Node28_2</title><ellipse cx="3034" cy="-192" fill="#c6e2eb" stroke="#c6e2eb" rx="102.88" ry="18"/><text x="3034" y="-188.3" font-family="Times,serif" font-size="14" text-anchor="middle">मध्येषु(28.2)</text></g><g id="edge38" class="edge"><title>Node28_1-&gt;Node28_2</title><path fill="none" stroke="#000" d="M3034,-133.27C3034,-146.58 3034,-162.19 3034,-173.82"/><polygon fill="#000" stroke="#000" points="3037.5 -133.2 3034 -123.2 3030.5 -133.2 3037.5 -133.2"/><text x="3137.5" y="-144.8" font-family="Times,serif" font-size="14" text-anchor="middle">षष्ठी_तत्पुरुषः</text></g><g id="edge39" class="edge"><title>Node28_2-&gt;Node23_1</title><path fill="none" stroke="#000" d="M3030.79,-220.27C3029.23,-233.58 3027.39,-249.19 3026.02,-260.82"/><polygon fill="#000" stroke="#000" points="3034.28 -220.54 3031.98 -210.2 3027.33 -219.72 3034.28 -220.54"/><text x="3086.5" y="-231.8" font-family="Times,serif" font-size="14" text-anchor="middle">अधिकरणम्</text></g><g id="node42" class="node"><title>Node29_1</title><ellipse cx="3264" cy="-105" fill="#87ceeb" stroke="#87ceeb" rx="112.38" ry="18"/><text x="3264" y="-101.3" font-family="Times,serif" font-size="14" text-anchor="middle">योषिताम्(29.1)</text></g><g id="edge40" class="edge"><title>Node29_1-&gt;Node28_2</title><path fill="none" stroke="#000" d="M3257.56,-133.17C3254.25,-141.67 3249.31,-150.31 3242,-156 3223.8,-170.17 3173.12,-178.87 3126.35,-184.05"/><polygon fill="#000" stroke="#000" points="3260.96 -134.03 3260.74 -123.44 3254.31 -131.86 3260.96 -134.03"/><text x="3346" y="-144.8" font-family="Times,serif" font-size="14" text-anchor="middle">षष्ठीसम्बन्धः</text></g></g></svg>