<?xml version="1.0" encoding="UTF-8" standalone="no"?>
<!DOCTYPE svg PUBLIC "-//W3C//DTD SVG 1.1//EN"
 "http://www.w3.org/Graphics/SVG/1.1/DTD/svg11.dtd">
<!-- Generated by graphviz version 2.43.0 (0)
 -->
<!-- Title: G Pages: 1 -->
<svg width="863pt" height="479pt"
 viewBox="0.00 0.00 863.00 479.00" xmlns="http://www.w3.org/2000/svg" xmlns:xlink="http://www.w3.org/1999/xlink">
<g id="graph0" class="graph" transform="scale(1 1) rotate(0) translate(4 475)">
<title>G</title>
<polygon fill="#fffacd" stroke="transparent" points="-4,4 -4,-475 859,-475 859,4 -4,4"/>
<g id="clust1" class="cluster">
<title>cluster_1</title>
<polygon fill="#fffacd" stroke="black" points="363,-79 363,-305 767,-305 767,-79 363,-79"/>
</g>
<g id="clust2" class="cluster">
<title>cluster_2</title>
<polygon fill="#fffacd" stroke="black" points="8,-253 8,-392 218,-392 218,-253 8,-253"/>
</g>
<!-- Node1_1 -->
<g id="node1" class="node">
<title>Node1_1</title>
<ellipse fill="#93db70" stroke="#93db70" cx="671" cy="-192" rx="87.99" ry="18"/>
<text text-anchor="middle" x="671" y="-188.3" font-family="Times,serif" font-size="14.00">बाहून्(1.1)</text>
</g>
<!-- Node5_1 -->
<g id="node2" class="node">
<title>Node5_1</title>
<ellipse fill="#93db70" stroke="#93db70" cx="481" cy="-279" rx="106.68" ry="18"/>
<text text-anchor="middle" x="481" y="-275.3" font-family="Times,serif" font-size="14.00">अंशुकानि(5.1)</text>
</g>
<!-- Node1_1&#45;&gt;Node5_1 -->
<g id="edge1" class="edge">
<title>Node1_1&#45;&gt;Node5_1</title>
<path fill="none" stroke="black" d="M640.95,-215.62C627.42,-225.04 610.94,-235.5 595,-243 577.2,-251.38 556.92,-258.35 538.44,-263.82"/>
<polygon fill="black" stroke="black" points="643.25,-218.28 649.37,-209.63 639.19,-212.58 643.25,-218.28"/>
<text text-anchor="middle" x="685.5" y="-231.8" font-family="Times,serif" font-size="14.00">समुच्चितः</text>
</g>
<!-- Node2_1 -->
<g id="node7" class="node">
<title>Node2_1</title>
<ellipse fill="#ff99ff" stroke="#ff99ff" cx="481" cy="-366" rx="96.68" ry="18"/>
<text text-anchor="middle" x="481" y="-362.3" font-family="Times,serif" font-size="14.00">उपनिधाय(2.1)</text>
</g>
<!-- Node5_1&#45;&gt;Node2_1 -->
<g id="edge6" class="edge">
<title>Node5_1&#45;&gt;Node2_1</title>
<path fill="none" stroke="black" d="M481,-307.27C481,-320.58 481,-336.19 481,-347.82"/>
<polygon fill="black" stroke="black" points="484.5,-307.2 481,-297.2 477.5,-307.2 484.5,-307.2"/>
<text text-anchor="middle" x="510" y="-318.8" font-family="Times,serif" font-size="14.00">कर्म</text>
</g>
<!-- Node4_2 -->
<g id="node3" class="node">
<title>Node4_2</title>
<ellipse fill="#93db70" stroke="#93db70" cx="634" cy="-105" rx="124.58" ry="18"/>
<text text-anchor="middle" x="634" y="-101.3" font-family="Times,serif" font-size="14.00">विभूषितान्(4.2)</text>
</g>
<!-- Node4_2&#45;&gt;Node1_1 -->
<g id="edge5" class="edge">
<title>Node4_2&#45;&gt;Node1_1</title>
<path fill="none" stroke="black" d="M645.53,-132.48C651.39,-145.96 658.36,-161.96 663.52,-173.82"/>
<polygon fill="black" stroke="black" points="648.69,-130.97 641.49,-123.2 642.27,-133.77 648.69,-130.97"/>
<text text-anchor="middle" x="711.5" y="-144.8" font-family="Times,serif" font-size="14.00">विशेषणम्</text>
</g>
<!-- Node7_1 -->
<g id="node4" class="node">
<title>Node7_1</title>
<ellipse fill="#93db70" stroke="#93db70" cx="468" cy="-192" rx="96.68" ry="18"/>
<text text-anchor="middle" x="468" y="-188.3" font-family="Times,serif" font-size="14.00">रम्याणि(7.1)</text>
</g>
<!-- Node7_1&#45;&gt;Node5_1 -->
<g id="edge8" class="edge">
<title>Node7_1&#45;&gt;Node5_1</title>
<path fill="none" stroke="black" d="M472.17,-220.27C474.21,-233.58 476.59,-249.19 478.37,-260.82"/>
<polygon fill="black" stroke="black" points="475.6,-219.56 470.63,-210.2 468.68,-220.62 475.6,-219.56"/>
<text text-anchor="middle" x="533.5" y="-231.8" font-family="Times,serif" font-size="14.00">विशेषणम्</text>
</g>
<!-- Node3_1 -->
<g id="node5" class="node">
<title>Node3_1</title>
<ellipse fill="#00bfff" stroke="#00bfff" cx="104" cy="-279" rx="87.99" ry="18"/>
<text text-anchor="middle" x="104" y="-275.3" font-family="Times,serif" font-size="14.00">अन्याः(3.1)</text>
</g>
<!-- Node8_1 -->
<g id="node6" class="node">
<title>Node8_1</title>
<ellipse fill="#00bfff" stroke="#00bfff" cx="113" cy="-366" rx="96.68" ry="18"/>
<text text-anchor="middle" x="113" y="-362.3" font-family="Times,serif" font-size="14.00">प्रमदाः(8.1)</text>
</g>
<!-- Node3_1&#45;&gt;Node8_1 -->
<g id="edge3" class="edge">
<title>Node3_1&#45;&gt;Node8_1</title>
<path fill="none" stroke="black" d="M106.89,-307.27C108.3,-320.58 109.95,-336.19 111.18,-347.82"/>
<polygon fill="black" stroke="black" points="110.35,-306.78 105.82,-297.2 103.39,-307.51 110.35,-306.78"/>
<text text-anchor="middle" x="167.5" y="-318.8" font-family="Times,serif" font-size="14.00">विशेषणम्</text>
</g>
<!-- Node10_1 -->
<g id="node8" class="node">
<title>Node10_1</title>
<ellipse fill="#ff1975" stroke="#ff1975" cx="297" cy="-453" rx="112.38" ry="18"/>
<text text-anchor="middle" x="297" y="-449.3" font-family="Times,serif" font-size="14.00">शिश्यिरे(10.1)</text>
</g>
<!-- Node8_1&#45;&gt;Node10_1 -->
<g id="edge9" class="edge">
<title>Node8_1&#45;&gt;Node10_1</title>
<path fill="none" stroke="black" d="M156.83,-387.31C176.45,-396.4 199.88,-407.25 221,-417 234.32,-423.15 248.96,-429.9 261.8,-435.81"/>
<polygon fill="black" stroke="black" points="158.07,-384.03 147.53,-383.01 155.13,-390.38 158.07,-384.03"/>
<text text-anchor="middle" x="257" y="-405.8" font-family="Times,serif" font-size="14.00">कर्ता</text>
</g>
<!-- Node2_1&#45;&gt;Node10_1 -->
<g id="edge2" class="edge">
<title>Node2_1&#45;&gt;Node10_1</title>
<path fill="none" stroke="black" d="M473.41,-393.73C469.74,-402.3 464.46,-411.1 457,-417 439.72,-430.67 418.24,-439.27 396.68,-444.62"/>
<polygon fill="black" stroke="black" points="476.7,-394.9 476.89,-384.3 470.14,-392.47 476.7,-394.9"/>
<text text-anchor="middle" x="534.5" y="-405.8" font-family="Times,serif" font-size="14.00">पूर्वकालः</text>
</g>
<!-- Node4_1 -->
<g id="node9" class="node">
<title>Node4_1</title>
<ellipse fill="#ffff00" stroke="#ffff00" cx="634" cy="-18" rx="118.08" ry="18"/>
<text text-anchor="middle" x="634" y="-14.3" font-family="Times,serif" font-size="14.00">पारिहार्य&#45;(4.1)</text>
</g>
<!-- Node4_1&#45;&gt;Node4_2 -->
<g id="edge4" class="edge">
<title>Node4_1&#45;&gt;Node4_2</title>
<path fill="none" stroke="black" d="M634,-46.27C634,-59.58 634,-75.19 634,-86.82"/>
<polygon fill="black" stroke="black" points="637.5,-46.2 634,-36.2 630.5,-46.2 637.5,-46.2"/>
<text text-anchor="middle" x="744.5" y="-57.8" font-family="Times,serif" font-size="14.00">तृतीया_तत्पुरुषः</text>
</g>
<!-- Node6_1 -->
<g id="node10" class="node">
<title>Node6_1</title>
<ellipse fill="#ff99ff" stroke="#ff99ff" cx="251" cy="-192" rx="41.69" ry="18"/>
<text text-anchor="middle" x="251" y="-188.3" font-family="Times,serif" font-size="14.00">च(6.1)</text>
</g>
<!-- Node6_1&#45;&gt;Node5_1 -->
<g id="edge7" class="edge">
<title>Node6_1&#45;&gt;Node5_1</title>
<path fill="none" stroke="black" d="M251.8,-220.18C253.41,-228.57 256.67,-237.13 263,-243 280.47,-259.18 332.33,-267.9 381.09,-272.59"/>
<polygon fill="black" stroke="black" points="255.27,-219.71 250.57,-210.22 248.32,-220.58 255.27,-219.71"/>
<text text-anchor="middle" x="366.5" y="-231.8" font-family="Times,serif" font-size="14.00">समुच्चय_द्योतकः</text>
</g>
<!-- Node9_1 -->
<g id="node11" class="node">
<title>Node9_1</title>
<ellipse fill="#ff99ff" stroke="#ff99ff" cx="297" cy="-366" rx="69.59" ry="18"/>
<text text-anchor="middle" x="297" y="-362.3" font-family="Times,serif" font-size="14.00">तत्र(9.1)</text>
</g>
<!-- Node9_1&#45;&gt;Node10_1 -->
<g id="edge10" class="edge">
<title>Node9_1&#45;&gt;Node10_1</title>
<path fill="none" stroke="black" d="M297,-394.27C297,-407.58 297,-423.19 297,-434.82"/>
<polygon fill="black" stroke="black" points="300.5,-394.2 297,-384.2 293.5,-394.2 300.5,-394.2"/>
<text text-anchor="middle" x="375.5" y="-405.8" font-family="Times,serif" font-size="14.00">देशाधिकरणम्</text>
</g>
</g>
</svg>
