<svg xmlns="http://www.w3.org/2000/svg" xmlns:xlink="http://www.w3.org/1999/xlink" width="1484" height="392pt" viewBox="0 0 1113.19 392"><g id="graph0" class="graph" transform="scale(1 1) rotate(0) translate(4 388)"><title>G</title><polygon fill="#fffacd" stroke="transparent" points="-4 4 -4 -388 1109.19 -388 1109.19 4 -4 4"/><g id="clust1" class="cluster"><title>cluster_1</title><polygon fill="#fffacd" stroke="#000" points="386.6 -166 386.6 -305 578.6 -305 578.6 -166 386.6 -166"/></g><g id="node1" class="node"><title>Node11_1</title><ellipse cx="469.6" cy="-192" fill="#00bfff" stroke="#00bfff" rx="75.29" ry="18"/><text x="469.6" y="-188.3" font-family="Times,serif" font-size="14" text-anchor="middle">गताः(11.1)</text></g><g id="node2" class="node"><title>Node8_1</title><ellipse cx="482.6" cy="-279" fill="#00bfff" stroke="#00bfff" rx="87.99" ry="18"/><text x="482.6" y="-275.3" font-family="Times,serif" font-size="14" text-anchor="middle">कन्याः(8.1)</text></g><g id="edge14" class="edge"><title>Node11_1-&gt;Node8_1</title><path fill="none" stroke="#000" d="M473.77,-220.27C475.8,-233.58 478.19,-249.19 479.97,-260.82"/><polygon fill="#000" stroke="#000" points="477.2 -219.56 472.23 -210.2 470.28 -220.62 477.2 -219.56"/><text x="534.1" y="-231.8" font-family="Times,serif" font-size="14" text-anchor="middle">विशेषणम्</text></g><g id="node9" class="node"><title>Node7_1</title><ellipse cx="261.6" cy="-366" fill="#ff1975" stroke="#ff1975" rx="78.79" ry="18"/><text x="261.6" y="-362.3" font-family="Times,serif" font-size="14" text-anchor="middle">अभवन्(7.1)</text></g><g id="edge10" class="edge"><title>Node8_1-&gt;Node7_1</title><path fill="none" stroke="#000" d="M464.63,-304.87C456.73,-314.1 446.71,-323.82 435.6,-330 405.43,-346.77 368.36,-355.56 336.19,-360.15"/><polygon fill="#000" stroke="#000" points="467.44 -306.96 471 -296.98 462 -302.56 467.44 -306.96"/><text x="576.1" y="-318.8" font-family="Times,serif" font-size="14" text-anchor="middle">कर्तृसमानाधिकरणम्</text></g><g id="node3" class="node"><title>Node1_1</title><ellipse cx="108.6" cy="-18" fill="#ff0" stroke="#ff0" rx="63.09" ry="18"/><text x="108.6" y="-14.3" font-family="Times,serif" font-size="14" text-anchor="middle">राज-(1.1)</text></g><g id="node4" class="node"><title>Node1_2</title><ellipse cx="108.6" cy="-105" fill="#ff0" stroke="#ff0" rx="63.09" ry="18"/><text x="108.6" y="-101.3" font-family="Times,serif" font-size="14" text-anchor="middle">ऋषि-(1.2)</text></g><g id="edge1" class="edge"><title>Node1_1-&gt;Node1_2</title><path fill="none" stroke="#000" d="M108.6,-46.27C108.6,-59.58 108.6,-75.19 108.6,-86.82"/><polygon fill="#000" stroke="#000" points="112.1 -46.2 108.6 -36.2 105.1 -46.2 112.1 -46.2"/><text x="173.1" y="-57.8" font-family="Times,serif" font-size="14" text-anchor="middle">कर्मधारयः</text></g><g id="node5" class="node"><title>Node1_4</title><ellipse cx="246.6" cy="-192" fill="#87ceeb" stroke="#87ceeb" rx="124.58" ry="18"/><text x="246.6" y="-188.3" font-family="Times,serif" font-size="14" text-anchor="middle">दैत्यानाम्(1.4)</text></g><g id="edge2" class="edge"><title>Node1_2-&gt;Node1_4</title><path fill="none" stroke="#000" d="M112.23,-133.23C114.55,-141.48 118.36,-149.95 124.6,-156 135.11,-166.2 148.4,-173.47 162.31,-178.63"/><polygon fill="#000" stroke="#000" points="115.64 -132.46 110.06 -123.45 108.81 -133.97 115.64 -132.46"/><text x="189.1" y="-144.8" font-family="Times,serif" font-size="14" text-anchor="middle">द्वन्द्वः</text></g><g id="edge4" class="edge"><title>Node1_4-&gt;Node8_1</title><path fill="none" stroke="#000" d="M260.54,-218.55C266.74,-227.63 274.86,-237.06 284.6,-243 323.89,-266.97 341.27,-252.99 386.6,-261 396.93,-262.83 407.89,-264.77 418.57,-266.66"/><polygon fill="#000" stroke="#000" points="263.49 -216.67 255.19 -210.08 257.57 -220.41 263.49 -216.67"/><text x="377.6" y="-231.8" font-family="Times,serif" font-size="14" text-anchor="middle">षष्ठीसम्बन्धः</text></g><g id="node6" class="node"><title>Node1_3</title><ellipse cx="270.6" cy="-105" fill="#ff0" stroke="#ff0" rx="81.49" ry="18"/><text x="270.6" y="-101.3" font-family="Times,serif" font-size="14" text-anchor="middle">विप्र-(1.3)</text></g><g id="edge3" class="edge"><title>Node1_3-&gt;Node1_4</title><path fill="none" stroke="#000" d="M263.01,-132.87C259.23,-146.27 254.76,-162.08 251.45,-173.82"/><polygon fill="#000" stroke="#000" points="266.39 -133.78 265.74 -123.2 259.65 -131.87 266.39 -133.78"/><text x="325.1" y="-144.8" font-family="Times,serif" font-size="14" text-anchor="middle">द्वन्द्वः</text></g><g id="node7" class="node"><title>Node2_1</title><ellipse cx="730.6" cy="-192" fill="#87ceeb" stroke="#87ceeb" rx="143.77" ry="18"/><text x="730.6" y="-188.3" font-family="Times,serif" font-size="14" text-anchor="middle">गन्धर्वाणाम्(2.1)</text></g><g id="edge5" class="edge"><title>Node2_1-&gt;Node8_1</title><path fill="none" stroke="#000" d="M678.89,-212.9C653.85,-222.35 623.28,-233.59 595.6,-243 574.3,-250.23 550.55,-257.68 530.34,-263.84"/><polygon fill="#000" stroke="#000" points="680.43 -216.06 688.55 -209.24 677.96 -209.51 680.43 -216.06"/><text x="729.6" y="-231.8" font-family="Times,serif" font-size="14" text-anchor="middle">षष्ठीसम्बन्धः</text></g><g id="node8" class="node"><title>Node3_1</title><ellipse cx="41.6" cy="-279" fill="#f9f" stroke="#f9f" rx="41.69" ry="18"/><text x="41.6" y="-275.3" font-family="Times,serif" font-size="14" text-anchor="middle">च(3.1)</text></g><g id="edge6" class="edge"><title>Node3_1-&gt;Node7_1</title><path fill="none" stroke="#000" d="M64.04,-302.73C74.86,-312.48 88.52,-323.17 102.6,-330 130.7,-343.63 164.16,-352.02 193.13,-357.14"/><polygon fill="#000" stroke="#000" points="66.4 -300.14 56.7 -295.87 61.62 -305.25 66.4 -300.14"/><text x="160.1" y="-318.8" font-family="Times,serif" font-size="14" text-anchor="middle">सम्बन्धः</text></g><g id="node10" class="node"><title>Node4_1</title><ellipse cx="188.6" cy="-279" fill="#00bfff" stroke="#00bfff" rx="87.99" ry="18"/><text x="188.6" y="-275.3" font-family="Times,serif" font-size="14" text-anchor="middle">योषितः(4.1)</text></g><g id="edge7" class="edge"><title>Node4_1-&gt;Node7_1</title><path fill="none" stroke="#000" d="M209.73,-304.61C221.76,-318.62 236.51,-335.79 247.2,-348.24"/><polygon fill="#000" stroke="#000" points="212.19 -302.1 203.02 -296.79 206.88 -306.66 212.19 -302.1"/><text x="265.6" y="-318.8" font-family="Times,serif" font-size="14" text-anchor="middle">कर्ता</text></g><g id="node11" class="node"><title>Node5_1</title><ellipse cx="998.6" cy="-192" fill="#87ceeb" stroke="#87ceeb" rx="106.68" ry="18"/><text x="998.6" y="-188.3" font-family="Times,serif" font-size="14" text-anchor="middle">रक्षसाम्(5.1)</text></g><g id="edge8" class="edge"><title>Node5_1-&gt;Node8_1</title><path fill="none" stroke="#000" d="M944.27,-211.54C910.73,-222.3 866.6,-235.22 826.6,-243 738.8,-260.08 636.67,-269.14 566.63,-273.72"/><polygon fill="#000" stroke="#000" points="945.44 -214.84 953.88 -208.43 943.29 -208.18 945.44 -214.84"/><text x="981.6" y="-231.8" font-family="Times,serif" font-size="14" text-anchor="middle">षष्ठीसम्बन्धः</text></g><g id="node12" class="node"><title>Node6_1</title><ellipse cx="335.6" cy="-279" fill="#f9f" stroke="#f9f" rx="41.69" ry="18"/><text x="335.6" y="-275.3" font-family="Times,serif" font-size="14" text-anchor="middle">च(6.1)</text></g><g id="edge9" class="edge"><title>Node6_1-&gt;Node7_1</title><path fill="none" stroke="#000" d="M322.58,-305.64C317.81,-313.85 312,-322.7 305.6,-330 299.68,-336.75 292.33,-343.17 285.35,-348.63"/><polygon fill="#000" stroke="#000" points="325.72 -307.2 327.5 -296.76 319.59 -303.81 325.72 -307.2"/><text x="374.1" y="-318.8" font-family="Times,serif" font-size="14" text-anchor="middle">सम्बन्धः</text></g><g id="node13" class="node"><title>Node9_1</title><ellipse cx="352.6" cy="-18" fill="#87ceeb" stroke="#87ceeb" rx="69.59" ry="18"/><text x="352.6" y="-14.3" font-family="Times,serif" font-size="14" text-anchor="middle">तस्य(9.1)</text></g><g id="node14" class="node"><title>Node10_2</title><ellipse cx="469.6" cy="-105" fill="#93db70" stroke="#93db70" rx="75.29" ry="18"/><text x="469.6" y="-101.3" font-family="Times,serif" font-size="14" text-anchor="middle">वशम्(10.2)</text></g><g id="edge11" class="edge"><title>Node9_1-&gt;Node10_2</title><path fill="none" stroke="#000" d="M344.56,-46.45C343.84,-54.38 344.81,-62.61 349.6,-69 361.38,-84.71 379.83,-93.69 398.76,-98.73"/><polygon fill="#000" stroke="#000" points="348.05 -46.82 346.32 -36.36 341.16 -45.62 348.05 -46.82"/><text x="442.6" y="-57.8" font-family="Times,serif" font-size="14" text-anchor="middle">षष्ठीसम्बन्धः</text></g><g id="edge13" class="edge"><title>Node10_2-&gt;Node11_1</title><path fill="none" stroke="#000" d="M469.6,-133.27C469.6,-146.58 469.6,-162.19 469.6,-173.82"/><polygon fill="#000" stroke="#000" points="473.1 -133.2 469.6 -123.2 466.1 -133.2 473.1 -133.2"/><text x="498.6" y="-144.8" font-family="Times,serif" font-size="14" text-anchor="middle">कर्म</text></g><g id="node15" class="node"><title>Node10_1</title><ellipse cx="561.6" cy="-18" fill="#ff0" stroke="#ff0" rx="68.79" ry="18"/><text x="561.6" y="-14.3" font-family="Times,serif" font-size="14" text-anchor="middle">काम-(10.1)</text></g><g id="edge12" class="edge"><title>Node10_1-&gt;Node10_2</title><path fill="none" stroke="#000" d="M553.84,-45.64C550.47,-53.86 545.83,-62.46 539.6,-69 531.35,-77.66 520.5,-84.5 509.82,-89.75"/><polygon fill="#000" stroke="#000" points="557.22 -46.57 557.34 -35.97 550.64 -44.18 557.22 -46.57"/><text x="653.1" y="-57.8" font-family="Times,serif" font-size="14" text-anchor="middle">षष्ठी_तत्पुरुषः</text></g></g></svg>