<?xml version="1.0" encoding="UTF-8" standalone="no"?>
<!DOCTYPE svg PUBLIC "-//W3C//DTD SVG 1.1//EN"
 "http://www.w3.org/Graphics/SVG/1.1/DTD/svg11.dtd">
<!-- Generated by graphviz version 2.43.0 (0)
 -->
<!-- Title: G Pages: 1 -->
<svg width="3034pt" height="653pt"
 viewBox="0.00 0.00 3033.89 653.00" xmlns="http://www.w3.org/2000/svg" xmlns:xlink="http://www.w3.org/1999/xlink">
<g id="graph0" class="graph" transform="scale(1 1) rotate(0) translate(4 649)">
<title>G</title>
<polygon fill="#fffacd" stroke="transparent" points="-4,4 -4,-649 3029.89,-649 3029.89,4 -4,4"/>
<g id="clust1" class="cluster">
<title>cluster_1</title>
<polygon fill="#fffacd" stroke="black" points="147.89,-340 147.89,-566 1337.89,-566 1337.89,-340 147.89,-340"/>
</g>
<g id="clust2" class="cluster">
<title>cluster_2</title>
<polygon fill="#fffacd" stroke="black" points="1345.89,-340 1345.89,-392 1575.89,-392 1575.89,-340 1345.89,-340"/>
</g>
<!-- Node1_6 -->
<g id="node1" class="node">
<title>Node1_6</title>
<ellipse fill="#00bfff" stroke="#00bfff" cx="649.89" cy="-453" rx="87.99" ry="18"/>
<text text-anchor="middle" x="649.89" y="-449.3" font-family="Times,serif" font-size="14.00">भूषणाः(1.6)</text>
</g>
<!-- Node12_2 -->
<g id="node2" class="node">
<title>Node12_2</title>
<ellipse fill="#00bfff" stroke="#00bfff" cx="547.89" cy="-540" rx="93.68" ry="18"/>
<text text-anchor="middle" x="547.89" y="-536.3" font-family="Times,serif" font-size="14.00">योषितः(12.2)</text>
</g>
<!-- Node1_6&#45;&gt;Node12_2 -->
<g id="edge6" class="edge">
<title>Node1_6&#45;&gt;Node12_2</title>
<path fill="none" stroke="black" d="M633.22,-479.36C626.88,-487.83 619.18,-496.91 610.89,-504 602.34,-511.32 592.01,-517.82 582.22,-523.17"/>
<polygon fill="black" stroke="black" points="636.1,-481.35 639.08,-471.18 630.41,-477.27 636.1,-481.35"/>
<text text-anchor="middle" x="682.39" y="-492.8" font-family="Times,serif" font-size="14.00">विशेषणम्</text>
</g>
<!-- Node13_1 -->
<g id="node25" class="node">
<title>Node13_1</title>
<ellipse fill="#ff1975" stroke="#ff1975" cx="161.89" cy="-627" rx="102.88" ry="18"/>
<text text-anchor="middle" x="161.89" y="-623.3" font-family="Times,serif" font-size="14.00">विरेजुः(13.1)</text>
</g>
<!-- Node12_2&#45;&gt;Node13_1 -->
<g id="edge25" class="edge">
<title>Node12_2&#45;&gt;Node13_1</title>
<path fill="none" stroke="black" d="M478.87,-556.2C406.18,-572.21 292.79,-597.17 223.17,-612.51"/>
<polygon fill="black" stroke="black" points="479.84,-559.57 488.85,-554 478.33,-552.73 479.84,-559.57"/>
<text text-anchor="middle" x="413.89" y="-579.8" font-family="Times,serif" font-size="14.00">कर्ता</text>
</g>
<!-- Node3_3 -->
<g id="node3" class="node">
<title>Node3_3</title>
<ellipse fill="#00bfff" stroke="#00bfff" cx="833.89" cy="-453" rx="78.79" ry="18"/>
<text text-anchor="middle" x="833.89" y="-449.3" font-family="Times,serif" font-size="14.00">चेतसः(3.3)</text>
</g>
<!-- Node3_3&#45;&gt;Node12_2 -->
<g id="edge12" class="edge">
<title>Node3_3&#45;&gt;Node12_2</title>
<path fill="none" stroke="black" d="M801.01,-475.73C784.48,-485.73 763.79,-496.92 743.89,-504 707.1,-517.1 664.59,-525.45 628.59,-530.7"/>
<polygon fill="black" stroke="black" points="803.07,-478.57 809.73,-470.33 799.38,-472.62 803.07,-478.57"/>
<text text-anchor="middle" x="834.39" y="-492.8" font-family="Times,serif" font-size="14.00">विशेषणम्</text>
</g>
<!-- Node4_2 -->
<g id="node4" class="node">
<title>Node4_2</title>
<ellipse fill="#00bfff" stroke="#00bfff" cx="243.89" cy="-453" rx="87.99" ry="18"/>
<text text-anchor="middle" x="243.89" y="-449.3" font-family="Times,serif" font-size="14.00">तिलकाः(4.2)</text>
</g>
<!-- Node4_2&#45;&gt;Node12_2 -->
<g id="edge14" class="edge">
<title>Node4_2&#45;&gt;Node12_2</title>
<path fill="none" stroke="black" d="M285.04,-474.2C307.1,-484.36 335,-496.15 360.89,-504 397.4,-515.07 439.03,-523.28 473.73,-528.95"/>
<polygon fill="black" stroke="black" points="286.5,-471.03 275.96,-469.97 283.54,-477.37 286.5,-471.03"/>
<text text-anchor="middle" x="418.39" y="-492.8" font-family="Times,serif" font-size="14.00">विशेषणम्</text>
</g>
<!-- Node5_1 -->
<g id="node5" class="node">
<title>Node5_1</title>
<ellipse fill="#00bfff" stroke="#00bfff" cx="262.89" cy="-366" rx="106.68" ry="18"/>
<text text-anchor="middle" x="262.89" y="-362.3" font-family="Times,serif" font-size="14.00">काश्चित्(5.1)</text>
</g>
<!-- Node5_1&#45;&gt;Node4_2 -->
<g id="edge15" class="edge">
<title>Node5_1&#45;&gt;Node4_2</title>
<path fill="none" stroke="black" d="M256.8,-394.27C253.82,-407.58 250.33,-423.19 247.73,-434.82"/>
<polygon fill="black" stroke="black" points="260.28,-394.72 259.05,-384.2 253.45,-393.2 260.28,-394.72"/>
<text text-anchor="middle" x="311.39" y="-405.8" font-family="Times,serif" font-size="14.00">विशेषणम्</text>
</g>
<!-- Node7_2 -->
<g id="node6" class="node">
<title>Node7_2</title>
<ellipse fill="#00bfff" stroke="#00bfff" cx="446.89" cy="-453" rx="96.68" ry="18"/>
<text text-anchor="middle" x="446.89" y="-449.3" font-family="Times,serif" font-size="14.00">नूपुराः(7.2)</text>
</g>
<!-- Node7_2&#45;&gt;Node12_2 -->
<g id="edge18" class="edge">
<title>Node7_2&#45;&gt;Node12_2</title>
<path fill="none" stroke="black" d="M469.01,-478.53C477.12,-486.98 486.59,-496.26 495.89,-504 503.84,-510.61 513.05,-517.14 521.49,-522.73"/>
<polygon fill="black" stroke="black" points="471.39,-475.96 461.99,-471.07 466.29,-480.75 471.39,-475.96"/>
<text text-anchor="middle" x="553.39" y="-492.8" font-family="Times,serif" font-size="14.00">विशेषणम्</text>
</g>
<!-- Node9_2 -->
<g id="node7" class="node">
<title>Node9_2</title>
<ellipse fill="#00bfff" stroke="#00bfff" cx="1008.89" cy="-453" rx="78.79" ry="18"/>
<text text-anchor="middle" x="1008.89" y="-449.3" font-family="Times,serif" font-size="14.00">हाराः(9.2)</text>
</g>
<!-- Node9_2&#45;&gt;Node12_2 -->
<g id="edge21" class="edge">
<title>Node9_2&#45;&gt;Node12_2</title>
<path fill="none" stroke="black" d="M971,-474.38C949.56,-484.98 921.91,-497.12 895.89,-504 811.36,-526.34 711.82,-534.63 640.9,-537.59"/>
<polygon fill="black" stroke="black" points="972.73,-477.43 980.08,-469.8 969.58,-471.18 972.73,-477.43"/>
<text text-anchor="middle" x="994.39" y="-492.8" font-family="Times,serif" font-size="14.00">विशेषणम्</text>
</g>
<!-- Node11_1 -->
<g id="node8" class="node">
<title>Node11_1</title>
<ellipse fill="#00bfff" stroke="#00bfff" cx="1217.89" cy="-453" rx="112.38" ry="18"/>
<text text-anchor="middle" x="1217.89" y="-449.3" font-family="Times,serif" font-size="14.00">काश्चित्(11.1)</text>
</g>
<!-- Node11_1&#45;&gt;Node12_2 -->
<g id="edge23" class="edge">
<title>Node11_1&#45;&gt;Node12_2</title>
<path fill="none" stroke="black" d="M1166.82,-473.08C1135.3,-484.02 1093.79,-496.94 1055.89,-504 912.93,-530.62 743.94,-537.48 641.4,-538.98"/>
<polygon fill="black" stroke="black" points="1167.99,-476.38 1176.27,-469.76 1165.67,-469.78 1167.99,-476.38"/>
<text text-anchor="middle" x="1171.39" y="-492.8" font-family="Times,serif" font-size="14.00">विशेषणम्</text>
</g>
<!-- Node6_1 -->
<g id="node9" class="node">
<title>Node6_1</title>
<ellipse fill="#00bfff" stroke="#00bfff" cx="1460.89" cy="-366" rx="106.68" ry="18"/>
<text text-anchor="middle" x="1460.89" y="-362.3" font-family="Times,serif" font-size="14.00">काश्चित्(6.1)</text>
</g>
<!-- Node6_1&#45;&gt;Node7_2 -->
<g id="edge16" class="edge">
<title>Node6_1&#45;&gt;Node7_2</title>
<path fill="none" stroke="black" d="M1392.4,-383.25C1375.94,-386.64 1358.36,-389.83 1341.89,-392 993.7,-437.79 902.08,-397.59 552.89,-435 540.48,-436.33 527.3,-438.13 514.61,-440.06"/>
<polygon fill="black" stroke="black" points="1393.43,-386.61 1402.49,-381.12 1391.98,-379.76 1393.43,-386.61"/>
<text text-anchor="middle" x="1301.39" y="-405.8" font-family="Times,serif" font-size="14.00">विशेषणम्</text>
</g>
<!-- Node1_1 -->
<g id="node10" class="node">
<title>Node1_1</title>
<ellipse fill="#ffff00" stroke="#ffff00" cx="2032.89" cy="-279" rx="118.08" ry="18"/>
<text text-anchor="middle" x="2032.89" y="-275.3" font-family="Times,serif" font-size="14.00">व्यावृत्त&#45;(1.1)</text>
</g>
<!-- Node1_3 -->
<g id="node11" class="node">
<title>Node1_3</title>
<ellipse fill="#ffff00" stroke="#ffff00" cx="2222.89" cy="-366" rx="109.38" ry="18"/>
<text text-anchor="middle" x="2222.89" y="-362.3" font-family="Times,serif" font-size="14.00">पीनस्रक्&#45;(1.3)</text>
</g>
<!-- Node1_1&#45;&gt;Node1_3 -->
<g id="edge1" class="edge">
<title>Node1_1&#45;&gt;Node1_3</title>
<path fill="none" stroke="black" d="M2049.59,-305.36C2056.7,-314.37 2065.71,-323.8 2075.89,-330 2083.29,-334.5 2122.14,-343.67 2158.04,-351.49"/>
<polygon fill="black" stroke="black" points="2052.39,-303.26 2043.62,-297.32 2046.77,-307.43 2052.39,-303.26"/>
<text text-anchor="middle" x="2147.39" y="-318.8" font-family="Times,serif" font-size="14.00">बहुव्रीहिः</text>
</g>
<!-- Node1_3&#45;&gt;Node1_6 -->
<g id="edge3" class="edge">
<title>Node1_3&#45;&gt;Node1_6</title>
<path fill="none" stroke="black" d="M2151.29,-383.01C2136.02,-386.19 2119.95,-389.36 2104.89,-392 2025.78,-405.89 2005.98,-410.82 1925.89,-417 1664.42,-437.18 1006.96,-410.06 745.89,-435 734.18,-436.12 721.76,-437.88 709.86,-439.86"/>
<polygon fill="black" stroke="black" points="2152.13,-386.41 2161.2,-380.92 2150.69,-379.56 2152.13,-386.41"/>
<text text-anchor="middle" x="2117.39" y="-405.8" font-family="Times,serif" font-size="14.00">बहुव्रीहिः</text>
</g>
<!-- Node1_2 -->
<g id="node12" class="node">
<title>Node1_2</title>
<ellipse fill="#ffff00" stroke="#ffff00" cx="2222.89" cy="-279" rx="53.89" ry="18"/>
<text text-anchor="middle" x="2222.89" y="-275.3" font-family="Times,serif" font-size="14.00">कच&#45;(1.2)</text>
</g>
<!-- Node1_2&#45;&gt;Node1_3 -->
<g id="edge2" class="edge">
<title>Node1_2&#45;&gt;Node1_3</title>
<path fill="none" stroke="black" d="M2222.89,-307.27C2222.89,-320.58 2222.89,-336.19 2222.89,-347.82"/>
<polygon fill="black" stroke="black" points="2226.39,-307.2 2222.89,-297.2 2219.39,-307.2 2226.39,-307.2"/>
<text text-anchor="middle" x="2287.39" y="-318.8" font-family="Times,serif" font-size="14.00">द्वन्द्वः</text>
</g>
<!-- Node1_4 -->
<g id="node13" class="node">
<title>Node1_4</title>
<ellipse fill="#ffff00" stroke="#ffff00" cx="2403.89" cy="-279" rx="109.38" ry="18"/>
<text text-anchor="middle" x="2403.89" y="-275.3" font-family="Times,serif" font-size="14.00">प्रकीर्ण&#45;(1.4)</text>
</g>
<!-- Node1_5 -->
<g id="node14" class="node">
<title>Node1_5</title>
<ellipse fill="#ffff00" stroke="#ffff00" cx="2403.89" cy="-366" rx="53.89" ry="18"/>
<text text-anchor="middle" x="2403.89" y="-362.3" font-family="Times,serif" font-size="14.00">वर&#45;(1.5)</text>
</g>
<!-- Node1_4&#45;&gt;Node1_5 -->
<g id="edge4" class="edge">
<title>Node1_4&#45;&gt;Node1_5</title>
<path fill="none" stroke="black" d="M2403.89,-307.27C2403.89,-320.58 2403.89,-336.19 2403.89,-347.82"/>
<polygon fill="black" stroke="black" points="2407.39,-307.2 2403.89,-297.2 2400.39,-307.2 2407.39,-307.2"/>
<text text-anchor="middle" x="2468.39" y="-318.8" font-family="Times,serif" font-size="14.00">कर्मधारयः</text>
</g>
<!-- Node1_5&#45;&gt;Node1_6 -->
<g id="edge5" class="edge">
<title>Node1_5&#45;&gt;Node1_6</title>
<path fill="none" stroke="black" d="M2363.19,-384.59C2355.86,-387.35 2348.22,-389.95 2340.89,-392 2276.65,-409.96 2259.33,-411.01 2192.89,-417 1872.61,-445.87 1066.06,-404.86 745.89,-435 734.18,-436.1 721.75,-437.86 709.86,-439.83"/>
<polygon fill="black" stroke="black" points="2364.89,-387.68 2372.94,-380.79 2362.35,-381.16 2364.89,-387.68"/>
<text text-anchor="middle" x="2372.39" y="-405.8" font-family="Times,serif" font-size="14.00">बहुव्रीहिः</text>
</g>
<!-- Node2_1 -->
<g id="node15" class="node">
<title>Node2_1</title>
<ellipse fill="#ffff00" stroke="#ffff00" cx="2032.89" cy="-18" rx="63.09" ry="18"/>
<text text-anchor="middle" x="2032.89" y="-14.3" font-family="Times,serif" font-size="14.00">पान&#45;(2.1)</text>
</g>
<!-- Node2_2 -->
<g id="node16" class="node">
<title>Node2_2</title>
<ellipse fill="#ffff00" stroke="#ffff00" cx="2032.89" cy="-105" rx="100.18" ry="18"/>
<text text-anchor="middle" x="2032.89" y="-101.3" font-family="Times,serif" font-size="14.00">व्यायाम&#45;(2.2)</text>
</g>
<!-- Node2_1&#45;&gt;Node2_2 -->
<g id="edge7" class="edge">
<title>Node2_1&#45;&gt;Node2_2</title>
<path fill="none" stroke="black" d="M2032.89,-46.27C2032.89,-59.58 2032.89,-75.19 2032.89,-86.82"/>
<polygon fill="black" stroke="black" points="2036.39,-46.2 2032.89,-36.2 2029.39,-46.2 2036.39,-46.2"/>
<text text-anchor="middle" x="2097.39" y="-57.8" font-family="Times,serif" font-size="14.00">द्वन्द्वः</text>
</g>
<!-- Node2_3 -->
<g id="node17" class="node">
<title>Node2_3</title>
<ellipse fill="#c6e2eb" stroke="#c6e2eb" cx="2032.89" cy="-192" rx="87.99" ry="18"/>
<text text-anchor="middle" x="2032.89" y="-188.3" font-family="Times,serif" font-size="14.00">कालेषु(2.3)</text>
</g>
<!-- Node2_2&#45;&gt;Node2_3 -->
<g id="edge8" class="edge">
<title>Node2_2&#45;&gt;Node2_3</title>
<path fill="none" stroke="black" d="M2032.89,-133.27C2032.89,-146.58 2032.89,-162.19 2032.89,-173.82"/>
<polygon fill="black" stroke="black" points="2036.39,-133.2 2032.89,-123.2 2029.39,-133.2 2036.39,-133.2"/>
<text text-anchor="middle" x="2136.39" y="-144.8" font-family="Times,serif" font-size="14.00">षष्ठी_तत्पुरुषः</text>
</g>
<!-- Node2_3&#45;&gt;Node1_1 -->
<g id="edge9" class="edge">
<title>Node2_3&#45;&gt;Node1_1</title>
<path fill="none" stroke="black" d="M2032.89,-220.27C2032.89,-233.58 2032.89,-249.19 2032.89,-260.82"/>
<polygon fill="black" stroke="black" points="2036.39,-220.2 2032.89,-210.2 2029.39,-220.2 2036.39,-220.2"/>
<text text-anchor="middle" x="2111.39" y="-231.8" font-family="Times,serif" font-size="14.00">कालाधिकरणम्</text>
</g>
<!-- Node3_1 -->
<g id="node18" class="node">
<title>Node3_1</title>
<ellipse fill="#ffff00" stroke="#ffff00" cx="2621.89" cy="-279" rx="90.98" ry="18"/>
<text text-anchor="middle" x="2621.89" y="-275.3" font-family="Times,serif" font-size="14.00">निद्रा&#45;(3.1)</text>
</g>
<!-- Node3_2 -->
<g id="node19" class="node">
<title>Node3_2</title>
<ellipse fill="#ffff00" stroke="#ffff00" cx="2547.89" cy="-366" rx="72.29" ry="18"/>
<text text-anchor="middle" x="2547.89" y="-362.3" font-family="Times,serif" font-size="14.00">उपहत&#45;(3.2)</text>
</g>
<!-- Node3_1&#45;&gt;Node3_2 -->
<g id="edge10" class="edge">
<title>Node3_1&#45;&gt;Node3_2</title>
<path fill="none" stroke="black" d="M2600.47,-304.61C2588.27,-318.62 2573.32,-335.79 2562.48,-348.24"/>
<polygon fill="black" stroke="black" points="2603.35,-306.63 2607.27,-296.79 2598.07,-302.04 2603.35,-306.63"/>
<text text-anchor="middle" x="2699.39" y="-318.8" font-family="Times,serif" font-size="14.00">तृतीया_तत्पुरुषः</text>
</g>
<!-- Node3_2&#45;&gt;Node3_3 -->
<g id="edge11" class="edge">
<title>Node3_2&#45;&gt;Node3_3</title>
<path fill="none" stroke="black" d="M2529.38,-391.61C2520.46,-401.44 2508.88,-411.68 2495.89,-417 2455.4,-433.58 964.42,-430.54 920.89,-435 910.18,-436.1 898.82,-437.87 887.96,-439.86"/>
<polygon fill="black" stroke="black" points="2532.12,-393.79 2535.93,-383.91 2526.79,-389.25 2532.12,-393.79"/>
<text text-anchor="middle" x="2589.39" y="-405.8" font-family="Times,serif" font-size="14.00">बहुव्रीहिः</text>
</g>
<!-- Node4_1 -->
<g id="node20" class="node">
<title>Node4_1</title>
<ellipse fill="#ffff00" stroke="#ffff00" cx="1703.89" cy="-366" rx="118.08" ry="18"/>
<text text-anchor="middle" x="1703.89" y="-362.3" font-family="Times,serif" font-size="14.00">व्यावृत्त&#45;(4.1)</text>
</g>
<!-- Node4_1&#45;&gt;Node4_2 -->
<g id="edge13" class="edge">
<title>Node4_1&#45;&gt;Node4_2</title>
<path fill="none" stroke="black" d="M1629.13,-383.13C1612.94,-386.33 1595.88,-389.47 1579.89,-392 1484,-407.16 1459.76,-410.58 1362.89,-417 909.59,-447.03 793.11,-391.66 340.89,-435 328.98,-436.14 316.33,-437.93 304.24,-439.93"/>
<polygon fill="black" stroke="black" points="1629.96,-386.53 1639.08,-381.14 1628.59,-379.67 1629.96,-386.53"/>
<text text-anchor="middle" x="1584.39" y="-405.8" font-family="Times,serif" font-size="14.00">बहुव्रीहिः</text>
</g>
<!-- Node7_1 -->
<g id="node21" class="node">
<title>Node7_1</title>
<ellipse fill="#ffff00" stroke="#ffff00" cx="1967.89" cy="-366" rx="128.08" ry="18"/>
<text text-anchor="middle" x="1967.89" y="-362.3" font-family="Times,serif" font-size="14.00">उद्भ्रान्त&#45;(7.1)</text>
</g>
<!-- Node7_1&#45;&gt;Node7_2 -->
<g id="edge17" class="edge">
<title>Node7_1&#45;&gt;Node7_2</title>
<path fill="none" stroke="black" d="M1889.68,-383.26C1827.67,-395.28 1738.66,-410.63 1659.89,-417 1169.43,-456.67 1043.07,-391.93 552.89,-435 540.08,-436.13 526.48,-437.88 513.44,-439.84"/>
<polygon fill="black" stroke="black" points="1890.63,-386.64 1899.77,-381.28 1889.29,-379.77 1890.63,-386.64"/>
<text text-anchor="middle" x="1850.39" y="-405.8" font-family="Times,serif" font-size="14.00">बहुव्रीहिः</text>
</g>
<!-- Node8_1 -->
<g id="node22" class="node">
<title>Node8_1</title>
<ellipse fill="#c6e2eb" stroke="#c6e2eb" cx="2906.89" cy="-366" rx="106.68" ry="18"/>
<text text-anchor="middle" x="2906.89" y="-362.3" font-family="Times,serif" font-size="14.00">पार्श्वे(8.1)</text>
</g>
<!-- Node8_1&#45;&gt;Node9_2 -->
<g id="edge19" class="edge">
<title>Node8_1&#45;&gt;Node9_2</title>
<path fill="none" stroke="black" d="M2883.65,-390.83C2872.15,-400.95 2857.42,-411.63 2841.89,-417 2750.27,-448.69 1193.35,-425.27 1096.89,-435 1085.9,-436.11 1074.24,-437.91 1063.12,-439.94"/>
<polygon fill="black" stroke="black" points="2886.09,-393.34 2891.07,-383.98 2881.35,-388.19 2886.09,-393.34"/>
<text text-anchor="middle" x="2947.39" y="-405.8" font-family="Times,serif" font-size="14.00">देशाधिकरणम्</text>
</g>
<!-- Node9_1 -->
<g id="node23" class="node">
<title>Node9_1</title>
<ellipse fill="#ffff00" stroke="#ffff00" cx="2709.89" cy="-366" rx="72.29" ry="18"/>
<text text-anchor="middle" x="2709.89" y="-362.3" font-family="Times,serif" font-size="14.00">गलित&#45;(9.1)</text>
</g>
<!-- Node9_1&#45;&gt;Node9_2 -->
<g id="edge20" class="edge">
<title>Node9_1&#45;&gt;Node9_2</title>
<path fill="none" stroke="black" d="M2700.88,-393.41C2696.37,-402.52 2689.9,-411.74 2680.89,-417 2642.89,-439.18 1140.67,-430.56 1096.89,-435 1085.9,-436.11 1074.24,-437.92 1063.12,-439.94"/>
<polygon fill="black" stroke="black" points="2704.14,-394.7 2704.9,-384.13 2697.72,-391.92 2704.14,-394.7"/>
<text text-anchor="middle" x="2766.39" y="-405.8" font-family="Times,serif" font-size="14.00">बहुव्रीहिः</text>
</g>
<!-- Node10_1 -->
<g id="node24" class="node">
<title>Node10_1</title>
<ellipse fill="#ff99ff" stroke="#ff99ff" cx="92.89" cy="-540" rx="47.39" ry="18"/>
<text text-anchor="middle" x="92.89" y="-536.3" font-family="Times,serif" font-size="14.00">च(10.1)</text>
</g>
<!-- Node10_1&#45;&gt;Node13_1 -->
<g id="edge22" class="edge">
<title>Node10_1&#45;&gt;Node13_1</title>
<path fill="none" stroke="black" d="M112.54,-565.2C123.92,-579.22 137.97,-596.52 148.16,-609.08"/>
<polygon fill="black" stroke="black" points="115.22,-562.95 106.2,-557.39 109.78,-567.36 115.22,-562.95"/>
<text text-anchor="middle" x="189.39" y="-579.8" font-family="Times,serif" font-size="14.00">सम्बन्धः</text>
</g>
<!-- Node12_1 -->
<g id="node26" class="node">
<title>Node12_1</title>
<ellipse fill="#ffff00" stroke="#ffff00" cx="68.89" cy="-453" rx="68.79" ry="18"/>
<text text-anchor="middle" x="68.89" y="-449.3" font-family="Times,serif" font-size="14.00">परम&#45;(12.1)</text>
</g>
<!-- Node12_1&#45;&gt;Node12_2 -->
<g id="edge24" class="edge">
<title>Node12_1&#45;&gt;Node12_2</title>
<path fill="none" stroke="black" d="M107.67,-473.8C130.45,-484.53 160.14,-496.99 187.89,-504 276.78,-526.45 381.38,-534.67 454.85,-537.6"/>
<polygon fill="black" stroke="black" points="108.89,-470.5 98.36,-469.32 105.86,-476.81 108.89,-470.5"/>
<text text-anchor="middle" x="252.39" y="-492.8" font-family="Times,serif" font-size="14.00">कर्मधारयः</text>
</g>
</g>
</svg>
