<?xml version="1.0" encoding="UTF-8" standalone="no"?>
<!DOCTYPE svg PUBLIC "-//W3C//DTD SVG 1.1//EN"
 "http://www.w3.org/Graphics/SVG/1.1/DTD/svg11.dtd">
<!-- Generated by graphviz version 2.43.0 (0)
 -->
<!-- Title: G Pages: 1 -->
<svg width="1501pt" height="305pt"
 viewBox="0.00 0.00 1501.00 305.00" xmlns="http://www.w3.org/2000/svg" xmlns:xlink="http://www.w3.org/1999/xlink">
<g id="graph0" class="graph" transform="scale(1 1) rotate(0) translate(4 301)">
<title>G</title>
<polygon fill="#fffacd" stroke="transparent" points="-4,4 -4,-301 1497,-301 1497,4 -4,4"/>
<g id="clust1" class="cluster">
<title>cluster_1</title>
<polygon fill="#fffacd" stroke="black" points="1155,-79 1155,-218 1485,-218 1485,-79 1155,-79"/>
</g>
<g id="clust2" class="cluster">
<title>cluster_2</title>
<polygon fill="#fffacd" stroke="black" points="8,-79 8,-218 711,-218 711,-79 8,-79"/>
</g>
<!-- Node3_1 -->
<g id="node1" class="node">
<title>Node3_1</title>
<ellipse fill="#93db70" stroke="#93db70" cx="1417" cy="-105" rx="59.59" ry="18"/>
<text text-anchor="middle" x="1417" y="-101.3" font-family="Times,serif" font-size="14.00">ताः(3.1)</text>
</g>
<!-- Node4_1 -->
<g id="node2" class="node">
<title>Node4_1</title>
<ellipse fill="#93db70" stroke="#93db70" cx="1270" cy="-192" rx="106.68" ry="18"/>
<text text-anchor="middle" x="1270" y="-188.3" font-family="Times,serif" font-size="14.00">स्त्रियः(4.1)</text>
</g>
<!-- Node3_1&#45;&gt;Node4_1 -->
<g id="edge4" class="edge">
<title>Node3_1&#45;&gt;Node4_1</title>
<path fill="none" stroke="black" d="M1385.56,-127.56C1371.79,-136.69 1355.32,-147.23 1340,-156 1328.56,-162.55 1315.74,-169.16 1304.23,-174.84"/>
<polygon fill="black" stroke="black" points="1387.81,-130.26 1394.17,-121.79 1383.92,-124.44 1387.81,-130.26"/>
<text text-anchor="middle" x="1420.5" y="-144.8" font-family="Times,serif" font-size="14.00">विशेषणम्</text>
</g>
<!-- Node9_1 -->
<g id="node11" class="node">
<title>Node9_1</title>
<ellipse fill="#ff1975" stroke="#ff1975" cx="869" cy="-279" rx="124.58" ry="18"/>
<text text-anchor="middle" x="869" y="-275.3" font-family="Times,serif" font-size="14.00">प्रैक्षन्त(9.1)</text>
</g>
<!-- Node4_1&#45;&gt;Node9_1 -->
<g id="edge5" class="edge">
<title>Node4_1&#45;&gt;Node9_1</title>
<path fill="none" stroke="black" d="M1247,-216.89C1236.14,-226.67 1222.4,-237.07 1208,-243 1169.02,-259.06 1068.4,-268.08 986.84,-272.93"/>
<polygon fill="black" stroke="black" points="1249.49,-219.36 1254.37,-209.95 1244.69,-214.26 1249.49,-219.36"/>
<text text-anchor="middle" x="1261" y="-231.8" font-family="Times,serif" font-size="14.00">कर्म</text>
</g>
<!-- Node5_2 -->
<g id="node3" class="node">
<title>Node5_2</title>
<ellipse fill="#93db70" stroke="#93db70" cx="1251" cy="-105" rx="87.99" ry="18"/>
<text text-anchor="middle" x="1251" y="-101.3" font-family="Times,serif" font-size="14.00">प्रभाः(5.2)</text>
</g>
<!-- Node5_2&#45;&gt;Node4_1 -->
<g id="edge7" class="edge">
<title>Node5_2&#45;&gt;Node4_1</title>
<path fill="none" stroke="black" d="M1227.72,-131.43C1223.27,-139.27 1221.06,-147.95 1225,-156 1228.57,-163.29 1234.46,-169.5 1240.84,-174.58"/>
<polygon fill="black" stroke="black" points="1230.73,-133.24 1233.51,-123.02 1224.96,-129.28 1230.73,-133.24"/>
<text text-anchor="middle" x="1282.5" y="-144.8" font-family="Times,serif" font-size="14.00">विशेषणम्</text>
</g>
<!-- Node6_1 -->
<g id="node4" class="node">
<title>Node6_1</title>
<ellipse fill="#00bfff" stroke="#00bfff" cx="596" cy="-105" rx="106.68" ry="18"/>
<text text-anchor="middle" x="596" y="-101.3" font-family="Times,serif" font-size="14.00">ज्वलन्तः(6.1)</text>
</g>
<!-- Node8_1 -->
<g id="node5" class="node">
<title>Node8_1</title>
<ellipse fill="#00bfff" stroke="#00bfff" cx="476" cy="-192" rx="78.79" ry="18"/>
<text text-anchor="middle" x="476" y="-188.3" font-family="Times,serif" font-size="14.00">दीपाः(8.1)</text>
</g>
<!-- Node6_1&#45;&gt;Node8_1 -->
<g id="edge8" class="edge">
<title>Node6_1&#45;&gt;Node8_1</title>
<path fill="none" stroke="black" d="M573.49,-130.42C564.78,-139.11 554.4,-148.56 544,-156 533.63,-163.41 521.48,-170.19 510.33,-175.76"/>
<polygon fill="black" stroke="black" points="576.2,-132.66 580.68,-123.06 571.19,-127.77 576.2,-132.66"/>
<text text-anchor="middle" x="617.5" y="-144.8" font-family="Times,serif" font-size="14.00">विशेषणम्</text>
</g>
<!-- Node8_1&#45;&gt;Node9_1 -->
<g id="edge10" class="edge">
<title>Node8_1&#45;&gt;Node9_1</title>
<path fill="none" stroke="black" d="M540.98,-207.05C613.41,-222.72 729.93,-247.92 802.84,-263.69"/>
<polygon fill="black" stroke="black" points="541.57,-203.6 531.06,-204.91 540.09,-210.44 541.57,-203.6"/>
<text text-anchor="middle" x="732" y="-231.8" font-family="Times,serif" font-size="14.00">कर्ता</text>
</g>
<!-- Node7_1 -->
<g id="node6" class="node">
<title>Node7_1</title>
<ellipse fill="#00bfff" stroke="#00bfff" cx="365" cy="-105" rx="106.68" ry="18"/>
<text text-anchor="middle" x="365" y="-101.3" font-family="Times,serif" font-size="14.00">काञ्चनाः(7.1)</text>
</g>
<!-- Node7_1&#45;&gt;Node8_1 -->
<g id="edge9" class="edge">
<title>Node7_1&#45;&gt;Node8_1</title>
<path fill="none" stroke="black" d="M394.2,-129.04C405.08,-137.57 417.57,-147.28 429,-156 437.09,-162.17 446.03,-168.86 453.92,-174.72"/>
<polygon fill="black" stroke="black" points="396.26,-126.21 386.24,-122.79 391.94,-131.72 396.26,-126.21"/>
<text text-anchor="middle" x="486.5" y="-144.8" font-family="Times,serif" font-size="14.00">विशेषणम्</text>
</g>
<!-- Node10_1 -->
<g id="node7" class="node">
<title>Node10_1</title>
<ellipse fill="#00bfff" stroke="#00bfff" cx="128" cy="-105" rx="112.38" ry="18"/>
<text text-anchor="middle" x="128" y="-101.3" font-family="Times,serif" font-size="14.00">अनिमिषाः(10.1)</text>
</g>
<!-- Node10_1&#45;&gt;Node8_1 -->
<g id="edge11" class="edge">
<title>Node10_1&#45;&gt;Node8_1</title>
<path fill="none" stroke="black" d="M183.14,-124.72C214.27,-134.86 254.03,-147.1 290,-156 330.67,-166.07 376.96,-174.79 413.19,-181.01"/>
<polygon fill="black" stroke="black" points="183.94,-121.3 173.35,-121.51 181.76,-127.95 183.94,-121.3"/>
<text text-anchor="middle" x="347.5" y="-144.8" font-family="Times,serif" font-size="14.00">विशेषणम्</text>
</g>
<!-- Node1_1 -->
<g id="node8" class="node">
<title>Node1_1</title>
<ellipse fill="#c6e2eb" stroke="#c6e2eb" cx="799" cy="-105" rx="78.79" ry="18"/>
<text text-anchor="middle" x="799" y="-101.3" font-family="Times,serif" font-size="14.00">रावणे(1.1)</text>
</g>
<!-- Node2_2 -->
<g id="node9" class="node">
<title>Node2_2</title>
<ellipse fill="#c6e2eb" stroke="#c6e2eb" cx="869" cy="-192" rx="106.68" ry="18"/>
<text text-anchor="middle" x="869" y="-188.3" font-family="Times,serif" font-size="14.00">संविष्टे(2.2)</text>
</g>
<!-- Node1_1&#45;&gt;Node2_2 -->
<g id="edge1" class="edge">
<title>Node1_1&#45;&gt;Node2_2</title>
<path fill="none" stroke="black" d="M814.12,-131.35C819.4,-139.51 825.62,-148.39 832,-156 837.23,-162.23 843.48,-168.5 849.34,-173.98"/>
<polygon fill="black" stroke="black" points="817.08,-129.49 808.8,-122.89 811.16,-133.22 817.08,-129.49"/>
<text text-anchor="middle" x="868" y="-144.8" font-family="Times,serif" font-size="14.00">कर्ता</text>
</g>
<!-- Node2_2&#45;&gt;Node9_1 -->
<g id="edge3" class="edge">
<title>Node2_2&#45;&gt;Node9_1</title>
<path fill="none" stroke="black" d="M869,-220.27C869,-233.58 869,-249.19 869,-260.82"/>
<polygon fill="black" stroke="black" points="872.5,-220.2 869,-210.2 865.5,-220.2 872.5,-220.2"/>
<text text-anchor="middle" x="1036.5" y="-231.8" font-family="Times,serif" font-size="14.00">भावलक्षणसप्तमी_पूर्वकालः</text>
</g>
<!-- Node2_1 -->
<g id="node10" class="node">
<title>Node2_1</title>
<ellipse fill="#ffff00" stroke="#ffff00" cx="959" cy="-105" rx="63.09" ry="18"/>
<text text-anchor="middle" x="959" y="-101.3" font-family="Times,serif" font-size="14.00">सुख&#45;(2.1)</text>
</g>
<!-- Node2_1&#45;&gt;Node2_2 -->
<g id="edge2" class="edge">
<title>Node2_1&#45;&gt;Node2_2</title>
<path fill="none" stroke="black" d="M934.2,-129.42C919.22,-143.57 900.46,-161.29 886.92,-174.08"/>
<polygon fill="black" stroke="black" points="936.78,-131.8 941.65,-122.39 931.97,-126.71 936.78,-131.8"/>
<text text-anchor="middle" x="1029.5" y="-144.8" font-family="Times,serif" font-size="14.00">तृतीया_तत्पुरुषः</text>
</g>
<!-- Node5_1 -->
<g id="node12" class="node">
<title>Node5_1</title>
<ellipse fill="#ffff00" stroke="#ffff00" cx="1251" cy="-18" rx="81.49" ry="18"/>
<text text-anchor="middle" x="1251" y="-14.3" font-family="Times,serif" font-size="14.00">विविध&#45;(5.1)</text>
</g>
<!-- Node5_1&#45;&gt;Node5_2 -->
<g id="edge6" class="edge">
<title>Node5_1&#45;&gt;Node5_2</title>
<path fill="none" stroke="black" d="M1251,-46.27C1251,-59.58 1251,-75.19 1251,-86.82"/>
<polygon fill="black" stroke="black" points="1254.5,-46.2 1251,-36.2 1247.5,-46.2 1254.5,-46.2"/>
<text text-anchor="middle" x="1322.5" y="-57.8" font-family="Times,serif" font-size="14.00">बहुव्रीहिः</text>
</g>
<!-- Node11_1 -->
<g id="node13" class="node">
<title>Node11_1</title>
<ellipse fill="#ff99ff" stroke="#ff99ff" cx="128" cy="-18" rx="56.59" ry="18"/>
<text text-anchor="middle" x="128" y="-14.3" font-family="Times,serif" font-size="14.00">इव(11.1)</text>
</g>
<!-- Node11_1&#45;&gt;Node10_1 -->
<g id="edge12" class="edge">
<title>Node11_1&#45;&gt;Node10_1</title>
<path fill="none" stroke="black" d="M128,-46.27C128,-59.58 128,-75.19 128,-86.82"/>
<polygon fill="black" stroke="black" points="131.5,-46.2 128,-36.2 124.5,-46.2 131.5,-46.2"/>
<text text-anchor="middle" x="185.5" y="-57.8" font-family="Times,serif" font-size="14.00">सम्बन्धः</text>
</g>
</g>
</svg>
