<?xml version="1.0" encoding="UTF-8" standalone="no"?>
<!DOCTYPE svg PUBLIC "-//W3C//DTD SVG 1.1//EN"
 "http://www.w3.org/Graphics/SVG/1.1/DTD/svg11.dtd">
<!-- Generated by graphviz version 2.43.0 (0)
 -->
<!-- Title: G Pages: 1 -->
<svg width="1596pt" height="408pt"
 viewBox="0.00 0.00 1595.60 408.00" xmlns="http://www.w3.org/2000/svg" xmlns:xlink="http://www.w3.org/1999/xlink">
<g id="graph0" class="graph" transform="scale(1 1) rotate(0) translate(4 404)">
<title>G</title>
<polygon fill="#fffacd" stroke="transparent" points="-4,4 -4,-404 1591.6,-404 1591.6,4 -4,4"/>
<g id="clust1" class="cluster">
<title>cluster_1</title>
<polygon fill="#fffacd" stroke="black" points="1046.6,-8 1046.6,-147 1294.6,-147 1294.6,-8 1046.6,-8"/>
</g>
<g id="clust2" class="cluster">
<title>cluster_2</title>
<polygon fill="#fffacd" stroke="black" points="416.6,-95 416.6,-234 608.6,-234 608.6,-95 416.6,-95"/>
</g>
<g id="clust3" class="cluster">
<title>cluster_3</title>
<polygon fill="#fffacd" stroke="black" points="234.6,-182 234.6,-321 408.6,-321 408.6,-182 234.6,-182"/>
</g>
<g id="clust4" class="cluster">
<title>cluster_4</title>
<polygon fill="#fffacd" stroke="black" points="767.6,-8 767.6,-147 1027.6,-147 1027.6,-8 767.6,-8"/>
</g>
<!-- Node4_1 -->
<g id="node1" class="node">
<title>Node4_1</title>
<ellipse fill="#87ceeb" stroke="#87ceeb" cx="1170.6" cy="-34" rx="115.88" ry="18"/>
<text text-anchor="middle" x="1170.6" y="-30.3" font-family="Times,serif" font-size="14.00">अन्यस्याः(4.1)</text>
</g>
<!-- Node5_1 -->
<g id="node2" class="node">
<title>Node5_1</title>
<ellipse fill="#87ceeb" stroke="#87ceeb" cx="1170.6" cy="-121" rx="87.99" ry="18"/>
<text text-anchor="middle" x="1170.6" y="-117.3" font-family="Times,serif" font-size="14.00">तस्याः(5.1)</text>
</g>
<!-- Node4_1&#45;&gt;Node5_1 -->
<g id="edge4" class="edge">
<title>Node4_1&#45;&gt;Node5_1</title>
<path fill="none" stroke="black" d="M1170.6,-62.27C1170.6,-75.58 1170.6,-91.19 1170.6,-102.82"/>
<polygon fill="black" stroke="black" points="1174.1,-62.2 1170.6,-52.2 1167.1,-62.2 1174.1,-62.2"/>
<text text-anchor="middle" x="1228.1" y="-73.8" font-family="Times,serif" font-size="14.00">विशेषणम्</text>
</g>
<!-- Node7_1 -->
<g id="node13" class="node">
<title>Node7_1</title>
<ellipse fill="#93db70" stroke="#93db70" cx="1182.6" cy="-208" rx="78.79" ry="18"/>
<text text-anchor="middle" x="1182.6" y="-204.3" font-family="Times,serif" font-size="14.00">भुजम्(7.1)</text>
</g>
<!-- Node5_1&#45;&gt;Node7_1 -->
<g id="edge5" class="edge">
<title>Node5_1&#45;&gt;Node7_1</title>
<path fill="none" stroke="black" d="M1169.74,-149.46C1169.9,-156.82 1170.41,-164.75 1171.6,-172 1172.56,-177.91 1174.3,-184.2 1176.12,-189.79"/>
<polygon fill="black" stroke="black" points="1173.24,-149.23 1169.74,-139.23 1166.24,-149.24 1173.24,-149.23"/>
<text text-anchor="middle" x="1264.6" y="-160.8" font-family="Times,serif" font-size="14.00">षष्ठीसम्बन्धः</text>
</g>
<!-- Node6_1 -->
<g id="node3" class="node">
<title>Node6_1</title>
<ellipse fill="#00bfff" stroke="#00bfff" cx="512.6" cy="-121" rx="87.99" ry="18"/>
<text text-anchor="middle" x="512.6" y="-117.3" font-family="Times,serif" font-size="14.00">काचित्(6.1)</text>
</g>
<!-- Node8_1 -->
<g id="node4" class="node">
<title>Node8_1</title>
<ellipse fill="#00bfff" stroke="#00bfff" cx="494.6" cy="-208" rx="69.59" ry="18"/>
<text text-anchor="middle" x="494.6" y="-204.3" font-family="Times,serif" font-size="14.00">अपरा(8.1)</text>
</g>
<!-- Node6_1&#45;&gt;Node8_1 -->
<g id="edge6" class="edge">
<title>Node6_1&#45;&gt;Node8_1</title>
<path fill="none" stroke="black" d="M506.82,-149.27C504,-162.58 500.7,-178.19 498.23,-189.82"/>
<polygon fill="black" stroke="black" points="510.31,-149.71 508.95,-139.2 503.46,-148.26 510.31,-149.71"/>
<text text-anchor="middle" x="562.1" y="-160.8" font-family="Times,serif" font-size="14.00">विशेषणम्</text>
</g>
<!-- Node1_1 -->
<g id="node5" class="node">
<title>Node1_1</title>
<ellipse fill="#00bfff" stroke="#00bfff" cx="321.6" cy="-295" rx="78.79" ry="18"/>
<text text-anchor="middle" x="321.6" y="-291.3" font-family="Times,serif" font-size="14.00">अन्या(1.1)</text>
</g>
<!-- Node8_1&#45;&gt;Node1_1 -->
<g id="edge8" class="edge">
<title>Node8_1&#45;&gt;Node1_1</title>
<path fill="none" stroke="black" d="M471.75,-233.07C461.96,-242.25 449.95,-252.15 437.6,-259 419.11,-269.26 397.26,-276.85 377.54,-282.3"/>
<polygon fill="black" stroke="black" points="474.36,-235.42 479.08,-225.93 469.48,-230.4 474.36,-235.42"/>
<text text-anchor="middle" x="522.1" y="-247.8" font-family="Times,serif" font-size="14.00">समुच्चितः</text>
</g>
<!-- Node17_1 -->
<g id="node9" class="node">
<title>Node17_1</title>
<ellipse fill="#ff1975" stroke="#ff1975" cx="1038.6" cy="-382" rx="100.98" ry="18"/>
<text text-anchor="middle" x="1038.6" y="-378.3" font-family="Times,serif" font-size="14.00">(शिश्ये)(17.1)</text>
</g>
<!-- Node1_1&#45;&gt;Node17_1 -->
<g id="edge1" class="edge">
<title>Node1_1&#45;&gt;Node17_1</title>
<path fill="none" stroke="black" d="M399.69,-305.26C536.45,-321.47 817.96,-354.84 957.09,-371.34"/>
<polygon fill="black" stroke="black" points="400.04,-301.77 389.7,-304.07 399.21,-308.73 400.04,-301.77"/>
<text text-anchor="middle" x="758.6" y="-334.8" font-family="Times,serif" font-size="14.00">कर्ता</text>
</g>
<!-- Node15_1 -->
<g id="node6" class="node">
<title>Node15_1</title>
<ellipse fill="#00bfff" stroke="#00bfff" cx="317.6" cy="-208" rx="75.29" ry="18"/>
<text text-anchor="middle" x="317.6" y="-204.3" font-family="Times,serif" font-size="14.00">अपरा(15.1)</text>
</g>
<!-- Node15_1&#45;&gt;Node1_1 -->
<g id="edge15" class="edge">
<title>Node15_1&#45;&gt;Node1_1</title>
<path fill="none" stroke="black" d="M309.17,-236.08C307.83,-243.51 307.26,-251.57 308.6,-259 309.67,-265 311.71,-271.31 313.86,-276.9"/>
<polygon fill="black" stroke="black" points="312.63,-236.66 311.47,-226.12 305.81,-235.08 312.63,-236.66"/>
<text text-anchor="middle" x="373.1" y="-247.8" font-family="Times,serif" font-size="14.00">समुच्चितः</text>
</g>
<!-- Node11_1 -->
<g id="node7" class="node">
<title>Node11_1</title>
<ellipse fill="#87ceeb" stroke="#87ceeb" cx="897.6" cy="-34" rx="121.58" ry="18"/>
<text text-anchor="middle" x="897.6" y="-30.3" font-family="Times,serif" font-size="14.00">अन्यस्याः(11.1)</text>
</g>
<!-- Node12_1 -->
<g id="node8" class="node">
<title>Node12_1</title>
<ellipse fill="#87ceeb" stroke="#87ceeb" cx="897.6" cy="-121" rx="93.68" ry="18"/>
<text text-anchor="middle" x="897.6" y="-117.3" font-family="Times,serif" font-size="14.00">तस्याः(12.1)</text>
</g>
<!-- Node11_1&#45;&gt;Node12_1 -->
<g id="edge11" class="edge">
<title>Node11_1&#45;&gt;Node12_1</title>
<path fill="none" stroke="black" d="M897.6,-62.27C897.6,-75.58 897.6,-91.19 897.6,-102.82"/>
<polygon fill="black" stroke="black" points="901.1,-62.2 897.6,-52.2 894.1,-62.2 901.1,-62.2"/>
<text text-anchor="middle" x="955.1" y="-73.8" font-family="Times,serif" font-size="14.00">विशेषणम्</text>
</g>
<!-- Node16_1 -->
<g id="node16" class="node">
<title>Node16_1</title>
<ellipse fill="#93db70" stroke="#93db70" cx="897.6" cy="-208" rx="75.29" ry="18"/>
<text text-anchor="middle" x="897.6" y="-204.3" font-family="Times,serif" font-size="14.00">कुचौ(16.1)</text>
</g>
<!-- Node12_1&#45;&gt;Node16_1 -->
<g id="edge12" class="edge">
<title>Node12_1&#45;&gt;Node16_1</title>
<path fill="none" stroke="black" d="M897.6,-149.27C897.6,-162.58 897.6,-178.19 897.6,-189.82"/>
<polygon fill="black" stroke="black" points="901.1,-149.2 897.6,-139.2 894.1,-149.2 901.1,-149.2"/>
<text text-anchor="middle" x="990.6" y="-160.8" font-family="Times,serif" font-size="14.00">षष्ठीसम्बन्धः</text>
</g>
<!-- Node2_1 -->
<g id="node10" class="node">
<title>Node2_1</title>
<ellipse fill="#c6e2eb" stroke="#c6e2eb" cx="1366.6" cy="-208" rx="87.99" ry="18"/>
<text text-anchor="middle" x="1366.6" y="-204.3" font-family="Times,serif" font-size="14.00">वक्षसि(2.1)</text>
</g>
<!-- Node18_1 -->
<g id="node11" class="node">
<title>Node18_1</title>
<ellipse fill="#ff99ff" stroke="#ff99ff" cx="1038.6" cy="-295" rx="109.68" ry="18"/>
<text text-anchor="middle" x="1038.6" y="-291.3" font-family="Times,serif" font-size="14.00">(उपनिधाय)(18.1)</text>
</g>
<!-- Node2_1&#45;&gt;Node18_1 -->
<g id="edge2" class="edge">
<title>Node2_1&#45;&gt;Node18_1</title>
<path fill="none" stroke="black" d="M1320.33,-228.26C1294.32,-238.52 1261.05,-250.69 1230.6,-259 1194.31,-268.9 1153.4,-276.79 1118.69,-282.56"/>
<polygon fill="black" stroke="black" points="1321.93,-231.39 1329.92,-224.44 1319.34,-224.89 1321.93,-231.39"/>
<text text-anchor="middle" x="1354.1" y="-247.8" font-family="Times,serif" font-size="14.00">देशाधिकरणम्</text>
</g>
<!-- Node18_1&#45;&gt;Node17_1 -->
<g id="edge17" class="edge">
<title>Node18_1&#45;&gt;Node17_1</title>
<path fill="none" stroke="black" d="M1038.6,-323.27C1038.6,-336.58 1038.6,-352.19 1038.6,-363.82"/>
<polygon fill="black" stroke="black" points="1042.1,-323.2 1038.6,-313.2 1035.1,-323.2 1042.1,-323.2"/>
<text text-anchor="middle" x="1103.1" y="-334.8" font-family="Times,serif" font-size="14.00">पूर्वकालः</text>
</g>
<!-- Node3_1 -->
<g id="node12" class="node">
<title>Node3_1</title>
<ellipse fill="#ff99ff" stroke="#ff99ff" cx="41.6" cy="-208" rx="41.69" ry="18"/>
<text text-anchor="middle" x="41.6" y="-204.3" font-family="Times,serif" font-size="14.00">च(3.1)</text>
</g>
<!-- Node3_1&#45;&gt;Node1_1 -->
<g id="edge3" class="edge">
<title>Node3_1&#45;&gt;Node1_1</title>
<path fill="none" stroke="black" d="M61.84,-232.73C71.39,-242.41 83.55,-252.76 96.6,-259 142.25,-280.83 198.5,-289.58 243.33,-292.87"/>
<polygon fill="black" stroke="black" points="64.17,-230.1 54.77,-225.21 59.07,-234.9 64.17,-230.1"/>
<text text-anchor="middle" x="200.1" y="-247.8" font-family="Times,serif" font-size="14.00">समुच्चय_द्योतकः</text>
</g>
<!-- Node7_1&#45;&gt;Node18_1 -->
<g id="edge7" class="edge">
<title>Node7_1&#45;&gt;Node18_1</title>
<path fill="none" stroke="black" d="M1174.21,-235.44C1170.35,-243.99 1164.95,-252.85 1157.6,-259 1145.13,-269.43 1129.66,-276.75 1114.05,-281.9"/>
<polygon fill="black" stroke="black" points="1177.5,-236.66 1177.94,-226.08 1170.99,-234.08 1177.5,-236.66"/>
<text text-anchor="middle" x="1197.6" y="-247.8" font-family="Times,serif" font-size="14.00">कर्म</text>
</g>
<!-- Node9_1 -->
<g id="node14" class="node">
<title>Node9_1</title>
<ellipse fill="#ff99ff" stroke="#ff99ff" cx="1534.6" cy="-208" rx="50.89" ry="18"/>
<text text-anchor="middle" x="1534.6" y="-204.3" font-family="Times,serif" font-size="14.00">तु(9.1)</text>
</g>
<!-- Node9_1&#45;&gt;Node18_1 -->
<g id="edge9" class="edge">
<title>Node9_1&#45;&gt;Node18_1</title>
<path fill="none" stroke="black" d="M1502.92,-229.35C1484.36,-240.18 1460.02,-252.57 1436.6,-259 1316.35,-292.02 1280.63,-264.1 1156.6,-277 1143.22,-278.39 1129.02,-280.17 1115.29,-282.06"/>
<polygon fill="black" stroke="black" points="1504.76,-232.33 1511.54,-224.19 1501.16,-226.33 1504.76,-232.33"/>
<text text-anchor="middle" x="1530.1" y="-247.8" font-family="Times,serif" font-size="14.00">सम्बन्धः</text>
</g>
<!-- Node10_1 -->
<g id="node15" class="node">
<title>Node10_1</title>
<ellipse fill="#93db70" stroke="#93db70" cx="710.6" cy="-208" rx="93.68" ry="18"/>
<text text-anchor="middle" x="710.6" y="-204.3" font-family="Times,serif" font-size="14.00">अङ्कम्(10.1)</text>
</g>
<!-- Node10_1&#45;&gt;Node18_1 -->
<g id="edge10" class="edge">
<title>Node10_1&#45;&gt;Node18_1</title>
<path fill="none" stroke="black" d="M769.83,-226.21C804.61,-236.16 849.49,-248.69 889.6,-259 918.16,-266.34 949.97,-273.9 976.84,-280.1"/>
<polygon fill="black" stroke="black" points="770.41,-222.74 759.83,-223.35 768.48,-229.47 770.41,-222.74"/>
<text text-anchor="middle" x="918.6" y="-247.8" font-family="Times,serif" font-size="14.00">कर्म</text>
</g>
<!-- Node16_1&#45;&gt;Node18_1 -->
<g id="edge16" class="edge">
<title>Node16_1&#45;&gt;Node18_1</title>
<path fill="none" stroke="black" d="M931.09,-230.72C945.06,-239.64 961.51,-249.98 976.6,-259 986.99,-265.22 998.51,-271.81 1008.78,-277.57"/>
<polygon fill="black" stroke="black" points="932.61,-227.54 922.3,-225.09 928.83,-233.43 932.61,-227.54"/>
<text text-anchor="middle" x="1005.6" y="-247.8" font-family="Times,serif" font-size="14.00">कर्म</text>
</g>
<!-- Node13_1 -->
<g id="node17" class="node">
<title>Node13_1</title>
<ellipse fill="#ff99ff" stroke="#ff99ff" cx="1038.6" cy="-208" rx="47.39" ry="18"/>
<text text-anchor="middle" x="1038.6" y="-204.3" font-family="Times,serif" font-size="14.00">च(13.1)</text>
</g>
<!-- Node13_1&#45;&gt;Node18_1 -->
<g id="edge13" class="edge">
<title>Node13_1&#45;&gt;Node18_1</title>
<path fill="none" stroke="black" d="M1038.6,-236.27C1038.6,-249.58 1038.6,-265.19 1038.6,-276.82"/>
<polygon fill="black" stroke="black" points="1042.1,-236.2 1038.6,-226.2 1035.1,-236.2 1042.1,-236.2"/>
<text text-anchor="middle" x="1096.1" y="-247.8" font-family="Times,serif" font-size="14.00">सम्बन्धः</text>
</g>
<!-- Node14_1 -->
<g id="node18" class="node">
<title>Node14_1</title>
<ellipse fill="#ff99ff" stroke="#ff99ff" cx="1231.6" cy="-295" rx="65.79" ry="18"/>
<text text-anchor="middle" x="1231.6" y="-291.3" font-family="Times,serif" font-size="14.00">अपि(14.1)</text>
</g>
<!-- Node14_1&#45;&gt;Node17_1 -->
<g id="edge14" class="edge">
<title>Node14_1&#45;&gt;Node17_1</title>
<path fill="none" stroke="black" d="M1208.24,-319.58C1197.79,-328.98 1184.85,-339.17 1171.6,-346 1151.86,-356.18 1128.91,-363.58 1107.69,-368.88"/>
<polygon fill="black" stroke="black" points="1210.78,-321.99 1215.71,-312.61 1206.01,-316.87 1210.78,-321.99"/>
<text text-anchor="middle" x="1250.1" y="-334.8" font-family="Times,serif" font-size="14.00">सम्बन्धः</text>
</g>
<!-- Node19_1 -->
<g id="node19" class="node">
<title>Node19_1</title>
<ellipse fill="#ff99ff" stroke="#ff99ff" cx="1379.6" cy="-121" rx="75.29" ry="18"/>
<text text-anchor="middle" x="1379.6" y="-117.3" font-family="Times,serif" font-size="14.00">पुनः(19.1)</text>
</g>
<!-- Node19_1&#45;&gt;Node7_1 -->
<g id="edge18" class="edge">
<title>Node19_1&#45;&gt;Node7_1</title>
<path fill="none" stroke="black" d="M1373.58,-148.74C1370.29,-157.47 1365.25,-166.36 1357.6,-172 1341.75,-183.67 1288.9,-178.16 1269.6,-182 1255.26,-184.85 1239.86,-188.93 1226.06,-192.97"/>
<polygon fill="black" stroke="black" points="1376.94,-149.72 1376.6,-139.13 1370.26,-147.62 1376.94,-149.72"/>
<text text-anchor="middle" x="1429.1" y="-160.8" font-family="Times,serif" font-size="14.00"> सम्बन्धः</text>
</g>
</g>
</svg>
