<?xml version="1.0" encoding="UTF-8" standalone="no"?>
<!DOCTYPE svg PUBLIC "-//W3C//DTD SVG 1.1//EN"
 "http://www.w3.org/Graphics/SVG/1.1/DTD/svg11.dtd">
<!-- Generated by graphviz version 2.43.0 (0)
 -->
<!-- Title: G Pages: 1 -->
<svg width="1593pt" height="392pt"
 viewBox="0.00 0.00 1593.00 392.00" xmlns="http://www.w3.org/2000/svg" xmlns:xlink="http://www.w3.org/1999/xlink">
<g id="graph0" class="graph" transform="scale(1 1) rotate(0) translate(4 388)">
<title>G</title>
<polygon fill="#fffacd" stroke="transparent" points="-4,4 -4,-388 1589,-388 1589,4 -4,4"/>
<g id="clust1" class="cluster">
<title>cluster_1</title>
<polygon fill="#fffacd" stroke="black" points="8,-166 8,-305 200,-305 200,-166 8,-166"/>
</g>
<!-- Node12_1 -->
<g id="node1" class="node">
<title>Node12_1</title>
<ellipse fill="#ff99ff" stroke="#ff99ff" cx="82" cy="-192" rx="65.79" ry="18"/>
<text text-anchor="middle" x="82" y="-188.3" font-family="Times,serif" font-size="14.00">तदा(12.1)</text>
</g>
<!-- Node9_1 -->
<g id="node2" class="node">
<title>Node9_1</title>
<ellipse fill="#c6e2eb" stroke="#c6e2eb" cx="104" cy="-279" rx="87.99" ry="18"/>
<text text-anchor="middle" x="104" y="-275.3" font-family="Times,serif" font-size="14.00">रात्रौ(9.1)</text>
</g>
<!-- Node12_1&#45;&gt;Node9_1 -->
<g id="edge12" class="edge">
<title>Node12_1&#45;&gt;Node9_1</title>
<path fill="none" stroke="black" d="M89.06,-220.27C92.5,-233.58 96.54,-249.19 99.55,-260.82"/>
<polygon fill="black" stroke="black" points="92.35,-219.01 86.45,-210.2 85.57,-220.76 92.35,-219.01"/>
<text text-anchor="middle" x="152.5" y="-231.8" font-family="Times,serif" font-size="14.00">विशेषणम्</text>
</g>
<!-- Node11_1 -->
<g id="node9" class="node">
<title>Node11_1</title>
<ellipse fill="#ff1975" stroke="#ff1975" cx="952" cy="-366" rx="75.29" ry="18"/>
<text text-anchor="middle" x="952" y="-362.3" font-family="Times,serif" font-size="14.00">बभुः(11.1)</text>
</g>
<!-- Node9_1&#45;&gt;Node11_1 -->
<g id="edge10" class="edge">
<title>Node9_1&#45;&gt;Node11_1</title>
<path fill="none" stroke="black" d="M188.26,-289.82C279.37,-300.31 428.9,-317.16 558,-330 671.27,-341.27 803.03,-352.62 881.85,-359.22"/>
<polygon fill="black" stroke="black" points="188.6,-286.33 178.26,-288.67 187.8,-293.29 188.6,-286.33"/>
<text text-anchor="middle" x="636.5" y="-318.8" font-family="Times,serif" font-size="14.00">कालाधिकरणम्</text>
</g>
<!-- Node1_1 -->
<g id="node3" class="node">
<title>Node1_1</title>
<ellipse fill="#00bfff" stroke="#00bfff" cx="610" cy="-192" rx="133.78" ry="18"/>
<text text-anchor="middle" x="610" y="-188.3" font-family="Times,serif" font-size="14.00">प्रबुद्धानि(1.1)</text>
</g>
<!-- Node5_1 -->
<g id="node4" class="node">
<title>Node5_1</title>
<ellipse fill="#ff99ff" stroke="#ff99ff" cx="613" cy="-279" rx="87.99" ry="18"/>
<text text-anchor="middle" x="613" y="-275.3" font-family="Times,serif" font-size="14.00">भूत्वा(5.1)</text>
</g>
<!-- Node1_1&#45;&gt;Node5_1 -->
<g id="edge1" class="edge">
<title>Node1_1&#45;&gt;Node5_1</title>
<path fill="none" stroke="black" d="M570.01,-216C561.68,-223.83 556.8,-233.12 562,-243 566.1,-250.79 572.81,-257.18 580.03,-262.27"/>
<polygon fill="black" stroke="black" points="572.46,-218.52 578.06,-209.52 568.07,-213.07 572.46,-218.52"/>
<text text-anchor="middle" x="683.5" y="-231.8" font-family="Times,serif" font-size="14.00">कर्तृसमानाधिकरणम्</text>
</g>
<!-- Node5_1&#45;&gt;Node11_1 -->
<g id="edge5" class="edge">
<title>Node5_1&#45;&gt;Node11_1</title>
<path fill="none" stroke="black" d="M664.81,-298.06C695.45,-308.32 735.14,-320.89 771,-330 810.86,-340.13 856.31,-348.9 891.69,-355.14"/>
<polygon fill="black" stroke="black" points="665.79,-294.7 655.2,-294.82 663.56,-301.33 665.79,-294.7"/>
<text text-anchor="middle" x="835.5" y="-318.8" font-family="Times,serif" font-size="14.00">पूर्वकालः</text>
</g>
<!-- Node2_1 -->
<g id="node5" class="node">
<title>Node2_1</title>
<ellipse fill="#ff99ff" stroke="#ff99ff" cx="787" cy="-18" rx="50.89" ry="18"/>
<text text-anchor="middle" x="787" y="-14.3" font-family="Times,serif" font-size="14.00">इव(2.1)</text>
</g>
<!-- Node3_1 -->
<g id="node6" class="node">
<title>Node3_1</title>
<ellipse fill="#00bfff" stroke="#00bfff" cx="787" cy="-105" rx="96.68" ry="18"/>
<text text-anchor="middle" x="787" y="-101.3" font-family="Times,serif" font-size="14.00">पद्मानि(3.1)</text>
</g>
<!-- Node2_1&#45;&gt;Node3_1 -->
<g id="edge2" class="edge">
<title>Node2_1&#45;&gt;Node3_1</title>
<path fill="none" stroke="black" d="M787,-46.27C787,-59.58 787,-75.19 787,-86.82"/>
<polygon fill="black" stroke="black" points="790.5,-46.2 787,-36.2 783.5,-46.2 790.5,-46.2"/>
<text text-anchor="middle" x="876" y="-57.8" font-family="Times,serif" font-size="14.00">उपमान_द्योतकः</text>
</g>
<!-- Node13_1 -->
<g id="node7" class="node">
<title>Node13_1</title>
<ellipse fill="#00bfff" stroke="#00bfff" cx="909" cy="-192" rx="93.68" ry="18"/>
<text text-anchor="middle" x="909" y="-188.3" font-family="Times,serif" font-size="14.00">वदनानि(13.1)</text>
</g>
<!-- Node3_1&#45;&gt;Node13_1 -->
<g id="edge3" class="edge">
<title>Node3_1&#45;&gt;Node13_1</title>
<path fill="none" stroke="black" d="M809.71,-130.17C818.65,-138.92 829.33,-148.5 840,-156 850.22,-163.19 862.12,-169.77 873.13,-175.24"/>
<polygon fill="black" stroke="black" points="812.18,-127.69 802.64,-123.07 807.22,-132.62 812.18,-127.69"/>
<text text-anchor="middle" x="890" y="-144.8" font-family="Times,serif" font-size="14.00">उपमानम्</text>
</g>
<!-- Node13_1&#45;&gt;Node5_1 -->
<g id="edge14" class="edge">
<title>Node13_1&#45;&gt;Node5_1</title>
<path fill="none" stroke="black" stroke-dasharray="1,5" d="M860.3,-212.45C849.5,-217.2 838.23,-222.51 828,-228 817.25,-233.77 816.34,-238.48 805,-243 769.12,-257.3 727.12,-265.8 691.57,-270.84"/>
<polygon fill="black" stroke="black" points="861.84,-215.59 869.64,-208.42 859.07,-209.17 861.84,-215.59"/>
<text text-anchor="middle" x="864" y="-231.8" font-family="Times,serif" font-size="14.00">कर्ता</text>
</g>
<!-- Node13_1&#45;&gt;Node11_1 -->
<g id="edge13" class="edge">
<title>Node13_1&#45;&gt;Node11_1</title>
<path fill="none" stroke="black" d="M909.92,-220.11C911.29,-243.11 914.66,-276.77 923,-305 927.49,-320.2 935.48,-336.32 941.94,-348.01"/>
<polygon fill="black" stroke="black" points="913.42,-219.86 909.42,-210.05 906.42,-220.21 913.42,-219.86"/>
<text text-anchor="middle" x="959" y="-275.3" font-family="Times,serif" font-size="14.00">कर्ता</text>
</g>
<!-- Node4_1 -->
<g id="node8" class="node">
<title>Node4_1</title>
<ellipse fill="#87ceeb" stroke="#87ceeb" cx="990" cy="-105" rx="87.99" ry="18"/>
<text text-anchor="middle" x="990" y="-101.3" font-family="Times,serif" font-size="14.00">तासाम्(4.1)</text>
</g>
<!-- Node4_1&#45;&gt;Node13_1 -->
<g id="edge4" class="edge">
<title>Node4_1&#45;&gt;Node13_1</title>
<path fill="none" stroke="black" d="M966.92,-130.22C953.51,-144.3 936.94,-161.68 924.97,-174.24"/>
<polygon fill="black" stroke="black" points="969.63,-132.45 974,-122.79 964.56,-127.62 969.63,-132.45"/>
<text text-anchor="middle" x="1047" y="-144.8" font-family="Times,serif" font-size="14.00">षष्ठीसम्बन्धः</text>
</g>
<!-- Node6_1 -->
<g id="node10" class="node">
<title>Node6_1</title>
<ellipse fill="#c6e2eb" stroke="#c6e2eb" cx="333" cy="-192" rx="124.58" ry="18"/>
<text text-anchor="middle" x="333" y="-188.3" font-family="Times,serif" font-size="14.00">क्षपाक्षये(6.1)</text>
</g>
<!-- Node6_1&#45;&gt;Node5_1 -->
<g id="edge6" class="edge">
<title>Node6_1&#45;&gt;Node5_1</title>
<path fill="none" stroke="black" d="M357.82,-216.4C369.48,-226.12 384.08,-236.6 399,-243 439.83,-260.51 488.48,-269.32 529.08,-273.72"/>
<polygon fill="black" stroke="black" points="360.1,-213.74 350.25,-209.85 355.52,-219.04 360.1,-213.74"/>
<text text-anchor="middle" x="477.5" y="-231.8" font-family="Times,serif" font-size="14.00">कालाधिकरणम्</text>
</g>
<!-- Node7_1 -->
<g id="node11" class="node">
<title>Node7_1</title>
<ellipse fill="#ff99ff" stroke="#ff99ff" cx="1074" cy="-279" rx="69.59" ry="18"/>
<text text-anchor="middle" x="1074" y="-275.3" font-family="Times,serif" font-size="14.00">पुनः(7.1)</text>
</g>
<!-- Node7_1&#45;&gt;Node11_1 -->
<g id="edge7" class="edge">
<title>Node7_1&#45;&gt;Node11_1</title>
<path fill="none" stroke="black" d="M1022.53,-297.36C1011.89,-302.18 1001.15,-308.05 992,-315 980.14,-324.01 969.74,-337.29 962.51,-347.9"/>
<polygon fill="black" stroke="black" points="1023.99,-300.54 1031.81,-293.39 1021.24,-294.11 1023.99,-300.54"/>
<text text-anchor="middle" x="1092" y="-318.8" font-family="Times,serif" font-size="14.00">क्रियाविशेषणम्</text>
</g>
<!-- Node8_1 -->
<g id="node12" class="node">
<title>Node8_1</title>
<ellipse fill="#ffff00" stroke="#ffff00" cx="1258" cy="-192" rx="81.49" ry="18"/>
<text text-anchor="middle" x="1258" y="-188.3" font-family="Times,serif" font-size="14.00">संवृत&#45;(8.1)</text>
</g>
<!-- Node8_2 -->
<g id="node13" class="node">
<title>Node8_2</title>
<ellipse fill="#00bfff" stroke="#00bfff" cx="1258" cy="-279" rx="96.68" ry="18"/>
<text text-anchor="middle" x="1258" y="-275.3" font-family="Times,serif" font-size="14.00">पत्राणि(8.2)</text>
</g>
<!-- Node8_1&#45;&gt;Node8_2 -->
<g id="edge8" class="edge">
<title>Node8_1&#45;&gt;Node8_2</title>
<path fill="none" stroke="black" d="M1258,-220.27C1258,-233.58 1258,-249.19 1258,-260.82"/>
<polygon fill="black" stroke="black" points="1261.5,-220.2 1258,-210.2 1254.5,-220.2 1261.5,-220.2"/>
<text text-anchor="middle" x="1329.5" y="-231.8" font-family="Times,serif" font-size="14.00">बहुव्रीहिः</text>
</g>
<!-- Node8_2&#45;&gt;Node11_1 -->
<g id="edge9" class="edge">
<title>Node8_2&#45;&gt;Node11_1</title>
<path fill="none" stroke="black" d="M1229.01,-303.02C1213.34,-315.27 1196.32,-328.19 1192,-330 1139.57,-351.96 1075.69,-360.49 1027.02,-363.65"/>
<polygon fill="black" stroke="black" points="1231.31,-305.67 1237.01,-296.74 1226.98,-300.16 1231.31,-305.67"/>
<text text-anchor="middle" x="1334.5" y="-318.8" font-family="Times,serif" font-size="14.00">कर्तृसमानाधिकरणम्</text>
</g>
<!-- Node10_1 -->
<g id="node14" class="node">
<title>Node10_1</title>
<ellipse fill="#ff99ff" stroke="#ff99ff" cx="1480" cy="-279" rx="56.59" ry="18"/>
<text text-anchor="middle" x="1480" y="-275.3" font-family="Times,serif" font-size="14.00">इव(10.1)</text>
</g>
<!-- Node10_1&#45;&gt;Node11_1 -->
<g id="edge11" class="edge">
<title>Node10_1&#45;&gt;Node11_1</title>
<path fill="none" stroke="black" d="M1474.12,-306.93C1470.84,-315.68 1465.78,-324.53 1458,-330 1423.65,-354.15 1159.56,-361.74 1027.16,-364.04"/>
<polygon fill="black" stroke="black" points="1477.49,-307.87 1477.11,-297.28 1470.8,-305.79 1477.49,-307.87"/>
<text text-anchor="middle" x="1527.5" y="-318.8" font-family="Times,serif" font-size="14.00">सम्बन्धः</text>
</g>
</g>
</svg>
