<?xml version="1.0" encoding="UTF-8" standalone="no"?>
<!DOCTYPE svg PUBLIC "-//W3C//DTD SVG 1.1//EN"
 "http://www.w3.org/Graphics/SVG/1.1/DTD/svg11.dtd">
<!-- Generated by graphviz version 2.43.0 (0)
 -->
<!-- Title: G Pages: 1 -->
<svg width="3031pt" height="479pt"
 viewBox="0.00 0.00 3031.00 479.00" xmlns="http://www.w3.org/2000/svg" xmlns:xlink="http://www.w3.org/1999/xlink">
<g id="graph0" class="graph" transform="scale(1 1) rotate(0) translate(4 475)">
<title>G</title>
<polygon fill="#fffacd" stroke="transparent" points="-4,4 -4,-475 3027,-475 3027,4 -4,4"/>
<g id="clust1" class="cluster">
<title>cluster_1</title>
<polygon fill="#fffacd" stroke="black" points="2434,-79 2434,-218 2801,-218 2801,-79 2434,-79"/>
</g>
<g id="clust2" class="cluster">
<title>cluster_2</title>
<polygon fill="#fffacd" stroke="black" points="1510,-253 1510,-392 2703,-392 2703,-253 1510,-253"/>
</g>
<g id="clust3" class="cluster">
<title>cluster_3</title>
<polygon fill="#fffacd" stroke="black" points="1051,-79 1051,-218 1534,-218 1534,-79 1051,-79"/>
</g>
<g id="clust4" class="cluster">
<title>cluster_4</title>
<polygon fill="#fffacd" stroke="black" points="8,-166 8,-305 696,-305 696,-166 8,-166"/>
</g>
<!-- Node2_2 -->
<g id="node1" class="node">
<title>Node2_2</title>
<ellipse fill="#40e0d0" stroke="#40e0d0" cx="2512" cy="-105" rx="69.59" ry="18"/>
<text text-anchor="middle" x="2512" y="-101.3" font-family="Times,serif" font-size="14.00">रदैः(2.2)</text>
</g>
<!-- Node1_2 -->
<g id="node2" class="node">
<title>Node1_2</title>
<ellipse fill="#40e0d0" stroke="#40e0d0" cx="2540" cy="-192" rx="96.68" ry="18"/>
<text text-anchor="middle" x="2540" y="-188.3" font-family="Times,serif" font-size="14.00">विषाणैः(1.2)</text>
</g>
<!-- Node2_2&#45;&gt;Node1_2 -->
<g id="edge4" class="edge">
<title>Node2_2&#45;&gt;Node1_2</title>
<path fill="none" stroke="black" d="M2509.45,-133.29C2509.57,-140.82 2510.49,-148.88 2513,-156 2515.29,-162.51 2519.31,-168.77 2523.56,-174.15"/>
<polygon fill="black" stroke="black" points="2512.95,-133.23 2509.73,-123.14 2505.96,-133.04 2512.95,-133.23"/>
<text text-anchor="middle" x="2577.5" y="-144.8" font-family="Times,serif" font-size="14.00">समुच्चितः</text>
</g>
<!-- Node7_1 -->
<g id="node4" class="node">
<title>Node7_1</title>
<ellipse fill="#93db70" stroke="#93db70" cx="2302" cy="-279" rx="143.77" ry="18"/>
<text text-anchor="middle" x="2302" y="-275.3" font-family="Times,serif" font-size="14.00">परिक्षिप्तम्(7.1)</text>
</g>
<!-- Node1_2&#45;&gt;Node7_1 -->
<g id="edge2" class="edge">
<title>Node1_2&#45;&gt;Node7_1</title>
<path fill="none" stroke="black" d="M2513.06,-216.26C2500.67,-225.86 2485.34,-236.28 2470,-243 2447.08,-253.04 2421.11,-260.26 2396.56,-265.43"/>
<polygon fill="black" stroke="black" points="2515.5,-218.79 2521.13,-209.81 2511.13,-213.32 2515.5,-218.79"/>
<text text-anchor="middle" x="2532" y="-231.8" font-family="Times,serif" font-size="14.00">करणम्</text>
</g>
<!-- Node3_2 -->
<g id="node3" class="node">
<title>Node3_2</title>
<ellipse fill="#40e0d0" stroke="#40e0d0" cx="2696" cy="-105" rx="96.68" ry="18"/>
<text text-anchor="middle" x="2696" y="-101.3" font-family="Times,serif" font-size="14.00">विषाणैः(3.2)</text>
</g>
<!-- Node3_2&#45;&gt;Node1_2 -->
<g id="edge6" class="edge">
<title>Node3_2&#45;&gt;Node1_2</title>
<path fill="none" stroke="black" d="M2673.74,-130.56C2664.6,-139.53 2653.48,-149.14 2642,-156 2627.38,-164.74 2610.26,-171.69 2594.27,-177.02"/>
<polygon fill="black" stroke="black" points="2676.4,-132.85 2680.91,-123.26 2671.41,-127.94 2676.4,-132.85"/>
<text text-anchor="middle" x="2725.5" y="-144.8" font-family="Times,serif" font-size="14.00">समुच्चितः</text>
</g>
<!-- Node15_1 -->
<g id="node5" class="node">
<title>Node15_1</title>
<ellipse fill="#93db70" stroke="#93db70" cx="1959" cy="-366" rx="112.38" ry="18"/>
<text text-anchor="middle" x="1959" y="-362.3" font-family="Times,serif" font-size="14.00">निवेशनम्(15.1)</text>
</g>
<!-- Node7_1&#45;&gt;Node15_1 -->
<g id="edge10" class="edge">
<title>Node7_1&#45;&gt;Node15_1</title>
<path fill="none" stroke="black" d="M2242.32,-298.93C2209.87,-308.87 2168.94,-320.85 2132,-330 2098.84,-338.22 2061.74,-345.91 2030.43,-351.99"/>
<polygon fill="black" stroke="black" points="2243.57,-302.2 2252.1,-295.91 2241.51,-295.51 2243.57,-302.2"/>
<text text-anchor="middle" x="2240.5" y="-318.8" font-family="Times,serif" font-size="14.00">विशेषणम्</text>
</g>
<!-- Node29_1 -->
<g id="node27" class="node">
<title>Node29_1</title>
<ellipse fill="#ff1975" stroke="#ff1975" cx="1474" cy="-453" rx="84.49" ry="18"/>
<text text-anchor="middle" x="1474" y="-449.3" font-family="Times,serif" font-size="14.00">ददर्श(29.1)</text>
</g>
<!-- Node15_1&#45;&gt;Node29_1 -->
<g id="edge18" class="edge">
<title>Node15_1&#45;&gt;Node29_1</title>
<path fill="none" stroke="black" d="M1876.16,-381.52C1780.04,-398.36 1623.7,-425.76 1536.98,-440.96"/>
<polygon fill="black" stroke="black" points="1876.88,-384.95 1886.13,-379.77 1875.67,-378.05 1876.88,-384.95"/>
<text text-anchor="middle" x="1774" y="-405.8" font-family="Times,serif" font-size="14.00">कर्म</text>
</g>
<!-- Node8_1 -->
<g id="node6" class="node">
<title>Node8_1</title>
<ellipse fill="#93db70" stroke="#93db70" cx="2579" cy="-279" rx="115.88" ry="18"/>
<text text-anchor="middle" x="2579" y="-275.3" font-family="Times,serif" font-size="14.00">असम्बाधम्(8.1)</text>
</g>
<!-- Node8_1&#45;&gt;Node15_1 -->
<g id="edge11" class="edge">
<title>Node8_1&#45;&gt;Node15_1</title>
<path fill="none" stroke="black" d="M2502.6,-295.86C2486.88,-299 2470.42,-302.19 2455,-305 2387.22,-317.37 2370.3,-320.94 2302,-330 2219.07,-341 2124.47,-350.42 2055.65,-356.71"/>
<polygon fill="black" stroke="black" points="2503.69,-299.22 2512.8,-293.82 2502.31,-292.35 2503.69,-299.22"/>
<text text-anchor="middle" x="2456.5" y="-318.8" font-family="Times,serif" font-size="14.00">विशेषणम्</text>
</g>
<!-- Node9_1 -->
<g id="node7" class="node">
<title>Node9_1</title>
<ellipse fill="#93db70" stroke="#93db70" cx="1652" cy="-279" rx="133.78" ry="18"/>
<text text-anchor="middle" x="1652" y="-275.3" font-family="Times,serif" font-size="14.00">रक्ष्यमाणम्(9.1)</text>
</g>
<!-- Node9_1&#45;&gt;Node15_1 -->
<g id="edge12" class="edge">
<title>Node9_1&#45;&gt;Node15_1</title>
<path fill="none" stroke="black" d="M1689.24,-301.69C1707.85,-311.68 1731.03,-322.87 1753,-330 1789.83,-341.96 1831.77,-350.03 1868.14,-355.38"/>
<polygon fill="black" stroke="black" points="1690.68,-298.49 1680.23,-296.76 1687.32,-304.63 1690.68,-298.49"/>
<text text-anchor="middle" x="1810.5" y="-318.8" font-family="Times,serif" font-size="14.00">विशेषणम्</text>
</g>
<!-- Node20_1 -->
<g id="node8" class="node">
<title>Node20_1</title>
<ellipse fill="#93db70" stroke="#93db70" cx="2047" cy="-279" rx="93.68" ry="18"/>
<text text-anchor="middle" x="2047" y="-275.3" font-family="Times,serif" font-size="14.00">आवृतम्(20.1)</text>
</g>
<!-- Node20_1&#45;&gt;Node15_1 -->
<g id="edge24" class="edge">
<title>Node20_1&#45;&gt;Node15_1</title>
<path fill="none" stroke="black" d="M2024.46,-304.32C2016.56,-312.62 2007.53,-321.86 1999,-330 1992.59,-336.12 1985.37,-342.57 1978.84,-348.24"/>
<polygon fill="black" stroke="black" points="2027.03,-306.7 2031.35,-297.02 2021.94,-301.89 2027.03,-306.7"/>
<text text-anchor="middle" x="2070.5" y="-318.8" font-family="Times,serif" font-size="14.00">विशेषणम्</text>
</g>
<!-- Node21_1 -->
<g id="node9" class="node">
<title>Node21_1</title>
<ellipse fill="#93db70" stroke="#93db70" cx="1870" cy="-279" rx="65.79" ry="18"/>
<text text-anchor="middle" x="1870" y="-275.3" font-family="Times,serif" font-size="14.00">तत्(21.1)</text>
</g>
<!-- Node21_1&#45;&gt;Node15_1 -->
<g id="edge25" class="edge">
<title>Node21_1&#45;&gt;Node15_1</title>
<path fill="none" stroke="black" d="M1870.79,-307.5C1872.2,-315.44 1874.92,-323.66 1880,-330 1886.85,-338.55 1896.21,-345.06 1906.11,-350.02"/>
<polygon fill="black" stroke="black" points="1874.25,-306.94 1869.62,-297.41 1867.3,-307.75 1874.25,-306.94"/>
<text text-anchor="middle" x="1937.5" y="-318.8" font-family="Times,serif" font-size="14.00">विशेषणम्</text>
</g>
<!-- Node13_1 -->
<g id="node10" class="node">
<title>Node13_1</title>
<ellipse fill="#40e0d0" stroke="#40e0d0" cx="1414" cy="-105" rx="112.38" ry="18"/>
<text text-anchor="middle" x="1414" y="-101.3" font-family="Times,serif" font-size="14.00">पत्नीभिः(13.1)</text>
</g>
<!-- Node19_2 -->
<g id="node11" class="node">
<title>Node19_2</title>
<ellipse fill="#40e0d0" stroke="#40e0d0" cx="1411" cy="-192" rx="112.38" ry="18"/>
<text text-anchor="middle" x="1411" y="-188.3" font-family="Times,serif" font-size="14.00">कन्याभिः(19.2)</text>
</g>
<!-- Node13_1&#45;&gt;Node19_2 -->
<g id="edge16" class="edge">
<title>Node13_1&#45;&gt;Node19_2</title>
<path fill="none" stroke="black" d="M1413.04,-133.27C1412.57,-146.58 1412.02,-162.19 1411.61,-173.82"/>
<polygon fill="black" stroke="black" points="1416.54,-133.32 1413.39,-123.2 1409.54,-133.07 1416.54,-133.32"/>
<text text-anchor="middle" x="1476.5" y="-144.8" font-family="Times,serif" font-size="14.00">समुच्चितः</text>
</g>
<!-- Node19_2&#45;&gt;Node20_1 -->
<g id="edge23" class="edge">
<title>Node19_2&#45;&gt;Node20_1</title>
<path fill="none" stroke="black" d="M1480.46,-209.34C1497.55,-212.77 1515.86,-215.97 1533,-218 1664.16,-233.53 1698.96,-211.48 1830,-228 1860.71,-231.87 1867.75,-236.45 1898,-243 1918.87,-247.52 1924.18,-248.24 1945,-253 1960.46,-256.54 1977.2,-260.56 1992.55,-264.33"/>
<polygon fill="black" stroke="black" points="1481.06,-205.89 1470.55,-207.29 1479.64,-212.74 1481.06,-205.89"/>
<text text-anchor="middle" x="1934" y="-231.8" font-family="Times,serif" font-size="14.00">करणम्</text>
</g>
<!-- Node16_1 -->
<g id="node12" class="node">
<title>Node16_1</title>
<ellipse fill="#40e0d0" stroke="#40e0d0" cx="1171" cy="-105" rx="112.38" ry="18"/>
<text text-anchor="middle" x="1171" y="-101.3" font-family="Times,serif" font-size="14.00">आहृताभिः(16.1)</text>
</g>
<!-- Node16_1&#45;&gt;Node19_2 -->
<g id="edge19" class="edge">
<title>Node16_1&#45;&gt;Node19_2</title>
<path fill="none" stroke="black" d="M1216.85,-126.07C1239.55,-135.68 1267.5,-147.02 1293,-156 1313.66,-163.28 1336.69,-170.34 1356.88,-176.19"/>
<polygon fill="black" stroke="black" points="1218.04,-122.77 1207.47,-122.07 1215.29,-129.21 1218.04,-122.77"/>
<text text-anchor="middle" x="1350.5" y="-144.8" font-family="Times,serif" font-size="14.00">विशेषणम्</text>
</g>
<!-- Node22_3 -->
<g id="node13" class="node">
<title>Node22_3</title>
<ellipse fill="#93db70" stroke="#93db70" cx="128" cy="-192" rx="112.38" ry="18"/>
<text text-anchor="middle" x="128" y="-188.3" font-family="Times,serif" font-size="14.00">आकीर्णम्(22.3)</text>
</g>
<!-- Node27_1 -->
<g id="node14" class="node">
<title>Node27_1</title>
<ellipse fill="#93db70" stroke="#93db70" cx="583" cy="-279" rx="93.68" ry="18"/>
<text text-anchor="middle" x="583" y="-275.3" font-family="Times,serif" font-size="14.00">सागरम्(27.1)</text>
</g>
<!-- Node22_3&#45;&gt;Node27_1 -->
<g id="edge28" class="edge">
<title>Node22_3&#45;&gt;Node27_1</title>
<path fill="none" stroke="black" d="M185.43,-211.47C220.05,-222.01 265.2,-234.74 306,-243 370.49,-256.06 444.48,-265.11 499.75,-270.73"/>
<polygon fill="black" stroke="black" points="186.09,-208.01 175.5,-208.42 184.03,-214.7 186.09,-208.01"/>
<text text-anchor="middle" x="363.5" y="-231.8" font-family="Times,serif" font-size="14.00">विशेषणम्</text>
</g>
<!-- Node27_1&#45;&gt;Node15_1 -->
<g id="edge37" class="edge">
<title>Node27_1&#45;&gt;Node15_1</title>
<path fill="none" stroke="black" d="M680.86,-286.05C932.37,-301.58 1599.55,-342.8 1856.3,-358.66"/>
<polygon fill="black" stroke="black" points="680.84,-282.54 670.64,-285.41 680.41,-289.52 680.84,-282.54"/>
<text text-anchor="middle" x="1403" y="-318.8" font-family="Times,serif" font-size="14.00">उपमानम्</text>
</g>
<!-- Node23_3 -->
<g id="node15" class="node">
<title>Node23_3</title>
<ellipse fill="#93db70" stroke="#93db70" cx="352" cy="-192" rx="93.68" ry="18"/>
<text text-anchor="middle" x="352" y="-188.3" font-family="Times,serif" font-size="14.00">आकुलम्(23.3)</text>
</g>
<!-- Node23_3&#45;&gt;Node27_1 -->
<g id="edge31" class="edge">
<title>Node23_3&#45;&gt;Node27_1</title>
<path fill="none" stroke="black" d="M393.1,-213.63C413.26,-223.29 438.08,-234.51 461,-243 482.8,-251.07 507.35,-258.44 528.68,-264.31"/>
<polygon fill="black" stroke="black" points="394.42,-210.38 383.89,-209.18 391.37,-216.68 394.42,-210.38"/>
<text text-anchor="middle" x="518.5" y="-231.8" font-family="Times,serif" font-size="14.00">विशेषणम्</text>
</g>
<!-- Node24_3 -->
<g id="node16" class="node">
<title>Node24_3</title>
<ellipse fill="#93db70" stroke="#93db70" cx="576" cy="-192" rx="112.38" ry="18"/>
<text text-anchor="middle" x="576" y="-188.3" font-family="Times,serif" font-size="14.00">समाधूतम्(24.3)</text>
</g>
<!-- Node24_3&#45;&gt;Node27_1 -->
<g id="edge34" class="edge">
<title>Node24_3&#45;&gt;Node27_1</title>
<path fill="none" stroke="black" d="M578.25,-220.27C579.34,-233.58 580.63,-249.19 581.59,-260.82"/>
<polygon fill="black" stroke="black" points="581.73,-219.88 577.42,-210.2 574.75,-220.45 581.73,-219.88"/>
<text text-anchor="middle" x="637.5" y="-231.8" font-family="Times,serif" font-size="14.00">विशेषणम्</text>
</g>
<!-- Node1_1 -->
<g id="node17" class="node">
<title>Node1_1</title>
<ellipse fill="#ffff00" stroke="#ffff00" cx="2343" cy="-105" rx="81.49" ry="18"/>
<text text-anchor="middle" x="2343" y="-101.3" font-family="Times,serif" font-size="14.00">चतुर्&#45;(1.1)</text>
</g>
<!-- Node1_1&#45;&gt;Node1_2 -->
<g id="edge1" class="edge">
<title>Node1_1&#45;&gt;Node1_2</title>
<path fill="none" stroke="black" d="M2347.67,-133.21C2350.45,-141.72 2354.9,-150.34 2362,-156 2374.63,-166.07 2418.12,-163.03 2434,-166 2450.82,-169.14 2468.99,-173.19 2485.46,-177.11"/>
<polygon fill="black" stroke="black" points="2351.03,-132.25 2345.1,-123.47 2344.26,-134.03 2351.03,-132.25"/>
<text text-anchor="middle" x="2433.5" y="-144.8" font-family="Times,serif" font-size="14.00">बहुव्रीहिः</text>
</g>
<!-- Node2_1 -->
<g id="node18" class="node">
<title>Node2_1</title>
<ellipse fill="#ffff00" stroke="#ffff00" cx="2512" cy="-18" rx="72.29" ry="18"/>
<text text-anchor="middle" x="2512" y="-14.3" font-family="Times,serif" font-size="14.00">द्वि&#45;(2.1)</text>
</g>
<!-- Node2_1&#45;&gt;Node2_2 -->
<g id="edge3" class="edge">
<title>Node2_1&#45;&gt;Node2_2</title>
<path fill="none" stroke="black" d="M2512,-46.27C2512,-59.58 2512,-75.19 2512,-86.82"/>
<polygon fill="black" stroke="black" points="2515.5,-46.2 2512,-36.2 2508.5,-46.2 2515.5,-46.2"/>
<text text-anchor="middle" x="2583.5" y="-57.8" font-family="Times,serif" font-size="14.00">बहुव्रीहिः</text>
</g>
<!-- Node3_1 -->
<g id="node19" class="node">
<title>Node3_1</title>
<ellipse fill="#ffff00" stroke="#ffff00" cx="2696" cy="-18" rx="72.29" ry="18"/>
<text text-anchor="middle" x="2696" y="-14.3" font-family="Times,serif" font-size="14.00">त्रि&#45;(3.1)</text>
</g>
<!-- Node3_1&#45;&gt;Node3_2 -->
<g id="edge5" class="edge">
<title>Node3_1&#45;&gt;Node3_2</title>
<path fill="none" stroke="black" d="M2696,-46.27C2696,-59.58 2696,-75.19 2696,-86.82"/>
<polygon fill="black" stroke="black" points="2699.5,-46.2 2696,-36.2 2692.5,-46.2 2699.5,-46.2"/>
<text text-anchor="middle" x="2767.5" y="-57.8" font-family="Times,serif" font-size="14.00">बहुव्रीहिः</text>
</g>
<!-- Node4_1 -->
<g id="node20" class="node">
<title>Node4_1</title>
<ellipse fill="#ff99ff" stroke="#ff99ff" cx="2365" cy="-192" rx="59.59" ry="18"/>
<text text-anchor="middle" x="2365" y="-188.3" font-family="Times,serif" font-size="14.00">तथा(4.1)</text>
</g>
<!-- Node4_1&#45;&gt;Node7_1 -->
<g id="edge7" class="edge">
<title>Node4_1&#45;&gt;Node7_1</title>
<path fill="none" stroke="black" d="M2355.94,-219.54C2352.55,-227.49 2348.23,-235.97 2343,-243 2338.09,-249.61 2331.71,-255.81 2325.45,-261.1"/>
<polygon fill="black" stroke="black" points="2359.2,-220.81 2359.6,-210.22 2352.68,-218.25 2359.2,-220.81"/>
<text text-anchor="middle" x="2408.5" y="-231.8" font-family="Times,serif" font-size="14.00">सम्बन्धः</text>
</g>
<!-- Node5_1 -->
<g id="node21" class="node">
<title>Node5_1</title>
<ellipse fill="#ff99ff" stroke="#ff99ff" cx="2227" cy="-192" rx="50.89" ry="18"/>
<text text-anchor="middle" x="2227" y="-188.3" font-family="Times,serif" font-size="14.00">एव(5.1)</text>
</g>
<!-- Node5_1&#45;&gt;Node7_1 -->
<g id="edge8" class="edge">
<title>Node5_1&#45;&gt;Node7_1</title>
<path fill="none" stroke="black" d="M2219.53,-220.06C2218.82,-227.98 2219.66,-236.3 2224,-243 2229.32,-251.22 2237.09,-257.53 2245.68,-262.37"/>
<polygon fill="black" stroke="black" points="2223,-220.48 2221.18,-210.05 2216.1,-219.34 2223,-220.48"/>
<text text-anchor="middle" x="2281.5" y="-231.8" font-family="Times,serif" font-size="14.00">सम्बन्धः</text>
</g>
<!-- Node6_1 -->
<g id="node22" class="node">
<title>Node6_1</title>
<ellipse fill="#ff99ff" stroke="#ff99ff" cx="2852" cy="-105" rx="41.69" ry="18"/>
<text text-anchor="middle" x="2852" y="-101.3" font-family="Times,serif" font-size="14.00">च(6.1)</text>
</g>
<!-- Node6_1&#45;&gt;Node1_2 -->
<g id="edge9" class="edge">
<title>Node6_1&#45;&gt;Node1_2</title>
<path fill="none" stroke="black" d="M2830.78,-129.55C2820.63,-139.32 2807.71,-149.81 2794,-156 2764.94,-169.12 2688.87,-178.52 2627.5,-184.25"/>
<polygon fill="black" stroke="black" points="2833.42,-131.86 2837.97,-122.29 2828.45,-126.93 2833.42,-131.86"/>
<text text-anchor="middle" x="2919.5" y="-144.8" font-family="Times,serif" font-size="14.00">समुच्चय_द्योतकः</text>
</g>
<!-- Node10_1 -->
<g id="node23" class="node">
<title>Node10_1</title>
<ellipse fill="#40e0d0" stroke="#40e0d0" cx="1767" cy="-192" rx="112.38" ry="18"/>
<text text-anchor="middle" x="1767" y="-188.3" font-family="Times,serif" font-size="14.00">उदायुधैः(10.1)</text>
</g>
<!-- Node10_1&#45;&gt;Node9_1 -->
<g id="edge13" class="edge">
<title>Node10_1&#45;&gt;Node9_1</title>
<path fill="none" stroke="black" d="M1758.59,-219.75C1754.9,-228.08 1749.82,-236.71 1743,-243 1733.92,-251.38 1722.62,-257.83 1711.1,-262.76"/>
<polygon fill="black" stroke="black" points="1761.91,-220.87 1762.3,-210.28 1755.4,-218.31 1761.91,-220.87"/>
<text text-anchor="middle" x="1790" y="-231.8" font-family="Times,serif" font-size="14.00">करणम्</text>
</g>
<!-- Node11_1 -->
<g id="node24" class="node">
<title>Node11_1</title>
<ellipse fill="#40e0d0" stroke="#40e0d0" cx="2028" cy="-192" rx="130.78" ry="18"/>
<text text-anchor="middle" x="2028" y="-188.3" font-family="Times,serif" font-size="14.00">राक्षसीभिः(11.1)</text>
</g>
<!-- Node11_1&#45;&gt;Node9_1 -->
<g id="edge14" class="edge">
<title>Node11_1&#45;&gt;Node9_1</title>
<path fill="none" stroke="black" d="M2008.08,-217.76C1998.83,-227.42 1986.99,-237.49 1974,-243 1937.33,-258.57 1834.58,-248.45 1795,-253 1771.71,-255.68 1746.48,-259.71 1723.77,-263.76"/>
<polygon fill="black" stroke="black" points="2010.82,-219.95 2014.93,-210.19 2005.62,-215.26 2010.82,-219.95"/>
<text text-anchor="middle" x="2031" y="-231.8" font-family="Times,serif" font-size="14.00">कर्ता</text>
</g>
<!-- Node12_1 -->
<g id="node25" class="node">
<title>Node12_1</title>
<ellipse fill="#ff99ff" stroke="#ff99ff" cx="1589" cy="-192" rx="47.39" ry="18"/>
<text text-anchor="middle" x="1589" y="-188.3" font-family="Times,serif" font-size="14.00">च(12.1)</text>
</g>
<!-- Node12_1&#45;&gt;Node9_1 -->
<g id="edge15" class="edge">
<title>Node12_1&#45;&gt;Node9_1</title>
<path fill="none" stroke="black" d="M1607.49,-217.95C1617.75,-231.78 1630.23,-248.63 1639.36,-260.95"/>
<polygon fill="black" stroke="black" points="1610.21,-215.74 1601.45,-209.79 1604.59,-219.91 1610.21,-215.74"/>
<text text-anchor="middle" x="1681.5" y="-231.8" font-family="Times,serif" font-size="14.00">सम्बन्धः</text>
</g>
<!-- Node14_1 -->
<g id="node26" class="node">
<title>Node14_1</title>
<ellipse fill="#87ceeb" stroke="#87ceeb" cx="2815" cy="-279" rx="102.88" ry="18"/>
<text text-anchor="middle" x="2815" y="-275.3" font-family="Times,serif" font-size="14.00">रावणस्य(14.1)</text>
</g>
<!-- Node14_1&#45;&gt;Node15_1 -->
<g id="edge17" class="edge">
<title>Node14_1&#45;&gt;Node15_1</title>
<path fill="none" stroke="black" d="M2748.73,-296.4C2734.99,-299.5 2720.56,-302.54 2707,-305 2483.32,-345.59 2217.03,-358.72 2070.15,-362.97"/>
<polygon fill="black" stroke="black" points="2749.64,-299.78 2758.6,-294.13 2748.07,-292.96 2749.64,-299.78"/>
<text text-anchor="middle" x="2740" y="-318.8" font-family="Times,serif" font-size="14.00">षष्ठीसम्बन्धः</text>
</g>
<!-- Node17_1 -->
<g id="node28" class="node">
<title>Node17_1</title>
<ellipse fill="#ff99ff" stroke="#ff99ff" cx="1592" cy="-105" rx="47.39" ry="18"/>
<text text-anchor="middle" x="1592" y="-101.3" font-family="Times,serif" font-size="14.00">च(17.1)</text>
</g>
<!-- Node17_1&#45;&gt;Node19_2 -->
<g id="edge20" class="edge">
<title>Node17_1&#45;&gt;Node19_2</title>
<path fill="none" stroke="black" d="M1573.85,-130.55C1565.92,-139.74 1555.93,-149.51 1545,-156 1527.63,-166.31 1507.24,-173.63 1487.67,-178.8"/>
<polygon fill="black" stroke="black" points="1576.63,-132.68 1580.26,-122.73 1571.21,-128.24 1576.63,-132.68"/>
<text text-anchor="middle" x="1665.5" y="-144.8" font-family="Times,serif" font-size="14.00">समुच्चय_द्योतकः</text>
</g>
<!-- Node18_1 -->
<g id="node29" class="node">
<title>Node18_1</title>
<ellipse fill="#ff99ff" stroke="#ff99ff" cx="1171" cy="-18" rx="112.38" ry="18"/>
<text text-anchor="middle" x="1171" y="-14.3" font-family="Times,serif" font-size="14.00">विक्रम्य(18.1)</text>
</g>
<!-- Node18_1&#45;&gt;Node16_1 -->
<g id="edge21" class="edge">
<title>Node18_1&#45;&gt;Node16_1</title>
<path fill="none" stroke="black" d="M1171,-46.27C1171,-59.58 1171,-75.19 1171,-86.82"/>
<polygon fill="black" stroke="black" points="1174.5,-46.2 1171,-36.2 1167.5,-46.2 1174.5,-46.2"/>
<text text-anchor="middle" x="1235.5" y="-57.8" font-family="Times,serif" font-size="14.00">पूर्वकालः</text>
</g>
<!-- Node19_1 -->
<g id="node30" class="node">
<title>Node19_1</title>
<ellipse fill="#ffff00" stroke="#ffff00" cx="1801" cy="-105" rx="68.79" ry="18"/>
<text text-anchor="middle" x="1801" y="-101.3" font-family="Times,serif" font-size="14.00">राज&#45;(19.1)</text>
</g>
<!-- Node19_1&#45;&gt;Node19_2 -->
<g id="edge22" class="edge">
<title>Node19_1&#45;&gt;Node19_2</title>
<path fill="none" stroke="black" d="M1792.42,-132.24C1788.08,-141.33 1781.81,-150.59 1773,-156 1750.26,-169.97 1559.49,-162.76 1533,-166 1512.61,-168.5 1490.56,-172.58 1470.88,-176.74"/>
<polygon fill="black" stroke="black" points="1795.66,-133.58 1796.27,-123 1789.19,-130.89 1795.66,-133.58"/>
<text text-anchor="middle" x="1889.5" y="-144.8" font-family="Times,serif" font-size="14.00">षष्ठी_तत्पुरुषः</text>
</g>
<!-- Node22_1 -->
<g id="node31" class="node">
<title>Node22_1</title>
<ellipse fill="#ffff00" stroke="#ffff00" cx="108" cy="-18" rx="77.99" ry="18"/>
<text text-anchor="middle" x="108" y="-14.3" font-family="Times,serif" font-size="14.00">नक्र&#45;(22.1)</text>
</g>
<!-- Node22_2 -->
<g id="node32" class="node">
<title>Node22_2</title>
<ellipse fill="#ffff00" stroke="#ffff00" cx="108" cy="-105" rx="68.79" ry="18"/>
<text text-anchor="middle" x="108" y="-101.3" font-family="Times,serif" font-size="14.00">मकर&#45;(22.2)</text>
</g>
<!-- Node22_1&#45;&gt;Node22_2 -->
<g id="edge26" class="edge">
<title>Node22_1&#45;&gt;Node22_2</title>
<path fill="none" stroke="black" d="M108,-46.27C108,-59.58 108,-75.19 108,-86.82"/>
<polygon fill="black" stroke="black" points="111.5,-46.2 108,-36.2 104.5,-46.2 111.5,-46.2"/>
<text text-anchor="middle" x="172.5" y="-57.8" font-family="Times,serif" font-size="14.00">द्वन्द्वः</text>
</g>
<!-- Node22_2&#45;&gt;Node22_3 -->
<g id="edge27" class="edge">
<title>Node22_2&#45;&gt;Node22_3</title>
<path fill="none" stroke="black" d="M114.42,-133.27C117.55,-146.58 121.22,-162.19 123.96,-173.82"/>
<polygon fill="black" stroke="black" points="117.74,-132.13 112.05,-123.2 110.93,-133.74 117.74,-132.13"/>
<text text-anchor="middle" x="230.5" y="-144.8" font-family="Times,serif" font-size="14.00">तृतीया_तत्पुरुषः</text>
</g>
<!-- Node23_1 -->
<g id="node33" class="node">
<title>Node23_1</title>
<ellipse fill="#ffff00" stroke="#ffff00" cx="352" cy="-18" rx="124.28" ry="18"/>
<text text-anchor="middle" x="352" y="-14.3" font-family="Times,serif" font-size="14.00">तिमिङ्गिल&#45;(23.1)</text>
</g>
<!-- Node23_2 -->
<g id="node34" class="node">
<title>Node23_2</title>
<ellipse fill="#93db70" stroke="#93db70" cx="352" cy="-105" rx="59.59" ry="18"/>
<text text-anchor="middle" x="352" y="-101.3" font-family="Times,serif" font-size="14.00">झष&#45;(23.2)</text>
</g>
<!-- Node23_1&#45;&gt;Node23_2 -->
<g id="edge29" class="edge">
<title>Node23_1&#45;&gt;Node23_2</title>
<path fill="none" stroke="black" d="M352,-46.27C352,-59.58 352,-75.19 352,-86.82"/>
<polygon fill="black" stroke="black" points="355.5,-46.2 352,-36.2 348.5,-46.2 355.5,-46.2"/>
<text text-anchor="middle" x="416.5" y="-57.8" font-family="Times,serif" font-size="14.00">द्वन्द्वः</text>
</g>
<!-- Node23_2&#45;&gt;Node23_3 -->
<g id="edge30" class="edge">
<title>Node23_2&#45;&gt;Node23_3</title>
<path fill="none" stroke="black" d="M352,-133.27C352,-146.58 352,-162.19 352,-173.82"/>
<polygon fill="black" stroke="black" points="355.5,-133.2 352,-123.2 348.5,-133.2 355.5,-133.2"/>
<text text-anchor="middle" x="462.5" y="-144.8" font-family="Times,serif" font-size="14.00">तृतीया_तत्पुरुषः</text>
</g>
<!-- Node24_1 -->
<g id="node35" class="node">
<title>Node24_1</title>
<ellipse fill="#ffff00" stroke="#ffff00" cx="596" cy="-18" rx="77.99" ry="18"/>
<text text-anchor="middle" x="596" y="-14.3" font-family="Times,serif" font-size="14.00">वायु&#45;(24.1)</text>
</g>
<!-- Node24_2 -->
<g id="node36" class="node">
<title>Node24_2</title>
<ellipse fill="#ffff00" stroke="#ffff00" cx="596" cy="-105" rx="68.79" ry="18"/>
<text text-anchor="middle" x="596" y="-101.3" font-family="Times,serif" font-size="14.00">वेग&#45;(24.2)</text>
</g>
<!-- Node24_1&#45;&gt;Node24_2 -->
<g id="edge32" class="edge">
<title>Node24_1&#45;&gt;Node24_2</title>
<path fill="none" stroke="black" d="M596,-46.27C596,-59.58 596,-75.19 596,-86.82"/>
<polygon fill="black" stroke="black" points="599.5,-46.2 596,-36.2 592.5,-46.2 599.5,-46.2"/>
<text text-anchor="middle" x="699.5" y="-57.8" font-family="Times,serif" font-size="14.00">षष्ठी_तत्पुरुषः</text>
</g>
<!-- Node24_2&#45;&gt;Node24_3 -->
<g id="edge33" class="edge">
<title>Node24_2&#45;&gt;Node24_3</title>
<path fill="none" stroke="black" d="M589.58,-133.27C586.45,-146.58 582.78,-162.19 580.04,-173.82"/>
<polygon fill="black" stroke="black" points="593.07,-133.74 591.95,-123.2 586.26,-132.13 593.07,-133.74"/>
<text text-anchor="middle" x="698.5" y="-144.8" font-family="Times,serif" font-size="14.00">तृतीया_तत्पुरुषः</text>
</g>
<!-- Node25_1 -->
<g id="node37" class="node">
<title>Node25_1</title>
<ellipse fill="#40e0d0" stroke="#40e0d0" cx="809" cy="-192" rx="102.88" ry="18"/>
<text text-anchor="middle" x="809" y="-188.3" font-family="Times,serif" font-size="14.00">पन्नगैः(25.1)</text>
</g>
<!-- Node25_1&#45;&gt;Node27_1 -->
<g id="edge35" class="edge">
<title>Node25_1&#45;&gt;Node27_1</title>
<path fill="none" stroke="black" d="M767.01,-213.68C746.73,-223.26 721.88,-234.39 699,-243 678.33,-250.78 655.1,-258.06 634.89,-263.95"/>
<polygon fill="black" stroke="black" points="768.75,-216.73 776.27,-209.27 765.74,-210.41 768.75,-216.73"/>
<text text-anchor="middle" x="783" y="-231.8" font-family="Times,serif" font-size="14.00">सहार्थः</text>
</g>
<!-- Node26_1 -->
<g id="node38" class="node">
<title>Node26_1</title>
<ellipse fill="#ff99ff" stroke="#ff99ff" cx="986" cy="-192" rx="56.59" ry="18"/>
<text text-anchor="middle" x="986" y="-188.3" font-family="Times,serif" font-size="14.00">इव(26.1)</text>
</g>
<!-- Node26_1&#45;&gt;Node27_1 -->
<g id="edge36" class="edge">
<title>Node26_1&#45;&gt;Node27_1</title>
<path fill="none" stroke="black" d="M942.53,-210.26C935.37,-212.94 928,-215.62 921,-218 884.13,-230.56 875.07,-234.76 837,-243 779.79,-255.38 714.33,-264.28 664.2,-270"/>
<polygon fill="black" stroke="black" points="944.01,-213.44 952.11,-206.61 941.52,-206.9 944.01,-213.44"/>
<text text-anchor="middle" x="980" y="-231.8" font-family="Times,serif" font-size="14.00">उपमान_द्योतकः</text>
</g>
<!-- Node28_1 -->
<g id="node39" class="node">
<title>Node28_1</title>
<ellipse fill="#00bfff" stroke="#00bfff" cx="1427" cy="-366" rx="75.29" ry="18"/>
<text text-anchor="middle" x="1427" y="-362.3" font-family="Times,serif" font-size="14.00">कपिः(28.1)</text>
</g>
<!-- Node28_1&#45;&gt;Node29_1 -->
<g id="edge38" class="edge">
<title>Node28_1&#45;&gt;Node29_1</title>
<path fill="none" stroke="black" d="M1441.42,-393.09C1448.92,-406.65 1457.88,-422.85 1464.5,-434.82"/>
<polygon fill="black" stroke="black" points="1444.41,-391.26 1436.51,-384.2 1438.29,-394.65 1444.41,-391.26"/>
<text text-anchor="middle" x="1489" y="-405.8" font-family="Times,serif" font-size="14.00">कर्ता</text>
</g>
</g>
</svg>
