<svg xmlns="http://www.w3.org/2000/svg" xmlns:xlink="http://www.w3.org/1999/xlink" width="1168" height="660" viewBox="0 0 876 495"><g id="graph0" class="graph" transform="scale(1 1) rotate(0) translate(4 491)"><title>G</title><polygon fill="#fffacd" stroke="transparent" points="-4 4 -4 -491 872 -491 872 4 -4 4"/><g id="clust1" class="cluster"><title>cluster_1</title><polygon fill="#fffacd" stroke="#000" points="8 -8 8 -147 218 -147 218 -8 8 -8"/></g><g id="clust2" class="cluster"><title>cluster_2</title><polygon fill="#fffacd" stroke="#000" points="211 -182 211 -234 477 -234 477 -182 211 -182"/></g><g id="clust3" class="cluster"><title>cluster_3</title><polygon fill="#fffacd" stroke="#000" points="34 -269 34 -408 468 -408 468 -269 34 -269"/></g><g id="node1" class="node"><title>Node1_1</title><ellipse cx="104" cy="-34" fill="#c6e2eb" stroke="#c6e2eb" rx="87.99" ry="18"/><text x="104" y="-30.3" font-family="Times,serif" font-size="14" text-anchor="middle">मृदुषु(1.1)</text></g><g id="node2" class="node"><title>Node2_1</title><ellipse cx="113" cy="-121" fill="#c6e2eb" stroke="#c6e2eb" rx="96.68" ry="18"/><text x="113" y="-117.3" font-family="Times,serif" font-size="14" text-anchor="middle">अङ्गेषु(2.1)</text></g><g id="edge1" class="edge"><title>Node1_1-&gt;Node2_1</title><path fill="none" stroke="#000" d="M106.89,-62.27C108.3,-75.58 109.95,-91.19 111.18,-102.82"/><polygon fill="#000" stroke="#000" points="110.35 -61.78 105.82 -52.2 103.39 -62.51 110.35 -61.78"/><text x="167.5" y="-73.8" font-family="Times,serif" font-size="14" text-anchor="middle">विशेषणम्</text></g><g id="node3" class="node"><title>Node4_1</title><ellipse cx="344" cy="-208" fill="#c6e2eb" stroke="#c6e2eb" rx="124.58" ry="18"/><text x="344" y="-204.3" font-family="Times,serif" font-size="14" text-anchor="middle">कुचाग्रेषु(4.1)</text></g><g id="edge2" class="edge"><title>Node2_1-&gt;Node4_1</title><path fill="none" stroke="#000" d="M149.99,-143.25C167.98,-152.97 190.18,-164.06 211,-172 232.42,-180.17 256.47,-187.14 278.18,-192.65"/><polygon fill="#000" stroke="#000" points="151.44 -140.06 140.99 -138.32 148.08 -146.2 151.44 -140.06"/><text x="275.5" y="-160.8" font-family="Times,serif" font-size="14" text-anchor="middle">समुच्चितः</text></g><g id="node4" class="node"><title>Node6_1</title><ellipse cx="344" cy="-295" fill="#00bfff" stroke="#00bfff" rx="115.88" ry="18"/><text x="344" y="-291.3" font-family="Times,serif" font-size="14" text-anchor="middle">संस्थिताः(6.1)</text></g><g id="edge4" class="edge"><title>Node4_1-&gt;Node6_1</title><path fill="none" stroke="#000" d="M344,-236.27C344,-249.58 344,-265.19 344,-276.82"/><polygon fill="#000" stroke="#000" points="347.5 -236.2 344 -226.2 340.5 -236.2 347.5 -236.2"/><text x="401.5" y="-247.8" font-family="Times,serif" font-size="14" text-anchor="middle">अधिकरणम्</text></g><g id="node5" class="node"><title>Node11_2</title><ellipse cx="360" cy="-382" fill="#00bfff" stroke="#00bfff" rx="84.49" ry="18"/><text x="360" y="-378.3" font-family="Times,serif" font-size="14" text-anchor="middle">राजयः(11.2)</text></g><g id="edge6" class="edge"><title>Node6_1-&gt;Node11_2</title><path fill="none" stroke="#000" d="M349.13,-323.27C351.64,-336.58 354.58,-352.19 356.77,-363.82"/><polygon fill="#000" stroke="#000" points="352.53 -322.38 347.24 -313.2 345.65 -323.68 352.53 -322.38"/><text x="410.5" y="-334.8" font-family="Times,serif" font-size="14" text-anchor="middle">विशेषणम्</text></g><g id="node9" class="node"><title>Node7_1</title><ellipse cx="360" cy="-469" fill="#ff1975" stroke="#ff1975" rx="87.99" ry="18"/><text x="360" y="-465.3" font-family="Times,serif" font-size="14" text-anchor="middle">बभूवुः(7.1)</text></g><g id="edge11" class="edge"><title>Node11_2-&gt;Node7_1</title><path fill="none" stroke="#000" d="M360,-410.27C360,-423.58 360,-439.19 360,-450.82"/><polygon fill="#000" stroke="#000" points="363.5 -410.2 360 -400.2 356.5 -410.2 363.5 -410.2"/><text x="396" y="-421.8" font-family="Times,serif" font-size="14" text-anchor="middle">कर्ता</text></g><g id="node6" class="node"><title>Node10_1</title><ellipse cx="126" cy="-295" fill="#00bfff" stroke="#00bfff" rx="84.49" ry="18"/><text x="126" y="-291.3" font-family="Times,serif" font-size="14" text-anchor="middle">शुभाः(10.1)</text></g><g id="edge9" class="edge"><title>Node10_1-&gt;Node11_2</title><path fill="none" stroke="#000" d="M165.4,-316.35C185.32,-326.14 210.08,-337.55 233,-346 256.39,-354.62 282.89,-362.24 305.6,-368.16"/><polygon fill="#000" stroke="#000" points="166.83 -313.16 156.32 -311.84 163.72 -319.43 166.83 -313.16"/><text x="290.5" y="-334.8" font-family="Times,serif" font-size="14" text-anchor="middle">विशेषणम्</text></g><g id="node7" class="node"><title>Node3_1</title><ellipse cx="344" cy="-121" fill="#87ceeb" stroke="#87ceeb" rx="115.88" ry="18"/><text x="344" y="-117.3" font-family="Times,serif" font-size="14" text-anchor="middle">कासांचित्(3.1)</text></g><g id="edge3" class="edge"><title>Node3_1-&gt;Node4_1</title><path fill="none" stroke="#000" d="M344,-149.27C344,-162.58 344,-178.19 344,-189.82"/><polygon fill="#000" stroke="#000" points="347.5 -149.2 344 -139.2 340.5 -149.2 347.5 -149.2"/><text x="437" y="-160.8" font-family="Times,serif" font-size="14" text-anchor="middle">षष्ठीसम्बन्धः</text></g><g id="node8" class="node"><title>Node5_1</title><ellipse cx="553" cy="-121" fill="#f9f" stroke="#f9f" rx="41.69" ry="18"/><text x="553" y="-117.3" font-family="Times,serif" font-size="14" text-anchor="middle">च(5.1)</text></g><g id="edge5" class="edge"><title>Node5_1-&gt;Node4_1</title><path fill="none" stroke="#000" d="M546.5,-149.09C543.19,-157.59 538.26,-166.24 531,-172 516.7,-183.34 479.91,-191.41 442.7,-196.92"/><polygon fill="#000" stroke="#000" points="549.9 -149.97 549.69 -139.38 543.24 -147.78 549.9 -149.97"/><text x="645.5" y="-160.8" font-family="Times,serif" font-size="14" text-anchor="middle">समुच्चय_द्योतकः</text></g><g id="node10" class="node"><title>Node8_1</title><ellipse cx="575" cy="-295" fill="#00bfff" stroke="#00bfff" rx="96.68" ry="18"/><text x="575" y="-291.3" font-family="Times,serif" font-size="14" text-anchor="middle">भूषणानि(8.1)</text></g><g id="edge7" class="edge"><title>Node8_1-&gt;Node11_2</title><path fill="none" stroke="#000" d="M535.52,-316.88C516.6,-326.44 493.44,-337.5 472,-346 451.83,-354 429.06,-361.4 409.34,-367.31"/><polygon fill="#000" stroke="#000" points="537.12 -319.99 544.44 -312.32 533.94 -313.75 537.12 -319.99"/><text x="554" y="-334.8" font-family="Times,serif" font-size="14" text-anchor="middle">उपमानम्</text></g><g id="node11" class="node"><title>Node9_1</title><ellipse cx="575" cy="-208" fill="#f9f" stroke="#f9f" rx="50.89" ry="18"/><text x="575" y="-204.3" font-family="Times,serif" font-size="14" text-anchor="middle">इव(9.1)</text></g><g id="edge8" class="edge"><title>Node9_1-&gt;Node8_1</title><path fill="none" stroke="#000" d="M575,-236.27C575,-249.58 575,-265.19 575,-276.82"/><polygon fill="#000" stroke="#000" points="578.5 -236.2 575 -226.2 571.5 -236.2 578.5 -236.2"/><text x="664" y="-247.8" font-family="Times,serif" font-size="14" text-anchor="middle">उपमान_द्योतकः</text></g><g id="node12" class="node"><title>Node11_1</title><ellipse cx="768" cy="-295" fill="#ff0" stroke="#ff0" rx="77.99" ry="18"/><text x="768" y="-291.3" font-family="Times,serif" font-size="14" text-anchor="middle">भूषण-(11.1)</text></g><g id="edge10" class="edge"><title>Node11_1-&gt;Node11_2</title><path fill="none" stroke="#000" d="M718.26,-313.84C686.97,-324.49 645.53,-337.55 608,-346 550.52,-358.95 484.41,-367.99 434.91,-373.64"/><polygon fill="#000" stroke="#000" points="719.73 -317.04 728.05 -310.48 717.46 -310.42 719.73 -317.04"/><text x="764.5" y="-334.8" font-family="Times,serif" font-size="14" text-anchor="middle">षष्ठी_तत्पुरुषः</text></g></g></svg>