<svg xmlns="http://www.w3.org/2000/svg" xmlns:xlink="http://www.w3.org/1999/xlink" width="1858pt" height="392pt" viewBox="0 0 1858.39 392"><g id="graph0" class="graph" transform="scale(1 1) rotate(0) translate(4 388)"><title>G</title><polygon fill="#fffacd" stroke="transparent" points="-4 4 -4 -388 1854.39 -388 1854.39 4 -4 4"/><g id="clust1" class="cluster"><title>cluster_1</title><polygon fill="#fffacd" stroke="#000" points="158.39 -166 158.39 -305 1774.39 -305 1774.39 -166 158.39 -166"/></g><g id="node1" class="node"><title>Node3_1</title><ellipse cx="496.39" cy="-192" fill="#00bfff" stroke="#00bfff" rx="124.58" ry="18"/><text x="496.39" y="-188.3" font-family="Times,serif" font-size="14" text-anchor="middle">समाश्रिताः(3.1)</text></g><g id="node2" class="node"><title>Node14_1</title><ellipse cx="869.39" cy="-279" fill="#00bfff" stroke="#00bfff" rx="93.68" ry="18"/><text x="869.39" y="-275.3" font-family="Times,serif" font-size="14" text-anchor="middle">योषितः(14.1)</text></g><g id="edge6" class="edge"><title>Node3_1-&gt;Node14_1</title><path fill="none" stroke="#000" d="M560.33,-211.12C596.81,-221.15 643.49,-233.48 685.39,-243 723.92,-251.75 767.32,-260.08 802.3,-266.41"/><polygon fill="#000" stroke="#000" points="560.89 -207.64 550.32 -208.35 559.03 -214.39 560.89 -207.64"/><text x="742.89" y="-231.8" font-family="Times,serif" font-size="14" text-anchor="middle">विशेषणम्</text></g><g id="node22" class="node"><title>Node12_1</title><ellipse cx="165.39" cy="-366" fill="#ff1975" stroke="#ff1975" rx="102.88" ry="18"/><text x="165.39" y="-362.3" font-family="Times,serif" font-size="14" text-anchor="middle">सुषुपुः(12.1)</text></g><g id="edge22" class="edge"><title>Node14_1-&gt;Node12_1</title><path fill="none" stroke="#000" d="M782.33,-290.51C645.28,-307.06 381.09,-338.96 247.3,-355.11"/><polygon fill="#000" stroke="#000" points="782.87 -293.97 792.38 -289.3 782.03 -287.02 782.87 -293.97"/><text x="595.39" y="-318.8" font-family="Times,serif" font-size="14" text-anchor="middle">कर्ता</text></g><g id="node3" class="node"><title>Node4_3</title><ellipse cx="985.39" cy="-192" fill="#00bfff" stroke="#00bfff" rx="96.68" ry="18"/><text x="985.39" y="-188.3" font-family="Times,serif" font-size="14" text-anchor="middle">अङ्ग्यः(4.3)</text></g><g id="edge9" class="edge"><title>Node4_3-&gt;Node14_1</title><path fill="none" stroke="#000" d="M964.64,-217.79C956.68,-226.41 947.14,-235.73 937.39,-243 927.6,-250.3 916.06,-256.87 905.3,-262.3"/><polygon fill="#000" stroke="#000" points="967.42 -219.93 971.48 -210.15 962.2 -215.26 967.42 -219.93"/><text x="1011.89" y="-231.8" font-family="Times,serif" font-size="14" text-anchor="middle">विशेषणम्</text></g><g id="node4" class="node"><title>Node5_3</title><ellipse cx="1206.39" cy="-192" fill="#00bfff" stroke="#00bfff" rx="106.68" ry="18"/><text x="1206.39" y="-188.3" font-family="Times,serif" font-size="14" text-anchor="middle">वशानुगाः(5.3)</text></g><g id="edge12" class="edge"><title>Node5_3-&gt;Node14_1</title><path fill="none" stroke="#000" d="M1160.41,-212.75C1135.12,-222.99 1102.95,-234.99 1073.39,-243 1031.77,-254.28 984.35,-262.68 945.71,-268.42"/><polygon fill="#000" stroke="#000" points="1161.82 -215.96 1169.75 -208.93 1159.17 -209.48 1161.82 -215.96"/><text x="1174.89" y="-231.8" font-family="Times,serif" font-size="14" text-anchor="middle">विशेषणम्</text></g><g id="node5" class="node"><title>Node8_1</title><ellipse cx="1455.39" cy="-192" fill="#00bfff" stroke="#00bfff" rx="124.58" ry="18"/><text x="1455.39" y="-188.3" font-family="Times,serif" font-size="14" text-anchor="middle">प्रीयमाणाः(8.1)</text></g><g id="edge16" class="edge"><title>Node8_1-&gt;Node14_1</title><path fill="none" stroke="#000" d="M1388.79,-210.56C1345.62,-221.36 1288.01,-234.68 1236.39,-243 1141.77,-258.25 1032.27,-267.63 957.67,-272.8"/><polygon fill="#000" stroke="#000" points="1389.77 -213.93 1398.61 -208.09 1388.06 -207.14 1389.77 -213.93"/><text x="1365.89" y="-231.8" font-family="Times,serif" font-size="14" text-anchor="middle">विशेषणम्</text></g><g id="node6" class="node"><title>Node9_1</title><ellipse cx="754.39" cy="-192" fill="#00bfff" stroke="#00bfff" rx="115.88" ry="18"/><text x="754.39" y="-188.3" font-family="Times,serif" font-size="14" text-anchor="middle">सुमध्यमाः(9.1)</text></g><g id="edge17" class="edge"><title>Node9_1-&gt;Node14_1</title><path fill="none" stroke="#000" d="M785.33,-215.86C804.68,-230.17 829.17,-248.27 846.72,-261.24"/><polygon fill="#000" stroke="#000" points="787.24 -212.92 777.11 -209.79 783.08 -218.55 787.24 -212.92"/><text x="875.89" y="-231.8" font-family="Times,serif" font-size="14" text-anchor="middle">विशेषणम्</text></g><g id="node7" class="node"><title>Node10_2</title><ellipse cx="1682.39" cy="-192" fill="#00bfff" stroke="#00bfff" rx="84.49" ry="18"/><text x="1682.39" y="-188.3" font-family="Times,serif" font-size="14" text-anchor="middle">भुजाः(10.2)</text></g><g id="edge19" class="edge"><title>Node10_2-&gt;Node14_1</title><path fill="none" stroke="#000" d="M1618.06,-208.04C1566.73,-219.45 1492.83,-234.57 1427.39,-243 1264.46,-263.99 1073.07,-272.53 962.06,-275.9"/><polygon fill="#000" stroke="#000" points="1619.02 -211.41 1628.01 -205.81 1617.49 -204.58 1619.02 -211.41"/><text x="1575.89" y="-231.8" font-family="Times,serif" font-size="14" text-anchor="middle">विशेषणम्</text></g><g id="node8" class="node"><title>Node11_1</title><ellipse cx="260.39" cy="-192" fill="#00bfff" stroke="#00bfff" rx="93.68" ry="18"/><text x="260.39" y="-188.3" font-family="Times,serif" font-size="14" text-anchor="middle">सर्वाः(11.1)</text></g><g id="edge20" class="edge"><title>Node11_1-&gt;Node14_1</title><path fill="none" stroke="#000" d="M327.71,-208.51C377.41,-219.49 446.82,-233.83 508.39,-243 601.66,-256.89 709.34,-266.5 782.65,-272.09"/><polygon fill="#000" stroke="#000" points="328.25 -205.05 317.73 -206.29 326.73 -211.88 328.25 -205.05"/><text x="565.89" y="-231.8" font-family="Times,serif" font-size="14" text-anchor="middle">विशेषणम्</text></g><g id="node9" class="node"><title>Node1_1</title><ellipse cx="225.39" cy="-18" fill="#ff0" stroke="#ff0" rx="63.09" ry="18"/><text x="225.39" y="-14.3" font-family="Times,serif" font-size="14" text-anchor="middle">ऊरु-(1.1)</text></g><g id="node10" class="node"><title>Node1_4</title><ellipse cx="496.39" cy="-105" fill="#00bfff" stroke="#00bfff" rx="96.68" ry="18"/><text x="496.39" y="-101.3" font-family="Times,serif" font-size="14" text-anchor="middle">पृष्ठम्(1.4)</text></g><g id="edge1" class="edge"><title>Node1_1-&gt;Node1_4</title><path fill="none" stroke="#000" d="M249.89,-42.43C261.35,-52.12 275.7,-62.58 290.39,-69 326.63,-84.83 369.35,-93.53 406.47,-98.29"/><polygon fill="#000" stroke="#000" points="251.91 -39.55 242.09 -35.58 247.29 -44.81 251.91 -39.55"/><text x="354.89" y="-57.8" font-family="Times,serif" font-size="14" text-anchor="middle">द्वन्द्वः</text></g><g id="edge4" class="edge"><title>Node1_4-&gt;Node3_1</title><path fill="none" stroke="#000" d="M496.39,-133.27C496.39,-146.58 496.39,-162.19 496.39,-173.82"/><polygon fill="#000" stroke="#000" points="499.89 -133.2 496.39 -123.2 492.89 -133.2 499.89 -133.2"/><text x="532.39" y="-144.8" font-family="Times,serif" font-size="14" text-anchor="middle">कर्ता</text></g><g id="node11" class="node"><title>Node1_2</title><ellipse cx="406.39" cy="-18" fill="#ff0" stroke="#ff0" rx="100.18" ry="18"/><text x="406.39" y="-14.3" font-family="Times,serif" font-size="14" text-anchor="middle">पार्श्व-(1.2)</text></g><g id="edge2" class="edge"><title>Node1_2-&gt;Node1_4</title><path fill="none" stroke="#000" d="M418.81,-45.2C423.54,-53.45 429.49,-62.18 436.39,-69 443.86,-76.37 453.18,-82.78 462.23,-88.02"/><polygon fill="#000" stroke="#000" points="421.81 -43.38 414 -36.22 415.64 -46.69 421.81 -43.38"/><text x="500.89" y="-57.8" font-family="Times,serif" font-size="14" text-anchor="middle">द्वन्द्वः</text></g><g id="node12" class="node"><title>Node1_3</title><ellipse cx="587.39" cy="-18" fill="#ff0" stroke="#ff0" rx="63.09" ry="18"/><text x="587.39" y="-14.3" font-family="Times,serif" font-size="14" text-anchor="middle">कटी-(1.3)</text></g><g id="edge3" class="edge"><title>Node1_3-&gt;Node1_4</title><path fill="none" stroke="#000" d="M579.46,-45.99C576.1,-54.09 571.51,-62.54 565.39,-69 557.82,-77 548.02,-83.46 538.2,-88.56"/><polygon fill="#000" stroke="#000" points="582.81 -47.02 582.97 -36.43 576.24 -44.61 582.81 -47.02"/><text x="639.89" y="-57.8" font-family="Times,serif" font-size="14" text-anchor="middle">द्वन्द्वः</text></g><g id="node13" class="node"><title>Node2_1</title><ellipse cx="802.39" cy="-18" fill="#87ceeb" stroke="#87ceeb" rx="133.78" ry="18"/><text x="802.39" y="-14.3" font-family="Times,serif" font-size="14" text-anchor="middle">अन्योन्यस्य(2.1)</text></g><g id="edge5" class="edge"><title>Node2_1-&gt;Node1_4</title><path fill="none" stroke="#000" d="M767.22,-41.23C750.07,-51.14 728.78,-62.1 708.39,-69 667.76,-82.75 620.85,-91.21 581.5,-96.36"/><polygon fill="#000" stroke="#000" points="769.46 -43.97 776.29 -35.87 765.9 -37.94 769.46 -43.97"/><text x="835.39" y="-57.8" font-family="Times,serif" font-size="14" text-anchor="middle">षष्ठीसम्बन्धः</text></g><g id="node14" class="node"><title>Node4_1</title><ellipse cx="787.39" cy="-105" fill="#ff0" stroke="#ff0" rx="90.98" ry="18"/><text x="787.39" y="-101.3" font-family="Times,serif" font-size="14" text-anchor="middle">परस्पर-(4.1)</text></g><g id="edge7" class="edge"><title>Node4_1-&gt;Node4_3</title><path fill="none" stroke="#000" d="M809.13,-130.43C818.53,-139.66 830.17,-149.5 842.39,-156 846.38,-158.12 889.65,-168.59 927.56,-177.53"/><polygon fill="#000" stroke="#000" points="811.59 -127.94 802.11 -123.23 806.58 -132.83 811.59 -127.94"/><text x="913.89" y="-144.8" font-family="Times,serif" font-size="14" text-anchor="middle">बहुव्रीहिः</text></g><g id="node15" class="node"><title>Node4_2</title><ellipse cx="996.39" cy="-105" fill="#ff0" stroke="#ff0" rx="100.18" ry="18"/><text x="996.39" y="-101.3" font-family="Times,serif" font-size="14" text-anchor="middle">निविष्ट-(4.2)</text></g><g id="edge8" class="edge"><title>Node4_2-&gt;Node4_3</title><path fill="none" stroke="#000" d="M992.86,-133.27C991.14,-146.58 989.12,-162.19 987.62,-173.82"/><polygon fill="#000" stroke="#000" points="996.35 -133.57 994.17 -123.2 989.41 -132.67 996.35 -133.57"/><text x="1062.89" y="-144.8" font-family="Times,serif" font-size="14" text-anchor="middle">बहुव्रीहिः</text></g><g id="node16" class="node"><title>Node5_1</title><ellipse cx="1206.39" cy="-18" fill="#ff0" stroke="#ff0" rx="53.89" ry="18"/><text x="1206.39" y="-14.3" font-family="Times,serif" font-size="14" text-anchor="middle">मद-(5.1)</text></g><g id="node17" class="node"><title>Node5_2</title><ellipse cx="1206.39" cy="-105" fill="#ff0" stroke="#ff0" rx="81.49" ry="18"/><text x="1206.39" y="-101.3" font-family="Times,serif" font-size="14" text-anchor="middle">स्नेह-(5.2)</text></g><g id="edge10" class="edge"><title>Node5_1-&gt;Node5_2</title><path fill="none" stroke="#000" d="M1206.39,-46.27C1206.39,-59.58 1206.39,-75.19 1206.39,-86.82"/><polygon fill="#000" stroke="#000" points="1209.89 -46.2 1206.39 -36.2 1202.89 -46.2 1209.89 -46.2"/><text x="1270.89" y="-57.8" font-family="Times,serif" font-size="14" text-anchor="middle">द्वन्द्वः</text></g><g id="edge11" class="edge"><title>Node5_2-&gt;Node5_3</title><path fill="none" stroke="#000" d="M1206.39,-133.27C1206.39,-146.58 1206.39,-162.19 1206.39,-173.82"/><polygon fill="#000" stroke="#000" points="1209.89 -133.2 1206.39 -123.2 1202.89 -133.2 1209.89 -133.2"/><text x="1316.89" y="-144.8" font-family="Times,serif" font-size="14" text-anchor="middle">तृतीया_तत्पुरुषः</text></g><g id="node18" class="node"><title>Node6_1</title><ellipse cx="1433.39" cy="-18" fill="#87ceeb" stroke="#87ceeb" rx="133.78" ry="18"/><text x="1433.39" y="-14.3" font-family="Times,serif" font-size="14" text-anchor="middle">अन्योन्यस्य(6.1)</text></g><g id="node19" class="node"><title>Node7_2</title><ellipse cx="1446.39" cy="-105" fill="#b4ffb4" stroke="#b4ffb4" rx="133.78" ry="18"/><text x="1446.39" y="-101.3" font-family="Times,serif" font-size="14" text-anchor="middle">संस्पर्शात्(7.2)</text></g><g id="edge13" class="edge"><title>Node6_1-&gt;Node7_2</title><path fill="none" stroke="#000" d="M1437.56,-46.27C1439.6,-59.58 1441.99,-75.19 1443.77,-86.82"/><polygon fill="#000" stroke="#000" points="1441 -45.56 1436.02 -36.2 1434.08 -46.62 1441 -45.56"/><text x="1533.39" y="-57.8" font-family="Times,serif" font-size="14" text-anchor="middle">षष्ठीसम्बन्धः</text></g><g id="edge15" class="edge"><title>Node7_2-&gt;Node8_1</title><path fill="none" stroke="#000" d="M1449.28,-133.27C1450.69,-146.58 1452.34,-162.19 1453.57,-173.82"/><polygon fill="#000" stroke="#000" points="1452.75 -132.78 1448.21 -123.2 1445.79 -133.51 1452.75 -132.78"/><text x="1491.89" y="-144.8" font-family="Times,serif" font-size="14" text-anchor="middle">हेतुः5</text></g><g id="node20" class="node"><title>Node7_1</title><ellipse cx="1657.39" cy="-18" fill="#ff0" stroke="#ff0" rx="72.29" ry="18"/><text x="1657.39" y="-14.3" font-family="Times,serif" font-size="14" text-anchor="middle">अङ्ग-(7.1)</text></g><g id="edge14" class="edge"><title>Node7_1-&gt;Node7_2</title><path fill="none" stroke="#000" d="M1648.25,-45.89C1644.08,-54.48 1638.26,-63.24 1630.39,-69 1616.22,-79.37 1581.26,-87.22 1545.57,-92.83"/><polygon fill="#000" stroke="#000" points="1651.58 -47.01 1652.29 -36.44 1645.15 -44.26 1651.58 -47.01"/><text x="1746.89" y="-57.8" font-family="Times,serif" font-size="14" text-anchor="middle">षष्ठी_तत्पुरुषः</text></g><g id="node21" class="node"><title>Node10_1</title><ellipse cx="1695.39" cy="-105" fill="#ff0" stroke="#ff0" rx="96.68" ry="18"/><text x="1695.39" y="-101.3" font-family="Times,serif" font-size="14" text-anchor="middle">एकीकृत-(10.1)</text></g><g id="edge18" class="edge"><title>Node10_1-&gt;Node10_2</title><path fill="none" stroke="#000" d="M1691.22,-133.27C1689.19,-146.58 1686.8,-162.19 1685.02,-173.82"/><polygon fill="#000" stroke="#000" points="1694.71 -133.62 1692.76 -123.2 1687.79 -132.56 1694.71 -133.62"/><text x="1760.89" y="-144.8" font-family="Times,serif" font-size="14" text-anchor="middle">बहुव्रीहिः</text></g><g id="node23" class="node"><title>Node13_1</title><ellipse cx="75.39" cy="-279" fill="#f9f" stroke="#f9f" rx="75.29" ry="18"/><text x="75.39" y="-275.3" font-family="Times,serif" font-size="14" text-anchor="middle">तत्र(13.1)</text></g><g id="edge21" class="edge"><title>Node13_1-&gt;Node12_1</title><path fill="none" stroke="#000" d="M100.63,-303.83C115.6,-317.97 134.22,-335.56 147.65,-348.24"/><polygon fill="#000" stroke="#000" points="102.85 -301.11 93.17 -296.79 98.04 -306.2 102.85 -301.11"/><text x="204.89" y="-318.8" font-family="Times,serif" font-size="14" text-anchor="middle">देशाधिकरणम्</text></g></g></svg>