<?xml version="1.0" encoding="UTF-8" standalone="no"?>
<!DOCTYPE svg PUBLIC "-//W3C//DTD SVG 1.1//EN"
 "http://www.w3.org/Graphics/SVG/1.1/DTD/svg11.dtd">
<!-- Generated by graphviz version 2.43.0 (0)
 -->
<!-- Title: G Pages: 1 -->
<svg width="3352pt" height="566pt"
 viewBox="0.00 0.00 3352.00 566.00" xmlns="http://www.w3.org/2000/svg" xmlns:xlink="http://www.w3.org/1999/xlink">
<g id="graph0" class="graph" transform="scale(1 1) rotate(0) translate(4 562)">
<title>G</title>
<polygon fill="#fffacd" stroke="transparent" points="-4,4 -4,-562 3348,-562 3348,4 -4,4"/>
<g id="clust1" class="cluster">
<title>cluster_1</title>
<polygon fill="#fffacd" stroke="black" points="2801,-166 2801,-305 3224,-305 3224,-166 2801,-166"/>
</g>
<g id="clust2" class="cluster">
<title>cluster_2</title>
<polygon fill="#fffacd" stroke="black" points="1287,-340 1287,-479 2883,-479 2883,-340 1287,-340"/>
</g>
<g id="clust3" class="cluster">
<title>cluster_3</title>
<polygon fill="#fffacd" stroke="black" points="8,-79 8,-305 914,-305 914,-79 8,-79"/>
</g>
<g id="clust4" class="cluster">
<title>cluster_4</title>
<polygon fill="#fffacd" stroke="black" points="1502,-79 1502,-218 1724,-218 1724,-79 1502,-79"/>
</g>
<g id="clust5" class="cluster">
<title>cluster_5</title>
<polygon fill="#fffacd" stroke="black" points="1290,-166 1290,-305 1494,-305 1494,-166 1290,-166"/>
</g>
<!-- Node1_3 -->
<g id="node1" class="node">
<title>Node1_3</title>
<ellipse fill="#40e0d0" stroke="#40e0d0" cx="3137" cy="-192" rx="78.79" ry="18"/>
<text text-anchor="middle" x="3137" y="-188.3" font-family="Times,serif" font-size="14.00">अयनैः(1.3)</text>
</g>
<!-- Node3_1 -->
<g id="node2" class="node">
<title>Node3_1</title>
<ellipse fill="#40e0d0" stroke="#40e0d0" cx="2921" cy="-279" rx="106.68" ry="18"/>
<text text-anchor="middle" x="2921" y="-275.3" font-family="Times,serif" font-size="14.00">काञ्चनैः(3.1)</text>
</g>
<!-- Node1_3&#45;&gt;Node3_1 -->
<g id="edge3" class="edge">
<title>Node1_3&#45;&gt;Node3_1</title>
<path fill="none" stroke="black" d="M3105.98,-215.19C3091.37,-224.83 3073.37,-235.59 3056,-243 3034.4,-252.22 3009.79,-259.48 2987.54,-264.94"/>
<polygon fill="black" stroke="black" points="3108.27,-217.87 3114.61,-209.37 3104.36,-212.06 3108.27,-217.87"/>
<text text-anchor="middle" x="3147.5" y="-231.8" font-family="Times,serif" font-size="14.00">समुच्चितः</text>
</g>
<!-- Node2_1 -->
<g id="node4" class="node">
<title>Node2_1</title>
<ellipse fill="#93db70" stroke="#93db70" cx="2554" cy="-366" rx="96.68" ry="18"/>
<text text-anchor="middle" x="2554" y="-362.3" font-family="Times,serif" font-size="14.00">युक्तम्(2.1)</text>
</g>
<!-- Node3_1&#45;&gt;Node2_1 -->
<g id="edge5" class="edge">
<title>Node3_1&#45;&gt;Node2_1</title>
<path fill="none" stroke="black" d="M2850.44,-296.11C2797.91,-308.13 2724.45,-324.99 2660,-340 2644.16,-343.69 2627,-347.72 2611.2,-351.45"/>
<polygon fill="black" stroke="black" points="2851.36,-299.49 2860.33,-293.85 2849.8,-292.66 2851.36,-299.49"/>
<text text-anchor="middle" x="2803" y="-318.8" font-family="Times,serif" font-size="14.00">करणम्</text>
</g>
<!-- Node4_1 -->
<g id="node3" class="node">
<title>Node4_1</title>
<ellipse fill="#40e0d0" stroke="#40e0d0" cx="2925" cy="-192" rx="115.88" ry="18"/>
<text text-anchor="middle" x="2925" y="-188.3" font-family="Times,serif" font-size="14.00">स्फाटिकैः(4.1)</text>
</g>
<!-- Node4_1&#45;&gt;Node3_1 -->
<g id="edge6" class="edge">
<title>Node4_1&#45;&gt;Node3_1</title>
<path fill="none" stroke="black" d="M2923.72,-220.27C2923.09,-233.58 2922.36,-249.19 2921.81,-260.82"/>
<polygon fill="black" stroke="black" points="2927.22,-220.35 2924.19,-210.2 2920.22,-220.03 2927.22,-220.35"/>
<text text-anchor="middle" x="2987.5" y="-231.8" font-family="Times,serif" font-size="14.00">समुच्चितः</text>
</g>
<!-- Node25_1 -->
<g id="node5" class="node">
<title>Node25_1</title>
<ellipse fill="#93db70" stroke="#93db70" cx="2047" cy="-453" rx="112.38" ry="18"/>
<text text-anchor="middle" x="2047" y="-449.3" font-family="Times,serif" font-size="14.00">पुष्पकम्(25.1)</text>
</g>
<!-- Node2_1&#45;&gt;Node25_1 -->
<g id="edge4" class="edge">
<title>Node2_1&#45;&gt;Node25_1</title>
<path fill="none" stroke="black" d="M2501.87,-385.49C2469.49,-396.27 2426.78,-409.24 2388,-417 2309.66,-432.67 2219.7,-441.53 2151.86,-446.41"/>
<polygon fill="black" stroke="black" points="2503.22,-388.73 2511.57,-382.22 2500.98,-382.1 2503.22,-388.73"/>
<text text-anchor="middle" x="2505.5" y="-405.8" font-family="Times,serif" font-size="14.00">विशेषणम्</text>
</g>
<!-- Node27_1 -->
<g id="node38" class="node">
<title>Node27_1</title>
<ellipse fill="#ff1975" stroke="#ff1975" cx="1557" cy="-540" rx="93.68" ry="18"/>
<text text-anchor="middle" x="1557" y="-536.3" font-family="Times,serif" font-size="14.00">आरुरोह(27.1)</text>
</g>
<!-- Node25_1&#45;&gt;Node27_1 -->
<g id="edge36" class="edge">
<title>Node25_1&#45;&gt;Node27_1</title>
<path fill="none" stroke="black" d="M1963.97,-468.4C1868.24,-485.01 1712.73,-511.99 1624.23,-527.34"/>
<polygon fill="black" stroke="black" points="1964.65,-471.84 1973.91,-466.68 1963.46,-464.94 1964.65,-471.84"/>
<text text-anchor="middle" x="1860" y="-492.8" font-family="Times,serif" font-size="14.00">कर्म</text>
</g>
<!-- Node6_5 -->
<g id="node6" class="node">
<title>Node6_5</title>
<ellipse fill="#93db70" stroke="#93db70" cx="2156" cy="-366" rx="96.68" ry="18"/>
<text text-anchor="middle" x="2156" y="-362.3" font-family="Times,serif" font-size="14.00">वेदिकम्(6.5)</text>
</g>
<!-- Node6_5&#45;&gt;Node25_1 -->
<g id="edge12" class="edge">
<title>Node6_5&#45;&gt;Node25_1</title>
<path fill="none" stroke="black" d="M2126.7,-389.85C2108.39,-404.12 2085.23,-422.19 2068.59,-435.16"/>
<polygon fill="black" stroke="black" points="2128.99,-392.5 2134.72,-383.59 2124.69,-386.98 2128.99,-392.5"/>
<text text-anchor="middle" x="2165.5" y="-405.8" font-family="Times,serif" font-size="14.00">विशेषणम्</text>
</g>
<!-- Node15_1 -->
<g id="node7" class="node">
<title>Node15_1</title>
<ellipse fill="#93db70" stroke="#93db70" cx="1668" cy="-366" rx="149.47" ry="18"/>
<text text-anchor="middle" x="1668" y="-362.3" font-family="Times,serif" font-size="14.00">अभिविराजितम्(15.1)</text>
</g>
<!-- Node15_1&#45;&gt;Node25_1 -->
<g id="edge22" class="edge">
<title>Node15_1&#45;&gt;Node25_1</title>
<path fill="none" stroke="black" d="M1727.92,-386.13C1761.03,-396.24 1803.02,-408.31 1841,-417 1881.84,-426.34 1927.77,-434.38 1965.87,-440.39"/>
<polygon fill="black" stroke="black" points="1728.54,-382.66 1717.95,-383.06 1726.48,-389.35 1728.54,-382.66"/>
<text text-anchor="middle" x="1898.5" y="-405.8" font-family="Times,serif" font-size="14.00">विशेषणम्</text>
</g>
<!-- Node22_1 -->
<g id="node8" class="node">
<title>Node22_1</title>
<ellipse fill="#93db70" stroke="#93db70" cx="1938" cy="-366" rx="102.88" ry="18"/>
<text text-anchor="middle" x="1938" y="-362.3" font-family="Times,serif" font-size="14.00">युक्तम्(22.1)</text>
</g>
<!-- Node22_1&#45;&gt;Node25_1 -->
<g id="edge31" class="edge">
<title>Node22_1&#45;&gt;Node25_1</title>
<path fill="none" stroke="black" d="M1953.32,-392.53C1959.31,-401.06 1966.74,-410.14 1975,-417 1984.09,-424.55 1995.08,-430.94 2005.71,-436.12"/>
<polygon fill="black" stroke="black" points="1956.06,-390.34 1947.62,-383.94 1950.23,-394.21 1956.06,-390.34"/>
<text text-anchor="middle" x="2032.5" y="-405.8" font-family="Times,serif" font-size="14.00">विशेषणम्</text>
</g>
<!-- Node23_3 -->
<g id="node9" class="node">
<title>Node23_3</title>
<ellipse fill="#93db70" stroke="#93db70" cx="2355" cy="-366" rx="84.49" ry="18"/>
<text text-anchor="middle" x="2355" y="-362.3" font-family="Times,serif" font-size="14.00">उपमम्(23.3)</text>
</g>
<!-- Node23_3&#45;&gt;Node25_1 -->
<g id="edge34" class="edge">
<title>Node23_3&#45;&gt;Node25_1</title>
<path fill="none" stroke="black" d="M2310.94,-386.48C2286.57,-396.68 2255.52,-408.73 2227,-417 2194.13,-426.53 2157.13,-434.23 2125.26,-439.95"/>
<polygon fill="black" stroke="black" points="2312.43,-389.65 2320.28,-382.53 2309.7,-383.21 2312.43,-389.65"/>
<text text-anchor="middle" x="2326.5" y="-405.8" font-family="Times,serif" font-size="14.00">विशेषणम्</text>
</g>
<!-- Node24_1 -->
<g id="node10" class="node">
<title>Node24_1</title>
<ellipse fill="#93db70" stroke="#93db70" cx="1398" cy="-366" rx="102.88" ry="18"/>
<text text-anchor="middle" x="1398" y="-362.3" font-family="Times,serif" font-size="14.00">विमानम्(24.1)</text>
</g>
<!-- Node24_1&#45;&gt;Node25_1 -->
<g id="edge35" class="edge">
<title>Node24_1&#45;&gt;Node25_1</title>
<path fill="none" stroke="black" d="M1470.11,-382.47C1523.45,-393.44 1597.98,-407.8 1664,-417 1758.9,-430.22 1867.75,-439.62 1945.09,-445.33"/>
<polygon fill="black" stroke="black" points="1470.57,-378.99 1460.07,-380.39 1469.16,-385.85 1470.57,-378.99"/>
<text text-anchor="middle" x="1721.5" y="-405.8" font-family="Times,serif" font-size="14.00">विशेषणम्</text>
</g>
<!-- Node26_1 -->
<g id="node11" class="node">
<title>Node26_1</title>
<ellipse fill="#93db70" stroke="#93db70" cx="2772" cy="-366" rx="102.88" ry="18"/>
<text text-anchor="middle" x="2772" y="-362.3" font-family="Times,serif" font-size="14.00">दिव्यम्(26.1)</text>
</g>
<!-- Node26_1&#45;&gt;Node25_1 -->
<g id="edge37" class="edge">
<title>Node26_1&#45;&gt;Node25_1</title>
<path fill="none" stroke="black" d="M2712.2,-384.47C2671.6,-395.61 2616.5,-409.36 2567,-417 2426.94,-438.63 2263.62,-446.89 2157.92,-450.05"/>
<polygon fill="black" stroke="black" points="2713.24,-387.81 2721.94,-381.77 2711.37,-381.07 2713.24,-387.81"/>
<text text-anchor="middle" x="2697.5" y="-405.8" font-family="Times,serif" font-size="14.00">विशेषणम्</text>
</g>
<!-- Node7_1 -->
<g id="node12" class="node">
<title>Node7_1</title>
<ellipse fill="#40e0d0" stroke="#40e0d0" cx="429" cy="-192" rx="115.88" ry="18"/>
<text text-anchor="middle" x="429" y="-188.3" font-family="Times,serif" font-size="14.00">विद्रुमेण(7.1)</text>
</g>
<!-- Node14_1 -->
<g id="node13" class="node">
<title>Node14_1</title>
<ellipse fill="#40e0d0" stroke="#40e0d0" cx="777" cy="-279" rx="75.29" ry="18"/>
<text text-anchor="middle" x="777" y="-275.3" font-family="Times,serif" font-size="14.00">तलेन(14.1)</text>
</g>
<!-- Node7_1&#45;&gt;Node14_1 -->
<g id="edge13" class="edge">
<title>Node7_1&#45;&gt;Node14_1</title>
<path fill="none" stroke="black" d="M456.07,-216.12C469.13,-226.02 485.51,-236.73 502,-243 566.44,-267.52 644.87,-275.56 701.45,-277.88"/>
<polygon fill="black" stroke="black" points="458.03,-213.21 448,-209.78 453.7,-218.71 458.03,-213.21"/>
<text text-anchor="middle" x="566.5" y="-231.8" font-family="Times,serif" font-size="14.00">समुच्चितः</text>
</g>
<!-- Node14_1&#45;&gt;Node15_1 -->
<g id="edge21" class="edge">
<title>Node14_1&#45;&gt;Node15_1</title>
<path fill="none" stroke="black" d="M859.83,-284.74C995.85,-292.99 1274.93,-311.82 1510,-340 1534.82,-342.97 1561.71,-346.95 1586.16,-350.85"/>
<polygon fill="black" stroke="black" points="859.68,-281.23 849.49,-284.12 859.26,-288.21 859.68,-281.23"/>
<text text-anchor="middle" x="1446" y="-318.8" font-family="Times,serif" font-size="14.00">करणम्</text>
</g>
<!-- Node8_1 -->
<g id="node14" class="node">
<title>Node8_1</title>
<ellipse fill="#40e0d0" stroke="#40e0d0" cx="429" cy="-105" rx="115.88" ry="18"/>
<text text-anchor="middle" x="429" y="-101.3" font-family="Times,serif" font-size="14.00">विचित्रेण(8.1)</text>
</g>
<!-- Node8_1&#45;&gt;Node7_1 -->
<g id="edge14" class="edge">
<title>Node8_1&#45;&gt;Node7_1</title>
<path fill="none" stroke="black" d="M429,-133.27C429,-146.58 429,-162.19 429,-173.82"/>
<polygon fill="black" stroke="black" points="432.5,-133.2 429,-123.2 425.5,-133.2 432.5,-133.2"/>
<text text-anchor="middle" x="486.5" y="-144.8" font-family="Times,serif" font-size="14.00">विशेषणम्</text>
</g>
<!-- Node9_1 -->
<g id="node15" class="node">
<title>Node9_1</title>
<ellipse fill="#40e0d0" stroke="#40e0d0" cx="650" cy="-192" rx="87.99" ry="18"/>
<text text-anchor="middle" x="650" y="-188.3" font-family="Times,serif" font-size="14.00">मणिभिः(9.1)</text>
</g>
<!-- Node9_1&#45;&gt;Node14_1 -->
<g id="edge15" class="edge">
<title>Node9_1&#45;&gt;Node14_1</title>
<path fill="none" stroke="black" d="M636.91,-219.87C634.89,-227.97 634.9,-236.44 640,-243 649.37,-255.07 682.03,-263.68 713.11,-269.34"/>
<polygon fill="black" stroke="black" points="640.25,-220.93 640.19,-210.33 633.63,-218.65 640.25,-220.93"/>
<text text-anchor="middle" x="704.5" y="-231.8" font-family="Times,serif" font-size="14.00">समुच्चितः</text>
</g>
<!-- Node11_2 -->
<g id="node16" class="node">
<title>Node11_2</title>
<ellipse fill="#40e0d0" stroke="#40e0d0" cx="831" cy="-192" rx="75.29" ry="18"/>
<text text-anchor="middle" x="831" y="-188.3" font-family="Times,serif" font-size="14.00">धनैः(11.2)</text>
</g>
<!-- Node11_2&#45;&gt;Node14_1 -->
<g id="edge18" class="edge">
<title>Node11_2&#45;&gt;Node14_1</title>
<path fill="none" stroke="black" d="M789.4,-214.29C784.86,-218.24 780.86,-222.8 778,-228 772.55,-237.89 772.38,-250.63 773.53,-260.77"/>
<polygon fill="black" stroke="black" points="791.59,-217.02 797.43,-208.18 787.35,-211.45 791.59,-217.02"/>
<text text-anchor="middle" x="842.5" y="-231.8" font-family="Times,serif" font-size="14.00">समुच्चितः</text>
</g>
<!-- Node12_1 -->
<g id="node17" class="node">
<title>Node12_1</title>
<ellipse fill="#40e0d0" stroke="#40e0d0" cx="156" cy="-192" rx="139.98" ry="18"/>
<text text-anchor="middle" x="156" y="-188.3" font-family="Times,serif" font-size="14.00">निस्तुलाभिः(12.1)</text>
</g>
<!-- Node12_1&#45;&gt;Node14_1 -->
<g id="edge19" class="edge">
<title>Node12_1&#45;&gt;Node14_1</title>
<path fill="none" stroke="black" d="M214.77,-211.86C250.83,-222.68 298.15,-235.56 341,-243 466.69,-264.84 615.18,-273.09 702.42,-276.18"/>
<polygon fill="black" stroke="black" points="215.5,-208.42 204.92,-208.86 213.47,-215.12 215.5,-208.42"/>
<text text-anchor="middle" x="405.5" y="-231.8" font-family="Times,serif" font-size="14.00">समुच्चितः</text>
</g>
<!-- Node16_1 -->
<g id="node18" class="node">
<title>Node16_1</title>
<ellipse fill="#40e0d0" stroke="#40e0d0" cx="1613" cy="-105" rx="102.88" ry="18"/>
<text text-anchor="middle" x="1613" y="-101.3" font-family="Times,serif" font-size="14.00">चन्दनेन(16.1)</text>
</g>
<!-- Node21_2 -->
<g id="node19" class="node">
<title>Node21_2</title>
<ellipse fill="#40e0d0" stroke="#40e0d0" cx="1613" cy="-192" rx="102.88" ry="18"/>
<text text-anchor="middle" x="1613" y="-188.3" font-family="Times,serif" font-size="14.00">गन्धिना(21.2)</text>
</g>
<!-- Node16_1&#45;&gt;Node21_2 -->
<g id="edge23" class="edge">
<title>Node16_1&#45;&gt;Node21_2</title>
<path fill="none" stroke="black" d="M1613,-133.27C1613,-146.58 1613,-162.19 1613,-173.82"/>
<polygon fill="black" stroke="black" points="1616.5,-133.2 1613,-123.2 1609.5,-133.2 1616.5,-133.2"/>
<text text-anchor="middle" x="1670.5" y="-144.8" font-family="Times,serif" font-size="14.00">विशेषणम्</text>
</g>
<!-- Node19_2 -->
<g id="node21" class="node">
<title>Node19_2</title>
<ellipse fill="#40e0d0" stroke="#40e0d0" cx="1402" cy="-279" rx="84.49" ry="18"/>
<text text-anchor="middle" x="1402" y="-275.3" font-family="Times,serif" font-size="14.00">निभेन(19.2)</text>
</g>
<!-- Node21_2&#45;&gt;Node19_2 -->
<g id="edge30" class="edge">
<title>Node21_2&#45;&gt;Node19_2</title>
<path fill="none" stroke="black" d="M1573.06,-213.73C1553.94,-223.25 1530.57,-234.33 1509,-243 1489.78,-250.73 1468.13,-258.05 1449.36,-263.99"/>
<polygon fill="black" stroke="black" points="1574.72,-216.81 1582.08,-209.19 1571.57,-210.56 1574.72,-216.81"/>
<text text-anchor="middle" x="1604.5" y="-231.8" font-family="Times,serif" font-size="14.00">समुच्चितः</text>
</g>
<!-- Node18_1 -->
<g id="node20" class="node">
<title>Node18_1</title>
<ellipse fill="#40e0d0" stroke="#40e0d0" cx="1392" cy="-192" rx="93.68" ry="18"/>
<text text-anchor="middle" x="1392" y="-188.3" font-family="Times,serif" font-size="14.00">रक्तेन(18.1)</text>
</g>
<!-- Node18_1&#45;&gt;Node19_2 -->
<g id="edge25" class="edge">
<title>Node18_1&#45;&gt;Node19_2</title>
<path fill="none" stroke="black" d="M1392.18,-220.42C1392.48,-227.77 1393.03,-235.71 1394,-243 1394.79,-248.93 1396.11,-255.34 1397.46,-261.03"/>
<polygon fill="black" stroke="black" points="1395.68,-220.09 1391.91,-210.19 1388.68,-220.28 1395.68,-220.09"/>
<text text-anchor="middle" x="1451.5" y="-231.8" font-family="Times,serif" font-size="14.00">विशेषणम्</text>
</g>
<!-- Node19_2&#45;&gt;Node22_1 -->
<g id="edge27" class="edge">
<title>Node19_2&#45;&gt;Node22_1</title>
<path fill="none" stroke="black" d="M1484.48,-289.71C1570.15,-300.26 1707.92,-318.5 1826,-340 1843.54,-343.19 1862.51,-347.21 1879.76,-351.08"/>
<polygon fill="black" stroke="black" points="1484.65,-286.21 1474.3,-288.46 1483.8,-293.15 1484.65,-286.21"/>
<text text-anchor="middle" x="1792" y="-318.8" font-family="Times,serif" font-size="14.00">करणम्</text>
</g>
<!-- Node1_1 -->
<g id="node22" class="node">
<title>Node1_1</title>
<ellipse fill="#ffff00" stroke="#ffff00" cx="3137" cy="-18" rx="63.09" ry="18"/>
<text text-anchor="middle" x="3137" y="-14.3" font-family="Times,serif" font-size="14.00">जाल&#45;(1.1)</text>
</g>
<!-- Node1_2 -->
<g id="node23" class="node">
<title>Node1_2</title>
<ellipse fill="#ffff00" stroke="#ffff00" cx="3137" cy="-105" rx="63.09" ry="18"/>
<text text-anchor="middle" x="3137" y="-101.3" font-family="Times,serif" font-size="14.00">वात&#45;(1.2)</text>
</g>
<!-- Node1_1&#45;&gt;Node1_2 -->
<g id="edge1" class="edge">
<title>Node1_1&#45;&gt;Node1_2</title>
<path fill="none" stroke="black" d="M3137,-46.27C3137,-59.58 3137,-75.19 3137,-86.82"/>
<polygon fill="black" stroke="black" points="3140.5,-46.2 3137,-36.2 3133.5,-46.2 3140.5,-46.2"/>
<text text-anchor="middle" x="3201.5" y="-57.8" font-family="Times,serif" font-size="14.00">द्वन्द्वः</text>
</g>
<!-- Node1_2&#45;&gt;Node1_3 -->
<g id="edge2" class="edge">
<title>Node1_2&#45;&gt;Node1_3</title>
<path fill="none" stroke="black" d="M3137,-133.27C3137,-146.58 3137,-162.19 3137,-173.82"/>
<polygon fill="black" stroke="black" points="3140.5,-133.2 3137,-123.2 3133.5,-133.2 3140.5,-133.2"/>
<text text-anchor="middle" x="3240.5" y="-144.8" font-family="Times,serif" font-size="14.00">षष्ठी_तत्पुरुषः</text>
</g>
<!-- Node5_1 -->
<g id="node24" class="node">
<title>Node5_1</title>
<ellipse fill="#ff99ff" stroke="#ff99ff" cx="2698" cy="-192" rx="59.59" ry="18"/>
<text text-anchor="middle" x="2698" y="-188.3" font-family="Times,serif" font-size="14.00">अपि(5.1)</text>
</g>
<!-- Node5_1&#45;&gt;Node3_1 -->
<g id="edge7" class="edge">
<title>Node5_1&#45;&gt;Node3_1</title>
<path fill="none" stroke="black" d="M2699.4,-220.19C2701.18,-228.58 2704.6,-237.15 2711,-243 2727.71,-258.28 2776.51,-266.95 2822.87,-271.84"/>
<polygon fill="black" stroke="black" points="2702.86,-219.63 2697.96,-210.23 2695.93,-220.63 2702.86,-219.63"/>
<text text-anchor="middle" x="2814.5" y="-231.8" font-family="Times,serif" font-size="14.00">समुच्चय_द्योतकः</text>
</g>
<!-- Node6_1 -->
<g id="node25" class="node">
<title>Node6_1</title>
<ellipse fill="#ffff00" stroke="#ffff00" cx="2102" cy="-105" rx="118.08" ry="18"/>
<text text-anchor="middle" x="2102" y="-101.3" font-family="Times,serif" font-size="14.00">इन्द्रनील&#45;(6.1)</text>
</g>
<!-- Node6_3 -->
<g id="node26" class="node">
<title>Node6_3</title>
<ellipse fill="#ffff00" stroke="#ffff00" cx="2102" cy="-192" rx="63.09" ry="18"/>
<text text-anchor="middle" x="2102" y="-188.3" font-family="Times,serif" font-size="14.00">मणि&#45;(6.3)</text>
</g>
<!-- Node6_1&#45;&gt;Node6_3 -->
<g id="edge8" class="edge">
<title>Node6_1&#45;&gt;Node6_3</title>
<path fill="none" stroke="black" d="M2102,-133.27C2102,-146.58 2102,-162.19 2102,-173.82"/>
<polygon fill="black" stroke="black" points="2105.5,-133.2 2102,-123.2 2098.5,-133.2 2105.5,-133.2"/>
<text text-anchor="middle" x="2166.5" y="-144.8" font-family="Times,serif" font-size="14.00">द्वन्द्वः</text>
</g>
<!-- Node6_4 -->
<g id="node28" class="node">
<title>Node6_4</title>
<ellipse fill="#ffff00" stroke="#ffff00" cx="2156" cy="-279" rx="81.49" ry="18"/>
<text text-anchor="middle" x="2156" y="-275.3" font-family="Times,serif" font-size="14.00">प्रवर&#45;(6.4)</text>
</g>
<!-- Node6_3&#45;&gt;Node6_4 -->
<g id="edge10" class="edge">
<title>Node6_3&#45;&gt;Node6_4</title>
<path fill="none" stroke="black" d="M2096.53,-220.33C2096.26,-228.05 2097.27,-236.2 2101,-243 2105.47,-251.14 2112.71,-257.65 2120.5,-262.75"/>
<polygon fill="black" stroke="black" points="2100.03,-220.53 2097.56,-210.22 2093.07,-219.82 2100.03,-220.53"/>
<text text-anchor="middle" x="2211.5" y="-231.8" font-family="Times,serif" font-size="14.00">सप्तमी_तत्पुरुषः</text>
</g>
<!-- Node6_2 -->
<g id="node27" class="node">
<title>Node6_2</title>
<ellipse fill="#ffff00" stroke="#ffff00" cx="2317" cy="-192" rx="90.98" ry="18"/>
<text text-anchor="middle" x="2317" y="-188.3" font-family="Times,serif" font-size="14.00">महानील&#45;(6.2)</text>
</g>
<!-- Node6_2&#45;&gt;Node6_4 -->
<g id="edge9" class="edge">
<title>Node6_2&#45;&gt;Node6_4</title>
<path fill="none" stroke="black" d="M2326.67,-220.02C2327.87,-228.16 2327.18,-236.62 2322,-243 2310.13,-257.64 2268.63,-266.39 2230.09,-271.48"/>
<polygon fill="black" stroke="black" points="2330.03,-219 2324.34,-210.06 2323.21,-220.59 2330.03,-219"/>
<text text-anchor="middle" x="2391.5" y="-231.8" font-family="Times,serif" font-size="14.00">कर्मधारयः</text>
</g>
<!-- Node6_4&#45;&gt;Node6_5 -->
<g id="edge11" class="edge">
<title>Node6_4&#45;&gt;Node6_5</title>
<path fill="none" stroke="black" d="M2156,-307.27C2156,-320.58 2156,-336.19 2156,-347.82"/>
<polygon fill="black" stroke="black" points="2159.5,-307.2 2156,-297.2 2152.5,-307.2 2159.5,-307.2"/>
<text text-anchor="middle" x="2227.5" y="-318.8" font-family="Times,serif" font-size="14.00">बहुव्रीहिः</text>
</g>
<!-- Node10_1 -->
<g id="node29" class="node">
<title>Node10_1</title>
<ellipse fill="#ff99ff" stroke="#ff99ff" cx="972" cy="-192" rx="47.39" ry="18"/>
<text text-anchor="middle" x="972" y="-188.3" font-family="Times,serif" font-size="14.00">च(10.1)</text>
</g>
<!-- Node10_1&#45;&gt;Node14_1 -->
<g id="edge16" class="edge">
<title>Node10_1&#45;&gt;Node14_1</title>
<path fill="none" stroke="black" d="M945.31,-215.22C931.18,-226.64 915.11,-238.99 907,-243 884.58,-254.09 858.19,-262.02 835.07,-267.5"/>
<polygon fill="black" stroke="black" points="947.8,-217.71 953.34,-208.68 943.37,-212.29 947.8,-217.71"/>
<text text-anchor="middle" x="1031.5" y="-231.8" font-family="Times,serif" font-size="14.00">समुच्चय_द्योतकः</text>
</g>
<!-- Node11_1 -->
<g id="node30" class="node">
<title>Node11_1</title>
<ellipse fill="#ffff00" stroke="#ffff00" cx="991" cy="-105" rx="68.79" ry="18"/>
<text text-anchor="middle" x="991" y="-101.3" font-family="Times,serif" font-size="14.00">महा&#45;(11.1)</text>
</g>
<!-- Node11_1&#45;&gt;Node11_2 -->
<g id="edge17" class="edge">
<title>Node11_1&#45;&gt;Node11_2</title>
<path fill="none" stroke="black" d="M952.84,-126.27C924.56,-141.3 886.57,-161.48 860.57,-175.29"/>
<polygon fill="black" stroke="black" points="954.84,-129.18 962.03,-121.39 951.55,-122.99 954.84,-129.18"/>
<text text-anchor="middle" x="984.5" y="-144.8" font-family="Times,serif" font-size="14.00">कर्मधारयः</text>
</g>
<!-- Node13_1 -->
<g id="node31" class="node">
<title>Node13_1</title>
<ellipse fill="#40e0d0" stroke="#40e0d0" cx="1159" cy="-192" rx="121.58" ry="18"/>
<text text-anchor="middle" x="1159" y="-188.3" font-family="Times,serif" font-size="14.00">मुक्ताभिः(13.1)</text>
</g>
<!-- Node13_1&#45;&gt;Node14_1 -->
<g id="edge20" class="edge">
<title>Node13_1&#45;&gt;Node14_1</title>
<path fill="none" stroke="black" d="M1153.03,-219.81C1149.75,-228.55 1144.7,-237.42 1137,-243 1114.36,-259.39 949.16,-269.91 850.59,-274.8"/>
<polygon fill="black" stroke="black" points="1156.4,-220.77 1156.04,-210.18 1149.72,-218.68 1156.4,-220.77"/>
<text text-anchor="middle" x="1199" y="-231.8" font-family="Times,serif" font-size="14.00">सहार्थः</text>
</g>
<!-- Node17_1 -->
<g id="node32" class="node">
<title>Node17_1</title>
<ellipse fill="#ff99ff" stroke="#ff99ff" cx="1781" cy="-192" rx="47.39" ry="18"/>
<text text-anchor="middle" x="1781" y="-188.3" font-family="Times,serif" font-size="14.00">च(17.1)</text>
</g>
<!-- Node17_1&#45;&gt;Node19_2 -->
<g id="edge24" class="edge">
<title>Node17_1&#45;&gt;Node19_2</title>
<path fill="none" stroke="black" d="M1743.53,-210.85C1738.33,-213.28 1733.04,-215.72 1728,-218 1717.85,-222.6 1715.16,-223.41 1705,-228 1690.69,-234.47 1688.08,-238.61 1673,-243 1610.83,-261.11 1537.91,-269.85 1483.38,-274.08"/>
<polygon fill="black" stroke="black" points="1745.18,-213.94 1752.74,-206.52 1742.2,-207.6 1745.18,-213.94"/>
<text text-anchor="middle" x="1808.5" y="-231.8" font-family="Times,serif" font-size="14.00">समुच्चय_द्योतकः</text>
</g>
<!-- Node19_1 -->
<g id="node33" class="node">
<title>Node19_1</title>
<ellipse fill="#ffff00" stroke="#ffff00" cx="1934" cy="-192" rx="87.18" ry="18"/>
<text text-anchor="middle" x="1934" y="-188.3" font-family="Times,serif" font-size="14.00">तपनीय&#45;(19.1)</text>
</g>
<!-- Node19_1&#45;&gt;Node19_2 -->
<g id="edge26" class="edge">
<title>Node19_1&#45;&gt;Node19_2</title>
<path fill="none" stroke="black" d="M1928.12,-219.93C1924.84,-228.68 1919.78,-237.53 1912,-243 1878.07,-266.83 1621.91,-274.52 1486.05,-276.94"/>
<polygon fill="black" stroke="black" points="1931.49,-220.87 1931.11,-210.28 1924.81,-218.8 1931.49,-220.87"/>
<text text-anchor="middle" x="1995.5" y="-231.8" font-family="Times,serif" font-size="14.00">बहुव्रीहिः</text>
</g>
<!-- Node20_1 -->
<g id="node34" class="node">
<title>Node20_1</title>
<ellipse fill="#ff99ff" stroke="#ff99ff" cx="1938" cy="-279" rx="47.39" ry="18"/>
<text text-anchor="middle" x="1938" y="-275.3" font-family="Times,serif" font-size="14.00">च(20.1)</text>
</g>
<!-- Node20_1&#45;&gt;Node22_1 -->
<g id="edge28" class="edge">
<title>Node20_1&#45;&gt;Node22_1</title>
<path fill="none" stroke="black" d="M1938,-307.27C1938,-320.58 1938,-336.19 1938,-347.82"/>
<polygon fill="black" stroke="black" points="1941.5,-307.2 1938,-297.2 1934.5,-307.2 1941.5,-307.2"/>
<text text-anchor="middle" x="1995.5" y="-318.8" font-family="Times,serif" font-size="14.00">सम्बन्धः</text>
</g>
<!-- Node21_1 -->
<g id="node35" class="node">
<title>Node21_1</title>
<ellipse fill="#ffff00" stroke="#ffff00" cx="1840" cy="-105" rx="105.88" ry="18"/>
<text text-anchor="middle" x="1840" y="-101.3" font-family="Times,serif" font-size="14.00">सुपुण्य&#45;(21.1)</text>
</g>
<!-- Node21_1&#45;&gt;Node21_2 -->
<g id="edge29" class="edge">
<title>Node21_1&#45;&gt;Node21_2</title>
<path fill="none" stroke="black" d="M1798.83,-126.8C1778.94,-136.4 1754.54,-147.52 1732,-156 1711.34,-163.77 1688.15,-170.93 1667.76,-176.72"/>
<polygon fill="black" stroke="black" points="1800.47,-129.9 1807.92,-122.37 1797.4,-123.6 1800.47,-129.9"/>
<text text-anchor="middle" x="1836.5" y="-144.8" font-family="Times,serif" font-size="14.00">बहुव्रीहिः</text>
</g>
<!-- Node23_1 -->
<g id="node36" class="node">
<title>Node23_1</title>
<ellipse fill="#ffff00" stroke="#ffff00" cx="2523" cy="-192" rx="96.68" ry="18"/>
<text text-anchor="middle" x="2523" y="-188.3" font-family="Times,serif" font-size="14.00">आदित्य&#45;(23.1)</text>
</g>
<!-- Node23_2 -->
<g id="node37" class="node">
<title>Node23_2</title>
<ellipse fill="#ffff00" stroke="#ffff00" cx="2495" cy="-279" rx="77.99" ry="18"/>
<text text-anchor="middle" x="2495" y="-275.3" font-family="Times,serif" font-size="14.00">तरुण&#45;(23.2)</text>
</g>
<!-- Node23_1&#45;&gt;Node23_2 -->
<g id="edge32" class="edge">
<title>Node23_1&#45;&gt;Node23_2</title>
<path fill="none" stroke="black" d="M2514.15,-219.87C2509.73,-233.27 2504.53,-249.08 2500.66,-260.82"/>
<polygon fill="black" stroke="black" points="2517.53,-220.79 2517.33,-210.2 2510.88,-218.6 2517.53,-220.79"/>
<text text-anchor="middle" x="2574.5" y="-231.8" font-family="Times,serif" font-size="14.00">कर्मधारयः</text>
</g>
<!-- Node23_2&#45;&gt;Node23_3 -->
<g id="edge33" class="edge">
<title>Node23_2&#45;&gt;Node23_3</title>
<path fill="none" stroke="black" d="M2460.1,-301.19C2435.82,-315.93 2403.95,-335.28 2381.69,-348.79"/>
<polygon fill="black" stroke="black" points="2461.94,-304.17 2468.67,-295.99 2458.3,-298.19 2461.94,-304.17"/>
<text text-anchor="middle" x="2497.5" y="-318.8" font-family="Times,serif" font-size="14.00">कर्मधारयः</text>
</g>
<!-- Node28_1 -->
<g id="node39" class="node">
<title>Node28_1</title>
<ellipse fill="#ffff00" stroke="#ffff00" cx="1150" cy="-366" rx="68.79" ry="18"/>
<text text-anchor="middle" x="1150" y="-362.3" font-family="Times,serif" font-size="14.00">महा&#45;(28.1)</text>
</g>
<!-- Node28_2 -->
<g id="node40" class="node">
<title>Node28_2</title>
<ellipse fill="#00bfff" stroke="#00bfff" cx="1177" cy="-453" rx="75.29" ry="18"/>
<text text-anchor="middle" x="1177" y="-449.3" font-family="Times,serif" font-size="14.00">कपिः(28.2)</text>
</g>
<!-- Node28_1&#45;&gt;Node28_2 -->
<g id="edge38" class="edge">
<title>Node28_1&#45;&gt;Node28_2</title>
<path fill="none" stroke="black" d="M1149.71,-394.23C1150.29,-401.76 1151.54,-409.83 1154,-417 1156.17,-423.33 1159.75,-429.63 1163.45,-435.1"/>
<polygon fill="black" stroke="black" points="1153.2,-393.94 1149.29,-384.09 1146.21,-394.23 1153.2,-393.94"/>
<text text-anchor="middle" x="1218.5" y="-405.8" font-family="Times,serif" font-size="14.00">कर्मधारयः</text>
</g>
<!-- Node28_2&#45;&gt;Node27_1 -->
<g id="edge39" class="edge">
<title>Node28_2&#45;&gt;Node27_1</title>
<path fill="none" stroke="black" d="M1238.16,-468.6C1252.84,-472.06 1268.47,-475.7 1283,-479 1356.6,-495.74 1441.52,-514.2 1497.07,-526.17"/>
<polygon fill="black" stroke="black" points="1238.72,-465.14 1228.18,-466.25 1237.11,-471.95 1238.72,-465.14"/>
<text text-anchor="middle" x="1424" y="-492.8" font-family="Times,serif" font-size="14.00">कर्ता</text>
</g>
</g>
</svg>
