<svg xmlns="http://www.w3.org/2000/svg" xmlns:xlink="http://www.w3.org/1999/xlink" width="1501pt" height="305pt" viewBox="0 0 1501 305"><g id="graph0" class="graph" transform="scale(1 1) rotate(0) translate(4 301)"><title>G</title><polygon fill="#fffacd" stroke="transparent" points="-4 4 -4 -301 1497 -301 1497 4 -4 4"/><g id="clust1" class="cluster"><title>cluster_1</title><polygon fill="#fffacd" stroke="#000" points="1155 -79 1155 -218 1485 -218 1485 -79 1155 -79"/></g><g id="clust2" class="cluster"><title>cluster_2</title><polygon fill="#fffacd" stroke="#000" points="8 -79 8 -218 711 -218 711 -79 8 -79"/></g><g id="node1" class="node"><title>Node3_1</title><ellipse cx="1417" cy="-105" fill="#93db70" stroke="#93db70" rx="59.59" ry="18"/><text x="1417" y="-101.3" font-family="Times,serif" font-size="14" text-anchor="middle">ताः(3.1)</text></g><g id="node2" class="node"><title>Node4_1</title><ellipse cx="1270" cy="-192" fill="#93db70" stroke="#93db70" rx="106.68" ry="18"/><text x="1270" y="-188.3" font-family="Times,serif" font-size="14" text-anchor="middle">स्त्रियः(4.1)</text></g><g id="edge4" class="edge"><title>Node3_1-&gt;Node4_1</title><path fill="none" stroke="#000" d="M1385.56,-127.56C1371.79,-136.69 1355.32,-147.23 1340,-156 1328.56,-162.55 1315.74,-169.16 1304.23,-174.84"/><polygon fill="#000" stroke="#000" points="1387.81 -130.26 1394.17 -121.79 1383.92 -124.44 1387.81 -130.26"/><text x="1420.5" y="-144.8" font-family="Times,serif" font-size="14" text-anchor="middle">विशेषणम्</text></g><g id="node11" class="node"><title>Node9_1</title><ellipse cx="869" cy="-279" fill="#ff1975" stroke="#ff1975" rx="124.58" ry="18"/><text x="869" y="-275.3" font-family="Times,serif" font-size="14" text-anchor="middle">प्रैक्षन्त(9.1)</text></g><g id="edge5" class="edge"><title>Node4_1-&gt;Node9_1</title><path fill="none" stroke="#000" d="M1247,-216.89C1236.14,-226.67 1222.4,-237.07 1208,-243 1169.02,-259.06 1068.4,-268.08 986.84,-272.93"/><polygon fill="#000" stroke="#000" points="1249.49 -219.36 1254.37 -209.95 1244.69 -214.26 1249.49 -219.36"/><text x="1261" y="-231.8" font-family="Times,serif" font-size="14" text-anchor="middle">कर्म</text></g><g id="node3" class="node"><title>Node5_2</title><ellipse cx="1251" cy="-105" fill="#93db70" stroke="#93db70" rx="87.99" ry="18"/><text x="1251" y="-101.3" font-family="Times,serif" font-size="14" text-anchor="middle">प्रभाः(5.2)</text></g><g id="edge7" class="edge"><title>Node5_2-&gt;Node4_1</title><path fill="none" stroke="#000" d="M1227.72,-131.43C1223.27,-139.27 1221.06,-147.95 1225,-156 1228.57,-163.29 1234.46,-169.5 1240.84,-174.58"/><polygon fill="#000" stroke="#000" points="1230.73 -133.24 1233.51 -123.02 1224.96 -129.28 1230.73 -133.24"/><text x="1282.5" y="-144.8" font-family="Times,serif" font-size="14" text-anchor="middle">विशेषणम्</text></g><g id="node4" class="node"><title>Node6_1</title><ellipse cx="596" cy="-105" fill="#00bfff" stroke="#00bfff" rx="106.68" ry="18"/><text x="596" y="-101.3" font-family="Times,serif" font-size="14" text-anchor="middle">ज्वलन्तः(6.1)</text></g><g id="node5" class="node"><title>Node8_1</title><ellipse cx="476" cy="-192" fill="#00bfff" stroke="#00bfff" rx="78.79" ry="18"/><text x="476" y="-188.3" font-family="Times,serif" font-size="14" text-anchor="middle">दीपाः(8.1)</text></g><g id="edge8" class="edge"><title>Node6_1-&gt;Node8_1</title><path fill="none" stroke="#000" d="M573.49,-130.42C564.78,-139.11 554.4,-148.56 544,-156 533.63,-163.41 521.48,-170.19 510.33,-175.76"/><polygon fill="#000" stroke="#000" points="576.2 -132.66 580.68 -123.06 571.19 -127.77 576.2 -132.66"/><text x="617.5" y="-144.8" font-family="Times,serif" font-size="14" text-anchor="middle">विशेषणम्</text></g><g id="edge10" class="edge"><title>Node8_1-&gt;Node9_1</title><path fill="none" stroke="#000" d="M540.98,-207.05C613.41,-222.72 729.93,-247.92 802.84,-263.69"/><polygon fill="#000" stroke="#000" points="541.57 -203.6 531.06 -204.91 540.09 -210.44 541.57 -203.6"/><text x="732" y="-231.8" font-family="Times,serif" font-size="14" text-anchor="middle">कर्ता</text></g><g id="node6" class="node"><title>Node7_1</title><ellipse cx="365" cy="-105" fill="#00bfff" stroke="#00bfff" rx="106.68" ry="18"/><text x="365" y="-101.3" font-family="Times,serif" font-size="14" text-anchor="middle">काञ्चनाः(7.1)</text></g><g id="edge9" class="edge"><title>Node7_1-&gt;Node8_1</title><path fill="none" stroke="#000" d="M394.2,-129.04C405.08,-137.57 417.57,-147.28 429,-156 437.09,-162.17 446.03,-168.86 453.92,-174.72"/><polygon fill="#000" stroke="#000" points="396.26 -126.21 386.24 -122.79 391.94 -131.72 396.26 -126.21"/><text x="486.5" y="-144.8" font-family="Times,serif" font-size="14" text-anchor="middle">विशेषणम्</text></g><g id="node7" class="node"><title>Node10_1</title><ellipse cx="128" cy="-105" fill="#00bfff" stroke="#00bfff" rx="112.38" ry="18"/><text x="128" y="-101.3" font-family="Times,serif" font-size="14" text-anchor="middle">अनिमिषाः(10.1)</text></g><g id="edge11" class="edge"><title>Node10_1-&gt;Node8_1</title><path fill="none" stroke="#000" d="M183.14,-124.72C214.27,-134.86 254.03,-147.1 290,-156 330.67,-166.07 376.96,-174.79 413.19,-181.01"/><polygon fill="#000" stroke="#000" points="183.94 -121.3 173.35 -121.51 181.76 -127.95 183.94 -121.3"/><text x="347.5" y="-144.8" font-family="Times,serif" font-size="14" text-anchor="middle">विशेषणम्</text></g><g id="node8" class="node"><title>Node1_1</title><ellipse cx="799" cy="-105" fill="#c6e2eb" stroke="#c6e2eb" rx="78.79" ry="18"/><text x="799" y="-101.3" font-family="Times,serif" font-size="14" text-anchor="middle">रावणे(1.1)</text></g><g id="node9" class="node"><title>Node2_2</title><ellipse cx="869" cy="-192" fill="#c6e2eb" stroke="#c6e2eb" rx="106.68" ry="18"/><text x="869" y="-188.3" font-family="Times,serif" font-size="14" text-anchor="middle">संविष्टे(2.2)</text></g><g id="edge1" class="edge"><title>Node1_1-&gt;Node2_2</title><path fill="none" stroke="#000" d="M814.12,-131.35C819.4,-139.51 825.62,-148.39 832,-156 837.23,-162.23 843.48,-168.5 849.34,-173.98"/><polygon fill="#000" stroke="#000" points="817.08 -129.49 808.8 -122.89 811.16 -133.22 817.08 -129.49"/><text x="868" y="-144.8" font-family="Times,serif" font-size="14" text-anchor="middle">कर्ता</text></g><g id="edge3" class="edge"><title>Node2_2-&gt;Node9_1</title><path fill="none" stroke="#000" d="M869,-220.27C869,-233.58 869,-249.19 869,-260.82"/><polygon fill="#000" stroke="#000" points="872.5 -220.2 869 -210.2 865.5 -220.2 872.5 -220.2"/><text x="1036.5" y="-231.8" font-family="Times,serif" font-size="14" text-anchor="middle">भावलक्षणसप्तमी_पूर्वकालः</text></g><g id="node10" class="node"><title>Node2_1</title><ellipse cx="959" cy="-105" fill="#ff0" stroke="#ff0" rx="63.09" ry="18"/><text x="959" y="-101.3" font-family="Times,serif" font-size="14" text-anchor="middle">सुख-(2.1)</text></g><g id="edge2" class="edge"><title>Node2_1-&gt;Node2_2</title><path fill="none" stroke="#000" d="M934.2,-129.42C919.22,-143.57 900.46,-161.29 886.92,-174.08"/><polygon fill="#000" stroke="#000" points="936.78 -131.8 941.65 -122.39 931.97 -126.71 936.78 -131.8"/><text x="1029.5" y="-144.8" font-family="Times,serif" font-size="14" text-anchor="middle">तृतीया_तत्पुरुषः</text></g><g id="node12" class="node"><title>Node5_1</title><ellipse cx="1251" cy="-18" fill="#ff0" stroke="#ff0" rx="81.49" ry="18"/><text x="1251" y="-14.3" font-family="Times,serif" font-size="14" text-anchor="middle">विविध-(5.1)</text></g><g id="edge6" class="edge"><title>Node5_1-&gt;Node5_2</title><path fill="none" stroke="#000" d="M1251,-46.27C1251,-59.58 1251,-75.19 1251,-86.82"/><polygon fill="#000" stroke="#000" points="1254.5 -46.2 1251 -36.2 1247.5 -46.2 1254.5 -46.2"/><text x="1322.5" y="-57.8" font-family="Times,serif" font-size="14" text-anchor="middle">बहुव्रीहिः</text></g><g id="node13" class="node"><title>Node11_1</title><ellipse cx="128" cy="-18" fill="#f9f" stroke="#f9f" rx="56.59" ry="18"/><text x="128" y="-14.3" font-family="Times,serif" font-size="14" text-anchor="middle">इव(11.1)</text></g><g id="edge12" class="edge"><title>Node11_1-&gt;Node10_1</title><path fill="none" stroke="#000" d="M128,-46.27C128,-59.58 128,-75.19 128,-86.82"/><polygon fill="#000" stroke="#000" points="131.5 -46.2 128 -36.2 124.5 -46.2 131.5 -46.2"/><text x="185.5" y="-57.8" font-family="Times,serif" font-size="14" text-anchor="middle">सम्बन्धः</text></g></g></svg>