<svg xmlns="http://www.w3.org/2000/svg" xmlns:xlink="http://www.w3.org/1999/xlink" width="1477pt" height="392pt" viewBox="0 0 1477 392"><g id="graph0" class="graph" transform="scale(1 1) rotate(0) translate(4 388)"><title>G</title><polygon fill="#fffacd" stroke="transparent" points="-4 4 -4 -388 1473 -388 1473 4 -4 4"/><g id="clust1" class="cluster"><title>cluster_1</title><polygon fill="#fffacd" stroke="#000" points="744 -79 744 -218 992 -218 992 -79 744 -79"/></g><g id="clust2" class="cluster"><title>cluster_2</title><polygon fill="#fffacd" stroke="#000" points="8 -166 8 -305 736 -305 736 -166 8 -166"/></g><g id="node1" class="node"><title>Node1_1</title><ellipse cx="868" cy="-105" fill="#87ceeb" stroke="#87ceeb" rx="69.59" ry="18"/><text x="868" y="-101.3" font-family="Times,serif" font-size="14" text-anchor="middle">तस्य(1.1)</text></g><g id="node2" class="node"><title>Node2_1</title><ellipse cx="868" cy="-192" fill="#87ceeb" stroke="#87ceeb" rx="115.88" ry="18"/><text x="868" y="-188.3" font-family="Times,serif" font-size="14" text-anchor="middle">हर्म्यस्य(2.1)</text></g><g id="edge1" class="edge"><title>Node1_1-&gt;Node2_1</title><path fill="none" stroke="#000" d="M868,-133.27C868,-146.58 868,-162.19 868,-173.82"/><polygon fill="#000" stroke="#000" points="871.5 -133.2 868 -123.2 864.5 -133.2 871.5 -133.2"/><text x="925.5" y="-144.8" font-family="Times,serif" font-size="14" text-anchor="middle">विशेषणम्</text></g><g id="node4" class="node"><title>Node3_2</title><ellipse cx="631" cy="-279" fill="#93db70" stroke="#93db70" rx="78.79" ry="18"/><text x="631" y="-275.3" font-family="Times,serif" font-size="14" text-anchor="middle">वेश्म(3.2)</text></g><g id="edge2" class="edge"><title>Node2_1-&gt;Node3_2</title><path fill="none" stroke="#000" d="M825.56,-213.72C804.87,-223.36 779.45,-234.54 756,-243 732.26,-251.57 705.37,-259.34 682.62,-265.37"/><polygon fill="#000" stroke="#000" points="827.15 -216.83 834.71 -209.41 824.17 -210.5 827.15 -216.83"/><text x="886" y="-231.8" font-family="Times,serif" font-size="14" text-anchor="middle">षष्ठीसम्बन्धः</text></g><g id="node3" class="node"><title>Node5_1</title><ellipse cx="640" cy="-192" fill="#93db70" stroke="#93db70" rx="87.99" ry="18"/><text x="640" y="-188.3" font-family="Times,serif" font-size="14" text-anchor="middle">अन्यत्(5.1)</text></g><g id="edge6" class="edge"><title>Node5_1-&gt;Node3_2</title><path fill="none" stroke="#000" d="M637.11,-220.27C635.7,-233.58 634.05,-249.19 632.82,-260.82"/><polygon fill="#000" stroke="#000" points="640.61 -220.51 638.18 -210.2 633.65 -219.78 640.61 -220.51"/><text x="694.5" y="-231.8" font-family="Times,serif" font-size="14" text-anchor="middle">विशेषणम्</text></g><g id="node8" class="node"><title>Node8_1</title><ellipse cx="961" cy="-366" fill="#ff1975" stroke="#ff1975" rx="78.79" ry="18"/><text x="961" y="-362.3" font-family="Times,serif" font-size="14" text-anchor="middle">ददर्श(8.1)</text></g><g id="edge4" class="edge"><title>Node3_2-&gt;Node8_1</title><path fill="none" stroke="#000" d="M690.92,-295.43C753.92,-311.66 851.93,-336.91 910.95,-352.11"/><polygon fill="#000" stroke="#000" points="691.68 -292.01 681.12 -292.91 689.93 -298.79 691.68 -292.01"/><text x="844" y="-318.8" font-family="Times,serif" font-size="14" text-anchor="middle">कर्म</text></g><g id="node5" class="node"><title>Node6_1</title><ellipse cx="400" cy="-192" fill="#93db70" stroke="#93db70" rx="133.78" ry="18"/><text x="400" y="-188.3" font-family="Times,serif" font-size="14" text-anchor="middle">सुनिर्मितम्(6.1)</text></g><g id="edge7" class="edge"><title>Node6_1-&gt;Node3_2</title><path fill="none" stroke="#000" d="M444.54,-213.58C465.93,-223.11 492.05,-234.23 516,-243 537.75,-250.97 562.26,-258.61 583.05,-264.7"/><polygon fill="#000" stroke="#000" points="445.94 -210.37 435.38 -209.47 443.07 -216.76 445.94 -210.37"/><text x="573.5" y="-231.8" font-family="Times,serif" font-size="14" text-anchor="middle">विशेषणम्</text></g><g id="node6" class="node"><title>Node7_3</title><ellipse cx="132" cy="-192" fill="#93db70" stroke="#93db70" rx="115.88" ry="18"/><text x="132" y="-188.3" font-family="Times,serif" font-size="14" text-anchor="middle">संयुक्तम्(7.3)</text></g><g id="edge10" class="edge"><title>Node7_3-&gt;Node3_2</title><path fill="none" stroke="#000" d="M201.53,-209.72C247,-220.26 307.8,-233.6 362,-243 429.4,-254.69 506.91,-264.38 561.37,-270.58"/><polygon fill="#000" stroke="#000" points="202.31 -206.31 191.78 -207.45 200.72 -213.13 202.31 -206.31"/><text x="419.5" y="-231.8" font-family="Times,serif" font-size="14" text-anchor="middle">विशेषणम्</text></g><g id="node7" class="node"><title>Node3_1</title><ellipse cx="1102" cy="-192" fill="#ff0" stroke="#ff0" rx="100.18" ry="18"/><text x="1102" y="-188.3" font-family="Times,serif" font-size="14" text-anchor="middle">मध्यस्थ-(3.1)</text></g><g id="edge3" class="edge"><title>Node3_1-&gt;Node3_2</title><path fill="none" stroke="#000" d="M1061.33,-213.66C1038.81,-224.17 1009.99,-236.15 983,-243 890.88,-266.37 781.51,-274.27 709.4,-276.87"/><polygon fill="#000" stroke="#000" points="1063.05 -216.72 1070.57 -209.26 1060.04 -210.4 1063.05 -216.72"/><text x="1090.5" y="-231.8" font-family="Times,serif" font-size="14" text-anchor="middle">कर्मधारयः</text></g><g id="node9" class="node"><title>Node4_1</title><ellipse cx="961" cy="-279" fill="#f9f" stroke="#f9f" rx="41.69" ry="18"/><text x="961" y="-275.3" font-family="Times,serif" font-size="14" text-anchor="middle">च(4.1)</text></g><g id="edge5" class="edge"><title>Node4_1-&gt;Node8_1</title><path fill="none" stroke="#000" d="M961,-307.27C961,-320.58 961,-336.19 961,-347.82"/><polygon fill="#000" stroke="#000" points="964.5 -307.2 961 -297.2 957.5 -307.2 964.5 -307.2"/><text x="1018.5" y="-318.8" font-family="Times,serif" font-size="14" text-anchor="middle">सम्बन्धः</text></g><g id="node10" class="node"><title>Node7_1</title><ellipse cx="132" cy="-18" fill="#ff0" stroke="#ff0" rx="63.09" ry="18"/><text x="132" y="-14.3" font-family="Times,serif" font-size="14" text-anchor="middle">बहु-(7.1)</text></g><g id="node11" class="node"><title>Node7_2</title><ellipse cx="132" cy="-105" fill="#ff0" stroke="#ff0" rx="100.18" ry="18"/><text x="132" y="-101.3" font-family="Times,serif" font-size="14" text-anchor="middle">निर्यूह-(7.2)</text></g><g id="edge8" class="edge"><title>Node7_1-&gt;Node7_2</title><path fill="none" stroke="#000" d="M132,-46.27C132,-59.58 132,-75.19 132,-86.82"/><polygon fill="#000" stroke="#000" points="135.5 -46.2 132 -36.2 128.5 -46.2 135.5 -46.2"/><text x="203.5" y="-57.8" font-family="Times,serif" font-size="14" text-anchor="middle">बहुव्रीहिः</text></g><g id="edge9" class="edge"><title>Node7_2-&gt;Node7_3</title><path fill="none" stroke="#000" d="M132,-133.27C132,-146.58 132,-162.19 132,-173.82"/><polygon fill="#000" stroke="#000" points="135.5 -133.2 132 -123.2 128.5 -133.2 135.5 -133.2"/><text x="242.5" y="-144.8" font-family="Times,serif" font-size="14" text-anchor="middle">तृतीया_तत्पुरुषः</text></g><g id="node12" class="node"><title>Node9_1</title><ellipse cx="1283" cy="-192" fill="#ff0" stroke="#ff0" rx="63.09" ry="18"/><text x="1283" y="-188.3" font-family="Times,serif" font-size="14" text-anchor="middle">पवन-(9.1)</text></g><g id="node13" class="node"><title>Node9_2</title><ellipse cx="1237" cy="-279" fill="#00bfff" stroke="#00bfff" rx="87.99" ry="18"/><text x="1237" y="-275.3" font-family="Times,serif" font-size="14" text-anchor="middle">आत्मजः(9.2)</text></g><g id="edge11" class="edge"><title>Node9_1-&gt;Node9_2</title><path fill="none" stroke="#000" d="M1268.88,-219.09C1261.54,-232.65 1252.78,-248.85 1246.29,-260.82"/><polygon fill="#000" stroke="#000" points="1272.01 -220.66 1273.69 -210.2 1265.85 -217.33 1272.01 -220.66"/><text x="1365.5" y="-231.8" font-family="Times,serif" font-size="14" text-anchor="middle">षष्ठी_तत्पुरुषः</text></g><g id="edge12" class="edge"><title>Node9_2-&gt;Node8_1</title><path fill="none" stroke="#000" d="M1182.19,-297.79C1152.08,-307.47 1114.03,-319.58 1080,-330 1056.32,-337.25 1029.9,-345.05 1007.98,-351.44"/><polygon fill="#000" stroke="#000" points="1183.63 -301 1192.08 -294.6 1181.49 -294.33 1183.63 -301"/><text x="1163" y="-318.8" font-family="Times,serif" font-size="14" text-anchor="middle">कर्ता</text></g></g></svg>