<?xml version="1.0" encoding="UTF-8" standalone="no"?>
<!DOCTYPE svg PUBLIC "-//W3C//DTD SVG 1.1//EN"
 "http://www.w3.org/Graphics/SVG/1.1/DTD/svg11.dtd">
<!-- Generated by graphviz version 2.43.0 (0)
 -->
<!-- Title: G Pages: 1 -->
<svg width="1345pt" height="653pt"
 viewBox="0.00 0.00 1345.00 653.00" xmlns="http://www.w3.org/2000/svg" xmlns:xlink="http://www.w3.org/1999/xlink">
<g id="graph0" class="graph" transform="scale(1 1) rotate(0) translate(4 649)">
<title>G</title>
<polygon fill="#fffacd" stroke="transparent" points="-4,4 -4,-649 1341,-649 1341,4 -4,4"/>
<g id="clust1" class="cluster">
<title>cluster_1</title>
<polygon fill="#fffacd" stroke="black" points="8,-166 8,-305 182,-305 182,-166 8,-166"/>
</g>
<g id="clust2" class="cluster">
<title>cluster_2</title>
<polygon fill="#fffacd" stroke="black" points="559,-79 559,-218 769,-218 769,-79 559,-79"/>
</g>
<g id="clust3" class="cluster">
<title>cluster_3</title>
<polygon fill="#fffacd" stroke="black" points="600,-340 600,-479 822,-479 822,-340 600,-340"/>
</g>
<!-- Node6_1 -->
<g id="node1" class="node">
<title>Node6_1</title>
<ellipse fill="#00bfff" stroke="#00bfff" cx="95" cy="-192" rx="78.79" ry="18"/>
<text text-anchor="middle" x="95" y="-188.3" font-family="Times,serif" font-size="14.00">ईदृशी(6.1)</text>
</g>
<!-- Node7_3 -->
<g id="node2" class="node">
<title>Node7_3</title>
<ellipse fill="#00bfff" stroke="#00bfff" cx="95" cy="-279" rx="78.79" ry="18"/>
<text text-anchor="middle" x="95" y="-275.3" font-family="Times,serif" font-size="14.00">पत्नी(7.3)</text>
</g>
<!-- Node6_1&#45;&gt;Node7_3 -->
<g id="edge7" class="edge">
<title>Node6_1&#45;&gt;Node7_3</title>
<path fill="none" stroke="black" d="M66.37,-217.49C60.67,-225.26 57.41,-234.14 61,-243 63.8,-249.91 68.7,-256.2 73.91,-261.49"/>
<polygon fill="black" stroke="black" points="69.36,-219.39 73.3,-209.55 64.09,-214.78 69.36,-219.39"/>
<text text-anchor="middle" x="118.5" y="-231.8" font-family="Times,serif" font-size="14.00">विशेषणम्</text>
</g>
<!-- Node17_1 -->
<g id="node16" class="node">
<title>Node17_1</title>
<ellipse fill="#ff1975" stroke="#ff1975" cx="93" cy="-366" rx="90.98" ry="18"/>
<text text-anchor="middle" x="93" y="-362.3" font-family="Times,serif" font-size="14.00">(अस्ति)(17.1)</text>
</g>
<!-- Node7_3&#45;&gt;Node17_1 -->
<g id="edge10" class="edge">
<title>Node7_3&#45;&gt;Node17_1</title>
<path fill="none" stroke="black" d="M94.36,-307.27C94.05,-320.58 93.68,-336.19 93.4,-347.82"/>
<polygon fill="black" stroke="black" points="97.86,-307.28 94.6,-297.2 90.86,-307.12 97.86,-307.28"/>
<text text-anchor="middle" x="131" y="-318.8" font-family="Times,serif" font-size="14.00">कर्ता</text>
</g>
<!-- Node8_1 -->
<g id="node3" class="node">
<title>Node8_1</title>
<ellipse fill="#00bfff" stroke="#00bfff" cx="642" cy="-105" rx="69.59" ry="18"/>
<text text-anchor="middle" x="642" y="-101.3" font-family="Times,serif" font-size="14.00">इमाः(8.1)</text>
</g>
<!-- Node9_4 -->
<g id="node4" class="node">
<title>Node9_4</title>
<ellipse fill="#00bfff" stroke="#00bfff" cx="664" cy="-192" rx="96.68" ry="18"/>
<text text-anchor="middle" x="664" y="-188.3" font-family="Times,serif" font-size="14.00">भार्याः(9.4)</text>
</g>
<!-- Node8_1&#45;&gt;Node9_4 -->
<g id="edge11" class="edge">
<title>Node8_1&#45;&gt;Node9_4</title>
<path fill="none" stroke="black" d="M640.01,-133.46C640.15,-140.89 640.94,-148.85 643,-156 644.8,-162.27 648.02,-168.55 651.41,-174.03"/>
<polygon fill="black" stroke="black" points="643.51,-133.51 640.17,-123.45 636.51,-133.39 643.51,-133.51"/>
<text text-anchor="middle" x="700.5" y="-144.8" font-family="Times,serif" font-size="14.00">विशेषणम्</text>
</g>
<!-- Node15_1 -->
<g id="node20" class="node">
<title>Node15_1</title>
<ellipse fill="#ff99ff" stroke="#ff99ff" cx="690" cy="-279" rx="72.59" ry="18"/>
<text text-anchor="middle" x="690" y="-275.3" font-family="Times,serif" font-size="14.00">(इति)(15.1)</text>
</g>
<!-- Node9_4&#45;&gt;Node15_1 -->
<g id="edge15" class="edge">
<title>Node9_4&#45;&gt;Node15_1</title>
<path fill="none" stroke="black" d="M672.22,-219.87C676.32,-233.27 681.15,-249.08 684.75,-260.82"/>
<polygon fill="black" stroke="black" points="675.53,-218.74 669.26,-210.2 668.84,-220.79 675.53,-218.74"/>
<text text-anchor="middle" x="781.5" y="-231.8" font-family="Times,serif" font-size="14.00">सन्दर्भ_बिन्दुः</text>
</g>
<!-- Node11_1 -->
<g id="node5" class="node">
<title>Node11_1</title>
<ellipse fill="#87ceeb" stroke="#87ceeb" cx="692" cy="-366" rx="75.29" ry="18"/>
<text text-anchor="middle" x="692" y="-362.3" font-family="Times,serif" font-size="14.00">अस्य(11.1)</text>
</g>
<!-- Node14_2 -->
<g id="node6" class="node">
<title>Node14_2</title>
<ellipse fill="#87ceeb" stroke="#87ceeb" cx="711" cy="-453" rx="102.88" ry="18"/>
<text text-anchor="middle" x="711" y="-449.3" font-family="Times,serif" font-size="14.00">बुद्धेः(14.2)</text>
</g>
<!-- Node11_1&#45;&gt;Node14_2 -->
<g id="edge17" class="edge">
<title>Node11_1&#45;&gt;Node14_2</title>
<path fill="none" stroke="black" d="M698.09,-394.27C701.07,-407.58 704.56,-423.19 707.16,-434.82"/>
<polygon fill="black" stroke="black" points="701.44,-393.2 695.84,-384.2 694.61,-394.72 701.44,-393.2"/>
<text text-anchor="middle" x="759.5" y="-405.8" font-family="Times,serif" font-size="14.00">विशेषणम्</text>
</g>
<!-- Node10_1 -->
<g id="node21" class="node">
<title>Node10_1</title>
<ellipse fill="#00bfff" stroke="#00bfff" cx="470" cy="-540" rx="102.88" ry="18"/>
<text text-anchor="middle" x="470" y="-536.3" font-family="Times,serif" font-size="14.00">सुजातम्(10.1)</text>
</g>
<!-- Node14_2&#45;&gt;Node10_1 -->
<g id="edge21" class="edge">
<title>Node14_2&#45;&gt;Node10_1</title>
<path fill="none" stroke="black" d="M709.06,-481.27C707.11,-489.67 703.52,-498.22 697,-504 696.82,-504.16 610.66,-517.42 544.56,-527.56"/>
<polygon fill="black" stroke="black" points="712.53,-481.73 710.7,-471.3 705.62,-480.6 712.53,-481.73"/>
<text text-anchor="middle" x="799" y="-492.8" font-family="Times,serif" font-size="14.00">षष्ठीसम्बन्धः</text>
</g>
<!-- Node1_1 -->
<g id="node7" class="node">
<title>Node1_1</title>
<ellipse fill="#ff1975" stroke="#ff1975" cx="555" cy="-627" rx="69.59" ry="18"/>
<text text-anchor="middle" x="555" y="-623.3" font-family="Times,serif" font-size="14.00">बभूव(1.1)</text>
</g>
<!-- Node2_1 -->
<g id="node8" class="node">
<title>Node2_1</title>
<ellipse fill="#00bfff" stroke="#00bfff" cx="252" cy="-540" rx="96.68" ry="18"/>
<text text-anchor="middle" x="252" y="-536.3" font-family="Times,serif" font-size="14.00">बुद्धिः(2.1)</text>
</g>
<!-- Node2_1&#45;&gt;Node1_1 -->
<g id="edge1" class="edge">
<title>Node2_1&#45;&gt;Node1_1</title>
<path fill="none" stroke="black" d="M302.75,-559.76C330.88,-569.78 366.62,-581.89 399,-591 432.67,-600.47 470.98,-609.1 501.22,-615.42"/>
<polygon fill="black" stroke="black" points="303.73,-556.39 293.13,-556.31 301.36,-562.98 303.73,-556.39"/>
<text text-anchor="middle" x="435" y="-579.8" font-family="Times,serif" font-size="14.00">कर्ता</text>
</g>
<!-- Node3_1 -->
<g id="node9" class="node">
<title>Node3_1</title>
<ellipse fill="#ff99ff" stroke="#ff99ff" cx="641" cy="-540" rx="50.89" ry="18"/>
<text text-anchor="middle" x="641" y="-536.3" font-family="Times,serif" font-size="14.00">तु(3.1)</text>
</g>
<!-- Node3_1&#45;&gt;Node1_1 -->
<g id="edge2" class="edge">
<title>Node3_1&#45;&gt;Node1_1</title>
<path fill="none" stroke="black" d="M629.04,-567.12C624.47,-575.36 618.72,-584.11 612,-591 604.54,-598.65 595.08,-605.32 586.02,-610.73"/>
<polygon fill="black" stroke="black" points="632.2,-568.64 633.69,-558.15 625.98,-565.42 632.2,-568.64"/>
<text text-anchor="middle" x="680.5" y="-579.8" font-family="Times,serif" font-size="14.00">सम्बन्धः</text>
</g>
<!-- Node4_1 -->
<g id="node10" class="node">
<title>Node4_1</title>
<ellipse fill="#ffff00" stroke="#ffff00" cx="265" cy="-366" rx="63.09" ry="18"/>
<text text-anchor="middle" x="265" y="-362.3" font-family="Times,serif" font-size="14.00">हरि&#45;(4.1)</text>
</g>
<!-- Node4_2 -->
<g id="node11" class="node">
<title>Node4_2</title>
<ellipse fill="#87ceeb" stroke="#87ceeb" cx="262" cy="-453" rx="106.68" ry="18"/>
<text text-anchor="middle" x="262" y="-449.3" font-family="Times,serif" font-size="14.00">ईश्वरस्य(4.2)</text>
</g>
<!-- Node4_1&#45;&gt;Node4_2 -->
<g id="edge3" class="edge">
<title>Node4_1&#45;&gt;Node4_2</title>
<path fill="none" stroke="black" d="M264.04,-394.27C263.57,-407.58 263.02,-423.19 262.61,-434.82"/>
<polygon fill="black" stroke="black" points="267.54,-394.32 264.39,-384.2 260.54,-394.07 267.54,-394.32"/>
<text text-anchor="middle" x="366.5" y="-405.8" font-family="Times,serif" font-size="14.00">षष्ठी_तत्पुरुषः</text>
</g>
<!-- Node4_2&#45;&gt;Node2_1 -->
<g id="edge4" class="edge">
<title>Node4_2&#45;&gt;Node2_1</title>
<path fill="none" stroke="black" d="M258.79,-481.27C257.23,-494.58 255.39,-510.19 254.02,-521.82"/>
<polygon fill="black" stroke="black" points="262.28,-481.54 259.98,-471.2 255.33,-480.72 262.28,-481.54"/>
<text text-anchor="middle" x="350" y="-492.8" font-family="Times,serif" font-size="14.00">षष्ठीसम्बन्धः</text>
</g>
<!-- Node5_1 -->
<g id="node12" class="node">
<title>Node5_1</title>
<ellipse fill="#ff99ff" stroke="#ff99ff" cx="491" cy="-105" rx="59.59" ry="18"/>
<text text-anchor="middle" x="491" y="-101.3" font-family="Times,serif" font-size="14.00">यत्(5.1)</text>
</g>
<!-- Node5_1&#45;&gt;Node6_1 -->
<g id="edge5" class="edge">
<title>Node5_1&#45;&gt;Node6_1</title>
<path fill="none" stroke="black" d="M429.97,-116.32C367.59,-127.24 268.07,-145.67 183,-166 169.1,-169.32 154.09,-173.4 140.48,-177.29"/>
<polygon fill="black" stroke="black" points="430.78,-119.73 440.03,-114.57 429.58,-112.84 430.78,-119.73"/>
<text text-anchor="middle" x="349.5" y="-144.8" font-family="Times,serif" font-size="14.00">सम्बन्धः</text>
</g>
<!-- Node16_1 -->
<g id="node13" class="node">
<title>Node16_1</title>
<ellipse fill="#ff99ff" stroke="#ff99ff" cx="1194" cy="-105" rx="72.59" ry="18"/>
<text text-anchor="middle" x="1194" y="-101.3" font-family="Times,serif" font-size="14.00">(तथा)(16.1)</text>
</g>
<!-- Node5_1&#45;&gt;Node16_1 -->
<g id="edge6" class="edge">
<title>Node5_1&#45;&gt;Node16_1</title>
<path fill="none" stroke="red" stroke-dasharray="5,2" d="M532.53,-85.91C555.9,-76.34 585.95,-65.96 614,-62 723.64,-46.52 1003.07,-59.1 1112,-79 1122.47,-80.91 1133.46,-83.77 1143.87,-86.91"/>
<polygon fill="red" stroke="red" points="531.14,-82.7 523.27,-89.8 533.85,-89.15 531.14,-82.7"/>
<polygon fill="red" stroke="red" points="1143.05,-90.32 1153.64,-89.97 1145.15,-83.64 1143.05,-90.32"/>
<text text-anchor="middle" x="707" y="-57.8" font-family="Times,serif" font-size="14.00">नित्यसम्बन्धः</text>
</g>
<!-- Node16_1&#45;&gt;Node9_4 -->
<g id="edge23" class="edge">
<title>Node16_1&#45;&gt;Node9_4</title>
<path fill="none" stroke="black" d="M1217.14,-131.12C1222.35,-139.72 1224.62,-148.94 1218,-156 1187.47,-188.52 911.39,-192.31 760.86,-191.91"/>
<polygon fill="black" stroke="black" points="1219.86,-128.91 1211.17,-122.83 1214.17,-133 1219.86,-128.91"/>
<text text-anchor="middle" x="1279.5" y="-144.8" font-family="Times,serif" font-size="14.00">सम्बन्धः</text>
</g>
<!-- Node7_1 -->
<g id="node14" class="node">
<title>Node7_1</title>
<ellipse fill="#ffff00" stroke="#ffff00" cx="456" cy="-192" rx="72.29" ry="18"/>
<text text-anchor="middle" x="456" y="-188.3" font-family="Times,serif" font-size="14.00">राघव&#45;(7.1)</text>
</g>
<!-- Node7_1&#45;&gt;Node7_3 -->
<g id="edge8" class="edge">
<title>Node7_1&#45;&gt;Node7_3</title>
<path fill="none" stroke="black" d="M450.01,-219.78C446.73,-228.52 441.69,-237.4 434,-243 393.89,-272.22 260.78,-278.17 173.78,-278.81"/>
<polygon fill="black" stroke="black" points="453.38,-220.75 453.03,-210.16 446.7,-218.66 453.38,-220.75"/>
<text text-anchor="middle" x="549.5" y="-231.8" font-family="Times,serif" font-size="14.00">षष्ठी_तत्पुरुषः</text>
</g>
<!-- Node7_2 -->
<g id="node15" class="node">
<title>Node7_2</title>
<ellipse fill="#ffff00" stroke="#ffff00" cx="264" cy="-192" rx="72.29" ry="18"/>
<text text-anchor="middle" x="264" y="-188.3" font-family="Times,serif" font-size="14.00">धर्म&#45;(7.2)</text>
</g>
<!-- Node7_2&#45;&gt;Node7_3 -->
<g id="edge9" class="edge">
<title>Node7_2&#45;&gt;Node7_3</title>
<path fill="none" stroke="black" d="M225.1,-213.26C216.43,-217.96 207.34,-223.05 199,-228 188.51,-234.23 186.75,-237.23 176,-243 162.37,-250.32 146.89,-257.31 133.13,-263.1"/>
<polygon fill="black" stroke="black" points="226.78,-216.33 233.94,-208.51 223.47,-210.16 226.78,-216.33"/>
<text text-anchor="middle" x="316.5" y="-231.8" font-family="Times,serif" font-size="14.00">चतुर्थी_तत्पुरुषः</text>
</g>
<!-- Node9_1 -->
<g id="node17" class="node">
<title>Node9_1</title>
<ellipse fill="#ffff00" stroke="#ffff00" cx="868" cy="-18" rx="63.09" ry="18"/>
<text text-anchor="middle" x="868" y="-14.3" font-family="Times,serif" font-size="14.00">महा&#45;(9.1)</text>
</g>
<!-- Node9_2 -->
<g id="node18" class="node">
<title>Node9_2</title>
<ellipse fill="#ffff00" stroke="#ffff00" cx="868" cy="-105" rx="90.98" ry="18"/>
<text text-anchor="middle" x="868" y="-101.3" font-family="Times,serif" font-size="14.00">राक्षस&#45;(9.2)</text>
</g>
<!-- Node9_1&#45;&gt;Node9_2 -->
<g id="edge12" class="edge">
<title>Node9_1&#45;&gt;Node9_2</title>
<path fill="none" stroke="black" d="M868,-46.27C868,-59.58 868,-75.19 868,-86.82"/>
<polygon fill="black" stroke="black" points="871.5,-46.2 868,-36.2 864.5,-46.2 871.5,-46.2"/>
<text text-anchor="middle" x="932.5" y="-57.8" font-family="Times,serif" font-size="14.00">कर्मधारयः</text>
</g>
<!-- Node9_2&#45;&gt;Node9_4 -->
<g id="edge13" class="edge">
<title>Node9_2&#45;&gt;Node9_4</title>
<path fill="none" stroke="black" d="M816.34,-124.85C804.52,-129.69 792.17,-135.18 781,-141 770.18,-146.64 768.9,-150.5 758,-156 742.92,-163.61 725.77,-170.47 710.29,-176.07"/>
<polygon fill="black" stroke="black" points="817.68,-128.08 825.66,-121.12 815.07,-121.59 817.68,-128.08"/>
<text text-anchor="middle" x="884.5" y="-144.8" font-family="Times,serif" font-size="14.00">षष्ठी_तत्पुरुषः</text>
</g>
<!-- Node9_3 -->
<g id="node19" class="node">
<title>Node9_3</title>
<ellipse fill="#ffff00" stroke="#ffff00" cx="1040" cy="-105" rx="63.09" ry="18"/>
<text text-anchor="middle" x="1040" y="-101.3" font-family="Times,serif" font-size="14.00">राज&#45;(9.3)</text>
</g>
<!-- Node9_3&#45;&gt;Node9_4 -->
<g id="edge14" class="edge">
<title>Node9_3&#45;&gt;Node9_4</title>
<path fill="none" stroke="black" d="M1020.58,-130.72C1011.71,-140.24 1000.41,-150.21 988,-156 948.46,-174.46 838.94,-183.38 758.13,-187.55"/>
<polygon fill="black" stroke="black" points="1023.46,-132.75 1027.43,-122.93 1018.2,-128.12 1023.46,-132.75"/>
<text text-anchor="middle" x="1112.5" y="-144.8" font-family="Times,serif" font-size="14.00">षष्ठी_तत्पुरुषः</text>
</g>
<!-- Node15_1&#45;&gt;Node11_1 -->
<g id="edge22" class="edge">
<title>Node15_1&#45;&gt;Node11_1</title>
<path fill="none" stroke="black" d="M690.64,-307.27C690.95,-320.58 691.32,-336.19 691.6,-347.82"/>
<polygon fill="black" stroke="black" points="694.14,-307.12 690.4,-297.2 687.14,-307.28 694.14,-307.12"/>
<text text-anchor="middle" x="748.5" y="-318.8" font-family="Times,serif" font-size="14.00">सम्बन्धः</text>
</g>
<!-- Node10_1&#45;&gt;Node1_1 -->
<g id="edge16" class="edge">
<title>Node10_1&#45;&gt;Node1_1</title>
<path fill="none" stroke="black" d="M472.75,-568.47C474.64,-576.4 477.78,-584.63 483,-591 490.66,-600.35 501.43,-607.39 512.31,-612.61"/>
<polygon fill="black" stroke="black" points="476.14,-567.6 470.91,-558.38 469.26,-568.85 476.14,-567.6"/>
<text text-anchor="middle" x="547.5" y="-579.8" font-family="Times,serif" font-size="14.00">वाक्यकर्म</text>
</g>
<!-- Node12_1 -->
<g id="node22" class="node">
<title>Node12_1</title>
<ellipse fill="#ff99ff" stroke="#ff99ff" cx="461" cy="-453" rx="65.79" ry="18"/>
<text text-anchor="middle" x="461" y="-449.3" font-family="Times,serif" font-size="14.00">इति(12.1)</text>
</g>
<!-- Node12_1&#45;&gt;Node10_1 -->
<g id="edge18" class="edge">
<title>Node12_1&#45;&gt;Node10_1</title>
<path fill="none" stroke="black" d="M460.54,-481.41C460.69,-488.77 461.1,-496.7 462,-504 462.72,-509.82 463.98,-516.08 465.3,-521.68"/>
<polygon fill="black" stroke="black" points="464.04,-481.17 460.48,-471.19 457.04,-481.21 464.04,-481.17"/>
<text text-anchor="middle" x="579.5" y="-492.8" font-family="Times,serif" font-size="14.00">वाक्यकर्म_द्योतकः</text>
</g>
<!-- Node13_1 -->
<g id="node23" class="node">
<title>Node13_1</title>
<ellipse fill="#ff99ff" stroke="#ff99ff" cx="772" cy="-540" rx="56.59" ry="18"/>
<text text-anchor="middle" x="772" y="-536.3" font-family="Times,serif" font-size="14.00">हि(13.1)</text>
</g>
<!-- Node13_1&#45;&gt;Node1_1 -->
<g id="edge19" class="edge">
<title>Node13_1&#45;&gt;Node1_1</title>
<path fill="none" stroke="black" d="M761.6,-567.28C756.88,-576.09 750.42,-585.14 742,-591 722.34,-604.67 664.96,-614.09 618.89,-619.68"/>
<polygon fill="black" stroke="black" points="764.89,-568.52 766.06,-557.99 758.58,-565.49 764.89,-568.52"/>
<text text-anchor="middle" x="813.5" y="-579.8" font-family="Times,serif" font-size="14.00">सम्बन्धः</text>
</g>
<!-- Node14_1 -->
<g id="node24" class="node">
<title>Node14_1</title>
<ellipse fill="#ffff00" stroke="#ffff00" cx="514" cy="-366" rx="77.99" ry="18"/>
<text text-anchor="middle" x="514" y="-362.3" font-family="Times,serif" font-size="14.00">साधु&#45;(14.1)</text>
</g>
<!-- Node14_1&#45;&gt;Node14_2 -->
<g id="edge20" class="edge">
<title>Node14_1&#45;&gt;Node14_2</title>
<path fill="none" stroke="black" d="M528.57,-392.33C534.98,-401.38 543.27,-410.85 553,-417 573.91,-430.2 599.11,-438.46 623.18,-443.62"/>
<polygon fill="black" stroke="black" points="531.45,-390.34 523.03,-383.91 525.6,-394.18 531.45,-390.34"/>
<text text-anchor="middle" x="624.5" y="-405.8" font-family="Times,serif" font-size="14.00">बहुव्रीहिः</text>
</g>
</g>
</svg>
