<svg xmlns="http://www.w3.org/2000/svg" xmlns:xlink="http://www.w3.org/1999/xlink" width="3276" height="392pt" viewBox="0 0 2456.89 392"><g id="graph0" class="graph" transform="scale(1 1) rotate(0) translate(4 388)"><title>G</title><polygon fill="#fffacd" stroke="transparent" points="-4 4 -4 -388 2452.89 -388 2452.89 4 -4 4"/><g id="clust1" class="cluster"><title>cluster_1</title><polygon fill="#fffacd" stroke="#000" points="938.89 -79 938.89 -305 1785.89 -305 1785.89 -79 938.89 -79"/></g><g id="clust2" class="cluster"><title>cluster_2</title><polygon fill="#fffacd" stroke="#000" points="283.89 -79 283.89 -218 747.89 -218 747.89 -79 283.89 -79"/></g><g id="clust3" class="cluster"><title>cluster_3</title><polygon fill="#fffacd" stroke="#000" points="15.89 -166 15.89 -305 237.89 -305 237.89 -166 15.89 -166"/></g><g id="node1" class="node"><title>Node1_3</title><ellipse cx="1412.89" cy="-192" fill="#93db70" stroke="#93db70" rx="133.78" ry="18"/><text x="1412.89" y="-188.3" font-family="Times,serif" font-size="14" text-anchor="middle">विस्तीर्णम्(1.3)</text></g><g id="node2" class="node"><title>Node5_1</title><ellipse cx="1191.89" cy="-279" fill="#93db70" stroke="#93db70" rx="78.79" ry="18"/><text x="1191.89" y="-275.3" font-family="Times,serif" font-size="14" text-anchor="middle">भवनम्(5.1)</text></g><g id="edge3" class="edge"><title>Node1_3-&gt;Node5_1</title><path fill="none" stroke="#000" d="M1373.21,-214.41C1354.62,-223.92 1331.96,-234.81 1310.89,-243 1288.92,-251.55 1263.97,-259.19 1242.61,-265.13"/><polygon fill="#000" stroke="#000" points="1374.99 -217.43 1382.26 -209.72 1371.77 -211.21 1374.99 -217.43"/><text x="1402.39" y="-231.8" font-family="Times,serif" font-size="14" text-anchor="middle">विशेषणम्</text></g><g id="node14" class="node"><title>Node14_1</title><ellipse cx="717.89" cy="-366" fill="#ff1975" stroke="#ff1975" rx="121.58" ry="18"/><text x="717.89" y="-362.3" font-family="Times,serif" font-size="14" text-anchor="middle">परिचक्राम(14.1)</text></g><g id="edge7" class="edge"><title>Node5_1-&gt;Node14_1</title><path fill="none" stroke="#000" d="M1133.97,-295.93C1093.12,-306.72 1036.97,-320.67 986.89,-330 930.06,-340.59 865.89,-349.08 814.47,-355.03"/><polygon fill="#000" stroke="#000" points="1134.99 -299.28 1143.76 -293.33 1133.19 -292.52 1134.99 -299.28"/><text x="1083.89" y="-318.8" font-family="Times,serif" font-size="14" text-anchor="middle">कर्म</text></g><g id="node3" class="node"><title>Node2_1</title><ellipse cx="1025.89" cy="-192" fill="#93db70" stroke="#93db70" rx="78.79" ry="18"/><text x="1025.89" y="-188.3" font-family="Times,serif" font-size="14" text-anchor="middle">आयतम्(2.1)</text></g><g id="edge4" class="edge"><title>Node2_1-&gt;Node5_1</title><path fill="none" stroke="#000" d="M1044.49,-217.78C1052.38,-226.83 1062.22,-236.44 1072.89,-243 1090.87,-254.05 1112.53,-261.77 1132.4,-267.09"/><polygon fill="#000" stroke="#000" points="1047.17 -215.53 1038.1 -210.07 1041.79 -220 1047.17 -215.53"/><text x="1130.39" y="-231.8" font-family="Times,serif" font-size="14" text-anchor="middle">विशेषणम्</text></g><g id="node4" class="node"><title>Node3_1</title><ellipse cx="1034.89" cy="-105" fill="#93db70" stroke="#93db70" rx="87.99" ry="18"/><text x="1034.89" y="-101.3" font-family="Times,serif" font-size="14" text-anchor="middle">योजनम्(3.1)</text></g><g id="edge5" class="edge"><title>Node3_1-&gt;Node2_1</title><path fill="none" stroke="#000" d="M1032.01,-133.27C1030.6,-146.58 1028.94,-162.19 1027.71,-173.82"/><polygon fill="#000" stroke="#000" points="1035.5 -133.51 1033.07 -123.2 1028.54 -132.78 1035.5 -133.51"/><text x="1088.39" y="-144.8" font-family="Times,serif" font-size="14" text-anchor="middle">विशेषणम्</text></g><g id="node5" class="node"><title>Node4_1</title><ellipse cx="1191.89" cy="-192" fill="#93db70" stroke="#93db70" rx="69.59" ry="18"/><text x="1191.89" y="-188.3" font-family="Times,serif" font-size="14" text-anchor="middle">महत्(4.1)</text></g><g id="edge6" class="edge"><title>Node4_1-&gt;Node5_1</title><path fill="none" stroke="#000" d="M1191.89,-220.27C1191.89,-233.58 1191.89,-249.19 1191.89,-260.82"/><polygon fill="#000" stroke="#000" points="1195.39 -220.2 1191.89 -210.2 1188.39 -220.2 1195.39 -220.2"/><text x="1249.39" y="-231.8" font-family="Times,serif" font-size="14" text-anchor="middle">विशेषणम्</text></g><g id="node6" class="node"><title>Node7_3</title><ellipse cx="1670.89" cy="-192" fill="#93db70" stroke="#93db70" rx="106.68" ry="18"/><text x="1670.89" y="-188.3" font-family="Times,serif" font-size="14" text-anchor="middle">सङ्कुलम्(7.3)</text></g><g id="edge12" class="edge"><title>Node7_3-&gt;Node5_1</title><path fill="none" stroke="#000" d="M1607.4,-210.24C1566.63,-220.83 1512.43,-234.04 1463.89,-243 1396,-255.53 1317.76,-265.09 1262.67,-271.03"/><polygon fill="#000" stroke="#000" points="1608.41 -213.59 1617.19 -207.68 1606.63 -206.82 1608.41 -213.59"/><text x="1589.39" y="-231.8" font-family="Times,serif" font-size="14" text-anchor="middle">विशेषणम्</text></g><g id="node7" class="node"><title>Node10_1</title><ellipse cx="627.89" cy="-105" fill="#93db70" stroke="#93db70" rx="112.38" ry="18"/><text x="627.89" y="-101.3" font-family="Times,serif" font-size="14" text-anchor="middle">वैदेहीम्(10.1)</text></g><g id="node8" class="node"><title>Node11_1</title><ellipse cx="604.89" cy="-192" fill="#93db70" stroke="#93db70" rx="93.68" ry="18"/><text x="604.89" y="-188.3" font-family="Times,serif" font-size="14" text-anchor="middle">सीताम्(11.1)</text></g><g id="edge15" class="edge"><title>Node10_1-&gt;Node11_1</title><path fill="none" stroke="#000" d="M620.62,-132.87C617,-146.27 612.72,-162.08 609.54,-173.82"/><polygon fill="#000" stroke="#000" points="624.01 -133.77 623.24 -123.2 617.25 -131.94 624.01 -133.77"/><text x="675.39" y="-144.8" font-family="Times,serif" font-size="14" text-anchor="middle">विशेषणम्</text></g><g id="node19" class="node"><title>Node8_1</title><ellipse cx="604.89" cy="-279" fill="#00bfff" stroke="#00bfff" rx="115.88" ry="18"/><text x="604.89" y="-275.3" font-family="Times,serif" font-size="14" text-anchor="middle">मार्गमाणः(8.1)</text></g><g id="edge16" class="edge"><title>Node11_1-&gt;Node8_1</title><path fill="none" stroke="#000" d="M604.89,-220.27C604.89,-233.58 604.89,-249.19 604.89,-260.82"/><polygon fill="#000" stroke="#000" points="608.39 -220.2 604.89 -210.2 601.39 -220.2 608.39 -220.2"/><text x="633.89" y="-231.8" font-family="Times,serif" font-size="14" text-anchor="middle">कर्म</text></g><g id="node9" class="node"><title>Node12_2</title><ellipse cx="394.89" cy="-105" fill="#93db70" stroke="#93db70" rx="102.88" ry="18"/><text x="394.89" y="-101.3" font-family="Times,serif" font-size="14" text-anchor="middle">लोचनाम्(12.2)</text></g><g id="edge18" class="edge"><title>Node12_2-&gt;Node11_1</title><path fill="none" stroke="#000" d="M434.27,-126.93C452.96,-136.44 475.78,-147.46 496.89,-156 515.8,-163.65 537.08,-170.84 555.71,-176.68"/><polygon fill="#000" stroke="#000" points="435.67 -123.72 425.17 -122.26 432.47 -129.94 435.67 -123.72"/><text x="554.39" y="-144.8" font-family="Times,serif" font-size="14" text-anchor="middle">विशेषणम्</text></g><g id="node10" class="node"><title>Node16_2</title><ellipse cx="110.89" cy="-192" fill="#00bfff" stroke="#00bfff" rx="84.49" ry="18"/><text x="110.89" y="-188.3" font-family="Times,serif" font-size="14" text-anchor="middle">सूदनः(16.2)</text></g><g id="node11" class="node"><title>Node15_1</title><ellipse cx="126.89" cy="-279" fill="#00bfff" stroke="#00bfff" rx="102.88" ry="18"/><text x="126.89" y="-275.3" font-family="Times,serif" font-size="14" text-anchor="middle">हनूमान्(15.1)</text></g><g id="edge22" class="edge"><title>Node16_2-&gt;Node15_1</title><path fill="none" stroke="#000" d="M116.03,-220.27C118.53,-233.58 121.47,-249.19 123.66,-260.82"/><polygon fill="#000" stroke="#000" points="119.42 -219.38 114.13 -210.2 112.54 -220.68 119.42 -219.38"/><text x="177.39" y="-231.8" font-family="Times,serif" font-size="14" text-anchor="middle">विशेषणम्</text></g><g id="edge20" class="edge"><title>Node15_1-&gt;Node14_1</title><path fill="none" stroke="#000" d="M213.53,-292.46C326.33,-308.68 522.18,-336.85 633.74,-352.9"/><polygon fill="#000" stroke="#000" points="213.95 -288.98 203.55 -291.03 212.95 -295.91 213.95 -288.98"/><text x="493.89" y="-318.8" font-family="Times,serif" font-size="14" text-anchor="middle">कर्ता</text></g><g id="node12" class="node"><title>Node1_1</title><ellipse cx="1865.89" cy="-18" fill="#ff0" stroke="#ff0" rx="72.29" ry="18"/><text x="1865.89" y="-14.3" font-family="Times,serif" font-size="14" text-anchor="middle">अर्ध-(1.1)</text></g><g id="node13" class="node"><title>Node1_2</title><ellipse cx="1865.89" cy="-105" fill="#ff0" stroke="#ff0" rx="72.29" ry="18"/><text x="1865.89" y="-101.3" font-family="Times,serif" font-size="14" text-anchor="middle">योजन-(1.2)</text></g><g id="edge1" class="edge"><title>Node1_1-&gt;Node1_2</title><path fill="none" stroke="#000" d="M1865.89,-46.27C1865.89,-59.58 1865.89,-75.19 1865.89,-86.82"/><polygon fill="#000" stroke="#000" points="1869.39 -46.2 1865.89 -36.2 1862.39 -46.2 1869.39 -46.2"/><text x="1937.39" y="-57.8" font-family="Times,serif" font-size="14" text-anchor="middle">बहुव्रीहिः</text></g><g id="edge2" class="edge"><title>Node1_2-&gt;Node1_3</title><path fill="none" stroke="#000" d="M1805.03,-119.85C1799.92,-120.94 1794.82,-122.01 1789.89,-123 1761.05,-128.83 1591.87,-159.1 1490.2,-177.23"/><polygon fill="#000" stroke="#000" points="1805.82 -123.26 1814.85 -117.72 1804.34 -116.42 1805.82 -123.26"/><text x="1761.39" y="-144.8" font-family="Times,serif" font-size="14" text-anchor="middle">बहुव्रीहिः</text></g><g id="node15" class="node"><title>Node6_1</title><ellipse cx="2071.89" cy="-18" fill="#ff0" stroke="#ff0" rx="90.98" ry="18"/><text x="2071.89" y="-14.3" font-family="Times,serif" font-size="14" text-anchor="middle">राक्षस-(6.1)</text></g><g id="node16" class="node"><title>Node6_2</title><ellipse cx="2071.89" cy="-105" fill="#87ceeb" stroke="#87ceeb" rx="115.88" ry="18"/><text x="2071.89" y="-101.3" font-family="Times,serif" font-size="14" text-anchor="middle">इन्द्रस्य(6.2)</text></g><g id="edge8" class="edge"><title>Node6_1-&gt;Node6_2</title><path fill="none" stroke="#000" d="M2071.89,-46.27C2071.89,-59.58 2071.89,-75.19 2071.89,-86.82"/><polygon fill="#000" stroke="#000" points="2075.39 -46.2 2071.89 -36.2 2068.39 -46.2 2075.39 -46.2"/><text x="2175.39" y="-57.8" font-family="Times,serif" font-size="14" text-anchor="middle">षष्ठी_तत्पुरुषः</text></g><g id="edge9" class="edge"><title>Node6_2-&gt;Node7_3</title><path fill="none" stroke="#000" d="M1996.19,-122.05C1920.63,-138.06 1805.79,-162.41 1734.71,-177.47"/><polygon fill="#000" stroke="#000" points="1997.07 -125.44 2006.13 -119.94 1995.62 -118.59 1997.07 -125.44"/><text x="1987.89" y="-144.8" font-family="Times,serif" font-size="14" text-anchor="middle">षष्ठीसम्बन्धः</text></g><g id="node17" class="node"><title>Node7_1</title><ellipse cx="2305.89" cy="-18" fill="#ff0" stroke="#ff0" rx="63.09" ry="18"/><text x="2305.89" y="-14.3" font-family="Times,serif" font-size="14" text-anchor="middle">बहु-(7.1)</text></g><g id="node18" class="node"><title>Node7_2</title><ellipse cx="2305.89" cy="-105" fill="#ff0" stroke="#ff0" rx="100.18" ry="18"/><text x="2305.89" y="-101.3" font-family="Times,serif" font-size="14" text-anchor="middle">प्रासाद-(7.2)</text></g><g id="edge10" class="edge"><title>Node7_1-&gt;Node7_2</title><path fill="none" stroke="#000" d="M2305.89,-46.27C2305.89,-59.58 2305.89,-75.19 2305.89,-86.82"/><polygon fill="#000" stroke="#000" points="2309.39 -46.2 2305.89 -36.2 2302.39 -46.2 2309.39 -46.2"/><text x="2377.39" y="-57.8" font-family="Times,serif" font-size="14" text-anchor="middle">बहुव्रीहिः</text></g><g id="edge11" class="edge"><title>Node7_2-&gt;Node7_3</title><path fill="none" stroke="#000" d="M2242.29,-122.84C2198.37,-133.87 2138.45,-147.72 2084.89,-156 1978.86,-172.4 1856.27,-181.56 1772.17,-186.35"/><polygon fill="#000" stroke="#000" points="2243.42 -126.17 2252.25 -120.32 2241.7 -119.38 2243.42 -126.17"/><text x="2267.39" y="-144.8" font-family="Times,serif" font-size="14" text-anchor="middle">षष्ठी_तत्पुरुषः</text></g><g id="edge13" class="edge"><title>Node8_1-&gt;Node14_1</title><path fill="none" stroke="#000" d="M596.17,-307.41C595.28,-315.35 596.12,-323.59 600.89,-330 608.68,-340.46 619.48,-347.91 631.39,-353.2"/><polygon fill="#000" stroke="#000" points="599.66 -307.83 598.16 -297.34 592.79 -306.48 599.66 -307.83"/><text x="707.89" y="-318.8" font-family="Times,serif" font-size="14" text-anchor="middle">वर्तमानसमानकालः</text></g><g id="node20" class="node"><title>Node9_1</title><ellipse cx="806.89" cy="-192" fill="#f9f" stroke="#f9f" rx="50.89" ry="18"/><text x="806.89" y="-188.3" font-family="Times,serif" font-size="14" text-anchor="middle">तु(9.1)</text></g><g id="edge14" class="edge"><title>Node9_1-&gt;Node8_1</title><path fill="none" stroke="#000" d="M767.84,-210.98C762.5,-213.37 757.07,-215.77 751.89,-218 716.08,-233.44 674.94,-250.14 645.31,-262"/><polygon fill="#000" stroke="#000" points="769.63 -214.01 777.3 -206.71 766.75 -207.63 769.63 -214.01"/><text x="786.39" y="-231.8" font-family="Times,serif" font-size="14" text-anchor="middle">सम्बन्धः</text></g><g id="node21" class="node"><title>Node12_1</title><ellipse cx="394.89" cy="-18" fill="#ff0" stroke="#ff0" rx="68.79" ry="18"/><text x="394.89" y="-14.3" font-family="Times,serif" font-size="14" text-anchor="middle">आयत-(12.1)</text></g><g id="edge17" class="edge"><title>Node12_1-&gt;Node12_2</title><path fill="none" stroke="#000" d="M394.89,-46.27C394.89,-59.58 394.89,-75.19 394.89,-86.82"/><polygon fill="#000" stroke="#000" points="398.39 -46.2 394.89 -36.2 391.39 -46.2 398.39 -46.2"/><text x="466.39" y="-57.8" font-family="Times,serif" font-size="14" text-anchor="middle">बहुव्रीहिः</text></g><g id="node22" class="node"><title>Node13_1</title><ellipse cx="836.89" cy="-279" fill="#f9f" stroke="#f9f" rx="93.68" ry="18"/><text x="836.89" y="-275.3" font-family="Times,serif" font-size="14" text-anchor="middle">सर्वतः(13.1)</text></g><g id="edge19" class="edge"><title>Node13_1-&gt;Node14_1</title><path fill="none" stroke="#000" d="M829.68,-306.82C826.34,-315.14 821.57,-323.77 814.89,-330 805.34,-338.92 793.35,-345.6 781.09,-350.59"/><polygon fill="#000" stroke="#000" points="833 -307.93 832.99 -297.33 826.39 -305.62 833 -307.93"/><text x="904.39" y="-318.8" font-family="Times,serif" font-size="14" text-anchor="middle">देशाधिकरणम्</text></g><g id="node23" class="node"><title>Node16_1</title><ellipse cx="68.89" cy="-105" fill="#ff0" stroke="#ff0" rx="68.79" ry="18"/><text x="68.89" y="-101.3" font-family="Times,serif" font-size="14" text-anchor="middle">अरि-(16.1)</text></g><g id="edge21" class="edge"><title>Node16_1-&gt;Node16_2</title><path fill="none" stroke="#000" d="M67.44,-133.08C67.97,-140.8 69.49,-149 72.89,-156 76.27,-162.93 81.67,-169.16 87.35,-174.37"/><polygon fill="#000" stroke="#000" points="70.94 -132.95 67.25 -123.02 63.94 -133.08 70.94 -132.95"/><text x="176.39" y="-144.8" font-family="Times,serif" font-size="14" text-anchor="middle">षष्ठी_तत्पुरुषः</text></g></g></svg>