<?xml version="1.0" encoding="UTF-8" standalone="no"?>
<!DOCTYPE svg PUBLIC "-//W3C//DTD SVG 1.1//EN"
 "http://www.w3.org/Graphics/SVG/1.1/DTD/svg11.dtd">
<!-- Generated by graphviz version 2.43.0 (0)
 -->
<!-- Title: G Pages: 1 -->
<svg width="1063pt" height="392pt"
 viewBox="0.00 0.00 1063.00 392.00" xmlns="http://www.w3.org/2000/svg" xmlns:xlink="http://www.w3.org/1999/xlink">
<g id="graph0" class="graph" transform="scale(1 1) rotate(0) translate(4 388)">
<title>G</title>
<polygon fill="#fffacd" stroke="transparent" points="-4,4 -4,-388 1059,-388 1059,4 -4,4"/>
<g id="clust1" class="cluster">
<title>cluster_1</title>
<polygon fill="#fffacd" stroke="black" points="208,-79 208,-218 400,-218 400,-79 208,-79"/>
</g>
<g id="clust2" class="cluster">
<title>cluster_2</title>
<polygon fill="#fffacd" stroke="black" points="8,-79 8,-218 200,-218 200,-79 8,-79"/>
</g>
<g id="clust3" class="cluster">
<title>cluster_3</title>
<polygon fill="#fffacd" stroke="black" points="408,-166 408,-305 1047,-305 1047,-166 408,-166"/>
</g>
<!-- Node1_2 -->
<g id="node1" class="node">
<title>Node1_2</title>
<ellipse fill="#40e0d0" stroke="#40e0d0" cx="295" cy="-105" rx="78.79" ry="18"/>
<text text-anchor="middle" x="295" y="-101.3" font-family="Times,serif" font-size="14.00">कामेन(1.2)</text>
</g>
<!-- Node4_1 -->
<g id="node2" class="node">
<title>Node4_1</title>
<ellipse fill="#40e0d0" stroke="#40e0d0" cx="304" cy="-192" rx="87.99" ry="18"/>
<text text-anchor="middle" x="304" y="-188.3" font-family="Times,serif" font-size="14.00">रावणेन(4.1)</text>
</g>
<!-- Node1_2&#45;&gt;Node4_1 -->
<g id="edge2" class="edge">
<title>Node1_2&#45;&gt;Node4_1</title>
<path fill="none" stroke="black" d="M297.89,-133.27C299.3,-146.58 300.95,-162.19 302.18,-173.82"/>
<polygon fill="black" stroke="black" points="301.35,-132.78 296.82,-123.2 294.39,-133.51 301.35,-132.78"/>
<text text-anchor="middle" x="358.5" y="-144.8" font-family="Times,serif" font-size="14.00">विशेषणम्</text>
</g>
<!-- Node5_1 -->
<g id="node10" class="node">
<title>Node5_1</title>
<ellipse fill="#00bfff" stroke="#00bfff" cx="218" cy="-279" rx="78.79" ry="18"/>
<text text-anchor="middle" x="218" y="-275.3" font-family="Times,serif" font-size="14.00">हृताः(5.1)</text>
</g>
<!-- Node4_1&#45;&gt;Node5_1 -->
<g id="edge5" class="edge">
<title>Node4_1&#45;&gt;Node5_1</title>
<path fill="none" stroke="black" d="M279.89,-216.83C265.58,-230.97 247.79,-248.56 234.96,-261.24"/>
<polygon fill="black" stroke="black" points="282.36,-219.31 287.01,-209.79 277.44,-214.33 282.36,-219.31"/>
<text text-anchor="middle" x="303" y="-231.8" font-family="Times,serif" font-size="14.00">कर्ता</text>
</g>
<!-- Node3_1 -->
<g id="node3" class="node">
<title>Node3_1</title>
<ellipse fill="#00bfff" stroke="#00bfff" cx="104" cy="-105" rx="87.99" ry="18"/>
<text text-anchor="middle" x="104" y="-101.3" font-family="Times,serif" font-size="14.00">सर्वाः(3.1)</text>
</g>
<!-- Node2_1 -->
<g id="node4" class="node">
<title>Node2_1</title>
<ellipse fill="#00bfff" stroke="#00bfff" cx="104" cy="-192" rx="59.59" ry="18"/>
<text text-anchor="middle" x="104" y="-188.3" font-family="Times,serif" font-size="14.00">ताः(2.1)</text>
</g>
<!-- Node3_1&#45;&gt;Node2_1 -->
<g id="edge4" class="edge">
<title>Node3_1&#45;&gt;Node2_1</title>
<path fill="none" stroke="black" d="M91,-132.34C88.66,-139.91 87.4,-148.22 89,-156 90.25,-162.09 92.6,-168.42 95.08,-174"/>
<polygon fill="black" stroke="black" points="94.29,-133.52 94.55,-122.93 87.74,-131.05 94.29,-133.52"/>
<text text-anchor="middle" x="146.5" y="-144.8" font-family="Times,serif" font-size="14.00">विशेषणम्</text>
</g>
<!-- Node2_1&#45;&gt;Node5_1 -->
<g id="edge3" class="edge">
<title>Node2_1&#45;&gt;Node5_1</title>
<path fill="none" stroke="black" d="M133.67,-215.13C153.13,-229.63 178.16,-248.29 195.88,-261.5"/>
<polygon fill="black" stroke="black" points="135.55,-212.16 125.44,-208.99 131.37,-217.77 135.55,-212.16"/>
<text text-anchor="middle" x="197" y="-231.8" font-family="Times,serif" font-size="14.00">कर्म</text>
</g>
<!-- Node7_1 -->
<g id="node5" class="node">
<title>Node7_1</title>
<ellipse fill="#00bfff" stroke="#00bfff" cx="960" cy="-192" rx="78.79" ry="18"/>
<text text-anchor="middle" x="960" y="-188.3" font-family="Times,serif" font-size="14.00">समदाः(7.1)</text>
</g>
<!-- Node6_1 -->
<g id="node6" class="node">
<title>Node6_1</title>
<ellipse fill="#00bfff" stroke="#00bfff" cx="761" cy="-279" rx="106.68" ry="18"/>
<text text-anchor="middle" x="761" y="-275.3" font-family="Times,serif" font-size="14.00">स्त्रियः(6.1)</text>
</g>
<!-- Node7_1&#45;&gt;Node6_1 -->
<g id="edge7" class="edge">
<title>Node7_1&#45;&gt;Node6_1</title>
<path fill="none" stroke="black" d="M928.98,-215.16C914.59,-224.7 896.95,-235.38 880,-243 861.14,-251.47 839.69,-258.51 820.25,-264"/>
<polygon fill="black" stroke="black" points="931.16,-217.91 937.48,-209.41 927.24,-212.11 931.16,-217.91"/>
<text text-anchor="middle" x="964.5" y="-231.8" font-family="Times,serif" font-size="14.00">विशेषणम्</text>
</g>
<!-- Node12_1 -->
<g id="node11" class="node">
<title>Node12_1</title>
<ellipse fill="#00bfff" stroke="#00bfff" cx="761" cy="-366" rx="84.49" ry="18"/>
<text text-anchor="middle" x="761" y="-362.3" font-family="Times,serif" font-size="14.00">आगताः(12.1)</text>
</g>
<!-- Node6_1&#45;&gt;Node12_1 -->
<g id="edge6" class="edge">
<title>Node6_1&#45;&gt;Node12_1</title>
<path fill="none" stroke="black" d="M761,-307.27C761,-320.58 761,-336.19 761,-347.82"/>
<polygon fill="black" stroke="black" points="764.5,-307.2 761,-297.2 757.5,-307.2 764.5,-307.2"/>
<text text-anchor="middle" x="797" y="-318.8" font-family="Times,serif" font-size="14.00">कर्ता</text>
</g>
<!-- Node10_1 -->
<g id="node7" class="node">
<title>Node10_1</title>
<ellipse fill="#00bfff" stroke="#00bfff" cx="761" cy="-192" rx="102.88" ry="18"/>
<text text-anchor="middle" x="761" y="-188.3" font-family="Times,serif" font-size="14.00">मोहिताः(10.1)</text>
</g>
<!-- Node10_1&#45;&gt;Node6_1 -->
<g id="edge10" class="edge">
<title>Node10_1&#45;&gt;Node6_1</title>
<path fill="none" stroke="black" d="M761,-220.27C761,-233.58 761,-249.19 761,-260.82"/>
<polygon fill="black" stroke="black" points="764.5,-220.2 761,-210.2 757.5,-220.2 764.5,-220.2"/>
<text text-anchor="middle" x="818.5" y="-231.8" font-family="Times,serif" font-size="14.00">विशेषणम्</text>
</g>
<!-- Node11_1 -->
<g id="node8" class="node">
<title>Node11_1</title>
<ellipse fill="#00bfff" stroke="#00bfff" cx="528" cy="-192" rx="112.38" ry="18"/>
<text text-anchor="middle" x="528" y="-188.3" font-family="Times,serif" font-size="14.00">काश्चित्(11.1)</text>
</g>
<!-- Node11_1&#45;&gt;Node6_1 -->
<g id="edge11" class="edge">
<title>Node11_1&#45;&gt;Node6_1</title>
<path fill="none" stroke="black" d="M571.28,-213.54C592.36,-223.14 618.23,-234.33 642,-243 662.74,-250.56 685.95,-257.68 706.32,-263.5"/>
<polygon fill="black" stroke="black" points="572.51,-210.25 561.96,-209.25 569.58,-216.61 572.51,-210.25"/>
<text text-anchor="middle" x="699.5" y="-231.8" font-family="Times,serif" font-size="14.00">विशेषणम्</text>
</g>
<!-- Node1_1 -->
<g id="node9" class="node">
<title>Node1_1</title>
<ellipse fill="#ffff00" stroke="#ffff00" cx="295" cy="-18" rx="81.49" ry="18"/>
<text text-anchor="middle" x="295" y="-14.3" font-family="Times,serif" font-size="14.00">युद्ध&#45;(1.1)</text>
</g>
<!-- Node1_1&#45;&gt;Node1_2 -->
<g id="edge1" class="edge">
<title>Node1_1&#45;&gt;Node1_2</title>
<path fill="none" stroke="black" d="M295,-46.27C295,-59.58 295,-75.19 295,-86.82"/>
<polygon fill="black" stroke="black" points="298.5,-46.2 295,-36.2 291.5,-46.2 298.5,-46.2"/>
<text text-anchor="middle" x="398.5" y="-57.8" font-family="Times,serif" font-size="14.00">षष्ठी_तत्पुरुषः</text>
</g>
<!-- Node8_1 -->
<g id="node12" class="node">
<title>Node8_1</title>
<ellipse fill="#40e0d0" stroke="#40e0d0" cx="761" cy="-105" rx="78.79" ry="18"/>
<text text-anchor="middle" x="761" y="-101.3" font-family="Times,serif" font-size="14.00">मदनेन(8.1)</text>
</g>
<!-- Node8_1&#45;&gt;Node10_1 -->
<g id="edge8" class="edge">
<title>Node8_1&#45;&gt;Node10_1</title>
<path fill="none" stroke="black" d="M761,-133.27C761,-146.58 761,-162.19 761,-173.82"/>
<polygon fill="black" stroke="black" points="764.5,-133.2 761,-123.2 757.5,-133.2 764.5,-133.2"/>
<text text-anchor="middle" x="797" y="-144.8" font-family="Times,serif" font-size="14.00">करणम्</text>
</g>
<!-- Node9_1 -->
<g id="node13" class="node">
<title>Node9_1</title>
<ellipse fill="#ff99ff" stroke="#ff99ff" cx="761" cy="-18" rx="50.89" ry="18"/>
<text text-anchor="middle" x="761" y="-14.3" font-family="Times,serif" font-size="14.00">एव(9.1)</text>
</g>
<!-- Node9_1&#45;&gt;Node8_1 -->
<g id="edge9" class="edge">
<title>Node9_1&#45;&gt;Node8_1</title>
<path fill="none" stroke="black" d="M761,-46.27C761,-59.58 761,-75.19 761,-86.82"/>
<polygon fill="black" stroke="black" points="764.5,-46.2 761,-36.2 757.5,-46.2 764.5,-46.2"/>
<text text-anchor="middle" x="818.5" y="-57.8" font-family="Times,serif" font-size="14.00">सम्बन्धः</text>
</g>
</g>
</svg>
